<?xml version="1.0" encoding="UTF-8" standalone="no"?>
<!DOCTYPE svg PUBLIC "-//W3C//DTD SVG 1.1//EN"
 "http://www.w3.org/Graphics/SVG/1.1/DTD/svg11.dtd">
<!-- Generated by graphviz version 2.38.0 (20140413.2041)
 -->
<!-- Title: src/core/auth/ValidityInfo.cpp Pages: 1 -->
<svg width="641pt" height="196pt"
 viewBox="0.00 0.00 640.50 196.00" xmlns="http://www.w3.org/2000/svg" xmlns:xlink="http://www.w3.org/1999/xlink">
<g id="graph0" class="graph" transform="scale(1 1) rotate(0) translate(4 192)">
<title>src/core/auth/ValidityInfo.cpp</title>
<polygon fill="white" stroke="none" points="-4,4 -4,-192 636.5,-192 636.5,4 -4,4"/>
<!-- Node0 -->
<g id="node1" class="node"><title>Node0</title>
<polygon fill="#bfbfbf" stroke="black" points="257.5,-168.5 257.5,-187.5 401.5,-187.5 401.5,-168.5 257.5,-168.5"/>
<text text-anchor="middle" x="329.5" y="-175.5" font-family="Helvetica,sans-Serif" font-size="10.00">src/core/auth/ValidityInfo.cpp</text>
</g>
<!-- Node1 -->
<g id="node2" class="node"><title>Node1</title>
<g id="a_node2"><a xlink:href="../../dc/dfe/ValidityInfo_8hpp.html" target="_top" xlink:title="core/auth/ValidityInfo.hpp">
<polygon fill="white" stroke="black" points="124.5,-112.5 124.5,-131.5 252.5,-131.5 252.5,-112.5 124.5,-112.5"/>
<text text-anchor="middle" x="188.5" y="-119.5" font-family="Helvetica,sans-Serif" font-size="10.00">core/auth/ValidityInfo.hpp</text>
</a>
</g>
</g>
<!-- Node0&#45;&gt;Node1 -->
<g id="edge1" class="edge"><title>Node0&#45;&gt;Node1</title>
<path fill="none" stroke="midnightblue" d="M307.158,-168.444C283.747,-159.478 246.764,-145.314 220.31,-135.183"/>
<polygon fill="midnightblue" stroke="midnightblue" points="221.328,-131.824 210.737,-131.516 218.824,-138.361 221.328,-131.824"/>
</g>
<!-- Node8 -->
<g id="node9" class="node"><title>Node8</title>
<polygon fill="white" stroke="#bfbfbf" points="272,-56.5 272,-75.5 321,-75.5 321,-56.5 272,-56.5"/>
<text text-anchor="middle" x="296.5" y="-63.5" font-family="Helvetica,sans-Serif" font-size="10.00">cassert</text>
</g>
<!-- Node0&#45;&gt;Node8 -->
<g id="edge8" class="edge"><title>Node0&#45;&gt;Node8</title>
<path fill="none" stroke="midnightblue" d="M326.911,-168.368C321.561,-150.537 309.189,-109.295 301.982,-85.2717"/>
<polygon fill="midnightblue" stroke="midnightblue" points="305.303,-84.1639 299.077,-75.5914 298.599,-86.1754 305.303,-84.1639"/>
</g>
<!-- Node9 -->
<g id="node10" class="node"><title>Node9</title>
<polygon fill="white" stroke="#bfbfbf" points="416,-112.5 416,-131.5 475,-131.5 475,-112.5 416,-112.5"/>
<text text-anchor="middle" x="445.5" y="-119.5" font-family="Helvetica,sans-Serif" font-size="10.00">stdexcept</text>
</g>
<!-- Node0&#45;&gt;Node9 -->
<g id="edge9" class="edge"><title>Node0&#45;&gt;Node9</title>
<path fill="none" stroke="midnightblue" d="M347.881,-168.444C366.716,-159.675 396.231,-145.935 417.879,-135.858"/>
<polygon fill="midnightblue" stroke="midnightblue" points="419.617,-138.91 427.205,-131.516 416.662,-132.564 419.617,-138.91"/>
</g>
<!-- Node10 -->
<g id="node11" class="node"><title>Node10</title>
<g id="a_node11"><a xlink:href="../../d4/d3d/log_8hpp.html" target="_top" xlink:title="tools/log.hpp">
<polygon fill="white" stroke="black" points="325.5,-112.5 325.5,-131.5 397.5,-131.5 397.5,-112.5 325.5,-112.5"/>
<text text-anchor="middle" x="361.5" y="-119.5" font-family="Helvetica,sans-Serif" font-size="10.00">tools/log.hpp</text>
</a>
</g>
</g>
<!-- Node0&#45;&gt;Node10 -->
<g id="edge10" class="edge"><title>Node0&#45;&gt;Node10</title>
<path fill="none" stroke="midnightblue" d="M334.784,-168.083C339.211,-160.613 345.663,-149.724 351.118,-140.52"/>
<polygon fill="midnightblue" stroke="midnightblue" points="354.227,-142.138 356.314,-131.751 348.205,-138.57 354.227,-142.138"/>
</g>
<!-- Node2 -->
<g id="node3" class="node"><title>Node2</title>
<g id="a_node3"><a xlink:href="../../d3/d6f/AuthFwd_8hpp.html" target="_top" xlink:title="AuthFwd.hpp">
<polygon fill="white" stroke="black" points="56.5,-56.5 56.5,-75.5 130.5,-75.5 130.5,-56.5 56.5,-56.5"/>
<text text-anchor="middle" x="93.5" y="-63.5" font-family="Helvetica,sans-Serif" font-size="10.00">AuthFwd.hpp</text>
</a>
</g>
</g>
<!-- Node1&#45;&gt;Node2 -->
<g id="edge2" class="edge"><title>Node1&#45;&gt;Node2</title>
<path fill="none" stroke="midnightblue" d="M173.237,-112.324C158.279,-103.822 135.245,-90.7288 117.773,-80.7975"/>
<polygon fill="midnightblue" stroke="midnightblue" points="119.149,-77.5534 108.726,-75.6545 115.69,-83.639 119.149,-77.5534"/>
</g>
<!-- Node6 -->
<g id="node7" class="node"><title>Node6</title>
<polygon fill="white" stroke="#bfbfbf" points="148.5,-56.5 148.5,-75.5 194.5,-75.5 194.5,-56.5 148.5,-56.5"/>
<text text-anchor="middle" x="171.5" y="-63.5" font-family="Helvetica,sans-Serif" font-size="10.00">chrono</text>
</g>
<!-- Node1&#45;&gt;Node6 -->
<g id="edge6" class="edge"><title>Node1&#45;&gt;Node6</title>
<path fill="none" stroke="midnightblue" d="M185.693,-112.083C183.415,-104.849 180.129,-94.4087 177.292,-85.3968"/>
<polygon fill="midnightblue" stroke="midnightblue" points="180.596,-84.2385 174.255,-75.7511 173.919,-86.3406 180.596,-84.2385"/>
</g>
<!-- Node7 -->
<g id="node8" class="node"><title>Node7</title>
<polygon fill="white" stroke="#bfbfbf" points="213,-56.5 213,-75.5 254,-75.5 254,-56.5 213,-56.5"/>
<text text-anchor="middle" x="233.5" y="-63.5" font-family="Helvetica,sans-Serif" font-size="10.00">string</text>
</g>
<!-- Node1&#45;&gt;Node7 -->
<g id="edge7" class="edge"><title>Node1&#45;&gt;Node7</title>
<path fill="none" stroke="midnightblue" d="M195.931,-112.083C202.353,-104.377 211.806,-93.0333 219.622,-83.6531"/>
<polygon fill="midnightblue" stroke="midnightblue" points="222.494,-85.674 226.207,-75.7511 217.117,-81.1927 222.494,-85.674"/>
</g>
<!-- Node3 -->
<g id="node4" class="node"><title>Node3</title>
<polygon fill="white" stroke="#bfbfbf" points="0,-0.5 0,-19.5 49,-19.5 49,-0.5 0,-0.5"/>
<text text-anchor="middle" x="24.5" y="-7.5" font-family="Helvetica,sans-Serif" font-size="10.00">cstddef</text>
</g>
<!-- Node2&#45;&gt;Node3 -->
<g id="edge3" class="edge"><title>Node2&#45;&gt;Node3</title>
<path fill="none" stroke="midnightblue" d="M82.414,-56.324C72.014,-48.1849 56.2394,-35.8395 43.7784,-26.0874"/>
<polygon fill="midnightblue" stroke="midnightblue" points="45.8199,-23.2407 35.7878,-19.8339 41.5057,-28.7533 45.8199,-23.2407"/>
</g>
<!-- Node4 -->
<g id="node5" class="node"><title>Node4</title>
<polygon fill="white" stroke="#bfbfbf" points="67.5,-0.5 67.5,-19.5 119.5,-19.5 119.5,-0.5 67.5,-0.5"/>
<text text-anchor="middle" x="93.5" y="-7.5" font-family="Helvetica,sans-Serif" font-size="10.00">memory</text>
</g>
<!-- Node2&#45;&gt;Node4 -->
<g id="edge4" class="edge"><title>Node2&#45;&gt;Node4</title>
<path fill="none" stroke="midnightblue" d="M93.5,-56.083C93.5,-49.0059 93.5,-38.8611 93.5,-29.9865"/>
<polygon fill="midnightblue" stroke="midnightblue" points="97.0001,-29.751 93.5,-19.7511 90.0001,-29.7511 97.0001,-29.751"/>
</g>
<!-- Node5 -->
<g id="node6" class="node"><title>Node5</title>
<polygon fill="white" stroke="#bfbfbf" points="137.5,-0.5 137.5,-19.5 223.5,-19.5 223.5,-0.5 137.5,-0.5"/>
<text text-anchor="middle" x="180.5" y="-7.5" font-family="Helvetica,sans-Serif" font-size="10.00">odb/lazy&#45;ptr.hxx</text>
</g>
<!-- Node2&#45;&gt;Node5 -->
<g id="edge5" class="edge"><title>Node2&#45;&gt;Node5</title>
<path fill="none" stroke="midnightblue" d="M107.478,-56.324C121.05,-47.9002 141.88,-34.9709 157.825,-25.0741"/>
<polygon fill="midnightblue" stroke="midnightblue" points="159.906,-27.9019 166.557,-19.6545 156.214,-21.9544 159.906,-27.9019"/>
</g>
<!-- Node10&#45;&gt;Node7 -->
<g id="edge16" class="edge"><title>Node10&#45;&gt;Node7</title>
<path fill="none" stroke="midnightblue" d="M341.218,-112.444C320.153,-103.557 286.983,-89.5632 263.014,-79.4514"/>
<polygon fill="midnightblue" stroke="midnightblue" points="264.261,-76.1787 253.687,-75.5164 261.54,-82.6283 264.261,-76.1787"/>
</g>
<!-- Node10&#45;&gt;Node8 -->
<g id="edge11" class="edge"><title>Node10&#45;&gt;Node8</title>
<path fill="none" stroke="midnightblue" d="M351.057,-112.324C341.354,-104.263 326.685,-92.0765 315,-82.3695"/>
<polygon fill="midnightblue" stroke="midnightblue" points="317.062,-79.532 307.133,-75.8339 312.589,-84.9163 317.062,-79.532"/>
</g>
<!-- Node11 -->
<g id="node12" class="node"><title>Node11</title>
<polygon fill="white" stroke="#bfbfbf" points="339,-56.5 339,-75.5 386,-75.5 386,-56.5 339,-56.5"/>
<text text-anchor="middle" x="362.5" y="-63.5" font-family="Helvetica,sans-Serif" font-size="10.00">csignal</text>
</g>
<!-- Node10&#45;&gt;Node11 -->
<g id="edge12" class="edge"><title>Node10&#45;&gt;Node11</title>
<path fill="none" stroke="midnightblue" d="M361.665,-112.083C361.796,-105.006 361.984,-94.8611 362.148,-85.9865"/>
<polygon fill="midnightblue" stroke="midnightblue" points="365.652,-85.8142 362.338,-75.7511 358.653,-85.6845 365.652,-85.8142"/>
</g>
<!-- Node12 -->
<g id="node13" class="node"><title>Node12</title>
<polygon fill="white" stroke="#bfbfbf" points="404.5,-56.5 404.5,-75.5 458.5,-75.5 458.5,-56.5 404.5,-56.5"/>
<text text-anchor="middle" x="431.5" y="-63.5" font-family="Helvetica,sans-Serif" font-size="10.00">iostream</text>
</g>
<!-- Node10&#45;&gt;Node12 -->
<g id="edge13" class="edge"><title>Node10&#45;&gt;Node12</title>
<path fill="none" stroke="midnightblue" d="M372.747,-112.324C383.297,-104.185 399.301,-91.8395 411.942,-82.0874"/>
<polygon fill="midnightblue" stroke="midnightblue" points="414.269,-84.7132 420.049,-75.8339 409.993,-79.1707 414.269,-84.7132"/>
</g>
<!-- Node13 -->
<g id="node14" class="node"><title>Node13</title>
<polygon fill="white" stroke="#bfbfbf" points="477,-56.5 477,-75.5 562,-75.5 562,-56.5 477,-56.5"/>
<text text-anchor="middle" x="519.5" y="-63.5" font-family="Helvetica,sans-Serif" font-size="10.00">spdlog/spdlog.h</text>
</g>
<!-- Node10&#45;&gt;Node13 -->
<g id="edge14" class="edge"><title>Node10&#45;&gt;Node13</title>
<path fill="none" stroke="midnightblue" d="M386.536,-112.444C413.116,-103.359 455.309,-88.9388 485.023,-78.7831"/>
<polygon fill="midnightblue" stroke="midnightblue" points="486.251,-82.0625 494.582,-75.5164 483.987,-75.4386 486.251,-82.0625"/>
</g>
<!-- Node14 -->
<g id="node15" class="node"><title>Node14</title>
<polygon fill="white" stroke="#bfbfbf" points="580.5,-56.5 580.5,-75.5 632.5,-75.5 632.5,-56.5 580.5,-56.5"/>
<text text-anchor="middle" x="606.5" y="-63.5" font-family="Helvetica,sans-Serif" font-size="10.00">sstream</text>
</g>
<!-- Node10&#45;&gt;Node14 -->
<g id="edge15" class="edge"><title>Node10&#45;&gt;Node14</title>
<path fill="none" stroke="midnightblue" d="M397.644,-113.72C437.603,-105.568 504.105,-91.7006 570.381,-76.1955"/>
<polygon fill="midnightblue" stroke="midnightblue" points="571.222,-79.5934 580.155,-73.8965 569.619,-72.7794 571.222,-79.5934"/>
</g>
</g>
</svg>
