<?xml version="1.0" encoding="UTF-8" standalone="no"?>
<!DOCTYPE svg PUBLIC "-//W3C//DTD SVG 1.1//EN"
 "http://www.w3.org/Graphics/SVG/1.1/DTD/svg11.dtd">
<!-- Generated by graphviz version 2.38.0 (20140413.2041)
 -->
<!-- Title: src/tools/unixfilewatcher.cpp Pages: 1 -->
<svg width="1729pt" height="308pt"
 viewBox="0.00 0.00 1728.50 308.00" xmlns="http://www.w3.org/2000/svg" xmlns:xlink="http://www.w3.org/1999/xlink">
<g id="graph0" class="graph" transform="scale(1 1) rotate(0) translate(4 304)">
<title>src/tools/unixfilewatcher.cpp</title>
<polygon fill="white" stroke="none" points="-4,4 -4,-304 1724.5,-304 1724.5,4 -4,4"/>
<!-- Node0 -->
<g id="node1" class="node"><title>Node0</title>
<polygon fill="#bfbfbf" stroke="black" points="1002.5,-280.5 1002.5,-299.5 1143.5,-299.5 1143.5,-280.5 1002.5,-280.5"/>
<text text-anchor="middle" x="1073" y="-287.5" font-family="Helvetica,sans-Serif" font-size="10.00">src/tools/unixfilewatcher.cpp</text>
</g>
<!-- Node1 -->
<g id="node2" class="node"><title>Node1</title>
<g id="a_node2"><a xlink:href="../../de/d5c/unixfilewatcher_8hpp.html" target="_top" xlink:title="UnixFileWatcher class declaration. ">
<polygon fill="white" stroke="black" points="77.5,-224.5 77.5,-243.5 178.5,-243.5 178.5,-224.5 77.5,-224.5"/>
<text text-anchor="middle" x="128" y="-231.5" font-family="Helvetica,sans-Serif" font-size="10.00">unixfilewatcher.hpp</text>
</a>
</g>
</g>
<!-- Node0&#45;&gt;Node1 -->
<g id="edge1" class="edge"><title>Node0&#45;&gt;Node1</title>
<path fill="none" stroke="midnightblue" d="M1002.36,-284.963C823.668,-274.752 356.017,-248.03 188.658,-238.466"/>
<polygon fill="midnightblue" stroke="midnightblue" points="188.73,-234.965 178.546,-237.888 188.33,-241.953 188.73,-234.965"/>
</g>
<!-- Node6 -->
<g id="node7" class="node"><title>Node6</title>
<polygon fill="white" stroke="#bfbfbf" points="905,-224.5 905,-243.5 975,-243.5 975,-224.5 905,-224.5"/>
<text text-anchor="middle" x="940" y="-231.5" font-family="Helvetica,sans-Serif" font-size="10.00">sys/inotify.h</text>
</g>
<!-- Node0&#45;&gt;Node6 -->
<g id="edge6" class="edge"><title>Node0&#45;&gt;Node6</title>
<path fill="none" stroke="midnightblue" d="M1051.93,-280.444C1029.94,-271.517 995.266,-257.439 970.336,-247.317"/>
<polygon fill="midnightblue" stroke="midnightblue" points="971.558,-244.035 960.976,-243.516 968.924,-250.521 971.558,-244.035"/>
</g>
<!-- Node7 -->
<g id="node8" class="node"><title>Node7</title>
<polygon fill="white" stroke="#bfbfbf" points="993.5,-224.5 993.5,-243.5 1044.5,-243.5 1044.5,-224.5 993.5,-224.5"/>
<text text-anchor="middle" x="1019" y="-231.5" font-family="Helvetica,sans-Serif" font-size="10.00">unistd.h</text>
</g>
<!-- Node0&#45;&gt;Node7 -->
<g id="edge7" class="edge"><title>Node0&#45;&gt;Node7</title>
<path fill="none" stroke="midnightblue" d="M1064.08,-280.083C1056.22,-272.22 1044.57,-260.569 1035.08,-251.081"/>
<polygon fill="midnightblue" stroke="midnightblue" points="1037.3,-248.347 1027.75,-243.751 1032.35,-253.297 1037.3,-248.347"/>
</g>
<!-- Node8 -->
<g id="node9" class="node"><title>Node8</title>
<g id="a_node9"><a xlink:href="../../d0/d4e/fsexception_8hpp.html" target="_top" xlink:title="Exception class for filesystem related errors. ">
<polygon fill="white" stroke="black" points="1062.5,-224.5 1062.5,-243.5 1193.5,-243.5 1193.5,-224.5 1062.5,-224.5"/>
<text text-anchor="middle" x="1128" y="-231.5" font-family="Helvetica,sans-Serif" font-size="10.00">exception/fsexception.hpp</text>
</a>
</g>
</g>
<!-- Node0&#45;&gt;Node8 -->
<g id="edge8" class="edge"><title>Node0&#45;&gt;Node8</title>
<path fill="none" stroke="midnightblue" d="M1082.08,-280.083C1090.17,-272.141 1102.2,-260.335 1111.91,-250.797"/>
<polygon fill="midnightblue" stroke="midnightblue" points="1114.4,-253.254 1119.09,-243.751 1109.5,-248.26 1114.4,-253.254"/>
</g>
<!-- Node24 -->
<g id="node25" class="node"><title>Node24</title>
<g id="a_node25"><a xlink:href="../../d4/d3d/log_8hpp.html" target="_top" xlink:title="tools/log.hpp">
<polygon fill="white" stroke="black" points="1477,-56.5 1477,-75.5 1549,-75.5 1549,-56.5 1477,-56.5"/>
<text text-anchor="middle" x="1513" y="-63.5" font-family="Helvetica,sans-Serif" font-size="10.00">tools/log.hpp</text>
</a>
</g>
</g>
<!-- Node0&#45;&gt;Node24 -->
<g id="edge45" class="edge"><title>Node0&#45;&gt;Node24</title>
<path fill="none" stroke="midnightblue" d="M1143.57,-287.466C1204.52,-283.996 1293.9,-273.686 1366,-244 1405.13,-227.889 1414.68,-219.441 1443,-188 1471.85,-155.97 1494.37,-110.136 1505.45,-85.0731"/>
<polygon fill="midnightblue" stroke="midnightblue" points="1508.74,-86.2734 1509.48,-75.7045 1502.31,-83.5048 1508.74,-86.2734"/>
</g>
<!-- Node29 -->
<g id="node30" class="node"><title>Node29</title>
<g id="a_node30"><a xlink:href="../../d8/d8e/unixsyscall_8hpp.html" target="_top" xlink:title="unix syscall helper functions ">
<polygon fill="white" stroke="black" points="1228,-56.5 1228,-75.5 1336,-75.5 1336,-56.5 1228,-56.5"/>
<text text-anchor="middle" x="1282" y="-63.5" font-family="Helvetica,sans-Serif" font-size="10.00">tools/unixsyscall.hpp</text>
</a>
</g>
</g>
<!-- Node0&#45;&gt;Node29 -->
<g id="edge52" class="edge"><title>Node0&#45;&gt;Node29</title>
<path fill="none" stroke="midnightblue" d="M1143.82,-287.254C1221.6,-281.527 1345.34,-260.618 1420,-188 1444.88,-163.798 1458.87,-139.739 1438,-112 1426.57,-96.8022 1383.84,-85.1231 1345.99,-77.4759"/>
<polygon fill="midnightblue" stroke="midnightblue" points="1346.47,-74.0038 1335.99,-75.5228 1345.13,-80.8741 1346.47,-74.0038"/>
</g>
<!-- Node2 -->
<g id="node3" class="node"><title>Node2</title>
<polygon fill="white" stroke="#bfbfbf" points="0,-168.5 0,-187.5 46,-187.5 46,-168.5 0,-168.5"/>
<text text-anchor="middle" x="23" y="-175.5" font-family="Helvetica,sans-Serif" font-size="10.00">atomic</text>
</g>
<!-- Node1&#45;&gt;Node2 -->
<g id="edge2" class="edge"><title>Node1&#45;&gt;Node2</title>
<path fill="none" stroke="midnightblue" d="M111.13,-224.324C94.2912,-215.664 68.1935,-202.242 48.762,-192.249"/>
<polygon fill="midnightblue" stroke="midnightblue" points="50.3218,-189.116 39.8282,-187.655 47.1204,-195.341 50.3218,-189.116"/>
</g>
<!-- Node3 -->
<g id="node4" class="node"><title>Node3</title>
<polygon fill="white" stroke="#bfbfbf" points="64.5,-168.5 64.5,-187.5 99.5,-187.5 99.5,-168.5 64.5,-168.5"/>
<text text-anchor="middle" x="82" y="-175.5" font-family="Helvetica,sans-Serif" font-size="10.00">map</text>
</g>
<!-- Node1&#45;&gt;Node3 -->
<g id="edge3" class="edge"><title>Node1&#45;&gt;Node3</title>
<path fill="none" stroke="midnightblue" d="M120.404,-224.083C113.773,-216.298 103.979,-204.801 95.9419,-195.367"/>
<polygon fill="midnightblue" stroke="midnightblue" points="98.6037,-193.094 89.4546,-187.751 93.275,-197.633 98.6037,-193.094"/>
</g>
<!-- Node4 -->
<g id="node5" class="node"><title>Node4</title>
<polygon fill="white" stroke="#bfbfbf" points="972.5,-0.5 972.5,-19.5 1013.5,-19.5 1013.5,-0.5 972.5,-0.5"/>
<text text-anchor="middle" x="993" y="-7.5" font-family="Helvetica,sans-Serif" font-size="10.00">string</text>
</g>
<!-- Node1&#45;&gt;Node4 -->
<g id="edge4" class="edge"><title>Node1&#45;&gt;Node4</title>
<path fill="none" stroke="midnightblue" d="M127.015,-224.492C125.029,-203.411 122.615,-147.877 147,-112 174.551,-71.4645 195.123,-70.3082 242,-56 379.94,-13.8968 838.746,-10.9467 962.19,-10.9307"/>
<polygon fill="midnightblue" stroke="midnightblue" points="962.431,-14.4307 972.433,-10.9363 962.434,-7.43074 962.431,-14.4307"/>
</g>
<!-- Node5 -->
<g id="node6" class="node"><title>Node5</title>
<polygon fill="white" stroke="#bfbfbf" points="156,-168.5 156,-187.5 200,-187.5 200,-168.5 156,-168.5"/>
<text text-anchor="middle" x="178" y="-175.5" font-family="Helvetica,sans-Serif" font-size="10.00">thread</text>
</g>
<!-- Node1&#45;&gt;Node5 -->
<g id="edge5" class="edge"><title>Node1&#45;&gt;Node5</title>
<path fill="none" stroke="midnightblue" d="M136.256,-224.083C143.465,-216.298 154.11,-204.801 162.846,-195.367"/>
<polygon fill="midnightblue" stroke="midnightblue" points="165.671,-197.467 169.897,-187.751 160.535,-192.711 165.671,-197.467"/>
</g>
<!-- Node8&#45;&gt;Node4 -->
<g id="edge9" class="edge"><title>Node8&#45;&gt;Node4</title>
<path fill="none" stroke="midnightblue" d="M1193.68,-228.47C1298.02,-218.845 1483.49,-190.399 1418,-112 1360.38,-43.0199 1305.11,-101.757 1219,-76 1197.25,-69.4944 1193.52,-63.2339 1172,-56 1120.86,-38.8074 1059.55,-24.7636 1023.58,-17.1641"/>
<polygon fill="midnightblue" stroke="midnightblue" points="1024.21,-13.7193 1013.7,-15.1052 1022.78,-20.572 1024.21,-13.7193"/>
</g>
<!-- Node9 -->
<g id="node10" class="node"><title>Node9</title>
<g id="a_node10"><a xlink:href="../../d1/ddd/leosacexception_8hpp.html" target="_top" xlink:title="Exception class for LEOSAC Project related errors. ">
<polygon fill="white" stroke="black" points="823,-168.5 823,-187.5 929,-187.5 929,-168.5 823,-168.5"/>
<text text-anchor="middle" x="876" y="-175.5" font-family="Helvetica,sans-Serif" font-size="10.00">leosacexception.hpp</text>
</a>
</g>
</g>
<!-- Node8&#45;&gt;Node9 -->
<g id="edge10" class="edge"><title>Node8&#45;&gt;Node9</title>
<path fill="none" stroke="midnightblue" d="M1082.98,-224.444C1037.05,-215.043 966.376,-199.929 920.601,-189.739"/>
<polygon fill="midnightblue" stroke="midnightblue" points="921.186,-186.284 910.663,-187.516 919.658,-193.115 921.186,-186.284"/>
</g>
<!-- Node9&#45;&gt;Node4 -->
<g id="edge16" class="edge"><title>Node9&#45;&gt;Node4</title>
<path fill="none" stroke="midnightblue" d="M822.835,-176.806C688.126,-175.764 341.592,-169.436 307,-132 300.967,-125.472 303.296,-120.08 307,-112 322.89,-77.3368 336.757,-70.5588 372,-56 480.531,-11.1662 852.136,-10.0201 962.105,-10.6996"/>
<polygon fill="midnightblue" stroke="midnightblue" points="962.176,-14.2002 972.201,-10.7721 962.226,-7.20033 962.176,-14.2002"/>
</g>
<!-- Node9&#45;&gt;Node8 -->
<g id="edge32" class="edge"><title>Node9&#45;&gt;Node8</title>
<path fill="none" stroke="midnightblue" d="M920.823,-187.516C966.683,-196.901 1037.36,-212.013 1083.2,-222.217"/>
<polygon fill="midnightblue" stroke="midnightblue" points="1082.64,-225.677 1093.16,-224.444 1084.16,-218.845 1082.64,-225.677"/>
</g>
<!-- Node10 -->
<g id="node11" class="node"><title>Node10</title>
<g id="a_node11"><a xlink:href="../../d6/d2f/Stacktrace_8hpp.html" target="_top" xlink:title="tools/Stacktrace.hpp">
<polygon fill="white" stroke="black" points="316.5,-112.5 316.5,-131.5 423.5,-131.5 423.5,-112.5 316.5,-112.5"/>
<text text-anchor="middle" x="370" y="-119.5" font-family="Helvetica,sans-Serif" font-size="10.00">tools/Stacktrace.hpp</text>
</a>
</g>
</g>
<!-- Node9&#45;&gt;Node10 -->
<g id="edge11" class="edge"><title>Node9&#45;&gt;Node10</title>
<path fill="none" stroke="midnightblue" d="M822.733,-172.294C741.33,-164.948 580.842,-149.853 433.716,-132.04"/>
<polygon fill="midnightblue" stroke="midnightblue" points="433.946,-128.542 423.597,-130.808 433.1,-135.491 433.946,-128.542"/>
</g>
<!-- Node12 -->
<g id="node13" class="node"><title>Node12</title>
<polygon fill="white" stroke="#bfbfbf" points="680.5,-112.5 680.5,-131.5 729.5,-131.5 729.5,-112.5 680.5,-112.5"/>
<text text-anchor="middle" x="705" y="-119.5" font-family="Helvetica,sans-Serif" font-size="10.00">cstddef</text>
</g>
<!-- Node9&#45;&gt;Node12 -->
<g id="edge14" class="edge"><title>Node9&#45;&gt;Node12</title>
<path fill="none" stroke="midnightblue" d="M848.905,-168.444C819.332,-159.105 771.904,-144.128 739.646,-133.941"/>
<polygon fill="midnightblue" stroke="midnightblue" points="740.338,-130.489 729.748,-130.815 738.23,-137.164 740.338,-130.489"/>
</g>
<!-- Node13 -->
<g id="node14" class="node"><title>Node13</title>
<polygon fill="white" stroke="#bfbfbf" points="747.5,-112.5 747.5,-131.5 806.5,-131.5 806.5,-112.5 747.5,-112.5"/>
<text text-anchor="middle" x="777" y="-119.5" font-family="Helvetica,sans-Serif" font-size="10.00">exception</text>
</g>
<!-- Node9&#45;&gt;Node13 -->
<g id="edge15" class="edge"><title>Node9&#45;&gt;Node13</title>
<path fill="none" stroke="midnightblue" d="M860.094,-168.324C844.362,-159.743 820.058,-146.486 801.791,-136.522"/>
<polygon fill="midnightblue" stroke="midnightblue" points="803.322,-133.37 792.867,-131.655 799.97,-139.516 803.322,-133.37"/>
</g>
<!-- Node14 -->
<g id="node15" class="node"><title>Node14</title>
<g id="a_node15"><a xlink:href="../../d7/d7a/configexception_8hpp.html" target="_top" xlink:title="configexception.hpp">
<polygon fill="white" stroke="black" points="1305,-112.5 1305,-131.5 1409,-131.5 1409,-112.5 1305,-112.5"/>
<text text-anchor="middle" x="1357" y="-119.5" font-family="Helvetica,sans-Serif" font-size="10.00">configexception.hpp</text>
</a>
</g>
</g>
<!-- Node9&#45;&gt;Node14 -->
<g id="edge17" class="edge"><title>Node9&#45;&gt;Node14</title>
<path fill="none" stroke="midnightblue" d="M929.011,-171.355C1007.26,-163.435 1157.89,-148.172 1286,-132 1288.83,-131.642 1291.74,-131.264 1294.68,-130.871"/>
<polygon fill="midnightblue" stroke="midnightblue" points="1295.32,-134.316 1304.76,-129.5 1294.38,-127.379 1295.32,-134.316"/>
</g>
<!-- Node17 -->
<g id="node18" class="node"><title>Node17</title>
<g id="a_node18"><a xlink:href="../../d8/db0/coreexception_8hpp.html" target="_top" xlink:title="Exception class for Core related errors. ">
<polygon fill="white" stroke="black" points="442,-112.5 442,-131.5 538,-131.5 538,-112.5 442,-112.5"/>
<text text-anchor="middle" x="490" y="-119.5" font-family="Helvetica,sans-Serif" font-size="10.00">coreexception.hpp</text>
</a>
</g>
</g>
<!-- Node9&#45;&gt;Node17 -->
<g id="edge23" class="edge"><title>Node9&#45;&gt;Node17</title>
<path fill="none" stroke="midnightblue" d="M822.742,-170.86C758.061,-162.738 645.769,-147.771 544.75,-132.986"/>
<polygon fill="midnightblue" stroke="midnightblue" points="545.101,-129.5 534.698,-131.51 544.084,-136.426 545.101,-129.5"/>
</g>
<!-- Node18 -->
<g id="node19" class="node"><title>Node18</title>
<g id="a_node19"><a xlink:href="../../d8/d77/deviceexception_8hpp.html" target="_top" xlink:title="Exception class for Device related errors. ">
<polygon fill="white" stroke="black" points="556,-112.5 556,-131.5 662,-131.5 662,-112.5 556,-112.5"/>
<text text-anchor="middle" x="609" y="-119.5" font-family="Helvetica,sans-Serif" font-size="10.00">deviceexception.hpp</text>
</a>
</g>
</g>
<!-- Node9&#45;&gt;Node18 -->
<g id="edge26" class="edge"><title>Node9&#45;&gt;Node18</title>
<path fill="none" stroke="midnightblue" d="M828.604,-168.444C779.859,-159.004 704.56,-143.802 655.973,-133.611"/>
<polygon fill="midnightblue" stroke="midnightblue" points="656.536,-130.153 646.029,-131.516 655.093,-137.003 656.536,-130.153"/>
</g>
<!-- Node19 -->
<g id="node20" class="node"><title>Node19</title>
<g id="a_node20"><a xlink:href="../../db/d35/dynlibexception_8hpp.html" target="_top" xlink:title="Exception class for DynLib related errors. ">
<polygon fill="white" stroke="black" points="824.5,-112.5 824.5,-131.5 927.5,-131.5 927.5,-112.5 824.5,-112.5"/>
<text text-anchor="middle" x="876" y="-119.5" font-family="Helvetica,sans-Serif" font-size="10.00">dynlibexception.hpp</text>
</a>
</g>
</g>
<!-- Node9&#45;&gt;Node19 -->
<g id="edge29" class="edge"><title>Node9&#45;&gt;Node19</title>
<path fill="none" stroke="midnightblue" d="M870.834,-168.083C869.324,-160.927 868.894,-150.635 869.542,-141.691"/>
<polygon fill="midnightblue" stroke="midnightblue" points="873.015,-142.126 870.869,-131.751 866.077,-141.2 873.015,-142.126"/>
</g>
<!-- Node20 -->
<g id="node21" class="node"><title>Node20</title>
<g id="a_node21"><a xlink:href="../../d1/d8e/gpioexception_8hpp.html" target="_top" xlink:title="Exception class for Gpio related errors. ">
<polygon fill="white" stroke="black" points="945.5,-112.5 945.5,-131.5 1040.5,-131.5 1040.5,-112.5 945.5,-112.5"/>
<text text-anchor="middle" x="993" y="-119.5" font-family="Helvetica,sans-Serif" font-size="10.00">gpioexception.hpp</text>
</a>
</g>
</g>
<!-- Node9&#45;&gt;Node20 -->
<g id="edge33" class="edge"><title>Node9&#45;&gt;Node20</title>
<path fill="none" stroke="midnightblue" d="M889.683,-168.324C906.878,-159.507 936.441,-145.753 959.64,-135.707"/>
<polygon fill="midnightblue" stroke="midnightblue" points="961.314,-138.798 969.138,-131.655 958.567,-132.36 961.314,-138.798"/>
</g>
<!-- Node21 -->
<g id="node22" class="node"><title>Node21</title>
<g id="a_node22"><a xlink:href="../../d7/d8c/moduleexception_8hpp.html" target="_top" xlink:title="Exception class for modules. ">
<polygon fill="white" stroke="black" points="1058.5,-112.5 1058.5,-131.5 1167.5,-131.5 1167.5,-112.5 1058.5,-112.5"/>
<text text-anchor="middle" x="1113" y="-119.5" font-family="Helvetica,sans-Serif" font-size="10.00">moduleexception.hpp</text>
</a>
</g>
</g>
<!-- Node9&#45;&gt;Node21 -->
<g id="edge36" class="edge"><title>Node9&#45;&gt;Node21</title>
<path fill="none" stroke="midnightblue" d="M908.465,-168.444C947.742,-159.023 1014.13,-143.866 1060.64,-133.675"/>
<polygon fill="midnightblue" stroke="midnightblue" points="1061.52,-137.067 1070.54,-131.516 1060.03,-130.227 1061.52,-137.067"/>
</g>
<!-- Node22 -->
<g id="node23" class="node"><title>Node22</title>
<g id="a_node23"><a xlink:href="../../df/d8d/scriptexception_8hpp.html" target="_top" xlink:title="Exception class for Script related errors. ">
<polygon fill="white" stroke="black" points="1185.5,-112.5 1185.5,-131.5 1286.5,-131.5 1286.5,-112.5 1185.5,-112.5"/>
<text text-anchor="middle" x="1236" y="-119.5" font-family="Helvetica,sans-Serif" font-size="10.00">scriptexception.hpp</text>
</a>
</g>
</g>
<!-- Node9&#45;&gt;Node22 -->
<g id="edge39" class="edge"><title>Node9&#45;&gt;Node22</title>
<path fill="none" stroke="midnightblue" d="M927.954,-168.444C993.562,-158.268 1106.05,-141.396 1175.47,-131.324"/>
<polygon fill="midnightblue" stroke="midnightblue" points="1175.99,-134.785 1185.39,-129.889 1174.99,-127.857 1175.99,-134.785"/>
</g>
<!-- Node23 -->
<g id="node24" class="node"><title>Node23</title>
<g id="a_node24"><a xlink:href="../../dc/dce/signalexception_8hpp.html" target="_top" xlink:title="Exception class for Signal related errors. ">
<polygon fill="white" stroke="black" points="156.5,-112.5 156.5,-131.5 259.5,-131.5 259.5,-112.5 156.5,-112.5"/>
<text text-anchor="middle" x="208" y="-119.5" font-family="Helvetica,sans-Serif" font-size="10.00">signalexception.hpp</text>
</a>
</g>
</g>
<!-- Node9&#45;&gt;Node23 -->
<g id="edge42" class="edge"><title>Node9&#45;&gt;Node23</title>
<path fill="none" stroke="midnightblue" d="M822.631,-174.382C717.851,-168.722 478.214,-154.134 269.967,-132.496"/>
<polygon fill="midnightblue" stroke="midnightblue" points="270.072,-128.988 259.762,-131.427 269.343,-135.95 270.072,-128.988"/>
</g>
<!-- Node10&#45;&gt;Node4 -->
<g id="edge12" class="edge"><title>Node10&#45;&gt;Node4</title>
<path fill="none" stroke="midnightblue" d="M369.672,-112.164C369.674,-97.8364 372.001,-69.757 389,-56 433.833,-19.7164 845.461,-12.5725 962.243,-11.2715"/>
<polygon fill="midnightblue" stroke="midnightblue" points="962.335,-14.7708 972.298,-11.166 962.262,-7.77119 962.335,-14.7708"/>
</g>
<!-- Node11 -->
<g id="node12" class="node"><title>Node11</title>
<polygon fill="white" stroke="#bfbfbf" points="398,-56.5 398,-75.5 442,-75.5 442,-56.5 398,-56.5"/>
<text text-anchor="middle" x="420" y="-63.5" font-family="Helvetica,sans-Serif" font-size="10.00">vector</text>
</g>
<!-- Node10&#45;&gt;Node11 -->
<g id="edge13" class="edge"><title>Node10&#45;&gt;Node11</title>
<path fill="none" stroke="midnightblue" d="M378.256,-112.083C385.465,-104.298 396.11,-92.8015 404.846,-83.3665"/>
<polygon fill="midnightblue" stroke="midnightblue" points="407.671,-85.4666 411.897,-75.7511 402.535,-80.7108 407.671,-85.4666"/>
</g>
<!-- Node14&#45;&gt;Node4 -->
<g id="edge22" class="edge"><title>Node14&#45;&gt;Node4</title>
<path fill="none" stroke="midnightblue" d="M1321.07,-112.433C1286.3,-103.936 1232.23,-90.1677 1186,-76 1160.33,-68.133 1154.41,-64.6616 1129,-56 1092.89,-43.6915 1051.22,-29.9759 1023.62,-20.9591"/>
<polygon fill="midnightblue" stroke="midnightblue" points="1024.37,-17.5207 1013.78,-17.7462 1022.2,-24.1754 1024.37,-17.5207"/>
</g>
<!-- Node14&#45;&gt;Node9 -->
<g id="edge18" class="edge"><title>Node14&#45;&gt;Node9</title>
<path fill="none" stroke="midnightblue" d="M1307.59,-131.54C1306.39,-131.697 1305.19,-131.85 1304,-132 1174.92,-148.295 1022.98,-163.666 939.217,-171.533"/>
<polygon fill="midnightblue" stroke="midnightblue" points="938.729,-168.063 929.098,-172.478 939.38,-175.033 938.729,-168.063"/>
</g>
<!-- Node15 -->
<g id="node16" class="node"><title>Node15</title>
<g id="a_node16"><a xlink:href="../../dd/d35/Colorize_8hpp.html" target="_top" xlink:title="tools/Colorize.hpp">
<polygon fill="white" stroke="black" points="1354.5,-56.5 1354.5,-75.5 1449.5,-75.5 1449.5,-56.5 1354.5,-56.5"/>
<text text-anchor="middle" x="1402" y="-63.5" font-family="Helvetica,sans-Serif" font-size="10.00">tools/Colorize.hpp</text>
</a>
</g>
</g>
<!-- Node14&#45;&gt;Node15 -->
<g id="edge19" class="edge"><title>Node14&#45;&gt;Node15</title>
<path fill="none" stroke="midnightblue" d="M1364.43,-112.083C1370.85,-104.377 1380.31,-93.0333 1388.12,-83.6531"/>
<polygon fill="midnightblue" stroke="midnightblue" points="1390.99,-85.674 1394.71,-75.7511 1385.62,-81.1927 1390.99,-85.674"/>
</g>
<!-- Node15&#45;&gt;Node4 -->
<g id="edge21" class="edge"><title>Node15&#45;&gt;Node4</title>
<path fill="none" stroke="midnightblue" d="M1354.43,-57.3817C1351.24,-56.9039 1348.07,-56.4392 1345,-56 1226.48,-39.0708 1085.06,-21.9127 1023.8,-14.6286"/>
<polygon fill="midnightblue" stroke="midnightblue" points="1024,-11.1277 1013.66,-13.4256 1023.18,-18.079 1024,-11.1277"/>
</g>
<!-- Node16 -->
<g id="node17" class="node"><title>Node16</title>
<polygon fill="white" stroke="#bfbfbf" points="1360,-0.5 1360,-19.5 1412,-19.5 1412,-0.5 1360,-0.5"/>
<text text-anchor="middle" x="1386" y="-7.5" font-family="Helvetica,sans-Serif" font-size="10.00">sstream</text>
</g>
<!-- Node15&#45;&gt;Node16 -->
<g id="edge20" class="edge"><title>Node15&#45;&gt;Node16</title>
<path fill="none" stroke="midnightblue" d="M1399.36,-56.083C1397.21,-48.8486 1394.12,-38.4087 1391.45,-29.3968"/>
<polygon fill="midnightblue" stroke="midnightblue" points="1394.79,-28.3447 1388.59,-19.7511 1388.08,-30.3334 1394.79,-28.3447"/>
</g>
<!-- Node17&#45;&gt;Node4 -->
<g id="edge24" class="edge"><title>Node17&#45;&gt;Node4</title>
<path fill="none" stroke="midnightblue" d="M523.947,-112.449C575.475,-99.5768 676.579,-74.7343 763,-56 834.082,-40.5907 918.042,-24.7595 962.234,-16.6092"/>
<polygon fill="midnightblue" stroke="midnightblue" points="963.123,-20.0046 972.325,-14.7544 961.857,-13.12 963.123,-20.0046"/>
</g>
<!-- Node17&#45;&gt;Node9 -->
<g id="edge25" class="edge"><title>Node17&#45;&gt;Node9</title>
<path fill="none" stroke="midnightblue" d="M538.127,-129.304C544.182,-130.228 550.251,-131.153 556,-132 645.192,-145.14 748.186,-159.019 812.784,-167.83"/>
<polygon fill="midnightblue" stroke="midnightblue" points="812.432,-171.315 822.814,-169.2 813.38,-164.379 812.432,-171.315"/>
</g>
<!-- Node18&#45;&gt;Node4 -->
<g id="edge27" class="edge"><title>Node18&#45;&gt;Node4</title>
<path fill="none" stroke="midnightblue" d="M638.812,-112.46C710.193,-92.0123 890.328,-40.4111 962.451,-19.751"/>
<polygon fill="midnightblue" stroke="midnightblue" points="963.633,-23.0532 972.283,-16.9346 961.706,-16.3239 963.633,-23.0532"/>
</g>
<!-- Node18&#45;&gt;Node9 -->
<g id="edge28" class="edge"><title>Node18&#45;&gt;Node9</title>
<path fill="none" stroke="midnightblue" d="M656.189,-131.516C704.859,-140.94 780.158,-156.141 828.821,-166.346"/>
<polygon fill="midnightblue" stroke="midnightblue" points="828.275,-169.807 838.782,-168.444 829.718,-162.958 828.275,-169.807"/>
</g>
<!-- Node19&#45;&gt;Node4 -->
<g id="edge30" class="edge"><title>Node19&#45;&gt;Node4</title>
<path fill="none" stroke="midnightblue" d="M885.181,-112.368C904.831,-93.8941 951.207,-50.2926 976.255,-26.7436"/>
<polygon fill="midnightblue" stroke="midnightblue" points="978.974,-28.9912 983.862,-19.5914 974.179,-23.8912 978.974,-28.9912"/>
</g>
<!-- Node19&#45;&gt;Node9 -->
<g id="edge31" class="edge"><title>Node19&#45;&gt;Node9</title>
<path fill="none" stroke="midnightblue" d="M881.131,-131.751C882.657,-138.858 883.104,-149.136 882.472,-158.101"/>
<polygon fill="midnightblue" stroke="midnightblue" points="878.993,-157.713 881.166,-168.083 885.934,-158.622 878.993,-157.713"/>
</g>
<!-- Node20&#45;&gt;Node4 -->
<g id="edge35" class="edge"><title>Node20&#45;&gt;Node4</title>
<path fill="none" stroke="midnightblue" d="M993,-112.368C993,-94.617 993,-53.6664 993,-29.5974"/>
<polygon fill="midnightblue" stroke="midnightblue" points="996.5,-29.5914 993,-19.5914 989.5,-29.5915 996.5,-29.5914"/>
</g>
<!-- Node20&#45;&gt;Node9 -->
<g id="edge34" class="edge"><title>Node20&#45;&gt;Node9</title>
<path fill="none" stroke="midnightblue" d="M979.628,-131.516C962.36,-140.388 932.284,-154.38 908.874,-164.503"/>
<polygon fill="midnightblue" stroke="midnightblue" points="907.455,-161.303 899.628,-168.444 910.199,-167.743 907.455,-161.303"/>
</g>
<!-- Node21&#45;&gt;Node4 -->
<g id="edge37" class="edge"><title>Node21&#45;&gt;Node4</title>
<path fill="none" stroke="midnightblue" d="M1103.58,-112.368C1083.34,-93.8137 1035.45,-49.9129 1009.84,-26.4376"/>
<polygon fill="midnightblue" stroke="midnightblue" points="1012.11,-23.7686 1002.37,-19.5914 1007.38,-28.9287 1012.11,-23.7686"/>
</g>
<!-- Node21&#45;&gt;Node9 -->
<g id="edge38" class="edge"><title>Node21&#45;&gt;Node9</title>
<path fill="none" stroke="midnightblue" d="M1080.7,-131.516C1041.5,-140.92 975.125,-156.077 928.555,-166.281"/>
<polygon fill="midnightblue" stroke="midnightblue" points="927.667,-162.893 918.642,-168.444 929.158,-169.732 927.667,-162.893"/>
</g>
<!-- Node22&#45;&gt;Node4 -->
<g id="edge40" class="edge"><title>Node22&#45;&gt;Node4</title>
<path fill="none" stroke="midnightblue" d="M1216.93,-112.368C1174.35,-93.0908 1071.32,-46.4536 1021.25,-23.7894"/>
<polygon fill="midnightblue" stroke="midnightblue" points="1022.53,-20.5268 1011.98,-19.5914 1019.65,-26.9039 1022.53,-20.5268"/>
</g>
<!-- Node22&#45;&gt;Node9 -->
<g id="edge41" class="edge"><title>Node22&#45;&gt;Node9</title>
<path fill="none" stroke="midnightblue" d="M1185.3,-131.361C1120.76,-141.379 1009.43,-158.083 939.367,-168.264"/>
<polygon fill="midnightblue" stroke="midnightblue" points="938.734,-164.819 929.34,-169.717 939.738,-171.747 938.734,-164.819"/>
</g>
<!-- Node23&#45;&gt;Node4 -->
<g id="edge43" class="edge"><title>Node23&#45;&gt;Node4</title>
<path fill="none" stroke="midnightblue" d="M213.653,-112.288C223.74,-97.6064 246.395,-68.3322 274,-56 337.449,-27.6549 832.655,-14.6091 962.117,-11.6621"/>
<polygon fill="midnightblue" stroke="midnightblue" points="962.231,-15.1605 972.15,-11.4374 962.074,-8.1623 962.231,-15.1605"/>
</g>
<!-- Node23&#45;&gt;Node9 -->
<g id="edge44" class="edge"><title>Node23&#45;&gt;Node9</title>
<path fill="none" stroke="midnightblue" d="M259.765,-129.237C267.59,-130.243 275.525,-131.212 283,-132 475.601,-152.311 703.818,-166.747 812.495,-173.206"/>
<polygon fill="midnightblue" stroke="midnightblue" points="812.445,-176.709 822.634,-173.806 812.858,-169.721 812.445,-176.709"/>
</g>
<!-- Node24&#45;&gt;Node4 -->
<g id="edge51" class="edge"><title>Node24&#45;&gt;Node4</title>
<path fill="none" stroke="midnightblue" d="M1476.96,-58.754C1470.65,-57.7605 1464.14,-56.7987 1458,-56 1295.1,-34.8129 1098.9,-18.9833 1024.05,-13.2958"/>
<polygon fill="midnightblue" stroke="midnightblue" points="1024.15,-9.79289 1013.91,-12.5309 1023.62,-16.7731 1024.15,-9.79289"/>
</g>
<!-- Node24&#45;&gt;Node16 -->
<g id="edge50" class="edge"><title>Node24&#45;&gt;Node16</title>
<path fill="none" stroke="midnightblue" d="M1492.88,-56.4435C1471.98,-47.5566 1439.07,-33.5632 1415.28,-23.4514"/>
<polygon fill="midnightblue" stroke="midnightblue" points="1416.6,-20.2085 1406.03,-19.5164 1413.86,-26.6504 1416.6,-20.2085"/>
</g>
<!-- Node25 -->
<g id="node26" class="node"><title>Node25</title>
<polygon fill="white" stroke="#bfbfbf" points="1430.5,-0.5 1430.5,-19.5 1479.5,-19.5 1479.5,-0.5 1430.5,-0.5"/>
<text text-anchor="middle" x="1455" y="-7.5" font-family="Helvetica,sans-Serif" font-size="10.00">cassert</text>
</g>
<!-- Node24&#45;&gt;Node25 -->
<g id="edge46" class="edge"><title>Node24&#45;&gt;Node25</title>
<path fill="none" stroke="midnightblue" d="M1503.68,-56.324C1495.11,-48.3414 1482.19,-36.3128 1471.81,-26.6529"/>
<polygon fill="midnightblue" stroke="midnightblue" points="1474.19,-24.0865 1464.49,-19.8339 1469.42,-29.2098 1474.19,-24.0865"/>
</g>
<!-- Node26 -->
<g id="node27" class="node"><title>Node26</title>
<polygon fill="white" stroke="#bfbfbf" points="1497.5,-0.5 1497.5,-19.5 1544.5,-19.5 1544.5,-0.5 1497.5,-0.5"/>
<text text-anchor="middle" x="1521" y="-7.5" font-family="Helvetica,sans-Serif" font-size="10.00">csignal</text>
</g>
<!-- Node24&#45;&gt;Node26 -->
<g id="edge47" class="edge"><title>Node24&#45;&gt;Node26</title>
<path fill="none" stroke="midnightblue" d="M1514.32,-56.083C1515.38,-48.9272 1516.91,-38.6353 1518.23,-29.6911"/>
<polygon fill="midnightblue" stroke="midnightblue" points="1521.7,-30.1561 1519.7,-19.7511 1514.78,-29.1302 1521.7,-30.1561"/>
</g>
<!-- Node27 -->
<g id="node28" class="node"><title>Node27</title>
<polygon fill="white" stroke="#bfbfbf" points="1563,-0.5 1563,-19.5 1617,-19.5 1617,-0.5 1563,-0.5"/>
<text text-anchor="middle" x="1590" y="-7.5" font-family="Helvetica,sans-Serif" font-size="10.00">iostream</text>
</g>
<!-- Node24&#45;&gt;Node27 -->
<g id="edge48" class="edge"><title>Node24&#45;&gt;Node27</title>
<path fill="none" stroke="midnightblue" d="M1525.37,-56.324C1537.16,-48.0577 1555.13,-35.4527 1569.14,-25.6322"/>
<polygon fill="midnightblue" stroke="midnightblue" points="1571.48,-28.2619 1577.66,-19.6545 1567.46,-22.5307 1571.48,-28.2619"/>
</g>
<!-- Node28 -->
<g id="node29" class="node"><title>Node28</title>
<polygon fill="white" stroke="#bfbfbf" points="1635.5,-0.5 1635.5,-19.5 1720.5,-19.5 1720.5,-0.5 1635.5,-0.5"/>
<text text-anchor="middle" x="1678" y="-7.5" font-family="Helvetica,sans-Serif" font-size="10.00">spdlog/spdlog.h</text>
</g>
<!-- Node24&#45;&gt;Node28 -->
<g id="edge49" class="edge"><title>Node24&#45;&gt;Node28</title>
<path fill="none" stroke="midnightblue" d="M1539.14,-56.4435C1567.02,-47.3196 1611.35,-32.8133 1642.4,-22.6509"/>
<polygon fill="midnightblue" stroke="midnightblue" points="1643.56,-25.9533 1651.98,-19.5164 1641.38,-19.3005 1643.56,-25.9533"/>
</g>
<!-- Node29&#45;&gt;Node4 -->
<g id="edge53" class="edge"><title>Node29&#45;&gt;Node4</title>
<path fill="none" stroke="midnightblue" d="M1236.21,-56.4435C1176.77,-45.3378 1074.66,-26.2573 1023.74,-16.7433"/>
<polygon fill="midnightblue" stroke="midnightblue" points="1024.16,-13.2609 1013.68,-14.8646 1022.87,-20.1418 1024.16,-13.2609"/>
</g>
</g>
</svg>
