<?xml version="1.0" encoding="UTF-8" standalone="no"?>
<!DOCTYPE svg PUBLIC "-//W3C//DTD SVG 1.1//EN"
 "http://www.w3.org/Graphics/SVG/1.1/DTD/svg11.dtd">
<!-- Generated by graphviz version 2.38.0 (20140413.2041)
 -->
<!-- Title: src/core/update/serializers/UpdateDescriptorSerializer.hpp Pages: 1 -->
<svg width="480pt" height="117pt"
 viewBox="0.00 0.00 479.50 117.00" xmlns="http://www.w3.org/2000/svg" xmlns:xlink="http://www.w3.org/1999/xlink">
<g id="graph0" class="graph" transform="scale(1 1) rotate(0) translate(4 113)">
<title>src/core/update/serializers/UpdateDescriptorSerializer.hpp</title>
<polygon fill="white" stroke="none" points="-4,4 -4,-113 475.5,-113 475.5,4 -4,4"/>
<!-- Node5 -->
<g id="node1" class="node"><title>Node5</title>
<polygon fill="#bfbfbf" stroke="black" points="166,-78.5 166,-108.5 321,-108.5 321,-78.5 166,-78.5"/>
<text text-anchor="start" x="174" y="-96.5" font-family="Helvetica,sans-Serif" font-size="10.00">src/core/update/serializers</text>
<text text-anchor="middle" x="243.5" y="-85.5" font-family="Helvetica,sans-Serif" font-size="10.00">/UpdateDescriptorSerializer.hpp</text>
</g>
<!-- Node6 -->
<g id="node2" class="node"><title>Node6</title>
<g id="a_node2"><a xlink:href="../../d8/d0b/UpdateDescriptorSerializer_8cpp.html" target="_top" xlink:title="src/core/update/serializers\l/UpdateDescriptorSerializer.cpp">
<polygon fill="white" stroke="black" points="0,-6 0,-36 155,-36 155,-6 0,-6"/>
<text text-anchor="start" x="8" y="-24" font-family="Helvetica,sans-Serif" font-size="10.00">src/core/update/serializers</text>
<text text-anchor="middle" x="77.5" y="-13" font-family="Helvetica,sans-Serif" font-size="10.00">/UpdateDescriptorSerializer.cpp</text>
</a>
</g>
</g>
<!-- Node5&#45;&gt;Node6 -->
<g id="edge1" class="edge"><title>Node5&#45;&gt;Node6</title>
<path fill="none" stroke="midnightblue" d="M200.748,-74.3431C172.683,-62.4243 136.52,-47.0655 110.636,-36.0729"/>
<polygon fill="midnightblue" stroke="midnightblue" points="199.734,-77.7151 210.306,-78.4027 202.47,-71.2721 199.734,-77.7151"/>
</g>
<!-- Node7 -->
<g id="node3" class="node"><title>Node7</title>
<g id="a_node3"><a xlink:href="../../d4/d2d/CheckUpdate_8cpp.html" target="_top" xlink:title="src/modules/websock\l&#45;api/api/update&#45;management\l/CheckUpdate.cpp">
<polygon fill="white" stroke="black" points="173.5,-0.5 173.5,-41.5 313.5,-41.5 313.5,-0.5 173.5,-0.5"/>
<text text-anchor="start" x="181.5" y="-29.5" font-family="Helvetica,sans-Serif" font-size="10.00">src/modules/websock</text>
<text text-anchor="start" x="181.5" y="-18.5" font-family="Helvetica,sans-Serif" font-size="10.00">&#45;api/api/update&#45;management</text>
<text text-anchor="middle" x="243.5" y="-7.5" font-family="Helvetica,sans-Serif" font-size="10.00">/CheckUpdate.cpp</text>
</a>
</g>
</g>
<!-- Node5&#45;&gt;Node7 -->
<g id="edge2" class="edge"><title>Node5&#45;&gt;Node7</title>
<path fill="none" stroke="midnightblue" d="M243.5,-67.9815C243.5,-59.3468 243.5,-49.7625 243.5,-41.5884"/>
<polygon fill="midnightblue" stroke="midnightblue" points="240,-68.2332 243.5,-78.2333 247,-68.2333 240,-68.2332"/>
</g>
<!-- Node8 -->
<g id="node4" class="node"><title>Node8</title>
<g id="a_node4"><a xlink:href="../../d9/d03/PendingUpdateGet_8cpp.html" target="_top" xlink:title="src/modules/websock\l&#45;api/api/update&#45;management\l/PendingUpdateGet.cpp">
<polygon fill="white" stroke="black" points="331.5,-0.5 331.5,-41.5 471.5,-41.5 471.5,-0.5 331.5,-0.5"/>
<text text-anchor="start" x="339.5" y="-29.5" font-family="Helvetica,sans-Serif" font-size="10.00">src/modules/websock</text>
<text text-anchor="start" x="339.5" y="-18.5" font-family="Helvetica,sans-Serif" font-size="10.00">&#45;api/api/update&#45;management</text>
<text text-anchor="middle" x="401.5" y="-7.5" font-family="Helvetica,sans-Serif" font-size="10.00">/PendingUpdateGet.cpp</text>
</a>
</g>
</g>
<!-- Node5&#45;&gt;Node8 -->
<g id="edge3" class="edge"><title>Node5&#45;&gt;Node8</title>
<path fill="none" stroke="midnightblue" d="M284.368,-74.2645C306.853,-64.2315 334.76,-51.7794 357.694,-41.5464"/>
<polygon fill="midnightblue" stroke="midnightblue" points="282.8,-71.1316 275.094,-78.4027 285.652,-77.5241 282.8,-71.1316"/>
</g>
</g>
</svg>
