<?xml version="1.0" encoding="UTF-8" standalone="no"?>
<!DOCTYPE svg PUBLIC "-//W3C//DTD SVG 1.1//EN"
 "http://www.w3.org/Graphics/SVG/1.1/DTD/svg11.dtd">
<!-- Generated by graphviz version 2.38.0 (20140413.2041)
 -->
<!-- Title: src/core/MessageBus.cpp Pages: 1 -->
<svg width="243pt" height="140pt"
 viewBox="0.00 0.00 243.00 140.00" xmlns="http://www.w3.org/2000/svg" xmlns:xlink="http://www.w3.org/1999/xlink">
<g id="graph0" class="graph" transform="scale(1 1) rotate(0) translate(4 136)">
<title>src/core/MessageBus.cpp</title>
<polygon fill="white" stroke="none" points="-4,4 -4,-136 239,-136 239,4 -4,4"/>
<!-- Node0 -->
<g id="node1" class="node"><title>Node0</title>
<polygon fill="#bfbfbf" stroke="black" points="42,-112.5 42,-131.5 173,-131.5 173,-112.5 42,-112.5"/>
<text text-anchor="middle" x="107.5" y="-119.5" font-family="Helvetica,sans-Serif" font-size="10.00">src/core/MessageBus.cpp</text>
</g>
<!-- Node1 -->
<g id="node2" class="node"><title>Node1</title>
<g id="a_node2"><a xlink:href="../../d4/d0a/MessageBus_8hpp.html" target="_top" xlink:title="MessageBus.hpp">
<polygon fill="white" stroke="black" points="2.5,-56.5 2.5,-75.5 94.5,-75.5 94.5,-56.5 2.5,-56.5"/>
<text text-anchor="middle" x="48.5" y="-63.5" font-family="Helvetica,sans-Serif" font-size="10.00">MessageBus.hpp</text>
</a>
</g>
</g>
<!-- Node0&#45;&gt;Node1 -->
<g id="edge1" class="edge"><title>Node0&#45;&gt;Node1</title>
<path fill="none" stroke="midnightblue" d="M98.0206,-112.324C89.2989,-104.341 76.1565,-92.3128 65.6022,-82.6529"/>
<polygon fill="midnightblue" stroke="midnightblue" points="67.8917,-80.0036 58.1519,-75.8339 63.1655,-85.1674 67.8917,-80.0036"/>
</g>
<!-- Node3 -->
<g id="node4" class="node"><title>Node3</title>
<g id="a_node4"><a xlink:href="../../d1/d91/ThreadUtils_8hpp.html" target="_top" xlink:title="tools/ThreadUtils.hpp">
<polygon fill="white" stroke="black" points="112.5,-56.5 112.5,-75.5 222.5,-75.5 222.5,-56.5 112.5,-56.5"/>
<text text-anchor="middle" x="167.5" y="-63.5" font-family="Helvetica,sans-Serif" font-size="10.00">tools/ThreadUtils.hpp</text>
</a>
</g>
</g>
<!-- Node0&#45;&gt;Node3 -->
<g id="edge3" class="edge"><title>Node0&#45;&gt;Node3</title>
<path fill="none" stroke="midnightblue" d="M117.14,-112.324C126.01,-104.341 139.375,-92.3128 150.108,-82.6529"/>
<polygon fill="midnightblue" stroke="midnightblue" points="152.593,-85.1251 157.685,-75.8339 147.91,-79.922 152.593,-85.1251"/>
</g>
<!-- Node2 -->
<g id="node3" class="node"><title>Node2</title>
<polygon fill="white" stroke="#bfbfbf" points="0,-0.5 0,-19.5 97,-19.5 97,-0.5 0,-0.5"/>
<text text-anchor="middle" x="48.5" y="-7.5" font-family="Helvetica,sans-Serif" font-size="10.00">zmqpp/zmqpp.hpp</text>
</g>
<!-- Node1&#45;&gt;Node2 -->
<g id="edge2" class="edge"><title>Node1&#45;&gt;Node2</title>
<path fill="none" stroke="midnightblue" d="M48.5,-56.083C48.5,-49.0059 48.5,-38.8611 48.5,-29.9865"/>
<polygon fill="midnightblue" stroke="midnightblue" points="52.0001,-29.751 48.5,-19.7511 45.0001,-29.7511 52.0001,-29.751"/>
</g>
<!-- Node4 -->
<g id="node5" class="node"><title>Node4</title>
<polygon fill="white" stroke="#bfbfbf" points="129.5,-0.5 129.5,-19.5 175.5,-19.5 175.5,-0.5 129.5,-0.5"/>
<text text-anchor="middle" x="152.5" y="-7.5" font-family="Helvetica,sans-Serif" font-size="10.00">cstdint</text>
</g>
<!-- Node3&#45;&gt;Node4 -->
<g id="edge4" class="edge"><title>Node3&#45;&gt;Node4</title>
<path fill="none" stroke="midnightblue" d="M165.023,-56.083C163.014,-48.8486 160.114,-38.4087 157.61,-29.3968"/>
<polygon fill="midnightblue" stroke="midnightblue" points="160.98,-28.4495 154.931,-19.7511 154.235,-30.323 160.98,-28.4495"/>
</g>
<!-- Node5 -->
<g id="node6" class="node"><title>Node5</title>
<polygon fill="white" stroke="#bfbfbf" points="194,-0.5 194,-19.5 235,-19.5 235,-0.5 194,-0.5"/>
<text text-anchor="middle" x="214.5" y="-7.5" font-family="Helvetica,sans-Serif" font-size="10.00">string</text>
</g>
<!-- Node3&#45;&gt;Node5 -->
<g id="edge5" class="edge"><title>Node3&#45;&gt;Node5</title>
<path fill="none" stroke="midnightblue" d="M175.261,-56.083C182.037,-48.2982 192.043,-36.8015 200.255,-27.3665"/>
<polygon fill="midnightblue" stroke="midnightblue" points="202.958,-29.592 206.883,-19.7511 197.678,-24.9963 202.958,-29.592"/>
</g>
</g>
</svg>
