<?xml version="1.0" encoding="UTF-8" standalone="no"?>
<!DOCTYPE svg PUBLIC "-//W3C//DTD SVG 1.1//EN"
 "http://www.w3.org/Graphics/SVG/1.1/DTD/svg11.dtd">
<!-- Generated by graphviz version 2.38.0 (20140413.2041)
 -->
<!-- Title: src/tools/unixfs.hpp Pages: 1 -->
<!--zoomable 308 -->
<svg id="main" version="1.1" xmlns="http://www.w3.org/2000/svg" xmlns:xlink="http://www.w3.org/1999/xlink" xml:space="preserve" onload="init(evt)">
<style type="text/css"><![CDATA[
.edge:hover path { stroke: red; }
.edge:hover polygon { stroke: red; fill: red; }
]]></style>
<script type="text/javascript"><![CDATA[
var edges = document.getElementsByTagName('g');
if (edges && edges.length) {
  for (var i=0;i<edges.length;i++) {
    if (edges[i].id.substr(0,4)=='edge') {
      edges[i].setAttribute('class','edge');
    }
  }
}
]]></script>
        <defs>
                <circle id="rim" cx="0" cy="0" r="7"/>
                <circle id="rim2" cx="0" cy="0" r="3.5"/>
                <g id="zoomPlus">
                        <use xlink:href="#rim" fill="#404040">
                                <set attributeName="fill" to="#808080" begin="zoomplus.mouseover" end="zoomplus.mouseout"/>
                        </use>
                        <path d="M-4,0h8M0,-4v8" fill="none" stroke="white" stroke-width="1.5" pointer-events="none"/>
                </g>
                <g id="zoomMin">
                        <use xlink:href="#rim" fill="#404040">
                                <set attributeName="fill" to="#808080" begin="zoomminus.mouseover" end="zoomminus.mouseout"/>
                        </use>
                        <path d="M-4,0h8" fill="none" stroke="white" stroke-width="1.5" pointer-events="none"/>
                </g>
                <g id="dirArrow">
                        <path fill="none" stroke="white" stroke-width="1.5" d="M0,-3.0v7 M-2.5,-0.5L0,-3.0L2.5,-0.5"/>
                </g>
               <g id="resetDef">
                       <use xlink:href="#rim2" fill="#404040">
                               <set attributeName="fill" to="#808080" begin="reset.mouseover" end="reset.mouseout"/>
                       </use>
               </g>
        </defs>

<script type="text/javascript">
var viewWidth = 1326;
var viewHeight = 308;
var sectionId = 'dynsection-0';
</script>
<script xlink:href="../../svgpan.js"/>
<svg id="graph" class="graph">
<g id="viewport">
<title>src/tools/unixfs.hpp</title>
<polygon fill="white" stroke="none" points="-4,4 -4,-304 1322,-304 1322,4 -4,4"/>
<!-- Node0 -->
<g id="node1" class="node"><title>Node0</title>
<polygon fill="#bfbfbf" stroke="black" points="849,-280.5 849,-299.5 951,-299.5 951,-280.5 849,-280.5"/>
<text text-anchor="middle" x="900" y="-287.5" font-family="Helvetica,sans-Serif" font-size="10.00">src/tools/unixfs.hpp</text>
</g>
<!-- Node1 -->
<g id="node2" class="node"><title>Node1</title>
<polygon fill="white" stroke="#bfbfbf" points="768,-224.5 768,-243.5 818,-243.5 818,-224.5 768,-224.5"/>
<text text-anchor="middle" x="793" y="-231.5" font-family="Helvetica,sans-Serif" font-size="10.00">fstream</text>
</g>
<!-- Node0&#45;&gt;Node1 -->
<g id="edge1" class="edge"><title>Node0&#45;&gt;Node1</title>
<path fill="none" stroke="midnightblue" d="M882.809,-280.324C865.649,-271.664 839.054,-258.242 819.253,-248.249"/>
<polygon fill="midnightblue" stroke="midnightblue" points="820.653,-245.035 810.149,-243.655 817.499,-251.285 820.653,-245.035"/>
</g>
<!-- Node2 -->
<g id="node3" class="node"><title>Node2</title>
<polygon fill="white" stroke="#bfbfbf" points="836.5,-224.5 836.5,-243.5 865.5,-243.5 865.5,-224.5 836.5,-224.5"/>
<text text-anchor="middle" x="851" y="-231.5" font-family="Helvetica,sans-Serif" font-size="10.00">list</text>
</g>
<!-- Node0&#45;&gt;Node2 -->
<g id="edge2" class="edge"><title>Node0&#45;&gt;Node2</title>
<path fill="none" stroke="midnightblue" d="M891.909,-280.083C884.845,-272.298 874.412,-260.801 865.851,-251.367"/>
<polygon fill="midnightblue" stroke="midnightblue" points="868.253,-248.805 858.941,-243.751 863.069,-253.509 868.253,-248.805"/>
</g>
<!-- Node3 -->
<g id="node4" class="node"><title>Node3</title>
<polygon fill="white" stroke="#bfbfbf" points="773.5,-0.5 773.5,-19.5 814.5,-19.5 814.5,-0.5 773.5,-0.5"/>
<text text-anchor="middle" x="794" y="-7.5" font-family="Helvetica,sans-Serif" font-size="10.00">string</text>
</g>
<!-- Node0&#45;&gt;Node3 -->
<g id="edge3" class="edge"><title>Node0&#45;&gt;Node3</title>
<path fill="none" stroke="midnightblue" d="M951.255,-286.284C1062.87,-278.969 1318,-254.04 1318,-179 1318,-179 1318,-179 1318,-121 1318,-19.5707 937.204,-11.1347 824.849,-10.8532"/>
<polygon fill="midnightblue" stroke="midnightblue" points="824.543,-7.35319 814.541,-10.8491 824.54,-14.3532 824.543,-7.35319"/>
</g>
<!-- Node4 -->
<g id="node5" class="node"><title>Node4</title>
<g id="a_node5"><a xlink:href="../../d0/d4e/fsexception_8hpp.html" target="_top" xlink:title="Exception class for filesystem related errors. ">
<polygon fill="white" stroke="black" points="883.5,-224.5 883.5,-243.5 1014.5,-243.5 1014.5,-224.5 883.5,-224.5"/>
<text text-anchor="middle" x="949" y="-231.5" font-family="Helvetica,sans-Serif" font-size="10.00">exception/fsexception.hpp</text>
</a>
</g>
</g>
<!-- Node0&#45;&gt;Node4 -->
<g id="edge4" class="edge"><title>Node0&#45;&gt;Node4</title>
<path fill="none" stroke="midnightblue" d="M908.091,-280.083C915.155,-272.298 925.588,-260.801 934.149,-251.367"/>
<polygon fill="midnightblue" stroke="midnightblue" points="936.931,-253.509 941.059,-243.751 931.747,-248.805 936.931,-253.509"/>
</g>
<!-- Node4&#45;&gt;Node3 -->
<g id="edge5" class="edge"><title>Node4&#45;&gt;Node3</title>
<path fill="none" stroke="midnightblue" d="M1014.55,-230.549C1115.05,-224.007 1290.55,-200.01 1240,-112 1215.4,-69.1672 1190.76,-71.9114 1144,-56 1031.02,-17.5562 887.316,-11.563 825.07,-10.8945"/>
<polygon fill="midnightblue" stroke="midnightblue" points="824.786,-7.39266 814.763,-10.8258 824.74,-14.3925 824.786,-7.39266"/>
</g>
<!-- Node5 -->
<g id="node6" class="node"><title>Node5</title>
<g id="a_node6"><a xlink:href="../../d1/ddd/leosacexception_8hpp.html" target="_top" xlink:title="Exception class for LEOSAC Project related errors. ">
<polygon fill="white" stroke="black" points="621,-168.5 621,-187.5 727,-187.5 727,-168.5 621,-168.5"/>
<text text-anchor="middle" x="674" y="-175.5" font-family="Helvetica,sans-Serif" font-size="10.00">leosacexception.hpp</text>
</a>
</g>
</g>
<!-- Node4&#45;&gt;Node5 -->
<g id="edge6" class="edge"><title>Node4&#45;&gt;Node5</title>
<path fill="none" stroke="midnightblue" d="M900.337,-224.444C850.088,-214.984 772.317,-199.738 722.23,-189.547"/>
<polygon fill="midnightblue" stroke="midnightblue" points="722.789,-186.089 712.291,-187.516 721.388,-192.947 722.789,-186.089"/>
</g>
<!-- Node5&#45;&gt;Node3 -->
<g id="edge12" class="edge"><title>Node5&#45;&gt;Node3</title>
<path fill="none" stroke="midnightblue" d="M727.211,-176.64C858.531,-175.2 1189.83,-168 1223,-132 1279.91,-70.2388 931.942,-26.2265 824.729,-14.2622"/>
<polygon fill="midnightblue" stroke="midnightblue" points="824.884,-10.7582 814.561,-13.1435 824.118,-17.7162 824.884,-10.7582"/>
</g>
<!-- Node5&#45;&gt;Node4 -->
<g id="edge28" class="edge"><title>Node5&#45;&gt;Node4</title>
<path fill="none" stroke="midnightblue" d="M722.451,-187.516C772.622,-196.96 850.392,-212.204 900.557,-222.41"/>
<polygon fill="midnightblue" stroke="midnightblue" points="900.016,-225.871 910.514,-224.444 901.417,-219.013 900.016,-225.871"/>
</g>
<!-- Node6 -->
<g id="node7" class="node"><title>Node6</title>
<g id="a_node7"><a xlink:href="../../d6/d2f/Stacktrace_8hpp.html" target="_top" xlink:title="tools/Stacktrace.hpp">
<polygon fill="white" stroke="black" points="866.5,-112.5 866.5,-131.5 973.5,-131.5 973.5,-112.5 866.5,-112.5"/>
<text text-anchor="middle" x="920" y="-119.5" font-family="Helvetica,sans-Serif" font-size="10.00">tools/Stacktrace.hpp</text>
</a>
</g>
</g>
<!-- Node5&#45;&gt;Node6 -->
<g id="edge7" class="edge"><title>Node5&#45;&gt;Node6</title>
<path fill="none" stroke="midnightblue" d="M712.979,-168.444C755.894,-159.023 824.946,-143.866 871.369,-133.675"/>
<polygon fill="midnightblue" stroke="midnightblue" points="872.186,-137.079 881.203,-131.516 870.685,-130.242 872.186,-137.079"/>
</g>
<!-- Node8 -->
<g id="node9" class="node"><title>Node8</title>
<polygon fill="white" stroke="#bfbfbf" points="236.5,-112.5 236.5,-131.5 285.5,-131.5 285.5,-112.5 236.5,-112.5"/>
<text text-anchor="middle" x="261" y="-119.5" font-family="Helvetica,sans-Serif" font-size="10.00">cstddef</text>
</g>
<!-- Node5&#45;&gt;Node8 -->
<g id="edge10" class="edge"><title>Node5&#45;&gt;Node8</title>
<path fill="none" stroke="midnightblue" d="M620.748,-173.201C548.914,-167.525 416.895,-155.147 295.946,-132.145"/>
<polygon fill="midnightblue" stroke="midnightblue" points="296.256,-128.64 285.773,-130.18 294.928,-135.513 296.256,-128.64"/>
</g>
<!-- Node9 -->
<g id="node10" class="node"><title>Node9</title>
<polygon fill="white" stroke="#bfbfbf" points="303.5,-112.5 303.5,-131.5 362.5,-131.5 362.5,-112.5 303.5,-112.5"/>
<text text-anchor="middle" x="333" y="-119.5" font-family="Helvetica,sans-Serif" font-size="10.00">exception</text>
</g>
<!-- Node5&#45;&gt;Node9 -->
<g id="edge11" class="edge"><title>Node5&#45;&gt;Node9</title>
<path fill="none" stroke="midnightblue" d="M620.87,-170.373C562.449,-162.798 465.618,-149.396 372.617,-131.986"/>
<polygon fill="midnightblue" stroke="midnightblue" points="373.236,-128.541 362.759,-130.122 371.935,-135.419 373.236,-128.541"/>
</g>
<!-- Node10 -->
<g id="node11" class="node"><title>Node10</title>
<g id="a_node11"><a xlink:href="../../d7/d7a/configexception_8hpp.html" target="_top" xlink:title="configexception.hpp">
<polygon fill="white" stroke="black" points="0,-112.5 0,-131.5 104,-131.5 104,-112.5 0,-112.5"/>
<text text-anchor="middle" x="52" y="-119.5" font-family="Helvetica,sans-Serif" font-size="10.00">configexception.hpp</text>
</a>
</g>
</g>
<!-- Node5&#45;&gt;Node10 -->
<g id="edge13" class="edge"><title>Node5&#45;&gt;Node10</title>
<path fill="none" stroke="midnightblue" d="M620.846,-174.221C521.448,-168.472 301.013,-154.039 109.757,-132.631"/>
<polygon fill="midnightblue" stroke="midnightblue" points="110.137,-129.151 99.8077,-131.508 109.352,-136.107 110.137,-129.151"/>
</g>
<!-- Node13 -->
<g id="node14" class="node"><title>Node13</title>
<g id="a_node14"><a xlink:href="../../d8/db0/coreexception_8hpp.html" target="_top" xlink:title="Exception class for Core related errors. ">
<polygon fill="white" stroke="black" points="122,-112.5 122,-131.5 218,-131.5 218,-112.5 122,-112.5"/>
<text text-anchor="middle" x="170" y="-119.5" font-family="Helvetica,sans-Serif" font-size="10.00">coreexception.hpp</text>
</a>
</g>
</g>
<!-- Node5&#45;&gt;Node13 -->
<g id="edge19" class="edge"><title>Node5&#45;&gt;Node13</title>
<path fill="none" stroke="midnightblue" d="M620.804,-173.083C537.326,-166.322 370.737,-151.425 224.439,-132.812"/>
<polygon fill="midnightblue" stroke="midnightblue" points="224.751,-129.323 214.387,-131.523 223.861,-136.266 224.751,-129.323"/>
</g>
<!-- Node14 -->
<g id="node15" class="node"><title>Node14</title>
<g id="a_node15"><a xlink:href="../../d8/d77/deviceexception_8hpp.html" target="_top" xlink:title="Exception class for Device related errors. ">
<polygon fill="white" stroke="black" points="381,-112.5 381,-131.5 487,-131.5 487,-112.5 381,-112.5"/>
<text text-anchor="middle" x="434" y="-119.5" font-family="Helvetica,sans-Serif" font-size="10.00">deviceexception.hpp</text>
</a>
</g>
</g>
<!-- Node5&#45;&gt;Node14 -->
<g id="edge22" class="edge"><title>Node5&#45;&gt;Node14</title>
<path fill="none" stroke="midnightblue" d="M630.883,-168.444C587.225,-159.083 520.291,-144.056 476.764,-133.868"/>
<polygon fill="midnightblue" stroke="midnightblue" points="477.307,-130.4 466.771,-131.516 475.703,-137.214 477.307,-130.4"/>
</g>
<!-- Node15 -->
<g id="node16" class="node"><title>Node15</title>
<g id="a_node16"><a xlink:href="../../db/d35/dynlibexception_8hpp.html" target="_top" xlink:title="Exception class for DynLib related errors. ">
<polygon fill="white" stroke="black" points="505.5,-112.5 505.5,-131.5 608.5,-131.5 608.5,-112.5 505.5,-112.5"/>
<text text-anchor="middle" x="557" y="-119.5" font-family="Helvetica,sans-Serif" font-size="10.00">dynlibexception.hpp</text>
</a>
</g>
</g>
<!-- Node5&#45;&gt;Node15 -->
<g id="edge25" class="edge"><title>Node5&#45;&gt;Node15</title>
<path fill="none" stroke="midnightblue" d="M650.372,-168.444C629.639,-159.754 599.968,-146.183 579.565,-136.131"/>
<polygon fill="midnightblue" stroke="midnightblue" points="580.88,-132.875 570.372,-131.516 577.739,-139.131 580.88,-132.875"/>
</g>
<!-- Node16 -->
<g id="node17" class="node"><title>Node16</title>
<g id="a_node17"><a xlink:href="../../d1/d8e/gpioexception_8hpp.html" target="_top" xlink:title="Exception class for Gpio related errors. ">
<polygon fill="white" stroke="black" points="626.5,-112.5 626.5,-131.5 721.5,-131.5 721.5,-112.5 626.5,-112.5"/>
<text text-anchor="middle" x="674" y="-119.5" font-family="Helvetica,sans-Serif" font-size="10.00">gpioexception.hpp</text>
</a>
</g>
</g>
<!-- Node5&#45;&gt;Node16 -->
<g id="edge29" class="edge"><title>Node5&#45;&gt;Node16</title>
<path fill="none" stroke="midnightblue" d="M668.834,-168.083C667.324,-160.927 666.894,-150.635 667.542,-141.691"/>
<polygon fill="midnightblue" stroke="midnightblue" points="671.015,-142.126 668.869,-131.751 664.077,-141.2 671.015,-142.126"/>
</g>
<!-- Node17 -->
<g id="node18" class="node"><title>Node17</title>
<g id="a_node18"><a xlink:href="../../d7/d8c/moduleexception_8hpp.html" target="_top" xlink:title="Exception class for modules. ">
<polygon fill="white" stroke="black" points="739.5,-112.5 739.5,-131.5 848.5,-131.5 848.5,-112.5 739.5,-112.5"/>
<text text-anchor="middle" x="794" y="-119.5" font-family="Helvetica,sans-Serif" font-size="10.00">moduleexception.hpp</text>
</a>
</g>
</g>
<!-- Node5&#45;&gt;Node17 -->
<g id="edge32" class="edge"><title>Node5&#45;&gt;Node17</title>
<path fill="none" stroke="midnightblue" d="M688.165,-168.324C705.929,-159.467 736.448,-145.63 760.252,-135.573"/>
<polygon fill="midnightblue" stroke="midnightblue" points="761.773,-138.731 769.658,-131.655 759.081,-132.27 761.773,-138.731"/>
</g>
<!-- Node18 -->
<g id="node19" class="node"><title>Node18</title>
<g id="a_node19"><a xlink:href="../../df/d8d/scriptexception_8hpp.html" target="_top" xlink:title="Exception class for Script related errors. ">
<polygon fill="white" stroke="black" points="991.5,-112.5 991.5,-131.5 1092.5,-131.5 1092.5,-112.5 991.5,-112.5"/>
<text text-anchor="middle" x="1042" y="-119.5" font-family="Helvetica,sans-Serif" font-size="10.00">scriptexception.hpp</text>
</a>
</g>
</g>
<!-- Node5&#45;&gt;Node18 -->
<g id="edge35" class="edge"><title>Node5&#45;&gt;Node18</title>
<path fill="none" stroke="midnightblue" d="M726.536,-168.492C786.47,-159.53 887.137,-144.95 974,-132 976.335,-131.652 978.721,-131.295 981.138,-130.932"/>
<polygon fill="midnightblue" stroke="midnightblue" points="981.818,-134.369 991.189,-129.427 980.781,-127.447 981.818,-134.369"/>
</g>
<!-- Node19 -->
<g id="node20" class="node"><title>Node19</title>
<g id="a_node20"><a xlink:href="../../dc/dce/signalexception_8hpp.html" target="_top" xlink:title="Exception class for Signal related errors. ">
<polygon fill="white" stroke="black" points="1110.5,-112.5 1110.5,-131.5 1213.5,-131.5 1213.5,-112.5 1110.5,-112.5"/>
<text text-anchor="middle" x="1162" y="-119.5" font-family="Helvetica,sans-Serif" font-size="10.00">signalexception.hpp</text>
</a>
</g>
</g>
<!-- Node5&#45;&gt;Node19 -->
<g id="edge38" class="edge"><title>Node5&#45;&gt;Node19</title>
<path fill="none" stroke="midnightblue" d="M727.279,-171.6C806.997,-163.878 961.631,-148.75 1093,-132 1095.34,-131.702 1097.72,-131.388 1100.14,-131.062"/>
<polygon fill="midnightblue" stroke="midnightblue" points="1100.75,-134.51 1110.18,-129.67 1099.79,-127.576 1100.75,-134.51"/>
</g>
<!-- Node6&#45;&gt;Node3 -->
<g id="edge8" class="edge"><title>Node6&#45;&gt;Node3</title>
<path fill="none" stroke="midnightblue" d="M919.754,-112.298C918.917,-98.6586 915.403,-72.1413 901,-56 881.248,-33.8638 848.829,-22.3057 824.844,-16.4799"/>
<polygon fill="midnightblue" stroke="midnightblue" points="825.339,-13.0046 814.818,-14.2544 823.822,-19.8383 825.339,-13.0046"/>
</g>
<!-- Node7 -->
<g id="node8" class="node"><title>Node7</title>
<polygon fill="white" stroke="#bfbfbf" points="848,-56.5 848,-75.5 892,-75.5 892,-56.5 848,-56.5"/>
<text text-anchor="middle" x="870" y="-63.5" font-family="Helvetica,sans-Serif" font-size="10.00">vector</text>
</g>
<!-- Node6&#45;&gt;Node7 -->
<g id="edge9" class="edge"><title>Node6&#45;&gt;Node7</title>
<path fill="none" stroke="midnightblue" d="M911.744,-112.083C904.535,-104.298 893.89,-92.8015 885.154,-83.3665"/>
<polygon fill="midnightblue" stroke="midnightblue" points="887.465,-80.7108 878.103,-75.7511 882.329,-85.4666 887.465,-80.7108"/>
</g>
<!-- Node10&#45;&gt;Node3 -->
<g id="edge18" class="edge"><title>Node10&#45;&gt;Node3</title>
<path fill="none" stroke="midnightblue" d="M96.137,-112.49C165.53,-99.2864 304.465,-73.5601 423,-56 548.893,-37.3498 699.674,-20.8607 763.293,-14.1704"/>
<polygon fill="midnightblue" stroke="midnightblue" points="763.856,-17.6307 773.437,-13.1091 763.127,-10.6687 763.856,-17.6307"/>
</g>
<!-- Node10&#45;&gt;Node5 -->
<g id="edge14" class="edge"><title>Node10&#45;&gt;Node5</title>
<path fill="none" stroke="midnightblue" d="M104.19,-129.747C110.222,-130.568 116.256,-131.347 122,-132 298.69,-152.099 507.695,-166.364 610.53,-172.932"/>
<polygon fill="midnightblue" stroke="midnightblue" points="610.541,-176.439 620.743,-173.581 610.986,-169.453 610.541,-176.439"/>
</g>
<!-- Node11 -->
<g id="node12" class="node"><title>Node11</title>
<g id="a_node12"><a xlink:href="../../dd/d35/Colorize_8hpp.html" target="_top" xlink:title="tools/Colorize.hpp">
<polygon fill="white" stroke="black" points="12.5,-56.5 12.5,-75.5 107.5,-75.5 107.5,-56.5 12.5,-56.5"/>
<text text-anchor="middle" x="60" y="-63.5" font-family="Helvetica,sans-Serif" font-size="10.00">tools/Colorize.hpp</text>
</a>
</g>
</g>
<!-- Node10&#45;&gt;Node11 -->
<g id="edge15" class="edge"><title>Node10&#45;&gt;Node11</title>
<path fill="none" stroke="midnightblue" d="M53.321,-112.083C54.3811,-104.927 55.9059,-94.6353 57.2309,-85.6911"/>
<polygon fill="midnightblue" stroke="midnightblue" points="60.7002,-86.1561 58.7035,-75.7511 53.7758,-85.1302 60.7002,-86.1561"/>
</g>
<!-- Node11&#45;&gt;Node3 -->
<g id="edge17" class="edge"><title>Node11&#45;&gt;Node3</title>
<path fill="none" stroke="midnightblue" d="M107.594,-61.4985C246.389,-51.2874 648.132,-21.7314 762.992,-13.2813"/>
<polygon fill="midnightblue" stroke="midnightblue" points="763.477,-16.7551 773.193,-12.5308 762.963,-9.77399 763.477,-16.7551"/>
</g>
<!-- Node12 -->
<g id="node13" class="node"><title>Node12</title>
<polygon fill="white" stroke="#bfbfbf" points="34,-0.5 34,-19.5 86,-19.5 86,-0.5 34,-0.5"/>
<text text-anchor="middle" x="60" y="-7.5" font-family="Helvetica,sans-Serif" font-size="10.00">sstream</text>
</g>
<!-- Node11&#45;&gt;Node12 -->
<g id="edge16" class="edge"><title>Node11&#45;&gt;Node12</title>
<path fill="none" stroke="midnightblue" d="M60,-56.083C60,-49.0059 60,-38.8611 60,-29.9865"/>
<polygon fill="midnightblue" stroke="midnightblue" points="63.5001,-29.751 60,-19.7511 56.5001,-29.7511 63.5001,-29.751"/>
</g>
<!-- Node13&#45;&gt;Node3 -->
<g id="edge20" class="edge"><title>Node13&#45;&gt;Node3</title>
<path fill="none" stroke="midnightblue" d="M218.186,-112.506C340.788,-90.8932 662.014,-34.2668 763.089,-16.4491"/>
<polygon fill="midnightblue" stroke="midnightblue" points="764,-19.8425 773.24,-14.6596 762.785,-12.9488 764,-19.8425"/>
</g>
<!-- Node13&#45;&gt;Node5 -->
<g id="edge21" class="edge"><title>Node13&#45;&gt;Node5</title>
<path fill="none" stroke="midnightblue" d="M218.102,-129.487C224.16,-130.386 230.237,-131.256 236,-132 369.24,-149.212 525.546,-163.634 610.817,-171.229"/>
<polygon fill="midnightblue" stroke="midnightblue" points="610.586,-174.722 620.857,-172.121 611.206,-167.75 610.586,-174.722"/>
</g>
<!-- Node14&#45;&gt;Node3 -->
<g id="edge23" class="edge"><title>Node14&#45;&gt;Node3</title>
<path fill="none" stroke="midnightblue" d="M461.949,-112.46C528.26,-92.1982 694.682,-41.347 763.491,-20.3222"/>
<polygon fill="midnightblue" stroke="midnightblue" points="764.749,-23.5978 773.289,-17.3283 762.703,-16.9033 764.749,-23.5978"/>
</g>
<!-- Node14&#45;&gt;Node5 -->
<g id="edge24" class="edge"><title>Node14&#45;&gt;Node5</title>
<path fill="none" stroke="midnightblue" d="M476.931,-131.516C520.614,-140.881 587.739,-155.95 631.325,-166.153"/>
<polygon fill="midnightblue" stroke="midnightblue" points="630.524,-169.56 641.06,-168.444 632.128,-162.746 630.524,-169.56"/>
</g>
<!-- Node15&#45;&gt;Node3 -->
<g id="edge26" class="edge"><title>Node15&#45;&gt;Node3</title>
<path fill="none" stroke="midnightblue" d="M575.597,-112.368C617.045,-93.131 717.195,-46.6478 766.139,-23.9314"/>
<polygon fill="midnightblue" stroke="midnightblue" points="767.892,-26.9762 775.489,-19.5914 764.945,-20.6267 767.892,-26.9762"/>
</g>
<!-- Node15&#45;&gt;Node5 -->
<g id="edge27" class="edge"><title>Node15&#45;&gt;Node5</title>
<path fill="none" stroke="midnightblue" d="M580.862,-131.655C601.485,-140.307 630.828,-153.727 651.146,-163.726"/>
<polygon fill="midnightblue" stroke="midnightblue" points="649.809,-166.971 660.317,-168.324 652.946,-160.713 649.809,-166.971"/>
</g>
<!-- Node16&#45;&gt;Node3 -->
<g id="edge31" class="edge"><title>Node16&#45;&gt;Node3</title>
<path fill="none" stroke="midnightblue" d="M683.416,-112.368C703.658,-93.8137 751.55,-49.9129 777.159,-26.4376"/>
<polygon fill="midnightblue" stroke="midnightblue" points="779.621,-28.9287 784.628,-19.5914 774.891,-23.7686 779.621,-28.9287"/>
</g>
<!-- Node16&#45;&gt;Node5 -->
<g id="edge30" class="edge"><title>Node16&#45;&gt;Node5</title>
<path fill="none" stroke="midnightblue" d="M679.131,-131.751C680.657,-138.858 681.104,-149.136 680.472,-158.101"/>
<polygon fill="midnightblue" stroke="midnightblue" points="676.993,-157.713 679.166,-168.083 683.934,-158.622 676.993,-157.713"/>
</g>
<!-- Node17&#45;&gt;Node3 -->
<g id="edge33" class="edge"><title>Node17&#45;&gt;Node3</title>
<path fill="none" stroke="midnightblue" d="M794,-112.368C794,-94.617 794,-53.6664 794,-29.5974"/>
<polygon fill="midnightblue" stroke="midnightblue" points="797.5,-29.5914 794,-19.5914 790.5,-29.5915 797.5,-29.5914"/>
</g>
<!-- Node17&#45;&gt;Node5 -->
<g id="edge34" class="edge"><title>Node17&#45;&gt;Node5</title>
<path fill="none" stroke="midnightblue" d="M780.155,-131.516C762.394,-140.388 731.541,-154.38 707.568,-164.503"/>
<polygon fill="midnightblue" stroke="midnightblue" points="705.99,-161.369 698.103,-168.444 708.68,-167.831 705.99,-161.369"/>
</g>
<!-- Node18&#45;&gt;Node3 -->
<g id="edge36" class="edge"><title>Node18&#45;&gt;Node3</title>
<path fill="none" stroke="midnightblue" d="M1027.7,-112.49C1005.25,-99.3432 960.168,-73.7588 920,-56 888.117,-41.9038 850.312,-28.8696 824.487,-20.4968"/>
<polygon fill="midnightblue" stroke="midnightblue" points="825.469,-17.1361 814.878,-17.4173 823.332,-23.8022 825.469,-17.1361"/>
</g>
<!-- Node18&#45;&gt;Node5 -->
<g id="edge37" class="edge"><title>Node18&#45;&gt;Node5</title>
<path fill="none" stroke="midnightblue" d="M995.101,-131.537C994.06,-131.693 993.025,-131.847 992,-132 903.822,-145.146 801.42,-159.972 737.07,-168.895"/>
<polygon fill="midnightblue" stroke="midnightblue" points="736.505,-165.44 727.077,-170.275 737.462,-172.374 736.505,-165.44"/>
</g>
<!-- Node19&#45;&gt;Node3 -->
<g id="edge39" class="edge"><title>Node19&#45;&gt;Node3</title>
<path fill="none" stroke="midnightblue" d="M1135.48,-112.444C1096.02,-99.775 1019.47,-75.4309 954,-56 908.945,-42.6273 856.455,-28.0555 824.228,-19.2235"/>
<polygon fill="midnightblue" stroke="midnightblue" points="825.081,-15.8283 814.512,-16.5664 823.235,-22.5803 825.081,-15.8283"/>
</g>
<!-- Node19&#45;&gt;Node5 -->
<g id="edge40" class="edge"><title>Node19&#45;&gt;Node5</title>
<path fill="none" stroke="midnightblue" d="M1114.8,-131.507C1113.52,-131.675 1112.25,-131.84 1111,-132 978.531,-148.891 822.405,-164.131 737.166,-171.793"/>
<polygon fill="midnightblue" stroke="midnightblue" points="736.778,-168.313 727.129,-172.689 737.4,-175.286 736.778,-168.313"/>
</g>
</g>
</svg>
        <g id="navigator" transform="translate(0 0)" fill="#404254">
                <rect fill="#f2f5e9" fill-opacity="0.5" stroke="#606060" stroke-width=".5" x="0" y="0" width="60" height="60"/>
                <use id="zoomplus" xlink:href="#zoomPlus" x="17" y="9" onmousedown="handleZoom(evt,'in')"/>
                <use id="zoomminus" xlink:href="#zoomMin" x="42" y="9" onmousedown="handleZoom(evt,'out')"/>
                <use id="reset" xlink:href="#resetDef" x="30" y="36" onmousedown="handleReset()"/>
                <g id="arrowUp" xlink:href="#dirArrow" transform="translate(30 24)" onmousedown="handlePan(0,-1)">
                  <use xlink:href="#rim" fill="#404040">
                        <set attributeName="fill" to="#808080" begin="arrowUp.mouseover" end="arrowUp.mouseout"/>
                  </use>
                  <path fill="none" stroke="white" stroke-width="1.5" d="M0,-3.0v7 M-2.5,-0.5L0,-3.0L2.5,-0.5"/>
                </g>
                <g id="arrowRight" xlink:href="#dirArrow" transform="rotate(90) translate(36 -43)" onmousedown="handlePan(1,0)">
                  <use xlink:href="#rim" fill="#404040">
                        <set attributeName="fill" to="#808080" begin="arrowRight.mouseover" end="arrowRight.mouseout"/>
                  </use>
                  <path fill="none" stroke="white" stroke-width="1.5" d="M0,-3.0v7 M-2.5,-0.5L0,-3.0L2.5,-0.5"/>
                </g>
                <g id="arrowDown" xlink:href="#dirArrow" transform="rotate(180) translate(-30 -48)" onmousedown="handlePan(0,1)">
                  <use xlink:href="#rim" fill="#404040">
                        <set attributeName="fill" to="#808080" begin="arrowDown.mouseover" end="arrowDown.mouseout"/>
                  </use>
                  <path fill="none" stroke="white" stroke-width="1.5" d="M0,-3.0v7 M-2.5,-0.5L0,-3.0L2.5,-0.5"/>
                </g>
                <g id="arrowLeft" xlink:href="#dirArrow" transform="rotate(270) translate(-36 17)" onmousedown="handlePan(-1,0)">
                  <use xlink:href="#rim" fill="#404040">
                        <set attributeName="fill" to="#808080" begin="arrowLeft.mouseover" end="arrowLeft.mouseout"/>
                  </use>
                  <path fill="none" stroke="white" stroke-width="1.5" d="M0,-3.0v7 M-2.5,-0.5L0,-3.0L2.5,-0.5"/>
                </g>
        </g>
        <svg viewBox="0 0 15 15" width="100%" height="30px" preserveAspectRatio="xMaxYMin meet">
         <g id="arrow_out" transform="scale(0.3 0.3)">
          <a xlink:href="unixfs_8hpp__incl_org.svg" target="_base">
           <rect id="button" ry="5" rx="5" y="6" x="6" height="38" width="38"
                fill="#f2f5e9" fill-opacity="0.5" stroke="#606060" stroke-width="1.0"/>
           <path id="arrow"
             d="M 11.500037,31.436501 C 11.940474,20.09759 22.043105,11.32322 32.158766,21.979434 L 37.068811,17.246167 C 37.068811,17.246167 37.088388,32 37.088388,32 L 22.160133,31.978069 C 22.160133,31.978069 26.997745,27.140456 26.997745,27.140456 C 18.528582,18.264221 13.291696,25.230495 11.500037,31.436501 z"
             style="fill:#404040;"/>
          </a>
         </g>
        </svg>
</svg>
