<?xml version="1.0" encoding="UTF-8" standalone="no"?>
<!DOCTYPE svg PUBLIC "-//W3C//DTD SVG 1.1//EN"
 "http://www.w3.org/Graphics/SVG/1.1/DTD/svg11.dtd">
<!-- Generated by graphviz version 2.38.0 (20140413.2041)
 -->
<!-- Title: Leosac::Module::TCPNotifier::TCPNotifierModule Pages: 1 -->
<svg width="719pt" height="138pt"
 viewBox="0.00 0.00 719.00 137.50" xmlns="http://www.w3.org/2000/svg" xmlns:xlink="http://www.w3.org/1999/xlink">
<g id="graph0" class="graph" transform="scale(1 1) rotate(0) translate(4 133.5)">
<title>Leosac::Module::TCPNotifier::TCPNotifierModule</title>
<polygon fill="white" stroke="none" points="-4,4 -4,-133.5 715,-133.5 715,4 -4,4"/>
<!-- Node2 -->
<g id="node1" class="node"><title>Node2</title>
<polygon fill="#bfbfbf" stroke="black" points="568,-53 568,-83 711,-83 711,-53 568,-53"/>
<text text-anchor="start" x="576" y="-71" font-family="Helvetica,sans-Serif" font-size="10.00">Leosac::Module::TCPNotifier</text>
<text text-anchor="middle" x="639.5" y="-60" font-family="Helvetica,sans-Serif" font-size="10.00">::TCPNotifierModule</text>
</g>
<!-- Node3 -->
<g id="node2" class="node"><title>Node3</title>
<g id="a_node2"><a xlink:href="../../df/d9f/classLeosac_1_1Module_1_1BaseModule.html" target="_top" xlink:title="Base class for module implementation. ">
<polygon fill="white" stroke="black" points="332.5,-58.5 332.5,-77.5 478.5,-77.5 478.5,-58.5 332.5,-58.5"/>
<text text-anchor="middle" x="405.5" y="-65.5" font-family="Helvetica,sans-Serif" font-size="10.00">Leosac::Module::BaseModule</text>
</a>
</g>
</g>
<!-- Node3&#45;&gt;Node2 -->
<g id="edge1" class="edge"><title>Node3&#45;&gt;Node2</title>
<path fill="none" stroke="midnightblue" d="M488.75,-68C514.509,-68 542.7,-68 567.605,-68"/>
<polygon fill="midnightblue" stroke="midnightblue" points="488.635,-64.5001 478.635,-68 488.634,-71.5001 488.635,-64.5001"/>
</g>
<!-- Node4 -->
<g id="node3" class="node"><title>Node4</title>
<g id="a_node3"><a xlink:title="STL class. ">
<polygon fill="white" stroke="#bfbfbf" points="168.5,-91.5 168.5,-110.5 228.5,-110.5 228.5,-91.5 168.5,-91.5"/>
<text text-anchor="middle" x="198.5" y="-98.5" font-family="Helvetica,sans-Serif" font-size="10.00">std::string</text>
</a>
</g>
</g>
<!-- Node4&#45;&gt;Node3 -->
<g id="edge2" class="edge"><title>Node4&#45;&gt;Node3</title>
<path fill="none" stroke="#9a32cd" stroke-dasharray="5,2" d="M238.993,-94.6426C269.096,-89.7967 311.045,-83.0439 345.178,-77.5495"/>
<polygon fill="#9a32cd" stroke="#9a32cd" points="238.188,-91.227 228.872,-96.2719 239.301,-98.138 238.188,-91.227"/>
<text text-anchor="middle" x="290.5" y="-93" font-family="Helvetica,sans-Serif" font-size="10.00"> name_</text>
</g>
<!-- Node7 -->
<g id="node6" class="node"><title>Node7</title>
<g id="a_node6"><a xlink:href="../../dc/db8/classLeosac_1_1Tools_1_1XmlNodeNameEnforcer.html" target="_top" xlink:title="This class is a simple wrapper that throws a ConfigException message formated to report the user that...">
<polygon fill="white" stroke="black" points="330,-99 330,-129 481,-129 481,-99 330,-99"/>
<text text-anchor="start" x="338" y="-117" font-family="Helvetica,sans-Serif" font-size="10.00">Leosac::Tools::XmlNodeName</text>
<text text-anchor="middle" x="405.5" y="-106" font-family="Helvetica,sans-Serif" font-size="10.00">Enforcer</text>
</a>
</g>
</g>
<!-- Node4&#45;&gt;Node7 -->
<g id="edge6" class="edge"><title>Node4&#45;&gt;Node7</title>
<path fill="none" stroke="#9a32cd" stroke-dasharray="5,2" d="M238.958,-103.502C264.628,-105.13 298.921,-107.305 329.636,-109.253"/>
<polygon fill="#9a32cd" stroke="#9a32cd" points="239.073,-100.003 228.872,-102.863 238.63,-106.989 239.073,-100.003"/>
<text text-anchor="middle" x="290.5" y="-110" font-family="Helvetica,sans-Serif" font-size="10.00"> path_</text>
</g>
<!-- Node5 -->
<g id="node4" class="node"><title>Node5</title>
<g id="a_node4"><a xlink:title="STL class. ">
<polygon fill="white" stroke="#bfbfbf" points="0,-86 0,-116 95,-116 95,-86 0,-86"/>
<text text-anchor="start" x="8" y="-104" font-family="Helvetica,sans-Serif" font-size="10.00">std::basic_string&lt;</text>
<text text-anchor="middle" x="47.5" y="-93" font-family="Helvetica,sans-Serif" font-size="10.00"> char &gt;</text>
</a>
</g>
</g>
<!-- Node5&#45;&gt;Node4 -->
<g id="edge3" class="edge"><title>Node5&#45;&gt;Node4</title>
<path fill="none" stroke="midnightblue" d="M105.256,-101C126.741,-101 150.318,-101 168.257,-101"/>
<polygon fill="midnightblue" stroke="midnightblue" points="105.236,-97.5001 95.2357,-101 105.236,-104.5 105.236,-97.5001"/>
</g>
<!-- Node6 -->
<g id="node5" class="node"><title>Node6</title>
<polygon fill="white" stroke="#bfbfbf" points="179.5,-38.5 179.5,-57.5 217.5,-57.5 217.5,-38.5 179.5,-38.5"/>
<text text-anchor="middle" x="198.5" y="-45.5" font-family="Helvetica,sans-Serif" font-size="10.00">ptree</text>
</g>
<!-- Node6&#45;&gt;Node3 -->
<g id="edge4" class="edge"><title>Node6&#45;&gt;Node3</title>
<path fill="none" stroke="#9a32cd" stroke-dasharray="5,2" d="M227.902,-46.7382C250.7,-46.0894 283.495,-45.9747 312,-49 330.096,-50.9206 349.89,-54.7478 366.507,-58.467"/>
<polygon fill="#9a32cd" stroke="#9a32cd" points="227.755,-43.241 217.879,-47.0763 227.991,-50.2371 227.755,-43.241"/>
<text text-anchor="middle" x="290.5" y="-52" font-family="Helvetica,sans-Serif" font-size="10.00"> config_</text>
</g>
<!-- Node7&#45;&gt;Node2 -->
<g id="edge5" class="edge"><title>Node7&#45;&gt;Node2</title>
<path fill="none" stroke="#9a32cd" stroke-dasharray="5,2" d="M491.101,-97.2257C516.319,-92.2254 543.68,-86.8006 567.903,-81.9977"/>
<polygon fill="#9a32cd" stroke="#9a32cd" points="490.312,-93.814 481.183,-99.1921 491.673,-100.68 490.312,-93.814"/>
<text text-anchor="middle" x="524.5" y="-99" font-family="Helvetica,sans-Serif" font-size="10.00"> xmlnne_</text>
</g>
<!-- Node8 -->
<g id="node7" class="node"><title>Node8</title>
<polygon fill="white" stroke="#bfbfbf" points="335,-5 335,-35 476,-35 476,-5 335,-5"/>
<text text-anchor="start" x="343" y="-23" font-family="Helvetica,sans-Serif" font-size="10.00">std::vector&lt; NotifierInstance</text>
<text text-anchor="middle" x="405.5" y="-12" font-family="Helvetica,sans-Serif" font-size="10.00">UPtr &gt;</text>
</g>
<!-- Node8&#45;&gt;Node2 -->
<g id="edge7" class="edge"><title>Node8&#45;&gt;Node2</title>
<path fill="none" stroke="#9a32cd" stroke-dasharray="5,2" d="M486.115,-36.4721C512.622,-41.9562 541.948,-48.0238 567.738,-53.3596"/>
<polygon fill="#9a32cd" stroke="#9a32cd" points="486.609,-33.0003 476.108,-34.4016 485.191,-39.8551 486.609,-33.0003"/>
<text text-anchor="middle" x="524.5" y="-52" font-family="Helvetica,sans-Serif" font-size="10.00"> instances_</text>
</g>
<!-- Node9 -->
<g id="node8" class="node"><title>Node9</title>
<g id="a_node8"><a xlink:title="STL class. ">
<polygon fill="white" stroke="#bfbfbf" points="146,-0.5 146,-19.5 251,-19.5 251,-0.5 146,-0.5"/>
<text text-anchor="middle" x="198.5" y="-7.5" font-family="Helvetica,sans-Serif" font-size="10.00">std::unique_ptr&lt; T &gt;</text>
</a>
</g>
</g>
<!-- Node9&#45;&gt;Node8 -->
<g id="edge8" class="edge"><title>Node9&#45;&gt;Node8</title>
<path fill="none" stroke="#9a32cd" stroke-dasharray="5,2" d="M261.123,-12.6321C277.648,-13.3671 295.506,-14.1877 312,-15 319.389,-15.3639 327.109,-15.7585 334.803,-16.1609"/>
<polygon fill="#9a32cd" stroke="#9a32cd" points="261.175,-9.13105 251.03,-12.1864 260.866,-16.1242 261.175,-9.13105"/>
<text text-anchor="middle" x="290.5" y="-18" font-family="Helvetica,sans-Serif" font-size="10.00"> elements</text>
</g>
<!-- Node10 -->
<g id="node9" class="node"><title>Node10</title>
<polygon fill="white" stroke="#bfbfbf" points="33,-0.5 33,-19.5 62,-19.5 62,-0.5 33,-0.5"/>
<text text-anchor="middle" x="47.5" y="-7.5" font-family="Helvetica,sans-Serif" font-size="10.00">T</text>
</g>
<!-- Node10&#45;&gt;Node9 -->
<g id="edge9" class="edge"><title>Node10&#45;&gt;Node9</title>
<path fill="none" stroke="#9a32cd" stroke-dasharray="5,2" d="M72.4703,-10C92.1919,-10 120.849,-10 145.753,-10"/>
<polygon fill="#9a32cd" stroke="#9a32cd" points="72.2505,-6.5001 62.2505,-10 72.2505,-13.5001 72.2505,-6.5001"/>
<text text-anchor="middle" x="120.5" y="-13" font-family="Helvetica,sans-Serif" font-size="10.00"> ptr</text>
</g>
</g>
</svg>
