<?xml version="1.0" encoding="UTF-8" standalone="no"?>
<!DOCTYPE svg PUBLIC "-//W3C//DTD SVG 1.1//EN"
 "http://www.w3.org/Graphics/SVG/1.1/DTD/svg11.dtd">
<!-- Generated by graphviz version 2.38.0 (20140413.2041)
 -->
<!-- Title: Leosac::Audit::GroupEvent Pages: 1 -->
<svg width="739pt" height="232pt"
 viewBox="0.00 0.00 739.00 231.50" xmlns="http://www.w3.org/2000/svg" xmlns:xlink="http://www.w3.org/1999/xlink">
<g id="graph0" class="graph" transform="scale(1 1) rotate(0) translate(4 227.5)">
<title>Leosac::Audit::GroupEvent</title>
<polygon fill="white" stroke="none" points="-4,4 -4,-227.5 735,-227.5 735,4 -4,4"/>
<!-- Node6 -->
<g id="node1" class="node"><title>Node6</title>
<polygon fill="#bfbfbf" stroke="black" points="594,-48.5 594,-67.5 728,-67.5 728,-48.5 594,-48.5"/>
<text text-anchor="middle" x="661" y="-55.5" font-family="Helvetica,sans-Serif" font-size="10.00">Leosac::Audit::GroupEvent</text>
</g>
<!-- Node7 -->
<g id="node2" class="node"><title>Node7</title>
<g id="a_node2"><a xlink:href="../../d1/df4/classLeosac_1_1Audit_1_1IGroupEvent.html" target="_top" xlink:title="Interface that describes an Audit object for group related event. ">
<polygon fill="white" stroke="black" points="382,-0.5 382,-19.5 519,-19.5 519,-0.5 382,-0.5"/>
<text text-anchor="middle" x="450.5" y="-7.5" font-family="Helvetica,sans-Serif" font-size="10.00">Leosac::Audit::IGroupEvent</text>
</a>
</g>
</g>
<!-- Node7&#45;&gt;Node6 -->
<g id="edge1" class="edge"><title>Node7&#45;&gt;Node6</title>
<path fill="none" stroke="midnightblue" d="M503.36,-21.9391C538.857,-30.1109 585.302,-40.8034 618.38,-48.4185"/>
<polygon fill="midnightblue" stroke="midnightblue" points="503.722,-18.4309 493.192,-19.5982 502.152,-25.2525 503.722,-18.4309"/>
</g>
<!-- Node8 -->
<g id="node3" class="node"><title>Node8</title>
<g id="a_node3"><a xlink:href="../../d1/d44/classLeosac_1_1Audit_1_1IAuditEntry.html" target="_top" xlink:title="Base interface to Audit object. ">
<polygon fill="white" stroke="black" points="167,-7.5 167,-26.5 298,-26.5 298,-7.5 167,-7.5"/>
<text text-anchor="middle" x="232.5" y="-14.5" font-family="Helvetica,sans-Serif" font-size="10.00">Leosac::Audit::IAuditEntry</text>
</a>
</g>
</g>
<!-- Node8&#45;&gt;Node7 -->
<g id="edge2" class="edge"><title>Node8&#45;&gt;Node7</title>
<path fill="none" stroke="midnightblue" d="M308.124,-14.5816C332.099,-13.8047 358.506,-12.9489 381.944,-12.1893"/>
<polygon fill="midnightblue" stroke="midnightblue" points="307.896,-11.0871 298.015,-14.9093 308.123,-18.0834 307.896,-11.0871"/>
</g>
<!-- Node10 -->
<g id="node5" class="node"><title>Node10</title>
<g id="a_node5"><a xlink:href="../../d0/d20/classLeosac_1_1Audit_1_1AuditEntry.html" target="_top" xlink:title="Implementation of IAuditEntry, backed by ODB. ">
<polygon fill="white" stroke="black" points="386.5,-113.5 386.5,-132.5 514.5,-132.5 514.5,-113.5 386.5,-113.5"/>
<text text-anchor="middle" x="450.5" y="-120.5" font-family="Helvetica,sans-Serif" font-size="10.00">Leosac::Audit::AuditEntry</text>
</a>
</g>
</g>
<!-- Node8&#45;&gt;Node10 -->
<g id="edge5" class="edge"><title>Node8&#45;&gt;Node10</title>
<path fill="none" stroke="midnightblue" d="M268.602,-30.3003C279.711,-34.7328 291.965,-39.8574 303,-45 351.056,-67.3962 405.714,-97.8928 432.657,-113.276"/>
<polygon fill="midnightblue" stroke="midnightblue" points="269.782,-27.0035 259.195,-26.6002 267.22,-33.5177 269.782,-27.0035"/>
</g>
<!-- Node9 -->
<g id="node4" class="node"><title>Node9</title>
<g id="a_node4"><a xlink:href="../../d0/d33/classLeosac_1_1Tools_1_1IVisitable.html" target="_top" xlink:title="Base class to make an object visitable. ">
<polygon fill="white" stroke="black" points="0,-7.5 0,-26.5 125,-26.5 125,-7.5 0,-7.5"/>
<text text-anchor="middle" x="62.5" y="-14.5" font-family="Helvetica,sans-Serif" font-size="10.00">Leosac::Tools::IVisitable</text>
</a>
</g>
</g>
<!-- Node9&#45;&gt;Node8 -->
<g id="edge3" class="edge"><title>Node9&#45;&gt;Node8</title>
<path fill="none" stroke="midnightblue" d="M135.421,-17C145.847,-17 156.527,-17 166.8,-17"/>
<polygon fill="midnightblue" stroke="midnightblue" points="135.103,-13.5001 125.103,-17 135.103,-20.5001 135.103,-13.5001"/>
</g>
<!-- Node10&#45;&gt;Node6 -->
<g id="edge4" class="edge"><title>Node10&#45;&gt;Node6</title>
<path fill="none" stroke="midnightblue" d="M492.028,-110.365C532.282,-97.8161 593.099,-78.8564 629.449,-67.5244"/>
<polygon fill="midnightblue" stroke="midnightblue" points="490.77,-107.091 482.265,-113.409 492.853,-113.774 490.77,-107.091"/>
</g>
<!-- Node14 -->
<g id="node9" class="node"><title>Node14</title>
<polygon fill="white" stroke="#bfbfbf" points="591,-126.5 591,-145.5 731,-145.5 731,-126.5 591,-126.5"/>
<text text-anchor="middle" x="661" y="-133.5" font-family="Helvetica,sans-Serif" font-size="10.00">std::weak_ptr&lt; AuditEntry &gt;</text>
</g>
<!-- Node10&#45;&gt;Node14 -->
<g id="edge10" class="edge"><title>Node10&#45;&gt;Node14</title>
<path fill="none" stroke="#9a32cd" stroke-dasharray="5,2" d="M524.8,-130.113C528.926,-130.434 533.014,-130.733 537,-131 554.379,-132.165 573.159,-133.096 590.686,-133.822"/>
<polygon fill="#9a32cd" stroke="#9a32cd" points="524.756,-126.597 514.505,-129.274 524.188,-133.574 524.756,-126.597"/>
<text text-anchor="middle" x="555" y="-136" font-family="Helvetica,sans-Serif" font-size="10.00"> ptr</text>
</g>
<!-- Node11 -->
<g id="node6" class="node"><title>Node11</title>
<polygon fill="white" stroke="#bfbfbf" points="169.5,-193 169.5,-223 295.5,-223 295.5,-193 169.5,-193"/>
<text text-anchor="start" x="177.5" y="-211" font-family="Helvetica,sans-Serif" font-size="10.00">std::enable_shared</text>
<text text-anchor="middle" x="232.5" y="-200" font-family="Helvetica,sans-Serif" font-size="10.00">_from_this&lt; AuditEntry &gt;</text>
</g>
<!-- Node11&#45;&gt;Node10 -->
<g id="edge6" class="edge"><title>Node11&#45;&gt;Node10</title>
<path fill="none" stroke="midnightblue" d="M290.67,-189.741C313.66,-182.023 340.288,-172.604 364,-163 387.24,-153.588 413.241,-141.138 430.401,-132.644"/>
<polygon fill="midnightblue" stroke="midnightblue" points="289.442,-186.461 281.06,-192.941 291.653,-193.103 289.442,-186.461"/>
</g>
<!-- Node12 -->
<g id="node7" class="node"><title>Node12</title>
<polygon fill="white" stroke="#bfbfbf" points="162.5,-154.5 162.5,-173.5 302.5,-173.5 302.5,-154.5 162.5,-154.5"/>
<text text-anchor="middle" x="232.5" y="-161.5" font-family="Helvetica,sans-Serif" font-size="10.00">std::vector&lt; AuditEntryPtr &gt;</text>
</g>
<!-- Node12&#45;&gt;Node10 -->
<g id="edge7" class="edge"><title>Node12&#45;&gt;Node10</title>
<path fill="none" stroke="#9a32cd" stroke-dasharray="5,2" d="M293.658,-152.581C326.92,-146.268 367.769,-138.514 399.3,-132.529"/>
<polygon fill="#9a32cd" stroke="#9a32cd" points="292.77,-149.187 283.598,-154.491 294.075,-156.064 292.77,-149.187"/>
<text text-anchor="middle" x="342.5" y="-151" font-family="Helvetica,sans-Serif" font-size="10.00"> children_</text>
</g>
<!-- Node13 -->
<g id="node8" class="node"><title>Node13</title>
<g id="a_node8"><a xlink:href="../../dd/d95/classLeosac_1_1Tools_1_1ElapsedTimeCounter.html" target="_top" xlink:title="This class provide a simple to get the elapsed time since it&#39;s creation. ">
<polygon fill="white" stroke="black" points="162,-105 162,-135 303,-135 303,-105 162,-105"/>
<text text-anchor="start" x="170" y="-123" font-family="Helvetica,sans-Serif" font-size="10.00">Leosac::Tools::ElapsedTime</text>
<text text-anchor="middle" x="232.5" y="-112" font-family="Helvetica,sans-Serif" font-size="10.00">Counter</text>
</a>
</g>
</g>
<!-- Node13&#45;&gt;Node10 -->
<g id="edge8" class="edge"><title>Node13&#45;&gt;Node10</title>
<path fill="none" stroke="#9a32cd" stroke-dasharray="5,2" d="M313.223,-121.107C337.325,-121.442 363.448,-121.805 386.314,-122.122"/>
<polygon fill="#9a32cd" stroke="#9a32cd" points="313.08,-117.605 303.033,-120.966 312.983,-124.604 313.08,-117.605"/>
<text text-anchor="middle" x="342.5" y="-125" font-family="Helvetica,sans-Serif" font-size="10.00"> etc_</text>
</g>
<!-- Node14&#45;&gt;Node10 -->
<g id="edge9" class="edge"><title>Node14&#45;&gt;Node10</title>
<path fill="none" stroke="#9a32cd" stroke-dasharray="5,2" d="M606.826,-124.639C595.701,-122.708 584.007,-121.004 573,-120 554.088,-118.275 533.457,-118.134 514.653,-118.676"/>
<polygon fill="#9a32cd" stroke="#9a32cd" points="606.382,-128.115 616.847,-126.462 607.635,-121.228 606.382,-128.115"/>
<text text-anchor="middle" x="555" y="-123" font-family="Helvetica,sans-Serif" font-size="10.00"> parent_</text>
</g>
<!-- Node15 -->
<g id="node10" class="node"><title>Node15</title>
<g id="a_node10"><a xlink:title="STL class. ">
<polygon fill="white" stroke="#bfbfbf" points="202.5,-54.5 202.5,-73.5 262.5,-73.5 262.5,-54.5 202.5,-54.5"/>
<text text-anchor="middle" x="232.5" y="-61.5" font-family="Helvetica,sans-Serif" font-size="10.00">std::string</text>
</a>
</g>
</g>
<!-- Node15&#45;&gt;Node6 -->
<g id="edge13" class="edge"><title>Node15&#45;&gt;Node6</title>
<path fill="none" stroke="#9a32cd" stroke-dasharray="5,2" d="M272.991,-63.4444C346.232,-62.4141 503.824,-60.1971 593.681,-58.933"/>
<polygon fill="#9a32cd" stroke="#9a32cd" points="272.765,-59.9472 262.815,-63.5876 272.863,-66.9465 272.765,-59.9472"/>
<text text-anchor="middle" x="450.5" y="-76" font-family="Helvetica,sans-Serif" font-size="10.00"> after_</text>
<text text-anchor="middle" x="450.5" y="-65" font-family="Helvetica,sans-Serif" font-size="10.00">before_</text>
</g>
<!-- Node15&#45;&gt;Node10 -->
<g id="edge11" class="edge"><title>Node15&#45;&gt;Node10</title>
<path fill="none" stroke="#9a32cd" stroke-dasharray="5,2" d="M272.396,-74.6245C312.804,-85.6616 375.461,-102.776 414.402,-113.413"/>
<polygon fill="#9a32cd" stroke="#9a32cd" points="273.2,-71.2157 262.631,-71.957 271.355,-77.9683 273.2,-71.2157"/>
<text text-anchor="middle" x="342.5" y="-102" font-family="Helvetica,sans-Serif" font-size="10.00"> msg_</text>
</g>
<!-- Node16 -->
<g id="node11" class="node"><title>Node16</title>
<g id="a_node11"><a xlink:title="STL class. ">
<polygon fill="white" stroke="#bfbfbf" points="15,-49 15,-79 110,-79 110,-49 15,-49"/>
<text text-anchor="start" x="23" y="-67" font-family="Helvetica,sans-Serif" font-size="10.00">std::basic_string&lt;</text>
<text text-anchor="middle" x="62.5" y="-56" font-family="Helvetica,sans-Serif" font-size="10.00"> char &gt;</text>
</a>
</g>
</g>
<!-- Node16&#45;&gt;Node15 -->
<g id="edge12" class="edge"><title>Node16&#45;&gt;Node15</title>
<path fill="none" stroke="midnightblue" d="M120.595,-64C148.087,-64 179.879,-64 202.357,-64"/>
<polygon fill="midnightblue" stroke="midnightblue" points="120.297,-60.5001 110.297,-64 120.297,-67.5001 120.297,-60.5001"/>
</g>
</g>
</svg>
