<?xml version="1.0" encoding="UTF-8" standalone="no"?>
<!DOCTYPE svg PUBLIC "-//W3C//DTD SVG 1.1//EN"
 "http://www.w3.org/Graphics/SVG/1.1/DTD/svg11.dtd">
<!-- Generated by graphviz version 2.38.0 (20140413.2041)
 -->
<!-- Title: src/modules/smtp/SMTPAuditSerializer.hpp Pages: 1 -->
<!--zoomable 498 -->
<svg id="main" version="1.1" xmlns="http://www.w3.org/2000/svg" xmlns:xlink="http://www.w3.org/1999/xlink" xml:space="preserve" onload="init(evt)">
<style type="text/css"><![CDATA[
.edge:hover path { stroke: red; }
.edge:hover polygon { stroke: red; fill: red; }
]]></style>
<script type="text/javascript"><![CDATA[
var edges = document.getElementsByTagName('g');
if (edges && edges.length) {
  for (var i=0;i<edges.length;i++) {
    if (edges[i].id.substr(0,4)=='edge') {
      edges[i].setAttribute('class','edge');
    }
  }
}
]]></script>
        <defs>
                <circle id="rim" cx="0" cy="0" r="7"/>
                <circle id="rim2" cx="0" cy="0" r="3.5"/>
                <g id="zoomPlus">
                        <use xlink:href="#rim" fill="#404040">
                                <set attributeName="fill" to="#808080" begin="zoomplus.mouseover" end="zoomplus.mouseout"/>
                        </use>
                        <path d="M-4,0h8M0,-4v8" fill="none" stroke="white" stroke-width="1.5" pointer-events="none"/>
                </g>
                <g id="zoomMin">
                        <use xlink:href="#rim" fill="#404040">
                                <set attributeName="fill" to="#808080" begin="zoomminus.mouseover" end="zoomminus.mouseout"/>
                        </use>
                        <path d="M-4,0h8" fill="none" stroke="white" stroke-width="1.5" pointer-events="none"/>
                </g>
                <g id="dirArrow">
                        <path fill="none" stroke="white" stroke-width="1.5" d="M0,-3.0v7 M-2.5,-0.5L0,-3.0L2.5,-0.5"/>
                </g>
               <g id="resetDef">
                       <use xlink:href="#rim2" fill="#404040">
                               <set attributeName="fill" to="#808080" begin="reset.mouseover" end="reset.mouseout"/>
                       </use>
               </g>
        </defs>

<script type="text/javascript">
var viewWidth = 1503;
var viewHeight = 498;
var sectionId = 'dynsection-0';
</script>
<script xlink:href="../../svgpan.js"/>
<svg id="graph" class="graph">
<g id="viewport">
<title>src/modules/smtp/SMTPAuditSerializer.hpp</title>
<polygon fill="white" stroke="none" points="-4,4 -4,-494 1498.5,-494 1498.5,4 -4,4"/>
<!-- Node0 -->
<g id="node1" class="node"><title>Node0</title>
<polygon fill="#bfbfbf" stroke="black" points="1242,-459.5 1242,-489.5 1390,-489.5 1390,-459.5 1242,-459.5"/>
<text text-anchor="start" x="1250" y="-477.5" font-family="Helvetica,sans-Serif" font-size="10.00">src/modules/smtp/SMTPAudit</text>
<text text-anchor="middle" x="1316" y="-466.5" font-family="Helvetica,sans-Serif" font-size="10.00">Serializer.hpp</text>
</g>
<!-- Node1 -->
<g id="node2" class="node"><title>Node1</title>
<g id="a_node2"><a xlink:href="../../dc/d49/LeosacFwd_8hpp.html" target="_top" xlink:title="LeosacFwd.hpp">
<polygon fill="white" stroke="black" points="29,-403.5 29,-422.5 115,-422.5 115,-403.5 29,-403.5"/>
<text text-anchor="middle" x="72" y="-410.5" font-family="Helvetica,sans-Serif" font-size="10.00">LeosacFwd.hpp</text>
</a>
</g>
</g>
<!-- Node0&#45;&gt;Node1 -->
<g id="edge1" class="edge"><title>Node0&#45;&gt;Node1</title>
<path fill="none" stroke="midnightblue" d="M1241.91,-469.956C1013.36,-459.025 322.891,-426 125.334,-416.551"/>
<polygon fill="midnightblue" stroke="midnightblue" points="125.364,-413.048 115.208,-416.067 125.029,-420.04 125.364,-413.048"/>
</g>
<!-- Node4 -->
<g id="node5" class="node"><title>Node4</title>
<g id="a_node5"><a xlink:href="../../dd/db2/SMTPAudit_8hpp.html" target="_top" xlink:title="SMTPAudit.hpp">
<polygon fill="white" stroke="black" points="881,-403.5 881,-422.5 967,-422.5 967,-403.5 881,-403.5"/>
<text text-anchor="middle" x="924" y="-410.5" font-family="Helvetica,sans-Serif" font-size="10.00">SMTPAudit.hpp</text>
</a>
</g>
</g>
<!-- Node0&#45;&gt;Node4 -->
<g id="edge4" class="edge"><title>Node0&#45;&gt;Node4</title>
<path fill="none" stroke="midnightblue" d="M1241.81,-462.239C1164.64,-450.526 1045.74,-432.479 977.361,-422.099"/>
<polygon fill="midnightblue" stroke="midnightblue" points="977.654,-418.604 967.242,-420.564 976.604,-425.525 977.654,-418.604"/>
</g>
<!-- Node11 -->
<g id="node12" class="node"><title>Node11</title>
<g id="a_node12"><a xlink:href="../../d3/dd8/IAuditEntry_8hpp.html" target="_top" xlink:title="core/audit/IAuditEntry.hpp">
<polygon fill="white" stroke="black" points="1010,-179.5 1010,-198.5 1140,-198.5 1140,-179.5 1010,-179.5"/>
<text text-anchor="middle" x="1075" y="-186.5" font-family="Helvetica,sans-Serif" font-size="10.00">core/audit/IAuditEntry.hpp</text>
</a>
</g>
</g>
<!-- Node0&#45;&gt;Node11 -->
<g id="edge52" class="edge"><title>Node0&#45;&gt;Node11</title>
<path fill="none" stroke="midnightblue" d="M1308.13,-459.407C1297,-438.125 1278,-396.208 1278,-358 1278,-358 1278,-358 1278,-300 1278,-239.656 1207.8,-212.244 1149.97,-199.9"/>
<polygon fill="midnightblue" stroke="midnightblue" points="1150.56,-196.45 1140.07,-197.906 1149.18,-203.312 1150.56,-196.45"/>
</g>
<!-- Node14 -->
<g id="node15" class="node"><title>Node14</title>
<g id="a_node15"><a xlink:href="../../d2/d91/Visitor_8hpp.html" target="_top" xlink:title="tools/Visitor.hpp">
<polygon fill="white" stroke="black" points="1248.5,-56.5 1248.5,-75.5 1335.5,-75.5 1335.5,-56.5 1248.5,-56.5"/>
<text text-anchor="middle" x="1292" y="-63.5" font-family="Helvetica,sans-Serif" font-size="10.00">tools/Visitor.hpp</text>
</a>
</g>
</g>
<!-- Node0&#45;&gt;Node14 -->
<g id="edge53" class="edge"><title>Node0&#45;&gt;Node14</title>
<path fill="none" stroke="midnightblue" d="M1323.87,-459.407C1335,-438.125 1354,-396.208 1354,-358 1354,-358 1354,-358 1354,-188 1354,-153.072 1350.87,-142.583 1334,-112 1327.9,-100.938 1318.47,-90.4964 1310.1,-82.4612"/>
<polygon fill="midnightblue" stroke="midnightblue" points="1312.28,-79.7109 1302.53,-75.5529 1307.56,-84.8803 1312.28,-79.7109"/>
</g>
<!-- Node32 -->
<g id="node33" class="node"><title>Node32</title>
<polygon fill="white" stroke="#bfbfbf" points="1382.5,-403.5 1382.5,-422.5 1435.5,-422.5 1435.5,-403.5 1382.5,-403.5"/>
<text text-anchor="middle" x="1409" y="-410.5" font-family="Helvetica,sans-Serif" font-size="10.00">json.hpp</text>
</g>
<!-- Node0&#45;&gt;Node32 -->
<g id="edge54" class="edge"><title>Node0&#45;&gt;Node32</title>
<path fill="none" stroke="midnightblue" d="M1338.04,-459.399C1352.81,-449.951 1372.18,-437.559 1386.95,-428.109"/>
<polygon fill="midnightblue" stroke="midnightblue" points="1388.93,-430.995 1395.47,-422.658 1385.16,-425.099 1388.93,-430.995"/>
</g>
<!-- Node33 -->
<g id="node34" class="node"><title>Node33</title>
<polygon fill="white" stroke="#bfbfbf" points="1453.5,-403.5 1453.5,-422.5 1494.5,-422.5 1494.5,-403.5 1453.5,-403.5"/>
<text text-anchor="middle" x="1474" y="-410.5" font-family="Helvetica,sans-Serif" font-size="10.00">string</text>
</g>
<!-- Node0&#45;&gt;Node33 -->
<g id="edge55" class="edge"><title>Node0&#45;&gt;Node33</title>
<path fill="none" stroke="midnightblue" d="M1353.44,-459.399C1381,-449.024 1417.98,-435.098 1443.68,-425.417"/>
<polygon fill="midnightblue" stroke="midnightblue" points="1445.15,-428.604 1453.28,-421.804 1442.68,-422.053 1445.15,-428.604"/>
</g>
<!-- Node2 -->
<g id="node3" class="node"><title>Node2</title>
<polygon fill="white" stroke="#bfbfbf" points="469,-56.5 469,-75.5 521,-75.5 521,-56.5 469,-56.5"/>
<text text-anchor="middle" x="495" y="-63.5" font-family="Helvetica,sans-Serif" font-size="10.00">memory</text>
</g>
<!-- Node1&#45;&gt;Node2 -->
<g id="edge2" class="edge"><title>Node1&#45;&gt;Node2</title>
<path fill="none" stroke="midnightblue" d="M72,-403.442C72,-384.936 72,-339.812 72,-302 72,-302 72,-302 72,-188 72,-135.646 114.149,-133.242 162,-112 214.472,-88.7061 383.096,-74.6309 458.254,-69.3681"/>
<polygon fill="midnightblue" stroke="midnightblue" points="458.902,-72.8319 468.639,-68.6555 458.423,-65.8483 458.902,-72.8319"/>
</g>
<!-- Node3 -->
<g id="node4" class="node"><title>Node3</title>
<polygon fill="white" stroke="#bfbfbf" points="0,-347.5 0,-366.5 44,-366.5 44,-347.5 0,-347.5"/>
<text text-anchor="middle" x="22" y="-354.5" font-family="Helvetica,sans-Serif" font-size="10.00">vector</text>
</g>
<!-- Node1&#45;&gt;Node3 -->
<g id="edge3" class="edge"><title>Node1&#45;&gt;Node3</title>
<path fill="none" stroke="midnightblue" d="M63.7435,-403.083C56.5353,-395.298 45.8902,-383.801 37.1542,-374.367"/>
<polygon fill="midnightblue" stroke="midnightblue" points="39.4651,-371.711 30.1028,-366.751 34.3288,-376.467 39.4651,-371.711"/>
</g>
<!-- Node5 -->
<g id="node6" class="node"><title>Node5</title>
<g id="a_node6"><a xlink:href="../../da/d3b/SMTPFwd_8hpp.html" target="_top" xlink:title="SMTPFwd.hpp">
<polygon fill="white" stroke="black" points="100,-179.5 100,-198.5 182,-198.5 182,-179.5 100,-179.5"/>
<text text-anchor="middle" x="141" y="-186.5" font-family="Helvetica,sans-Serif" font-size="10.00">SMTPFwd.hpp</text>
</a>
</g>
</g>
<!-- Node4&#45;&gt;Node5 -->
<g id="edge5" class="edge"><title>Node4&#45;&gt;Node5</title>
<path fill="none" stroke="midnightblue" d="M880.864,-412.576C735.892,-413.583 269.447,-409.015 165,-311 136.851,-284.584 136.443,-235.38 138.667,-208.575"/>
<polygon fill="midnightblue" stroke="midnightblue" points="142.152,-208.898 139.707,-198.589 135.189,-208.173 142.152,-208.898"/>
</g>
<!-- Node6 -->
<g id="node7" class="node"><title>Node6</title>
<g id="a_node7"><a xlink:href="../../d4/d93/AuditEntry_8hpp.html" target="_top" xlink:title="core/audit/AuditEntry.hpp">
<polygon fill="white" stroke="black" points="860.5,-347.5 860.5,-366.5 987.5,-366.5 987.5,-347.5 860.5,-347.5"/>
<text text-anchor="middle" x="924" y="-354.5" font-family="Helvetica,sans-Serif" font-size="10.00">core/audit/AuditEntry.hpp</text>
</a>
</g>
</g>
<!-- Node4&#45;&gt;Node6 -->
<g id="edge7" class="edge"><title>Node4&#45;&gt;Node6</title>
<path fill="none" stroke="midnightblue" d="M924,-403.083C924,-396.006 924,-385.861 924,-376.986"/>
<polygon fill="midnightblue" stroke="midnightblue" points="927.5,-376.751 924,-366.751 920.5,-376.751 927.5,-376.751"/>
</g>
<!-- Node5&#45;&gt;Node2 -->
<g id="edge6" class="edge"><title>Node5&#45;&gt;Node2</title>
<path fill="none" stroke="midnightblue" d="M144.586,-179.174C151.707,-162.881 169.289,-128.261 196,-112 239.502,-85.5159 388.837,-73.3268 458.577,-68.978"/>
<polygon fill="midnightblue" stroke="midnightblue" points="458.892,-72.4654 468.663,-68.3693 458.47,-65.4781 458.892,-72.4654"/>
</g>
<!-- Node6&#45;&gt;Node2 -->
<g id="edge49" class="edge"><title>Node6&#45;&gt;Node2</title>
<path fill="none" stroke="midnightblue" d="M860.348,-351.64C695.853,-339.709 266.658,-304.109 227,-255 182.259,-199.596 106.427,-254.412 322,-112 363.715,-84.4423 421.437,-73.7479 458.501,-69.606"/>
<polygon fill="midnightblue" stroke="midnightblue" points="459.24,-73.0492 468.837,-68.5611 458.536,-66.0847 459.24,-73.0492"/>
</g>
<!-- Node7 -->
<g id="node8" class="node"><title>Node7</title>
<g id="a_node8"><a xlink:href="../../d7/dcf/AuditFwd_8hpp.html" target="_top" xlink:title="core/audit/AuditFwd.hpp">
<polygon fill="white" stroke="black" points="954,-118 954,-137 1076,-137 1076,-118 954,-118"/>
<text text-anchor="middle" x="1015" y="-125" font-family="Helvetica,sans-Serif" font-size="10.00">core/audit/AuditFwd.hpp</text>
</a>
</g>
</g>
<!-- Node6&#45;&gt;Node7 -->
<g id="edge8" class="edge"><title>Node6&#45;&gt;Node7</title>
<path fill="none" stroke="midnightblue" d="M926.107,-347.47C929.289,-334.935 935.729,-310.874 943,-291 962.726,-237.082 991.812,-175.7 1006.23,-146.185"/>
<polygon fill="midnightblue" stroke="midnightblue" points="1009.41,-147.657 1010.68,-137.139 1003.13,-144.568 1009.41,-147.657"/>
</g>
<!-- Node6&#45;&gt;Node11 -->
<g id="edge13" class="edge"><title>Node6&#45;&gt;Node11</title>
<path fill="none" stroke="midnightblue" d="M987.935,-349.141C1036.19,-342.492 1096.62,-330.498 1112,-311 1136.72,-279.665 1107.71,-231.861 1088.79,-206.747"/>
<polygon fill="midnightblue" stroke="midnightblue" points="1091.32,-204.301 1082.4,-198.594 1085.81,-208.622 1091.32,-204.301"/>
</g>
<!-- Node12 -->
<g id="node13" class="node"><title>Node12</title>
<g id="a_node13"><a xlink:href="../../d3/d6f/AuthFwd_8hpp.html" target="_top" xlink:title="core/auth/AuthFwd.hpp">
<polygon fill="white" stroke="black" points="818,-118 818,-137 936,-137 936,-118 818,-118"/>
<text text-anchor="middle" x="877" y="-125" font-family="Helvetica,sans-Serif" font-size="10.00">core/auth/AuthFwd.hpp</text>
</a>
</g>
</g>
<!-- Node6&#45;&gt;Node12 -->
<g id="edge25" class="edge"><title>Node6&#45;&gt;Node12</title>
<path fill="none" stroke="midnightblue" d="M920.999,-347.461C917.922,-338.475 913.154,-323.874 910,-311 895.539,-251.973 884.463,-180.78 879.642,-147.447"/>
<polygon fill="midnightblue" stroke="midnightblue" points="883.075,-146.726 878.202,-137.318 876.144,-147.711 883.075,-146.726"/>
</g>
<!-- Node17 -->
<g id="node18" class="node"><title>Node17</title>
<polygon fill="white" stroke="#bfbfbf" points="1212.5,-112.5 1212.5,-142.5 1325.5,-142.5 1325.5,-112.5 1212.5,-112.5"/>
<text text-anchor="start" x="1220.5" y="-130.5" font-family="Helvetica,sans-Serif" font-size="10.00">boost/date_time/posix</text>
<text text-anchor="middle" x="1269" y="-119.5" font-family="Helvetica,sans-Serif" font-size="10.00">_time/posix_time.hpp</text>
</g>
<!-- Node6&#45;&gt;Node17 -->
<g id="edge48" class="edge"><title>Node6&#45;&gt;Node17</title>
<path fill="none" stroke="midnightblue" d="M987.744,-356.7C1074.61,-356.167 1223.45,-349.464 1259,-311 1298.96,-267.759 1286.25,-191.322 1276.22,-152.529"/>
<polygon fill="midnightblue" stroke="midnightblue" points="1279.53,-151.364 1273.51,-142.645 1272.78,-153.215 1279.53,-151.364"/>
</g>
<!-- Node18 -->
<g id="node19" class="node"><title>Node18</title>
<g id="a_node19"><a xlink:href="../../d6/d65/ElapsedTimeCounter_8hpp.html" target="_top" xlink:title="tools/ElapsedTimeCounter.hpp">
<polygon fill="white" stroke="black" points="952.5,-291.5 952.5,-310.5 1103.5,-310.5 1103.5,-291.5 952.5,-291.5"/>
<text text-anchor="middle" x="1028" y="-298.5" font-family="Helvetica,sans-Serif" font-size="10.00">tools/ElapsedTimeCounter.hpp</text>
</a>
</g>
</g>
<!-- Node6&#45;&gt;Node18 -->
<g id="edge26" class="edge"><title>Node6&#45;&gt;Node18</title>
<path fill="none" stroke="midnightblue" d="M940.709,-347.324C957.312,-338.703 983.002,-325.364 1002.22,-315.386"/>
<polygon fill="midnightblue" stroke="midnightblue" points="1004.07,-318.369 1011.33,-310.655 1000.84,-312.156 1004.07,-318.369"/>
</g>
<!-- Node20 -->
<g id="node21" class="node"><title>Node20</title>
<g id="a_node21"><a xlink:href="../../df/da2/database_8hpp.html" target="_top" xlink:title="tools/db/database.hpp">
<polygon fill="white" stroke="black" points="496.5,-291.5 496.5,-310.5 609.5,-310.5 609.5,-291.5 496.5,-291.5"/>
<text text-anchor="middle" x="553" y="-298.5" font-family="Helvetica,sans-Serif" font-size="10.00">tools/db/database.hpp</text>
</a>
</g>
</g>
<!-- Node6&#45;&gt;Node20 -->
<g id="edge28" class="edge"><title>Node6&#45;&gt;Node20</title>
<path fill="none" stroke="midnightblue" d="M865.214,-347.444C798.417,-337.721 689.631,-321.887 619.71,-311.71"/>
<polygon fill="midnightblue" stroke="midnightblue" points="620.086,-308.228 609.686,-310.251 619.078,-315.155 620.086,-308.228"/>
</g>
<!-- Node30 -->
<g id="node31" class="node"><title>Node30</title>
<polygon fill="white" stroke="#bfbfbf" points="1160,-291.5 1160,-310.5 1250,-310.5 1250,-291.5 1160,-291.5"/>
<text text-anchor="middle" x="1205" y="-298.5" font-family="Helvetica,sans-Serif" font-size="10.00">odb/callback.hxx</text>
</g>
<!-- Node6&#45;&gt;Node30 -->
<g id="edge50" class="edge"><title>Node6&#45;&gt;Node30</title>
<path fill="none" stroke="midnightblue" d="M968.525,-347.444C1017.96,-337.944 1097.75,-322.611 1150.78,-312.42"/>
<polygon fill="midnightblue" stroke="midnightblue" points="1151.52,-315.841 1160.68,-310.516 1150.2,-308.967 1151.52,-315.841"/>
</g>
<!-- Node31 -->
<g id="node32" class="node"><title>Node31</title>
<polygon fill="white" stroke="#bfbfbf" points="784.5,-291.5 784.5,-310.5 857.5,-310.5 857.5,-291.5 784.5,-291.5"/>
<text text-anchor="middle" x="821" y="-298.5" font-family="Helvetica,sans-Serif" font-size="10.00">odb/core.hxx</text>
</g>
<!-- Node6&#45;&gt;Node31 -->
<g id="edge51" class="edge"><title>Node6&#45;&gt;Node31</title>
<path fill="none" stroke="midnightblue" d="M907.451,-347.324C891.008,-338.703 865.565,-325.364 846.532,-315.386"/>
<polygon fill="midnightblue" stroke="midnightblue" points="847.989,-312.198 837.508,-310.655 844.739,-318.398 847.989,-312.198"/>
</g>
<!-- Node7&#45;&gt;Node2 -->
<g id="edge11" class="edge"><title>Node7&#45;&gt;Node2</title>
<path fill="none" stroke="midnightblue" d="M977.349,-117.947C966.912,-115.782 955.55,-113.616 945,-112 792.12,-88.5877 608.075,-74.5617 531.344,-69.3391"/>
<polygon fill="midnightblue" stroke="midnightblue" points="531.456,-65.8388 521.243,-68.6606 530.986,-72.8231 531.456,-65.8388"/>
</g>
<!-- Node8 -->
<g id="node9" class="node"><title>Node8</title>
<polygon fill="white" stroke="#bfbfbf" points="884.5,-56.5 884.5,-75.5 933.5,-75.5 933.5,-56.5 884.5,-56.5"/>
<text text-anchor="middle" x="909" y="-63.5" font-family="Helvetica,sans-Serif" font-size="10.00">cstddef</text>
</g>
<!-- Node7&#45;&gt;Node8 -->
<g id="edge9" class="edge"><title>Node7&#45;&gt;Node8</title>
<path fill="none" stroke="midnightblue" d="M999.813,-117.975C982.338,-108.166 953.421,-91.9346 932.917,-80.425"/>
<polygon fill="midnightblue" stroke="midnightblue" points="934.592,-77.3519 924.159,-75.5091 931.166,-83.456 934.592,-77.3519"/>
</g>
<!-- Node9 -->
<g id="node10" class="node"><title>Node9</title>
<polygon fill="white" stroke="#bfbfbf" points="982.5,-56.5 982.5,-75.5 1047.5,-75.5 1047.5,-56.5 982.5,-56.5"/>
<text text-anchor="middle" x="1015" y="-63.5" font-family="Helvetica,sans-Serif" font-size="10.00">flagset.hpp</text>
</g>
<!-- Node7&#45;&gt;Node9 -->
<g id="edge10" class="edge"><title>Node7&#45;&gt;Node9</title>
<path fill="none" stroke="midnightblue" d="M1015,-117.975C1015,-109.58 1015,-96.4806 1015,-85.6631"/>
<polygon fill="midnightblue" stroke="midnightblue" points="1018.5,-85.5091 1015,-75.5091 1011.5,-85.5091 1018.5,-85.5091"/>
</g>
<!-- Node10 -->
<g id="node11" class="node"><title>Node10</title>
<polygon fill="white" stroke="#bfbfbf" points="668,-56.5 668,-75.5 754,-75.5 754,-56.5 668,-56.5"/>
<text text-anchor="middle" x="711" y="-63.5" font-family="Helvetica,sans-Serif" font-size="10.00">odb/lazy&#45;ptr.hxx</text>
</g>
<!-- Node7&#45;&gt;Node10 -->
<g id="edge12" class="edge"><title>Node7&#45;&gt;Node10</title>
<path fill="none" stroke="midnightblue" d="M974.304,-117.968C964.7,-115.983 954.493,-113.896 945,-112 883.016,-99.6209 811.667,-85.9889 764.211,-77.0091"/>
<polygon fill="midnightblue" stroke="midnightblue" points="764.64,-73.5283 754.164,-75.1099 763.34,-80.4064 764.64,-73.5283"/>
</g>
<!-- Node11&#45;&gt;Node2 -->
<g id="edge24" class="edge"><title>Node11&#45;&gt;Node2</title>
<path fill="none" stroke="midnightblue" d="M1009.97,-186.247C954.377,-182.627 873.404,-172.221 809,-143 789.152,-133.994 790.875,-120.946 771,-112 690.689,-75.8502 585.607,-68.3369 531.188,-67.0277"/>
<polygon fill="midnightblue" stroke="midnightblue" points="531.064,-63.5249 521.002,-66.8419 530.936,-70.5238 531.064,-63.5249"/>
</g>
<!-- Node11&#45;&gt;Node7 -->
<g id="edge14" class="edge"><title>Node11&#45;&gt;Node7</title>
<path fill="none" stroke="midnightblue" d="M1066.4,-179.475C1057.14,-170.285 1042.18,-155.456 1030.79,-144.156"/>
<polygon fill="midnightblue" stroke="midnightblue" points="1033.15,-141.565 1023.58,-137.009 1028.22,-146.536 1033.15,-141.565"/>
</g>
<!-- Node11&#45;&gt;Node12 -->
<g id="edge15" class="edge"><title>Node11&#45;&gt;Node12</title>
<path fill="none" stroke="midnightblue" d="M1046.63,-179.475C1012.08,-169.092 953.576,-151.512 915.115,-139.954"/>
<polygon fill="midnightblue" stroke="midnightblue" points="915.9,-136.535 905.316,-137.009 913.886,-143.239 915.9,-136.535"/>
</g>
<!-- Node13 -->
<g id="node14" class="node"><title>Node13</title>
<g id="a_node14"><a xlink:href="../../dd/d9d/IVisitable_8hpp.html" target="_top" xlink:title="tools/IVisitable.hpp">
<polygon fill="white" stroke="black" points="1094,-118 1094,-137 1194,-137 1194,-118 1094,-118"/>
<text text-anchor="middle" x="1144" y="-125" font-family="Helvetica,sans-Serif" font-size="10.00">tools/IVisitable.hpp</text>
</a>
</g>
</g>
<!-- Node11&#45;&gt;Node13 -->
<g id="edge19" class="edge"><title>Node11&#45;&gt;Node13</title>
<path fill="none" stroke="midnightblue" d="M1084.89,-179.475C1095.65,-170.197 1113.07,-155.171 1126.22,-143.831"/>
<polygon fill="midnightblue" stroke="midnightblue" points="1128.84,-146.19 1134.13,-137.009 1124.27,-140.889 1128.84,-146.19"/>
</g>
<!-- Node11&#45;&gt;Node17 -->
<g id="edge23" class="edge"><title>Node11&#45;&gt;Node17</title>
<path fill="none" stroke="midnightblue" d="M1102.8,-179.475C1131.53,-170.664 1177.16,-156.668 1213.34,-145.57"/>
<polygon fill="midnightblue" stroke="midnightblue" points="1214.74,-148.801 1223.28,-142.523 1212.69,-142.109 1214.74,-148.801"/>
</g>
<!-- Node12&#45;&gt;Node2 -->
<g id="edge17" class="edge"><title>Node12&#45;&gt;Node2</title>
<path fill="none" stroke="midnightblue" d="M836.143,-117.999C825.684,-115.929 814.442,-113.796 804,-112 705.67,-95.086 589.016,-79.2334 531.208,-71.6581"/>
<polygon fill="midnightblue" stroke="midnightblue" points="531.485,-68.1647 521.116,-70.3416 530.579,-75.1059 531.485,-68.1647"/>
</g>
<!-- Node12&#45;&gt;Node8 -->
<g id="edge16" class="edge"><title>Node12&#45;&gt;Node8</title>
<path fill="none" stroke="midnightblue" d="M881.585,-117.975C886.242,-109.315 893.592,-95.6486 899.51,-84.6453"/>
<polygon fill="midnightblue" stroke="midnightblue" points="902.77,-85.974 904.424,-75.5091 896.605,-82.6584 902.77,-85.974"/>
</g>
<!-- Node12&#45;&gt;Node10 -->
<g id="edge18" class="edge"><title>Node12&#45;&gt;Node10</title>
<path fill="none" stroke="midnightblue" d="M853.216,-117.975C824.618,-107.725 776.449,-90.4593 744.198,-78.8994"/>
<polygon fill="midnightblue" stroke="midnightblue" points="745.334,-75.5885 734.74,-75.5091 742.972,-82.178 745.334,-75.5885"/>
</g>
<!-- Node13&#45;&gt;Node14 -->
<g id="edge20" class="edge"><title>Node13&#45;&gt;Node14</title>
<path fill="none" stroke="midnightblue" d="M1165.2,-117.975C1190.37,-107.857 1232.54,-90.9046 1261.28,-79.3507"/>
<polygon fill="midnightblue" stroke="midnightblue" points="1262.86,-82.4867 1270.83,-75.5091 1260.25,-75.9919 1262.86,-82.4867"/>
</g>
<!-- Node16 -->
<g id="node17" class="node"><title>Node16</title>
<polygon fill="white" stroke="#bfbfbf" points="1119.5,-56.5 1119.5,-75.5 1168.5,-75.5 1168.5,-56.5 1119.5,-56.5"/>
<text text-anchor="middle" x="1144" y="-63.5" font-family="Helvetica,sans-Serif" font-size="10.00">cassert</text>
</g>
<!-- Node13&#45;&gt;Node16 -->
<g id="edge22" class="edge"><title>Node13&#45;&gt;Node16</title>
<path fill="none" stroke="midnightblue" d="M1144,-117.975C1144,-109.58 1144,-96.4806 1144,-85.6631"/>
<polygon fill="midnightblue" stroke="midnightblue" points="1147.5,-85.5091 1144,-75.5091 1140.5,-85.5091 1147.5,-85.5091"/>
</g>
<!-- Node15 -->
<g id="node16" class="node"><title>Node15</title>
<polygon fill="white" stroke="#bfbfbf" points="1261,-0.5 1261,-19.5 1323,-19.5 1323,-0.5 1261,-0.5"/>
<text text-anchor="middle" x="1292" y="-7.5" font-family="Helvetica,sans-Serif" font-size="10.00">type_traits</text>
</g>
<!-- Node14&#45;&gt;Node15 -->
<g id="edge21" class="edge"><title>Node14&#45;&gt;Node15</title>
<path fill="none" stroke="midnightblue" d="M1292,-56.083C1292,-49.0059 1292,-38.8611 1292,-29.9865"/>
<polygon fill="midnightblue" stroke="midnightblue" points="1295.5,-29.751 1292,-19.7511 1288.5,-29.7511 1295.5,-29.751"/>
</g>
<!-- Node19 -->
<g id="node20" class="node"><title>Node19</title>
<polygon fill="white" stroke="#bfbfbf" points="1005,-235.5 1005,-254.5 1051,-254.5 1051,-235.5 1005,-235.5"/>
<text text-anchor="middle" x="1028" y="-242.5" font-family="Helvetica,sans-Serif" font-size="10.00">chrono</text>
</g>
<!-- Node18&#45;&gt;Node19 -->
<g id="edge27" class="edge"><title>Node18&#45;&gt;Node19</title>
<path fill="none" stroke="midnightblue" d="M1028,-291.083C1028,-284.006 1028,-273.861 1028,-264.986"/>
<polygon fill="midnightblue" stroke="midnightblue" points="1031.5,-264.751 1028,-254.751 1024.5,-264.751 1031.5,-264.751"/>
</g>
<!-- Node21 -->
<g id="node22" class="node"><title>Node21</title>
<g id="a_node22"><a xlink:href="../../d9/d69/db__fwd_8hpp.html" target="_top" xlink:title="db_fwd.hpp">
<polygon fill="white" stroke="black" points="288.5,-179.5 288.5,-198.5 355.5,-198.5 355.5,-179.5 288.5,-179.5"/>
<text text-anchor="middle" x="322" y="-186.5" font-family="Helvetica,sans-Serif" font-size="10.00">db_fwd.hpp</text>
</a>
</g>
</g>
<!-- Node20&#45;&gt;Node21 -->
<g id="edge29" class="edge"><title>Node20&#45;&gt;Node21</title>
<path fill="none" stroke="midnightblue" d="M496.487,-300.464C414.59,-299.792 269.068,-293.094 236,-255 216.876,-232.97 252.925,-213.669 284.048,-201.942"/>
<polygon fill="midnightblue" stroke="midnightblue" points="285.256,-205.227 293.483,-198.55 282.888,-198.639 285.256,-205.227"/>
</g>
<!-- Node22 -->
<g id="node23" class="node"><title>Node22</title>
<polygon fill="white" stroke="#bfbfbf" points="506,-235.5 506,-254.5 600,-254.5 600,-235.5 506,-235.5"/>
<text text-anchor="middle" x="553" y="-242.5" font-family="Helvetica,sans-Serif" font-size="10.00">odb/database.hxx</text>
</g>
<!-- Node20&#45;&gt;Node22 -->
<g id="edge31" class="edge"><title>Node20&#45;&gt;Node22</title>
<path fill="none" stroke="midnightblue" d="M553,-291.083C553,-284.006 553,-273.861 553,-264.986"/>
<polygon fill="midnightblue" stroke="midnightblue" points="556.5,-264.751 553,-254.751 549.5,-264.751 556.5,-264.751"/>
</g>
<!-- Node23 -->
<g id="node24" class="node"><title>Node23</title>
<polygon fill="white" stroke="#bfbfbf" points="618,-235.5 618,-254.5 720,-254.5 720,-235.5 618,-235.5"/>
<text text-anchor="middle" x="669" y="-242.5" font-family="Helvetica,sans-Serif" font-size="10.00">odb/transaction.hxx</text>
</g>
<!-- Node20&#45;&gt;Node23 -->
<g id="edge32" class="edge"><title>Node20&#45;&gt;Node23</title>
<path fill="none" stroke="midnightblue" d="M571.381,-291.444C590.216,-282.675 619.731,-268.935 641.379,-258.858"/>
<polygon fill="midnightblue" stroke="midnightblue" points="643.117,-261.91 650.705,-254.516 640.162,-255.564 643.117,-261.91"/>
</g>
<!-- Node24 -->
<g id="node25" class="node"><title>Node24</title>
<g id="a_node25"><a xlink:href="../../d0/dee/DBService_8hpp.html" target="_top" xlink:title="tools/db/DBService.hpp">
<polygon fill="white" stroke="black" points="738,-235.5 738,-254.5 858,-254.5 858,-235.5 738,-235.5"/>
<text text-anchor="middle" x="798" y="-242.5" font-family="Helvetica,sans-Serif" font-size="10.00">tools/db/DBService.hpp</text>
</a>
</g>
</g>
<!-- Node20&#45;&gt;Node24 -->
<g id="edge33" class="edge"><title>Node20&#45;&gt;Node24</title>
<path fill="none" stroke="midnightblue" d="M591.821,-291.444C634.561,-282.023 703.332,-266.866 749.566,-256.675"/>
<polygon fill="midnightblue" stroke="midnightblue" points="750.348,-260.087 759.361,-254.516 748.842,-253.251 750.348,-260.087"/>
</g>
<!-- Node28 -->
<g id="node29" class="node"><title>Node28</title>
<polygon fill="white" stroke="#bfbfbf" points="245.5,-235.5 245.5,-254.5 346.5,-254.5 346.5,-235.5 245.5,-235.5"/>
<text text-anchor="middle" x="296" y="-242.5" font-family="Helvetica,sans-Serif" font-size="10.00">odb/connection.hxx</text>
</g>
<!-- Node20&#45;&gt;Node28 -->
<g id="edge46" class="edge"><title>Node20&#45;&gt;Node28</title>
<path fill="none" stroke="midnightblue" d="M512.278,-291.444C467.351,-282.004 395.002,-266.802 346.501,-256.611"/>
<polygon fill="midnightblue" stroke="midnightblue" points="347.038,-253.148 336.532,-254.516 345.598,-259.998 347.038,-253.148"/>
</g>
<!-- Node29 -->
<g id="node30" class="node"><title>Node29</title>
<polygon fill="white" stroke="#bfbfbf" points="364.5,-235.5 364.5,-254.5 487.5,-254.5 487.5,-235.5 364.5,-235.5"/>
<text text-anchor="middle" x="426" y="-242.5" font-family="Helvetica,sans-Serif" font-size="10.00">odb/schema&#45;catalog.hxx</text>
</g>
<!-- Node20&#45;&gt;Node29 -->
<g id="edge47" class="edge"><title>Node20&#45;&gt;Node29</title>
<path fill="none" stroke="midnightblue" d="M532.876,-291.444C511.976,-282.557 479.065,-268.563 455.284,-258.451"/>
<polygon fill="midnightblue" stroke="midnightblue" points="456.602,-255.208 446.029,-254.516 453.862,-261.65 456.602,-255.208"/>
</g>
<!-- Node21&#45;&gt;Node2 -->
<g id="edge30" class="edge"><title>Node21&#45;&gt;Node2</title>
<path fill="none" stroke="midnightblue" d="M321.571,-179.411C321.281,-163.815 322.996,-130.726 341,-112 371.704,-80.0647 423.698,-70.4414 458.677,-67.7328"/>
<polygon fill="midnightblue" stroke="midnightblue" points="459.18,-71.2085 468.944,-67.0971 458.747,-64.2218 459.18,-71.2085"/>
</g>
<!-- Node24&#45;&gt;Node11 -->
<g id="edge34" class="edge"><title>Node24&#45;&gt;Node11</title>
<path fill="none" stroke="midnightblue" d="M841.891,-235.444C890.517,-225.964 968.946,-210.675 1021.22,-200.483"/>
<polygon fill="midnightblue" stroke="midnightblue" points="1022.17,-203.865 1031.31,-198.516 1020.83,-196.995 1022.17,-203.865"/>
</g>
<!-- Node24&#45;&gt;Node12 -->
<g id="edge35" class="edge"><title>Node24&#45;&gt;Node12</title>
<path fill="none" stroke="midnightblue" d="M803.938,-235.319C816.92,-216.339 848.035,-170.848 865.175,-145.788"/>
<polygon fill="midnightblue" stroke="midnightblue" points="868.237,-147.512 870.993,-137.282 862.459,-143.56 868.237,-147.512"/>
</g>
<!-- Node24&#45;&gt;Node21 -->
<g id="edge45" class="edge"><title>Node24&#45;&gt;Node21</title>
<path fill="none" stroke="midnightblue" d="M737.798,-236.077C734.824,-235.708 731.879,-235.347 729,-235 596.709,-219.061 439.957,-202.339 365.48,-194.525"/>
<polygon fill="midnightblue" stroke="midnightblue" points="365.838,-191.043 355.528,-193.482 365.109,-198.005 365.838,-191.043"/>
</g>
<!-- Node25 -->
<g id="node26" class="node"><title>Node25</title>
<g id="a_node26"><a xlink:href="../../d7/d7f/CredentialFwd_8hpp.html" target="_top" xlink:title="core/credentials/Credential\lFwd.hpp">
<polygon fill="white" stroke="black" points="350.5,-112.5 350.5,-142.5 483.5,-142.5 483.5,-112.5 350.5,-112.5"/>
<text text-anchor="start" x="358.5" y="-130.5" font-family="Helvetica,sans-Serif" font-size="10.00">core/credentials/Credential</text>
<text text-anchor="middle" x="417" y="-119.5" font-family="Helvetica,sans-Serif" font-size="10.00">Fwd.hpp</text>
</a>
</g>
</g>
<!-- Node24&#45;&gt;Node25 -->
<g id="edge36" class="edge"><title>Node24&#45;&gt;Node25</title>
<path fill="none" stroke="midnightblue" d="M769.674,-235.413C707.032,-216.423 555.768,-170.568 473.155,-145.523"/>
<polygon fill="midnightblue" stroke="midnightblue" points="474.016,-142.127 463.431,-142.575 471.985,-148.826 474.016,-142.127"/>
</g>
<!-- Node26 -->
<g id="node27" class="node"><title>Node26</title>
<g id="a_node27"><a xlink:href="../../d2/d0e/UpdateFwd_8hpp.html" target="_top" xlink:title="core/update/UpdateFwd.hpp">
<polygon fill="white" stroke="black" points="502,-118 502,-137 642,-137 642,-118 502,-118"/>
<text text-anchor="middle" x="572" y="-125" font-family="Helvetica,sans-Serif" font-size="10.00">core/update/UpdateFwd.hpp</text>
</a>
</g>
</g>
<!-- Node24&#45;&gt;Node26 -->
<g id="edge39" class="edge"><title>Node24&#45;&gt;Node26</title>
<path fill="none" stroke="midnightblue" d="M781.013,-235.319C741.816,-215.286 644.833,-165.722 598.056,-141.816"/>
<polygon fill="midnightblue" stroke="midnightblue" points="599.373,-138.559 588.876,-137.124 596.187,-144.792 599.373,-138.559"/>
</g>
<!-- Node27 -->
<g id="node28" class="node"><title>Node27</title>
<g id="a_node28"><a xlink:href="../../d8/d97/ToolsFwd_8hpp.html" target="_top" xlink:title="tools/ToolsFwd.hpp">
<polygon fill="white" stroke="black" points="660,-118 660,-137 762,-137 762,-118 660,-118"/>
<text text-anchor="middle" x="711" y="-125" font-family="Helvetica,sans-Serif" font-size="10.00">tools/ToolsFwd.hpp</text>
</a>
</g>
</g>
<!-- Node24&#45;&gt;Node27 -->
<g id="edge42" class="edge"><title>Node24&#45;&gt;Node27</title>
<path fill="none" stroke="midnightblue" d="M791.461,-235.319C777.101,-216.255 742.596,-170.447 723.774,-145.458"/>
<polygon fill="midnightblue" stroke="midnightblue" points="726.427,-143.164 717.615,-137.282 720.836,-147.375 726.427,-143.164"/>
</g>
<!-- Node25&#45;&gt;Node2 -->
<g id="edge37" class="edge"><title>Node25&#45;&gt;Node2</title>
<path fill="none" stroke="midnightblue" d="M435.485,-112.399C447.52,-103.218 463.2,-91.2579 475.443,-81.9182"/>
<polygon fill="midnightblue" stroke="midnightblue" points="477.822,-84.5056 483.65,-75.6578 473.577,-78.9401 477.822,-84.5056"/>
</g>
<!-- Node25&#45;&gt;Node10 -->
<g id="edge38" class="edge"><title>Node25&#45;&gt;Node10</title>
<path fill="none" stroke="midnightblue" d="M483.713,-112.999C536.699,-102.275 609.761,-87.4888 658.601,-77.6045"/>
<polygon fill="midnightblue" stroke="midnightblue" points="659.533,-80.987 668.64,-75.5729 658.144,-74.1261 659.533,-80.987"/>
</g>
<!-- Node26&#45;&gt;Node2 -->
<g id="edge40" class="edge"><title>Node26&#45;&gt;Node2</title>
<path fill="none" stroke="midnightblue" d="M560.968,-117.975C548.732,-108.52 528.771,-93.0961 514.007,-81.6871"/>
<polygon fill="midnightblue" stroke="midnightblue" points="516.065,-78.8541 506.012,-75.5091 511.785,-84.3931 516.065,-78.8541"/>
</g>
<!-- Node26&#45;&gt;Node10 -->
<g id="edge41" class="edge"><title>Node26&#45;&gt;Node10</title>
<path fill="none" stroke="midnightblue" d="M591.915,-117.975C615.449,-107.901 654.81,-91.0525 681.793,-79.5023"/>
<polygon fill="midnightblue" stroke="midnightblue" points="683.306,-82.662 691.122,-75.5091 680.551,-76.2267 683.306,-82.662"/>
</g>
<!-- Node27&#45;&gt;Node2 -->
<g id="edge43" class="edge"><title>Node27&#45;&gt;Node2</title>
<path fill="none" stroke="midnightblue" d="M680.052,-117.975C640.61,-107.11 572.558,-88.3643 530.885,-76.8849"/>
<polygon fill="midnightblue" stroke="midnightblue" points="531.716,-73.4835 521.145,-74.2021 529.857,-80.2322 531.716,-73.4835"/>
</g>
<!-- Node27&#45;&gt;Node10 -->
<g id="edge44" class="edge"><title>Node27&#45;&gt;Node10</title>
<path fill="none" stroke="midnightblue" d="M711,-117.975C711,-109.58 711,-96.4806 711,-85.6631"/>
<polygon fill="midnightblue" stroke="midnightblue" points="714.5,-85.5091 711,-75.5091 707.5,-85.5091 714.5,-85.5091"/>
</g>
</g>
</svg>
        <g id="navigator" transform="translate(0 0)" fill="#404254">
                <rect fill="#f2f5e9" fill-opacity="0.5" stroke="#606060" stroke-width=".5" x="0" y="0" width="60" height="60"/>
                <use id="zoomplus" xlink:href="#zoomPlus" x="17" y="9" onmousedown="handleZoom(evt,'in')"/>
                <use id="zoomminus" xlink:href="#zoomMin" x="42" y="9" onmousedown="handleZoom(evt,'out')"/>
                <use id="reset" xlink:href="#resetDef" x="30" y="36" onmousedown="handleReset()"/>
                <g id="arrowUp" xlink:href="#dirArrow" transform="translate(30 24)" onmousedown="handlePan(0,-1)">
                  <use xlink:href="#rim" fill="#404040">
                        <set attributeName="fill" to="#808080" begin="arrowUp.mouseover" end="arrowUp.mouseout"/>
                  </use>
                  <path fill="none" stroke="white" stroke-width="1.5" d="M0,-3.0v7 M-2.5,-0.5L0,-3.0L2.5,-0.5"/>
                </g>
                <g id="arrowRight" xlink:href="#dirArrow" transform="rotate(90) translate(36 -43)" onmousedown="handlePan(1,0)">
                  <use xlink:href="#rim" fill="#404040">
                        <set attributeName="fill" to="#808080" begin="arrowRight.mouseover" end="arrowRight.mouseout"/>
                  </use>
                  <path fill="none" stroke="white" stroke-width="1.5" d="M0,-3.0v7 M-2.5,-0.5L0,-3.0L2.5,-0.5"/>
                </g>
                <g id="arrowDown" xlink:href="#dirArrow" transform="rotate(180) translate(-30 -48)" onmousedown="handlePan(0,1)">
                  <use xlink:href="#rim" fill="#404040">
                        <set attributeName="fill" to="#808080" begin="arrowDown.mouseover" end="arrowDown.mouseout"/>
                  </use>
                  <path fill="none" stroke="white" stroke-width="1.5" d="M0,-3.0v7 M-2.5,-0.5L0,-3.0L2.5,-0.5"/>
                </g>
                <g id="arrowLeft" xlink:href="#dirArrow" transform="rotate(270) translate(-36 17)" onmousedown="handlePan(-1,0)">
                  <use xlink:href="#rim" fill="#404040">
                        <set attributeName="fill" to="#808080" begin="arrowLeft.mouseover" end="arrowLeft.mouseout"/>
                  </use>
                  <path fill="none" stroke="white" stroke-width="1.5" d="M0,-3.0v7 M-2.5,-0.5L0,-3.0L2.5,-0.5"/>
                </g>
        </g>
        <svg viewBox="0 0 15 15" width="100%" height="30px" preserveAspectRatio="xMaxYMin meet">
         <g id="arrow_out" transform="scale(0.3 0.3)">
          <a xlink:href="SMTPAuditSerializer_8hpp__incl_org.svg" target="_base">
           <rect id="button" ry="5" rx="5" y="6" x="6" height="38" width="38"
                fill="#f2f5e9" fill-opacity="0.5" stroke="#606060" stroke-width="1.0"/>
           <path id="arrow"
             d="M 11.500037,31.436501 C 11.940474,20.09759 22.043105,11.32322 32.158766,21.979434 L 37.068811,17.246167 C 37.068811,17.246167 37.088388,32 37.088388,32 L 22.160133,31.978069 C 22.160133,31.978069 26.997745,27.140456 26.997745,27.140456 C 18.528582,18.264221 13.291696,25.230495 11.500037,31.436501 z"
             style="fill:#404040;"/>
          </a>
         </g>
        </svg>
</svg>
