<?xml version="1.0" encoding="UTF-8" standalone="no"?>
<!DOCTYPE svg PUBLIC "-//W3C//DTD SVG 1.1//EN"
 "http://www.w3.org/Graphics/SVG/1.1/DTD/svg11.dtd">
<!-- Generated by graphviz version 2.38.0 (20140413.2041)
 -->
<!-- Title: src/tools/MyTime.hpp Pages: 1 -->
<!--zoomable 162 -->
<svg id="main" version="1.1" xmlns="http://www.w3.org/2000/svg" xmlns:xlink="http://www.w3.org/1999/xlink" xml:space="preserve" onload="init(evt)">
<style type="text/css"><![CDATA[
.edge:hover path { stroke: red; }
.edge:hover polygon { stroke: red; fill: red; }
]]></style>
<script type="text/javascript"><![CDATA[
var edges = document.getElementsByTagName('g');
if (edges && edges.length) {
  for (var i=0;i<edges.length;i++) {
    if (edges[i].id.substr(0,4)=='edge') {
      edges[i].setAttribute('class','edge');
    }
  }
}
]]></script>
        <defs>
                <circle id="rim" cx="0" cy="0" r="7"/>
                <circle id="rim2" cx="0" cy="0" r="3.5"/>
                <g id="zoomPlus">
                        <use xlink:href="#rim" fill="#404040">
                                <set attributeName="fill" to="#808080" begin="zoomplus.mouseover" end="zoomplus.mouseout"/>
                        </use>
                        <path d="M-4,0h8M0,-4v8" fill="none" stroke="white" stroke-width="1.5" pointer-events="none"/>
                </g>
                <g id="zoomMin">
                        <use xlink:href="#rim" fill="#404040">
                                <set attributeName="fill" to="#808080" begin="zoomminus.mouseover" end="zoomminus.mouseout"/>
                        </use>
                        <path d="M-4,0h8" fill="none" stroke="white" stroke-width="1.5" pointer-events="none"/>
                </g>
                <g id="dirArrow">
                        <path fill="none" stroke="white" stroke-width="1.5" d="M0,-3.0v7 M-2.5,-0.5L0,-3.0L2.5,-0.5"/>
                </g>
               <g id="resetDef">
                       <use xlink:href="#rim2" fill="#404040">
                               <set attributeName="fill" to="#808080" begin="reset.mouseover" end="reset.mouseout"/>
                       </use>
               </g>
        </defs>

<script type="text/javascript">
var viewWidth = 754;
var viewHeight = 162;
var sectionId = 'dynsection-1';
</script>
<script xlink:href="../../svgpan.js"/>
<svg id="graph" class="graph">
<g id="viewport">
<title>src/tools/MyTime.hpp</title>
<polygon fill="white" stroke="none" points="-4,4 -4,-158 749.5,-158 749.5,4 -4,4"/>
<!-- Node6 -->
<g id="node1" class="node"><title>Node6</title>
<polygon fill="#bfbfbf" stroke="black" points="352.5,-134.5 352.5,-153.5 463.5,-153.5 463.5,-134.5 352.5,-134.5"/>
<text text-anchor="middle" x="408" y="-141.5" font-family="Helvetica,sans-Serif" font-size="10.00">src/tools/MyTime.hpp</text>
</g>
<!-- Node7 -->
<g id="node2" class="node"><title>Node7</title>
<g id="a_node2"><a xlink:href="../../da/d6f/SMTPModule_8cpp.html" target="_top" xlink:title="src/modules/smtp/SMTPModule.cpp">
<polygon fill="white" stroke="black" points="0,-73 0,-92 176,-92 176,-73 0,-73"/>
<text text-anchor="middle" x="88" y="-80" font-family="Helvetica,sans-Serif" font-size="10.00">src/modules/smtp/SMTPModule.cpp</text>
</a>
</g>
</g>
<!-- Node6&#45;&gt;Node7 -->
<g id="edge1" class="edge"><title>Node6&#45;&gt;Node7</title>
<path fill="none" stroke="midnightblue" d="M352.158,-132.617C290.187,-121.094 191.347,-102.716 133.763,-92.0091"/>
<polygon fill="midnightblue" stroke="midnightblue" points="351.68,-136.088 362.152,-134.475 352.96,-129.206 351.68,-136.088"/>
</g>
<!-- Node8 -->
<g id="node3" class="node"><title>Node8</title>
<g id="a_node3"><a xlink:href="../../d3/d2d/STDDurationODB_8hpp.html" target="_top" xlink:title="src/tools/db/STDDuration\lODB.hpp">
<polygon fill="white" stroke="black" points="194,-67.5 194,-97.5 322,-97.5 322,-67.5 194,-67.5"/>
<text text-anchor="start" x="202" y="-85.5" font-family="Helvetica,sans-Serif" font-size="10.00">src/tools/db/STDDuration</text>
<text text-anchor="middle" x="258" y="-74.5" font-family="Helvetica,sans-Serif" font-size="10.00">ODB.hpp</text>
</a>
</g>
</g>
<!-- Node6&#45;&gt;Node8 -->
<g id="edge2" class="edge"><title>Node6&#45;&gt;Node8</title>
<path fill="none" stroke="midnightblue" d="M377.039,-130.719C352.694,-121.062 318.762,-107.602 293.352,-97.523"/>
<polygon fill="midnightblue" stroke="midnightblue" points="375.923,-134.041 386.509,-134.475 378.504,-127.534 375.923,-134.041"/>
</g>
<!-- Node10 -->
<g id="node5" class="node"><title>Node10</title>
<g id="a_node5"><a xlink:href="../../d4/d66/STDTimePointODB_8hpp.html" target="_top" xlink:title="src/tools/db/STDTimePoint\lODB.hpp">
<polygon fill="white" stroke="black" points="340.5,-67.5 340.5,-97.5 475.5,-97.5 475.5,-67.5 340.5,-67.5"/>
<text text-anchor="start" x="348.5" y="-85.5" font-family="Helvetica,sans-Serif" font-size="10.00">src/tools/db/STDTimePoint</text>
<text text-anchor="middle" x="408" y="-74.5" font-family="Helvetica,sans-Serif" font-size="10.00">ODB.hpp</text>
</a>
</g>
</g>
<!-- Node6&#45;&gt;Node10 -->
<g id="edge4" class="edge"><title>Node6&#45;&gt;Node10</title>
<path fill="none" stroke="midnightblue" d="M408,-124.235C408,-115.586 408,-105.497 408,-97.523"/>
<polygon fill="midnightblue" stroke="midnightblue" points="404.5,-124.475 408,-134.475 411.5,-124.475 404.5,-124.475"/>
</g>
<!-- Node11 -->
<g id="node6" class="node"><title>Node11</title>
<g id="a_node6"><a xlink:href="../../df/d40/JSONUtils_8cpp.html" target="_top" xlink:title="src/tools/JSONUtils.cpp">
<polygon fill="white" stroke="black" points="493.5,-73 493.5,-92 616.5,-92 616.5,-73 493.5,-73"/>
<text text-anchor="middle" x="555" y="-80" font-family="Helvetica,sans-Serif" font-size="10.00">src/tools/JSONUtils.cpp</text>
</a>
</g>
</g>
<!-- Node6&#45;&gt;Node11 -->
<g id="edge6" class="edge"><title>Node6&#45;&gt;Node11</title>
<path fill="none" stroke="midnightblue" d="M438.558,-130.631C467.117,-119.072 508.998,-102.12 533.978,-92.0091"/>
<polygon fill="midnightblue" stroke="midnightblue" points="437.018,-127.479 429.062,-134.475 439.644,-133.967 437.018,-127.479"/>
</g>
<!-- Node12 -->
<g id="node7" class="node"><title>Node12</title>
<g id="a_node7"><a xlink:href="../../dd/dcc/MyTime_8cpp.html" target="_top" xlink:title="src/tools/MyTime.cpp">
<polygon fill="white" stroke="black" points="634.5,-73 634.5,-92 745.5,-92 745.5,-73 634.5,-73"/>
<text text-anchor="middle" x="690" y="-80" font-family="Helvetica,sans-Serif" font-size="10.00">src/tools/MyTime.cpp</text>
</a>
</g>
</g>
<!-- Node6&#45;&gt;Node12 -->
<g id="edge7" class="edge"><title>Node6&#45;&gt;Node12</title>
<path fill="none" stroke="midnightblue" d="M460.597,-132.438C504.789,-123.493 569.584,-110.212 626,-98 634.685,-96.1199 644.019,-94.0394 652.8,-92.0551"/>
<polygon fill="midnightblue" stroke="midnightblue" points="459.767,-129.035 450.659,-134.447 461.154,-135.896 459.767,-129.035"/>
</g>
<!-- Node9 -->
<g id="node4" class="node"><title>Node9</title>
<g id="a_node4"><a xlink:href="../../de/dee/ODB__Auth__Prologue_8hpp.html" target="_top" xlink:title="src/tools/db/ODB_Auth\l_Prologue.hpp">
<polygon fill="white" stroke="black" points="274,-0.5 274,-30.5 392,-30.5 392,-0.5 274,-0.5"/>
<text text-anchor="start" x="282" y="-18.5" font-family="Helvetica,sans-Serif" font-size="10.00">src/tools/db/ODB_Auth</text>
<text text-anchor="middle" x="333" y="-7.5" font-family="Helvetica,sans-Serif" font-size="10.00">_Prologue.hpp</text>
</a>
</g>
</g>
<!-- Node8&#45;&gt;Node9 -->
<g id="edge3" class="edge"><title>Node8&#45;&gt;Node9</title>
<path fill="none" stroke="midnightblue" d="M282.118,-60.5978C293.443,-50.7831 306.641,-39.3442 316.758,-30.5765"/>
<polygon fill="midnightblue" stroke="midnightblue" points="279.539,-58.2017 274.274,-67.396 284.123,-63.4915 279.539,-58.2017"/>
</g>
<!-- Node10&#45;&gt;Node9 -->
<g id="edge5" class="edge"><title>Node10&#45;&gt;Node9</title>
<path fill="none" stroke="midnightblue" d="M383.882,-60.5978C372.557,-50.7831 359.359,-39.3442 349.242,-30.5765"/>
<polygon fill="midnightblue" stroke="midnightblue" points="381.877,-63.4915 391.726,-67.396 386.461,-58.2017 381.877,-63.4915"/>
</g>
</g>
</svg>
        <g id="navigator" transform="translate(0 0)" fill="#404254">
                <rect fill="#f2f5e9" fill-opacity="0.5" stroke="#606060" stroke-width=".5" x="0" y="0" width="60" height="60"/>
                <use id="zoomplus" xlink:href="#zoomPlus" x="17" y="9" onmousedown="handleZoom(evt,'in')"/>
                <use id="zoomminus" xlink:href="#zoomMin" x="42" y="9" onmousedown="handleZoom(evt,'out')"/>
                <use id="reset" xlink:href="#resetDef" x="30" y="36" onmousedown="handleReset()"/>
                <g id="arrowUp" xlink:href="#dirArrow" transform="translate(30 24)" onmousedown="handlePan(0,-1)">
                  <use xlink:href="#rim" fill="#404040">
                        <set attributeName="fill" to="#808080" begin="arrowUp.mouseover" end="arrowUp.mouseout"/>
                  </use>
                  <path fill="none" stroke="white" stroke-width="1.5" d="M0,-3.0v7 M-2.5,-0.5L0,-3.0L2.5,-0.5"/>
                </g>
                <g id="arrowRight" xlink:href="#dirArrow" transform="rotate(90) translate(36 -43)" onmousedown="handlePan(1,0)">
                  <use xlink:href="#rim" fill="#404040">
                        <set attributeName="fill" to="#808080" begin="arrowRight.mouseover" end="arrowRight.mouseout"/>
                  </use>
                  <path fill="none" stroke="white" stroke-width="1.5" d="M0,-3.0v7 M-2.5,-0.5L0,-3.0L2.5,-0.5"/>
                </g>
                <g id="arrowDown" xlink:href="#dirArrow" transform="rotate(180) translate(-30 -48)" onmousedown="handlePan(0,1)">
                  <use xlink:href="#rim" fill="#404040">
                        <set attributeName="fill" to="#808080" begin="arrowDown.mouseover" end="arrowDown.mouseout"/>
                  </use>
                  <path fill="none" stroke="white" stroke-width="1.5" d="M0,-3.0v7 M-2.5,-0.5L0,-3.0L2.5,-0.5"/>
                </g>
                <g id="arrowLeft" xlink:href="#dirArrow" transform="rotate(270) translate(-36 17)" onmousedown="handlePan(-1,0)">
                  <use xlink:href="#rim" fill="#404040">
                        <set attributeName="fill" to="#808080" begin="arrowLeft.mouseover" end="arrowLeft.mouseout"/>
                  </use>
                  <path fill="none" stroke="white" stroke-width="1.5" d="M0,-3.0v7 M-2.5,-0.5L0,-3.0L2.5,-0.5"/>
                </g>
        </g>
        <svg viewBox="0 0 15 15" width="100%" height="30px" preserveAspectRatio="xMaxYMin meet">
         <g id="arrow_out" transform="scale(0.3 0.3)">
          <a xlink:href="MyTime_8hpp__dep__incl_org.svg" target="_base">
           <rect id="button" ry="5" rx="5" y="6" x="6" height="38" width="38"
                fill="#f2f5e9" fill-opacity="0.5" stroke="#606060" stroke-width="1.0"/>
           <path id="arrow"
             d="M 11.500037,31.436501 C 11.940474,20.09759 22.043105,11.32322 32.158766,21.979434 L 37.068811,17.246167 C 37.068811,17.246167 37.088388,32 37.088388,32 L 22.160133,31.978069 C 22.160133,31.978069 26.997745,27.140456 26.997745,27.140456 C 18.528582,18.264221 13.291696,25.230495 11.500037,31.436501 z"
             style="fill:#404040;"/>
          </a>
         </g>
        </svg>
</svg>
