<?xml version="1.0" encoding="UTF-8" standalone="no"?>
<!DOCTYPE svg PUBLIC "-//W3C//DTD SVG 1.1//EN"
 "http://www.w3.org/Graphics/SVG/1.1/DTD/svg11.dtd">
<!-- Generated by graphviz version 2.38.0 (20140413.2041)
 -->
<!-- Title: src/tools/serializers/ScheduleMappingSerializer.hpp Pages: 1 -->
<svg width="345pt" height="151pt"
 viewBox="0.00 0.00 344.50 151.00" xmlns="http://www.w3.org/2000/svg" xmlns:xlink="http://www.w3.org/1999/xlink">
<g id="graph0" class="graph" transform="scale(1 1) rotate(0) translate(4 147)">
<title>src/tools/serializers/ScheduleMappingSerializer.hpp</title>
<polygon fill="white" stroke="none" points="-4,4 -4,-147 340.5,-147 340.5,4 -4,4"/>
<!-- Node0 -->
<g id="node1" class="node"><title>Node0</title>
<polygon fill="#bfbfbf" stroke="black" points="125,-112.5 125,-142.5 281,-142.5 281,-112.5 125,-112.5"/>
<text text-anchor="start" x="133" y="-130.5" font-family="Helvetica,sans-Serif" font-size="10.00">src/tools/serializers</text>
<text text-anchor="middle" x="203" y="-119.5" font-family="Helvetica,sans-Serif" font-size="10.00">/ScheduleMappingSerializer.hpp</text>
</g>
<!-- Node1 -->
<g id="node2" class="node"><title>Node1</title>
<g id="a_node2"><a xlink:href="../../dc/d49/LeosacFwd_8hpp.html" target="_top" xlink:title="LeosacFwd.hpp">
<polygon fill="white" stroke="black" points="0,-56.5 0,-75.5 86,-75.5 86,-56.5 0,-56.5"/>
<text text-anchor="middle" x="43" y="-63.5" font-family="Helvetica,sans-Serif" font-size="10.00">LeosacFwd.hpp</text>
</a>
</g>
</g>
<!-- Node0&#45;&gt;Node1 -->
<g id="edge1" class="edge"><title>Node0&#45;&gt;Node1</title>
<path fill="none" stroke="midnightblue" d="M165.082,-112.399C137.877,-102.283 101.596,-88.7905 75.6703,-79.1493"/>
<polygon fill="midnightblue" stroke="midnightblue" points="76.8743,-75.8629 66.2814,-75.6578 74.4343,-82.4239 76.8743,-75.8629"/>
</g>
<!-- Node4 -->
<g id="node5" class="node"><title>Node4</title>
<g id="a_node5"><a xlink:href="../../d8/d97/ToolsFwd_8hpp.html" target="_top" xlink:title="tools/ToolsFwd.hpp">
<polygon fill="white" stroke="black" points="104,-56.5 104,-75.5 206,-75.5 206,-56.5 104,-56.5"/>
<text text-anchor="middle" x="155" y="-63.5" font-family="Helvetica,sans-Serif" font-size="10.00">tools/ToolsFwd.hpp</text>
</a>
</g>
</g>
<!-- Node0&#45;&gt;Node4 -->
<g id="edge4" class="edge"><title>Node0&#45;&gt;Node4</title>
<path fill="none" stroke="midnightblue" d="M191.625,-112.399C184.65,-103.753 175.686,-92.642 168.372,-83.576"/>
<polygon fill="midnightblue" stroke="midnightblue" points="170.987,-81.2433 161.984,-75.6578 165.539,-85.6385 170.987,-81.2433"/>
</g>
<!-- Node6 -->
<g id="node7" class="node"><title>Node6</title>
<polygon fill="white" stroke="#bfbfbf" points="224.5,-56.5 224.5,-75.5 277.5,-75.5 277.5,-56.5 224.5,-56.5"/>
<text text-anchor="middle" x="251" y="-63.5" font-family="Helvetica,sans-Serif" font-size="10.00">json.hpp</text>
</g>
<!-- Node0&#45;&gt;Node6 -->
<g id="edge7" class="edge"><title>Node0&#45;&gt;Node6</title>
<path fill="none" stroke="midnightblue" d="M214.375,-112.399C221.35,-103.753 230.314,-92.642 237.628,-83.576"/>
<polygon fill="midnightblue" stroke="midnightblue" points="240.461,-85.6385 244.016,-75.6578 235.013,-81.2433 240.461,-85.6385"/>
</g>
<!-- Node7 -->
<g id="node8" class="node"><title>Node7</title>
<polygon fill="white" stroke="#bfbfbf" points="295.5,-56.5 295.5,-75.5 336.5,-75.5 336.5,-56.5 295.5,-56.5"/>
<text text-anchor="middle" x="316" y="-63.5" font-family="Helvetica,sans-Serif" font-size="10.00">string</text>
</g>
<!-- Node0&#45;&gt;Node7 -->
<g id="edge8" class="edge"><title>Node0&#45;&gt;Node7</title>
<path fill="none" stroke="midnightblue" d="M229.779,-112.399C248.062,-102.773 272.148,-90.0902 290.215,-80.5772"/>
<polygon fill="midnightblue" stroke="midnightblue" points="292.34,-83.4138 299.557,-75.6578 289.078,-77.22 292.34,-83.4138"/>
</g>
<!-- Node2 -->
<g id="node3" class="node"><title>Node2</title>
<polygon fill="white" stroke="#bfbfbf" points="63,-0.5 63,-19.5 115,-19.5 115,-0.5 63,-0.5"/>
<text text-anchor="middle" x="89" y="-7.5" font-family="Helvetica,sans-Serif" font-size="10.00">memory</text>
</g>
<!-- Node1&#45;&gt;Node2 -->
<g id="edge2" class="edge"><title>Node1&#45;&gt;Node2</title>
<path fill="none" stroke="midnightblue" d="M50.596,-56.083C57.2275,-48.2982 67.021,-36.8015 75.0581,-27.3665"/>
<polygon fill="midnightblue" stroke="midnightblue" points="77.725,-29.6332 81.5454,-19.7511 72.3963,-25.0939 77.725,-29.6332"/>
</g>
<!-- Node3 -->
<g id="node4" class="node"><title>Node3</title>
<polygon fill="white" stroke="#bfbfbf" points="1,-0.5 1,-19.5 45,-19.5 45,-0.5 1,-0.5"/>
<text text-anchor="middle" x="23" y="-7.5" font-family="Helvetica,sans-Serif" font-size="10.00">vector</text>
</g>
<!-- Node1&#45;&gt;Node3 -->
<g id="edge3" class="edge"><title>Node1&#45;&gt;Node3</title>
<path fill="none" stroke="midnightblue" d="M39.6974,-56.083C37.018,-48.8486 33.1514,-38.4087 29.8136,-29.3968"/>
<polygon fill="midnightblue" stroke="midnightblue" points="32.9965,-27.9129 26.2411,-19.7511 26.4322,-30.3442 32.9965,-27.9129"/>
</g>
<!-- Node4&#45;&gt;Node2 -->
<g id="edge5" class="edge"><title>Node4&#45;&gt;Node2</title>
<path fill="none" stroke="midnightblue" d="M144.396,-56.324C134.544,-48.2631 119.649,-36.0765 107.785,-26.3695"/>
<polygon fill="midnightblue" stroke="midnightblue" points="109.753,-23.4575 99.797,-19.8339 105.32,-28.8752 109.753,-23.4575"/>
</g>
<!-- Node5 -->
<g id="node6" class="node"><title>Node5</title>
<polygon fill="white" stroke="#bfbfbf" points="133,-0.5 133,-19.5 219,-19.5 219,-0.5 133,-0.5"/>
<text text-anchor="middle" x="176" y="-7.5" font-family="Helvetica,sans-Serif" font-size="10.00">odb/lazy&#45;ptr.hxx</text>
</g>
<!-- Node4&#45;&gt;Node5 -->
<g id="edge6" class="edge"><title>Node4&#45;&gt;Node5</title>
<path fill="none" stroke="midnightblue" d="M158.468,-56.083C161.312,-48.77 165.429,-38.1814 168.96,-29.1034"/>
<polygon fill="midnightblue" stroke="midnightblue" points="172.234,-30.3397 172.597,-19.7511 165.71,-27.8025 172.234,-30.3397"/>
</g>
</g>
</svg>
