<?xml version="1.0" encoding="UTF-8" standalone="no"?>
<!DOCTYPE svg PUBLIC "-//W3C//DTD SVG 1.1//EN"
 "http://www.w3.org/Graphics/SVG/1.1/DTD/svg11.dtd">
<!-- Generated by graphviz version 2.38.0 (20140413.2041)
 -->
<!-- Title: src/hardware/Buzzer.cpp Pages: 1 -->
<!--zoomable 308 -->
<svg id="main" version="1.1" xmlns="http://www.w3.org/2000/svg" xmlns:xlink="http://www.w3.org/1999/xlink" xml:space="preserve" onload="init(evt)">
<style type="text/css"><![CDATA[
.edge:hover path { stroke: red; }
.edge:hover polygon { stroke: red; fill: red; }
]]></style>
<script type="text/javascript"><![CDATA[
var edges = document.getElementsByTagName('g');
if (edges && edges.length) {
  for (var i=0;i<edges.length;i++) {
    if (edges[i].id.substr(0,4)=='edge') {
      edges[i].setAttribute('class','edge');
    }
  }
}
]]></script>
        <defs>
                <circle id="rim" cx="0" cy="0" r="7"/>
                <circle id="rim2" cx="0" cy="0" r="3.5"/>
                <g id="zoomPlus">
                        <use xlink:href="#rim" fill="#404040">
                                <set attributeName="fill" to="#808080" begin="zoomplus.mouseover" end="zoomplus.mouseout"/>
                        </use>
                        <path d="M-4,0h8M0,-4v8" fill="none" stroke="white" stroke-width="1.5" pointer-events="none"/>
                </g>
                <g id="zoomMin">
                        <use xlink:href="#rim" fill="#404040">
                                <set attributeName="fill" to="#808080" begin="zoomminus.mouseover" end="zoomminus.mouseout"/>
                        </use>
                        <path d="M-4,0h8" fill="none" stroke="white" stroke-width="1.5" pointer-events="none"/>
                </g>
                <g id="dirArrow">
                        <path fill="none" stroke="white" stroke-width="1.5" d="M0,-3.0v7 M-2.5,-0.5L0,-3.0L2.5,-0.5"/>
                </g>
               <g id="resetDef">
                       <use xlink:href="#rim2" fill="#404040">
                               <set attributeName="fill" to="#808080" begin="reset.mouseover" end="reset.mouseout"/>
                       </use>
               </g>
        </defs>

<script type="text/javascript">
var viewWidth = 703;
var viewHeight = 308;
var sectionId = 'dynsection-0';
</script>
<script xlink:href="../../svgpan.js"/>
<svg id="graph" class="graph">
<g id="viewport">
<title>src/hardware/Buzzer.cpp</title>
<polygon fill="white" stroke="none" points="-4,4 -4,-304 699,-304 699,4 -4,4"/>
<!-- Node0 -->
<g id="node1" class="node"><title>Node0</title>
<polygon fill="#bfbfbf" stroke="black" points="145,-280.5 145,-299.5 270,-299.5 270,-280.5 145,-280.5"/>
<text text-anchor="middle" x="207.5" y="-287.5" font-family="Helvetica,sans-Serif" font-size="10.00">src/hardware/Buzzer.cpp</text>
</g>
<!-- Node1 -->
<g id="node2" class="node"><title>Node1</title>
<g id="a_node2"><a xlink:href="../../d8/dbe/Buzzer_8hpp.html" target="_top" xlink:title="hardware/Buzzer.hpp">
<polygon fill="white" stroke="black" points="80,-224.5 80,-243.5 189,-243.5 189,-224.5 80,-224.5"/>
<text text-anchor="middle" x="134.5" y="-231.5" font-family="Helvetica,sans-Serif" font-size="10.00">hardware/Buzzer.hpp</text>
</a>
</g>
</g>
<!-- Node0&#45;&gt;Node1 -->
<g id="edge1" class="edge"><title>Node0&#45;&gt;Node1</title>
<path fill="none" stroke="midnightblue" d="M195.771,-280.324C184.663,-272.107 167.758,-259.602 154.517,-249.807"/>
<polygon fill="midnightblue" stroke="midnightblue" points="156.563,-246.967 146.442,-243.834 152.4,-252.595 156.563,-246.967"/>
</g>
<!-- Node13 -->
<g id="node14" class="node"><title>Node13</title>
<g id="a_node14"><a xlink:href="../../d9/d02/GPIO_8hpp.html" target="_top" xlink:title="hardware/GPIO.hpp">
<polygon fill="white" stroke="black" points="229,-224.5 229,-243.5 332,-243.5 332,-224.5 229,-224.5"/>
<text text-anchor="middle" x="280.5" y="-231.5" font-family="Helvetica,sans-Serif" font-size="10.00">hardware/GPIO.hpp</text>
</a>
</g>
</g>
<!-- Node0&#45;&gt;Node13 -->
<g id="edge19" class="edge"><title>Node0&#45;&gt;Node13</title>
<path fill="none" stroke="midnightblue" d="M219.229,-280.324C230.337,-272.107 247.242,-259.602 260.483,-249.807"/>
<polygon fill="midnightblue" stroke="midnightblue" points="262.6,-252.595 268.558,-243.834 258.437,-246.967 262.6,-252.595"/>
</g>
<!-- Node2 -->
<g id="node3" class="node"><title>Node2</title>
<g id="a_node3"><a xlink:href="../../da/d14/Device_8hpp.html" target="_top" xlink:title="hardware/Device.hpp">
<polygon fill="white" stroke="black" points="317,-168.5 317,-187.5 426,-187.5 426,-168.5 317,-168.5"/>
<text text-anchor="middle" x="371.5" y="-175.5" font-family="Helvetica,sans-Serif" font-size="10.00">hardware/Device.hpp</text>
</a>
</g>
</g>
<!-- Node1&#45;&gt;Node2 -->
<g id="edge2" class="edge"><title>Node1&#45;&gt;Node2</title>
<path fill="none" stroke="midnightblue" d="M172.053,-224.444C213.311,-215.043 279.644,-199.929 324.366,-189.739"/>
<polygon fill="midnightblue" stroke="midnightblue" points="325.15,-193.151 334.122,-187.516 323.595,-186.326 325.15,-193.151"/>
</g>
<!-- Node3 -->
<g id="node4" class="node"><title>Node3</title>
<g id="a_node4"><a xlink:href="../../d9/dc8/HardwareFwd_8hpp.html" target="_top" xlink:title="hardware/HardwareFwd.hpp">
<polygon fill="white" stroke="black" points="211,-112.5 211,-131.5 350,-131.5 350,-112.5 211,-112.5"/>
<text text-anchor="middle" x="280.5" y="-119.5" font-family="Helvetica,sans-Serif" font-size="10.00">hardware/HardwareFwd.hpp</text>
</a>
</g>
</g>
<!-- Node1&#45;&gt;Node3 -->
<g id="edge16" class="edge"><title>Node1&#45;&gt;Node3</title>
<path fill="none" stroke="midnightblue" d="M145.956,-224.368C170.797,-205.653 229.863,-161.151 260.813,-137.832"/>
<polygon fill="midnightblue" stroke="midnightblue" points="263.216,-140.404 269.097,-131.591 259.004,-134.814 263.216,-140.404"/>
</g>
<!-- Node9 -->
<g id="node10" class="node"><title>Node9</title>
<polygon fill="white" stroke="#bfbfbf" points="0,-0.5 0,-19.5 73,-19.5 73,-0.5 0,-0.5"/>
<text text-anchor="middle" x="36.5" y="-7.5" font-family="Helvetica,sans-Serif" font-size="10.00">odb/core.hxx</text>
</g>
<!-- Node1&#45;&gt;Node9 -->
<g id="edge18" class="edge"><title>Node1&#45;&gt;Node9</title>
<path fill="none" stroke="midnightblue" d="M126.086,-224.383C110.521,-207.917 77.2917,-170.209 60.5,-132 45.4745,-97.8098 39.783,-54.054 37.6811,-29.6289"/>
<polygon fill="midnightblue" stroke="midnightblue" points="41.1667,-29.3044 36.9298,-19.5936 34.1862,-29.8271 41.1667,-29.3044"/>
</g>
<!-- Node12 -->
<g id="node13" class="node"><title>Node12</title>
<polygon fill="white" stroke="#bfbfbf" points="102.5,-112.5 102.5,-131.5 192.5,-131.5 192.5,-112.5 102.5,-112.5"/>
<text text-anchor="middle" x="147.5" y="-119.5" font-family="Helvetica,sans-Serif" font-size="10.00">odb/callback.hxx</text>
</g>
<!-- Node1&#45;&gt;Node12 -->
<g id="edge17" class="edge"><title>Node1&#45;&gt;Node12</title>
<path fill="none" stroke="midnightblue" d="M129.865,-224.089C123.926,-211.492 115.015,-187.802 120.5,-168 123.292,-157.921 129.009,-147.832 134.467,-139.769"/>
<polygon fill="midnightblue" stroke="midnightblue" points="137.325,-141.79 140.349,-131.636 131.653,-137.688 137.325,-141.79"/>
</g>
<!-- Node2&#45;&gt;Node3 -->
<g id="edge3" class="edge"><title>Node2&#45;&gt;Node3</title>
<path fill="none" stroke="midnightblue" d="M356.879,-168.324C342.551,-159.822 320.487,-146.729 303.751,-136.797"/>
<polygon fill="midnightblue" stroke="midnightblue" points="305.47,-133.748 295.084,-131.655 301.898,-139.768 305.47,-133.748"/>
</g>
<!-- Node4 -->
<g id="node5" class="node"><title>Node4</title>
<g id="a_node5"><a xlink:href="../../dc/dea/Uuid_8hpp.html" target="_top" xlink:title="tools/Uuid.hpp">
<polygon fill="white" stroke="black" points="376.5,-56.5 376.5,-75.5 456.5,-75.5 456.5,-56.5 376.5,-56.5"/>
<text text-anchor="middle" x="416.5" y="-63.5" font-family="Helvetica,sans-Serif" font-size="10.00">tools/Uuid.hpp</text>
</a>
</g>
</g>
<!-- Node2&#45;&gt;Node4 -->
<g id="edge11" class="edge"><title>Node2&#45;&gt;Node4</title>
<path fill="none" stroke="midnightblue" d="M375.74,-168.468C380.142,-159.487 387.123,-144.89 392.5,-132 399.012,-116.387 405.612,-98.3136 410.238,-85.1937"/>
<polygon fill="midnightblue" stroke="midnightblue" points="413.63,-86.0958 413.614,-75.5009 407.019,-83.793 413.63,-86.0958"/>
</g>
<!-- Node2&#45;&gt;Node9 -->
<g id="edge14" class="edge"><title>Node2&#45;&gt;Node9</title>
<path fill="none" stroke="midnightblue" d="M372.352,-168.205C373.178,-154.438 372.654,-127.749 358.5,-112 339.472,-90.8278 163.75,-43.5911 80.2182,-22.0676"/>
<polygon fill="midnightblue" stroke="midnightblue" points="81.0614,-18.6707 70.5052,-19.5738 79.3206,-25.4508 81.0614,-18.6707"/>
</g>
<!-- Node10 -->
<g id="node11" class="node"><title>Node10</title>
<polygon fill="white" stroke="#bfbfbf" points="654,-0.5 654,-19.5 695,-19.5 695,-0.5 654,-0.5"/>
<text text-anchor="middle" x="674.5" y="-7.5" font-family="Helvetica,sans-Serif" font-size="10.00">string</text>
</g>
<!-- Node2&#45;&gt;Node10 -->
<g id="edge15" class="edge"><title>Node2&#45;&gt;Node10</title>
<path fill="none" stroke="midnightblue" d="M387.364,-168.309C437.065,-141.08 590.004,-57.2916 649.993,-24.4261"/>
<polygon fill="midnightblue" stroke="midnightblue" points="651.705,-27.4794 658.793,-19.6051 648.341,-21.3404 651.705,-27.4794"/>
</g>
<!-- Node11 -->
<g id="node12" class="node"><title>Node11</title>
<polygon fill="white" stroke="#bfbfbf" points="512.5,-112.5 512.5,-131.5 558.5,-131.5 558.5,-112.5 512.5,-112.5"/>
<text text-anchor="middle" x="535.5" y="-119.5" font-family="Helvetica,sans-Serif" font-size="10.00">cstdint</text>
</g>
<!-- Node2&#45;&gt;Node11 -->
<g id="edge12" class="edge"><title>Node2&#45;&gt;Node11</title>
<path fill="none" stroke="midnightblue" d="M397.486,-168.444C425.888,-159.092 471.461,-144.086 502.401,-133.898"/>
<polygon fill="midnightblue" stroke="midnightblue" points="503.883,-137.095 512.287,-130.643 501.694,-130.446 503.883,-137.095"/>
</g>
<!-- Node2&#45;&gt;Node12 -->
<g id="edge13" class="edge"><title>Node2&#45;&gt;Node12</title>
<path fill="none" stroke="midnightblue" d="M336.007,-168.444C297.176,-159.083 234.844,-144.056 192.582,-133.868"/>
<polygon fill="midnightblue" stroke="midnightblue" points="193.369,-130.458 182.827,-131.516 191.729,-137.263 193.369,-130.458"/>
</g>
<!-- Node3&#45;&gt;Node4 -->
<g id="edge4" class="edge"><title>Node3&#45;&gt;Node4</title>
<path fill="none" stroke="midnightblue" d="M302.05,-112.444C324.531,-103.517 359.988,-89.4387 385.48,-79.3168"/>
<polygon fill="midnightblue" stroke="midnightblue" points="387.049,-82.4598 395.051,-75.5164 384.465,-75.9539 387.049,-82.4598"/>
</g>
<!-- Node5 -->
<g id="node6" class="node"><title>Node5</title>
<polygon fill="white" stroke="#bfbfbf" points="521.5,-0.5 521.5,-19.5 635.5,-19.5 635.5,-0.5 521.5,-0.5"/>
<text text-anchor="middle" x="578.5" y="-7.5" font-family="Helvetica,sans-Serif" font-size="10.00">boost/lexical_cast.hpp</text>
</g>
<!-- Node4&#45;&gt;Node5 -->
<g id="edge5" class="edge"><title>Node4&#45;&gt;Node5</title>
<path fill="none" stroke="midnightblue" d="M442.169,-56.4435C469.423,-47.3591 512.684,-32.9388 543.151,-22.7831"/>
<polygon fill="midnightblue" stroke="midnightblue" points="544.571,-25.9992 552.951,-19.5164 542.357,-19.3584 544.571,-25.9992"/>
</g>
<!-- Node6 -->
<g id="node7" class="node"><title>Node6</title>
<polygon fill="white" stroke="#bfbfbf" points="91,-0.5 91,-19.5 252,-19.5 252,-0.5 91,-0.5"/>
<text text-anchor="middle" x="171.5" y="-7.5" font-family="Helvetica,sans-Serif" font-size="10.00">boost/uuid/random_generator.hpp</text>
</g>
<!-- Node4&#45;&gt;Node6 -->
<g id="edge6" class="edge"><title>Node4&#45;&gt;Node6</title>
<path fill="none" stroke="midnightblue" d="M377.679,-56.4435C334.939,-47.0234 266.168,-31.8656 219.934,-21.6752"/>
<polygon fill="midnightblue" stroke="midnightblue" points="220.658,-18.251 210.139,-19.5164 219.152,-25.0869 220.658,-18.251"/>
</g>
<!-- Node7 -->
<g id="node8" class="node"><title>Node7</title>
<polygon fill="white" stroke="#bfbfbf" points="270,-0.5 270,-19.5 371,-19.5 371,-0.5 270,-0.5"/>
<text text-anchor="middle" x="320.5" y="-7.5" font-family="Helvetica,sans-Serif" font-size="10.00">boost/uuid/uuid.hpp</text>
</g>
<!-- Node4&#45;&gt;Node7 -->
<g id="edge7" class="edge"><title>Node4&#45;&gt;Node7</title>
<path fill="none" stroke="midnightblue" d="M401.076,-56.324C385.96,-47.8215 362.685,-34.7288 345.029,-24.7975"/>
<polygon fill="midnightblue" stroke="midnightblue" points="346.317,-21.5066 335.886,-19.6545 342.886,-27.6077 346.317,-21.5066"/>
</g>
<!-- Node8 -->
<g id="node9" class="node"><title>Node8</title>
<polygon fill="white" stroke="#bfbfbf" points="389.5,-0.5 389.5,-19.5 503.5,-19.5 503.5,-0.5 389.5,-0.5"/>
<text text-anchor="middle" x="446.5" y="-7.5" font-family="Helvetica,sans-Serif" font-size="10.00">boost/uuid/uuid_io.hpp</text>
</g>
<!-- Node4&#45;&gt;Node8 -->
<g id="edge8" class="edge"><title>Node4&#45;&gt;Node8</title>
<path fill="none" stroke="midnightblue" d="M421.454,-56.083C425.604,-48.6127 431.653,-37.7244 436.767,-28.5199"/>
<polygon fill="midnightblue" stroke="midnightblue" points="439.841,-30.1924 441.638,-19.7511 433.722,-26.7929 439.841,-30.1924"/>
</g>
<!-- Node4&#45;&gt;Node9 -->
<g id="edge9" class="edge"><title>Node4&#45;&gt;Node9</title>
<path fill="none" stroke="midnightblue" d="M376.422,-58.1475C371.733,-57.397 367.013,-56.665 362.5,-56 241.098,-38.113 207.447,-40.2348 83.1972,-20.1902"/>
<polygon fill="midnightblue" stroke="midnightblue" points="83.7314,-16.7312 73.2987,-18.5777 82.6058,-23.6401 83.7314,-16.7312"/>
</g>
<!-- Node4&#45;&gt;Node10 -->
<g id="edge10" class="edge"><title>Node4&#45;&gt;Node10</title>
<path fill="none" stroke="midnightblue" d="M456.709,-58.2761C500.409,-50.7011 572.458,-37.435 643.849,-19.955"/>
<polygon fill="midnightblue" stroke="midnightblue" points="645.051,-23.2632 653.915,-17.4607 643.367,-16.4686 645.051,-23.2632"/>
</g>
<!-- Node13&#45;&gt;Node2 -->
<g id="edge20" class="edge"><title>Node13&#45;&gt;Node2</title>
<path fill="none" stroke="midnightblue" d="M295.121,-224.324C309.449,-215.822 331.513,-202.729 348.249,-192.797"/>
<polygon fill="midnightblue" stroke="midnightblue" points="350.102,-195.768 356.916,-187.655 346.53,-189.748 350.102,-195.768"/>
</g>
<!-- Node13&#45;&gt;Node3 -->
<g id="edge21" class="edge"><title>Node13&#45;&gt;Node3</title>
<path fill="none" stroke="midnightblue" d="M280.5,-224.368C280.5,-206.617 280.5,-165.666 280.5,-141.597"/>
<polygon fill="midnightblue" stroke="midnightblue" points="284,-141.591 280.5,-131.591 277,-141.591 284,-141.591"/>
</g>
<!-- Node13&#45;&gt;Node9 -->
<g id="edge24" class="edge"><title>Node13&#45;&gt;Node9</title>
<path fill="none" stroke="midnightblue" d="M253.245,-224.449C213.468,-210.742 139.282,-180.37 93.5,-132 89.6651,-127.948 59.4594,-61.7766 44.6418,-29.0454"/>
<polygon fill="midnightblue" stroke="midnightblue" points="47.7326,-27.3856 40.4245,-19.7146 41.3538,-30.2686 47.7326,-27.3856"/>
</g>
<!-- Node13&#45;&gt;Node10 -->
<g id="edge25" class="edge"><title>Node13&#45;&gt;Node10</title>
<path fill="none" stroke="midnightblue" d="M332.16,-225.447C393.815,-214.212 497.362,-188.072 567.5,-132 607.121,-100.325 644.173,-52.9993 662.505,-27.9557"/>
<polygon fill="midnightblue" stroke="midnightblue" points="665.572,-29.6863 668.58,-19.5275 659.893,-25.593 665.572,-29.6863"/>
</g>
<!-- Node13&#45;&gt;Node11 -->
<g id="edge22" class="edge"><title>Node13&#45;&gt;Node11</title>
<path fill="none" stroke="midnightblue" d="M321.199,-224.489C352.923,-217.06 397.629,-204.824 434.5,-188 464.935,-174.113 496.889,-152.104 516.506,-137.607"/>
<polygon fill="midnightblue" stroke="midnightblue" points="518.705,-140.333 524.601,-131.531 514.502,-134.735 518.705,-140.333"/>
</g>
<!-- Node13&#45;&gt;Node12 -->
<g id="edge23" class="edge"><title>Node13&#45;&gt;Node12</title>
<path fill="none" stroke="midnightblue" d="M270.064,-224.368C247.532,-205.733 194.089,-161.532 165.798,-138.134"/>
<polygon fill="midnightblue" stroke="midnightblue" points="167.824,-135.268 157.888,-131.591 163.363,-140.662 167.824,-135.268"/>
</g>
</g>
</svg>
        <g id="navigator" transform="translate(0 0)" fill="#404254">
                <rect fill="#f2f5e9" fill-opacity="0.5" stroke="#606060" stroke-width=".5" x="0" y="0" width="60" height="60"/>
                <use id="zoomplus" xlink:href="#zoomPlus" x="17" y="9" onmousedown="handleZoom(evt,'in')"/>
                <use id="zoomminus" xlink:href="#zoomMin" x="42" y="9" onmousedown="handleZoom(evt,'out')"/>
                <use id="reset" xlink:href="#resetDef" x="30" y="36" onmousedown="handleReset()"/>
                <g id="arrowUp" xlink:href="#dirArrow" transform="translate(30 24)" onmousedown="handlePan(0,-1)">
                  <use xlink:href="#rim" fill="#404040">
                        <set attributeName="fill" to="#808080" begin="arrowUp.mouseover" end="arrowUp.mouseout"/>
                  </use>
                  <path fill="none" stroke="white" stroke-width="1.5" d="M0,-3.0v7 M-2.5,-0.5L0,-3.0L2.5,-0.5"/>
                </g>
                <g id="arrowRight" xlink:href="#dirArrow" transform="rotate(90) translate(36 -43)" onmousedown="handlePan(1,0)">
                  <use xlink:href="#rim" fill="#404040">
                        <set attributeName="fill" to="#808080" begin="arrowRight.mouseover" end="arrowRight.mouseout"/>
                  </use>
                  <path fill="none" stroke="white" stroke-width="1.5" d="M0,-3.0v7 M-2.5,-0.5L0,-3.0L2.5,-0.5"/>
                </g>
                <g id="arrowDown" xlink:href="#dirArrow" transform="rotate(180) translate(-30 -48)" onmousedown="handlePan(0,1)">
                  <use xlink:href="#rim" fill="#404040">
                        <set attributeName="fill" to="#808080" begin="arrowDown.mouseover" end="arrowDown.mouseout"/>
                  </use>
                  <path fill="none" stroke="white" stroke-width="1.5" d="M0,-3.0v7 M-2.5,-0.5L0,-3.0L2.5,-0.5"/>
                </g>
                <g id="arrowLeft" xlink:href="#dirArrow" transform="rotate(270) translate(-36 17)" onmousedown="handlePan(-1,0)">
                  <use xlink:href="#rim" fill="#404040">
                        <set attributeName="fill" to="#808080" begin="arrowLeft.mouseover" end="arrowLeft.mouseout"/>
                  </use>
                  <path fill="none" stroke="white" stroke-width="1.5" d="M0,-3.0v7 M-2.5,-0.5L0,-3.0L2.5,-0.5"/>
                </g>
        </g>
        <svg viewBox="0 0 15 15" width="100%" height="30px" preserveAspectRatio="xMaxYMin meet">
         <g id="arrow_out" transform="scale(0.3 0.3)">
          <a xlink:href="Buzzer_8cpp__incl_org.svg" target="_base">
           <rect id="button" ry="5" rx="5" y="6" x="6" height="38" width="38"
                fill="#f2f5e9" fill-opacity="0.5" stroke="#606060" stroke-width="1.0"/>
           <path id="arrow"
             d="M 11.500037,31.436501 C 11.940474,20.09759 22.043105,11.32322 32.158766,21.979434 L 37.068811,17.246167 C 37.068811,17.246167 37.088388,32 37.088388,32 L 22.160133,31.978069 C 22.160133,31.978069 26.997745,27.140456 26.997745,27.140456 C 18.528582,18.264221 13.291696,25.230495 11.500037,31.436501 z"
             style="fill:#404040;"/>
          </a>
         </g>
        </svg>
</svg>
