<?xml version="1.0" encoding="UTF-8" standalone="no"?>
<!DOCTYPE svg PUBLIC "-//W3C//DTD SVG 1.1//EN"
 "http://www.w3.org/Graphics/SVG/1.1/DTD/svg11.dtd">
<!-- Generated by graphviz version 2.38.0 (20140413.2041)
 -->
<!-- Title: src/hardware/GPIO.cpp Pages: 1 -->
<svg width="1912pt" height="308pt"
 viewBox="0.00 0.00 1911.50 308.00" xmlns="http://www.w3.org/2000/svg" xmlns:xlink="http://www.w3.org/1999/xlink">
<g id="graph0" class="graph" transform="scale(1 1) rotate(0) translate(4 304)">
<title>src/hardware/GPIO.cpp</title>
<polygon fill="white" stroke="none" points="-4,4 -4,-304 1907.5,-304 1907.5,4 -4,4"/>
<!-- Node0 -->
<g id="node1" class="node"><title>Node0</title>
<polygon fill="#bfbfbf" stroke="black" points="761,-280.5 761,-299.5 880,-299.5 880,-280.5 761,-280.5"/>
<text text-anchor="middle" x="820.5" y="-287.5" font-family="Helvetica,sans-Serif" font-size="10.00">src/hardware/GPIO.cpp</text>
</g>
<!-- Node1 -->
<g id="node2" class="node"><title>Node1</title>
<g id="a_node2"><a xlink:href="../../d9/d02/GPIO_8hpp.html" target="_top" xlink:title="hardware/GPIO.hpp">
<polygon fill="white" stroke="black" points="320,-224.5 320,-243.5 423,-243.5 423,-224.5 320,-224.5"/>
<text text-anchor="middle" x="371.5" y="-231.5" font-family="Helvetica,sans-Serif" font-size="10.00">hardware/GPIO.hpp</text>
</a>
</g>
</g>
<!-- Node0&#45;&gt;Node1 -->
<g id="edge1" class="edge"><title>Node0&#45;&gt;Node1</title>
<path fill="none" stroke="midnightblue" d="M760.876,-281.829C675.603,-271.574 519.598,-252.811 433.195,-242.42"/>
<polygon fill="midnightblue" stroke="midnightblue" points="433.359,-238.915 423.013,-241.195 432.523,-245.864 433.359,-238.915"/>
</g>
<!-- Node13 -->
<g id="node14" class="node"><title>Node13</title>
<g id="a_node14"><a xlink:href="../../dc/d5b/ModelException_8hpp.html" target="_top" xlink:title="exception/ModelException.hpp">
<polygon fill="white" stroke="black" points="1182.5,-224.5 1182.5,-243.5 1332.5,-243.5 1332.5,-224.5 1182.5,-224.5"/>
<text text-anchor="middle" x="1257.5" y="-231.5" font-family="Helvetica,sans-Serif" font-size="10.00">exception/ModelException.hpp</text>
</a>
</g>
</g>
<!-- Node0&#45;&gt;Node13 -->
<g id="edge21" class="edge"><title>Node0&#45;&gt;Node13</title>
<path fill="none" stroke="midnightblue" d="M880.347,-281.605C957.809,-272.033 1092.99,-255.328 1178.73,-244.734"/>
<polygon fill="midnightblue" stroke="midnightblue" points="1179.18,-248.205 1188.67,-243.505 1178.32,-241.258 1179.18,-248.205"/>
</g>
<!-- Node2 -->
<g id="node3" class="node"><title>Node2</title>
<g id="a_node3"><a xlink:href="../../da/d14/Device_8hpp.html" target="_top" xlink:title="hardware/Device.hpp">
<polygon fill="white" stroke="black" points="234,-168.5 234,-187.5 343,-187.5 343,-168.5 234,-168.5"/>
<text text-anchor="middle" x="288.5" y="-175.5" font-family="Helvetica,sans-Serif" font-size="10.00">hardware/Device.hpp</text>
</a>
</g>
</g>
<!-- Node1&#45;&gt;Node2 -->
<g id="edge2" class="edge"><title>Node1&#45;&gt;Node2</title>
<path fill="none" stroke="midnightblue" d="M358.165,-224.324C345.338,-215.979 325.715,-203.212 310.56,-193.352"/>
<polygon fill="midnightblue" stroke="midnightblue" points="312.093,-190.174 301.802,-187.655 308.276,-196.042 312.093,-190.174"/>
</g>
<!-- Node3 -->
<g id="node4" class="node"><title>Node3</title>
<g id="a_node4"><a xlink:href="../../d9/dc8/HardwareFwd_8hpp.html" target="_top" xlink:title="hardware/HardwareFwd.hpp">
<polygon fill="white" stroke="black" points="103,-112.5 103,-131.5 242,-131.5 242,-112.5 103,-112.5"/>
<text text-anchor="middle" x="172.5" y="-119.5" font-family="Helvetica,sans-Serif" font-size="10.00">hardware/HardwareFwd.hpp</text>
</a>
</g>
</g>
<!-- Node1&#45;&gt;Node3 -->
<g id="edge16" class="edge"><title>Node1&#45;&gt;Node3</title>
<path fill="none" stroke="midnightblue" d="M319.891,-225.045C290.087,-218.618 252.983,-207.343 224.5,-188 206.259,-175.612 191.29,-154.901 182.172,-140.189"/>
<polygon fill="midnightblue" stroke="midnightblue" points="185.155,-138.358 177.05,-131.535 179.131,-141.923 185.155,-138.358"/>
</g>
<!-- Node9 -->
<g id="node10" class="node"><title>Node9</title>
<polygon fill="white" stroke="#bfbfbf" points="0,-0.5 0,-19.5 73,-19.5 73,-0.5 0,-0.5"/>
<text text-anchor="middle" x="36.5" y="-7.5" font-family="Helvetica,sans-Serif" font-size="10.00">odb/core.hxx</text>
</g>
<!-- Node1&#45;&gt;Node9 -->
<g id="edge19" class="edge"><title>Node1&#45;&gt;Node9</title>
<path fill="none" stroke="midnightblue" d="M319.8,-229.092C254.302,-221.419 141.971,-198.758 75.5,-132 47.6907,-104.07 39.7017,-56.2291 37.413,-29.8452"/>
<polygon fill="midnightblue" stroke="midnightblue" points="40.8922,-29.4171 36.7257,-19.6759 33.9081,-29.8892 40.8922,-29.4171"/>
</g>
<!-- Node10 -->
<g id="node11" class="node"><title>Node10</title>
<polygon fill="white" stroke="#bfbfbf" points="1124,-0.5 1124,-19.5 1165,-19.5 1165,-0.5 1124,-0.5"/>
<text text-anchor="middle" x="1144.5" y="-7.5" font-family="Helvetica,sans-Serif" font-size="10.00">string</text>
</g>
<!-- Node1&#45;&gt;Node10 -->
<g id="edge20" class="edge"><title>Node1&#45;&gt;Node10</title>
<path fill="none" stroke="midnightblue" d="M382.54,-224.455C404.81,-207.182 456.646,-166.791 499.5,-132 540.41,-98.7873 541.731,-75.9574 590.5,-56 686.471,-16.7264 1011.76,-11.6791 1113.69,-11.0705"/>
<polygon fill="midnightblue" stroke="midnightblue" points="1113.94,-14.5694 1123.92,-11.0202 1113.91,-7.56948 1113.94,-14.5694"/>
</g>
<!-- Node11 -->
<g id="node12" class="node"><title>Node11</title>
<polygon fill="white" stroke="#bfbfbf" points="336.5,-112.5 336.5,-131.5 382.5,-131.5 382.5,-112.5 336.5,-112.5"/>
<text text-anchor="middle" x="359.5" y="-119.5" font-family="Helvetica,sans-Serif" font-size="10.00">cstdint</text>
</g>
<!-- Node1&#45;&gt;Node11 -->
<g id="edge17" class="edge"><title>Node1&#45;&gt;Node11</title>
<path fill="none" stroke="midnightblue" d="M370.558,-224.368C368.622,-206.617 364.155,-165.666 361.529,-141.597"/>
<polygon fill="midnightblue" stroke="midnightblue" points="365.001,-141.153 360.437,-131.591 358.042,-141.912 365.001,-141.153"/>
</g>
<!-- Node12 -->
<g id="node13" class="node"><title>Node12</title>
<polygon fill="white" stroke="#bfbfbf" points="400.5,-112.5 400.5,-131.5 490.5,-131.5 490.5,-112.5 400.5,-112.5"/>
<text text-anchor="middle" x="445.5" y="-119.5" font-family="Helvetica,sans-Serif" font-size="10.00">odb/callback.hxx</text>
</g>
<!-- Node1&#45;&gt;Node12 -->
<g id="edge18" class="edge"><title>Node1&#45;&gt;Node12</title>
<path fill="none" stroke="midnightblue" d="M377.307,-224.368C389.519,-206.215 418.052,-163.802 434.07,-139.99"/>
<polygon fill="midnightblue" stroke="midnightblue" points="437.043,-141.842 439.72,-131.591 431.234,-137.935 437.043,-141.842"/>
</g>
<!-- Node2&#45;&gt;Node3 -->
<g id="edge3" class="edge"><title>Node2&#45;&gt;Node3</title>
<path fill="none" stroke="midnightblue" d="M270.119,-168.444C251.284,-159.675 221.769,-145.935 200.121,-135.858"/>
<polygon fill="midnightblue" stroke="midnightblue" points="201.338,-132.564 190.795,-131.516 198.383,-138.91 201.338,-132.564"/>
</g>
<!-- Node4 -->
<g id="node5" class="node"><title>Node4</title>
<g id="a_node5"><a xlink:href="../../dc/dea/Uuid_8hpp.html" target="_top" xlink:title="tools/Uuid.hpp">
<polygon fill="white" stroke="black" points="200.5,-56.5 200.5,-75.5 280.5,-75.5 280.5,-56.5 200.5,-56.5"/>
<text text-anchor="middle" x="240.5" y="-63.5" font-family="Helvetica,sans-Serif" font-size="10.00">tools/Uuid.hpp</text>
</a>
</g>
</g>
<!-- Node2&#45;&gt;Node4 -->
<g id="edge11" class="edge"><title>Node2&#45;&gt;Node4</title>
<path fill="none" stroke="midnightblue" d="M284.734,-168.368C276.917,-150.456 258.794,-108.923 248.332,-84.9482"/>
<polygon fill="midnightblue" stroke="midnightblue" points="251.456,-83.357 244.249,-75.5914 245.041,-86.1566 251.456,-83.357"/>
</g>
<!-- Node2&#45;&gt;Node9 -->
<g id="edge14" class="edge"><title>Node2&#45;&gt;Node9</title>
<path fill="none" stroke="midnightblue" d="M233.737,-176.882C191.254,-174.072 133.121,-163.953 93.5,-132 76.5967,-118.368 53.9677,-60.0694 43.0016,-29.6466"/>
<polygon fill="midnightblue" stroke="midnightblue" points="46.1628,-28.0887 39.5214,-19.8338 39.5654,-30.4285 46.1628,-28.0887"/>
</g>
<!-- Node2&#45;&gt;Node10 -->
<g id="edge15" class="edge"><title>Node2&#45;&gt;Node10</title>
<path fill="none" stroke="midnightblue" d="M291.344,-168.481C296.406,-154.609 308.289,-127.17 327.5,-112 392.255,-60.8661 423.449,-71.4457 504.5,-56 735.522,-11.9751 1020.82,-9.95991 1113.71,-10.6055"/>
<polygon fill="midnightblue" stroke="midnightblue" points="1113.8,-14.1063 1123.83,-10.6923 1113.86,-7.10655 1113.8,-14.1063"/>
</g>
<!-- Node2&#45;&gt;Node11 -->
<g id="edge12" class="edge"><title>Node2&#45;&gt;Node11</title>
<path fill="none" stroke="midnightblue" d="M299.907,-168.324C310.609,-160.185 326.841,-147.839 339.663,-138.087"/>
<polygon fill="midnightblue" stroke="midnightblue" points="342.044,-140.673 347.885,-131.834 337.807,-135.102 342.044,-140.673"/>
</g>
<!-- Node2&#45;&gt;Node12 -->
<g id="edge13" class="edge"><title>Node2&#45;&gt;Node12</title>
<path fill="none" stroke="midnightblue" d="M313.377,-168.444C339.789,-159.359 381.715,-144.939 411.242,-134.783"/>
<polygon fill="midnightblue" stroke="midnightblue" points="412.421,-138.079 420.739,-131.516 410.145,-131.459 412.421,-138.079"/>
</g>
<!-- Node3&#45;&gt;Node4 -->
<g id="edge4" class="edge"><title>Node3&#45;&gt;Node4</title>
<path fill="none" stroke="midnightblue" d="M183.425,-112.324C193.675,-104.185 209.221,-91.8395 221.501,-82.0874"/>
<polygon fill="midnightblue" stroke="midnightblue" points="223.721,-84.7937 229.376,-75.8339 219.368,-79.3119 223.721,-84.7937"/>
</g>
<!-- Node5 -->
<g id="node6" class="node"><title>Node5</title>
<polygon fill="white" stroke="#bfbfbf" points="342.5,-0.5 342.5,-19.5 456.5,-19.5 456.5,-0.5 342.5,-0.5"/>
<text text-anchor="middle" x="399.5" y="-7.5" font-family="Helvetica,sans-Serif" font-size="10.00">boost/lexical_cast.hpp</text>
</g>
<!-- Node4&#45;&gt;Node5 -->
<g id="edge5" class="edge"><title>Node4&#45;&gt;Node5</title>
<path fill="none" stroke="midnightblue" d="M265.694,-56.4435C292.443,-47.3591 334.903,-32.9388 364.805,-22.7831"/>
<polygon fill="midnightblue" stroke="midnightblue" points="366.081,-26.0464 374.424,-19.5164 363.829,-19.4182 366.081,-26.0464"/>
</g>
<!-- Node6 -->
<g id="node7" class="node"><title>Node6</title>
<polygon fill="white" stroke="#bfbfbf" points="475,-0.5 475,-19.5 636,-19.5 636,-0.5 475,-0.5"/>
<text text-anchor="middle" x="555.5" y="-7.5" font-family="Helvetica,sans-Serif" font-size="10.00">boost/uuid/random_generator.hpp</text>
</g>
<!-- Node4&#45;&gt;Node6 -->
<g id="edge6" class="edge"><title>Node4&#45;&gt;Node6</title>
<path fill="none" stroke="midnightblue" d="M280.715,-58.106C335.076,-48.787 432.442,-32.0957 495.478,-21.2895"/>
<polygon fill="midnightblue" stroke="midnightblue" points="496.408,-24.6812 505.673,-19.5418 495.225,-17.7818 496.408,-24.6812"/>
</g>
<!-- Node7 -->
<g id="node8" class="node"><title>Node7</title>
<polygon fill="white" stroke="#bfbfbf" points="91,-0.5 91,-19.5 192,-19.5 192,-0.5 91,-0.5"/>
<text text-anchor="middle" x="141.5" y="-7.5" font-family="Helvetica,sans-Serif" font-size="10.00">boost/uuid/uuid.hpp</text>
</g>
<!-- Node4&#45;&gt;Node7 -->
<g id="edge7" class="edge"><title>Node4&#45;&gt;Node7</title>
<path fill="none" stroke="midnightblue" d="M224.594,-56.324C208.862,-47.7428 184.558,-34.486 166.291,-24.5224"/>
<polygon fill="midnightblue" stroke="midnightblue" points="167.822,-21.3704 157.367,-19.6545 164.47,-27.5157 167.822,-21.3704"/>
</g>
<!-- Node8 -->
<g id="node9" class="node"><title>Node8</title>
<polygon fill="white" stroke="#bfbfbf" points="210.5,-0.5 210.5,-19.5 324.5,-19.5 324.5,-0.5 210.5,-0.5"/>
<text text-anchor="middle" x="267.5" y="-7.5" font-family="Helvetica,sans-Serif" font-size="10.00">boost/uuid/uuid_io.hpp</text>
</g>
<!-- Node4&#45;&gt;Node8 -->
<g id="edge8" class="edge"><title>Node4&#45;&gt;Node8</title>
<path fill="none" stroke="midnightblue" d="M244.959,-56.083C248.654,-48.6913 254.023,-37.9533 258.594,-28.8111"/>
<polygon fill="midnightblue" stroke="midnightblue" points="261.783,-30.2606 263.124,-19.7511 255.522,-27.1301 261.783,-30.2606"/>
</g>
<!-- Node4&#45;&gt;Node9 -->
<g id="edge9" class="edge"><title>Node4&#45;&gt;Node9</title>
<path fill="none" stroke="midnightblue" d="M208.176,-56.4435C173.111,-47.1616 117.002,-32.3093 78.5352,-22.127"/>
<polygon fill="midnightblue" stroke="midnightblue" points="79.2359,-18.692 68.6732,-19.5164 77.4446,-25.4589 79.2359,-18.692"/>
</g>
<!-- Node4&#45;&gt;Node10 -->
<g id="edge10" class="edge"><title>Node4&#45;&gt;Node10</title>
<path fill="none" stroke="midnightblue" d="M280.535,-57.8136C285.232,-57.123 289.965,-56.4964 294.5,-56 613.304,-21.1055 1002.45,-13.034 1113.56,-11.3851"/>
<polygon fill="midnightblue" stroke="midnightblue" points="1113.77,-14.8826 1123.72,-11.241 1113.67,-7.88326 1113.77,-14.8826"/>
</g>
<!-- Node14 -->
<g id="node15" class="node"><title>Node14</title>
<g id="a_node15"><a xlink:href="../../d1/ddd/leosacexception_8hpp.html" target="_top" xlink:title="Exception class for LEOSAC Project related errors. ">
<polygon fill="white" stroke="black" points="1182,-168.5 1182,-187.5 1333,-187.5 1333,-168.5 1182,-168.5"/>
<text text-anchor="middle" x="1257.5" y="-175.5" font-family="Helvetica,sans-Serif" font-size="10.00">exception/leosacexception.hpp</text>
</a>
</g>
</g>
<!-- Node13&#45;&gt;Node14 -->
<g id="edge22" class="edge"><title>Node13&#45;&gt;Node14</title>
<path fill="none" stroke="midnightblue" d="M1257.5,-224.083C1257.5,-217.006 1257.5,-206.861 1257.5,-197.986"/>
<polygon fill="midnightblue" stroke="midnightblue" points="1261,-197.751 1257.5,-187.751 1254,-197.751 1261,-197.751"/>
</g>
<!-- Node30 -->
<g id="node31" class="node"><title>Node30</title>
<polygon fill="white" stroke="#bfbfbf" points="1351,-168.5 1351,-187.5 1404,-187.5 1404,-168.5 1351,-168.5"/>
<text text-anchor="middle" x="1377.5" y="-175.5" font-family="Helvetica,sans-Serif" font-size="10.00">json.hpp</text>
</g>
<!-- Node13&#45;&gt;Node30 -->
<g id="edge59" class="edge"><title>Node13&#45;&gt;Node30</title>
<path fill="none" stroke="midnightblue" d="M1276.51,-224.444C1296.09,-215.636 1326.81,-201.812 1349.23,-191.722"/>
<polygon fill="midnightblue" stroke="midnightblue" points="1350.89,-194.812 1358.57,-187.516 1348.02,-188.428 1350.89,-194.812"/>
</g>
<!-- Node14&#45;&gt;Node10 -->
<g id="edge28" class="edge"><title>Node14&#45;&gt;Node10</title>
<path fill="none" stroke="midnightblue" d="M1181.92,-177.69C1012.95,-178.441 616.226,-175.501 575.5,-132 538.447,-92.4218 574.952,-83.7213 640.5,-56 726.588,-19.5923 1017.8,-12.6185 1113.64,-11.3016"/>
<polygon fill="midnightblue" stroke="midnightblue" points="1113.87,-14.799 1123.83,-11.1731 1113.78,-7.79957 1113.87,-14.799"/>
</g>
<!-- Node15 -->
<g id="node16" class="node"><title>Node15</title>
<g id="a_node16"><a xlink:href="../../d6/d2f/Stacktrace_8hpp.html" target="_top" xlink:title="tools/Stacktrace.hpp">
<polygon fill="white" stroke="black" points="585,-112.5 585,-131.5 692,-131.5 692,-112.5 585,-112.5"/>
<text text-anchor="middle" x="638.5" y="-119.5" font-family="Helvetica,sans-Serif" font-size="10.00">tools/Stacktrace.hpp</text>
</a>
</g>
</g>
<!-- Node14&#45;&gt;Node15 -->
<g id="edge23" class="edge"><title>Node14&#45;&gt;Node15</title>
<path fill="none" stroke="midnightblue" d="M1181.82,-172.347C1076.69,-165.554 880.273,-151.678 702.169,-132.005"/>
<polygon fill="midnightblue" stroke="midnightblue" points="702.414,-128.51 692.088,-130.883 701.639,-135.467 702.414,-128.51"/>
</g>
<!-- Node17 -->
<g id="node18" class="node"><title>Node17</title>
<polygon fill="white" stroke="#bfbfbf" points="949,-112.5 949,-131.5 998,-131.5 998,-112.5 949,-112.5"/>
<text text-anchor="middle" x="973.5" y="-119.5" font-family="Helvetica,sans-Serif" font-size="10.00">cstddef</text>
</g>
<!-- Node14&#45;&gt;Node17 -->
<g id="edge26" class="edge"><title>Node14&#45;&gt;Node17</title>
<path fill="none" stroke="midnightblue" d="M1202.63,-168.43C1153.99,-160.539 1080.85,-147.952 1008.12,-131.989"/>
<polygon fill="midnightblue" stroke="midnightblue" points="1008.85,-128.566 998.326,-129.819 1007.33,-135.4 1008.85,-128.566"/>
</g>
<!-- Node18 -->
<g id="node19" class="node"><title>Node18</title>
<polygon fill="white" stroke="#bfbfbf" points="1016,-112.5 1016,-131.5 1075,-131.5 1075,-112.5 1016,-112.5"/>
<text text-anchor="middle" x="1045.5" y="-119.5" font-family="Helvetica,sans-Serif" font-size="10.00">exception</text>
</g>
<!-- Node14&#45;&gt;Node18 -->
<g id="edge27" class="edge"><title>Node14&#45;&gt;Node18</title>
<path fill="none" stroke="midnightblue" d="M1223.91,-168.444C1186.21,-158.841 1125.1,-143.276 1085.11,-133.089"/>
<polygon fill="midnightblue" stroke="midnightblue" points="1085.73,-129.635 1075.17,-130.558 1084,-136.418 1085.73,-129.635"/>
</g>
<!-- Node19 -->
<g id="node20" class="node"><title>Node19</title>
<g id="a_node20"><a xlink:href="../../d7/d7a/configexception_8hpp.html" target="_top" xlink:title="configexception.hpp">
<polygon fill="white" stroke="black" points="1799.5,-112.5 1799.5,-131.5 1903.5,-131.5 1903.5,-112.5 1799.5,-112.5"/>
<text text-anchor="middle" x="1851.5" y="-119.5" font-family="Helvetica,sans-Serif" font-size="10.00">configexception.hpp</text>
</a>
</g>
</g>
<!-- Node14&#45;&gt;Node19 -->
<g id="edge29" class="edge"><title>Node14&#45;&gt;Node19</title>
<path fill="none" stroke="midnightblue" d="M1328.58,-168.464C1330.23,-168.306 1331.87,-168.151 1333.5,-168 1532.39,-149.482 1583.03,-154.59 1781.5,-132 1784.01,-131.714 1786.58,-131.404 1789.18,-131.077"/>
<polygon fill="midnightblue" stroke="midnightblue" points="1789.85,-134.519 1799.31,-129.746 1788.94,-127.579 1789.85,-134.519"/>
</g>
<!-- Node22 -->
<g id="node23" class="node"><title>Node22</title>
<g id="a_node23"><a xlink:href="../../d8/db0/coreexception_8hpp.html" target="_top" xlink:title="Exception class for Core related errors. ">
<polygon fill="white" stroke="black" points="710.5,-112.5 710.5,-131.5 806.5,-131.5 806.5,-112.5 710.5,-112.5"/>
<text text-anchor="middle" x="758.5" y="-119.5" font-family="Helvetica,sans-Serif" font-size="10.00">coreexception.hpp</text>
</a>
</g>
</g>
<!-- Node14&#45;&gt;Node22 -->
<g id="edge35" class="edge"><title>Node14&#45;&gt;Node22</title>
<path fill="none" stroke="midnightblue" d="M1181.8,-171.125C1094.11,-163.661 945.358,-149.747 812.807,-132.799"/>
<polygon fill="midnightblue" stroke="midnightblue" points="813.253,-129.328 802.888,-131.521 812.359,-136.27 813.253,-129.328"/>
</g>
<!-- Node23 -->
<g id="node24" class="node"><title>Node23</title>
<g id="a_node24"><a xlink:href="../../d8/d77/deviceexception_8hpp.html" target="_top" xlink:title="Exception class for Device related errors. ">
<polygon fill="white" stroke="black" points="824.5,-112.5 824.5,-131.5 930.5,-131.5 930.5,-112.5 824.5,-112.5"/>
<text text-anchor="middle" x="877.5" y="-119.5" font-family="Helvetica,sans-Serif" font-size="10.00">deviceexception.hpp</text>
</a>
</g>
</g>
<!-- Node14&#45;&gt;Node23 -->
<g id="edge38" class="edge"><title>Node14&#45;&gt;Node23</title>
<path fill="none" stroke="midnightblue" d="M1190.62,-168.473C1126.94,-159.761 1028.37,-145.79 938.282,-132.965"/>
<polygon fill="midnightblue" stroke="midnightblue" points="938.583,-129.473 928.19,-131.528 937.596,-136.403 938.583,-129.473"/>
</g>
<!-- Node24 -->
<g id="node25" class="node"><title>Node24</title>
<g id="a_node25"><a xlink:href="../../db/d35/dynlibexception_8hpp.html" target="_top" xlink:title="Exception class for DynLib related errors. ">
<polygon fill="white" stroke="black" points="1093,-112.5 1093,-131.5 1196,-131.5 1196,-112.5 1093,-112.5"/>
<text text-anchor="middle" x="1144.5" y="-119.5" font-family="Helvetica,sans-Serif" font-size="10.00">dynlibexception.hpp</text>
</a>
</g>
</g>
<!-- Node14&#45;&gt;Node24 -->
<g id="edge41" class="edge"><title>Node14&#45;&gt;Node24</title>
<path fill="none" stroke="midnightblue" d="M1234.51,-168.444C1214.51,-159.794 1186.01,-146.306 1166.36,-136.268"/>
<polygon fill="midnightblue" stroke="midnightblue" points="1167.73,-133.034 1157.24,-131.516 1164.49,-139.242 1167.73,-133.034"/>
</g>
<!-- Node25 -->
<g id="node26" class="node"><title>Node25</title>
<g id="a_node26"><a xlink:href="../../d0/d4e/fsexception_8hpp.html" target="_top" xlink:title="Exception class for filesystem related errors. ">
<polygon fill="white" stroke="black" points="1214.5,-112.5 1214.5,-131.5 1300.5,-131.5 1300.5,-112.5 1214.5,-112.5"/>
<text text-anchor="middle" x="1257.5" y="-119.5" font-family="Helvetica,sans-Serif" font-size="10.00">fsexception.hpp</text>
</a>
</g>
</g>
<!-- Node14&#45;&gt;Node25 -->
<g id="edge44" class="edge"><title>Node14&#45;&gt;Node25</title>
<path fill="none" stroke="midnightblue" d="M1252.33,-168.083C1250.82,-160.927 1250.39,-150.635 1251.04,-141.691"/>
<polygon fill="midnightblue" stroke="midnightblue" points="1254.52,-142.126 1252.37,-131.751 1247.58,-141.2 1254.52,-142.126"/>
</g>
<!-- Node26 -->
<g id="node27" class="node"><title>Node26</title>
<g id="a_node27"><a xlink:href="../../d1/d8e/gpioexception_8hpp.html" target="_top" xlink:title="Exception class for Gpio related errors. ">
<polygon fill="white" stroke="black" points="1319,-112.5 1319,-131.5 1414,-131.5 1414,-112.5 1319,-112.5"/>
<text text-anchor="middle" x="1366.5" y="-119.5" font-family="Helvetica,sans-Serif" font-size="10.00">gpioexception.hpp</text>
</a>
</g>
</g>
<!-- Node14&#45;&gt;Node26 -->
<g id="edge47" class="edge"><title>Node14&#45;&gt;Node26</title>
<path fill="none" stroke="midnightblue" d="M1269.9,-168.324C1285.72,-159.546 1313.07,-145.875 1334.73,-135.842"/>
<polygon fill="midnightblue" stroke="midnightblue" points="1336.27,-138.986 1343.92,-131.655 1333.37,-132.617 1336.27,-138.986"/>
</g>
<!-- Node27 -->
<g id="node28" class="node"><title>Node27</title>
<g id="a_node28"><a xlink:href="../../d7/d8c/moduleexception_8hpp.html" target="_top" xlink:title="Exception class for modules. ">
<polygon fill="white" stroke="black" points="1432,-112.5 1432,-131.5 1541,-131.5 1541,-112.5 1432,-112.5"/>
<text text-anchor="middle" x="1486.5" y="-119.5" font-family="Helvetica,sans-Serif" font-size="10.00">moduleexception.hpp</text>
</a>
</g>
</g>
<!-- Node14&#45;&gt;Node27 -->
<g id="edge50" class="edge"><title>Node14&#45;&gt;Node27</title>
<path fill="none" stroke="midnightblue" d="M1288.7,-168.444C1326.5,-159.043 1390.45,-143.929 1435.44,-133.739"/>
<polygon fill="midnightblue" stroke="midnightblue" points="1436.32,-137.13 1445.3,-131.516 1434.78,-130.301 1436.32,-137.13"/>
</g>
<!-- Node28 -->
<g id="node29" class="node"><title>Node28</title>
<g id="a_node29"><a xlink:href="../../df/d8d/scriptexception_8hpp.html" target="_top" xlink:title="Exception class for Script related errors. ">
<polygon fill="white" stroke="black" points="1559,-112.5 1559,-131.5 1660,-131.5 1660,-112.5 1559,-112.5"/>
<text text-anchor="middle" x="1609.5" y="-119.5" font-family="Helvetica,sans-Serif" font-size="10.00">scriptexception.hpp</text>
</a>
</g>
</g>
<!-- Node14&#45;&gt;Node28 -->
<g id="edge53" class="edge"><title>Node14&#45;&gt;Node28</title>
<path fill="none" stroke="midnightblue" d="M1308.19,-168.444C1371.8,-158.345 1480.61,-141.653 1548.65,-131.555"/>
<polygon fill="midnightblue" stroke="midnightblue" points="1549.41,-134.98 1558.79,-130.054 1548.39,-128.055 1549.41,-134.98"/>
</g>
<!-- Node29 -->
<g id="node30" class="node"><title>Node29</title>
<g id="a_node30"><a xlink:href="../../dc/dce/signalexception_8hpp.html" target="_top" xlink:title="Exception class for Signal related errors. ">
<polygon fill="white" stroke="black" points="1678,-112.5 1678,-131.5 1781,-131.5 1781,-112.5 1678,-112.5"/>
<text text-anchor="middle" x="1729.5" y="-119.5" font-family="Helvetica,sans-Serif" font-size="10.00">signalexception.hpp</text>
</a>
</g>
</g>
<!-- Node14&#45;&gt;Node29 -->
<g id="edge56" class="edge"><title>Node14&#45;&gt;Node29</title>
<path fill="none" stroke="midnightblue" d="M1331.41,-168.458C1438.81,-156.603 1628.48,-136.149 1660.5,-132 1662.84,-131.697 1665.22,-131.379 1667.64,-131.05"/>
<polygon fill="midnightblue" stroke="midnightblue" points="1668.25,-134.498 1677.67,-129.649 1667.29,-127.565 1668.25,-134.498"/>
</g>
<!-- Node15&#45;&gt;Node10 -->
<g id="edge24" class="edge"><title>Node15&#45;&gt;Node10</title>
<path fill="none" stroke="midnightblue" d="M638.2,-112.198C638.241,-97.9187 640.624,-69.9075 657.5,-56 692.706,-26.9858 1012.04,-14.9718 1113.62,-11.8631"/>
<polygon fill="midnightblue" stroke="midnightblue" points="1113.94,-15.3551 1123.83,-11.5583 1113.73,-8.35824 1113.94,-15.3551"/>
</g>
<!-- Node16 -->
<g id="node17" class="node"><title>Node16</title>
<polygon fill="white" stroke="#bfbfbf" points="666.5,-56.5 666.5,-75.5 710.5,-75.5 710.5,-56.5 666.5,-56.5"/>
<text text-anchor="middle" x="688.5" y="-63.5" font-family="Helvetica,sans-Serif" font-size="10.00">vector</text>
</g>
<!-- Node15&#45;&gt;Node16 -->
<g id="edge25" class="edge"><title>Node15&#45;&gt;Node16</title>
<path fill="none" stroke="midnightblue" d="M646.756,-112.083C653.965,-104.298 664.61,-92.8015 673.346,-83.3665"/>
<polygon fill="midnightblue" stroke="midnightblue" points="676.171,-85.4666 680.397,-75.7511 671.035,-80.7108 676.171,-85.4666"/>
</g>
<!-- Node19&#45;&gt;Node10 -->
<g id="edge34" class="edge"><title>Node19&#45;&gt;Node10</title>
<path fill="none" stroke="midnightblue" d="M1801.54,-112.487C1726.48,-99.7681 1580.13,-75.2427 1455.5,-56 1352.93,-40.1628 1231.06,-23.0132 1175.22,-15.2475"/>
<polygon fill="midnightblue" stroke="midnightblue" points="1175.65,-11.7744 1165.27,-13.8658 1174.69,-18.7079 1175.65,-11.7744"/>
</g>
<!-- Node19&#45;&gt;Node14 -->
<g id="edge30" class="edge"><title>Node19&#45;&gt;Node14</title>
<path fill="none" stroke="midnightblue" d="M1803.69,-131.507C1802.28,-131.678 1800.88,-131.843 1799.5,-132 1601.03,-154.59 1550.39,-149.482 1351.5,-168 1348.82,-168.249 1346.1,-168.508 1343.34,-168.775"/>
<polygon fill="midnightblue" stroke="midnightblue" points="1342.88,-165.304 1333.27,-169.766 1343.56,-172.27 1342.88,-165.304"/>
</g>
<!-- Node20 -->
<g id="node21" class="node"><title>Node20</title>
<g id="a_node21"><a xlink:href="../../dd/d35/Colorize_8hpp.html" target="_top" xlink:title="tools/Colorize.hpp">
<polygon fill="white" stroke="black" points="1782,-56.5 1782,-75.5 1877,-75.5 1877,-56.5 1782,-56.5"/>
<text text-anchor="middle" x="1829.5" y="-63.5" font-family="Helvetica,sans-Serif" font-size="10.00">tools/Colorize.hpp</text>
</a>
</g>
</g>
<!-- Node19&#45;&gt;Node20 -->
<g id="edge31" class="edge"><title>Node19&#45;&gt;Node20</title>
<path fill="none" stroke="midnightblue" d="M1847.87,-112.083C1844.89,-104.77 1840.57,-94.1814 1836.88,-85.1034"/>
<polygon fill="midnightblue" stroke="midnightblue" points="1840.08,-83.6914 1833.07,-75.7511 1833.6,-86.3326 1840.08,-83.6914"/>
</g>
<!-- Node20&#45;&gt;Node10 -->
<g id="edge33" class="edge"><title>Node20&#45;&gt;Node10</title>
<path fill="none" stroke="midnightblue" d="M1781.99,-59.642C1770.09,-58.3728 1757.33,-57.0765 1745.5,-56 1527.19,-36.1365 1263.67,-18.6454 1175.16,-12.9478"/>
<polygon fill="midnightblue" stroke="midnightblue" points="1175.22,-9.44445 1165.02,-12.2971 1174.77,-16.4301 1175.22,-9.44445"/>
</g>
<!-- Node21 -->
<g id="node22" class="node"><title>Node21</title>
<polygon fill="white" stroke="#bfbfbf" points="1803.5,-0.5 1803.5,-19.5 1855.5,-19.5 1855.5,-0.5 1803.5,-0.5"/>
<text text-anchor="middle" x="1829.5" y="-7.5" font-family="Helvetica,sans-Serif" font-size="10.00">sstream</text>
</g>
<!-- Node20&#45;&gt;Node21 -->
<g id="edge32" class="edge"><title>Node20&#45;&gt;Node21</title>
<path fill="none" stroke="midnightblue" d="M1829.5,-56.083C1829.5,-49.0059 1829.5,-38.8611 1829.5,-29.9865"/>
<polygon fill="midnightblue" stroke="midnightblue" points="1833,-29.751 1829.5,-19.7511 1826,-29.7511 1833,-29.751"/>
</g>
<!-- Node22&#45;&gt;Node10 -->
<g id="edge36" class="edge"><title>Node22&#45;&gt;Node10</title>
<path fill="none" stroke="midnightblue" d="M787.466,-112.48C830.127,-99.9569 912.385,-75.9105 982.5,-56 1028.23,-43.0129 1081.35,-28.3361 1113.94,-19.3766"/>
<polygon fill="midnightblue" stroke="midnightblue" points="1115.05,-22.7016 1123.76,-16.6779 1113.19,-15.9516 1115.05,-22.7016"/>
</g>
<!-- Node22&#45;&gt;Node14 -->
<g id="edge37" class="edge"><title>Node22&#45;&gt;Node14</title>
<path fill="none" stroke="midnightblue" d="M806.602,-129.482C812.66,-130.381 818.738,-131.252 824.5,-132 944.801,-147.609 1084.11,-161.024 1171.58,-169.048"/>
<polygon fill="midnightblue" stroke="midnightblue" points="1171.44,-172.551 1181.72,-169.976 1172.08,-165.58 1171.44,-172.551"/>
</g>
<!-- Node23&#45;&gt;Node10 -->
<g id="edge39" class="edge"><title>Node23&#45;&gt;Node10</title>
<path fill="none" stroke="midnightblue" d="M898.451,-112.368C945.438,-93.0105 1059.39,-46.0645 1114.14,-23.5074"/>
<polygon fill="midnightblue" stroke="midnightblue" points="1115.73,-26.6368 1123.65,-19.5914 1113.07,-20.1646 1115.73,-26.6368"/>
</g>
<!-- Node23&#45;&gt;Node14 -->
<g id="edge40" class="edge"><title>Node23&#45;&gt;Node14</title>
<path fill="none" stroke="midnightblue" d="M930.81,-129.348C937.145,-130.239 943.484,-131.143 949.5,-132 1034.21,-144.063 1131.66,-157.889 1193.95,-166.997"/>
<polygon fill="midnightblue" stroke="midnightblue" points="1193.61,-170.485 1204.01,-168.473 1194.63,-163.559 1193.61,-170.485"/>
</g>
<!-- Node24&#45;&gt;Node10 -->
<g id="edge42" class="edge"><title>Node24&#45;&gt;Node10</title>
<path fill="none" stroke="midnightblue" d="M1144.5,-112.368C1144.5,-94.617 1144.5,-53.6664 1144.5,-29.5974"/>
<polygon fill="midnightblue" stroke="midnightblue" points="1148,-29.5914 1144.5,-19.5914 1141,-29.5915 1148,-29.5914"/>
</g>
<!-- Node24&#45;&gt;Node14 -->
<g id="edge43" class="edge"><title>Node24&#45;&gt;Node14</title>
<path fill="none" stroke="midnightblue" d="M1167.72,-131.655C1187.61,-140.267 1215.79,-153.605 1235.36,-163.59"/>
<polygon fill="midnightblue" stroke="midnightblue" points="1233.97,-166.813 1244.46,-168.324 1237.2,-160.603 1233.97,-166.813"/>
</g>
<!-- Node25&#45;&gt;Node10 -->
<g id="edge45" class="edge"><title>Node25&#45;&gt;Node10</title>
<path fill="none" stroke="midnightblue" d="M1248.63,-112.368C1229.65,-93.8941 1184.86,-50.2926 1160.67,-26.7436"/>
<polygon fill="midnightblue" stroke="midnightblue" points="1162.93,-24.0588 1153.33,-19.5914 1158.05,-29.0747 1162.93,-24.0588"/>
</g>
<!-- Node25&#45;&gt;Node14 -->
<g id="edge46" class="edge"><title>Node25&#45;&gt;Node14</title>
<path fill="none" stroke="midnightblue" d="M1262.63,-131.751C1264.16,-138.858 1264.6,-149.136 1263.97,-158.101"/>
<polygon fill="midnightblue" stroke="midnightblue" points="1260.49,-157.713 1262.67,-168.083 1267.43,-158.622 1260.49,-157.713"/>
</g>
<!-- Node26&#45;&gt;Node10 -->
<g id="edge49" class="edge"><title>Node26&#45;&gt;Node10</title>
<path fill="none" stroke="midnightblue" d="M1349.08,-112.368C1310.34,-93.1711 1216.84,-46.8418 1170.89,-24.074"/>
<polygon fill="midnightblue" stroke="midnightblue" points="1172.35,-20.8952 1161.84,-19.5914 1169.25,-27.1674 1172.35,-20.8952"/>
</g>
<!-- Node26&#45;&gt;Node14 -->
<g id="edge48" class="edge"><title>Node26&#45;&gt;Node14</title>
<path fill="none" stroke="midnightblue" d="M1354.39,-131.516C1338.58,-140.309 1310.93,-154.131 1289.11,-164.232"/>
<polygon fill="midnightblue" stroke="midnightblue" points="1287.51,-161.114 1279.86,-168.444 1290.41,-167.484 1287.51,-161.114"/>
</g>
<!-- Node27&#45;&gt;Node10 -->
<g id="edge51" class="edge"><title>Node27&#45;&gt;Node10</title>
<path fill="none" stroke="midnightblue" d="M1459.95,-112.46C1397.38,-92.3357 1240.99,-42.0355 1174.83,-20.7541"/>
<polygon fill="midnightblue" stroke="midnightblue" points="1175.6,-17.3269 1165.01,-17.5968 1173.46,-23.9907 1175.6,-17.3269"/>
</g>
<!-- Node27&#45;&gt;Node14 -->
<g id="edge52" class="edge"><title>Node27&#45;&gt;Node14</title>
<path fill="none" stroke="midnightblue" d="M1455.46,-131.516C1417.74,-140.901 1353.79,-156.013 1308.75,-166.217"/>
<polygon fill="midnightblue" stroke="midnightblue" points="1307.86,-162.83 1298.87,-168.444 1309.4,-169.659 1307.86,-162.83"/>
</g>
<!-- Node28&#45;&gt;Node10 -->
<g id="edge54" class="edge"><title>Node28&#45;&gt;Node10</title>
<path fill="none" stroke="midnightblue" d="M1573.4,-112.46C1484.69,-91.4751 1257.28,-37.6785 1174.89,-18.1879"/>
<polygon fill="midnightblue" stroke="midnightblue" points="1175.67,-14.7767 1165.13,-15.8806 1174.06,-21.5887 1175.67,-14.7767"/>
</g>
<!-- Node28&#45;&gt;Node14 -->
<g id="edge55" class="edge"><title>Node28&#45;&gt;Node14</title>
<path fill="none" stroke="midnightblue" d="M1559.07,-131.516C1498.6,-141.117 1397.03,-156.715 1328.63,-166.917"/>
<polygon fill="midnightblue" stroke="midnightblue" points="1327.74,-163.51 1318.36,-168.444 1328.77,-170.434 1327.74,-163.51"/>
</g>
<!-- Node29&#45;&gt;Node10 -->
<g id="edge57" class="edge"><title>Node29&#45;&gt;Node10</title>
<path fill="none" stroke="midnightblue" d="M1685.64,-112.467C1621.05,-99.9277 1496.52,-75.8613 1390.5,-56 1313.1,-41.5007 1221.89,-24.9587 1175.3,-16.5463"/>
<polygon fill="midnightblue" stroke="midnightblue" points="1175.71,-13.0644 1165.25,-14.7333 1174.46,-19.9532 1175.71,-13.0644"/>
</g>
<!-- Node29&#45;&gt;Node14 -->
<g id="edge58" class="edge"><title>Node29&#45;&gt;Node14</title>
<path fill="none" stroke="midnightblue" d="M1681.98,-131.543C1680.81,-131.698 1679.65,-131.851 1678.5,-132 1646.51,-136.145 1457.15,-156.566 1343.51,-168.426"/>
<polygon fill="midnightblue" stroke="midnightblue" points="1343.02,-164.958 1333.44,-169.475 1343.75,-171.92 1343.02,-164.958"/>
</g>
</g>
</svg>
