<?xml version="1.0" encoding="UTF-8" standalone="no"?>
<!DOCTYPE svg PUBLIC "-//W3C//DTD SVG 1.1//EN"
 "http://www.w3.org/Graphics/SVG/1.1/DTD/svg11.dtd">
<!-- Generated by graphviz version 2.38.0 (20140413.2041)
 -->
<!-- Title: src/modules/tcp&#45;notifier/TcpNotifier.hpp Pages: 1 -->
<svg width="264pt" height="106pt"
 viewBox="0.00 0.00 264.00 106.00" xmlns="http://www.w3.org/2000/svg" xmlns:xlink="http://www.w3.org/1999/xlink">
<g id="graph0" class="graph" transform="scale(1 1) rotate(0) translate(4 102)">
<title>src/modules/tcp&#45;notifier/TcpNotifier.hpp</title>
<polygon fill="white" stroke="none" points="-4,4 -4,-102 260,-102 260,4 -4,4"/>
<!-- Node44 -->
<g id="node1" class="node"><title>Node44</title>
<polygon fill="#bfbfbf" stroke="black" points="68,-67.5 68,-97.5 187,-97.5 187,-67.5 68,-67.5"/>
<text text-anchor="start" x="76" y="-85.5" font-family="Helvetica,sans-Serif" font-size="10.00">src/modules/tcp&#45;notifier</text>
<text text-anchor="middle" x="127.5" y="-74.5" font-family="Helvetica,sans-Serif" font-size="10.00">/TcpNotifier.hpp</text>
</g>
<!-- Node45 -->
<g id="node2" class="node"><title>Node45</title>
<g id="a_node2"><a xlink:href="../../dc/d63/tcp-notifier_2init_8cpp.html" target="_top" xlink:title="src/modules/tcp&#45;notifier\l/init.cpp">
<polygon fill="white" stroke="black" points="0,-0.5 0,-30.5 119,-30.5 119,-0.5 0,-0.5"/>
<text text-anchor="start" x="8" y="-18.5" font-family="Helvetica,sans-Serif" font-size="10.00">src/modules/tcp&#45;notifier</text>
<text text-anchor="middle" x="59.5" y="-7.5" font-family="Helvetica,sans-Serif" font-size="10.00">/init.cpp</text>
</a>
</g>
</g>
<!-- Node44&#45;&gt;Node45 -->
<g id="edge1" class="edge"><title>Node44&#45;&gt;Node45</title>
<path fill="none" stroke="midnightblue" d="M105.334,-60.3115C95.1333,-50.5612 83.3095,-39.259 74.2262,-30.5765"/>
<polygon fill="midnightblue" stroke="midnightblue" points="103.098,-63.0162 112.745,-67.396 107.935,-57.9561 103.098,-63.0162"/>
</g>
<!-- Node46 -->
<g id="node3" class="node"><title>Node46</title>
<g id="a_node3"><a xlink:href="../../d0/df4/TcpNotifier_8cpp.html" target="_top" xlink:title="src/modules/tcp&#45;notifier\l/TcpNotifier.cpp">
<polygon fill="white" stroke="black" points="137,-0.5 137,-30.5 256,-30.5 256,-0.5 137,-0.5"/>
<text text-anchor="start" x="145" y="-18.5" font-family="Helvetica,sans-Serif" font-size="10.00">src/modules/tcp&#45;notifier</text>
<text text-anchor="middle" x="196.5" y="-7.5" font-family="Helvetica,sans-Serif" font-size="10.00">/TcpNotifier.cpp</text>
</a>
</g>
</g>
<!-- Node44&#45;&gt;Node46 -->
<g id="edge2" class="edge"><title>Node44&#45;&gt;Node46</title>
<path fill="none" stroke="midnightblue" d="M149.992,-60.3115C160.343,-50.5612 172.34,-39.259 181.557,-30.5765"/>
<polygon fill="midnightblue" stroke="midnightblue" points="147.351,-57.9914 142.472,-67.396 152.151,-63.0866 147.351,-57.9914"/>
</g>
</g>
</svg>
