<?xml version="1.0" encoding="UTF-8" standalone="no"?>
<!DOCTYPE svg PUBLIC "-//W3C//DTD SVG 1.1//EN"
 "http://www.w3.org/Graphics/SVG/1.1/DTD/svg11.dtd">
<!-- Generated by graphviz version 2.38.0 (20140413.2041)
 -->
<!-- Title: src/modules/wiegand/strategies/WiegandPinBuffered.hpp Pages: 1 -->
<svg width="616pt" height="262pt"
 viewBox="0.00 0.00 616.00 262.00" xmlns="http://www.w3.org/2000/svg" xmlns:xlink="http://www.w3.org/1999/xlink">
<g id="graph0" class="graph" transform="scale(1 1) rotate(0) translate(4 258)">
<title>src/modules/wiegand/strategies/WiegandPinBuffered.hpp</title>
<polygon fill="white" stroke="none" points="-4,4 -4,-258 612,-258 612,4 -4,4"/>
<!-- Node14 -->
<g id="node1" class="node"><title>Node14</title>
<polygon fill="#bfbfbf" stroke="black" points="350,-223.5 350,-253.5 523,-253.5 523,-223.5 350,-223.5"/>
<text text-anchor="start" x="358" y="-241.5" font-family="Helvetica,sans-Serif" font-size="10.00">src/modules/wiegand</text>
<text text-anchor="middle" x="436.5" y="-230.5" font-family="Helvetica,sans-Serif" font-size="10.00">/strategies/WiegandPinBuffered.hpp</text>
</g>
<!-- Node15 -->
<g id="node2" class="node"><title>Node15</title>
<g id="a_node2"><a xlink:href="../../dc/d0d/Strategies_8hpp.html" target="_top" xlink:title="src/modules/wiegand\l/strategies/Strategies.hpp">
<polygon fill="white" stroke="black" points="288.5,-156.5 288.5,-186.5 416.5,-186.5 416.5,-156.5 288.5,-156.5"/>
<text text-anchor="start" x="296.5" y="-174.5" font-family="Helvetica,sans-Serif" font-size="10.00">src/modules/wiegand</text>
<text text-anchor="middle" x="352.5" y="-163.5" font-family="Helvetica,sans-Serif" font-size="10.00">/strategies/Strategies.hpp</text>
</a>
</g>
</g>
<!-- Node14&#45;&gt;Node15 -->
<g id="edge1" class="edge"><title>Node14&#45;&gt;Node15</title>
<path fill="none" stroke="midnightblue" d="M410.224,-217.168C397.38,-207.228 382.242,-195.514 370.691,-186.577"/>
<polygon fill="midnightblue" stroke="midnightblue" points="408.223,-220.044 418.273,-223.396 412.506,-214.508 408.223,-220.044"/>
</g>
<!-- Node21 -->
<g id="node8" class="node"><title>Node21</title>
<g id="a_node8"><a xlink:href="../../d7/da6/WiegandPinBuffered_8cpp.html" target="_top" xlink:title="src/modules/wiegand\l/strategies/WiegandPinBuffered.cpp">
<polygon fill="white" stroke="black" points="435,-156.5 435,-186.5 608,-186.5 608,-156.5 435,-156.5"/>
<text text-anchor="start" x="443" y="-174.5" font-family="Helvetica,sans-Serif" font-size="10.00">src/modules/wiegand</text>
<text text-anchor="middle" x="521.5" y="-163.5" font-family="Helvetica,sans-Serif" font-size="10.00">/strategies/WiegandPinBuffered.cpp</text>
</a>
</g>
</g>
<!-- Node14&#45;&gt;Node21 -->
<g id="edge8" class="edge"><title>Node14&#45;&gt;Node21</title>
<path fill="none" stroke="midnightblue" d="M463.088,-217.168C476.086,-207.228 491.404,-195.514 503.092,-186.577"/>
<polygon fill="midnightblue" stroke="midnightblue" points="460.761,-214.541 454.944,-223.396 465.013,-220.102 460.761,-214.541"/>
</g>
<!-- Node16 -->
<g id="node3" class="node"><title>Node16</title>
<g id="a_node3"><a xlink:href="../../db/de0/Autodetect_8hpp.html" target="_top" xlink:title="src/modules/wiegand\l/strategies/Autodetect.hpp">
<polygon fill="white" stroke="black" points="132,-84 132,-114 263,-114 263,-84 132,-84"/>
<text text-anchor="start" x="140" y="-102" font-family="Helvetica,sans-Serif" font-size="10.00">src/modules/wiegand</text>
<text text-anchor="middle" x="197.5" y="-91" font-family="Helvetica,sans-Serif" font-size="10.00">/strategies/Autodetect.hpp</text>
</a>
</g>
</g>
<!-- Node15&#45;&gt;Node16 -->
<g id="edge2" class="edge"><title>Node15&#45;&gt;Node16</title>
<path fill="none" stroke="midnightblue" d="M312.237,-152.187C286.081,-140.29 252.503,-125.018 228.44,-114.073"/>
<polygon fill="midnightblue" stroke="midnightblue" points="310.954,-155.448 321.506,-156.403 313.852,-149.076 310.954,-155.448"/>
</g>
<!-- Node19 -->
<g id="node6" class="node"><title>Node19</title>
<g id="a_node6"><a xlink:href="../../db/da6/WiegandCardAndPin_8hpp.html" target="_top" xlink:title="src/modules/wiegand\l/strategies/WiegandCardAnd\lPin.hpp">
<polygon fill="white" stroke="black" points="281.5,-78.5 281.5,-119.5 423.5,-119.5 423.5,-78.5 281.5,-78.5"/>
<text text-anchor="start" x="289.5" y="-107.5" font-family="Helvetica,sans-Serif" font-size="10.00">src/modules/wiegand</text>
<text text-anchor="start" x="289.5" y="-96.5" font-family="Helvetica,sans-Serif" font-size="10.00">/strategies/WiegandCardAnd</text>
<text text-anchor="middle" x="352.5" y="-85.5" font-family="Helvetica,sans-Serif" font-size="10.00">Pin.hpp</text>
</a>
</g>
</g>
<!-- Node15&#45;&gt;Node19 -->
<g id="edge5" class="edge"><title>Node15&#45;&gt;Node19</title>
<path fill="none" stroke="midnightblue" d="M346.052,-146.269C345.56,-137.56 345.669,-127.853 346.381,-119.588"/>
<polygon fill="midnightblue" stroke="midnightblue" points="342.567,-146.588 346.951,-156.233 349.538,-145.959 342.567,-146.588"/>
</g>
<!-- Node17 -->
<g id="node4" class="node"><title>Node17</title>
<g id="a_node4"><a xlink:href="../../d3/d15/Autodetect_8cpp.html" target="_top" xlink:title="src/modules/wiegand\l/strategies/Autodetect.cpp">
<polygon fill="white" stroke="black" points="0,-6 0,-36 131,-36 131,-6 0,-6"/>
<text text-anchor="start" x="8" y="-24" font-family="Helvetica,sans-Serif" font-size="10.00">src/modules/wiegand</text>
<text text-anchor="middle" x="65.5" y="-13" font-family="Helvetica,sans-Serif" font-size="10.00">/strategies/Autodetect.cpp</text>
</a>
</g>
</g>
<!-- Node16&#45;&gt;Node17 -->
<g id="edge3" class="edge"><title>Node16&#45;&gt;Node17</title>
<path fill="none" stroke="midnightblue" d="M164.19,-78.8214C141.066,-65.5075 110.779,-48.0698 89.8875,-36.0413"/>
<polygon fill="midnightblue" stroke="midnightblue" points="162.569,-81.9266 172.981,-83.8831 166.061,-75.8602 162.569,-81.9266"/>
</g>
<!-- Node18 -->
<g id="node5" class="node"><title>Node18</title>
<g id="a_node5"><a xlink:href="../../d3/de8/wiegand_8cpp.html" target="_top" xlink:title="src/modules/wiegand\l/wiegand.cpp">
<polygon fill="white" stroke="black" points="149,-6 149,-36 258,-36 258,-6 149,-6"/>
<text text-anchor="start" x="157" y="-24" font-family="Helvetica,sans-Serif" font-size="10.00">src/modules/wiegand</text>
<text text-anchor="middle" x="203.5" y="-13" font-family="Helvetica,sans-Serif" font-size="10.00">/wiegand.cpp</text>
</a>
</g>
</g>
<!-- Node16&#45;&gt;Node18 -->
<g id="edge4" class="edge"><title>Node16&#45;&gt;Node18</title>
<path fill="none" stroke="midnightblue" d="M199.427,-73.5898C200.401,-61.2565 201.548,-46.7237 202.377,-36.2309"/>
<polygon fill="midnightblue" stroke="midnightblue" points="195.927,-73.4605 198.629,-83.705 202.905,-74.0115 195.927,-73.4605"/>
</g>
<!-- Node19&#45;&gt;Node15 -->
<g id="edge6" class="edge"><title>Node19&#45;&gt;Node15</title>
<path fill="none" stroke="midnightblue" d="M359.173,-129.626C359.427,-138.837 359.052,-148.574 358.049,-156.233"/>
<polygon fill="midnightblue" stroke="midnightblue" points="362.665,-129.38 358.619,-119.588 355.676,-129.766 362.665,-129.38"/>
</g>
<!-- Node20 -->
<g id="node7" class="node"><title>Node20</title>
<g id="a_node7"><a xlink:href="../../d5/d4a/WiegandCardAndPin_8cpp.html" target="_top" xlink:title="src/modules/wiegand\l/strategies/WiegandCardAnd\lPin.cpp">
<polygon fill="white" stroke="black" points="281.5,-0.5 281.5,-41.5 423.5,-41.5 423.5,-0.5 281.5,-0.5"/>
<text text-anchor="start" x="289.5" y="-29.5" font-family="Helvetica,sans-Serif" font-size="10.00">src/modules/wiegand</text>
<text text-anchor="start" x="289.5" y="-18.5" font-family="Helvetica,sans-Serif" font-size="10.00">/strategies/WiegandCardAnd</text>
<text text-anchor="middle" x="352.5" y="-7.5" font-family="Helvetica,sans-Serif" font-size="10.00">Pin.cpp</text>
</a>
</g>
</g>
<!-- Node19&#45;&gt;Node20 -->
<g id="edge7" class="edge"><title>Node19&#45;&gt;Node20</title>
<path fill="none" stroke="midnightblue" d="M352.5,-68.2965C352.5,-59.3009 352.5,-49.6532 352.5,-41.5056"/>
<polygon fill="midnightblue" stroke="midnightblue" points="349,-68.4281 352.5,-78.4281 356,-68.4281 349,-68.4281"/>
</g>
</g>
</svg>
