<?xml version="1.0" encoding="UTF-8" standalone="no"?>
<!DOCTYPE svg PUBLIC "-//W3C//DTD SVG 1.1//EN"
 "http://www.w3.org/Graphics/SVG/1.1/DTD/svg11.dtd">
<!-- Generated by graphviz version 2.38.0 (20140413.2041)
 -->
<!-- Title: src/core/auth/AccessPointUpdate.hpp Pages: 1 -->
<svg width="494pt" height="106pt"
 viewBox="0.00 0.00 493.50 106.00" xmlns="http://www.w3.org/2000/svg" xmlns:xlink="http://www.w3.org/1999/xlink">
<g id="graph0" class="graph" transform="scale(1 1) rotate(0) translate(4 102)">
<title>src/core/auth/AccessPointUpdate.hpp</title>
<polygon fill="white" stroke="none" points="-4,4 -4,-102 489.5,-102 489.5,4 -4,4"/>
<!-- Node30 -->
<g id="node1" class="node"><title>Node30</title>
<polygon fill="#bfbfbf" stroke="black" points="169.5,-67.5 169.5,-97.5 301.5,-97.5 301.5,-67.5 169.5,-67.5"/>
<text text-anchor="start" x="177.5" y="-85.5" font-family="Helvetica,sans-Serif" font-size="10.00">src/core/auth/AccessPoint</text>
<text text-anchor="middle" x="235.5" y="-74.5" font-family="Helvetica,sans-Serif" font-size="10.00">Update.hpp</text>
</g>
<!-- Node31 -->
<g id="node2" class="node"><title>Node31</title>
<g id="a_node2"><a xlink:href="../../d1/d88/AccessPoint_8cpp.html" target="_top" xlink:title="src/core/auth/AccessPoint.cpp">
<polygon fill="white" stroke="black" points="0,-6 0,-25 151,-25 151,-6 0,-6"/>
<text text-anchor="middle" x="75.5" y="-13" font-family="Helvetica,sans-Serif" font-size="10.00">src/core/auth/AccessPoint.cpp</text>
</a>
</g>
</g>
<!-- Node30&#45;&gt;Node31 -->
<g id="edge1" class="edge"><title>Node30&#45;&gt;Node31</title>
<path fill="none" stroke="midnightblue" d="M191.491,-63.6214C160.522,-51.0403 120.463,-34.7661 96.4403,-25.007"/>
<polygon fill="midnightblue" stroke="midnightblue" points="190.2,-66.8748 200.782,-67.396 192.835,-60.3895 190.2,-66.8748"/>
</g>
<!-- Node32 -->
<g id="node3" class="node"><title>Node32</title>
<g id="a_node3"><a xlink:href="../../dc/dc8/AccessPointUpdate_8cpp.html" target="_top" xlink:title="src/core/auth/AccessPoint\lUpdate.cpp">
<polygon fill="white" stroke="black" points="169.5,-0.5 169.5,-30.5 301.5,-30.5 301.5,-0.5 169.5,-0.5"/>
<text text-anchor="start" x="177.5" y="-18.5" font-family="Helvetica,sans-Serif" font-size="10.00">src/core/auth/AccessPoint</text>
<text text-anchor="middle" x="235.5" y="-7.5" font-family="Helvetica,sans-Serif" font-size="10.00">Update.cpp</text>
</a>
</g>
</g>
<!-- Node30&#45;&gt;Node32 -->
<g id="edge2" class="edge"><title>Node30&#45;&gt;Node32</title>
<path fill="none" stroke="midnightblue" d="M235.5,-57.1081C235.5,-48.1539 235.5,-38.3227 235.5,-30.5765"/>
<polygon fill="midnightblue" stroke="midnightblue" points="232,-57.3959 235.5,-67.396 239,-57.396 232,-57.3959"/>
</g>
<!-- Node33 -->
<g id="node4" class="node"><title>Node33</title>
<g id="a_node4"><a xlink:href="../../d0/d05/AccessPointUpdateSerializer_8cpp.html" target="_top" xlink:title="src/core/update/serializers\l/AccessPointUpdateSerializer.cpp">
<polygon fill="white" stroke="black" points="319.5,-0.5 319.5,-30.5 485.5,-30.5 485.5,-0.5 319.5,-0.5"/>
<text text-anchor="start" x="327.5" y="-18.5" font-family="Helvetica,sans-Serif" font-size="10.00">src/core/update/serializers</text>
<text text-anchor="middle" x="402.5" y="-7.5" font-family="Helvetica,sans-Serif" font-size="10.00">/AccessPointUpdateSerializer.cpp</text>
</a>
</g>
</g>
<!-- Node30&#45;&gt;Node33 -->
<g id="edge3" class="edge"><title>Node30&#45;&gt;Node33</title>
<path fill="none" stroke="midnightblue" d="M281.28,-63.6815C308.063,-53.2568 341.402,-40.2805 366.334,-30.5765"/>
<polygon fill="midnightblue" stroke="midnightblue" points="279.786,-60.5071 271.737,-67.396 282.325,-67.0304 279.786,-60.5071"/>
</g>
</g>
</svg>
