<?xml version="1.0" encoding="UTF-8" standalone="no"?>
<!DOCTYPE svg PUBLIC "-//W3C//DTD SVG 1.1//EN"
 "http://www.w3.org/Graphics/SVG/1.1/DTD/svg11.dtd">
<!-- Generated by graphviz version 2.38.0 (20140413.2041)
 -->
<!-- Title: src/core/auth/IZone.hpp Pages: 1 -->
<svg width="375pt" height="151pt"
 viewBox="0.00 0.00 374.50 151.00" xmlns="http://www.w3.org/2000/svg" xmlns:xlink="http://www.w3.org/1999/xlink">
<g id="graph0" class="graph" transform="scale(1 1) rotate(0) translate(4 147)">
<title>src/core/auth/IZone.hpp</title>
<polygon fill="white" stroke="none" points="-4,4 -4,-147 370.5,-147 370.5,4 -4,4"/>
<!-- Node6 -->
<g id="node1" class="node"><title>Node6</title>
<polygon fill="#bfbfbf" stroke="black" points="92.5,-123.5 92.5,-142.5 212.5,-142.5 212.5,-123.5 92.5,-123.5"/>
<text text-anchor="middle" x="152.5" y="-130.5" font-family="Helvetica,sans-Serif" font-size="10.00">src/core/auth/IZone.hpp</text>
</g>
<!-- Node7 -->
<g id="node2" class="node"><title>Node7</title>
<g id="a_node2"><a xlink:href="../../d4/dbe/AuditFactory_8cpp.html" target="_top" xlink:title="src/core/audit/AuditFactory.cpp">
<polygon fill="white" stroke="black" points="0,-67.5 0,-86.5 153,-86.5 153,-67.5 0,-67.5"/>
<text text-anchor="middle" x="76.5" y="-74.5" font-family="Helvetica,sans-Serif" font-size="10.00">src/core/audit/AuditFactory.cpp</text>
</a>
</g>
</g>
<!-- Node6&#45;&gt;Node7 -->
<g id="edge1" class="edge"><title>Node6&#45;&gt;Node7</title>
<path fill="none" stroke="midnightblue" d="M131.924,-117.38C118.188,-107.62 100.575,-95.1057 88.9329,-86.8339"/>
<polygon fill="midnightblue" stroke="midnightblue" points="130.11,-120.385 140.289,-123.324 134.165,-114.679 130.11,-120.385"/>
</g>
<!-- Node8 -->
<g id="node3" class="node"><title>Node8</title>
<g id="a_node3"><a xlink:href="../../d2/d50/Zone_8hpp.html" target="_top" xlink:title="src/core/auth/Zone.hpp">
<polygon fill="white" stroke="black" points="171,-67.5 171,-86.5 288,-86.5 288,-67.5 171,-67.5"/>
<text text-anchor="middle" x="229.5" y="-74.5" font-family="Helvetica,sans-Serif" font-size="10.00">src/core/auth/Zone.hpp</text>
</a>
</g>
</g>
<!-- Node6&#45;&gt;Node8 -->
<g id="edge2" class="edge"><title>Node6&#45;&gt;Node8</title>
<path fill="none" stroke="midnightblue" d="M173.401,-117.342C187.411,-107.517 205.383,-94.9132 217.159,-86.6545"/>
<polygon fill="midnightblue" stroke="midnightblue" points="171.049,-114.717 164.871,-123.324 175.068,-120.448 171.049,-114.717"/>
</g>
<!-- Node9 -->
<g id="node4" class="node"><title>Node9</title>
<g id="a_node4"><a xlink:href="../../d5/db2/ZoneEvent_8cpp.html" target="_top" xlink:title="src/core/audit/ZoneEvent.cpp">
<polygon fill="white" stroke="black" points="81,-6 81,-25 226,-25 226,-6 81,-6"/>
<text text-anchor="middle" x="153.5" y="-13" font-family="Helvetica,sans-Serif" font-size="10.00">src/core/audit/ZoneEvent.cpp</text>
</a>
</g>
</g>
<!-- Node8&#45;&gt;Node9 -->
<g id="edge3" class="edge"><title>Node8&#45;&gt;Node9</title>
<path fill="none" stroke="midnightblue" d="M210.716,-61.2938C196.137,-49.8803 176.438,-34.4577 164.369,-25.0091"/>
<polygon fill="midnightblue" stroke="midnightblue" points="208.579,-64.0665 218.611,-67.4751 212.895,-58.5547 208.579,-64.0665"/>
</g>
<!-- Node10 -->
<g id="node5" class="node"><title>Node10</title>
<g id="a_node5"><a xlink:href="../../de/dd7/ZoneCRUD_8cpp.html" target="_top" xlink:title="src/modules/websock\l&#45;api/api/ZoneCRUD.cpp">
<polygon fill="white" stroke="black" points="244.5,-0.5 244.5,-30.5 366.5,-30.5 366.5,-0.5 244.5,-0.5"/>
<text text-anchor="start" x="252.5" y="-18.5" font-family="Helvetica,sans-Serif" font-size="10.00">src/modules/websock</text>
<text text-anchor="middle" x="305.5" y="-7.5" font-family="Helvetica,sans-Serif" font-size="10.00">&#45;api/api/ZoneCRUD.cpp</text>
</a>
</g>
</g>
<!-- Node8&#45;&gt;Node10 -->
<g id="edge4" class="edge"><title>Node8&#45;&gt;Node10</title>
<path fill="none" stroke="midnightblue" d="M248.41,-61.1955C260.394,-51.8129 275.801,-39.7512 287.588,-30.523"/>
<polygon fill="midnightblue" stroke="midnightblue" points="246.105,-58.5547 240.389,-67.4751 250.421,-64.0665 246.105,-58.5547"/>
</g>
</g>
</svg>
