<?xml version="1.0" encoding="UTF-8" standalone="no"?>
<!DOCTYPE svg PUBLIC "-//W3C//DTD SVG 1.1//EN"
 "http://www.w3.org/Graphics/SVG/1.1/DTD/svg11.dtd">
<!-- Generated by graphviz version 2.38.0 (20140413.2041)
 -->
<!-- Title: Leosac::Audit::ScheduleEvent Pages: 1 -->
<svg width="284pt" height="218pt"
 viewBox="0.00 0.00 283.50 218.00" xmlns="http://www.w3.org/2000/svg" xmlns:xlink="http://www.w3.org/1999/xlink">
<g id="graph0" class="graph" transform="scale(1 1) rotate(0) translate(4 214)">
<title>Leosac::Audit::ScheduleEvent</title>
<polygon fill="white" stroke="none" points="-4,4 -4,-214 279.5,-214 279.5,4 -4,4"/>
<!-- Node0 -->
<g id="node1" class="node"><title>Node0</title>
<polygon fill="#bfbfbf" stroke="black" points="62.5,-0.5 62.5,-19.5 211.5,-19.5 211.5,-0.5 62.5,-0.5"/>
<text text-anchor="middle" x="137" y="-7.5" font-family="Helvetica,sans-Serif" font-size="10.00">Leosac::Audit::ScheduleEvent</text>
</g>
<!-- Node1 -->
<g id="node2" class="node"><title>Node1</title>
<g id="a_node2"><a xlink:href="../../d7/d97/classLeosac_1_1Audit_1_1IScheduleEvent.html" target="_top" xlink:title="Audit interface to Schedule related events. ">
<polygon fill="white" stroke="black" points="147,-56.5 147,-86.5 273,-86.5 273,-56.5 147,-56.5"/>
<text text-anchor="start" x="155" y="-74.5" font-family="Helvetica,sans-Serif" font-size="10.00">Leosac::Audit::ISchedule</text>
<text text-anchor="middle" x="210" y="-63.5" font-family="Helvetica,sans-Serif" font-size="10.00">Event</text>
</a>
</g>
</g>
<!-- Node1&#45;&gt;Node0 -->
<g id="edge1" class="edge"><title>Node1&#45;&gt;Node0</title>
<path fill="none" stroke="midnightblue" d="M184.718,-49.8934C172.019,-39.5432 157.314,-27.5577 147.622,-19.6578"/>
<polygon fill="midnightblue" stroke="midnightblue" points="182.737,-52.7944 192.7,-56.3993 187.16,-47.3684 182.737,-52.7944"/>
</g>
<!-- Node2 -->
<g id="node3" class="node"><title>Node2</title>
<g id="a_node3"><a xlink:href="../../d1/d44/classLeosac_1_1Audit_1_1IAuditEntry.html" target="_top" xlink:title="Base interface to Audit object. ">
<polygon fill="white" stroke="black" points="144.5,-129 144.5,-148 275.5,-148 275.5,-129 144.5,-129"/>
<text text-anchor="middle" x="210" y="-136" font-family="Helvetica,sans-Serif" font-size="10.00">Leosac::Audit::IAuditEntry</text>
</a>
</g>
</g>
<!-- Node2&#45;&gt;Node1 -->
<g id="edge2" class="edge"><title>Node2&#45;&gt;Node1</title>
<path fill="none" stroke="midnightblue" d="M210,-118.411C210,-108.222 210,-95.901 210,-86.589"/>
<polygon fill="midnightblue" stroke="midnightblue" points="206.5,-118.734 210,-128.734 213.5,-118.734 206.5,-118.734"/>
</g>
<!-- Node4 -->
<g id="node5" class="node"><title>Node4</title>
<g id="a_node5"><a xlink:href="../../d0/d20/classLeosac_1_1Audit_1_1AuditEntry.html" target="_top" xlink:title="Implementation of IAuditEntry, backed by ODB. ">
<polygon fill="white" stroke="black" points="1,-62 1,-81 129,-81 129,-62 1,-62"/>
<text text-anchor="middle" x="65" y="-69" font-family="Helvetica,sans-Serif" font-size="10.00">Leosac::Audit::AuditEntry</text>
</a>
</g>
</g>
<!-- Node2&#45;&gt;Node4 -->
<g id="edge5" class="edge"><title>Node2&#45;&gt;Node4</title>
<path fill="none" stroke="midnightblue" d="M181.251,-124.613C152.532,-111.739 109.182,-92.3059 84.3345,-81.1672"/>
<polygon fill="midnightblue" stroke="midnightblue" points="180.188,-127.972 190.745,-128.869 183.052,-121.584 180.188,-127.972"/>
</g>
<!-- Node3 -->
<g id="node4" class="node"><title>Node3</title>
<g id="a_node4"><a xlink:href="../../d0/d33/classLeosac_1_1Tools_1_1IVisitable.html" target="_top" xlink:title="Base class to make an object visitable. ">
<polygon fill="white" stroke="black" points="147.5,-190.5 147.5,-209.5 272.5,-209.5 272.5,-190.5 147.5,-190.5"/>
<text text-anchor="middle" x="210" y="-197.5" font-family="Helvetica,sans-Serif" font-size="10.00">Leosac::Tools::IVisitable</text>
</a>
</g>
</g>
<!-- Node3&#45;&gt;Node2 -->
<g id="edge3" class="edge"><title>Node3&#45;&gt;Node2</title>
<path fill="none" stroke="midnightblue" d="M210,-180.317C210,-169.496 210,-156.398 210,-148.009"/>
<polygon fill="midnightblue" stroke="midnightblue" points="206.5,-180.475 210,-190.475 213.5,-180.475 206.5,-180.475"/>
</g>
<!-- Node4&#45;&gt;Node0 -->
<g id="edge4" class="edge"><title>Node4&#45;&gt;Node0</title>
<path fill="none" stroke="midnightblue" d="M83.1843,-55.4727C96.9552,-44.0925 115.377,-28.8694 126.703,-19.5091"/>
<polygon fill="midnightblue" stroke="midnightblue" points="80.7948,-52.9069 75.3158,-61.9751 85.2539,-58.3028 80.7948,-52.9069"/>
</g>
<!-- Node5 -->
<g id="node6" class="node"><title>Node5</title>
<polygon fill="white" stroke="#bfbfbf" points="0,-123.5 0,-153.5 126,-153.5 126,-123.5 0,-123.5"/>
<text text-anchor="start" x="8" y="-141.5" font-family="Helvetica,sans-Serif" font-size="10.00">std::enable_shared</text>
<text text-anchor="middle" x="63" y="-130.5" font-family="Helvetica,sans-Serif" font-size="10.00">_from_this&lt; AuditEntry &gt;</text>
</g>
<!-- Node5&#45;&gt;Node4 -->
<g id="edge6" class="edge"><title>Node5&#45;&gt;Node4</title>
<path fill="none" stroke="midnightblue" d="M63.7462,-113.25C64.0918,-102.017 64.4807,-89.3767 64.7325,-81.1945"/>
<polygon fill="midnightblue" stroke="midnightblue" points="60.2433,-113.293 63.434,-123.396 67.24,-113.508 60.2433,-113.293"/>
</g>
</g>
</svg>
