<?xml version="1.0" encoding="UTF-8" standalone="no"?>
<!DOCTYPE svg PUBLIC "-//W3C//DTD SVG 1.1//EN"
 "http://www.w3.org/Graphics/SVG/1.1/DTD/svg11.dtd">
<!-- Generated by graphviz version 2.38.0 (20140413.2041)
 -->
<!-- Title: src/modules/tcp&#45;notifier/protocols/PushSimpleCardNumber.hpp Pages: 1 -->
<svg width="539pt" height="173pt"
 viewBox="0.00 0.00 539.00 173.00" xmlns="http://www.w3.org/2000/svg" xmlns:xlink="http://www.w3.org/1999/xlink">
<g id="graph0" class="graph" transform="scale(1 1) rotate(0) translate(4 169)">
<title>src/modules/tcp&#45;notifier/protocols/PushSimpleCardNumber.hpp</title>
<polygon fill="white" stroke="none" points="-4,4 -4,-169 535,-169 535,4 -4,4"/>
<!-- Node8 -->
<g id="node1" class="node"><title>Node8</title>
<polygon fill="#bfbfbf" stroke="black" points="170,-134.5 170,-164.5 359,-164.5 359,-134.5 170,-134.5"/>
<text text-anchor="start" x="178" y="-152.5" font-family="Helvetica,sans-Serif" font-size="10.00">src/modules/tcp&#45;notifier</text>
<text text-anchor="middle" x="264.5" y="-141.5" font-family="Helvetica,sans-Serif" font-size="10.00">/protocols/PushSimpleCardNumber.hpp</text>
</g>
<!-- Node9 -->
<g id="node2" class="node"><title>Node9</title>
<g id="a_node2"><a xlink:href="../../d0/dd9/TcpNotifier_8hpp.html" target="_top" xlink:title="src/modules/tcp&#45;notifier\l/TcpNotifier.hpp">
<polygon fill="white" stroke="black" points="68,-67.5 68,-97.5 187,-97.5 187,-67.5 68,-67.5"/>
<text text-anchor="start" x="76" y="-85.5" font-family="Helvetica,sans-Serif" font-size="10.00">src/modules/tcp&#45;notifier</text>
<text text-anchor="middle" x="127.5" y="-74.5" font-family="Helvetica,sans-Serif" font-size="10.00">/TcpNotifier.hpp</text>
</a>
</g>
</g>
<!-- Node8&#45;&gt;Node9 -->
<g id="edge1" class="edge"><title>Node8&#45;&gt;Node9</title>
<path fill="none" stroke="midnightblue" d="M225.491,-129.992C203.776,-119.689 177.173,-107.068 157.169,-97.5765"/>
<polygon fill="midnightblue" stroke="midnightblue" points="224.238,-133.272 234.773,-134.396 227.239,-126.947 224.238,-133.272"/>
</g>
<!-- Node12 -->
<g id="node5" class="node"><title>Node12</title>
<g id="a_node5"><a xlink:href="../../d1/de6/ProtocolHandler_8cpp.html" target="_top" xlink:title="src/modules/tcp&#45;notifier\l/ProtocolHandler.cpp">
<polygon fill="white" stroke="black" points="205,-67.5 205,-97.5 324,-97.5 324,-67.5 205,-67.5"/>
<text text-anchor="start" x="213" y="-85.5" font-family="Helvetica,sans-Serif" font-size="10.00">src/modules/tcp&#45;notifier</text>
<text text-anchor="middle" x="264.5" y="-74.5" font-family="Helvetica,sans-Serif" font-size="10.00">/ProtocolHandler.cpp</text>
</a>
</g>
</g>
<!-- Node8&#45;&gt;Node12 -->
<g id="edge4" class="edge"><title>Node8&#45;&gt;Node12</title>
<path fill="none" stroke="midnightblue" d="M264.5,-124.108C264.5,-115.154 264.5,-105.323 264.5,-97.5765"/>
<polygon fill="midnightblue" stroke="midnightblue" points="261,-124.396 264.5,-134.396 268,-124.396 261,-124.396"/>
</g>
<!-- Node13 -->
<g id="node6" class="node"><title>Node13</title>
<g id="a_node6"><a xlink:href="../../da/da5/PushSimpleCardNumber_8cpp.html" target="_top" xlink:title="src/modules/tcp&#45;notifier\l/protocols/PushSimpleCardNumber.cpp">
<polygon fill="white" stroke="black" points="342,-67.5 342,-97.5 531,-97.5 531,-67.5 342,-67.5"/>
<text text-anchor="start" x="350" y="-85.5" font-family="Helvetica,sans-Serif" font-size="10.00">src/modules/tcp&#45;notifier</text>
<text text-anchor="middle" x="436.5" y="-74.5" font-family="Helvetica,sans-Serif" font-size="10.00">/protocols/PushSimpleCardNumber.cpp</text>
</a>
</g>
</g>
<!-- Node8&#45;&gt;Node13 -->
<g id="edge5" class="edge"><title>Node8&#45;&gt;Node13</title>
<path fill="none" stroke="midnightblue" d="M311.288,-130.819C338.935,-120.371 373.46,-107.323 399.251,-97.5765"/>
<polygon fill="midnightblue" stroke="midnightblue" points="309.938,-127.587 301.821,-134.396 312.413,-134.135 309.938,-127.587"/>
</g>
<!-- Node10 -->
<g id="node3" class="node"><title>Node10</title>
<g id="a_node3"><a xlink:href="../../dc/d63/tcp-notifier_2init_8cpp.html" target="_top" xlink:title="src/modules/tcp&#45;notifier\l/init.cpp">
<polygon fill="white" stroke="black" points="0,-0.5 0,-30.5 119,-30.5 119,-0.5 0,-0.5"/>
<text text-anchor="start" x="8" y="-18.5" font-family="Helvetica,sans-Serif" font-size="10.00">src/modules/tcp&#45;notifier</text>
<text text-anchor="middle" x="59.5" y="-7.5" font-family="Helvetica,sans-Serif" font-size="10.00">/init.cpp</text>
</a>
</g>
</g>
<!-- Node9&#45;&gt;Node10 -->
<g id="edge2" class="edge"><title>Node9&#45;&gt;Node10</title>
<path fill="none" stroke="midnightblue" d="M105.334,-60.3115C95.1333,-50.5612 83.3095,-39.259 74.2262,-30.5765"/>
<polygon fill="midnightblue" stroke="midnightblue" points="103.098,-63.0162 112.745,-67.396 107.935,-57.9561 103.098,-63.0162"/>
</g>
<!-- Node11 -->
<g id="node4" class="node"><title>Node11</title>
<g id="a_node4"><a xlink:href="../../d0/df4/TcpNotifier_8cpp.html" target="_top" xlink:title="src/modules/tcp&#45;notifier\l/TcpNotifier.cpp">
<polygon fill="white" stroke="black" points="137,-0.5 137,-30.5 256,-30.5 256,-0.5 137,-0.5"/>
<text text-anchor="start" x="145" y="-18.5" font-family="Helvetica,sans-Serif" font-size="10.00">src/modules/tcp&#45;notifier</text>
<text text-anchor="middle" x="196.5" y="-7.5" font-family="Helvetica,sans-Serif" font-size="10.00">/TcpNotifier.cpp</text>
</a>
</g>
</g>
<!-- Node9&#45;&gt;Node11 -->
<g id="edge3" class="edge"><title>Node9&#45;&gt;Node11</title>
<path fill="none" stroke="midnightblue" d="M149.992,-60.3115C160.343,-50.5612 172.34,-39.259 181.557,-30.5765"/>
<polygon fill="midnightblue" stroke="midnightblue" points="147.351,-57.9914 142.472,-67.396 152.151,-63.0866 147.351,-57.9914"/>
</g>
</g>
</svg>
