<?xml version="1.0" encoding="UTF-8" standalone="no"?>
<!DOCTYPE svg PUBLIC "-//W3C//DTD SVG 1.1//EN"
 "http://www.w3.org/Graphics/SVG/1.1/DTD/svg11.dtd">
<!-- Generated by graphviz version 2.38.0 (20140413.2041)
 -->
<!-- Title: src/core/config/ConfigManager.hpp Pages: 1 -->
<!--zoomable 263 -->
<svg id="main" version="1.1" xmlns="http://www.w3.org/2000/svg" xmlns:xlink="http://www.w3.org/1999/xlink" xml:space="preserve" onload="init(evt)">
<style type="text/css"><![CDATA[
.edge:hover path { stroke: red; }
.edge:hover polygon { stroke: red; fill: red; }
]]></style>
<script type="text/javascript"><![CDATA[
var edges = document.getElementsByTagName('g');
if (edges && edges.length) {
  for (var i=0;i<edges.length;i++) {
    if (edges[i].id.substr(0,4)=='edge') {
      edges[i].setAttribute('class','edge');
    }
  }
}
]]></script>
        <defs>
                <circle id="rim" cx="0" cy="0" r="7"/>
                <circle id="rim2" cx="0" cy="0" r="3.5"/>
                <g id="zoomPlus">
                        <use xlink:href="#rim" fill="#404040">
                                <set attributeName="fill" to="#808080" begin="zoomplus.mouseover" end="zoomplus.mouseout"/>
                        </use>
                        <path d="M-4,0h8M0,-4v8" fill="none" stroke="white" stroke-width="1.5" pointer-events="none"/>
                </g>
                <g id="zoomMin">
                        <use xlink:href="#rim" fill="#404040">
                                <set attributeName="fill" to="#808080" begin="zoomminus.mouseover" end="zoomminus.mouseout"/>
                        </use>
                        <path d="M-4,0h8" fill="none" stroke="white" stroke-width="1.5" pointer-events="none"/>
                </g>
                <g id="dirArrow">
                        <path fill="none" stroke="white" stroke-width="1.5" d="M0,-3.0v7 M-2.5,-0.5L0,-3.0L2.5,-0.5"/>
                </g>
               <g id="resetDef">
                       <use xlink:href="#rim2" fill="#404040">
                               <set attributeName="fill" to="#808080" begin="reset.mouseover" end="reset.mouseout"/>
                       </use>
               </g>
        </defs>

<script type="text/javascript">
var viewWidth = 1838;
var viewHeight = 263;
var sectionId = 'dynsection-0';
</script>
<script xlink:href="../../svgpan.js"/>
<svg id="graph" class="graph">
<g id="viewport">
<title>src/core/config/ConfigManager.hpp</title>
<polygon fill="white" stroke="none" points="-4,4 -4,-259 1834,-259 1834,4 -4,4"/>
<!-- Node0 -->
<g id="node1" class="node"><title>Node0</title>
<polygon fill="#bfbfbf" stroke="black" points="1416,-235.5 1416,-254.5 1585,-254.5 1585,-235.5 1416,-235.5"/>
<text text-anchor="middle" x="1500.5" y="-242.5" font-family="Helvetica,sans-Serif" font-size="10.00">src/core/config/ConfigManager.hpp</text>
</g>
<!-- Node1 -->
<g id="node2" class="node"><title>Node1</title>
<g id="a_node2"><a xlink:href="../../d1/ddd/leosacexception_8hpp.html" target="_top" xlink:title="Exception class for LEOSAC Project related errors. ">
<polygon fill="white" stroke="black" points="561,-174 561,-193 712,-193 712,-174 561,-174"/>
<text text-anchor="middle" x="636.5" y="-181" font-family="Helvetica,sans-Serif" font-size="10.00">exception/leosacexception.hpp</text>
</a>
</g>
</g>
<!-- Node0&#45;&gt;Node1 -->
<g id="edge1" class="edge"><title>Node0&#45;&gt;Node1</title>
<path fill="none" stroke="midnightblue" d="M1415.69,-238.159C1250.67,-226.795 888.078,-201.825 722.285,-190.408"/>
<polygon fill="midnightblue" stroke="midnightblue" points="722.35,-186.904 712.133,-189.709 721.869,-193.887 722.35,-186.904"/>
</g>
<!-- Node3 -->
<g id="node4" class="node"><title>Node3</title>
<polygon fill="white" stroke="#bfbfbf" points="724,-0.5 724,-19.5 765,-19.5 765,-0.5 724,-0.5"/>
<text text-anchor="middle" x="744.5" y="-7.5" font-family="Helvetica,sans-Serif" font-size="10.00">string</text>
</g>
<!-- Node0&#45;&gt;Node3 -->
<g id="edge48" class="edge"><title>Node0&#45;&gt;Node3</title>
<path fill="none" stroke="midnightblue" d="M1494.56,-235.026C1470.7,-199.068 1382.08,-66.8253 1362.5,-56 1310.81,-27.4141 892.888,-14.7546 775.226,-11.7354"/>
<polygon fill="midnightblue" stroke="midnightblue" points="775.189,-8.23346 765.104,-11.4806 775.013,-15.2312 775.189,-8.23346"/>
</g>
<!-- Node4 -->
<g id="node5" class="node"><title>Node4</title>
<polygon fill="white" stroke="#bfbfbf" points="1309.5,-56.5 1309.5,-75.5 1353.5,-75.5 1353.5,-56.5 1309.5,-56.5"/>
<text text-anchor="middle" x="1331.5" y="-63.5" font-family="Helvetica,sans-Serif" font-size="10.00">vector</text>
</g>
<!-- Node0&#45;&gt;Node4 -->
<g id="edge49" class="edge"><title>Node0&#45;&gt;Node4</title>
<path fill="none" stroke="midnightblue" d="M1472.18,-235.354C1452.6,-228.199 1427.03,-216.369 1409.5,-199 1378.72,-168.499 1388.43,-148.766 1365.5,-112 1359.35,-102.134 1351.59,-91.7381 1345.03,-83.427"/>
<polygon fill="midnightblue" stroke="midnightblue" points="1347.76,-81.2272 1338.76,-75.6302 1342.3,-85.6154 1347.76,-81.2272"/>
</g>
<!-- Node18 -->
<g id="node19" class="node"><title>Node18</title>
<g id="a_node19"><a xlink:href="../../d4/d3d/log_8hpp.html" target="_top" xlink:title="tools/log.hpp">
<polygon fill="white" stroke="black" points="1438.5,-56.5 1438.5,-75.5 1510.5,-75.5 1510.5,-56.5 1438.5,-56.5"/>
<text text-anchor="middle" x="1474.5" y="-63.5" font-family="Helvetica,sans-Serif" font-size="10.00">tools/log.hpp</text>
</a>
</g>
</g>
<!-- Node0&#45;&gt;Node18 -->
<g id="edge38" class="edge"><title>Node0&#45;&gt;Node18</title>
<path fill="none" stroke="midnightblue" d="M1495.5,-235.378C1490.67,-226.563 1483.64,-212.313 1480.5,-199 1471.22,-159.696 1471.87,-112.029 1473.17,-86.0858"/>
<polygon fill="midnightblue" stroke="midnightblue" points="1476.69,-85.9937 1473.79,-75.8027 1469.7,-85.5762 1476.69,-85.9937"/>
</g>
<!-- Node23 -->
<g id="node24" class="node"><title>Node23</title>
<polygon fill="white" stroke="#bfbfbf" points="1490,-168.5 1490,-198.5 1591,-198.5 1591,-168.5 1490,-168.5"/>
<text text-anchor="start" x="1498" y="-186.5" font-family="Helvetica,sans-Serif" font-size="10.00">boost/property_tree</text>
<text text-anchor="middle" x="1540.5" y="-175.5" font-family="Helvetica,sans-Serif" font-size="10.00">/ptree.hpp</text>
</g>
<!-- Node0&#45;&gt;Node23 -->
<g id="edge45" class="edge"><title>Node0&#45;&gt;Node23</title>
<path fill="none" stroke="midnightblue" d="M1506.23,-235.475C1511.24,-228.019 1518.75,-216.852 1525.46,-206.869"/>
<polygon fill="midnightblue" stroke="midnightblue" points="1528.4,-208.775 1531.07,-198.523 1522.59,-204.869 1528.4,-208.775"/>
</g>
<!-- Node24 -->
<g id="node25" class="node"><title>Node24</title>
<polygon fill="white" stroke="#bfbfbf" points="1609,-174 1609,-193 1644,-193 1644,-174 1609,-174"/>
<text text-anchor="middle" x="1626.5" y="-181" font-family="Helvetica,sans-Serif" font-size="10.00">map</text>
</g>
<!-- Node0&#45;&gt;Node24 -->
<g id="edge46" class="edge"><title>Node0&#45;&gt;Node24</title>
<path fill="none" stroke="midnightblue" d="M1520.4,-235.416C1540.52,-226.631 1572.43,-212.403 1599.5,-199 1600.31,-198.597 1601.14,-198.184 1601.97,-197.763"/>
<polygon fill="midnightblue" stroke="midnightblue" points="1603.64,-200.84 1610.89,-193.111 1600.4,-194.633 1603.64,-200.84"/>
</g>
<!-- Node25 -->
<g id="node26" class="node"><title>Node25</title>
<polygon fill="white" stroke="#bfbfbf" points="1662.5,-174 1662.5,-193 1714.5,-193 1714.5,-174 1662.5,-174"/>
<text text-anchor="middle" x="1688.5" y="-181" font-family="Helvetica,sans-Serif" font-size="10.00">memory</text>
</g>
<!-- Node0&#45;&gt;Node25 -->
<g id="edge47" class="edge"><title>Node0&#45;&gt;Node25</title>
<path fill="none" stroke="midnightblue" d="M1532.51,-235.476C1563.47,-227.011 1611.57,-213.266 1652.5,-199 1654.41,-198.335 1656.36,-197.626 1658.33,-196.894"/>
<polygon fill="midnightblue" stroke="midnightblue" points="1660.01,-199.998 1668.07,-193.121 1657.48,-193.471 1660.01,-199.998"/>
</g>
<!-- Node26 -->
<g id="node27" class="node"><title>Node26</title>
<polygon fill="white" stroke="#bfbfbf" points="1733,-174 1733,-193 1830,-193 1830,-174 1733,-174"/>
<text text-anchor="middle" x="1781.5" y="-181" font-family="Helvetica,sans-Serif" font-size="10.00">zmqpp/zmqpp.hpp</text>
</g>
<!-- Node0&#45;&gt;Node26 -->
<g id="edge50" class="edge"><title>Node0&#45;&gt;Node26</title>
<path fill="none" stroke="midnightblue" d="M1545.9,-235.471C1591.06,-226.84 1662.24,-212.83 1723.5,-199 1728.44,-197.886 1733.59,-196.67 1738.71,-195.432"/>
<polygon fill="midnightblue" stroke="midnightblue" points="1739.56,-198.828 1748.44,-193.044 1737.89,-192.03 1739.56,-198.828"/>
</g>
<!-- Node2 -->
<g id="node3" class="node"><title>Node2</title>
<g id="a_node3"><a xlink:href="../../d6/d2f/Stacktrace_8hpp.html" target="_top" xlink:title="tools/Stacktrace.hpp">
<polygon fill="white" stroke="black" points="1250,-112.5 1250,-131.5 1357,-131.5 1357,-112.5 1250,-112.5"/>
<text text-anchor="middle" x="1303.5" y="-119.5" font-family="Helvetica,sans-Serif" font-size="10.00">tools/Stacktrace.hpp</text>
</a>
</g>
</g>
<!-- Node1&#45;&gt;Node2 -->
<g id="edge2" class="edge"><title>Node1&#45;&gt;Node2</title>
<path fill="none" stroke="midnightblue" d="M712.443,-177.582C825.097,-169.968 1043.36,-153.999 1239.69,-132.025"/>
<polygon fill="midnightblue" stroke="midnightblue" points="1240.37,-135.471 1249.91,-130.873 1239.58,-128.515 1240.37,-135.471"/>
</g>
<!-- Node1&#45;&gt;Node3 -->
<g id="edge7" class="edge"><title>Node1&#45;&gt;Node3</title>
<path fill="none" stroke="midnightblue" d="M650.112,-173.978C663.511,-164.982 683.765,-149.674 696.5,-132 719.758,-99.7229 733.727,-54.6199 740.184,-29.5932"/>
<polygon fill="midnightblue" stroke="midnightblue" points="743.646,-30.1713 742.628,-19.6254 736.847,-28.5039 743.646,-30.1713"/>
</g>
<!-- Node5 -->
<g id="node6" class="node"><title>Node5</title>
<polygon fill="white" stroke="#bfbfbf" points="859,-112.5 859,-131.5 908,-131.5 908,-112.5 859,-112.5"/>
<text text-anchor="middle" x="883.5" y="-119.5" font-family="Helvetica,sans-Serif" font-size="10.00">cstddef</text>
</g>
<!-- Node1&#45;&gt;Node5 -->
<g id="edge5" class="edge"><title>Node1&#45;&gt;Node5</title>
<path fill="none" stroke="midnightblue" d="M673.894,-173.944C714.488,-164.587 781.472,-148.95 848.717,-132.148"/>
<polygon fill="midnightblue" stroke="midnightblue" points="849.788,-135.488 858.637,-129.661 848.086,-128.698 849.788,-135.488"/>
</g>
<!-- Node6 -->
<g id="node7" class="node"><title>Node6</title>
<polygon fill="white" stroke="#bfbfbf" points="926,-112.5 926,-131.5 985,-131.5 985,-112.5 926,-112.5"/>
<text text-anchor="middle" x="955.5" y="-119.5" font-family="Helvetica,sans-Serif" font-size="10.00">exception</text>
</g>
<!-- Node1&#45;&gt;Node6 -->
<g id="edge6" class="edge"><title>Node1&#45;&gt;Node6</title>
<path fill="none" stroke="midnightblue" d="M687.993,-173.981C742.183,-164.843 830.194,-149.517 915.833,-132.056"/>
<polygon fill="midnightblue" stroke="midnightblue" points="916.629,-135.466 925.722,-130.028 915.223,-128.608 916.629,-135.466"/>
</g>
<!-- Node7 -->
<g id="node8" class="node"><title>Node7</title>
<g id="a_node8"><a xlink:href="../../d7/d7a/configexception_8hpp.html" target="_top" xlink:title="configexception.hpp">
<polygon fill="white" stroke="black" points="1127.5,-112.5 1127.5,-131.5 1231.5,-131.5 1231.5,-112.5 1127.5,-112.5"/>
<text text-anchor="middle" x="1179.5" y="-119.5" font-family="Helvetica,sans-Serif" font-size="10.00">configexception.hpp</text>
</a>
</g>
</g>
<!-- Node1&#45;&gt;Node7 -->
<g id="edge8" class="edge"><title>Node1&#45;&gt;Node7</title>
<path fill="none" stroke="midnightblue" d="M712.037,-174.97C805.503,-165.907 969.258,-149.684 1109.5,-132 1112.01,-131.684 1114.57,-131.349 1117.17,-131.002"/>
<polygon fill="midnightblue" stroke="midnightblue" points="1117.86,-134.44 1127.29,-129.617 1116.91,-127.505 1117.86,-134.44"/>
</g>
<!-- Node10 -->
<g id="node11" class="node"><title>Node10</title>
<g id="a_node11"><a xlink:href="../../d8/db0/coreexception_8hpp.html" target="_top" xlink:title="Exception class for Core related errors. ">
<polygon fill="white" stroke="black" points="744.5,-112.5 744.5,-131.5 840.5,-131.5 840.5,-112.5 744.5,-112.5"/>
<text text-anchor="middle" x="792.5" y="-119.5" font-family="Helvetica,sans-Serif" font-size="10.00">coreexception.hpp</text>
</a>
</g>
</g>
<!-- Node1&#45;&gt;Node10 -->
<g id="edge14" class="edge"><title>Node1&#45;&gt;Node10</title>
<path fill="none" stroke="midnightblue" d="M653.95,-173.975C678.59,-163.725 723.648,-146.459 755.775,-134.899"/>
<polygon fill="midnightblue" stroke="midnightblue" points="757.047,-138.162 765.293,-131.509 754.699,-131.567 757.047,-138.162"/>
</g>
<!-- Node11 -->
<g id="node12" class="node"><title>Node11</title>
<g id="a_node12"><a xlink:href="../../d8/d77/deviceexception_8hpp.html" target="_top" xlink:title="Exception class for Device related errors. ">
<polygon fill="white" stroke="black" points="1003.5,-112.5 1003.5,-131.5 1109.5,-131.5 1109.5,-112.5 1003.5,-112.5"/>
<text text-anchor="middle" x="1056.5" y="-119.5" font-family="Helvetica,sans-Serif" font-size="10.00">deviceexception.hpp</text>
</a>
</g>
</g>
<!-- Node1&#45;&gt;Node11 -->
<g id="edge17" class="edge"><title>Node1&#45;&gt;Node11</title>
<path fill="none" stroke="midnightblue" d="M690.382,-173.992C758.813,-163.975 880.23,-146.823 984.5,-132 987.32,-131.599 990.211,-131.188 993.139,-130.772"/>
<polygon fill="midnightblue" stroke="midnightblue" points="993.779,-134.216 1003.19,-129.351 992.798,-127.285 993.779,-134.216"/>
</g>
<!-- Node12 -->
<g id="node13" class="node"><title>Node12</title>
<g id="a_node13"><a xlink:href="../../db/d35/dynlibexception_8hpp.html" target="_top" xlink:title="Exception class for DynLib related errors. ">
<polygon fill="white" stroke="black" points="0,-112.5 0,-131.5 103,-131.5 103,-112.5 0,-112.5"/>
<text text-anchor="middle" x="51.5" y="-119.5" font-family="Helvetica,sans-Serif" font-size="10.00">dynlibexception.hpp</text>
</a>
</g>
</g>
<!-- Node1&#45;&gt;Node12 -->
<g id="edge20" class="edge"><title>Node1&#45;&gt;Node12</title>
<path fill="none" stroke="midnightblue" d="M560.951,-176.914C459.501,-168.767 273.71,-152.478 109.896,-132.762"/>
<polygon fill="midnightblue" stroke="midnightblue" points="109.985,-129.247 99.6362,-131.519 109.143,-136.196 109.985,-129.247"/>
</g>
<!-- Node13 -->
<g id="node14" class="node"><title>Node13</title>
<g id="a_node14"><a xlink:href="../../d0/d4e/fsexception_8hpp.html" target="_top" xlink:title="Exception class for filesystem related errors. ">
<polygon fill="white" stroke="black" points="121.5,-112.5 121.5,-131.5 207.5,-131.5 207.5,-112.5 121.5,-112.5"/>
<text text-anchor="middle" x="164.5" y="-119.5" font-family="Helvetica,sans-Serif" font-size="10.00">fsexception.hpp</text>
</a>
</g>
</g>
<!-- Node1&#45;&gt;Node13 -->
<g id="edge23" class="edge"><title>Node1&#45;&gt;Node13</title>
<path fill="none" stroke="midnightblue" d="M560.849,-175.282C477.125,-166.573 338.232,-150.905 214.243,-132.97"/>
<polygon fill="midnightblue" stroke="midnightblue" points="214.604,-129.486 204.204,-131.508 213.595,-136.413 214.604,-129.486"/>
</g>
<!-- Node14 -->
<g id="node15" class="node"><title>Node14</title>
<g id="a_node15"><a xlink:href="../../d1/d8e/gpioexception_8hpp.html" target="_top" xlink:title="Exception class for Gpio related errors. ">
<polygon fill="white" stroke="black" points="226,-112.5 226,-131.5 321,-131.5 321,-112.5 226,-112.5"/>
<text text-anchor="middle" x="273.5" y="-119.5" font-family="Helvetica,sans-Serif" font-size="10.00">gpioexception.hpp</text>
</a>
</g>
</g>
<!-- Node1&#45;&gt;Node14 -->
<g id="edge26" class="edge"><title>Node1&#45;&gt;Node14</title>
<path fill="none" stroke="midnightblue" d="M579.59,-173.975C511.607,-163.216 398.713,-144.73 330.634,-133.224"/>
<polygon fill="midnightblue" stroke="midnightblue" points="330.96,-129.729 320.515,-131.509 329.79,-136.631 330.96,-129.729"/>
</g>
<!-- Node15 -->
<g id="node16" class="node"><title>Node15</title>
<g id="a_node16"><a xlink:href="../../d7/d8c/moduleexception_8hpp.html" target="_top" xlink:title="Exception class for modules. ">
<polygon fill="white" stroke="black" points="339,-112.5 339,-131.5 448,-131.5 448,-112.5 339,-112.5"/>
<text text-anchor="middle" x="393.5" y="-119.5" font-family="Helvetica,sans-Serif" font-size="10.00">moduleexception.hpp</text>
</a>
</g>
</g>
<!-- Node1&#45;&gt;Node15 -->
<g id="edge29" class="edge"><title>Node1&#45;&gt;Node15</title>
<path fill="none" stroke="midnightblue" d="M596.783,-173.975C551.544,-163.459 478.288,-145.562 433.101,-134.014"/>
<polygon fill="midnightblue" stroke="midnightblue" points="433.911,-130.609 423.354,-131.509 432.168,-137.388 433.911,-130.609"/>
</g>
<!-- Node16 -->
<g id="node17" class="node"><title>Node16</title>
<g id="a_node17"><a xlink:href="../../df/d8d/scriptexception_8hpp.html" target="_top" xlink:title="Exception class for Script related errors. ">
<polygon fill="white" stroke="black" points="466,-112.5 466,-131.5 567,-131.5 567,-112.5 466,-112.5"/>
<text text-anchor="middle" x="516.5" y="-119.5" font-family="Helvetica,sans-Serif" font-size="10.00">scriptexception.hpp</text>
</a>
</g>
</g>
<!-- Node1&#45;&gt;Node16 -->
<g id="edge32" class="edge"><title>Node1&#45;&gt;Node16</title>
<path fill="none" stroke="midnightblue" d="M614.406,-173.975C592.485,-164.166 559.465,-147.935 537.825,-136.425"/>
<polygon fill="midnightblue" stroke="midnightblue" points="539.223,-133.201 528.764,-131.509 535.885,-139.354 539.223,-133.201"/>
</g>
<!-- Node17 -->
<g id="node18" class="node"><title>Node17</title>
<g id="a_node18"><a xlink:href="../../dc/dce/signalexception_8hpp.html" target="_top" xlink:title="Exception class for Signal related errors. ">
<polygon fill="white" stroke="black" points="585,-112.5 585,-131.5 688,-131.5 688,-112.5 585,-112.5"/>
<text text-anchor="middle" x="636.5" y="-119.5" font-family="Helvetica,sans-Serif" font-size="10.00">signalexception.hpp</text>
</a>
</g>
</g>
<!-- Node1&#45;&gt;Node17 -->
<g id="edge35" class="edge"><title>Node1&#45;&gt;Node17</title>
<path fill="none" stroke="midnightblue" d="M631.599,-173.975C629.768,-165.58 629.297,-152.481 630.185,-141.663"/>
<polygon fill="midnightblue" stroke="midnightblue" points="633.686,-141.897 631.603,-131.509 626.754,-140.929 633.686,-141.897"/>
</g>
<!-- Node2&#45;&gt;Node3 -->
<g id="edge3" class="edge"><title>Node2&#45;&gt;Node3</title>
<path fill="none" stroke="midnightblue" d="M1260.92,-112.471C1198.53,-99.9884 1078.59,-76.0479 976.5,-56 904.38,-41.8377 819.591,-25.4609 775.178,-16.9037"/>
<polygon fill="midnightblue" stroke="midnightblue" points="775.784,-13.4561 765.303,-15.0015 774.46,-20.3298 775.784,-13.4561"/>
</g>
<!-- Node2&#45;&gt;Node4 -->
<g id="edge4" class="edge"><title>Node2&#45;&gt;Node4</title>
<path fill="none" stroke="midnightblue" d="M1308.12,-112.083C1311.96,-104.691 1317.52,-93.9533 1322.26,-84.8111"/>
<polygon fill="midnightblue" stroke="midnightblue" points="1325.47,-86.2398 1326.96,-75.7511 1319.25,-83.0175 1325.47,-86.2398"/>
</g>
<!-- Node7&#45;&gt;Node1 -->
<g id="edge9" class="edge"><title>Node7&#45;&gt;Node1</title>
<path fill="none" stroke="midnightblue" d="M1131.36,-131.505C1130.06,-131.674 1128.77,-131.839 1127.5,-132 986.004,-149.843 820.574,-166.196 722.324,-175.211"/>
<polygon fill="midnightblue" stroke="midnightblue" points="721.789,-171.745 712.149,-176.14 722.426,-178.716 721.789,-171.745"/>
</g>
<!-- Node7&#45;&gt;Node3 -->
<g id="edge13" class="edge"><title>Node7&#45;&gt;Node3</title>
<path fill="none" stroke="midnightblue" d="M1145.73,-112.46C1063.58,-91.6869 854.283,-38.7612 775.3,-18.7885"/>
<polygon fill="midnightblue" stroke="midnightblue" points="776.026,-15.3619 765.473,-16.3035 774.31,-22.1483 776.026,-15.3619"/>
</g>
<!-- Node8 -->
<g id="node9" class="node"><title>Node8</title>
<g id="a_node9"><a xlink:href="../../dd/d35/Colorize_8hpp.html" target="_top" xlink:title="tools/Colorize.hpp">
<polygon fill="white" stroke="black" points="1132,-56.5 1132,-75.5 1227,-75.5 1227,-56.5 1132,-56.5"/>
<text text-anchor="middle" x="1179.5" y="-63.5" font-family="Helvetica,sans-Serif" font-size="10.00">tools/Colorize.hpp</text>
</a>
</g>
</g>
<!-- Node7&#45;&gt;Node8 -->
<g id="edge10" class="edge"><title>Node7&#45;&gt;Node8</title>
<path fill="none" stroke="midnightblue" d="M1179.5,-112.083C1179.5,-105.006 1179.5,-94.8611 1179.5,-85.9865"/>
<polygon fill="midnightblue" stroke="midnightblue" points="1183,-85.751 1179.5,-75.7511 1176,-85.7511 1183,-85.751"/>
</g>
<!-- Node8&#45;&gt;Node3 -->
<g id="edge12" class="edge"><title>Node8&#45;&gt;Node3</title>
<path fill="none" stroke="midnightblue" d="M1131.7,-59.0666C1041.88,-47.9161 850.201,-24.1215 775.35,-14.8296"/>
<polygon fill="midnightblue" stroke="midnightblue" points="775.535,-11.3258 765.18,-13.5671 774.672,-18.2725 775.535,-11.3258"/>
</g>
<!-- Node9 -->
<g id="node10" class="node"><title>Node9</title>
<polygon fill="white" stroke="#bfbfbf" points="1199.5,-0.5 1199.5,-19.5 1251.5,-19.5 1251.5,-0.5 1199.5,-0.5"/>
<text text-anchor="middle" x="1225.5" y="-7.5" font-family="Helvetica,sans-Serif" font-size="10.00">sstream</text>
</g>
<!-- Node8&#45;&gt;Node9 -->
<g id="edge11" class="edge"><title>Node8&#45;&gt;Node9</title>
<path fill="none" stroke="midnightblue" d="M1187.1,-56.083C1193.73,-48.2982 1203.52,-36.8015 1211.56,-27.3665"/>
<polygon fill="midnightblue" stroke="midnightblue" points="1214.23,-29.6332 1218.05,-19.7511 1208.9,-25.0939 1214.23,-29.6332"/>
</g>
<!-- Node10&#45;&gt;Node1 -->
<g id="edge16" class="edge"><title>Node10&#45;&gt;Node1</title>
<path fill="none" stroke="midnightblue" d="M775.088,-131.509C750.469,-141.752 705.415,-159.017 673.275,-170.583"/>
<polygon fill="midnightblue" stroke="midnightblue" points="671.997,-167.322 663.752,-173.975 674.346,-173.916 671.997,-167.322"/>
</g>
<!-- Node10&#45;&gt;Node3 -->
<g id="edge15" class="edge"><title>Node10&#45;&gt;Node3</title>
<path fill="none" stroke="midnightblue" d="M788.734,-112.368C780.917,-94.4563 762.794,-52.9233 752.332,-28.9482"/>
<polygon fill="midnightblue" stroke="midnightblue" points="755.456,-27.357 748.249,-19.5914 749.041,-30.1566 755.456,-27.357"/>
</g>
<!-- Node11&#45;&gt;Node1 -->
<g id="edge19" class="edge"><title>Node11&#45;&gt;Node1</title>
<path fill="none" stroke="midnightblue" d="M1005.81,-131.529C1004.7,-131.687 1003.59,-131.845 1002.5,-132 902.914,-146.157 787.687,-162.439 713.467,-172.6"/>
<polygon fill="midnightblue" stroke="midnightblue" points="712.707,-169.171 703.272,-173.992 713.654,-176.107 712.707,-169.171"/>
</g>
<!-- Node11&#45;&gt;Node3 -->
<g id="edge18" class="edge"><title>Node11&#45;&gt;Node3</title>
<path fill="none" stroke="midnightblue" d="M1032.28,-112.46C975.993,-92.6162 836.488,-43.4318 774.738,-21.6607"/>
<polygon fill="midnightblue" stroke="midnightblue" points="775.77,-18.3137 765.175,-18.2894 773.443,-24.9154 775.77,-18.3137"/>
</g>
<!-- Node12&#45;&gt;Node1 -->
<g id="edge22" class="edge"><title>Node12&#45;&gt;Node1</title>
<path fill="none" stroke="midnightblue" d="M103.03,-129.568C109.283,-130.436 115.549,-131.275 121.5,-132 272.514,-150.405 448.684,-166.226 550.975,-175.042"/>
<polygon fill="midnightblue" stroke="midnightblue" points="550.681,-178.53 560.944,-175.9 551.281,-171.556 550.681,-178.53"/>
</g>
<!-- Node12&#45;&gt;Node3 -->
<g id="edge21" class="edge"><title>Node12&#45;&gt;Node3</title>
<path fill="none" stroke="midnightblue" d="M85.5972,-112.489C141.179,-98.8743 254.915,-72.0977 352.5,-56 486.312,-33.9263 647.602,-19.0807 713.839,-13.4853"/>
<polygon fill="midnightblue" stroke="midnightblue" points="714.323,-16.9572 723.997,-12.6371 713.74,-9.98143 714.323,-16.9572"/>
</g>
<!-- Node13&#45;&gt;Node1 -->
<g id="edge25" class="edge"><title>Node13&#45;&gt;Node1</title>
<path fill="none" stroke="midnightblue" d="M207.73,-129.206C213.74,-130.193 219.789,-131.163 225.5,-132 338.156,-148.511 468.399,-163.545 551.611,-172.835"/>
<polygon fill="midnightblue" stroke="midnightblue" points="551.447,-176.338 561.773,-173.967 552.223,-169.381 551.447,-176.338"/>
</g>
<!-- Node13&#45;&gt;Node3 -->
<g id="edge24" class="edge"><title>Node13&#45;&gt;Node3</title>
<path fill="none" stroke="midnightblue" d="M198.795,-112.411C252.458,-99.1571 359.648,-73.4325 451.5,-56 546.579,-37.955 660.07,-22.1395 713.622,-15.0146"/>
<polygon fill="midnightblue" stroke="midnightblue" points="714.356,-18.4481 723.811,-13.6679 713.439,-11.5085 714.356,-18.4481"/>
</g>
<!-- Node14&#45;&gt;Node1 -->
<g id="edge27" class="edge"><title>Node14&#45;&gt;Node1</title>
<path fill="none" stroke="midnightblue" d="M321.172,-130.067C387.693,-140.532 507.963,-160.208 579.243,-172.255"/>
<polygon fill="midnightblue" stroke="midnightblue" points="578.947,-175.755 589.392,-173.975 580.117,-168.853 578.947,-175.755"/>
</g>
<!-- Node14&#45;&gt;Node3 -->
<g id="edge28" class="edge"><title>Node14&#45;&gt;Node3</title>
<path fill="none" stroke="midnightblue" d="M306.377,-112.442C355.781,-99.6669 452.159,-75.07 534.5,-56 598.157,-41.2572 673.069,-25.6113 713.997,-17.2074"/>
<polygon fill="midnightblue" stroke="midnightblue" points="714.788,-20.6181 723.882,-15.1828 713.384,-13.7604 714.788,-20.6181"/>
</g>
<!-- Node15&#45;&gt;Node1 -->
<g id="edge31" class="edge"><title>Node15&#45;&gt;Node1</title>
<path fill="none" stroke="midnightblue" d="M433.149,-131.509C478.36,-142.017 551.616,-159.915 596.831,-171.468"/>
<polygon fill="midnightblue" stroke="midnightblue" points="596.028,-174.876 606.585,-173.975 597.771,-168.096 596.028,-174.876"/>
</g>
<!-- Node15&#45;&gt;Node3 -->
<g id="edge30" class="edge"><title>Node15&#45;&gt;Node3</title>
<path fill="none" stroke="midnightblue" d="M420.75,-112.46C485.251,-92.2462 646.897,-41.5879 714.275,-20.4722"/>
<polygon fill="midnightblue" stroke="midnightblue" points="715.385,-23.7923 723.881,-17.4619 713.291,-17.1127 715.385,-23.7923"/>
</g>
<!-- Node16&#45;&gt;Node1 -->
<g id="edge34" class="edge"><title>Node16&#45;&gt;Node1</title>
<path fill="none" stroke="midnightblue" d="M538.558,-131.509C560.468,-141.311 593.488,-157.542 615.14,-169.056"/>
<polygon fill="midnightblue" stroke="midnightblue" points="613.749,-172.283 624.208,-173.975 617.086,-166.13 613.749,-172.283"/>
</g>
<!-- Node16&#45;&gt;Node3 -->
<g id="edge33" class="edge"><title>Node16&#45;&gt;Node3</title>
<path fill="none" stroke="midnightblue" d="M534.391,-112.368C574.182,-93.1711 670.21,-46.8418 717.401,-24.074"/>
<polygon fill="midnightblue" stroke="midnightblue" points="719.207,-27.0891 726.692,-19.5914 716.165,-20.7844 719.207,-27.0891"/>
</g>
<!-- Node17&#45;&gt;Node1 -->
<g id="edge37" class="edge"><title>Node17&#45;&gt;Node1</title>
<path fill="none" stroke="midnightblue" d="M641.397,-131.509C643.23,-139.898 643.703,-152.996 642.817,-163.817"/>
<polygon fill="midnightblue" stroke="midnightblue" points="639.315,-163.588 641.401,-173.975 646.248,-164.554 639.315,-163.588"/>
</g>
<!-- Node17&#45;&gt;Node3 -->
<g id="edge36" class="edge"><title>Node17&#45;&gt;Node3</title>
<path fill="none" stroke="midnightblue" d="M644.975,-112.368C663.113,-93.8941 705.922,-50.2926 729.043,-26.7436"/>
<polygon fill="midnightblue" stroke="midnightblue" points="731.556,-29.1792 736.065,-19.5914 726.561,-24.275 731.556,-29.1792"/>
</g>
<!-- Node18&#45;&gt;Node3 -->
<g id="edge44" class="edge"><title>Node18&#45;&gt;Node3</title>
<path fill="none" stroke="midnightblue" d="M1438.25,-57.9831C1433.63,-57.2345 1428.96,-56.5478 1424.5,-56 1175.17,-25.4079 871.675,-14.6068 775.362,-11.8114"/>
<polygon fill="midnightblue" stroke="midnightblue" points="775.259,-8.30717 765.164,-11.5232 775.061,-15.3044 775.259,-8.30717"/>
</g>
<!-- Node18&#45;&gt;Node9 -->
<g id="edge43" class="edge"><title>Node18&#45;&gt;Node9</title>
<path fill="none" stroke="midnightblue" d="M1438.29,-57.1479C1391.04,-46.9012 1308.84,-29.074 1261.63,-18.8355"/>
<polygon fill="midnightblue" stroke="midnightblue" points="1262.35,-15.4093 1251.83,-16.7103 1260.86,-22.2503 1262.35,-15.4093"/>
</g>
<!-- Node19 -->
<g id="node20" class="node"><title>Node19</title>
<polygon fill="white" stroke="#bfbfbf" points="1492,-0.5 1492,-19.5 1541,-19.5 1541,-0.5 1492,-0.5"/>
<text text-anchor="middle" x="1516.5" y="-7.5" font-family="Helvetica,sans-Serif" font-size="10.00">cassert</text>
</g>
<!-- Node18&#45;&gt;Node19 -->
<g id="edge39" class="edge"><title>Node18&#45;&gt;Node19</title>
<path fill="none" stroke="midnightblue" d="M1481.44,-56.083C1487.43,-48.3768 1496.25,-37.0333 1503.55,-27.6531"/>
<polygon fill="midnightblue" stroke="midnightblue" points="1506.32,-29.7934 1509.69,-19.7511 1500.79,-25.4958 1506.32,-29.7934"/>
</g>
<!-- Node20 -->
<g id="node21" class="node"><title>Node20</title>
<polygon fill="white" stroke="#bfbfbf" points="1559,-0.5 1559,-19.5 1606,-19.5 1606,-0.5 1559,-0.5"/>
<text text-anchor="middle" x="1582.5" y="-7.5" font-family="Helvetica,sans-Serif" font-size="10.00">csignal</text>
</g>
<!-- Node18&#45;&gt;Node20 -->
<g id="edge40" class="edge"><title>Node18&#45;&gt;Node20</title>
<path fill="none" stroke="midnightblue" d="M1491.85,-56.324C1509.17,-47.6641 1536.02,-34.2424 1556,-24.249"/>
<polygon fill="midnightblue" stroke="midnightblue" points="1557.81,-27.2572 1565.19,-19.6545 1554.68,-20.9962 1557.81,-27.2572"/>
</g>
<!-- Node21 -->
<g id="node22" class="node"><title>Node21</title>
<polygon fill="white" stroke="#bfbfbf" points="1316.5,-0.5 1316.5,-19.5 1370.5,-19.5 1370.5,-0.5 1316.5,-0.5"/>
<text text-anchor="middle" x="1343.5" y="-7.5" font-family="Helvetica,sans-Serif" font-size="10.00">iostream</text>
</g>
<!-- Node18&#45;&gt;Node21 -->
<g id="edge41" class="edge"><title>Node18&#45;&gt;Node21</title>
<path fill="none" stroke="midnightblue" d="M1453.74,-56.4435C1432.18,-47.5566 1398.24,-33.5632 1373.71,-23.4514"/>
<polygon fill="midnightblue" stroke="midnightblue" points="1374.74,-20.0917 1364.16,-19.5164 1372.07,-26.5634 1374.74,-20.0917"/>
</g>
<!-- Node22 -->
<g id="node23" class="node"><title>Node22</title>
<polygon fill="white" stroke="#bfbfbf" points="1389,-0.5 1389,-19.5 1474,-19.5 1474,-0.5 1389,-0.5"/>
<text text-anchor="middle" x="1431.5" y="-7.5" font-family="Helvetica,sans-Serif" font-size="10.00">spdlog/spdlog.h</text>
</g>
<!-- Node18&#45;&gt;Node22 -->
<g id="edge42" class="edge"><title>Node18&#45;&gt;Node22</title>
<path fill="none" stroke="midnightblue" d="M1467.4,-56.083C1461.26,-48.3768 1452.23,-37.0333 1444.76,-27.6531"/>
<polygon fill="midnightblue" stroke="midnightblue" points="1447.44,-25.3936 1438.47,-19.7511 1441.96,-29.7542 1447.44,-25.3936"/>
</g>
</g>
</svg>
        <g id="navigator" transform="translate(0 0)" fill="#404254">
                <rect fill="#f2f5e9" fill-opacity="0.5" stroke="#606060" stroke-width=".5" x="0" y="0" width="60" height="60"/>
                <use id="zoomplus" xlink:href="#zoomPlus" x="17" y="9" onmousedown="handleZoom(evt,'in')"/>
                <use id="zoomminus" xlink:href="#zoomMin" x="42" y="9" onmousedown="handleZoom(evt,'out')"/>
                <use id="reset" xlink:href="#resetDef" x="30" y="36" onmousedown="handleReset()"/>
                <g id="arrowUp" xlink:href="#dirArrow" transform="translate(30 24)" onmousedown="handlePan(0,-1)">
                  <use xlink:href="#rim" fill="#404040">
                        <set attributeName="fill" to="#808080" begin="arrowUp.mouseover" end="arrowUp.mouseout"/>
                  </use>
                  <path fill="none" stroke="white" stroke-width="1.5" d="M0,-3.0v7 M-2.5,-0.5L0,-3.0L2.5,-0.5"/>
                </g>
                <g id="arrowRight" xlink:href="#dirArrow" transform="rotate(90) translate(36 -43)" onmousedown="handlePan(1,0)">
                  <use xlink:href="#rim" fill="#404040">
                        <set attributeName="fill" to="#808080" begin="arrowRight.mouseover" end="arrowRight.mouseout"/>
                  </use>
                  <path fill="none" stroke="white" stroke-width="1.5" d="M0,-3.0v7 M-2.5,-0.5L0,-3.0L2.5,-0.5"/>
                </g>
                <g id="arrowDown" xlink:href="#dirArrow" transform="rotate(180) translate(-30 -48)" onmousedown="handlePan(0,1)">
                  <use xlink:href="#rim" fill="#404040">
                        <set attributeName="fill" to="#808080" begin="arrowDown.mouseover" end="arrowDown.mouseout"/>
                  </use>
                  <path fill="none" stroke="white" stroke-width="1.5" d="M0,-3.0v7 M-2.5,-0.5L0,-3.0L2.5,-0.5"/>
                </g>
                <g id="arrowLeft" xlink:href="#dirArrow" transform="rotate(270) translate(-36 17)" onmousedown="handlePan(-1,0)">
                  <use xlink:href="#rim" fill="#404040">
                        <set attributeName="fill" to="#808080" begin="arrowLeft.mouseover" end="arrowLeft.mouseout"/>
                  </use>
                  <path fill="none" stroke="white" stroke-width="1.5" d="M0,-3.0v7 M-2.5,-0.5L0,-3.0L2.5,-0.5"/>
                </g>
        </g>
        <svg viewBox="0 0 15 15" width="100%" height="30px" preserveAspectRatio="xMaxYMin meet">
         <g id="arrow_out" transform="scale(0.3 0.3)">
          <a xlink:href="ConfigManager_8hpp__incl_org.svg" target="_base">
           <rect id="button" ry="5" rx="5" y="6" x="6" height="38" width="38"
                fill="#f2f5e9" fill-opacity="0.5" stroke="#606060" stroke-width="1.0"/>
           <path id="arrow"
             d="M 11.500037,31.436501 C 11.940474,20.09759 22.043105,11.32322 32.158766,21.979434 L 37.068811,17.246167 C 37.068811,17.246167 37.088388,32 37.088388,32 L 22.160133,31.978069 C 22.160133,31.978069 26.997745,27.140456 26.997745,27.140456 C 18.528582,18.264221 13.291696,25.230495 11.500037,31.436501 z"
             style="fill:#404040;"/>
          </a>
         </g>
        </svg>
</svg>
