<?xml version="1.0" encoding="UTF-8" standalone="no"?>
<!DOCTYPE svg PUBLIC "-//W3C//DTD SVG 1.1//EN"
 "http://www.w3.org/Graphics/SVG/1.1/DTD/svg11.dtd">
<!-- Generated by graphviz version 2.38.0 (20140413.2041)
 -->
<!-- Title: src/core/tasks/RemoteControlAsyncResponse.hpp Pages: 1 -->
<svg width="289pt" height="151pt"
 viewBox="0.00 0.00 288.50 151.00" xmlns="http://www.w3.org/2000/svg" xmlns:xlink="http://www.w3.org/1999/xlink">
<g id="graph0" class="graph" transform="scale(1 1) rotate(0) translate(4 147)">
<title>src/core/tasks/RemoteControlAsyncResponse.hpp</title>
<polygon fill="white" stroke="none" points="-4,4 -4,-147 284.5,-147 284.5,4 -4,4"/>
<!-- Node0 -->
<g id="node1" class="node"><title>Node0</title>
<polygon fill="#bfbfbf" stroke="black" points="98,-112.5 98,-142.5 246,-142.5 246,-112.5 98,-112.5"/>
<text text-anchor="start" x="106" y="-130.5" font-family="Helvetica,sans-Serif" font-size="10.00">src/core/tasks/RemoteControl</text>
<text text-anchor="middle" x="172" y="-119.5" font-family="Helvetica,sans-Serif" font-size="10.00">AsyncResponse.hpp</text>
</g>
<!-- Node1 -->
<g id="node2" class="node"><title>Node1</title>
<g id="a_node2"><a xlink:href="../../d8/d91/Task_8hpp.html" target="_top" xlink:title="core/tasks/Task.hpp">
<polygon fill="white" stroke="black" points="59,-56.5 59,-75.5 165,-75.5 165,-56.5 59,-56.5"/>
<text text-anchor="middle" x="112" y="-63.5" font-family="Helvetica,sans-Serif" font-size="10.00">core/tasks/Task.hpp</text>
</a>
</g>
</g>
<!-- Node0&#45;&gt;Node1 -->
<g id="edge1" class="edge"><title>Node0&#45;&gt;Node1</title>
<path fill="none" stroke="midnightblue" d="M157.781,-112.399C148.792,-103.486 137.162,-91.9523 127.873,-82.7408"/>
<polygon fill="midnightblue" stroke="midnightblue" points="130.296,-80.214 120.731,-75.6578 125.367,-85.1844 130.296,-80.214"/>
</g>
<!-- Node5 -->
<g id="node6" class="node"><title>Node5</title>
<polygon fill="white" stroke="#bfbfbf" points="183.5,-56.5 183.5,-75.5 280.5,-75.5 280.5,-56.5 183.5,-56.5"/>
<text text-anchor="middle" x="232" y="-63.5" font-family="Helvetica,sans-Serif" font-size="10.00">zmqpp/zmqpp.hpp</text>
</g>
<!-- Node0&#45;&gt;Node5 -->
<g id="edge5" class="edge"><title>Node0&#45;&gt;Node5</title>
<path fill="none" stroke="midnightblue" d="M186.219,-112.399C195.208,-103.486 206.838,-91.9523 216.127,-82.7408"/>
<polygon fill="midnightblue" stroke="midnightblue" points="218.633,-85.1844 223.269,-75.6578 213.704,-80.214 218.633,-85.1844"/>
</g>
<!-- Node2 -->
<g id="node3" class="node"><title>Node2</title>
<polygon fill="white" stroke="#bfbfbf" points="0,-0.5 0,-19.5 46,-19.5 46,-0.5 0,-0.5"/>
<text text-anchor="middle" x="23" y="-7.5" font-family="Helvetica,sans-Serif" font-size="10.00">atomic</text>
</g>
<!-- Node1&#45;&gt;Node2 -->
<g id="edge2" class="edge"><title>Node1&#45;&gt;Node2</title>
<path fill="none" stroke="midnightblue" d="M97.7006,-56.324C83.8171,-47.9002 62.5076,-34.9709 46.1963,-25.0741"/>
<polygon fill="midnightblue" stroke="midnightblue" points="47.6289,-21.8495 37.2639,-19.6545 43.9978,-27.8341 47.6289,-21.8495"/>
</g>
<!-- Node3 -->
<g id="node4" class="node"><title>Node3</title>
<polygon fill="white" stroke="#bfbfbf" points="64.5,-0.5 64.5,-19.5 159.5,-19.5 159.5,-0.5 64.5,-0.5"/>
<text text-anchor="middle" x="112" y="-7.5" font-family="Helvetica,sans-Serif" font-size="10.00">condition_variable</text>
</g>
<!-- Node1&#45;&gt;Node3 -->
<g id="edge3" class="edge"><title>Node1&#45;&gt;Node3</title>
<path fill="none" stroke="midnightblue" d="M112,-56.083C112,-49.0059 112,-38.8611 112,-29.9865"/>
<polygon fill="midnightblue" stroke="midnightblue" points="115.5,-29.751 112,-19.7511 108.5,-29.7511 115.5,-29.751"/>
</g>
<!-- Node4 -->
<g id="node5" class="node"><title>Node4</title>
<polygon fill="white" stroke="#bfbfbf" points="178,-0.5 178,-19.5 230,-19.5 230,-0.5 178,-0.5"/>
<text text-anchor="middle" x="204" y="-7.5" font-family="Helvetica,sans-Serif" font-size="10.00">memory</text>
</g>
<!-- Node1&#45;&gt;Node4 -->
<g id="edge4" class="edge"><title>Node1&#45;&gt;Node4</title>
<path fill="none" stroke="midnightblue" d="M126.781,-56.324C141.267,-47.8215 163.573,-34.7288 180.493,-24.7975"/>
<polygon fill="midnightblue" stroke="midnightblue" points="182.403,-27.735 189.255,-19.6545 178.859,-21.6981 182.403,-27.735"/>
</g>
</g>
</svg>
