<?xml version="1.0" encoding="UTF-8" standalone="no"?>
<!DOCTYPE svg PUBLIC "-//W3C//DTD SVG 1.1//EN"
 "http://www.w3.org/Graphics/SVG/1.1/DTD/svg11.dtd">
<!-- Generated by graphviz version 2.38.0 (20140413.2041)
 -->
<!-- Title: src/modules/sysfsgpio/SysFsGpioConfig.hpp Pages: 1 -->
<svg width="553pt" height="240pt"
 viewBox="0.00 0.00 553.27 240.00" xmlns="http://www.w3.org/2000/svg" xmlns:xlink="http://www.w3.org/1999/xlink">
<g id="graph0" class="graph" transform="scale(1 1) rotate(0) translate(4 236)">
<title>src/modules/sysfsgpio/SysFsGpioConfig.hpp</title>
<polygon fill="white" stroke="none" points="-4,4 -4,-236 549.267,-236 549.267,4 -4,4"/>
<!-- Node49 -->
<g id="node1" class="node"><title>Node49</title>
<polygon fill="#bfbfbf" stroke="black" points="260.5,-201.5 260.5,-231.5 376.5,-231.5 376.5,-201.5 260.5,-201.5"/>
<text text-anchor="start" x="268.5" y="-219.5" font-family="Helvetica,sans-Serif" font-size="10.00">src/modules/sysfsgpio</text>
<text text-anchor="middle" x="318.5" y="-208.5" font-family="Helvetica,sans-Serif" font-size="10.00">/SysFsGpioConfig.hpp</text>
</g>
<!-- Node50 -->
<g id="node2" class="node"><title>Node50</title>
<g id="a_node2"><a xlink:href="../../db/dcb/SysFsGpioModule_8hpp.html" target="_top" xlink:title="src/modules/sysfsgpio\l/SysFsGpioModule.hpp">
<polygon fill="white" stroke="black" points="123,-134.5 123,-164.5 242,-164.5 242,-134.5 123,-134.5"/>
<text text-anchor="start" x="131" y="-152.5" font-family="Helvetica,sans-Serif" font-size="10.00">src/modules/sysfsgpio</text>
<text text-anchor="middle" x="182.5" y="-141.5" font-family="Helvetica,sans-Serif" font-size="10.00">/SysFsGpioModule.hpp</text>
</a>
</g>
</g>
<!-- Node49&#45;&gt;Node50 -->
<g id="edge1" class="edge"><title>Node49&#45;&gt;Node50</title>
<path fill="none" stroke="midnightblue" d="M279.776,-196.992C258.219,-186.689 231.811,-174.068 211.952,-164.577"/>
<polygon fill="midnightblue" stroke="midnightblue" points="278.458,-200.242 288.99,-201.396 281.477,-193.926 278.458,-200.242"/>
</g>
<!-- Node54 -->
<g id="node6" class="node"><title>Node54</title>
<g id="a_node6"><a xlink:href="../../da/d77/SysFsGpioModule_8cpp.html" target="_top" xlink:title="src/modules/sysfsgpio\l/SysFsGpioModule.cpp">
<polygon fill="white" stroke="black" points="0,-67.5 0,-97.5 119,-97.5 119,-67.5 0,-67.5"/>
<text text-anchor="start" x="8" y="-85.5" font-family="Helvetica,sans-Serif" font-size="10.00">src/modules/sysfsgpio</text>
<text text-anchor="middle" x="59.5" y="-74.5" font-family="Helvetica,sans-Serif" font-size="10.00">/SysFsGpioModule.cpp</text>
</a>
</g>
</g>
<!-- Node49&#45;&gt;Node54 -->
<g id="edge9" class="edge"><title>Node49&#45;&gt;Node54</title>
<path fill="none" stroke="midnightblue" d="M250.348,-211.265C207.76,-205.75 153.59,-193.234 113.5,-165 89.2148,-147.897 72.8978,-116.092 65.0035,-97.6776"/>
<polygon fill="midnightblue" stroke="midnightblue" points="250.009,-214.75 260.354,-212.461 250.84,-207.799 250.009,-214.75"/>
</g>
<!-- Node55 -->
<g id="node7" class="node"><title>Node55</title>
<g id="a_node7"><a xlink:href="../../da/d18/src_2modules_2sysfsgpio_2SysFsGpioConfig_8cpp.html" target="_top" xlink:title="src/modules/sysfsgpio\l/SysFsGpioConfig.cpp">
<polygon fill="white" stroke="black" points="260.5,-134.5 260.5,-164.5 376.5,-164.5 376.5,-134.5 260.5,-134.5"/>
<text text-anchor="start" x="268.5" y="-152.5" font-family="Helvetica,sans-Serif" font-size="10.00">src/modules/sysfsgpio</text>
<text text-anchor="middle" x="318.5" y="-141.5" font-family="Helvetica,sans-Serif" font-size="10.00">/SysFsGpioConfig.cpp</text>
</a>
</g>
</g>
<!-- Node49&#45;&gt;Node55 -->
<g id="edge8" class="edge"><title>Node49&#45;&gt;Node55</title>
<path fill="none" stroke="midnightblue" d="M318.5,-191.108C318.5,-182.154 318.5,-172.323 318.5,-164.577"/>
<polygon fill="midnightblue" stroke="midnightblue" points="315,-191.396 318.5,-201.396 322,-191.396 315,-191.396"/>
</g>
<!-- Node56 -->
<g id="node8" class="node"><title>Node56</title>
<g id="a_node8"><a xlink:href="../../d5/d6a/test_2SysFsGpioConfig_8cpp.html" target="_top" xlink:title="test/SysFsGpioConfig.cpp">
<polygon fill="white" stroke="black" points="394.5,-140 394.5,-159 526.5,-159 526.5,-140 394.5,-140"/>
<text text-anchor="middle" x="460.5" y="-147" font-family="Helvetica,sans-Serif" font-size="10.00">test/SysFsGpioConfig.cpp</text>
</a>
</g>
</g>
<!-- Node49&#45;&gt;Node56 -->
<g id="edge10" class="edge"><title>Node49&#45;&gt;Node56</title>
<path fill="none" stroke="midnightblue" d="M358.628,-197.131C385.96,-184.62 420.871,-168.64 441.915,-159.007"/>
<polygon fill="midnightblue" stroke="midnightblue" points="356.948,-194.051 349.312,-201.396 359.861,-200.416 356.948,-194.051"/>
</g>
<!-- Node51 -->
<g id="node3" class="node"><title>Node51</title>
<g id="a_node3"><a xlink:href="../../d2/d18/sysfsgpio_2init_8cpp.html" target="_top" xlink:title="src/modules/sysfsgpio\l/init.cpp">
<polygon fill="white" stroke="black" points="137,-67.5 137,-97.5 252,-97.5 252,-67.5 137,-67.5"/>
<text text-anchor="start" x="145" y="-85.5" font-family="Helvetica,sans-Serif" font-size="10.00">src/modules/sysfsgpio</text>
<text text-anchor="middle" x="194.5" y="-74.5" font-family="Helvetica,sans-Serif" font-size="10.00">/init.cpp</text>
</a>
</g>
</g>
<!-- Node50&#45;&gt;Node51 -->
<g id="edge2" class="edge"><title>Node50&#45;&gt;Node51</title>
<path fill="none" stroke="midnightblue" d="M186.949,-124.403C188.616,-115.37 190.455,-105.408 191.901,-97.5765"/>
<polygon fill="midnightblue" stroke="midnightblue" points="183.478,-123.927 185.104,-134.396 190.361,-125.198 183.478,-123.927"/>
</g>
<!-- Node52 -->
<g id="node4" class="node"><title>Node52</title>
<g id="a_node4"><a xlink:href="../../d7/def/SysFSGPIOPin_8hpp.html" target="_top" xlink:title="src/modules/sysfsgpio\l/SysFSGPIOPin.hpp">
<polygon fill="white" stroke="black" points="270,-67.5 270,-97.5 385,-97.5 385,-67.5 270,-67.5"/>
<text text-anchor="start" x="278" y="-85.5" font-family="Helvetica,sans-Serif" font-size="10.00">src/modules/sysfsgpio</text>
<text text-anchor="middle" x="327.5" y="-74.5" font-family="Helvetica,sans-Serif" font-size="10.00">/SysFSGPIOPin.hpp</text>
</a>
</g>
</g>
<!-- Node50&#45;&gt;Node52 -->
<g id="edge3" class="edge"><title>Node50&#45;&gt;Node52</title>
<path fill="none" stroke="midnightblue" d="M217.331,-130.131C239.432,-119.802 267.903,-107.11 290.424,-97.5765"/>
<polygon fill="midnightblue" stroke="midnightblue" points="215.837,-126.965 208.284,-134.396 218.822,-133.297 215.837,-126.965"/>
</g>
<!-- Node50&#45;&gt;Node54 -->
<g id="edge7" class="edge"><title>Node50&#45;&gt;Node54</title>
<path fill="none" stroke="midnightblue" d="M146.952,-129.714C127.553,-119.463 103.936,-106.983 86.1371,-97.5765"/>
<polygon fill="midnightblue" stroke="midnightblue" points="145.334,-132.818 155.811,-134.396 148.605,-126.629 145.334,-132.818"/>
</g>
<!-- Node52&#45;&gt;Node49 -->
<g id="edge5" class="edge"><title>Node52&#45;&gt;Node49</title>
<path fill="none" stroke="midnightblue" d="M395.708,-87.4016C471.022,-94.3132 576.558,-113.29 535.5,-165 515.987,-189.575 434.042,-203.284 376.64,-210.03"/>
<polygon fill="midnightblue" stroke="midnightblue" points="395.564,-83.8762 385.3,-86.5043 394.962,-90.8504 395.564,-83.8762"/>
</g>
<!-- Node52&#45;&gt;Node50 -->
<g id="edge4" class="edge"><title>Node52&#45;&gt;Node50</title>
<path fill="none" stroke="midnightblue" d="M292.437,-101.978C270.39,-112.276 242.073,-124.899 219.641,-134.396"/>
<polygon fill="midnightblue" stroke="midnightblue" points="294.221,-105.007 301.773,-97.5765 291.236,-98.6751 294.221,-105.007"/>
</g>
<!-- Node53 -->
<g id="node5" class="node"><title>Node53</title>
<g id="a_node5"><a xlink:href="../../db/dcf/SysFSGPIOPin_8cpp.html" target="_top" xlink:title="src/modules/sysfsgpio\l/SysFSGPIOPin.cpp">
<polygon fill="white" stroke="black" points="270,-0.5 270,-30.5 385,-30.5 385,-0.5 270,-0.5"/>
<text text-anchor="start" x="278" y="-18.5" font-family="Helvetica,sans-Serif" font-size="10.00">src/modules/sysfsgpio</text>
<text text-anchor="middle" x="327.5" y="-7.5" font-family="Helvetica,sans-Serif" font-size="10.00">/SysFSGPIOPin.cpp</text>
</a>
</g>
</g>
<!-- Node52&#45;&gt;Node53 -->
<g id="edge6" class="edge"><title>Node52&#45;&gt;Node53</title>
<path fill="none" stroke="midnightblue" d="M327.5,-57.1081C327.5,-48.1539 327.5,-38.3227 327.5,-30.5765"/>
<polygon fill="midnightblue" stroke="midnightblue" points="324,-57.3959 327.5,-67.396 331,-57.396 324,-57.3959"/>
</g>
</g>
</svg>
