<?xml version="1.0" encoding="UTF-8" standalone="no"?>
<!DOCTYPE svg PUBLIC "-//W3C//DTD SVG 1.1//EN"
 "http://www.w3.org/Graphics/SVG/1.1/DTD/svg11.dtd">
<!-- Generated by graphviz version 2.38.0 (20140413.2041)
 -->
<!-- Title: Leosac::Module::Wiegand::Strategy::WiegandPinBuffered Pages: 1 -->
<!--zoomable 300 -->
<svg id="main" version="1.1" xmlns="http://www.w3.org/2000/svg" xmlns:xlink="http://www.w3.org/1999/xlink" xml:space="preserve" onload="init(evt)">
<style type="text/css"><![CDATA[
.edge:hover path { stroke: red; }
.edge:hover polygon { stroke: red; fill: red; }
]]></style>
<script type="text/javascript"><![CDATA[
var edges = document.getElementsByTagName('g');
if (edges && edges.length) {
  for (var i=0;i<edges.length;i++) {
    if (edges[i].id.substr(0,4)=='edge') {
      edges[i].setAttribute('class','edge');
    }
  }
}
]]></script>
        <defs>
                <circle id="rim" cx="0" cy="0" r="7"/>
                <circle id="rim2" cx="0" cy="0" r="3.5"/>
                <g id="zoomPlus">
                        <use xlink:href="#rim" fill="#404040">
                                <set attributeName="fill" to="#808080" begin="zoomplus.mouseover" end="zoomplus.mouseout"/>
                        </use>
                        <path d="M-4,0h8M0,-4v8" fill="none" stroke="white" stroke-width="1.5" pointer-events="none"/>
                </g>
                <g id="zoomMin">
                        <use xlink:href="#rim" fill="#404040">
                                <set attributeName="fill" to="#808080" begin="zoomminus.mouseover" end="zoomminus.mouseout"/>
                        </use>
                        <path d="M-4,0h8" fill="none" stroke="white" stroke-width="1.5" pointer-events="none"/>
                </g>
                <g id="dirArrow">
                        <path fill="none" stroke="white" stroke-width="1.5" d="M0,-3.0v7 M-2.5,-0.5L0,-3.0L2.5,-0.5"/>
                </g>
               <g id="resetDef">
                       <use xlink:href="#rim2" fill="#404040">
                               <set attributeName="fill" to="#808080" begin="reset.mouseover" end="reset.mouseout"/>
                       </use>
               </g>
        </defs>

<script type="text/javascript">
var viewWidth = 581;
var viewHeight = 300;
var sectionId = 'dynsection-1';
</script>
<script xlink:href="../../svgpan.js"/>
<svg id="graph" class="graph">
<g id="viewport">
<title>Leosac::Module::Wiegand::Strategy::WiegandPinBuffered</title>
<polygon fill="white" stroke="none" points="-4,4 -4,-296 577,-296 577,4 -4,4"/>
<!-- Node3 -->
<g id="node1" class="node"><title>Node3</title>
<polygon fill="#bfbfbf" stroke="black" points="418,-30.5 418,-60.5 573,-60.5 573,-30.5 418,-30.5"/>
<text text-anchor="start" x="426" y="-48.5" font-family="Helvetica,sans-Serif" font-size="10.00">Leosac::Module::Wiegand</text>
<text text-anchor="middle" x="495.5" y="-37.5" font-family="Helvetica,sans-Serif" font-size="10.00">::Strategy::WiegandPinBuffered</text>
</g>
<!-- Node4 -->
<g id="node2" class="node"><title>Node4</title>
<g id="a_node2"><a xlink:href="../../d1/db0/classLeosac_1_1Module_1_1Wiegand_1_1Strategy_1_1PinReading.html" target="_top" xlink:title="Interface for a strategy that read a PIN code. ">
<polygon fill="white" stroke="black" points="196.5,-55.5 196.5,-85.5 326.5,-85.5 326.5,-55.5 196.5,-55.5"/>
<text text-anchor="start" x="204.5" y="-73.5" font-family="Helvetica,sans-Serif" font-size="10.00">Leosac::Module::Wiegand</text>
<text text-anchor="middle" x="261.5" y="-62.5" font-family="Helvetica,sans-Serif" font-size="10.00">::Strategy::PinReading</text>
</a>
</g>
</g>
<!-- Node4&#45;&gt;Node3 -->
<g id="edge1" class="edge"><title>Node4&#45;&gt;Node3</title>
<path fill="none" stroke="midnightblue" d="M336.992,-75.7422C357.491,-76.0561 379.673,-75.3469 400,-72.5 417.067,-70.1097 435.376,-65.4028 451.291,-60.5793"/>
<polygon fill="midnightblue" stroke="midnightblue" points="336.843,-72.2378 326.764,-75.5009 336.678,-79.2359 336.843,-72.2378"/>
</g>
<!-- Node5 -->
<g id="node3" class="node"><title>Node5</title>
<g id="a_node3"><a xlink:href="../../d5/d39/classLeosac_1_1Module_1_1Wiegand_1_1Strategy_1_1WiegandStrategy.html" target="_top" xlink:title="The multiple modes available to wiegand reader are implemented through the strategy pattern...">
<polygon fill="white" stroke="black" points="0,-107.5 0,-137.5 140,-137.5 140,-107.5 0,-107.5"/>
<text text-anchor="start" x="8" y="-125.5" font-family="Helvetica,sans-Serif" font-size="10.00">Leosac::Module::Wiegand</text>
<text text-anchor="middle" x="70" y="-114.5" font-family="Helvetica,sans-Serif" font-size="10.00">::Strategy::WiegandStrategy</text>
</a>
</g>
</g>
<!-- Node5&#45;&gt;Node4 -->
<g id="edge2" class="edge"><title>Node5&#45;&gt;Node4</title>
<path fill="none" stroke="midnightblue" d="M135.743,-104.734C158.542,-98.4781 183.925,-91.5128 205.812,-85.5068"/>
<polygon fill="midnightblue" stroke="midnightblue" points="134.529,-101.438 125.811,-107.459 136.381,-108.188 134.529,-101.438"/>
</g>
<!-- Node7 -->
<g id="node5" class="node"><title>Node7</title>
<polygon fill="white" stroke="#bfbfbf" points="191,-152 191,-193 332,-193 332,-152 191,-152"/>
<text text-anchor="start" x="199" y="-181" font-family="Helvetica,sans-Serif" font-size="10.00">std::unique_ptr&lt; Leosac</text>
<text text-anchor="start" x="199" y="-170" font-family="Helvetica,sans-Serif" font-size="10.00">::Module::Wiegand::Strategy</text>
<text text-anchor="middle" x="261.5" y="-159" font-family="Helvetica,sans-Serif" font-size="10.00">::WiegandStrategy &gt;</text>
</g>
<!-- Node5&#45;&gt;Node7 -->
<g id="edge5" class="edge"><title>Node5&#45;&gt;Node7</title>
<path fill="none" stroke="#9a32cd" stroke-dasharray="5,2" d="M137.817,-140.13C155.033,-144.672 173.599,-149.571 190.95,-154.149"/>
<polygon fill="#9a32cd" stroke="#9a32cd" points="138.418,-136.669 127.856,-137.502 136.632,-143.437 138.418,-136.669"/>
<text text-anchor="middle" x="165.5" y="-152.5" font-family="Helvetica,sans-Serif" font-size="10.00"> ptr</text>
</g>
<!-- Node6 -->
<g id="node4" class="node"><title>Node6</title>
<g id="a_node4"><a xlink:href="../../d7/d64/classLeosac_1_1Module_1_1Wiegand_1_1WiegandReaderImpl.html" target="_top" xlink:title="An implementation class that represents a Wiegand Reader. ">
<polygon fill="white" stroke="black" points="430.5,-157.5 430.5,-187.5 560.5,-187.5 560.5,-157.5 430.5,-157.5"/>
<text text-anchor="start" x="438.5" y="-175.5" font-family="Helvetica,sans-Serif" font-size="10.00">Leosac::Module::Wiegand</text>
<text text-anchor="middle" x="495.5" y="-164.5" font-family="Helvetica,sans-Serif" font-size="10.00">::WiegandReaderImpl</text>
</a>
</g>
</g>
<!-- Node6&#45;&gt;Node5 -->
<g id="edge3" class="edge"><title>Node6&#45;&gt;Node5</title>
<path fill="none" stroke="#9a32cd" stroke-dasharray="5,2" d="M436.632,-154.711C405.868,-146.069 367.223,-136.493 332,-131.5 267.357,-122.337 192.856,-120.635 140.04,-120.899"/>
<polygon fill="#9a32cd" stroke="#9a32cd" points="435.752,-158.1 446.329,-157.477 437.672,-151.368 435.752,-158.1"/>
<text text-anchor="middle" x="261.5" y="-134.5" font-family="Helvetica,sans-Serif" font-size="10.00"> reader_</text>
</g>
<!-- Node7&#45;&gt;Node6 -->
<g id="edge4" class="edge"><title>Node7&#45;&gt;Node6</title>
<path fill="none" stroke="#9a32cd" stroke-dasharray="5,2" d="M342.156,-172.5C370.994,-172.5 403.165,-172.5 430.486,-172.5"/>
<polygon fill="#9a32cd" stroke="#9a32cd" points="342.108,-169 332.108,-172.5 342.108,-176 342.108,-169"/>
<text text-anchor="middle" x="375" y="-175.5" font-family="Helvetica,sans-Serif" font-size="10.00"> strategy_</text>
</g>
<!-- Node8 -->
<g id="node6" class="node"><title>Node8</title>
<polygon fill="white" stroke="#bfbfbf" points="200.5,-261.5 200.5,-291.5 322.5,-291.5 322.5,-261.5 200.5,-261.5"/>
<text text-anchor="start" x="208.5" y="-279.5" font-family="Helvetica,sans-Serif" font-size="10.00">std::unique_ptr&lt; Leosac</text>
<text text-anchor="middle" x="261.5" y="-268.5" font-family="Helvetica,sans-Serif" font-size="10.00">::Hardware::FLED &gt;</text>
</g>
<!-- Node8&#45;&gt;Node6 -->
<g id="edge6" class="edge"><title>Node8&#45;&gt;Node6</title>
<path fill="none" stroke="#9a32cd" stroke-dasharray="5,2" d="M315.185,-257.912C320.878,-255.796 326.571,-253.632 332,-251.5 362.582,-239.49 370.342,-236.64 400,-222.5 423.121,-211.477 448.775,-197.808 467.513,-187.55"/>
<polygon fill="#9a32cd" stroke="#9a32cd" points="313.83,-254.681 305.651,-261.416 316.245,-261.251 313.83,-254.681"/>
<text text-anchor="middle" x="375" y="-258.5" font-family="Helvetica,sans-Serif" font-size="10.00"> buzzer_</text>
<text text-anchor="middle" x="375" y="-247.5" font-family="Helvetica,sans-Serif" font-size="10.00">green_led_</text>
</g>
<!-- Node9 -->
<g id="node7" class="node"><title>Node9</title>
<g id="a_node7"><a xlink:href="../../db/df5/classLeosac_1_1Hardware_1_1FLED.html" target="_top" xlink:title="A Facade to a LED object. ">
<polygon fill="white" stroke="black" points="6,-267 6,-286 134,-286 134,-267 6,-267"/>
<text text-anchor="middle" x="70" y="-274" font-family="Helvetica,sans-Serif" font-size="10.00">Leosac::Hardware::FLED</text>
</a>
</g>
</g>
<!-- Node9&#45;&gt;Node8 -->
<g id="edge7" class="edge"><title>Node9&#45;&gt;Node8</title>
<path fill="none" stroke="#9a32cd" stroke-dasharray="5,2" d="M144.251,-276.5C162.771,-276.5 182.448,-276.5 200.244,-276.5"/>
<polygon fill="#9a32cd" stroke="#9a32cd" points="144.101,-273 134.101,-276.5 144.101,-280 144.101,-273"/>
<text text-anchor="middle" x="165.5" y="-279.5" font-family="Helvetica,sans-Serif" font-size="10.00"> ptr</text>
</g>
<!-- Node10 -->
<g id="node8" class="node"><title>Node10</title>
<g id="a_node8"><a xlink:title="STL class. ">
<polygon fill="white" stroke="#bfbfbf" points="231.5,-6 231.5,-25 291.5,-25 291.5,-6 231.5,-6"/>
<text text-anchor="middle" x="261.5" y="-13" font-family="Helvetica,sans-Serif" font-size="10.00">std::string</text>
</a>
</g>
</g>
<!-- Node10&#45;&gt;Node3 -->
<g id="edge11" class="edge"><title>Node10&#45;&gt;Node3</title>
<path fill="none" stroke="#9a32cd" stroke-dasharray="5,2" d="M301.85,-7.01829C329.544,-2.41135 367.345,1.12651 400,-5.5 423.57,-10.283 448.561,-21.1451 466.919,-30.3446"/>
<polygon fill="#9a32cd" stroke="#9a32cd" points="300.993,-3.61582 291.763,-8.81732 302.222,-10.5071 300.993,-3.61582"/>
<text text-anchor="middle" x="375" y="-8.5" font-family="Helvetica,sans-Serif" font-size="10.00"> pin_</text>
</g>
<!-- Node10&#45;&gt;Node6 -->
<g id="edge8" class="edge"><title>Node10&#45;&gt;Node6</title>
<path fill="none" stroke="#9a32cd" stroke-dasharray="5,2" d="M294.235,-29.1351C306.094,-34.2472 319.673,-40.1203 332,-45.5 362.275,-58.7124 372.868,-56.6587 400,-75.5 434.181,-99.236 466.271,-136.52 482.822,-157.27"/>
<polygon fill="#9a32cd" stroke="#9a32cd" points="295.311,-25.7881 284.743,-25.0474 292.543,-32.2173 295.311,-25.7881"/>
<text text-anchor="middle" x="375" y="-100.5" font-family="Helvetica,sans-Serif" font-size="10.00"> topic_low_</text>
<text text-anchor="middle" x="375" y="-89.5" font-family="Helvetica,sans-Serif" font-size="10.00">topic_high_</text>
<text text-anchor="middle" x="375" y="-78.5" font-family="Helvetica,sans-Serif" font-size="10.00">name_</text>
</g>
<!-- Node11 -->
<g id="node9" class="node"><title>Node11</title>
<g id="a_node9"><a xlink:title="STL class. ">
<polygon fill="white" stroke="#bfbfbf" points="22.5,-0.5 22.5,-30.5 117.5,-30.5 117.5,-0.5 22.5,-0.5"/>
<text text-anchor="start" x="30.5" y="-18.5" font-family="Helvetica,sans-Serif" font-size="10.00">std::basic_string&lt;</text>
<text text-anchor="middle" x="70" y="-7.5" font-family="Helvetica,sans-Serif" font-size="10.00"> char &gt;</text>
</a>
</g>
</g>
<!-- Node11&#45;&gt;Node10 -->
<g id="edge9" class="edge"><title>Node11&#45;&gt;Node10</title>
<path fill="none" stroke="midnightblue" d="M128.127,-15.5C162.143,-15.5 203.883,-15.5 231.287,-15.5"/>
<polygon fill="midnightblue" stroke="midnightblue" points="127.843,-12.0001 117.843,-15.5 127.843,-19.0001 127.843,-12.0001"/>
</g>
<!-- Node12 -->
<g id="node10" class="node"><title>Node12</title>
<polygon fill="white" stroke="#bfbfbf" points="212,-212.5 212,-242.5 311,-242.5 311,-212.5 212,-212.5"/>
<text text-anchor="start" x="220" y="-230.5" font-family="Helvetica,sans-Serif" font-size="10.00">std::array&lt; uint8_t,</text>
<text text-anchor="middle" x="261.5" y="-219.5" font-family="Helvetica,sans-Serif" font-size="10.00"> 16 &gt;</text>
</g>
<!-- Node12&#45;&gt;Node6 -->
<g id="edge10" class="edge"><title>Node12&#45;&gt;Node6</title>
<path fill="none" stroke="#9a32cd" stroke-dasharray="5,2" d="M321.234,-213.576C354.714,-205.639 396.689,-195.688 430.94,-187.568"/>
<polygon fill="#9a32cd" stroke="#9a32cd" points="320.058,-210.258 311.135,-215.97 321.673,-217.069 320.058,-210.258"/>
<text text-anchor="middle" x="375" y="-210.5" font-family="Helvetica,sans-Serif" font-size="10.00"> buffer_</text>
</g>
</g>
</svg>
        <g id="navigator" transform="translate(0 0)" fill="#404254">
                <rect fill="#f2f5e9" fill-opacity="0.5" stroke="#606060" stroke-width=".5" x="0" y="0" width="60" height="60"/>
                <use id="zoomplus" xlink:href="#zoomPlus" x="17" y="9" onmousedown="handleZoom(evt,'in')"/>
                <use id="zoomminus" xlink:href="#zoomMin" x="42" y="9" onmousedown="handleZoom(evt,'out')"/>
                <use id="reset" xlink:href="#resetDef" x="30" y="36" onmousedown="handleReset()"/>
                <g id="arrowUp" xlink:href="#dirArrow" transform="translate(30 24)" onmousedown="handlePan(0,-1)">
                  <use xlink:href="#rim" fill="#404040">
                        <set attributeName="fill" to="#808080" begin="arrowUp.mouseover" end="arrowUp.mouseout"/>
                  </use>
                  <path fill="none" stroke="white" stroke-width="1.5" d="M0,-3.0v7 M-2.5,-0.5L0,-3.0L2.5,-0.5"/>
                </g>
                <g id="arrowRight" xlink:href="#dirArrow" transform="rotate(90) translate(36 -43)" onmousedown="handlePan(1,0)">
                  <use xlink:href="#rim" fill="#404040">
                        <set attributeName="fill" to="#808080" begin="arrowRight.mouseover" end="arrowRight.mouseout"/>
                  </use>
                  <path fill="none" stroke="white" stroke-width="1.5" d="M0,-3.0v7 M-2.5,-0.5L0,-3.0L2.5,-0.5"/>
                </g>
                <g id="arrowDown" xlink:href="#dirArrow" transform="rotate(180) translate(-30 -48)" onmousedown="handlePan(0,1)">
                  <use xlink:href="#rim" fill="#404040">
                        <set attributeName="fill" to="#808080" begin="arrowDown.mouseover" end="arrowDown.mouseout"/>
                  </use>
                  <path fill="none" stroke="white" stroke-width="1.5" d="M0,-3.0v7 M-2.5,-0.5L0,-3.0L2.5,-0.5"/>
                </g>
                <g id="arrowLeft" xlink:href="#dirArrow" transform="rotate(270) translate(-36 17)" onmousedown="handlePan(-1,0)">
                  <use xlink:href="#rim" fill="#404040">
                        <set attributeName="fill" to="#808080" begin="arrowLeft.mouseover" end="arrowLeft.mouseout"/>
                  </use>
                  <path fill="none" stroke="white" stroke-width="1.5" d="M0,-3.0v7 M-2.5,-0.5L0,-3.0L2.5,-0.5"/>
                </g>
        </g>
        <svg viewBox="0 0 15 15" width="100%" height="30px" preserveAspectRatio="xMaxYMin meet">
         <g id="arrow_out" transform="scale(0.3 0.3)">
          <a xlink:href="classLeosac_1_1Module_1_1Wiegand_1_1Strategy_1_1WiegandPinBuffered__coll__graph_org.svg" target="_base">
           <rect id="button" ry="5" rx="5" y="6" x="6" height="38" width="38"
                fill="#f2f5e9" fill-opacity="0.5" stroke="#606060" stroke-width="1.0"/>
           <path id="arrow"
             d="M 11.500037,31.436501 C 11.940474,20.09759 22.043105,11.32322 32.158766,21.979434 L 37.068811,17.246167 C 37.068811,17.246167 37.088388,32 37.088388,32 L 22.160133,31.978069 C 22.160133,31.978069 26.997745,27.140456 26.997745,27.140456 C 18.528582,18.264221 13.291696,25.230495 11.500037,31.436501 z"
             style="fill:#404040;"/>
          </a>
         </g>
        </svg>
</svg>
