<?xml version="1.0" encoding="UTF-8" standalone="no"?>
<!DOCTYPE svg PUBLIC "-//W3C//DTD SVG 1.1//EN"
 "http://www.w3.org/Graphics/SVG/1.1/DTD/svg11.dtd">
<!-- Generated by graphviz version 2.38.0 (20140413.2041)
 -->
<!-- Title: src/modules/websock&#45;api/api/ScheduleCRUD.hpp Pages: 1 -->
<svg width="278pt" height="106pt"
 viewBox="0.00 0.00 278.00 106.00" xmlns="http://www.w3.org/2000/svg" xmlns:xlink="http://www.w3.org/1999/xlink">
<g id="graph0" class="graph" transform="scale(1 1) rotate(0) translate(4 102)">
<title>src/modules/websock&#45;api/api/ScheduleCRUD.hpp</title>
<polygon fill="white" stroke="none" points="-4,4 -4,-102 274,-102 274,4 -4,4"/>
<!-- Node27 -->
<g id="node1" class="node"><title>Node27</title>
<polygon fill="#bfbfbf" stroke="black" points="72,-67.5 72,-97.5 212,-97.5 212,-67.5 72,-67.5"/>
<text text-anchor="start" x="80" y="-85.5" font-family="Helvetica,sans-Serif" font-size="10.00">src/modules/websock</text>
<text text-anchor="middle" x="142" y="-74.5" font-family="Helvetica,sans-Serif" font-size="10.00">&#45;api/api/ScheduleCRUD.hpp</text>
</g>
<!-- Node28 -->
<g id="node2" class="node"><title>Node28</title>
<g id="a_node2"><a xlink:href="../../df/dfa/ScheduleCRUD_8cpp.html" target="_top" xlink:title="src/modules/websock\l&#45;api/api/ScheduleCRUD.cpp">
<polygon fill="white" stroke="black" points="0,-0.5 0,-30.5 140,-30.5 140,-0.5 0,-0.5"/>
<text text-anchor="start" x="8" y="-18.5" font-family="Helvetica,sans-Serif" font-size="10.00">src/modules/websock</text>
<text text-anchor="middle" x="70" y="-7.5" font-family="Helvetica,sans-Serif" font-size="10.00">&#45;api/api/ScheduleCRUD.cpp</text>
</a>
</g>
</g>
<!-- Node27&#45;&gt;Node28 -->
<g id="edge1" class="edge"><title>Node27&#45;&gt;Node28</title>
<path fill="none" stroke="midnightblue" d="M118.847,-60.5978C107.975,-50.7831 95.3043,-39.3442 85.5924,-30.5765"/>
<polygon fill="midnightblue" stroke="midnightblue" points="116.609,-63.2929 126.377,-67.396 121.3,-58.097 116.609,-63.2929"/>
</g>
<!-- Node29 -->
<g id="node3" class="node"><title>Node29</title>
<g id="a_node3"><a xlink:href="../../d4/d2c/WSServer_8cpp.html" target="_top" xlink:title="src/modules/websock\l&#45;api/WSServer.cpp">
<polygon fill="white" stroke="black" points="158,-0.5 158,-30.5 270,-30.5 270,-0.5 158,-0.5"/>
<text text-anchor="start" x="166" y="-18.5" font-family="Helvetica,sans-Serif" font-size="10.00">src/modules/websock</text>
<text text-anchor="middle" x="214" y="-7.5" font-family="Helvetica,sans-Serif" font-size="10.00">&#45;api/WSServer.cpp</text>
</a>
</g>
</g>
<!-- Node27&#45;&gt;Node29 -->
<g id="edge2" class="edge"><title>Node27&#45;&gt;Node29</title>
<path fill="none" stroke="midnightblue" d="M165.153,-60.5978C176.025,-50.7831 188.696,-39.3442 198.408,-30.5765"/>
<polygon fill="midnightblue" stroke="midnightblue" points="162.7,-58.097 157.623,-67.396 167.391,-63.2929 162.7,-58.097"/>
</g>
</g>
</svg>
