<?xml version="1.0" encoding="UTF-8" standalone="no"?>
<!DOCTYPE svg PUBLIC "-//W3C//DTD SVG 1.1//EN"
 "http://www.w3.org/Graphics/SVG/1.1/DTD/svg11.dtd">
<!-- Generated by graphviz version 2.38.0 (20140413.2041)
 -->
<!-- Title: src/modules/smtp/SMTPServerInfoSerializer.hpp Pages: 1 -->
<svg width="356pt" height="106pt"
 viewBox="0.00 0.00 356.00 106.00" xmlns="http://www.w3.org/2000/svg" xmlns:xlink="http://www.w3.org/1999/xlink">
<g id="graph0" class="graph" transform="scale(1 1) rotate(0) translate(4 102)">
<title>src/modules/smtp/SMTPServerInfoSerializer.hpp</title>
<polygon fill="white" stroke="none" points="-4,4 -4,-102 352,-102 352,4 -4,4"/>
<!-- Node10 -->
<g id="node1" class="node"><title>Node10</title>
<polygon fill="#bfbfbf" stroke="black" points="102,-67.5 102,-97.5 256,-97.5 256,-67.5 102,-67.5"/>
<text text-anchor="start" x="110" y="-85.5" font-family="Helvetica,sans-Serif" font-size="10.00">src/modules/smtp/SMTPServer</text>
<text text-anchor="middle" x="179" y="-74.5" font-family="Helvetica,sans-Serif" font-size="10.00">InfoSerializer.hpp</text>
</g>
<!-- Node11 -->
<g id="node2" class="node"><title>Node11</title>
<g id="a_node2"><a xlink:href="../../da/d6f/SMTPModule_8cpp.html" target="_top" xlink:title="src/modules/smtp/SMTPModule.cpp">
<polygon fill="white" stroke="black" points="0,-6 0,-25 176,-25 176,-6 0,-6"/>
<text text-anchor="middle" x="88" y="-13" font-family="Helvetica,sans-Serif" font-size="10.00">src/modules/smtp/SMTPModule.cpp</text>
</a>
</g>
</g>
<!-- Node10&#45;&gt;Node11 -->
<g id="edge1" class="edge"><title>Node10&#45;&gt;Node11</title>
<path fill="none" stroke="midnightblue" d="M150.728,-61.3056C133.64,-49.0999 112.748,-34.1772 99.9098,-25.007"/>
<polygon fill="midnightblue" stroke="midnightblue" points="149.083,-64.4316 159.254,-67.396 153.151,-58.7355 149.083,-64.4316"/>
</g>
<!-- Node12 -->
<g id="node3" class="node"><title>Node12</title>
<g id="a_node3"><a xlink:href="../../d2/d9a/SMTPServerInfoSerializer_8cpp.html" target="_top" xlink:title="src/modules/smtp/SMTPServer\lInfoSerializer.cpp">
<polygon fill="white" stroke="black" points="194,-0.5 194,-30.5 348,-30.5 348,-0.5 194,-0.5"/>
<text text-anchor="start" x="202" y="-18.5" font-family="Helvetica,sans-Serif" font-size="10.00">src/modules/smtp/SMTPServer</text>
<text text-anchor="middle" x="271" y="-7.5" font-family="Helvetica,sans-Serif" font-size="10.00">InfoSerializer.cpp</text>
</a>
</g>
</g>
<!-- Node10&#45;&gt;Node12 -->
<g id="edge2" class="edge"><title>Node10&#45;&gt;Node12</title>
<path fill="none" stroke="midnightblue" d="M207.377,-61.4511C221.53,-51.4517 238.305,-39.5995 251.076,-30.5765"/>
<polygon fill="midnightblue" stroke="midnightblue" points="205.11,-58.7671 198.963,-67.396 209.149,-64.4841 205.11,-58.7671"/>
</g>
</g>
</svg>
