<?xml version="1.0" encoding="UTF-8" standalone="no"?>
<!DOCTYPE svg PUBLIC "-//W3C//DTD SVG 1.1//EN"
 "http://www.w3.org/Graphics/SVG/1.1/DTD/svg11.dtd">
<!-- Generated by graphviz version 2.38.0 (20140413.2041)
 -->
<!-- Title: src/core/tasks/FetchRemoteConfig.hpp Pages: 1 -->
<!--zoomable 173 -->
<svg id="main" version="1.1" xmlns="http://www.w3.org/2000/svg" xmlns:xlink="http://www.w3.org/1999/xlink" xml:space="preserve" onload="init(evt)">
<style type="text/css"><![CDATA[
.edge:hover path { stroke: red; }
.edge:hover polygon { stroke: red; fill: red; }
]]></style>
<script type="text/javascript"><![CDATA[
var edges = document.getElementsByTagName('g');
if (edges && edges.length) {
  for (var i=0;i<edges.length;i++) {
    if (edges[i].id.substr(0,4)=='edge') {
      edges[i].setAttribute('class','edge');
    }
  }
}
]]></script>
        <defs>
                <circle id="rim" cx="0" cy="0" r="7"/>
                <circle id="rim2" cx="0" cy="0" r="3.5"/>
                <g id="zoomPlus">
                        <use xlink:href="#rim" fill="#404040">
                                <set attributeName="fill" to="#808080" begin="zoomplus.mouseover" end="zoomplus.mouseout"/>
                        </use>
                        <path d="M-4,0h8M0,-4v8" fill="none" stroke="white" stroke-width="1.5" pointer-events="none"/>
                </g>
                <g id="zoomMin">
                        <use xlink:href="#rim" fill="#404040">
                                <set attributeName="fill" to="#808080" begin="zoomminus.mouseover" end="zoomminus.mouseout"/>
                        </use>
                        <path d="M-4,0h8" fill="none" stroke="white" stroke-width="1.5" pointer-events="none"/>
                </g>
                <g id="dirArrow">
                        <path fill="none" stroke="white" stroke-width="1.5" d="M0,-3.0v7 M-2.5,-0.5L0,-3.0L2.5,-0.5"/>
                </g>
               <g id="resetDef">
                       <use xlink:href="#rim2" fill="#404040">
                               <set attributeName="fill" to="#808080" begin="reset.mouseover" end="reset.mouseout"/>
                       </use>
               </g>
        </defs>

<script type="text/javascript">
var viewWidth = 647;
var viewHeight = 173;
var sectionId = 'dynsection-0';
</script>
<script xlink:href="../../svgpan.js"/>
<svg id="graph" class="graph">
<g id="viewport">
<title>src/core/tasks/FetchRemoteConfig.hpp</title>
<polygon fill="white" stroke="none" points="-4,4 -4,-169 642.5,-169 642.5,4 -4,4"/>
<!-- Node0 -->
<g id="node1" class="node"><title>Node0</title>
<polygon fill="#bfbfbf" stroke="black" points="148.5,-134.5 148.5,-164.5 289.5,-164.5 289.5,-134.5 148.5,-134.5"/>
<text text-anchor="start" x="156.5" y="-152.5" font-family="Helvetica,sans-Serif" font-size="10.00">src/core/tasks/FetchRemote</text>
<text text-anchor="middle" x="219" y="-141.5" font-family="Helvetica,sans-Serif" font-size="10.00">Config.hpp</text>
</g>
<!-- Node1 -->
<g id="node2" class="node"><title>Node1</title>
<g id="a_node2"><a xlink:href="../../dc/d49/LeosacFwd_8hpp.html" target="_top" xlink:title="LeosacFwd.hpp">
<polygon fill="white" stroke="black" points="176,-73 176,-92 262,-92 262,-73 176,-73"/>
<text text-anchor="middle" x="219" y="-80" font-family="Helvetica,sans-Serif" font-size="10.00">LeosacFwd.hpp</text>
</a>
</g>
</g>
<!-- Node0&#45;&gt;Node1 -->
<g id="edge1" class="edge"><title>Node0&#45;&gt;Node1</title>
<path fill="none" stroke="midnightblue" d="M219,-134.396C219,-125.064 219,-112.714 219,-102.517"/>
<polygon fill="midnightblue" stroke="midnightblue" points="222.5,-102.195 219,-92.1945 215.5,-102.195 222.5,-102.195"/>
</g>
<!-- Node4 -->
<g id="node5" class="node"><title>Node4</title>
<g id="a_node5"><a xlink:href="../../d8/d91/Task_8hpp.html" target="_top" xlink:title="Task.hpp">
<polygon fill="white" stroke="black" points="99.5,-73 99.5,-92 156.5,-92 156.5,-73 99.5,-73"/>
<text text-anchor="middle" x="128" y="-80" font-family="Helvetica,sans-Serif" font-size="10.00">Task.hpp</text>
</a>
</g>
</g>
<!-- Node0&#45;&gt;Node4 -->
<g id="edge4" class="edge"><title>Node0&#45;&gt;Node4</title>
<path fill="none" stroke="midnightblue" d="M199.254,-134.396C184.135,-123.597 163.359,-108.756 148.142,-97.8872"/>
<polygon fill="midnightblue" stroke="midnightblue" points="150.082,-94.9714 139.91,-92.007 146.013,-100.667 150.082,-94.9714"/>
</g>
<!-- Node7 -->
<g id="node8" class="node"><title>Node7</title>
<g id="a_node8"><a xlink:href="../../d9/d79/RemoteConfigCollector_8hpp.html" target="_top" xlink:title="core/config/RemoteConfig\lCollector.hpp">
<polygon fill="white" stroke="black" points="295.5,-67.5 295.5,-97.5 426.5,-97.5 426.5,-67.5 295.5,-67.5"/>
<text text-anchor="start" x="303.5" y="-85.5" font-family="Helvetica,sans-Serif" font-size="10.00">core/config/RemoteConfig</text>
<text text-anchor="middle" x="361" y="-74.5" font-family="Helvetica,sans-Serif" font-size="10.00">Collector.hpp</text>
</a>
</g>
</g>
<!-- Node0&#45;&gt;Node7 -->
<g id="edge8" class="edge"><title>Node0&#45;&gt;Node7</title>
<path fill="none" stroke="midnightblue" d="M249.812,-134.396C270.653,-124.856 298.382,-112.163 320.935,-101.84"/>
<polygon fill="midnightblue" stroke="midnightblue" points="322.612,-104.921 330.248,-97.5765 319.699,-98.5563 322.612,-104.921"/>
</g>
<!-- Node2 -->
<g id="node3" class="node"><title>Node2</title>
<polygon fill="white" stroke="#bfbfbf" points="178,-6 178,-25 230,-25 230,-6 178,-6"/>
<text text-anchor="middle" x="204" y="-13" font-family="Helvetica,sans-Serif" font-size="10.00">memory</text>
</g>
<!-- Node1&#45;&gt;Node2 -->
<g id="edge2" class="edge"><title>Node1&#45;&gt;Node2</title>
<path fill="none" stroke="midnightblue" d="M216.977,-72.7338C214.75,-63.0852 211.108,-47.3001 208.248,-34.9063"/>
<polygon fill="midnightblue" stroke="midnightblue" points="211.65,-34.0842 205.991,-25.1273 204.829,-35.6583 211.65,-34.0842"/>
</g>
<!-- Node3 -->
<g id="node4" class="node"><title>Node3</title>
<polygon fill="white" stroke="#bfbfbf" points="248,-6 248,-25 292,-25 292,-6 248,-6"/>
<text text-anchor="middle" x="270" y="-13" font-family="Helvetica,sans-Serif" font-size="10.00">vector</text>
</g>
<!-- Node1&#45;&gt;Node3 -->
<g id="edge3" class="edge"><title>Node1&#45;&gt;Node3</title>
<path fill="none" stroke="midnightblue" d="M225.878,-72.7338C233.831,-62.5979 247.097,-45.6899 257.01,-33.0556"/>
<polygon fill="midnightblue" stroke="midnightblue" points="259.812,-35.1552 263.231,-25.1273 254.304,-30.8342 259.812,-35.1552"/>
</g>
<!-- Node4&#45;&gt;Node2 -->
<g id="edge7" class="edge"><title>Node4&#45;&gt;Node2</title>
<path fill="none" stroke="midnightblue" d="M138.25,-72.7338C150.443,-62.3055 171.017,-44.7088 185.908,-31.9732"/>
<polygon fill="midnightblue" stroke="midnightblue" points="188.588,-34.2869 193.913,-25.1273 184.038,-28.9671 188.588,-34.2869"/>
</g>
<!-- Node5 -->
<g id="node6" class="node"><title>Node5</title>
<polygon fill="white" stroke="#bfbfbf" points="0,-6 0,-25 46,-25 46,-6 0,-6"/>
<text text-anchor="middle" x="23" y="-13" font-family="Helvetica,sans-Serif" font-size="10.00">atomic</text>
</g>
<!-- Node4&#45;&gt;Node5 -->
<g id="edge5" class="edge"><title>Node4&#45;&gt;Node5</title>
<path fill="none" stroke="midnightblue" d="M113.839,-72.7338C96.285,-61.8669 66.1567,-43.2161 45.4426,-30.3931"/>
<polygon fill="midnightblue" stroke="midnightblue" points="47.2813,-27.415 36.9364,-25.1273 43.5968,-33.3668 47.2813,-27.415"/>
</g>
<!-- Node6 -->
<g id="node7" class="node"><title>Node6</title>
<polygon fill="white" stroke="#bfbfbf" points="64.5,-6 64.5,-25 159.5,-25 159.5,-6 64.5,-6"/>
<text text-anchor="middle" x="112" y="-13" font-family="Helvetica,sans-Serif" font-size="10.00">condition_variable</text>
</g>
<!-- Node4&#45;&gt;Node6 -->
<g id="edge6" class="edge"><title>Node4&#45;&gt;Node6</title>
<path fill="none" stroke="midnightblue" d="M125.842,-72.7338C123.467,-63.0852 119.582,-47.3001 116.531,-34.9063"/>
<polygon fill="midnightblue" stroke="midnightblue" points="119.912,-34.0009 114.124,-25.1273 113.115,-35.674 119.912,-34.0009"/>
</g>
<!-- Node7&#45;&gt;Node2 -->
<g id="edge11" class="edge"><title>Node7&#45;&gt;Node2</title>
<path fill="none" stroke="midnightblue" d="M326.933,-67.396C299.264,-55.9405 260.613,-39.9385 234.077,-28.9521"/>
<polygon fill="midnightblue" stroke="midnightblue" points="235.126,-25.5985 224.548,-25.007 232.448,-32.0661 235.126,-25.5985"/>
</g>
<!-- Node7&#45;&gt;Node3 -->
<g id="edge13" class="edge"><title>Node7&#45;&gt;Node3</title>
<path fill="none" stroke="midnightblue" d="M341.254,-67.396C326.135,-56.5966 305.359,-41.7564 290.142,-30.8872"/>
<polygon fill="midnightblue" stroke="midnightblue" points="292.082,-27.9714 281.91,-25.007 288.013,-33.6675 292.082,-27.9714"/>
</g>
<!-- Node8 -->
<g id="node9" class="node"><title>Node8</title>
<polygon fill="white" stroke="#bfbfbf" points="310.5,-0.5 310.5,-30.5 411.5,-30.5 411.5,-0.5 310.5,-0.5"/>
<text text-anchor="start" x="318.5" y="-18.5" font-family="Helvetica,sans-Serif" font-size="10.00">boost/property_tree</text>
<text text-anchor="middle" x="361" y="-7.5" font-family="Helvetica,sans-Serif" font-size="10.00">/ptree.hpp</text>
</g>
<!-- Node7&#45;&gt;Node8 -->
<g id="edge9" class="edge"><title>Node7&#45;&gt;Node8</title>
<path fill="none" stroke="midnightblue" d="M361,-67.396C361,-59.6448 361,-49.8122 361,-40.8601"/>
<polygon fill="midnightblue" stroke="midnightblue" points="364.5,-40.5765 361,-30.5765 357.5,-40.5765 364.5,-40.5765"/>
</g>
<!-- Node9 -->
<g id="node10" class="node"><title>Node9</title>
<polygon fill="white" stroke="#bfbfbf" points="429.5,-6 429.5,-25 464.5,-25 464.5,-6 429.5,-6"/>
<text text-anchor="middle" x="447" y="-13" font-family="Helvetica,sans-Serif" font-size="10.00">map</text>
</g>
<!-- Node7&#45;&gt;Node9 -->
<g id="edge10" class="edge"><title>Node7&#45;&gt;Node9</title>
<path fill="none" stroke="midnightblue" d="M379.661,-67.396C393.734,-56.7593 412.993,-42.2028 427.311,-31.3813"/>
<polygon fill="midnightblue" stroke="midnightblue" points="429.629,-34.0164 435.496,-25.1945 425.408,-28.432 429.629,-34.0164"/>
</g>
<!-- Node10 -->
<g id="node11" class="node"><title>Node10</title>
<polygon fill="white" stroke="#bfbfbf" points="482.5,-6 482.5,-25 523.5,-25 523.5,-6 482.5,-6"/>
<text text-anchor="middle" x="503" y="-13" font-family="Helvetica,sans-Serif" font-size="10.00">string</text>
</g>
<!-- Node7&#45;&gt;Node10 -->
<g id="edge12" class="edge"><title>Node7&#45;&gt;Node10</title>
<path fill="none" stroke="midnightblue" d="M393.808,-67.2871C416.453,-57.367 447.196,-43.6832 474,-31 474.992,-30.5305 476.001,-30.0484 477.02,-29.5584"/>
<polygon fill="midnightblue" stroke="midnightblue" points="478.756,-32.605 486.192,-25.0583 475.673,-26.3206 478.756,-32.605"/>
</g>
<!-- Node11 -->
<g id="node12" class="node"><title>Node11</title>
<polygon fill="white" stroke="#bfbfbf" points="541.5,-6 541.5,-25 638.5,-25 638.5,-6 541.5,-6"/>
<text text-anchor="middle" x="590" y="-13" font-family="Helvetica,sans-Serif" font-size="10.00">zmqpp/zmqpp.hpp</text>
</g>
<!-- Node7&#45;&gt;Node11 -->
<g id="edge14" class="edge"><title>Node7&#45;&gt;Node11</title>
<path fill="none" stroke="midnightblue" d="M410.408,-67.476C452.169,-55.6223 511.23,-38.8583 550.056,-27.8379"/>
<polygon fill="midnightblue" stroke="midnightblue" points="551.289,-31.1263 559.953,-25.0287 549.377,-24.3923 551.289,-31.1263"/>
</g>
</g>
</svg>
        <g id="navigator" transform="translate(0 0)" fill="#404254">
                <rect fill="#f2f5e9" fill-opacity="0.5" stroke="#606060" stroke-width=".5" x="0" y="0" width="60" height="60"/>
                <use id="zoomplus" xlink:href="#zoomPlus" x="17" y="9" onmousedown="handleZoom(evt,'in')"/>
                <use id="zoomminus" xlink:href="#zoomMin" x="42" y="9" onmousedown="handleZoom(evt,'out')"/>
                <use id="reset" xlink:href="#resetDef" x="30" y="36" onmousedown="handleReset()"/>
                <g id="arrowUp" xlink:href="#dirArrow" transform="translate(30 24)" onmousedown="handlePan(0,-1)">
                  <use xlink:href="#rim" fill="#404040">
                        <set attributeName="fill" to="#808080" begin="arrowUp.mouseover" end="arrowUp.mouseout"/>
                  </use>
                  <path fill="none" stroke="white" stroke-width="1.5" d="M0,-3.0v7 M-2.5,-0.5L0,-3.0L2.5,-0.5"/>
                </g>
                <g id="arrowRight" xlink:href="#dirArrow" transform="rotate(90) translate(36 -43)" onmousedown="handlePan(1,0)">
                  <use xlink:href="#rim" fill="#404040">
                        <set attributeName="fill" to="#808080" begin="arrowRight.mouseover" end="arrowRight.mouseout"/>
                  </use>
                  <path fill="none" stroke="white" stroke-width="1.5" d="M0,-3.0v7 M-2.5,-0.5L0,-3.0L2.5,-0.5"/>
                </g>
                <g id="arrowDown" xlink:href="#dirArrow" transform="rotate(180) translate(-30 -48)" onmousedown="handlePan(0,1)">
                  <use xlink:href="#rim" fill="#404040">
                        <set attributeName="fill" to="#808080" begin="arrowDown.mouseover" end="arrowDown.mouseout"/>
                  </use>
                  <path fill="none" stroke="white" stroke-width="1.5" d="M0,-3.0v7 M-2.5,-0.5L0,-3.0L2.5,-0.5"/>
                </g>
                <g id="arrowLeft" xlink:href="#dirArrow" transform="rotate(270) translate(-36 17)" onmousedown="handlePan(-1,0)">
                  <use xlink:href="#rim" fill="#404040">
                        <set attributeName="fill" to="#808080" begin="arrowLeft.mouseover" end="arrowLeft.mouseout"/>
                  </use>
                  <path fill="none" stroke="white" stroke-width="1.5" d="M0,-3.0v7 M-2.5,-0.5L0,-3.0L2.5,-0.5"/>
                </g>
        </g>
        <svg viewBox="0 0 15 15" width="100%" height="30px" preserveAspectRatio="xMaxYMin meet">
         <g id="arrow_out" transform="scale(0.3 0.3)">
          <a xlink:href="FetchRemoteConfig_8hpp__incl_org.svg" target="_base">
           <rect id="button" ry="5" rx="5" y="6" x="6" height="38" width="38"
                fill="#f2f5e9" fill-opacity="0.5" stroke="#606060" stroke-width="1.0"/>
           <path id="arrow"
             d="M 11.500037,31.436501 C 11.940474,20.09759 22.043105,11.32322 32.158766,21.979434 L 37.068811,17.246167 C 37.068811,17.246167 37.088388,32 37.088388,32 L 22.160133,31.978069 C 22.160133,31.978069 26.997745,27.140456 26.997745,27.140456 C 18.528582,18.264221 13.291696,25.230495 11.500037,31.436501 z"
             style="fill:#404040;"/>
          </a>
         </g>
        </svg>
</svg>
