<?xml version="1.0" encoding="UTF-8" standalone="no"?>
<!DOCTYPE svg PUBLIC "-//W3C//DTD SVG 1.1//EN"
 "http://www.w3.org/Graphics/SVG/1.1/DTD/svg11.dtd">
<!-- Generated by graphviz version 2.38.0 (20140413.2041)
 -->
<!-- Title: test/Registry.cpp Pages: 1 -->
<!--zoomable 308 -->
<svg id="main" version="1.1" xmlns="http://www.w3.org/2000/svg" xmlns:xlink="http://www.w3.org/1999/xlink" xml:space="preserve" onload="init(evt)">
<style type="text/css"><![CDATA[
.edge:hover path { stroke: red; }
.edge:hover polygon { stroke: red; fill: red; }
]]></style>
<script type="text/javascript"><![CDATA[
var edges = document.getElementsByTagName('g');
if (edges && edges.length) {
  for (var i=0;i<edges.length;i++) {
    if (edges[i].id.substr(0,4)=='edge') {
      edges[i].setAttribute('class','edge');
    }
  }
}
]]></script>
        <defs>
                <circle id="rim" cx="0" cy="0" r="7"/>
                <circle id="rim2" cx="0" cy="0" r="3.5"/>
                <g id="zoomPlus">
                        <use xlink:href="#rim" fill="#404040">
                                <set attributeName="fill" to="#808080" begin="zoomplus.mouseover" end="zoomplus.mouseout"/>
                        </use>
                        <path d="M-4,0h8M0,-4v8" fill="none" stroke="white" stroke-width="1.5" pointer-events="none"/>
                </g>
                <g id="zoomMin">
                        <use xlink:href="#rim" fill="#404040">
                                <set attributeName="fill" to="#808080" begin="zoomminus.mouseover" end="zoomminus.mouseout"/>
                        </use>
                        <path d="M-4,0h8" fill="none" stroke="white" stroke-width="1.5" pointer-events="none"/>
                </g>
                <g id="dirArrow">
                        <path fill="none" stroke="white" stroke-width="1.5" d="M0,-3.0v7 M-2.5,-0.5L0,-3.0L2.5,-0.5"/>
                </g>
               <g id="resetDef">
                       <use xlink:href="#rim2" fill="#404040">
                               <set attributeName="fill" to="#808080" begin="reset.mouseover" end="reset.mouseout"/>
                       </use>
               </g>
        </defs>

<script type="text/javascript">
var viewWidth = 1580;
var viewHeight = 308;
var sectionId = 'dynsection-0';
</script>
<script xlink:href="../../svgpan.js"/>
<svg id="graph" class="graph">
<g id="viewport">
<title>test/Registry.cpp</title>
<polygon fill="white" stroke="none" points="-4,4 -4,-304 1576,-304 1576,4 -4,4"/>
<!-- Node0 -->
<g id="node1" class="node"><title>Node0</title>
<polygon fill="#bfbfbf" stroke="black" points="1430.5,-280.5 1430.5,-299.5 1522.5,-299.5 1522.5,-280.5 1430.5,-280.5"/>
<text text-anchor="middle" x="1476.5" y="-287.5" font-family="Helvetica,sans-Serif" font-size="10.00">test/Registry.cpp</text>
</g>
<!-- Node1 -->
<g id="node2" class="node"><title>Node1</title>
<g id="a_node2"><a xlink:href="../../db/dd1/Registry_8hpp.html" target="_top" xlink:title="tools/registry/Registry.hpp">
<polygon fill="white" stroke="black" points="1352,-224.5 1352,-243.5 1483,-243.5 1483,-224.5 1352,-224.5"/>
<text text-anchor="middle" x="1417.5" y="-231.5" font-family="Helvetica,sans-Serif" font-size="10.00">tools/registry/Registry.hpp</text>
</a>
</g>
</g>
<!-- Node0&#45;&gt;Node1 -->
<g id="edge1" class="edge"><title>Node0&#45;&gt;Node1</title>
<path fill="none" stroke="midnightblue" d="M1467.02,-280.324C1458.3,-272.341 1445.16,-260.313 1434.6,-250.653"/>
<polygon fill="midnightblue" stroke="midnightblue" points="1436.89,-248.004 1427.15,-243.834 1432.17,-253.167 1436.89,-248.004"/>
</g>
<!-- Node26 -->
<g id="node27" class="node"><title>Node26</title>
<polygon fill="white" stroke="#bfbfbf" points="1501,-224.5 1501,-243.5 1572,-243.5 1572,-224.5 1501,-224.5"/>
<text text-anchor="middle" x="1536.5" y="-231.5" font-family="Helvetica,sans-Serif" font-size="10.00">gtest/gtest.h</text>
</g>
<!-- Node0&#45;&gt;Node26 -->
<g id="edge48" class="edge"><title>Node0&#45;&gt;Node26</title>
<path fill="none" stroke="midnightblue" d="M1486.14,-280.324C1495.01,-272.341 1508.37,-260.313 1519.11,-250.653"/>
<polygon fill="midnightblue" stroke="midnightblue" points="1521.59,-253.125 1526.68,-243.834 1516.91,-247.922 1521.59,-253.125"/>
</g>
<!-- Node2 -->
<g id="node3" class="node"><title>Node2</title>
<g id="a_node3"><a xlink:href="../../d1/ddd/leosacexception_8hpp.html" target="_top" xlink:title="Exception class for LEOSAC Project related errors. ">
<polygon fill="white" stroke="black" points="602,-168.5 602,-187.5 753,-187.5 753,-168.5 602,-168.5"/>
<text text-anchor="middle" x="677.5" y="-175.5" font-family="Helvetica,sans-Serif" font-size="10.00">exception/leosacexception.hpp</text>
</a>
</g>
</g>
<!-- Node1&#45;&gt;Node2 -->
<g id="edge2" class="edge"><title>Node1&#45;&gt;Node2</title>
<path fill="none" stroke="midnightblue" d="M1351.83,-228.208C1217.75,-218.424 912.619,-196.157 763.181,-185.252"/>
<polygon fill="midnightblue" stroke="midnightblue" points="763.359,-181.756 753.131,-184.519 762.849,-188.738 763.359,-181.756"/>
</g>
<!-- Node19 -->
<g id="node20" class="node"><title>Node19</title>
<g id="a_node20"><a xlink:href="../../d4/d3d/log_8hpp.html" target="_top" xlink:title="tools/log.hpp">
<polygon fill="white" stroke="black" points="1339.5,-56.5 1339.5,-75.5 1411.5,-75.5 1411.5,-56.5 1339.5,-56.5"/>
<text text-anchor="middle" x="1375.5" y="-63.5" font-family="Helvetica,sans-Serif" font-size="10.00">tools/log.hpp</text>
</a>
</g>
</g>
<!-- Node1&#45;&gt;Node19 -->
<g id="edge39" class="edge"><title>Node1&#45;&gt;Node19</title>
<path fill="none" stroke="midnightblue" d="M1414.63,-224.429C1411.65,-215.416 1406.97,-200.794 1403.5,-188 1393.76,-152.05 1384.42,-109.525 1379.37,-85.6658"/>
<polygon fill="midnightblue" stroke="midnightblue" points="1382.73,-84.6327 1377.25,-75.5628 1375.88,-86.0679 1382.73,-84.6327"/>
</g>
<!-- Node24 -->
<g id="node25" class="node"><title>Node24</title>
<polygon fill="white" stroke="#bfbfbf" points="1412.5,-168.5 1412.5,-187.5 1490.5,-187.5 1490.5,-168.5 1412.5,-168.5"/>
<text text-anchor="middle" x="1451.5" y="-175.5" font-family="Helvetica,sans-Serif" font-size="10.00">boost/any.hpp</text>
</g>
<!-- Node1&#45;&gt;Node24 -->
<g id="edge46" class="edge"><title>Node1&#45;&gt;Node24</title>
<path fill="none" stroke="midnightblue" d="M1423.11,-224.083C1427.87,-216.534 1434.82,-205.495 1440.65,-196.23"/>
<polygon fill="midnightblue" stroke="midnightblue" points="1443.62,-198.078 1445.99,-187.751 1437.7,-194.349 1443.62,-198.078"/>
</g>
<!-- Node25 -->
<g id="node26" class="node"><title>Node25</title>
<polygon fill="white" stroke="#bfbfbf" points="1509,-168.5 1509,-187.5 1544,-187.5 1544,-168.5 1509,-168.5"/>
<text text-anchor="middle" x="1526.5" y="-175.5" font-family="Helvetica,sans-Serif" font-size="10.00">map</text>
</g>
<!-- Node1&#45;&gt;Node25 -->
<g id="edge47" class="edge"><title>Node1&#45;&gt;Node25</title>
<path fill="none" stroke="midnightblue" d="M1435.01,-224.324C1452.57,-215.625 1479.83,-202.12 1500.03,-192.113"/>
<polygon fill="midnightblue" stroke="midnightblue" points="1501.62,-195.23 1509.03,-187.655 1498.52,-188.958 1501.62,-195.23"/>
</g>
<!-- Node3 -->
<g id="node4" class="node"><title>Node3</title>
<g id="a_node4"><a xlink:href="../../d6/d2f/Stacktrace_8hpp.html" target="_top" xlink:title="tools/Stacktrace.hpp">
<polygon fill="white" stroke="black" points="624,-112.5 624,-131.5 731,-131.5 731,-112.5 624,-112.5"/>
<text text-anchor="middle" x="677.5" y="-119.5" font-family="Helvetica,sans-Serif" font-size="10.00">tools/Stacktrace.hpp</text>
</a>
</g>
</g>
<!-- Node2&#45;&gt;Node3 -->
<g id="edge3" class="edge"><title>Node2&#45;&gt;Node3</title>
<path fill="none" stroke="midnightblue" d="M677.5,-168.083C677.5,-161.006 677.5,-150.861 677.5,-141.986"/>
<polygon fill="midnightblue" stroke="midnightblue" points="681,-141.751 677.5,-131.751 674,-141.751 681,-141.751"/>
</g>
<!-- Node4 -->
<g id="node5" class="node"><title>Node4</title>
<polygon fill="white" stroke="#bfbfbf" points="666,-0.5 666,-19.5 707,-19.5 707,-0.5 666,-0.5"/>
<text text-anchor="middle" x="686.5" y="-7.5" font-family="Helvetica,sans-Serif" font-size="10.00">string</text>
</g>
<!-- Node2&#45;&gt;Node4 -->
<g id="edge8" class="edge"><title>Node2&#45;&gt;Node4</title>
<path fill="none" stroke="midnightblue" d="M601.828,-176.076C463.311,-173.592 180.389,-164.55 150.5,-132 79.1056,-54.2495 531.687,-20.5015 655.691,-12.7812"/>
<polygon fill="midnightblue" stroke="midnightblue" points="655.907,-16.2746 665.675,-12.172 655.48,-9.28762 655.907,-16.2746"/>
</g>
<!-- Node6 -->
<g id="node7" class="node"><title>Node6</title>
<polygon fill="white" stroke="#bfbfbf" points="876,-112.5 876,-131.5 925,-131.5 925,-112.5 876,-112.5"/>
<text text-anchor="middle" x="900.5" y="-119.5" font-family="Helvetica,sans-Serif" font-size="10.00">cstddef</text>
</g>
<!-- Node2&#45;&gt;Node6 -->
<g id="edge6" class="edge"><title>Node2&#45;&gt;Node6</title>
<path fill="none" stroke="midnightblue" d="M715.084,-168.492C751.38,-160.188 808.14,-146.974 865.669,-132.412"/>
<polygon fill="midnightblue" stroke="midnightblue" points="866.829,-135.728 875.657,-129.872 865.103,-128.944 866.829,-135.728"/>
</g>
<!-- Node7 -->
<g id="node8" class="node"><title>Node7</title>
<polygon fill="white" stroke="#bfbfbf" points="943,-112.5 943,-131.5 1002,-131.5 1002,-112.5 943,-112.5"/>
<text text-anchor="middle" x="972.5" y="-119.5" font-family="Helvetica,sans-Serif" font-size="10.00">exception</text>
</g>
<!-- Node2&#45;&gt;Node7 -->
<g id="edge7" class="edge"><title>Node2&#45;&gt;Node7</title>
<path fill="none" stroke="midnightblue" d="M731.826,-168.447C781.723,-160.374 857.946,-147.5 932.62,-132.303"/>
<polygon fill="midnightblue" stroke="midnightblue" points="933.574,-135.68 942.666,-130.242 932.167,-128.823 933.574,-135.68"/>
</g>
<!-- Node8 -->
<g id="node9" class="node"><title>Node8</title>
<g id="a_node9"><a xlink:href="../../d7/d7a/configexception_8hpp.html" target="_top" xlink:title="configexception.hpp">
<polygon fill="white" stroke="black" points="1252.5,-112.5 1252.5,-131.5 1356.5,-131.5 1356.5,-112.5 1252.5,-112.5"/>
<text text-anchor="middle" x="1304.5" y="-119.5" font-family="Helvetica,sans-Serif" font-size="10.00">configexception.hpp</text>
</a>
</g>
</g>
<!-- Node2&#45;&gt;Node8 -->
<g id="edge9" class="edge"><title>Node2&#45;&gt;Node8</title>
<path fill="none" stroke="midnightblue" d="M753.11,-172.232C860.388,-165.407 1062.6,-151.492 1234.5,-132 1237.01,-131.715 1239.58,-131.406 1242.18,-131.08"/>
<polygon fill="midnightblue" stroke="midnightblue" points="1242.85,-134.522 1252.31,-129.751 1241.94,-127.582 1242.85,-134.522"/>
</g>
<!-- Node11 -->
<g id="node12" class="node"><title>Node11</title>
<g id="a_node12"><a xlink:href="../../d8/db0/coreexception_8hpp.html" target="_top" xlink:title="Exception class for Core related errors. ">
<polygon fill="white" stroke="black" points="283.5,-112.5 283.5,-131.5 379.5,-131.5 379.5,-112.5 283.5,-112.5"/>
<text text-anchor="middle" x="331.5" y="-119.5" font-family="Helvetica,sans-Serif" font-size="10.00">coreexception.hpp</text>
</a>
</g>
</g>
<!-- Node2&#45;&gt;Node11 -->
<g id="edge15" class="edge"><title>Node2&#45;&gt;Node11</title>
<path fill="none" stroke="midnightblue" d="M615.931,-168.492C557.854,-159.821 468.347,-145.921 386.452,-133.089"/>
<polygon fill="midnightblue" stroke="midnightblue" points="386.926,-129.621 376.505,-131.53 385.842,-136.536 386.926,-129.621"/>
</g>
<!-- Node12 -->
<g id="node13" class="node"><title>Node12</title>
<g id="a_node13"><a xlink:href="../../d8/d77/deviceexception_8hpp.html" target="_top" xlink:title="Exception class for Device related errors. ">
<polygon fill="white" stroke="black" points="159.5,-112.5 159.5,-131.5 265.5,-131.5 265.5,-112.5 159.5,-112.5"/>
<text text-anchor="middle" x="212.5" y="-119.5" font-family="Helvetica,sans-Serif" font-size="10.00">deviceexception.hpp</text>
</a>
</g>
</g>
<!-- Node2&#45;&gt;Node12 -->
<g id="edge18" class="edge"><title>Node2&#45;&gt;Node12</title>
<path fill="none" stroke="midnightblue" d="M601.767,-169.968C521.159,-161.874 389.881,-147.81 271.83,-132.801"/>
<polygon fill="midnightblue" stroke="midnightblue" points="272.269,-129.329 261.906,-131.533 271.382,-136.272 272.269,-129.329"/>
</g>
<!-- Node13 -->
<g id="node14" class="node"><title>Node13</title>
<g id="a_node14"><a xlink:href="../../db/d35/dynlibexception_8hpp.html" target="_top" xlink:title="Exception class for DynLib related errors. ">
<polygon fill="white" stroke="black" points="398,-112.5 398,-131.5 501,-131.5 501,-112.5 398,-112.5"/>
<text text-anchor="middle" x="449.5" y="-119.5" font-family="Helvetica,sans-Serif" font-size="10.00">dynlibexception.hpp</text>
</a>
</g>
</g>
<!-- Node2&#45;&gt;Node13 -->
<g id="edge21" class="edge"><title>Node2&#45;&gt;Node13</title>
<path fill="none" stroke="midnightblue" d="M636.284,-168.444C594.794,-159.102 531.38,-144.119 490.11,-133.933"/>
<polygon fill="midnightblue" stroke="midnightblue" points="490.927,-130.529 480.378,-131.516 489.24,-137.323 490.927,-130.529"/>
</g>
<!-- Node14 -->
<g id="node15" class="node"><title>Node14</title>
<g id="a_node15"><a xlink:href="../../d0/d4e/fsexception_8hpp.html" target="_top" xlink:title="Exception class for filesystem related errors. ">
<polygon fill="white" stroke="black" points="519.5,-112.5 519.5,-131.5 605.5,-131.5 605.5,-112.5 519.5,-112.5"/>
<text text-anchor="middle" x="562.5" y="-119.5" font-family="Helvetica,sans-Serif" font-size="10.00">fsexception.hpp</text>
</a>
</g>
</g>
<!-- Node2&#45;&gt;Node14 -->
<g id="edge24" class="edge"><title>Node2&#45;&gt;Node14</title>
<path fill="none" stroke="midnightblue" d="M654.189,-168.444C633.778,-159.754 604.61,-146.183 584.578,-136.131"/>
<polygon fill="midnightblue" stroke="midnightblue" points="586.054,-132.955 575.557,-131.516 582.866,-139.187 586.054,-132.955"/>
</g>
<!-- Node15 -->
<g id="node16" class="node"><title>Node15</title>
<g id="a_node16"><a xlink:href="../../d1/d8e/gpioexception_8hpp.html" target="_top" xlink:title="Exception class for Gpio related errors. ">
<polygon fill="white" stroke="black" points="1020,-112.5 1020,-131.5 1115,-131.5 1115,-112.5 1020,-112.5"/>
<text text-anchor="middle" x="1067.5" y="-119.5" font-family="Helvetica,sans-Serif" font-size="10.00">gpioexception.hpp</text>
</a>
</g>
</g>
<!-- Node2&#45;&gt;Node15 -->
<g id="edge27" class="edge"><title>Node2&#45;&gt;Node15</title>
<path fill="none" stroke="midnightblue" d="M737.613,-168.492C802.908,-159.793 910.033,-145.657 1002.5,-132 1004.84,-131.654 1007.24,-131.294 1009.67,-130.925"/>
<polygon fill="midnightblue" stroke="midnightblue" points="1010.41,-134.352 1019.76,-129.373 1009.34,-127.433 1010.41,-134.352"/>
</g>
<!-- Node16 -->
<g id="node17" class="node"><title>Node16</title>
<g id="a_node17"><a xlink:href="../../d7/d8c/moduleexception_8hpp.html" target="_top" xlink:title="Exception class for modules. ">
<polygon fill="white" stroke="black" points="749,-112.5 749,-131.5 858,-131.5 858,-112.5 749,-112.5"/>
<text text-anchor="middle" x="803.5" y="-119.5" font-family="Helvetica,sans-Serif" font-size="10.00">moduleexception.hpp</text>
</a>
</g>
</g>
<!-- Node2&#45;&gt;Node16 -->
<g id="edge30" class="edge"><title>Node2&#45;&gt;Node16</title>
<path fill="none" stroke="midnightblue" d="M692.376,-168.444C711.247,-159.517 743.869,-145.439 768.99,-135.317"/>
<polygon fill="midnightblue" stroke="midnightblue" points="770.549,-138.464 778.548,-131.516 767.963,-131.959 770.549,-138.464"/>
</g>
<!-- Node17 -->
<g id="node18" class="node"><title>Node17</title>
<g id="a_node18"><a xlink:href="../../df/d8d/scriptexception_8hpp.html" target="_top" xlink:title="Exception class for Script related errors. ">
<polygon fill="white" stroke="black" points="1133,-112.5 1133,-131.5 1234,-131.5 1234,-112.5 1133,-112.5"/>
<text text-anchor="middle" x="1183.5" y="-119.5" font-family="Helvetica,sans-Serif" font-size="10.00">scriptexception.hpp</text>
</a>
</g>
</g>
<!-- Node2&#45;&gt;Node17 -->
<g id="edge33" class="edge"><title>Node2&#45;&gt;Node17</title>
<path fill="none" stroke="midnightblue" d="M753.395,-169.963C840.84,-162.008 988.598,-148.056 1115.5,-132 1117.84,-131.704 1120.23,-131.389 1122.66,-131.061"/>
<polygon fill="midnightblue" stroke="midnightblue" points="1123.3,-134.505 1132.72,-129.656 1122.33,-127.572 1123.3,-134.505"/>
</g>
<!-- Node18 -->
<g id="node19" class="node"><title>Node18</title>
<g id="a_node19"><a xlink:href="../../dc/dce/signalexception_8hpp.html" target="_top" xlink:title="Exception class for Signal related errors. ">
<polygon fill="white" stroke="black" points="0,-112.5 0,-131.5 103,-131.5 103,-112.5 0,-112.5"/>
<text text-anchor="middle" x="51.5" y="-119.5" font-family="Helvetica,sans-Serif" font-size="10.00">signalexception.hpp</text>
</a>
</g>
</g>
<!-- Node2&#45;&gt;Node18 -->
<g id="edge36" class="edge"><title>Node2&#45;&gt;Node18</title>
<path fill="none" stroke="midnightblue" d="M601.748,-172.627C494.454,-165.839 292.181,-151.598 113.378,-132.503"/>
<polygon fill="midnightblue" stroke="midnightblue" points="113.58,-129.004 103.263,-131.414 112.832,-135.964 113.58,-129.004"/>
</g>
<!-- Node3&#45;&gt;Node4 -->
<g id="edge4" class="edge"><title>Node3&#45;&gt;Node4</title>
<path fill="none" stroke="midnightblue" d="M678.206,-112.368C679.659,-94.617 683.009,-53.6664 684.978,-29.5974"/>
<polygon fill="midnightblue" stroke="midnightblue" points="688.47,-29.8436 685.797,-19.5914 681.493,-29.2727 688.47,-29.8436"/>
</g>
<!-- Node5 -->
<g id="node6" class="node"><title>Node5</title>
<polygon fill="white" stroke="#bfbfbf" points="614.5,-56.5 614.5,-75.5 658.5,-75.5 658.5,-56.5 614.5,-56.5"/>
<text text-anchor="middle" x="636.5" y="-63.5" font-family="Helvetica,sans-Serif" font-size="10.00">vector</text>
</g>
<!-- Node3&#45;&gt;Node5 -->
<g id="edge5" class="edge"><title>Node3&#45;&gt;Node5</title>
<path fill="none" stroke="midnightblue" d="M670.73,-112.083C664.938,-104.455 656.442,-93.2645 649.362,-83.9408"/>
<polygon fill="midnightblue" stroke="midnightblue" points="651.979,-81.5991 643.144,-75.7511 646.404,-85.8321 651.979,-81.5991"/>
</g>
<!-- Node8&#45;&gt;Node2 -->
<g id="edge10" class="edge"><title>Node8&#45;&gt;Node2</title>
<path fill="none" stroke="midnightblue" d="M1256.69,-131.509C1255.28,-131.679 1253.88,-131.843 1252.5,-132 1079.63,-151.602 876.105,-165.564 763.405,-172.346"/>
<polygon fill="midnightblue" stroke="midnightblue" points="762.893,-168.871 753.119,-172.961 763.31,-175.858 762.893,-168.871"/>
</g>
<!-- Node8&#45;&gt;Node4 -->
<g id="edge14" class="edge"><title>Node8&#45;&gt;Node4</title>
<path fill="none" stroke="midnightblue" d="M1258.73,-112.484C1190.98,-99.9157 1060.01,-75.7556 948.5,-56 864.883,-41.1859 766.116,-24.4201 717.174,-16.1611"/>
<polygon fill="midnightblue" stroke="midnightblue" points="717.674,-12.696 707.231,-14.4846 716.51,-19.5986 717.674,-12.696"/>
</g>
<!-- Node9 -->
<g id="node10" class="node"><title>Node9</title>
<g id="a_node10"><a xlink:href="../../dd/d35/Colorize_8hpp.html" target="_top" xlink:title="tools/Colorize.hpp">
<polygon fill="white" stroke="black" points="1169,-56.5 1169,-75.5 1264,-75.5 1264,-56.5 1169,-56.5"/>
<text text-anchor="middle" x="1216.5" y="-63.5" font-family="Helvetica,sans-Serif" font-size="10.00">tools/Colorize.hpp</text>
</a>
</g>
</g>
<!-- Node8&#45;&gt;Node9 -->
<g id="edge11" class="edge"><title>Node8&#45;&gt;Node9</title>
<path fill="none" stroke="midnightblue" d="M1290.36,-112.324C1276.63,-103.9 1255.56,-90.9709 1239.44,-81.0741"/>
<polygon fill="midnightblue" stroke="midnightblue" points="1240.96,-77.9016 1230.6,-75.6545 1237.3,-83.8678 1240.96,-77.9016"/>
</g>
<!-- Node9&#45;&gt;Node4 -->
<g id="edge13" class="edge"><title>Node9&#45;&gt;Node4</title>
<path fill="none" stroke="midnightblue" d="M1168.71,-59.5257C1158.11,-58.3385 1146.92,-57.1075 1136.5,-56 979.063,-39.2729 790.444,-20.9769 717.449,-13.962"/>
<polygon fill="midnightblue" stroke="midnightblue" points="717.431,-10.4442 707.142,-12.9726 716.762,-17.4121 717.431,-10.4442"/>
</g>
<!-- Node10 -->
<g id="node11" class="node"><title>Node10</title>
<polygon fill="white" stroke="#bfbfbf" points="1190.5,-0.5 1190.5,-19.5 1242.5,-19.5 1242.5,-0.5 1190.5,-0.5"/>
<text text-anchor="middle" x="1216.5" y="-7.5" font-family="Helvetica,sans-Serif" font-size="10.00">sstream</text>
</g>
<!-- Node9&#45;&gt;Node10 -->
<g id="edge12" class="edge"><title>Node9&#45;&gt;Node10</title>
<path fill="none" stroke="midnightblue" d="M1216.5,-56.083C1216.5,-49.0059 1216.5,-38.8611 1216.5,-29.9865"/>
<polygon fill="midnightblue" stroke="midnightblue" points="1220,-29.751 1216.5,-19.7511 1213,-29.7511 1220,-29.751"/>
</g>
<!-- Node11&#45;&gt;Node2 -->
<g id="edge17" class="edge"><title>Node11&#45;&gt;Node2</title>
<path fill="none" stroke="midnightblue" d="M379.641,-129.208C385.694,-130.146 391.759,-131.1 397.5,-132 474.242,-144.033 562.466,-157.754 619.125,-166.849"/>
<polygon fill="midnightblue" stroke="midnightblue" points="618.898,-170.357 629.327,-168.492 620.011,-163.446 618.898,-170.357"/>
</g>
<!-- Node11&#45;&gt;Node4 -->
<g id="edge16" class="edge"><title>Node11&#45;&gt;Node4</title>
<path fill="none" stroke="midnightblue" d="M358.881,-112.46C398.805,-100.013 475.343,-76.1733 540.5,-56 580.39,-43.6495 626.435,-29.4703 655.978,-20.3828"/>
<polygon fill="midnightblue" stroke="midnightblue" points="657.173,-23.6771 665.702,-17.3921 655.115,-16.9864 657.173,-23.6771"/>
</g>
<!-- Node12&#45;&gt;Node2 -->
<g id="edge20" class="edge"><title>Node12&#45;&gt;Node2</title>
<path fill="none" stroke="midnightblue" d="M265.762,-129.618C271.775,-130.45 277.782,-131.266 283.5,-132 389.636,-145.625 511.808,-158.935 591.673,-167.5"/>
<polygon fill="midnightblue" stroke="midnightblue" points="591.367,-170.987 601.683,-168.573 592.113,-164.027 591.367,-170.987"/>
</g>
<!-- Node12&#45;&gt;Node4 -->
<g id="edge19" class="edge"><title>Node12&#45;&gt;Node4</title>
<path fill="none" stroke="midnightblue" d="M245.37,-112.412C294.765,-99.5972 391.131,-74.9511 473.5,-56 538.218,-41.11 614.436,-25.4611 655.882,-17.1094"/>
<polygon fill="midnightblue" stroke="midnightblue" points="656.77,-20.501 665.884,-15.0995 655.391,-13.6382 656.77,-20.501"/>
</g>
<!-- Node13&#45;&gt;Node2 -->
<g id="edge23" class="edge"><title>Node13&#45;&gt;Node2</title>
<path fill="none" stroke="midnightblue" d="M490.538,-131.516C531.965,-140.841 595.38,-155.823 636.713,-166.024"/>
<polygon fill="midnightblue" stroke="midnightblue" points="635.913,-169.431 646.461,-168.444 637.599,-162.637 635.913,-169.431"/>
</g>
<!-- Node13&#45;&gt;Node4 -->
<g id="edge22" class="edge"><title>Node13&#45;&gt;Node4</title>
<path fill="none" stroke="midnightblue" d="M467.034,-112.435C492.871,-99.8576 542.733,-75.7433 585.5,-56 609.614,-44.8677 637.165,-32.624 657.394,-23.722"/>
<polygon fill="midnightblue" stroke="midnightblue" points="658.941,-26.8656 666.689,-19.6399 656.126,-20.4564 658.941,-26.8656"/>
</g>
<!-- Node14&#45;&gt;Node2 -->
<g id="edge26" class="edge"><title>Node14&#45;&gt;Node2</title>
<path fill="none" stroke="midnightblue" d="M586.041,-131.655C606.344,-140.307 635.19,-153.727 655.137,-163.726"/>
<polygon fill="midnightblue" stroke="midnightblue" points="653.64,-166.892 664.138,-168.324 656.825,-160.658 653.64,-166.892"/>
</g>
<!-- Node14&#45;&gt;Node4 -->
<g id="edge25" class="edge"><title>Node14&#45;&gt;Node4</title>
<path fill="none" stroke="midnightblue" d="M566.455,-112.48C573.008,-99.0912 587.228,-72.9105 605.5,-56 620.403,-42.2074 640.302,-31.0759 656.647,-23.3345"/>
<polygon fill="midnightblue" stroke="midnightblue" points="658.142,-26.4997 665.796,-19.1737 655.244,-20.1278 658.142,-26.4997"/>
</g>
<!-- Node15&#45;&gt;Node2 -->
<g id="edge28" class="edge"><title>Node15&#45;&gt;Node2</title>
<path fill="none" stroke="midnightblue" d="M1023.74,-131.517C1022.65,-131.68 1021.57,-131.842 1020.5,-132 932.368,-145.017 830.919,-158.469 761.278,-167.233"/>
<polygon fill="midnightblue" stroke="midnightblue" points="760.726,-163.775 751.239,-168.492 761.597,-170.72 760.726,-163.775"/>
</g>
<!-- Node15&#45;&gt;Node4 -->
<g id="edge29" class="edge"><title>Node15&#45;&gt;Node4</title>
<path fill="none" stroke="midnightblue" d="M1037.92,-112.46C967.097,-92.0123 788.369,-40.4111 716.81,-19.751"/>
<polygon fill="midnightblue" stroke="midnightblue" points="717.634,-16.3459 707.055,-16.9346 715.692,-23.0712 717.634,-16.3459"/>
</g>
<!-- Node16&#45;&gt;Node2 -->
<g id="edge32" class="edge"><title>Node16&#45;&gt;Node2</title>
<path fill="none" stroke="midnightblue" d="M788.708,-131.516C769.879,-140.427 737.266,-154.504 712.122,-164.638"/>
<polygon fill="midnightblue" stroke="midnightblue" points="710.552,-161.495 702.554,-168.444 713.139,-168 710.552,-161.495"/>
</g>
<!-- Node16&#45;&gt;Node4 -->
<g id="edge31" class="edge"><title>Node16&#45;&gt;Node4</title>
<path fill="none" stroke="midnightblue" d="M794.319,-112.368C774.669,-93.8941 728.293,-50.2926 703.245,-26.7436"/>
<polygon fill="midnightblue" stroke="midnightblue" points="705.321,-23.8912 695.638,-19.5914 700.526,-28.9912 705.321,-23.8912"/>
</g>
<!-- Node17&#45;&gt;Node2 -->
<g id="edge35" class="edge"><title>Node17&#45;&gt;Node2</title>
<path fill="none" stroke="midnightblue" d="M1137.24,-131.517C1135.98,-131.683 1134.73,-131.844 1133.5,-132 1005.03,-148.254 855.186,-162.353 763.272,-170.255"/>
<polygon fill="midnightblue" stroke="midnightblue" points="762.849,-166.778 753.183,-171.117 763.445,-173.753 762.849,-166.778"/>
</g>
<!-- Node17&#45;&gt;Node4 -->
<g id="edge34" class="edge"><title>Node17&#45;&gt;Node4</title>
<path fill="none" stroke="midnightblue" d="M1145.11,-112.468C1089.13,-100.03 981.82,-76.2015 890.5,-56 828.899,-42.3729 756.821,-26.4872 716.948,-17.7045"/>
<polygon fill="midnightblue" stroke="midnightblue" points="717.579,-14.2598 707.06,-15.5269 716.074,-21.0959 717.579,-14.2598"/>
</g>
<!-- Node18&#45;&gt;Node2 -->
<g id="edge38" class="edge"><title>Node18&#45;&gt;Node2</title>
<path fill="none" stroke="midnightblue" d="M103.269,-129.203C111.094,-130.212 119.027,-131.191 126.5,-132 290.892,-149.8 483.142,-163.759 591.644,-171.159"/>
<polygon fill="midnightblue" stroke="midnightblue" points="591.665,-174.668 601.879,-171.854 592.139,-167.684 591.665,-174.668"/>
</g>
<!-- Node18&#45;&gt;Node4 -->
<g id="edge37" class="edge"><title>Node18&#45;&gt;Node4</title>
<path fill="none" stroke="midnightblue" d="M57.1748,-112.336C67.2948,-97.7266 89.9969,-68.5584 117.5,-56 214.68,-11.6258 551.811,-10.0778 655.748,-10.6935"/>
<polygon fill="midnightblue" stroke="midnightblue" points="655.862,-14.1943 665.886,-10.7652 655.911,-7.19446 655.862,-14.1943"/>
</g>
<!-- Node19&#45;&gt;Node4 -->
<g id="edge45" class="edge"><title>Node19&#45;&gt;Node4</title>
<path fill="none" stroke="midnightblue" d="M1339.16,-61.6913C1319.69,-59.9445 1295.29,-57.7966 1273.5,-56 1060.57,-38.4452 804.004,-19.556 717.025,-13.2157"/>
<polygon fill="midnightblue" stroke="midnightblue" points="717.27,-9.72437 707.042,-12.4889 716.762,-16.7059 717.27,-9.72437"/>
</g>
<!-- Node19&#45;&gt;Node10 -->
<g id="edge44" class="edge"><title>Node19&#45;&gt;Node10</title>
<path fill="none" stroke="midnightblue" d="M1350.31,-56.4435C1323.56,-47.3591 1281.1,-32.9388 1251.19,-22.7831"/>
<polygon fill="midnightblue" stroke="midnightblue" points="1252.17,-19.4182 1241.58,-19.5164 1249.92,-26.0464 1252.17,-19.4182"/>
</g>
<!-- Node20 -->
<g id="node21" class="node"><title>Node20</title>
<polygon fill="white" stroke="#bfbfbf" points="1436,-0.5 1436,-19.5 1485,-19.5 1485,-0.5 1436,-0.5"/>
<text text-anchor="middle" x="1460.5" y="-7.5" font-family="Helvetica,sans-Serif" font-size="10.00">cassert</text>
</g>
<!-- Node19&#45;&gt;Node20 -->
<g id="edge40" class="edge"><title>Node19&#45;&gt;Node20</title>
<path fill="none" stroke="midnightblue" d="M1389.16,-56.324C1402.42,-47.9002 1422.77,-34.9709 1438.35,-25.0741"/>
<polygon fill="midnightblue" stroke="midnightblue" points="1440.31,-27.9711 1446.88,-19.6545 1436.56,-22.0626 1440.31,-27.9711"/>
</g>
<!-- Node21 -->
<g id="node22" class="node"><title>Node21</title>
<polygon fill="white" stroke="#bfbfbf" points="1503,-0.5 1503,-19.5 1550,-19.5 1550,-0.5 1503,-0.5"/>
<text text-anchor="middle" x="1526.5" y="-7.5" font-family="Helvetica,sans-Serif" font-size="10.00">csignal</text>
</g>
<!-- Node19&#45;&gt;Node21 -->
<g id="edge41" class="edge"><title>Node19&#45;&gt;Node21</title>
<path fill="none" stroke="midnightblue" d="M1399.43,-56.4435C1424.72,-47.3986 1464.8,-33.064 1493.18,-22.9158"/>
<polygon fill="midnightblue" stroke="midnightblue" points="1494.45,-26.1794 1502.69,-19.5164 1492.09,-19.5882 1494.45,-26.1794"/>
</g>
<!-- Node22 -->
<g id="node23" class="node"><title>Node22</title>
<polygon fill="white" stroke="#bfbfbf" points="1260.5,-0.5 1260.5,-19.5 1314.5,-19.5 1314.5,-0.5 1260.5,-0.5"/>
<text text-anchor="middle" x="1287.5" y="-7.5" font-family="Helvetica,sans-Serif" font-size="10.00">iostream</text>
</g>
<!-- Node19&#45;&gt;Node22 -->
<g id="edge42" class="edge"><title>Node19&#45;&gt;Node22</title>
<path fill="none" stroke="midnightblue" d="M1361.36,-56.324C1347.63,-47.9002 1326.56,-34.9709 1310.44,-25.0741"/>
<polygon fill="midnightblue" stroke="midnightblue" points="1311.96,-21.9016 1301.6,-19.6545 1308.3,-27.8678 1311.96,-21.9016"/>
</g>
<!-- Node23 -->
<g id="node24" class="node"><title>Node23</title>
<polygon fill="white" stroke="#bfbfbf" points="1333,-0.5 1333,-19.5 1418,-19.5 1418,-0.5 1333,-0.5"/>
<text text-anchor="middle" x="1375.5" y="-7.5" font-family="Helvetica,sans-Serif" font-size="10.00">spdlog/spdlog.h</text>
</g>
<!-- Node19&#45;&gt;Node23 -->
<g id="edge43" class="edge"><title>Node19&#45;&gt;Node23</title>
<path fill="none" stroke="midnightblue" d="M1375.5,-56.083C1375.5,-49.0059 1375.5,-38.8611 1375.5,-29.9865"/>
<polygon fill="midnightblue" stroke="midnightblue" points="1379,-29.751 1375.5,-19.7511 1372,-29.7511 1379,-29.751"/>
</g>
</g>
</svg>
        <g id="navigator" transform="translate(0 0)" fill="#404254">
                <rect fill="#f2f5e9" fill-opacity="0.5" stroke="#606060" stroke-width=".5" x="0" y="0" width="60" height="60"/>
                <use id="zoomplus" xlink:href="#zoomPlus" x="17" y="9" onmousedown="handleZoom(evt,'in')"/>
                <use id="zoomminus" xlink:href="#zoomMin" x="42" y="9" onmousedown="handleZoom(evt,'out')"/>
                <use id="reset" xlink:href="#resetDef" x="30" y="36" onmousedown="handleReset()"/>
                <g id="arrowUp" xlink:href="#dirArrow" transform="translate(30 24)" onmousedown="handlePan(0,-1)">
                  <use xlink:href="#rim" fill="#404040">
                        <set attributeName="fill" to="#808080" begin="arrowUp.mouseover" end="arrowUp.mouseout"/>
                  </use>
                  <path fill="none" stroke="white" stroke-width="1.5" d="M0,-3.0v7 M-2.5,-0.5L0,-3.0L2.5,-0.5"/>
                </g>
                <g id="arrowRight" xlink:href="#dirArrow" transform="rotate(90) translate(36 -43)" onmousedown="handlePan(1,0)">
                  <use xlink:href="#rim" fill="#404040">
                        <set attributeName="fill" to="#808080" begin="arrowRight.mouseover" end="arrowRight.mouseout"/>
                  </use>
                  <path fill="none" stroke="white" stroke-width="1.5" d="M0,-3.0v7 M-2.5,-0.5L0,-3.0L2.5,-0.5"/>
                </g>
                <g id="arrowDown" xlink:href="#dirArrow" transform="rotate(180) translate(-30 -48)" onmousedown="handlePan(0,1)">
                  <use xlink:href="#rim" fill="#404040">
                        <set attributeName="fill" to="#808080" begin="arrowDown.mouseover" end="arrowDown.mouseout"/>
                  </use>
                  <path fill="none" stroke="white" stroke-width="1.5" d="M0,-3.0v7 M-2.5,-0.5L0,-3.0L2.5,-0.5"/>
                </g>
                <g id="arrowLeft" xlink:href="#dirArrow" transform="rotate(270) translate(-36 17)" onmousedown="handlePan(-1,0)">
                  <use xlink:href="#rim" fill="#404040">
                        <set attributeName="fill" to="#808080" begin="arrowLeft.mouseover" end="arrowLeft.mouseout"/>
                  </use>
                  <path fill="none" stroke="white" stroke-width="1.5" d="M0,-3.0v7 M-2.5,-0.5L0,-3.0L2.5,-0.5"/>
                </g>
        </g>
        <svg viewBox="0 0 15 15" width="100%" height="30px" preserveAspectRatio="xMaxYMin meet">
         <g id="arrow_out" transform="scale(0.3 0.3)">
          <a xlink:href="Registry_8cpp__incl_org.svg" target="_base">
           <rect id="button" ry="5" rx="5" y="6" x="6" height="38" width="38"
                fill="#f2f5e9" fill-opacity="0.5" stroke="#606060" stroke-width="1.0"/>
           <path id="arrow"
             d="M 11.500037,31.436501 C 11.940474,20.09759 22.043105,11.32322 32.158766,21.979434 L 37.068811,17.246167 C 37.068811,17.246167 37.088388,32 37.088388,32 L 22.160133,31.978069 C 22.160133,31.978069 26.997745,27.140456 26.997745,27.140456 C 18.528582,18.264221 13.291696,25.230495 11.500037,31.436501 z"
             style="fill:#404040;"/>
          </a>
         </g>
        </svg>
</svg>
