<?xml version="1.0" encoding="UTF-8" standalone="no"?>
<!DOCTYPE svg PUBLIC "-//W3C//DTD SVG 1.1//EN"
 "http://www.w3.org/Graphics/SVG/1.1/DTD/svg11.dtd">
<!-- Generated by graphviz version 2.38.0 (20140413.2041)
 -->
<!-- Title: src/modules/wiegand/WiegandReaderImpl.cpp Pages: 1 -->
<!--zoomable 330 -->
<svg id="main" version="1.1" xmlns="http://www.w3.org/2000/svg" xmlns:xlink="http://www.w3.org/1999/xlink" xml:space="preserve" onload="init(evt)">
<style type="text/css"><![CDATA[
.edge:hover path { stroke: red; }
.edge:hover polygon { stroke: red; fill: red; }
]]></style>
<script type="text/javascript"><![CDATA[
var edges = document.getElementsByTagName('g');
if (edges && edges.length) {
  for (var i=0;i<edges.length;i++) {
    if (edges[i].id.substr(0,4)=='edge') {
      edges[i].setAttribute('class','edge');
    }
  }
}
]]></script>
        <defs>
                <circle id="rim" cx="0" cy="0" r="7"/>
                <circle id="rim2" cx="0" cy="0" r="3.5"/>
                <g id="zoomPlus">
                        <use xlink:href="#rim" fill="#404040">
                                <set attributeName="fill" to="#808080" begin="zoomplus.mouseover" end="zoomplus.mouseout"/>
                        </use>
                        <path d="M-4,0h8M0,-4v8" fill="none" stroke="white" stroke-width="1.5" pointer-events="none"/>
                </g>
                <g id="zoomMin">
                        <use xlink:href="#rim" fill="#404040">
                                <set attributeName="fill" to="#808080" begin="zoomminus.mouseover" end="zoomminus.mouseout"/>
                        </use>
                        <path d="M-4,0h8" fill="none" stroke="white" stroke-width="1.5" pointer-events="none"/>
                </g>
                <g id="dirArrow">
                        <path fill="none" stroke="white" stroke-width="1.5" d="M0,-3.0v7 M-2.5,-0.5L0,-3.0L2.5,-0.5"/>
                </g>
               <g id="resetDef">
                       <use xlink:href="#rim2" fill="#404040">
                               <set attributeName="fill" to="#808080" begin="reset.mouseover" end="reset.mouseout"/>
                       </use>
               </g>
        </defs>

<script type="text/javascript">
var viewWidth = 1125;
var viewHeight = 330;
var sectionId = 'dynsection-0';
</script>
<script xlink:href="../../svgpan.js"/>
<svg id="graph" class="graph">
<g id="viewport">
<title>src/modules/wiegand/WiegandReaderImpl.cpp</title>
<polygon fill="white" stroke="none" points="-4,4 -4,-326 1120.5,-326 1120.5,4 -4,4"/>
<!-- Node0 -->
<g id="node1" class="node"><title>Node0</title>
<polygon fill="#bfbfbf" stroke="black" points="750,-291.5 750,-321.5 877,-321.5 877,-291.5 750,-291.5"/>
<text text-anchor="start" x="758" y="-309.5" font-family="Helvetica,sans-Serif" font-size="10.00">src/modules/wiegand</text>
<text text-anchor="middle" x="813.5" y="-298.5" font-family="Helvetica,sans-Serif" font-size="10.00">/WiegandReaderImpl.cpp</text>
</g>
<!-- Node1 -->
<g id="node2" class="node"><title>Node1</title>
<g id="a_node2"><a xlink:href="../../de/d9a/WiegandReaderImpl_8hpp.html" target="_top" xlink:title="WiegandReaderImpl.hpp">
<polygon fill="white" stroke="black" points="224.5,-235.5 224.5,-254.5 348.5,-254.5 348.5,-235.5 224.5,-235.5"/>
<text text-anchor="middle" x="286.5" y="-242.5" font-family="Helvetica,sans-Serif" font-size="10.00">WiegandReaderImpl.hpp</text>
</a>
</g>
</g>
<!-- Node0&#45;&gt;Node1 -->
<g id="edge1" class="edge"><title>Node0&#45;&gt;Node1</title>
<path fill="none" stroke="midnightblue" d="M749.931,-298.323C651.374,-287.195 462.289,-265.847 358.714,-254.153"/>
<polygon fill="midnightblue" stroke="midnightblue" points="358.987,-250.662 348.657,-253.018 358.202,-257.618 358.987,-250.662"/>
</g>
<!-- Node2 -->
<g id="node3" class="node"><title>Node2</title>
<g id="a_node3"><a xlink:href="../../dc/d74/Auth_8hpp.html" target="_top" xlink:title="core/auth/Auth.hpp">
<polygon fill="white" stroke="black" points="612,-112.5 612,-131.5 711,-131.5 711,-112.5 612,-112.5"/>
<text text-anchor="middle" x="661.5" y="-119.5" font-family="Helvetica,sans-Serif" font-size="10.00">core/auth/Auth.hpp</text>
</a>
</g>
</g>
<!-- Node0&#45;&gt;Node2 -->
<g id="edge32" class="edge"><title>Node0&#45;&gt;Node2</title>
<path fill="none" stroke="midnightblue" d="M871.694,-291.419C949.077,-270.07 1070.49,-225.799 1019.5,-168 1000.13,-146.046 818.153,-132.159 721.376,-126.265"/>
<polygon fill="midnightblue" stroke="midnightblue" points="721.34,-122.756 711.149,-125.652 720.922,-129.744 721.34,-122.756"/>
</g>
<!-- Node14 -->
<g id="node15" class="node"><title>Node14</title>
<g id="a_node15"><a xlink:href="../../dd/d5c/WiegandStrategy_8hpp.html" target="_top" xlink:title="modules/wiegand/strategies\l/WiegandStrategy.hpp">
<polygon fill="white" stroke="black" points="409.5,-168.5 409.5,-198.5 547.5,-198.5 547.5,-168.5 409.5,-168.5"/>
<text text-anchor="start" x="417.5" y="-186.5" font-family="Helvetica,sans-Serif" font-size="10.00">modules/wiegand/strategies</text>
<text text-anchor="middle" x="478.5" y="-175.5" font-family="Helvetica,sans-Serif" font-size="10.00">/WiegandStrategy.hpp</text>
</a>
</g>
</g>
<!-- Node0&#45;&gt;Node14 -->
<g id="edge24" class="edge"><title>Node0&#45;&gt;Node14</title>
<path fill="none" stroke="midnightblue" d="M774.416,-291.383C712.89,-269.16 593.596,-226.072 526.797,-201.945"/>
<polygon fill="midnightblue" stroke="midnightblue" points="527.93,-198.632 517.335,-198.527 525.552,-205.216 527.93,-198.632"/>
</g>
<!-- Node17 -->
<g id="node18" class="node"><title>Node17</title>
<g id="a_node18"><a xlink:href="../../d4/d3d/log_8hpp.html" target="_top" xlink:title="tools/log.hpp">
<polygon fill="white" stroke="black" points="777.5,-235.5 777.5,-254.5 849.5,-254.5 849.5,-235.5 777.5,-235.5"/>
<text text-anchor="middle" x="813.5" y="-242.5" font-family="Helvetica,sans-Serif" font-size="10.00">tools/log.hpp</text>
</a>
</g>
</g>
<!-- Node0&#45;&gt;Node17 -->
<g id="edge25" class="edge"><title>Node0&#45;&gt;Node17</title>
<path fill="none" stroke="midnightblue" d="M813.5,-291.399C813.5,-283.466 813.5,-273.458 813.5,-264.858"/>
<polygon fill="midnightblue" stroke="midnightblue" points="817,-264.658 813.5,-254.658 810,-264.658 817,-264.658"/>
</g>
<!-- Node23 -->
<g id="node24" class="node"><title>Node23</title>
<polygon fill="white" stroke="#bfbfbf" points="1066.5,-235.5 1066.5,-254.5 1116.5,-254.5 1116.5,-235.5 1066.5,-235.5"/>
<text text-anchor="middle" x="1091.5" y="-242.5" font-family="Helvetica,sans-Serif" font-size="10.00">iomanip</text>
</g>
<!-- Node0&#45;&gt;Node23 -->
<g id="edge33" class="edge"><title>Node0&#45;&gt;Node23</title>
<path fill="none" stroke="midnightblue" d="M877.225,-292.371C925.412,-282.361 993.18,-268.11 1052.5,-255 1053.76,-254.722 1055.04,-254.436 1056.34,-254.147"/>
<polygon fill="midnightblue" stroke="midnightblue" points="1057.36,-257.503 1066.34,-251.878 1055.81,-250.676 1057.36,-257.503"/>
</g>
<!-- Node1&#45;&gt;Node2 -->
<g id="edge2" class="edge"><title>Node1&#45;&gt;Node2</title>
<path fill="none" stroke="midnightblue" d="M348.5,-241.719C404.712,-237.805 488.866,-227.264 556.5,-199 591.564,-184.347 626.059,-155.954 645.477,-138.325"/>
<polygon fill="midnightblue" stroke="midnightblue" points="647.883,-140.867 652.833,-131.5 643.122,-135.735 647.883,-140.867"/>
</g>
<!-- Node8 -->
<g id="node9" class="node"><title>Node8</title>
<g id="a_node9"><a xlink:href="../../dd/d5a/FBuzzer_8hpp.html" target="_top" xlink:title="hardware/facades/FBuzzer.hpp">
<polygon fill="white" stroke="black" points="1.5,-174 1.5,-193 153.5,-193 153.5,-174 1.5,-174"/>
<text text-anchor="middle" x="77.5" y="-181" font-family="Helvetica,sans-Serif" font-size="10.00">hardware/facades/FBuzzer.hpp</text>
</a>
</g>
</g>
<!-- Node1&#45;&gt;Node8 -->
<g id="edge8" class="edge"><title>Node1&#45;&gt;Node8</title>
<path fill="none" stroke="midnightblue" d="M256.555,-235.475C219.928,-225.048 157.805,-207.362 117.216,-195.807"/>
<polygon fill="midnightblue" stroke="midnightblue" points="117.965,-192.381 107.389,-193.009 116.049,-199.113 117.965,-192.381"/>
</g>
<!-- Node9 -->
<g id="node10" class="node"><title>Node9</title>
<g id="a_node10"><a xlink:href="../../d3/dbd/FLED_8hpp.html" target="_top" xlink:title="FLED.hpp">
<polygon fill="white" stroke="black" points="130,-112.5 130,-131.5 191,-131.5 191,-112.5 130,-112.5"/>
<text text-anchor="middle" x="160.5" y="-119.5" font-family="Helvetica,sans-Serif" font-size="10.00">FLED.hpp</text>
</a>
</g>
</g>
<!-- Node1&#45;&gt;Node9 -->
<g id="edge14" class="edge"><title>Node1&#45;&gt;Node9</title>
<path fill="none" stroke="midnightblue" d="M264.17,-235.441C246.642,-227.88 222.45,-215.49 205.5,-199 188.389,-182.353 175.447,-157.845 167.932,-141.195"/>
<polygon fill="midnightblue" stroke="midnightblue" points="171.135,-139.783 163.965,-131.983 164.705,-142.552 171.135,-139.783"/>
</g>
<!-- Node10 -->
<g id="node11" class="node"><title>Node10</title>
<polygon fill="white" stroke="#bfbfbf" points="224.5,-56.5 224.5,-75.5 270.5,-75.5 270.5,-56.5 224.5,-56.5"/>
<text text-anchor="middle" x="247.5" y="-63.5" font-family="Helvetica,sans-Serif" font-size="10.00">chrono</text>
</g>
<!-- Node1&#45;&gt;Node10 -->
<g id="edge22" class="edge"><title>Node1&#45;&gt;Node10</title>
<path fill="none" stroke="midnightblue" d="M274.003,-235.302C263.626,-227.251 249.613,-214.245 243.5,-199 228.269,-161.015 236.223,-111.825 242.435,-85.5241"/>
<polygon fill="midnightblue" stroke="midnightblue" points="245.847,-86.3068 244.917,-75.7528 239.062,-84.5829 245.847,-86.3068"/>
</g>
<!-- Node11 -->
<g id="node12" class="node"><title>Node11</title>
<polygon fill="white" stroke="#bfbfbf" points="427,-56.5 427,-75.5 468,-75.5 468,-56.5 427,-56.5"/>
<text text-anchor="middle" x="447.5" y="-63.5" font-family="Helvetica,sans-Serif" font-size="10.00">string</text>
</g>
<!-- Node1&#45;&gt;Node11 -->
<g id="edge23" class="edge"><title>Node1&#45;&gt;Node11</title>
<path fill="none" stroke="midnightblue" d="M282.349,-235.484C271.919,-212.728 247.455,-149.678 276.5,-112 293.504,-89.9419 372.314,-76.5455 416.77,-70.6139"/>
<polygon fill="midnightblue" stroke="midnightblue" points="417.278,-74.0774 426.75,-69.3306 416.385,-67.1346 417.278,-74.0774"/>
</g>
<!-- Node1&#45;&gt;Node14 -->
<g id="edge15" class="edge"><title>Node1&#45;&gt;Node14</title>
<path fill="none" stroke="midnightblue" d="M314.009,-235.475C342.443,-226.664 387.604,-212.668 423.418,-201.57"/>
<polygon fill="midnightblue" stroke="midnightblue" points="424.734,-204.826 433.249,-198.523 422.661,-198.14 424.734,-204.826"/>
</g>
<!-- Node15 -->
<g id="node16" class="node"><title>Node15</title>
<polygon fill="white" stroke="#bfbfbf" points="286,-112.5 286,-131.5 383,-131.5 383,-112.5 286,-112.5"/>
<text text-anchor="middle" x="334.5" y="-119.5" font-family="Helvetica,sans-Serif" font-size="10.00">zmqpp/zmqpp.hpp</text>
</g>
<!-- Node1&#45;&gt;Node15 -->
<g id="edge21" class="edge"><title>Node1&#45;&gt;Node15</title>
<path fill="none" stroke="midnightblue" d="M289.952,-235.298C297.736,-215.676 316.792,-167.638 327.283,-141.193"/>
<polygon fill="midnightblue" stroke="midnightblue" points="330.645,-142.209 331.079,-131.623 324.138,-139.628 330.645,-142.209"/>
</g>
<!-- Node3 -->
<g id="node4" class="node"><title>Node3</title>
<g id="a_node4"><a xlink:href="../../d3/d6f/AuthFwd_8hpp.html" target="_top" xlink:title="AuthFwd.hpp">
<polygon fill="white" stroke="black" points="569.5,-56.5 569.5,-75.5 643.5,-75.5 643.5,-56.5 569.5,-56.5"/>
<text text-anchor="middle" x="606.5" y="-63.5" font-family="Helvetica,sans-Serif" font-size="10.00">AuthFwd.hpp</text>
</a>
</g>
</g>
<!-- Node2&#45;&gt;Node3 -->
<g id="edge3" class="edge"><title>Node2&#45;&gt;Node3</title>
<path fill="none" stroke="midnightblue" d="M652.418,-112.083C644.329,-104.141 632.305,-92.3354 622.59,-82.7973"/>
<polygon fill="midnightblue" stroke="midnightblue" points="625.001,-80.2595 615.413,-75.7511 620.097,-85.2545 625.001,-80.2595"/>
</g>
<!-- Node7 -->
<g id="node8" class="node"><title>Node7</title>
<polygon fill="white" stroke="#bfbfbf" points="662,-56.5 662,-75.5 769,-75.5 769,-56.5 662,-56.5"/>
<text text-anchor="middle" x="715.5" y="-63.5" font-family="Helvetica,sans-Serif" font-size="10.00">zmqpp/message.hpp</text>
</g>
<!-- Node2&#45;&gt;Node7 -->
<g id="edge7" class="edge"><title>Node2&#45;&gt;Node7</title>
<path fill="none" stroke="midnightblue" d="M670.417,-112.083C678.28,-104.22 689.931,-92.5688 699.419,-83.0813"/>
<polygon fill="midnightblue" stroke="midnightblue" points="702.153,-85.2971 706.749,-75.7511 697.203,-80.3473 702.153,-85.2971"/>
</g>
<!-- Node4 -->
<g id="node5" class="node"><title>Node4</title>
<polygon fill="white" stroke="#bfbfbf" points="513,-0.5 513,-19.5 562,-19.5 562,-0.5 513,-0.5"/>
<text text-anchor="middle" x="537.5" y="-7.5" font-family="Helvetica,sans-Serif" font-size="10.00">cstddef</text>
</g>
<!-- Node3&#45;&gt;Node4 -->
<g id="edge4" class="edge"><title>Node3&#45;&gt;Node4</title>
<path fill="none" stroke="midnightblue" d="M595.414,-56.324C585.014,-48.1849 569.239,-35.8395 556.778,-26.0874"/>
<polygon fill="midnightblue" stroke="midnightblue" points="558.82,-23.2407 548.788,-19.8339 554.506,-28.7533 558.82,-23.2407"/>
</g>
<!-- Node5 -->
<g id="node6" class="node"><title>Node5</title>
<polygon fill="white" stroke="#bfbfbf" points="580.5,-0.5 580.5,-19.5 632.5,-19.5 632.5,-0.5 580.5,-0.5"/>
<text text-anchor="middle" x="606.5" y="-7.5" font-family="Helvetica,sans-Serif" font-size="10.00">memory</text>
</g>
<!-- Node3&#45;&gt;Node5 -->
<g id="edge5" class="edge"><title>Node3&#45;&gt;Node5</title>
<path fill="none" stroke="midnightblue" d="M606.5,-56.083C606.5,-49.0059 606.5,-38.8611 606.5,-29.9865"/>
<polygon fill="midnightblue" stroke="midnightblue" points="610,-29.751 606.5,-19.7511 603,-29.7511 610,-29.751"/>
</g>
<!-- Node6 -->
<g id="node7" class="node"><title>Node6</title>
<polygon fill="white" stroke="#bfbfbf" points="650.5,-0.5 650.5,-19.5 736.5,-19.5 736.5,-0.5 650.5,-0.5"/>
<text text-anchor="middle" x="693.5" y="-7.5" font-family="Helvetica,sans-Serif" font-size="10.00">odb/lazy&#45;ptr.hxx</text>
</g>
<!-- Node3&#45;&gt;Node6 -->
<g id="edge6" class="edge"><title>Node3&#45;&gt;Node6</title>
<path fill="none" stroke="midnightblue" d="M620.478,-56.324C634.05,-47.9002 654.88,-34.9709 670.825,-25.0741"/>
<polygon fill="midnightblue" stroke="midnightblue" points="672.906,-27.9019 679.557,-19.6545 669.214,-21.9544 672.906,-27.9019"/>
</g>
<!-- Node8&#45;&gt;Node9 -->
<g id="edge9" class="edge"><title>Node8&#45;&gt;Node9</title>
<path fill="none" stroke="midnightblue" d="M89.3919,-173.975C102.705,-164.431 124.5,-148.807 140.457,-137.368"/>
<polygon fill="midnightblue" stroke="midnightblue" points="142.542,-140.18 148.63,-131.509 138.464,-134.491 142.542,-140.18"/>
</g>
<!-- Node9&#45;&gt;Node10 -->
<g id="edge10" class="edge"><title>Node9&#45;&gt;Node10</title>
<path fill="none" stroke="midnightblue" d="M174.478,-112.324C188.05,-103.9 208.88,-90.9709 224.825,-81.0741"/>
<polygon fill="midnightblue" stroke="midnightblue" points="226.906,-83.9019 233.557,-75.6545 223.214,-77.9544 226.906,-83.9019"/>
</g>
<!-- Node9&#45;&gt;Node11 -->
<g id="edge11" class="edge"><title>Node9&#45;&gt;Node11</title>
<path fill="none" stroke="midnightblue" d="M191.214,-115.221C246.369,-104.843 361.577,-83.1668 416.755,-72.7848"/>
<polygon fill="midnightblue" stroke="midnightblue" points="417.463,-76.2131 426.643,-70.9243 416.168,-69.3338 417.463,-76.2131"/>
</g>
<!-- Node12 -->
<g id="node13" class="node"><title>Node12</title>
<polygon fill="white" stroke="#bfbfbf" points="115,-56.5 115,-75.5 206,-75.5 206,-56.5 115,-56.5"/>
<text text-anchor="middle" x="160.5" y="-63.5" font-family="Helvetica,sans-Serif" font-size="10.00">zmqpp/poller.hpp</text>
</g>
<!-- Node9&#45;&gt;Node12 -->
<g id="edge12" class="edge"><title>Node9&#45;&gt;Node12</title>
<path fill="none" stroke="midnightblue" d="M160.5,-112.083C160.5,-105.006 160.5,-94.8611 160.5,-85.9865"/>
<polygon fill="midnightblue" stroke="midnightblue" points="164,-85.751 160.5,-75.7511 157,-85.7511 164,-85.751"/>
</g>
<!-- Node13 -->
<g id="node14" class="node"><title>Node13</title>
<polygon fill="white" stroke="#bfbfbf" points="0,-56.5 0,-75.5 97,-75.5 97,-56.5 0,-56.5"/>
<text text-anchor="middle" x="48.5" y="-63.5" font-family="Helvetica,sans-Serif" font-size="10.00">zmqpp/socket.hpp</text>
</g>
<!-- Node9&#45;&gt;Node13 -->
<g id="edge13" class="edge"><title>Node9&#45;&gt;Node13</title>
<path fill="none" stroke="midnightblue" d="M142.505,-112.324C124.462,-103.625 96.4531,-90.1202 75.6973,-80.113"/>
<polygon fill="midnightblue" stroke="midnightblue" points="76.9778,-76.8449 66.4501,-75.6545 73.9377,-83.1502 76.9778,-76.8449"/>
</g>
<!-- Node14&#45;&gt;Node2 -->
<g id="edge16" class="edge"><title>Node14&#45;&gt;Node2</title>
<path fill="none" stroke="midnightblue" d="M521.868,-168.399C553.49,-158.118 595.833,-144.351 625.571,-134.682"/>
<polygon fill="midnightblue" stroke="midnightblue" points="626.711,-137.992 635.139,-131.571 624.547,-131.335 626.711,-137.992"/>
</g>
<!-- Node14&#45;&gt;Node10 -->
<g id="edge19" class="edge"><title>Node14&#45;&gt;Node10</title>
<path fill="none" stroke="midnightblue" d="M464.642,-168.422C448.42,-152.664 420.116,-127.335 391.5,-112 355.773,-92.8541 310.619,-80.4116 280.491,-73.5644"/>
<polygon fill="midnightblue" stroke="midnightblue" points="281.018,-70.097 270.501,-71.374 279.519,-76.9346 281.018,-70.097"/>
</g>
<!-- Node14&#45;&gt;Node11 -->
<g id="edge20" class="edge"><title>Node14&#45;&gt;Node11</title>
<path fill="none" stroke="midnightblue" d="M499.386,-168.308C517.217,-154.341 538.257,-132.227 526.5,-112 516.09,-94.0899 495.591,-82.7164 478.083,-75.8846"/>
<polygon fill="midnightblue" stroke="midnightblue" points="478.813,-72.4296 468.219,-72.3719 476.465,-79.0239 478.813,-72.4296"/>
</g>
<!-- Node14&#45;&gt;Node15 -->
<g id="edge17" class="edge"><title>Node14&#45;&gt;Node15</title>
<path fill="none" stroke="midnightblue" d="M444.374,-168.399C420.213,-158.416 388.098,-145.147 364.833,-135.534"/>
<polygon fill="midnightblue" stroke="midnightblue" points="366.032,-132.242 355.453,-131.658 363.359,-138.711 366.032,-132.242"/>
</g>
<!-- Node16 -->
<g id="node17" class="node"><title>Node16</title>
<polygon fill="white" stroke="#bfbfbf" points="439.5,-112.5 439.5,-131.5 517.5,-131.5 517.5,-112.5 439.5,-112.5"/>
<text text-anchor="middle" x="478.5" y="-119.5" font-family="Helvetica,sans-Serif" font-size="10.00">boost/any.hpp</text>
</g>
<!-- Node14&#45;&gt;Node16 -->
<g id="edge18" class="edge"><title>Node14&#45;&gt;Node16</title>
<path fill="none" stroke="midnightblue" d="M478.5,-168.399C478.5,-160.466 478.5,-150.458 478.5,-141.858"/>
<polygon fill="midnightblue" stroke="midnightblue" points="482,-141.658 478.5,-131.658 475,-141.658 482,-141.658"/>
</g>
<!-- Node17&#45;&gt;Node11 -->
<g id="edge31" class="edge"><title>Node17&#45;&gt;Node11</title>
<path fill="none" stroke="midnightblue" d="M777.242,-239.625C740.933,-234.113 684.306,-222.379 640.5,-199 589.117,-171.577 591.084,-144.122 542.5,-112 522.018,-98.4575 496.824,-86.72 477.528,-78.6309"/>
<polygon fill="midnightblue" stroke="midnightblue" points="478.613,-75.2929 468.032,-74.7431 475.961,-81.771 478.613,-75.2929"/>
</g>
<!-- Node18 -->
<g id="node19" class="node"><title>Node18</title>
<polygon fill="white" stroke="#bfbfbf" points="824,-174 824,-193 873,-193 873,-174 824,-174"/>
<text text-anchor="middle" x="848.5" y="-181" font-family="Helvetica,sans-Serif" font-size="10.00">cassert</text>
</g>
<!-- Node17&#45;&gt;Node18 -->
<g id="edge26" class="edge"><title>Node17&#45;&gt;Node18</title>
<path fill="none" stroke="midnightblue" d="M818.515,-235.475C823.661,-226.727 831.812,-212.869 838.318,-201.809"/>
<polygon fill="midnightblue" stroke="midnightblue" points="841.441,-203.403 843.495,-193.009 835.408,-199.854 841.441,-203.403"/>
</g>
<!-- Node19 -->
<g id="node20" class="node"><title>Node19</title>
<polygon fill="white" stroke="#bfbfbf" points="891,-174 891,-193 938,-193 938,-174 891,-174"/>
<text text-anchor="middle" x="914.5" y="-181" font-family="Helvetica,sans-Serif" font-size="10.00">csignal</text>
</g>
<!-- Node17&#45;&gt;Node19 -->
<g id="edge27" class="edge"><title>Node17&#45;&gt;Node19</title>
<path fill="none" stroke="midnightblue" d="M827.971,-235.475C844.471,-225.755 871.678,-209.727 891.181,-198.237"/>
<polygon fill="midnightblue" stroke="midnightblue" points="893.216,-201.101 900.056,-193.009 889.663,-195.069 893.216,-201.101"/>
</g>
<!-- Node20 -->
<g id="node21" class="node"><title>Node20</title>
<polygon fill="white" stroke="#bfbfbf" points="956.5,-174 956.5,-193 1010.5,-193 1010.5,-174 956.5,-174"/>
<text text-anchor="middle" x="983.5" y="-181" font-family="Helvetica,sans-Serif" font-size="10.00">iostream</text>
</g>
<!-- Node17&#45;&gt;Node20 -->
<g id="edge28" class="edge"><title>Node17&#45;&gt;Node20</title>
<path fill="none" stroke="midnightblue" d="M840.357,-235.495C867.528,-226.771 910.662,-212.591 947.5,-199 949.349,-198.318 951.245,-197.602 953.154,-196.87"/>
<polygon fill="midnightblue" stroke="midnightblue" points="954.613,-200.057 962.641,-193.144 952.054,-193.542 954.613,-200.057"/>
</g>
<!-- Node21 -->
<g id="node22" class="node"><title>Node21</title>
<polygon fill="white" stroke="#bfbfbf" points="650,-174 650,-193 735,-193 735,-174 650,-174"/>
<text text-anchor="middle" x="692.5" y="-181" font-family="Helvetica,sans-Serif" font-size="10.00">spdlog/spdlog.h</text>
</g>
<!-- Node17&#45;&gt;Node21 -->
<g id="edge29" class="edge"><title>Node17&#45;&gt;Node21</title>
<path fill="none" stroke="midnightblue" d="M796.164,-235.475C775.947,-225.534 742.313,-208.995 718.858,-197.461"/>
<polygon fill="midnightblue" stroke="midnightblue" points="720.322,-194.281 709.804,-193.009 717.233,-200.563 720.322,-194.281"/>
</g>
<!-- Node22 -->
<g id="node23" class="node"><title>Node22</title>
<polygon fill="white" stroke="#bfbfbf" points="753.5,-174 753.5,-193 805.5,-193 805.5,-174 753.5,-174"/>
<text text-anchor="middle" x="779.5" y="-181" font-family="Helvetica,sans-Serif" font-size="10.00">sstream</text>
</g>
<!-- Node17&#45;&gt;Node22 -->
<g id="edge30" class="edge"><title>Node17&#45;&gt;Node22</title>
<path fill="none" stroke="midnightblue" d="M808.629,-235.475C803.63,-226.727 795.711,-212.869 789.391,-201.809"/>
<polygon fill="midnightblue" stroke="midnightblue" points="792.363,-199.955 784.362,-193.009 786.285,-203.428 792.363,-199.955"/>
</g>
</g>
</svg>
        <g id="navigator" transform="translate(0 0)" fill="#404254">
                <rect fill="#f2f5e9" fill-opacity="0.5" stroke="#606060" stroke-width=".5" x="0" y="0" width="60" height="60"/>
                <use id="zoomplus" xlink:href="#zoomPlus" x="17" y="9" onmousedown="handleZoom(evt,'in')"/>
                <use id="zoomminus" xlink:href="#zoomMin" x="42" y="9" onmousedown="handleZoom(evt,'out')"/>
                <use id="reset" xlink:href="#resetDef" x="30" y="36" onmousedown="handleReset()"/>
                <g id="arrowUp" xlink:href="#dirArrow" transform="translate(30 24)" onmousedown="handlePan(0,-1)">
                  <use xlink:href="#rim" fill="#404040">
                        <set attributeName="fill" to="#808080" begin="arrowUp.mouseover" end="arrowUp.mouseout"/>
                  </use>
                  <path fill="none" stroke="white" stroke-width="1.5" d="M0,-3.0v7 M-2.5,-0.5L0,-3.0L2.5,-0.5"/>
                </g>
                <g id="arrowRight" xlink:href="#dirArrow" transform="rotate(90) translate(36 -43)" onmousedown="handlePan(1,0)">
                  <use xlink:href="#rim" fill="#404040">
                        <set attributeName="fill" to="#808080" begin="arrowRight.mouseover" end="arrowRight.mouseout"/>
                  </use>
                  <path fill="none" stroke="white" stroke-width="1.5" d="M0,-3.0v7 M-2.5,-0.5L0,-3.0L2.5,-0.5"/>
                </g>
                <g id="arrowDown" xlink:href="#dirArrow" transform="rotate(180) translate(-30 -48)" onmousedown="handlePan(0,1)">
                  <use xlink:href="#rim" fill="#404040">
                        <set attributeName="fill" to="#808080" begin="arrowDown.mouseover" end="arrowDown.mouseout"/>
                  </use>
                  <path fill="none" stroke="white" stroke-width="1.5" d="M0,-3.0v7 M-2.5,-0.5L0,-3.0L2.5,-0.5"/>
                </g>
                <g id="arrowLeft" xlink:href="#dirArrow" transform="rotate(270) translate(-36 17)" onmousedown="handlePan(-1,0)">
                  <use xlink:href="#rim" fill="#404040">
                        <set attributeName="fill" to="#808080" begin="arrowLeft.mouseover" end="arrowLeft.mouseout"/>
                  </use>
                  <path fill="none" stroke="white" stroke-width="1.5" d="M0,-3.0v7 M-2.5,-0.5L0,-3.0L2.5,-0.5"/>
                </g>
        </g>
        <svg viewBox="0 0 15 15" width="100%" height="30px" preserveAspectRatio="xMaxYMin meet">
         <g id="arrow_out" transform="scale(0.3 0.3)">
          <a xlink:href="WiegandReaderImpl_8cpp__incl_org.svg" target="_base">
           <rect id="button" ry="5" rx="5" y="6" x="6" height="38" width="38"
                fill="#f2f5e9" fill-opacity="0.5" stroke="#606060" stroke-width="1.0"/>
           <path id="arrow"
             d="M 11.500037,31.436501 C 11.940474,20.09759 22.043105,11.32322 32.158766,21.979434 L 37.068811,17.246167 C 37.068811,17.246167 37.088388,32 37.088388,32 L 22.160133,31.978069 C 22.160133,31.978069 26.997745,27.140456 26.997745,27.140456 C 18.528582,18.264221 13.291696,25.230495 11.500037,31.436501 z"
             style="fill:#404040;"/>
          </a>
         </g>
        </svg>
</svg>
