<?xml version="1.0" encoding="UTF-8" standalone="no"?>
<!DOCTYPE svg PUBLIC "-//W3C//DTD SVG 1.1//EN"
 "http://www.w3.org/Graphics/SVG/1.1/DTD/svg11.dtd">
<!-- Generated by graphviz version 2.38.0 (20140413.2041)
 -->
<!-- Title: src/tools/Stacktrace.cpp Pages: 1 -->
<svg width="605pt" height="151pt"
 viewBox="0.00 0.00 604.50 151.00" xmlns="http://www.w3.org/2000/svg" xmlns:xlink="http://www.w3.org/1999/xlink">
<g id="graph0" class="graph" transform="scale(1 1) rotate(0) translate(4 147)">
<title>src/tools/Stacktrace.cpp</title>
<polygon fill="white" stroke="none" points="-4,4 -4,-147 600.5,-147 600.5,4 -4,4"/>
<!-- Node0 -->
<g id="node1" class="node"><title>Node0</title>
<polygon fill="#bfbfbf" stroke="black" points="197.5,-123.5 197.5,-142.5 320.5,-142.5 320.5,-123.5 197.5,-123.5"/>
<text text-anchor="middle" x="259" y="-130.5" font-family="Helvetica,sans-Serif" font-size="10.00">src/tools/Stacktrace.cpp</text>
</g>
<!-- Node1 -->
<g id="node2" class="node"><title>Node1</title>
<g id="a_node2"><a xlink:href="../../d6/d2f/Stacktrace_8hpp.html" target="_top" xlink:title="Stacktrace.hpp">
<polygon fill="white" stroke="black" points="6.5,-62 6.5,-81 89.5,-81 89.5,-62 6.5,-62"/>
<text text-anchor="middle" x="48" y="-69" font-family="Helvetica,sans-Serif" font-size="10.00">Stacktrace.hpp</text>
</a>
</g>
</g>
<!-- Node0&#45;&gt;Node1 -->
<g id="edge1" class="edge"><title>Node0&#45;&gt;Node1</title>
<path fill="none" stroke="midnightblue" d="M228.11,-123.462C195.681,-114.476 143.219,-99.8759 98,-87 94.4442,-85.9875 90.748,-84.9283 87.0473,-83.8633"/>
<polygon fill="midnightblue" stroke="midnightblue" points="87.9119,-80.47 77.3335,-81.0583 85.9699,-87.1953 87.9119,-80.47"/>
</g>
<!-- Node4 -->
<g id="node5" class="node"><title>Node4</title>
<g id="a_node5"><a xlink:href="../../dd/d35/Colorize_8hpp.html" target="_top" xlink:title="Colorize.hpp">
<polygon fill="white" stroke="black" points="107.5,-62 107.5,-81 178.5,-81 178.5,-62 107.5,-62"/>
<text text-anchor="middle" x="143" y="-69" font-family="Helvetica,sans-Serif" font-size="10.00">Colorize.hpp</text>
</a>
</g>
</g>
<!-- Node0&#45;&gt;Node4 -->
<g id="edge4" class="edge"><title>Node0&#45;&gt;Node4</title>
<path fill="none" stroke="midnightblue" d="M242.38,-123.475C223.085,-113.578 191.041,-97.1416 168.569,-85.6151"/>
<polygon fill="midnightblue" stroke="midnightblue" points="170.084,-82.4589 159.589,-81.0091 166.89,-88.6873 170.084,-82.4589"/>
</g>
<!-- Node6 -->
<g id="node7" class="node"><title>Node6</title>
<g id="a_node7"><a xlink:href="../../d4/d3d/log_8hpp.html" target="_top" xlink:title="log.hpp">
<polygon fill="white" stroke="black" points="197,-62 197,-81 245,-81 245,-62 197,-62"/>
<text text-anchor="middle" x="221" y="-69" font-family="Helvetica,sans-Serif" font-size="10.00">log.hpp</text>
</a>
</g>
</g>
<!-- Node0&#45;&gt;Node6 -->
<g id="edge7" class="edge"><title>Node0&#45;&gt;Node6</title>
<path fill="none" stroke="midnightblue" d="M253.556,-123.475C247.912,-114.638 238.939,-100.589 231.841,-89.475"/>
<polygon fill="midnightblue" stroke="midnightblue" points="234.767,-87.5531 226.434,-81.0091 228.867,-91.3208 234.767,-87.5531"/>
</g>
<!-- Node11 -->
<g id="node12" class="node"><title>Node11</title>
<polygon fill="white" stroke="#bfbfbf" points="263,-62 263,-81 331,-81 331,-62 263,-62"/>
<text text-anchor="middle" x="297" y="-69" font-family="Helvetica,sans-Serif" font-size="10.00">backtrace.h</text>
</g>
<!-- Node0&#45;&gt;Node11 -->
<g id="edge14" class="edge"><title>Node0&#45;&gt;Node11</title>
<path fill="none" stroke="midnightblue" d="M264.444,-123.475C270.088,-114.638 279.061,-100.589 286.159,-89.475"/>
<polygon fill="midnightblue" stroke="midnightblue" points="289.133,-91.3208 291.566,-81.0091 283.233,-87.5531 289.133,-91.3208"/>
</g>
<!-- Node12 -->
<g id="node13" class="node"><title>Node12</title>
<polygon fill="white" stroke="#bfbfbf" points="349,-62 349,-81 475,-81 475,-62 349,-62"/>
<text text-anchor="middle" x="412" y="-69" font-family="Helvetica,sans-Serif" font-size="10.00">boost/core/demangle.hpp</text>
</g>
<!-- Node0&#45;&gt;Node12 -->
<g id="edge15" class="edge"><title>Node0&#45;&gt;Node12</title>
<path fill="none" stroke="midnightblue" d="M280.921,-123.475C307.052,-113.313 350.912,-96.2564 380.63,-84.6996"/>
<polygon fill="midnightblue" stroke="midnightblue" points="382.068,-87.8956 390.119,-81.0091 379.531,-81.3716 382.068,-87.8956"/>
</g>
<!-- Node13 -->
<g id="node14" class="node"><title>Node13</title>
<polygon fill="white" stroke="#bfbfbf" points="493.5,-56.5 493.5,-86.5 596.5,-86.5 596.5,-56.5 493.5,-56.5"/>
<text text-anchor="start" x="501.5" y="-74.5" font-family="Helvetica,sans-Serif" font-size="10.00">boost/range/adaptor</text>
<text text-anchor="middle" x="545" y="-63.5" font-family="Helvetica,sans-Serif" font-size="10.00">/reversed.hpp</text>
</g>
<!-- Node0&#45;&gt;Node13 -->
<g id="edge16" class="edge"><title>Node0&#45;&gt;Node13</title>
<path fill="none" stroke="midnightblue" d="M304.351,-123.427C347.729,-115.115 415.232,-101.892 483.387,-87.0878"/>
<polygon fill="midnightblue" stroke="midnightblue" points="484.422,-90.4446 493.445,-84.8925 482.929,-83.6056 484.422,-90.4446"/>
</g>
<!-- Node2 -->
<g id="node3" class="node"><title>Node2</title>
<polygon fill="white" stroke="#bfbfbf" points="62.5,-0.5 62.5,-19.5 103.5,-19.5 103.5,-0.5 62.5,-0.5"/>
<text text-anchor="middle" x="83" y="-7.5" font-family="Helvetica,sans-Serif" font-size="10.00">string</text>
</g>
<!-- Node1&#45;&gt;Node2 -->
<g id="edge2" class="edge"><title>Node1&#45;&gt;Node2</title>
<path fill="none" stroke="midnightblue" d="M53.0146,-61.9751C58.1607,-53.2268 66.3123,-39.3691 72.818,-28.3093"/>
<polygon fill="midnightblue" stroke="midnightblue" points="75.9412,-29.903 77.9947,-19.5091 69.9076,-26.3539 75.9412,-29.903"/>
</g>
<!-- Node3 -->
<g id="node4" class="node"><title>Node3</title>
<polygon fill="white" stroke="#bfbfbf" points="0,-0.5 0,-19.5 44,-19.5 44,-0.5 0,-0.5"/>
<text text-anchor="middle" x="22" y="-7.5" font-family="Helvetica,sans-Serif" font-size="10.00">vector</text>
</g>
<!-- Node1&#45;&gt;Node3 -->
<g id="edge3" class="edge"><title>Node1&#45;&gt;Node3</title>
<path fill="none" stroke="midnightblue" d="M44.2748,-61.9751C40.5293,-53.4035 34.6403,-39.9269 29.8581,-28.983"/>
<polygon fill="midnightblue" stroke="midnightblue" points="32.9296,-27.271 25.7183,-19.5091 26.5153,-30.0739 32.9296,-27.271"/>
</g>
<!-- Node4&#45;&gt;Node2 -->
<g id="edge6" class="edge"><title>Node4&#45;&gt;Node2</title>
<path fill="none" stroke="midnightblue" d="M134.403,-61.9751C125.136,-52.785 110.183,-37.9563 98.7876,-26.656"/>
<polygon fill="midnightblue" stroke="midnightblue" points="101.146,-24.0653 91.5806,-19.5091 96.2167,-29.0358 101.146,-24.0653"/>
</g>
<!-- Node5 -->
<g id="node6" class="node"><title>Node5</title>
<polygon fill="white" stroke="#bfbfbf" points="122,-0.5 122,-19.5 174,-19.5 174,-0.5 122,-0.5"/>
<text text-anchor="middle" x="148" y="-7.5" font-family="Helvetica,sans-Serif" font-size="10.00">sstream</text>
</g>
<!-- Node4&#45;&gt;Node5 -->
<g id="edge5" class="edge"><title>Node4&#45;&gt;Node5</title>
<path fill="none" stroke="midnightblue" d="M143.716,-61.9751C144.422,-53.5803 145.523,-40.4806 146.432,-29.6631"/>
<polygon fill="midnightblue" stroke="midnightblue" points="149.935,-29.7671 147.285,-19.5091 142.96,-29.1808 149.935,-29.7671"/>
</g>
<!-- Node6&#45;&gt;Node2 -->
<g id="edge13" class="edge"><title>Node6&#45;&gt;Node2</title>
<path fill="none" stroke="midnightblue" d="M201.228,-61.9751C177.864,-51.9013 138.786,-35.0525 111.997,-23.5023"/>
<polygon fill="midnightblue" stroke="midnightblue" points="113.304,-20.2544 102.735,-19.5091 110.532,-26.6824 113.304,-20.2544"/>
</g>
<!-- Node6&#45;&gt;Node5 -->
<g id="edge12" class="edge"><title>Node6&#45;&gt;Node5</title>
<path fill="none" stroke="midnightblue" d="M210.541,-61.9751C199.049,-52.6082 180.37,-37.3839 166.413,-26.0081"/>
<polygon fill="midnightblue" stroke="midnightblue" points="168.402,-23.114 158.44,-19.5091 163.98,-28.54 168.402,-23.114"/>
</g>
<!-- Node7 -->
<g id="node8" class="node"><title>Node7</title>
<polygon fill="white" stroke="#bfbfbf" points="433.5,-0.5 433.5,-19.5 482.5,-19.5 482.5,-0.5 433.5,-0.5"/>
<text text-anchor="middle" x="458" y="-7.5" font-family="Helvetica,sans-Serif" font-size="10.00">cassert</text>
</g>
<!-- Node6&#45;&gt;Node7 -->
<g id="edge8" class="edge"><title>Node6&#45;&gt;Node7</title>
<path fill="none" stroke="midnightblue" d="M238.551,-61.9867C243.471,-59.8219 248.876,-57.6456 254,-56 324.913,-33.2261 347.646,-37.7855 423.184,-20.3062"/>
<polygon fill="midnightblue" stroke="midnightblue" points="424.251,-23.6504 433.174,-17.9386 422.636,-16.8391 424.251,-23.6504"/>
</g>
<!-- Node8 -->
<g id="node9" class="node"><title>Node8</title>
<polygon fill="white" stroke="#bfbfbf" points="192.5,-0.5 192.5,-19.5 239.5,-19.5 239.5,-0.5 192.5,-0.5"/>
<text text-anchor="middle" x="216" y="-7.5" font-family="Helvetica,sans-Serif" font-size="10.00">csignal</text>
</g>
<!-- Node6&#45;&gt;Node8 -->
<g id="edge9" class="edge"><title>Node6&#45;&gt;Node8</title>
<path fill="none" stroke="midnightblue" d="M220.284,-61.9751C219.578,-53.5803 218.477,-40.4806 217.568,-29.6631"/>
<polygon fill="midnightblue" stroke="midnightblue" points="221.04,-29.1808 216.715,-19.5091 214.065,-29.7671 221.04,-29.1808"/>
</g>
<!-- Node9 -->
<g id="node10" class="node"><title>Node9</title>
<polygon fill="white" stroke="#bfbfbf" points="258,-0.5 258,-19.5 312,-19.5 312,-0.5 258,-0.5"/>
<text text-anchor="middle" x="285" y="-7.5" font-family="Helvetica,sans-Serif" font-size="10.00">iostream</text>
</g>
<!-- Node6&#45;&gt;Node9 -->
<g id="edge10" class="edge"><title>Node6&#45;&gt;Node9</title>
<path fill="none" stroke="midnightblue" d="M230.17,-61.9751C240.15,-52.6966 256.312,-37.6706 268.509,-26.331"/>
<polygon fill="midnightblue" stroke="midnightblue" points="270.907,-28.8814 275.847,-19.5091 266.14,-23.7547 270.907,-28.8814"/>
</g>
<!-- Node10 -->
<g id="node11" class="node"><title>Node10</title>
<polygon fill="white" stroke="#bfbfbf" points="330.5,-0.5 330.5,-19.5 415.5,-19.5 415.5,-0.5 330.5,-0.5"/>
<text text-anchor="middle" x="373" y="-7.5" font-family="Helvetica,sans-Serif" font-size="10.00">spdlog/spdlog.h</text>
</g>
<!-- Node6&#45;&gt;Node10 -->
<g id="edge11" class="edge"><title>Node6&#45;&gt;Node10</title>
<path fill="none" stroke="midnightblue" d="M240.122,-61.8949C244.653,-59.9127 249.481,-57.8456 254,-56 282.627,-44.3076 315.533,-31.9455 339.476,-23.1431"/>
<polygon fill="midnightblue" stroke="midnightblue" points="340.963,-26.3258 349.15,-19.6009 338.556,-19.7526 340.963,-26.3258"/>
</g>
</g>
</svg>
