<?xml version="1.0" encoding="UTF-8" standalone="no"?>
<!DOCTYPE svg PUBLIC "-//W3C//DTD SVG 1.1//EN"
 "http://www.w3.org/Graphics/SVG/1.1/DTD/svg11.dtd">
<!-- Generated by graphviz version 2.38.0 (20140413.2041)
 -->
<!-- Title: src/modules/wiegand/strategies/WiegandPinNBitsOnly.hpp Pages: 1 -->
<svg width="497pt" height="330pt"
 viewBox="0.00 0.00 496.50 330.00" xmlns="http://www.w3.org/2000/svg" xmlns:xlink="http://www.w3.org/1999/xlink">
<g id="graph0" class="graph" transform="scale(1 1) rotate(0) translate(4 326)">
<title>src/modules/wiegand/strategies/WiegandPinNBitsOnly.hpp</title>
<polygon fill="white" stroke="none" points="-4,4 -4,-326 492.5,-326 492.5,4 -4,4"/>
<!-- Node0 -->
<g id="node1" class="node"><title>Node0</title>
<polygon fill="#bfbfbf" stroke="black" points="87.5,-280.5 87.5,-321.5 230.5,-321.5 230.5,-280.5 87.5,-280.5"/>
<text text-anchor="start" x="95.5" y="-309.5" font-family="Helvetica,sans-Serif" font-size="10.00">src/modules/wiegand</text>
<text text-anchor="start" x="95.5" y="-298.5" font-family="Helvetica,sans-Serif" font-size="10.00">/strategies/WiegandPinNBits</text>
<text text-anchor="middle" x="159" y="-287.5" font-family="Helvetica,sans-Serif" font-size="10.00">Only.hpp</text>
</g>
<!-- Node1 -->
<g id="node2" class="node"><title>Node1</title>
<g id="a_node2"><a xlink:href="../../d0/dc4/PinReading_8hpp.html" target="_top" xlink:title="PinReading.hpp">
<polygon fill="white" stroke="black" points="116,-224.5 116,-243.5 202,-243.5 202,-224.5 116,-224.5"/>
<text text-anchor="middle" x="159" y="-231.5" font-family="Helvetica,sans-Serif" font-size="10.00">PinReading.hpp</text>
</a>
</g>
</g>
<!-- Node0&#45;&gt;Node1 -->
<g id="edge1" class="edge"><title>Node0&#45;&gt;Node1</title>
<path fill="none" stroke="midnightblue" d="M159,-280.498C159,-272.065 159,-262.235 159,-253.874"/>
<polygon fill="midnightblue" stroke="midnightblue" points="162.5,-253.652 159,-243.652 155.5,-253.653 162.5,-253.652"/>
</g>
<!-- Node2 -->
<g id="node3" class="node"><title>Node2</title>
<g id="a_node3"><a xlink:href="../../db/dd7/StrategiesFwd_8hpp.html" target="_top" xlink:title="StrategiesFwd.hpp">
<polygon fill="white" stroke="black" points="13,-168.5 13,-187.5 111,-187.5 111,-168.5 13,-168.5"/>
<text text-anchor="middle" x="62" y="-175.5" font-family="Helvetica,sans-Serif" font-size="10.00">StrategiesFwd.hpp</text>
</a>
</g>
</g>
<!-- Node1&#45;&gt;Node2 -->
<g id="edge2" class="edge"><title>Node1&#45;&gt;Node2</title>
<path fill="none" stroke="midnightblue" d="M143.415,-224.324C128.001,-215.743 104.188,-202.486 86.2903,-192.522"/>
<polygon fill="midnightblue" stroke="midnightblue" points="87.9858,-189.461 77.5461,-187.655 84.5809,-195.577 87.9858,-189.461"/>
</g>
<!-- Node4 -->
<g id="node5" class="node"><title>Node4</title>
<g id="a_node5"><a xlink:href="../../dd/d5c/WiegandStrategy_8hpp.html" target="_top" xlink:title="WiegandStrategy.hpp">
<polygon fill="white" stroke="black" points="218,-168.5 218,-187.5 328,-187.5 328,-168.5 218,-168.5"/>
<text text-anchor="middle" x="273" y="-175.5" font-family="Helvetica,sans-Serif" font-size="10.00">WiegandStrategy.hpp</text>
</a>
</g>
</g>
<!-- Node1&#45;&gt;Node4 -->
<g id="edge4" class="edge"><title>Node1&#45;&gt;Node4</title>
<path fill="none" stroke="midnightblue" d="M177.064,-224.444C195.575,-215.675 224.581,-201.935 245.855,-191.858"/>
<polygon fill="midnightblue" stroke="midnightblue" points="247.482,-194.96 255.021,-187.516 244.485,-188.634 247.482,-194.96"/>
</g>
<!-- Node3 -->
<g id="node4" class="node"><title>Node3</title>
<polygon fill="white" stroke="#bfbfbf" points="0,-0.5 0,-19.5 52,-19.5 52,-0.5 0,-0.5"/>
<text text-anchor="middle" x="26" y="-7.5" font-family="Helvetica,sans-Serif" font-size="10.00">memory</text>
</g>
<!-- Node2&#45;&gt;Node3 -->
<g id="edge3" class="edge"><title>Node2&#45;&gt;Node3</title>
<path fill="none" stroke="midnightblue" d="M58.062,-168.212C54.2023,-159.267 48.4155,-144.918 45,-132 35.6112,-96.4894 30.2422,-53.8111 27.7428,-29.8051"/>
<polygon fill="midnightblue" stroke="midnightblue" points="31.2044,-29.2424 26.7413,-19.6335 24.2381,-29.9284 31.2044,-29.2424"/>
</g>
<!-- Node5 -->
<g id="node6" class="node"><title>Node5</title>
<g id="a_node6"><a xlink:href="../../dc/d74/Auth_8hpp.html" target="_top" xlink:title="core/auth/Auth.hpp">
<polygon fill="white" stroke="black" points="54.5,-112.5 54.5,-131.5 153.5,-131.5 153.5,-112.5 54.5,-112.5"/>
<text text-anchor="middle" x="104" y="-119.5" font-family="Helvetica,sans-Serif" font-size="10.00">core/auth/Auth.hpp</text>
</a>
</g>
</g>
<!-- Node4&#45;&gt;Node5 -->
<g id="edge5" class="edge"><title>Node4&#45;&gt;Node5</title>
<path fill="none" stroke="midnightblue" d="M246.221,-168.444C217.667,-159.32 172.267,-144.813 140.463,-134.651"/>
<polygon fill="midnightblue" stroke="midnightblue" points="141.244,-131.226 130.653,-131.516 139.114,-137.894 141.244,-131.226"/>
</g>
<!-- Node10 -->
<g id="node11" class="node"><title>Node10</title>
<polygon fill="white" stroke="#bfbfbf" points="171.5,-112.5 171.5,-131.5 268.5,-131.5 268.5,-112.5 171.5,-112.5"/>
<text text-anchor="middle" x="220" y="-119.5" font-family="Helvetica,sans-Serif" font-size="10.00">zmqpp/zmqpp.hpp</text>
</g>
<!-- Node4&#45;&gt;Node10 -->
<g id="edge11" class="edge"><title>Node4&#45;&gt;Node10</title>
<path fill="none" stroke="midnightblue" d="M264.248,-168.083C256.53,-160.22 245.095,-148.569 235.783,-139.081"/>
<polygon fill="midnightblue" stroke="midnightblue" points="238.092,-136.436 228.589,-131.751 233.096,-141.34 238.092,-136.436"/>
</g>
<!-- Node11 -->
<g id="node12" class="node"><title>Node11</title>
<polygon fill="white" stroke="#bfbfbf" points="287,-112.5 287,-131.5 365,-131.5 365,-112.5 287,-112.5"/>
<text text-anchor="middle" x="326" y="-119.5" font-family="Helvetica,sans-Serif" font-size="10.00">boost/any.hpp</text>
</g>
<!-- Node4&#45;&gt;Node11 -->
<g id="edge12" class="edge"><title>Node4&#45;&gt;Node11</title>
<path fill="none" stroke="midnightblue" d="M281.752,-168.083C289.47,-160.22 300.905,-148.569 310.217,-139.081"/>
<polygon fill="midnightblue" stroke="midnightblue" points="312.904,-141.34 317.411,-131.751 307.908,-136.436 312.904,-141.34"/>
</g>
<!-- Node12 -->
<g id="node13" class="node"><title>Node12</title>
<polygon fill="white" stroke="#bfbfbf" points="383,-112.5 383,-131.5 429,-131.5 429,-112.5 383,-112.5"/>
<text text-anchor="middle" x="406" y="-119.5" font-family="Helvetica,sans-Serif" font-size="10.00">chrono</text>
</g>
<!-- Node4&#45;&gt;Node12 -->
<g id="edge13" class="edge"><title>Node4&#45;&gt;Node12</title>
<path fill="none" stroke="midnightblue" d="M294.074,-168.444C316.06,-159.517 350.734,-145.439 375.664,-135.317"/>
<polygon fill="midnightblue" stroke="midnightblue" points="377.076,-138.521 385.024,-131.516 374.442,-132.035 377.076,-138.521"/>
</g>
<!-- Node13 -->
<g id="node14" class="node"><title>Node13</title>
<polygon fill="white" stroke="#bfbfbf" points="447.5,-112.5 447.5,-131.5 488.5,-131.5 488.5,-112.5 447.5,-112.5"/>
<text text-anchor="middle" x="468" y="-119.5" font-family="Helvetica,sans-Serif" font-size="10.00">string</text>
</g>
<!-- Node4&#45;&gt;Node13 -->
<g id="edge14" class="edge"><title>Node4&#45;&gt;Node13</title>
<path fill="none" stroke="midnightblue" d="M305.316,-168.445C336.678,-160.085 385.852,-146.828 437.662,-132.043"/>
<polygon fill="midnightblue" stroke="midnightblue" points="438.713,-135.383 447.363,-129.265 436.786,-128.653 438.713,-135.383"/>
</g>
<!-- Node6 -->
<g id="node7" class="node"><title>Node6</title>
<g id="a_node7"><a xlink:href="../../d3/d6f/AuthFwd_8hpp.html" target="_top" xlink:title="AuthFwd.hpp">
<polygon fill="white" stroke="black" points="58,-56.5 58,-75.5 132,-75.5 132,-56.5 58,-56.5"/>
<text text-anchor="middle" x="95" y="-63.5" font-family="Helvetica,sans-Serif" font-size="10.00">AuthFwd.hpp</text>
</a>
</g>
</g>
<!-- Node5&#45;&gt;Node6 -->
<g id="edge6" class="edge"><title>Node5&#45;&gt;Node6</title>
<path fill="none" stroke="midnightblue" d="M102.514,-112.083C101.321,-104.927 99.6059,-94.6353 98.1152,-85.6911"/>
<polygon fill="midnightblue" stroke="midnightblue" points="101.555,-85.0396 96.4585,-75.7511 94.6502,-86.1904 101.555,-85.0396"/>
</g>
<!-- Node9 -->
<g id="node10" class="node"><title>Node9</title>
<polygon fill="white" stroke="#bfbfbf" points="150.5,-56.5 150.5,-75.5 257.5,-75.5 257.5,-56.5 150.5,-56.5"/>
<text text-anchor="middle" x="204" y="-63.5" font-family="Helvetica,sans-Serif" font-size="10.00">zmqpp/message.hpp</text>
</g>
<!-- Node5&#45;&gt;Node9 -->
<g id="edge10" class="edge"><title>Node5&#45;&gt;Node9</title>
<path fill="none" stroke="midnightblue" d="M120.067,-112.324C135.958,-103.743 160.507,-90.486 178.958,-80.5224"/>
<polygon fill="midnightblue" stroke="midnightblue" points="180.837,-83.4857 187.973,-75.6545 177.511,-77.3264 180.837,-83.4857"/>
</g>
<!-- Node6&#45;&gt;Node3 -->
<g id="edge8" class="edge"><title>Node6&#45;&gt;Node3</title>
<path fill="none" stroke="midnightblue" d="M83.914,-56.324C73.514,-48.1849 57.7394,-35.8395 45.2784,-26.0874"/>
<polygon fill="midnightblue" stroke="midnightblue" points="47.3199,-23.2407 37.2878,-19.8339 43.0057,-28.7533 47.3199,-23.2407"/>
</g>
<!-- Node7 -->
<g id="node8" class="node"><title>Node7</title>
<polygon fill="white" stroke="#bfbfbf" points="70.5,-0.5 70.5,-19.5 119.5,-19.5 119.5,-0.5 70.5,-0.5"/>
<text text-anchor="middle" x="95" y="-7.5" font-family="Helvetica,sans-Serif" font-size="10.00">cstddef</text>
</g>
<!-- Node6&#45;&gt;Node7 -->
<g id="edge7" class="edge"><title>Node6&#45;&gt;Node7</title>
<path fill="none" stroke="midnightblue" d="M95,-56.083C95,-49.0059 95,-38.8611 95,-29.9865"/>
<polygon fill="midnightblue" stroke="midnightblue" points="98.5001,-29.751 95,-19.7511 91.5001,-29.7511 98.5001,-29.751"/>
</g>
<!-- Node8 -->
<g id="node9" class="node"><title>Node8</title>
<polygon fill="white" stroke="#bfbfbf" points="138,-0.5 138,-19.5 224,-19.5 224,-0.5 138,-0.5"/>
<text text-anchor="middle" x="181" y="-7.5" font-family="Helvetica,sans-Serif" font-size="10.00">odb/lazy&#45;ptr.hxx</text>
</g>
<!-- Node6&#45;&gt;Node8 -->
<g id="edge9" class="edge"><title>Node6&#45;&gt;Node8</title>
<path fill="none" stroke="midnightblue" d="M108.817,-56.324C122.233,-47.9002 142.824,-34.9709 158.586,-25.0741"/>
<polygon fill="midnightblue" stroke="midnightblue" points="160.609,-27.9364 167.217,-19.6545 156.887,-22.0081 160.609,-27.9364"/>
</g>
</g>
</svg>
