<?xml version="1.0" encoding="UTF-8" standalone="no"?>
<!DOCTYPE svg PUBLIC "-//W3C//DTD SVG 1.1//EN"
 "http://www.w3.org/Graphics/SVG/1.1/DTD/svg11.dtd">
<!-- Generated by graphviz version 2.38.0 (20140413.2041)
 -->
<!-- Title: src/modules/websock&#45;api/WSHelperThread.hpp Pages: 1 -->
<svg width="836pt" height="173pt"
 viewBox="0.00 0.00 835.50 173.00" xmlns="http://www.w3.org/2000/svg" xmlns:xlink="http://www.w3.org/1999/xlink">
<g id="graph0" class="graph" transform="scale(1 1) rotate(0) translate(4 169)">
<title>src/modules/websock&#45;api/WSHelperThread.hpp</title>
<polygon fill="white" stroke="none" points="-4,4 -4,-169 831.5,-169 831.5,4 -4,4"/>
<!-- Node68 -->
<g id="node1" class="node"><title>Node68</title>
<polygon fill="#bfbfbf" stroke="black" points="349.5,-134.5 349.5,-164.5 478.5,-164.5 478.5,-134.5 349.5,-134.5"/>
<text text-anchor="start" x="357.5" y="-152.5" font-family="Helvetica,sans-Serif" font-size="10.00">src/modules/websock</text>
<text text-anchor="middle" x="414" y="-141.5" font-family="Helvetica,sans-Serif" font-size="10.00">&#45;api/WSHelperThread.hpp</text>
</g>
<!-- Node69 -->
<g id="node2" class="node"><title>Node69</title>
<g id="a_node2"><a xlink:href="../../dc/d31/led-buzzer_2ws_2WSHelperThread_8hpp.html" target="_top" xlink:title="src/modules/led&#45;buzzer\l/ws/WSHelperThread.hpp">
<polygon fill="white" stroke="black" points="138.5,-67.5 138.5,-97.5 267.5,-97.5 267.5,-67.5 138.5,-67.5"/>
<text text-anchor="start" x="146.5" y="-85.5" font-family="Helvetica,sans-Serif" font-size="10.00">src/modules/led&#45;buzzer</text>
<text text-anchor="middle" x="203" y="-74.5" font-family="Helvetica,sans-Serif" font-size="10.00">/ws/WSHelperThread.hpp</text>
</a>
</g>
</g>
<!-- Node68&#45;&gt;Node69 -->
<g id="edge1" class="edge"><title>Node68&#45;&gt;Node69</title>
<path fill="none" stroke="midnightblue" d="M358.634,-131.444C324.431,-120.908 281.068,-107.549 248.806,-97.6109"/>
<polygon fill="midnightblue" stroke="midnightblue" points="357.889,-134.877 368.476,-134.476 359.95,-128.187 357.889,-134.877"/>
</g>
<!-- Node72 -->
<g id="node5" class="node"><title>Node72</title>
<g id="a_node5"><a xlink:href="../../d7/d36/PFDigitalModule_8hpp.html" target="_top" xlink:title="src/modules/pifacedigital\l/PFDigitalModule.hpp">
<polygon fill="white" stroke="black" points="351.5,-67.5 351.5,-97.5 476.5,-97.5 476.5,-67.5 351.5,-67.5"/>
<text text-anchor="start" x="359.5" y="-85.5" font-family="Helvetica,sans-Serif" font-size="10.00">src/modules/pifacedigital</text>
<text text-anchor="middle" x="414" y="-74.5" font-family="Helvetica,sans-Serif" font-size="10.00">/PFDigitalModule.hpp</text>
</a>
</g>
</g>
<!-- Node68&#45;&gt;Node72 -->
<g id="edge4" class="edge"><title>Node68&#45;&gt;Node72</title>
<path fill="none" stroke="midnightblue" d="M414,-124.108C414,-115.154 414,-105.323 414,-97.5765"/>
<polygon fill="midnightblue" stroke="midnightblue" points="410.5,-124.396 414,-134.396 417.5,-124.396 410.5,-124.396"/>
</g>
<!-- Node75 -->
<g id="node8" class="node"><title>Node75</title>
<g id="a_node8"><a xlink:href="../../d4/df3/wiegand_2ws_2WSHelperThread_8hpp.html" target="_top" xlink:title="src/modules/wiegand\l/ws/WSHelperThread.hpp">
<polygon fill="white" stroke="black" points="561.5,-67.5 561.5,-97.5 690.5,-97.5 690.5,-67.5 561.5,-67.5"/>
<text text-anchor="start" x="569.5" y="-85.5" font-family="Helvetica,sans-Serif" font-size="10.00">src/modules/wiegand</text>
<text text-anchor="middle" x="626" y="-74.5" font-family="Helvetica,sans-Serif" font-size="10.00">/ws/WSHelperThread.hpp</text>
</a>
</g>
</g>
<!-- Node68&#45;&gt;Node75 -->
<g id="edge7" class="edge"><title>Node68&#45;&gt;Node75</title>
<path fill="none" stroke="midnightblue" d="M469.628,-131.444C503.993,-120.908 547.562,-107.549 579.977,-97.6109"/>
<polygon fill="midnightblue" stroke="midnightblue" points="468.275,-128.198 459.74,-134.476 470.327,-134.891 468.275,-128.198"/>
</g>
<!-- Node70 -->
<g id="node3" class="node"><title>Node70</title>
<g id="a_node3"><a xlink:href="../../d7/d36/LEDBuzzerModule_8cpp.html" target="_top" xlink:title="src/modules/led&#45;buzzer\l/LEDBuzzerModule.cpp">
<polygon fill="white" stroke="black" points="0,-0.5 0,-30.5 120,-30.5 120,-0.5 0,-0.5"/>
<text text-anchor="start" x="8" y="-18.5" font-family="Helvetica,sans-Serif" font-size="10.00">src/modules/led&#45;buzzer</text>
<text text-anchor="middle" x="60" y="-7.5" font-family="Helvetica,sans-Serif" font-size="10.00">/LEDBuzzerModule.cpp</text>
</a>
</g>
</g>
<!-- Node69&#45;&gt;Node70 -->
<g id="edge2" class="edge"><title>Node69&#45;&gt;Node70</title>
<path fill="none" stroke="midnightblue" d="M162.587,-63.1305C139.865,-52.8025 111.943,-40.1103 90.9683,-30.5765"/>
<polygon fill="midnightblue" stroke="midnightblue" points="161.419,-66.4442 171.971,-67.396 164.316,-60.0716 161.419,-66.4442"/>
</g>
<!-- Node71 -->
<g id="node4" class="node"><title>Node71</title>
<g id="a_node4"><a xlink:href="../../dd/d4b/led-buzzer_2ws_2WSHelperThread_8cpp.html" target="_top" xlink:title="src/modules/led&#45;buzzer\l/ws/WSHelperThread.cpp">
<polygon fill="white" stroke="black" points="138.5,-0.5 138.5,-30.5 267.5,-30.5 267.5,-0.5 138.5,-0.5"/>
<text text-anchor="start" x="146.5" y="-18.5" font-family="Helvetica,sans-Serif" font-size="10.00">src/modules/led&#45;buzzer</text>
<text text-anchor="middle" x="203" y="-7.5" font-family="Helvetica,sans-Serif" font-size="10.00">/ws/WSHelperThread.cpp</text>
</a>
</g>
</g>
<!-- Node69&#45;&gt;Node71 -->
<g id="edge3" class="edge"><title>Node69&#45;&gt;Node71</title>
<path fill="none" stroke="midnightblue" d="M203,-57.1081C203,-48.1539 203,-38.3227 203,-30.5765"/>
<polygon fill="midnightblue" stroke="midnightblue" points="199.5,-57.3959 203,-67.396 206.5,-57.396 199.5,-57.3959"/>
</g>
<!-- Node73 -->
<g id="node6" class="node"><title>Node73</title>
<g id="a_node6"><a xlink:href="../../d6/d6d/pifacedigital_2init_8cpp.html" target="_top" xlink:title="src/modules/pifacedigital\l/init.cpp">
<polygon fill="white" stroke="black" points="285.5,-0.5 285.5,-30.5 410.5,-30.5 410.5,-0.5 285.5,-0.5"/>
<text text-anchor="start" x="293.5" y="-18.5" font-family="Helvetica,sans-Serif" font-size="10.00">src/modules/pifacedigital</text>
<text text-anchor="middle" x="348" y="-7.5" font-family="Helvetica,sans-Serif" font-size="10.00">/init.cpp</text>
</a>
</g>
</g>
<!-- Node72&#45;&gt;Node73 -->
<g id="edge5" class="edge"><title>Node72&#45;&gt;Node73</title>
<path fill="none" stroke="midnightblue" d="M392.485,-60.3115C382.585,-50.5612 371.109,-39.259 362.293,-30.5765"/>
<polygon fill="midnightblue" stroke="midnightblue" points="390.098,-62.8728 399.679,-67.396 395.01,-57.8853 390.098,-62.8728"/>
</g>
<!-- Node74 -->
<g id="node7" class="node"><title>Node74</title>
<g id="a_node7"><a xlink:href="../../d6/d95/PFDigitalModule_8cpp.html" target="_top" xlink:title="src/modules/pifacedigital\l/PFDigitalModule.cpp">
<polygon fill="white" stroke="black" points="428.5,-0.5 428.5,-30.5 553.5,-30.5 553.5,-0.5 428.5,-0.5"/>
<text text-anchor="start" x="436.5" y="-18.5" font-family="Helvetica,sans-Serif" font-size="10.00">src/modules/pifacedigital</text>
<text text-anchor="middle" x="491" y="-7.5" font-family="Helvetica,sans-Serif" font-size="10.00">/PFDigitalModule.cpp</text>
</a>
</g>
</g>
<!-- Node72&#45;&gt;Node74 -->
<g id="edge6" class="edge"><title>Node72&#45;&gt;Node74</title>
<path fill="none" stroke="midnightblue" d="M438.423,-60.8832C450.124,-51.0054 463.838,-39.4293 474.325,-30.5765"/>
<polygon fill="midnightblue" stroke="midnightblue" points="436.092,-58.2709 430.708,-67.396 440.607,-63.6199 436.092,-58.2709"/>
</g>
<!-- Node76 -->
<g id="node9" class="node"><title>Node76</title>
<g id="a_node9"><a xlink:href="../../d3/de8/wiegand_8cpp.html" target="_top" xlink:title="src/modules/wiegand\l/wiegand.cpp">
<polygon fill="white" stroke="black" points="571.5,-0.5 571.5,-30.5 680.5,-30.5 680.5,-0.5 571.5,-0.5"/>
<text text-anchor="start" x="579.5" y="-18.5" font-family="Helvetica,sans-Serif" font-size="10.00">src/modules/wiegand</text>
<text text-anchor="middle" x="626" y="-7.5" font-family="Helvetica,sans-Serif" font-size="10.00">/wiegand.cpp</text>
</a>
</g>
</g>
<!-- Node75&#45;&gt;Node76 -->
<g id="edge8" class="edge"><title>Node75&#45;&gt;Node76</title>
<path fill="none" stroke="midnightblue" d="M626,-57.1081C626,-48.1539 626,-38.3227 626,-30.5765"/>
<polygon fill="midnightblue" stroke="midnightblue" points="622.5,-57.3959 626,-67.396 629.5,-57.396 622.5,-57.3959"/>
</g>
<!-- Node77 -->
<g id="node10" class="node"><title>Node77</title>
<g id="a_node10"><a xlink:href="../../d8/d9e/wiegand_2ws_2WSHelperThread_8cpp.html" target="_top" xlink:title="src/modules/wiegand\l/ws/WSHelperThread.cpp">
<polygon fill="white" stroke="black" points="698.5,-0.5 698.5,-30.5 827.5,-30.5 827.5,-0.5 698.5,-0.5"/>
<text text-anchor="start" x="706.5" y="-18.5" font-family="Helvetica,sans-Serif" font-size="10.00">src/modules/wiegand</text>
<text text-anchor="middle" x="763" y="-7.5" font-family="Helvetica,sans-Serif" font-size="10.00">/ws/WSHelperThread.cpp</text>
</a>
</g>
</g>
<!-- Node75&#45;&gt;Node77 -->
<g id="edge9" class="edge"><title>Node75&#45;&gt;Node77</title>
<path fill="none" stroke="midnightblue" d="M665.009,-62.9921C686.724,-52.6892 713.327,-40.0677 733.331,-30.5765"/>
<polygon fill="midnightblue" stroke="midnightblue" points="663.261,-59.9472 655.727,-67.396 666.262,-66.2715 663.261,-59.9472"/>
</g>
</g>
</svg>
