<?xml version="1.0" encoding="UTF-8" standalone="no"?>
<!DOCTYPE svg PUBLIC "-//W3C//DTD SVG 1.1//EN"
 "http://www.w3.org/Graphics/SVG/1.1/DTD/svg11.dtd">
<!-- Generated by graphviz version 2.38.0 (20140413.2041)
 -->
<!-- Title: Leosac::Cred::ICredential Pages: 1 -->
<svg width="430pt" height="196pt"
 viewBox="0.00 0.00 429.50 196.00" xmlns="http://www.w3.org/2000/svg" xmlns:xlink="http://www.w3.org/1999/xlink">
<g id="graph0" class="graph" transform="scale(1 1) rotate(0) translate(4 192)">
<title>Leosac::Cred::ICredential</title>
<polygon fill="white" stroke="none" points="-4,4 -4,-192 425.5,-192 425.5,4 -4,4"/>
<!-- Node0 -->
<g id="node1" class="node"><title>Node0</title>
<polygon fill="#bfbfbf" stroke="black" points="143.5,-112.5 143.5,-131.5 271.5,-131.5 271.5,-112.5 143.5,-112.5"/>
<text text-anchor="middle" x="207.5" y="-119.5" font-family="Helvetica,sans-Serif" font-size="10.00">Leosac::Cred::ICredential</text>
</g>
<!-- Node2 -->
<g id="node3" class="node"><title>Node2</title>
<g id="a_node3"><a xlink:href="../../da/d77/classLeosac_1_1Cred_1_1Credential.html" target="_top" xlink:title="An ODB enabled credential object. ">
<polygon fill="white" stroke="black" points="145,-56.5 145,-75.5 270,-75.5 270,-56.5 145,-56.5"/>
<text text-anchor="middle" x="207.5" y="-63.5" font-family="Helvetica,sans-Serif" font-size="10.00">Leosac::Cred::Credential</text>
</a>
</g>
</g>
<!-- Node0&#45;&gt;Node2 -->
<g id="edge2" class="edge"><title>Node0&#45;&gt;Node2</title>
<path fill="none" stroke="midnightblue" d="M207.5,-101.805C207.5,-92.9102 207.5,-82.7798 207.5,-75.7511"/>
<polygon fill="midnightblue" stroke="midnightblue" points="204,-102.083 207.5,-112.083 211,-102.083 204,-102.083"/>
</g>
<!-- Node6 -->
<g id="node7" class="node"><title>Node6</title>
<g id="a_node7"><a xlink:href="../../df/d5c/classLeosac_1_1Cred_1_1IPinCode.html" target="_top" xlink:title="Interface for PinCode credentials. ">
<polygon fill="white" stroke="black" points="1.5,-56.5 1.5,-75.5 123.5,-75.5 123.5,-56.5 1.5,-56.5"/>
<text text-anchor="middle" x="62.5" y="-63.5" font-family="Helvetica,sans-Serif" font-size="10.00">Leosac::Cred::IPinCode</text>
</a>
</g>
</g>
<!-- Node0&#45;&gt;Node6 -->
<g id="edge6" class="edge"><title>Node0&#45;&gt;Node6</title>
<path fill="none" stroke="midnightblue" d="M175.025,-108.906C147.764,-98.7536 109.508,-84.5063 85.3682,-75.5164"/>
<polygon fill="midnightblue" stroke="midnightblue" points="173.932,-112.233 184.524,-112.444 176.375,-105.674 173.932,-112.233"/>
</g>
<!-- Node7 -->
<g id="node8" class="node"><title>Node7</title>
<g id="a_node8"><a xlink:href="../../da/d38/classLeosac_1_1Cred_1_1IRFIDCard.html" target="_top" xlink:title="Interface for RFIDCard credential. ">
<polygon fill="white" stroke="black" points="291,-56.5 291,-75.5 420,-75.5 420,-56.5 291,-56.5"/>
<text text-anchor="middle" x="355.5" y="-63.5" font-family="Helvetica,sans-Serif" font-size="10.00">Leosac::Cred::IRFIDCard</text>
</a>
</g>
</g>
<!-- Node0&#45;&gt;Node7 -->
<g id="edge8" class="edge"><title>Node0&#45;&gt;Node7</title>
<path fill="none" stroke="midnightblue" d="M240.647,-108.906C268.472,-98.7536 307.52,-84.5063 332.159,-75.5164"/>
<polygon fill="midnightblue" stroke="midnightblue" points="239.146,-105.728 230.951,-112.444 241.545,-112.304 239.146,-105.728"/>
</g>
<!-- Node1 -->
<g id="node2" class="node"><title>Node1</title>
<g id="a_node2"><a xlink:href="../../d0/d33/classLeosac_1_1Tools_1_1IVisitable.html" target="_top" xlink:title="Base class to make an object visitable. ">
<polygon fill="white" stroke="black" points="145,-168.5 145,-187.5 270,-187.5 270,-168.5 145,-168.5"/>
<text text-anchor="middle" x="207.5" y="-175.5" font-family="Helvetica,sans-Serif" font-size="10.00">Leosac::Tools::IVisitable</text>
</a>
</g>
</g>
<!-- Node1&#45;&gt;Node0 -->
<g id="edge1" class="edge"><title>Node1&#45;&gt;Node0</title>
<path fill="none" stroke="midnightblue" d="M207.5,-157.805C207.5,-148.91 207.5,-138.78 207.5,-131.751"/>
<polygon fill="midnightblue" stroke="midnightblue" points="204,-158.083 207.5,-168.083 211,-158.083 204,-158.083"/>
</g>
<!-- Node3 -->
<g id="node4" class="node"><title>Node3</title>
<g id="a_node4"><a xlink:href="../../d1/d16/classLeosac_1_1Cred_1_1PinCode.html" target="_top" xlink:title="A PinCode credential. ">
<polygon fill="white" stroke="black" points="0,-0.5 0,-19.5 119,-19.5 119,-0.5 0,-0.5"/>
<text text-anchor="middle" x="59.5" y="-7.5" font-family="Helvetica,sans-Serif" font-size="10.00">Leosac::Cred::PinCode</text>
</a>
</g>
</g>
<!-- Node2&#45;&gt;Node3 -->
<g id="edge3" class="edge"><title>Node2&#45;&gt;Node3</title>
<path fill="none" stroke="midnightblue" d="M174.353,-52.9058C146.528,-42.7536 107.48,-28.5063 82.8413,-19.5164"/>
<polygon fill="midnightblue" stroke="midnightblue" points="173.455,-56.3038 184.049,-56.4435 175.854,-49.7279 173.455,-56.3038"/>
</g>
<!-- Node4 -->
<g id="node5" class="node"><title>Node4</title>
<g id="a_node5"><a xlink:href="../../d7/d6b/classLeosac_1_1Cred_1_1RFIDCard.html" target="_top" xlink:title="An RFID card credential. ">
<polygon fill="white" stroke="black" points="295.5,-0.5 295.5,-19.5 421.5,-19.5 421.5,-0.5 295.5,-0.5"/>
<text text-anchor="middle" x="358.5" y="-7.5" font-family="Helvetica,sans-Serif" font-size="10.00">Leosac::Cred::RFIDCard</text>
</a>
</g>
</g>
<!-- Node2&#45;&gt;Node4 -->
<g id="edge4" class="edge"><title>Node2&#45;&gt;Node4</title>
<path fill="none" stroke="midnightblue" d="M240.946,-53.0392C269.358,-42.8786 309.437,-28.5457 334.686,-19.5164"/>
<polygon fill="midnightblue" stroke="midnightblue" points="239.664,-49.7806 231.426,-56.4435 242.021,-56.3718 239.664,-49.7806"/>
</g>
<!-- Node5 -->
<g id="node6" class="node"><title>Node5</title>
<g id="a_node6"><a xlink:href="../../dd/dfb/classLeosac_1_1Cred_1_1RFIDCardPin.html" target="_top" xlink:title="Credentials composed of an RFIDCard and a PIN code. ">
<polygon fill="white" stroke="black" points="137.5,-0.5 137.5,-19.5 277.5,-19.5 277.5,-0.5 137.5,-0.5"/>
<text text-anchor="middle" x="207.5" y="-7.5" font-family="Helvetica,sans-Serif" font-size="10.00">Leosac::Cred::RFIDCardPin</text>
</a>
</g>
</g>
<!-- Node2&#45;&gt;Node5 -->
<g id="edge5" class="edge"><title>Node2&#45;&gt;Node5</title>
<path fill="none" stroke="midnightblue" d="M207.5,-45.8045C207.5,-36.9102 207.5,-26.7798 207.5,-19.7511"/>
<polygon fill="midnightblue" stroke="midnightblue" points="204,-46.083 207.5,-56.083 211,-46.083 204,-46.083"/>
</g>
<!-- Node6&#45;&gt;Node3 -->
<g id="edge7" class="edge"><title>Node6&#45;&gt;Node3</title>
<path fill="none" stroke="midnightblue" d="M61.4336,-45.8045C60.9395,-36.9102 60.3767,-26.7798 59.9862,-19.7511"/>
<polygon fill="midnightblue" stroke="midnightblue" points="57.9552,-46.2926 62.0046,-56.083 64.9444,-45.9042 57.9552,-46.2926"/>
</g>
<!-- Node7&#45;&gt;Node4 -->
<g id="edge9" class="edge"><title>Node7&#45;&gt;Node4</title>
<path fill="none" stroke="midnightblue" d="M356.566,-45.8045C357.061,-36.9102 357.623,-26.7798 358.014,-19.7511"/>
<polygon fill="midnightblue" stroke="midnightblue" points="353.056,-45.9042 355.995,-56.083 360.045,-46.2926 353.056,-45.9042"/>
</g>
</g>
</svg>
