<?xml version="1.0" encoding="UTF-8" standalone="no"?>
<!DOCTYPE svg PUBLIC "-//W3C//DTD SVG 1.1//EN"
 "http://www.w3.org/Graphics/SVG/1.1/DTD/svg11.dtd">
<!-- Generated by graphviz version 2.38.0 (20140413.2041)
 -->
<!-- Title: Leosac::Module::EventPublish::EventPublish Pages: 1 -->
<svg width="168pt" height="231pt"
 viewBox="0.00 0.00 168.00 231.00" xmlns="http://www.w3.org/2000/svg" xmlns:xlink="http://www.w3.org/1999/xlink">
<g id="graph0" class="graph" transform="scale(1 1) rotate(0) translate(4 227)">
<title>Leosac::Module::EventPublish::EventPublish</title>
<polygon fill="white" stroke="none" points="-4,4 -4,-227 164,-227 164,4 -4,4"/>
<!-- Node2 -->
<g id="node1" class="node"><title>Node2</title>
<polygon fill="#bfbfbf" stroke="black" points="11,-0.5 11,-30.5 160,-30.5 160,-0.5 11,-0.5"/>
<text text-anchor="start" x="19" y="-18.5" font-family="Helvetica,sans-Serif" font-size="10.00">Leosac::Module::EventPublish</text>
<text text-anchor="middle" x="85.5" y="-7.5" font-family="Helvetica,sans-Serif" font-size="10.00">::EventPublish</text>
</g>
<!-- Node3 -->
<g id="node2" class="node"><title>Node3</title>
<g id="a_node2"><a xlink:href="../../df/d9f/classLeosac_1_1Module_1_1BaseModule.html" target="_top" xlink:title="Base class for module implementation. ">
<polygon fill="white" stroke="black" points="12.5,-68.5 12.5,-87.5 158.5,-87.5 158.5,-68.5 12.5,-68.5"/>
<text text-anchor="middle" x="85.5" y="-75.5" font-family="Helvetica,sans-Serif" font-size="10.00">Leosac::Module::BaseModule</text>
</a>
</g>
</g>
<!-- Node3&#45;&gt;Node2 -->
<g id="edge1" class="edge"><title>Node3&#45;&gt;Node2</title>
<path fill="none" stroke="midnightblue" d="M85.5,-58.2154C85.5,-49.3565 85.5,-38.9577 85.5,-30.7587"/>
<polygon fill="midnightblue" stroke="midnightblue" points="82.0001,-58.3318 85.5,-68.3318 89.0001,-58.3319 82.0001,-58.3318"/>
</g>
<!-- Node4 -->
<g id="node3" class="node"><title>Node4</title>
<g id="a_node3"><a xlink:title="STL class. ">
<polygon fill="white" stroke="#bfbfbf" points="17.5,-135.5 17.5,-154.5 77.5,-154.5 77.5,-135.5 17.5,-135.5"/>
<text text-anchor="middle" x="47.5" y="-142.5" font-family="Helvetica,sans-Serif" font-size="10.00">std::string</text>
</a>
</g>
</g>
<!-- Node4&#45;&gt;Node3 -->
<g id="edge2" class="edge"><title>Node4&#45;&gt;Node3</title>
<path fill="none" stroke="#9a32cd" stroke-dasharray="5,2" d="M52.1204,-125.522C54.1632,-119.086 56.9276,-111.983 60.5,-106 64.5611,-99.1987 70.5535,-92.6514 75.6534,-87.7078"/>
<polygon fill="#9a32cd" stroke="#9a32cd" points="48.6778,-124.836 49.3485,-135.41 55.418,-126.726 48.6778,-124.836"/>
<text text-anchor="middle" x="77" y="-109" font-family="Helvetica,sans-Serif" font-size="10.00"> name_</text>
</g>
<!-- Node5 -->
<g id="node4" class="node"><title>Node5</title>
<g id="a_node4"><a xlink:title="STL class. ">
<polygon fill="white" stroke="#bfbfbf" points="0,-192.5 0,-222.5 95,-222.5 95,-192.5 0,-192.5"/>
<text text-anchor="start" x="8" y="-210.5" font-family="Helvetica,sans-Serif" font-size="10.00">std::basic_string&lt;</text>
<text text-anchor="middle" x="47.5" y="-199.5" font-family="Helvetica,sans-Serif" font-size="10.00"> char &gt;</text>
</a>
</g>
</g>
<!-- Node5&#45;&gt;Node4 -->
<g id="edge3" class="edge"><title>Node5&#45;&gt;Node4</title>
<path fill="none" stroke="midnightblue" d="M47.5,-182.352C47.5,-172.513 47.5,-161.775 47.5,-154.54"/>
<polygon fill="midnightblue" stroke="midnightblue" points="44.0001,-182.468 47.5,-192.468 51.0001,-182.468 44.0001,-182.468"/>
</g>
<!-- Node6 -->
<g id="node5" class="node"><title>Node6</title>
<polygon fill="white" stroke="#bfbfbf" points="95.5,-135.5 95.5,-154.5 133.5,-154.5 133.5,-135.5 95.5,-135.5"/>
<text text-anchor="middle" x="114.5" y="-142.5" font-family="Helvetica,sans-Serif" font-size="10.00">ptree</text>
</g>
<!-- Node6&#45;&gt;Node3 -->
<g id="edge4" class="edge"><title>Node6&#45;&gt;Node3</title>
<path fill="none" stroke="#9a32cd" stroke-dasharray="5,2" d="M106.376,-125.79C100.806,-113.308 93.6706,-97.3135 89.3491,-87.6273"/>
<polygon fill="#9a32cd" stroke="#9a32cd" points="103.318,-127.528 110.589,-135.234 109.711,-124.675 103.318,-127.528"/>
<text text-anchor="middle" x="119" y="-109" font-family="Helvetica,sans-Serif" font-size="10.00"> config_</text>
</g>
</g>
</svg>
