<?xml version="1.0" encoding="UTF-8" standalone="no"?>
<!DOCTYPE svg PUBLIC "-//W3C//DTD SVG 1.1//EN"
 "http://www.w3.org/Graphics/SVG/1.1/DTD/svg11.dtd">
<!-- Generated by graphviz version 2.38.0 (20140413.2041)
 -->
<!-- Title: src/dynlib/dynamiclibrary.cpp Pages: 1 -->
<!--zoomable 308 -->
<svg id="main" version="1.1" xmlns="http://www.w3.org/2000/svg" xmlns:xlink="http://www.w3.org/1999/xlink" xml:space="preserve" onload="init(evt)">
<style type="text/css"><![CDATA[
.edge:hover path { stroke: red; }
.edge:hover polygon { stroke: red; fill: red; }
]]></style>
<script type="text/javascript"><![CDATA[
var edges = document.getElementsByTagName('g');
if (edges && edges.length) {
  for (var i=0;i<edges.length;i++) {
    if (edges[i].id.substr(0,4)=='edge') {
      edges[i].setAttribute('class','edge');
    }
  }
}
]]></script>
        <defs>
                <circle id="rim" cx="0" cy="0" r="7"/>
                <circle id="rim2" cx="0" cy="0" r="3.5"/>
                <g id="zoomPlus">
                        <use xlink:href="#rim" fill="#404040">
                                <set attributeName="fill" to="#808080" begin="zoomplus.mouseover" end="zoomplus.mouseout"/>
                        </use>
                        <path d="M-4,0h8M0,-4v8" fill="none" stroke="white" stroke-width="1.5" pointer-events="none"/>
                </g>
                <g id="zoomMin">
                        <use xlink:href="#rim" fill="#404040">
                                <set attributeName="fill" to="#808080" begin="zoomminus.mouseover" end="zoomminus.mouseout"/>
                        </use>
                        <path d="M-4,0h8" fill="none" stroke="white" stroke-width="1.5" pointer-events="none"/>
                </g>
                <g id="dirArrow">
                        <path fill="none" stroke="white" stroke-width="1.5" d="M0,-3.0v7 M-2.5,-0.5L0,-3.0L2.5,-0.5"/>
                </g>
               <g id="resetDef">
                       <use xlink:href="#rim2" fill="#404040">
                               <set attributeName="fill" to="#808080" begin="reset.mouseover" end="reset.mouseout"/>
                       </use>
               </g>
        </defs>

<script type="text/javascript">
var viewWidth = 1357;
var viewHeight = 308;
var sectionId = 'dynsection-0';
</script>
<script xlink:href="../../svgpan.js"/>
<svg id="graph" class="graph">
<g id="viewport">
<title>src/dynlib/dynamiclibrary.cpp</title>
<polygon fill="white" stroke="none" points="-4,4 -4,-304 1353.47,-304 1353.47,4 -4,4"/>
<!-- Node0 -->
<g id="node1" class="node"><title>Node0</title>
<polygon fill="#bfbfbf" stroke="black" points="302.5,-280.5 302.5,-299.5 445.5,-299.5 445.5,-280.5 302.5,-280.5"/>
<text text-anchor="middle" x="374" y="-287.5" font-family="Helvetica,sans-Serif" font-size="10.00">src/dynlib/dynamiclibrary.cpp</text>
</g>
<!-- Node1 -->
<g id="node2" class="node"><title>Node1</title>
<g id="a_node2"><a xlink:href="../../d7/dbe/dynamiclibrary_8hpp.html" target="_top" xlink:title="DynamicLibrary class. ">
<polygon fill="white" stroke="black" points="25,-224.5 25,-243.5 123,-243.5 123,-224.5 25,-224.5"/>
<text text-anchor="middle" x="74" y="-231.5" font-family="Helvetica,sans-Serif" font-size="10.00">dynamiclibrary.hpp</text>
</a>
</g>
</g>
<!-- Node0&#45;&gt;Node1 -->
<g id="edge1" class="edge"><title>Node0&#45;&gt;Node1</title>
<path fill="none" stroke="midnightblue" d="M326.464,-280.444C273.472,-270.905 187.797,-255.483 131.183,-245.293"/>
<polygon fill="midnightblue" stroke="midnightblue" points="131.775,-241.843 121.313,-243.516 130.535,-248.733 131.775,-241.843"/>
</g>
<!-- Node4 -->
<g id="node5" class="node"><title>Node4</title>
<g id="a_node5"><a xlink:href="../../db/d35/dynlibexception_8hpp.html" target="_top" xlink:title="Exception class for DynLib related errors. ">
<polygon fill="white" stroke="black" points="600,-224.5 600,-243.5 748,-243.5 748,-224.5 600,-224.5"/>
<text text-anchor="middle" x="674" y="-231.5" font-family="Helvetica,sans-Serif" font-size="10.00">exception/dynlibexception.hpp</text>
</a>
</g>
</g>
<!-- Node0&#45;&gt;Node4 -->
<g id="edge4" class="edge"><title>Node0&#45;&gt;Node4</title>
<path fill="none" stroke="midnightblue" d="M421.536,-280.444C474.528,-270.905 560.203,-255.483 616.817,-245.293"/>
<polygon fill="midnightblue" stroke="midnightblue" points="617.465,-248.733 626.687,-243.516 616.225,-241.843 617.465,-248.733"/>
</g>
<!-- Node2 -->
<g id="node3" class="node"><title>Node2</title>
<polygon fill="white" stroke="#bfbfbf" points="0,-168.5 0,-187.5 46,-187.5 46,-168.5 0,-168.5"/>
<text text-anchor="middle" x="23" y="-175.5" font-family="Helvetica,sans-Serif" font-size="10.00">dlfcn.h</text>
</g>
<!-- Node1&#45;&gt;Node2 -->
<g id="edge2" class="edge"><title>Node1&#45;&gt;Node2</title>
<path fill="none" stroke="midnightblue" d="M65.5784,-224.083C58.1518,-216.22 47.1483,-204.569 38.1878,-195.081"/>
<polygon fill="midnightblue" stroke="midnightblue" points="40.6757,-192.618 31.2649,-187.751 35.5866,-197.424 40.6757,-192.618"/>
</g>
<!-- Node3 -->
<g id="node4" class="node"><title>Node3</title>
<polygon fill="white" stroke="#bfbfbf" points="593.5,-0.5 593.5,-19.5 634.5,-19.5 634.5,-0.5 593.5,-0.5"/>
<text text-anchor="middle" x="614" y="-7.5" font-family="Helvetica,sans-Serif" font-size="10.00">string</text>
</g>
<!-- Node1&#45;&gt;Node3 -->
<g id="edge3" class="edge"><title>Node1&#45;&gt;Node3</title>
<path fill="none" stroke="midnightblue" d="M72.2639,-224.253C67.0384,-195.075 54.7486,-100.426 105,-56 140.867,-24.291 478.145,-14.0616 583.029,-11.6333"/>
<polygon fill="midnightblue" stroke="midnightblue" points="583.349,-15.1272 593.268,-11.4042 583.192,-8.12891 583.349,-15.1272"/>
</g>
<!-- Node4&#45;&gt;Node3 -->
<g id="edge5" class="edge"><title>Node4&#45;&gt;Node3</title>
<path fill="none" stroke="midnightblue" d="M748.017,-233.438C906.286,-232.631 1269.46,-220.904 1346,-132 1351.8,-125.264 1348.28,-120.591 1346,-112 1338.64,-84.2945 1338.32,-71.1764 1314,-56 1256.72,-20.2521 773.293,-12.6693 645.099,-11.2809"/>
<polygon fill="midnightblue" stroke="midnightblue" points="644.85,-7.77828 634.814,-11.1748 644.777,-14.7779 644.85,-7.77828"/>
</g>
<!-- Node5 -->
<g id="node6" class="node"><title>Node5</title>
<g id="a_node6"><a xlink:href="../../d1/ddd/leosacexception_8hpp.html" target="_top" xlink:title="Exception class for LEOSAC Project related errors. ">
<polygon fill="white" stroke="black" points="621,-168.5 621,-187.5 727,-187.5 727,-168.5 621,-168.5"/>
<text text-anchor="middle" x="674" y="-175.5" font-family="Helvetica,sans-Serif" font-size="10.00">leosacexception.hpp</text>
</a>
</g>
</g>
<!-- Node4&#45;&gt;Node5 -->
<g id="edge6" class="edge"><title>Node4&#45;&gt;Node5</title>
<path fill="none" stroke="midnightblue" d="M668.834,-224.083C667.324,-216.927 666.894,-206.635 667.542,-197.691"/>
<polygon fill="midnightblue" stroke="midnightblue" points="671.015,-198.126 668.869,-187.751 664.077,-197.2 671.015,-198.126"/>
</g>
<!-- Node5&#45;&gt;Node3 -->
<g id="edge12" class="edge"><title>Node5&#45;&gt;Node3</title>
<path fill="none" stroke="midnightblue" d="M727.058,-176.196C836.959,-173.523 1076.13,-161.961 1037,-112 988.011,-49.4571 733.715,-21.4885 644.763,-13.5151"/>
<polygon fill="midnightblue" stroke="midnightblue" points="645.026,-10.0248 634.759,-12.6408 644.417,-16.9983 645.026,-10.0248"/>
</g>
<!-- Node5&#45;&gt;Node4 -->
<g id="edge25" class="edge"><title>Node5&#45;&gt;Node4</title>
<path fill="none" stroke="midnightblue" d="M679.131,-187.751C680.657,-194.858 681.104,-205.136 680.472,-214.101"/>
<polygon fill="midnightblue" stroke="midnightblue" points="676.993,-213.713 679.166,-224.083 683.934,-214.622 676.993,-213.713"/>
</g>
<!-- Node6 -->
<g id="node7" class="node"><title>Node6</title>
<g id="a_node7"><a xlink:href="../../d6/d2f/Stacktrace_8hpp.html" target="_top" xlink:title="tools/Stacktrace.hpp">
<polygon fill="white" stroke="black" points="1229.5,-112.5 1229.5,-131.5 1336.5,-131.5 1336.5,-112.5 1229.5,-112.5"/>
<text text-anchor="middle" x="1283" y="-119.5" font-family="Helvetica,sans-Serif" font-size="10.00">tools/Stacktrace.hpp</text>
</a>
</g>
</g>
<!-- Node5&#45;&gt;Node6 -->
<g id="edge7" class="edge"><title>Node5&#45;&gt;Node6</title>
<path fill="none" stroke="midnightblue" d="M727.295,-173.719C823.522,-167.553 1032.88,-153.038 1219.28,-132.138"/>
<polygon fill="midnightblue" stroke="midnightblue" points="1219.71,-135.61 1229.26,-131.01 1218.93,-128.655 1219.71,-135.61"/>
</g>
<!-- Node8 -->
<g id="node9" class="node"><title>Node8</title>
<polygon fill="white" stroke="#bfbfbf" points="1085.5,-112.5 1085.5,-131.5 1134.5,-131.5 1134.5,-112.5 1085.5,-112.5"/>
<text text-anchor="middle" x="1110" y="-119.5" font-family="Helvetica,sans-Serif" font-size="10.00">cstddef</text>
</g>
<!-- Node5&#45;&gt;Node8 -->
<g id="edge10" class="edge"><title>Node5&#45;&gt;Node8</title>
<path fill="none" stroke="midnightblue" d="M727.249,-172.905C803.693,-166.587 948.794,-152.957 1071,-132 1072.46,-131.75 1073.94,-131.48 1075.43,-131.195"/>
<polygon fill="midnightblue" stroke="midnightblue" points="1076.25,-134.6 1085.33,-129.14 1074.83,-127.746 1076.25,-134.6"/>
</g>
<!-- Node9 -->
<g id="node10" class="node"><title>Node9</title>
<polygon fill="white" stroke="#bfbfbf" points="1152.5,-112.5 1152.5,-131.5 1211.5,-131.5 1211.5,-112.5 1152.5,-112.5"/>
<text text-anchor="middle" x="1182" y="-119.5" font-family="Helvetica,sans-Serif" font-size="10.00">exception</text>
</g>
<!-- Node5&#45;&gt;Node9 -->
<g id="edge11" class="edge"><title>Node5&#45;&gt;Node9</title>
<path fill="none" stroke="midnightblue" d="M727.041,-174.183C812.385,-169.154 985.585,-156.9 1141.99,-131.946"/>
<polygon fill="midnightblue" stroke="midnightblue" points="1142.96,-135.336 1152.27,-130.284 1141.84,-128.426 1142.96,-135.336"/>
</g>
<!-- Node10 -->
<g id="node11" class="node"><title>Node10</title>
<g id="a_node11"><a xlink:href="../../d7/d7a/configexception_8hpp.html" target="_top" xlink:title="configexception.hpp">
<polygon fill="white" stroke="black" points="102,-112.5 102,-131.5 206,-131.5 206,-112.5 102,-112.5"/>
<text text-anchor="middle" x="154" y="-119.5" font-family="Helvetica,sans-Serif" font-size="10.00">configexception.hpp</text>
</a>
</g>
</g>
<!-- Node5&#45;&gt;Node10 -->
<g id="edge13" class="edge"><title>Node5&#45;&gt;Node10</title>
<path fill="none" stroke="midnightblue" d="M620.933,-173.098C535.731,-166.243 363.416,-151.055 212.074,-132.728"/>
<polygon fill="midnightblue" stroke="midnightblue" points="212.487,-129.252 202.137,-131.516 211.639,-136.201 212.487,-129.252"/>
</g>
<!-- Node13 -->
<g id="node14" class="node"><title>Node13</title>
<g id="a_node14"><a xlink:href="../../d8/db0/coreexception_8hpp.html" target="_top" xlink:title="Exception class for Core related errors. ">
<polygon fill="white" stroke="black" points="224,-112.5 224,-131.5 320,-131.5 320,-112.5 224,-112.5"/>
<text text-anchor="middle" x="272" y="-119.5" font-family="Helvetica,sans-Serif" font-size="10.00">coreexception.hpp</text>
</a>
</g>
</g>
<!-- Node5&#45;&gt;Node13 -->
<g id="edge19" class="edge"><title>Node5&#45;&gt;Node13</title>
<path fill="none" stroke="midnightblue" d="M620.803,-171.25C553.395,-163.307 433.787,-148.263 326.689,-132.954"/>
<polygon fill="midnightblue" stroke="midnightblue" points="327.093,-129.476 316.697,-131.52 326.098,-136.405 327.093,-129.476"/>
</g>
<!-- Node14 -->
<g id="node15" class="node"><title>Node14</title>
<g id="a_node15"><a xlink:href="../../d8/d77/deviceexception_8hpp.html" target="_top" xlink:title="Exception class for Device related errors. ">
<polygon fill="white" stroke="black" points="338,-112.5 338,-131.5 444,-131.5 444,-112.5 338,-112.5"/>
<text text-anchor="middle" x="391" y="-119.5" font-family="Helvetica,sans-Serif" font-size="10.00">deviceexception.hpp</text>
</a>
</g>
</g>
<!-- Node5&#45;&gt;Node14 -->
<g id="edge22" class="edge"><title>Node5&#45;&gt;Node14</title>
<path fill="none" stroke="midnightblue" d="M624.069,-168.444C572.311,-158.964 492.055,-143.675 440.47,-133.483"/>
<polygon fill="midnightblue" stroke="midnightblue" points="441.042,-130.029 430.552,-131.516 439.68,-136.895 441.042,-130.029"/>
</g>
<!-- Node15 -->
<g id="node16" class="node"><title>Node15</title>
<g id="a_node16"><a xlink:href="../../d0/d4e/fsexception_8hpp.html" target="_top" xlink:title="Exception class for filesystem related errors. ">
<polygon fill="white" stroke="black" points="462,-112.5 462,-131.5 548,-131.5 548,-112.5 462,-112.5"/>
<text text-anchor="middle" x="505" y="-119.5" font-family="Helvetica,sans-Serif" font-size="10.00">fsexception.hpp</text>
</a>
</g>
</g>
<!-- Node5&#45;&gt;Node15 -->
<g id="edge26" class="edge"><title>Node5&#45;&gt;Node15</title>
<path fill="none" stroke="midnightblue" d="M642.133,-168.444C611.709,-159.359 566.379,-144.939 536.188,-134.783"/>
<polygon fill="midnightblue" stroke="midnightblue" points="537.168,-131.42 526.573,-131.516 534.916,-138.047 537.168,-131.42"/>
</g>
<!-- Node16 -->
<g id="node17" class="node"><title>Node16</title>
<g id="a_node17"><a xlink:href="../../d1/d8e/gpioexception_8hpp.html" target="_top" xlink:title="Exception class for Gpio related errors. ">
<polygon fill="white" stroke="black" points="566.5,-112.5 566.5,-131.5 661.5,-131.5 661.5,-112.5 566.5,-112.5"/>
<text text-anchor="middle" x="614" y="-119.5" font-family="Helvetica,sans-Serif" font-size="10.00">gpioexception.hpp</text>
</a>
</g>
</g>
<!-- Node5&#45;&gt;Node16 -->
<g id="edge29" class="edge"><title>Node5&#45;&gt;Node16</title>
<path fill="none" stroke="midnightblue" d="M659.245,-168.324C648.855,-160.498 635.461,-148.783 625.779,-139.224"/>
<polygon fill="midnightblue" stroke="midnightblue" points="628.123,-136.612 618.667,-131.834 623.079,-141.466 628.123,-136.612"/>
</g>
<!-- Node17 -->
<g id="node18" class="node"><title>Node17</title>
<g id="a_node18"><a xlink:href="../../d7/d8c/moduleexception_8hpp.html" target="_top" xlink:title="Exception class for modules. ">
<polygon fill="white" stroke="black" points="679.5,-112.5 679.5,-131.5 788.5,-131.5 788.5,-112.5 679.5,-112.5"/>
<text text-anchor="middle" x="734" y="-119.5" font-family="Helvetica,sans-Serif" font-size="10.00">moduleexception.hpp</text>
</a>
</g>
</g>
<!-- Node5&#45;&gt;Node17 -->
<g id="edge32" class="edge"><title>Node5&#45;&gt;Node17</title>
<path fill="none" stroke="midnightblue" d="M678.741,-168.083C686.103,-159.905 699.425,-147.631 711.272,-137.954"/>
<polygon fill="midnightblue" stroke="midnightblue" points="713.456,-140.688 719.146,-131.751 709.124,-135.19 713.456,-140.688"/>
</g>
<!-- Node18 -->
<g id="node19" class="node"><title>Node18</title>
<g id="a_node19"><a xlink:href="../../df/d8d/scriptexception_8hpp.html" target="_top" xlink:title="Exception class for Script related errors. ">
<polygon fill="white" stroke="black" points="806.5,-112.5 806.5,-131.5 907.5,-131.5 907.5,-112.5 806.5,-112.5"/>
<text text-anchor="middle" x="857" y="-119.5" font-family="Helvetica,sans-Serif" font-size="10.00">scriptexception.hpp</text>
</a>
</g>
</g>
<!-- Node5&#45;&gt;Node18 -->
<g id="edge35" class="edge"><title>Node5&#45;&gt;Node18</title>
<path fill="none" stroke="midnightblue" d="M697.908,-168.444C727.202,-159.201 777.069,-144.436 813.247,-134.257"/>
<polygon fill="midnightblue" stroke="midnightblue" points="814.369,-137.578 823.059,-131.516 812.486,-130.836 814.369,-137.578"/>
</g>
<!-- Node19 -->
<g id="node20" class="node"><title>Node19</title>
<g id="a_node20"><a xlink:href="../../dc/dce/signalexception_8hpp.html" target="_top" xlink:title="Exception class for Signal related errors. ">
<polygon fill="white" stroke="black" points="925.5,-112.5 925.5,-131.5 1028.5,-131.5 1028.5,-112.5 925.5,-112.5"/>
<text text-anchor="middle" x="977" y="-119.5" font-family="Helvetica,sans-Serif" font-size="10.00">signalexception.hpp</text>
</a>
</g>
</g>
<!-- Node5&#45;&gt;Node19 -->
<g id="edge38" class="edge"><title>Node5&#45;&gt;Node19</title>
<path fill="none" stroke="midnightblue" d="M716.922,-168.444C768.838,-158.815 856.403,-143.192 915.473,-133.006"/>
<polygon fill="midnightblue" stroke="midnightblue" points="916.164,-136.439 925.426,-131.295 914.978,-129.54 916.164,-136.439"/>
</g>
<!-- Node6&#45;&gt;Node3 -->
<g id="edge8" class="edge"><title>Node6&#45;&gt;Node3</title>
<path fill="none" stroke="midnightblue" d="M1260.48,-112.463C1222.17,-98.31 1141.58,-70.1487 1071,-56 912.677,-24.2642 718.816,-14.5775 644.752,-11.9157"/>
<polygon fill="midnightblue" stroke="midnightblue" points="644.827,-8.41631 634.713,-11.5722 644.587,-15.4122 644.827,-8.41631"/>
</g>
<!-- Node7 -->
<g id="node8" class="node"><title>Node7</title>
<polygon fill="white" stroke="#bfbfbf" points="1261,-56.5 1261,-75.5 1305,-75.5 1305,-56.5 1261,-56.5"/>
<text text-anchor="middle" x="1283" y="-63.5" font-family="Helvetica,sans-Serif" font-size="10.00">vector</text>
</g>
<!-- Node6&#45;&gt;Node7 -->
<g id="edge9" class="edge"><title>Node6&#45;&gt;Node7</title>
<path fill="none" stroke="midnightblue" d="M1283,-112.083C1283,-105.006 1283,-94.8611 1283,-85.9865"/>
<polygon fill="midnightblue" stroke="midnightblue" points="1286.5,-85.751 1283,-75.7511 1279.5,-85.7511 1286.5,-85.751"/>
</g>
<!-- Node10&#45;&gt;Node3 -->
<g id="edge18" class="edge"><title>Node10&#45;&gt;Node3</title>
<path fill="none" stroke="midnightblue" d="M186.118,-112.445C234.382,-99.6729 328.539,-75.0803 409,-56 470.675,-41.3746 543.188,-25.8474 583.333,-17.3969"/>
<polygon fill="midnightblue" stroke="midnightblue" points="584.221,-20.7868 593.288,-15.3067 582.783,-13.9362 584.221,-20.7868"/>
</g>
<!-- Node10&#45;&gt;Node5 -->
<g id="edge14" class="edge"><title>Node10&#45;&gt;Node5</title>
<path fill="none" stroke="midnightblue" d="M206.201,-129.652C212.231,-130.488 218.262,-131.296 224,-132 361.795,-148.91 523.487,-163.556 610.701,-171.248"/>
<polygon fill="midnightblue" stroke="midnightblue" points="610.436,-174.739 620.705,-172.129 611.05,-167.765 610.436,-174.739"/>
</g>
<!-- Node11 -->
<g id="node12" class="node"><title>Node11</title>
<g id="a_node12"><a xlink:href="../../dd/d35/Colorize_8hpp.html" target="_top" xlink:title="tools/Colorize.hpp">
<polygon fill="white" stroke="black" points="114.5,-56.5 114.5,-75.5 209.5,-75.5 209.5,-56.5 114.5,-56.5"/>
<text text-anchor="middle" x="162" y="-63.5" font-family="Helvetica,sans-Serif" font-size="10.00">tools/Colorize.hpp</text>
</a>
</g>
</g>
<!-- Node10&#45;&gt;Node11 -->
<g id="edge15" class="edge"><title>Node10&#45;&gt;Node11</title>
<path fill="none" stroke="midnightblue" d="M155.321,-112.083C156.381,-104.927 157.906,-94.6353 159.231,-85.6911"/>
<polygon fill="midnightblue" stroke="midnightblue" points="162.7,-86.1561 160.704,-75.7511 155.776,-85.1302 162.7,-86.1561"/>
</g>
<!-- Node11&#45;&gt;Node3 -->
<g id="edge17" class="edge"><title>Node11&#45;&gt;Node3</title>
<path fill="none" stroke="midnightblue" d="M209.518,-59.3231C302.386,-48.2282 505.65,-23.9445 583.148,-14.6859"/>
<polygon fill="midnightblue" stroke="midnightblue" points="583.709,-18.1438 593.224,-13.4821 582.879,-11.1932 583.709,-18.1438"/>
</g>
<!-- Node12 -->
<g id="node13" class="node"><title>Node12</title>
<polygon fill="white" stroke="#bfbfbf" points="136,-0.5 136,-19.5 188,-19.5 188,-0.5 136,-0.5"/>
<text text-anchor="middle" x="162" y="-7.5" font-family="Helvetica,sans-Serif" font-size="10.00">sstream</text>
</g>
<!-- Node11&#45;&gt;Node12 -->
<g id="edge16" class="edge"><title>Node11&#45;&gt;Node12</title>
<path fill="none" stroke="midnightblue" d="M162,-56.083C162,-49.0059 162,-38.8611 162,-29.9865"/>
<polygon fill="midnightblue" stroke="midnightblue" points="165.5,-29.751 162,-19.7511 158.5,-29.7511 165.5,-29.751"/>
</g>
<!-- Node13&#45;&gt;Node3 -->
<g id="edge20" class="edge"><title>Node13&#45;&gt;Node3</title>
<path fill="none" stroke="midnightblue" d="M298.552,-112.46C361.12,-92.3357 517.508,-42.0355 583.673,-20.7541"/>
<polygon fill="midnightblue" stroke="midnightblue" points="585.042,-23.9907 593.49,-17.5968 582.898,-17.3269 585.042,-23.9907"/>
</g>
<!-- Node13&#45;&gt;Node5 -->
<g id="edge21" class="edge"><title>Node13&#45;&gt;Node5</title>
<path fill="none" stroke="midnightblue" d="M320.122,-129.336C326.178,-130.256 332.249,-131.171 338,-132 433.109,-145.709 543.239,-159.757 610.834,-168.429"/>
<polygon fill="midnightblue" stroke="midnightblue" points="610.535,-171.919 620.9,-169.721 611.427,-164.976 610.535,-171.919"/>
</g>
<!-- Node14&#45;&gt;Node3 -->
<g id="edge23" class="edge"><title>Node14&#45;&gt;Node3</title>
<path fill="none" stroke="midnightblue" d="M408.498,-112.368C447.417,-93.1711 541.339,-46.8418 587.496,-24.074"/>
<polygon fill="midnightblue" stroke="midnightblue" points="589.163,-27.1542 596.583,-19.5914 586.066,-20.8764 589.163,-27.1542"/>
</g>
<!-- Node14&#45;&gt;Node5 -->
<g id="edge24" class="edge"><title>Node14&#45;&gt;Node5</title>
<path fill="none" stroke="midnightblue" d="M440.712,-131.516C492.39,-140.979 572.646,-156.268 624.312,-166.473"/>
<polygon fill="midnightblue" stroke="midnightblue" points="623.757,-169.931 634.247,-168.444 625.118,-163.065 623.757,-169.931"/>
</g>
<!-- Node15&#45;&gt;Node3 -->
<g id="edge27" class="edge"><title>Node15&#45;&gt;Node3</title>
<path fill="none" stroke="midnightblue" d="M513.553,-112.368C531.86,-93.8941 575.065,-50.2926 598.4,-26.7436"/>
<polygon fill="midnightblue" stroke="midnightblue" points="600.934,-29.1583 605.487,-19.5914 595.962,-24.2312 600.934,-29.1583"/>
</g>
<!-- Node15&#45;&gt;Node5 -->
<g id="edge28" class="edge"><title>Node15&#45;&gt;Node5</title>
<path fill="none" stroke="midnightblue" d="M536.733,-131.516C567.113,-140.585 612.444,-155.004 642.679,-165.172"/>
<polygon fill="midnightblue" stroke="midnightblue" points="641.716,-168.541 652.31,-168.444 643.967,-161.913 641.716,-168.541"/>
</g>
<!-- Node16&#45;&gt;Node3 -->
<g id="edge31" class="edge"><title>Node16&#45;&gt;Node3</title>
<path fill="none" stroke="midnightblue" d="M614,-112.368C614,-94.617 614,-53.6664 614,-29.5974"/>
<polygon fill="midnightblue" stroke="midnightblue" points="617.5,-29.5914 614,-19.5914 610.5,-29.5915 617.5,-29.5914"/>
</g>
<!-- Node16&#45;&gt;Node5 -->
<g id="edge30" class="edge"><title>Node16&#45;&gt;Node5</title>
<path fill="none" stroke="midnightblue" d="M628.854,-131.751C639.209,-139.561 652.515,-151.2 662.162,-160.718"/>
<polygon fill="midnightblue" stroke="midnightblue" points="659.8,-163.31 669.259,-168.083 664.84,-158.453 659.8,-163.31"/>
</g>
<!-- Node17&#45;&gt;Node3 -->
<g id="edge33" class="edge"><title>Node17&#45;&gt;Node3</title>
<path fill="none" stroke="midnightblue" d="M724.584,-112.368C704.342,-93.8137 656.45,-49.9129 630.841,-26.4376"/>
<polygon fill="midnightblue" stroke="midnightblue" points="633.109,-23.7686 623.372,-19.5914 628.379,-28.9287 633.109,-23.7686"/>
</g>
<!-- Node17&#45;&gt;Node5 -->
<g id="edge34" class="edge"><title>Node17&#45;&gt;Node5</title>
<path fill="none" stroke="midnightblue" d="M729.333,-131.834C721.974,-140.027 708.565,-152.382 696.662,-162.101"/>
<polygon fill="midnightblue" stroke="midnightblue" points="694.448,-159.389 688.755,-168.324 698.778,-164.89 694.448,-159.389"/>
</g>
<!-- Node18&#45;&gt;Node3 -->
<g id="edge36" class="edge"><title>Node18&#45;&gt;Node3</title>
<path fill="none" stroke="midnightblue" d="M837.932,-112.368C795.346,-93.0908 692.32,-46.4536 642.253,-23.7894"/>
<polygon fill="midnightblue" stroke="midnightblue" points="643.533,-20.5268 632.979,-19.5914 640.646,-26.9039 643.533,-20.5268"/>
</g>
<!-- Node18&#45;&gt;Node5 -->
<g id="edge37" class="edge"><title>Node18&#45;&gt;Node5</title>
<path fill="none" stroke="midnightblue" d="M833.219,-131.516C803.984,-140.743 754.127,-155.507 717.91,-165.699"/>
<polygon fill="midnightblue" stroke="midnightblue" points="716.775,-162.382 708.086,-168.444 718.659,-169.124 716.775,-162.382"/>
</g>
<!-- Node19&#45;&gt;Node3 -->
<g id="edge39" class="edge"><title>Node19&#45;&gt;Node3</title>
<path fill="none" stroke="midnightblue" d="M948.818,-112.46C881.954,-92.1982 714.145,-41.347 644.763,-20.3222"/>
<polygon fill="midnightblue" stroke="midnightblue" points="645.469,-16.8788 634.883,-17.3283 643.438,-23.578 645.469,-16.8788"/>
</g>
<!-- Node19&#45;&gt;Node5 -->
<g id="edge40" class="edge"><title>Node19&#45;&gt;Node5</title>
<path fill="none" stroke="midnightblue" d="M934.293,-131.516C882.855,-141.058 796.198,-156.523 737.073,-166.727"/>
<polygon fill="midnightblue" stroke="midnightblue" points="736.362,-163.298 727.1,-168.444 737.549,-170.197 736.362,-163.298"/>
</g>
</g>
</svg>
        <g id="navigator" transform="translate(0 0)" fill="#404254">
                <rect fill="#f2f5e9" fill-opacity="0.5" stroke="#606060" stroke-width=".5" x="0" y="0" width="60" height="60"/>
                <use id="zoomplus" xlink:href="#zoomPlus" x="17" y="9" onmousedown="handleZoom(evt,'in')"/>
                <use id="zoomminus" xlink:href="#zoomMin" x="42" y="9" onmousedown="handleZoom(evt,'out')"/>
                <use id="reset" xlink:href="#resetDef" x="30" y="36" onmousedown="handleReset()"/>
                <g id="arrowUp" xlink:href="#dirArrow" transform="translate(30 24)" onmousedown="handlePan(0,-1)">
                  <use xlink:href="#rim" fill="#404040">
                        <set attributeName="fill" to="#808080" begin="arrowUp.mouseover" end="arrowUp.mouseout"/>
                  </use>
                  <path fill="none" stroke="white" stroke-width="1.5" d="M0,-3.0v7 M-2.5,-0.5L0,-3.0L2.5,-0.5"/>
                </g>
                <g id="arrowRight" xlink:href="#dirArrow" transform="rotate(90) translate(36 -43)" onmousedown="handlePan(1,0)">
                  <use xlink:href="#rim" fill="#404040">
                        <set attributeName="fill" to="#808080" begin="arrowRight.mouseover" end="arrowRight.mouseout"/>
                  </use>
                  <path fill="none" stroke="white" stroke-width="1.5" d="M0,-3.0v7 M-2.5,-0.5L0,-3.0L2.5,-0.5"/>
                </g>
                <g id="arrowDown" xlink:href="#dirArrow" transform="rotate(180) translate(-30 -48)" onmousedown="handlePan(0,1)">
                  <use xlink:href="#rim" fill="#404040">
                        <set attributeName="fill" to="#808080" begin="arrowDown.mouseover" end="arrowDown.mouseout"/>
                  </use>
                  <path fill="none" stroke="white" stroke-width="1.5" d="M0,-3.0v7 M-2.5,-0.5L0,-3.0L2.5,-0.5"/>
                </g>
                <g id="arrowLeft" xlink:href="#dirArrow" transform="rotate(270) translate(-36 17)" onmousedown="handlePan(-1,0)">
                  <use xlink:href="#rim" fill="#404040">
                        <set attributeName="fill" to="#808080" begin="arrowLeft.mouseover" end="arrowLeft.mouseout"/>
                  </use>
                  <path fill="none" stroke="white" stroke-width="1.5" d="M0,-3.0v7 M-2.5,-0.5L0,-3.0L2.5,-0.5"/>
                </g>
        </g>
        <svg viewBox="0 0 15 15" width="100%" height="30px" preserveAspectRatio="xMaxYMin meet">
         <g id="arrow_out" transform="scale(0.3 0.3)">
          <a xlink:href="dynamiclibrary_8cpp__incl_org.svg" target="_base">
           <rect id="button" ry="5" rx="5" y="6" x="6" height="38" width="38"
                fill="#f2f5e9" fill-opacity="0.5" stroke="#606060" stroke-width="1.0"/>
           <path id="arrow"
             d="M 11.500037,31.436501 C 11.940474,20.09759 22.043105,11.32322 32.158766,21.979434 L 37.068811,17.246167 C 37.068811,17.246167 37.088388,32 37.088388,32 L 22.160133,31.978069 C 22.160133,31.978069 26.997745,27.140456 26.997745,27.140456 C 18.528582,18.264221 13.291696,25.230495 11.500037,31.436501 z"
             style="fill:#404040;"/>
          </a>
         </g>
        </svg>
</svg>
