<?xml version="1.0" encoding="UTF-8" standalone="no"?>
<!DOCTYPE svg PUBLIC "-//W3C//DTD SVG 1.1//EN"
 "http://www.w3.org/Graphics/SVG/1.1/DTD/svg11.dtd">
<!-- Generated by graphviz version 2.38.0 (20140413.2041)
 -->
<!-- Title: Leosac::Audit::WSAPICall Pages: 1 -->
<svg width="290pt" height="207pt"
 viewBox="0.00 0.00 290.00 207.00" xmlns="http://www.w3.org/2000/svg" xmlns:xlink="http://www.w3.org/1999/xlink">
<g id="graph0" class="graph" transform="scale(1 1) rotate(0) translate(4 203)">
<title>Leosac::Audit::WSAPICall</title>
<polygon fill="white" stroke="none" points="-4,4 -4,-203 286,-203 286,4 -4,4"/>
<!-- Node0 -->
<g id="node1" class="node"><title>Node0</title>
<polygon fill="#bfbfbf" stroke="black" points="72.5,-0.5 72.5,-19.5 205.5,-19.5 205.5,-0.5 72.5,-0.5"/>
<text text-anchor="middle" x="139" y="-7.5" font-family="Helvetica,sans-Serif" font-size="10.00">Leosac::Audit::WSAPICall</text>
</g>
<!-- Node1 -->
<g id="node2" class="node"><title>Node1</title>
<g id="a_node2"><a xlink:href="../../d9/db5/classLeosac_1_1Audit_1_1IWSAPICall.html" target="_top" xlink:title="An audit entry dedicated to tracing API call. ">
<polygon fill="white" stroke="black" points="146,-56.5 146,-75.5 282,-75.5 282,-56.5 146,-56.5"/>
<text text-anchor="middle" x="214" y="-63.5" font-family="Helvetica,sans-Serif" font-size="10.00">Leosac::Audit::IWSAPICall</text>
</a>
</g>
</g>
<!-- Node1&#45;&gt;Node0 -->
<g id="edge1" class="edge"><title>Node1&#45;&gt;Node0</title>
<path fill="none" stroke="midnightblue" d="M193.695,-50.3804C180.139,-40.6204 162.758,-28.1057 151.269,-19.8339"/>
<polygon fill="midnightblue" stroke="midnightblue" points="191.79,-53.3213 201.95,-56.324 195.88,-47.6405 191.79,-53.3213"/>
</g>
<!-- Node2 -->
<g id="node3" class="node"><title>Node2</title>
<g id="a_node3"><a xlink:href="../../d1/d44/classLeosac_1_1Audit_1_1IAuditEntry.html" target="_top" xlink:title="Base interface to Audit object. ">
<polygon fill="white" stroke="black" points="146.5,-118 146.5,-137 277.5,-137 277.5,-118 146.5,-118"/>
<text text-anchor="middle" x="212" y="-125" font-family="Helvetica,sans-Serif" font-size="10.00">Leosac::Audit::IAuditEntry</text>
</a>
</g>
</g>
<!-- Node2&#45;&gt;Node1 -->
<g id="edge2" class="edge"><title>Node2&#45;&gt;Node1</title>
<path fill="none" stroke="midnightblue" d="M212.628,-107.817C212.992,-96.9962 213.432,-83.898 213.714,-75.5091"/>
<polygon fill="midnightblue" stroke="midnightblue" points="209.125,-107.863 212.287,-117.975 216.121,-108.098 209.125,-107.863"/>
</g>
<!-- Node4 -->
<g id="node5" class="node"><title>Node4</title>
<g id="a_node5"><a xlink:href="../../d0/d20/classLeosac_1_1Audit_1_1AuditEntry.html" target="_top" xlink:title="Implementation of IAuditEntry, backed by ODB. ">
<polygon fill="white" stroke="black" points="0,-56.5 0,-75.5 128,-75.5 128,-56.5 0,-56.5"/>
<text text-anchor="middle" x="64" y="-63.5" font-family="Helvetica,sans-Serif" font-size="10.00">Leosac::Audit::AuditEntry</text>
</a>
</g>
</g>
<!-- Node2&#45;&gt;Node4 -->
<g id="edge5" class="edge"><title>Node2&#45;&gt;Node4</title>
<path fill="none" stroke="midnightblue" d="M181.234,-114.131C152.481,-102.572 110.315,-85.62 85.1655,-75.5091"/>
<polygon fill="midnightblue" stroke="midnightblue" points="180.211,-117.492 190.795,-117.975 182.822,-110.998 180.211,-117.492"/>
</g>
<!-- Node3 -->
<g id="node4" class="node"><title>Node3</title>
<g id="a_node4"><a xlink:href="../../d0/d33/classLeosac_1_1Tools_1_1IVisitable.html" target="_top" xlink:title="Base class to make an object visitable. ">
<polygon fill="white" stroke="black" points="149.5,-179.5 149.5,-198.5 274.5,-198.5 274.5,-179.5 149.5,-179.5"/>
<text text-anchor="middle" x="212" y="-186.5" font-family="Helvetica,sans-Serif" font-size="10.00">Leosac::Tools::IVisitable</text>
</a>
</g>
</g>
<!-- Node3&#45;&gt;Node2 -->
<g id="edge3" class="edge"><title>Node3&#45;&gt;Node2</title>
<path fill="none" stroke="midnightblue" d="M212,-169.317C212,-158.496 212,-145.398 212,-137.009"/>
<polygon fill="midnightblue" stroke="midnightblue" points="208.5,-169.475 212,-179.475 215.5,-169.475 208.5,-169.475"/>
</g>
<!-- Node4&#45;&gt;Node0 -->
<g id="edge4" class="edge"><title>Node4&#45;&gt;Node0</title>
<path fill="none" stroke="midnightblue" d="M84.3051,-50.3804C97.8606,-40.6204 115.242,-28.1057 126.731,-19.8339"/>
<polygon fill="midnightblue" stroke="midnightblue" points="82.1203,-47.6405 76.05,-56.324 86.2105,-53.3213 82.1203,-47.6405"/>
</g>
<!-- Node5 -->
<g id="node6" class="node"><title>Node5</title>
<polygon fill="white" stroke="#bfbfbf" points="1,-112.5 1,-142.5 127,-142.5 127,-112.5 1,-112.5"/>
<text text-anchor="start" x="9" y="-130.5" font-family="Helvetica,sans-Serif" font-size="10.00">std::enable_shared</text>
<text text-anchor="middle" x="64" y="-119.5" font-family="Helvetica,sans-Serif" font-size="10.00">_from_this&lt; AuditEntry &gt;</text>
</g>
<!-- Node5&#45;&gt;Node4 -->
<g id="edge6" class="edge"><title>Node5&#45;&gt;Node4</title>
<path fill="none" stroke="midnightblue" d="M64,-102.289C64,-92.857 64,-82.6548 64,-75.6578"/>
<polygon fill="midnightblue" stroke="midnightblue" points="60.5001,-102.399 64,-112.399 67.5001,-102.399 60.5001,-102.399"/>
</g>
</g>
</svg>
