<?xml version="1.0" encoding="UTF-8" standalone="no"?>
<!DOCTYPE svg PUBLIC "-//W3C//DTD SVG 1.1//EN"
 "http://www.w3.org/Graphics/SVG/1.1/DTD/svg11.dtd">
<!-- Generated by graphviz version 2.38.0 (20140413.2041)
 -->
<!-- Title: Leosac::Module::WebSockAPI::BaseModuleSupportThread&lt; ParameterT &gt; Pages: 1 -->
<svg width="494pt" height="127pt"
 viewBox="0.00 0.00 494.00 127.00" xmlns="http://www.w3.org/2000/svg" xmlns:xlink="http://www.w3.org/1999/xlink">
<g id="graph0" class="graph" transform="scale(1 1) rotate(0) translate(4 123)">
<title>Leosac::Module::WebSockAPI::BaseModuleSupportThread&lt; ParameterT &gt;</title>
<polygon fill="white" stroke="none" points="-4,4 -4,-123 490,-123 490,4 -4,4"/>
<!-- Node1 -->
<g id="node1" class="node"><title>Node1</title>
<polygon fill="#bfbfbf" stroke="black" points="335,-39 335,-80 486,-80 486,-39 335,-39"/>
<text text-anchor="start" x="343" y="-68" font-family="Helvetica,sans-Serif" font-size="10.00">Leosac::Module::WebSockAPI</text>
<text text-anchor="start" x="343" y="-57" font-family="Helvetica,sans-Serif" font-size="10.00">::BaseModuleSupportThread</text>
<text text-anchor="middle" x="410.5" y="-46" font-family="Helvetica,sans-Serif" font-size="10.00">&lt; ParameterT &gt;</text>
</g>
<!-- Node2 -->
<g id="node2" class="node"><title>Node2</title>
<polygon fill="white" stroke="#bfbfbf" points="114,-88.5 114,-118.5 241,-118.5 241,-88.5 114,-88.5"/>
<text text-anchor="start" x="122" y="-106.5" font-family="Helvetica,sans-Serif" font-size="10.00">std::unique_ptr&lt; boost</text>
<text text-anchor="middle" x="177.5" y="-95.5" font-family="Helvetica,sans-Serif" font-size="10.00">::asio::io_service::work &gt;</text>
</g>
<!-- Node2&#45;&gt;Node1 -->
<g id="edge1" class="edge"><title>Node2&#45;&gt;Node1</title>
<path fill="none" stroke="#9a32cd" stroke-dasharray="5,2" d="M251.023,-89.6861C277.634,-84.6173 307.796,-78.8723 334.611,-73.7646"/>
<polygon fill="#9a32cd" stroke="#9a32cd" points="250.18,-86.2836 241.012,-91.593 251.49,-93.16 250.18,-86.2836"/>
<text text-anchor="middle" x="288" y="-90.5" font-family="Helvetica,sans-Serif" font-size="10.00"> work_</text>
</g>
<!-- Node3 -->
<g id="node3" class="node"><title>Node3</title>
<polygon fill="white" stroke="#bfbfbf" points="143.5,-50 143.5,-69 211.5,-69 211.5,-50 143.5,-50"/>
<text text-anchor="middle" x="177.5" y="-57" font-family="Helvetica,sans-Serif" font-size="10.00">ParameterT</text>
</g>
<!-- Node3&#45;&gt;Node1 -->
<g id="edge2" class="edge"><title>Node3&#45;&gt;Node1</title>
<path fill="none" stroke="#9a32cd" stroke-dasharray="5,2" d="M221.885,-59.5C253.677,-59.5 297.62,-59.5 334.987,-59.5"/>
<polygon fill="#9a32cd" stroke="#9a32cd" points="221.597,-56.0001 211.597,-59.5 221.597,-63.0001 221.597,-56.0001"/>
<text text-anchor="middle" x="288" y="-62.5" font-family="Helvetica,sans-Serif" font-size="10.00"> parameters_</text>
</g>
<!-- Node4 -->
<g id="node4" class="node"><title>Node4</title>
<polygon fill="white" stroke="#bfbfbf" points="125.5,-0.5 125.5,-30.5 229.5,-30.5 229.5,-0.5 125.5,-0.5"/>
<text text-anchor="start" x="133.5" y="-18.5" font-family="Helvetica,sans-Serif" font-size="10.00">std::unique_ptr&lt; std</text>
<text text-anchor="middle" x="177.5" y="-7.5" font-family="Helvetica,sans-Serif" font-size="10.00">::thread &gt;</text>
</g>
<!-- Node4&#45;&gt;Node1 -->
<g id="edge3" class="edge"><title>Node4&#45;&gt;Node1</title>
<path fill="none" stroke="#9a32cd" stroke-dasharray="5,2" d="M239.805,-27.1772C268.937,-32.726 304.016,-39.4078 334.7,-45.2524"/>
<polygon fill="#9a32cd" stroke="#9a32cd" points="240.245,-23.698 229.766,-25.265 238.935,-30.5744 240.245,-23.698"/>
<text text-anchor="middle" x="288" y="-44.5" font-family="Helvetica,sans-Serif" font-size="10.00"> thread_</text>
</g>
<!-- Node5 -->
<g id="node5" class="node"><title>Node5</title>
<g id="a_node5"><a xlink:title="STL class. ">
<polygon fill="white" stroke="#bfbfbf" points="0,-6 0,-25 63,-25 63,-6 0,-6"/>
<text text-anchor="middle" x="31.5" y="-13" font-family="Helvetica,sans-Serif" font-size="10.00">std::thread</text>
</a>
</g>
</g>
<!-- Node5&#45;&gt;Node4 -->
<g id="edge4" class="edge"><title>Node5&#45;&gt;Node4</title>
<path fill="none" stroke="#9a32cd" stroke-dasharray="5,2" d="M73.2522,-15.5C89.4361,-15.5 108.233,-15.5 125.319,-15.5"/>
<polygon fill="#9a32cd" stroke="#9a32cd" points="73.0387,-12.0001 63.0387,-15.5 73.0387,-19.0001 73.0387,-12.0001"/>
<text text-anchor="middle" x="88.5" y="-18.5" font-family="Helvetica,sans-Serif" font-size="10.00"> ptr</text>
</g>
</g>
</svg>
