<?xml version="1.0" encoding="UTF-8" standalone="no"?>
<!DOCTYPE svg PUBLIC "-//W3C//DTD SVG 1.1//EN"
 "http://www.w3.org/Graphics/SVG/1.1/DTD/svg11.dtd">
<!-- Generated by graphviz version 2.38.0 (20140413.2041)
 -->
<!-- Title: Leosac::Tools::LogEntry::QueryResult Pages: 1 -->
<svg width="131pt" height="330pt"
 viewBox="0.00 0.00 131.00 330.00" xmlns="http://www.w3.org/2000/svg" xmlns:xlink="http://www.w3.org/1999/xlink">
<g id="graph0" class="graph" transform="scale(1 1) rotate(0) translate(4 326)">
<title>Leosac::Tools::LogEntry::QueryResult</title>
<polygon fill="white" stroke="none" points="-4,4 -4,-326 127,-326 127,4 -4,4"/>
<!-- Node1 -->
<g id="node1" class="node"><title>Node1</title>
<polygon fill="#bfbfbf" stroke="black" points="0,-0.5 0,-30.5 123,-30.5 123,-0.5 0,-0.5"/>
<text text-anchor="start" x="8" y="-18.5" font-family="Helvetica,sans-Serif" font-size="10.00">Leosac::Tools::LogEntry</text>
<text text-anchor="middle" x="61.5" y="-7.5" font-family="Helvetica,sans-Serif" font-size="10.00">::QueryResult</text>
</g>
<!-- Node2 -->
<g id="node2" class="node"><title>Node2</title>
<polygon fill="white" stroke="#bfbfbf" points="9.5,-78.5 9.5,-108.5 113.5,-108.5 113.5,-78.5 9.5,-78.5"/>
<text text-anchor="start" x="17.5" y="-96.5" font-family="Helvetica,sans-Serif" font-size="10.00">std::vector&lt; Leosac</text>
<text text-anchor="middle" x="61.5" y="-85.5" font-family="Helvetica,sans-Serif" font-size="10.00">::Tools::LogEntry &gt;</text>
</g>
<!-- Node2&#45;&gt;Node1 -->
<g id="edge1" class="edge"><title>Node2&#45;&gt;Node1</title>
<path fill="none" stroke="#9a32cd" stroke-dasharray="5,2" d="M61.5,-68.0898C61.5,-55.7565 61.5,-41.2237 61.5,-30.7309"/>
<polygon fill="#9a32cd" stroke="#9a32cd" points="58.0001,-68.2049 61.5,-78.205 65.0001,-68.205 58.0001,-68.2049"/>
<text text-anchor="middle" x="78" y="-52" font-family="Helvetica,sans-Serif" font-size="10.00"> entries</text>
</g>
<!-- Node3 -->
<g id="node3" class="node"><title>Node3</title>
<g id="a_node3"><a xlink:href="../../d8/d23/classLeosac_1_1Tools_1_1LogEntry.html" target="_top" xlink:title="A log entry. ">
<polygon fill="white" stroke="black" points="0,-156.5 0,-175.5 123,-175.5 123,-156.5 0,-156.5"/>
<text text-anchor="middle" x="61.5" y="-163.5" font-family="Helvetica,sans-Serif" font-size="10.00">Leosac::Tools::LogEntry</text>
</a>
</g>
</g>
<!-- Node3&#45;&gt;Node2 -->
<g id="edge2" class="edge"><title>Node3&#45;&gt;Node2</title>
<path fill="none" stroke="#9a32cd" stroke-dasharray="5,2" d="M61.5,-146.236C61.5,-134.408 61.5,-119.383 61.5,-108.576"/>
<polygon fill="#9a32cd" stroke="#9a32cd" points="58.0001,-146.355 61.5,-156.355 65.0001,-146.355 58.0001,-146.355"/>
<text text-anchor="middle" x="83" y="-130" font-family="Helvetica,sans-Serif" font-size="10.00"> elements</text>
</g>
<!-- Node4 -->
<g id="node4" class="node"><title>Node4</title>
<g id="a_node4"><a xlink:title="STL class. ">
<polygon fill="white" stroke="#bfbfbf" points="31.5,-234.5 31.5,-253.5 91.5,-253.5 91.5,-234.5 31.5,-234.5"/>
<text text-anchor="middle" x="61.5" y="-241.5" font-family="Helvetica,sans-Serif" font-size="10.00">std::string</text>
</a>
</g>
</g>
<!-- Node4&#45;&gt;Node3 -->
<g id="edge3" class="edge"><title>Node4&#45;&gt;Node3</title>
<path fill="none" stroke="#9a32cd" stroke-dasharray="5,2" d="M61.5,-224.224C61.5,-208.697 61.5,-187.358 61.5,-175.616"/>
<polygon fill="#9a32cd" stroke="#9a32cd" points="58.0001,-224.282 61.5,-234.282 65.0001,-224.282 58.0001,-224.282"/>
<text text-anchor="middle" x="79" y="-208" font-family="Helvetica,sans-Serif" font-size="10.00"> run_id_</text>
<text text-anchor="middle" x="79" y="-197" font-family="Helvetica,sans-Serif" font-size="10.00">msg_</text>
</g>
<!-- Node5 -->
<g id="node5" class="node"><title>Node5</title>
<g id="a_node5"><a xlink:title="STL class. ">
<polygon fill="white" stroke="#bfbfbf" points="14,-291.5 14,-321.5 109,-321.5 109,-291.5 14,-291.5"/>
<text text-anchor="start" x="22" y="-309.5" font-family="Helvetica,sans-Serif" font-size="10.00">std::basic_string&lt;</text>
<text text-anchor="middle" x="61.5" y="-298.5" font-family="Helvetica,sans-Serif" font-size="10.00"> char &gt;</text>
</a>
</g>
</g>
<!-- Node5&#45;&gt;Node4 -->
<g id="edge4" class="edge"><title>Node5&#45;&gt;Node4</title>
<path fill="none" stroke="midnightblue" d="M61.5,-281.352C61.5,-271.513 61.5,-260.775 61.5,-253.54"/>
<polygon fill="midnightblue" stroke="midnightblue" points="58.0001,-281.468 61.5,-291.468 65.0001,-281.468 58.0001,-281.468"/>
</g>
</g>
</svg>
