<?xml version="1.0" encoding="UTF-8" standalone="no"?>
<!DOCTYPE svg PUBLIC "-//W3C//DTD SVG 1.1//EN"
 "http://www.w3.org/Graphics/SVG/1.1/DTD/svg11.dtd">
<!-- Generated by graphviz version 2.38.0 (20140413.2041)
 -->
<!-- Title: src/core/audit/UserEvent.hpp Pages: 1 -->
<svg width="799pt" height="95pt"
 viewBox="0.00 0.00 799.00 95.00" xmlns="http://www.w3.org/2000/svg" xmlns:xlink="http://www.w3.org/1999/xlink">
<g id="graph0" class="graph" transform="scale(1 1) rotate(0) translate(4 91)">
<title>src/core/audit/UserEvent.hpp</title>
<polygon fill="white" stroke="none" points="-4,4 -4,-91 795,-91 795,4 -4,4"/>
<!-- Node29 -->
<g id="node1" class="node"><title>Node29</title>
<polygon fill="#bfbfbf" stroke="black" points="338.5,-67.5 338.5,-86.5 482.5,-86.5 482.5,-67.5 338.5,-67.5"/>
<text text-anchor="middle" x="410.5" y="-74.5" font-family="Helvetica,sans-Serif" font-size="10.00">src/core/audit/UserEvent.hpp</text>
</g>
<!-- Node30 -->
<g id="node2" class="node"><title>Node30</title>
<g id="a_node2"><a xlink:href="../../d4/dbe/AuditFactory_8cpp.html" target="_top" xlink:title="src/core/audit/AuditFactory.cpp">
<polygon fill="white" stroke="black" points="0,-6 0,-25 153,-25 153,-6 0,-6"/>
<text text-anchor="middle" x="76.5" y="-13" font-family="Helvetica,sans-Serif" font-size="10.00">src/core/audit/AuditFactory.cpp</text>
</a>
</g>
</g>
<!-- Node29&#45;&gt;Node30 -->
<g id="edge1" class="edge"><title>Node29&#45;&gt;Node30</title>
<path fill="none" stroke="midnightblue" d="M352.615,-65.6881C287.958,-54.17 184.492,-35.7381 124.265,-25.0091"/>
<polygon fill="midnightblue" stroke="midnightblue" points="352.187,-69.1669 362.646,-67.4751 353.415,-62.2754 352.187,-69.1669"/>
</g>
<!-- Node31 -->
<g id="node3" class="node"><title>Node31</title>
<g id="a_node3"><a xlink:href="../../d2/d8b/UserEvent_8cpp.html" target="_top" xlink:title="src/core/audit/UserEvent.cpp">
<polygon fill="white" stroke="black" points="171.5,-6 171.5,-25 315.5,-25 315.5,-6 171.5,-6"/>
<text text-anchor="middle" x="243.5" y="-13" font-family="Helvetica,sans-Serif" font-size="10.00">src/core/audit/UserEvent.cpp</text>
</a>
</g>
</g>
<!-- Node29&#45;&gt;Node31 -->
<g id="edge2" class="edge"><title>Node29&#45;&gt;Node31</title>
<path fill="none" stroke="midnightblue" d="M377.052,-64.0828C344.59,-52.517 296.133,-35.2524 267.383,-25.0091"/>
<polygon fill="midnightblue" stroke="midnightblue" points="375.978,-67.4158 386.573,-67.4751 378.328,-60.8218 375.978,-67.4158"/>
</g>
<!-- Node32 -->
<g id="node4" class="node"><title>Node32</title>
<g id="a_node4"><a xlink:href="../../df/dc4/MembershipCRUD_8cpp.html" target="_top" xlink:title="src/modules/websock\l&#45;api/api/MembershipCRUD.cpp">
<polygon fill="white" stroke="black" points="334,-0.5 334,-30.5 487,-30.5 487,-0.5 334,-0.5"/>
<text text-anchor="start" x="342" y="-18.5" font-family="Helvetica,sans-Serif" font-size="10.00">src/modules/websock</text>
<text text-anchor="middle" x="410.5" y="-7.5" font-family="Helvetica,sans-Serif" font-size="10.00">&#45;api/api/MembershipCRUD.cpp</text>
</a>
</g>
</g>
<!-- Node29&#45;&gt;Node32 -->
<g id="edge3" class="edge"><title>Node29&#45;&gt;Node32</title>
<path fill="none" stroke="midnightblue" d="M410.5,-57.2349C410.5,-48.5864 410.5,-38.4969 410.5,-30.523"/>
<polygon fill="midnightblue" stroke="midnightblue" points="407,-57.4751 410.5,-67.4751 414,-57.4751 407,-57.4751"/>
</g>
<!-- Node33 -->
<g id="node5" class="node"><title>Node33</title>
<g id="a_node5"><a xlink:href="../../d7/da0/PasswordChange_8cpp.html" target="_top" xlink:title="src/modules/websock\l&#45;api/api/PasswordChange.cpp">
<polygon fill="white" stroke="black" points="505,-0.5 505,-30.5 652,-30.5 652,-0.5 505,-0.5"/>
<text text-anchor="start" x="513" y="-18.5" font-family="Helvetica,sans-Serif" font-size="10.00">src/modules/websock</text>
<text text-anchor="middle" x="578.5" y="-7.5" font-family="Helvetica,sans-Serif" font-size="10.00">&#45;api/api/PasswordChange.cpp</text>
</a>
</g>
</g>
<!-- Node29&#45;&gt;Node33 -->
<g id="edge4" class="edge"><title>Node29&#45;&gt;Node33</title>
<path fill="none" stroke="midnightblue" d="M444.091,-64.1032C471.427,-54.4216 510.067,-40.7367 538.906,-30.523"/>
<polygon fill="midnightblue" stroke="midnightblue" points="442.828,-60.8374 434.57,-67.4751 445.165,-67.4358 442.828,-60.8374"/>
</g>
<!-- Node34 -->
<g id="node6" class="node"><title>Node34</title>
<g id="a_node6"><a xlink:href="../../df/df7/UserCRUD_8cpp.html" target="_top" xlink:title="src/modules/websock\l&#45;api/api/UserCRUD.cpp">
<polygon fill="white" stroke="black" points="670,-0.5 670,-30.5 791,-30.5 791,-0.5 670,-0.5"/>
<text text-anchor="start" x="678" y="-18.5" font-family="Helvetica,sans-Serif" font-size="10.00">src/modules/websock</text>
<text text-anchor="middle" x="730.5" y="-7.5" font-family="Helvetica,sans-Serif" font-size="10.00">&#45;api/api/UserCRUD.cpp</text>
</a>
</g>
</g>
<!-- Node29&#45;&gt;Node34 -->
<g id="edge5" class="edge"><title>Node29&#45;&gt;Node34</title>
<path fill="none" stroke="midnightblue" d="M470.755,-65.7151C521.659,-56.9024 596.453,-43.6627 661.5,-31 664.264,-30.462 667.087,-29.9037 669.939,-29.333"/>
<polygon fill="midnightblue" stroke="midnightblue" points="469.844,-62.3206 460.586,-67.4718 471.035,-69.2184 469.844,-62.3206"/>
</g>
</g>
</svg>
