<?xml version="1.0" encoding="UTF-8" standalone="no"?>
<!DOCTYPE svg PUBLIC "-//W3C//DTD SVG 1.1//EN"
 "http://www.w3.org/Graphics/SVG/1.1/DTD/svg11.dtd">
<!-- Generated by graphviz version 2.38.0 (20140413.2041)
 -->
<!-- Title: src Pages: 1 -->
<svg width="248pt" height="364pt"
 viewBox="0.00 0.00 248.00 364.00" xmlns="http://www.w3.org/2000/svg" xmlns:xlink="http://www.w3.org/1999/xlink">
<g id="graph0" class="graph" transform="scale(1 1) rotate(0) translate(4 360)">
<title>src</title>
<polygon fill="white" stroke="none" points="-4,4 -4,-360 244,-360 244,4 -4,4"/>
<g id="clust1" class="cluster"><title>clusterdir_68267d1309a1af8e8297ef4c3efbcdba</title>
<g id="a_clust1"><a xlink:href="dir_68267d1309a1af8e8297ef4c3efbcdba.html" target="_top">
<polygon fill="#eeeeff" stroke="black" points="8,-8 8,-348 232,-348 232,-8 8,-8"/>
</a>
</g>
</g>
<!-- dir_68267d1309a1af8e8297ef4c3efbcdba -->
<g id="node1" class="node"><title>dir_68267d1309a1af8e8297ef4c3efbcdba</title>
<text text-anchor="middle" x="197" y="-319.5" font-family="Helvetica,sans-Serif" font-size="10.00">src</text>
</g>
<!-- dir_aebb8dcc11953d78e620bbef0b9e2183 -->
<g id="node2" class="node"><title>dir_aebb8dcc11953d78e620bbef0b9e2183</title>
<g id="a_node2"><a xlink:href="dir_aebb8dcc11953d78e620bbef0b9e2183.html" target="_top" xlink:title="core">
<polygon fill="white" stroke="red" points="152,-268 98,-268 98,-232 152,-232 152,-268"/>
<text text-anchor="middle" x="125" y="-247.5" font-family="Helvetica,sans-Serif" font-size="10.00">core</text>
</a>
</g>
</g>
<!-- dir_3a49252c1fe7a8dfc91ea73a9211923c -->
<g id="node3" class="node"><title>dir_3a49252c1fe7a8dfc91ea73a9211923c</title>
<g id="a_node3"><a xlink:href="dir_3a49252c1fe7a8dfc91ea73a9211923c.html" target="_top" xlink:title="dynlib">
<polygon fill="white" stroke="black" points="110,-196 56,-196 56,-160 110,-160 110,-196"/>
<text text-anchor="middle" x="83" y="-175.5" font-family="Helvetica,sans-Serif" font-size="10.00">dynlib</text>
</a>
</g>
</g>
<!-- dir_aebb8dcc11953d78e620bbef0b9e2183&#45;&gt;dir_3a49252c1fe7a8dfc91ea73a9211923c -->
<g id="edge11" class="edge"><title>dir_aebb8dcc11953d78e620bbef0b9e2183&#45;&gt;dir_3a49252c1fe7a8dfc91ea73a9211923c</title>
<path fill="none" stroke="black" d="M114.618,-231.697C109.735,-223.559 103.813,-213.689 98.4208,-204.701"/>
<polygon fill="black" stroke="black" points="101.409,-202.879 93.2626,-196.104 95.4064,-206.48 101.409,-202.879"/>
<g id="a_edge11&#45;headlabel"><a xlink:href="dir_000001_000015.html" target="_top" xlink:title="1">
<text text-anchor="middle" x="105.693" y="-202" font-family="Helvetica,sans-Serif" font-size="10.00">1</text>
</a>
</g>
</g>
<!-- dir_03f4a28f75b8e23e1d457d2da09125b3 -->
<g id="node4" class="node"><title>dir_03f4a28f75b8e23e1d457d2da09125b3</title>
<g id="a_node4"><a xlink:href="dir_03f4a28f75b8e23e1d457d2da09125b3.html" target="_top" xlink:title="exception">
<polygon fill="white" stroke="black" points="135.5,-124 76.5,-124 76.5,-88 135.5,-88 135.5,-124"/>
<text text-anchor="middle" x="106" y="-103.5" font-family="Helvetica,sans-Serif" font-size="10.00">exception</text>
</a>
</g>
</g>
<!-- dir_aebb8dcc11953d78e620bbef0b9e2183&#45;&gt;dir_03f4a28f75b8e23e1d457d2da09125b3 -->
<g id="edge14" class="edge"><title>dir_aebb8dcc11953d78e620bbef0b9e2183&#45;&gt;dir_03f4a28f75b8e23e1d457d2da09125b3</title>
<path fill="none" stroke="black" d="M124.723,-231.841C124.227,-213.846 122.846,-184.791 119,-160 117.672,-151.442 115.635,-142.239 113.565,-133.942"/>
<polygon fill="black" stroke="black" points="116.89,-132.824 110.975,-124.034 110.118,-134.594 116.89,-132.824"/>
<g id="a_edge14&#45;headlabel"><a xlink:href="dir_000001_000016.html" target="_top" xlink:title="13">
<text text-anchor="middle" x="120.546" y="-133.084" font-family="Helvetica,sans-Serif" font-size="10.00">13</text>
</a>
</g>
</g>
<!-- dir_59b1e980a670de987a696efba6dbbdbc -->
<g id="node5" class="node"><title>dir_59b1e980a670de987a696efba6dbbdbc</title>
<g id="a_node5"><a xlink:href="dir_59b1e980a670de987a696efba6dbbdbc.html" target="_top" xlink:title="hardware">
<polygon fill="white" stroke="red" points="204,-196 148,-196 148,-160 204,-160 204,-196"/>
<text text-anchor="middle" x="176" y="-175.5" font-family="Helvetica,sans-Serif" font-size="10.00">hardware</text>
</a>
</g>
</g>
<!-- dir_aebb8dcc11953d78e620bbef0b9e2183&#45;&gt;dir_59b1e980a670de987a696efba6dbbdbc -->
<g id="edge12" class="edge"><title>dir_aebb8dcc11953d78e620bbef0b9e2183&#45;&gt;dir_59b1e980a670de987a696efba6dbbdbc</title>
<path fill="none" stroke="black" d="M131.691,-231.697C136.887,-223.389 144.057,-213.277 151.177,-204.141"/>
<polygon fill="black" stroke="black" points="154.101,-206.09 157.643,-196.104 148.647,-201.701 154.101,-206.09"/>
<g id="a_edge12&#45;headlabel"><a xlink:href="dir_000001_000017.html" target="_top" xlink:title="3">
<text text-anchor="middle" x="154.06" y="-208.17" font-family="Helvetica,sans-Serif" font-size="10.00">3</text>
</a>
</g>
</g>
<!-- dir_1563a38af0d3a5e4a6330d6d45e9792a -->
<g id="node7" class="node"><title>dir_1563a38af0d3a5e4a6330d6d45e9792a</title>
<g id="a_node7"><a xlink:href="dir_1563a38af0d3a5e4a6330d6d45e9792a.html" target="_top" xlink:title="tools">
<polygon fill="white" stroke="red" points="133,-52 79,-52 79,-16 133,-16 133,-52"/>
<text text-anchor="middle" x="106" y="-31.5" font-family="Helvetica,sans-Serif" font-size="10.00">tools</text>
</a>
</g>
</g>
<!-- dir_aebb8dcc11953d78e620bbef0b9e2183&#45;&gt;dir_1563a38af0d3a5e4a6330d6d45e9792a -->
<g id="edge13" class="edge"><title>dir_aebb8dcc11953d78e620bbef0b9e2183&#45;&gt;dir_1563a38af0d3a5e4a6330d6d45e9792a</title>
<path fill="none" stroke="black" d="M97.8976,-241.696C76.9798,-233.691 50.1052,-218.861 38,-196 13.7276,-150.162 49.825,-92.1403 78.1973,-59.7527"/>
<polygon fill="black" stroke="black" points="81.036,-61.835 85.2027,-52.0939 75.8708,-57.1105 81.036,-61.835"/>
<g id="a_edge13&#45;headlabel"><a xlink:href="dir_000001_000051.html" target="_top" xlink:title="187">
<text text-anchor="middle" x="80.7049" y="-63.9037" font-family="Helvetica,sans-Serif" font-size="10.00">187</text>
</a>
</g>
</g>
<!-- dir_3a49252c1fe7a8dfc91ea73a9211923c&#45;&gt;dir_03f4a28f75b8e23e1d457d2da09125b3 -->
<g id="edge1" class="edge"><title>dir_3a49252c1fe7a8dfc91ea73a9211923c&#45;&gt;dir_03f4a28f75b8e23e1d457d2da09125b3</title>
<path fill="none" stroke="black" d="M88.6854,-159.697C91.2478,-151.898 94.3329,-142.509 97.1847,-133.829"/>
<polygon fill="black" stroke="black" points="100.584,-134.697 100.38,-124.104 93.9333,-132.512 100.584,-134.697"/>
<g id="a_edge1&#45;headlabel"><a xlink:href="dir_000015_000016.html" target="_top" xlink:title="1">
<text text-anchor="middle" x="102.159" y="-136.498" font-family="Helvetica,sans-Serif" font-size="10.00">1</text>
</a>
</g>
</g>
<!-- dir_03f4a28f75b8e23e1d457d2da09125b3&#45;&gt;dir_1563a38af0d3a5e4a6330d6d45e9792a -->
<g id="edge15" class="edge"><title>dir_03f4a28f75b8e23e1d457d2da09125b3&#45;&gt;dir_1563a38af0d3a5e4a6330d6d45e9792a</title>
<path fill="none" stroke="black" d="M100.084,-87.6966C99.2886,-79.9827 99.0621,-70.7125 99.4047,-62.1124"/>
<polygon fill="black" stroke="black" points="102.898,-62.3243 100.105,-52.1043 95.9154,-61.8356 102.898,-62.3243"/>
<g id="a_edge15&#45;headlabel"><a xlink:href="dir_000016_000051.html" target="_top" xlink:title="6">
<text text-anchor="middle" x="105.48" y="-63.6083" font-family="Helvetica,sans-Serif" font-size="10.00">6</text>
</a>
</g>
</g>
<!-- dir_59b1e980a670de987a696efba6dbbdbc&#45;&gt;dir_aebb8dcc11953d78e620bbef0b9e2183 -->
<g id="edge7" class="edge"><title>dir_59b1e980a670de987a696efba6dbbdbc&#45;&gt;dir_aebb8dcc11953d78e620bbef0b9e2183</title>
<path fill="none" stroke="black" d="M169.433,-196.104C164.269,-204.383 157.114,-214.488 149.994,-223.64"/>
<polygon fill="black" stroke="black" points="147.056,-221.708 143.522,-231.697 152.513,-226.092 147.056,-221.708"/>
<g id="a_edge7&#45;headlabel"><a xlink:href="dir_000017_000001.html" target="_top" xlink:title="4">
<text text-anchor="middle" x="147.093" y="-214.628" font-family="Helvetica,sans-Serif" font-size="10.00">4</text>
</a>
</g>
</g>
<!-- dir_59b1e980a670de987a696efba6dbbdbc&#45;&gt;dir_03f4a28f75b8e23e1d457d2da09125b3 -->
<g id="edge8" class="edge"><title>dir_59b1e980a670de987a696efba6dbbdbc&#45;&gt;dir_03f4a28f75b8e23e1d457d2da09125b3</title>
<path fill="none" stroke="black" d="M158.697,-159.697C150.135,-151.135 139.656,-140.656 130.304,-131.304"/>
<polygon fill="black" stroke="black" points="132.65,-128.701 123.104,-124.104 127.701,-133.65 132.65,-128.701"/>
<g id="a_edge8&#45;headlabel"><a xlink:href="dir_000017_000016.html" target="_top" xlink:title="2">
<text text-anchor="middle" x="137.2" y="-126.735" font-family="Helvetica,sans-Serif" font-size="10.00">2</text>
</a>
</g>
</g>
<!-- dir_59b1e980a670de987a696efba6dbbdbc&#45;&gt;dir_1563a38af0d3a5e4a6330d6d45e9792a -->
<g id="edge6" class="edge"><title>dir_59b1e980a670de987a696efba6dbbdbc&#45;&gt;dir_1563a38af0d3a5e4a6330d6d45e9792a</title>
<path fill="none" stroke="black" d="M171.712,-159.977C166.71,-141.59 157.505,-111.742 145,-88 139.969,-78.4481 133.338,-68.7262 126.974,-60.2613"/>
<polygon fill="black" stroke="black" points="129.665,-58.0204 120.768,-52.2684 124.136,-62.3135 129.665,-58.0204"/>
<g id="a_edge6&#45;headlabel"><a xlink:href="dir_000017_000051.html" target="_top" xlink:title="19">
<text text-anchor="middle" x="134.112" y="-56.6184" font-family="Helvetica,sans-Serif" font-size="10.00">19</text>
</a>
</g>
</g>
<!-- dir_ddb4d7e95cc2d6c8e1ade10a20d7247d -->
<g id="node6" class="node"><title>dir_ddb4d7e95cc2d6c8e1ade10a20d7247d</title>
<g id="a_node6"><a xlink:href="dir_ddb4d7e95cc2d6c8e1ade10a20d7247d.html" target="_top" xlink:title="modules">
<polygon fill="white" stroke="red" points="152,-340 98,-340 98,-304 152,-304 152,-340"/>
<text text-anchor="middle" x="125" y="-319.5" font-family="Helvetica,sans-Serif" font-size="10.00">modules</text>
</a>
</g>
</g>
<!-- dir_ddb4d7e95cc2d6c8e1ade10a20d7247d&#45;&gt;dir_aebb8dcc11953d78e620bbef0b9e2183 -->
<g id="edge4" class="edge"><title>dir_ddb4d7e95cc2d6c8e1ade10a20d7247d&#45;&gt;dir_aebb8dcc11953d78e620bbef0b9e2183</title>
<path fill="none" stroke="black" d="M125,-303.697C125,-295.983 125,-286.712 125,-278.112"/>
<polygon fill="black" stroke="black" points="128.5,-278.104 125,-268.104 121.5,-278.104 128.5,-278.104"/>
<g id="a_edge4&#45;headlabel"><a xlink:href="dir_000020_000001.html" target="_top" xlink:title="208">
<text text-anchor="middle" x="131.339" y="-279.199" font-family="Helvetica,sans-Serif" font-size="10.00">208</text>
</a>
</g>
</g>
<!-- dir_ddb4d7e95cc2d6c8e1ade10a20d7247d&#45;&gt;dir_03f4a28f75b8e23e1d457d2da09125b3 -->
<g id="edge5" class="edge"><title>dir_ddb4d7e95cc2d6c8e1ade10a20d7247d&#45;&gt;dir_03f4a28f75b8e23e1d457d2da09125b3</title>
<path fill="none" stroke="black" d="M109.694,-303.966C90.4755,-281.272 58.6159,-238.966 47,-196 42.8243,-180.554 40.4837,-174.613 47,-160 52.0819,-148.604 60.9596,-138.634 70.3088,-130.509"/>
<polygon fill="black" stroke="black" points="72.6253,-133.137 78.2,-124.128 68.2236,-127.694 72.6253,-133.137"/>
<g id="a_edge5&#45;headlabel"><a xlink:href="dir_000020_000016.html" target="_top" xlink:title="28">
<text text-anchor="middle" x="71.6157" y="-135.105" font-family="Helvetica,sans-Serif" font-size="10.00">28</text>
</a>
</g>
</g>
<!-- dir_ddb4d7e95cc2d6c8e1ade10a20d7247d&#45;&gt;dir_59b1e980a670de987a696efba6dbbdbc -->
<g id="edge2" class="edge"><title>dir_ddb4d7e95cc2d6c8e1ade10a20d7247d&#45;&gt;dir_59b1e980a670de987a696efba6dbbdbc</title>
<path fill="none" stroke="black" d="M139.382,-303.941C146.975,-294.049 155.778,-281.006 161,-268 168.918,-248.279 172.657,-224.475 174.422,-206.449"/>
<polygon fill="black" stroke="black" points="177.923,-206.576 175.267,-196.319 170.947,-205.993 177.923,-206.576"/>
<g id="a_edge2&#45;headlabel"><a xlink:href="dir_000020_000017.html" target="_top" xlink:title="30">
<text text-anchor="middle" x="180.453" y="-207.894" font-family="Helvetica,sans-Serif" font-size="10.00">30</text>
</a>
</g>
</g>
<!-- dir_ddb4d7e95cc2d6c8e1ade10a20d7247d&#45;&gt;dir_1563a38af0d3a5e4a6330d6d45e9792a -->
<g id="edge3" class="edge"><title>dir_ddb4d7e95cc2d6c8e1ade10a20d7247d&#45;&gt;dir_1563a38af0d3a5e4a6330d6d45e9792a</title>
<path fill="none" stroke="black" d="M145.709,-303.811C177.357,-275.318 232.177,-215.891 213,-160 198.717,-118.372 162.873,-81.5768 136.592,-58.8738"/>
<polygon fill="black" stroke="black" points="138.68,-56.0566 128.777,-52.2907 134.17,-61.4102 138.68,-56.0566"/>
<g id="a_edge3&#45;headlabel"><a xlink:href="dir_000020_000051.html" target="_top" xlink:title="184">
<text text-anchor="middle" x="143.259" y="-53.7009" font-family="Helvetica,sans-Serif" font-size="10.00">184</text>
</a>
</g>
</g>
<!-- dir_1563a38af0d3a5e4a6330d6d45e9792a&#45;&gt;dir_aebb8dcc11953d78e620bbef0b9e2183 -->
<g id="edge9" class="edge"><title>dir_1563a38af0d3a5e4a6330d6d45e9792a&#45;&gt;dir_aebb8dcc11953d78e620bbef0b9e2183</title>
<path fill="none" stroke="black" d="M95.9594,-52.0939C74.3767,-82.2187 29.6707,-146.277 56,-196 63.4077,-209.989 76.3463,-220.972 89.0963,-229.223"/>
<polygon fill="black" stroke="black" points="87.455,-232.321 97.8228,-234.503 91.0785,-226.332 87.455,-232.321"/>
<g id="a_edge9&#45;headlabel"><a xlink:href="dir_000051_000001.html" target="_top" xlink:title="16">
<text text-anchor="middle" x="82.9098" y="-230.39" font-family="Helvetica,sans-Serif" font-size="10.00">16</text>
</a>
</g>
</g>
<!-- dir_1563a38af0d3a5e4a6330d6d45e9792a&#45;&gt;dir_03f4a28f75b8e23e1d457d2da09125b3 -->
<g id="edge10" class="edge"><title>dir_1563a38af0d3a5e4a6330d6d45e9792a&#45;&gt;dir_03f4a28f75b8e23e1d457d2da09125b3</title>
<path fill="none" stroke="black" d="M111.895,-52.1043C112.701,-59.7913 112.937,-69.0537 112.604,-77.6651"/>
<polygon fill="black" stroke="black" points="109.109,-77.4805 111.916,-87.6966 116.092,-77.9597 109.109,-77.4805"/>
<g id="a_edge10&#45;headlabel"><a xlink:href="dir_000051_000016.html" target="_top" xlink:title="16">
<text text-anchor="middle" x="106.522" y="-71.2" font-family="Helvetica,sans-Serif" font-size="10.00">16</text>
</a>
</g>
</g>
</g>
</svg>
