<?xml version="1.0" encoding="UTF-8" standalone="no"?>
<!DOCTYPE svg PUBLIC "-//W3C//DTD SVG 1.1//EN"
 "http://www.w3.org/Graphics/SVG/1.1/DTD/svg11.dtd">
<!-- Generated by graphviz version 2.38.0 (20140413.2041)
 -->
<!-- Title: src/core/audit/serializers Pages: 1 -->
<svg width="102pt" height="151pt"
 viewBox="0.00 0.00 102.00 151.00" xmlns="http://www.w3.org/2000/svg" xmlns:xlink="http://www.w3.org/1999/xlink">
<g id="graph0" class="graph" transform="scale(1 1) rotate(0) translate(4 147)">
<title>src/core/audit/serializers</title>
<polygon fill="white" stroke="none" points="-4,4 -4,-147 98,-147 98,4 -4,4"/>
<g id="clust1" class="cluster"><title>clusterdir_6e399610acf21149161a2424bf394843</title>
<g id="a_clust1"><a xlink:href="dir_6e399610acf21149161a2424bf394843.html" target="_top" xlink:title="audit">
<polygon fill="#ddddee" stroke="black" points="8,-64 8,-135 86,-135 86,-64 8,-64"/>
<text text-anchor="middle" x="47" y="-123" font-family="Helvetica,sans-Serif" font-size="10.00">audit</text>
</a>
</g>
</g>
<!-- dir_6bb03949a2a5476a14bdd29e107ce044 -->
<g id="node1" class="node"><title>dir_6bb03949a2a5476a14bdd29e107ce044</title>
<g id="a_node1"><a xlink:href="dir_6bb03949a2a5476a14bdd29e107ce044.html" target="_top" xlink:title="serializers">
<polygon fill="#eeeeff" stroke="black" points="77.5,-108 16.5,-108 16.5,-72 77.5,-72 77.5,-108"/>
<text text-anchor="middle" x="47" y="-87.5" font-family="Helvetica,sans-Serif" font-size="10.00">serializers</text>
</a>
</g>
</g>
<!-- dir_1563a38af0d3a5e4a6330d6d45e9792a -->
<g id="node2" class="node"><title>dir_1563a38af0d3a5e4a6330d6d45e9792a</title>
<g id="a_node2"><a xlink:href="dir_1563a38af0d3a5e4a6330d6d45e9792a.html" target="_top" xlink:title="tools">
<polygon fill="white" stroke="red" points="74,-36 20,-36 20,-0 74,-0 74,-36"/>
<text text-anchor="middle" x="47" y="-15.5" font-family="Helvetica,sans-Serif" font-size="10.00">tools</text>
</a>
</g>
</g>
<!-- dir_6bb03949a2a5476a14bdd29e107ce044&#45;&gt;dir_1563a38af0d3a5e4a6330d6d45e9792a -->
<g id="edge1" class="edge"><title>dir_6bb03949a2a5476a14bdd29e107ce044&#45;&gt;dir_1563a38af0d3a5e4a6330d6d45e9792a</title>
<path fill="none" stroke="black" d="M47,-71.6966C47,-63.9827 47,-54.7125 47,-46.1124"/>
<polygon fill="black" stroke="black" points="50.5001,-46.1043 47,-36.1043 43.5001,-46.1044 50.5001,-46.1043"/>
<g id="a_edge1&#45;headlabel"><a xlink:href="dir_000003_000051.html" target="_top" xlink:title="17">
<text text-anchor="middle" x="53.3393" y="-47.199" font-family="Helvetica,sans-Serif" font-size="10.00">17</text>
</a>
</g>
</g>
</g>
</svg>
