<?xml version="1.0" encoding="UTF-8" standalone="no"?>
<!DOCTYPE svg PUBLIC "-//W3C//DTD SVG 1.1//EN"
 "http://www.w3.org/Graphics/SVG/1.1/DTD/svg11.dtd">
<!-- Generated by graphviz version 2.38.0 (20140413.2041)
 -->
<!-- Title: src/modules/smtp Pages: 1 -->
<svg width="125pt" height="295pt"
 viewBox="0.00 0.00 124.59 295.00" xmlns="http://www.w3.org/2000/svg" xmlns:xlink="http://www.w3.org/1999/xlink">
<g id="graph0" class="graph" transform="scale(1 1) rotate(0) translate(4 291)">
<title>src/modules/smtp</title>
<polygon fill="white" stroke="none" points="-4,4 -4,-291 120.591,-291 120.591,4 -4,4"/>
<g id="clust1" class="cluster"><title>clusterdir_ddb4d7e95cc2d6c8e1ade10a20d7247d</title>
<g id="a_clust1"><a xlink:href="dir_ddb4d7e95cc2d6c8e1ade10a20d7247d.html" target="_top" xlink:title="modules">
<polygon fill="#ddddee" stroke="black" points="34,-208 34,-279 104,-279 104,-208 34,-208"/>
<text text-anchor="middle" x="69" y="-267" font-family="Helvetica,sans-Serif" font-size="10.00">modules</text>
</a>
</g>
</g>
<!-- dir_827a24ddff81de77e35e919a730f1229 -->
<g id="node1" class="node"><title>dir_827a24ddff81de77e35e919a730f1229</title>
<g id="a_node1"><a xlink:href="dir_827a24ddff81de77e35e919a730f1229.html" target="_top" xlink:title="smtp">
<polygon fill="#eeeeff" stroke="black" points="96,-252 42,-252 42,-216 96,-216 96,-252"/>
<text text-anchor="middle" x="69" y="-231.5" font-family="Helvetica,sans-Serif" font-size="10.00">smtp</text>
</a>
</g>
</g>
<!-- dir_1563a38af0d3a5e4a6330d6d45e9792a -->
<g id="node2" class="node"><title>dir_1563a38af0d3a5e4a6330d6d45e9792a</title>
<g id="a_node2"><a xlink:href="dir_1563a38af0d3a5e4a6330d6d45e9792a.html" target="_top" xlink:title="tools">
<polygon fill="white" stroke="red" points="54,-108 0,-108 0,-72 54,-72 54,-108"/>
<text text-anchor="middle" x="27" y="-87.5" font-family="Helvetica,sans-Serif" font-size="10.00">tools</text>
</a>
</g>
</g>
<!-- dir_827a24ddff81de77e35e919a730f1229&#45;&gt;dir_1563a38af0d3a5e4a6330d6d45e9792a -->
<g id="edge1" class="edge"><title>dir_827a24ddff81de77e35e919a730f1229&#45;&gt;dir_1563a38af0d3a5e4a6330d6d45e9792a</title>
<path fill="none" stroke="black" d="M48.6214,-215.531C39.1934,-206.092 28.9936,-193.597 24,-180 16.693,-160.104 18.0725,-135.994 20.9304,-117.889"/>
<polygon fill="black" stroke="black" points="24.3829,-118.465 22.7294,-108 17.496,-117.212 24.3829,-118.465"/>
<g id="a_edge1&#45;headlabel"><a xlink:href="dir_000034_000051.html" target="_top" xlink:title="14">
<text text-anchor="middle" x="26.5331" y="-120.01" font-family="Helvetica,sans-Serif" font-size="10.00">14</text>
</a>
</g>
</g>
<!-- dir_c4d966a03ca6ea09f7a88bf957c27254 -->
<g id="node3" class="node"><title>dir_c4d966a03ca6ea09f7a88bf957c27254</title>
<g id="a_node3"><a xlink:href="dir_c4d966a03ca6ea09f7a88bf957c27254.html" target="_top" xlink:title="websock&#45;api">
<polygon fill="white" stroke="red" points="104.5,-180 33.5,-180 33.5,-144 104.5,-144 104.5,-180"/>
<text text-anchor="middle" x="69" y="-159.5" font-family="Helvetica,sans-Serif" font-size="10.00">websock&#45;api</text>
</a>
</g>
</g>
<!-- dir_827a24ddff81de77e35e919a730f1229&#45;&gt;dir_c4d966a03ca6ea09f7a88bf957c27254 -->
<g id="edge2" class="edge"><title>dir_827a24ddff81de77e35e919a730f1229&#45;&gt;dir_c4d966a03ca6ea09f7a88bf957c27254</title>
<path fill="none" stroke="black" d="M69,-215.697C69,-207.983 69,-198.712 69,-190.112"/>
<polygon fill="black" stroke="black" points="72.5001,-190.104 69,-180.104 65.5001,-190.104 72.5001,-190.104"/>
<g id="a_edge2&#45;headlabel"><a xlink:href="dir_000034_000039.html" target="_top" xlink:title="5">
<text text-anchor="middle" x="75.3393" y="-191.199" font-family="Helvetica,sans-Serif" font-size="10.00">5</text>
</a>
</g>
</g>
<!-- dir_aebb8dcc11953d78e620bbef0b9e2183 -->
<g id="node4" class="node"><title>dir_aebb8dcc11953d78e620bbef0b9e2183</title>
<g id="a_node4"><a xlink:href="dir_aebb8dcc11953d78e620bbef0b9e2183.html" target="_top" xlink:title="core">
<polygon fill="white" stroke="red" points="81,-36 27,-36 27,-0 81,-0 81,-36"/>
<text text-anchor="middle" x="54" y="-15.5" font-family="Helvetica,sans-Serif" font-size="10.00">core</text>
</a>
</g>
</g>
<!-- dir_827a24ddff81de77e35e919a730f1229&#45;&gt;dir_aebb8dcc11953d78e620bbef0b9e2183 -->
<g id="edge3" class="edge"><title>dir_827a24ddff81de77e35e919a730f1229&#45;&gt;dir_aebb8dcc11953d78e620bbef0b9e2183</title>
<path fill="none" stroke="black" d="M88.4737,-215.918C97.8208,-206.403 108.046,-193.723 113,-180 118.433,-164.951 116.499,-159.613 113,-144 104.855,-107.664 84.9066,-69.4502 70.4564,-44.9861"/>
<polygon fill="black" stroke="black" points="73.3874,-43.0688 65.2235,-36.3158 67.3943,-46.6859 73.3874,-43.0688"/>
<g id="a_edge3&#45;headlabel"><a xlink:href="dir_000034_000001.html" target="_top" xlink:title="12">
<text text-anchor="middle" x="77.6756" y="-42.1793" font-family="Helvetica,sans-Serif" font-size="10.00">12</text>
</a>
</g>
</g>
<!-- dir_1563a38af0d3a5e4a6330d6d45e9792a&#45;&gt;dir_aebb8dcc11953d78e620bbef0b9e2183 -->
<g id="edge4" class="edge"><title>dir_1563a38af0d3a5e4a6330d6d45e9792a&#45;&gt;dir_aebb8dcc11953d78e620bbef0b9e2183</title>
<path fill="none" stroke="black" d="M27.7584,-71.6966C30.01,-63.7284 33.5093,-54.0995 37.31,-45.2641"/>
<polygon fill="black" stroke="black" points="40.5233,-46.6534 41.5076,-36.1043 34.1597,-43.7371 40.5233,-46.6534"/>
<g id="a_edge4&#45;headlabel"><a xlink:href="dir_000051_000001.html" target="_top" xlink:title="16">
<text text-anchor="middle" x="41.607" y="-48.604" font-family="Helvetica,sans-Serif" font-size="10.00">16</text>
</a>
</g>
</g>
<!-- dir_c4d966a03ca6ea09f7a88bf957c27254&#45;&gt;dir_1563a38af0d3a5e4a6330d6d45e9792a -->
<g id="edge5" class="edge"><title>dir_c4d966a03ca6ea09f7a88bf957c27254&#45;&gt;dir_1563a38af0d3a5e4a6330d6d45e9792a</title>
<path fill="none" stroke="black" d="M58.618,-143.697C53.7353,-135.559 47.8134,-125.689 42.4208,-116.701"/>
<polygon fill="black" stroke="black" points="45.4088,-114.879 37.2626,-108.104 39.4064,-118.48 45.4088,-114.879"/>
<g id="a_edge5&#45;headlabel"><a xlink:href="dir_000039_000051.html" target="_top" xlink:title="79">
<text text-anchor="middle" x="49.6929" y="-114" font-family="Helvetica,sans-Serif" font-size="10.00">79</text>
</a>
</g>
</g>
<!-- dir_c4d966a03ca6ea09f7a88bf957c27254&#45;&gt;dir_aebb8dcc11953d78e620bbef0b9e2183 -->
<g id="edge6" class="edge"><title>dir_c4d966a03ca6ea09f7a88bf957c27254&#45;&gt;dir_aebb8dcc11953d78e620bbef0b9e2183</title>
<path fill="none" stroke="black" d="M68.3594,-143.891C67.5673,-125.937 65.9476,-96.9143 63,-72 61.9977,-63.528 60.5638,-54.3491 59.1342,-46.0481"/>
<polygon fill="black" stroke="black" points="62.5649,-45.3498 57.3586,-36.1224 55.6743,-46.5825 62.5649,-45.3498"/>
<g id="a_edge6&#45;headlabel"><a xlink:href="dir_000039_000001.html" target="_top" xlink:title="120">
<text text-anchor="middle" x="65.9927" y="-45.8882" font-family="Helvetica,sans-Serif" font-size="10.00">120</text>
</a>
</g>
</g>
<!-- dir_aebb8dcc11953d78e620bbef0b9e2183&#45;&gt;dir_1563a38af0d3a5e4a6330d6d45e9792a -->
<g id="edge7" class="edge"><title>dir_aebb8dcc11953d78e620bbef0b9e2183&#45;&gt;dir_1563a38af0d3a5e4a6330d6d45e9792a</title>
<path fill="none" stroke="black" d="M53.2976,-36.1043C51.067,-44.0447 47.5806,-53.6661 43.785,-62.5146"/>
<polygon fill="black" stroke="black" points="40.5621,-61.1465 39.5899,-71.6966 46.9291,-64.0555 40.5621,-61.1465"/>
<g id="a_edge7&#45;headlabel"><a xlink:href="dir_000001_000051.html" target="_top" xlink:title="187">
<text text-anchor="middle" x="39.4734" y="-54.1971" font-family="Helvetica,sans-Serif" font-size="10.00">187</text>
</a>
</g>
</g>
</g>
</svg>
