<?xml version="1.0" encoding="UTF-8" standalone="no"?>
<!DOCTYPE svg PUBLIC "-//W3C//DTD SVG 1.1//EN"
 "http://www.w3.org/Graphics/SVG/1.1/DTD/svg11.dtd">
<!-- Generated by graphviz version 2.38.0 (20140413.2041)
 -->
<!-- Title: src/modules/websock&#45;api/api/search Pages: 1 -->
<svg width="134pt" height="295pt"
 viewBox="0.00 0.00 134.00 295.00" xmlns="http://www.w3.org/2000/svg" xmlns:xlink="http://www.w3.org/1999/xlink">
<g id="graph0" class="graph" transform="scale(1 1) rotate(0) translate(4 291)">
<title>src/modules/websock&#45;api/api/search</title>
<polygon fill="white" stroke="none" points="-4,4 -4,-291 130,-291 130,4 -4,4"/>
<g id="clust1" class="cluster"><title>clusterdir_0fc26247198d2bb35f7fe46305736d1c</title>
<g id="a_clust1"><a xlink:href="dir_0fc26247198d2bb35f7fe46305736d1c.html" target="_top" xlink:title="api">
<polygon fill="#ddddee" stroke="black" points="48,-208 48,-279 118,-279 118,-208 48,-208"/>
<text text-anchor="middle" x="83" y="-267" font-family="Helvetica,sans-Serif" font-size="10.00">api</text>
</a>
</g>
</g>
<!-- dir_918d4fb4ca0f14fc9c34da52b38ebe31 -->
<g id="node1" class="node"><title>dir_918d4fb4ca0f14fc9c34da52b38ebe31</title>
<g id="a_node1"><a xlink:href="dir_918d4fb4ca0f14fc9c34da52b38ebe31.html" target="_top" xlink:title="search">
<polygon fill="#eeeeff" stroke="black" points="110,-252 56,-252 56,-216 110,-216 110,-252"/>
<text text-anchor="middle" x="83" y="-231.5" font-family="Helvetica,sans-Serif" font-size="10.00">search</text>
</a>
</g>
</g>
<!-- dir_59b1e980a670de987a696efba6dbbdbc -->
<g id="node2" class="node"><title>dir_59b1e980a670de987a696efba6dbbdbc</title>
<g id="a_node2"><a xlink:href="dir_59b1e980a670de987a696efba6dbbdbc.html" target="_top" xlink:title="hardware">
<polygon fill="white" stroke="red" points="111,-180 55,-180 55,-144 111,-144 111,-180"/>
<text text-anchor="middle" x="83" y="-159.5" font-family="Helvetica,sans-Serif" font-size="10.00">hardware</text>
</a>
</g>
</g>
<!-- dir_918d4fb4ca0f14fc9c34da52b38ebe31&#45;&gt;dir_59b1e980a670de987a696efba6dbbdbc -->
<g id="edge1" class="edge"><title>dir_918d4fb4ca0f14fc9c34da52b38ebe31&#45;&gt;dir_59b1e980a670de987a696efba6dbbdbc</title>
<path fill="none" stroke="black" d="M83,-215.697C83,-207.983 83,-198.712 83,-190.112"/>
<polygon fill="black" stroke="black" points="86.5001,-190.104 83,-180.104 79.5001,-190.104 86.5001,-190.104"/>
<g id="a_edge1&#45;headlabel"><a xlink:href="dir_000048_000017.html" target="_top" xlink:title="1">
<text text-anchor="middle" x="89.3393" y="-191.199" font-family="Helvetica,sans-Serif" font-size="10.00">1</text>
</a>
</g>
</g>
<!-- dir_1563a38af0d3a5e4a6330d6d45e9792a -->
<g id="node3" class="node"><title>dir_1563a38af0d3a5e4a6330d6d45e9792a</title>
<g id="a_node3"><a xlink:href="dir_1563a38af0d3a5e4a6330d6d45e9792a.html" target="_top" xlink:title="tools">
<polygon fill="white" stroke="red" points="54,-108 0,-108 0,-72 54,-72 54,-108"/>
<text text-anchor="middle" x="27" y="-87.5" font-family="Helvetica,sans-Serif" font-size="10.00">tools</text>
</a>
</g>
</g>
<!-- dir_918d4fb4ca0f14fc9c34da52b38ebe31&#45;&gt;dir_1563a38af0d3a5e4a6330d6d45e9792a -->
<g id="edge2" class="edge"><title>dir_918d4fb4ca0f14fc9c34da52b38ebe31&#45;&gt;dir_1563a38af0d3a5e4a6330d6d45e9792a</title>
<path fill="none" stroke="black" d="M68.4256,-215.911C60.686,-206.01 51.6347,-192.968 46,-180 37.4085,-160.227 32.5778,-136.247 29.9397,-118.162"/>
<polygon fill="black" stroke="black" points="33.3784,-117.468 28.5971,-108.014 26.4389,-118.387 33.3784,-117.468"/>
<g id="a_edge2&#45;headlabel"><a xlink:href="dir_000048_000051.html" target="_top" xlink:title="12">
<text text-anchor="middle" x="36.6645" y="-118.16" font-family="Helvetica,sans-Serif" font-size="10.00">12</text>
</a>
</g>
</g>
<!-- dir_aebb8dcc11953d78e620bbef0b9e2183 -->
<g id="node4" class="node"><title>dir_aebb8dcc11953d78e620bbef0b9e2183</title>
<g id="a_node4"><a xlink:href="dir_aebb8dcc11953d78e620bbef0b9e2183.html" target="_top" xlink:title="core">
<polygon fill="white" stroke="red" points="118,-36 64,-36 64,-0 118,-0 118,-36"/>
<text text-anchor="middle" x="91" y="-15.5" font-family="Helvetica,sans-Serif" font-size="10.00">core</text>
</a>
</g>
</g>
<!-- dir_918d4fb4ca0f14fc9c34da52b38ebe31&#45;&gt;dir_aebb8dcc11953d78e620bbef0b9e2183 -->
<g id="edge3" class="edge"><title>dir_918d4fb4ca0f14fc9c34da52b38ebe31&#45;&gt;dir_aebb8dcc11953d78e620bbef0b9e2183</title>
<path fill="none" stroke="black" d="M99.0369,-215.846C107.014,-206.124 115.825,-193.274 120,-180 134.518,-133.841 116.867,-77.8108 103.435,-45.4938"/>
<polygon fill="black" stroke="black" points="106.625,-44.0515 99.4424,-36.2628 100.2,-46.8305 106.625,-44.0515"/>
<g id="a_edge3&#45;headlabel"><a xlink:href="dir_000048_000001.html" target="_top" xlink:title="5">
<text text-anchor="middle" x="110.658" y="-43.7236" font-family="Helvetica,sans-Serif" font-size="10.00">5</text>
</a>
</g>
</g>
<!-- dir_59b1e980a670de987a696efba6dbbdbc&#45;&gt;dir_1563a38af0d3a5e4a6330d6d45e9792a -->
<g id="edge4" class="edge"><title>dir_59b1e980a670de987a696efba6dbbdbc&#45;&gt;dir_1563a38af0d3a5e4a6330d6d45e9792a</title>
<path fill="none" stroke="black" d="M69.1573,-143.697C62.5115,-135.389 54.4216,-125.277 47.1126,-116.141"/>
<polygon fill="black" stroke="black" points="49.6635,-113.727 40.6835,-108.104 44.1974,-118.099 49.6635,-113.727"/>
<g id="a_edge4&#45;headlabel"><a xlink:href="dir_000017_000051.html" target="_top" xlink:title="19">
<text text-anchor="middle" x="54.1261" y="-112.26" font-family="Helvetica,sans-Serif" font-size="10.00">19</text>
</a>
</g>
</g>
<!-- dir_59b1e980a670de987a696efba6dbbdbc&#45;&gt;dir_aebb8dcc11953d78e620bbef0b9e2183 -->
<g id="edge5" class="edge"><title>dir_59b1e980a670de987a696efba6dbbdbc&#45;&gt;dir_aebb8dcc11953d78e620bbef0b9e2183</title>
<path fill="none" stroke="black" d="M79.3805,-143.871C78.1856,-119.67 80.3988,-75.2108 83.9977,-46.3932"/>
<polygon fill="black" stroke="black" points="87.5059,-46.5808 85.4407,-36.1893 80.5749,-45.6007 87.5059,-46.5808"/>
<g id="a_edge5&#45;headlabel"><a xlink:href="dir_000017_000001.html" target="_top" xlink:title="4">
<text text-anchor="middle" x="89.814" y="-48.0376" font-family="Helvetica,sans-Serif" font-size="10.00">4</text>
</a>
</g>
</g>
<!-- dir_1563a38af0d3a5e4a6330d6d45e9792a&#45;&gt;dir_aebb8dcc11953d78e620bbef0b9e2183 -->
<g id="edge6" class="edge"><title>dir_1563a38af0d3a5e4a6330d6d45e9792a&#45;&gt;dir_aebb8dcc11953d78e620bbef0b9e2183</title>
<path fill="none" stroke="black" d="M36.9045,-71.6966C43.8491,-63.135 53.2477,-52.6562 62.3171,-43.3045"/>
<polygon fill="black" stroke="black" points="64.9041,-45.6664 69.4667,-36.1043 59.937,-40.7341 64.9041,-45.6664"/>
<g id="a_edge6&#45;headlabel"><a xlink:href="dir_000051_000001.html" target="_top" xlink:title="16">
<text text-anchor="middle" x="64.386" y="-47.7177" font-family="Helvetica,sans-Serif" font-size="10.00">16</text>
</a>
</g>
</g>
<!-- dir_aebb8dcc11953d78e620bbef0b9e2183&#45;&gt;dir_59b1e980a670de987a696efba6dbbdbc -->
<g id="edge7" class="edge"><title>dir_aebb8dcc11953d78e620bbef0b9e2183&#45;&gt;dir_59b1e980a670de987a696efba6dbbdbc</title>
<path fill="none" stroke="black" d="M94.6225,-36.1893C95.8117,-60.4244 93.5944,-104.888 89.9932,-133.679"/>
<polygon fill="black" stroke="black" points="86.4866,-133.479 88.5495,-143.871 93.4175,-134.461 86.4866,-133.479"/>
<g id="a_edge7&#45;headlabel"><a xlink:href="dir_000001_000017.html" target="_top" xlink:title="3">
<text text-anchor="middle" x="84.1795" y="-127.022" font-family="Helvetica,sans-Serif" font-size="10.00">3</text>
</a>
</g>
</g>
<!-- dir_aebb8dcc11953d78e620bbef0b9e2183&#45;&gt;dir_1563a38af0d3a5e4a6330d6d45e9792a -->
<g id="edge8" class="edge"><title>dir_aebb8dcc11953d78e620bbef0b9e2183&#45;&gt;dir_1563a38af0d3a5e4a6330d6d45e9792a</title>
<path fill="none" stroke="black" d="M81.2568,-36.1043C74.3504,-44.636 64.9685,-55.1084 55.8942,-64.4775"/>
<polygon fill="black" stroke="black" points="53.2917,-62.1313 48.736,-71.6966 58.2624,-67.0601 53.2917,-62.1313"/>
<g id="a_edge8&#45;headlabel"><a xlink:href="dir_000001_000051.html" target="_top" xlink:title="187">
<text text-anchor="middle" x="53.8066" y="-55.0797" font-family="Helvetica,sans-Serif" font-size="10.00">187</text>
</a>
</g>
</g>
</g>
</svg>
