<?xml version="1.0" encoding="UTF-8" standalone="no"?>
<!DOCTYPE svg PUBLIC "-//W3C//DTD SVG 1.1//EN"
 "http://www.w3.org/Graphics/SVG/1.1/DTD/svg11.dtd">
<!-- Generated by graphviz version 2.38.0 (20140413.2041)
 -->
<!-- Title: src/modules/tcp&#45;notifier Pages: 1 -->
<svg width="172pt" height="231pt"
 viewBox="0.00 0.00 172.00 231.00" xmlns="http://www.w3.org/2000/svg" xmlns:xlink="http://www.w3.org/1999/xlink">
<g id="graph0" class="graph" transform="scale(1 1) rotate(0) translate(4 227)">
<title>src/modules/tcp&#45;notifier</title>
<polygon fill="white" stroke="none" points="-4,4 -4,-227 168,-227 168,4 -4,4"/>
<g id="clust1" class="cluster"><title>clusterdir_ddb4d7e95cc2d6c8e1ade10a20d7247d</title>
<g id="a_clust1"><a xlink:href="dir_ddb4d7e95cc2d6c8e1ade10a20d7247d.html" target="_top" xlink:title="modules">
<polygon fill="#ddddee" stroke="black" points="8,-56 8,-215 102,-215 102,-56 8,-56"/>
<text text-anchor="middle" x="55" y="-203" font-family="Helvetica,sans-Serif" font-size="10.00">modules</text>
</a>
</g>
</g>
<g id="clust2" class="cluster"><title>clusterdir_34f118ed59380204b1757457ad26e099</title>
<g id="a_clust2"><a xlink:href="dir_34f118ed59380204b1757457ad26e099.html" target="_top">
<polygon fill="#eeeeff" stroke="black" points="16,-64 16,-188 94,-188 94,-64 16,-64"/>
</a>
</g>
</g>
<!-- dir_34f118ed59380204b1757457ad26e099 -->
<g id="node1" class="node"><title>dir_34f118ed59380204b1757457ad26e099</title>
<text text-anchor="middle" x="55" y="-159.5" font-family="Helvetica,sans-Serif" font-size="10.00">tcp&#45;notifier</text>
</g>
<!-- dir_0b8e12794e96b66b5c545b706f491f57 -->
<g id="node2" class="node"><title>dir_0b8e12794e96b66b5c545b706f491f57</title>
<g id="a_node2"><a xlink:href="dir_0b8e12794e96b66b5c545b706f491f57.html" target="_top" xlink:title="protocols">
<polygon fill="white" stroke="black" points="84,-108 28,-108 28,-72 84,-72 84,-108"/>
<text text-anchor="middle" x="56" y="-87.5" font-family="Helvetica,sans-Serif" font-size="10.00">protocols</text>
</a>
</g>
</g>
<!-- dir_34f118ed59380204b1757457ad26e099&#45;&gt;dir_0b8e12794e96b66b5c545b706f491f57 -->
<g id="edge2" class="edge"><title>dir_34f118ed59380204b1757457ad26e099&#45;&gt;dir_0b8e12794e96b66b5c545b706f491f57</title>
<path fill="none" stroke="black" d="M55.2472,-143.697C55.3574,-135.983 55.4898,-126.712 55.6127,-118.112"/>
<polygon fill="black" stroke="black" points="59.1124,-118.153 55.7557,-108.104 52.1131,-118.053 59.1124,-118.153"/>
<g id="a_edge2&#45;headlabel"><a xlink:href="dir_000037_000046.html" target="_top" xlink:title="2">
<text text-anchor="middle" x="61.9001" y="-119.288" font-family="Helvetica,sans-Serif" font-size="10.00">2</text>
</a>
</g>
</g>
<!-- dir_1563a38af0d3a5e4a6330d6d45e9792a -->
<g id="node3" class="node"><title>dir_1563a38af0d3a5e4a6330d6d45e9792a</title>
<g id="a_node3"><a xlink:href="dir_1563a38af0d3a5e4a6330d6d45e9792a.html" target="_top" xlink:title="tools">
<polygon fill="white" stroke="red" points="164,-108 110,-108 110,-72 164,-72 164,-108"/>
<text text-anchor="middle" x="137" y="-87.5" font-family="Helvetica,sans-Serif" font-size="10.00">tools</text>
</a>
</g>
</g>
<!-- dir_34f118ed59380204b1757457ad26e099&#45;&gt;dir_1563a38af0d3a5e4a6330d6d45e9792a -->
<g id="edge1" class="edge"><title>dir_34f118ed59380204b1757457ad26e099&#45;&gt;dir_1563a38af0d3a5e4a6330d6d45e9792a</title>
<path fill="none" stroke="black" d="M75.2697,-143.697C85.4976,-134.965 98.0611,-124.24 109.178,-114.75"/>
<polygon fill="black" stroke="black" points="111.63,-117.259 116.963,-108.104 107.085,-111.935 111.63,-117.259"/>
<g id="a_edge1&#45;headlabel"><a xlink:href="dir_000037_000051.html" target="_top" xlink:title="5">
<text text-anchor="middle" x="110.74" y="-119.252" font-family="Helvetica,sans-Serif" font-size="10.00">5</text>
</a>
</g>
</g>
<!-- dir_aebb8dcc11953d78e620bbef0b9e2183 -->
<g id="node4" class="node"><title>dir_aebb8dcc11953d78e620bbef0b9e2183</title>
<g id="a_node4"><a xlink:href="dir_aebb8dcc11953d78e620bbef0b9e2183.html" target="_top" xlink:title="core">
<polygon fill="white" stroke="red" points="164,-36 110,-36 110,-0 164,-0 164,-36"/>
<text text-anchor="middle" x="137" y="-15.5" font-family="Helvetica,sans-Serif" font-size="10.00">core</text>
</a>
</g>
</g>
<!-- dir_0b8e12794e96b66b5c545b706f491f57&#45;&gt;dir_aebb8dcc11953d78e620bbef0b9e2183 -->
<g id="edge5" class="edge"><title>dir_0b8e12794e96b66b5c545b706f491f57&#45;&gt;dir_aebb8dcc11953d78e620bbef0b9e2183</title>
<path fill="none" stroke="black" d="M76.0225,-71.6966C86.1256,-62.9655 98.536,-52.2405 109.518,-42.7503"/>
<polygon fill="black" stroke="black" points="111.93,-45.2912 117.208,-36.1043 107.353,-39.9948 111.93,-45.2912"/>
<g id="a_edge5&#45;headlabel"><a xlink:href="dir_000046_000001.html" target="_top" xlink:title="1">
<text text-anchor="middle" x="111.067" y="-47.2897" font-family="Helvetica,sans-Serif" font-size="10.00">1</text>
</a>
</g>
</g>
<!-- dir_1563a38af0d3a5e4a6330d6d45e9792a&#45;&gt;dir_aebb8dcc11953d78e620bbef0b9e2183 -->
<g id="edge3" class="edge"><title>dir_1563a38af0d3a5e4a6330d6d45e9792a&#45;&gt;dir_aebb8dcc11953d78e620bbef0b9e2183</title>
<path fill="none" stroke="black" d="M131.084,-71.6966C130.289,-63.9827 130.062,-54.7125 130.405,-46.1124"/>
<polygon fill="black" stroke="black" points="133.898,-46.3243 131.105,-36.1043 126.915,-45.8356 133.898,-46.3243"/>
<g id="a_edge3&#45;headlabel"><a xlink:href="dir_000051_000001.html" target="_top" xlink:title="16">
<text text-anchor="middle" x="136.48" y="-47.6083" font-family="Helvetica,sans-Serif" font-size="10.00">16</text>
</a>
</g>
</g>
<!-- dir_aebb8dcc11953d78e620bbef0b9e2183&#45;&gt;dir_1563a38af0d3a5e4a6330d6d45e9792a -->
<g id="edge4" class="edge"><title>dir_aebb8dcc11953d78e620bbef0b9e2183&#45;&gt;dir_1563a38af0d3a5e4a6330d6d45e9792a</title>
<path fill="none" stroke="black" d="M142.895,-36.1043C143.701,-43.7913 143.937,-53.0537 143.604,-61.6651"/>
<polygon fill="black" stroke="black" points="140.109,-61.4805 142.916,-71.6966 147.092,-61.9597 140.109,-61.4805"/>
<g id="a_edge4&#45;headlabel"><a xlink:href="dir_000001_000051.html" target="_top" xlink:title="187">
<text text-anchor="middle" x="137.522" y="-55.2" font-family="Helvetica,sans-Serif" font-size="10.00">187</text>
</a>
</g>
</g>
</g>
</svg>
