<?xml version="1.0" encoding="UTF-8" standalone="no"?>
<!DOCTYPE svg PUBLIC "-//W3C//DTD SVG 1.1//EN"
 "http://www.w3.org/Graphics/SVG/1.1/DTD/svg11.dtd">
<!-- Generated by graphviz version 2.38.0 (20140413.2041)
 -->
<!-- Title: src/core Pages: 1 -->
<!--zoomable 303 -->
<svg id="main" version="1.1" xmlns="http://www.w3.org/2000/svg" xmlns:xlink="http://www.w3.org/1999/xlink" xml:space="preserve" onload="init(evt)">
<style type="text/css"><![CDATA[
.edge:hover path { stroke: red; }
.edge:hover polygon { stroke: red; fill: red; }
]]></style>
<script type="text/javascript"><![CDATA[
var edges = document.getElementsByTagName('g');
if (edges && edges.length) {
  for (var i=0;i<edges.length;i++) {
    if (edges[i].id.substr(0,4)=='edge') {
      edges[i].setAttribute('class','edge');
    }
  }
}
]]></script>
        <defs>
                <circle id="rim" cx="0" cy="0" r="7"/>
                <circle id="rim2" cx="0" cy="0" r="3.5"/>
                <g id="zoomPlus">
                        <use xlink:href="#rim" fill="#404040">
                                <set attributeName="fill" to="#808080" begin="zoomplus.mouseover" end="zoomplus.mouseout"/>
                        </use>
                        <path d="M-4,0h8M0,-4v8" fill="none" stroke="white" stroke-width="1.5" pointer-events="none"/>
                </g>
                <g id="zoomMin">
                        <use xlink:href="#rim" fill="#404040">
                                <set attributeName="fill" to="#808080" begin="zoomminus.mouseover" end="zoomminus.mouseout"/>
                        </use>
                        <path d="M-4,0h8" fill="none" stroke="white" stroke-width="1.5" pointer-events="none"/>
                </g>
                <g id="dirArrow">
                        <path fill="none" stroke="white" stroke-width="1.5" d="M0,-3.0v7 M-2.5,-0.5L0,-3.0L2.5,-0.5"/>
                </g>
               <g id="resetDef">
                       <use xlink:href="#rim2" fill="#404040">
                               <set attributeName="fill" to="#808080" begin="reset.mouseover" end="reset.mouseout"/>
                       </use>
               </g>
        </defs>

<script type="text/javascript">
var viewWidth = 582;
var viewHeight = 303;
var sectionId = 'dynsection-0';
</script>
<script xlink:href="svgpan.js"/>
<svg id="graph" class="graph">
<g id="viewport">
<title>src/core</title>
<polygon fill="white" stroke="none" points="-4,4 -4,-299 578,-299 578,4 -4,4"/>
<g id="clust1" class="cluster"><title>clusterdir_68267d1309a1af8e8297ef4c3efbcdba</title>
<g id="a_clust1"><a xlink:href="dir_68267d1309a1af8e8297ef4c3efbcdba.html" target="_top" xlink:title="src">
<polygon fill="#ddddee" stroke="black" points="8,-56 8,-287 280,-287 280,-56 8,-56"/>
<text text-anchor="middle" x="144" y="-275" font-family="Helvetica,sans-Serif" font-size="10.00">src</text>
</a>
</g>
</g>
<g id="clust2" class="cluster"><title>clusterdir_aebb8dcc11953d78e620bbef0b9e2183</title>
<g id="a_clust2"><a xlink:href="dir_aebb8dcc11953d78e620bbef0b9e2183.html" target="_top">
<polygon fill="#eeeeff" stroke="black" points="16,-64 16,-260 272,-260 272,-64 16,-64"/>
</a>
</g>
</g>
<!-- dir_aebb8dcc11953d78e620bbef0b9e2183 -->
<g id="node1" class="node"><title>dir_aebb8dcc11953d78e620bbef0b9e2183</title>
<text text-anchor="middle" x="236" y="-231.5" font-family="Helvetica,sans-Serif" font-size="10.00">core</text>
</g>
<!-- dir_310b47614135aad694cafb7265578956 -->
<g id="node4" class="node"><title>dir_310b47614135aad694cafb7265578956</title>
<g id="a_node4"><a xlink:href="dir_310b47614135aad694cafb7265578956.html" target="_top" xlink:title="config">
<polygon fill="white" stroke="black" points="190,-180 136,-180 136,-144 190,-144 190,-180"/>
<text text-anchor="middle" x="163" y="-159.5" font-family="Helvetica,sans-Serif" font-size="10.00">config</text>
</a>
</g>
</g>
<!-- dir_aebb8dcc11953d78e620bbef0b9e2183&#45;&gt;dir_310b47614135aad694cafb7265578956 -->
<g id="edge30" class="edge"><title>dir_aebb8dcc11953d78e620bbef0b9e2183&#45;&gt;dir_310b47614135aad694cafb7265578956</title>
<path fill="none" stroke="black" d="M217.955,-215.697C208.938,-207.05 197.882,-196.449 188.057,-187.027"/>
<polygon fill="black" stroke="black" points="190.478,-184.499 180.837,-180.104 185.633,-189.552 190.478,-184.499"/>
<g id="a_edge30&#45;headlabel"><a xlink:href="dir_000001_000008.html" target="_top" xlink:title="7">
<text text-anchor="middle" x="195.037" y="-182.438" font-family="Helvetica,sans-Serif" font-size="10.00">7</text>
</a>
</g>
</g>
<!-- dir_9991c64706c58e8dfb7dc640bbfe3109 -->
<g id="node6" class="node"><title>dir_9991c64706c58e8dfb7dc640bbfe3109</title>
<g id="a_node6"><a xlink:href="dir_9991c64706c58e8dfb7dc640bbfe3109.html" target="_top" xlink:title="netconfig">
<polygon fill="white" stroke="black" points="264,-180 208,-180 208,-144 264,-144 264,-180"/>
<text text-anchor="middle" x="236" y="-159.5" font-family="Helvetica,sans-Serif" font-size="10.00">netconfig</text>
</a>
</g>
</g>
<!-- dir_aebb8dcc11953d78e620bbef0b9e2183&#45;&gt;dir_9991c64706c58e8dfb7dc640bbfe3109 -->
<g id="edge31" class="edge"><title>dir_aebb8dcc11953d78e620bbef0b9e2183&#45;&gt;dir_9991c64706c58e8dfb7dc640bbfe3109</title>
<path fill="none" stroke="black" d="M236,-215.697C236,-207.983 236,-198.712 236,-190.112"/>
<polygon fill="black" stroke="black" points="239.5,-190.104 236,-180.104 232.5,-190.104 239.5,-190.104"/>
<g id="a_edge31&#45;headlabel"><a xlink:href="dir_000001_000011.html" target="_top" xlink:title="1">
<text text-anchor="middle" x="242.339" y="-191.199" font-family="Helvetica,sans-Serif" font-size="10.00">1</text>
</a>
</g>
</g>
<!-- dir_3a49252c1fe7a8dfc91ea73a9211923c -->
<g id="node9" class="node"><title>dir_3a49252c1fe7a8dfc91ea73a9211923c</title>
<g id="a_node9"><a xlink:href="dir_3a49252c1fe7a8dfc91ea73a9211923c.html" target="_top" xlink:title="dynlib">
<polygon fill="none" stroke="black" points="382,-180 328,-180 328,-144 382,-144 382,-180"/>
<text text-anchor="middle" x="355" y="-159.5" font-family="Helvetica,sans-Serif" font-size="10.00">dynlib</text>
</a>
</g>
</g>
<!-- dir_aebb8dcc11953d78e620bbef0b9e2183&#45;&gt;dir_3a49252c1fe7a8dfc91ea73a9211923c -->
<g id="edge29" class="edge"><title>dir_aebb8dcc11953d78e620bbef0b9e2183&#45;&gt;dir_3a49252c1fe7a8dfc91ea73a9211923c</title>
<path fill="none" stroke="black" d="M263.003,-217.116C279.47,-207.429 300.728,-194.924 318.661,-184.376"/>
<polygon fill="black" stroke="black" points="320.847,-187.151 327.692,-179.064 317.298,-181.117 320.847,-187.151"/>
<g id="a_edge29&#45;headlabel"><a xlink:href="dir_000001_000015.html" target="_top" xlink:title="1">
<text text-anchor="middle" x="319.188" y="-188.92" font-family="Helvetica,sans-Serif" font-size="10.00">1</text>
</a>
</g>
</g>
<!-- dir_6e399610acf21149161a2424bf394843 -->
<g id="node2" class="node"><title>dir_6e399610acf21149161a2424bf394843</title>
<g id="a_node2"><a xlink:href="dir_6e399610acf21149161a2424bf394843.html" target="_top" xlink:title="audit">
<polygon fill="white" stroke="red" points="98,-252 44,-252 44,-216 98,-216 98,-252"/>
<text text-anchor="middle" x="71" y="-231.5" font-family="Helvetica,sans-Serif" font-size="10.00">audit</text>
</a>
</g>
</g>
<!-- dir_fc6e43284f481c1dffff29eff431ce17 -->
<g id="node3" class="node"><title>dir_fc6e43284f481c1dffff29eff431ce17</title>
<g id="a_node3"><a xlink:href="dir_fc6e43284f481c1dffff29eff431ce17.html" target="_top" xlink:title="auth">
<polygon fill="white" stroke="red" points="98,-180 44,-180 44,-144 98,-144 98,-180"/>
<text text-anchor="middle" x="71" y="-159.5" font-family="Helvetica,sans-Serif" font-size="10.00">auth</text>
</a>
</g>
</g>
<!-- dir_6e399610acf21149161a2424bf394843&#45;&gt;dir_fc6e43284f481c1dffff29eff431ce17 -->
<g id="edge14" class="edge"><title>dir_6e399610acf21149161a2424bf394843&#45;&gt;dir_fc6e43284f481c1dffff29eff431ce17</title>
<path fill="none" stroke="black" d="M65.0843,-215.697C64.2886,-207.983 64.0621,-198.712 64.4047,-190.112"/>
<polygon fill="black" stroke="black" points="67.8984,-190.324 65.105,-180.104 60.9154,-189.836 67.8984,-190.324"/>
<g id="a_edge14&#45;headlabel"><a xlink:href="dir_000002_000004.html" target="_top" xlink:title="21">
<text text-anchor="middle" x="70.4799" y="-191.608" font-family="Helvetica,sans-Serif" font-size="10.00">21</text>
</a>
</g>
</g>
<!-- dir_2a6d67d55e8c89b2b7b5d042685b1c29 -->
<g id="node5" class="node"><title>dir_2a6d67d55e8c89b2b7b5d042685b1c29</title>
<g id="a_node5"><a xlink:href="dir_2a6d67d55e8c89b2b7b5d042685b1c29.html" target="_top" xlink:title="credentials">
<polygon fill="white" stroke="red" points="160,-108 96,-108 96,-72 160,-72 160,-108"/>
<text text-anchor="middle" x="128" y="-87.5" font-family="Helvetica,sans-Serif" font-size="10.00">credentials</text>
</a>
</g>
</g>
<!-- dir_6e399610acf21149161a2424bf394843&#45;&gt;dir_2a6d67d55e8c89b2b7b5d042685b1c29 -->
<g id="edge16" class="edge"><title>dir_6e399610acf21149161a2424bf394843&#45;&gt;dir_2a6d67d55e8c89b2b7b5d042685b1c29</title>
<path fill="none" stroke="black" d="M85.0583,-215.805C92.5505,-205.87 101.36,-192.83 107,-180 115.706,-160.197 121.093,-136.261 124.229,-118.202"/>
<polygon fill="black" stroke="black" points="127.685,-118.754 125.823,-108.324 120.774,-117.639 127.685,-118.754"/>
<g id="a_edge16&#45;headlabel"><a xlink:href="dir_000002_000009.html" target="_top" xlink:title="6">
<text text-anchor="middle" x="129.915" y="-120.255" font-family="Helvetica,sans-Serif" font-size="10.00">6</text>
</a>
</g>
</g>
<!-- dir_82e584bccfefb078d177be117ba8eb49 -->
<g id="node8" class="node"><title>dir_82e584bccfefb078d177be117ba8eb49</title>
<g id="a_node8"><a xlink:href="dir_82e584bccfefb078d177be117ba8eb49.html" target="_top" xlink:title="update">
<polygon fill="white" stroke="red" points="78,-108 24,-108 24,-72 78,-72 78,-108"/>
<text text-anchor="middle" x="51" y="-87.5" font-family="Helvetica,sans-Serif" font-size="10.00">update</text>
</a>
</g>
</g>
<!-- dir_6e399610acf21149161a2424bf394843&#45;&gt;dir_82e584bccfefb078d177be117ba8eb49 -->
<g id="edge15" class="edge"><title>dir_6e399610acf21149161a2424bf394843&#45;&gt;dir_82e584bccfefb078d177be117ba8eb49</title>
<path fill="none" stroke="black" d="M47.4129,-215.774C38.6271,-206.03 30.0541,-193.184 26,-180 19.6538,-159.363 24.7443,-135.212 32.2102,-117.28"/>
<polygon fill="black" stroke="black" points="35.4755,-118.56 36.5448,-108.019 29.1356,-115.592 35.4755,-118.56"/>
<g id="a_edge15&#45;headlabel"><a xlink:href="dir_000002_000013.html" target="_top" xlink:title="3">
<text text-anchor="middle" x="36.5233" y="-120.519" font-family="Helvetica,sans-Serif" font-size="10.00">3</text>
</a>
</g>
</g>
<!-- dir_1563a38af0d3a5e4a6330d6d45e9792a -->
<g id="node11" class="node"><title>dir_1563a38af0d3a5e4a6330d6d45e9792a</title>
<g id="a_node11"><a xlink:href="dir_1563a38af0d3a5e4a6330d6d45e9792a.html" target="_top" xlink:title="tools">
<polygon fill="white" stroke="red" points="306,-36 252,-36 252,-0 306,-0 306,-36"/>
<text text-anchor="middle" x="279" y="-15.5" font-family="Helvetica,sans-Serif" font-size="10.00">tools</text>
</a>
</g>
</g>
<!-- dir_6e399610acf21149161a2424bf394843&#45;&gt;dir_1563a38af0d3a5e4a6330d6d45e9792a -->
<g id="edge17" class="edge"><title>dir_6e399610acf21149161a2424bf394843&#45;&gt;dir_1563a38af0d3a5e4a6330d6d45e9792a</title>
<path fill="none" stroke="black" d="M98.0911,-229.424C187.147,-217.663 465.235,-180.875 466,-180 502.286,-138.52 500.984,-98.5838 466,-56 447.456,-33.4269 365.553,-24.3912 316.499,-20.9568"/>
<polygon fill="black" stroke="black" points="316.477,-17.4479 306.27,-20.2881 316.021,-24.433 316.477,-17.4479"/>
<g id="a_edge17&#45;headlabel"><a xlink:href="dir_000002_000051.html" target="_top" xlink:title="62">
<text text-anchor="middle" x="320.249" y="-12.3491" font-family="Helvetica,sans-Serif" font-size="10.00">62</text>
</a>
</g>
</g>
<!-- dir_fc6e43284f481c1dffff29eff431ce17&#45;&gt;dir_6e399610acf21149161a2424bf394843 -->
<g id="edge3" class="edge"><title>dir_fc6e43284f481c1dffff29eff431ce17&#45;&gt;dir_6e399610acf21149161a2424bf394843</title>
<path fill="none" stroke="black" d="M76.895,-180.104C77.7005,-187.791 77.9369,-197.054 77.604,-205.665"/>
<polygon fill="black" stroke="black" points="74.1085,-205.48 76.9157,-215.697 81.0921,-205.96 74.1085,-205.48"/>
<g id="a_edge3&#45;headlabel"><a xlink:href="dir_000004_000002.html" target="_top" xlink:title="1">
<text text-anchor="middle" x="71.5219" y="-199.2" font-family="Helvetica,sans-Serif" font-size="10.00">1</text>
</a>
</g>
</g>
<!-- dir_fc6e43284f481c1dffff29eff431ce17&#45;&gt;dir_2a6d67d55e8c89b2b7b5d042685b1c29 -->
<g id="edge4" class="edge"><title>dir_fc6e43284f481c1dffff29eff431ce17&#45;&gt;dir_2a6d67d55e8c89b2b7b5d042685b1c29</title>
<path fill="none" stroke="black" d="M79.1742,-143.697C85.2023,-135.22 93.4482,-124.864 101.506,-115.583"/>
<polygon fill="black" stroke="black" points="104.132,-117.897 108.177,-108.104 98.9083,-113.237 104.132,-117.897"/>
<g id="a_edge4&#45;headlabel"><a xlink:href="dir_000004_000009.html" target="_top" xlink:title="9">
<text text-anchor="middle" x="103.858" y="-119.969" font-family="Helvetica,sans-Serif" font-size="10.00">9</text>
</a>
</g>
</g>
<!-- dir_fc6e43284f481c1dffff29eff431ce17&#45;&gt;dir_82e584bccfefb078d177be117ba8eb49 -->
<g id="edge2" class="edge"><title>dir_fc6e43284f481c1dffff29eff431ce17&#45;&gt;dir_82e584bccfefb078d177be117ba8eb49</title>
<path fill="none" stroke="black" d="M60.1405,-143.697C57.1408,-135.983 54.2656,-126.712 52.1511,-118.112"/>
<polygon fill="black" stroke="black" points="55.5222,-117.141 49.9919,-108.104 48.6796,-118.618 55.5222,-117.141"/>
<g id="a_edge2&#45;headlabel"><a xlink:href="dir_000004_000013.html" target="_top" xlink:title="1">
<text text-anchor="middle" x="59.0556" y="-117.556" font-family="Helvetica,sans-Serif" font-size="10.00">1</text>
</a>
</g>
</g>
<!-- dir_59b1e980a670de987a696efba6dbbdbc -->
<g id="node10" class="node"><title>dir_59b1e980a670de987a696efba6dbbdbc</title>
<g id="a_node10"><a xlink:href="dir_59b1e980a670de987a696efba6dbbdbc.html" target="_top" xlink:title="hardware">
<polygon fill="white" stroke="red" points="574,-180 518,-180 518,-144 574,-144 574,-180"/>
<text text-anchor="middle" x="546" y="-159.5" font-family="Helvetica,sans-Serif" font-size="10.00">hardware</text>
</a>
</g>
</g>
<!-- dir_fc6e43284f481c1dffff29eff431ce17&#45;&gt;dir_59b1e980a670de987a696efba6dbbdbc -->
<g id="edge5" class="edge"><title>dir_fc6e43284f481c1dffff29eff431ce17&#45;&gt;dir_59b1e980a670de987a696efba6dbbdbc</title>
<path fill="none" stroke="black" d="M96.5937,-180.117C108.075,-187.173 122.137,-194.417 136,-198 205.064,-215.848 386.98,-211.625 457,-198 474.613,-194.573 493.152,-187.661 508.723,-180.803"/>
<polygon fill="black" stroke="black" points="510.355,-183.905 518,-176.57 507.449,-177.537 510.355,-183.905"/>
<g id="a_edge5&#45;headlabel"><a xlink:href="dir_000004_000017.html" target="_top" xlink:title="1">
<text text-anchor="middle" x="508.263" y="-185.48" font-family="Helvetica,sans-Serif" font-size="10.00">1</text>
</a>
</g>
</g>
<!-- dir_fc6e43284f481c1dffff29eff431ce17&#45;&gt;dir_1563a38af0d3a5e4a6330d6d45e9792a -->
<g id="edge6" class="edge"><title>dir_fc6e43284f481c1dffff29eff431ce17&#45;&gt;dir_1563a38af0d3a5e4a6330d6d45e9792a</title>
<path fill="none" stroke="black" d="M98.0486,-152.724C145.673,-138.131 239.631,-109.237 241,-108 258.859,-91.8651 268.629,-65.9188 273.772,-46.1942"/>
<polygon fill="black" stroke="black" points="277.227,-46.7916 276.116,-36.2552 270.414,-45.1846 277.227,-46.7916"/>
<g id="a_edge6&#45;headlabel"><a xlink:href="dir_000004_000051.html" target="_top" xlink:title="39">
<text text-anchor="middle" x="279.165" y="-48.442" font-family="Helvetica,sans-Serif" font-size="10.00">39</text>
</a>
</g>
</g>
<!-- dir_03f4a28f75b8e23e1d457d2da09125b3 -->
<g id="node12" class="node"><title>dir_03f4a28f75b8e23e1d457d2da09125b3</title>
<g id="a_node12"><a xlink:href="dir_03f4a28f75b8e23e1d457d2da09125b3.html" target="_top" xlink:title="exception">
<polygon fill="none" stroke="black" points="423.5,-108 364.5,-108 364.5,-72 423.5,-72 423.5,-108"/>
<text text-anchor="middle" x="394" y="-87.5" font-family="Helvetica,sans-Serif" font-size="10.00">exception</text>
</a>
</g>
</g>
<!-- dir_fc6e43284f481c1dffff29eff431ce17&#45;&gt;dir_03f4a28f75b8e23e1d457d2da09125b3 -->
<g id="edge7" class="edge"><title>dir_fc6e43284f481c1dffff29eff431ce17&#45;&gt;dir_03f4a28f75b8e23e1d457d2da09125b3</title>
<path fill="none" stroke="black" d="M98.1932,-152.155C107.298,-149.352 117.538,-146.369 127,-144 206.939,-123.984 301.857,-106.646 354.258,-97.6239"/>
<polygon fill="black" stroke="black" points="354.887,-101.067 364.154,-95.9321 353.707,-94.1673 354.887,-101.067"/>
<g id="a_edge7&#45;headlabel"><a xlink:href="dir_000004_000016.html" target="_top" xlink:title="4">
<text text-anchor="middle" x="351.822" y="-101.972" font-family="Helvetica,sans-Serif" font-size="10.00">4</text>
</a>
</g>
</g>
<!-- dir_3c623fb49c2c95ca25f6fe90d3efbb5b -->
<g id="node7" class="node"><title>dir_3c623fb49c2c95ca25f6fe90d3efbb5b</title>
<g id="a_node7"><a xlink:href="dir_3c623fb49c2c95ca25f6fe90d3efbb5b.html" target="_top" xlink:title="tasks">
<polygon fill="white" stroke="black" points="232,-108 178,-108 178,-72 232,-72 232,-108"/>
<text text-anchor="middle" x="205" y="-87.5" font-family="Helvetica,sans-Serif" font-size="10.00">tasks</text>
</a>
</g>
</g>
<!-- dir_310b47614135aad694cafb7265578956&#45;&gt;dir_3c623fb49c2c95ca25f6fe90d3efbb5b -->
<g id="edge13" class="edge"><title>dir_310b47614135aad694cafb7265578956&#45;&gt;dir_3c623fb49c2c95ca25f6fe90d3efbb5b</title>
<path fill="none" stroke="black" d="M167.466,-143.697C171.552,-135.474 177.345,-125.483 183.227,-116.421"/>
<polygon fill="black" stroke="black" points="186.147,-118.351 188.842,-108.104 180.346,-114.434 186.147,-118.351"/>
<g id="a_edge13&#45;headlabel"><a xlink:href="dir_000008_000012.html" target="_top" xlink:title="2">
<text text-anchor="middle" x="186.489" y="-120.419" font-family="Helvetica,sans-Serif" font-size="10.00">2</text>
</a>
</g>
</g>
<!-- dir_310b47614135aad694cafb7265578956&#45;&gt;dir_1563a38af0d3a5e4a6330d6d45e9792a -->
<g id="edge11" class="edge"><title>dir_310b47614135aad694cafb7265578956&#45;&gt;dir_1563a38af0d3a5e4a6330d6d45e9792a</title>
<path fill="none" stroke="black" d="M190.053,-148.185C222.807,-132.654 273.678,-108.481 274,-108 286.089,-89.9729 286.433,-64.9846 284.272,-46.0738"/>
<polygon fill="black" stroke="black" points="287.712,-45.4094 282.827,-36.0084 280.783,-46.4044 287.712,-45.4094"/>
<g id="a_edge11&#45;headlabel"><a xlink:href="dir_000008_000051.html" target="_top" xlink:title="8">
<text text-anchor="middle" x="291.034" y="-46.064" font-family="Helvetica,sans-Serif" font-size="10.00">8</text>
</a>
</g>
</g>
<!-- dir_310b47614135aad694cafb7265578956&#45;&gt;dir_03f4a28f75b8e23e1d457d2da09125b3 -->
<g id="edge12" class="edge"><title>dir_310b47614135aad694cafb7265578956&#45;&gt;dir_03f4a28f75b8e23e1d457d2da09125b3</title>
<path fill="none" stroke="black" d="M190.305,-147.499C193.211,-146.245 196.147,-145.052 199,-144 251.687,-124.572 314.723,-108.718 354.569,-99.5652"/>
<polygon fill="black" stroke="black" points="355.447,-102.955 364.425,-97.3292 353.898,-96.1284 355.447,-102.955"/>
<g id="a_edge12&#45;headlabel"><a xlink:href="dir_000008_000016.html" target="_top" xlink:title="2">
<text text-anchor="middle" x="352.569" y="-104.019" font-family="Helvetica,sans-Serif" font-size="10.00">2</text>
</a>
</g>
</g>
<!-- dir_2a6d67d55e8c89b2b7b5d042685b1c29&#45;&gt;dir_fc6e43284f481c1dffff29eff431ce17 -->
<g id="edge18" class="edge"><title>dir_2a6d67d55e8c89b2b7b5d042685b1c29&#45;&gt;dir_fc6e43284f481c1dffff29eff431ce17</title>
<path fill="none" stroke="black" d="M119.967,-108.104C113.974,-116.552 105.744,-126.901 97.6837,-136.199"/>
<polygon fill="black" stroke="black" points="95.0432,-133.901 91.0056,-143.697 100.27,-138.557 95.0432,-133.901"/>
<g id="a_edge18&#45;headlabel"><a xlink:href="dir_000009_000004.html" target="_top" xlink:title="4">
<text text-anchor="middle" x="95.3138" y="-126.829" font-family="Helvetica,sans-Serif" font-size="10.00">4</text>
</a>
</g>
</g>
<!-- dir_2a6d67d55e8c89b2b7b5d042685b1c29&#45;&gt;dir_1563a38af0d3a5e4a6330d6d45e9792a -->
<g id="edge19" class="edge"><title>dir_2a6d67d55e8c89b2b7b5d042685b1c29&#45;&gt;dir_1563a38af0d3a5e4a6330d6d45e9792a</title>
<path fill="none" stroke="black" d="M138.105,-71.7212C144.297,-66.1458 152.146,-60.3016 160,-56 185.513,-42.0259 217.236,-32.0455 241.663,-25.9987"/>
<polygon fill="black" stroke="black" points="242.715,-29.3469 251.646,-23.6479 241.11,-22.5333 242.715,-29.3469"/>
<g id="a_edge19&#45;headlabel"><a xlink:href="dir_000009_000051.html" target="_top" xlink:title="15">
<text text-anchor="middle" x="239.867" y="-30.4345" font-family="Helvetica,sans-Serif" font-size="10.00">15</text>
</a>
</g>
</g>
<!-- dir_2a6d67d55e8c89b2b7b5d042685b1c29&#45;&gt;dir_03f4a28f75b8e23e1d457d2da09125b3 -->
<g id="edge20" class="edge"><title>dir_2a6d67d55e8c89b2b7b5d042685b1c29&#45;&gt;dir_03f4a28f75b8e23e1d457d2da09125b3</title>
<path fill="none" stroke="black" d="M147.312,-108.247C155.996,-115.233 166.802,-122.388 178,-126 246.947,-148.239 271.756,-147.293 341,-126 349.482,-123.392 357.825,-118.913 365.292,-113.982"/>
<polygon fill="black" stroke="black" points="367.485,-116.717 373.61,-108.072 363.431,-111.011 367.485,-116.717"/>
<g id="a_edge20&#45;headlabel"><a xlink:href="dir_000009_000016.html" target="_top" xlink:title="3">
<text text-anchor="middle" x="366.199" y="-118.614" font-family="Helvetica,sans-Serif" font-size="10.00">3</text>
</a>
</g>
</g>
<!-- dir_9991c64706c58e8dfb7dc640bbfe3109&#45;&gt;dir_1563a38af0d3a5e4a6330d6d45e9792a -->
<g id="edge32" class="edge"><title>dir_9991c64706c58e8dfb7dc640bbfe3109&#45;&gt;dir_1563a38af0d3a5e4a6330d6d45e9792a</title>
<path fill="none" stroke="black" d="M264.153,-149.575C281.369,-140.939 301.954,-127.253 312,-108 322.691,-87.5104 320.231,-77.5956 312,-56 310.448,-51.9283 308.219,-48.02 305.642,-44.3698"/>
<polygon fill="black" stroke="black" points="308.169,-41.9281 299.151,-36.3654 302.731,-46.3371 308.169,-41.9281"/>
<g id="a_edge32&#45;headlabel"><a xlink:href="dir_000011_000051.html" target="_top" xlink:title="2">
<text text-anchor="middle" x="312.638" y="-40.4318" font-family="Helvetica,sans-Serif" font-size="10.00">2</text>
</a>
</g>
</g>
<!-- dir_3c623fb49c2c95ca25f6fe90d3efbb5b&#45;&gt;dir_310b47614135aad694cafb7265578956 -->
<g id="edge34" class="edge"><title>dir_3c623fb49c2c95ca25f6fe90d3efbb5b&#45;&gt;dir_310b47614135aad694cafb7265578956</title>
<path fill="none" stroke="black" d="M200.632,-108.104C196.575,-116.298 190.796,-126.282 184.915,-135.359"/>
<polygon fill="black" stroke="black" points="181.983,-133.448 179.298,-143.697 187.788,-137.359 181.983,-133.448"/>
<g id="a_edge34&#45;headlabel"><a xlink:href="dir_000012_000008.html" target="_top" xlink:title="2">
<text text-anchor="middle" x="181.637" y="-126.38" font-family="Helvetica,sans-Serif" font-size="10.00">2</text>
</a>
</g>
</g>
<!-- dir_3c623fb49c2c95ca25f6fe90d3efbb5b&#45;&gt;dir_1563a38af0d3a5e4a6330d6d45e9792a -->
<g id="edge35" class="edge"><title>dir_3c623fb49c2c95ca25f6fe90d3efbb5b&#45;&gt;dir_1563a38af0d3a5e4a6330d6d45e9792a</title>
<path fill="none" stroke="black" d="M223.292,-71.6966C232.433,-63.0503 243.64,-52.4486 253.6,-43.027"/>
<polygon fill="black" stroke="black" points="256.059,-45.519 260.918,-36.1043 251.248,-40.4337 256.059,-45.519"/>
<g id="a_edge35&#45;headlabel"><a xlink:href="dir_000012_000051.html" target="_top" xlink:title="9">
<text text-anchor="middle" x="255.399" y="-47.5518" font-family="Helvetica,sans-Serif" font-size="10.00">9</text>
</a>
</g>
</g>
<!-- dir_3c623fb49c2c95ca25f6fe90d3efbb5b&#45;&gt;dir_03f4a28f75b8e23e1d457d2da09125b3 -->
<g id="edge36" class="edge"><title>dir_3c623fb49c2c95ca25f6fe90d3efbb5b&#45;&gt;dir_03f4a28f75b8e23e1d457d2da09125b3</title>
<path fill="none" stroke="black" d="M232.316,-90C272.965,-90 313.613,-90 354.261,-90"/>
<polygon fill="black" stroke="black" points="354.316,-93.5001 364.316,-90 354.316,-86.5001 354.316,-93.5001"/>
<g id="a_edge36&#45;headlabel"><a xlink:href="dir_000012_000016.html" target="_top" xlink:title="1">
<text text-anchor="middle" x="350.721" y="-93.8393" font-family="Helvetica,sans-Serif" font-size="10.00">1</text>
</a>
</g>
</g>
<!-- dir_82e584bccfefb078d177be117ba8eb49&#45;&gt;dir_6e399610acf21149161a2424bf394843 -->
<g id="edge9" class="edge"><title>dir_82e584bccfefb078d177be117ba8eb49&#45;&gt;dir_6e399610acf21149161a2424bf394843</title>
<path fill="none" stroke="black" d="M49.8984,-108.019C45.0218,-126.147 36.4786,-155.541 44,-180 46.9772,-189.682 52.3915,-199.182 57.7273,-207.404"/>
<polygon fill="black" stroke="black" points="54.8763,-209.437 63.3673,-215.774 60.6812,-205.525 54.8763,-209.437"/>
<g id="a_edge9&#45;headlabel"><a xlink:href="dir_000013_000002.html" target="_top" xlink:title="2">
<text text-anchor="middle" x="50.513" y="-205.543" font-family="Helvetica,sans-Serif" font-size="10.00">2</text>
</a>
</g>
</g>
<!-- dir_82e584bccfefb078d177be117ba8eb49&#45;&gt;dir_fc6e43284f481c1dffff29eff431ce17 -->
<g id="edge8" class="edge"><title>dir_82e584bccfefb078d177be117ba8eb49&#45;&gt;dir_fc6e43284f481c1dffff29eff431ce17</title>
<path fill="none" stroke="black" d="M61.782,-108.104C64.7838,-115.791 67.6665,-125.054 69.7941,-133.665"/>
<polygon fill="black" stroke="black" points="66.4299,-134.667 71.9719,-143.697 73.2706,-133.182 66.4299,-134.667"/>
<g id="a_edge8&#45;headlabel"><a xlink:href="dir_000013_000004.html" target="_top" xlink:title="2">
<text text-anchor="middle" x="62.8927" y="-129.256" font-family="Helvetica,sans-Serif" font-size="10.00">2</text>
</a>
</g>
</g>
<!-- dir_82e584bccfefb078d177be117ba8eb49&#45;&gt;dir_1563a38af0d3a5e4a6330d6d45e9792a -->
<g id="edge10" class="edge"><title>dir_82e584bccfefb078d177be117ba8eb49&#45;&gt;dir_1563a38af0d3a5e4a6330d6d45e9792a</title>
<path fill="none" stroke="black" d="M57.5913,-71.7616C62.9903,-65.9154 70.2746,-59.887 78,-56 130.416,-29.6269 199.582,-21.9999 241.752,-19.8277"/>
<polygon fill="black" stroke="black" points="242.028,-23.319 251.865,-19.3848 241.722,-16.3257 242.028,-23.319"/>
<g id="a_edge10&#45;headlabel"><a xlink:href="dir_000013_000051.html" target="_top" xlink:title="9">
<text text-anchor="middle" x="238.561" y="-23.8128" font-family="Helvetica,sans-Serif" font-size="10.00">9</text>
</a>
</g>
</g>
<!-- dir_3a49252c1fe7a8dfc91ea73a9211923c&#45;&gt;dir_03f4a28f75b8e23e1d457d2da09125b3 -->
<g id="edge1" class="edge"><title>dir_3a49252c1fe7a8dfc91ea73a9211923c&#45;&gt;dir_03f4a28f75b8e23e1d457d2da09125b3</title>
<path fill="none" stroke="black" d="M364.64,-143.697C369.127,-135.644 374.559,-125.894 379.524,-116.982"/>
<polygon fill="black" stroke="black" points="382.661,-118.544 384.47,-108.104 376.546,-115.137 382.661,-118.544"/>
<g id="a_edge1&#45;headlabel"><a xlink:href="dir_000015_000016.html" target="_top" xlink:title="1">
<text text-anchor="middle" x="383.392" y="-120.565" font-family="Helvetica,sans-Serif" font-size="10.00">1</text>
</a>
</g>
</g>
<!-- dir_59b1e980a670de987a696efba6dbbdbc&#45;&gt;dir_aebb8dcc11953d78e620bbef0b9e2183 -->
<g id="edge22" class="edge"><title>dir_59b1e980a670de987a696efba6dbbdbc&#45;&gt;dir_aebb8dcc11953d78e620bbef0b9e2183</title>
<path fill="none" stroke="black" d="M517.794,-175.263C513.233,-177 508.523,-178.651 504,-180 423.212,-204.101 325.405,-220.286 273.164,-227.928"/>
<polygon fill="black" stroke="black" points="272.435,-224.496 263.036,-229.385 273.432,-231.425 272.435,-224.496"/>
<g id="a_edge22&#45;headlabel"><a xlink:href="dir_000017_000001.html" target="_top" xlink:title="4">
<text text-anchor="middle" x="275.589" y="-218.674" font-family="Helvetica,sans-Serif" font-size="10.00">4</text>
</a>
</g>
</g>
<!-- dir_59b1e980a670de987a696efba6dbbdbc&#45;&gt;dir_1563a38af0d3a5e4a6330d6d45e9792a -->
<g id="edge21" class="edge"><title>dir_59b1e980a670de987a696efba6dbbdbc&#45;&gt;dir_1563a38af0d3a5e4a6330d6d45e9792a</title>
<path fill="none" stroke="black" d="M544.267,-143.792C540.91,-120.098 531.248,-77.8832 504,-56 475.728,-33.2946 372.701,-24.1381 316.385,-20.7663"/>
<polygon fill="black" stroke="black" points="316.293,-17.2556 306.111,-20.1844 315.897,-24.2444 316.293,-17.2556"/>
<g id="a_edge21&#45;headlabel"><a xlink:href="dir_000017_000051.html" target="_top" xlink:title="19">
<text text-anchor="middle" x="320.042" y="-12.1241" font-family="Helvetica,sans-Serif" font-size="10.00">19</text>
</a>
</g>
</g>
<!-- dir_59b1e980a670de987a696efba6dbbdbc&#45;&gt;dir_03f4a28f75b8e23e1d457d2da09125b3 -->
<g id="edge23" class="edge"><title>dir_59b1e980a670de987a696efba6dbbdbc&#45;&gt;dir_03f4a28f75b8e23e1d457d2da09125b3</title>
<path fill="none" stroke="black" d="M517.766,-147.998C493.91,-137.011 459.493,-121.161 433.005,-108.963"/>
<polygon fill="black" stroke="black" points="434.187,-105.654 423.64,-104.65 431.259,-112.012 434.187,-105.654"/>
<g id="a_edge23&#45;headlabel"><a xlink:href="dir_000017_000016.html" target="_top" xlink:title="2">
<text text-anchor="middle" x="438.64" y="-102.078" font-family="Helvetica,sans-Serif" font-size="10.00">2</text>
</a>
</g>
</g>
<!-- dir_1563a38af0d3a5e4a6330d6d45e9792a&#45;&gt;dir_6e399610acf21149161a2424bf394843 -->
<g id="edge26" class="edge"><title>dir_1563a38af0d3a5e4a6330d6d45e9792a&#45;&gt;dir_6e399610acf21149161a2424bf394843</title>
<path fill="none" stroke="black" d="M306.107,-21.5888C345.777,-26.001 416.62,-36.4575 432,-56 467.898,-101.614 438.622,-146.812 391,-180 379.437,-188.058 190.212,-215.932 108.305,-227.696"/>
<polygon fill="black" stroke="black" points="107.58,-224.264 98.1774,-229.147 108.573,-231.193 107.58,-224.264"/>
<g id="a_edge26&#45;headlabel"><a xlink:href="dir_000051_000002.html" target="_top" xlink:title="3">
<text text-anchor="middle" x="110.736" y="-218.444" font-family="Helvetica,sans-Serif" font-size="10.00">3</text>
</a>
</g>
</g>
<!-- dir_1563a38af0d3a5e4a6330d6d45e9792a&#45;&gt;dir_fc6e43284f481c1dffff29eff431ce17 -->
<g id="edge24" class="edge"><title>dir_1563a38af0d3a5e4a6330d6d45e9792a&#45;&gt;dir_fc6e43284f481c1dffff29eff431ce17</title>
<path fill="none" stroke="black" d="M251.905,-18.5296C190.863,-18.1095 45.5218,-20.9023 15,-56 -0.165583,-73.4393 5.86285,-86.7718 15,-108 19.7891,-119.126 28.1898,-129.009 37.0503,-137.137"/>
<polygon fill="black" stroke="black" points="34.9973,-139.987 44.876,-143.816 39.5413,-134.662 34.9973,-139.987"/>
<g id="a_edge24&#45;headlabel"><a xlink:href="dir_000051_000004.html" target="_top" xlink:title="7">
<text text-anchor="middle" x="30.4199" y="-137.313" font-family="Helvetica,sans-Serif" font-size="10.00">7</text>
</a>
</g>
</g>
<!-- dir_1563a38af0d3a5e4a6330d6d45e9792a&#45;&gt;dir_2a6d67d55e8c89b2b7b5d042685b1c29 -->
<g id="edge27" class="edge"><title>dir_1563a38af0d3a5e4a6330d6d45e9792a&#45;&gt;dir_2a6d67d55e8c89b2b7b5d042685b1c29</title>
<path fill="none" stroke="black" d="M251.708,-27.3633C230.708,-33.5005 201.68,-43.0301 178,-56 172.969,-58.7557 167.939,-62.1445 163.081,-65.6901"/>
<polygon fill="black" stroke="black" points="160.966,-62.9014 155.095,-71.7212 165.185,-68.4873 160.966,-62.9014"/>
<g id="a_edge27&#45;headlabel"><a xlink:href="dir_000051_000009.html" target="_top" xlink:title="4">
<text text-anchor="middle" x="162.123" y="-55.9694" font-family="Helvetica,sans-Serif" font-size="10.00">4</text>
</a>
</g>
</g>
<!-- dir_1563a38af0d3a5e4a6330d6d45e9792a&#45;&gt;dir_82e584bccfefb078d177be117ba8eb49 -->
<g id="edge25" class="edge"><title>dir_1563a38af0d3a5e4a6330d6d45e9792a&#45;&gt;dir_82e584bccfefb078d177be117ba8eb49</title>
<path fill="none" stroke="black" d="M251.715,-19.9811C214.508,-22.3491 147.248,-30.2146 96,-56 91.1716,-58.4294 86.5156,-61.6952 82.1064,-65.2303"/>
<polygon fill="black" stroke="black" points="79.7876,-62.6079 74.4528,-71.7616 84.3315,-67.9327 79.7876,-62.6079"/>
<g id="a_edge25&#45;headlabel"><a xlink:href="dir_000051_000013.html" target="_top" xlink:title="1">
<text text-anchor="middle" x="80.6788" y="-55.6148" font-family="Helvetica,sans-Serif" font-size="10.00">1</text>
</a>
</g>
</g>
<!-- dir_1563a38af0d3a5e4a6330d6d45e9792a&#45;&gt;dir_03f4a28f75b8e23e1d457d2da09125b3 -->
<g id="edge28" class="edge"><title>dir_1563a38af0d3a5e4a6330d6d45e9792a&#45;&gt;dir_03f4a28f75b8e23e1d457d2da09125b3</title>
<path fill="none" stroke="black" d="M306.227,-28.2203C322.279,-35.2492 342.298,-45.483 359,-56 363.628,-58.9144 368.389,-62.1768 372.889,-65.4855"/>
<polygon fill="black" stroke="black" points="371.062,-68.4961 381.12,-71.826 375.334,-62.9507 371.062,-68.4961"/>
<g id="a_edge28&#45;headlabel"><a xlink:href="dir_000051_000016.html" target="_top" xlink:title="16">
<text text-anchor="middle" x="366.481" y="-66.0518" font-family="Helvetica,sans-Serif" font-size="10.00">16</text>
</a>
</g>
</g>
<!-- dir_03f4a28f75b8e23e1d457d2da09125b3&#45;&gt;dir_1563a38af0d3a5e4a6330d6d45e9792a -->
<g id="edge33" class="edge"><title>dir_03f4a28f75b8e23e1d457d2da09125b3&#45;&gt;dir_1563a38af0d3a5e4a6330d6d45e9792a</title>
<path fill="none" stroke="black" d="M364.487,-72.1653C356.884,-66.7461 348.757,-60.8844 341,-56 332.707,-50.778 323.596,-45.6257 314.935,-40.901"/>
<polygon fill="black" stroke="black" points="316.588,-37.816 306.125,-36.1471 313.264,-43.9762 316.588,-37.816"/>
<g id="a_edge33&#45;headlabel"><a xlink:href="dir_000016_000051.html" target="_top" xlink:title="6">
<text text-anchor="middle" x="321.1" y="-34.5243" font-family="Helvetica,sans-Serif" font-size="10.00">6</text>
</a>
</g>
</g>
</g>
</svg>
        <g id="navigator" transform="translate(0 0)" fill="#404254">
                <rect fill="#f2f5e9" fill-opacity="0.5" stroke="#606060" stroke-width=".5" x="0" y="0" width="60" height="60"/>
                <use id="zoomplus" xlink:href="#zoomPlus" x="17" y="9" onmousedown="handleZoom(evt,'in')"/>
                <use id="zoomminus" xlink:href="#zoomMin" x="42" y="9" onmousedown="handleZoom(evt,'out')"/>
                <use id="reset" xlink:href="#resetDef" x="30" y="36" onmousedown="handleReset()"/>
                <g id="arrowUp" xlink:href="#dirArrow" transform="translate(30 24)" onmousedown="handlePan(0,-1)">
                  <use xlink:href="#rim" fill="#404040">
                        <set attributeName="fill" to="#808080" begin="arrowUp.mouseover" end="arrowUp.mouseout"/>
                  </use>
                  <path fill="none" stroke="white" stroke-width="1.5" d="M0,-3.0v7 M-2.5,-0.5L0,-3.0L2.5,-0.5"/>
                </g>
                <g id="arrowRight" xlink:href="#dirArrow" transform="rotate(90) translate(36 -43)" onmousedown="handlePan(1,0)">
                  <use xlink:href="#rim" fill="#404040">
                        <set attributeName="fill" to="#808080" begin="arrowRight.mouseover" end="arrowRight.mouseout"/>
                  </use>
                  <path fill="none" stroke="white" stroke-width="1.5" d="M0,-3.0v7 M-2.5,-0.5L0,-3.0L2.5,-0.5"/>
                </g>
                <g id="arrowDown" xlink:href="#dirArrow" transform="rotate(180) translate(-30 -48)" onmousedown="handlePan(0,1)">
                  <use xlink:href="#rim" fill="#404040">
                        <set attributeName="fill" to="#808080" begin="arrowDown.mouseover" end="arrowDown.mouseout"/>
                  </use>
                  <path fill="none" stroke="white" stroke-width="1.5" d="M0,-3.0v7 M-2.5,-0.5L0,-3.0L2.5,-0.5"/>
                </g>
                <g id="arrowLeft" xlink:href="#dirArrow" transform="rotate(270) translate(-36 17)" onmousedown="handlePan(-1,0)">
                  <use xlink:href="#rim" fill="#404040">
                        <set attributeName="fill" to="#808080" begin="arrowLeft.mouseover" end="arrowLeft.mouseout"/>
                  </use>
                  <path fill="none" stroke="white" stroke-width="1.5" d="M0,-3.0v7 M-2.5,-0.5L0,-3.0L2.5,-0.5"/>
                </g>
        </g>
        <svg viewBox="0 0 15 15" width="100%" height="30px" preserveAspectRatio="xMaxYMin meet">
         <g id="arrow_out" transform="scale(0.3 0.3)">
          <a xlink:href="dir_aebb8dcc11953d78e620bbef0b9e2183_dep_org.svg" target="_base">
           <rect id="button" ry="5" rx="5" y="6" x="6" height="38" width="38"
                fill="#f2f5e9" fill-opacity="0.5" stroke="#606060" stroke-width="1.0"/>
           <path id="arrow"
             d="M 11.500037,31.436501 C 11.940474,20.09759 22.043105,11.32322 32.158766,21.979434 L 37.068811,17.246167 C 37.068811,17.246167 37.088388,32 37.088388,32 L 22.160133,31.978069 C 22.160133,31.978069 26.997745,27.140456 26.997745,27.140456 C 18.528582,18.264221 13.291696,25.230495 11.500037,31.436501 z"
             style="fill:#404040;"/>
          </a>
         </g>
        </svg>
</svg>
