<?xml version="1.0" encoding="UTF-8" standalone="no"?>
<!DOCTYPE svg PUBLIC "-//W3C//DTD SVG 1.1//EN"
 "http://www.w3.org/Graphics/SVG/1.1/DTD/svg11.dtd">
<!-- Generated by graphviz version 2.38.0 (20140413.2041)
 -->
<!-- Title: src/modules/wiegand Pages: 1 -->
<!--zoomable 519 -->
<svg id="main" version="1.1" xmlns="http://www.w3.org/2000/svg" xmlns:xlink="http://www.w3.org/1999/xlink" xml:space="preserve" onload="init(evt)">
<style type="text/css"><![CDATA[
.edge:hover path { stroke: red; }
.edge:hover polygon { stroke: red; fill: red; }
]]></style>
<script type="text/javascript"><![CDATA[
var edges = document.getElementsByTagName('g');
if (edges && edges.length) {
  for (var i=0;i<edges.length;i++) {
    if (edges[i].id.substr(0,4)=='edge') {
      edges[i].setAttribute('class','edge');
    }
  }
}
]]></script>
        <defs>
                <circle id="rim" cx="0" cy="0" r="7"/>
                <circle id="rim2" cx="0" cy="0" r="3.5"/>
                <g id="zoomPlus">
                        <use xlink:href="#rim" fill="#404040">
                                <set attributeName="fill" to="#808080" begin="zoomplus.mouseover" end="zoomplus.mouseout"/>
                        </use>
                        <path d="M-4,0h8M0,-4v8" fill="none" stroke="white" stroke-width="1.5" pointer-events="none"/>
                </g>
                <g id="zoomMin">
                        <use xlink:href="#rim" fill="#404040">
                                <set attributeName="fill" to="#808080" begin="zoomminus.mouseover" end="zoomminus.mouseout"/>
                        </use>
                        <path d="M-4,0h8" fill="none" stroke="white" stroke-width="1.5" pointer-events="none"/>
                </g>
                <g id="dirArrow">
                        <path fill="none" stroke="white" stroke-width="1.5" d="M0,-3.0v7 M-2.5,-0.5L0,-3.0L2.5,-0.5"/>
                </g>
               <g id="resetDef">
                       <use xlink:href="#rim2" fill="#404040">
                               <set attributeName="fill" to="#808080" begin="reset.mouseover" end="reset.mouseout"/>
                       </use>
               </g>
        </defs>

<script type="text/javascript">
var viewWidth = 396;
var viewHeight = 519;
var sectionId = 'dynsection-0';
</script>
<script xlink:href="svgpan.js"/>
<svg id="graph" class="graph">
<g id="viewport">
<title>src/modules/wiegand</title>
<polygon fill="white" stroke="none" points="-4,4 -4,-515 392,-515 392,4 -4,4"/>
<g id="clust1" class="cluster"><title>clusterdir_ddb4d7e95cc2d6c8e1ade10a20d7247d</title>
<g id="a_clust1"><a xlink:href="dir_ddb4d7e95cc2d6c8e1ade10a20d7247d.html" target="_top" xlink:title="modules">
<polygon fill="#ddddee" stroke="black" points="103,-344 103,-503 267,-503 267,-344 103,-344"/>
<text text-anchor="middle" x="185" y="-491" font-family="Helvetica,sans-Serif" font-size="10.00">modules</text>
</a>
</g>
</g>
<g id="clust2" class="cluster"><title>clusterdir_14969a413ac9f82656810690dbbd0783</title>
<g id="a_clust2"><a xlink:href="dir_14969a413ac9f82656810690dbbd0783.html" target="_top">
<polygon fill="#eeeeff" stroke="black" points="111,-352 111,-476 259,-476 259,-352 111,-352"/>
</a>
</g>
</g>
<!-- dir_14969a413ac9f82656810690dbbd0783 -->
<g id="node1" class="node"><title>dir_14969a413ac9f82656810690dbbd0783</title>
<text text-anchor="middle" x="186" y="-447.5" font-family="Helvetica,sans-Serif" font-size="10.00">wiegand</text>
</g>
<!-- dir_30e273273487ebca1d7f47e159ef21c9 -->
<g id="node2" class="node"><title>dir_30e273273487ebca1d7f47e159ef21c9</title>
<g id="a_node2"><a xlink:href="dir_30e273273487ebca1d7f47e159ef21c9.html" target="_top" xlink:title="strategies">
<polygon fill="white" stroke="black" points="178.5,-396 119.5,-396 119.5,-360 178.5,-360 178.5,-396"/>
<text text-anchor="middle" x="149" y="-375.5" font-family="Helvetica,sans-Serif" font-size="10.00">strategies</text>
</a>
</g>
</g>
<!-- dir_14969a413ac9f82656810690dbbd0783&#45;&gt;dir_30e273273487ebca1d7f47e159ef21c9 -->
<g id="edge12" class="edge"><title>dir_14969a413ac9f82656810690dbbd0783&#45;&gt;dir_30e273273487ebca1d7f47e159ef21c9</title>
<path fill="none" stroke="black" d="M176.854,-431.697C172.597,-423.644 167.444,-413.894 162.734,-404.982"/>
<polygon fill="black" stroke="black" points="165.808,-403.31 158.041,-396.104 159.62,-406.581 165.808,-403.31"/>
<g id="a_edge12&#45;headlabel"><a xlink:href="dir_000043_000050.html" target="_top" xlink:title="4">
<text text-anchor="middle" x="169.998" y="-402.661" font-family="Helvetica,sans-Serif" font-size="10.00">4</text>
</a>
</g>
</g>
<!-- dir_0c9c59909f9eb645a96be0fb1a4c1e6d -->
<g id="node3" class="node"><title>dir_0c9c59909f9eb645a96be0fb1a4c1e6d</title>
<g id="a_node3"><a xlink:href="dir_0c9c59909f9eb645a96be0fb1a4c1e6d.html" target="_top" xlink:title="ws">
<polygon fill="white" stroke="black" points="251,-396 197,-396 197,-360 251,-360 251,-396"/>
<text text-anchor="middle" x="224" y="-375.5" font-family="Helvetica,sans-Serif" font-size="10.00">ws</text>
</a>
</g>
</g>
<!-- dir_14969a413ac9f82656810690dbbd0783&#45;&gt;dir_0c9c59909f9eb645a96be0fb1a4c1e6d -->
<g id="edge11" class="edge"><title>dir_14969a413ac9f82656810690dbbd0783&#45;&gt;dir_0c9c59909f9eb645a96be0fb1a4c1e6d</title>
<path fill="none" stroke="black" d="M195.393,-431.697C199.765,-423.644 205.057,-413.894 209.895,-404.982"/>
<polygon fill="black" stroke="black" points="213.02,-406.563 214.715,-396.104 206.868,-403.223 213.02,-406.563"/>
<g id="a_edge11&#45;headlabel"><a xlink:href="dir_000043_000044.html" target="_top" xlink:title="2">
<text text-anchor="middle" x="213.8" y="-408.576" font-family="Helvetica,sans-Serif" font-size="10.00">2</text>
</a>
</g>
</g>
<!-- dir_59b1e980a670de987a696efba6dbbdbc -->
<g id="node4" class="node"><title>dir_59b1e980a670de987a696efba6dbbdbc</title>
<g id="a_node4"><a xlink:href="dir_59b1e980a670de987a696efba6dbbdbc.html" target="_top" xlink:title="hardware">
<polygon fill="white" stroke="red" points="312,-252 256,-252 256,-216 312,-216 312,-252"/>
<text text-anchor="middle" x="284" y="-231.5" font-family="Helvetica,sans-Serif" font-size="10.00">hardware</text>
</a>
</g>
</g>
<!-- dir_14969a413ac9f82656810690dbbd0783&#45;&gt;dir_59b1e980a670de987a696efba6dbbdbc -->
<g id="edge13" class="edge"><title>dir_14969a413ac9f82656810690dbbd0783&#45;&gt;dir_59b1e980a670de987a696efba6dbbdbc</title>
<path fill="none" stroke="black" d="M213.338,-434.7C228.808,-425.435 247.5,-412.103 260,-396 290.406,-356.829 289.867,-337.552 288,-288 287.686,-279.665 287.095,-270.608 286.462,-262.379"/>
<polygon fill="black" stroke="black" points="289.93,-261.848 285.625,-252.167 282.953,-262.42 289.93,-261.848"/>
<g id="a_edge13&#45;headlabel"><a xlink:href="dir_000043_000017.html" target="_top" xlink:title="8">
<text text-anchor="middle" x="293.053" y="-262.699" font-family="Helvetica,sans-Serif" font-size="10.00">8</text>
</a>
</g>
</g>
<!-- dir_03f4a28f75b8e23e1d457d2da09125b3 -->
<g id="node8" class="node"><title>dir_03f4a28f75b8e23e1d457d2da09125b3</title>
<g id="a_node8"><a xlink:href="dir_03f4a28f75b8e23e1d457d2da09125b3.html" target="_top" xlink:title="exception">
<polygon fill="none" stroke="black" points="154.5,-36 95.5,-36 95.5,-0 154.5,-0 154.5,-36"/>
<text text-anchor="middle" x="125" y="-15.5" font-family="Helvetica,sans-Serif" font-size="10.00">exception</text>
</a>
</g>
</g>
<!-- dir_14969a413ac9f82656810690dbbd0783&#45;&gt;dir_03f4a28f75b8e23e1d457d2da09125b3 -->
<g id="edge14" class="edge"><title>dir_14969a413ac9f82656810690dbbd0783&#45;&gt;dir_03f4a28f75b8e23e1d457d2da09125b3</title>
<path fill="none" stroke="black" d="M158.954,-442.033C107.367,-426.935 0,-386.019 0,-307 0,-307 0,-307 0,-161 0,-107.789 50.0637,-65.0559 86.8246,-40.8499"/>
<polygon fill="black" stroke="black" points="88.8317,-43.7211 95.3767,-35.3896 85.0647,-37.8211 88.8317,-43.7211"/>
<g id="a_edge14&#45;headlabel"><a xlink:href="dir_000043_000016.html" target="_top" xlink:title="2">
<text text-anchor="middle" x="87.3299" y="-45.5485" font-family="Helvetica,sans-Serif" font-size="10.00">2</text>
</a>
</g>
</g>
<!-- dir_1563a38af0d3a5e4a6330d6d45e9792a -->
<g id="node5" class="node"><title>dir_1563a38af0d3a5e4a6330d6d45e9792a</title>
<g id="a_node5"><a xlink:href="dir_1563a38af0d3a5e4a6330d6d45e9792a.html" target="_top" xlink:title="tools">
<polygon fill="white" stroke="red" points="152,-180 98,-180 98,-144 152,-144 152,-180"/>
<text text-anchor="middle" x="125" y="-159.5" font-family="Helvetica,sans-Serif" font-size="10.00">tools</text>
</a>
</g>
</g>
<!-- dir_30e273273487ebca1d7f47e159ef21c9&#45;&gt;dir_1563a38af0d3a5e4a6330d6d45e9792a -->
<g id="edge6" class="edge"><title>dir_30e273273487ebca1d7f47e159ef21c9&#45;&gt;dir_1563a38af0d3a5e4a6330d6d45e9792a</title>
<path fill="none" stroke="black" d="M131.54,-359.947C110.049,-337.555 74.8282,-295.906 62,-252 57.5128,-236.642 55.2473,-230.505 62,-216 67.9607,-203.196 78.706,-192.38 89.6542,-183.925"/>
<polygon fill="black" stroke="black" points="91.918,-186.608 97.9901,-177.926 87.829,-180.927 91.918,-186.608"/>
<g id="a_edge6&#45;headlabel"><a xlink:href="dir_000050_000051.html" target="_top" xlink:title="5">
<text text-anchor="middle" x="90.6589" y="-188.512" font-family="Helvetica,sans-Serif" font-size="10.00">5</text>
</a>
</g>
</g>
<!-- dir_aebb8dcc11953d78e620bbef0b9e2183 -->
<g id="node7" class="node"><title>dir_aebb8dcc11953d78e620bbef0b9e2183</title>
<g id="a_node7"><a xlink:href="dir_aebb8dcc11953d78e620bbef0b9e2183.html" target="_top" xlink:title="core">
<polygon fill="white" stroke="red" points="231,-108 177,-108 177,-72 231,-72 231,-108"/>
<text text-anchor="middle" x="204" y="-87.5" font-family="Helvetica,sans-Serif" font-size="10.00">core</text>
</a>
</g>
</g>
<!-- dir_30e273273487ebca1d7f47e159ef21c9&#45;&gt;dir_aebb8dcc11953d78e620bbef0b9e2183 -->
<g id="edge7" class="edge"><title>dir_30e273273487ebca1d7f47e159ef21c9&#45;&gt;dir_aebb8dcc11953d78e620bbef0b9e2183</title>
<path fill="none" stroke="black" d="M152.276,-359.966C161.463,-312.192 187.534,-176.623 198.757,-118.266"/>
<polygon fill="black" stroke="black" points="202.22,-118.788 200.672,-108.306 195.346,-117.466 202.22,-118.788"/>
<g id="a_edge7&#45;headlabel"><a xlink:href="dir_000050_000001.html" target="_top" xlink:title="1">
<text text-anchor="middle" x="204.33" y="-120.354" font-family="Helvetica,sans-Serif" font-size="10.00">1</text>
</a>
</g>
</g>
<!-- dir_0c9c59909f9eb645a96be0fb1a4c1e6d&#45;&gt;dir_59b1e980a670de987a696efba6dbbdbc -->
<g id="edge1" class="edge"><title>dir_0c9c59909f9eb645a96be0fb1a4c1e6d&#45;&gt;dir_59b1e980a670de987a696efba6dbbdbc</title>
<path fill="none" stroke="black" d="M242.042,-359.983C251.227,-350.301 261.746,-337.446 268,-324 277.035,-304.577 280.984,-280.573 282.702,-262.391"/>
<polygon fill="black" stroke="black" points="286.21,-262.417 283.493,-252.177 279.231,-261.876 286.21,-262.417"/>
<g id="a_edge1&#45;headlabel"><a xlink:href="dir_000044_000017.html" target="_top" xlink:title="2">
<text text-anchor="middle" x="288.764" y="-263.72" font-family="Helvetica,sans-Serif" font-size="10.00">2</text>
</a>
</g>
</g>
<!-- dir_0c9c59909f9eb645a96be0fb1a4c1e6d&#45;&gt;dir_1563a38af0d3a5e4a6330d6d45e9792a -->
<g id="edge2" class="edge"><title>dir_0c9c59909f9eb645a96be0fb1a4c1e6d&#45;&gt;dir_1563a38af0d3a5e4a6330d6d45e9792a</title>
<path fill="none" stroke="black" d="M206.313,-359.655C197.144,-349.877 186.356,-337.035 179,-324 154.289,-280.212 138.537,-223.314 130.774,-190.206"/>
<polygon fill="black" stroke="black" points="134.161,-189.316 128.533,-180.34 127.335,-190.867 134.161,-189.316"/>
<g id="a_edge2&#45;headlabel"><a xlink:href="dir_000044_000051.html" target="_top" xlink:title="4">
<text text-anchor="middle" x="137.726" y="-189.693" font-family="Helvetica,sans-Serif" font-size="10.00">4</text>
</a>
</g>
</g>
<!-- dir_c4d966a03ca6ea09f7a88bf957c27254 -->
<g id="node6" class="node"><title>dir_c4d966a03ca6ea09f7a88bf957c27254</title>
<g id="a_node6"><a xlink:href="dir_c4d966a03ca6ea09f7a88bf957c27254.html" target="_top" xlink:title="websock&#45;api">
<polygon fill="white" stroke="red" points="259.5,-324 188.5,-324 188.5,-288 259.5,-288 259.5,-324"/>
<text text-anchor="middle" x="224" y="-303.5" font-family="Helvetica,sans-Serif" font-size="10.00">websock&#45;api</text>
</a>
</g>
</g>
<!-- dir_0c9c59909f9eb645a96be0fb1a4c1e6d&#45;&gt;dir_c4d966a03ca6ea09f7a88bf957c27254 -->
<g id="edge3" class="edge"><title>dir_0c9c59909f9eb645a96be0fb1a4c1e6d&#45;&gt;dir_c4d966a03ca6ea09f7a88bf957c27254</title>
<path fill="none" stroke="black" d="M224,-359.697C224,-351.983 224,-342.712 224,-334.112"/>
<polygon fill="black" stroke="black" points="227.5,-334.104 224,-324.104 220.5,-334.104 227.5,-334.104"/>
<g id="a_edge3&#45;headlabel"><a xlink:href="dir_000044_000039.html" target="_top" xlink:title="4">
<text text-anchor="middle" x="230.339" y="-335.199" font-family="Helvetica,sans-Serif" font-size="10.00">4</text>
</a>
</g>
</g>
<!-- dir_0c9c59909f9eb645a96be0fb1a4c1e6d&#45;&gt;dir_aebb8dcc11953d78e620bbef0b9e2183 -->
<g id="edge4" class="edge"><title>dir_0c9c59909f9eb645a96be0fb1a4c1e6d&#45;&gt;dir_aebb8dcc11953d78e620bbef0b9e2183</title>
<path fill="none" stroke="black" d="M249.757,-359.882C262.495,-350.447 277.374,-337.849 288,-324 318.552,-284.18 336.872,-263.615 321,-216 306.584,-172.753 267.451,-136.462 238.389,-114.313"/>
<polygon fill="black" stroke="black" points="240.228,-111.319 230.111,-108.174 236.059,-116.942 240.228,-111.319"/>
<g id="a_edge4&#45;headlabel"><a xlink:href="dir_000044_000001.html" target="_top" xlink:title="1">
<text text-anchor="middle" x="244.807" y="-108.679" font-family="Helvetica,sans-Serif" font-size="10.00">1</text>
</a>
</g>
</g>
<!-- dir_0c9c59909f9eb645a96be0fb1a4c1e6d&#45;&gt;dir_03f4a28f75b8e23e1d457d2da09125b3 -->
<g id="edge5" class="edge"><title>dir_0c9c59909f9eb645a96be0fb1a4c1e6d&#45;&gt;dir_03f4a28f75b8e23e1d457d2da09125b3</title>
<path fill="none" stroke="black" d="M251.081,-367.82C297.662,-350.117 388,-306.558 388,-235 388,-235 388,-235 388,-161 388,-60.8483 238.505,-30.997 164.935,-22.3702"/>
<polygon fill="black" stroke="black" points="164.98,-18.8543 154.658,-21.2456 164.218,-25.8127 164.98,-18.8543"/>
<g id="a_edge5&#45;headlabel"><a xlink:href="dir_000044_000016.html" target="_top" xlink:title="1">
<text text-anchor="middle" x="168.862" y="-13.9228" font-family="Helvetica,sans-Serif" font-size="10.00">1</text>
</a>
</g>
</g>
<!-- dir_59b1e980a670de987a696efba6dbbdbc&#45;&gt;dir_1563a38af0d3a5e4a6330d6d45e9792a -->
<g id="edge8" class="edge"><title>dir_59b1e980a670de987a696efba6dbbdbc&#45;&gt;dir_1563a38af0d3a5e4a6330d6d45e9792a</title>
<path fill="none" stroke="black" d="M255.94,-220.647C229.668,-209.08 190.262,-191.732 161.543,-179.088"/>
<polygon fill="black" stroke="black" points="162.811,-175.822 152.248,-174.996 159.99,-182.229 162.811,-175.822"/>
<g id="a_edge8&#45;headlabel"><a xlink:href="dir_000017_000051.html" target="_top" xlink:title="19">
<text text-anchor="middle" x="167.245" y="-172.172" font-family="Helvetica,sans-Serif" font-size="10.00">19</text>
</a>
</g>
</g>
<!-- dir_59b1e980a670de987a696efba6dbbdbc&#45;&gt;dir_aebb8dcc11953d78e620bbef0b9e2183 -->
<g id="edge9" class="edge"><title>dir_59b1e980a670de987a696efba6dbbdbc&#45;&gt;dir_aebb8dcc11953d78e620bbef0b9e2183</title>
<path fill="none" stroke="black" d="M269.766,-215.871C253.359,-191.35 227.562,-146.032 213.414,-117.259"/>
<polygon fill="black" stroke="black" points="216.554,-115.712 209.093,-108.189 210.235,-118.722 216.554,-115.712"/>
<g id="a_edge9&#45;headlabel"><a xlink:href="dir_000017_000001.html" target="_top" xlink:title="4">
<text text-anchor="middle" x="220.663" y="-115.236" font-family="Helvetica,sans-Serif" font-size="10.00">4</text>
</a>
</g>
</g>
<!-- dir_59b1e980a670de987a696efba6dbbdbc&#45;&gt;dir_03f4a28f75b8e23e1d457d2da09125b3 -->
<g id="edge10" class="edge"><title>dir_59b1e980a670de987a696efba6dbbdbc&#45;&gt;dir_03f4a28f75b8e23e1d457d2da09125b3</title>
<path fill="none" stroke="black" d="M284.235,-215.99C283.748,-183.67 278.073,-112.963 240,-72 219.874,-50.3468 189.161,-36.8179 164.536,-28.8527"/>
<polygon fill="black" stroke="black" points="165.334,-25.437 154.748,-25.8705 163.294,-32.1331 165.334,-25.437"/>
<g id="a_edge10&#45;headlabel"><a xlink:href="dir_000017_000016.html" target="_top" xlink:title="2">
<text text-anchor="middle" x="169.6" y="-21.2686" font-family="Helvetica,sans-Serif" font-size="10.00">2</text>
</a>
</g>
</g>
<!-- dir_1563a38af0d3a5e4a6330d6d45e9792a&#45;&gt;dir_aebb8dcc11953d78e620bbef0b9e2183 -->
<g id="edge15" class="edge"><title>dir_1563a38af0d3a5e4a6330d6d45e9792a&#45;&gt;dir_aebb8dcc11953d78e620bbef0b9e2183</title>
<path fill="none" stroke="black" d="M138.612,-143.697C147.565,-134.965 159.498,-124.24 170.766,-114.75"/>
<polygon fill="black" stroke="black" points="173.326,-117.175 178.802,-108.104 168.865,-111.781 173.326,-117.175"/>
<g id="a_edge15&#45;headlabel"><a xlink:href="dir_000051_000001.html" target="_top" xlink:title="16">
<text text-anchor="middle" x="172.366" y="-119.154" font-family="Helvetica,sans-Serif" font-size="10.00">16</text>
</a>
</g>
</g>
<!-- dir_1563a38af0d3a5e4a6330d6d45e9792a&#45;&gt;dir_03f4a28f75b8e23e1d457d2da09125b3 -->
<g id="edge16" class="edge"><title>dir_1563a38af0d3a5e4a6330d6d45e9792a&#45;&gt;dir_03f4a28f75b8e23e1d457d2da09125b3</title>
<path fill="none" stroke="black" d="M120.416,-143.871C117.857,-119.67 117.566,-75.2108 119.541,-46.3932"/>
<polygon fill="black" stroke="black" points="123.049,-46.45 120.409,-36.1893 116.074,-45.8566 123.049,-46.45"/>
<g id="a_edge16&#45;headlabel"><a xlink:href="dir_000051_000016.html" target="_top" xlink:title="16">
<text text-anchor="middle" x="125.573" y="-47.7723" font-family="Helvetica,sans-Serif" font-size="10.00">16</text>
</a>
</g>
</g>
<!-- dir_c4d966a03ca6ea09f7a88bf957c27254&#45;&gt;dir_59b1e980a670de987a696efba6dbbdbc -->
<g id="edge17" class="edge"><title>dir_c4d966a03ca6ea09f7a88bf957c27254&#45;&gt;dir_59b1e980a670de987a696efba6dbbdbc</title>
<path fill="none" stroke="black" d="M238.831,-287.697C246.025,-279.305 254.797,-269.07 262.69,-259.861"/>
<polygon fill="black" stroke="black" points="265.489,-261.975 269.339,-252.104 260.174,-257.419 265.489,-261.975"/>
<g id="a_edge17&#45;headlabel"><a xlink:href="dir_000039_000017.html" target="_top" xlink:title="1">
<text text-anchor="middle" x="265.305" y="-264.052" font-family="Helvetica,sans-Serif" font-size="10.00">1</text>
</a>
</g>
</g>
<!-- dir_c4d966a03ca6ea09f7a88bf957c27254&#45;&gt;dir_1563a38af0d3a5e4a6330d6d45e9792a -->
<g id="edge18" class="edge"><title>dir_c4d966a03ca6ea09f7a88bf957c27254&#45;&gt;dir_1563a38af0d3a5e4a6330d6d45e9792a</title>
<path fill="none" stroke="black" d="M212.058,-287.871C194.814,-263.137 162.817,-217.242 142.787,-188.512"/>
<polygon fill="black" stroke="black" points="145.574,-186.391 136.984,-180.189 139.832,-190.394 145.574,-186.391"/>
<g id="a_edge18&#45;headlabel"><a xlink:href="dir_000039_000051.html" target="_top" xlink:title="79">
<text text-anchor="middle" x="149.959" y="-185.216" font-family="Helvetica,sans-Serif" font-size="10.00">79</text>
</a>
</g>
</g>
<!-- dir_c4d966a03ca6ea09f7a88bf957c27254&#45;&gt;dir_aebb8dcc11953d78e620bbef0b9e2183 -->
<g id="edge19" class="edge"><title>dir_c4d966a03ca6ea09f7a88bf957c27254&#45;&gt;dir_aebb8dcc11953d78e620bbef0b9e2183</title>
<path fill="none" stroke="black" d="M222.397,-287.849C218.938,-250.832 210.746,-163.181 206.559,-118.386"/>
<polygon fill="black" stroke="black" points="210.026,-117.863 205.611,-108.232 203.056,-118.515 210.026,-117.863"/>
<g id="a_edge19&#45;headlabel"><a xlink:href="dir_000039_000001.html" target="_top" xlink:title="120">
<text text-anchor="middle" x="213.187" y="-118.678" font-family="Helvetica,sans-Serif" font-size="10.00">120</text>
</a>
</g>
</g>
<!-- dir_c4d966a03ca6ea09f7a88bf957c27254&#45;&gt;dir_03f4a28f75b8e23e1d457d2da09125b3 -->
<g id="edge20" class="edge"><title>dir_c4d966a03ca6ea09f7a88bf957c27254&#45;&gt;dir_03f4a28f75b8e23e1d457d2da09125b3</title>
<path fill="none" stroke="black" d="M193.371,-287.917C160.094,-267.331 109.006,-229.277 89,-180 70.4665,-134.35 93.0949,-77.3544 109.936,-44.8727"/>
<polygon fill="black" stroke="black" points="113.051,-46.4692 114.709,-36.0047 106.887,-43.1516 113.051,-46.4692"/>
<g id="a_edge20&#45;headlabel"><a xlink:href="dir_000039_000016.html" target="_top" xlink:title="19">
<text text-anchor="middle" x="113.848" y="-48.48" font-family="Helvetica,sans-Serif" font-size="10.00">19</text>
</a>
</g>
</g>
<!-- dir_aebb8dcc11953d78e620bbef0b9e2183&#45;&gt;dir_59b1e980a670de987a696efba6dbbdbc -->
<g id="edge21" class="edge"><title>dir_aebb8dcc11953d78e620bbef0b9e2183&#45;&gt;dir_59b1e980a670de987a696efba6dbbdbc</title>
<path fill="none" stroke="black" d="M218.275,-108.189C234.697,-132.745 260.492,-178.066 274.621,-206.812"/>
<polygon fill="black" stroke="black" points="271.475,-208.348 278.935,-215.871 277.795,-205.338 271.475,-208.348"/>
<g id="a_edge21&#45;headlabel"><a xlink:href="dir_000001_000017.html" target="_top" xlink:title="3">
<text text-anchor="middle" x="267.366" y="-203.823" font-family="Helvetica,sans-Serif" font-size="10.00">3</text>
</a>
</g>
</g>
<!-- dir_aebb8dcc11953d78e620bbef0b9e2183&#45;&gt;dir_1563a38af0d3a5e4a6330d6d45e9792a -->
<g id="edge22" class="edge"><title>dir_aebb8dcc11953d78e620bbef0b9e2183&#45;&gt;dir_1563a38af0d3a5e4a6330d6d45e9792a</title>
<path fill="none" stroke="black" d="M190.592,-108.104C181.598,-116.889 169.538,-127.732 158.163,-137.309"/>
<polygon fill="black" stroke="black" points="155.917,-134.625 150.444,-143.697 160.38,-140.018 155.917,-134.625"/>
<g id="a_edge22&#45;headlabel"><a xlink:href="dir_000001_000051.html" target="_top" xlink:title="187">
<text text-anchor="middle" x="156.876" y="-127.646" font-family="Helvetica,sans-Serif" font-size="10.00">187</text>
</a>
</g>
</g>
<!-- dir_aebb8dcc11953d78e620bbef0b9e2183&#45;&gt;dir_03f4a28f75b8e23e1d457d2da09125b3 -->
<g id="edge23" class="edge"><title>dir_aebb8dcc11953d78e620bbef0b9e2183&#45;&gt;dir_03f4a28f75b8e23e1d457d2da09125b3</title>
<path fill="none" stroke="black" d="M184.472,-71.6966C174.618,-62.9655 162.514,-52.2405 151.804,-42.7503"/>
<polygon fill="black" stroke="black" points="154.109,-40.1166 144.303,-36.1043 149.467,-45.3558 154.109,-40.1166"/>
<g id="a_edge23&#45;headlabel"><a xlink:href="dir_000001_000016.html" target="_top" xlink:title="13">
<text text-anchor="middle" x="158.683" y="-37.8755" font-family="Helvetica,sans-Serif" font-size="10.00">13</text>
</a>
</g>
</g>
<!-- dir_03f4a28f75b8e23e1d457d2da09125b3&#45;&gt;dir_1563a38af0d3a5e4a6330d6d45e9792a -->
<g id="edge24" class="edge"><title>dir_03f4a28f75b8e23e1d457d2da09125b3&#45;&gt;dir_1563a38af0d3a5e4a6330d6d45e9792a</title>
<path fill="none" stroke="black" d="M129.591,-36.1893C132.145,-60.4244 132.433,-104.888 130.454,-133.679"/>
<polygon fill="black" stroke="black" points="126.947,-133.61 129.584,-143.871 133.922,-134.205 126.947,-133.61"/>
<g id="a_edge24&#45;headlabel"><a xlink:href="dir_000016_000051.html" target="_top" xlink:title="6">
<text text-anchor="middle" x="124.424" y="-127.287" font-family="Helvetica,sans-Serif" font-size="10.00">6</text>
</a>
</g>
</g>
</g>
</svg>
        <g id="navigator" transform="translate(0 0)" fill="#404254">
                <rect fill="#f2f5e9" fill-opacity="0.5" stroke="#606060" stroke-width=".5" x="0" y="0" width="60" height="60"/>
                <use id="zoomplus" xlink:href="#zoomPlus" x="17" y="9" onmousedown="handleZoom(evt,'in')"/>
                <use id="zoomminus" xlink:href="#zoomMin" x="42" y="9" onmousedown="handleZoom(evt,'out')"/>
                <use id="reset" xlink:href="#resetDef" x="30" y="36" onmousedown="handleReset()"/>
                <g id="arrowUp" xlink:href="#dirArrow" transform="translate(30 24)" onmousedown="handlePan(0,-1)">
                  <use xlink:href="#rim" fill="#404040">
                        <set attributeName="fill" to="#808080" begin="arrowUp.mouseover" end="arrowUp.mouseout"/>
                  </use>
                  <path fill="none" stroke="white" stroke-width="1.5" d="M0,-3.0v7 M-2.5,-0.5L0,-3.0L2.5,-0.5"/>
                </g>
                <g id="arrowRight" xlink:href="#dirArrow" transform="rotate(90) translate(36 -43)" onmousedown="handlePan(1,0)">
                  <use xlink:href="#rim" fill="#404040">
                        <set attributeName="fill" to="#808080" begin="arrowRight.mouseover" end="arrowRight.mouseout"/>
                  </use>
                  <path fill="none" stroke="white" stroke-width="1.5" d="M0,-3.0v7 M-2.5,-0.5L0,-3.0L2.5,-0.5"/>
                </g>
                <g id="arrowDown" xlink:href="#dirArrow" transform="rotate(180) translate(-30 -48)" onmousedown="handlePan(0,1)">
                  <use xlink:href="#rim" fill="#404040">
                        <set attributeName="fill" to="#808080" begin="arrowDown.mouseover" end="arrowDown.mouseout"/>
                  </use>
                  <path fill="none" stroke="white" stroke-width="1.5" d="M0,-3.0v7 M-2.5,-0.5L0,-3.0L2.5,-0.5"/>
                </g>
                <g id="arrowLeft" xlink:href="#dirArrow" transform="rotate(270) translate(-36 17)" onmousedown="handlePan(-1,0)">
                  <use xlink:href="#rim" fill="#404040">
                        <set attributeName="fill" to="#808080" begin="arrowLeft.mouseover" end="arrowLeft.mouseout"/>
                  </use>
                  <path fill="none" stroke="white" stroke-width="1.5" d="M0,-3.0v7 M-2.5,-0.5L0,-3.0L2.5,-0.5"/>
                </g>
        </g>
        <svg viewBox="0 0 15 15" width="100%" height="30px" preserveAspectRatio="xMaxYMin meet">
         <g id="arrow_out" transform="scale(0.3 0.3)">
          <a xlink:href="dir_14969a413ac9f82656810690dbbd0783_dep_org.svg" target="_base">
           <rect id="button" ry="5" rx="5" y="6" x="6" height="38" width="38"
                fill="#f2f5e9" fill-opacity="0.5" stroke="#606060" stroke-width="1.0"/>
           <path id="arrow"
             d="M 11.500037,31.436501 C 11.940474,20.09759 22.043105,11.32322 32.158766,21.979434 L 37.068811,17.246167 C 37.068811,17.246167 37.088388,32 37.088388,32 L 22.160133,31.978069 C 22.160133,31.978069 26.997745,27.140456 26.997745,27.140456 C 18.528582,18.264221 13.291696,25.230495 11.500037,31.436501 z"
             style="fill:#404040;"/>
          </a>
         </g>
        </svg>
</svg>
