<?xml version="1.0" encoding="UTF-8" standalone="no"?>
<!DOCTYPE svg PUBLIC "-//W3C//DTD SVG 1.1//EN"
 "http://www.w3.org/Graphics/SVG/1.1/DTD/svg11.dtd">
<!-- Generated by graphviz version 2.38.0 (20140413.2041)
 -->
<!-- Title: src/core/credentials Pages: 1 -->
<svg width="254pt" height="251pt"
 viewBox="0.00 0.00 254.00 251.09" xmlns="http://www.w3.org/2000/svg" xmlns:xlink="http://www.w3.org/1999/xlink">
<g id="graph0" class="graph" transform="scale(1 1) rotate(0) translate(4 247.085)">
<title>src/core/credentials</title>
<polygon fill="white" stroke="none" points="-4,4 -4,-247.085 250,-247.085 250,4 -4,4"/>
<g id="clust1" class="cluster"><title>clusterdir_aebb8dcc11953d78e620bbef0b9e2183</title>
<g id="a_clust1"><a xlink:href="dir_aebb8dcc11953d78e620bbef0b9e2183.html" target="_top" xlink:title="core">
<polygon fill="#ddddee" stroke="black" points="8,-128 8,-215 184,-215 184,-128 8,-128"/>
<text text-anchor="middle" x="96" y="-203" font-family="Helvetica,sans-Serif" font-size="10.00">core</text>
</a>
</g>
</g>
<g id="clust2" class="cluster"><title>clusterdir_2a6d67d55e8c89b2b7b5d042685b1c29</title>
<g id="a_clust2"><a xlink:href="dir_2a6d67d55e8c89b2b7b5d042685b1c29.html" target="_top">
<polygon fill="#eeeeff" stroke="black" points="16,-136 16,-188 176,-188 176,-136 16,-136"/>
</a>
</g>
</g>
<!-- dir_2a6d67d55e8c89b2b7b5d042685b1c29 -->
<g id="node1" class="node"><title>dir_2a6d67d55e8c89b2b7b5d042685b1c29</title>
<text text-anchor="middle" x="56" y="-159.5" font-family="Helvetica,sans-Serif" font-size="10.00">credentials</text>
</g>
<!-- dir_fc6e43284f481c1dffff29eff431ce17 -->
<g id="node3" class="node"><title>dir_fc6e43284f481c1dffff29eff431ce17</title>
<g id="a_node3"><a xlink:href="dir_fc6e43284f481c1dffff29eff431ce17.html" target="_top" xlink:title="auth">
<polygon fill="white" stroke="red" points="246,-180 192,-180 192,-144 246,-144 246,-180"/>
<text text-anchor="middle" x="219" y="-159.5" font-family="Helvetica,sans-Serif" font-size="10.00">auth</text>
</a>
</g>
</g>
<!-- dir_2a6d67d55e8c89b2b7b5d042685b1c29&#45;&gt;dir_fc6e43284f481c1dffff29eff431ce17 -->
<g id="edge5" class="edge"><title>dir_2a6d67d55e8c89b2b7b5d042685b1c29&#45;&gt;dir_fc6e43284f481c1dffff29eff431ce17</title>
<path fill="none" stroke="black" d="M62.9311,-180.101C70.5877,-197.245 84.7224,-221.96 106,-233 131.643,-246.305 145.485,-246.549 171,-233 188.303,-223.812 200.505,-205.292 208.276,-189.471"/>
<polygon fill="black" stroke="black" points="211.594,-190.629 212.548,-180.077 205.222,-187.731 211.594,-190.629"/>
<g id="a_edge5&#45;headlabel"><a xlink:href="dir_000009_000004.html" target="_top" xlink:title="4">
<text text-anchor="middle" x="212.691" y="-192.576" font-family="Helvetica,sans-Serif" font-size="10.00">4</text>
</a>
</g>
</g>
<!-- dir_1563a38af0d3a5e4a6330d6d45e9792a -->
<g id="node4" class="node"><title>dir_1563a38af0d3a5e4a6330d6d45e9792a</title>
<g id="a_node4"><a xlink:href="dir_1563a38af0d3a5e4a6330d6d45e9792a.html" target="_top" xlink:title="tools">
<polygon fill="white" stroke="red" points="171,-108 117,-108 117,-72 171,-72 171,-108"/>
<text text-anchor="middle" x="144" y="-87.5" font-family="Helvetica,sans-Serif" font-size="10.00">tools</text>
</a>
</g>
</g>
<!-- dir_2a6d67d55e8c89b2b7b5d042685b1c29&#45;&gt;dir_1563a38af0d3a5e4a6330d6d45e9792a -->
<g id="edge6" class="edge"><title>dir_2a6d67d55e8c89b2b7b5d042685b1c29&#45;&gt;dir_1563a38af0d3a5e4a6330d6d45e9792a</title>
<path fill="none" stroke="black" d="M77.2448,-143.829C83.5885,-138.721 90.566,-133.122 97,-128 102.459,-123.655 108.29,-119.042 113.921,-114.601"/>
<polygon fill="black" stroke="black" points="116.272,-117.205 121.963,-108.269 111.941,-111.705 116.272,-117.205"/>
<g id="a_edge6&#45;headlabel"><a xlink:href="dir_000009_000051.html" target="_top" xlink:title="15">
<text text-anchor="middle" x="115.204" y="-119.159" font-family="Helvetica,sans-Serif" font-size="10.00">15</text>
</a>
</g>
</g>
<!-- dir_03f4a28f75b8e23e1d457d2da09125b3 -->
<g id="node5" class="node"><title>dir_03f4a28f75b8e23e1d457d2da09125b3</title>
<g id="a_node5"><a xlink:href="dir_03f4a28f75b8e23e1d457d2da09125b3.html" target="_top" xlink:title="exception">
<polygon fill="none" stroke="black" points="173.5,-36 114.5,-36 114.5,-0 173.5,-0 173.5,-36"/>
<text text-anchor="middle" x="144" y="-15.5" font-family="Helvetica,sans-Serif" font-size="10.00">exception</text>
</a>
</g>
</g>
<!-- dir_2a6d67d55e8c89b2b7b5d042685b1c29&#45;&gt;dir_03f4a28f75b8e23e1d457d2da09125b3 -->
<g id="edge7" class="edge"><title>dir_2a6d67d55e8c89b2b7b5d042685b1c29&#45;&gt;dir_03f4a28f75b8e23e1d457d2da09125b3</title>
<path fill="none" stroke="black" d="M65.6286,-143.732C75.8186,-125.647 92.5339,-96.5205 108,-72 113.637,-63.0622 120.048,-53.4593 125.882,-44.9157"/>
<polygon fill="black" stroke="black" points="128.91,-46.69 131.697,-36.4681 123.144,-42.7212 128.91,-46.69"/>
<g id="a_edge7&#45;headlabel"><a xlink:href="dir_000009_000016.html" target="_top" xlink:title="3">
<text text-anchor="middle" x="129.211" y="-48.7607" font-family="Helvetica,sans-Serif" font-size="10.00">3</text>
</a>
</g>
</g>
<!-- dir_5c2f46608fc398e4b165d248383ba28e -->
<g id="node2" class="node"><title>dir_5c2f46608fc398e4b165d248383ba28e</title>
<g id="a_node2"><a xlink:href="dir_5c2f46608fc398e4b165d248383ba28e.html" target="_top" xlink:title="serializers">
<polygon fill="white" stroke="black" points="167.5,-180 106.5,-180 106.5,-144 167.5,-144 167.5,-180"/>
<text text-anchor="middle" x="137" y="-159.5" font-family="Helvetica,sans-Serif" font-size="10.00">serializers</text>
</a>
</g>
</g>
<!-- dir_5c2f46608fc398e4b165d248383ba28e&#45;&gt;dir_fc6e43284f481c1dffff29eff431ce17 -->
<g id="edge11" class="edge"><title>dir_5c2f46608fc398e4b165d248383ba28e&#45;&gt;dir_fc6e43284f481c1dffff29eff431ce17</title>
<path fill="none" stroke="black" d="M167.75,-162C172.38,-162 177.009,-162 181.639,-162"/>
<polygon fill="black" stroke="black" points="181.773,-165.5 191.773,-162 181.773,-158.5 181.773,-165.5"/>
<g id="a_edge11&#45;headlabel"><a xlink:href="dir_000010_000004.html" target="_top" xlink:title="1">
<text text-anchor="middle" x="178.179" y="-165.839" font-family="Helvetica,sans-Serif" font-size="10.00">1</text>
</a>
</g>
</g>
<!-- dir_5c2f46608fc398e4b165d248383ba28e&#45;&gt;dir_1563a38af0d3a5e4a6330d6d45e9792a -->
<g id="edge12" class="edge"><title>dir_5c2f46608fc398e4b165d248383ba28e&#45;&gt;dir_1563a38af0d3a5e4a6330d6d45e9792a</title>
<path fill="none" stroke="black" d="M132.815,-143.697C132.79,-135.983 133.491,-126.712 134.693,-118.112"/>
<polygon fill="black" stroke="black" points="138.169,-118.549 136.395,-108.104 131.268,-117.376 138.169,-118.549"/>
<g id="a_edge12&#45;headlabel"><a xlink:href="dir_000010_000051.html" target="_top" xlink:title="9">
<text text-anchor="middle" x="140.366" y="-120.069" font-family="Helvetica,sans-Serif" font-size="10.00">9</text>
</a>
</g>
</g>
<!-- dir_fc6e43284f481c1dffff29eff431ce17&#45;&gt;dir_2a6d67d55e8c89b2b7b5d042685b1c29 -->
<g id="edge1" class="edge"><title>dir_fc6e43284f481c1dffff29eff431ce17&#45;&gt;dir_2a6d67d55e8c89b2b7b5d042685b1c29</title>
<path fill="none" stroke="black" d="M212.548,-180.077C205.35,-197.203 191.894,-221.905 171,-233 145.485,-246.549 131.643,-246.305 106,-233 88.3795,-223.857 75.6575,-205.337 67.4565,-189.504"/>
<polygon fill="black" stroke="black" points="70.4215,-187.594 62.9311,-180.101 64.114,-190.629 70.4215,-187.594"/>
<g id="a_edge1&#45;headlabel"><a xlink:href="dir_000004_000009.html" target="_top" xlink:title="9">
<text text-anchor="middle" x="74.5387" y="-187.101" font-family="Helvetica,sans-Serif" font-size="10.00">9</text>
</a>
</g>
</g>
<!-- dir_fc6e43284f481c1dffff29eff431ce17&#45;&gt;dir_5c2f46608fc398e4b165d248383ba28e -->
<g id="edge3" class="edge"><title>dir_fc6e43284f481c1dffff29eff431ce17&#45;&gt;dir_5c2f46608fc398e4b165d248383ba28e</title>
<path fill="none" stroke="black" d="M191.773,-162C187.144,-162 182.514,-162 177.885,-162"/>
<polygon fill="black" stroke="black" points="177.75,-158.5 167.75,-162 177.75,-165.5 177.75,-158.5"/>
<g id="a_edge3&#45;headlabel"><a xlink:href="dir_000004_000010.html" target="_top" xlink:title="1">
<text text-anchor="middle" x="181.345" y="-153.161" font-family="Helvetica,sans-Serif" font-size="10.00">1</text>
</a>
</g>
</g>
<!-- dir_fc6e43284f481c1dffff29eff431ce17&#45;&gt;dir_1563a38af0d3a5e4a6330d6d45e9792a -->
<g id="edge2" class="edge"><title>dir_fc6e43284f481c1dffff29eff431ce17&#45;&gt;dir_1563a38af0d3a5e4a6330d6d45e9792a</title>
<path fill="none" stroke="black" d="M194.545,-143.697C184.489,-135.135 173.079,-124.656 163.579,-115.304"/>
<polygon fill="black" stroke="black" points="165.96,-112.735 156.431,-108.104 160.992,-117.667 165.96,-112.735"/>
<g id="a_edge2&#45;headlabel"><a xlink:href="dir_000004_000051.html" target="_top" xlink:title="39">
<text text-anchor="middle" x="170.508" y="-110.786" font-family="Helvetica,sans-Serif" font-size="10.00">39</text>
</a>
</g>
</g>
<!-- dir_fc6e43284f481c1dffff29eff431ce17&#45;&gt;dir_03f4a28f75b8e23e1d457d2da09125b3 -->
<g id="edge4" class="edge"><title>dir_fc6e43284f481c1dffff29eff431ce17&#45;&gt;dir_03f4a28f75b8e23e1d457d2da09125b3</title>
<path fill="none" stroke="black" d="M212.564,-143.826C205.474,-125.568 193.3,-96.0676 180,-72 174.889,-62.751 168.614,-53.0679 162.742,-44.5465"/>
<polygon fill="black" stroke="black" points="165.453,-42.3169 156.835,-36.1537 159.729,-46.3458 165.453,-42.3169"/>
<g id="a_edge4&#45;headlabel"><a xlink:href="dir_000004_000016.html" target="_top" xlink:title="4">
<text text-anchor="middle" x="169.844" y="-41.1223" font-family="Helvetica,sans-Serif" font-size="10.00">4</text>
</a>
</g>
</g>
<!-- dir_1563a38af0d3a5e4a6330d6d45e9792a&#45;&gt;dir_5c2f46608fc398e4b165d248383ba28e -->
<g id="edge9" class="edge"><title>dir_1563a38af0d3a5e4a6330d6d45e9792a&#45;&gt;dir_5c2f46608fc398e4b165d248383ba28e</title>
<path fill="none" stroke="black" d="M148.185,-108.104C148.221,-115.791 147.531,-125.054 146.338,-133.665"/>
<polygon fill="black" stroke="black" points="142.858,-133.254 144.646,-143.697 149.76,-134.418 142.858,-133.254"/>
<g id="a_edge9&#45;headlabel"><a xlink:href="dir_000051_000010.html" target="_top" xlink:title="1">
<text text-anchor="middle" x="140.655" y="-126.737" font-family="Helvetica,sans-Serif" font-size="10.00">1</text>
</a>
</g>
</g>
<!-- dir_1563a38af0d3a5e4a6330d6d45e9792a&#45;&gt;dir_fc6e43284f481c1dffff29eff431ce17 -->
<g id="edge8" class="edge"><title>dir_1563a38af0d3a5e4a6330d6d45e9792a&#45;&gt;dir_fc6e43284f481c1dffff29eff431ce17</title>
<path fill="none" stroke="black" d="M168.221,-108.104C178.256,-116.636 189.67,-127.108 199.2,-136.478"/>
<polygon fill="black" stroke="black" points="196.844,-139.072 206.376,-143.697 201.808,-134.137 196.844,-139.072"/>
<g id="a_edge8&#45;headlabel"><a xlink:href="dir_000051_000004.html" target="_top" xlink:title="7">
<text text-anchor="middle" x="192.296" y="-136.025" font-family="Helvetica,sans-Serif" font-size="10.00">7</text>
</a>
</g>
</g>
<!-- dir_1563a38af0d3a5e4a6330d6d45e9792a&#45;&gt;dir_03f4a28f75b8e23e1d457d2da09125b3 -->
<g id="edge10" class="edge"><title>dir_1563a38af0d3a5e4a6330d6d45e9792a&#45;&gt;dir_03f4a28f75b8e23e1d457d2da09125b3</title>
<path fill="none" stroke="black" d="M138.084,-71.6966C137.289,-63.9827 137.062,-54.7125 137.405,-46.1124"/>
<polygon fill="black" stroke="black" points="140.898,-46.3243 138.105,-36.1043 133.915,-45.8356 140.898,-46.3243"/>
<g id="a_edge10&#45;headlabel"><a xlink:href="dir_000051_000016.html" target="_top" xlink:title="16">
<text text-anchor="middle" x="143.48" y="-47.6083" font-family="Helvetica,sans-Serif" font-size="10.00">16</text>
</a>
</g>
</g>
<!-- dir_03f4a28f75b8e23e1d457d2da09125b3&#45;&gt;dir_1563a38af0d3a5e4a6330d6d45e9792a -->
<g id="edge13" class="edge"><title>dir_03f4a28f75b8e23e1d457d2da09125b3&#45;&gt;dir_1563a38af0d3a5e4a6330d6d45e9792a</title>
<path fill="none" stroke="black" d="M149.895,-36.1043C150.701,-43.7913 150.937,-53.0537 150.604,-61.6651"/>
<polygon fill="black" stroke="black" points="147.109,-61.4805 149.916,-71.6966 154.092,-61.9597 147.109,-61.4805"/>
<g id="a_edge13&#45;headlabel"><a xlink:href="dir_000016_000051.html" target="_top" xlink:title="6">
<text text-anchor="middle" x="144.522" y="-55.2" font-family="Helvetica,sans-Serif" font-size="10.00">6</text>
</a>
</g>
</g>
</g>
</svg>
