<?xml version="1.0" encoding="UTF-8" standalone="no"?>
<!DOCTYPE svg PUBLIC "-//W3C//DTD SVG 1.1//EN"
 "http://www.w3.org/Graphics/SVG/1.1/DTD/svg11.dtd">
<!-- Generated by graphviz version 2.38.0 (20140413.2041)
 -->
<!-- Title: Graphical Class Hierarchy Pages: 1 -->
<svg width="262pt" height="137pt"
 viewBox="0.00 0.00 262.00 137.00" xmlns="http://www.w3.org/2000/svg" xmlns:xlink="http://www.w3.org/1999/xlink">
<g id="graph0" class="graph" transform="scale(1 1) rotate(0) translate(4 133)">
<title>Graphical Class Hierarchy</title>
<polygon fill="white" stroke="none" points="-4,4 -4,-133 258,-133 258,4 -4,4"/>
<!-- Node93 -->
<g id="node1" class="node"><title>Node93</title>
<polygon fill="white" stroke="#bfbfbf" points="0,-55 0,-74 38,-74 38,-55 0,-55"/>
<text text-anchor="middle" x="19" y="-62" font-family="Helvetica,sans-Serif" font-size="10.00">state</text>
</g>
<!-- Node0 -->
<g id="node2" class="node"><title>Node0</title>
<g id="a_node2"><a xlink:href="db/da1/structLeosac_1_1Module_1_1LedBuzzer_1_1SM_1_1LedBuzzerSM___1_1Idle.html" target="_top" xlink:title="Leosac::Module::LedBuzzer\l::SM::LedBuzzerSM_::Idle">
<polygon fill="white" stroke="black" points="95,-98.5 95,-128.5 233,-128.5 233,-98.5 95,-98.5"/>
<text text-anchor="start" x="103" y="-116.5" font-family="Helvetica,sans-Serif" font-size="10.00">Leosac::Module::LedBuzzer</text>
<text text-anchor="middle" x="164" y="-105.5" font-family="Helvetica,sans-Serif" font-size="10.00">::SM::LedBuzzerSM_::Idle</text>
</a>
</g>
</g>
<!-- Node93&#45;&gt;Node0 -->
<g id="edge1" class="edge"><title>Node93&#45;&gt;Node0</title>
<path fill="none" stroke="midnightblue" d="M47.2173,-78.1972C55.6737,-82.1536 65.1108,-86.2704 74,-89.5 82.8744,-92.7242 92.3856,-95.7371 101.769,-98.4647"/>
<polygon fill="midnightblue" stroke="midnightblue" points="48.6978,-75.0255 38.1679,-73.8542 45.669,-81.3364 48.6978,-75.0255"/>
</g>
<!-- Node95 -->
<g id="node3" class="node"><title>Node95</title>
<g id="a_node3"><a xlink:href="da/d06/structLeosac_1_1Module_1_1LedBuzzer_1_1SM_1_1LedBuzzerSM___1_1PlayingPattern.html" target="_top" xlink:title="Leosac::Module::LedBuzzer\l::SM::LedBuzzerSM_::PlayingPattern">
<polygon fill="white" stroke="black" points="74,-49.5 74,-79.5 254,-79.5 254,-49.5 74,-49.5"/>
<text text-anchor="start" x="82" y="-67.5" font-family="Helvetica,sans-Serif" font-size="10.00">Leosac::Module::LedBuzzer</text>
<text text-anchor="middle" x="164" y="-56.5" font-family="Helvetica,sans-Serif" font-size="10.00">::SM::LedBuzzerSM_::PlayingPattern</text>
</a>
</g>
</g>
<!-- Node93&#45;&gt;Node95 -->
<g id="edge2" class="edge"><title>Node93&#45;&gt;Node95</title>
<path fill="none" stroke="midnightblue" d="M48.2082,-64.5C55.9046,-64.5 64.6744,-64.5 73.8584,-64.5"/>
<polygon fill="midnightblue" stroke="midnightblue" points="48.1111,-61.0001 38.111,-64.5 48.111,-68.0001 48.1111,-61.0001"/>
</g>
<!-- Node96 -->
<g id="node4" class="node"><title>Node96</title>
<g id="a_node4"><a xlink:href="d7/dd0/structLeosac_1_1Module_1_1LedBuzzer_1_1SM_1_1LedBuzzerSM___1_1StateBlinking.html" target="_top" xlink:title="Leosac::Module::LedBuzzer\l::SM::LedBuzzerSM_::StateBlinking">
<polygon fill="white" stroke="black" points="77,-0.5 77,-30.5 251,-30.5 251,-0.5 77,-0.5"/>
<text text-anchor="start" x="85" y="-18.5" font-family="Helvetica,sans-Serif" font-size="10.00">Leosac::Module::LedBuzzer</text>
<text text-anchor="middle" x="164" y="-7.5" font-family="Helvetica,sans-Serif" font-size="10.00">::SM::LedBuzzerSM_::StateBlinking</text>
</a>
</g>
</g>
<!-- Node93&#45;&gt;Node96 -->
<g id="edge3" class="edge"><title>Node93&#45;&gt;Node96</title>
<path fill="none" stroke="midnightblue" d="M47.5572,-51.3336C55.9455,-47.5764 65.2597,-43.6512 74,-40.5 83.8138,-36.9618 94.3816,-33.6086 104.688,-30.5746"/>
<polygon fill="midnightblue" stroke="midnightblue" points="45.8577,-48.2623 38.2252,-55.6106 48.7742,-54.6258 45.8577,-48.2623"/>
</g>
</g>
</svg>
