<?xml version="1.0" encoding="UTF-8" standalone="no"?>
<!DOCTYPE svg PUBLIC "-//W3C//DTD SVG 1.1//EN"
 "http://www.w3.org/Graphics/SVG/1.1/DTD/svg11.dtd">
<!-- Generated by graphviz version 2.38.0 (20140413.2041)
 -->
<!-- Title: Graphical Class Hierarchy Pages: 1 -->
<svg width="314pt" height="50pt"
 viewBox="0.00 0.00 314.00 50.00" xmlns="http://www.w3.org/2000/svg" xmlns:xlink="http://www.w3.org/1999/xlink">
<g id="graph0" class="graph" transform="scale(1 1) rotate(0) translate(4 46)">
<title>Graphical Class Hierarchy</title>
<polygon fill="white" stroke="none" points="-4,4 -4,-46 310,-46 310,4 -4,4"/>
<!-- Node0 -->
<g id="node1" class="node"><title>Node0</title>
<g id="a_node1"><a xlink:href="d8/daf/classLeosac_1_1Module_1_1WebSockAPI_1_1BaseModuleSupportThread.html" target="_top" xlink:title="Leosac::Module::WebSockAPI\l::BaseModuleSupportThread\l\&lt; ModuleParameters \&gt;">
<polygon fill="white" stroke="black" points="0,-0.5 0,-41.5 151,-41.5 151,-0.5 0,-0.5"/>
<text text-anchor="start" x="8" y="-29.5" font-family="Helvetica,sans-Serif" font-size="10.00">Leosac::Module::WebSockAPI</text>
<text text-anchor="start" x="8" y="-18.5" font-family="Helvetica,sans-Serif" font-size="10.00">::BaseModuleSupportThread</text>
<text text-anchor="middle" x="75.5" y="-7.5" font-family="Helvetica,sans-Serif" font-size="10.00">&lt; ModuleParameters &gt;</text>
</a>
</g>
</g>
<!-- Node1 -->
<g id="node2" class="node"><title>Node1</title>
<g id="a_node2"><a xlink:href="d6/d10/classLeosac_1_1Module_1_1Piface_1_1WSHelperThread.html" target="_top" xlink:title="Leosac::Module::Piface\l::WSHelperThread">
<polygon fill="white" stroke="black" points="187,-6 187,-36 306,-36 306,-6 187,-6"/>
<text text-anchor="start" x="195" y="-24" font-family="Helvetica,sans-Serif" font-size="10.00">Leosac::Module::Piface</text>
<text text-anchor="middle" x="246.5" y="-13" font-family="Helvetica,sans-Serif" font-size="10.00">::WSHelperThread</text>
</a>
</g>
</g>
<!-- Node0&#45;&gt;Node1 -->
<g id="edge1" class="edge"><title>Node0&#45;&gt;Node1</title>
<path fill="none" stroke="midnightblue" d="M161.231,-21C169.864,-21 178.493,-21 186.759,-21"/>
<polygon fill="midnightblue" stroke="midnightblue" points="161.118,-17.5001 151.118,-21 161.118,-24.5001 161.118,-17.5001"/>
</g>
</g>
</svg>
