<?xml version="1.0" encoding="UTF-8" standalone="no"?>
<!DOCTYPE svg PUBLIC "-//W3C//DTD SVG 1.1//EN"
 "http://www.w3.org/Graphics/SVG/1.1/DTD/svg11.dtd">
<!-- Generated by graphviz version 2.38.0 (20140413.2041)
 -->
<!-- Title: Graphical Class Hierarchy Pages: 1 -->
<svg width="697pt" height="894pt"
 viewBox="0.00 0.00 697.00 894.35" xmlns="http://www.w3.org/2000/svg" xmlns:xlink="http://www.w3.org/1999/xlink">
<g id="graph0" class="graph" transform="scale(1 1) rotate(0) translate(4 890.349)">
<title>Graphical Class Hierarchy</title>
<polygon fill="white" stroke="none" points="-4,4 -4,-890.349 693,-890.349 693,4 -4,4"/>
<!-- Node0 -->
<g id="node1" class="node"><title>Node0</title>
<g id="a_node1"><a xlink:href="d6/da1/classLeosac_1_1Tools_1_1BaseVisitor.html" target="_top" xlink:title="Base class for visitor, should not be used directly. ">
<polygon fill="white" stroke="black" points="0,-419.849 0,-438.849 134,-438.849 134,-419.849 0,-419.849"/>
<text text-anchor="middle" x="67" y="-426.849" font-family="Helvetica,sans-Serif" font-size="10.00">Leosac::Tools::BaseVisitor</text>
</a>
</g>
</g>
<!-- Node1 -->
<g id="node2" class="node"><title>Node1</title>
<g id="a_node2"><a xlink:href="d3/d19/classLeosac_1_1Tools_1_1Visitor.html" target="_top" xlink:title="A Visitor object. ">
<polygon fill="white" stroke="black" points="181,-866.849 181,-885.849 317,-885.849 317,-866.849 181,-866.849"/>
<text text-anchor="middle" x="249" y="-873.849" font-family="Helvetica,sans-Serif" font-size="10.00">Leosac::Tools::Visitor&lt; T &gt;</text>
</a>
</g>
</g>
<!-- Node0&#45;&gt;Node1 -->
<g id="edge1" class="edge"><title>Node0&#45;&gt;Node1</title>
<path fill="none" stroke="midnightblue" d="M69.9986,-449.116C78.0848,-525.202 110.809,-797.862 170,-857.349 173.834,-861.202 178.31,-864.322 183.144,-866.843"/>
<polygon fill="midnightblue" stroke="midnightblue" points="73.4631,-448.592 68.9478,-439.008 66.5007,-449.316 73.4631,-448.592"/>
</g>
<!-- Node2 -->
<g id="node3" class="node"><title>Node2</title>
<g id="a_node3"><a xlink:href="d3/d19/classLeosac_1_1Tools_1_1Visitor.html" target="_top" xlink:title="Leosac::Tools::Visitor\l\&lt; Audit::ICredentialEvent \&gt;">
<polygon fill="white" stroke="black" points="181,-659.349 181,-689.349 317,-689.349 317,-659.349 181,-659.349"/>
<text text-anchor="start" x="189" y="-677.349" font-family="Helvetica,sans-Serif" font-size="10.00">Leosac::Tools::Visitor</text>
<text text-anchor="middle" x="249" y="-666.349" font-family="Helvetica,sans-Serif" font-size="10.00">&lt; Audit::ICredentialEvent &gt;</text>
</a>
</g>
</g>
<!-- Node0&#45;&gt;Node2 -->
<g id="edge2" class="edge"><title>Node0&#45;&gt;Node2</title>
<path fill="none" stroke="midnightblue" d="M71.4768,-448.978C80.1205,-491.953 106.629,-594.943 170,-650.349 173.947,-653.8 178.382,-656.754 183.082,-659.284"/>
<polygon fill="midnightblue" stroke="midnightblue" points="74.8806,-448.141 69.574,-438.971 68.0038,-449.449 74.8806,-448.141"/>
</g>
<!-- Node4 -->
<g id="node5" class="node"><title>Node4</title>
<g id="a_node5"><a xlink:href="d3/d19/classLeosac_1_1Tools_1_1Visitor.html" target="_top" xlink:title="Leosac::Tools::Visitor\l\&lt; Audit::IDoorEvent \&gt;">
<polygon fill="white" stroke="black" points="192.5,-610.349 192.5,-640.349 305.5,-640.349 305.5,-610.349 192.5,-610.349"/>
<text text-anchor="start" x="200.5" y="-628.349" font-family="Helvetica,sans-Serif" font-size="10.00">Leosac::Tools::Visitor</text>
<text text-anchor="middle" x="249" y="-617.349" font-family="Helvetica,sans-Serif" font-size="10.00">&lt; Audit::IDoorEvent &gt;</text>
</a>
</g>
</g>
<!-- Node0&#45;&gt;Node4 -->
<g id="edge4" class="edge"><title>Node0&#45;&gt;Node4</title>
<path fill="none" stroke="midnightblue" d="M74.2694,-448.927C86.694,-484.6 117.843,-560.28 170,-601.349 176.568,-606.52 184.251,-610.583 192.187,-613.773"/>
<polygon fill="midnightblue" stroke="midnightblue" points="77.5125,-447.59 71.0121,-439.224 70.8764,-449.818 77.5125,-447.59"/>
</g>
<!-- Node6 -->
<g id="node6" class="node"><title>Node6</title>
<g id="a_node6"><a xlink:href="d3/d19/classLeosac_1_1Tools_1_1Visitor.html" target="_top" xlink:title="Leosac::Tools::Visitor\l\&lt; Audit::IGroupEvent \&gt;">
<polygon fill="white" stroke="black" points="190,-561.349 190,-591.349 308,-591.349 308,-561.349 190,-561.349"/>
<text text-anchor="start" x="198" y="-579.349" font-family="Helvetica,sans-Serif" font-size="10.00">Leosac::Tools::Visitor</text>
<text text-anchor="middle" x="249" y="-568.349" font-family="Helvetica,sans-Serif" font-size="10.00">&lt; Audit::IGroupEvent &gt;</text>
</a>
</g>
</g>
<!-- Node0&#45;&gt;Node6 -->
<g id="edge6" class="edge"><title>Node0&#45;&gt;Node6</title>
<path fill="none" stroke="midnightblue" d="M78.4346,-447.748C94.6145,-474.643 128.281,-524.508 170,-552.349 176.01,-556.36 182.722,-559.725 189.616,-562.543"/>
<polygon fill="midnightblue" stroke="midnightblue" points="81.3602,-445.818 73.2823,-438.963 75.3219,-449.359 81.3602,-445.818"/>
</g>
<!-- Node8 -->
<g id="node7" class="node"><title>Node8</title>
<g id="a_node7"><a xlink:href="d3/d19/classLeosac_1_1Tools_1_1Visitor.html" target="_top" xlink:title="Leosac::Tools::Visitor\l\&lt; Audit::IScheduleEvent \&gt;">
<polygon fill="white" stroke="black" points="183,-512.349 183,-542.349 315,-542.349 315,-512.349 183,-512.349"/>
<text text-anchor="start" x="191" y="-530.349" font-family="Helvetica,sans-Serif" font-size="10.00">Leosac::Tools::Visitor</text>
<text text-anchor="middle" x="249" y="-519.349" font-family="Helvetica,sans-Serif" font-size="10.00">&lt; Audit::IScheduleEvent &gt;</text>
</a>
</g>
</g>
<!-- Node0&#45;&gt;Node8 -->
<g id="edge8" class="edge"><title>Node0&#45;&gt;Node8</title>
<path fill="none" stroke="midnightblue" d="M86.6395,-445.81C106.207,-462.355 138.456,-487.6 170,-503.349 176.718,-506.703 183.998,-509.697 191.319,-512.337"/>
<polygon fill="midnightblue" stroke="midnightblue" points="88.694,-442.961 78.8293,-439.096 84.1306,-448.269 88.694,-442.961"/>
</g>
<!-- Node10 -->
<g id="node8" class="node"><title>Node10</title>
<g id="a_node8"><a xlink:href="d3/d19/classLeosac_1_1Tools_1_1Visitor.html" target="_top" xlink:title="Leosac::Tools::Visitor\l\&lt; Audit::IUpdateEvent \&gt;">
<polygon fill="white" stroke="black" points="187.5,-463.349 187.5,-493.349 310.5,-493.349 310.5,-463.349 187.5,-463.349"/>
<text text-anchor="start" x="195.5" y="-481.349" font-family="Helvetica,sans-Serif" font-size="10.00">Leosac::Tools::Visitor</text>
<text text-anchor="middle" x="249" y="-470.349" font-family="Helvetica,sans-Serif" font-size="10.00">&lt; Audit::IUpdateEvent &gt;</text>
</a>
</g>
</g>
<!-- Node0&#45;&gt;Node10 -->
<g id="edge10" class="edge"><title>Node0&#45;&gt;Node10</title>
<path fill="none" stroke="midnightblue" d="M113.101,-441.627C137.258,-448.203 167.218,-456.358 192.762,-463.312"/>
<polygon fill="midnightblue" stroke="midnightblue" points="113.701,-438.163 103.133,-438.913 111.863,-444.917 113.701,-438.163"/>
</g>
<!-- Node12 -->
<g id="node9" class="node"><title>Node12</title>
<g id="a_node9"><a xlink:href="d3/d19/classLeosac_1_1Tools_1_1Visitor.html" target="_top" xlink:title="Leosac::Tools::Visitor\l\&lt; Audit::IUserEvent \&gt;">
<polygon fill="white" stroke="black" points="192.5,-414.349 192.5,-444.349 305.5,-444.349 305.5,-414.349 192.5,-414.349"/>
<text text-anchor="start" x="200.5" y="-432.349" font-family="Helvetica,sans-Serif" font-size="10.00">Leosac::Tools::Visitor</text>
<text text-anchor="middle" x="249" y="-421.349" font-family="Helvetica,sans-Serif" font-size="10.00">&lt; Audit::IUserEvent &gt;</text>
</a>
</g>
</g>
<!-- Node0&#45;&gt;Node12 -->
<g id="edge12" class="edge"><title>Node0&#45;&gt;Node12</title>
<path fill="none" stroke="midnightblue" d="M144.004,-429.349C160.226,-429.349 177.07,-429.349 192.358,-429.349"/>
<polygon fill="midnightblue" stroke="midnightblue" points="144.003,-425.849 134.003,-429.349 144.003,-432.849 144.003,-425.849"/>
</g>
<!-- Node14 -->
<g id="node10" class="node"><title>Node14</title>
<g id="a_node10"><a xlink:href="d3/d19/classLeosac_1_1Tools_1_1Visitor.html" target="_top" xlink:title="Leosac::Tools::Visitor\l\&lt; Audit::IUserGroupMembership\lEvent \&gt;">
<polygon fill="white" stroke="black" points="170,-806.849 170,-847.849 328,-847.849 328,-806.849 170,-806.849"/>
<text text-anchor="start" x="178" y="-835.849" font-family="Helvetica,sans-Serif" font-size="10.00">Leosac::Tools::Visitor</text>
<text text-anchor="start" x="178" y="-824.849" font-family="Helvetica,sans-Serif" font-size="10.00">&lt; Audit::IUserGroupMembership</text>
<text text-anchor="middle" x="249" y="-813.849" font-family="Helvetica,sans-Serif" font-size="10.00">Event &gt;</text>
</a>
</g>
</g>
<!-- Node0&#45;&gt;Node14 -->
<g id="edge14" class="edge"><title>Node0&#45;&gt;Node14</title>
<path fill="none" stroke="midnightblue" d="M67.6323,-449.133C67.5901,-509.468 75.6079,-693.348 170,-797.349 173.218,-800.894 176.902,-804.024 180.879,-806.787"/>
<polygon fill="midnightblue" stroke="midnightblue" points="71.1327,-449.091 67.7199,-439.061 64.133,-449.03 71.1327,-449.091"/>
</g>
<!-- Node16 -->
<g id="node11" class="node"><title>Node16</title>
<g id="a_node11"><a xlink:href="d3/d19/classLeosac_1_1Tools_1_1Visitor.html" target="_top" xlink:title="Leosac::Tools::Visitor\l\&lt; Audit::IWSAPICall \&gt;">
<polygon fill="white" stroke="black" points="191,-757.349 191,-787.349 307,-787.349 307,-757.349 191,-757.349"/>
<text text-anchor="start" x="199" y="-775.349" font-family="Helvetica,sans-Serif" font-size="10.00">Leosac::Tools::Visitor</text>
<text text-anchor="middle" x="249" y="-764.349" font-family="Helvetica,sans-Serif" font-size="10.00">&lt; Audit::IWSAPICall &gt;</text>
</a>
</g>
</g>
<!-- Node0&#45;&gt;Node16 -->
<g id="edge16" class="edge"><title>Node0&#45;&gt;Node16</title>
<path fill="none" stroke="midnightblue" d="M68.325,-449.289C70.3342,-504.87 83.7424,-663.033 170,-748.349 175.842,-754.128 183.041,-758.52 190.682,-761.857"/>
<polygon fill="midnightblue" stroke="midnightblue" points="71.8171,-448.95 68.0471,-439.049 64.8197,-449.14 71.8171,-448.95"/>
</g>
<!-- Node18 -->
<g id="node12" class="node"><title>Node18</title>
<g id="a_node12"><a xlink:href="d3/d19/classLeosac_1_1Tools_1_1Visitor.html" target="_top" xlink:title="Leosac::Tools::Visitor\l\&lt; Audit::IZoneEvent \&gt;">
<polygon fill="white" stroke="black" points="192.5,-708.349 192.5,-738.349 305.5,-738.349 305.5,-708.349 192.5,-708.349"/>
<text text-anchor="start" x="200.5" y="-726.349" font-family="Helvetica,sans-Serif" font-size="10.00">Leosac::Tools::Visitor</text>
<text text-anchor="middle" x="249" y="-715.349" font-family="Helvetica,sans-Serif" font-size="10.00">&lt; Audit::IZoneEvent &gt;</text>
</a>
</g>
</g>
<!-- Node0&#45;&gt;Node18 -->
<g id="edge18" class="edge"><title>Node0&#45;&gt;Node18</title>
<path fill="none" stroke="midnightblue" d="M69.6143,-448.833C74.7529,-498.155 95.1125,-629.016 170,-699.349 176.3,-705.266 184.026,-709.725 192.141,-713.086"/>
<polygon fill="midnightblue" stroke="midnightblue" points="73.0971,-448.485 68.6719,-438.858 66.1281,-449.143 73.0971,-448.485"/>
</g>
<!-- Node20 -->
<g id="node13" class="node"><title>Node20</title>
<g id="a_node13"><a xlink:href="d3/d19/classLeosac_1_1Tools_1_1Visitor.html" target="_top" xlink:title="Leosac::Tools::Visitor\l\&lt; Cred::IPinCode \&gt;">
<polygon fill="white" stroke="black" points="193,-316.349 193,-346.349 305,-346.349 305,-316.349 193,-316.349"/>
<text text-anchor="start" x="201" y="-334.349" font-family="Helvetica,sans-Serif" font-size="10.00">Leosac::Tools::Visitor</text>
<text text-anchor="middle" x="249" y="-323.349" font-family="Helvetica,sans-Serif" font-size="10.00">&lt; Cred::IPinCode &gt;</text>
</a>
</g>
</g>
<!-- Node0&#45;&gt;Node20 -->
<g id="edge20" class="edge"><title>Node0&#45;&gt;Node20</title>
<path fill="none" stroke="midnightblue" d="M86.6395,-412.888C106.207,-396.343 138.456,-371.098 170,-355.349 177.225,-351.742 185.1,-348.551 192.977,-345.77"/>
<polygon fill="midnightblue" stroke="midnightblue" points="84.1306,-410.429 78.8293,-419.602 88.694,-415.737 84.1306,-410.429"/>
</g>
<!-- Node23 -->
<g id="node16" class="node"><title>Node23</title>
<g id="a_node16"><a xlink:href="d3/d19/classLeosac_1_1Tools_1_1Visitor.html" target="_top" xlink:title="Leosac::Tools::Visitor\l\&lt; Cred::IRFIDCard \&gt;">
<polygon fill="white" stroke="black" points="193,-365.349 193,-395.349 305,-395.349 305,-365.349 193,-365.349"/>
<text text-anchor="start" x="201" y="-383.349" font-family="Helvetica,sans-Serif" font-size="10.00">Leosac::Tools::Visitor</text>
<text text-anchor="middle" x="249" y="-372.349" font-family="Helvetica,sans-Serif" font-size="10.00">&lt; Cred::IRFIDCard &gt;</text>
</a>
</g>
</g>
<!-- Node0&#45;&gt;Node23 -->
<g id="edge23" class="edge"><title>Node0&#45;&gt;Node23</title>
<path fill="none" stroke="midnightblue" d="M113.101,-417.071C137.258,-410.495 167.218,-402.34 192.762,-395.386"/>
<polygon fill="midnightblue" stroke="midnightblue" points="111.863,-413.781 103.133,-419.785 113.701,-420.535 111.863,-413.781"/>
</g>
<!-- Node26 -->
<g id="node17" class="node"><title>Node26</title>
<g id="a_node17"><a xlink:href="d3/d19/classLeosac_1_1Tools_1_1Visitor.html" target="_top" xlink:title="Leosac::Tools::Visitor\l\&lt; DummyVisitable \&gt;">
<polygon fill="white" stroke="black" points="193,-267.349 193,-297.349 305,-297.349 305,-267.349 193,-267.349"/>
<text text-anchor="start" x="201" y="-285.349" font-family="Helvetica,sans-Serif" font-size="10.00">Leosac::Tools::Visitor</text>
<text text-anchor="middle" x="249" y="-274.349" font-family="Helvetica,sans-Serif" font-size="10.00">&lt; DummyVisitable &gt;</text>
</a>
</g>
</g>
<!-- Node0&#45;&gt;Node26 -->
<g id="edge26" class="edge"><title>Node0&#45;&gt;Node26</title>
<path fill="none" stroke="midnightblue" d="M78.4346,-410.95C94.6145,-384.055 128.281,-334.19 170,-306.349 176.953,-301.709 184.844,-297.933 192.872,-294.869"/>
<polygon fill="midnightblue" stroke="midnightblue" points="75.3219,-409.339 73.2823,-419.736 81.3602,-412.88 75.3219,-409.339"/>
</g>
<!-- Node30 -->
<g id="node21" class="node"><title>Node30</title>
<g id="a_node21"><a xlink:href="d3/d19/classLeosac_1_1Tools_1_1Visitor.html" target="_top" xlink:title="Leosac::Tools::Visitor\l\&lt; PINCode \&gt;">
<polygon fill="white" stroke="black" points="193,-43.349 193,-73.349 305,-73.349 305,-43.349 193,-43.349"/>
<text text-anchor="start" x="201" y="-61.349" font-family="Helvetica,sans-Serif" font-size="10.00">Leosac::Tools::Visitor</text>
<text text-anchor="middle" x="249" y="-50.349" font-family="Helvetica,sans-Serif" font-size="10.00">&lt; PINCode &gt;</text>
</a>
</g>
</g>
<!-- Node0&#45;&gt;Node30 -->
<g id="edge30" class="edge"><title>Node0&#45;&gt;Node30</title>
<path fill="none" stroke="midnightblue" d="M67.7179,-409.639C67.985,-351.118 76.9347,-176.595 170,-82.349 176.371,-75.897 184.432,-71.1709 192.939,-67.7112"/>
<polygon fill="midnightblue" stroke="midnightblue" points="64.2182,-409.753 67.7579,-419.739 71.2182,-409.725 64.2182,-409.753"/>
</g>
<!-- Node33 -->
<g id="node24" class="node"><title>Node33</title>
<g id="a_node24"><a xlink:href="d3/d19/classLeosac_1_1Tools_1_1Visitor.html" target="_top" xlink:title="Leosac::Tools::Visitor\l\&lt; WiegandCard \&gt;">
<polygon fill="white" stroke="black" points="193,-141.349 193,-171.349 305,-171.349 305,-141.349 193,-141.349"/>
<text text-anchor="start" x="201" y="-159.349" font-family="Helvetica,sans-Serif" font-size="10.00">Leosac::Tools::Visitor</text>
<text text-anchor="middle" x="249" y="-148.349" font-family="Helvetica,sans-Serif" font-size="10.00">&lt; WiegandCard &gt;</text>
</a>
</g>
</g>
<!-- Node0&#45;&gt;Node33 -->
<g id="edge33" class="edge"><title>Node0&#45;&gt;Node33</title>
<path fill="none" stroke="midnightblue" d="M70.9651,-409.366C78.7666,-363.632 104.006,-250.377 170,-186.349 176.456,-180.085 184.36,-175.096 192.632,-171.131"/>
<polygon fill="midnightblue" stroke="midnightblue" points="67.4728,-409.039 69.3431,-419.467 74.3843,-410.148 67.4728,-409.039"/>
</g>
<!-- Node36 -->
<g id="node25" class="node"><title>Node36</title>
<g id="a_node25"><a xlink:href="d3/d19/classLeosac_1_1Tools_1_1Visitor.html" target="_top" xlink:title="Leosac::Tools::Visitor\l\&lt; WiegandCardPin \&gt;">
<polygon fill="white" stroke="black" points="193,-92.349 193,-122.349 305,-122.349 305,-92.349 193,-92.349"/>
<text text-anchor="start" x="201" y="-110.349" font-family="Helvetica,sans-Serif" font-size="10.00">Leosac::Tools::Visitor</text>
<text text-anchor="middle" x="249" y="-99.349" font-family="Helvetica,sans-Serif" font-size="10.00">&lt; WiegandCardPin &gt;</text>
</a>
</g>
</g>
<!-- Node0&#45;&gt;Node36 -->
<g id="edge35" class="edge"><title>Node0&#45;&gt;Node36</title>
<path fill="none" stroke="midnightblue" d="M68.8326,-409.657C72.148,-356.756 88.6041,-210.238 170,-131.349 176.41,-125.137 184.388,-120.529 192.776,-117.112"/>
<polygon fill="midnightblue" stroke="midnightblue" points="65.3332,-409.553 68.2945,-419.726 72.3232,-409.927 65.3332,-409.553"/>
</g>
<!-- Node39 -->
<g id="node26" class="node"><title>Node39</title>
<g id="a_node26"><a xlink:href="d3/d19/classLeosac_1_1Tools_1_1Visitor.html" target="_top" xlink:title="Leosac::Tools::Visitor\l\&lt;::Leosac::Cred::PinCode \&gt;">
<polygon fill="white" stroke="black" points="377.5,-19.349 377.5,-49.349 517.5,-49.349 517.5,-19.349 377.5,-19.349"/>
<text text-anchor="start" x="385.5" y="-37.349" font-family="Helvetica,sans-Serif" font-size="10.00">Leosac::Tools::Visitor</text>
<text text-anchor="middle" x="447.5" y="-26.349" font-family="Helvetica,sans-Serif" font-size="10.00">&lt;::Leosac::Cred::PinCode &gt;</text>
</a>
</g>
</g>
<!-- Node0&#45;&gt;Node39 -->
<g id="edge37" class="edge"><title>Node0&#45;&gt;Node39</title>
<path fill="none" stroke="midnightblue" d="M69.9473,-409.703C77.6506,-336.439 108.614,-80.9273 170,-33.349 237.252,18.7754 343.928,-1.7597 403.195,-19.326"/>
<polygon fill="midnightblue" stroke="midnightblue" points="66.4465,-409.532 68.9095,-419.836 73.4101,-410.245 66.4465,-409.532"/>
</g>
<!-- Node41 -->
<g id="node27" class="node"><title>Node41</title>
<g id="a_node27"><a xlink:href="d3/d19/classLeosac_1_1Tools_1_1Visitor.html" target="_top" xlink:title="Leosac::Tools::Visitor\l\&lt;::Leosac::Cred::RFIDCard \&gt;">
<polygon fill="white" stroke="black" points="374,-185.349 374,-215.349 521,-215.349 521,-185.349 374,-185.349"/>
<text text-anchor="start" x="382" y="-203.349" font-family="Helvetica,sans-Serif" font-size="10.00">Leosac::Tools::Visitor</text>
<text text-anchor="middle" x="447.5" y="-192.349" font-family="Helvetica,sans-Serif" font-size="10.00">&lt;::Leosac::Cred::RFIDCard &gt;</text>
</a>
</g>
</g>
<!-- Node0&#45;&gt;Node41 -->
<g id="edge39" class="edge"><title>Node0&#45;&gt;Node41</title>
<path fill="none" stroke="midnightblue" d="M73.7384,-409.801C85.449,-373.549 115.691,-296.072 170,-257.349 202.125,-234.443 303.205,-217.804 373.801,-208.609"/>
<polygon fill="midnightblue" stroke="midnightblue" points="70.3065,-409.051 70.6929,-419.639 76.9935,-411.121 70.3065,-409.051"/>
</g>
<!-- Node43 -->
<g id="node28" class="node"><title>Node43</title>
<g id="a_node28"><a xlink:href="d3/d19/classLeosac_1_1Tools_1_1Visitor.html" target="_top" xlink:title="Leosac::Tools::Visitor\l\&lt;::Leosac::Cred::RFIDCardPin \&gt;">
<polygon fill="white" stroke="black" points="367,-136.349 367,-166.349 528,-166.349 528,-136.349 367,-136.349"/>
<text text-anchor="start" x="375" y="-154.349" font-family="Helvetica,sans-Serif" font-size="10.00">Leosac::Tools::Visitor</text>
<text text-anchor="middle" x="447.5" y="-143.349" font-family="Helvetica,sans-Serif" font-size="10.00">&lt;::Leosac::Cred::RFIDCardPin &gt;</text>
</a>
</g>
</g>
<!-- Node0&#45;&gt;Node43 -->
<g id="edge41" class="edge"><title>Node0&#45;&gt;Node43</title>
<path fill="none" stroke="midnightblue" d="M71.3083,-409.839C79.6141,-367.201 105.488,-265.447 170,-214.349 226.307,-169.75 257.997,-196.444 328,-180.349 347.093,-175.959 367.86,-170.956 386.598,-166.355"/>
<polygon fill="midnightblue" stroke="midnightblue" points="67.8474,-409.308 69.4875,-419.776 74.7327,-410.57 67.8474,-409.308"/>
</g>
<!-- Node19 -->
<g id="node4" class="node"><title>Node19</title>
<g id="a_node4"><a xlink:href="d4/dcd/structLeosac_1_1Audit_1_1Serializer_1_1PolymorphicAuditJSON_1_1HelperSerialize.html" target="_top" xlink:title="Non static helper that can visit a core audit object. ">
<polygon fill="white" stroke="black" points="384.5,-604.849 384.5,-645.849 510.5,-645.849 510.5,-604.849 384.5,-604.849"/>
<text text-anchor="start" x="392.5" y="-633.849" font-family="Helvetica,sans-Serif" font-size="10.00">Leosac::Audit::Serializer</text>
<text text-anchor="start" x="392.5" y="-622.849" font-family="Helvetica,sans-Serif" font-size="10.00">::PolymorphicAuditJSON</text>
<text text-anchor="middle" x="447.5" y="-611.849" font-family="Helvetica,sans-Serif" font-size="10.00">::HelperSerialize</text>
</a>
</g>
</g>
<!-- Node2&#45;&gt;Node19 -->
<g id="edge3" class="edge"><title>Node2&#45;&gt;Node19</title>
<path fill="none" stroke="midnightblue" d="M320.091,-656.871C341.047,-651.645 363.87,-645.954 384.284,-640.863"/>
<polygon fill="midnightblue" stroke="midnightblue" points="319.148,-653.499 310.292,-659.314 320.842,-660.291 319.148,-653.499"/>
</g>
<!-- Node4&#45;&gt;Node19 -->
<g id="edge5" class="edge"><title>Node4&#45;&gt;Node19</title>
<path fill="none" stroke="midnightblue" d="M315.802,-625.349C337.875,-625.349 362.408,-625.349 384.204,-625.349"/>
<polygon fill="midnightblue" stroke="midnightblue" points="315.521,-621.849 305.521,-625.349 315.521,-628.849 315.521,-621.849"/>
</g>
<!-- Node6&#45;&gt;Node19 -->
<g id="edge7" class="edge"><title>Node6&#45;&gt;Node19</title>
<path fill="none" stroke="midnightblue" d="M317.905,-593.282C339.486,-598.664 363.232,-604.585 384.383,-609.859"/>
<polygon fill="midnightblue" stroke="midnightblue" points="318.709,-589.875 308.159,-590.852 317.015,-596.667 318.709,-589.875"/>
</g>
<!-- Node8&#45;&gt;Node19 -->
<g id="edge9" class="edge"><title>Node8&#45;&gt;Node19</title>
<path fill="none" stroke="midnightblue" d="M312.623,-545.927C317.886,-547.938 323.075,-550.083 328,-552.349 360.05,-567.092 394.086,-588.763 417.418,-604.664"/>
<polygon fill="midnightblue" stroke="midnightblue" points="313.701,-542.595 303.107,-542.457 311.303,-549.172 313.701,-542.595"/>
</g>
<!-- Node10&#45;&gt;Node19 -->
<g id="edge11" class="edge"><title>Node10&#45;&gt;Node19</title>
<path fill="none" stroke="midnightblue" d="M317.396,-497.545C321.067,-499.327 324.629,-501.259 328,-503.349 371.915,-530.58 411.165,-577.592 431.607,-604.615"/>
<polygon fill="midnightblue" stroke="midnightblue" points="318.649,-494.272 308.089,-493.415 315.81,-500.671 318.649,-494.272"/>
</g>
<!-- Node12&#45;&gt;Node19 -->
<g id="edge13" class="edge"><title>Node12&#45;&gt;Node19</title>
<path fill="none" stroke="midnightblue" d="M314.714,-445.383C319.401,-447.695 323.893,-450.336 328,-453.349 383.403,-494 421.715,-568.715 437.881,-604.789"/>
<polygon fill="midnightblue" stroke="midnightblue" points="316.07,-442.155 305.507,-441.327 313.248,-448.561 316.07,-442.155"/>
</g>
<!-- Node14&#45;&gt;Node19 -->
<g id="edge15" class="edge"><title>Node14&#45;&gt;Node19</title>
<path fill="none" stroke="midnightblue" d="M322.374,-801.436C324.314,-800.133 326.194,-798.772 328,-797.349 381.69,-755.044 420.561,-681.785 437.327,-646.093"/>
<polygon fill="midnightblue" stroke="midnightblue" points="320.288,-798.606 313.54,-806.774 323.909,-804.597 320.288,-798.606"/>
</g>
<!-- Node16&#45;&gt;Node19 -->
<g id="edge17" class="edge"><title>Node16&#45;&gt;Node19</title>
<path fill="none" stroke="midnightblue" d="M316.646,-754.431C320.584,-752.584 324.402,-750.561 328,-748.349 372.457,-721.015 411.795,-673.129 432.04,-645.869"/>
<polygon fill="midnightblue" stroke="midnightblue" points="315.109,-751.281 307.288,-758.428 317.859,-757.719 315.109,-751.281"/>
</g>
<!-- Node18&#45;&gt;Node19 -->
<g id="edge19" class="edge"><title>Node18&#45;&gt;Node19</title>
<path fill="none" stroke="midnightblue" d="M314.661,-704.903C319.227,-703.159 323.715,-701.306 328,-699.349 360.433,-684.539 394.692,-662.337 417.985,-646.116"/>
<polygon fill="midnightblue" stroke="midnightblue" points="313.428,-701.627 305.22,-708.327 315.815,-708.208 313.428,-701.627"/>
</g>
<!-- Node24 -->
<g id="node14" class="node"><title>Node24</title>
<g id="a_node14"><a xlink:href="d0/d05/structLeosac_1_1PolymorphicCredentialJSONSerializer_1_1HelperSerialize.html" target="_top" xlink:title="Non static helper that can visit credential object. ">
<polygon fill="white" stroke="black" points="369.5,-409.349 369.5,-439.349 525.5,-439.349 525.5,-409.349 369.5,-409.349"/>
<text text-anchor="start" x="377.5" y="-427.349" font-family="Helvetica,sans-Serif" font-size="10.00">Leosac::PolymorphicCredential</text>
<text text-anchor="middle" x="447.5" y="-416.349" font-family="Helvetica,sans-Serif" font-size="10.00">JSONSerializer::HelperSerialize</text>
</a>
</g>
</g>
<!-- Node20&#45;&gt;Node24 -->
<g id="edge21" class="edge"><title>Node20&#45;&gt;Node24</title>
<path fill="none" stroke="midnightblue" d="M314.446,-347.763C319.194,-349.991 323.772,-352.507 328,-355.349 348.97,-369.444 343,-385.299 364,-399.349 369.722,-403.177 376.051,-406.437 382.585,-409.209"/>
<polygon fill="midnightblue" stroke="midnightblue" points="315.729,-344.506 305.155,-343.828 312.998,-350.951 315.729,-344.506"/>
</g>
<!-- Node25 -->
<g id="node15" class="node"><title>Node25</title>
<g id="a_node15"><a xlink:href="d6/dcf/structLeosac_1_1PolymorphicCredentialJSONSerializer_1_1HelperUnserialize.html" target="_top" xlink:title="Leosac::PolymorphicCredential\lJSONSerializer::HelperUnserialize">
<polygon fill="white" stroke="black" points="364,-360.349 364,-390.349 531,-390.349 531,-360.349 364,-360.349"/>
<text text-anchor="start" x="372" y="-378.349" font-family="Helvetica,sans-Serif" font-size="10.00">Leosac::PolymorphicCredential</text>
<text text-anchor="middle" x="447.5" y="-367.349" font-family="Helvetica,sans-Serif" font-size="10.00">JSONSerializer::HelperUnserialize</text>
</a>
</g>
</g>
<!-- Node20&#45;&gt;Node25 -->
<g id="edge22" class="edge"><title>Node20&#45;&gt;Node25</title>
<path fill="none" stroke="midnightblue" d="M315.195,-345.947C335.834,-350.569 358.675,-355.683 379.442,-360.333"/>
<polygon fill="midnightblue" stroke="midnightblue" points="315.782,-342.492 305.259,-343.723 314.253,-349.323 315.782,-342.492"/>
</g>
<!-- Node23&#45;&gt;Node24 -->
<g id="edge24" class="edge"><title>Node23&#45;&gt;Node24</title>
<path fill="none" stroke="midnightblue" d="M315.195,-394.947C335.834,-399.569 358.675,-404.683 379.442,-409.333"/>
<polygon fill="midnightblue" stroke="midnightblue" points="315.782,-391.492 305.259,-392.723 314.253,-398.323 315.782,-391.492"/>
</g>
<!-- Node23&#45;&gt;Node25 -->
<g id="edge25" class="edge"><title>Node23&#45;&gt;Node25</title>
<path fill="none" stroke="midnightblue" d="M315.267,-378.688C330.798,-378.293 347.574,-377.866 363.771,-377.454"/>
<polygon fill="midnightblue" stroke="midnightblue" points="315.167,-375.19 305.259,-378.943 315.345,-382.187 315.167,-375.19"/>
</g>
<!-- Node27 -->
<g id="node18" class="node"><title>Node27</title>
<g id="a_node18"><a xlink:href="dc/dda/structLeosac_1_1Test_1_1DummyConstOnlyVisitor.html" target="_top" xlink:title="Leosac::Test::DummyConst\lOnlyVisitor">
<polygon fill="white" stroke="black" points="377.5,-311.349 377.5,-341.349 517.5,-341.349 517.5,-311.349 377.5,-311.349"/>
<text text-anchor="start" x="385.5" y="-329.349" font-family="Helvetica,sans-Serif" font-size="10.00">Leosac::Test::DummyConst</text>
<text text-anchor="middle" x="447.5" y="-318.349" font-family="Helvetica,sans-Serif" font-size="10.00">OnlyVisitor</text>
</a>
</g>
</g>
<!-- Node26&#45;&gt;Node27 -->
<g id="edge27" class="edge"><title>Node26&#45;&gt;Node27</title>
<path fill="none" stroke="midnightblue" d="M315.195,-296.947C335.834,-301.569 358.675,-306.683 379.442,-311.333"/>
<polygon fill="midnightblue" stroke="midnightblue" points="315.782,-293.492 305.259,-294.723 314.253,-300.323 315.782,-293.492"/>
</g>
<!-- Node28 -->
<g id="node19" class="node"><title>Node28</title>
<g id="a_node19"><a xlink:href="d7/d54/structLeosac_1_1Test_1_1DummyVisitor.html" target="_top" xlink:title="Leosac::Test::DummyVisitor">
<polygon fill="white" stroke="black" points="376.5,-272.849 376.5,-291.849 518.5,-291.849 518.5,-272.849 376.5,-272.849"/>
<text text-anchor="middle" x="447.5" y="-279.849" font-family="Helvetica,sans-Serif" font-size="10.00">Leosac::Test::DummyVisitor</text>
</a>
</g>
</g>
<!-- Node26&#45;&gt;Node28 -->
<g id="edge28" class="edge"><title>Node26&#45;&gt;Node28</title>
<path fill="none" stroke="midnightblue" d="M315.284,-282.349C334.834,-282.349 356.354,-282.349 376.211,-282.349"/>
<polygon fill="midnightblue" stroke="midnightblue" points="315.259,-278.849 305.259,-282.349 315.259,-285.849 315.259,-278.849"/>
</g>
<!-- Node29 -->
<g id="node20" class="node"><title>Node29</title>
<g id="a_node20"><a xlink:href="d4/d8e/structLeosac_1_1Test_1_1DummyVisitor2.html" target="_top" xlink:title="Visitor2 that is ready to visit object of type DummyVisitable, but not of type DummyChildVisitable. ">
<polygon fill="white" stroke="black" points="374,-234.849 374,-253.849 521,-253.849 521,-234.849 374,-234.849"/>
<text text-anchor="middle" x="447.5" y="-241.849" font-family="Helvetica,sans-Serif" font-size="10.00">Leosac::Test::DummyVisitor2</text>
</a>
</g>
</g>
<!-- Node26&#45;&gt;Node29 -->
<g id="edge29" class="edge"><title>Node26&#45;&gt;Node29</title>
<path fill="none" stroke="midnightblue" d="M315.316,-269.718C342.077,-264.543 372.524,-258.655 397.346,-253.855"/>
<polygon fill="midnightblue" stroke="midnightblue" points="314.413,-266.328 305.259,-271.663 315.742,-273.2 314.413,-266.328"/>
</g>
<!-- Node37 -->
<g id="node22" class="node"><title>Node37</title>
<g id="a_node22"><a xlink:href="d2/de1/classLeosac_1_1Auth_1_1IAuthSourceMapper.html" target="_top" xlink:title="Base class to perform abstracted mapping operation over various AuthSource object. ">
<polygon fill="white" stroke="black" points="380.5,-87.349 380.5,-117.349 514.5,-117.349 514.5,-87.349 380.5,-87.349"/>
<text text-anchor="start" x="388.5" y="-105.349" font-family="Helvetica,sans-Serif" font-size="10.00">Leosac::Auth::IAuthSource</text>
<text text-anchor="middle" x="447.5" y="-94.349" font-family="Helvetica,sans-Serif" font-size="10.00">Mapper</text>
</a>
</g>
</g>
<!-- Node30&#45;&gt;Node37 -->
<g id="edge31" class="edge"><title>Node30&#45;&gt;Node37</title>
<path fill="none" stroke="midnightblue" d="M315.295,-72.9698C336.144,-77.6382 359.232,-82.8081 380.155,-87.4931"/>
<polygon fill="midnightblue" stroke="midnightblue" points="315.782,-69.4923 305.259,-70.7226 314.253,-76.3232 315.782,-69.4923"/>
</g>
<!-- Node44 -->
<g id="node23" class="node"><title>Node44</title>
<g id="a_node23"><a xlink:href="db/d85/classLeosac_1_1Module_1_1Auth_1_1FileAuthSourceMapper.html" target="_top" xlink:title="Use a file to map auth source (card, PIN, etc) to user. ">
<polygon fill="white" stroke="black" points="567,-111.349 567,-141.349 689,-141.349 689,-111.349 567,-111.349"/>
<text text-anchor="start" x="575" y="-129.349" font-family="Helvetica,sans-Serif" font-size="10.00">Leosac::Module::Auth</text>
<text text-anchor="middle" x="628" y="-118.349" font-family="Helvetica,sans-Serif" font-size="10.00">::FileAuthSourceMapper</text>
</a>
</g>
</g>
<!-- Node37&#45;&gt;Node44 -->
<g id="edge32" class="edge"><title>Node37&#45;&gt;Node44</title>
<path fill="none" stroke="midnightblue" d="M524.83,-112.612C538.858,-114.498 553.32,-116.442 566.792,-118.254"/>
<polygon fill="midnightblue" stroke="midnightblue" points="525.09,-109.115 514.713,-111.252 524.158,-116.053 525.09,-109.115"/>
</g>
<!-- Node33&#45;&gt;Node37 -->
<g id="edge34" class="edge"><title>Node33&#45;&gt;Node37</title>
<path fill="none" stroke="midnightblue" d="M314.489,-138.627C339.463,-131.764 367.751,-123.99 391.717,-117.404"/>
<polygon fill="midnightblue" stroke="midnightblue" points="313.451,-135.282 304.736,-141.307 315.306,-142.032 313.451,-135.282"/>
</g>
<!-- Node36&#45;&gt;Node37 -->
<g id="edge36" class="edge"><title>Node36&#45;&gt;Node37</title>
<path fill="none" stroke="midnightblue" d="M315.295,-105.688C336.144,-105.157 359.232,-104.57 380.155,-104.037"/>
<polygon fill="midnightblue" stroke="midnightblue" points="315.167,-102.19 305.259,-105.943 315.345,-109.187 315.167,-102.19"/>
</g>
<!-- Node39&#45;&gt;Node44 -->
<g id="edge38" class="edge"><title>Node39&#45;&gt;Node44</title>
<path fill="none" stroke="midnightblue" d="M486.954,-54.1683C520.202,-71.3049 567.551,-95.7086 597.777,-111.287"/>
<polygon fill="midnightblue" stroke="midnightblue" points="488.468,-51.0113 477.976,-49.541 485.261,-57.2335 488.468,-51.0113"/>
</g>
<!-- Node41&#45;&gt;Node44 -->
<g id="edge40" class="edge"><title>Node41&#45;&gt;Node44</title>
<path fill="none" stroke="midnightblue" d="M512.845,-182.072C519.032,-179.95 525.17,-177.699 531,-175.349 555.298,-165.557 581.731,-151.82 600.697,-141.382"/>
<polygon fill="midnightblue" stroke="midnightblue" points="511.508,-178.828 503.118,-185.297 513.711,-185.473 511.508,-178.828"/>
</g>
<!-- Node43&#45;&gt;Node44 -->
<g id="edge42" class="edge"><title>Node43&#45;&gt;Node44</title>
<path fill="none" stroke="midnightblue" d="M538.195,-138.787C547.906,-137.427 557.609,-136.068 566.846,-134.774"/>
<polygon fill="midnightblue" stroke="midnightblue" points="537.51,-135.348 528.092,-140.202 538.481,-142.281 537.51,-135.348"/>
</g>
</g>
</svg>
