<?xml version="1.0" encoding="UTF-8" standalone="no"?>
<!DOCTYPE svg PUBLIC "-//W3C//DTD SVG 1.1//EN"
 "http://www.w3.org/Graphics/SVG/1.1/DTD/svg11.dtd">
<!-- Generated by graphviz version 2.38.0 (20140413.2041)
 -->
<!-- Title: Graphical Class Hierarchy Pages: 1 -->
<svg width="235pt" height="209pt"
 viewBox="0.00 0.00 235.00 208.50" xmlns="http://www.w3.org/2000/svg" xmlns:xlink="http://www.w3.org/1999/xlink">
<g id="graph0" class="graph" transform="scale(1 1) rotate(0) translate(4 204.5)">
<title>Graphical Class Hierarchy</title>
<polygon fill="white" stroke="none" points="-4,4 -4,-204.5 231,-204.5 231,4 -4,4"/>
<!-- Node58 -->
<g id="node1" class="node"><title>Node58</title>
<polygon fill="white" stroke="#bfbfbf" points="0,-82 0,-101 57,-101 57,-82 0,-82"/>
<text text-anchor="middle" x="28.5" y="-89" font-family="Helvetica,sans-Serif" font-size="10.00">true_type</text>
</g>
<!-- Node0 -->
<g id="node2" class="node"><title>Node0</title>
<g id="a_node2"><a xlink:href="de/d56/structLeosac_1_1is__shared__ptr_3_01const_01std_1_1shared__ptr_3_01T_01_4_01_6_01_4.html" target="_top" xlink:title="Leosac::is_shared_ptr\l\&lt; const std::shared_ptr\l\&lt; T \&gt; &amp; \&gt;">
<polygon fill="white" stroke="black" points="101,-159 101,-200 219,-200 219,-159 101,-159"/>
<text text-anchor="start" x="109" y="-188" font-family="Helvetica,sans-Serif" font-size="10.00">Leosac::is_shared_ptr</text>
<text text-anchor="start" x="109" y="-177" font-family="Helvetica,sans-Serif" font-size="10.00">&lt; const std::shared_ptr</text>
<text text-anchor="middle" x="160" y="-166" font-family="Helvetica,sans-Serif" font-size="10.00">&lt; T &gt; &amp; &gt;</text>
</a>
</g>
</g>
<!-- Node58&#45;&gt;Node0 -->
<g id="edge1" class="edge"><title>Node58&#45;&gt;Node0</title>
<path fill="none" stroke="midnightblue" d="M45.3466,-108.62C57.5208,-121.081 75.2136,-137.76 93,-149.5 98.0422,-152.828 103.514,-155.963 109.077,-158.86"/>
<polygon fill="midnightblue" stroke="midnightblue" points="47.6355,-105.95 38.1977,-101.135 42.5733,-110.784 47.6355,-105.95"/>
</g>
<!-- Node60 -->
<g id="node3" class="node"><title>Node60</title>
<g id="a_node3"><a xlink:href="d8/d1b/structLeosac_1_1is__shared__ptr_3_01const_01std_1_1shared__ptr_3_01T_01_4_01_4.html" target="_top" xlink:title="Leosac::is_shared_ptr\l\&lt; const std::shared_ptr\l\&lt; T \&gt; \&gt;">
<polygon fill="white" stroke="black" points="101,-99 101,-140 219,-140 219,-99 101,-99"/>
<text text-anchor="start" x="109" y="-128" font-family="Helvetica,sans-Serif" font-size="10.00">Leosac::is_shared_ptr</text>
<text text-anchor="start" x="109" y="-117" font-family="Helvetica,sans-Serif" font-size="10.00">&lt; const std::shared_ptr</text>
<text text-anchor="middle" x="160" y="-106" font-family="Helvetica,sans-Serif" font-size="10.00">&lt; T &gt; &gt;</text>
</a>
</g>
</g>
<!-- Node58&#45;&gt;Node60 -->
<g id="edge2" class="edge"><title>Node58&#45;&gt;Node60</title>
<path fill="none" stroke="midnightblue" d="M67.3573,-99.6854C77.8699,-101.958 89.5326,-104.48 100.917,-106.942"/>
<polygon fill="midnightblue" stroke="midnightblue" points="67.7948,-96.1992 57.281,-97.5067 66.3155,-103.041 67.7948,-96.1992"/>
</g>
<!-- Node61 -->
<g id="node4" class="node"><title>Node61</title>
<g id="a_node4"><a xlink:href="d5/df2/structLeosac_1_1is__shared__ptr_3_01std_1_1shared__ptr_3_01T_01_4_01_6_01_4.html" target="_top" xlink:title="Leosac::is_shared_ptr\l\&lt; std::shared_ptr\&lt; T \&gt; &amp; \&gt;">
<polygon fill="white" stroke="black" points="93,-49.5 93,-79.5 227,-79.5 227,-49.5 93,-49.5"/>
<text text-anchor="start" x="101" y="-67.5" font-family="Helvetica,sans-Serif" font-size="10.00">Leosac::is_shared_ptr</text>
<text text-anchor="middle" x="160" y="-56.5" font-family="Helvetica,sans-Serif" font-size="10.00">&lt; std::shared_ptr&lt; T &gt; &amp; &gt;</text>
</a>
</g>
</g>
<!-- Node58&#45;&gt;Node61 -->
<g id="edge3" class="edge"><title>Node58&#45;&gt;Node61</title>
<path fill="none" stroke="midnightblue" d="M67.1512,-83.6499C75.276,-81.956 84.0955,-80.1172 92.9474,-78.2716"/>
<polygon fill="midnightblue" stroke="midnightblue" points="66.3561,-80.2404 57.281,-85.7078 67.7849,-87.093 66.3561,-80.2404"/>
</g>
<!-- Node62 -->
<g id="node5" class="node"><title>Node62</title>
<g id="a_node5"><a xlink:href="d8/df9/structLeosac_1_1is__shared__ptr_3_01std_1_1shared__ptr_3_01T_01_4_01_4.html" target="_top" xlink:title="Leosac::is_shared_ptr\l\&lt; std::shared_ptr\&lt; T \&gt; \&gt;">
<polygon fill="white" stroke="black" points="98,-0.5 98,-30.5 222,-30.5 222,-0.5 98,-0.5"/>
<text text-anchor="start" x="106" y="-18.5" font-family="Helvetica,sans-Serif" font-size="10.00">Leosac::is_shared_ptr</text>
<text text-anchor="middle" x="160" y="-7.5" font-family="Helvetica,sans-Serif" font-size="10.00">&lt; std::shared_ptr&lt; T &gt; &gt;</text>
</a>
</g>
</g>
<!-- Node58&#45;&gt;Node62 -->
<g id="edge4" class="edge"><title>Node58&#45;&gt;Node62</title>
<path fill="none" stroke="midnightblue" d="M47.139,-74.7985C59.3037,-63.9431 76.2445,-50.0796 93,-40.5 99.3822,-36.8511 106.398,-33.5393 113.4,-30.6071"/>
<polygon fill="midnightblue" stroke="midnightblue" points="44.5608,-72.4133 39.5412,-81.7436 49.2837,-77.58 44.5608,-72.4133"/>
</g>
</g>
</svg>
