<?xml version="1.0" encoding="UTF-8" standalone="no"?>
<!DOCTYPE svg PUBLIC "-//W3C//DTD SVG 1.1//EN"
 "http://www.w3.org/Graphics/SVG/1.1/DTD/svg11.dtd">
<!-- Generated by graphviz version 2.38.0 (20140413.2041)
 -->
<!-- Title: src/tools/bufferutils.hpp Pages: 1 -->
<svg width="487pt" height="229pt"
 viewBox="0.00 0.00 486.50 229.00" xmlns="http://www.w3.org/2000/svg" xmlns:xlink="http://www.w3.org/1999/xlink">
<g id="graph0" class="graph" transform="scale(1 1) rotate(0) translate(4 225)">
<title>src/tools/bufferutils.hpp</title>
<polygon fill="white" stroke="none" points="-4,4 -4,-225 482.5,-225 482.5,4 -4,4"/>
<!-- Node2 -->
<g id="node1" class="node"><title>Node2</title>
<polygon fill="#bfbfbf" stroke="black" points="196.5,-201.5 196.5,-220.5 315.5,-220.5 315.5,-201.5 196.5,-201.5"/>
<text text-anchor="middle" x="256" y="-208.5" font-family="Helvetica,sans-Serif" font-size="10.00">src/tools/bufferutils.hpp</text>
</g>
<!-- Node3 -->
<g id="node2" class="node"><title>Node3</title>
<g id="a_node2"><a xlink:href="../../dd/d17/rplethpacket_8hpp.html" target="_top" xlink:title="Rpleth packet class. ">
<polygon fill="white" stroke="black" points="274.5,-134.5 274.5,-164.5 371.5,-164.5 371.5,-134.5 274.5,-134.5"/>
<text text-anchor="start" x="282.5" y="-152.5" font-family="Helvetica,sans-Serif" font-size="10.00">src/modules/rpleth</text>
<text text-anchor="middle" x="323" y="-141.5" font-family="Helvetica,sans-Serif" font-size="10.00">/rplethpacket.hpp</text>
</a>
</g>
</g>
<!-- Node2&#45;&gt;Node3 -->
<g id="edge1" class="edge"><title>Node2&#45;&gt;Node3</title>
<path fill="none" stroke="midnightblue" d="M273.289,-194.646C283.762,-185.346 297.02,-173.572 307.209,-164.523"/>
<polygon fill="midnightblue" stroke="midnightblue" points="270.753,-192.218 265.599,-201.475 275.401,-197.452 270.753,-192.218"/>
</g>
<!-- Node11 -->
<g id="node10" class="node"><title>Node11</title>
<g id="a_node10"><a xlink:href="../../d4/d66/circularbuffer_8hpp.html" target="_top" xlink:title="simple circular buffer class ">
<polygon fill="white" stroke="black" points="124,-134.5 124,-164.5 256,-164.5 256,-134.5 124,-134.5"/>
<text text-anchor="start" x="132" y="-152.5" font-family="Helvetica,sans-Serif" font-size="10.00">src/modules/rpleth</text>
<text text-anchor="middle" x="190" y="-141.5" font-family="Helvetica,sans-Serif" font-size="10.00">/network/circularbuffer.hpp</text>
</a>
</g>
</g>
<!-- Node2&#45;&gt;Node11 -->
<g id="edge11" class="edge"><title>Node2&#45;&gt;Node11</title>
<path fill="none" stroke="midnightblue" d="M238.969,-194.646C228.652,-185.346 215.592,-173.572 205.555,-164.523"/>
<polygon fill="midnightblue" stroke="midnightblue" points="236.773,-197.379 246.544,-201.475 241.46,-192.18 236.773,-197.379"/>
</g>
<!-- Node4 -->
<g id="node3" class="node"><title>Node4</title>
<g id="a_node3"><a xlink:href="../../d3/d0f/RplethModule_8hpp.html" target="_top" xlink:title="src/modules/rpleth\l/RplethModule.hpp">
<polygon fill="white" stroke="black" points="150,-67.5 150,-97.5 248,-97.5 248,-67.5 150,-67.5"/>
<text text-anchor="start" x="158" y="-85.5" font-family="Helvetica,sans-Serif" font-size="10.00">src/modules/rpleth</text>
<text text-anchor="middle" x="199" y="-74.5" font-family="Helvetica,sans-Serif" font-size="10.00">/RplethModule.hpp</text>
</a>
</g>
</g>
<!-- Node3&#45;&gt;Node4 -->
<g id="edge2" class="edge"><title>Node3&#45;&gt;Node4</title>
<path fill="none" stroke="midnightblue" d="M287.163,-129.714C267.606,-119.463 243.798,-106.983 225.854,-97.5765"/>
<polygon fill="midnightblue" stroke="midnightblue" points="285.612,-132.853 296.094,-134.396 288.862,-126.653 285.612,-132.853"/>
</g>
<!-- Node8 -->
<g id="node7" class="node"><title>Node8</title>
<g id="a_node7"><a xlink:href="../../d9/dda/rplethprotocol_8hpp.html" target="_top" xlink:title="Rpleth protocol implementation. ">
<polygon fill="white" stroke="black" points="266.5,-67.5 266.5,-97.5 363.5,-97.5 363.5,-67.5 266.5,-67.5"/>
<text text-anchor="start" x="274.5" y="-85.5" font-family="Helvetica,sans-Serif" font-size="10.00">src/modules/rpleth</text>
<text text-anchor="middle" x="315" y="-74.5" font-family="Helvetica,sans-Serif" font-size="10.00">/rplethprotocol.hpp</text>
</a>
</g>
</g>
<!-- Node3&#45;&gt;Node8 -->
<g id="edge6" class="edge"><title>Node3&#45;&gt;Node8</title>
<path fill="none" stroke="midnightblue" d="M320.034,-124.403C318.922,-115.37 317.696,-105.408 316.732,-97.5765"/>
<polygon fill="midnightblue" stroke="midnightblue" points="316.569,-124.898 321.264,-134.396 323.516,-124.043 316.569,-124.898"/>
</g>
<!-- Node10 -->
<g id="node9" class="node"><title>Node10</title>
<g id="a_node9"><a xlink:href="../../d7/dab/rplethpacket_8cpp.html" target="_top" xlink:title="Rpleth packet class. ">
<polygon fill="white" stroke="black" points="381.5,-67.5 381.5,-97.5 478.5,-97.5 478.5,-67.5 381.5,-67.5"/>
<text text-anchor="start" x="389.5" y="-85.5" font-family="Helvetica,sans-Serif" font-size="10.00">src/modules/rpleth</text>
<text text-anchor="middle" x="430" y="-74.5" font-family="Helvetica,sans-Serif" font-size="10.00">/rplethpacket.cpp</text>
</a>
</g>
</g>
<!-- Node3&#45;&gt;Node10 -->
<g id="edge10" class="edge"><title>Node3&#45;&gt;Node10</title>
<path fill="none" stroke="midnightblue" d="M355.075,-129.015C371.726,-118.9 391.694,-106.77 406.828,-97.5765"/>
<polygon fill="midnightblue" stroke="midnightblue" points="352.947,-126.213 346.217,-134.396 356.581,-132.195 352.947,-126.213"/>
</g>
<!-- Node5 -->
<g id="node4" class="node"><title>Node5</title>
<g id="a_node4"><a xlink:href="../../d1/d31/rpleth_2init_8cpp.html" target="_top" xlink:title="src/modules/rpleth\l/init.cpp">
<polygon fill="white" stroke="black" points="38.5,-0.5 38.5,-30.5 135.5,-30.5 135.5,-0.5 38.5,-0.5"/>
<text text-anchor="start" x="46.5" y="-18.5" font-family="Helvetica,sans-Serif" font-size="10.00">src/modules/rpleth</text>
<text text-anchor="middle" x="87" y="-7.5" font-family="Helvetica,sans-Serif" font-size="10.00">/init.cpp</text>
</a>
</g>
</g>
<!-- Node4&#45;&gt;Node5 -->
<g id="edge3" class="edge"><title>Node4&#45;&gt;Node5</title>
<path fill="none" stroke="midnightblue" d="M165.909,-62.2956C148.384,-52.1248 127.242,-39.8549 111.255,-30.5765"/>
<polygon fill="midnightblue" stroke="midnightblue" points="164.292,-65.4036 174.698,-67.396 167.806,-59.3493 164.292,-65.4036"/>
</g>
<!-- Node6 -->
<g id="node5" class="node"><title>Node6</title>
<g id="a_node5"><a xlink:href="../../d8/dba/RplethModule_8cpp.html" target="_top" xlink:title="src/modules/rpleth\l/RplethModule.cpp">
<polygon fill="white" stroke="black" points="154,-0.5 154,-30.5 252,-30.5 252,-0.5 154,-0.5"/>
<text text-anchor="start" x="162" y="-18.5" font-family="Helvetica,sans-Serif" font-size="10.00">src/modules/rpleth</text>
<text text-anchor="middle" x="203" y="-7.5" font-family="Helvetica,sans-Serif" font-size="10.00">/RplethModule.cpp</text>
</a>
</g>
</g>
<!-- Node4&#45;&gt;Node6 -->
<g id="edge4" class="edge"><title>Node4&#45;&gt;Node6</title>
<path fill="none" stroke="midnightblue" d="M200.483,-57.4029C201.039,-48.3703 201.652,-38.4078 202.134,-30.5765"/>
<polygon fill="midnightblue" stroke="midnightblue" points="196.989,-57.1998 199.868,-67.396 203.976,-57.6299 196.989,-57.1998"/>
</g>
<!-- Node7 -->
<g id="node6" class="node"><title>Node7</title>
<g id="a_node6"><a xlink:href="../../db/d44/Rpleth_8cpp.html" target="_top" xlink:title="test/Rpleth.cpp">
<polygon fill="white" stroke="black" points="270.5,-6 270.5,-25 353.5,-25 353.5,-6 270.5,-6"/>
<text text-anchor="middle" x="312" y="-13" font-family="Helvetica,sans-Serif" font-size="10.00">test/Rpleth.cpp</text>
</a>
</g>
</g>
<!-- Node4&#45;&gt;Node7 -->
<g id="edge5" class="edge"><title>Node4&#45;&gt;Node7</title>
<path fill="none" stroke="midnightblue" d="M232.366,-62.3071C253.891,-49.9256 280.83,-34.4296 297.211,-25.007"/>
<polygon fill="midnightblue" stroke="midnightblue" points="230.442,-59.3759 223.519,-67.396 233.933,-65.4437 230.442,-59.3759"/>
</g>
<!-- Node8&#45;&gt;Node6 -->
<g id="edge7" class="edge"><title>Node8&#45;&gt;Node6</title>
<path fill="none" stroke="midnightblue" d="M281.909,-62.2956C264.384,-52.1248 243.242,-39.8549 227.255,-30.5765"/>
<polygon fill="midnightblue" stroke="midnightblue" points="280.292,-65.4036 290.698,-67.396 283.806,-59.3493 280.292,-65.4036"/>
</g>
<!-- Node8&#45;&gt;Node7 -->
<g id="edge9" class="edge"><title>Node8&#45;&gt;Node7</title>
<path fill="none" stroke="midnightblue" d="M313.881,-57.2495C313.362,-46.017 312.779,-33.3767 312.401,-25.1945"/>
<polygon fill="midnightblue" stroke="midnightblue" points="310.392,-57.568 314.349,-67.396 317.384,-57.2452 310.392,-57.568"/>
</g>
<!-- Node9 -->
<g id="node8" class="node"><title>Node9</title>
<g id="a_node8"><a xlink:href="../../d6/d0b/rplethprotocol_8cpp.html" target="_top" xlink:title="Rpleth protocol implementation. ">
<polygon fill="white" stroke="black" points="371.5,-0.5 371.5,-30.5 468.5,-30.5 468.5,-0.5 371.5,-0.5"/>
<text text-anchor="start" x="379.5" y="-18.5" font-family="Helvetica,sans-Serif" font-size="10.00">src/modules/rpleth</text>
<text text-anchor="middle" x="420" y="-7.5" font-family="Helvetica,sans-Serif" font-size="10.00">/rplethprotocol.cpp</text>
</a>
</g>
</g>
<!-- Node8&#45;&gt;Node9 -->
<g id="edge8" class="edge"><title>Node8&#45;&gt;Node9</title>
<path fill="none" stroke="midnightblue" d="M346.476,-62.0151C362.815,-51.8999 382.41,-39.7698 397.261,-30.5765"/>
<polygon fill="midnightblue" stroke="midnightblue" points="344.444,-59.1564 337.783,-67.396 348.128,-65.1083 344.444,-59.1564"/>
</g>
<!-- Node11&#45;&gt;Node4 -->
<g id="edge12" class="edge"><title>Node11&#45;&gt;Node4</title>
<path fill="none" stroke="midnightblue" d="M193.337,-124.403C194.587,-115.37 195.967,-105.408 197.051,-97.5765"/>
<polygon fill="midnightblue" stroke="midnightblue" points="189.858,-124.01 191.953,-134.396 196.791,-124.971 189.858,-124.01"/>
</g>
<!-- Node11&#45;&gt;Node8 -->
<g id="edge14" class="edge"><title>Node11&#45;&gt;Node8</title>
<path fill="none" stroke="midnightblue" d="M226.126,-129.714C245.84,-119.463 269.841,-106.983 287.93,-97.5765"/>
<polygon fill="midnightblue" stroke="midnightblue" points="224.381,-126.677 217.123,-134.396 227.61,-132.888 224.381,-126.677"/>
</g>
<!-- Node12 -->
<g id="node11" class="node"><title>Node12</title>
<g id="a_node11"><a xlink:href="../../dc/dda/circularbuffer_8cpp.html" target="_top" xlink:title="simple circular buffer class ">
<polygon fill="white" stroke="black" points="0,-67.5 0,-97.5 132,-97.5 132,-67.5 0,-67.5"/>
<text text-anchor="start" x="8" y="-85.5" font-family="Helvetica,sans-Serif" font-size="10.00">src/modules/rpleth</text>
<text text-anchor="middle" x="66" y="-74.5" font-family="Helvetica,sans-Serif" font-size="10.00">/network/circularbuffer.cpp</text>
</a>
</g>
</g>
<!-- Node11&#45;&gt;Node12 -->
<g id="edge13" class="edge"><title>Node11&#45;&gt;Node12</title>
<path fill="none" stroke="midnightblue" d="M154.163,-129.714C134.606,-119.463 110.798,-106.983 92.8536,-97.5765"/>
<polygon fill="midnightblue" stroke="midnightblue" points="152.612,-132.853 163.094,-134.396 155.862,-126.653 152.612,-132.853"/>
</g>
</g>
</svg>
