<?xml version="1.0" encoding="UTF-8" standalone="no"?>
<!DOCTYPE svg PUBLIC "-//W3C//DTD SVG 1.1//EN"
 "http://www.w3.org/Graphics/SVG/1.1/DTD/svg11.dtd">
<!-- Generated by graphviz version 2.38.0 (20140413.2041)
 -->
<!-- Title: ModuleException Pages: 1 -->
<svg width="286pt" height="465pt"
 viewBox="0.00 0.00 285.50 465.00" xmlns="http://www.w3.org/2000/svg" xmlns:xlink="http://www.w3.org/1999/xlink">
<g id="graph0" class="graph" transform="scale(1 1) rotate(0) translate(4 461)">
<title>ModuleException</title>
<polygon fill="white" stroke="none" points="-4,4 -4,-461 281.5,-461 281.5,4 -4,4"/>
<!-- Node3 -->
<g id="node1" class="node"><title>Node3</title>
<polygon fill="#bfbfbf" stroke="black" points="60,-0.5 60,-19.5 152,-19.5 152,-0.5 60,-0.5"/>
<text text-anchor="middle" x="106" y="-7.5" font-family="Helvetica,sans-Serif" font-size="10.00">ModuleException</text>
</g>
<!-- Node4 -->
<g id="node2" class="node"><title>Node4</title>
<g id="a_node2"><a xlink:href="../../d7/d0e/classLEOSACException.html" target="_top" xlink:title="A base class for Leosac specific exception. ">
<polygon fill="white" stroke="black" points="55.5,-57.5 55.5,-76.5 156.5,-76.5 156.5,-57.5 55.5,-57.5"/>
<text text-anchor="middle" x="106" y="-64.5" font-family="Helvetica,sans-Serif" font-size="10.00">LEOSACException</text>
</a>
</g>
</g>
<!-- Node4&#45;&gt;Node3 -->
<g id="edge1" class="edge"><title>Node4&#45;&gt;Node3</title>
<path fill="none" stroke="midnightblue" d="M106,-47.1166C106,-37.8173 106,-27.0557 106,-19.7149"/>
<polygon fill="midnightblue" stroke="midnightblue" points="102.5,-47.4062 106,-57.4062 109.5,-47.4063 102.5,-47.4062"/>
</g>
<!-- Node5 -->
<g id="node3" class="node"><title>Node5</title>
<g id="a_node3"><a xlink:title="STL class. ">
<polygon fill="white" stroke="#bfbfbf" points="0,-124.5 0,-143.5 78,-143.5 78,-124.5 0,-124.5"/>
<text text-anchor="middle" x="39" y="-131.5" font-family="Helvetica,sans-Serif" font-size="10.00">std::exception</text>
</a>
</g>
</g>
<!-- Node5&#45;&gt;Node4 -->
<g id="edge2" class="edge"><title>Node5&#45;&gt;Node4</title>
<path fill="none" stroke="midnightblue" d="M55.4956,-116.997C68.635,-104.25 86.5239,-86.8947 97.1072,-76.6273"/>
<polygon fill="midnightblue" stroke="midnightblue" points="52.7762,-114.759 48.0359,-124.234 57.6504,-119.783 52.7762,-114.759"/>
</g>
<!-- Node6 -->
<g id="node4" class="node"><title>Node6</title>
<g id="a_node4"><a xlink:href="../../d2/de3/classLeosac_1_1Tools_1_1Stacktrace.html" target="_top" xlink:title="Store information about a stacktrace at a given point in the program execution. ">
<polygon fill="white" stroke="black" points="140.5,-124.5 140.5,-143.5 271.5,-143.5 271.5,-124.5 140.5,-124.5"/>
<text text-anchor="middle" x="206" y="-131.5" font-family="Helvetica,sans-Serif" font-size="10.00">Leosac::Tools::Stacktrace</text>
</a>
</g>
</g>
<!-- Node6&#45;&gt;Node4 -->
<g id="edge3" class="edge"><title>Node6&#45;&gt;Node4</title>
<path fill="none" stroke="#9a32cd" stroke-dasharray="5,2" d="M184.106,-118.769C164.312,-105.903 135.814,-87.379 119.273,-76.6273"/>
<polygon fill="#9a32cd" stroke="#9a32cd" points="182.222,-121.718 192.514,-124.234 186.037,-115.849 182.222,-121.718"/>
<text text-anchor="middle" x="176.5" y="-98" font-family="Helvetica,sans-Serif" font-size="10.00"> trace_</text>
</g>
<!-- Node7 -->
<g id="node5" class="node"><title>Node7</title>
<polygon fill="white" stroke="#bfbfbf" points="173,-191.5 173,-232.5 277,-232.5 277,-191.5 173,-191.5"/>
<text text-anchor="start" x="181" y="-220.5" font-family="Helvetica,sans-Serif" font-size="10.00">std::vector&lt; Leosac</text>
<text text-anchor="start" x="181" y="-209.5" font-family="Helvetica,sans-Serif" font-size="10.00">::Tools::Stacktrace</text>
<text text-anchor="middle" x="225" y="-198.5" font-family="Helvetica,sans-Serif" font-size="10.00">::Frame &gt;</text>
</g>
<!-- Node7&#45;&gt;Node6 -->
<g id="edge4" class="edge"><title>Node7&#45;&gt;Node6</title>
<path fill="none" stroke="#9a32cd" stroke-dasharray="5,2" d="M217.613,-181.451C214.214,-167.855 210.435,-152.739 208.138,-143.552"/>
<polygon fill="#9a32cd" stroke="#9a32cd" points="214.286,-182.576 220.107,-191.428 221.077,-180.878 214.286,-182.576"/>
<text text-anchor="middle" x="231.5" y="-165" font-family="Helvetica,sans-Serif" font-size="10.00"> stack_</text>
</g>
<!-- Node8 -->
<g id="node6" class="node"><title>Node8</title>
<g id="a_node6"><a xlink:href="../../d8/d1d/structLeosac_1_1Tools_1_1Stacktrace_1_1Frame.html" target="_top" xlink:title="Leosac::Tools::Stacktrace\l::Frame">
<polygon fill="white" stroke="black" points="146.5,-280.5 146.5,-310.5 277.5,-310.5 277.5,-280.5 146.5,-280.5"/>
<text text-anchor="start" x="154.5" y="-298.5" font-family="Helvetica,sans-Serif" font-size="10.00">Leosac::Tools::Stacktrace</text>
<text text-anchor="middle" x="212" y="-287.5" font-family="Helvetica,sans-Serif" font-size="10.00">::Frame</text>
</a>
</g>
</g>
<!-- Node8&#45;&gt;Node7 -->
<g id="edge5" class="edge"><title>Node8&#45;&gt;Node7</title>
<path fill="none" stroke="#9a32cd" stroke-dasharray="5,2" d="M215.897,-270.066C217.812,-258.061 220.088,-243.794 221.885,-232.528"/>
<polygon fill="#9a32cd" stroke="#9a32cd" points="212.383,-269.877 214.264,-280.304 219.296,-270.98 212.383,-269.877"/>
<text text-anchor="middle" x="239.5" y="-254" font-family="Helvetica,sans-Serif" font-size="10.00"> elements</text>
</g>
<!-- Node9 -->
<g id="node7" class="node"><title>Node9</title>
<g id="a_node7"><a xlink:title="STL class. ">
<polygon fill="white" stroke="#bfbfbf" points="92,-369.5 92,-388.5 152,-388.5 152,-369.5 92,-369.5"/>
<text text-anchor="middle" x="122" y="-376.5" font-family="Helvetica,sans-Serif" font-size="10.00">std::string</text>
</a>
</g>
</g>
<!-- Node9&#45;&gt;Node4 -->
<g id="edge8" class="edge"><title>Node9&#45;&gt;Node4</title>
<path fill="none" stroke="#9a32cd" stroke-dasharray="5,2" d="M116.144,-359.145C111.576,-342.756 106,-318.291 106,-296.5 106,-296.5 106,-296.5 106,-133 106,-112.913 106,-89.3347 106,-76.8314"/>
<polygon fill="#9a32cd" stroke="#9a32cd" points="112.884,-360.463 119.065,-369.067 119.599,-358.486 112.884,-360.463"/>
<text text-anchor="middle" x="130.5" y="-209.5" font-family="Helvetica,sans-Serif" font-size="10.00"> message_</text>
</g>
<!-- Node9&#45;&gt;Node8 -->
<g id="edge6" class="edge"><title>Node9&#45;&gt;Node8</title>
<path fill="none" stroke="#9a32cd" stroke-dasharray="5,2" d="M139.45,-362.198C155.975,-347.234 180.557,-324.974 196.432,-310.597"/>
<polygon fill="#9a32cd" stroke="#9a32cd" points="136.695,-359.971 131.632,-369.278 141.393,-365.16 136.695,-359.971"/>
<text text-anchor="middle" x="196.5" y="-343" font-family="Helvetica,sans-Serif" font-size="10.00"> function_</text>
<text text-anchor="middle" x="196.5" y="-332" font-family="Helvetica,sans-Serif" font-size="10.00">file_</text>
</g>
<!-- Node10 -->
<g id="node8" class="node"><title>Node10</title>
<g id="a_node8"><a xlink:title="STL class. ">
<polygon fill="white" stroke="#bfbfbf" points="74.5,-426.5 74.5,-456.5 169.5,-456.5 169.5,-426.5 74.5,-426.5"/>
<text text-anchor="start" x="82.5" y="-444.5" font-family="Helvetica,sans-Serif" font-size="10.00">std::basic_string&lt;</text>
<text text-anchor="middle" x="122" y="-433.5" font-family="Helvetica,sans-Serif" font-size="10.00"> char &gt;</text>
</a>
</g>
</g>
<!-- Node10&#45;&gt;Node9 -->
<g id="edge7" class="edge"><title>Node10&#45;&gt;Node9</title>
<path fill="none" stroke="midnightblue" d="M122,-416.352C122,-406.513 122,-395.775 122,-388.54"/>
<polygon fill="midnightblue" stroke="midnightblue" points="118.5,-416.468 122,-426.468 125.5,-416.468 118.5,-416.468"/>
</g>
</g>
</svg>
