<?xml version="1.0" encoding="UTF-8" standalone="no"?>
<!DOCTYPE svg PUBLIC "-//W3C//DTD SVG 1.1//EN"
 "http://www.w3.org/Graphics/SVG/1.1/DTD/svg11.dtd">
<!-- Generated by graphviz version 2.38.0 (20140413.2041)
 -->
<!-- Title: src/core/update/UpdateService.hpp Pages: 1 -->
<svg width="1576pt" height="106pt"
 viewBox="0.00 0.00 1576.00 106.00" xmlns="http://www.w3.org/2000/svg" xmlns:xlink="http://www.w3.org/1999/xlink">
<g id="graph0" class="graph" transform="scale(1 1) rotate(0) translate(4 102)">
<title>src/core/update/UpdateService.hpp</title>
<polygon fill="white" stroke="none" points="-4,4 -4,-102 1572,-102 1572,4 -4,4"/>
<!-- Node53 -->
<g id="node1" class="node"><title>Node53</title>
<polygon fill="#bfbfbf" stroke="black" points="702,-78.5 702,-97.5 872,-97.5 872,-78.5 702,-78.5"/>
<text text-anchor="middle" x="787" y="-85.5" font-family="Helvetica,sans-Serif" font-size="10.00">src/core/update/UpdateService.hpp</text>
</g>
<!-- Node54 -->
<g id="node2" class="node"><title>Node54</title>
<g id="a_node2"><a xlink:href="../../dd/d24/kernel_8cpp.html" target="_top" xlink:title="src/core/kernel.cpp">
<polygon fill="white" stroke="black" points="0,-11.5 0,-30.5 100,-30.5 100,-11.5 0,-11.5"/>
<text text-anchor="middle" x="50" y="-18.5" font-family="Helvetica,sans-Serif" font-size="10.00">src/core/kernel.cpp</text>
</a>
</g>
</g>
<!-- Node53&#45;&gt;Node54 -->
<g id="edge1" class="edge"><title>Node53&#45;&gt;Node54</title>
<path fill="none" stroke="midnightblue" d="M691.603,-83.7334C532.007,-77.7544 217.682,-63.6409 109,-42 96.0591,-39.4232 82.0529,-34.7602 70.9358,-30.5846"/>
<polygon fill="midnightblue" stroke="midnightblue" points="691.765,-87.2418 701.888,-84.1155 692.025,-80.2466 691.765,-87.2418"/>
</g>
<!-- Node55 -->
<g id="node3" class="node"><title>Node55</title>
<g id="a_node3"><a xlink:href="../../d8/d0b/UpdateDescriptorSerializer_8cpp.html" target="_top" xlink:title="src/core/update/serializers\l/UpdateDescriptorSerializer.cpp">
<polygon fill="white" stroke="black" points="118.5,-6 118.5,-36 273.5,-36 273.5,-6 118.5,-6"/>
<text text-anchor="start" x="126.5" y="-24" font-family="Helvetica,sans-Serif" font-size="10.00">src/core/update/serializers</text>
<text text-anchor="middle" x="196" y="-13" font-family="Helvetica,sans-Serif" font-size="10.00">/UpdateDescriptorSerializer.cpp</text>
</a>
</g>
</g>
<!-- Node53&#45;&gt;Node55 -->
<g id="edge2" class="edge"><title>Node53&#45;&gt;Node55</title>
<path fill="none" stroke="midnightblue" d="M691.597,-82.3808C589.885,-76.5482 424.338,-64.4472 283,-42 272.898,-40.3956 262.222,-38.2891 251.94,-36.0461"/>
<polygon fill="midnightblue" stroke="midnightblue" points="691.665,-85.8902 701.847,-82.9597 692.06,-78.9013 691.665,-85.8902"/>
</g>
<!-- Node56 -->
<g id="node4" class="node"><title>Node56</title>
<g id="a_node4"><a xlink:href="../../de/dd9/UpdateService_8cpp.html" target="_top" xlink:title="src/core/update/UpdateService.cpp">
<polygon fill="white" stroke="black" points="292,-11.5 292,-30.5 462,-30.5 462,-11.5 292,-11.5"/>
<text text-anchor="middle" x="377" y="-18.5" font-family="Helvetica,sans-Serif" font-size="10.00">src/core/update/UpdateService.cpp</text>
</a>
</g>
</g>
<!-- Node53&#45;&gt;Node56 -->
<g id="edge3" class="edge"><title>Node53&#45;&gt;Node56</title>
<path fill="none" stroke="midnightblue" d="M707.402,-77.1921C643.359,-68.9338 551.148,-56.2161 471,-42 452.272,-38.6781 431.583,-34.3487 414.393,-30.5679"/>
<polygon fill="midnightblue" stroke="midnightblue" points="707.068,-80.6779 717.432,-78.4788 707.959,-73.7348 707.068,-80.6779"/>
</g>
<!-- Node57 -->
<g id="node5" class="node"><title>Node57</title>
<g id="a_node5"><a xlink:href="../../d1/deb/AckUpdate_8cpp.html" target="_top" xlink:title="src/modules/websock\l&#45;api/api/update&#45;management\l/AckUpdate.cpp">
<polygon fill="white" stroke="black" points="480,-0.5 480,-41.5 620,-41.5 620,-0.5 480,-0.5"/>
<text text-anchor="start" x="488" y="-29.5" font-family="Helvetica,sans-Serif" font-size="10.00">src/modules/websock</text>
<text text-anchor="start" x="488" y="-18.5" font-family="Helvetica,sans-Serif" font-size="10.00">&#45;api/api/update&#45;management</text>
<text text-anchor="middle" x="550" y="-7.5" font-family="Helvetica,sans-Serif" font-size="10.00">/AckUpdate.cpp</text>
</a>
</g>
</g>
<!-- Node53&#45;&gt;Node57 -->
<g id="edge4" class="edge"><title>Node53&#45;&gt;Node57</title>
<path fill="none" stroke="midnightblue" d="M745.76,-75.6894C711.154,-66.1985 660.966,-52.4338 620.072,-41.2181"/>
<polygon fill="midnightblue" stroke="midnightblue" points="744.959,-79.0988 755.528,-78.3685 746.81,-72.3481 744.959,-79.0988"/>
</g>
<!-- Node58 -->
<g id="node6" class="node"><title>Node58</title>
<g id="a_node6"><a xlink:href="../../d0/dcd/CancelUpdate_8cpp.html" target="_top" xlink:title="src/modules/websock\l&#45;api/api/update&#45;management\l/CancelUpdate.cpp">
<polygon fill="white" stroke="black" points="638,-0.5 638,-41.5 778,-41.5 778,-0.5 638,-0.5"/>
<text text-anchor="start" x="646" y="-29.5" font-family="Helvetica,sans-Serif" font-size="10.00">src/modules/websock</text>
<text text-anchor="start" x="646" y="-18.5" font-family="Helvetica,sans-Serif" font-size="10.00">&#45;api/api/update&#45;management</text>
<text text-anchor="middle" x="708" y="-7.5" font-family="Helvetica,sans-Serif" font-size="10.00">/CancelUpdate.cpp</text>
</a>
</g>
</g>
<!-- Node53&#45;&gt;Node58 -->
<g id="edge5" class="edge"><title>Node53&#45;&gt;Node58</title>
<path fill="none" stroke="midnightblue" d="M768.313,-71.6244C757.376,-62.6259 743.46,-51.1758 731.751,-41.5421"/>
<polygon fill="midnightblue" stroke="midnightblue" points="766.4,-74.5829 776.346,-78.2338 770.847,-69.1774 766.4,-74.5829"/>
</g>
<!-- Node59 -->
<g id="node7" class="node"><title>Node59</title>
<g id="a_node7"><a xlink:href="../../d4/d2d/CheckUpdate_8cpp.html" target="_top" xlink:title="src/modules/websock\l&#45;api/api/update&#45;management\l/CheckUpdate.cpp">
<polygon fill="white" stroke="black" points="796,-0.5 796,-41.5 936,-41.5 936,-0.5 796,-0.5"/>
<text text-anchor="start" x="804" y="-29.5" font-family="Helvetica,sans-Serif" font-size="10.00">src/modules/websock</text>
<text text-anchor="start" x="804" y="-18.5" font-family="Helvetica,sans-Serif" font-size="10.00">&#45;api/api/update&#45;management</text>
<text text-anchor="middle" x="866" y="-7.5" font-family="Helvetica,sans-Serif" font-size="10.00">/CheckUpdate.cpp</text>
</a>
</g>
</g>
<!-- Node53&#45;&gt;Node59 -->
<g id="edge6" class="edge"><title>Node53&#45;&gt;Node59</title>
<path fill="none" stroke="midnightblue" d="M805.687,-71.6244C816.624,-62.6259 830.54,-51.1758 842.249,-41.5421"/>
<polygon fill="midnightblue" stroke="midnightblue" points="803.153,-69.1774 797.654,-78.2338 807.6,-74.5829 803.153,-69.1774"/>
</g>
<!-- Node60 -->
<g id="node8" class="node"><title>Node60</title>
<g id="a_node8"><a xlink:href="../../dd/d7b/CreateUpdate_8cpp.html" target="_top" xlink:title="src/modules/websock\l&#45;api/api/update&#45;management\l/CreateUpdate.cpp">
<polygon fill="white" stroke="black" points="954,-0.5 954,-41.5 1094,-41.5 1094,-0.5 954,-0.5"/>
<text text-anchor="start" x="962" y="-29.5" font-family="Helvetica,sans-Serif" font-size="10.00">src/modules/websock</text>
<text text-anchor="start" x="962" y="-18.5" font-family="Helvetica,sans-Serif" font-size="10.00">&#45;api/api/update&#45;management</text>
<text text-anchor="middle" x="1024" y="-7.5" font-family="Helvetica,sans-Serif" font-size="10.00">/CreateUpdate.cpp</text>
</a>
</g>
</g>
<!-- Node53&#45;&gt;Node60 -->
<g id="edge7" class="edge"><title>Node53&#45;&gt;Node60</title>
<path fill="none" stroke="midnightblue" d="M828.24,-75.6894C862.846,-66.1985 913.034,-52.4338 953.928,-41.2181"/>
<polygon fill="midnightblue" stroke="midnightblue" points="827.19,-72.3481 818.472,-78.3685 829.041,-79.0988 827.19,-72.3481"/>
</g>
<!-- Node61 -->
<g id="node9" class="node"><title>Node61</title>
<g id="a_node9"><a xlink:href="../../d9/d03/PendingUpdateGet_8cpp.html" target="_top" xlink:title="src/modules/websock\l&#45;api/api/update&#45;management\l/PendingUpdateGet.cpp">
<polygon fill="white" stroke="black" points="1112,-0.5 1112,-41.5 1252,-41.5 1252,-0.5 1112,-0.5"/>
<text text-anchor="start" x="1120" y="-29.5" font-family="Helvetica,sans-Serif" font-size="10.00">src/modules/websock</text>
<text text-anchor="start" x="1120" y="-18.5" font-family="Helvetica,sans-Serif" font-size="10.00">&#45;api/api/update&#45;management</text>
<text text-anchor="middle" x="1182" y="-7.5" font-family="Helvetica,sans-Serif" font-size="10.00">/PendingUpdateGet.cpp</text>
</a>
</g>
</g>
<!-- Node53&#45;&gt;Node61 -->
<g id="edge8" class="edge"><title>Node53&#45;&gt;Node61</title>
<path fill="none" stroke="midnightblue" d="M873.057,-77.2579C936.834,-69.4297 1025.72,-57.24 1103,-42 1105.91,-41.4252 1108.88,-40.8101 1111.88,-40.1652"/>
<polygon fill="midnightblue" stroke="midnightblue" points="872.547,-73.7941 863.043,-78.4766 873.393,-80.7429 872.547,-73.7941"/>
</g>
<!-- Node62 -->
<g id="node10" class="node"><title>Node62</title>
<g id="a_node10"><a xlink:href="../../d0/d36/UpdateGet_8cpp.html" target="_top" xlink:title="src/modules/websock\l&#45;api/api/update&#45;management\l/UpdateGet.cpp">
<polygon fill="white" stroke="black" points="1270,-0.5 1270,-41.5 1410,-41.5 1410,-0.5 1270,-0.5"/>
<text text-anchor="start" x="1278" y="-29.5" font-family="Helvetica,sans-Serif" font-size="10.00">src/modules/websock</text>
<text text-anchor="start" x="1278" y="-18.5" font-family="Helvetica,sans-Serif" font-size="10.00">&#45;api/api/update&#45;management</text>
<text text-anchor="middle" x="1340" y="-7.5" font-family="Helvetica,sans-Serif" font-size="10.00">/UpdateGet.cpp</text>
</a>
</g>
</g>
<!-- Node53&#45;&gt;Node62 -->
<g id="edge9" class="edge"><title>Node53&#45;&gt;Node62</title>
<path fill="none" stroke="midnightblue" d="M882.279,-82.2562C978.401,-76.4641 1130.8,-64.5237 1261,-42 1263.93,-41.4935 1266.91,-40.9356 1269.91,-40.338"/>
<polygon fill="midnightblue" stroke="midnightblue" points="882.065,-78.7627 872.289,-82.8482 882.479,-85.7504 882.065,-78.7627"/>
</g>
<!-- Node63 -->
<g id="node11" class="node"><title>Node63</title>
<g id="a_node11"><a xlink:href="../../d1/d97/UpdateHistory_8cpp.html" target="_top" xlink:title="src/modules/websock\l&#45;api/api/update&#45;management\l/UpdateHistory.cpp">
<polygon fill="white" stroke="black" points="1428,-0.5 1428,-41.5 1568,-41.5 1568,-0.5 1428,-0.5"/>
<text text-anchor="start" x="1436" y="-29.5" font-family="Helvetica,sans-Serif" font-size="10.00">src/modules/websock</text>
<text text-anchor="start" x="1436" y="-18.5" font-family="Helvetica,sans-Serif" font-size="10.00">&#45;api/api/update&#45;management</text>
<text text-anchor="middle" x="1498" y="-7.5" font-family="Helvetica,sans-Serif" font-size="10.00">/UpdateHistory.cpp</text>
</a>
</g>
</g>
<!-- Node53&#45;&gt;Node63 -->
<g id="edge10" class="edge"><title>Node53&#45;&gt;Node63</title>
<path fill="none" stroke="midnightblue" d="M882.38,-85.4503C1006.64,-82.2361 1230.31,-72.3573 1419,-42 1421.93,-41.5281 1424.92,-40.999 1427.92,-40.4253"/>
<polygon fill="midnightblue" stroke="midnightblue" points="882.049,-81.9574 872.139,-85.7059 882.223,-88.9552 882.049,-81.9574"/>
</g>
</g>
</svg>
