<?xml version="1.0" encoding="UTF-8" standalone="no"?>
<!DOCTYPE svg PUBLIC "-//W3C//DTD SVG 1.1//EN"
 "http://www.w3.org/Graphics/SVG/1.1/DTD/svg11.dtd">
<!-- Generated by graphviz version 2.38.0 (20140413.2041)
 -->
<!-- Title: src/hardware/serializers/RFIDReaderSerializer.hpp Pages: 1 -->
<svg width="322pt" height="106pt"
 viewBox="0.00 0.00 321.50 106.00" xmlns="http://www.w3.org/2000/svg" xmlns:xlink="http://www.w3.org/1999/xlink">
<g id="graph0" class="graph" transform="scale(1 1) rotate(0) translate(4 102)">
<title>src/hardware/serializers/RFIDReaderSerializer.hpp</title>
<polygon fill="white" stroke="none" points="-4,4 -4,-102 317.5,-102 317.5,4 -4,4"/>
<!-- Node17 -->
<g id="node1" class="node"><title>Node17</title>
<polygon fill="#bfbfbf" stroke="black" points="83,-67.5 83,-97.5 217,-97.5 217,-67.5 83,-67.5"/>
<text text-anchor="start" x="91" y="-85.5" font-family="Helvetica,sans-Serif" font-size="10.00">src/hardware/serializers</text>
<text text-anchor="middle" x="150" y="-74.5" font-family="Helvetica,sans-Serif" font-size="10.00">/RFIDReaderSerializer.hpp</text>
</g>
<!-- Node18 -->
<g id="node2" class="node"><title>Node18</title>
<g id="a_node2"><a xlink:href="../../d3/d50/RFIDReaderSerializer_8cpp.html" target="_top" xlink:title="src/hardware/serializers\l/RFIDReaderSerializer.cpp">
<polygon fill="white" stroke="black" points="0,-0.5 0,-30.5 134,-30.5 134,-0.5 0,-0.5"/>
<text text-anchor="start" x="8" y="-18.5" font-family="Helvetica,sans-Serif" font-size="10.00">src/hardware/serializers</text>
<text text-anchor="middle" x="67" y="-7.5" font-family="Helvetica,sans-Serif" font-size="10.00">/RFIDReaderSerializer.cpp</text>
</a>
</g>
</g>
<!-- Node17&#45;&gt;Node18 -->
<g id="edge1" class="edge"><title>Node17&#45;&gt;Node18</title>
<path fill="none" stroke="midnightblue" d="M124.037,-61.1677C111.345,-51.2283 96.3876,-39.5144 84.9746,-30.5765"/>
<polygon fill="midnightblue" stroke="midnightblue" points="121.959,-63.9859 131.99,-67.396 126.275,-58.4747 121.959,-63.9859"/>
</g>
<!-- Node19 -->
<g id="node3" class="node"><title>Node19</title>
<g id="a_node3"><a xlink:href="../../d6/d48/WiegandConfigSerializer_8cpp.html" target="_top" xlink:title="src/modules/wiegand\l/ws/WiegandConfigSerializer.cpp">
<polygon fill="white" stroke="black" points="152.5,-0.5 152.5,-30.5 313.5,-30.5 313.5,-0.5 152.5,-0.5"/>
<text text-anchor="start" x="160.5" y="-18.5" font-family="Helvetica,sans-Serif" font-size="10.00">src/modules/wiegand</text>
<text text-anchor="middle" x="233" y="-7.5" font-family="Helvetica,sans-Serif" font-size="10.00">/ws/WiegandConfigSerializer.cpp</text>
</a>
</g>
</g>
<!-- Node17&#45;&gt;Node19 -->
<g id="edge2" class="edge"><title>Node17&#45;&gt;Node19</title>
<path fill="none" stroke="midnightblue" d="M175.963,-61.1677C188.655,-51.2283 203.612,-39.5144 215.025,-30.5765"/>
<polygon fill="midnightblue" stroke="midnightblue" points="173.725,-58.4747 168.01,-67.396 178.041,-63.9859 173.725,-58.4747"/>
</g>
</g>
</svg>
