<?xml version="1.0" encoding="UTF-8" standalone="no"?>
<!DOCTYPE svg PUBLIC "-//W3C//DTD SVG 1.1//EN"
 "http://www.w3.org/Graphics/SVG/1.1/DTD/svg11.dtd">
<!-- Generated by graphviz version 2.38.0 (20140413.2041)
 -->
<!-- Title: src/core/auth/ProfileMerger.hpp Pages: 1 -->
<svg width="332pt" height="95pt"
 viewBox="0.00 0.00 332.00 95.00" xmlns="http://www.w3.org/2000/svg" xmlns:xlink="http://www.w3.org/1999/xlink">
<g id="graph0" class="graph" transform="scale(1 1) rotate(0) translate(4 91)">
<title>src/core/auth/ProfileMerger.hpp</title>
<polygon fill="white" stroke="none" points="-4,4 -4,-91 328,-91 328,4 -4,4"/>
<!-- Node13 -->
<g id="node1" class="node"><title>Node13</title>
<polygon fill="#bfbfbf" stroke="black" points="85,-67.5 85,-86.5 238,-86.5 238,-67.5 85,-67.5"/>
<text text-anchor="middle" x="161.5" y="-74.5" font-family="Helvetica,sans-Serif" font-size="10.00">src/core/auth/ProfileMerger.hpp</text>
</g>
<!-- Node14 -->
<g id="node2" class="node"><title>Node14</title>
<g id="a_node2"><a xlink:href="../../d9/d35/ProfileMerger_8cpp.html" target="_top" xlink:title="src/core/auth/ProfileMerger.cpp">
<polygon fill="white" stroke="black" points="0,-6 0,-25 153,-25 153,-6 0,-6"/>
<text text-anchor="middle" x="76.5" y="-13" font-family="Helvetica,sans-Serif" font-size="10.00">src/core/auth/ProfileMerger.cpp</text>
</a>
</g>
</g>
<!-- Node13&#45;&gt;Node14 -->
<g id="edge1" class="edge"><title>Node13&#45;&gt;Node14</title>
<path fill="none" stroke="midnightblue" d="M140.947,-61.6127C124.599,-50.1691 102.28,-34.546 88.6558,-25.0091"/>
<polygon fill="midnightblue" stroke="midnightblue" points="139.122,-64.6078 149.322,-67.4751 143.136,-58.8731 139.122,-64.6078"/>
</g>
<!-- Node15 -->
<g id="node3" class="node"><title>Node15</title>
<g id="a_node3"><a xlink:href="../../d3/dc5/FileAuthSourceMapper_8cpp.html" target="_top" xlink:title="src/modules/auth/auth\l&#45;file/FileAuthSourceMapper.cpp">
<polygon fill="white" stroke="black" points="171,-0.5 171,-30.5 324,-30.5 324,-0.5 171,-0.5"/>
<text text-anchor="start" x="179" y="-18.5" font-family="Helvetica,sans-Serif" font-size="10.00">src/modules/auth/auth</text>
<text text-anchor="middle" x="247.5" y="-7.5" font-family="Helvetica,sans-Serif" font-size="10.00">&#45;file/FileAuthSourceMapper.cpp</text>
</a>
</g>
</g>
<!-- Node13&#45;&gt;Node15 -->
<g id="edge2" class="edge"><title>Node13&#45;&gt;Node15</title>
<path fill="none" stroke="midnightblue" d="M182.113,-61.739C195.781,-52.2824 213.634,-39.9304 227.232,-30.523"/>
<polygon fill="midnightblue" stroke="midnightblue" points="180.054,-58.9072 173.822,-67.4751 184.037,-64.6637 180.054,-58.9072"/>
</g>
</g>
</svg>
