<?xml version="1.0" encoding="UTF-8" standalone="no"?>
<!DOCTYPE svg PUBLIC "-//W3C//DTD SVG 1.1//EN"
 "http://www.w3.org/Graphics/SVG/1.1/DTD/svg11.dtd">
<!-- Generated by graphviz version 2.38.0 (20140413.2041)
 -->
<!-- Title: src/modules/smtp/SMTPFwd.hpp Pages: 1 -->
<svg width="1125pt" height="229pt"
 viewBox="0.00 0.00 1125.00 229.00" xmlns="http://www.w3.org/2000/svg" xmlns:xlink="http://www.w3.org/1999/xlink">
<g id="graph0" class="graph" transform="scale(1 1) rotate(0) translate(4 225)">
<title>src/modules/smtp/SMTPFwd.hpp</title>
<polygon fill="white" stroke="none" points="-4,4 -4,-225 1121,-225 1121,4 -4,4"/>
<!-- Node2 -->
<g id="node1" class="node"><title>Node2</title>
<polygon fill="#bfbfbf" stroke="black" points="592.5,-201.5 592.5,-220.5 755.5,-220.5 755.5,-201.5 592.5,-201.5"/>
<text text-anchor="middle" x="674" y="-208.5" font-family="Helvetica,sans-Serif" font-size="10.00">src/modules/smtp/SMTPFwd.hpp</text>
</g>
<!-- Node3 -->
<g id="node2" class="node"><title>Node3</title>
<g id="a_node2"><a xlink:href="../../d1/df6/SMTPModule_8hpp.html" target="_top" xlink:title="src/modules/smtp/SMTPModule.hpp">
<polygon fill="white" stroke="black" points="401,-140 401,-159 577,-159 577,-140 401,-140"/>
<text text-anchor="middle" x="489" y="-147" font-family="Helvetica,sans-Serif" font-size="10.00">src/modules/smtp/SMTPModule.hpp</text>
</a>
</g>
</g>
<!-- Node2&#45;&gt;Node3 -->
<g id="edge1" class="edge"><title>Node2&#45;&gt;Node3</title>
<path fill="none" stroke="midnightblue" d="M637.872,-198.381C601.913,-186.815 547.58,-169.341 515.457,-159.009"/>
<polygon fill="midnightblue" stroke="midnightblue" points="636.903,-201.745 647.494,-201.475 639.046,-195.081 636.903,-201.745"/>
</g>
<!-- Node7 -->
<g id="node6" class="node"><title>Node7</title>
<g id="a_node6"><a xlink:href="../../dd/db2/SMTPAudit_8hpp.html" target="_top" xlink:title="src/modules/smtp/SMTPAudit.hpp">
<polygon fill="white" stroke="black" points="166.5,-140 166.5,-159 333.5,-159 333.5,-140 166.5,-140"/>
<text text-anchor="middle" x="250" y="-147" font-family="Helvetica,sans-Serif" font-size="10.00">src/modules/smtp/SMTPAudit.hpp</text>
</a>
</g>
</g>
<!-- Node2&#45;&gt;Node7 -->
<g id="edge5" class="edge"><title>Node2&#45;&gt;Node7</title>
<path fill="none" stroke="midnightblue" d="M603.285,-200.076C521.418,-188.588 387.957,-169.86 310.636,-159.009"/>
<polygon fill="midnightblue" stroke="midnightblue" points="602.862,-203.551 613.251,-201.475 603.835,-196.619 602.862,-203.551"/>
</g>
<!-- Node11 -->
<g id="node10" class="node"><title>Node11</title>
<g id="a_node10"><a xlink:href="../../d4/d56/SMTPConfig_8hpp.html" target="_top" xlink:title="src/modules/smtp/SMTPConfig.hpp">
<polygon fill="white" stroke="black" points="771.5,-140 771.5,-159 944.5,-159 944.5,-140 771.5,-140"/>
<text text-anchor="middle" x="858" y="-147" font-family="Helvetica,sans-Serif" font-size="10.00">src/modules/smtp/SMTPConfig.hpp</text>
</a>
</g>
</g>
<!-- Node2&#45;&gt;Node11 -->
<g id="edge10" class="edge"><title>Node2&#45;&gt;Node11</title>
<path fill="none" stroke="midnightblue" d="M709.932,-198.381C745.697,-186.815 799.736,-169.341 831.686,-159.009"/>
<polygon fill="midnightblue" stroke="midnightblue" points="708.801,-195.068 700.363,-201.475 710.955,-201.728 708.801,-195.068"/>
</g>
<!-- Node14 -->
<g id="node13" class="node"><title>Node14</title>
<g id="a_node13"><a xlink:href="../../da/d9d/SMTPServerInfoSerializer_8hpp.html" target="_top" xlink:title="src/modules/smtp/SMTPServer\lInfoSerializer.hpp">
<polygon fill="white" stroke="black" points="963,-134.5 963,-164.5 1117,-164.5 1117,-134.5 963,-134.5"/>
<text text-anchor="start" x="971" y="-152.5" font-family="Helvetica,sans-Serif" font-size="10.00">src/modules/smtp/SMTPServer</text>
<text text-anchor="middle" x="1040" y="-141.5" font-family="Helvetica,sans-Serif" font-size="10.00">InfoSerializer.hpp</text>
</a>
</g>
</g>
<!-- Node2&#45;&gt;Node14 -->
<g id="edge13" class="edge"><title>Node2&#45;&gt;Node14</title>
<path fill="none" stroke="midnightblue" d="M737.46,-199.861C794.02,-190.802 879.047,-177.127 953,-165 956.173,-164.48 959.411,-163.947 962.682,-163.408"/>
<polygon fill="midnightblue" stroke="midnightblue" points="736.561,-196.461 727.24,-201.498 737.667,-203.373 736.561,-196.461"/>
</g>
<!-- Node15 -->
<g id="node14" class="node"><title>Node15</title>
<g id="a_node14"><a xlink:href="../../d6/d62/SMTPServiceImpl_8hpp.html" target="_top" xlink:title="src/modules/smtp/SMTPService\lImpl.hpp">
<polygon fill="white" stroke="black" points="595,-134.5 595,-164.5 753,-164.5 753,-134.5 595,-134.5"/>
<text text-anchor="start" x="603" y="-152.5" font-family="Helvetica,sans-Serif" font-size="10.00">src/modules/smtp/SMTPService</text>
<text text-anchor="middle" x="674" y="-141.5" font-family="Helvetica,sans-Serif" font-size="10.00">Impl.hpp</text>
</a>
</g>
</g>
<!-- Node2&#45;&gt;Node15 -->
<g id="edge16" class="edge"><title>Node2&#45;&gt;Node15</title>
<path fill="none" stroke="midnightblue" d="M674,-191.235C674,-182.586 674,-172.497 674,-164.523"/>
<polygon fill="midnightblue" stroke="midnightblue" points="670.5,-191.475 674,-201.475 677.5,-191.475 670.5,-191.475"/>
</g>
<!-- Node4 -->
<g id="node3" class="node"><title>Node4</title>
<g id="a_node3"><a xlink:href="../../d3/dbb/smtp_2init_8cpp.html" target="_top" xlink:title="src/modules/smtp/init.cpp">
<polygon fill="white" stroke="black" points="351.5,-73 351.5,-92 480.5,-92 480.5,-73 351.5,-73"/>
<text text-anchor="middle" x="416" y="-80" font-family="Helvetica,sans-Serif" font-size="10.00">src/modules/smtp/init.cpp</text>
</a>
</g>
</g>
<!-- Node3&#45;&gt;Node4 -->
<g id="edge2" class="edge"><title>Node3&#45;&gt;Node4</title>
<path fill="none" stroke="midnightblue" d="M471.431,-132.856C457.08,-120.078 437.329,-102.492 425.689,-92.1273"/>
<polygon fill="midnightblue" stroke="midnightblue" points="469.359,-135.698 479.155,-139.734 474.014,-130.47 469.359,-135.698"/>
</g>
<!-- Node5 -->
<g id="node4" class="node"><title>Node5</title>
<g id="a_node4"><a xlink:href="../../da/d6f/SMTPModule_8cpp.html" target="_top" xlink:title="src/modules/smtp/SMTPModule.cpp">
<polygon fill="white" stroke="black" points="528,-6 528,-25 704,-25 704,-6 528,-6"/>
<text text-anchor="middle" x="616" y="-13" font-family="Helvetica,sans-Serif" font-size="10.00">src/modules/smtp/SMTPModule.cpp</text>
</a>
</g>
</g>
<!-- Node3&#45;&gt;Node5 -->
<g id="edge3" class="edge"><title>Node3&#45;&gt;Node5</title>
<path fill="none" stroke="midnightblue" d="M494.247,-130.138C500.099,-112.293 511.035,-85.2815 528,-67 546.213,-47.3743 573.821,-33.2509 593.247,-25.0147"/>
<polygon fill="midnightblue" stroke="midnightblue" points="490.838,-129.318 491.253,-139.905 497.531,-131.37 490.838,-129.318"/>
</g>
<!-- Node6 -->
<g id="node5" class="node"><title>Node6</title>
<g id="a_node5"><a xlink:href="../../d5/d82/SMTPServiceImpl_8cpp.html" target="_top" xlink:title="src/modules/smtp/SMTPService\lImpl.cpp">
<polygon fill="white" stroke="black" points="537,-67.5 537,-97.5 695,-97.5 695,-67.5 537,-67.5"/>
<text text-anchor="start" x="545" y="-85.5" font-family="Helvetica,sans-Serif" font-size="10.00">src/modules/smtp/SMTPService</text>
<text text-anchor="middle" x="616" y="-74.5" font-family="Helvetica,sans-Serif" font-size="10.00">Impl.cpp</text>
</a>
</g>
</g>
<!-- Node3&#45;&gt;Node6 -->
<g id="edge4" class="edge"><title>Node3&#45;&gt;Node6</title>
<path fill="none" stroke="midnightblue" d="M514.997,-135.194C536.36,-124.261 566.548,-108.81 588.35,-97.6516"/>
<polygon fill="midnightblue" stroke="midnightblue" points="513.172,-132.197 505.865,-139.869 516.361,-138.428 513.172,-132.197"/>
</g>
<!-- Node8 -->
<g id="node7" class="node"><title>Node8</title>
<g id="a_node7"><a xlink:href="../../db/dda/SMTPAudit_8cpp.html" target="_top" xlink:title="src/modules/smtp/SMTPAudit.cpp">
<polygon fill="white" stroke="black" points="166.5,-73 166.5,-92 333.5,-92 333.5,-73 166.5,-73"/>
<text text-anchor="middle" x="250" y="-80" font-family="Helvetica,sans-Serif" font-size="10.00">src/modules/smtp/SMTPAudit.cpp</text>
</a>
</g>
</g>
<!-- Node7&#45;&gt;Node8 -->
<g id="edge6" class="edge"><title>Node7&#45;&gt;Node8</title>
<path fill="none" stroke="midnightblue" d="M250,-129.537C250,-117.17 250,-101.62 250,-92.1273"/>
<polygon fill="midnightblue" stroke="midnightblue" points="246.5,-129.734 250,-139.734 253.5,-129.734 246.5,-129.734"/>
</g>
<!-- Node9 -->
<g id="node8" class="node"><title>Node9</title>
<g id="a_node8"><a xlink:href="../../d6/dde/SMTPAuditSerializer_8hpp.html" target="_top" xlink:title="src/modules/smtp/SMTPAudit\lSerializer.hpp">
<polygon fill="white" stroke="black" points="0,-67.5 0,-97.5 148,-97.5 148,-67.5 0,-67.5"/>
<text text-anchor="start" x="8" y="-85.5" font-family="Helvetica,sans-Serif" font-size="10.00">src/modules/smtp/SMTPAudit</text>
<text text-anchor="middle" x="74" y="-74.5" font-family="Helvetica,sans-Serif" font-size="10.00">Serializer.hpp</text>
</a>
</g>
</g>
<!-- Node7&#45;&gt;Node9 -->
<g id="edge7" class="edge"><title>Node7&#45;&gt;Node9</title>
<path fill="none" stroke="midnightblue" d="M217.092,-136.346C187.26,-125.329 143.297,-109.093 111.984,-97.5281"/>
<polygon fill="midnightblue" stroke="midnightblue" points="216.035,-139.687 226.629,-139.869 218.46,-133.121 216.035,-139.687"/>
</g>
<!-- Node9&#45;&gt;Node5 -->
<g id="edge9" class="edge"><title>Node9&#45;&gt;Node5</title>
<path fill="none" stroke="midnightblue" d="M158.259,-66.8748C292.852,-47.9678 437.492,-33.1333 527.798,-24.5298"/>
<polygon fill="midnightblue" stroke="midnightblue" points="157.586,-63.4352 148.175,-68.3019 158.566,-70.3662 157.586,-63.4352"/>
</g>
<!-- Node10 -->
<g id="node9" class="node"><title>Node10</title>
<g id="a_node9"><a xlink:href="../../d5/d3e/SMTPAuditSerializer_8cpp.html" target="_top" xlink:title="src/modules/smtp/SMTPAudit\lSerializer.cpp">
<polygon fill="white" stroke="black" points="0,-0.5 0,-30.5 148,-30.5 148,-0.5 0,-0.5"/>
<text text-anchor="start" x="8" y="-18.5" font-family="Helvetica,sans-Serif" font-size="10.00">src/modules/smtp/SMTPAudit</text>
<text text-anchor="middle" x="74" y="-7.5" font-family="Helvetica,sans-Serif" font-size="10.00">Serializer.cpp</text>
</a>
</g>
</g>
<!-- Node9&#45;&gt;Node10 -->
<g id="edge8" class="edge"><title>Node9&#45;&gt;Node10</title>
<path fill="none" stroke="midnightblue" d="M74,-57.1081C74,-48.1539 74,-38.3227 74,-30.5765"/>
<polygon fill="midnightblue" stroke="midnightblue" points="70.5001,-57.3959 74,-67.396 77.5001,-57.396 70.5001,-57.3959"/>
</g>
<!-- Node12 -->
<g id="node11" class="node"><title>Node12</title>
<g id="a_node11"><a xlink:href="../../d2/dc6/SMTPConfig_8cpp.html" target="_top" xlink:title="src/modules/smtp/SMTPConfig.cpp">
<polygon fill="white" stroke="black" points="751.5,-73 751.5,-92 924.5,-92 924.5,-73 751.5,-73"/>
<text text-anchor="middle" x="838" y="-80" font-family="Helvetica,sans-Serif" font-size="10.00">src/modules/smtp/SMTPConfig.cpp</text>
</a>
</g>
</g>
<!-- Node11&#45;&gt;Node12 -->
<g id="edge11" class="edge"><title>Node11&#45;&gt;Node12</title>
<path fill="none" stroke="midnightblue" d="M852.281,-129.915C848.458,-117.488 843.605,-101.717 840.655,-92.1273"/>
<polygon fill="midnightblue" stroke="midnightblue" points="849.017,-131.205 855.303,-139.734 855.707,-129.147 849.017,-131.205"/>
</g>
<!-- Node13 -->
<g id="node12" class="node"><title>Node13</title>
<g id="a_node12"><a xlink:href="../../d2/d9a/SMTPServerInfoSerializer_8cpp.html" target="_top" xlink:title="src/modules/smtp/SMTPServer\lInfoSerializer.cpp">
<polygon fill="white" stroke="black" points="943,-67.5 943,-97.5 1097,-97.5 1097,-67.5 943,-67.5"/>
<text text-anchor="start" x="951" y="-85.5" font-family="Helvetica,sans-Serif" font-size="10.00">src/modules/smtp/SMTPServer</text>
<text text-anchor="middle" x="1020" y="-74.5" font-family="Helvetica,sans-Serif" font-size="10.00">InfoSerializer.cpp</text>
</a>
</g>
</g>
<!-- Node11&#45;&gt;Node13 -->
<g id="edge12" class="edge"><title>Node11&#45;&gt;Node13</title>
<path fill="none" stroke="midnightblue" d="M889.01,-136.058C916.452,-125.047 956.466,-108.992 985.038,-97.5281"/>
<polygon fill="midnightblue" stroke="midnightblue" points="887.49,-132.896 879.512,-139.869 890.097,-139.393 887.49,-132.896"/>
</g>
<!-- Node14&#45;&gt;Node5 -->
<g id="edge14" class="edge"><title>Node14&#45;&gt;Node5</title>
<path fill="none" stroke="midnightblue" d="M1073.85,-128.676C1098.39,-111.865 1124.33,-87.3152 1106,-67 1079.65,-37.7919 838.042,-24.4821 704.223,-19.3057"/>
<polygon fill="midnightblue" stroke="midnightblue" points="1071.74,-125.871 1065.3,-134.28 1075.58,-131.725 1071.74,-125.871"/>
</g>
<!-- Node14&#45;&gt;Node13 -->
<g id="edge15" class="edge"><title>Node14&#45;&gt;Node13</title>
<path fill="none" stroke="midnightblue" d="M1032.68,-124.697C1029.87,-115.587 1026.77,-105.493 1024.33,-97.5765"/>
<polygon fill="midnightblue" stroke="midnightblue" points="1029.37,-125.867 1035.66,-134.396 1036.06,-123.809 1029.37,-125.867"/>
</g>
<!-- Node15&#45;&gt;Node5 -->
<g id="edge17" class="edge"><title>Node15&#45;&gt;Node5</title>
<path fill="none" stroke="midnightblue" d="M692.471,-126.109C704.041,-109.199 714.874,-85.7773 704,-67 691.642,-45.6595 666.482,-32.557 646.218,-25.0646"/>
<polygon fill="midnightblue" stroke="midnightblue" points="689.556,-124.166 686.464,-134.3 695.2,-128.306 689.556,-124.166"/>
</g>
<!-- Node15&#45;&gt;Node6 -->
<g id="edge18" class="edge"><title>Node15&#45;&gt;Node6</title>
<path fill="none" stroke="midnightblue" d="M654.58,-126.736C645.998,-117.119 636.156,-106.089 628.561,-97.5765"/>
<polygon fill="midnightblue" stroke="midnightblue" points="652.145,-129.265 661.415,-134.396 657.368,-124.604 652.145,-129.265"/>
</g>
</g>
</svg>
