<?xml version="1.0" encoding="UTF-8" standalone="no"?>
<!DOCTYPE svg PUBLIC "-//W3C//DTD SVG 1.1//EN"
 "http://www.w3.org/Graphics/SVG/1.1/DTD/svg11.dtd">
<!-- Generated by graphviz version 2.38.0 (20140413.2041)
 -->
<!-- Title: src/modules/wiegand/strategies/WiegandCardAndPin.hpp Pages: 1 -->
<!--zoomable 442 -->
<svg id="main" version="1.1" xmlns="http://www.w3.org/2000/svg" xmlns:xlink="http://www.w3.org/1999/xlink" xml:space="preserve" onload="init(evt)">
<style type="text/css"><![CDATA[
.edge:hover path { stroke: red; }
.edge:hover polygon { stroke: red; fill: red; }
]]></style>
<script type="text/javascript"><![CDATA[
var edges = document.getElementsByTagName('g');
if (edges && edges.length) {
  for (var i=0;i<edges.length;i++) {
    if (edges[i].id.substr(0,4)=='edge') {
      edges[i].setAttribute('class','edge');
    }
  }
}
]]></script>
        <defs>
                <circle id="rim" cx="0" cy="0" r="7"/>
                <circle id="rim2" cx="0" cy="0" r="3.5"/>
                <g id="zoomPlus">
                        <use xlink:href="#rim" fill="#404040">
                                <set attributeName="fill" to="#808080" begin="zoomplus.mouseover" end="zoomplus.mouseout"/>
                        </use>
                        <path d="M-4,0h8M0,-4v8" fill="none" stroke="white" stroke-width="1.5" pointer-events="none"/>
                </g>
                <g id="zoomMin">
                        <use xlink:href="#rim" fill="#404040">
                                <set attributeName="fill" to="#808080" begin="zoomminus.mouseover" end="zoomminus.mouseout"/>
                        </use>
                        <path d="M-4,0h8" fill="none" stroke="white" stroke-width="1.5" pointer-events="none"/>
                </g>
                <g id="dirArrow">
                        <path fill="none" stroke="white" stroke-width="1.5" d="M0,-3.0v7 M-2.5,-0.5L0,-3.0L2.5,-0.5"/>
                </g>
               <g id="resetDef">
                       <use xlink:href="#rim2" fill="#404040">
                               <set attributeName="fill" to="#808080" begin="reset.mouseover" end="reset.mouseout"/>
                       </use>
               </g>
        </defs>

<script type="text/javascript">
var viewWidth = 567;
var viewHeight = 442;
var sectionId = 'dynsection-0';
</script>
<script xlink:href="../../svgpan.js"/>
<svg id="graph" class="graph">
<g id="viewport">
<title>src/modules/wiegand/strategies/WiegandCardAndPin.hpp</title>
<polygon fill="white" stroke="none" points="-4,4 -4,-438 563,-438 563,4 -4,4"/>
<!-- Node0 -->
<g id="node1" class="node"><title>Node0</title>
<polygon fill="#bfbfbf" stroke="black" points="264.5,-392.5 264.5,-433.5 406.5,-433.5 406.5,-392.5 264.5,-392.5"/>
<text text-anchor="start" x="272.5" y="-421.5" font-family="Helvetica,sans-Serif" font-size="10.00">src/modules/wiegand</text>
<text text-anchor="start" x="272.5" y="-410.5" font-family="Helvetica,sans-Serif" font-size="10.00">/strategies/WiegandCardAnd</text>
<text text-anchor="middle" x="335.5" y="-399.5" font-family="Helvetica,sans-Serif" font-size="10.00">Pin.hpp</text>
</g>
<!-- Node1 -->
<g id="node2" class="node"><title>Node1</title>
<g id="a_node2"><a xlink:href="../../dc/d0d/Strategies_8hpp.html" target="_top" xlink:title="Strategies.hpp">
<polygon fill="white" stroke="black" points="295.5,-336.5 295.5,-355.5 375.5,-355.5 375.5,-336.5 295.5,-336.5"/>
<text text-anchor="middle" x="335.5" y="-343.5" font-family="Helvetica,sans-Serif" font-size="10.00">Strategies.hpp</text>
</a>
</g>
</g>
<!-- Node0&#45;&gt;Node1 -->
<g id="edge1" class="edge"><title>Node0&#45;&gt;Node1</title>
<path fill="none" stroke="midnightblue" d="M329.255,-392.498C328.557,-383.969 328.583,-374.011 329.333,-365.59"/>
<polygon fill="midnightblue" stroke="midnightblue" points="332.803,-366.044 330.736,-355.652 325.872,-365.065 332.803,-366.044"/>
</g>
<!-- Node17 -->
<g id="node18" class="node"><title>Node17</title>
<g id="a_node18"><a xlink:href="../../db/dd7/StrategiesFwd_8hpp.html" target="_top" xlink:title="StrategiesFwd.hpp">
<polygon fill="white" stroke="black" points="431.5,-168.5 431.5,-187.5 529.5,-187.5 529.5,-168.5 431.5,-168.5"/>
<text text-anchor="middle" x="480.5" y="-175.5" font-family="Helvetica,sans-Serif" font-size="10.00">StrategiesFwd.hpp</text>
</a>
</g>
</g>
<!-- Node0&#45;&gt;Node17 -->
<g id="edge25" class="edge"><title>Node0&#45;&gt;Node17</title>
<path fill="none" stroke="midnightblue" d="M406.578,-396.062C456.945,-380.654 520.958,-351.775 552.5,-300 575.666,-261.973 529.411,-216.8 500.799,-193.903"/>
<polygon fill="midnightblue" stroke="midnightblue" points="502.633,-190.897 492.582,-187.545 498.349,-196.433 502.633,-190.897"/>
</g>
<!-- Node1&#45;&gt;Node0 -->
<g id="edge15" class="edge"><title>Node1&#45;&gt;Node0</title>
<path fill="none" stroke="midnightblue" d="M340.264,-355.652C341.727,-362.524 342.381,-372.559 342.228,-382.263"/>
<polygon fill="midnightblue" stroke="midnightblue" points="338.721,-382.344 341.745,-392.498 345.713,-382.674 338.721,-382.344"/>
</g>
<!-- Node2 -->
<g id="node3" class="node"><title>Node2</title>
<g id="a_node3"><a xlink:href="../../dc/d8e/SimpleWiegandStrategy_8hpp.html" target="_top" xlink:title="SimpleWiegandStrategy.hpp">
<polygon fill="white" stroke="black" points="31.5,-280.5 31.5,-299.5 171.5,-299.5 171.5,-280.5 31.5,-280.5"/>
<text text-anchor="middle" x="101.5" y="-287.5" font-family="Helvetica,sans-Serif" font-size="10.00">SimpleWiegandStrategy.hpp</text>
</a>
</g>
</g>
<!-- Node1&#45;&gt;Node2 -->
<g id="edge2" class="edge"><title>Node1&#45;&gt;Node2</title>
<path fill="none" stroke="midnightblue" d="M298.422,-336.444C257.772,-327.063 192.468,-311.993 148.316,-301.804"/>
<polygon fill="midnightblue" stroke="midnightblue" points="148.935,-298.355 138.405,-299.516 147.361,-305.175 148.935,-298.355"/>
</g>
<!-- Node3 -->
<g id="node4" class="node"><title>Node3</title>
<g id="a_node4"><a xlink:href="../../db/db3/CardReading_8hpp.html" target="_top" xlink:title="CardReading.hpp">
<polygon fill="white" stroke="black" points="153.5,-224.5 153.5,-243.5 245.5,-243.5 245.5,-224.5 153.5,-224.5"/>
<text text-anchor="middle" x="199.5" y="-231.5" font-family="Helvetica,sans-Serif" font-size="10.00">CardReading.hpp</text>
</a>
</g>
</g>
<!-- Node1&#45;&gt;Node3 -->
<g id="edge23" class="edge"><title>Node1&#45;&gt;Node3</title>
<path fill="none" stroke="midnightblue" d="M295.41,-338.897C270.079,-333.033 238.471,-321.697 218.5,-300 206.94,-287.441 202.381,-268.22 200.6,-253.934"/>
<polygon fill="midnightblue" stroke="midnightblue" points="204.066,-253.403 199.687,-243.756 197.094,-254.028 204.066,-253.403"/>
</g>
<!-- Node15 -->
<g id="node16" class="node"><title>Node15</title>
<g id="a_node16"><a xlink:href="../../d6/da6/WiegandPinBuffered_8hpp.html" target="_top" xlink:title="WiegandPinBuffered.hpp">
<polygon fill="white" stroke="black" points="228,-280.5 228,-299.5 353,-299.5 353,-280.5 228,-280.5"/>
<text text-anchor="middle" x="290.5" y="-287.5" font-family="Helvetica,sans-Serif" font-size="10.00">WiegandPinBuffered.hpp</text>
</a>
</g>
</g>
<!-- Node1&#45;&gt;Node15 -->
<g id="edge16" class="edge"><title>Node1&#45;&gt;Node15</title>
<path fill="none" stroke="midnightblue" d="M328.069,-336.083C321.647,-328.377 312.194,-317.033 304.378,-307.653"/>
<polygon fill="midnightblue" stroke="midnightblue" points="306.883,-305.193 297.793,-299.751 301.506,-309.674 306.883,-305.193"/>
</g>
<!-- Node16 -->
<g id="node17" class="node"><title>Node16</title>
<g id="a_node17"><a xlink:href="../../d0/dc4/PinReading_8hpp.html" target="_top" xlink:title="PinReading.hpp">
<polygon fill="white" stroke="black" points="338.5,-224.5 338.5,-243.5 424.5,-243.5 424.5,-224.5 338.5,-224.5"/>
<text text-anchor="middle" x="381.5" y="-231.5" font-family="Helvetica,sans-Serif" font-size="10.00">PinReading.hpp</text>
</a>
</g>
</g>
<!-- Node1&#45;&gt;Node16 -->
<g id="edge24" class="edge"><title>Node1&#45;&gt;Node16</title>
<path fill="none" stroke="midnightblue" d="M341.292,-336.344C347.016,-327.503 355.729,-313.233 361.5,-300 368.137,-284.781 373.517,-266.668 377.019,-253.433"/>
<polygon fill="midnightblue" stroke="midnightblue" points="380.438,-254.188 379.505,-243.634 373.653,-252.466 380.438,-254.188"/>
</g>
<!-- Node18 -->
<g id="node19" class="node"><title>Node18</title>
<g id="a_node19"><a xlink:href="../../d4/d9d/WiegandPinNBitsOnly_8hpp.html" target="_top" xlink:title="WiegandPinNBitsOnly.hpp">
<polygon fill="white" stroke="black" points="410,-280.5 410,-299.5 543,-299.5 543,-280.5 410,-280.5"/>
<text text-anchor="middle" x="476.5" y="-287.5" font-family="Helvetica,sans-Serif" font-size="10.00">WiegandPinNBitsOnly.hpp</text>
</a>
</g>
</g>
<!-- Node1&#45;&gt;Node18 -->
<g id="edge21" class="edge"><title>Node1&#45;&gt;Node18</title>
<path fill="none" stroke="midnightblue" d="M357.842,-336.444C381.253,-327.478 418.236,-313.314 444.69,-303.183"/>
<polygon fill="midnightblue" stroke="midnightblue" points="446.176,-306.361 454.263,-299.516 443.672,-299.824 446.176,-306.361"/>
</g>
<!-- Node2&#45;&gt;Node3 -->
<g id="edge3" class="edge"><title>Node2&#45;&gt;Node3</title>
<path fill="none" stroke="midnightblue" d="M117.245,-280.324C132.819,-271.743 156.877,-258.486 174.959,-248.522"/>
<polygon fill="midnightblue" stroke="midnightblue" points="176.724,-251.546 183.794,-243.655 173.346,-245.415 176.724,-251.546"/>
</g>
<!-- Node4 -->
<g id="node5" class="node"><title>Node4</title>
<g id="a_node5"><a xlink:href="../../dd/d5c/WiegandStrategy_8hpp.html" target="_top" xlink:title="WiegandStrategy.hpp">
<polygon fill="white" stroke="black" points="234.5,-168.5 234.5,-187.5 344.5,-187.5 344.5,-168.5 234.5,-168.5"/>
<text text-anchor="middle" x="289.5" y="-175.5" font-family="Helvetica,sans-Serif" font-size="10.00">WiegandStrategy.hpp</text>
</a>
</g>
</g>
<!-- Node3&#45;&gt;Node4 -->
<g id="edge4" class="edge"><title>Node3&#45;&gt;Node4</title>
<path fill="none" stroke="midnightblue" d="M213.96,-224.324C228,-215.9 249.548,-202.971 266.043,-193.074"/>
<polygon fill="midnightblue" stroke="midnightblue" points="268.302,-195.801 275.076,-187.655 264.7,-189.798 268.302,-195.801"/>
</g>
<!-- Node5 -->
<g id="node6" class="node"><title>Node5</title>
<g id="a_node6"><a xlink:href="../../dc/d74/Auth_8hpp.html" target="_top" xlink:title="core/auth/Auth.hpp">
<polygon fill="white" stroke="black" points="18,-112.5 18,-131.5 117,-131.5 117,-112.5 18,-112.5"/>
<text text-anchor="middle" x="67.5" y="-119.5" font-family="Helvetica,sans-Serif" font-size="10.00">core/auth/Auth.hpp</text>
</a>
</g>
</g>
<!-- Node4&#45;&gt;Node5 -->
<g id="edge5" class="edge"><title>Node4&#45;&gt;Node5</title>
<path fill="none" stroke="midnightblue" d="M254.323,-168.444C215.921,-159.102 154.324,-144.119 112.445,-133.933"/>
<polygon fill="midnightblue" stroke="midnightblue" points="113.056,-130.479 102.512,-131.516 111.401,-137.281 113.056,-130.479"/>
</g>
<!-- Node11 -->
<g id="node12" class="node"><title>Node11</title>
<polygon fill="white" stroke="#bfbfbf" points="135,-112.5 135,-131.5 232,-131.5 232,-112.5 135,-112.5"/>
<text text-anchor="middle" x="183.5" y="-119.5" font-family="Helvetica,sans-Serif" font-size="10.00">zmqpp/zmqpp.hpp</text>
</g>
<!-- Node4&#45;&gt;Node11 -->
<g id="edge11" class="edge"><title>Node4&#45;&gt;Node11</title>
<path fill="none" stroke="midnightblue" d="M272.469,-168.324C255.47,-159.664 229.124,-146.242 209.507,-136.249"/>
<polygon fill="midnightblue" stroke="midnightblue" points="210.988,-133.075 200.488,-131.655 207.81,-139.312 210.988,-133.075"/>
</g>
<!-- Node12 -->
<g id="node13" class="node"><title>Node12</title>
<polygon fill="white" stroke="#bfbfbf" points="250.5,-112.5 250.5,-131.5 328.5,-131.5 328.5,-112.5 250.5,-112.5"/>
<text text-anchor="middle" x="289.5" y="-119.5" font-family="Helvetica,sans-Serif" font-size="10.00">boost/any.hpp</text>
</g>
<!-- Node4&#45;&gt;Node12 -->
<g id="edge12" class="edge"><title>Node4&#45;&gt;Node12</title>
<path fill="none" stroke="midnightblue" d="M289.5,-168.083C289.5,-161.006 289.5,-150.861 289.5,-141.986"/>
<polygon fill="midnightblue" stroke="midnightblue" points="293,-141.751 289.5,-131.751 286,-141.751 293,-141.751"/>
</g>
<!-- Node13 -->
<g id="node14" class="node"><title>Node13</title>
<polygon fill="white" stroke="#bfbfbf" points="346.5,-112.5 346.5,-131.5 392.5,-131.5 392.5,-112.5 346.5,-112.5"/>
<text text-anchor="middle" x="369.5" y="-119.5" font-family="Helvetica,sans-Serif" font-size="10.00">chrono</text>
</g>
<!-- Node4&#45;&gt;Node13 -->
<g id="edge13" class="edge"><title>Node4&#45;&gt;Node13</title>
<path fill="none" stroke="midnightblue" d="M302.353,-168.324C314.716,-159.979 333.63,-147.212 348.237,-137.352"/>
<polygon fill="midnightblue" stroke="midnightblue" points="350.348,-140.15 356.679,-131.655 346.432,-134.348 350.348,-140.15"/>
</g>
<!-- Node14 -->
<g id="node15" class="node"><title>Node14</title>
<polygon fill="white" stroke="#bfbfbf" points="411,-112.5 411,-131.5 452,-131.5 452,-112.5 411,-112.5"/>
<text text-anchor="middle" x="431.5" y="-119.5" font-family="Helvetica,sans-Serif" font-size="10.00">string</text>
</g>
<!-- Node4&#45;&gt;Node14 -->
<g id="edge14" class="edge"><title>Node4&#45;&gt;Node14</title>
<path fill="none" stroke="midnightblue" d="M312,-168.444C336.132,-159.267 374.583,-144.645 401.327,-134.474"/>
<polygon fill="midnightblue" stroke="midnightblue" points="402.846,-137.641 410.949,-130.815 400.358,-131.098 402.846,-137.641"/>
</g>
<!-- Node6 -->
<g id="node7" class="node"><title>Node6</title>
<g id="a_node7"><a xlink:href="../../d3/d6f/AuthFwd_8hpp.html" target="_top" xlink:title="AuthFwd.hpp">
<polygon fill="white" stroke="black" points="30.5,-56.5 30.5,-75.5 104.5,-75.5 104.5,-56.5 30.5,-56.5"/>
<text text-anchor="middle" x="67.5" y="-63.5" font-family="Helvetica,sans-Serif" font-size="10.00">AuthFwd.hpp</text>
</a>
</g>
</g>
<!-- Node5&#45;&gt;Node6 -->
<g id="edge6" class="edge"><title>Node5&#45;&gt;Node6</title>
<path fill="none" stroke="midnightblue" d="M67.5,-112.083C67.5,-105.006 67.5,-94.8611 67.5,-85.9865"/>
<polygon fill="midnightblue" stroke="midnightblue" points="71.0001,-85.751 67.5,-75.7511 64.0001,-85.7511 71.0001,-85.751"/>
</g>
<!-- Node10 -->
<g id="node11" class="node"><title>Node10</title>
<polygon fill="white" stroke="#bfbfbf" points="123,-56.5 123,-75.5 230,-75.5 230,-56.5 123,-56.5"/>
<text text-anchor="middle" x="176.5" y="-63.5" font-family="Helvetica,sans-Serif" font-size="10.00">zmqpp/message.hpp</text>
</g>
<!-- Node5&#45;&gt;Node10 -->
<g id="edge10" class="edge"><title>Node5&#45;&gt;Node10</title>
<path fill="none" stroke="midnightblue" d="M85.0127,-112.324C102.572,-103.625 129.831,-90.1202 150.031,-80.113"/>
<polygon fill="midnightblue" stroke="midnightblue" points="151.624,-83.23 159.031,-75.6545 148.516,-76.9575 151.624,-83.23"/>
</g>
<!-- Node7 -->
<g id="node8" class="node"><title>Node7</title>
<polygon fill="white" stroke="#bfbfbf" points="0,-0.5 0,-19.5 49,-19.5 49,-0.5 0,-0.5"/>
<text text-anchor="middle" x="24.5" y="-7.5" font-family="Helvetica,sans-Serif" font-size="10.00">cstddef</text>
</g>
<!-- Node6&#45;&gt;Node7 -->
<g id="edge7" class="edge"><title>Node6&#45;&gt;Node7</title>
<path fill="none" stroke="midnightblue" d="M60.3994,-56.083C54.263,-48.3768 45.2303,-37.0333 37.7608,-27.6531"/>
<polygon fill="midnightblue" stroke="midnightblue" points="40.4357,-25.3936 31.4685,-19.7511 34.9598,-29.7542 40.4357,-25.3936"/>
</g>
<!-- Node8 -->
<g id="node9" class="node"><title>Node8</title>
<polygon fill="white" stroke="#bfbfbf" points="312.5,-0.5 312.5,-19.5 364.5,-19.5 364.5,-0.5 312.5,-0.5"/>
<text text-anchor="middle" x="338.5" y="-7.5" font-family="Helvetica,sans-Serif" font-size="10.00">memory</text>
</g>
<!-- Node6&#45;&gt;Node8 -->
<g id="edge8" class="edge"><title>Node6&#45;&gt;Node8</title>
<path fill="none" stroke="midnightblue" d="M104.613,-57.6048C156.69,-47.2277 250.835,-28.4682 302.375,-18.1984"/>
<polygon fill="midnightblue" stroke="midnightblue" points="303.269,-21.5891 312.392,-16.2023 301.901,-14.724 303.269,-21.5891"/>
</g>
<!-- Node9 -->
<g id="node10" class="node"><title>Node9</title>
<polygon fill="white" stroke="#bfbfbf" points="67.5,-0.5 67.5,-19.5 153.5,-19.5 153.5,-0.5 67.5,-0.5"/>
<text text-anchor="middle" x="110.5" y="-7.5" font-family="Helvetica,sans-Serif" font-size="10.00">odb/lazy&#45;ptr.hxx</text>
</g>
<!-- Node6&#45;&gt;Node9 -->
<g id="edge9" class="edge"><title>Node6&#45;&gt;Node9</title>
<path fill="none" stroke="midnightblue" d="M74.6006,-56.083C80.737,-48.3768 89.7697,-37.0333 97.2392,-27.6531"/>
<polygon fill="midnightblue" stroke="midnightblue" points="100.04,-29.7542 103.532,-19.7511 94.5643,-25.3936 100.04,-29.7542"/>
</g>
<!-- Node15&#45;&gt;Node16 -->
<g id="edge17" class="edge"><title>Node15&#45;&gt;Node16</title>
<path fill="none" stroke="midnightblue" d="M305.121,-280.324C319.449,-271.822 341.513,-258.729 358.249,-248.797"/>
<polygon fill="midnightblue" stroke="midnightblue" points="360.102,-251.768 366.916,-243.655 356.53,-245.748 360.102,-251.768"/>
</g>
<!-- Node16&#45;&gt;Node4 -->
<g id="edge20" class="edge"><title>Node16&#45;&gt;Node4</title>
<path fill="none" stroke="midnightblue" d="M366.719,-224.324C352.233,-215.822 329.927,-202.729 313.007,-192.797"/>
<polygon fill="midnightblue" stroke="midnightblue" points="314.641,-189.698 304.245,-187.655 311.097,-195.735 314.641,-189.698"/>
</g>
<!-- Node16&#45;&gt;Node17 -->
<g id="edge18" class="edge"><title>Node16&#45;&gt;Node17</title>
<path fill="none" stroke="midnightblue" d="M397.406,-224.324C413.138,-215.743 437.442,-202.486 455.709,-192.522"/>
<polygon fill="midnightblue" stroke="midnightblue" points="457.53,-195.516 464.633,-187.655 454.178,-189.37 457.53,-195.516"/>
</g>
<!-- Node17&#45;&gt;Node8 -->
<g id="edge19" class="edge"><title>Node17&#45;&gt;Node8</title>
<path fill="none" stroke="midnightblue" d="M479.612,-168.322C477.922,-155.174 473.295,-129.853 461.5,-112 435.911,-73.2677 390.932,-41.8728 363.036,-24.8667"/>
<polygon fill="midnightblue" stroke="midnightblue" points="364.666,-21.7644 354.283,-19.6612 361.088,-27.7809 364.666,-21.7644"/>
</g>
<!-- Node18&#45;&gt;Node16 -->
<g id="edge22" class="edge"><title>Node18&#45;&gt;Node16</title>
<path fill="none" stroke="midnightblue" d="M461.237,-280.324C446.279,-271.822 423.245,-258.729 405.773,-248.797"/>
<polygon fill="midnightblue" stroke="midnightblue" points="407.149,-245.553 396.726,-243.655 403.69,-251.639 407.149,-245.553"/>
</g>
</g>
</svg>
        <g id="navigator" transform="translate(0 0)" fill="#404254">
                <rect fill="#f2f5e9" fill-opacity="0.5" stroke="#606060" stroke-width=".5" x="0" y="0" width="60" height="60"/>
                <use id="zoomplus" xlink:href="#zoomPlus" x="17" y="9" onmousedown="handleZoom(evt,'in')"/>
                <use id="zoomminus" xlink:href="#zoomMin" x="42" y="9" onmousedown="handleZoom(evt,'out')"/>
                <use id="reset" xlink:href="#resetDef" x="30" y="36" onmousedown="handleReset()"/>
                <g id="arrowUp" xlink:href="#dirArrow" transform="translate(30 24)" onmousedown="handlePan(0,-1)">
                  <use xlink:href="#rim" fill="#404040">
                        <set attributeName="fill" to="#808080" begin="arrowUp.mouseover" end="arrowUp.mouseout"/>
                  </use>
                  <path fill="none" stroke="white" stroke-width="1.5" d="M0,-3.0v7 M-2.5,-0.5L0,-3.0L2.5,-0.5"/>
                </g>
                <g id="arrowRight" xlink:href="#dirArrow" transform="rotate(90) translate(36 -43)" onmousedown="handlePan(1,0)">
                  <use xlink:href="#rim" fill="#404040">
                        <set attributeName="fill" to="#808080" begin="arrowRight.mouseover" end="arrowRight.mouseout"/>
                  </use>
                  <path fill="none" stroke="white" stroke-width="1.5" d="M0,-3.0v7 M-2.5,-0.5L0,-3.0L2.5,-0.5"/>
                </g>
                <g id="arrowDown" xlink:href="#dirArrow" transform="rotate(180) translate(-30 -48)" onmousedown="handlePan(0,1)">
                  <use xlink:href="#rim" fill="#404040">
                        <set attributeName="fill" to="#808080" begin="arrowDown.mouseover" end="arrowDown.mouseout"/>
                  </use>
                  <path fill="none" stroke="white" stroke-width="1.5" d="M0,-3.0v7 M-2.5,-0.5L0,-3.0L2.5,-0.5"/>
                </g>
                <g id="arrowLeft" xlink:href="#dirArrow" transform="rotate(270) translate(-36 17)" onmousedown="handlePan(-1,0)">
                  <use xlink:href="#rim" fill="#404040">
                        <set attributeName="fill" to="#808080" begin="arrowLeft.mouseover" end="arrowLeft.mouseout"/>
                  </use>
                  <path fill="none" stroke="white" stroke-width="1.5" d="M0,-3.0v7 M-2.5,-0.5L0,-3.0L2.5,-0.5"/>
                </g>
        </g>
        <svg viewBox="0 0 15 15" width="100%" height="30px" preserveAspectRatio="xMaxYMin meet">
         <g id="arrow_out" transform="scale(0.3 0.3)">
          <a xlink:href="WiegandCardAndPin_8hpp__incl_org.svg" target="_base">
           <rect id="button" ry="5" rx="5" y="6" x="6" height="38" width="38"
                fill="#f2f5e9" fill-opacity="0.5" stroke="#606060" stroke-width="1.0"/>
           <path id="arrow"
             d="M 11.500037,31.436501 C 11.940474,20.09759 22.043105,11.32322 32.158766,21.979434 L 37.068811,17.246167 C 37.068811,17.246167 37.088388,32 37.088388,32 L 22.160133,31.978069 C 22.160133,31.978069 26.997745,27.140456 26.997745,27.140456 C 18.528582,18.264221 13.291696,25.230495 11.500037,31.436501 z"
             style="fill:#404040;"/>
          </a>
         </g>
        </svg>
</svg>
