<?xml version="1.0" encoding="UTF-8" standalone="no"?>
<!DOCTYPE svg PUBLIC "-//W3C//DTD SVG 1.1//EN"
 "http://www.w3.org/Graphics/SVG/1.1/DTD/svg11.dtd">
<!-- Generated by graphviz version 2.38.0 (20140413.2041)
 -->
<!-- Title: Leosac::Hardware::RFIDReader Pages: 1 -->
<svg width="192pt" height="220pt"
 viewBox="0.00 0.00 191.50 220.00" xmlns="http://www.w3.org/2000/svg" xmlns:xlink="http://www.w3.org/1999/xlink">
<g id="graph0" class="graph" transform="scale(1 1) rotate(0) translate(4 216)">
<title>Leosac::Hardware::RFIDReader</title>
<polygon fill="white" stroke="none" points="-4,4 -4,-216 187.5,-216 187.5,4 -4,4"/>
<!-- Node3 -->
<g id="node1" class="node"><title>Node3</title>
<polygon fill="#bfbfbf" stroke="black" points="-1.42109e-14,-0.5 -1.42109e-14,-19.5 158,-19.5 158,-0.5 -1.42109e-14,-0.5"/>
<text text-anchor="middle" x="79" y="-7.5" font-family="Helvetica,sans-Serif" font-size="10.00">Leosac::Hardware::RFIDReader</text>
</g>
<!-- Node4 -->
<g id="node2" class="node"><title>Node4</title>
<g id="a_node2"><a xlink:href="../../d3/d7f/classLeosac_1_1Hardware_1_1Device.html" target="_top" xlink:title="Base class for hardware devices. ">
<polygon fill="white" stroke="black" points="12.5,-57.5 12.5,-76.5 145.5,-76.5 145.5,-57.5 12.5,-57.5"/>
<text text-anchor="middle" x="79" y="-64.5" font-family="Helvetica,sans-Serif" font-size="10.00">Leosac::Hardware::Device</text>
</a>
</g>
</g>
<!-- Node4&#45;&gt;Node3 -->
<g id="edge1" class="edge"><title>Node4&#45;&gt;Node3</title>
<path fill="none" stroke="midnightblue" d="M79,-47.1166C79,-37.8173 79,-27.0557 79,-19.7149"/>
<polygon fill="midnightblue" stroke="midnightblue" points="75.5001,-47.4062 79,-57.4062 82.5001,-47.4063 75.5001,-47.4062"/>
</g>
<!-- Node5 -->
<g id="node3" class="node"><title>Node5</title>
<g id="a_node3"><a xlink:href="../../d7/d46/classLeosac_1_1UUID.html" target="_top" xlink:title="Thin wrapper around boost::uuids::uuid. ">
<polygon fill="white" stroke="black" points="8,-124.5 8,-143.5 88,-143.5 88,-124.5 8,-124.5"/>
<text text-anchor="middle" x="48" y="-131.5" font-family="Helvetica,sans-Serif" font-size="10.00">Leosac::UUID</text>
</a>
</g>
</g>
<!-- Node5&#45;&gt;Node4 -->
<g id="edge2" class="edge"><title>Node5&#45;&gt;Node4</title>
<path fill="none" stroke="#9a32cd" stroke-dasharray="5,2" d="M56.5067,-115.163C62.4851,-102.628 70.2197,-86.4104 74.8854,-76.6273"/>
<polygon fill="#9a32cd" stroke="#9a32cd" points="53.3265,-113.701 52.1808,-124.234 59.6447,-116.714 53.3265,-113.701"/>
<text text-anchor="middle" x="73" y="-98" font-family="Helvetica,sans-Serif" font-size="10.00"> id_</text>
</g>
<!-- Node6 -->
<g id="node4" class="node"><title>Node6</title>
<g id="a_node4"><a xlink:title="STL class. ">
<polygon fill="white" stroke="#bfbfbf" points="106,-124.5 106,-143.5 166,-143.5 166,-124.5 106,-124.5"/>
<text text-anchor="middle" x="136" y="-131.5" font-family="Helvetica,sans-Serif" font-size="10.00">std::string</text>
</a>
</g>
</g>
<!-- Node6&#45;&gt;Node4 -->
<g id="edge3" class="edge"><title>Node6&#45;&gt;Node4</title>
<path fill="none" stroke="#9a32cd" stroke-dasharray="5,2" d="M121.649,-116.635C110.502,-103.923 95.4842,-86.7978 86.5655,-76.6273"/>
<polygon fill="#9a32cd" stroke="#9a32cd" points="119.088,-119.023 128.313,-124.234 124.351,-114.408 119.088,-119.023"/>
<text text-anchor="middle" x="126.5" y="-98" font-family="Helvetica,sans-Serif" font-size="10.00"> name_</text>
</g>
<!-- Node7 -->
<g id="node5" class="node"><title>Node7</title>
<g id="a_node5"><a xlink:title="STL class. ">
<polygon fill="white" stroke="#bfbfbf" points="88.5,-181.5 88.5,-211.5 183.5,-211.5 183.5,-181.5 88.5,-181.5"/>
<text text-anchor="start" x="96.5" y="-199.5" font-family="Helvetica,sans-Serif" font-size="10.00">std::basic_string&lt;</text>
<text text-anchor="middle" x="136" y="-188.5" font-family="Helvetica,sans-Serif" font-size="10.00"> char &gt;</text>
</a>
</g>
</g>
<!-- Node7&#45;&gt;Node6 -->
<g id="edge4" class="edge"><title>Node7&#45;&gt;Node6</title>
<path fill="none" stroke="midnightblue" d="M136,-171.352C136,-161.513 136,-150.775 136,-143.54"/>
<polygon fill="midnightblue" stroke="midnightblue" points="132.5,-171.468 136,-181.468 139.5,-171.468 132.5,-171.468"/>
</g>
</g>
</svg>
