<?xml version="1.0" encoding="UTF-8" standalone="no"?>
<!DOCTYPE svg PUBLIC "-//W3C//DTD SVG 1.1//EN"
 "http://www.w3.org/Graphics/SVG/1.1/DTD/svg11.dtd">
<!-- Generated by graphviz version 2.38.0 (20140413.2041)
 -->
<!-- Title: src/tools/serializers/ScheduleMappingSerializer.hpp Pages: 1 -->
<svg width="322pt" height="106pt"
 viewBox="0.00 0.00 322.00 106.00" xmlns="http://www.w3.org/2000/svg" xmlns:xlink="http://www.w3.org/1999/xlink">
<g id="graph0" class="graph" transform="scale(1 1) rotate(0) translate(4 102)">
<title>src/tools/serializers/ScheduleMappingSerializer.hpp</title>
<polygon fill="white" stroke="none" points="-4,4 -4,-102 318,-102 318,4 -4,4"/>
<!-- Node8 -->
<g id="node1" class="node"><title>Node8</title>
<polygon fill="#bfbfbf" stroke="black" points="75,-67.5 75,-97.5 231,-97.5 231,-67.5 75,-67.5"/>
<text text-anchor="start" x="83" y="-85.5" font-family="Helvetica,sans-Serif" font-size="10.00">src/tools/serializers</text>
<text text-anchor="middle" x="153" y="-74.5" font-family="Helvetica,sans-Serif" font-size="10.00">/ScheduleMappingSerializer.hpp</text>
</g>
<!-- Node9 -->
<g id="node2" class="node"><title>Node9</title>
<g id="a_node2"><a xlink:href="../../df/dfa/ScheduleCRUD_8cpp.html" target="_top" xlink:title="src/modules/websock\l&#45;api/api/ScheduleCRUD.cpp">
<polygon fill="white" stroke="black" points="0,-0.5 0,-30.5 140,-30.5 140,-0.5 0,-0.5"/>
<text text-anchor="start" x="8" y="-18.5" font-family="Helvetica,sans-Serif" font-size="10.00">src/modules/websock</text>
<text text-anchor="middle" x="70" y="-7.5" font-family="Helvetica,sans-Serif" font-size="10.00">&#45;api/api/ScheduleCRUD.cpp</text>
</a>
</g>
</g>
<!-- Node8&#45;&gt;Node9 -->
<g id="edge1" class="edge"><title>Node8&#45;&gt;Node9</title>
<path fill="none" stroke="midnightblue" d="M127.037,-61.1677C114.345,-51.2283 99.3876,-39.5144 87.9746,-30.5765"/>
<polygon fill="midnightblue" stroke="midnightblue" points="124.959,-63.9859 134.99,-67.396 129.275,-58.4747 124.959,-63.9859"/>
</g>
<!-- Node10 -->
<g id="node3" class="node"><title>Node10</title>
<g id="a_node3"><a xlink:href="../../d4/ded/ScheduleMappingSerializer_8cpp.html" target="_top" xlink:title="src/tools/serializers\l/ScheduleMappingSerializer.cpp">
<polygon fill="white" stroke="black" points="158,-0.5 158,-30.5 314,-30.5 314,-0.5 158,-0.5"/>
<text text-anchor="start" x="166" y="-18.5" font-family="Helvetica,sans-Serif" font-size="10.00">src/tools/serializers</text>
<text text-anchor="middle" x="236" y="-7.5" font-family="Helvetica,sans-Serif" font-size="10.00">/ScheduleMappingSerializer.cpp</text>
</a>
</g>
</g>
<!-- Node8&#45;&gt;Node10 -->
<g id="edge2" class="edge"><title>Node8&#45;&gt;Node10</title>
<path fill="none" stroke="midnightblue" d="M178.963,-61.1677C191.655,-51.2283 206.612,-39.5144 218.025,-30.5765"/>
<polygon fill="midnightblue" stroke="midnightblue" points="176.725,-58.4747 171.01,-67.396 181.041,-63.9859 176.725,-58.4747"/>
</g>
</g>
</svg>
