<?xml version="1.0" encoding="UTF-8" standalone="no"?>
<!DOCTYPE svg PUBLIC "-//W3C//DTD SVG 1.1//EN"
 "http://www.w3.org/Graphics/SVG/1.1/DTD/svg11.dtd">
<!-- Generated by graphviz version 2.38.0 (20140413.2041)
 -->
<!-- Title: src/tools/serializers/ScheduleSerializer.cpp Pages: 1 -->
<svg width="2806pt" height="341pt"
 viewBox="0.00 0.00 2805.50 341.00" xmlns="http://www.w3.org/2000/svg" xmlns:xlink="http://www.w3.org/1999/xlink">
<g id="graph0" class="graph" transform="scale(1 1) rotate(0) translate(4 337)">
<title>src/tools/serializers/ScheduleSerializer.cpp</title>
<polygon fill="white" stroke="none" points="-4,4 -4,-337 2801.5,-337 2801.5,4 -4,4"/>
<!-- Node0 -->
<g id="node1" class="node"><title>Node0</title>
<polygon fill="#bfbfbf" stroke="black" points="615.5,-302.5 615.5,-332.5 734.5,-332.5 734.5,-302.5 615.5,-302.5"/>
<text text-anchor="start" x="623.5" y="-320.5" font-family="Helvetica,sans-Serif" font-size="10.00">src/tools/serializers</text>
<text text-anchor="middle" x="675" y="-309.5" font-family="Helvetica,sans-Serif" font-size="10.00">/ScheduleSerializer.cpp</text>
</g>
<!-- Node1 -->
<g id="node2" class="node"><title>Node1</title>
<g id="a_node2"><a xlink:href="../../da/da2/ScheduleSerializer_8hpp.html" target="_top" xlink:title="tools/serializers/Schedule\lSerializer.hpp">
<polygon fill="white" stroke="black" points="536,-235.5 536,-265.5 664,-265.5 664,-235.5 536,-235.5"/>
<text text-anchor="start" x="544" y="-253.5" font-family="Helvetica,sans-Serif" font-size="10.00">tools/serializers/Schedule</text>
<text text-anchor="middle" x="600" y="-242.5" font-family="Helvetica,sans-Serif" font-size="10.00">Serializer.hpp</text>
</a>
</g>
</g>
<!-- Node0&#45;&gt;Node1 -->
<g id="edge1" class="edge"><title>Node0&#45;&gt;Node1</title>
<path fill="none" stroke="midnightblue" d="M658.726,-302.396C648.603,-293.623 635.403,-282.183 624.082,-272.371"/>
<polygon fill="midnightblue" stroke="midnightblue" points="626.091,-269.481 616.242,-265.577 621.507,-274.771 626.091,-269.481"/>
</g>
<!-- Node11 -->
<g id="node12" class="node"><title>Node11</title>
<g id="a_node12"><a xlink:href="../../de/d8c/JSONUtils_8hpp.html" target="_top" xlink:title="tools/JSONUtils.hpp">
<polygon fill="white" stroke="black" points="836.5,-241 836.5,-260 943.5,-260 943.5,-241 836.5,-241"/>
<text text-anchor="middle" x="890" y="-248" font-family="Helvetica,sans-Serif" font-size="10.00">tools/JSONUtils.hpp</text>
</a>
</g>
</g>
<!-- Node0&#45;&gt;Node11 -->
<g id="edge14" class="edge"><title>Node0&#45;&gt;Node11</title>
<path fill="none" stroke="midnightblue" d="M721.387,-302.476C760.429,-290.673 815.574,-274.001 852.031,-262.979"/>
<polygon fill="midnightblue" stroke="midnightblue" points="853.231,-266.273 861.79,-260.029 851.205,-259.572 853.231,-266.273"/>
</g>
<!-- Node35 -->
<g id="node36" class="node"><title>Node35</title>
<g id="a_node36"><a xlink:href="../../d6/d11/ScheduleMapping_8hpp.html" target="_top" xlink:title="tools/ScheduleMapping.hpp">
<polygon fill="white" stroke="black" points="311.5,-179.5 311.5,-198.5 448.5,-198.5 448.5,-179.5 311.5,-179.5"/>
<text text-anchor="middle" x="380" y="-186.5" font-family="Helvetica,sans-Serif" font-size="10.00">tools/ScheduleMapping.hpp</text>
</a>
</g>
</g>
<!-- Node0&#45;&gt;Node35 -->
<g id="edge67" class="edge"><title>Node0&#45;&gt;Node35</title>
<path fill="none" stroke="midnightblue" d="M628.004,-302.431C598.575,-293.14 560.091,-280.107 527,-266 482.123,-246.868 432.105,-219.679 403.51,-203.539"/>
<polygon fill="midnightblue" stroke="midnightblue" points="405.096,-200.414 394.672,-198.516 401.637,-206.5 405.096,-200.414"/>
</g>
<!-- Node37 -->
<g id="node38" class="node"><title>Node37</title>
<g id="a_node38"><a xlink:href="../../df/dfe/SingleTimeFrame_8hpp.html" target="_top" xlink:title="tools/SingleTimeFrame.hpp">
<polygon fill="white" stroke="black" points="682,-241 682,-260 818,-260 818,-241 682,-241"/>
<text text-anchor="middle" x="750" y="-248" font-family="Helvetica,sans-Serif" font-size="10.00">tools/SingleTimeFrame.hpp</text>
</a>
</g>
</g>
<!-- Node0&#45;&gt;Node37 -->
<g id="edge74" class="edge"><title>Node0&#45;&gt;Node37</title>
<path fill="none" stroke="midnightblue" d="M691.274,-302.396C703.315,-291.96 719.711,-277.751 732.118,-266.998"/>
<polygon fill="midnightblue" stroke="midnightblue" points="734.703,-269.389 739.968,-260.195 730.119,-264.099 734.703,-269.389"/>
</g>
<!-- Node38 -->
<g id="node39" class="node"><title>Node38</title>
<g id="a_node39"><a xlink:href="../../d4/d3d/log_8hpp.html" target="_top" xlink:title="tools/log.hpp">
<polygon fill="white" stroke="black" points="121,-56.5 121,-75.5 193,-75.5 193,-56.5 121,-56.5"/>
<text text-anchor="middle" x="157" y="-63.5" font-family="Helvetica,sans-Serif" font-size="10.00">tools/log.hpp</text>
</a>
</g>
</g>
<!-- Node0&#45;&gt;Node38 -->
<g id="edge76" class="edge"><title>Node0&#45;&gt;Node38</title>
<path fill="none" stroke="midnightblue" d="M615.437,-309.441C471.205,-290.99 109.907,-236.192 40,-143 31.7323,-131.979 32.1999,-123.357 40,-112 55.8805,-88.8776 85.4284,-77.6313 110.856,-72.1638"/>
<polygon fill="midnightblue" stroke="midnightblue" points="111.557,-75.5932 120.722,-70.2777 110.243,-68.7177 111.557,-75.5932"/>
</g>
<!-- Node43 -->
<g id="node44" class="node"><title>Node43</title>
<polygon fill="white" stroke="#bfbfbf" points="961.5,-241 961.5,-260 1090.5,-260 1090.5,-241 961.5,-241"/>
<text text-anchor="middle" x="1026" y="-248" font-family="Helvetica,sans-Serif" font-size="10.00">boost/algorithm/string.hpp</text>
</g>
<!-- Node0&#45;&gt;Node43 -->
<g id="edge83" class="edge"><title>Node0&#45;&gt;Node43</title>
<path fill="none" stroke="midnightblue" d="M734.75,-305.841C790.878,-295.773 877.191,-280.148 952,-266 958.741,-264.725 965.824,-263.365 972.825,-262.007"/>
<polygon fill="midnightblue" stroke="midnightblue" points="973.829,-265.377 982.975,-260.03 972.491,-258.506 973.829,-265.377"/>
</g>
<!-- Node2 -->
<g id="node3" class="node"><title>Node2</title>
<g id="a_node3"><a xlink:href="../../dc/d49/LeosacFwd_8hpp.html" target="_top" xlink:title="LeosacFwd.hpp">
<polygon fill="white" stroke="black" points="495,-118 495,-137 581,-137 581,-118 495,-118"/>
<text text-anchor="middle" x="538" y="-125" font-family="Helvetica,sans-Serif" font-size="10.00">LeosacFwd.hpp</text>
</a>
</g>
</g>
<!-- Node1&#45;&gt;Node2 -->
<g id="edge2" class="edge"><title>Node1&#45;&gt;Node2</title>
<path fill="none" stroke="midnightblue" d="M577.305,-235.298C565.235,-226.436 551.395,-213.891 544,-199 535.989,-182.869 535.186,-162.089 535.963,-147.277"/>
<polygon fill="midnightblue" stroke="midnightblue" points="539.453,-147.539 536.771,-137.289 532.476,-146.974 539.453,-147.539"/>
</g>
<!-- Node5 -->
<g id="node6" class="node"><title>Node5</title>
<g id="a_node6"><a xlink:href="../../d6/dab/ISchedule_8hpp.html" target="_top" xlink:title="tools/ISchedule.hpp">
<polygon fill="white" stroke="black" points="553.5,-179.5 553.5,-198.5 656.5,-198.5 656.5,-179.5 553.5,-179.5"/>
<text text-anchor="middle" x="605" y="-186.5" font-family="Helvetica,sans-Serif" font-size="10.00">tools/ISchedule.hpp</text>
</a>
</g>
</g>
<!-- Node1&#45;&gt;Node5 -->
<g id="edge5" class="edge"><title>Node1&#45;&gt;Node5</title>
<path fill="none" stroke="midnightblue" d="M601.185,-235.399C601.852,-227.466 602.693,-217.458 603.415,-208.858"/>
<polygon fill="midnightblue" stroke="midnightblue" points="606.923,-208.916 604.272,-198.658 599.947,-208.33 606.923,-208.916"/>
</g>
<!-- Node9 -->
<g id="node10" class="node"><title>Node9</title>
<polygon fill="white" stroke="#bfbfbf" points="1202.5,-0.5 1202.5,-19.5 1243.5,-19.5 1243.5,-0.5 1202.5,-0.5"/>
<text text-anchor="middle" x="1223" y="-7.5" font-family="Helvetica,sans-Serif" font-size="10.00">string</text>
</g>
<!-- Node1&#45;&gt;Node9 -->
<g id="edge13" class="edge"><title>Node1&#45;&gt;Node9</title>
<path fill="none" stroke="midnightblue" d="M623.398,-235.459C636.942,-226.403 653.524,-213.609 665,-199 691.176,-165.677 670.807,-138.34 704,-112 781.096,-50.8214 1093.19,-21.2682 1192.5,-13.2846"/>
<polygon fill="midnightblue" stroke="midnightblue" points="1192.79,-16.7725 1202.48,-12.4973 1192.24,-9.79411 1192.79,-16.7725"/>
</g>
<!-- Node10 -->
<g id="node11" class="node"><title>Node10</title>
<polygon fill="white" stroke="#bfbfbf" points="786.5,-179.5 786.5,-198.5 839.5,-198.5 839.5,-179.5 786.5,-179.5"/>
<text text-anchor="middle" x="813" y="-186.5" font-family="Helvetica,sans-Serif" font-size="10.00">json.hpp</text>
</g>
<!-- Node1&#45;&gt;Node10 -->
<g id="edge12" class="edge"><title>Node1&#45;&gt;Node10</title>
<path fill="none" stroke="midnightblue" d="M650.208,-235.475C689.052,-224.624 741.917,-209.857 776.725,-200.133"/>
<polygon fill="midnightblue" stroke="midnightblue" points="777.784,-203.471 786.474,-197.41 775.901,-196.729 777.784,-203.471"/>
</g>
<!-- Node3 -->
<g id="node4" class="node"><title>Node3</title>
<polygon fill="white" stroke="#bfbfbf" points="316,-56.5 316,-75.5 368,-75.5 368,-56.5 316,-56.5"/>
<text text-anchor="middle" x="342" y="-63.5" font-family="Helvetica,sans-Serif" font-size="10.00">memory</text>
</g>
<!-- Node2&#45;&gt;Node3 -->
<g id="edge3" class="edge"><title>Node2&#45;&gt;Node3</title>
<path fill="none" stroke="midnightblue" d="M509.918,-117.975C475.132,-107.415 415.822,-89.4101 377.801,-77.8681"/>
<polygon fill="midnightblue" stroke="midnightblue" points="378.736,-74.4944 368.151,-74.9386 376.703,-81.1926 378.736,-74.4944"/>
</g>
<!-- Node4 -->
<g id="node5" class="node"><title>Node4</title>
<polygon fill="white" stroke="#bfbfbf" points="461,-56.5 461,-75.5 505,-75.5 505,-56.5 461,-56.5"/>
<text text-anchor="middle" x="483" y="-63.5" font-family="Helvetica,sans-Serif" font-size="10.00">vector</text>
</g>
<!-- Node2&#45;&gt;Node4 -->
<g id="edge4" class="edge"><title>Node2&#45;&gt;Node4</title>
<path fill="none" stroke="midnightblue" d="M530.12,-117.975C521.706,-108.873 508.181,-94.241 497.774,-82.983"/>
<polygon fill="midnightblue" stroke="midnightblue" points="500.224,-80.4766 490.866,-75.5091 495.083,-85.2282 500.224,-80.4766"/>
</g>
<!-- Node5&#45;&gt;Node4 -->
<g id="edge11" class="edge"><title>Node5&#45;&gt;Node4</title>
<path fill="none" stroke="midnightblue" d="M605.742,-179.4C606.586,-164.078 606.143,-131.809 590,-112 580.079,-99.8259 542.577,-85.7955 514.755,-76.6817"/>
<polygon fill="midnightblue" stroke="midnightblue" points="515.603,-73.2782 505.012,-73.559 513.466,-79.9442 515.603,-73.2782"/>
</g>
<!-- Node6 -->
<g id="node7" class="node"><title>Node6</title>
<g id="a_node7"><a xlink:href="../../d8/d97/ToolsFwd_8hpp.html" target="_top" xlink:title="tools/ToolsFwd.hpp">
<polygon fill="white" stroke="black" points="201,-118 201,-137 303,-137 303,-118 201,-118"/>
<text text-anchor="middle" x="252" y="-125" font-family="Helvetica,sans-Serif" font-size="10.00">tools/ToolsFwd.hpp</text>
</a>
</g>
</g>
<!-- Node5&#45;&gt;Node6 -->
<g id="edge6" class="edge"><title>Node5&#45;&gt;Node6</title>
<path fill="none" stroke="midnightblue" d="M553.43,-181.426C494.724,-173.631 396.068,-159.583 312,-143 306.546,-141.924 300.838,-140.689 295.204,-139.403"/>
<polygon fill="midnightblue" stroke="midnightblue" points="295.748,-135.936 285.213,-137.057 294.148,-142.75 295.748,-135.936"/>
</g>
<!-- Node8 -->
<g id="node9" class="node"><title>Node8</title>
<polygon fill="white" stroke="#bfbfbf" points="713,-118 713,-137 759,-137 759,-118 713,-118"/>
<text text-anchor="middle" x="736" y="-125" font-family="Helvetica,sans-Serif" font-size="10.00">chrono</text>
</g>
<!-- Node5&#45;&gt;Node8 -->
<g id="edge9" class="edge"><title>Node5&#45;&gt;Node8</title>
<path fill="none" stroke="midnightblue" d="M623.769,-179.475C645.851,-169.445 682.719,-152.7 708.139,-141.155"/>
<polygon fill="midnightblue" stroke="midnightblue" points="709.608,-144.331 717.266,-137.009 706.713,-137.958 709.608,-144.331"/>
</g>
<!-- Node5&#45;&gt;Node9 -->
<g id="edge10" class="edge"><title>Node5&#45;&gt;Node9</title>
<path fill="none" stroke="midnightblue" d="M606.37,-179.318C610.718,-154.989 626.631,-85.9813 671,-56 714.321,-26.7271 1082.51,-14.7121 1192.25,-11.7608"/>
<polygon fill="midnightblue" stroke="midnightblue" points="1192.43,-15.2574 1202.33,-11.4958 1192.24,-8.25982 1192.43,-15.2574"/>
</g>
<!-- Node6&#45;&gt;Node3 -->
<g id="edge7" class="edge"><title>Node6&#45;&gt;Node3</title>
<path fill="none" stroke="midnightblue" d="M264.895,-117.975C279.464,-108.343 303.402,-92.5175 320.745,-81.0517"/>
<polygon fill="midnightblue" stroke="midnightblue" points="322.717,-83.9437 329.129,-75.5091 318.857,-78.1044 322.717,-83.9437"/>
</g>
<!-- Node7 -->
<g id="node8" class="node"><title>Node7</title>
<polygon fill="white" stroke="#bfbfbf" points="211,-56.5 211,-75.5 297,-75.5 297,-56.5 211,-56.5"/>
<text text-anchor="middle" x="254" y="-63.5" font-family="Helvetica,sans-Serif" font-size="10.00">odb/lazy&#45;ptr.hxx</text>
</g>
<!-- Node6&#45;&gt;Node7 -->
<g id="edge8" class="edge"><title>Node6&#45;&gt;Node7</title>
<path fill="none" stroke="midnightblue" d="M252.287,-117.975C252.569,-109.58 253.009,-96.4806 253.373,-85.6631"/>
<polygon fill="midnightblue" stroke="midnightblue" points="256.876,-85.6211 253.714,-75.5091 249.88,-85.3858 256.876,-85.6211"/>
</g>
<!-- Node11&#45;&gt;Node8 -->
<g id="edge64" class="edge"><title>Node11&#45;&gt;Node8</title>
<path fill="none" stroke="midnightblue" d="M886.914,-240.994C881.268,-226.495 867.985,-196.833 848,-179 841.466,-173.17 797.223,-154.037 766.342,-141.069"/>
<polygon fill="midnightblue" stroke="midnightblue" points="767.426,-137.729 756.85,-137.1 764.725,-144.187 767.426,-137.729"/>
</g>
<!-- Node11&#45;&gt;Node10 -->
<g id="edge65" class="edge"><title>Node11&#45;&gt;Node10</title>
<path fill="none" stroke="midnightblue" d="M878.968,-240.975C866.732,-231.52 846.771,-216.096 832.007,-204.687"/>
<polygon fill="midnightblue" stroke="midnightblue" points="834.065,-201.854 824.012,-198.509 829.785,-207.393 834.065,-201.854"/>
</g>
<!-- Node12 -->
<g id="node13" class="node"><title>Node12</title>
<g id="a_node13"><a xlink:href="../../d3/d6f/AuthFwd_8hpp.html" target="_top" xlink:title="core/auth/AuthFwd.hpp">
<polygon fill="white" stroke="black" points="321,-118 321,-137 439,-137 439,-118 321,-118"/>
<text text-anchor="middle" x="380" y="-125" font-family="Helvetica,sans-Serif" font-size="10.00">core/auth/AuthFwd.hpp</text>
</a>
</g>
</g>
<!-- Node11&#45;&gt;Node12 -->
<g id="edge15" class="edge"><title>Node11&#45;&gt;Node12</title>
<path fill="none" stroke="midnightblue" d="M855.796,-240.975C846.492,-238.835 836.392,-236.674 827,-235 702.176,-212.753 666.323,-232.362 544,-199 492.517,-184.959 436.096,-157.912 404.671,-141.707"/>
<polygon fill="midnightblue" stroke="midnightblue" points="406.238,-138.577 395.753,-137.052 402.999,-144.782 406.238,-138.577"/>
</g>
<!-- Node14 -->
<g id="node15" class="node"><title>Node14</title>
<g id="a_node15"><a xlink:href="../../d1/ddd/leosacexception_8hpp.html" target="_top" xlink:title="Exception class for LEOSAC Project related errors. ">
<polygon fill="white" stroke="black" points="1314.5,-179.5 1314.5,-198.5 1465.5,-198.5 1465.5,-179.5 1314.5,-179.5"/>
<text text-anchor="middle" x="1390" y="-186.5" font-family="Helvetica,sans-Serif" font-size="10.00">exception/leosacexception.hpp</text>
</a>
</g>
</g>
<!-- Node11&#45;&gt;Node14 -->
<g id="edge19" class="edge"><title>Node11&#45;&gt;Node14</title>
<path fill="none" stroke="midnightblue" d="M922.984,-240.964C932.316,-238.774 942.515,-236.59 952,-235 1073.59,-214.62 1215.83,-202.058 1304.43,-195.553"/>
<polygon fill="midnightblue" stroke="midnightblue" points="1304.71,-199.042 1314.43,-194.827 1304.2,-192.06 1304.71,-199.042"/>
</g>
<!-- Node28 -->
<g id="node29" class="node"><title>Node28</title>
<g id="a_node29"><a xlink:href="../../dc/dea/Uuid_8hpp.html" target="_top" xlink:title="tools/Uuid.hpp">
<polygon fill="white" stroke="black" points="2311,-179.5 2311,-198.5 2391,-198.5 2391,-179.5 2311,-179.5"/>
<text text-anchor="middle" x="2351" y="-186.5" font-family="Helvetica,sans-Serif" font-size="10.00">tools/Uuid.hpp</text>
</a>
</g>
</g>
<!-- Node11&#45;&gt;Node28 -->
<g id="edge56" class="edge"><title>Node11&#45;&gt;Node28</title>
<path fill="none" stroke="midnightblue" d="M921.001,-240.983C930.838,-238.623 941.807,-236.342 952,-235 1087.55,-217.148 2065.87,-195.908 2300.52,-191.032"/>
<polygon fill="midnightblue" stroke="midnightblue" points="2300.88,-194.525 2310.8,-190.819 2300.73,-187.527 2300.88,-194.525"/>
</g>
<!-- Node29 -->
<g id="node30" class="node"><title>Node29</title>
<polygon fill="white" stroke="#bfbfbf" points="2124,-118 2124,-137 2238,-137 2238,-118 2124,-118"/>
<text text-anchor="middle" x="2181" y="-125" font-family="Helvetica,sans-Serif" font-size="10.00">boost/lexical_cast.hpp</text>
</g>
<!-- Node11&#45;&gt;Node29 -->
<g id="edge63" class="edge"><title>Node11&#45;&gt;Node29</title>
<path fill="none" stroke="midnightblue" d="M921.981,-240.926C931.569,-238.652 942.155,-236.434 952,-235 1217.67,-196.29 1287.37,-220.362 1555,-199 1804.34,-179.098 1867.98,-182.348 2115,-143 2121.77,-141.921 2128.89,-140.579 2135.85,-139.15"/>
<polygon fill="midnightblue" stroke="midnightblue" points="2136.81,-142.523 2145.86,-137.015 2135.35,-135.677 2136.81,-142.523"/>
</g>
<!-- Node34 -->
<g id="node35" class="node"><title>Node34</title>
<polygon fill="white" stroke="#bfbfbf" points="1484,-179.5 1484,-198.5 1546,-198.5 1546,-179.5 1484,-179.5"/>
<text text-anchor="middle" x="1515" y="-186.5" font-family="Helvetica,sans-Serif" font-size="10.00">type_traits</text>
</g>
<!-- Node11&#45;&gt;Node34 -->
<g id="edge66" class="edge"><title>Node11&#45;&gt;Node34</title>
<path fill="none" stroke="midnightblue" d="M921.989,-240.982C931.578,-238.71 942.162,-236.479 952,-235 1179.14,-200.849 1242.66,-231.769 1473.59,-198.983"/>
<polygon fill="midnightblue" stroke="midnightblue" points="1474.24,-202.425 1483.64,-197.531 1473.24,-195.496 1474.24,-202.425"/>
</g>
<!-- Node12&#45;&gt;Node3 -->
<g id="edge17" class="edge"><title>Node12&#45;&gt;Node3</title>
<path fill="none" stroke="midnightblue" d="M374.556,-117.975C368.912,-109.138 359.939,-95.0886 352.841,-83.975"/>
<polygon fill="midnightblue" stroke="midnightblue" points="355.767,-82.0531 347.434,-75.5091 349.867,-85.8208 355.767,-82.0531"/>
</g>
<!-- Node12&#45;&gt;Node7 -->
<g id="edge18" class="edge"><title>Node12&#45;&gt;Node7</title>
<path fill="none" stroke="midnightblue" d="M361.947,-117.975C340.802,-107.99 305.56,-91.3476 281.122,-79.8075"/>
<polygon fill="midnightblue" stroke="midnightblue" points="282.556,-76.6143 272.019,-75.5091 279.567,-82.9441 282.556,-76.6143"/>
</g>
<!-- Node13 -->
<g id="node14" class="node"><title>Node13</title>
<polygon fill="white" stroke="#bfbfbf" points="388.5,-56.5 388.5,-75.5 437.5,-75.5 437.5,-56.5 388.5,-56.5"/>
<text text-anchor="middle" x="413" y="-63.5" font-family="Helvetica,sans-Serif" font-size="10.00">cstddef</text>
</g>
<!-- Node12&#45;&gt;Node13 -->
<g id="edge16" class="edge"><title>Node12&#45;&gt;Node13</title>
<path fill="none" stroke="midnightblue" d="M384.728,-117.975C389.58,-109.227 397.266,-95.3691 403.4,-84.3093"/>
<polygon fill="midnightblue" stroke="midnightblue" points="406.491,-85.9517 408.281,-75.5091 400.37,-82.5566 406.491,-85.9517"/>
</g>
<!-- Node14&#45;&gt;Node9 -->
<g id="edge25" class="edge"><title>Node14&#45;&gt;Node9</title>
<path fill="none" stroke="midnightblue" d="M1323.15,-179.472C1279.27,-172.345 1227.59,-160.5 1214,-143 1188.26,-109.846 1203.85,-56.7626 1214.89,-29.0968"/>
<polygon fill="midnightblue" stroke="midnightblue" points="1218.26,-30.1026 1218.93,-19.529 1211.81,-27.3764 1218.26,-30.1026"/>
</g>
<!-- Node14&#45;&gt;Node13 -->
<g id="edge23" class="edge"><title>Node14&#45;&gt;Node13</title>
<path fill="none" stroke="midnightblue" d="M1314.41,-187.755C1177.98,-186.398 896.341,-179.146 806,-143 785.764,-134.903 788.085,-120.465 768,-112 637.743,-57.1024 591.312,-99.9307 452,-76 450.545,-75.75 449.062,-75.4795 447.567,-75.1936"/>
<polygon fill="midnightblue" stroke="midnightblue" points="448.175,-71.7452 437.672,-73.138 446.751,-78.5989 448.175,-71.7452"/>
</g>
<!-- Node15 -->
<g id="node16" class="node"><title>Node15</title>
<g id="a_node16"><a xlink:href="../../d6/d2f/Stacktrace_8hpp.html" target="_top" xlink:title="tools/Stacktrace.hpp">
<polygon fill="white" stroke="black" points="815.5,-118 815.5,-137 922.5,-137 922.5,-118 815.5,-118"/>
<text text-anchor="middle" x="869" y="-125" font-family="Helvetica,sans-Serif" font-size="10.00">tools/Stacktrace.hpp</text>
</a>
</g>
</g>
<!-- Node14&#45;&gt;Node15 -->
<g id="edge20" class="edge"><title>Node14&#45;&gt;Node15</title>
<path fill="none" stroke="midnightblue" d="M1314.24,-183.544C1223.1,-177.496 1065.65,-164.854 932,-143 925.676,-141.966 919.039,-140.672 912.544,-139.285"/>
<polygon fill="midnightblue" stroke="midnightblue" points="913.04,-135.81 902.518,-137.054 911.519,-142.643 913.04,-135.81"/>
</g>
<!-- Node16 -->
<g id="node17" class="node"><title>Node16</title>
<polygon fill="white" stroke="#bfbfbf" points="1582.5,-118 1582.5,-137 1641.5,-137 1641.5,-118 1582.5,-118"/>
<text text-anchor="middle" x="1612" y="-125" font-family="Helvetica,sans-Serif" font-size="10.00">exception</text>
</g>
<!-- Node14&#45;&gt;Node16 -->
<g id="edge24" class="edge"><title>Node14&#45;&gt;Node16</title>
<path fill="none" stroke="midnightblue" d="M1431.33,-179.44C1468.89,-171.295 1525.65,-158.072 1574,-143 1576.42,-142.246 1578.91,-141.419 1581.39,-140.553"/>
<polygon fill="midnightblue" stroke="midnightblue" points="1582.66,-143.816 1590.86,-137.102 1580.27,-137.239 1582.66,-143.816"/>
</g>
<!-- Node17 -->
<g id="node18" class="node"><title>Node17</title>
<g id="a_node18"><a xlink:href="../../d7/d7a/configexception_8hpp.html" target="_top" xlink:title="configexception.hpp">
<polygon fill="white" stroke="black" points="941,-118 941,-137 1045,-137 1045,-118 941,-118"/>
<text text-anchor="middle" x="993" y="-125" font-family="Helvetica,sans-Serif" font-size="10.00">configexception.hpp</text>
</a>
</g>
</g>
<!-- Node14&#45;&gt;Node17 -->
<g id="edge26" class="edge"><title>Node14&#45;&gt;Node17</title>
<path fill="none" stroke="midnightblue" d="M1314.29,-180.823C1244,-173.24 1136.87,-160.026 1045,-143 1039.31,-141.946 1033.36,-140.705 1027.58,-139.4"/>
<polygon fill="midnightblue" stroke="midnightblue" points="1027.98,-135.899 1017.44,-137.009 1026.37,-142.712 1027.98,-135.899"/>
</g>
<!-- Node20 -->
<g id="node21" class="node"><title>Node20</title>
<g id="a_node21"><a xlink:href="../../d8/db0/coreexception_8hpp.html" target="_top" xlink:title="Exception class for Core related errors. ">
<polygon fill="white" stroke="black" points="1223,-118 1223,-137 1319,-137 1319,-118 1223,-118"/>
<text text-anchor="middle" x="1271" y="-125" font-family="Helvetica,sans-Serif" font-size="10.00">coreexception.hpp</text>
</a>
</g>
</g>
<!-- Node14&#45;&gt;Node20 -->
<g id="edge32" class="edge"><title>Node14&#45;&gt;Node20</title>
<path fill="none" stroke="midnightblue" d="M1368.05,-179.475C1346.29,-169.666 1313.55,-153.435 1292.1,-141.925"/>
<polygon fill="midnightblue" stroke="midnightblue" points="1293.57,-138.742 1283.12,-137.009 1290.21,-144.882 1293.57,-138.742"/>
</g>
<!-- Node21 -->
<g id="node22" class="node"><title>Node21</title>
<g id="a_node22"><a xlink:href="../../d8/d77/deviceexception_8hpp.html" target="_top" xlink:title="Exception class for Device related errors. ">
<polygon fill="white" stroke="black" points="1337,-118 1337,-137 1443,-137 1443,-118 1337,-118"/>
<text text-anchor="middle" x="1390" y="-125" font-family="Helvetica,sans-Serif" font-size="10.00">deviceexception.hpp</text>
</a>
</g>
</g>
<!-- Node14&#45;&gt;Node21 -->
<g id="edge35" class="edge"><title>Node14&#45;&gt;Node21</title>
<path fill="none" stroke="midnightblue" d="M1385.1,-179.475C1383.27,-171.08 1382.8,-157.981 1383.69,-147.163"/>
<polygon fill="midnightblue" stroke="midnightblue" points="1387.19,-147.397 1385.1,-137.009 1380.25,-146.429 1387.19,-147.397"/>
</g>
<!-- Node22 -->
<g id="node23" class="node"><title>Node22</title>
<g id="a_node23"><a xlink:href="../../db/d35/dynlibexception_8hpp.html" target="_top" xlink:title="Exception class for DynLib related errors. ">
<polygon fill="white" stroke="black" points="1461.5,-118 1461.5,-137 1564.5,-137 1564.5,-118 1461.5,-118"/>
<text text-anchor="middle" x="1513" y="-125" font-family="Helvetica,sans-Serif" font-size="10.00">dynlibexception.hpp</text>
</a>
</g>
</g>
<!-- Node14&#45;&gt;Node22 -->
<g id="edge38" class="edge"><title>Node14&#45;&gt;Node22</title>
<path fill="none" stroke="midnightblue" d="M1402.72,-179.475C1421.27,-169.445 1455.64,-152.7 1481.2,-141.155"/>
<polygon fill="midnightblue" stroke="midnightblue" points="1482.8,-144.273 1490.51,-137.009 1479.95,-137.878 1482.8,-144.273"/>
</g>
<!-- Node23 -->
<g id="node24" class="node"><title>Node23</title>
<g id="a_node24"><a xlink:href="../../d0/d4e/fsexception_8hpp.html" target="_top" xlink:title="Exception class for filesystem related errors. ">
<polygon fill="white" stroke="black" points="1660,-118 1660,-137 1746,-137 1746,-118 1660,-118"/>
<text text-anchor="middle" x="1703" y="-125" font-family="Helvetica,sans-Serif" font-size="10.00">fsexception.hpp</text>
</a>
</g>
</g>
<!-- Node14&#45;&gt;Node23 -->
<g id="edge41" class="edge"><title>Node14&#45;&gt;Node23</title>
<path fill="none" stroke="midnightblue" d="M1442.59,-179.469C1493.8,-171.459 1573.48,-158.419 1642,-143 1646.56,-141.974 1651.32,-140.797 1656.09,-139.567"/>
<polygon fill="midnightblue" stroke="midnightblue" points="1657.06,-142.931 1665.84,-137 1655.28,-136.161 1657.06,-142.931"/>
</g>
<!-- Node24 -->
<g id="node25" class="node"><title>Node24</title>
<g id="a_node25"><a xlink:href="../../d1/d8e/gpioexception_8hpp.html" target="_top" xlink:title="Exception class for Gpio related errors. ">
<polygon fill="white" stroke="black" points="1764.5,-118 1764.5,-137 1859.5,-137 1859.5,-118 1764.5,-118"/>
<text text-anchor="middle" x="1812" y="-125" font-family="Helvetica,sans-Serif" font-size="10.00">gpioexception.hpp</text>
</a>
</g>
</g>
<!-- Node14&#45;&gt;Node24 -->
<g id="edge44" class="edge"><title>Node14&#45;&gt;Node24</title>
<path fill="none" stroke="midnightblue" d="M1462.25,-179.484C1550.05,-169.486 1692.82,-153.001 1746,-143 1751.39,-141.986 1757.04,-140.758 1762.67,-139.451"/>
<polygon fill="midnightblue" stroke="midnightblue" points="1763.82,-142.774 1772.73,-137.043 1762.19,-135.966 1763.82,-142.774"/>
</g>
<!-- Node25 -->
<g id="node26" class="node"><title>Node25</title>
<g id="a_node26"><a xlink:href="../../d7/d8c/moduleexception_8hpp.html" target="_top" xlink:title="Exception class for modules. ">
<polygon fill="white" stroke="black" points="1877.5,-118 1877.5,-137 1986.5,-137 1986.5,-118 1877.5,-118"/>
<text text-anchor="middle" x="1932" y="-125" font-family="Helvetica,sans-Serif" font-size="10.00">moduleexception.hpp</text>
</a>
</g>
</g>
<!-- Node14&#45;&gt;Node25 -->
<g id="edge47" class="edge"><title>Node14&#45;&gt;Node25</title>
<path fill="none" stroke="midnightblue" d="M1461.08,-179.489C1462.73,-179.323 1464.38,-179.16 1466,-179 1640.99,-161.742 1686.37,-170.783 1860,-143 1866.55,-141.952 1873.44,-140.614 1880.27,-139.177"/>
<polygon fill="midnightblue" stroke="midnightblue" points="1881.15,-142.566 1890.18,-137.022 1879.67,-135.725 1881.15,-142.566"/>
</g>
<!-- Node26 -->
<g id="node27" class="node"><title>Node26</title>
<g id="a_node27"><a xlink:href="../../df/d8d/scriptexception_8hpp.html" target="_top" xlink:title="Exception class for Script related errors. ">
<polygon fill="white" stroke="black" points="2004.5,-118 2004.5,-137 2105.5,-137 2105.5,-118 2004.5,-118"/>
<text text-anchor="middle" x="2055" y="-125" font-family="Helvetica,sans-Serif" font-size="10.00">scriptexception.hpp</text>
</a>
</g>
</g>
<!-- Node14&#45;&gt;Node26 -->
<g id="edge50" class="edge"><title>Node14&#45;&gt;Node26</title>
<path fill="none" stroke="midnightblue" d="M1460.62,-179.48C1462.43,-179.316 1464.23,-179.155 1466,-179 1697.23,-158.777 1757.67,-178.83 1987,-143 1993.16,-142.038 1999.61,-140.749 2006.01,-139.333"/>
<polygon fill="midnightblue" stroke="midnightblue" points="2007.01,-142.694 2015.97,-137.035 2005.44,-135.873 2007.01,-142.694"/>
</g>
<!-- Node27 -->
<g id="node28" class="node"><title>Node27</title>
<g id="a_node28"><a xlink:href="../../dc/dce/signalexception_8hpp.html" target="_top" xlink:title="Exception class for Signal related errors. ">
<polygon fill="white" stroke="black" points="1063.5,-118 1063.5,-137 1166.5,-137 1166.5,-118 1063.5,-118"/>
<text text-anchor="middle" x="1115" y="-125" font-family="Helvetica,sans-Serif" font-size="10.00">signalexception.hpp</text>
</a>
</g>
</g>
<!-- Node14&#45;&gt;Node27 -->
<g id="edge53" class="edge"><title>Node14&#45;&gt;Node27</title>
<path fill="none" stroke="midnightblue" d="M1343.2,-179.423C1298.84,-170.405 1230.75,-155.779 1172,-143 1166.48,-141.8 1160.71,-140.539 1155.03,-139.282"/>
<polygon fill="midnightblue" stroke="midnightblue" points="1155.5,-135.801 1144.98,-137.038 1153.97,-142.633 1155.5,-135.801"/>
</g>
<!-- Node15&#45;&gt;Node4 -->
<g id="edge22" class="edge"><title>Node15&#45;&gt;Node4</title>
<path fill="none" stroke="midnightblue" d="M831.699,-117.947C821.756,-115.832 810.998,-113.69 801,-112 677.461,-91.1196 641.702,-101.443 515.312,-75.9782"/>
<polygon fill="midnightblue" stroke="midnightblue" points="515.745,-72.4944 505.246,-73.914 514.339,-79.3516 515.745,-72.4944"/>
</g>
<!-- Node15&#45;&gt;Node9 -->
<g id="edge21" class="edge"><title>Node15&#45;&gt;Node9</title>
<path fill="none" stroke="midnightblue" d="M895.318,-117.913C959.636,-96.9281 1124.5,-43.1361 1192.74,-20.8745"/>
<polygon fill="midnightblue" stroke="midnightblue" points="1194.03,-24.1333 1202.45,-17.704 1191.86,-17.4785 1194.03,-24.1333"/>
</g>
<!-- Node17&#45;&gt;Node9 -->
<g id="edge31" class="edge"><title>Node17&#45;&gt;Node9</title>
<path fill="none" stroke="midnightblue" d="M1010.29,-117.819C1050.26,-97.7445 1149.29,-48.0146 1196.78,-24.1667"/>
<polygon fill="midnightblue" stroke="midnightblue" points="1198.46,-27.24 1205.83,-19.6245 1195.32,-20.9844 1198.46,-27.24"/>
</g>
<!-- Node17&#45;&gt;Node14 -->
<g id="edge27" class="edge"><title>Node17&#45;&gt;Node14</title>
<path fill="none" stroke="midnightblue" d="M1034.78,-137.009C1044.12,-139.149 1053.9,-141.314 1063,-143 1145.43,-158.277 1240.15,-170.484 1306.41,-178.309"/>
<polygon fill="midnightblue" stroke="midnightblue" points="1306.05,-181.79 1316.39,-179.479 1306.87,-174.838 1306.05,-181.79"/>
</g>
<!-- Node18 -->
<g id="node19" class="node"><title>Node18</title>
<g id="a_node19"><a xlink:href="../../dd/d35/Colorize_8hpp.html" target="_top" xlink:title="tools/Colorize.hpp">
<polygon fill="white" stroke="black" points="523.5,-56.5 523.5,-75.5 618.5,-75.5 618.5,-56.5 523.5,-56.5"/>
<text text-anchor="middle" x="571" y="-63.5" font-family="Helvetica,sans-Serif" font-size="10.00">tools/Colorize.hpp</text>
</a>
</g>
</g>
<!-- Node17&#45;&gt;Node18 -->
<g id="edge28" class="edge"><title>Node17&#45;&gt;Node18</title>
<path fill="none" stroke="midnightblue" d="M959.347,-117.949C950.192,-115.809 940.249,-113.655 931,-112 825.071,-93.0471 700.191,-79.3491 628.834,-72.3334"/>
<polygon fill="midnightblue" stroke="midnightblue" points="628.995,-68.8326 618.703,-71.347 628.317,-75.7997 628.995,-68.8326"/>
</g>
<!-- Node18&#45;&gt;Node9 -->
<g id="edge30" class="edge"><title>Node18&#45;&gt;Node9</title>
<path fill="none" stroke="midnightblue" d="M618.685,-57.7441C623.515,-57.1094 628.351,-56.5141 633,-56 846.433,-32.3972 1104.68,-17.3367 1192.26,-12.605"/>
<polygon fill="midnightblue" stroke="midnightblue" points="1192.51,-16.0965 1202.31,-12.0669 1192.14,-9.1065 1192.51,-16.0965"/>
</g>
<!-- Node19 -->
<g id="node20" class="node"><title>Node19</title>
<polygon fill="white" stroke="#bfbfbf" points="448,-0.5 448,-19.5 500,-19.5 500,-0.5 448,-0.5"/>
<text text-anchor="middle" x="474" y="-7.5" font-family="Helvetica,sans-Serif" font-size="10.00">sstream</text>
</g>
<!-- Node18&#45;&gt;Node19 -->
<g id="edge29" class="edge"><title>Node18&#45;&gt;Node19</title>
<path fill="none" stroke="midnightblue" d="M555.415,-56.324C540.001,-47.7428 516.188,-34.486 498.29,-24.5224"/>
<polygon fill="midnightblue" stroke="midnightblue" points="499.986,-21.4606 489.546,-19.6545 496.581,-27.5767 499.986,-21.4606"/>
</g>
<!-- Node20&#45;&gt;Node9 -->
<g id="edge33" class="edge"><title>Node20&#45;&gt;Node9</title>
<path fill="none" stroke="midnightblue" d="M1267.39,-117.819C1259.61,-99.0896 1241.1,-54.5458 1230.6,-29.2924"/>
<polygon fill="midnightblue" stroke="midnightblue" points="1233.72,-27.6731 1226.65,-19.782 1227.26,-30.3595 1233.72,-27.6731"/>
</g>
<!-- Node20&#45;&gt;Node14 -->
<g id="edge34" class="edge"><title>Node20&#45;&gt;Node14</title>
<path fill="none" stroke="midnightblue" d="M1292.92,-137.009C1314.66,-146.811 1347.41,-163.042 1368.87,-174.556"/>
<polygon fill="midnightblue" stroke="midnightblue" points="1367.4,-177.743 1377.85,-179.475 1370.76,-171.603 1367.4,-177.743"/>
</g>
<!-- Node21&#45;&gt;Node9 -->
<g id="edge36" class="edge"><title>Node21&#45;&gt;Node9</title>
<path fill="none" stroke="midnightblue" d="M1377.45,-117.819C1349.04,-98.1698 1279.55,-50.1087 1244.28,-25.7169"/>
<polygon fill="midnightblue" stroke="midnightblue" points="1245.91,-22.5917 1235.7,-19.782 1241.93,-28.3489 1245.91,-22.5917"/>
</g>
<!-- Node21&#45;&gt;Node14 -->
<g id="edge37" class="edge"><title>Node21&#45;&gt;Node14</title>
<path fill="none" stroke="midnightblue" d="M1394.9,-137.009C1396.73,-145.398 1397.2,-158.496 1396.32,-169.317"/>
<polygon fill="midnightblue" stroke="midnightblue" points="1392.81,-169.088 1394.9,-179.475 1399.75,-170.054 1392.81,-169.088"/>
</g>
<!-- Node22&#45;&gt;Node9 -->
<g id="edge39" class="edge"><title>Node22&#45;&gt;Node9</title>
<path fill="none" stroke="midnightblue" d="M1491.2,-117.819C1440.02,-97.4358 1312.08,-46.478 1253.34,-23.0849"/>
<polygon fill="midnightblue" stroke="midnightblue" points="1254.46,-19.7616 1243.87,-19.313 1251.87,-26.2648 1254.46,-19.7616"/>
</g>
<!-- Node22&#45;&gt;Node14 -->
<g id="edge40" class="edge"><title>Node22&#45;&gt;Node14</title>
<path fill="none" stroke="midnightblue" d="M1500.31,-137.009C1481.78,-147.032 1447.41,-163.776 1421.84,-175.327"/>
<polygon fill="midnightblue" stroke="midnightblue" points="1420.24,-172.211 1412.52,-179.475 1423.08,-178.606 1420.24,-172.211"/>
</g>
<!-- Node23&#45;&gt;Node9 -->
<g id="edge42" class="edge"><title>Node23&#45;&gt;Node9</title>
<path fill="none" stroke="midnightblue" d="M1673.08,-117.936C1665.87,-115.932 1658.17,-113.845 1651,-112 1502.61,-73.8183 1323.83,-33.4274 1253.52,-17.7583"/>
<polygon fill="midnightblue" stroke="midnightblue" points="1254.08,-14.2993 1243.56,-15.5442 1252.56,-21.1323 1254.08,-14.2993"/>
</g>
<!-- Node23&#45;&gt;Node14 -->
<g id="edge43" class="edge"><title>Node23&#45;&gt;Node14</title>
<path fill="none" stroke="midnightblue" d="M1683.21,-137C1675.92,-139.116 1667.68,-141.272 1660,-143 1595.49,-157.516 1521.1,-169.923 1466.69,-178.01"/>
<polygon fill="midnightblue" stroke="midnightblue" points="1466.15,-174.551 1456.77,-179.469 1467.17,-181.476 1466.15,-174.551"/>
</g>
<!-- Node24&#45;&gt;Node9 -->
<g id="edge46" class="edge"><title>Node24&#45;&gt;Node9</title>
<path fill="none" stroke="midnightblue" d="M1779.51,-117.939C1771.52,-115.914 1762.96,-113.817 1755,-112 1565.75,-68.8265 1335.7,-29.5926 1253.77,-16.0293"/>
<polygon fill="midnightblue" stroke="midnightblue" points="1254.09,-12.534 1243.65,-14.3596 1252.95,-19.4407 1254.09,-12.534"/>
</g>
<!-- Node24&#45;&gt;Node14 -->
<g id="edge45" class="edge"><title>Node24&#45;&gt;Node14</title>
<path fill="none" stroke="midnightblue" d="M1790.05,-137.043C1781.89,-139.208 1772.63,-141.377 1764,-143 1710.95,-152.976 1568.74,-169.406 1475.71,-179.411"/>
<polygon fill="midnightblue" stroke="midnightblue" points="1475.31,-175.934 1465.74,-180.479 1476.05,-182.894 1475.31,-175.934"/>
</g>
<!-- Node25&#45;&gt;Node9 -->
<g id="edge48" class="edge"><title>Node25&#45;&gt;Node9</title>
<path fill="none" stroke="midnightblue" d="M1896.42,-117.972C1887.49,-115.924 1877.91,-113.808 1869,-112 1728.36,-83.4519 1692.78,-78.2014 1551,-56 1441.94,-38.923 1311.92,-22.1429 1253.76,-14.8247"/>
<polygon fill="midnightblue" stroke="midnightblue" points="1254.12,-11.3421 1243.76,-13.5704 1253.25,-18.2877 1254.12,-11.3421"/>
</g>
<!-- Node25&#45;&gt;Node14 -->
<g id="edge49" class="edge"><title>Node25&#45;&gt;Node14</title>
<path fill="none" stroke="midnightblue" d="M1907.45,-137.022C1898.24,-139.238 1887.75,-141.439 1878,-143 1704.37,-170.783 1658.99,-161.742 1484,-179 1481.32,-179.264 1478.6,-179.536 1475.85,-179.813"/>
<polygon fill="midnightblue" stroke="midnightblue" points="1475.37,-176.343 1465.77,-180.835 1476.07,-183.307 1475.37,-176.343"/>
</g>
<!-- Node26&#45;&gt;Node9 -->
<g id="edge51" class="edge"><title>Node26&#45;&gt;Node9</title>
<path fill="none" stroke="midnightblue" d="M2022.66,-117.989C2014.03,-115.873 2004.69,-113.72 1996,-112 1710.37,-55.4668 1358.9,-22.6224 1253.97,-13.5774"/>
<polygon fill="midnightblue" stroke="midnightblue" points="1254.03,-10.07 1243.77,-12.7066 1253.43,-17.0447 1254.03,-10.07"/>
</g>
<!-- Node26&#45;&gt;Node14 -->
<g id="edge52" class="edge"><title>Node26&#45;&gt;Node14</title>
<path fill="none" stroke="midnightblue" d="M2033.19,-137.035C2024.46,-139.307 2014.38,-141.535 2005,-143 1775.67,-178.83 1715.23,-158.777 1484,-179 1481.32,-179.234 1478.59,-179.481 1475.84,-179.736"/>
<polygon fill="midnightblue" stroke="midnightblue" points="1475.38,-176.263 1465.76,-180.695 1476.05,-183.232 1475.38,-176.263"/>
</g>
<!-- Node27&#45;&gt;Node9 -->
<g id="edge54" class="edge"><title>Node27&#45;&gt;Node9</title>
<path fill="none" stroke="midnightblue" d="M1123.12,-117.819C1141.1,-98.5879 1184.53,-52.141 1207.75,-27.3054"/>
<polygon fill="midnightblue" stroke="midnightblue" points="1210.51,-29.4768 1214.79,-19.782 1205.4,-24.6958 1210.51,-29.4768"/>
</g>
<!-- Node27&#45;&gt;Node14 -->
<g id="edge55" class="edge"><title>Node27&#45;&gt;Node14</title>
<path fill="none" stroke="midnightblue" d="M1162.49,-137.038C1171.69,-139.003 1181.17,-141.08 1190,-143 1244.16,-154.781 1306.26,-168.131 1346.81,-177.21"/>
<polygon fill="midnightblue" stroke="midnightblue" points="1346.12,-180.641 1356.64,-179.423 1347.65,-173.812 1346.12,-180.641"/>
</g>
<!-- Node28&#45;&gt;Node9 -->
<g id="edge62" class="edge"><title>Node28&#45;&gt;Node9</title>
<path fill="none" stroke="midnightblue" d="M2337.62,-179.362C2324.12,-170.535 2302.78,-156.275 2285,-143 2267.54,-129.96 2267.1,-120.42 2247,-112 2060.73,-33.988 1404.76,-14.9928 1254.04,-11.6192"/>
<polygon fill="midnightblue" stroke="midnightblue" points="1253.76,-8.11242 1243.68,-11.3946 1253.61,-15.1108 1253.76,-8.11242"/>
</g>
<!-- Node28&#45;&gt;Node29 -->
<g id="edge57" class="edge"><title>Node28&#45;&gt;Node29</title>
<path fill="none" stroke="midnightblue" d="M2326.64,-179.475C2297.36,-169.225 2248.03,-151.959 2215,-140.399"/>
<polygon fill="midnightblue" stroke="midnightblue" points="2215.91,-137.009 2205.31,-137.009 2213.59,-143.616 2215.91,-137.009"/>
</g>
<!-- Node30 -->
<g id="node31" class="node"><title>Node30</title>
<polygon fill="white" stroke="#bfbfbf" points="2517.5,-118 2517.5,-137 2678.5,-137 2678.5,-118 2517.5,-118"/>
<text text-anchor="middle" x="2598" y="-125" font-family="Helvetica,sans-Serif" font-size="10.00">boost/uuid/random_generator.hpp</text>
</g>
<!-- Node28&#45;&gt;Node30 -->
<g id="edge58" class="edge"><title>Node28&#45;&gt;Node30</title>
<path fill="none" stroke="midnightblue" d="M2386.39,-179.475C2430.23,-168.915 2504.97,-150.911 2552.88,-139.369"/>
<polygon fill="midnightblue" stroke="midnightblue" points="2553.77,-142.754 2562.68,-137.009 2552.13,-135.948 2553.77,-142.754"/>
</g>
<!-- Node31 -->
<g id="node32" class="node"><title>Node31</title>
<polygon fill="white" stroke="#bfbfbf" points="2696.5,-118 2696.5,-137 2797.5,-137 2797.5,-118 2696.5,-118"/>
<text text-anchor="middle" x="2747" y="-125" font-family="Helvetica,sans-Serif" font-size="10.00">boost/uuid/uuid.hpp</text>
</g>
<!-- Node28&#45;&gt;Node31 -->
<g id="edge59" class="edge"><title>Node28&#45;&gt;Node31</title>
<path fill="none" stroke="midnightblue" d="M2391.17,-184.058C2454.57,-177.518 2581.57,-163.122 2688,-143 2693.51,-141.959 2699.27,-140.726 2704.94,-139.424"/>
<polygon fill="midnightblue" stroke="midnightblue" points="2706.07,-142.755 2714.99,-137.036 2704.45,-135.944 2706.07,-142.755"/>
</g>
<!-- Node32 -->
<g id="node33" class="node"><title>Node32</title>
<polygon fill="white" stroke="#bfbfbf" points="2294,-118 2294,-137 2408,-137 2408,-118 2294,-118"/>
<text text-anchor="middle" x="2351" y="-125" font-family="Helvetica,sans-Serif" font-size="10.00">boost/uuid/uuid_io.hpp</text>
</g>
<!-- Node28&#45;&gt;Node32 -->
<g id="edge60" class="edge"><title>Node28&#45;&gt;Node32</title>
<path fill="none" stroke="midnightblue" d="M2351,-179.475C2351,-171.08 2351,-157.981 2351,-147.163"/>
<polygon fill="midnightblue" stroke="midnightblue" points="2354.5,-147.009 2351,-137.009 2347.5,-147.009 2354.5,-147.009"/>
</g>
<!-- Node33 -->
<g id="node34" class="node"><title>Node33</title>
<polygon fill="white" stroke="#bfbfbf" points="2426.5,-118 2426.5,-137 2499.5,-137 2499.5,-118 2426.5,-118"/>
<text text-anchor="middle" x="2463" y="-125" font-family="Helvetica,sans-Serif" font-size="10.00">odb/core.hxx</text>
</g>
<!-- Node28&#45;&gt;Node33 -->
<g id="edge61" class="edge"><title>Node28&#45;&gt;Node33</title>
<path fill="none" stroke="midnightblue" d="M2367.05,-179.475C2385.59,-169.622 2416.34,-153.288 2438.02,-141.77"/>
<polygon fill="midnightblue" stroke="midnightblue" points="2439.79,-144.792 2446.98,-137.009 2436.51,-138.61 2439.79,-144.792"/>
</g>
<!-- Node35&#45;&gt;Node4 -->
<g id="edge73" class="edge"><title>Node35&#45;&gt;Node4</title>
<path fill="none" stroke="midnightblue" d="M398.511,-179.379C413.486,-171.629 434.269,-159.012 448,-143 462.584,-125.995 472.298,-101.897 477.718,-85.4235"/>
<polygon fill="midnightblue" stroke="midnightblue" points="481.067,-86.4374 480.667,-75.8502 474.378,-84.3766 481.067,-86.4374"/>
</g>
<!-- Node35&#45;&gt;Node6 -->
<g id="edge72" class="edge"><title>Node35&#45;&gt;Node6</title>
<path fill="none" stroke="midnightblue" d="M361.661,-179.475C340.179,-169.49 304.378,-152.848 279.552,-141.307"/>
<polygon fill="midnightblue" stroke="midnightblue" points="280.849,-138.051 270.305,-137.009 277.898,-144.398 280.849,-138.051"/>
</g>
<!-- Node35&#45;&gt;Node12 -->
<g id="edge68" class="edge"><title>Node35&#45;&gt;Node12</title>
<path fill="none" stroke="midnightblue" d="M380,-179.475C380,-171.08 380,-157.981 380,-147.163"/>
<polygon fill="midnightblue" stroke="midnightblue" points="383.5,-147.009 380,-137.009 376.5,-147.009 383.5,-147.009"/>
</g>
<!-- Node36 -->
<g id="node37" class="node"><title>Node36</title>
<g id="a_node37"><a xlink:href="../../d7/d7f/CredentialFwd_8hpp.html" target="_top" xlink:title="core/credentials/Credential\lFwd.hpp">
<polygon fill="white" stroke="black" points="49.5,-112.5 49.5,-142.5 182.5,-142.5 182.5,-112.5 49.5,-112.5"/>
<text text-anchor="start" x="57.5" y="-130.5" font-family="Helvetica,sans-Serif" font-size="10.00">core/credentials/Credential</text>
<text text-anchor="middle" x="116" y="-119.5" font-family="Helvetica,sans-Serif" font-size="10.00">Fwd.hpp</text>
</a>
</g>
</g>
<!-- Node35&#45;&gt;Node36 -->
<g id="edge69" class="edge"><title>Node35&#45;&gt;Node36</title>
<path fill="none" stroke="midnightblue" d="M342.175,-179.475C302.076,-170.438 237.783,-155.947 187.976,-144.722"/>
<polygon fill="midnightblue" stroke="midnightblue" points="188.744,-141.307 178.22,-142.523 187.205,-148.136 188.744,-141.307"/>
</g>
<!-- Node36&#45;&gt;Node3 -->
<g id="edge70" class="edge"><title>Node36&#45;&gt;Node3</title>
<path fill="none" stroke="midnightblue" d="M169.273,-112.475C211.38,-101.389 269.015,-86.2152 305.883,-76.5087"/>
<polygon fill="midnightblue" stroke="midnightblue" points="306.921,-79.8547 315.701,-73.9239 305.139,-73.0853 306.921,-79.8547"/>
</g>
<!-- Node36&#45;&gt;Node7 -->
<g id="edge71" class="edge"><title>Node36&#45;&gt;Node7</title>
<path fill="none" stroke="midnightblue" d="M148.704,-112.399C171.755,-102.461 202.36,-89.2649 224.632,-79.6625"/>
<polygon fill="midnightblue" stroke="midnightblue" points="226.123,-82.8311 233.92,-75.6578 223.351,-76.4031 226.123,-82.8311"/>
</g>
<!-- Node37&#45;&gt;Node8 -->
<g id="edge75" class="edge"><title>Node37&#45;&gt;Node8</title>
<path fill="none" stroke="midnightblue" d="M748.993,-240.798C746.743,-221.35 741.263,-173.99 738.187,-147.404"/>
<polygon fill="midnightblue" stroke="midnightblue" points="741.624,-146.655 736.998,-137.123 734.67,-147.459 741.624,-146.655"/>
</g>
<!-- Node38&#45;&gt;Node9 -->
<g id="edge82" class="edge"><title>Node38&#45;&gt;Node9</title>
<path fill="none" stroke="midnightblue" d="M193.272,-57.2492C196.216,-56.7717 199.153,-56.3454 202,-56 590.546,-8.86522 1067.58,-9.54862 1192.11,-10.6394"/>
<polygon fill="midnightblue" stroke="midnightblue" points="1192.37,-14.142 1202.41,-10.7379 1192.44,-7.14229 1192.37,-14.142"/>
</g>
<!-- Node38&#45;&gt;Node19 -->
<g id="edge81" class="edge"><title>Node38&#45;&gt;Node19</title>
<path fill="none" stroke="midnightblue" d="M193.329,-57.6258C196.261,-57.0638 199.178,-56.5154 202,-56 286.136,-40.6311 385.339,-24.7928 437.583,-16.6283"/>
<polygon fill="midnightblue" stroke="midnightblue" points="438.35,-20.0511 447.692,-15.0528 437.272,-13.1346 438.35,-20.0511"/>
</g>
<!-- Node39 -->
<g id="node40" class="node"><title>Node39</title>
<polygon fill="white" stroke="#bfbfbf" points="175.5,-0.5 175.5,-19.5 224.5,-19.5 224.5,-0.5 175.5,-0.5"/>
<text text-anchor="middle" x="200" y="-7.5" font-family="Helvetica,sans-Serif" font-size="10.00">cassert</text>
</g>
<!-- Node38&#45;&gt;Node39 -->
<g id="edge77" class="edge"><title>Node38&#45;&gt;Node39</title>
<path fill="none" stroke="midnightblue" d="M164.101,-56.083C170.237,-48.3768 179.27,-37.0333 186.739,-27.6531"/>
<polygon fill="midnightblue" stroke="midnightblue" points="189.54,-29.7542 193.032,-19.7511 184.064,-25.3936 189.54,-29.7542"/>
</g>
<!-- Node40 -->
<g id="node41" class="node"><title>Node40</title>
<polygon fill="white" stroke="#bfbfbf" points="242.5,-0.5 242.5,-19.5 289.5,-19.5 289.5,-0.5 242.5,-0.5"/>
<text text-anchor="middle" x="266" y="-7.5" font-family="Helvetica,sans-Serif" font-size="10.00">csignal</text>
</g>
<!-- Node38&#45;&gt;Node40 -->
<g id="edge78" class="edge"><title>Node38&#45;&gt;Node40</title>
<path fill="none" stroke="midnightblue" d="M174.513,-56.324C192.072,-47.6247 219.331,-34.1202 239.531,-24.113"/>
<polygon fill="midnightblue" stroke="midnightblue" points="241.124,-27.23 248.531,-19.6545 238.016,-20.9575 241.124,-27.23"/>
</g>
<!-- Node41 -->
<g id="node42" class="node"><title>Node41</title>
<polygon fill="white" stroke="#bfbfbf" points="0,-0.5 0,-19.5 54,-19.5 54,-0.5 0,-0.5"/>
<text text-anchor="middle" x="27" y="-7.5" font-family="Helvetica,sans-Serif" font-size="10.00">iostream</text>
</g>
<!-- Node38&#45;&gt;Node41 -->
<g id="edge79" class="edge"><title>Node38&#45;&gt;Node41</title>
<path fill="none" stroke="midnightblue" d="M136.401,-56.4435C115.007,-47.5566 81.3188,-33.5632 56.9756,-23.4514"/>
<polygon fill="midnightblue" stroke="midnightblue" points="58.0801,-20.1203 47.5025,-19.5164 55.3948,-26.5848 58.0801,-20.1203"/>
</g>
<!-- Node42 -->
<g id="node43" class="node"><title>Node42</title>
<polygon fill="white" stroke="#bfbfbf" points="72.5,-0.5 72.5,-19.5 157.5,-19.5 157.5,-0.5 72.5,-0.5"/>
<text text-anchor="middle" x="115" y="-7.5" font-family="Helvetica,sans-Serif" font-size="10.00">spdlog/spdlog.h</text>
</g>
<!-- Node38&#45;&gt;Node42 -->
<g id="edge80" class="edge"><title>Node38&#45;&gt;Node42</title>
<path fill="none" stroke="midnightblue" d="M150.065,-56.083C144.071,-48.3768 135.248,-37.0333 127.952,-27.6531"/>
<polygon fill="midnightblue" stroke="midnightblue" points="130.709,-25.4958 121.806,-19.7511 125.183,-29.7934 130.709,-25.4958"/>
</g>
</g>
</svg>
