<?xml version="1.0" encoding="UTF-8" standalone="no"?>
<!DOCTYPE svg PUBLIC "-//W3C//DTD SVG 1.1//EN"
 "http://www.w3.org/Graphics/SVG/1.1/DTD/svg11.dtd">
<!-- Generated by graphviz version 2.38.0 (20140413.2041)
 -->
<!-- Title: src/modules/websock&#45;api/api/APISession.hpp Pages: 1 -->
<!--zoomable 251 -->
<svg id="main" version="1.1" xmlns="http://www.w3.org/2000/svg" xmlns:xlink="http://www.w3.org/1999/xlink" xml:space="preserve" onload="init(evt)">
<style type="text/css"><![CDATA[
.edge:hover path { stroke: red; }
.edge:hover polygon { stroke: red; fill: red; }
]]></style>
<script type="text/javascript"><![CDATA[
var edges = document.getElementsByTagName('g');
if (edges && edges.length) {
  for (var i=0;i<edges.length;i++) {
    if (edges[i].id.substr(0,4)=='edge') {
      edges[i].setAttribute('class','edge');
    }
  }
}
]]></script>
        <defs>
                <circle id="rim" cx="0" cy="0" r="7"/>
                <circle id="rim2" cx="0" cy="0" r="3.5"/>
                <g id="zoomPlus">
                        <use xlink:href="#rim" fill="#404040">
                                <set attributeName="fill" to="#808080" begin="zoomplus.mouseover" end="zoomplus.mouseout"/>
                        </use>
                        <path d="M-4,0h8M0,-4v8" fill="none" stroke="white" stroke-width="1.5" pointer-events="none"/>
                </g>
                <g id="zoomMin">
                        <use xlink:href="#rim" fill="#404040">
                                <set attributeName="fill" to="#808080" begin="zoomminus.mouseover" end="zoomminus.mouseout"/>
                        </use>
                        <path d="M-4,0h8" fill="none" stroke="white" stroke-width="1.5" pointer-events="none"/>
                </g>
                <g id="dirArrow">
                        <path fill="none" stroke="white" stroke-width="1.5" d="M0,-3.0v7 M-2.5,-0.5L0,-3.0L2.5,-0.5"/>
                </g>
               <g id="resetDef">
                       <use xlink:href="#rim2" fill="#404040">
                               <set attributeName="fill" to="#808080" begin="reset.mouseover" end="reset.mouseout"/>
                       </use>
               </g>
        </defs>

<script type="text/javascript">
var viewWidth = 2522;
var viewHeight = 251;
var sectionId = 'dynsection-1';
</script>
<script xlink:href="../../svgpan.js"/>
<svg id="graph" class="graph">
<g id="viewport">
<title>src/modules/websock&#45;api/api/APISession.hpp</title>
<polygon fill="white" stroke="none" points="-4,4 -4,-247 2517.5,-247 2517.5,4 -4,4"/>
<!-- Node20 -->
<g id="node1" class="node"><title>Node20</title>
<polygon fill="#bfbfbf" stroke="black" points="963.5,-212.5 963.5,-242.5 1085.5,-242.5 1085.5,-212.5 963.5,-212.5"/>
<text text-anchor="start" x="971.5" y="-230.5" font-family="Helvetica,sans-Serif" font-size="10.00">src/modules/websock</text>
<text text-anchor="middle" x="1024.5" y="-219.5" font-family="Helvetica,sans-Serif" font-size="10.00">&#45;api/api/APISession.hpp</text>
</g>
<!-- Node21 -->
<g id="node2" class="node"><title>Node21</title>
<g id="a_node2"><a xlink:href="../../d2/dc7/led-buzzer_2ws_2CRUDHandler_8cpp.html" target="_top" xlink:title="src/modules/led&#45;buzzer\l/ws/CRUDHandler.cpp">
<polygon fill="white" stroke="black" points="122.5,-140 122.5,-170 240.5,-170 240.5,-140 122.5,-140"/>
<text text-anchor="start" x="130.5" y="-158" font-family="Helvetica,sans-Serif" font-size="10.00">src/modules/led&#45;buzzer</text>
<text text-anchor="middle" x="181.5" y="-147" font-family="Helvetica,sans-Serif" font-size="10.00">/ws/CRUDHandler.cpp</text>
</a>
</g>
</g>
<!-- Node20&#45;&gt;Node21 -->
<g id="edge1" class="edge"><title>Node20&#45;&gt;Node21</title>
<path fill="none" stroke="midnightblue" d="M953.029,-227.088C815.624,-227.065 505.531,-221.417 249.5,-176 241.14,-174.517 232.346,-172.38 223.96,-170.05"/>
<polygon fill="midnightblue" stroke="midnightblue" points="953.416,-230.588 963.413,-227.079 953.409,-223.588 953.416,-230.588"/>
</g>
<!-- Node22 -->
<g id="node3" class="node"><title>Node22</title>
<g id="a_node3"><a xlink:href="../../d7/d0d/pifacedigital_2CRUDHandler_8cpp.html" target="_top" xlink:title="src/modules/pifacedigital\l/CRUDHandler.cpp">
<polygon fill="white" stroke="black" points="259,-140 259,-170 384,-170 384,-140 259,-140"/>
<text text-anchor="start" x="267" y="-158" font-family="Helvetica,sans-Serif" font-size="10.00">src/modules/pifacedigital</text>
<text text-anchor="middle" x="321.5" y="-147" font-family="Helvetica,sans-Serif" font-size="10.00">/CRUDHandler.cpp</text>
</a>
</g>
</g>
<!-- Node20&#45;&gt;Node22 -->
<g id="edge2" class="edge"><title>Node20&#45;&gt;Node22</title>
<path fill="none" stroke="midnightblue" d="M952.957,-224.763C836.159,-221.025 597.569,-209.621 398.5,-176 389.375,-174.459 379.753,-172.355 370.518,-170.087"/>
<polygon fill="midnightblue" stroke="midnightblue" points="953.091,-228.268 963.195,-225.08 953.309,-221.272 953.091,-228.268"/>
</g>
<!-- Node23 -->
<g id="node4" class="node"><title>Node23</title>
<g id="a_node4"><a xlink:href="../../d7/d29/AccessPointCRUD_8cpp.html" target="_top" xlink:title="src/modules/websock\l&#45;api/api/AccessPointCRUD.cpp">
<polygon fill="white" stroke="black" points="0,-67.5 0,-97.5 155,-97.5 155,-67.5 0,-67.5"/>
<text text-anchor="start" x="8" y="-85.5" font-family="Helvetica,sans-Serif" font-size="10.00">src/modules/websock</text>
<text text-anchor="middle" x="77.5" y="-74.5" font-family="Helvetica,sans-Serif" font-size="10.00">&#45;api/api/AccessPointCRUD.cpp</text>
</a>
</g>
</g>
<!-- Node20&#45;&gt;Node23 -->
<g id="edge3" class="edge"><title>Node20&#45;&gt;Node23</title>
<path fill="none" stroke="midnightblue" d="M953.323,-227.369C815.106,-227.951 516.091,-223.472 426.5,-176 405.279,-164.755 413.301,-146.005 392.5,-134 303.647,-82.7199 265.764,-114.433 164.5,-98 161.477,-97.5094 158.395,-97.007 155.283,-96.4976"/>
<polygon fill="midnightblue" stroke="midnightblue" points="953.41,-230.869 963.392,-227.317 953.373,-223.869 953.41,-230.869"/>
</g>
<!-- Node24 -->
<g id="node5" class="node"><title>Node24</title>
<g id="a_node5"><a xlink:href="../../d9/d8d/APISession_8cpp.html" target="_top" xlink:title="src/modules/websock\l&#45;api/api/APISession.cpp">
<polygon fill="white" stroke="black" points="173.5,-67.5 173.5,-97.5 295.5,-97.5 295.5,-67.5 173.5,-67.5"/>
<text text-anchor="start" x="181.5" y="-85.5" font-family="Helvetica,sans-Serif" font-size="10.00">src/modules/websock</text>
<text text-anchor="middle" x="234.5" y="-74.5" font-family="Helvetica,sans-Serif" font-size="10.00">&#45;api/api/APISession.cpp</text>
</a>
</g>
</g>
<!-- Node20&#45;&gt;Node24 -->
<g id="edge4" class="edge"><title>Node20&#45;&gt;Node24</title>
<path fill="none" stroke="midnightblue" d="M952.824,-226.452C821.57,-225.323 548.382,-217.836 464.5,-176 441.973,-164.765 448.009,-147.078 426.5,-134 415.051,-127.039 346.67,-109.902 294.745,-97.5196"/>
<polygon fill="midnightblue" stroke="midnightblue" points="953.143,-229.955 963.169,-226.531 953.196,-222.955 953.143,-229.955"/>
</g>
<!-- Node25 -->
<g id="node6" class="node"><title>Node25</title>
<g id="a_node6"><a xlink:href="../../da/d62/AuditGet_8cpp.html" target="_top" xlink:title="src/modules/websock\l&#45;api/api/AuditGet.cpp">
<polygon fill="white" stroke="black" points="313.5,-67.5 313.5,-97.5 425.5,-97.5 425.5,-67.5 313.5,-67.5"/>
<text text-anchor="start" x="321.5" y="-85.5" font-family="Helvetica,sans-Serif" font-size="10.00">src/modules/websock</text>
<text text-anchor="middle" x="369.5" y="-74.5" font-family="Helvetica,sans-Serif" font-size="10.00">&#45;api/api/AuditGet.cpp</text>
</a>
</g>
</g>
<!-- Node20&#45;&gt;Node25 -->
<g id="edge5" class="edge"><title>Node20&#45;&gt;Node25</title>
<path fill="none" stroke="midnightblue" d="M953.177,-224.243C832.989,-219.634 595.667,-206.844 518.5,-176 490.267,-164.715 490.018,-150.53 464.5,-134 443.493,-120.392 418.449,-107.194 399.35,-97.7044"/>
<polygon fill="midnightblue" stroke="midnightblue" points="953.256,-227.748 963.38,-224.625 953.518,-220.753 953.256,-227.748"/>
</g>
<!-- Node26 -->
<g id="node7" class="node"><title>Node26</title>
<g id="a_node7"><a xlink:href="../../d7/dde/DoorCRUD_8cpp.html" target="_top" xlink:title="src/modules/websock\l&#45;api/api/DoorCRUD.cpp">
<polygon fill="white" stroke="black" points="685,-140 685,-170 806,-170 806,-140 685,-140"/>
<text text-anchor="start" x="693" y="-158" font-family="Helvetica,sans-Serif" font-size="10.00">src/modules/websock</text>
<text text-anchor="middle" x="745.5" y="-147" font-family="Helvetica,sans-Serif" font-size="10.00">&#45;api/api/DoorCRUD.cpp</text>
</a>
</g>
</g>
<!-- Node20&#45;&gt;Node26 -->
<g id="edge6" class="edge"><title>Node20&#45;&gt;Node26</title>
<path fill="none" stroke="midnightblue" d="M953.722,-210.164C913.159,-200.61 861.352,-188.084 815.5,-176 808.411,-174.132 800.942,-172.084 793.627,-170.033"/>
<polygon fill="midnightblue" stroke="midnightblue" points="952.981,-213.585 963.516,-212.464 954.582,-206.77 952.981,-213.585"/>
</g>
<!-- Node27 -->
<g id="node8" class="node"><title>Node27</title>
<g id="a_node8"><a xlink:href="../../d1/de1/GroupCRUD_8cpp.html" target="_top" xlink:title="src/modules/websock\l&#45;api/api/GroupCRUD.cpp">
<polygon fill="white" stroke="black" points="824.5,-140 824.5,-170 950.5,-170 950.5,-140 824.5,-140"/>
<text text-anchor="start" x="832.5" y="-158" font-family="Helvetica,sans-Serif" font-size="10.00">src/modules/websock</text>
<text text-anchor="middle" x="887.5" y="-147" font-family="Helvetica,sans-Serif" font-size="10.00">&#45;api/api/GroupCRUD.cpp</text>
</a>
</g>
</g>
<!-- Node20&#45;&gt;Node27 -->
<g id="edge7" class="edge"><title>Node20&#45;&gt;Node27</title>
<path fill="none" stroke="midnightblue" d="M987.997,-207.715C965.015,-195.889 935.836,-180.874 914.847,-170.073"/>
<polygon fill="midnightblue" stroke="midnightblue" points="986.612,-210.939 997.105,-212.403 989.815,-204.715 986.612,-210.939"/>
</g>
<!-- Node28 -->
<g id="node9" class="node"><title>Node28</title>
<g id="a_node9"><a xlink:href="../../d0/d99/LogGet_8cpp.html" target="_top" xlink:title="src/modules/websock\l&#45;api/api/LogGet.cpp">
<polygon fill="white" stroke="black" points="968.5,-140 968.5,-170 1080.5,-170 1080.5,-140 968.5,-140"/>
<text text-anchor="start" x="976.5" y="-158" font-family="Helvetica,sans-Serif" font-size="10.00">src/modules/websock</text>
<text text-anchor="middle" x="1024.5" y="-147" font-family="Helvetica,sans-Serif" font-size="10.00">&#45;api/api/LogGet.cpp</text>
</a>
</g>
</g>
<!-- Node20&#45;&gt;Node28 -->
<g id="edge8" class="edge"><title>Node20&#45;&gt;Node28</title>
<path fill="none" stroke="midnightblue" d="M1024.5,-202.232C1024.5,-191.568 1024.5,-179.414 1024.5,-170.246"/>
<polygon fill="midnightblue" stroke="midnightblue" points="1021,-202.233 1024.5,-212.233 1028,-202.233 1021,-202.233"/>
</g>
<!-- Node29 -->
<g id="node10" class="node"><title>Node29</title>
<g id="a_node10"><a xlink:href="../../df/dc4/MembershipCRUD_8cpp.html" target="_top" xlink:title="src/modules/websock\l&#45;api/api/MembershipCRUD.cpp">
<polygon fill="white" stroke="black" points="1099,-140 1099,-170 1252,-170 1252,-140 1099,-140"/>
<text text-anchor="start" x="1107" y="-158" font-family="Helvetica,sans-Serif" font-size="10.00">src/modules/websock</text>
<text text-anchor="middle" x="1175.5" y="-147" font-family="Helvetica,sans-Serif" font-size="10.00">&#45;api/api/MembershipCRUD.cpp</text>
</a>
</g>
</g>
<!-- Node20&#45;&gt;Node29 -->
<g id="edge9" class="edge"><title>Node20&#45;&gt;Node29</title>
<path fill="none" stroke="midnightblue" d="M1064.06,-208.03C1089.49,-196.156 1122.02,-180.97 1145.36,-170.073"/>
<polygon fill="midnightblue" stroke="midnightblue" points="1062.27,-205.001 1054.69,-212.403 1065.24,-211.344 1062.27,-205.001"/>
</g>
<!-- Node30 -->
<g id="node11" class="node"><title>Node30</title>
<g id="a_node11"><a xlink:href="../../d7/da0/PasswordChange_8cpp.html" target="_top" xlink:title="src/modules/websock\l&#45;api/api/PasswordChange.cpp">
<polygon fill="white" stroke="black" points="444,-67.5 444,-97.5 591,-97.5 591,-67.5 444,-67.5"/>
<text text-anchor="start" x="452" y="-85.5" font-family="Helvetica,sans-Serif" font-size="10.00">src/modules/websock</text>
<text text-anchor="middle" x="517.5" y="-74.5" font-family="Helvetica,sans-Serif" font-size="10.00">&#45;api/api/PasswordChange.cpp</text>
</a>
</g>
</g>
<!-- Node20&#45;&gt;Node30 -->
<g id="edge10" class="edge"><title>Node20&#45;&gt;Node30</title>
<path fill="none" stroke="midnightblue" d="M952.781,-223.272C826.818,-216.974 576.213,-201.398 545.5,-176 522.096,-156.647 517.79,-118.42 517.275,-97.6827"/>
<polygon fill="midnightblue" stroke="midnightblue" points="952.94,-226.784 963.101,-223.781 953.285,-219.793 952.94,-226.784"/>
</g>
<!-- Node31 -->
<g id="node12" class="node"><title>Node31</title>
<g id="a_node12"><a xlink:href="../../d1/d54/AccessPointSearch_8cpp.html" target="_top" xlink:title="src/modules/websock\l&#45;api/api/search/AccessPoint\lSearch.cpp">
<polygon fill="white" stroke="black" points="1270,-134.5 1270,-175.5 1409,-175.5 1409,-134.5 1270,-134.5"/>
<text text-anchor="start" x="1278" y="-163.5" font-family="Helvetica,sans-Serif" font-size="10.00">src/modules/websock</text>
<text text-anchor="start" x="1278" y="-152.5" font-family="Helvetica,sans-Serif" font-size="10.00">&#45;api/api/search/AccessPoint</text>
<text text-anchor="middle" x="1339.5" y="-141.5" font-family="Helvetica,sans-Serif" font-size="10.00">Search.cpp</text>
</a>
</g>
</g>
<!-- Node20&#45;&gt;Node31 -->
<g id="edge11" class="edge"><title>Node20&#45;&gt;Node31</title>
<path fill="none" stroke="midnightblue" d="M1095.36,-212.195C1142.54,-202.473 1205.86,-189.054 1261.5,-176 1264.22,-175.361 1266.99,-174.7 1269.79,-174.024"/>
<polygon fill="midnightblue" stroke="midnightblue" points="1094.63,-208.77 1085.54,-214.212 1096.04,-215.627 1094.63,-208.77"/>
</g>
<!-- Node32 -->
<g id="node13" class="node"><title>Node32</title>
<g id="a_node13"><a xlink:href="../../dc/d40/CredentialSearch_8cpp.html" target="_top" xlink:title="src/modules/websock\l&#45;api/api/search/Credential\lSearch.cpp">
<polygon fill="white" stroke="black" points="1427.5,-134.5 1427.5,-175.5 1555.5,-175.5 1555.5,-134.5 1427.5,-134.5"/>
<text text-anchor="start" x="1435.5" y="-163.5" font-family="Helvetica,sans-Serif" font-size="10.00">src/modules/websock</text>
<text text-anchor="start" x="1435.5" y="-152.5" font-family="Helvetica,sans-Serif" font-size="10.00">&#45;api/api/search/Credential</text>
<text text-anchor="middle" x="1491.5" y="-141.5" font-family="Helvetica,sans-Serif" font-size="10.00">Search.cpp</text>
</a>
</g>
</g>
<!-- Node20&#45;&gt;Node32 -->
<g id="edge12" class="edge"><title>Node20&#45;&gt;Node32</title>
<path fill="none" stroke="midnightblue" d="M1096.04,-220.367C1175.36,-212.863 1306.86,-198.333 1418.5,-176 1421.33,-175.433 1424.22,-174.816 1427.13,-174.161"/>
<polygon fill="midnightblue" stroke="midnightblue" points="1095.31,-216.92 1085.68,-221.335 1095.96,-223.889 1095.31,-216.92"/>
</g>
<!-- Node33 -->
<g id="node14" class="node"><title>Node33</title>
<g id="a_node14"><a xlink:href="../../d7/df7/DoorSearch_8cpp.html" target="_top" xlink:title="src/modules/websock\l&#45;api/api/search/DoorSearch.cpp">
<polygon fill="white" stroke="black" points="1573.5,-140 1573.5,-170 1727.5,-170 1727.5,-140 1573.5,-140"/>
<text text-anchor="start" x="1581.5" y="-158" font-family="Helvetica,sans-Serif" font-size="10.00">src/modules/websock</text>
<text text-anchor="middle" x="1650.5" y="-147" font-family="Helvetica,sans-Serif" font-size="10.00">&#45;api/api/search/DoorSearch.cpp</text>
</a>
</g>
</g>
<!-- Node20&#45;&gt;Node33 -->
<g id="edge13" class="edge"><title>Node20&#45;&gt;Node33</title>
<path fill="none" stroke="midnightblue" d="M1095.61,-222.921C1199.26,-217.012 1397.65,-203.076 1564.5,-176 1574.49,-174.379 1585.04,-172.265 1595.2,-170.019"/>
<polygon fill="midnightblue" stroke="midnightblue" points="1095.37,-219.43 1085.58,-223.485 1095.76,-226.418 1095.37,-219.43"/>
</g>
<!-- Node34 -->
<g id="node15" class="node"><title>Node34</title>
<g id="a_node15"><a xlink:href="../../d1/daf/GroupSearch_8cpp.html" target="_top" xlink:title="src/modules/websock\l&#45;api/api/search/GroupSearch.cpp">
<polygon fill="white" stroke="black" points="1746,-140 1746,-170 1905,-170 1905,-140 1746,-140"/>
<text text-anchor="start" x="1754" y="-158" font-family="Helvetica,sans-Serif" font-size="10.00">src/modules/websock</text>
<text text-anchor="middle" x="1825.5" y="-147" font-family="Helvetica,sans-Serif" font-size="10.00">&#45;api/api/search/GroupSearch.cpp</text>
</a>
</g>
</g>
<!-- Node20&#45;&gt;Node34 -->
<g id="edge14" class="edge"><title>Node20&#45;&gt;Node34</title>
<path fill="none" stroke="midnightblue" d="M1095.91,-224.98C1224.6,-221.454 1503.72,-210.212 1736.5,-176 1747,-174.457 1758.1,-172.352 1768.76,-170.084"/>
<polygon fill="midnightblue" stroke="midnightblue" points="1095.69,-221.484 1085.79,-225.25 1095.88,-228.482 1095.69,-221.484"/>
</g>
<!-- Node35 -->
<g id="node16" class="node"><title>Node35</title>
<g id="a_node16"><a xlink:href="../../de/dc2/HardwareSearch_8cpp.html" target="_top" xlink:title="src/modules/websock\l&#45;api/api/search/HardwareSearch.cpp">
<polygon fill="white" stroke="black" points="1923,-140 1923,-170 2098,-170 2098,-140 1923,-140"/>
<text text-anchor="start" x="1931" y="-158" font-family="Helvetica,sans-Serif" font-size="10.00">src/modules/websock</text>
<text text-anchor="middle" x="2010.5" y="-147" font-family="Helvetica,sans-Serif" font-size="10.00">&#45;api/api/search/HardwareSearch.cpp</text>
</a>
</g>
</g>
<!-- Node20&#45;&gt;Node35 -->
<g id="edge15" class="edge"><title>Node20&#45;&gt;Node35</title>
<path fill="none" stroke="midnightblue" d="M1095.86,-226.043C1247.33,-224.286 1611.9,-215.881 1914.5,-176 1926.06,-174.476 1938.31,-172.336 1950.05,-170.018"/>
<polygon fill="midnightblue" stroke="midnightblue" points="1095.72,-222.544 1085.76,-226.154 1095.8,-229.544 1095.72,-222.544"/>
</g>
<!-- Node36 -->
<g id="node17" class="node"><title>Node36</title>
<g id="a_node17"><a xlink:href="../../df/df7/UserCRUD_8cpp.html" target="_top" xlink:title="src/modules/websock\l&#45;api/api/UserCRUD.cpp">
<polygon fill="white" stroke="black" points="2116,-140 2116,-170 2237,-170 2237,-140 2116,-140"/>
<text text-anchor="start" x="2124" y="-158" font-family="Helvetica,sans-Serif" font-size="10.00">src/modules/websock</text>
<text text-anchor="middle" x="2176.5" y="-147" font-family="Helvetica,sans-Serif" font-size="10.00">&#45;api/api/UserCRUD.cpp</text>
</a>
</g>
</g>
<!-- Node20&#45;&gt;Node36 -->
<g id="edge16" class="edge"><title>Node20&#45;&gt;Node36</title>
<path fill="none" stroke="midnightblue" d="M1095.88,-225.363C1304.68,-221.691 1911.88,-208.444 2107.5,-176 2116.11,-174.571 2125.17,-172.429 2133.8,-170.069"/>
<polygon fill="midnightblue" stroke="midnightblue" points="1095.58,-221.868 1085.65,-225.541 1095.71,-228.867 1095.58,-221.868"/>
</g>
<!-- Node37 -->
<g id="node18" class="node"><title>Node37</title>
<g id="a_node18"><a xlink:href="../../de/dd7/ZoneCRUD_8cpp.html" target="_top" xlink:title="src/modules/websock\l&#45;api/api/ZoneCRUD.cpp">
<polygon fill="white" stroke="black" points="2255.5,-140 2255.5,-170 2377.5,-170 2377.5,-140 2255.5,-140"/>
<text text-anchor="start" x="2263.5" y="-158" font-family="Helvetica,sans-Serif" font-size="10.00">src/modules/websock</text>
<text text-anchor="middle" x="2316.5" y="-147" font-family="Helvetica,sans-Serif" font-size="10.00">&#45;api/api/ZoneCRUD.cpp</text>
</a>
</g>
</g>
<!-- Node20&#45;&gt;Node37 -->
<g id="edge17" class="edge"><title>Node20&#45;&gt;Node37</title>
<path fill="none" stroke="midnightblue" d="M1095.95,-225.768C1322.46,-223.097 2022.75,-212.062 2246.5,-176 2255.36,-174.572 2264.69,-172.398 2273.55,-170.001"/>
<polygon fill="midnightblue" stroke="midnightblue" points="1095.81,-222.269 1085.85,-225.885 1095.89,-229.269 1095.81,-222.269"/>
</g>
<!-- Node38 -->
<g id="node19" class="node"><title>Node38</title>
<g id="a_node19"><a xlink:href="../../d5/dde/WSServer_8hpp.html" target="_top" xlink:title="src/modules/websock\l&#45;api/WSServer.hpp">
<polygon fill="white" stroke="black" points="554.5,-140 554.5,-170 666.5,-170 666.5,-140 554.5,-140"/>
<text text-anchor="start" x="562.5" y="-158" font-family="Helvetica,sans-Serif" font-size="10.00">src/modules/websock</text>
<text text-anchor="middle" x="610.5" y="-147" font-family="Helvetica,sans-Serif" font-size="10.00">&#45;api/WSServer.hpp</text>
</a>
</g>
</g>
<!-- Node20&#45;&gt;Node38 -->
<g id="edge18" class="edge"><title>Node20&#45;&gt;Node38</title>
<path fill="none" stroke="midnightblue" d="M953.289,-219.463C882.342,-211.689 770.575,-197.37 675.5,-176 668.128,-174.343 660.379,-172.264 652.903,-170.079"/>
<polygon fill="midnightblue" stroke="midnightblue" points="953.135,-222.967 963.453,-220.563 953.888,-216.008 953.135,-222.967"/>
</g>
<!-- Node48 -->
<g id="node29" class="node"><title>Node48</title>
<g id="a_node29"><a xlink:href="../../d9/d74/wiegand_2ws_2CRUDHandler_8cpp.html" target="_top" xlink:title="src/modules/wiegand\l/ws/CRUDHandler.cpp">
<polygon fill="white" stroke="black" points="2395.5,-140 2395.5,-170 2513.5,-170 2513.5,-140 2395.5,-140"/>
<text text-anchor="start" x="2403.5" y="-158" font-family="Helvetica,sans-Serif" font-size="10.00">src/modules/wiegand</text>
<text text-anchor="middle" x="2454.5" y="-147" font-family="Helvetica,sans-Serif" font-size="10.00">/ws/CRUDHandler.cpp</text>
</a>
</g>
</g>
<!-- Node20&#45;&gt;Node48 -->
<g id="edge34" class="edge"><title>Node20&#45;&gt;Node48</title>
<path fill="none" stroke="midnightblue" d="M1095.73,-226.195C1338.8,-224.79 2134.4,-217.087 2386.5,-176 2395.12,-174.595 2404.19,-172.43 2412.8,-170.036"/>
<polygon fill="midnightblue" stroke="midnightblue" points="1095.58,-222.696 1085.6,-226.252 1095.62,-229.696 1095.58,-222.696"/>
</g>
<!-- Node38&#45;&gt;Node23 -->
<g id="edge19" class="edge"><title>Node38&#45;&gt;Node23</title>
<path fill="none" stroke="midnightblue" d="M544.414,-146.544C457.245,-136.517 299.129,-117.663 164.5,-98 161.47,-97.5574 158.382,-97.0955 155.264,-96.6199"/>
<polygon fill="midnightblue" stroke="midnightblue" points="544.094,-150.03 554.428,-147.693 544.892,-143.076 544.094,-150.03"/>
</g>
<!-- Node38&#45;&gt;Node24 -->
<g id="edge21" class="edge"><title>Node38&#45;&gt;Node24</title>
<path fill="none" stroke="midnightblue" d="M544.265,-142.337C482.229,-131.305 386.975,-114.087 304.5,-98 301.577,-97.4298 298.586,-96.839 295.567,-96.2366"/>
<polygon fill="midnightblue" stroke="midnightblue" points="543.85,-145.818 554.308,-144.121 545.074,-138.926 543.85,-145.818"/>
</g>
<!-- Node38&#45;&gt;Node25 -->
<g id="edge22" class="edge"><title>Node38&#45;&gt;Node25</title>
<path fill="none" stroke="midnightblue" d="M552.951,-137.165C511.675,-125.091 456.699,-109.008 417.723,-97.6069"/>
<polygon fill="midnightblue" stroke="midnightblue" points="552.018,-140.539 562.598,-139.987 553.983,-133.82 552.018,-140.539"/>
</g>
<!-- Node38&#45;&gt;Node30 -->
<g id="edge25" class="edge"><title>Node38&#45;&gt;Node30</title>
<path fill="none" stroke="midnightblue" d="M583.603,-133.61C568.325,-122.029 549.593,-107.828 535.975,-97.5049"/>
<polygon fill="midnightblue" stroke="midnightblue" points="581.597,-136.481 591.68,-139.733 585.825,-130.903 581.597,-136.481"/>
</g>
<!-- Node39 -->
<g id="node20" class="node"><title>Node39</title>
<g id="a_node20"><a xlink:href="../../d7/d86/APIAuth_8cpp.html" target="_top" xlink:title="src/modules/websock\l&#45;api/api/APIAuth.cpp">
<polygon fill="white" stroke="black" points="947.5,-67.5 947.5,-97.5 1059.5,-97.5 1059.5,-67.5 947.5,-67.5"/>
<text text-anchor="start" x="955.5" y="-85.5" font-family="Helvetica,sans-Serif" font-size="10.00">src/modules/websock</text>
<text text-anchor="middle" x="1003.5" y="-74.5" font-family="Helvetica,sans-Serif" font-size="10.00">&#45;api/api/APIAuth.cpp</text>
</a>
</g>
</g>
<!-- Node38&#45;&gt;Node39 -->
<g id="edge20" class="edge"><title>Node38&#45;&gt;Node39</title>
<path fill="none" stroke="midnightblue" d="M662.248,-137.255C666.706,-136.063 671.168,-134.956 675.5,-134 790.705,-108.568 822.38,-118.862 938.5,-98 941.345,-97.4889 944.254,-96.9393 947.188,-96.3637"/>
<polygon fill="midnightblue" stroke="midnightblue" points="661.226,-133.906 652.542,-139.976 663.115,-140.647 661.226,-133.906"/>
</g>
<!-- Node40 -->
<g id="node21" class="node"><title>Node40</title>
<g id="a_node21"><a xlink:href="../../d5/dcb/CRUDResourceHandler_8cpp.html" target="_top" xlink:title="src/modules/websock\l&#45;api/api/CRUDResourceHandler.cpp">
<polygon fill="white" stroke="black" points="1077.5,-67.5 1077.5,-97.5 1253.5,-97.5 1253.5,-67.5 1077.5,-67.5"/>
<text text-anchor="start" x="1085.5" y="-85.5" font-family="Helvetica,sans-Serif" font-size="10.00">src/modules/websock</text>
<text text-anchor="middle" x="1165.5" y="-74.5" font-family="Helvetica,sans-Serif" font-size="10.00">&#45;api/api/CRUDResourceHandler.cpp</text>
</a>
</g>
</g>
<!-- Node38&#45;&gt;Node40 -->
<g id="edge23" class="edge"><title>Node38&#45;&gt;Node40</title>
<path fill="none" stroke="midnightblue" d="M661.206,-137.301C666.005,-136.053 670.823,-134.923 675.5,-134 847.576,-100.027 894.361,-118.974 1068.5,-98 1071.37,-97.6539 1074.29,-97.2897 1077.24,-96.9116"/>
<polygon fill="midnightblue" stroke="midnightblue" points="660.141,-133.964 651.434,-140 662.005,-140.711 660.141,-133.964"/>
</g>
<!-- Node41 -->
<g id="node22" class="node"><title>Node41</title>
<g id="a_node22"><a xlink:href="../../d9/d7c/MethodHandler_8cpp.html" target="_top" xlink:title="src/modules/websock\l&#45;api/api/MethodHandler.cpp">
<polygon fill="white" stroke="black" points="1271.5,-67.5 1271.5,-97.5 1407.5,-97.5 1407.5,-67.5 1271.5,-67.5"/>
<text text-anchor="start" x="1279.5" y="-85.5" font-family="Helvetica,sans-Serif" font-size="10.00">src/modules/websock</text>
<text text-anchor="middle" x="1339.5" y="-74.5" font-family="Helvetica,sans-Serif" font-size="10.00">&#45;api/api/MethodHandler.cpp</text>
</a>
</g>
</g>
<!-- Node38&#45;&gt;Node41 -->
<g id="edge24" class="edge"><title>Node38&#45;&gt;Node41</title>
<path fill="none" stroke="midnightblue" d="M660.966,-137.204C665.84,-135.966 670.741,-134.865 675.5,-134 932.662,-87.2374 1003.12,-130.248 1262.5,-98 1265.33,-97.6476 1268.22,-97.2554 1271.14,-96.8323"/>
<polygon fill="midnightblue" stroke="midnightblue" points="659.776,-133.901 651.049,-139.909 661.617,-140.654 659.776,-133.901"/>
</g>
<!-- Node42 -->
<g id="node23" class="node"><title>Node42</title>
<g id="a_node23"><a xlink:href="../../d1/d43/Restart_8cpp.html" target="_top" xlink:title="src/modules/websock\l&#45;api/api/Restart.cpp">
<polygon fill="white" stroke="black" points="1425.5,-67.5 1425.5,-97.5 1537.5,-97.5 1537.5,-67.5 1425.5,-67.5"/>
<text text-anchor="start" x="1433.5" y="-85.5" font-family="Helvetica,sans-Serif" font-size="10.00">src/modules/websock</text>
<text text-anchor="middle" x="1481.5" y="-74.5" font-family="Helvetica,sans-Serif" font-size="10.00">&#45;api/api/Restart.cpp</text>
</a>
</g>
</g>
<!-- Node38&#45;&gt;Node42 -->
<g id="edge26" class="edge"><title>Node38&#45;&gt;Node42</title>
<path fill="none" stroke="midnightblue" d="M660.352,-137.293C665.427,-136.005 670.539,-134.87 675.5,-134 1000.27,-77.0727 1089.73,-142.055 1416.5,-98 1419.36,-97.6138 1422.29,-97.1647 1425.24,-96.6688"/>
<polygon fill="midnightblue" stroke="midnightblue" points="659.413,-133.921 650.686,-139.928 661.254,-140.674 659.413,-133.921"/>
</g>
<!-- Node43 -->
<g id="node24" class="node"><title>Node43</title>
<g id="a_node24"><a xlink:href="../../d9/d90/WebSockAPI_8hpp.html" target="_top" xlink:title="src/modules/websock\l&#45;api/WebSockAPI.hpp">
<polygon fill="white" stroke="black" points="648,-67.5 648,-97.5 761,-97.5 761,-67.5 648,-67.5"/>
<text text-anchor="start" x="656" y="-85.5" font-family="Helvetica,sans-Serif" font-size="10.00">src/modules/websock</text>
<text text-anchor="middle" x="704.5" y="-74.5" font-family="Helvetica,sans-Serif" font-size="10.00">&#45;api/WebSockAPI.hpp</text>
</a>
</g>
</g>
<!-- Node38&#45;&gt;Node43 -->
<g id="edge27" class="edge"><title>Node38&#45;&gt;Node43</title>
<path fill="none" stroke="midnightblue" d="M637.687,-133.61C653.128,-122.029 672.062,-107.828 685.827,-97.5049"/>
<polygon fill="midnightblue" stroke="midnightblue" points="635.422,-130.933 629.522,-139.733 639.622,-136.533 635.422,-130.933"/>
</g>
<!-- Node45 -->
<g id="node26" class="node"><title>Node45</title>
<g id="a_node26"><a xlink:href="../../d9/d6b/WebSockAPI_8cpp.html" target="_top" xlink:title="src/modules/websock\l&#45;api/WebSockAPI.cpp">
<polygon fill="white" stroke="black" points="517,-0.5 517,-30.5 630,-30.5 630,-0.5 517,-0.5"/>
<text text-anchor="start" x="525" y="-18.5" font-family="Helvetica,sans-Serif" font-size="10.00">src/modules/websock</text>
<text text-anchor="middle" x="573.5" y="-7.5" font-family="Helvetica,sans-Serif" font-size="10.00">&#45;api/WebSockAPI.cpp</text>
</a>
</g>
</g>
<!-- Node38&#45;&gt;Node45 -->
<g id="edge32" class="edge"><title>Node38&#45;&gt;Node45</title>
<path fill="none" stroke="midnightblue" d="M609.698,-129.746C608.571,-112.024 605.884,-87.5924 599.5,-67 595.47,-54.0019 588.23,-40.3427 582.411,-30.5122"/>
<polygon fill="midnightblue" stroke="midnightblue" points="606.207,-130.013 610.217,-139.819 613.197,-129.653 606.207,-130.013"/>
</g>
<!-- Node46 -->
<g id="node27" class="node"><title>Node46</title>
<g id="a_node27"><a xlink:href="../../d4/d2c/WSServer_8cpp.html" target="_top" xlink:title="src/modules/websock\l&#45;api/WSServer.cpp">
<polygon fill="white" stroke="black" points="778.5,-0.5 778.5,-30.5 890.5,-30.5 890.5,-0.5 778.5,-0.5"/>
<text text-anchor="start" x="786.5" y="-18.5" font-family="Helvetica,sans-Serif" font-size="10.00">src/modules/websock</text>
<text text-anchor="middle" x="834.5" y="-7.5" font-family="Helvetica,sans-Serif" font-size="10.00">&#45;api/WSServer.cpp</text>
</a>
</g>
</g>
<!-- Node38&#45;&gt;Node46 -->
<g id="edge33" class="edge"><title>Node38&#45;&gt;Node46</title>
<path fill="none" stroke="midnightblue" d="M664.072,-136.758C706.638,-122.789 760.483,-104.411 769.5,-98 795.165,-79.7515 815.97,-48.6586 826.665,-30.612"/>
<polygon fill="midnightblue" stroke="midnightblue" points="662.774,-133.5 654.357,-139.934 664.95,-140.153 662.774,-133.5"/>
</g>
<!-- Node47 -->
<g id="node28" class="node"><title>Node47</title>
<g id="a_node28"><a xlink:href="../../d2/dc4/Service_8cpp.html" target="_top" xlink:title="src/modules/websock\l&#45;api/Service.cpp">
<polygon fill="white" stroke="black" points="817.5,-67.5 817.5,-97.5 929.5,-97.5 929.5,-67.5 817.5,-67.5"/>
<text text-anchor="start" x="825.5" y="-85.5" font-family="Helvetica,sans-Serif" font-size="10.00">src/modules/websock</text>
<text text-anchor="middle" x="873.5" y="-74.5" font-family="Helvetica,sans-Serif" font-size="10.00">&#45;api/Service.cpp</text>
</a>
</g>
</g>
<!-- Node38&#45;&gt;Node47 -->
<g id="edge31" class="edge"><title>Node38&#45;&gt;Node47</title>
<path fill="none" stroke="midnightblue" d="M664.772,-137.085C668.397,-136.022 671.998,-134.985 675.5,-134 723.141,-120.604 777.655,-106.812 817.404,-97.0335"/>
<polygon fill="midnightblue" stroke="midnightblue" points="663.759,-133.735 655.172,-139.941 665.755,-140.445 663.759,-133.735"/>
</g>
<!-- Node44 -->
<g id="node25" class="node"><title>Node44</title>
<g id="a_node25"><a xlink:href="../../de/d22/websock-api_2init_8cpp.html" target="_top" xlink:title="src/modules/websock\l&#45;api/init.cpp">
<polygon fill="white" stroke="black" points="648.5,-0.5 648.5,-30.5 760.5,-30.5 760.5,-0.5 648.5,-0.5"/>
<text text-anchor="start" x="656.5" y="-18.5" font-family="Helvetica,sans-Serif" font-size="10.00">src/modules/websock</text>
<text text-anchor="middle" x="704.5" y="-7.5" font-family="Helvetica,sans-Serif" font-size="10.00">&#45;api/init.cpp</text>
</a>
</g>
</g>
<!-- Node43&#45;&gt;Node44 -->
<g id="edge28" class="edge"><title>Node43&#45;&gt;Node44</title>
<path fill="none" stroke="midnightblue" d="M704.5,-57.1081C704.5,-48.1539 704.5,-38.3227 704.5,-30.5765"/>
<polygon fill="midnightblue" stroke="midnightblue" points="701,-57.3959 704.5,-67.396 708,-57.396 701,-57.3959"/>
</g>
<!-- Node43&#45;&gt;Node45 -->
<g id="edge29" class="edge"><title>Node43&#45;&gt;Node45</title>
<path fill="none" stroke="midnightblue" d="M666.92,-62.8533C646.207,-52.5761 620.912,-40.0252 601.87,-30.5765"/>
<polygon fill="midnightblue" stroke="midnightblue" points="665.561,-66.0864 676.075,-67.396 668.673,-59.8159 665.561,-66.0864"/>
</g>
<!-- Node43&#45;&gt;Node46 -->
<g id="edge30" class="edge"><title>Node43&#45;&gt;Node46</title>
<path fill="none" stroke="midnightblue" d="M741.793,-62.8533C762.348,-52.5761 787.45,-40.0252 806.347,-30.5765"/>
<polygon fill="midnightblue" stroke="midnightblue" points="740.087,-59.7933 732.708,-67.396 743.218,-66.0543 740.087,-59.7933"/>
</g>
</g>
</svg>
        <g id="navigator" transform="translate(0 0)" fill="#404254">
                <rect fill="#f2f5e9" fill-opacity="0.5" stroke="#606060" stroke-width=".5" x="0" y="0" width="60" height="60"/>
                <use id="zoomplus" xlink:href="#zoomPlus" x="17" y="9" onmousedown="handleZoom(evt,'in')"/>
                <use id="zoomminus" xlink:href="#zoomMin" x="42" y="9" onmousedown="handleZoom(evt,'out')"/>
                <use id="reset" xlink:href="#resetDef" x="30" y="36" onmousedown="handleReset()"/>
                <g id="arrowUp" xlink:href="#dirArrow" transform="translate(30 24)" onmousedown="handlePan(0,-1)">
                  <use xlink:href="#rim" fill="#404040">
                        <set attributeName="fill" to="#808080" begin="arrowUp.mouseover" end="arrowUp.mouseout"/>
                  </use>
                  <path fill="none" stroke="white" stroke-width="1.5" d="M0,-3.0v7 M-2.5,-0.5L0,-3.0L2.5,-0.5"/>
                </g>
                <g id="arrowRight" xlink:href="#dirArrow" transform="rotate(90) translate(36 -43)" onmousedown="handlePan(1,0)">
                  <use xlink:href="#rim" fill="#404040">
                        <set attributeName="fill" to="#808080" begin="arrowRight.mouseover" end="arrowRight.mouseout"/>
                  </use>
                  <path fill="none" stroke="white" stroke-width="1.5" d="M0,-3.0v7 M-2.5,-0.5L0,-3.0L2.5,-0.5"/>
                </g>
                <g id="arrowDown" xlink:href="#dirArrow" transform="rotate(180) translate(-30 -48)" onmousedown="handlePan(0,1)">
                  <use xlink:href="#rim" fill="#404040">
                        <set attributeName="fill" to="#808080" begin="arrowDown.mouseover" end="arrowDown.mouseout"/>
                  </use>
                  <path fill="none" stroke="white" stroke-width="1.5" d="M0,-3.0v7 M-2.5,-0.5L0,-3.0L2.5,-0.5"/>
                </g>
                <g id="arrowLeft" xlink:href="#dirArrow" transform="rotate(270) translate(-36 17)" onmousedown="handlePan(-1,0)">
                  <use xlink:href="#rim" fill="#404040">
                        <set attributeName="fill" to="#808080" begin="arrowLeft.mouseover" end="arrowLeft.mouseout"/>
                  </use>
                  <path fill="none" stroke="white" stroke-width="1.5" d="M0,-3.0v7 M-2.5,-0.5L0,-3.0L2.5,-0.5"/>
                </g>
        </g>
        <svg viewBox="0 0 15 15" width="100%" height="30px" preserveAspectRatio="xMaxYMin meet">
         <g id="arrow_out" transform="scale(0.3 0.3)">
          <a xlink:href="APISession_8hpp__dep__incl_org.svg" target="_base">
           <rect id="button" ry="5" rx="5" y="6" x="6" height="38" width="38"
                fill="#f2f5e9" fill-opacity="0.5" stroke="#606060" stroke-width="1.0"/>
           <path id="arrow"
             d="M 11.500037,31.436501 C 11.940474,20.09759 22.043105,11.32322 32.158766,21.979434 L 37.068811,17.246167 C 37.068811,17.246167 37.088388,32 37.088388,32 L 22.160133,31.978069 C 22.160133,31.978069 26.997745,27.140456 26.997745,27.140456 C 18.528582,18.264221 13.291696,25.230495 11.500037,31.436501 z"
             style="fill:#404040;"/>
          </a>
         </g>
        </svg>
</svg>
