<?xml version="1.0" encoding="UTF-8" standalone="no"?>
<!DOCTYPE svg PUBLIC "-//W3C//DTD SVG 1.1//EN"
 "http://www.w3.org/Graphics/SVG/1.1/DTD/svg11.dtd">
<!-- Generated by graphviz version 2.38.0 (20140413.2041)
 -->
<!-- Title: Leosac::Module::WebSockAPI::ExternalCRUDResourceHandler Pages: 1 -->
<svg width="782pt" height="88pt"
 viewBox="0.00 0.00 782.00 88.00" xmlns="http://www.w3.org/2000/svg" xmlns:xlink="http://www.w3.org/1999/xlink">
<g id="graph0" class="graph" transform="scale(1 1) rotate(0) translate(4 84)">
<title>Leosac::Module::WebSockAPI::ExternalCRUDResourceHandler</title>
<polygon fill="white" stroke="none" points="-4,4 -4,-84 778,-84 778,4 -4,4"/>
<!-- Node2 -->
<g id="node1" class="node"><title>Node2</title>
<polygon fill="#bfbfbf" stroke="black" points="610,-30.5 610,-60.5 774,-60.5 774,-30.5 610,-30.5"/>
<text text-anchor="start" x="618" y="-48.5" font-family="Helvetica,sans-Serif" font-size="10.00">Leosac::Module::WebSockAPI</text>
<text text-anchor="middle" x="692" y="-37.5" font-family="Helvetica,sans-Serif" font-size="10.00">::ExternalCRUDResourceHandler</text>
</g>
<!-- Node3 -->
<g id="node2" class="node"><title>Node3</title>
<g id="a_node2"><a xlink:href="../../d3/dd9/classLeosac_1_1Module_1_1WebSockAPI_1_1ICRUDResourceHandler.html" target="_top" xlink:title="A common interface for CRUD handler. ">
<polygon fill="white" stroke="black" points="401,-49.5 401,-79.5 552,-79.5 552,-49.5 401,-49.5"/>
<text text-anchor="start" x="409" y="-67.5" font-family="Helvetica,sans-Serif" font-size="10.00">Leosac::Module::WebSockAPI</text>
<text text-anchor="middle" x="476.5" y="-56.5" font-family="Helvetica,sans-Serif" font-size="10.00">::ICRUDResourceHandler</text>
</a>
</g>
</g>
<!-- Node3&#45;&gt;Node2 -->
<g id="edge1" class="edge"><title>Node3&#45;&gt;Node2</title>
<path fill="none" stroke="midnightblue" d="M562.344,-56.9495C577.989,-55.5572 594.29,-54.1065 609.823,-52.7242"/>
<polygon fill="midnightblue" stroke="midnightblue" points="561.822,-53.482 552.172,-57.8547 562.443,-60.4544 561.822,-53.482"/>
</g>
<!-- Node4 -->
<g id="node3" class="node"><title>Node4</title>
<g id="a_node3"><a xlink:href="../../dd/db7/structLeosac_1_1Module_1_1WebSockAPI_1_1ModuleRequestContext.html" target="_top" xlink:title="A request context dedicated for websocket request that are handled by other modules. ">
<polygon fill="white" stroke="black" points="401,-0.5 401,-30.5 552,-30.5 552,-0.5 401,-0.5"/>
<text text-anchor="start" x="409" y="-18.5" font-family="Helvetica,sans-Serif" font-size="10.00">Leosac::Module::WebSockAPI</text>
<text text-anchor="middle" x="476.5" y="-7.5" font-family="Helvetica,sans-Serif" font-size="10.00">::ModuleRequestContext</text>
</a>
</g>
</g>
<!-- Node4&#45;&gt;Node2 -->
<g id="edge2" class="edge"><title>Node4&#45;&gt;Node2</title>
<path fill="none" stroke="#9a32cd" stroke-dasharray="5,2" d="M562.344,-27.4218C577.989,-29.6202 594.29,-31.9107 609.823,-34.0934"/>
<polygon fill="#9a32cd" stroke="#9a32cd" points="562.562,-23.9182 552.172,-25.9925 561.588,-30.8501 562.562,-23.9182"/>
<text text-anchor="middle" x="581" y="-33.5" font-family="Helvetica,sans-Serif" font-size="10.00"> ctx_</text>
</g>
<!-- Node5 -->
<g id="node4" class="node"><title>Node5</title>
<g id="a_node4"><a xlink:href="../../da/d85/classLeosac_1_1UserSecurityContext.html" target="_top" xlink:title="A SecurityContext object for users. ">
<polygon fill="white" stroke="black" points="162,-6 162,-25 308,-25 308,-6 162,-6"/>
<text text-anchor="middle" x="235" y="-13" font-family="Helvetica,sans-Serif" font-size="10.00">Leosac::UserSecurityContext</text>
</a>
</g>
</g>
<!-- Node5&#45;&gt;Node4 -->
<g id="edge3" class="edge"><title>Node5&#45;&gt;Node4</title>
<path fill="none" stroke="#9a32cd" stroke-dasharray="5,2" d="M318.315,-15.5C345.141,-15.5 374.755,-15.5 400.977,-15.5"/>
<polygon fill="#9a32cd" stroke="#9a32cd" points="318.183,-12.0001 308.183,-15.5 318.183,-19.0001 318.183,-12.0001"/>
<text text-anchor="middle" x="354.5" y="-18.5" font-family="Helvetica,sans-Serif" font-size="10.00"> security_ctx</text>
</g>
<!-- Node6 -->
<g id="node5" class="node"><title>Node6</title>
<g id="a_node5"><a xlink:href="../../db/d24/classLeosac_1_1SecurityContext.html" target="_top" xlink:title="A SecurityContext is used to query permission while doing an operation. ">
<polygon fill="white" stroke="black" points="0,-6 0,-25 125,-25 125,-6 0,-6"/>
<text text-anchor="middle" x="62.5" y="-13" font-family="Helvetica,sans-Serif" font-size="10.00">Leosac::SecurityContext</text>
</a>
</g>
</g>
<!-- Node6&#45;&gt;Node5 -->
<g id="edge4" class="edge"><title>Node6&#45;&gt;Node5</title>
<path fill="none" stroke="midnightblue" d="M135.251,-15.5C144.033,-15.5 153.012,-15.5 161.801,-15.5"/>
<polygon fill="midnightblue" stroke="midnightblue" points="135.054,-12.0001 125.054,-15.5 135.054,-19.0001 135.054,-12.0001"/>
</g>
</g>
</svg>
