<?xml version="1.0" encoding="UTF-8" standalone="no"?>
<!DOCTYPE svg PUBLIC "-//W3C//DTD SVG 1.1//EN"
 "http://www.w3.org/Graphics/SVG/1.1/DTD/svg11.dtd">
<!-- Generated by graphviz version 2.38.0 (20140413.2041)
 -->
<!-- Title: Leosac::Module::AsioModule Pages: 1 -->
<svg width="312pt" height="241pt"
 viewBox="0.00 0.00 312.00 241.00" xmlns="http://www.w3.org/2000/svg" xmlns:xlink="http://www.w3.org/1999/xlink">
<g id="graph0" class="graph" transform="scale(1 1) rotate(0) translate(4 237)">
<title>Leosac::Module::AsioModule</title>
<polygon fill="white" stroke="none" points="-4,4 -4,-237 308,-237 308,4 -4,4"/>
<!-- Node5 -->
<g id="node1" class="node"><title>Node5</title>
<polygon fill="#bfbfbf" stroke="black" points="130,-0.5 130,-19.5 273,-19.5 273,-0.5 130,-0.5"/>
<text text-anchor="middle" x="201.5" y="-7.5" font-family="Helvetica,sans-Serif" font-size="10.00">Leosac::Module::AsioModule</text>
</g>
<!-- Node6 -->
<g id="node2" class="node"><title>Node6</title>
<g id="a_node2"><a xlink:href="../../df/d9f/classLeosac_1_1Module_1_1BaseModule.html" target="_top" xlink:title="Base class for module implementation. ">
<polygon fill="white" stroke="black" points="12.5,-73 12.5,-92 158.5,-92 158.5,-73 12.5,-73"/>
<text text-anchor="middle" x="85.5" y="-80" font-family="Helvetica,sans-Serif" font-size="10.00">Leosac::Module::BaseModule</text>
</a>
</g>
</g>
<!-- Node6&#45;&gt;Node5 -->
<g id="edge1" class="edge"><title>Node6&#45;&gt;Node5</title>
<path fill="none" stroke="midnightblue" d="M108.332,-67.6234C131.746,-53.3937 167.442,-31.6989 187.16,-19.7154"/>
<polygon fill="midnightblue" stroke="midnightblue" points="106.452,-64.6707 99.7239,-72.8553 110.087,-70.6526 106.452,-64.6707"/>
</g>
<!-- Node7 -->
<g id="node3" class="node"><title>Node7</title>
<g id="a_node3"><a xlink:title="STL class. ">
<polygon fill="white" stroke="#bfbfbf" points="17.5,-145.5 17.5,-164.5 77.5,-164.5 77.5,-145.5 17.5,-145.5"/>
<text text-anchor="middle" x="47.5" y="-152.5" font-family="Helvetica,sans-Serif" font-size="10.00">std::string</text>
</a>
</g>
</g>
<!-- Node7&#45;&gt;Node6 -->
<g id="edge2" class="edge"><title>Node7&#45;&gt;Node6</title>
<path fill="none" stroke="#9a32cd" stroke-dasharray="5,2" d="M53.7605,-135.556C56.1794,-129.209 59.1704,-122.154 62.5,-116 67.1048,-107.488 73.5518,-98.5666 78.4489,-92.2287"/>
<polygon fill="#9a32cd" stroke="#9a32cd" points="50.3526,-134.69 50.271,-145.285 56.9416,-137.054 50.3526,-134.69"/>
<text text-anchor="middle" x="79" y="-119" font-family="Helvetica,sans-Serif" font-size="10.00"> name_</text>
</g>
<!-- Node8 -->
<g id="node4" class="node"><title>Node8</title>
<g id="a_node4"><a xlink:title="STL class. ">
<polygon fill="white" stroke="#bfbfbf" points="0,-202.5 0,-232.5 95,-232.5 95,-202.5 0,-202.5"/>
<text text-anchor="start" x="8" y="-220.5" font-family="Helvetica,sans-Serif" font-size="10.00">std::basic_string&lt;</text>
<text text-anchor="middle" x="47.5" y="-209.5" font-family="Helvetica,sans-Serif" font-size="10.00"> char &gt;</text>
</a>
</g>
</g>
<!-- Node8&#45;&gt;Node7 -->
<g id="edge3" class="edge"><title>Node8&#45;&gt;Node7</title>
<path fill="none" stroke="midnightblue" d="M47.5,-192.352C47.5,-182.513 47.5,-171.775 47.5,-164.54"/>
<polygon fill="midnightblue" stroke="midnightblue" points="44.0001,-192.468 47.5,-202.468 51.0001,-192.468 44.0001,-192.468"/>
</g>
<!-- Node9 -->
<g id="node5" class="node"><title>Node9</title>
<polygon fill="white" stroke="#bfbfbf" points="95.5,-145.5 95.5,-164.5 133.5,-164.5 133.5,-145.5 95.5,-145.5"/>
<text text-anchor="middle" x="114.5" y="-152.5" font-family="Helvetica,sans-Serif" font-size="10.00">ptree</text>
</g>
<!-- Node9&#45;&gt;Node6 -->
<g id="edge4" class="edge"><title>Node9&#45;&gt;Node6</title>
<path fill="none" stroke="#9a32cd" stroke-dasharray="5,2" d="M107.002,-135.771C101.239,-121.762 93.5346,-103.032 89.0851,-92.2154"/>
<polygon fill="#9a32cd" stroke="#9a32cd" points="103.903,-137.439 110.944,-145.355 110.377,-134.776 103.903,-137.439"/>
<text text-anchor="middle" x="121" y="-119" font-family="Helvetica,sans-Serif" font-size="10.00"> config_</text>
</g>
<!-- Node10 -->
<g id="node6" class="node"><title>Node10</title>
<polygon fill="white" stroke="#bfbfbf" points="177,-67.5 177,-97.5 304,-97.5 304,-67.5 177,-67.5"/>
<text text-anchor="start" x="185" y="-85.5" font-family="Helvetica,sans-Serif" font-size="10.00">std::unique_ptr&lt; boost</text>
<text text-anchor="middle" x="240.5" y="-74.5" font-family="Helvetica,sans-Serif" font-size="10.00">::asio::io_service::work &gt;</text>
</g>
<!-- Node10&#45;&gt;Node5 -->
<g id="edge5" class="edge"><title>Node10&#45;&gt;Node5</title>
<path fill="none" stroke="#9a32cd" stroke-dasharray="5,2" d="M227.635,-58.2443C220.375,-45.1198 211.721,-29.4765 206.42,-19.8932"/>
<polygon fill="#9a32cd" stroke="#9a32cd" points="224.704,-60.1772 232.608,-67.2333 230.83,-56.7887 224.704,-60.1772"/>
<text text-anchor="middle" x="237.5" y="-41" font-family="Helvetica,sans-Serif" font-size="10.00"> work_</text>
</g>
</g>
</svg>
