<?xml version="1.0" encoding="UTF-8" standalone="no"?>
<!DOCTYPE svg PUBLIC "-//W3C//DTD SVG 1.1//EN"
 "http://www.w3.org/Graphics/SVG/1.1/DTD/svg11.dtd">
<!-- Generated by graphviz version 2.38.0 (20140413.2041)
 -->
<!-- Title: src/hardware/Device.hpp Pages: 1 -->
<svg width="843pt" height="196pt"
 viewBox="0.00 0.00 842.50 196.00" xmlns="http://www.w3.org/2000/svg" xmlns:xlink="http://www.w3.org/1999/xlink">
<g id="graph0" class="graph" transform="scale(1 1) rotate(0) translate(4 192)">
<title>src/hardware/Device.hpp</title>
<polygon fill="white" stroke="none" points="-4,4 -4,-192 838.5,-192 838.5,4 -4,4"/>
<!-- Node0 -->
<g id="node1" class="node"><title>Node0</title>
<polygon fill="#bfbfbf" stroke="black" points="571,-168.5 571,-187.5 696,-187.5 696,-168.5 571,-168.5"/>
<text text-anchor="middle" x="633.5" y="-175.5" font-family="Helvetica,sans-Serif" font-size="10.00">src/hardware/Device.hpp</text>
</g>
<!-- Node1 -->
<g id="node2" class="node"><title>Node1</title>
<g id="a_node2"><a xlink:href="../../d9/dc8/HardwareFwd_8hpp.html" target="_top" xlink:title="hardware/HardwareFwd.hpp">
<polygon fill="white" stroke="black" points="447,-112.5 447,-131.5 586,-131.5 586,-112.5 447,-112.5"/>
<text text-anchor="middle" x="516.5" y="-119.5" font-family="Helvetica,sans-Serif" font-size="10.00">hardware/HardwareFwd.hpp</text>
</a>
</g>
</g>
<!-- Node0&#45;&gt;Node1 -->
<g id="edge1" class="edge"><title>Node0&#45;&gt;Node1</title>
<path fill="none" stroke="midnightblue" d="M614.961,-168.444C595.877,-159.636 565.925,-145.812 544.064,-135.722"/>
<polygon fill="midnightblue" stroke="midnightblue" points="545.499,-132.529 534.952,-131.516 542.565,-138.885 545.499,-132.529"/>
</g>
<!-- Node2 -->
<g id="node3" class="node"><title>Node2</title>
<g id="a_node3"><a xlink:href="../../dc/dea/Uuid_8hpp.html" target="_top" xlink:title="tools/Uuid.hpp">
<polygon fill="white" stroke="black" points="408.5,-56.5 408.5,-75.5 488.5,-75.5 488.5,-56.5 408.5,-56.5"/>
<text text-anchor="middle" x="448.5" y="-63.5" font-family="Helvetica,sans-Serif" font-size="10.00">tools/Uuid.hpp</text>
</a>
</g>
</g>
<!-- Node0&#45;&gt;Node2 -->
<g id="edge9" class="edge"><title>Node0&#45;&gt;Node2</title>
<path fill="none" stroke="midnightblue" d="M570.924,-171.03C520.029,-164.728 454.03,-152.756 437.5,-132 426.943,-118.744 432.277,-99.0788 438.652,-84.8521"/>
<polygon fill="midnightblue" stroke="midnightblue" points="441.925,-86.1331 443.266,-75.6235 435.664,-83.003 441.925,-86.1331"/>
</g>
<!-- Node7 -->
<g id="node8" class="node"><title>Node7</title>
<polygon fill="white" stroke="#bfbfbf" points="563,-0.5 563,-19.5 636,-19.5 636,-0.5 563,-0.5"/>
<text text-anchor="middle" x="599.5" y="-7.5" font-family="Helvetica,sans-Serif" font-size="10.00">odb/core.hxx</text>
</g>
<!-- Node0&#45;&gt;Node7 -->
<g id="edge12" class="edge"><title>Node0&#45;&gt;Node7</title>
<path fill="none" stroke="midnightblue" d="M631.672,-168.075C626.32,-141.945 610.603,-65.2106 603.305,-29.577"/>
<polygon fill="midnightblue" stroke="midnightblue" points="606.69,-28.6624 601.255,-19.5681 599.833,-30.067 606.69,-28.6624"/>
</g>
<!-- Node8 -->
<g id="node9" class="node"><title>Node8</title>
<polygon fill="white" stroke="#bfbfbf" points="654,-0.5 654,-19.5 695,-19.5 695,-0.5 654,-0.5"/>
<text text-anchor="middle" x="674.5" y="-7.5" font-family="Helvetica,sans-Serif" font-size="10.00">string</text>
</g>
<!-- Node0&#45;&gt;Node8 -->
<g id="edge13" class="edge"><title>Node0&#45;&gt;Node8</title>
<path fill="none" stroke="midnightblue" d="M635.704,-168.075C642.158,-141.945 661.111,-65.2106 669.912,-29.577"/>
<polygon fill="midnightblue" stroke="midnightblue" points="673.384,-30.1156 672.384,-19.5681 666.588,-28.4371 673.384,-30.1156"/>
</g>
<!-- Node9 -->
<g id="node10" class="node"><title>Node9</title>
<polygon fill="white" stroke="#bfbfbf" points="680.5,-112.5 680.5,-131.5 726.5,-131.5 726.5,-112.5 680.5,-112.5"/>
<text text-anchor="middle" x="703.5" y="-119.5" font-family="Helvetica,sans-Serif" font-size="10.00">cstdint</text>
</g>
<!-- Node0&#45;&gt;Node9 -->
<g id="edge10" class="edge"><title>Node0&#45;&gt;Node9</title>
<path fill="none" stroke="midnightblue" d="M644.747,-168.324C655.297,-160.185 671.301,-147.839 683.942,-138.087"/>
<polygon fill="midnightblue" stroke="midnightblue" points="686.269,-140.713 692.049,-131.834 681.993,-135.171 686.269,-140.713"/>
</g>
<!-- Node10 -->
<g id="node11" class="node"><title>Node10</title>
<polygon fill="white" stroke="#bfbfbf" points="744.5,-112.5 744.5,-131.5 834.5,-131.5 834.5,-112.5 744.5,-112.5"/>
<text text-anchor="middle" x="789.5" y="-119.5" font-family="Helvetica,sans-Serif" font-size="10.00">odb/callback.hxx</text>
</g>
<!-- Node0&#45;&gt;Node10 -->
<g id="edge11" class="edge"><title>Node0&#45;&gt;Node10</title>
<path fill="none" stroke="midnightblue" d="M658.219,-168.444C684.348,-159.399 725.759,-145.064 755.076,-134.916"/>
<polygon fill="midnightblue" stroke="midnightblue" points="756.592,-138.095 764.897,-131.516 754.302,-131.48 756.592,-138.095"/>
</g>
<!-- Node1&#45;&gt;Node2 -->
<g id="edge2" class="edge"><title>Node1&#45;&gt;Node2</title>
<path fill="none" stroke="midnightblue" d="M505.575,-112.324C495.325,-104.185 479.779,-91.8395 467.499,-82.0874"/>
<polygon fill="midnightblue" stroke="midnightblue" points="469.632,-79.3119 459.624,-75.8339 465.279,-84.7937 469.632,-79.3119"/>
</g>
<!-- Node3 -->
<g id="node4" class="node"><title>Node3</title>
<polygon fill="white" stroke="#bfbfbf" points="251.5,-0.5 251.5,-19.5 365.5,-19.5 365.5,-0.5 251.5,-0.5"/>
<text text-anchor="middle" x="308.5" y="-7.5" font-family="Helvetica,sans-Serif" font-size="10.00">boost/lexical_cast.hpp</text>
</g>
<!-- Node2&#45;&gt;Node3 -->
<g id="edge3" class="edge"><title>Node2&#45;&gt;Node3</title>
<path fill="none" stroke="midnightblue" d="M426.317,-56.4435C403.072,-47.4776 366.351,-33.314 340.085,-23.1827"/>
<polygon fill="midnightblue" stroke="midnightblue" points="341.169,-19.8497 330.58,-19.5164 338.65,-26.3807 341.169,-19.8497"/>
</g>
<!-- Node4 -->
<g id="node5" class="node"><title>Node4</title>
<polygon fill="white" stroke="#bfbfbf" points="384,-0.5 384,-19.5 545,-19.5 545,-0.5 384,-0.5"/>
<text text-anchor="middle" x="464.5" y="-7.5" font-family="Helvetica,sans-Serif" font-size="10.00">boost/uuid/random_generator.hpp</text>
</g>
<!-- Node2&#45;&gt;Node4 -->
<g id="edge4" class="edge"><title>Node2&#45;&gt;Node4</title>
<path fill="none" stroke="midnightblue" d="M451.142,-56.083C453.286,-48.8486 456.379,-38.4087 459.049,-29.3968"/>
<polygon fill="midnightblue" stroke="midnightblue" points="462.422,-30.3334 461.907,-19.7511 455.71,-28.3447 462.422,-30.3334"/>
</g>
<!-- Node5 -->
<g id="node6" class="node"><title>Node5</title>
<polygon fill="white" stroke="#bfbfbf" points="0,-0.5 0,-19.5 101,-19.5 101,-0.5 0,-0.5"/>
<text text-anchor="middle" x="50.5" y="-7.5" font-family="Helvetica,sans-Serif" font-size="10.00">boost/uuid/uuid.hpp</text>
</g>
<!-- Node2&#45;&gt;Node5 -->
<g id="edge5" class="edge"><title>Node2&#45;&gt;Node5</title>
<path fill="none" stroke="midnightblue" d="M408.407,-59.8802C346.878,-51.9751 225.2,-36.1545 111.179,-20.0761"/>
<polygon fill="midnightblue" stroke="midnightblue" points="111.622,-16.604 101.23,-18.6698 110.642,-23.5351 111.622,-16.604"/>
</g>
<!-- Node6 -->
<g id="node7" class="node"><title>Node6</title>
<polygon fill="white" stroke="#bfbfbf" points="119.5,-0.5 119.5,-19.5 233.5,-19.5 233.5,-0.5 119.5,-0.5"/>
<text text-anchor="middle" x="176.5" y="-7.5" font-family="Helvetica,sans-Serif" font-size="10.00">boost/uuid/uuid_io.hpp</text>
</g>
<!-- Node2&#45;&gt;Node6 -->
<g id="edge6" class="edge"><title>Node2&#45;&gt;Node6</title>
<path fill="none" stroke="midnightblue" d="M408.365,-57.0321C360.985,-47.6256 282.019,-31.9486 229.607,-21.5433"/>
<polygon fill="midnightblue" stroke="midnightblue" points="229.986,-18.0503 219.496,-19.536 228.623,-24.9163 229.986,-18.0503"/>
</g>
<!-- Node2&#45;&gt;Node7 -->
<g id="edge7" class="edge"><title>Node2&#45;&gt;Node7</title>
<path fill="none" stroke="midnightblue" d="M472.426,-56.4435C497.719,-47.3986 537.802,-33.064 566.18,-22.9158"/>
<polygon fill="midnightblue" stroke="midnightblue" points="567.448,-26.1794 575.686,-19.5164 565.091,-19.5882 567.448,-26.1794"/>
</g>
<!-- Node2&#45;&gt;Node8 -->
<g id="edge8" class="edge"><title>Node2&#45;&gt;Node8</title>
<path fill="none" stroke="midnightblue" d="M488.716,-56.7542C526.577,-48.7822 585.058,-35.9339 644.099,-20.2346"/>
<polygon fill="midnightblue" stroke="midnightblue" points="645.211,-23.5601 653.961,-17.5865 643.396,-16.7996 645.211,-23.5601"/>
</g>
</g>
</svg>
