<?xml version="1.0" encoding="UTF-8" standalone="no"?>
<!DOCTYPE svg PUBLIC "-//W3C//DTD SVG 1.1//EN"
 "http://www.w3.org/Graphics/SVG/1.1/DTD/svg11.dtd">
<!-- Generated by graphviz version 2.38.0 (20140413.2041)
 -->
<!-- Title: src/core/credentials/PinCode.hpp Pages: 1 -->
<!--zoomable 173 -->
<svg id="main" version="1.1" xmlns="http://www.w3.org/2000/svg" xmlns:xlink="http://www.w3.org/1999/xlink" xml:space="preserve" onload="init(evt)">
<style type="text/css"><![CDATA[
.edge:hover path { stroke: red; }
.edge:hover polygon { stroke: red; fill: red; }
]]></style>
<script type="text/javascript"><![CDATA[
var edges = document.getElementsByTagName('g');
if (edges && edges.length) {
  for (var i=0;i<edges.length;i++) {
    if (edges[i].id.substr(0,4)=='edge') {
      edges[i].setAttribute('class','edge');
    }
  }
}
]]></script>
        <defs>
                <circle id="rim" cx="0" cy="0" r="7"/>
                <circle id="rim2" cx="0" cy="0" r="3.5"/>
                <g id="zoomPlus">
                        <use xlink:href="#rim" fill="#404040">
                                <set attributeName="fill" to="#808080" begin="zoomplus.mouseover" end="zoomplus.mouseout"/>
                        </use>
                        <path d="M-4,0h8M0,-4v8" fill="none" stroke="white" stroke-width="1.5" pointer-events="none"/>
                </g>
                <g id="zoomMin">
                        <use xlink:href="#rim" fill="#404040">
                                <set attributeName="fill" to="#808080" begin="zoomminus.mouseover" end="zoomminus.mouseout"/>
                        </use>
                        <path d="M-4,0h8" fill="none" stroke="white" stroke-width="1.5" pointer-events="none"/>
                </g>
                <g id="dirArrow">
                        <path fill="none" stroke="white" stroke-width="1.5" d="M0,-3.0v7 M-2.5,-0.5L0,-3.0L2.5,-0.5"/>
                </g>
               <g id="resetDef">
                       <use xlink:href="#rim2" fill="#404040">
                               <set attributeName="fill" to="#808080" begin="reset.mouseover" end="reset.mouseout"/>
                       </use>
               </g>
        </defs>

<script type="text/javascript">
var viewWidth = 942;
var viewHeight = 173;
var sectionId = 'dynsection-1';
</script>
<script xlink:href="../../svgpan.js"/>
<svg id="graph" class="graph">
<g id="viewport">
<title>src/core/credentials/PinCode.hpp</title>
<polygon fill="white" stroke="none" points="-4,4 -4,-169 937.5,-169 937.5,4 -4,4"/>
<!-- Node19 -->
<g id="node1" class="node"><title>Node19</title>
<polygon fill="#bfbfbf" stroke="black" points="416,-134.5 416,-164.5 518,-164.5 518,-134.5 416,-134.5"/>
<text text-anchor="start" x="424" y="-152.5" font-family="Helvetica,sans-Serif" font-size="10.00">src/core/credentials</text>
<text text-anchor="middle" x="467" y="-141.5" font-family="Helvetica,sans-Serif" font-size="10.00">/PinCode.hpp</text>
</g>
<!-- Node20 -->
<g id="node2" class="node"><title>Node20</title>
<g id="a_node2"><a xlink:href="../../d0/dc0/src_2core_2auth_2AuthSourceBuilder_8cpp.html" target="_top" xlink:title="src/core/auth/AuthSource\lBuilder.cpp">
<polygon fill="white" stroke="black" points="0,-0.5 0,-30.5 128,-30.5 128,-0.5 0,-0.5"/>
<text text-anchor="start" x="8" y="-18.5" font-family="Helvetica,sans-Serif" font-size="10.00">src/core/auth/AuthSource</text>
<text text-anchor="middle" x="64" y="-7.5" font-family="Helvetica,sans-Serif" font-size="10.00">Builder.cpp</text>
</a>
</g>
</g>
<!-- Node19&#45;&gt;Node20 -->
<g id="edge1" class="edge"><title>Node19&#45;&gt;Node20</title>
<path fill="none" stroke="midnightblue" d="M406.056,-135.355C366.121,-126.194 312.993,-112.964 267,-98 204.884,-77.7901 134.599,-47.9469 95.1621,-30.5381"/>
<polygon fill="midnightblue" stroke="midnightblue" points="405.385,-138.792 415.912,-137.595 406.936,-131.966 405.385,-138.792"/>
</g>
<!-- Node21 -->
<g id="node3" class="node"><title>Node21</title>
<g id="a_node3"><a xlink:href="../../d5/d2f/PinCode_8cpp.html" target="_top" xlink:title="src/core/credentials\l/PinCode.cpp">
<polygon fill="white" stroke="black" points="514,-67.5 514,-97.5 616,-97.5 616,-67.5 514,-67.5"/>
<text text-anchor="start" x="522" y="-85.5" font-family="Helvetica,sans-Serif" font-size="10.00">src/core/credentials</text>
<text text-anchor="middle" x="565" y="-74.5" font-family="Helvetica,sans-Serif" font-size="10.00">/PinCode.cpp</text>
</a>
</g>
</g>
<!-- Node19&#45;&gt;Node21 -->
<g id="edge2" class="edge"><title>Node19&#45;&gt;Node21</title>
<path fill="none" stroke="midnightblue" d="M496.802,-128.734C511.966,-118.676 530.045,-106.685 543.777,-97.5765"/>
<polygon fill="midnightblue" stroke="midnightblue" points="494.664,-125.952 488.265,-134.396 498.533,-131.785 494.664,-125.952"/>
</g>
<!-- Node22 -->
<g id="node4" class="node"><title>Node22</title>
<g id="a_node4"><a xlink:href="../../da/d24/RFIDCardPin_8hpp.html" target="_top" xlink:title="src/core/credentials\l/RFIDCardPin.hpp">
<polygon fill="white" stroke="black" points="318,-67.5 318,-97.5 420,-97.5 420,-67.5 318,-67.5"/>
<text text-anchor="start" x="326" y="-85.5" font-family="Helvetica,sans-Serif" font-size="10.00">src/core/credentials</text>
<text text-anchor="middle" x="369" y="-74.5" font-family="Helvetica,sans-Serif" font-size="10.00">/RFIDCardPin.hpp</text>
</a>
</g>
</g>
<!-- Node19&#45;&gt;Node22 -->
<g id="edge3" class="edge"><title>Node19&#45;&gt;Node22</title>
<path fill="none" stroke="midnightblue" d="M437.198,-128.734C422.034,-118.676 403.955,-106.685 390.223,-97.5765"/>
<polygon fill="midnightblue" stroke="midnightblue" points="435.467,-131.785 445.735,-134.396 439.336,-125.952 435.467,-131.785"/>
</g>
<!-- Node24 -->
<g id="node6" class="node"><title>Node24</title>
<g id="a_node6"><a xlink:href="../../d3/dc5/FileAuthSourceMapper_8cpp.html" target="_top" xlink:title="src/modules/auth/auth\l&#45;file/FileAuthSourceMapper.cpp">
<polygon fill="white" stroke="black" points="146.5,-0.5 146.5,-30.5 299.5,-30.5 299.5,-0.5 146.5,-0.5"/>
<text text-anchor="start" x="154.5" y="-18.5" font-family="Helvetica,sans-Serif" font-size="10.00">src/modules/auth/auth</text>
<text text-anchor="middle" x="223" y="-7.5" font-family="Helvetica,sans-Serif" font-size="10.00">&#45;file/FileAuthSourceMapper.cpp</text>
</a>
</g>
</g>
<!-- Node19&#45;&gt;Node24 -->
<g id="edge9" class="edge"><title>Node19&#45;&gt;Node24</title>
<path fill="none" stroke="midnightblue" d="M405.745,-135.765C375.287,-127.771 338.732,-115.579 309,-98 278.19,-79.7843 249.533,-48.6796 234.335,-30.6221"/>
<polygon fill="midnightblue" stroke="midnightblue" points="405.268,-139.255 415.822,-138.317 406.987,-132.469 405.268,-139.255"/>
</g>
<!-- Node25 -->
<g id="node7" class="node"><title>Node25</title>
<g id="a_node7"><a xlink:href="../../d5/d58/AuthFile_8cpp.html" target="_top" xlink:title="This file contains unit test suite related to the AuthFile module. ">
<polygon fill="white" stroke="black" points="438.5,-6 438.5,-25 529.5,-25 529.5,-6 438.5,-6"/>
<text text-anchor="middle" x="484" y="-13" font-family="Helvetica,sans-Serif" font-size="10.00">test/AuthFile.cpp</text>
</a>
</g>
</g>
<!-- Node19&#45;&gt;Node25 -->
<g id="edge11" class="edge"><title>Node19&#45;&gt;Node25</title>
<path fill="none" stroke="midnightblue" d="M467.405,-124.024C467.942,-107.78 469.177,-86.0267 472,-67 474.195,-52.2029 478.589,-35.362 481.407,-25.3496"/>
<polygon fill="midnightblue" stroke="midnightblue" points="463.899,-124.2 467.133,-134.289 470.896,-124.385 463.899,-124.2"/>
</g>
<!-- Node26 -->
<g id="node8" class="node"><title>Node26</title>
<g id="a_node8"><a xlink:href="../../d9/d75/test_2AuthSourceBuilder_8cpp.html" target="_top" xlink:title="test/AuthSourceBuilder.cpp">
<polygon fill="white" stroke="black" points="548,-6 548,-25 684,-25 684,-6 548,-6"/>
<text text-anchor="middle" x="616" y="-13" font-family="Helvetica,sans-Serif" font-size="10.00">test/AuthSourceBuilder.cpp</text>
</a>
</g>
</g>
<!-- Node19&#45;&gt;Node26 -->
<g id="edge12" class="edge"><title>Node19&#45;&gt;Node26</title>
<path fill="none" stroke="midnightblue" d="M473.212,-124.665C478.917,-106.836 488.961,-82.8899 505,-67 526.357,-45.8412 558.173,-32.6177 582.275,-25.0364"/>
<polygon fill="midnightblue" stroke="midnightblue" points="469.828,-123.766 470.343,-134.348 476.54,-125.755 469.828,-123.766"/>
</g>
<!-- Node27 -->
<g id="node9" class="node"><title>Node27</title>
<g id="a_node9"><a xlink:href="../../d2/df6/CredentialCRUD_8cpp.html" target="_top" xlink:title="src/modules/websock\l&#45;api/api/CredentialCRUD.cpp">
<polygon fill="white" stroke="black" points="634,-67.5 634,-97.5 778,-97.5 778,-67.5 634,-67.5"/>
<text text-anchor="start" x="642" y="-85.5" font-family="Helvetica,sans-Serif" font-size="10.00">src/modules/websock</text>
<text text-anchor="middle" x="706" y="-74.5" font-family="Helvetica,sans-Serif" font-size="10.00">&#45;api/api/CredentialCRUD.cpp</text>
</a>
</g>
</g>
<!-- Node19&#45;&gt;Node27 -->
<g id="edge10" class="edge"><title>Node19&#45;&gt;Node27</title>
<path fill="none" stroke="midnightblue" d="M527.959,-131.921C567.064,-121.286 617.276,-107.63 654.402,-97.5331"/>
<polygon fill="midnightblue" stroke="midnightblue" points="527.002,-128.554 518.271,-134.556 528.84,-135.309 527.002,-128.554"/>
</g>
<!-- Node28 -->
<g id="node10" class="node"><title>Node28</title>
<g id="a_node10"><a xlink:href="../../dc/db5/test_2CredentialValidator_8cpp.html" target="_top" xlink:title="test/CredentialValidator.cpp">
<polygon fill="white" stroke="black" points="796.5,-73 796.5,-92 933.5,-92 933.5,-73 796.5,-73"/>
<text text-anchor="middle" x="865" y="-80" font-family="Helvetica,sans-Serif" font-size="10.00">test/CredentialValidator.cpp</text>
</a>
</g>
</g>
<!-- Node19&#45;&gt;Node28 -->
<g id="edge13" class="edge"><title>Node19&#45;&gt;Node28</title>
<path fill="none" stroke="midnightblue" d="M528.05,-139.372C592.503,-129.617 697.027,-113.459 787,-98 797.724,-96.1574 809.257,-94.0712 820.079,-92.0672"/>
<polygon fill="midnightblue" stroke="midnightblue" points="527.424,-135.927 518.059,-140.881 528.469,-142.848 527.424,-135.927"/>
</g>
<!-- Node22&#45;&gt;Node20 -->
<g id="edge4" class="edge"><title>Node22&#45;&gt;Node20</title>
<path fill="none" stroke="midnightblue" d="M307.846,-68.4672C255.761,-57.3671 181.164,-41.4693 128.219,-30.186"/>
<polygon fill="midnightblue" stroke="midnightblue" points="307.44,-71.9592 317.95,-70.6205 308.899,-65.1129 307.44,-71.9592"/>
</g>
<!-- Node23 -->
<g id="node5" class="node"><title>Node23</title>
<g id="a_node5"><a xlink:href="../../d5/da8/RFIDCardPin_8cpp.html" target="_top" xlink:title="src/core/credentials\l/RFIDCardPin.cpp">
<polygon fill="white" stroke="black" points="318,-0.5 318,-30.5 420,-30.5 420,-0.5 318,-0.5"/>
<text text-anchor="start" x="326" y="-18.5" font-family="Helvetica,sans-Serif" font-size="10.00">src/core/credentials</text>
<text text-anchor="middle" x="369" y="-7.5" font-family="Helvetica,sans-Serif" font-size="10.00">/RFIDCardPin.cpp</text>
</a>
</g>
</g>
<!-- Node22&#45;&gt;Node23 -->
<g id="edge5" class="edge"><title>Node22&#45;&gt;Node23</title>
<path fill="none" stroke="midnightblue" d="M369,-57.1081C369,-48.1539 369,-38.3227 369,-30.5765"/>
<polygon fill="midnightblue" stroke="midnightblue" points="365.5,-57.3959 369,-67.396 372.5,-57.396 365.5,-57.3959"/>
</g>
<!-- Node22&#45;&gt;Node24 -->
<g id="edge6" class="edge"><title>Node22&#45;&gt;Node24</title>
<path fill="none" stroke="midnightblue" d="M328.05,-63.2687C304.796,-52.9159 276.128,-40.1528 254.618,-30.5765"/>
<polygon fill="midnightblue" stroke="midnightblue" points="326.761,-66.5262 337.32,-67.396 329.608,-60.1313 326.761,-66.5262"/>
</g>
<!-- Node22&#45;&gt;Node25 -->
<g id="edge7" class="edge"><title>Node22&#45;&gt;Node25</title>
<path fill="none" stroke="midnightblue" d="M402.664,-62.4727C424.617,-50.0641 452.204,-34.4716 468.949,-25.007"/>
<polygon fill="midnightblue" stroke="midnightblue" points="400.937,-59.4284 393.953,-67.396 404.381,-65.5223 400.937,-59.4284"/>
</g>
<!-- Node22&#45;&gt;Node26 -->
<g id="edge8" class="edge"><title>Node22&#45;&gt;Node26</title>
<path fill="none" stroke="midnightblue" d="M429.938,-65.4638C478.431,-52.7025 544.411,-35.3391 583.374,-25.0859"/>
<polygon fill="midnightblue" stroke="midnightblue" points="428.959,-62.1022 420.179,-68.032 430.74,-68.8717 428.959,-62.1022"/>
</g>
</g>
</svg>
        <g id="navigator" transform="translate(0 0)" fill="#404254">
                <rect fill="#f2f5e9" fill-opacity="0.5" stroke="#606060" stroke-width=".5" x="0" y="0" width="60" height="60"/>
                <use id="zoomplus" xlink:href="#zoomPlus" x="17" y="9" onmousedown="handleZoom(evt,'in')"/>
                <use id="zoomminus" xlink:href="#zoomMin" x="42" y="9" onmousedown="handleZoom(evt,'out')"/>
                <use id="reset" xlink:href="#resetDef" x="30" y="36" onmousedown="handleReset()"/>
                <g id="arrowUp" xlink:href="#dirArrow" transform="translate(30 24)" onmousedown="handlePan(0,-1)">
                  <use xlink:href="#rim" fill="#404040">
                        <set attributeName="fill" to="#808080" begin="arrowUp.mouseover" end="arrowUp.mouseout"/>
                  </use>
                  <path fill="none" stroke="white" stroke-width="1.5" d="M0,-3.0v7 M-2.5,-0.5L0,-3.0L2.5,-0.5"/>
                </g>
                <g id="arrowRight" xlink:href="#dirArrow" transform="rotate(90) translate(36 -43)" onmousedown="handlePan(1,0)">
                  <use xlink:href="#rim" fill="#404040">
                        <set attributeName="fill" to="#808080" begin="arrowRight.mouseover" end="arrowRight.mouseout"/>
                  </use>
                  <path fill="none" stroke="white" stroke-width="1.5" d="M0,-3.0v7 M-2.5,-0.5L0,-3.0L2.5,-0.5"/>
                </g>
                <g id="arrowDown" xlink:href="#dirArrow" transform="rotate(180) translate(-30 -48)" onmousedown="handlePan(0,1)">
                  <use xlink:href="#rim" fill="#404040">
                        <set attributeName="fill" to="#808080" begin="arrowDown.mouseover" end="arrowDown.mouseout"/>
                  </use>
                  <path fill="none" stroke="white" stroke-width="1.5" d="M0,-3.0v7 M-2.5,-0.5L0,-3.0L2.5,-0.5"/>
                </g>
                <g id="arrowLeft" xlink:href="#dirArrow" transform="rotate(270) translate(-36 17)" onmousedown="handlePan(-1,0)">
                  <use xlink:href="#rim" fill="#404040">
                        <set attributeName="fill" to="#808080" begin="arrowLeft.mouseover" end="arrowLeft.mouseout"/>
                  </use>
                  <path fill="none" stroke="white" stroke-width="1.5" d="M0,-3.0v7 M-2.5,-0.5L0,-3.0L2.5,-0.5"/>
                </g>
        </g>
        <svg viewBox="0 0 15 15" width="100%" height="30px" preserveAspectRatio="xMaxYMin meet">
         <g id="arrow_out" transform="scale(0.3 0.3)">
          <a xlink:href="PinCode_8hpp__dep__incl_org.svg" target="_base">
           <rect id="button" ry="5" rx="5" y="6" x="6" height="38" width="38"
                fill="#f2f5e9" fill-opacity="0.5" stroke="#606060" stroke-width="1.0"/>
           <path id="arrow"
             d="M 11.500037,31.436501 C 11.940474,20.09759 22.043105,11.32322 32.158766,21.979434 L 37.068811,17.246167 C 37.068811,17.246167 37.088388,32 37.088388,32 L 22.160133,31.978069 C 22.160133,31.978069 26.997745,27.140456 26.997745,27.140456 C 18.528582,18.264221 13.291696,25.230495 11.500037,31.436501 z"
             style="fill:#404040;"/>
          </a>
         </g>
        </svg>
</svg>
