<?xml version="1.0" encoding="UTF-8" standalone="no"?>
<!DOCTYPE svg PUBLIC "-//W3C//DTD SVG 1.1//EN"
 "http://www.w3.org/Graphics/SVG/1.1/DTD/svg11.dtd">
<!-- Generated by graphviz version 2.38.0 (20140413.2041)
 -->
<!-- Title: Leosac::Audit::Serializer::JSONService Pages: 1 -->
<svg width="148pt" height="117pt"
 viewBox="0.00 0.00 148.00 117.00" xmlns="http://www.w3.org/2000/svg" xmlns:xlink="http://www.w3.org/1999/xlink">
<g id="graph0" class="graph" transform="scale(1 1) rotate(0) translate(4 113)">
<title>Leosac::Audit::Serializer::JSONService</title>
<polygon fill="white" stroke="none" points="-4,4 -4,-113 144,-113 144,4 -4,4"/>
<!-- Node0 -->
<g id="node1" class="node"><title>Node0</title>
<polygon fill="#bfbfbf" stroke="black" points="8.5,-0.5 8.5,-30.5 131.5,-30.5 131.5,-0.5 8.5,-0.5"/>
<text text-anchor="start" x="16.5" y="-18.5" font-family="Helvetica,sans-Serif" font-size="10.00">Leosac::Audit::Serializer</text>
<text text-anchor="middle" x="70" y="-7.5" font-family="Helvetica,sans-Serif" font-size="10.00">::JSONService</text>
</g>
<!-- Node1 -->
<g id="node2" class="node"><title>Node1</title>
<g id="a_node2"><a xlink:href="../../d4/d6b/classLeosac_1_1ExtensibleSerializer.html" target="_top" xlink:title="Leosac::ExtensibleSerializer\l\&lt; json, Audit::IAuditEntry,\l const SecurityContext &amp;\&gt;">
<polygon fill="white" stroke="black" points="0,-67.5 0,-108.5 140,-108.5 140,-67.5 0,-67.5"/>
<text text-anchor="start" x="8" y="-96.5" font-family="Helvetica,sans-Serif" font-size="10.00">Leosac::ExtensibleSerializer</text>
<text text-anchor="start" x="8" y="-85.5" font-family="Helvetica,sans-Serif" font-size="10.00">&lt; json, Audit::IAuditEntry,</text>
<text text-anchor="middle" x="70" y="-74.5" font-family="Helvetica,sans-Serif" font-size="10.00"> const SecurityContext &amp;&gt;</text>
</a>
</g>
</g>
<!-- Node1&#45;&gt;Node0 -->
<g id="edge1" class="edge"><title>Node1&#45;&gt;Node0</title>
<path fill="none" stroke="midnightblue" d="M70,-57.08C70,-48.0061 70,-38.4498 70,-30.8916"/>
<polygon fill="midnightblue" stroke="midnightblue" points="66.5001,-57.3618 70,-67.3618 73.5001,-57.3619 66.5001,-57.3618"/>
</g>
</g>
</svg>
