<?xml version="1.0" encoding="UTF-8" standalone="no"?>
<!DOCTYPE svg PUBLIC "-//W3C//DTD SVG 1.1//EN"
 "http://www.w3.org/Graphics/SVG/1.1/DTD/svg11.dtd">
<!-- Generated by graphviz version 2.38.0 (20140413.2041)
 -->
<!-- Title: src/core/audit/AuditFactory.hpp Pages: 1 -->
<svg width="818pt" height="151pt"
 viewBox="0.00 0.00 818.00 151.00" xmlns="http://www.w3.org/2000/svg" xmlns:xlink="http://www.w3.org/1999/xlink">
<g id="graph0" class="graph" transform="scale(1 1) rotate(0) translate(4 147)">
<title>src/core/audit/AuditFactory.hpp</title>
<polygon fill="white" stroke="none" points="-4,4 -4,-147 814,-147 814,4 -4,4"/>
<!-- Node0 -->
<g id="node1" class="node"><title>Node0</title>
<polygon fill="#bfbfbf" stroke="black" points="334.5,-123.5 334.5,-142.5 487.5,-142.5 487.5,-123.5 334.5,-123.5"/>
<text text-anchor="middle" x="411" y="-130.5" font-family="Helvetica,sans-Serif" font-size="10.00">src/core/audit/AuditFactory.hpp</text>
</g>
<!-- Node1 -->
<g id="node2" class="node"><title>Node1</title>
<g id="a_node2"><a xlink:href="../../d7/dcf/AuditFwd_8hpp.html" target="_top" xlink:title="core/audit/AuditFwd.hpp">
<polygon fill="white" stroke="black" points="0,-62 0,-81 122,-81 122,-62 0,-62"/>
<text text-anchor="middle" x="61" y="-69" font-family="Helvetica,sans-Serif" font-size="10.00">core/audit/AuditFwd.hpp</text>
</a>
</g>
</g>
<!-- Node0&#45;&gt;Node1 -->
<g id="edge1" class="edge"><title>Node0&#45;&gt;Node1</title>
<path fill="none" stroke="midnightblue" d="M353.223,-123.489C296.516,-114.954 207.63,-101.087 131,-87 124.357,-85.7788 117.375,-84.4216 110.498,-83.0413"/>
<polygon fill="midnightblue" stroke="midnightblue" points="111.048,-79.5813 100.55,-81.0157 109.651,-86.4406 111.048,-79.5813"/>
</g>
<!-- Node6 -->
<g id="node7" class="node"><title>Node6</title>
<g id="a_node7"><a xlink:href="../../d3/d6f/AuthFwd_8hpp.html" target="_top" xlink:title="core/auth/AuthFwd.hpp">
<polygon fill="white" stroke="black" points="140,-62 140,-81 258,-81 258,-62 140,-62"/>
<text text-anchor="middle" x="199" y="-69" font-family="Helvetica,sans-Serif" font-size="10.00">core/auth/AuthFwd.hpp</text>
</a>
</g>
</g>
<!-- Node0&#45;&gt;Node6 -->
<g id="edge6" class="edge"><title>Node0&#45;&gt;Node6</title>
<path fill="none" stroke="midnightblue" d="M380.626,-123.475C343.394,-113.026 280.19,-95.2868 239.024,-83.7332"/>
<polygon fill="midnightblue" stroke="midnightblue" points="239.892,-80.3416 229.318,-81.0091 238,-87.0811 239.892,-80.3416"/>
</g>
<!-- Node7 -->
<g id="node8" class="node"><title>Node7</title>
<g id="a_node8"><a xlink:href="../../d7/d7f/CredentialFwd_8hpp.html" target="_top" xlink:title="core/credentials/Credential\lFwd.hpp">
<polygon fill="white" stroke="black" points="276.5,-56.5 276.5,-86.5 409.5,-86.5 409.5,-56.5 276.5,-56.5"/>
<text text-anchor="start" x="284.5" y="-74.5" font-family="Helvetica,sans-Serif" font-size="10.00">core/credentials/Credential</text>
<text text-anchor="middle" x="343" y="-63.5" font-family="Helvetica,sans-Serif" font-size="10.00">Fwd.hpp</text>
</a>
</g>
</g>
<!-- Node0&#45;&gt;Node7 -->
<g id="edge10" class="edge"><title>Node0&#45;&gt;Node7</title>
<path fill="none" stroke="midnightblue" d="M401.257,-123.475C392.306,-115.643 378.674,-103.714 366.846,-93.3656"/>
<polygon fill="midnightblue" stroke="midnightblue" points="368.857,-90.474 359.026,-86.523 364.247,-95.7421 368.857,-90.474"/>
</g>
<!-- Node8 -->
<g id="node9" class="node"><title>Node8</title>
<g id="a_node9"><a xlink:href="../../d8/d97/ToolsFwd_8hpp.html" target="_top" xlink:title="tools/ToolsFwd.hpp">
<polygon fill="white" stroke="black" points="428,-62 428,-81 530,-81 530,-62 428,-62"/>
<text text-anchor="middle" x="479" y="-69" font-family="Helvetica,sans-Serif" font-size="10.00">tools/ToolsFwd.hpp</text>
</a>
</g>
</g>
<!-- Node0&#45;&gt;Node8 -->
<g id="edge13" class="edge"><title>Node0&#45;&gt;Node8</title>
<path fill="none" stroke="midnightblue" d="M420.743,-123.475C431.347,-114.197 448.519,-99.1706 461.479,-87.831"/>
<polygon fill="midnightblue" stroke="midnightblue" points="464.054,-90.2282 469.275,-81.0091 459.445,-84.9601 464.054,-90.2282"/>
</g>
<!-- Node9 -->
<g id="node10" class="node"><title>Node9</title>
<g id="a_node10"><a xlink:href="../../d9/d69/db__fwd_8hpp.html" target="_top" xlink:title="tools/db/db_fwd.hpp">
<polygon fill="white" stroke="black" points="706,-62 706,-81 810,-81 810,-62 706,-62"/>
<text text-anchor="middle" x="758" y="-69" font-family="Helvetica,sans-Serif" font-size="10.00">tools/db/db_fwd.hpp</text>
</a>
</g>
</g>
<!-- Node0&#45;&gt;Node9 -->
<g id="edge16" class="edge"><title>Node0&#45;&gt;Node9</title>
<path fill="none" stroke="midnightblue" d="M474.295,-123.474C532.414,-115.306 620.81,-102.026 697,-87 702.54,-85.9074 708.34,-84.6622 714.066,-83.3711"/>
<polygon fill="midnightblue" stroke="midnightblue" points="715.269,-86.6852 724.223,-81.0207 713.691,-79.8655 715.269,-86.6852"/>
</g>
<!-- Node10 -->
<g id="node11" class="node"><title>Node10</title>
<g id="a_node11"><a xlink:href="../../d2/d0e/UpdateFwd_8hpp.html" target="_top" xlink:title="core/update/UpdateFwd.hpp">
<polygon fill="white" stroke="black" points="548,-62 548,-81 688,-81 688,-62 548,-62"/>
<text text-anchor="middle" x="618" y="-69" font-family="Helvetica,sans-Serif" font-size="10.00">core/update/UpdateFwd.hpp</text>
</a>
</g>
</g>
<!-- Node0&#45;&gt;Node10 -->
<g id="edge18" class="edge"><title>Node0&#45;&gt;Node10</title>
<path fill="none" stroke="midnightblue" d="M440.658,-123.475C476.934,-113.048 538.464,-95.3618 578.664,-83.8066"/>
<polygon fill="midnightblue" stroke="midnightblue" points="579.753,-87.1355 588.397,-81.0091 577.819,-80.4079 579.753,-87.1355"/>
</g>
<!-- Node2 -->
<g id="node3" class="node"><title>Node2</title>
<polygon fill="white" stroke="#bfbfbf" points="142.5,-0.5 142.5,-19.5 191.5,-19.5 191.5,-0.5 142.5,-0.5"/>
<text text-anchor="middle" x="167" y="-7.5" font-family="Helvetica,sans-Serif" font-size="10.00">cstddef</text>
</g>
<!-- Node1&#45;&gt;Node2 -->
<g id="edge2" class="edge"><title>Node1&#45;&gt;Node2</title>
<path fill="none" stroke="midnightblue" d="M76.1872,-61.9751C93.6616,-52.1664 122.579,-35.9346 143.083,-24.425"/>
<polygon fill="midnightblue" stroke="midnightblue" points="144.834,-27.456 151.841,-19.5091 141.408,-21.3519 144.834,-27.456"/>
</g>
<!-- Node3 -->
<g id="node4" class="node"><title>Node3</title>
<polygon fill="white" stroke="#bfbfbf" points="28.5,-0.5 28.5,-19.5 93.5,-19.5 93.5,-0.5 28.5,-0.5"/>
<text text-anchor="middle" x="61" y="-7.5" font-family="Helvetica,sans-Serif" font-size="10.00">flagset.hpp</text>
</g>
<!-- Node1&#45;&gt;Node3 -->
<g id="edge3" class="edge"><title>Node1&#45;&gt;Node3</title>
<path fill="none" stroke="midnightblue" d="M61,-61.9751C61,-53.5803 61,-40.4806 61,-29.6631"/>
<polygon fill="midnightblue" stroke="midnightblue" points="64.5001,-29.5091 61,-19.5091 57.5001,-29.5091 64.5001,-29.5091"/>
</g>
<!-- Node4 -->
<g id="node5" class="node"><title>Node4</title>
<polygon fill="white" stroke="#bfbfbf" points="428,-0.5 428,-19.5 480,-19.5 480,-0.5 428,-0.5"/>
<text text-anchor="middle" x="454" y="-7.5" font-family="Helvetica,sans-Serif" font-size="10.00">memory</text>
</g>
<!-- Node1&#45;&gt;Node4 -->
<g id="edge4" class="edge"><title>Node1&#45;&gt;Node4</title>
<path fill="none" stroke="midnightblue" d="M99.7871,-61.9704C109.92,-59.8781 120.847,-57.7416 131,-56 247.714,-35.9783 277.797,-36.9292 395,-20 402.403,-18.9307 410.322,-17.7488 417.878,-16.6029"/>
<polygon fill="midnightblue" stroke="midnightblue" points="418.516,-20.046 427.873,-15.0764 417.46,-13.1263 418.516,-20.046"/>
</g>
<!-- Node5 -->
<g id="node6" class="node"><title>Node5</title>
<polygon fill="white" stroke="#bfbfbf" points="300,-0.5 300,-19.5 386,-19.5 386,-0.5 300,-0.5"/>
<text text-anchor="middle" x="343" y="-7.5" font-family="Helvetica,sans-Serif" font-size="10.00">odb/lazy&#45;ptr.hxx</text>
</g>
<!-- Node1&#45;&gt;Node5 -->
<g id="edge5" class="edge"><title>Node1&#45;&gt;Node5</title>
<path fill="none" stroke="midnightblue" d="M101.404,-61.9751C151.871,-51.3269 238.214,-33.1092 292.854,-21.5806"/>
<polygon fill="midnightblue" stroke="midnightblue" points="293.609,-24.9982 302.671,-19.5091 292.164,-18.149 293.609,-24.9982"/>
</g>
<!-- Node6&#45;&gt;Node2 -->
<g id="edge7" class="edge"><title>Node6&#45;&gt;Node2</title>
<path fill="none" stroke="midnightblue" d="M194.415,-61.9751C189.758,-53.3152 182.408,-39.6486 176.49,-28.6453"/>
<polygon fill="midnightblue" stroke="midnightblue" points="179.395,-26.6584 171.576,-19.5091 173.23,-29.974 179.395,-26.6584"/>
</g>
<!-- Node6&#45;&gt;Node4 -->
<g id="edge8" class="edge"><title>Node6&#45;&gt;Node4</title>
<path fill="none" stroke="midnightblue" d="M235.535,-61.9751C284.161,-50.6291 369.619,-30.6888 417.982,-19.4042"/>
<polygon fill="midnightblue" stroke="midnightblue" points="419.057,-22.7475 428,-17.0667 417.466,-15.9307 419.057,-22.7475"/>
</g>
<!-- Node6&#45;&gt;Node5 -->
<g id="edge9" class="edge"><title>Node6&#45;&gt;Node5</title>
<path fill="none" stroke="midnightblue" d="M219.632,-61.9751C244.119,-51.8571 285.147,-34.9046 313.109,-23.3507"/>
<polygon fill="midnightblue" stroke="midnightblue" points="314.501,-26.5627 322.407,-19.5091 311.828,-20.0932 314.501,-26.5627"/>
</g>
<!-- Node7&#45;&gt;Node4 -->
<g id="edge11" class="edge"><title>Node7&#45;&gt;Node4</title>
<path fill="none" stroke="midnightblue" d="M369.305,-56.3993C387.264,-46.7728 410.924,-34.0902 428.671,-24.5772"/>
<polygon fill="midnightblue" stroke="midnightblue" points="430.688,-27.467 437.849,-19.6578 427.381,-21.2975 430.688,-27.467"/>
</g>
<!-- Node7&#45;&gt;Node5 -->
<g id="edge12" class="edge"><title>Node7&#45;&gt;Node5</title>
<path fill="none" stroke="midnightblue" d="M343,-56.3993C343,-48.4664 343,-38.458 343,-29.8583"/>
<polygon fill="midnightblue" stroke="midnightblue" points="346.5,-29.6577 343,-19.6578 339.5,-29.6578 346.5,-29.6577"/>
</g>
<!-- Node8&#45;&gt;Node4 -->
<g id="edge14" class="edge"><title>Node8&#45;&gt;Node4</title>
<path fill="none" stroke="midnightblue" d="M475.418,-61.9751C471.817,-53.4035 466.154,-39.9269 461.556,-28.983"/>
<polygon fill="midnightblue" stroke="midnightblue" points="464.676,-27.3726 457.575,-19.5091 458.222,-30.0842 464.676,-27.3726"/>
</g>
<!-- Node8&#45;&gt;Node5 -->
<g id="edge15" class="edge"><title>Node8&#45;&gt;Node5</title>
<path fill="none" stroke="midnightblue" d="M459.515,-61.9751C436.59,-51.9455 398.315,-35.2002 371.925,-23.6546"/>
<polygon fill="midnightblue" stroke="midnightblue" points="373.014,-20.3108 362.449,-19.5091 370.208,-26.7239 373.014,-20.3108"/>
</g>
<!-- Node9&#45;&gt;Node4 -->
<g id="edge17" class="edge"><title>Node9&#45;&gt;Node4</title>
<path fill="none" stroke="midnightblue" d="M723.55,-61.9918C714.901,-59.9438 705.627,-57.8229 697,-56 624.021,-40.5791 538.095,-25.3497 490.463,-17.1636"/>
<polygon fill="midnightblue" stroke="midnightblue" points="490.783,-13.6674 480.335,-15.4301 489.602,-20.5671 490.783,-13.6674"/>
</g>
<!-- Node10&#45;&gt;Node4 -->
<g id="edge19" class="edge"><title>Node10&#45;&gt;Node4</title>
<path fill="none" stroke="midnightblue" d="M594.503,-61.9751C566.371,-51.7687 519.071,-34.608 487.211,-23.0492"/>
<polygon fill="midnightblue" stroke="midnightblue" points="488.048,-19.6295 477.454,-19.5091 485.66,-26.2098 488.048,-19.6295"/>
</g>
<!-- Node10&#45;&gt;Node5 -->
<g id="edge20" class="edge"><title>Node10&#45;&gt;Node5</title>
<path fill="none" stroke="midnightblue" d="M578.599,-61.9751C529.487,-51.349 445.534,-33.1847 392.234,-21.6524"/>
<polygon fill="midnightblue" stroke="midnightblue" points="392.842,-18.203 382.328,-19.5091 391.361,-25.0447 392.842,-18.203"/>
</g>
</g>
</svg>
