<?xml version="1.0" encoding="UTF-8" standalone="no"?>
<!DOCTYPE svg PUBLIC "-//W3C//DTD SVG 1.1//EN"
 "http://www.w3.org/Graphics/SVG/1.1/DTD/svg11.dtd">
<!-- Generated by graphviz version 2.38.0 (20140413.2041)
 -->
<!-- Title: src/modules/led&#45;buzzer/LEDBuzzerModule.hpp Pages: 1 -->
<svg width="354pt" height="106pt"
 viewBox="0.00 0.00 353.50 106.00" xmlns="http://www.w3.org/2000/svg" xmlns:xlink="http://www.w3.org/1999/xlink">
<g id="graph0" class="graph" transform="scale(1 1) rotate(0) translate(4 102)">
<title>src/modules/led&#45;buzzer/LEDBuzzerModule.hpp</title>
<polygon fill="white" stroke="none" points="-4,4 -4,-102 349.5,-102 349.5,4 -4,4"/>
<!-- Node44 -->
<g id="node1" class="node"><title>Node44</title>
<polygon fill="#bfbfbf" stroke="black" points="136,-67.5 136,-97.5 256,-97.5 256,-67.5 136,-67.5"/>
<text text-anchor="start" x="144" y="-85.5" font-family="Helvetica,sans-Serif" font-size="10.00">src/modules/led&#45;buzzer</text>
<text text-anchor="middle" x="196" y="-74.5" font-family="Helvetica,sans-Serif" font-size="10.00">/LEDBuzzerModule.hpp</text>
</g>
<!-- Node45 -->
<g id="node2" class="node"><title>Node45</title>
<g id="a_node2"><a xlink:href="../../d4/db4/led-buzzer_2init_8cpp.html" target="_top" xlink:title="src/modules/led&#45;buzzer\l/init.cpp">
<polygon fill="white" stroke="black" points="0,-0.5 0,-30.5 118,-30.5 118,-0.5 0,-0.5"/>
<text text-anchor="start" x="8" y="-18.5" font-family="Helvetica,sans-Serif" font-size="10.00">src/modules/led&#45;buzzer</text>
<text text-anchor="middle" x="59" y="-7.5" font-family="Helvetica,sans-Serif" font-size="10.00">/init.cpp</text>
</a>
</g>
</g>
<!-- Node44&#45;&gt;Node45 -->
<g id="edge1" class="edge"><title>Node44&#45;&gt;Node45</title>
<path fill="none" stroke="midnightblue" d="M156.991,-62.9921C135.276,-52.6892 108.673,-40.0677 88.6689,-30.5765"/>
<polygon fill="midnightblue" stroke="midnightblue" points="155.738,-66.2715 166.273,-67.396 158.739,-59.9472 155.738,-66.2715"/>
</g>
<!-- Node46 -->
<g id="node3" class="node"><title>Node46</title>
<g id="a_node3"><a xlink:href="../../d7/d36/LEDBuzzerModule_8cpp.html" target="_top" xlink:title="src/modules/led&#45;buzzer\l/LEDBuzzerModule.cpp">
<polygon fill="white" stroke="black" points="136,-0.5 136,-30.5 256,-30.5 256,-0.5 136,-0.5"/>
<text text-anchor="start" x="144" y="-18.5" font-family="Helvetica,sans-Serif" font-size="10.00">src/modules/led&#45;buzzer</text>
<text text-anchor="middle" x="196" y="-7.5" font-family="Helvetica,sans-Serif" font-size="10.00">/LEDBuzzerModule.cpp</text>
</a>
</g>
</g>
<!-- Node44&#45;&gt;Node46 -->
<g id="edge2" class="edge"><title>Node44&#45;&gt;Node46</title>
<path fill="none" stroke="midnightblue" d="M196,-57.1081C196,-48.1539 196,-38.3227 196,-30.5765"/>
<polygon fill="midnightblue" stroke="midnightblue" points="192.5,-57.3959 196,-67.396 199.5,-57.396 192.5,-57.3959"/>
</g>
<!-- Node47 -->
<g id="node4" class="node"><title>Node47</title>
<g id="a_node4"><a xlink:href="../../d9/d21/Led_8cpp.html" target="_top" xlink:title="test/Led.cpp">
<polygon fill="white" stroke="black" points="274.5,-6 274.5,-25 345.5,-25 345.5,-6 274.5,-6"/>
<text text-anchor="middle" x="310" y="-13" font-family="Helvetica,sans-Serif" font-size="10.00">test/Led.cpp</text>
</a>
</g>
</g>
<!-- Node44&#45;&gt;Node47 -->
<g id="edge3" class="edge"><title>Node44&#45;&gt;Node47</title>
<path fill="none" stroke="midnightblue" d="M229.661,-62.3071C251.377,-49.9256 278.554,-34.4296 295.08,-25.007"/>
<polygon fill="midnightblue" stroke="midnightblue" points="227.69,-59.4022 220.736,-67.396 231.157,-65.4832 227.69,-59.4022"/>
</g>
</g>
</svg>
