<?xml version="1.0" encoding="UTF-8" standalone="no"?>
<!DOCTYPE svg PUBLIC "-//W3C//DTD SVG 1.1//EN"
 "http://www.w3.org/Graphics/SVG/1.1/DTD/svg11.dtd">
<!-- Generated by graphviz version 2.38.0 (20140413.2041)
 -->
<!-- Title: Leosac::Module::WebSockAPI::SessionAborted Pages: 1 -->
<!--zoomable 476 -->
<svg id="main" version="1.1" xmlns="http://www.w3.org/2000/svg" xmlns:xlink="http://www.w3.org/1999/xlink" xml:space="preserve" onload="init(evt)">
<style type="text/css"><![CDATA[
.edge:hover path { stroke: red; }
.edge:hover polygon { stroke: red; fill: red; }
]]></style>
<script type="text/javascript"><![CDATA[
var edges = document.getElementsByTagName('g');
if (edges && edges.length) {
  for (var i=0;i<edges.length;i++) {
    if (edges[i].id.substr(0,4)=='edge') {
      edges[i].setAttribute('class','edge');
    }
  }
}
]]></script>
        <defs>
                <circle id="rim" cx="0" cy="0" r="7"/>
                <circle id="rim2" cx="0" cy="0" r="3.5"/>
                <g id="zoomPlus">
                        <use xlink:href="#rim" fill="#404040">
                                <set attributeName="fill" to="#808080" begin="zoomplus.mouseover" end="zoomplus.mouseout"/>
                        </use>
                        <path d="M-4,0h8M0,-4v8" fill="none" stroke="white" stroke-width="1.5" pointer-events="none"/>
                </g>
                <g id="zoomMin">
                        <use xlink:href="#rim" fill="#404040">
                                <set attributeName="fill" to="#808080" begin="zoomminus.mouseover" end="zoomminus.mouseout"/>
                        </use>
                        <path d="M-4,0h8" fill="none" stroke="white" stroke-width="1.5" pointer-events="none"/>
                </g>
                <g id="dirArrow">
                        <path fill="none" stroke="white" stroke-width="1.5" d="M0,-3.0v7 M-2.5,-0.5L0,-3.0L2.5,-0.5"/>
                </g>
               <g id="resetDef">
                       <use xlink:href="#rim2" fill="#404040">
                               <set attributeName="fill" to="#808080" begin="reset.mouseover" end="reset.mouseout"/>
                       </use>
               </g>
        </defs>

<script type="text/javascript">
var viewWidth = 286;
var viewHeight = 476;
var sectionId = 'dynsection-1';
</script>
<script xlink:href="../../svgpan.js"/>
<svg id="graph" class="graph">
<g id="viewport">
<title>Leosac::Module::WebSockAPI::SessionAborted</title>
<polygon fill="white" stroke="none" points="-4,4 -4,-472 281.5,-472 281.5,4 -4,4"/>
<!-- Node3 -->
<g id="node1" class="node"><title>Node3</title>
<polygon fill="#bfbfbf" stroke="black" points="30.5,-0.5 30.5,-30.5 181.5,-30.5 181.5,-0.5 30.5,-0.5"/>
<text text-anchor="start" x="38.5" y="-18.5" font-family="Helvetica,sans-Serif" font-size="10.00">Leosac::Module::WebSockAPI</text>
<text text-anchor="middle" x="106" y="-7.5" font-family="Helvetica,sans-Serif" font-size="10.00">::SessionAborted</text>
</g>
<!-- Node4 -->
<g id="node2" class="node"><title>Node4</title>
<g id="a_node2"><a xlink:href="../../d7/d0e/classLEOSACException.html" target="_top" xlink:title="A base class for Leosac specific exception. ">
<polygon fill="white" stroke="black" points="55.5,-68.5 55.5,-87.5 156.5,-87.5 156.5,-68.5 55.5,-68.5"/>
<text text-anchor="middle" x="106" y="-75.5" font-family="Helvetica,sans-Serif" font-size="10.00">LEOSACException</text>
</a>
</g>
</g>
<!-- Node4&#45;&gt;Node3 -->
<g id="edge1" class="edge"><title>Node4&#45;&gt;Node3</title>
<path fill="none" stroke="midnightblue" d="M106,-58.2154C106,-49.3565 106,-38.9577 106,-30.7587"/>
<polygon fill="midnightblue" stroke="midnightblue" points="102.5,-58.3318 106,-68.3318 109.5,-58.3319 102.5,-58.3318"/>
</g>
<!-- Node5 -->
<g id="node3" class="node"><title>Node5</title>
<g id="a_node3"><a xlink:title="STL class. ">
<polygon fill="white" stroke="#bfbfbf" points="0,-135.5 0,-154.5 78,-154.5 78,-135.5 0,-135.5"/>
<text text-anchor="middle" x="39" y="-142.5" font-family="Helvetica,sans-Serif" font-size="10.00">std::exception</text>
</a>
</g>
</g>
<!-- Node5&#45;&gt;Node4 -->
<g id="edge2" class="edge"><title>Node5&#45;&gt;Node4</title>
<path fill="none" stroke="midnightblue" d="M55.4956,-127.997C68.635,-115.25 86.5239,-97.8947 97.1072,-87.6273"/>
<polygon fill="midnightblue" stroke="midnightblue" points="52.7762,-125.759 48.0359,-135.234 57.6504,-130.783 52.7762,-125.759"/>
</g>
<!-- Node6 -->
<g id="node4" class="node"><title>Node6</title>
<g id="a_node4"><a xlink:href="../../d2/de3/classLeosac_1_1Tools_1_1Stacktrace.html" target="_top" xlink:title="Store information about a stacktrace at a given point in the program execution. ">
<polygon fill="white" stroke="black" points="140.5,-135.5 140.5,-154.5 271.5,-154.5 271.5,-135.5 140.5,-135.5"/>
<text text-anchor="middle" x="206" y="-142.5" font-family="Helvetica,sans-Serif" font-size="10.00">Leosac::Tools::Stacktrace</text>
</a>
</g>
</g>
<!-- Node6&#45;&gt;Node4 -->
<g id="edge3" class="edge"><title>Node6&#45;&gt;Node4</title>
<path fill="none" stroke="#9a32cd" stroke-dasharray="5,2" d="M184.106,-129.769C164.312,-116.903 135.814,-98.379 119.273,-87.6273"/>
<polygon fill="#9a32cd" stroke="#9a32cd" points="182.222,-132.718 192.514,-135.234 186.037,-126.849 182.222,-132.718"/>
<text text-anchor="middle" x="176.5" y="-109" font-family="Helvetica,sans-Serif" font-size="10.00"> trace_</text>
</g>
<!-- Node7 -->
<g id="node5" class="node"><title>Node7</title>
<polygon fill="white" stroke="#bfbfbf" points="173,-202.5 173,-243.5 277,-243.5 277,-202.5 173,-202.5"/>
<text text-anchor="start" x="181" y="-231.5" font-family="Helvetica,sans-Serif" font-size="10.00">std::vector&lt; Leosac</text>
<text text-anchor="start" x="181" y="-220.5" font-family="Helvetica,sans-Serif" font-size="10.00">::Tools::Stacktrace</text>
<text text-anchor="middle" x="225" y="-209.5" font-family="Helvetica,sans-Serif" font-size="10.00">::Frame &gt;</text>
</g>
<!-- Node7&#45;&gt;Node6 -->
<g id="edge4" class="edge"><title>Node7&#45;&gt;Node6</title>
<path fill="none" stroke="#9a32cd" stroke-dasharray="5,2" d="M217.613,-192.451C214.214,-178.855 210.435,-163.739 208.138,-154.552"/>
<polygon fill="#9a32cd" stroke="#9a32cd" points="214.286,-193.576 220.107,-202.428 221.077,-191.878 214.286,-193.576"/>
<text text-anchor="middle" x="231.5" y="-176" font-family="Helvetica,sans-Serif" font-size="10.00"> stack_</text>
</g>
<!-- Node8 -->
<g id="node6" class="node"><title>Node8</title>
<g id="a_node6"><a xlink:href="../../d8/d1d/structLeosac_1_1Tools_1_1Stacktrace_1_1Frame.html" target="_top" xlink:title="Leosac::Tools::Stacktrace\l::Frame">
<polygon fill="white" stroke="black" points="146.5,-291.5 146.5,-321.5 277.5,-321.5 277.5,-291.5 146.5,-291.5"/>
<text text-anchor="start" x="154.5" y="-309.5" font-family="Helvetica,sans-Serif" font-size="10.00">Leosac::Tools::Stacktrace</text>
<text text-anchor="middle" x="212" y="-298.5" font-family="Helvetica,sans-Serif" font-size="10.00">::Frame</text>
</a>
</g>
</g>
<!-- Node8&#45;&gt;Node7 -->
<g id="edge5" class="edge"><title>Node8&#45;&gt;Node7</title>
<path fill="none" stroke="#9a32cd" stroke-dasharray="5,2" d="M215.897,-281.066C217.812,-269.061 220.088,-254.794 221.885,-243.528"/>
<polygon fill="#9a32cd" stroke="#9a32cd" points="212.383,-280.877 214.264,-291.304 219.296,-281.98 212.383,-280.877"/>
<text text-anchor="middle" x="239.5" y="-265" font-family="Helvetica,sans-Serif" font-size="10.00"> elements</text>
</g>
<!-- Node9 -->
<g id="node7" class="node"><title>Node9</title>
<g id="a_node7"><a xlink:title="STL class. ">
<polygon fill="white" stroke="#bfbfbf" points="92,-380.5 92,-399.5 152,-399.5 152,-380.5 92,-380.5"/>
<text text-anchor="middle" x="122" y="-387.5" font-family="Helvetica,sans-Serif" font-size="10.00">std::string</text>
</a>
</g>
</g>
<!-- Node9&#45;&gt;Node4 -->
<g id="edge8" class="edge"><title>Node9&#45;&gt;Node4</title>
<path fill="none" stroke="#9a32cd" stroke-dasharray="5,2" d="M116.144,-370.145C111.576,-353.756 106,-329.291 106,-307.5 106,-307.5 106,-307.5 106,-144 106,-123.913 106,-100.335 106,-87.8314"/>
<polygon fill="#9a32cd" stroke="#9a32cd" points="112.884,-371.463 119.065,-380.067 119.599,-369.486 112.884,-371.463"/>
<text text-anchor="middle" x="130.5" y="-220.5" font-family="Helvetica,sans-Serif" font-size="10.00"> message_</text>
</g>
<!-- Node9&#45;&gt;Node8 -->
<g id="edge6" class="edge"><title>Node9&#45;&gt;Node8</title>
<path fill="none" stroke="#9a32cd" stroke-dasharray="5,2" d="M139.45,-373.198C155.975,-358.234 180.557,-335.974 196.432,-321.597"/>
<polygon fill="#9a32cd" stroke="#9a32cd" points="136.695,-370.971 131.632,-380.278 141.393,-376.16 136.695,-370.971"/>
<text text-anchor="middle" x="196.5" y="-354" font-family="Helvetica,sans-Serif" font-size="10.00"> function_</text>
<text text-anchor="middle" x="196.5" y="-343" font-family="Helvetica,sans-Serif" font-size="10.00">file_</text>
</g>
<!-- Node10 -->
<g id="node8" class="node"><title>Node10</title>
<g id="a_node8"><a xlink:title="STL class. ">
<polygon fill="white" stroke="#bfbfbf" points="74.5,-437.5 74.5,-467.5 169.5,-467.5 169.5,-437.5 74.5,-437.5"/>
<text text-anchor="start" x="82.5" y="-455.5" font-family="Helvetica,sans-Serif" font-size="10.00">std::basic_string&lt;</text>
<text text-anchor="middle" x="122" y="-444.5" font-family="Helvetica,sans-Serif" font-size="10.00"> char &gt;</text>
</a>
</g>
</g>
<!-- Node10&#45;&gt;Node9 -->
<g id="edge7" class="edge"><title>Node10&#45;&gt;Node9</title>
<path fill="none" stroke="midnightblue" d="M122,-427.352C122,-417.513 122,-406.775 122,-399.54"/>
<polygon fill="midnightblue" stroke="midnightblue" points="118.5,-427.468 122,-437.468 125.5,-427.468 118.5,-427.468"/>
</g>
</g>
</svg>
        <g id="navigator" transform="translate(0 0)" fill="#404254">
                <rect fill="#f2f5e9" fill-opacity="0.5" stroke="#606060" stroke-width=".5" x="0" y="0" width="60" height="60"/>
                <use id="zoomplus" xlink:href="#zoomPlus" x="17" y="9" onmousedown="handleZoom(evt,'in')"/>
                <use id="zoomminus" xlink:href="#zoomMin" x="42" y="9" onmousedown="handleZoom(evt,'out')"/>
                <use id="reset" xlink:href="#resetDef" x="30" y="36" onmousedown="handleReset()"/>
                <g id="arrowUp" xlink:href="#dirArrow" transform="translate(30 24)" onmousedown="handlePan(0,-1)">
                  <use xlink:href="#rim" fill="#404040">
                        <set attributeName="fill" to="#808080" begin="arrowUp.mouseover" end="arrowUp.mouseout"/>
                  </use>
                  <path fill="none" stroke="white" stroke-width="1.5" d="M0,-3.0v7 M-2.5,-0.5L0,-3.0L2.5,-0.5"/>
                </g>
                <g id="arrowRight" xlink:href="#dirArrow" transform="rotate(90) translate(36 -43)" onmousedown="handlePan(1,0)">
                  <use xlink:href="#rim" fill="#404040">
                        <set attributeName="fill" to="#808080" begin="arrowRight.mouseover" end="arrowRight.mouseout"/>
                  </use>
                  <path fill="none" stroke="white" stroke-width="1.5" d="M0,-3.0v7 M-2.5,-0.5L0,-3.0L2.5,-0.5"/>
                </g>
                <g id="arrowDown" xlink:href="#dirArrow" transform="rotate(180) translate(-30 -48)" onmousedown="handlePan(0,1)">
                  <use xlink:href="#rim" fill="#404040">
                        <set attributeName="fill" to="#808080" begin="arrowDown.mouseover" end="arrowDown.mouseout"/>
                  </use>
                  <path fill="none" stroke="white" stroke-width="1.5" d="M0,-3.0v7 M-2.5,-0.5L0,-3.0L2.5,-0.5"/>
                </g>
                <g id="arrowLeft" xlink:href="#dirArrow" transform="rotate(270) translate(-36 17)" onmousedown="handlePan(-1,0)">
                  <use xlink:href="#rim" fill="#404040">
                        <set attributeName="fill" to="#808080" begin="arrowLeft.mouseover" end="arrowLeft.mouseout"/>
                  </use>
                  <path fill="none" stroke="white" stroke-width="1.5" d="M0,-3.0v7 M-2.5,-0.5L0,-3.0L2.5,-0.5"/>
                </g>
        </g>
        <svg viewBox="0 0 15 15" width="100%" height="30px" preserveAspectRatio="xMaxYMin meet">
         <g id="arrow_out" transform="scale(0.3 0.3)">
          <a xlink:href="classLeosac_1_1Module_1_1WebSockAPI_1_1SessionAborted__coll__graph_org.svg" target="_base">
           <rect id="button" ry="5" rx="5" y="6" x="6" height="38" width="38"
                fill="#f2f5e9" fill-opacity="0.5" stroke="#606060" stroke-width="1.0"/>
           <path id="arrow"
             d="M 11.500037,31.436501 C 11.940474,20.09759 22.043105,11.32322 32.158766,21.979434 L 37.068811,17.246167 C 37.068811,17.246167 37.088388,32 37.088388,32 L 22.160133,31.978069 C 22.160133,31.978069 26.997745,27.140456 26.997745,27.140456 C 18.528582,18.264221 13.291696,25.230495 11.500037,31.436501 z"
             style="fill:#404040;"/>
          </a>
         </g>
        </svg>
</svg>
