<?xml version="1.0" encoding="UTF-8" standalone="no"?>
<!DOCTYPE svg PUBLIC "-//W3C//DTD SVG 1.1//EN"
 "http://www.w3.org/Graphics/SVG/1.1/DTD/svg11.dtd">
<!-- Generated by graphviz version 2.38.0 (20140413.2041)
 -->
<!-- Title: Leosac::Audit::UpdateEvent Pages: 1 -->
<svg width="745pt" height="212pt"
 viewBox="0.00 0.00 745.00 211.50" xmlns="http://www.w3.org/2000/svg" xmlns:xlink="http://www.w3.org/1999/xlink">
<g id="graph0" class="graph" transform="scale(1 1) rotate(0) translate(4 207.5)">
<title>Leosac::Audit::UpdateEvent</title>
<polygon fill="white" stroke="none" points="-4,4 -4,-207.5 741,-207.5 741,4 -4,4"/>
<!-- Node6 -->
<g id="node1" class="node"><title>Node6</title>
<polygon fill="#bfbfbf" stroke="black" points="597,-30.5 597,-49.5 737,-49.5 737,-30.5 597,-30.5"/>
<text text-anchor="middle" x="667" y="-37.5" font-family="Helvetica,sans-Serif" font-size="10.00">Leosac::Audit::UpdateEvent</text>
</g>
<!-- Node7 -->
<g id="node2" class="node"><title>Node7</title>
<g id="a_node2"><a xlink:href="../../d4/d99/classLeosac_1_1Audit_1_1IUpdateEvent.html" target="_top" xlink:title="Interface for update&#45;related event. ">
<polygon fill="white" stroke="black" points="382,-1.5 382,-20.5 525,-20.5 525,-1.5 382,-1.5"/>
<text text-anchor="middle" x="453.5" y="-8.5" font-family="Helvetica,sans-Serif" font-size="10.00">Leosac::Audit::IUpdateEvent</text>
</a>
</g>
</g>
<!-- Node7&#45;&gt;Node6 -->
<g id="edge1" class="edge"><title>Node7&#45;&gt;Node6</title>
<path fill="none" stroke="midnightblue" d="M534.044,-21.9067C554.673,-24.7353 576.722,-27.7585 596.773,-30.5079"/>
<polygon fill="midnightblue" stroke="midnightblue" points="534.429,-18.4268 524.046,-20.5359 533.478,-25.3619 534.429,-18.4268"/>
</g>
<!-- Node8 -->
<g id="node3" class="node"><title>Node8</title>
<g id="a_node3"><a xlink:href="../../d1/d44/classLeosac_1_1Audit_1_1IAuditEntry.html" target="_top" xlink:title="Base interface to Audit object. ">
<polygon fill="white" stroke="black" points="167,-0.5 167,-19.5 298,-19.5 298,-0.5 167,-0.5"/>
<text text-anchor="middle" x="232.5" y="-7.5" font-family="Helvetica,sans-Serif" font-size="10.00">Leosac::Audit::IAuditEntry</text>
</a>
</g>
</g>
<!-- Node8&#45;&gt;Node7 -->
<g id="edge2" class="edge"><title>Node8&#45;&gt;Node7</title>
<path fill="none" stroke="midnightblue" d="M308.094,-10.3406C331.981,-10.4497 358.344,-10.5701 381.935,-10.6778"/>
<polygon fill="midnightblue" stroke="midnightblue" points="308.039,-6.84042 298.023,-10.2946 308.007,-13.8403 308.039,-6.84042"/>
</g>
<!-- Node10 -->
<g id="node5" class="node"><title>Node10</title>
<g id="a_node5"><a xlink:href="../../d0/d20/classLeosac_1_1Audit_1_1AuditEntry.html" target="_top" xlink:title="Implementation of IAuditEntry, backed by ODB. ">
<polygon fill="white" stroke="black" points="389.5,-73.5 389.5,-92.5 517.5,-92.5 517.5,-73.5 389.5,-73.5"/>
<text text-anchor="middle" x="453.5" y="-80.5" font-family="Helvetica,sans-Serif" font-size="10.00">Leosac::Audit::AuditEntry</text>
</a>
</g>
</g>
<!-- Node8&#45;&gt;Node10 -->
<g id="edge5" class="edge"><title>Node8&#45;&gt;Node10</title>
<path fill="none" stroke="midnightblue" d="M271.764,-22.7546C315.157,-37.219 384.921,-60.4736 423.863,-73.4542"/>
<polygon fill="midnightblue" stroke="midnightblue" points="272.724,-19.3854 262.13,-19.5435 270.51,-26.0262 272.724,-19.3854"/>
</g>
<!-- Node9 -->
<g id="node4" class="node"><title>Node9</title>
<g id="a_node4"><a xlink:href="../../d0/d33/classLeosac_1_1Tools_1_1IVisitable.html" target="_top" xlink:title="Base class to make an object visitable. ">
<polygon fill="white" stroke="black" points="0,-0.5 0,-19.5 125,-19.5 125,-0.5 0,-0.5"/>
<text text-anchor="middle" x="62.5" y="-7.5" font-family="Helvetica,sans-Serif" font-size="10.00">Leosac::Tools::IVisitable</text>
</a>
</g>
</g>
<!-- Node9&#45;&gt;Node8 -->
<g id="edge3" class="edge"><title>Node9&#45;&gt;Node8</title>
<path fill="none" stroke="midnightblue" d="M135.421,-10C145.847,-10 156.527,-10 166.8,-10"/>
<polygon fill="midnightblue" stroke="midnightblue" points="135.103,-6.5001 125.103,-10 135.103,-13.5001 135.103,-6.5001"/>
</g>
<!-- Node10&#45;&gt;Node6 -->
<g id="edge4" class="edge"><title>Node10&#45;&gt;Node6</title>
<path fill="none" stroke="midnightblue" d="M511.609,-71.3893C545.318,-64.5359 587.458,-55.9684 619.193,-49.5164"/>
<polygon fill="midnightblue" stroke="midnightblue" points="510.541,-68.0347 501.439,-73.4569 511.936,-74.8943 510.541,-68.0347"/>
</g>
<!-- Node14 -->
<g id="node9" class="node"><title>Node14</title>
<polygon fill="white" stroke="#bfbfbf" points="597,-81.5 597,-100.5 737,-100.5 737,-81.5 597,-81.5"/>
<text text-anchor="middle" x="667" y="-88.5" font-family="Helvetica,sans-Serif" font-size="10.00">std::weak_ptr&lt; AuditEntry &gt;</text>
</g>
<!-- Node10&#45;&gt;Node14 -->
<g id="edge10" class="edge"><title>Node10&#45;&gt;Node14</title>
<path fill="none" stroke="#9a32cd" stroke-dasharray="5,2" d="M527.868,-80.9583C544.677,-80.894 562.464,-81.147 579,-82 584.763,-82.2973 590.731,-82.7046 596.718,-83.1827"/>
<polygon fill="#9a32cd" stroke="#9a32cd" points="527.522,-77.4608 517.549,-81.0368 527.575,-84.4605 527.522,-77.4608"/>
<text text-anchor="middle" x="561" y="-85" font-family="Helvetica,sans-Serif" font-size="10.00"> ptr</text>
</g>
<!-- Node11 -->
<g id="node6" class="node"><title>Node11</title>
<polygon fill="white" stroke="#bfbfbf" points="169.5,-173 169.5,-203 295.5,-203 295.5,-173 169.5,-173"/>
<text text-anchor="start" x="177.5" y="-191" font-family="Helvetica,sans-Serif" font-size="10.00">std::enable_shared</text>
<text text-anchor="middle" x="232.5" y="-180" font-family="Helvetica,sans-Serif" font-size="10.00">_from_this&lt; AuditEntry &gt;</text>
</g>
<!-- Node11&#45;&gt;Node10 -->
<g id="edge6" class="edge"><title>Node11&#45;&gt;Node10</title>
<path fill="none" stroke="midnightblue" d="M286.455,-169.397C292.062,-167.294 297.662,-165.138 303,-163 330.522,-151.975 337.677,-149.642 364,-136 390.713,-122.156 420.479,-103.657 437.787,-92.5748"/>
<polygon fill="midnightblue" stroke="midnightblue" points="285.223,-166.121 277.057,-172.871 287.65,-172.686 285.223,-166.121"/>
</g>
<!-- Node12 -->
<g id="node7" class="node"><title>Node12</title>
<polygon fill="white" stroke="#bfbfbf" points="162.5,-134.5 162.5,-153.5 302.5,-153.5 302.5,-134.5 162.5,-134.5"/>
<text text-anchor="middle" x="232.5" y="-141.5" font-family="Helvetica,sans-Serif" font-size="10.00">std::vector&lt; AuditEntryPtr &gt;</text>
</g>
<!-- Node12&#45;&gt;Node10 -->
<g id="edge7" class="edge"><title>Node12&#45;&gt;Node10</title>
<path fill="none" stroke="#9a32cd" stroke-dasharray="5,2" d="M279.784,-131.872C304.766,-125.255 336.114,-116.835 364,-109 382.809,-103.716 403.79,-97.5631 420.601,-92.5699"/>
<polygon fill="#9a32cd" stroke="#9a32cd" points="278.62,-128.56 269.847,-134.499 280.409,-135.327 278.62,-128.56"/>
<text text-anchor="middle" x="342.5" y="-124" font-family="Helvetica,sans-Serif" font-size="10.00"> children_</text>
</g>
<!-- Node13 -->
<g id="node8" class="node"><title>Node13</title>
<g id="a_node8"><a xlink:href="../../dd/d95/classLeosac_1_1Tools_1_1ElapsedTimeCounter.html" target="_top" xlink:title="This class provide a simple to get the elapsed time since it&#39;s creation. ">
<polygon fill="white" stroke="black" points="162,-85 162,-115 303,-115 303,-85 162,-85"/>
<text text-anchor="start" x="170" y="-103" font-family="Helvetica,sans-Serif" font-size="10.00">Leosac::Tools::ElapsedTime</text>
<text text-anchor="middle" x="232.5" y="-92" font-family="Helvetica,sans-Serif" font-size="10.00">Counter</text>
</a>
</g>
</g>
<!-- Node13&#45;&gt;Node10 -->
<g id="edge8" class="edge"><title>Node13&#45;&gt;Node10</title>
<path fill="none" stroke="#9a32cd" stroke-dasharray="5,2" d="M313.308,-93.8049C338.364,-91.8599 365.664,-89.7407 389.397,-87.8984"/>
<polygon fill="#9a32cd" stroke="#9a32cd" points="312.793,-90.3342 303.094,-94.5977 313.335,-97.3132 312.793,-90.3342"/>
<text text-anchor="middle" x="342.5" y="-97" font-family="Helvetica,sans-Serif" font-size="10.00"> etc_</text>
</g>
<!-- Node14&#45;&gt;Node10 -->
<g id="edge9" class="edge"><title>Node14&#45;&gt;Node10</title>
<path fill="none" stroke="#9a32cd" stroke-dasharray="5,2" d="M586.285,-95.913C571.87,-96.1411 556.98,-95.9435 543,-95 534.492,-94.4258 525.554,-93.5444 516.765,-92.5144"/>
<polygon fill="#9a32cd" stroke="#9a32cd" points="586.761,-99.4031 596.678,-95.6762 586.601,-92.405 586.761,-99.4031"/>
<text text-anchor="middle" x="561" y="-99" font-family="Helvetica,sans-Serif" font-size="10.00"> parent_</text>
</g>
<!-- Node15 -->
<g id="node10" class="node"><title>Node15</title>
<g id="a_node10"><a xlink:title="STL class. ">
<polygon fill="white" stroke="#bfbfbf" points="202.5,-46.5 202.5,-65.5 262.5,-65.5 262.5,-46.5 202.5,-46.5"/>
<text text-anchor="middle" x="232.5" y="-53.5" font-family="Helvetica,sans-Serif" font-size="10.00">std::string</text>
</a>
</g>
</g>
<!-- Node15&#45;&gt;Node10 -->
<g id="edge11" class="edge"><title>Node15&#45;&gt;Node10</title>
<path fill="none" stroke="#9a32cd" stroke-dasharray="5,2" d="M272.549,-60.8142C304.879,-64.8002 351.45,-70.5418 389.115,-75.1854"/>
<polygon fill="#9a32cd" stroke="#9a32cd" points="272.935,-57.3354 262.582,-59.5854 272.078,-64.2828 272.935,-57.3354"/>
<text text-anchor="middle" x="342.5" y="-75" font-family="Helvetica,sans-Serif" font-size="10.00"> msg_</text>
</g>
<!-- Node16 -->
<g id="node11" class="node"><title>Node16</title>
<g id="a_node11"><a xlink:title="STL class. ">
<polygon fill="white" stroke="#bfbfbf" points="15,-41 15,-71 110,-71 110,-41 15,-41"/>
<text text-anchor="start" x="23" y="-59" font-family="Helvetica,sans-Serif" font-size="10.00">std::basic_string&lt;</text>
<text text-anchor="middle" x="62.5" y="-48" font-family="Helvetica,sans-Serif" font-size="10.00"> char &gt;</text>
</a>
</g>
</g>
<!-- Node16&#45;&gt;Node15 -->
<g id="edge12" class="edge"><title>Node16&#45;&gt;Node15</title>
<path fill="none" stroke="midnightblue" d="M120.595,-56C148.087,-56 179.879,-56 202.357,-56"/>
<polygon fill="midnightblue" stroke="midnightblue" points="120.297,-52.5001 110.297,-56 120.297,-59.5001 120.297,-52.5001"/>
</g>
</g>
</svg>
