<?xml version="1.0" encoding="UTF-8" standalone="no"?>
<!DOCTYPE svg PUBLIC "-//W3C//DTD SVG 1.1//EN"
 "http://www.w3.org/Graphics/SVG/1.1/DTD/svg11.dtd">
<!-- Generated by graphviz version 2.38.0 (20140413.2041)
 -->
<!-- Title: Leosac::Module::SysFsGpio::SysFsGpioPin Pages: 1 -->
<!--zoomable 313 -->
<svg id="main" version="1.1" xmlns="http://www.w3.org/2000/svg" xmlns:xlink="http://www.w3.org/1999/xlink" xml:space="preserve" onload="init(evt)">
<style type="text/css"><![CDATA[
.edge:hover path { stroke: red; }
.edge:hover polygon { stroke: red; fill: red; }
]]></style>
<script type="text/javascript"><![CDATA[
var edges = document.getElementsByTagName('g');
if (edges && edges.length) {
  for (var i=0;i<edges.length;i++) {
    if (edges[i].id.substr(0,4)=='edge') {
      edges[i].setAttribute('class','edge');
    }
  }
}
]]></script>
        <defs>
                <circle id="rim" cx="0" cy="0" r="7"/>
                <circle id="rim2" cx="0" cy="0" r="3.5"/>
                <g id="zoomPlus">
                        <use xlink:href="#rim" fill="#404040">
                                <set attributeName="fill" to="#808080" begin="zoomplus.mouseover" end="zoomplus.mouseout"/>
                        </use>
                        <path d="M-4,0h8M0,-4v8" fill="none" stroke="white" stroke-width="1.5" pointer-events="none"/>
                </g>
                <g id="zoomMin">
                        <use xlink:href="#rim" fill="#404040">
                                <set attributeName="fill" to="#808080" begin="zoomminus.mouseover" end="zoomminus.mouseout"/>
                        </use>
                        <path d="M-4,0h8" fill="none" stroke="white" stroke-width="1.5" pointer-events="none"/>
                </g>
                <g id="dirArrow">
                        <path fill="none" stroke="white" stroke-width="1.5" d="M0,-3.0v7 M-2.5,-0.5L0,-3.0L2.5,-0.5"/>
                </g>
               <g id="resetDef">
                       <use xlink:href="#rim2" fill="#404040">
                               <set attributeName="fill" to="#808080" begin="reset.mouseover" end="reset.mouseout"/>
                       </use>
               </g>
        </defs>

<script type="text/javascript">
var viewWidth = 1293;
var viewHeight = 313;
var sectionId = 'dynsection-0';
</script>
<script xlink:href="../../svgpan.js"/>
<svg id="graph" class="graph">
<g id="viewport">
<title>Leosac::Module::SysFsGpio::SysFsGpioPin</title>
<polygon fill="white" stroke="none" points="-4,4 -4,-308.5 1289,-308.5 1289,4 -4,4"/>
<!-- Node1 -->
<g id="node1" class="node"><title>Node1</title>
<polygon fill="#bfbfbf" stroke="black" points="733,-161.5 733,-191.5 873,-191.5 873,-161.5 733,-161.5"/>
<text text-anchor="start" x="741" y="-179.5" font-family="Helvetica,sans-Serif" font-size="10.00">Leosac::Module::SysFsGpio</text>
<text text-anchor="middle" x="803" y="-168.5" font-family="Helvetica,sans-Serif" font-size="10.00">::SysFsGpioPin</text>
</g>
<!-- Node9 -->
<g id="node9" class="node"><title>Node9</title>
<polygon fill="white" stroke="#bfbfbf" points="968,-189 968,-230 1077,-230 1077,-189 968,-189"/>
<text text-anchor="start" x="976" y="-218" font-family="Helvetica,sans-Serif" font-size="10.00">std::vector&lt; Leosac</text>
<text text-anchor="start" x="976" y="-207" font-family="Helvetica,sans-Serif" font-size="10.00">::Module::SysFsGpio</text>
<text text-anchor="middle" x="1022.5" y="-196" font-family="Helvetica,sans-Serif" font-size="10.00">::SysFsGpioPin *&gt;</text>
</g>
<!-- Node1&#45;&gt;Node9 -->
<g id="edge13" class="edge"><title>Node1&#45;&gt;Node9</title>
<path fill="none" stroke="#9a32cd" stroke-dasharray="5,2" d="M883.316,-188.534C911.389,-192.794 942.292,-197.482 967.741,-201.344"/>
<polygon fill="#9a32cd" stroke="#9a32cd" points="883.529,-185.027 873.117,-186.987 882.479,-191.947 883.529,-185.027"/>
<text text-anchor="middle" x="920.5" y="-201.5" font-family="Helvetica,sans-Serif" font-size="10.00"> elements</text>
</g>
<!-- Node2 -->
<g id="node2" class="node"><title>Node2</title>
<g id="a_node2"><a xlink:href="../../d1/d1a/classLeosac_1_1Module_1_1SysFsGpio_1_1SysFsGpioConfig.html" target="_top" xlink:title="Internal configuration helper for sysfsgpio module. ">
<polygon fill="white" stroke="black" points="511,-59.5 511,-89.5 651,-89.5 651,-59.5 511,-59.5"/>
<text text-anchor="start" x="519" y="-77.5" font-family="Helvetica,sans-Serif" font-size="10.00">Leosac::Module::SysFsGpio</text>
<text text-anchor="middle" x="581" y="-66.5" font-family="Helvetica,sans-Serif" font-size="10.00">::SysFsGpioConfig</text>
</a>
</g>
</g>
<!-- Node2&#45;&gt;Node1 -->
<g id="edge1" class="edge"><title>Node2&#45;&gt;Node1</title>
<path fill="none" stroke="#9a32cd" stroke-dasharray="5,2" d="M623.661,-93.8156C665.989,-113.44 730.675,-143.431 769.405,-161.388"/>
<polygon fill="#9a32cd" stroke="#9a32cd" points="625.006,-90.5815 614.462,-89.5505 622.062,-96.9321 625.006,-90.5815"/>
<text text-anchor="middle" x="692" y="-138.5" font-family="Helvetica,sans-Serif" font-size="10.00"> path_cfg_</text>
</g>
<!-- Node6 -->
<g id="node6" class="node"><title>Node6</title>
<g id="a_node6"><a xlink:href="../../d8/de0/classLeosac_1_1Module_1_1SysFsGpio_1_1SysFsGpioModule.html" target="_top" xlink:title="Handle GPIO management over sysfs. ">
<polygon fill="white" stroke="black" points="1145,-165.5 1145,-195.5 1285,-195.5 1285,-165.5 1145,-165.5"/>
<text text-anchor="start" x="1153" y="-183.5" font-family="Helvetica,sans-Serif" font-size="10.00">Leosac::Module::SysFsGpio</text>
<text text-anchor="middle" x="1215" y="-172.5" font-family="Helvetica,sans-Serif" font-size="10.00">::SysFsGpioModule</text>
</a>
</g>
</g>
<!-- Node2&#45;&gt;Node6 -->
<g id="edge11" class="edge"><title>Node2&#45;&gt;Node6</title>
<path fill="none" stroke="#9a32cd" stroke-dasharray="5,2" d="M661.264,-87.6C767.361,-105.166 961.396,-137.398 1127,-165.5 1132.74,-166.474 1138.7,-167.49 1144.67,-168.513"/>
<polygon fill="#9a32cd" stroke="#9a32cd" points="661.713,-84.1267 651.275,-85.9466 660.569,-91.0327 661.713,-84.1267"/>
<text text-anchor="middle" x="920.5" y="-138.5" font-family="Helvetica,sans-Serif" font-size="10.00"> general_cfg_</text>
</g>
<!-- Node3 -->
<g id="node3" class="node"><title>Node3</title>
<g id="a_node3"><a xlink:title="STL class. ">
<polygon fill="white" stroke="#bfbfbf" points="132,-138 132,-157 192,-157 192,-138 132,-138"/>
<text text-anchor="middle" x="162" y="-145" font-family="Helvetica,sans-Serif" font-size="10.00">std::string</text>
</a>
</g>
</g>
<!-- Node3&#45;&gt;Node1 -->
<g id="edge6" class="edge"><title>Node3&#45;&gt;Node1</title>
<path fill="none" stroke="#9a32cd" stroke-dasharray="5,2" d="M181.847,-163.536C202.27,-179.768 236.574,-203.814 271,-213.5 441.13,-261.369 653.42,-217.065 749.926,-191.591"/>
<polygon fill="#9a32cd" stroke="#9a32cd" points="183.945,-160.731 173.984,-157.122 179.521,-166.155 183.945,-160.731"/>
<text text-anchor="middle" x="464" y="-238.5" font-family="Helvetica,sans-Serif" font-size="10.00"> name_</text>
</g>
<!-- Node3&#45;&gt;Node2 -->
<g id="edge2" class="edge"><title>Node3&#45;&gt;Node2</title>
<path fill="none" stroke="#9a32cd" stroke-dasharray="5,2" d="M181.891,-131.619C202.352,-115.515 236.686,-91.5755 271,-81.5 350.803,-58.0676 447.247,-60.4442 510.925,-65.9669"/>
<polygon fill="#9a32cd" stroke="#9a32cd" points="179.596,-128.973 174.013,-137.977 183.993,-134.421 179.596,-128.973"/>
<text text-anchor="start" x="302.5" y="-205.5" font-family="Helvetica,sans-Serif" font-size="10.00"> cfg_direction_path</text>
<text text-anchor="middle" x="344" y="-194.5" font-family="Helvetica,sans-Serif" font-size="10.00">_</text>
<text text-anchor="start" x="302.5" y="-183.5" font-family="Helvetica,sans-Serif" font-size="10.00">default_aliases</text>
<text text-anchor="middle" x="344" y="-172.5" font-family="Helvetica,sans-Serif" font-size="10.00">_</text>
<text text-anchor="start" x="302.5" y="-161.5" font-family="Helvetica,sans-Serif" font-size="10.00">cfg_edge_path</text>
<text text-anchor="middle" x="344" y="-150.5" font-family="Helvetica,sans-Serif" font-size="10.00">_</text>
<text text-anchor="start" x="302.5" y="-139.5" font-family="Helvetica,sans-Serif" font-size="10.00">cfg_unexport</text>
<text text-anchor="middle" x="344" y="-128.5" font-family="Helvetica,sans-Serif" font-size="10.00">_path_</text>
<text text-anchor="start" x="302.5" y="-117.5" font-family="Helvetica,sans-Serif" font-size="10.00">cfg_value_path</text>
<text text-anchor="middle" x="344" y="-106.5" font-family="Helvetica,sans-Serif" font-size="10.00">_</text>
<text text-anchor="start" x="302.5" y="-95.5" font-family="Helvetica,sans-Serif" font-size="10.00">cfg_export</text>
<text text-anchor="middle" x="344" y="-84.5" font-family="Helvetica,sans-Serif" font-size="10.00">_path_</text>
</g>
<!-- Node5 -->
<g id="node5" class="node"><title>Node5</title>
<polygon fill="white" stroke="#bfbfbf" points="297,-0.5 297,-30.5 391,-30.5 391,-0.5 297,-0.5"/>
<text text-anchor="start" x="305" y="-18.5" font-family="Helvetica,sans-Serif" font-size="10.00">std::map&lt; int, std</text>
<text text-anchor="middle" x="344" y="-7.5" font-family="Helvetica,sans-Serif" font-size="10.00">::string &gt;</text>
</g>
<!-- Node3&#45;&gt;Node5 -->
<g id="edge5" class="edge"><title>Node3&#45;&gt;Node5</title>
<path fill="none" stroke="#9a32cd" stroke-dasharray="5,2" d="M166.216,-127.852C171.214,-103.892 183.216,-63.9434 210,-42.5 234.279,-23.0626 268.881,-16.4915 296.705,-14.6862"/>
<polygon fill="#9a32cd" stroke="#9a32cd" points="162.736,-127.423 164.338,-137.896 169.617,-128.71 162.736,-127.423"/>
<text text-anchor="middle" x="231.5" y="-45.5" font-family="Helvetica,sans-Serif" font-size="10.00"> elements</text>
</g>
<!-- Node7 -->
<g id="node7" class="node"><title>Node7</title>
<g id="a_node7"><a xlink:href="../../df/d9f/classLeosac_1_1Module_1_1BaseModule.html" target="_top" xlink:title="Base class for module implementation. ">
<polygon fill="white" stroke="black" points="271,-256 271,-275 417,-275 417,-256 271,-256"/>
<text text-anchor="middle" x="344" y="-263" font-family="Helvetica,sans-Serif" font-size="10.00">Leosac::Module::BaseModule</text>
</a>
</g>
</g>
<!-- Node3&#45;&gt;Node7 -->
<g id="edge9" class="edge"><title>Node3&#45;&gt;Node7</title>
<path fill="none" stroke="#9a32cd" stroke-dasharray="5,2" d="M167.699,-167.038C173.803,-188.04 186.564,-220.789 210,-238.5 227.387,-251.64 249.574,-258.81 270.821,-262.608"/>
<polygon fill="#9a32cd" stroke="#9a32cd" points="171.052,-166.027 165.092,-157.268 164.288,-167.832 171.052,-166.027"/>
<text text-anchor="middle" x="231.5" y="-261.5" font-family="Helvetica,sans-Serif" font-size="10.00"> name_</text>
</g>
<!-- Node4 -->
<g id="node4" class="node"><title>Node4</title>
<g id="a_node4"><a xlink:title="STL class. ">
<polygon fill="white" stroke="#bfbfbf" points="0,-132.5 0,-162.5 95,-162.5 95,-132.5 0,-132.5"/>
<text text-anchor="start" x="8" y="-150.5" font-family="Helvetica,sans-Serif" font-size="10.00">std::basic_string&lt;</text>
<text text-anchor="middle" x="47.5" y="-139.5" font-family="Helvetica,sans-Serif" font-size="10.00"> char &gt;</text>
</a>
</g>
</g>
<!-- Node4&#45;&gt;Node3 -->
<g id="edge3" class="edge"><title>Node4&#45;&gt;Node3</title>
<path fill="none" stroke="midnightblue" d="M105.526,-147.5C114.678,-147.5 123.803,-147.5 131.931,-147.5"/>
<polygon fill="midnightblue" stroke="midnightblue" points="105.233,-144 95.2328,-147.5 105.233,-151 105.233,-144"/>
</g>
<!-- Node5&#45;&gt;Node2 -->
<g id="edge4" class="edge"><title>Node5&#45;&gt;Node2</title>
<path fill="none" stroke="#9a32cd" stroke-dasharray="5,2" d="M401.102,-23.4016C428.986,-27.9174 463.041,-34.323 493,-42.5 509.768,-47.0766 527.872,-53.487 543.2,-59.3694"/>
<polygon fill="#9a32cd" stroke="#9a32cd" points="401.551,-19.9292 391.127,-21.8236 400.457,-26.8432 401.551,-19.9292"/>
<text text-anchor="middle" x="464" y="-45.5" font-family="Helvetica,sans-Serif" font-size="10.00"> pin_aliases_</text>
</g>
<!-- Node6&#45;&gt;Node1 -->
<g id="edge7" class="edge"><title>Node6&#45;&gt;Node1</title>
<path fill="none" stroke="#9a32cd" stroke-dasharray="5,2" d="M1134.68,-172.368C1115.8,-170.76 1095.7,-169.318 1077,-168.5 1007.6,-165.466 928.228,-168.525 873.023,-171.696"/>
<polygon fill="#9a32cd" stroke="#9a32cd" points="1134.47,-175.862 1144.73,-173.248 1135.08,-168.889 1134.47,-175.862"/>
<text text-anchor="middle" x="1022.5" y="-171.5" font-family="Helvetica,sans-Serif" font-size="10.00"> module_</text>
</g>
<!-- Node7&#45;&gt;Node6 -->
<g id="edge8" class="edge"><title>Node7&#45;&gt;Node6</title>
<path fill="none" stroke="midnightblue" d="M427.278,-265.5C472.377,-265.5 529.269,-265.5 580,-265.5 580,-265.5 580,-265.5 1023.5,-265.5 1091.4,-265.5 1162.03,-219.902 1194.97,-195.501"/>
<polygon fill="midnightblue" stroke="midnightblue" points="427.256,-262 417.256,-265.5 427.256,-269 427.256,-262"/>
</g>
<!-- Node8 -->
<g id="node8" class="node"><title>Node8</title>
<polygon fill="white" stroke="#bfbfbf" points="143,-285 143,-304 181,-304 181,-285 143,-285"/>
<text text-anchor="middle" x="162" y="-292" font-family="Helvetica,sans-Serif" font-size="10.00">ptree</text>
</g>
<!-- Node8&#45;&gt;Node7 -->
<g id="edge10" class="edge"><title>Node8&#45;&gt;Node7</title>
<path fill="none" stroke="#9a32cd" stroke-dasharray="5,2" d="M191.374,-289.929C216.068,-285.95 252.671,-280.053 283.727,-275.05"/>
<polygon fill="#9a32cd" stroke="#9a32cd" points="190.566,-286.514 181.25,-291.56 191.679,-293.424 190.566,-286.514"/>
<text text-anchor="middle" x="231.5" y="-289.5" font-family="Helvetica,sans-Serif" font-size="10.00"> config_</text>
</g>
<!-- Node9&#45;&gt;Node6 -->
<g id="edge12" class="edge"><title>Node9&#45;&gt;Node6</title>
<path fill="none" stroke="#9a32cd" stroke-dasharray="5,2" d="M1087.15,-199.81C1105.66,-196.992 1125.97,-193.901 1144.81,-191.033"/>
<polygon fill="#9a32cd" stroke="#9a32cd" points="1086.43,-196.38 1077.07,-201.345 1087.48,-203.3 1086.43,-196.38"/>
<text text-anchor="middle" x="1111" y="-201.5" font-family="Helvetica,sans-Serif" font-size="10.00"> gpios_</text>
</g>
</g>
</svg>
        <g id="navigator" transform="translate(0 0)" fill="#404254">
                <rect fill="#f2f5e9" fill-opacity="0.5" stroke="#606060" stroke-width=".5" x="0" y="0" width="60" height="60"/>
                <use id="zoomplus" xlink:href="#zoomPlus" x="17" y="9" onmousedown="handleZoom(evt,'in')"/>
                <use id="zoomminus" xlink:href="#zoomMin" x="42" y="9" onmousedown="handleZoom(evt,'out')"/>
                <use id="reset" xlink:href="#resetDef" x="30" y="36" onmousedown="handleReset()"/>
                <g id="arrowUp" xlink:href="#dirArrow" transform="translate(30 24)" onmousedown="handlePan(0,-1)">
                  <use xlink:href="#rim" fill="#404040">
                        <set attributeName="fill" to="#808080" begin="arrowUp.mouseover" end="arrowUp.mouseout"/>
                  </use>
                  <path fill="none" stroke="white" stroke-width="1.5" d="M0,-3.0v7 M-2.5,-0.5L0,-3.0L2.5,-0.5"/>
                </g>
                <g id="arrowRight" xlink:href="#dirArrow" transform="rotate(90) translate(36 -43)" onmousedown="handlePan(1,0)">
                  <use xlink:href="#rim" fill="#404040">
                        <set attributeName="fill" to="#808080" begin="arrowRight.mouseover" end="arrowRight.mouseout"/>
                  </use>
                  <path fill="none" stroke="white" stroke-width="1.5" d="M0,-3.0v7 M-2.5,-0.5L0,-3.0L2.5,-0.5"/>
                </g>
                <g id="arrowDown" xlink:href="#dirArrow" transform="rotate(180) translate(-30 -48)" onmousedown="handlePan(0,1)">
                  <use xlink:href="#rim" fill="#404040">
                        <set attributeName="fill" to="#808080" begin="arrowDown.mouseover" end="arrowDown.mouseout"/>
                  </use>
                  <path fill="none" stroke="white" stroke-width="1.5" d="M0,-3.0v7 M-2.5,-0.5L0,-3.0L2.5,-0.5"/>
                </g>
                <g id="arrowLeft" xlink:href="#dirArrow" transform="rotate(270) translate(-36 17)" onmousedown="handlePan(-1,0)">
                  <use xlink:href="#rim" fill="#404040">
                        <set attributeName="fill" to="#808080" begin="arrowLeft.mouseover" end="arrowLeft.mouseout"/>
                  </use>
                  <path fill="none" stroke="white" stroke-width="1.5" d="M0,-3.0v7 M-2.5,-0.5L0,-3.0L2.5,-0.5"/>
                </g>
        </g>
        <svg viewBox="0 0 15 15" width="100%" height="30px" preserveAspectRatio="xMaxYMin meet">
         <g id="arrow_out" transform="scale(0.3 0.3)">
          <a xlink:href="classLeosac_1_1Module_1_1SysFsGpio_1_1SysFsGpioPin__coll__graph_org.svg" target="_base">
           <rect id="button" ry="5" rx="5" y="6" x="6" height="38" width="38"
                fill="#f2f5e9" fill-opacity="0.5" stroke="#606060" stroke-width="1.0"/>
           <path id="arrow"
             d="M 11.500037,31.436501 C 11.940474,20.09759 22.043105,11.32322 32.158766,21.979434 L 37.068811,17.246167 C 37.068811,17.246167 37.088388,32 37.088388,32 L 22.160133,31.978069 C 22.160133,31.978069 26.997745,27.140456 26.997745,27.140456 C 18.528582,18.264221 13.291696,25.230495 11.500037,31.436501 z"
             style="fill:#404040;"/>
          </a>
         </g>
        </svg>
</svg>
