<?xml version="1.0" encoding="UTF-8" standalone="no"?>
<!DOCTYPE svg PUBLIC "-//W3C//DTD SVG 1.1//EN"
 "http://www.w3.org/Graphics/SVG/1.1/DTD/svg11.dtd">
<!-- Generated by graphviz version 2.38.0 (20140413.2041)
 -->
<!-- Title: src/modules/wiegand/strategies/WiegandStrategy.hpp Pages: 1 -->
<svg width="540pt" height="207pt"
 viewBox="0.00 0.00 540.00 207.00" xmlns="http://www.w3.org/2000/svg" xmlns:xlink="http://www.w3.org/1999/xlink">
<g id="graph0" class="graph" transform="scale(1 1) rotate(0) translate(4 203)">
<title>src/modules/wiegand/strategies/WiegandStrategy.hpp</title>
<polygon fill="white" stroke="none" points="-4,4 -4,-203 536,-203 536,4 -4,4"/>
<!-- Node0 -->
<g id="node1" class="node"><title>Node0</title>
<polygon fill="#bfbfbf" stroke="black" points="290,-168.5 290,-198.5 449,-198.5 449,-168.5 290,-168.5"/>
<text text-anchor="start" x="298" y="-186.5" font-family="Helvetica,sans-Serif" font-size="10.00">src/modules/wiegand</text>
<text text-anchor="middle" x="369.5" y="-175.5" font-family="Helvetica,sans-Serif" font-size="10.00">/strategies/WiegandStrategy.hpp</text>
</g>
<!-- Node1 -->
<g id="node2" class="node"><title>Node1</title>
<g id="a_node2"><a xlink:href="../../dc/d74/Auth_8hpp.html" target="_top" xlink:title="core/auth/Auth.hpp">
<polygon fill="white" stroke="black" points="98,-112.5 98,-131.5 197,-131.5 197,-112.5 98,-112.5"/>
<text text-anchor="middle" x="147.5" y="-119.5" font-family="Helvetica,sans-Serif" font-size="10.00">core/auth/Auth.hpp</text>
</a>
</g>
</g>
<!-- Node0&#45;&gt;Node1 -->
<g id="edge1" class="edge"><title>Node0&#45;&gt;Node1</title>
<path fill="none" stroke="midnightblue" d="M317.17,-168.475C278.034,-157.986 225.244,-143.837 188.998,-134.122"/>
<polygon fill="midnightblue" stroke="midnightblue" points="189.803,-130.715 179.238,-131.506 187.991,-137.476 189.803,-130.715"/>
</g>
<!-- Node7 -->
<g id="node8" class="node"><title>Node7</title>
<polygon fill="white" stroke="#bfbfbf" points="215,-112.5 215,-131.5 312,-131.5 312,-112.5 215,-112.5"/>
<text text-anchor="middle" x="263.5" y="-119.5" font-family="Helvetica,sans-Serif" font-size="10.00">zmqpp/zmqpp.hpp</text>
</g>
<!-- Node0&#45;&gt;Node7 -->
<g id="edge7" class="edge"><title>Node0&#45;&gt;Node7</title>
<path fill="none" stroke="midnightblue" d="M344.379,-168.399C327.23,-158.773 304.635,-146.09 287.688,-136.577"/>
<polygon fill="midnightblue" stroke="midnightblue" points="289.357,-133.501 278.924,-131.658 285.931,-139.605 289.357,-133.501"/>
</g>
<!-- Node8 -->
<g id="node9" class="node"><title>Node8</title>
<polygon fill="white" stroke="#bfbfbf" points="330.5,-112.5 330.5,-131.5 408.5,-131.5 408.5,-112.5 330.5,-112.5"/>
<text text-anchor="middle" x="369.5" y="-119.5" font-family="Helvetica,sans-Serif" font-size="10.00">boost/any.hpp</text>
</g>
<!-- Node0&#45;&gt;Node8 -->
<g id="edge8" class="edge"><title>Node0&#45;&gt;Node8</title>
<path fill="none" stroke="midnightblue" d="M369.5,-168.399C369.5,-160.466 369.5,-150.458 369.5,-141.858"/>
<polygon fill="midnightblue" stroke="midnightblue" points="373,-141.658 369.5,-131.658 366,-141.658 373,-141.658"/>
</g>
<!-- Node9 -->
<g id="node10" class="node"><title>Node9</title>
<polygon fill="white" stroke="#bfbfbf" points="426.5,-112.5 426.5,-131.5 472.5,-131.5 472.5,-112.5 426.5,-112.5"/>
<text text-anchor="middle" x="449.5" y="-119.5" font-family="Helvetica,sans-Serif" font-size="10.00">chrono</text>
</g>
<!-- Node0&#45;&gt;Node9 -->
<g id="edge9" class="edge"><title>Node0&#45;&gt;Node9</title>
<path fill="none" stroke="midnightblue" d="M388.459,-168.399C400.923,-159.129 417.197,-147.025 429.807,-137.647"/>
<polygon fill="midnightblue" stroke="midnightblue" points="431.924,-140.434 437.859,-131.658 427.747,-134.817 431.924,-140.434"/>
</g>
<!-- Node10 -->
<g id="node11" class="node"><title>Node10</title>
<polygon fill="white" stroke="#bfbfbf" points="491,-112.5 491,-131.5 532,-131.5 532,-112.5 491,-112.5"/>
<text text-anchor="middle" x="511.5" y="-119.5" font-family="Helvetica,sans-Serif" font-size="10.00">string</text>
</g>
<!-- Node0&#45;&gt;Node10 -->
<g id="edge10" class="edge"><title>Node0&#45;&gt;Node10</title>
<path fill="none" stroke="midnightblue" d="M403.152,-168.399C426.977,-158.416 458.646,-145.147 481.588,-135.534"/>
<polygon fill="midnightblue" stroke="midnightblue" points="482.967,-138.751 490.838,-131.658 480.262,-132.294 482.967,-138.751"/>
</g>
<!-- Node2 -->
<g id="node3" class="node"><title>Node2</title>
<g id="a_node3"><a xlink:href="../../d3/d6f/AuthFwd_8hpp.html" target="_top" xlink:title="AuthFwd.hpp">
<polygon fill="white" stroke="black" points="56.5,-56.5 56.5,-75.5 130.5,-75.5 130.5,-56.5 56.5,-56.5"/>
<text text-anchor="middle" x="93.5" y="-63.5" font-family="Helvetica,sans-Serif" font-size="10.00">AuthFwd.hpp</text>
</a>
</g>
</g>
<!-- Node1&#45;&gt;Node2 -->
<g id="edge2" class="edge"><title>Node1&#45;&gt;Node2</title>
<path fill="none" stroke="midnightblue" d="M138.583,-112.083C130.72,-104.22 119.069,-92.5688 109.581,-83.0813"/>
<polygon fill="midnightblue" stroke="midnightblue" points="111.797,-80.3473 102.251,-75.7511 106.847,-85.2971 111.797,-80.3473"/>
</g>
<!-- Node6 -->
<g id="node7" class="node"><title>Node6</title>
<polygon fill="white" stroke="#bfbfbf" points="149,-56.5 149,-75.5 256,-75.5 256,-56.5 149,-56.5"/>
<text text-anchor="middle" x="202.5" y="-63.5" font-family="Helvetica,sans-Serif" font-size="10.00">zmqpp/message.hpp</text>
</g>
<!-- Node1&#45;&gt;Node6 -->
<g id="edge6" class="edge"><title>Node1&#45;&gt;Node6</title>
<path fill="none" stroke="midnightblue" d="M156.582,-112.083C164.671,-104.141 176.695,-92.3354 186.41,-82.7973"/>
<polygon fill="midnightblue" stroke="midnightblue" points="188.903,-85.2545 193.587,-75.7511 183.999,-80.2595 188.903,-85.2545"/>
</g>
<!-- Node3 -->
<g id="node4" class="node"><title>Node3</title>
<polygon fill="white" stroke="#bfbfbf" points="0,-0.5 0,-19.5 49,-19.5 49,-0.5 0,-0.5"/>
<text text-anchor="middle" x="24.5" y="-7.5" font-family="Helvetica,sans-Serif" font-size="10.00">cstddef</text>
</g>
<!-- Node2&#45;&gt;Node3 -->
<g id="edge3" class="edge"><title>Node2&#45;&gt;Node3</title>
<path fill="none" stroke="midnightblue" d="M82.414,-56.324C72.014,-48.1849 56.2394,-35.8395 43.7784,-26.0874"/>
<polygon fill="midnightblue" stroke="midnightblue" points="45.8199,-23.2407 35.7878,-19.8339 41.5057,-28.7533 45.8199,-23.2407"/>
</g>
<!-- Node4 -->
<g id="node5" class="node"><title>Node4</title>
<polygon fill="white" stroke="#bfbfbf" points="67.5,-0.5 67.5,-19.5 119.5,-19.5 119.5,-0.5 67.5,-0.5"/>
<text text-anchor="middle" x="93.5" y="-7.5" font-family="Helvetica,sans-Serif" font-size="10.00">memory</text>
</g>
<!-- Node2&#45;&gt;Node4 -->
<g id="edge4" class="edge"><title>Node2&#45;&gt;Node4</title>
<path fill="none" stroke="midnightblue" d="M93.5,-56.083C93.5,-49.0059 93.5,-38.8611 93.5,-29.9865"/>
<polygon fill="midnightblue" stroke="midnightblue" points="97.0001,-29.751 93.5,-19.7511 90.0001,-29.7511 97.0001,-29.751"/>
</g>
<!-- Node5 -->
<g id="node6" class="node"><title>Node5</title>
<polygon fill="white" stroke="#bfbfbf" points="137.5,-0.5 137.5,-19.5 223.5,-19.5 223.5,-0.5 137.5,-0.5"/>
<text text-anchor="middle" x="180.5" y="-7.5" font-family="Helvetica,sans-Serif" font-size="10.00">odb/lazy&#45;ptr.hxx</text>
</g>
<!-- Node2&#45;&gt;Node5 -->
<g id="edge5" class="edge"><title>Node2&#45;&gt;Node5</title>
<path fill="none" stroke="midnightblue" d="M107.478,-56.324C121.05,-47.9002 141.88,-34.9709 157.825,-25.0741"/>
<polygon fill="midnightblue" stroke="midnightblue" points="159.906,-27.9019 166.557,-19.6545 156.214,-21.9544 159.906,-27.9019"/>
</g>
</g>
</svg>
