<?xml version="1.0" encoding="UTF-8" standalone="no"?>
<!DOCTYPE svg PUBLIC "-//W3C//DTD SVG 1.1//EN"
 "http://www.w3.org/Graphics/SVG/1.1/DTD/svg11.dtd">
<!-- Generated by graphviz version 2.38.0 (20140413.2041)
 -->
<!-- Title: Leosac::Audit::CredentialEvent Pages: 1 -->
<svg width="285pt" height="229pt"
 viewBox="0.00 0.00 284.50 229.00" xmlns="http://www.w3.org/2000/svg" xmlns:xlink="http://www.w3.org/1999/xlink">
<g id="graph0" class="graph" transform="scale(1 1) rotate(0) translate(4 225)">
<title>Leosac::Audit::CredentialEvent</title>
<polygon fill="white" stroke="none" points="-4,4 -4,-225 280.5,-225 280.5,4 -4,4"/>
<!-- Node0 -->
<g id="node1" class="node"><title>Node0</title>
<polygon fill="#bfbfbf" stroke="black" points="73.5,-0.5 73.5,-30.5 200.5,-30.5 200.5,-0.5 73.5,-0.5"/>
<text text-anchor="start" x="81.5" y="-18.5" font-family="Helvetica,sans-Serif" font-size="10.00">Leosac::Audit::Credential</text>
<text text-anchor="middle" x="137" y="-7.5" font-family="Helvetica,sans-Serif" font-size="10.00">Event</text>
</g>
<!-- Node1 -->
<g id="node2" class="node"><title>Node1</title>
<g id="a_node2"><a xlink:href="../../d0/d87/classLeosac_1_1Audit_1_1ICredentialEvent.html" target="_top" xlink:title="Audit interface to Credential related events. ">
<polygon fill="white" stroke="black" points="146,-67.5 146,-97.5 276,-97.5 276,-67.5 146,-67.5"/>
<text text-anchor="start" x="154" y="-85.5" font-family="Helvetica,sans-Serif" font-size="10.00">Leosac::Audit::ICredential</text>
<text text-anchor="middle" x="211" y="-74.5" font-family="Helvetica,sans-Serif" font-size="10.00">Event</text>
</a>
</g>
</g>
<!-- Node1&#45;&gt;Node0 -->
<g id="edge1" class="edge"><title>Node1&#45;&gt;Node0</title>
<path fill="none" stroke="midnightblue" d="M187.204,-60.5978C176.03,-50.7831 163.007,-39.3442 153.026,-30.5765"/>
<polygon fill="midnightblue" stroke="midnightblue" points="185.12,-63.4261 194.943,-67.396 189.74,-58.1669 185.12,-63.4261"/>
</g>
<!-- Node2 -->
<g id="node3" class="node"><title>Node2</title>
<g id="a_node3"><a xlink:href="../../d1/d44/classLeosac_1_1Audit_1_1IAuditEntry.html" target="_top" xlink:title="Base interface to Audit object. ">
<polygon fill="white" stroke="black" points="145.5,-140 145.5,-159 276.5,-159 276.5,-140 145.5,-140"/>
<text text-anchor="middle" x="211" y="-147" font-family="Helvetica,sans-Serif" font-size="10.00">Leosac::Audit::IAuditEntry</text>
</a>
</g>
</g>
<!-- Node2&#45;&gt;Node1 -->
<g id="edge2" class="edge"><title>Node2&#45;&gt;Node1</title>
<path fill="none" stroke="midnightblue" d="M211,-129.411C211,-119.222 211,-106.901 211,-97.589"/>
<polygon fill="midnightblue" stroke="midnightblue" points="207.5,-129.734 211,-139.734 214.5,-129.734 207.5,-129.734"/>
</g>
<!-- Node4 -->
<g id="node5" class="node"><title>Node4</title>
<g id="a_node5"><a xlink:href="../../d0/d20/classLeosac_1_1Audit_1_1AuditEntry.html" target="_top" xlink:title="Implementation of IAuditEntry, backed by ODB. ">
<polygon fill="white" stroke="black" points="0,-73 0,-92 128,-92 128,-73 0,-73"/>
<text text-anchor="middle" x="64" y="-80" font-family="Helvetica,sans-Serif" font-size="10.00">Leosac::Audit::AuditEntry</text>
</a>
</g>
</g>
<!-- Node2&#45;&gt;Node4 -->
<g id="edge5" class="edge"><title>Node2&#45;&gt;Node4</title>
<path fill="none" stroke="midnightblue" d="M182.235,-135.781C153.124,-122.909 108.902,-103.355 83.6012,-92.1672"/>
<polygon fill="midnightblue" stroke="midnightblue" points="180.918,-139.025 191.48,-139.869 183.749,-132.623 180.918,-139.025"/>
</g>
<!-- Node3 -->
<g id="node4" class="node"><title>Node3</title>
<g id="a_node4"><a xlink:href="../../d0/d33/classLeosac_1_1Tools_1_1IVisitable.html" target="_top" xlink:title="Base class to make an object visitable. ">
<polygon fill="white" stroke="black" points="148.5,-201.5 148.5,-220.5 273.5,-220.5 273.5,-201.5 148.5,-201.5"/>
<text text-anchor="middle" x="211" y="-208.5" font-family="Helvetica,sans-Serif" font-size="10.00">Leosac::Tools::IVisitable</text>
</a>
</g>
</g>
<!-- Node3&#45;&gt;Node2 -->
<g id="edge3" class="edge"><title>Node3&#45;&gt;Node2</title>
<path fill="none" stroke="midnightblue" d="M211,-191.317C211,-180.496 211,-167.398 211,-159.009"/>
<polygon fill="midnightblue" stroke="midnightblue" points="207.5,-191.475 211,-201.475 214.5,-191.475 207.5,-191.475"/>
</g>
<!-- Node4&#45;&gt;Node0 -->
<g id="edge4" class="edge"><title>Node4&#45;&gt;Node0</title>
<path fill="none" stroke="midnightblue" d="M81.4886,-65.928C93.5607,-55.1788 109.482,-41.0024 121.177,-30.589"/>
<polygon fill="midnightblue" stroke="midnightblue" points="78.9861,-63.4698 73.8451,-72.7338 83.6411,-68.6978 78.9861,-63.4698"/>
</g>
<!-- Node5 -->
<g id="node6" class="node"><title>Node5</title>
<polygon fill="white" stroke="#bfbfbf" points="1,-134.5 1,-164.5 127,-164.5 127,-134.5 1,-134.5"/>
<text text-anchor="start" x="9" y="-152.5" font-family="Helvetica,sans-Serif" font-size="10.00">std::enable_shared</text>
<text text-anchor="middle" x="64" y="-141.5" font-family="Helvetica,sans-Serif" font-size="10.00">_from_this&lt; AuditEntry &gt;</text>
</g>
<!-- Node5&#45;&gt;Node4 -->
<g id="edge6" class="edge"><title>Node5&#45;&gt;Node4</title>
<path fill="none" stroke="midnightblue" d="M64,-124.25C64,-113.017 64,-100.377 64,-92.1945"/>
<polygon fill="midnightblue" stroke="midnightblue" points="60.5001,-124.396 64,-134.396 67.5001,-124.396 60.5001,-124.396"/>
</g>
</g>
</svg>
