<?xml version="1.0" encoding="UTF-8" standalone="no"?>
<!DOCTYPE svg PUBLIC "-//W3C//DTD SVG 1.1//EN"
 "http://www.w3.org/Graphics/SVG/1.1/DTD/svg11.dtd">
<!-- Generated by graphviz version 2.38.0 (20140413.2041)
 -->
<!-- Title: src/tools/runtimeoptions.hpp Pages: 1 -->
<svg width="226pt" height="84pt"
 viewBox="0.00 0.00 226.00 84.00" xmlns="http://www.w3.org/2000/svg" xmlns:xlink="http://www.w3.org/1999/xlink">
<g id="graph0" class="graph" transform="scale(1 1) rotate(0) translate(4 80)">
<title>src/tools/runtimeoptions.hpp</title>
<polygon fill="white" stroke="none" points="-4,4 -4,-80 222,-80 222,4 -4,4"/>
<!-- Node0 -->
<g id="node1" class="node"><title>Node0</title>
<polygon fill="#bfbfbf" stroke="black" points="41.5,-56.5 41.5,-75.5 181.5,-75.5 181.5,-56.5 41.5,-56.5"/>
<text text-anchor="middle" x="111.5" y="-63.5" font-family="Helvetica,sans-Serif" font-size="10.00">src/tools/runtimeoptions.hpp</text>
</g>
<!-- Node1 -->
<g id="node2" class="node"><title>Node1</title>
<polygon fill="white" stroke="#bfbfbf" points="0,-0.5 0,-19.5 41,-19.5 41,-0.5 0,-0.5"/>
<text text-anchor="middle" x="20.5" y="-7.5" font-family="Helvetica,sans-Serif" font-size="10.00">bitset</text>
</g>
<!-- Node0&#45;&gt;Node1 -->
<g id="edge1" class="edge"><title>Node0&#45;&gt;Node1</title>
<path fill="none" stroke="midnightblue" d="M96.8793,-56.324C82.5511,-47.8215 60.4875,-34.7288 43.7513,-24.7975"/>
<polygon fill="midnightblue" stroke="midnightblue" points="45.4704,-21.7478 35.0844,-19.6545 41.8982,-27.7677 45.4704,-21.7478"/>
</g>
<!-- Node2 -->
<g id="node3" class="node"><title>Node2</title>
<polygon fill="white" stroke="#bfbfbf" points="59.5,-0.5 59.5,-19.5 105.5,-19.5 105.5,-0.5 59.5,-0.5"/>
<text text-anchor="middle" x="82.5" y="-7.5" font-family="Helvetica,sans-Serif" font-size="10.00">cstdint</text>
</g>
<!-- Node0&#45;&gt;Node2 -->
<g id="edge2" class="edge"><title>Node0&#45;&gt;Node2</title>
<path fill="none" stroke="midnightblue" d="M106.711,-56.083C102.742,-48.6913 96.9749,-37.9533 92.0652,-28.8111"/>
<polygon fill="midnightblue" stroke="midnightblue" points="95.0145,-26.9051 87.1997,-19.7511 88.8475,-30.217 95.0145,-26.9051"/>
</g>
<!-- Node3 -->
<g id="node4" class="node"><title>Node3</title>
<polygon fill="white" stroke="#bfbfbf" points="124,-0.5 124,-19.5 159,-19.5 159,-0.5 124,-0.5"/>
<text text-anchor="middle" x="141.5" y="-7.5" font-family="Helvetica,sans-Serif" font-size="10.00">map</text>
</g>
<!-- Node0&#45;&gt;Node3 -->
<g id="edge3" class="edge"><title>Node0&#45;&gt;Node3</title>
<path fill="none" stroke="midnightblue" d="M116.454,-56.083C120.604,-48.6127 126.653,-37.7244 131.767,-28.5199"/>
<polygon fill="midnightblue" stroke="midnightblue" points="134.841,-30.1924 136.638,-19.7511 128.722,-26.7929 134.841,-30.1924"/>
</g>
<!-- Node4 -->
<g id="node5" class="node"><title>Node4</title>
<polygon fill="white" stroke="#bfbfbf" points="177,-0.5 177,-19.5 218,-19.5 218,-0.5 177,-0.5"/>
<text text-anchor="middle" x="197.5" y="-7.5" font-family="Helvetica,sans-Serif" font-size="10.00">string</text>
</g>
<!-- Node0&#45;&gt;Node4 -->
<g id="edge4" class="edge"><title>Node0&#45;&gt;Node4</title>
<path fill="none" stroke="midnightblue" d="M125.317,-56.324C138.733,-47.9002 159.324,-34.9709 175.086,-25.0741"/>
<polygon fill="midnightblue" stroke="midnightblue" points="177.109,-27.9364 183.717,-19.6545 173.387,-22.0081 177.109,-27.9364"/>
</g>
</g>
</svg>
