<?xml version="1.0" encoding="UTF-8" standalone="no"?>
<!DOCTYPE svg PUBLIC "-//W3C//DTD SVG 1.1//EN"
 "http://www.w3.org/Graphics/SVG/1.1/DTD/svg11.dtd">
<!-- Generated by graphviz version 2.38.0 (20140413.2041)
 -->
<!-- Title: src/tools/XmlPropertyTree.hpp Pages: 1 -->
<!--zoomable 95 -->
<svg id="main" version="1.1" xmlns="http://www.w3.org/2000/svg" xmlns:xlink="http://www.w3.org/1999/xlink" xml:space="preserve" onload="init(evt)">
<style type="text/css"><![CDATA[
.edge:hover path { stroke: red; }
.edge:hover polygon { stroke: red; fill: red; }
]]></style>
<script type="text/javascript"><![CDATA[
var edges = document.getElementsByTagName('g');
if (edges && edges.length) {
  for (var i=0;i<edges.length;i++) {
    if (edges[i].id.substr(0,4)=='edge') {
      edges[i].setAttribute('class','edge');
    }
  }
}
]]></script>
        <defs>
                <circle id="rim" cx="0" cy="0" r="7"/>
                <circle id="rim2" cx="0" cy="0" r="3.5"/>
                <g id="zoomPlus">
                        <use xlink:href="#rim" fill="#404040">
                                <set attributeName="fill" to="#808080" begin="zoomplus.mouseover" end="zoomplus.mouseout"/>
                        </use>
                        <path d="M-4,0h8M0,-4v8" fill="none" stroke="white" stroke-width="1.5" pointer-events="none"/>
                </g>
                <g id="zoomMin">
                        <use xlink:href="#rim" fill="#404040">
                                <set attributeName="fill" to="#808080" begin="zoomminus.mouseover" end="zoomminus.mouseout"/>
                        </use>
                        <path d="M-4,0h8" fill="none" stroke="white" stroke-width="1.5" pointer-events="none"/>
                </g>
                <g id="dirArrow">
                        <path fill="none" stroke="white" stroke-width="1.5" d="M0,-3.0v7 M-2.5,-0.5L0,-3.0L2.5,-0.5"/>
                </g>
               <g id="resetDef">
                       <use xlink:href="#rim2" fill="#404040">
                               <set attributeName="fill" to="#808080" begin="reset.mouseover" end="reset.mouseout"/>
                       </use>
               </g>
        </defs>

<script type="text/javascript">
var viewWidth = 1567;
var viewHeight = 95;
var sectionId = 'dynsection-1';
</script>
<script xlink:href="../../svgpan.js"/>
<svg id="graph" class="graph">
<g id="viewport">
<title>src/tools/XmlPropertyTree.hpp</title>
<polygon fill="white" stroke="none" points="-4,4 -4,-91 1563,-91 1563,4 -4,4"/>
<!-- Node2 -->
<g id="node1" class="node"><title>Node2</title>
<polygon fill="#bfbfbf" stroke="black" points="715,-67.5 715,-86.5 864,-86.5 864,-67.5 715,-67.5"/>
<text text-anchor="middle" x="789.5" y="-74.5" font-family="Helvetica,sans-Serif" font-size="10.00">src/tools/XmlPropertyTree.hpp</text>
</g>
<!-- Node3 -->
<g id="node2" class="node"><title>Node3</title>
<g id="a_node2"><a xlink:href="../../d6/dff/src_2core_2config_2ConfigManager_8cpp.html" target="_top" xlink:title="src/core/config/ConfigManager.cpp">
<polygon fill="white" stroke="black" points="0,-6 0,-25 169,-25 169,-6 0,-6"/>
<text text-anchor="middle" x="84.5" y="-13" font-family="Helvetica,sans-Serif" font-size="10.00">src/core/config/ConfigManager.cpp</text>
</a>
</g>
</g>
<!-- Node2&#45;&gt;Node3 -->
<g id="edge1" class="edge"><title>Node2&#45;&gt;Node3</title>
<path fill="none" stroke="midnightblue" d="M704.815,-71.9533C586.517,-65.8045 365.196,-52.4968 177.5,-31 163.538,-29.4009 148.461,-27.2399 134.595,-25.0748"/>
<polygon fill="midnightblue" stroke="midnightblue" points="704.726,-75.4533 714.893,-72.4727 705.086,-68.4626 704.726,-75.4533"/>
</g>
<!-- Node4 -->
<g id="node3" class="node"><title>Node4</title>
<g id="a_node3"><a xlink:href="../../da/db5/RemoteConfigCollector_8cpp.html" target="_top" xlink:title="src/core/config/RemoteConfig\lCollector.cpp">
<polygon fill="white" stroke="black" points="187,-0.5 187,-30.5 334,-30.5 334,-0.5 187,-0.5"/>
<text text-anchor="start" x="195" y="-18.5" font-family="Helvetica,sans-Serif" font-size="10.00">src/core/config/RemoteConfig</text>
<text text-anchor="middle" x="260.5" y="-7.5" font-family="Helvetica,sans-Serif" font-size="10.00">Collector.cpp</text>
</a>
</g>
</g>
<!-- Node2&#45;&gt;Node4 -->
<g id="edge2" class="edge"><title>Node2&#45;&gt;Node4</title>
<path fill="none" stroke="midnightblue" d="M704.591,-69.2742C614.699,-61.7235 468.773,-48.2394 343.5,-31 340.457,-30.5812 337.354,-30.1336 334.223,-29.6646"/>
<polygon fill="midnightblue" stroke="midnightblue" points="704.474,-72.7765 714.731,-70.1206 705.056,-65.8008 704.474,-72.7765"/>
</g>
<!-- Node5 -->
<g id="node4" class="node"><title>Node5</title>
<g id="a_node4"><a xlink:href="../../dd/d24/kernel_8cpp.html" target="_top" xlink:title="src/core/kernel.cpp">
<polygon fill="white" stroke="black" points="352.5,-6 352.5,-25 452.5,-25 452.5,-6 352.5,-6"/>
<text text-anchor="middle" x="402.5" y="-13" font-family="Helvetica,sans-Serif" font-size="10.00">src/core/kernel.cpp</text>
</a>
</g>
</g>
<!-- Node2&#45;&gt;Node5 -->
<g id="edge3" class="edge"><title>Node2&#45;&gt;Node5</title>
<path fill="none" stroke="midnightblue" d="M704.878,-66.857C638.408,-59.0818 543.663,-46.6879 461.5,-31 452.693,-29.3185 443.231,-27.1551 434.518,-25.0151"/>
<polygon fill="midnightblue" stroke="midnightblue" points="704.549,-70.3422 714.886,-68.0178 705.356,-63.3888 704.549,-70.3422"/>
</g>
<!-- Node6 -->
<g id="node5" class="node"><title>Node6</title>
<g id="a_node5"><a xlink:href="../../d4/d28/RemoteControl_8cpp.html" target="_top" xlink:title="src/core/RemoteControl.cpp">
<polygon fill="white" stroke="black" points="470.5,-6 470.5,-25 610.5,-25 610.5,-6 470.5,-6"/>
<text text-anchor="middle" x="540.5" y="-13" font-family="Helvetica,sans-Serif" font-size="10.00">src/core/RemoteControl.cpp</text>
</a>
</g>
</g>
<!-- Node2&#45;&gt;Node6 -->
<g id="edge4" class="edge"><title>Node2&#45;&gt;Node6</title>
<path fill="none" stroke="midnightblue" d="M743.942,-65.1138C695.613,-53.5653 620.27,-35.5615 576.109,-25.0091"/>
<polygon fill="midnightblue" stroke="midnightblue" points="743.285,-68.5551 753.824,-67.4751 744.912,-61.7467 743.285,-68.5551"/>
</g>
<!-- Node7 -->
<g id="node6" class="node"><title>Node7</title>
<g id="a_node6"><a xlink:href="../../d3/dc5/FileAuthSourceMapper_8cpp.html" target="_top" xlink:title="src/modules/auth/auth\l&#45;file/FileAuthSourceMapper.cpp">
<polygon fill="white" stroke="black" points="629,-0.5 629,-30.5 782,-30.5 782,-0.5 629,-0.5"/>
<text text-anchor="start" x="637" y="-18.5" font-family="Helvetica,sans-Serif" font-size="10.00">src/modules/auth/auth</text>
<text text-anchor="middle" x="705.5" y="-7.5" font-family="Helvetica,sans-Serif" font-size="10.00">&#45;file/FileAuthSourceMapper.cpp</text>
</a>
</g>
</g>
<!-- Node2&#45;&gt;Node7 -->
<g id="edge5" class="edge"><title>Node2&#45;&gt;Node7</title>
<path fill="none" stroke="midnightblue" d="M768.984,-61.468C755.685,-52.0474 738.452,-39.8408 725.297,-30.523"/>
<polygon fill="midnightblue" stroke="midnightblue" points="767.282,-64.551 777.465,-67.4751 771.328,-58.8388 767.282,-64.551"/>
</g>
<!-- Node8 -->
<g id="node7" class="node"><title>Node8</title>
<g id="a_node7"><a xlink:href="../../de/d21/BaseModule_8cpp.html" target="_top" xlink:title="src/modules/BaseModule.cpp">
<polygon fill="white" stroke="black" points="800.5,-6 800.5,-25 946.5,-25 946.5,-6 800.5,-6"/>
<text text-anchor="middle" x="873.5" y="-13" font-family="Helvetica,sans-Serif" font-size="10.00">src/modules/BaseModule.cpp</text>
</a>
</g>
</g>
<!-- Node2&#45;&gt;Node8 -->
<g id="edge6" class="edge"><title>Node2&#45;&gt;Node8</title>
<path fill="none" stroke="midnightblue" d="M809.811,-61.6127C825.967,-50.1691 848.023,-34.546 861.487,-25.0091"/>
<polygon fill="midnightblue" stroke="midnightblue" points="807.672,-58.8388 801.535,-67.4751 811.718,-64.551 807.672,-58.8388"/>
</g>
<!-- Node9 -->
<g id="node8" class="node"><title>Node9</title>
<g id="a_node8"><a xlink:href="../../d9/d6b/WebSockAPI_8cpp.html" target="_top" xlink:title="src/modules/websock\l&#45;api/WebSockAPI.cpp">
<polygon fill="white" stroke="black" points="965,-0.5 965,-30.5 1078,-30.5 1078,-0.5 965,-0.5"/>
<text text-anchor="start" x="973" y="-18.5" font-family="Helvetica,sans-Serif" font-size="10.00">src/modules/websock</text>
<text text-anchor="middle" x="1021.5" y="-7.5" font-family="Helvetica,sans-Serif" font-size="10.00">&#45;api/WebSockAPI.cpp</text>
</a>
</g>
</g>
<!-- Node2&#45;&gt;Node9 -->
<g id="edge7" class="edge"><title>Node2&#45;&gt;Node9</title>
<path fill="none" stroke="midnightblue" d="M832.456,-64.9834C870.349,-55.2651 925.774,-41.0503 966.822,-30.523"/>
<polygon fill="midnightblue" stroke="midnightblue" points="831.557,-61.6005 822.74,-67.4751 833.296,-68.381 831.557,-61.6005"/>
</g>
<!-- Node10 -->
<g id="node9" class="node"><title>Node10</title>
<g id="a_node9"><a xlink:href="../../dd/d4d/XmlPropertyTree_8cpp.html" target="_top" xlink:title="src/tools/XmlPropertyTree.cpp">
<polygon fill="white" stroke="black" points="1096,-6 1096,-25 1245,-25 1245,-6 1096,-6"/>
<text text-anchor="middle" x="1170.5" y="-13" font-family="Helvetica,sans-Serif" font-size="10.00">src/tools/XmlPropertyTree.cpp</text>
</a>
</g>
</g>
<!-- Node2&#45;&gt;Node10 -->
<g id="edge8" class="edge"><title>Node2&#45;&gt;Node10</title>
<path fill="none" stroke="midnightblue" d="M858.834,-65.9927C919.275,-57.1583 1009.27,-43.7384 1087.5,-31 1098.91,-29.1428 1111.18,-27.051 1122.69,-25.0462"/>
<polygon fill="midnightblue" stroke="midnightblue" points="858.038,-62.5716 848.648,-67.4788 859.049,-69.4982 858.038,-62.5716"/>
</g>
<!-- Node11 -->
<g id="node10" class="node"><title>Node11</title>
<g id="a_node10"><a xlink:href="../../d8/db2/test_2ConfigManager_8cpp.html" target="_top" xlink:title="test/ConfigManager.cpp">
<polygon fill="white" stroke="black" points="1263,-6 1263,-25 1384,-25 1384,-6 1263,-6"/>
<text text-anchor="middle" x="1323.5" y="-13" font-family="Helvetica,sans-Serif" font-size="10.00">test/ConfigManager.cpp</text>
</a>
</g>
</g>
<!-- Node2&#45;&gt;Node11 -->
<g id="edge9" class="edge"><title>Node2&#45;&gt;Node11</title>
<path fill="none" stroke="midnightblue" d="M874.565,-70.6052C968.07,-64.0158 1122.55,-51.1856 1254.5,-31 1265.03,-29.3896 1276.37,-27.1991 1286.75,-25.0088"/>
<polygon fill="midnightblue" stroke="midnightblue" points="874.043,-67.133 864.311,-71.32 874.53,-74.1161 874.043,-67.133"/>
</g>
<!-- Node12 -->
<g id="node11" class="node"><title>Node12</title>
<g id="a_node11"><a xlink:href="../../d7/d99/test_2RemoteControlSecurity_8cpp.html" target="_top" xlink:title="test/RemoteControlSecurity.cpp">
<polygon fill="white" stroke="black" points="1402,-6 1402,-25 1559,-25 1559,-6 1402,-6"/>
<text text-anchor="middle" x="1480.5" y="-13" font-family="Helvetica,sans-Serif" font-size="10.00">test/RemoteControlSecurity.cpp</text>
</a>
</g>
</g>
<!-- Node2&#45;&gt;Node12 -->
<g id="edge10" class="edge"><title>Node2&#45;&gt;Node12</title>
<path fill="none" stroke="midnightblue" d="M874.425,-72.1081C991.533,-66.1868 1209.06,-53.1941 1393.5,-31 1406.73,-29.4084 1421.01,-27.224 1434.11,-25.0334"/>
<polygon fill="midnightblue" stroke="midnightblue" points="873.912,-68.6292 864.099,-72.6249 874.262,-75.6205 873.912,-68.6292"/>
</g>
</g>
</svg>
        <g id="navigator" transform="translate(0 0)" fill="#404254">
                <rect fill="#f2f5e9" fill-opacity="0.5" stroke="#606060" stroke-width=".5" x="0" y="0" width="60" height="60"/>
                <use id="zoomplus" xlink:href="#zoomPlus" x="17" y="9" onmousedown="handleZoom(evt,'in')"/>
                <use id="zoomminus" xlink:href="#zoomMin" x="42" y="9" onmousedown="handleZoom(evt,'out')"/>
                <use id="reset" xlink:href="#resetDef" x="30" y="36" onmousedown="handleReset()"/>
                <g id="arrowUp" xlink:href="#dirArrow" transform="translate(30 24)" onmousedown="handlePan(0,-1)">
                  <use xlink:href="#rim" fill="#404040">
                        <set attributeName="fill" to="#808080" begin="arrowUp.mouseover" end="arrowUp.mouseout"/>
                  </use>
                  <path fill="none" stroke="white" stroke-width="1.5" d="M0,-3.0v7 M-2.5,-0.5L0,-3.0L2.5,-0.5"/>
                </g>
                <g id="arrowRight" xlink:href="#dirArrow" transform="rotate(90) translate(36 -43)" onmousedown="handlePan(1,0)">
                  <use xlink:href="#rim" fill="#404040">
                        <set attributeName="fill" to="#808080" begin="arrowRight.mouseover" end="arrowRight.mouseout"/>
                  </use>
                  <path fill="none" stroke="white" stroke-width="1.5" d="M0,-3.0v7 M-2.5,-0.5L0,-3.0L2.5,-0.5"/>
                </g>
                <g id="arrowDown" xlink:href="#dirArrow" transform="rotate(180) translate(-30 -48)" onmousedown="handlePan(0,1)">
                  <use xlink:href="#rim" fill="#404040">
                        <set attributeName="fill" to="#808080" begin="arrowDown.mouseover" end="arrowDown.mouseout"/>
                  </use>
                  <path fill="none" stroke="white" stroke-width="1.5" d="M0,-3.0v7 M-2.5,-0.5L0,-3.0L2.5,-0.5"/>
                </g>
                <g id="arrowLeft" xlink:href="#dirArrow" transform="rotate(270) translate(-36 17)" onmousedown="handlePan(-1,0)">
                  <use xlink:href="#rim" fill="#404040">
                        <set attributeName="fill" to="#808080" begin="arrowLeft.mouseover" end="arrowLeft.mouseout"/>
                  </use>
                  <path fill="none" stroke="white" stroke-width="1.5" d="M0,-3.0v7 M-2.5,-0.5L0,-3.0L2.5,-0.5"/>
                </g>
        </g>
        <svg viewBox="0 0 15 15" width="100%" height="30px" preserveAspectRatio="xMaxYMin meet">
         <g id="arrow_out" transform="scale(0.3 0.3)">
          <a xlink:href="XmlPropertyTree_8hpp__dep__incl_org.svg" target="_base">
           <rect id="button" ry="5" rx="5" y="6" x="6" height="38" width="38"
                fill="#f2f5e9" fill-opacity="0.5" stroke="#606060" stroke-width="1.0"/>
           <path id="arrow"
             d="M 11.500037,31.436501 C 11.940474,20.09759 22.043105,11.32322 32.158766,21.979434 L 37.068811,17.246167 C 37.068811,17.246167 37.088388,32 37.088388,32 L 22.160133,31.978069 C 22.160133,31.978069 26.997745,27.140456 26.997745,27.140456 C 18.528582,18.264221 13.291696,25.230495 11.500037,31.436501 z"
             style="fill:#404040;"/>
          </a>
         </g>
        </svg>
</svg>
