<?xml version="1.0" encoding="UTF-8" standalone="no"?>
<!DOCTYPE svg PUBLIC "-//W3C//DTD SVG 1.1//EN"
 "http://www.w3.org/Graphics/SVG/1.1/DTD/svg11.dtd">
<!-- Generated by graphviz version 2.38.0 (20140413.2041)
 -->
<!-- Title: src/core/audit/ScheduleEvent.hpp Pages: 1 -->
<svg width="344pt" height="84pt"
 viewBox="0.00 0.00 343.50 84.00" xmlns="http://www.w3.org/2000/svg" xmlns:xlink="http://www.w3.org/1999/xlink">
<g id="graph0" class="graph" transform="scale(1 1) rotate(0) translate(4 80)">
<title>src/core/audit/ScheduleEvent.hpp</title>
<polygon fill="white" stroke="none" points="-4,4 -4,-80 339.5,-80 339.5,4 -4,4"/>
<!-- Node29 -->
<g id="node1" class="node"><title>Node29</title>
<polygon fill="#bfbfbf" stroke="black" points="82.5,-56.5 82.5,-75.5 246.5,-75.5 246.5,-56.5 82.5,-56.5"/>
<text text-anchor="middle" x="164.5" y="-63.5" font-family="Helvetica,sans-Serif" font-size="10.00">src/core/audit/ScheduleEvent.hpp</text>
</g>
<!-- Node30 -->
<g id="node2" class="node"><title>Node30</title>
<g id="a_node2"><a xlink:href="../../d4/dbe/AuditFactory_8cpp.html" target="_top" xlink:title="src/core/audit/AuditFactory.cpp">
<polygon fill="white" stroke="black" points="0,-0.5 0,-19.5 153,-19.5 153,-0.5 0,-0.5"/>
<text text-anchor="middle" x="76.5" y="-7.5" font-family="Helvetica,sans-Serif" font-size="10.00">src/core/audit/AuditFactory.cpp</text>
</a>
</g>
</g>
<!-- Node29&#45;&gt;Node30 -->
<g id="edge1" class="edge"><title>Node29&#45;&gt;Node30</title>
<path fill="none" stroke="midnightblue" d="M141.523,-50.9005C125.387,-40.9986 104.319,-28.0705 90.6036,-19.6545"/>
<polygon fill="midnightblue" stroke="midnightblue" points="140.007,-54.0769 150.361,-56.324 143.669,-48.1106 140.007,-54.0769"/>
</g>
<!-- Node31 -->
<g id="node3" class="node"><title>Node31</title>
<g id="a_node3"><a xlink:href="../../d8/d89/ScheduleEvent_8cpp.html" target="_top" xlink:title="src/core/audit/ScheduleEvent.cpp">
<polygon fill="white" stroke="black" points="171.5,-0.5 171.5,-19.5 335.5,-19.5 335.5,-0.5 171.5,-0.5"/>
<text text-anchor="middle" x="253.5" y="-7.5" font-family="Helvetica,sans-Serif" font-size="10.00">src/core/audit/ScheduleEvent.cpp</text>
</a>
</g>
</g>
<!-- Node29&#45;&gt;Node31 -->
<g id="edge2" class="edge"><title>Node29&#45;&gt;Node31</title>
<path fill="none" stroke="midnightblue" d="M187.738,-50.9005C204.058,-40.9986 225.365,-28.0705 239.236,-19.6545"/>
<polygon fill="midnightblue" stroke="midnightblue" points="185.533,-48.1444 178.799,-56.324 189.164,-54.1289 185.533,-48.1444"/>
</g>
</g>
</svg>
