<?xml version="1.0" encoding="UTF-8" standalone="no"?>
<!DOCTYPE svg PUBLIC "-//W3C//DTD SVG 1.1//EN"
 "http://www.w3.org/Graphics/SVG/1.1/DTD/svg11.dtd">
<!-- Generated by graphviz version 2.38.0 (20140413.2041)
 -->
<!-- Title: src/core/auth/IAccessPoint.hpp Pages: 1 -->
<!--zoomable 173 -->
<svg id="main" version="1.1" xmlns="http://www.w3.org/2000/svg" xmlns:xlink="http://www.w3.org/1999/xlink" xml:space="preserve" onload="init(evt)">
<style type="text/css"><![CDATA[
.edge:hover path { stroke: red; }
.edge:hover polygon { stroke: red; fill: red; }
]]></style>
<script type="text/javascript"><![CDATA[
var edges = document.getElementsByTagName('g');
if (edges && edges.length) {
  for (var i=0;i<edges.length;i++) {
    if (edges[i].id.substr(0,4)=='edge') {
      edges[i].setAttribute('class','edge');
    }
  }
}
]]></script>
        <defs>
                <circle id="rim" cx="0" cy="0" r="7"/>
                <circle id="rim2" cx="0" cy="0" r="3.5"/>
                <g id="zoomPlus">
                        <use xlink:href="#rim" fill="#404040">
                                <set attributeName="fill" to="#808080" begin="zoomplus.mouseover" end="zoomplus.mouseout"/>
                        </use>
                        <path d="M-4,0h8M0,-4v8" fill="none" stroke="white" stroke-width="1.5" pointer-events="none"/>
                </g>
                <g id="zoomMin">
                        <use xlink:href="#rim" fill="#404040">
                                <set attributeName="fill" to="#808080" begin="zoomminus.mouseover" end="zoomminus.mouseout"/>
                        </use>
                        <path d="M-4,0h8" fill="none" stroke="white" stroke-width="1.5" pointer-events="none"/>
                </g>
                <g id="dirArrow">
                        <path fill="none" stroke="white" stroke-width="1.5" d="M0,-3.0v7 M-2.5,-0.5L0,-3.0L2.5,-0.5"/>
                </g>
               <g id="resetDef">
                       <use xlink:href="#rim2" fill="#404040">
                               <set attributeName="fill" to="#808080" begin="reset.mouseover" end="reset.mouseout"/>
                       </use>
               </g>
        </defs>

<script type="text/javascript">
var viewWidth = 1098;
var viewHeight = 173;
var sectionId = 'dynsection-1';
</script>
<script xlink:href="../../svgpan.js"/>
<svg id="graph" class="graph">
<g id="viewport">
<title>src/core/auth/IAccessPoint.hpp</title>
<polygon fill="white" stroke="none" points="-4,4 -4,-169 1093.5,-169 1093.5,4 -4,4"/>
<!-- Node6 -->
<g id="node1" class="node"><title>Node6</title>
<polygon fill="#bfbfbf" stroke="black" points="643,-145.5 643,-164.5 797,-164.5 797,-145.5 643,-145.5"/>
<text text-anchor="middle" x="720" y="-152.5" font-family="Helvetica,sans-Serif" font-size="10.00">src/core/auth/IAccessPoint.hpp</text>
</g>
<!-- Node7 -->
<g id="node2" class="node"><title>Node7</title>
<g id="a_node2"><a xlink:href="../../d2/d6b/AccessPoint_8hpp.html" target="_top" xlink:title="src/core/auth/AccessPoint.hpp">
<polygon fill="white" stroke="black" points="483.5,-84 483.5,-103 634.5,-103 634.5,-84 483.5,-84"/>
<text text-anchor="middle" x="559" y="-91" font-family="Helvetica,sans-Serif" font-size="10.00">src/core/auth/AccessPoint.hpp</text>
</a>
</g>
</g>
<!-- Node6&#45;&gt;Node7 -->
<g id="edge1" class="edge"><title>Node6&#45;&gt;Node7</title>
<path fill="none" stroke="midnightblue" d="M687.348,-141.933C656.055,-130.368 609.622,-113.208 582.025,-103.009"/>
<polygon fill="midnightblue" stroke="midnightblue" points="686.339,-145.292 696.933,-145.475 688.766,-138.726 686.339,-145.292"/>
</g>
<!-- Node15 -->
<g id="node10" class="node"><title>Node15</title>
<g id="a_node10"><a xlink:href="../../dd/d7e/AccessPointSerializer_8cpp.html" target="_top" xlink:title="src/core/auth/serializers\l/AccessPointSerializer.cpp">
<polygon fill="white" stroke="black" points="653,-78.5 653,-108.5 787,-108.5 787,-78.5 653,-78.5"/>
<text text-anchor="start" x="661" y="-96.5" font-family="Helvetica,sans-Serif" font-size="10.00">src/core/auth/serializers</text>
<text text-anchor="middle" x="720" y="-85.5" font-family="Helvetica,sans-Serif" font-size="10.00">/AccessPointSerializer.cpp</text>
</a>
</g>
</g>
<!-- Node6&#45;&gt;Node15 -->
<g id="edge9" class="edge"><title>Node6&#45;&gt;Node15</title>
<path fill="none" stroke="midnightblue" d="M720,-135.235C720,-126.586 720,-116.497 720,-108.523"/>
<polygon fill="midnightblue" stroke="midnightblue" points="716.5,-135.475 720,-145.475 723.5,-135.475 716.5,-135.475"/>
</g>
<!-- Node16 -->
<g id="node11" class="node"><title>Node16</title>
<g id="a_node11"><a xlink:href="../../d8/da2/DoorSerializer_8cpp.html" target="_top" xlink:title="src/core/auth/serializers\l/DoorSerializer.cpp">
<polygon fill="white" stroke="black" points="805.5,-78.5 805.5,-108.5 926.5,-108.5 926.5,-78.5 805.5,-78.5"/>
<text text-anchor="start" x="813.5" y="-96.5" font-family="Helvetica,sans-Serif" font-size="10.00">src/core/auth/serializers</text>
<text text-anchor="middle" x="866" y="-85.5" font-family="Helvetica,sans-Serif" font-size="10.00">/DoorSerializer.cpp</text>
</a>
</g>
</g>
<!-- Node6&#45;&gt;Node16 -->
<g id="edge10" class="edge"><title>Node6&#45;&gt;Node16</title>
<path fill="none" stroke="midnightblue" d="M750.452,-141.59C774.124,-131.942 806.968,-118.558 831.591,-108.523"/>
<polygon fill="midnightblue" stroke="midnightblue" points="748.858,-138.46 740.918,-145.475 751.5,-144.942 748.858,-138.46"/>
</g>
<!-- Node8 -->
<g id="node3" class="node"><title>Node8</title>
<g id="a_node3"><a xlink:href="../../d0/d15/AccessPointEvent_8cpp.html" target="_top" xlink:title="src/core/audit/AccessPoint\lEvent.cpp">
<polygon fill="white" stroke="black" points="0,-6 0,-36 134,-36 134,-6 0,-6"/>
<text text-anchor="start" x="8" y="-24" font-family="Helvetica,sans-Serif" font-size="10.00">src/core/audit/AccessPoint</text>
<text text-anchor="middle" x="67" y="-13" font-family="Helvetica,sans-Serif" font-size="10.00">Event.cpp</text>
</a>
</g>
</g>
<!-- Node7&#45;&gt;Node8 -->
<g id="edge2" class="edge"><title>Node7&#45;&gt;Node8</title>
<path fill="none" stroke="midnightblue" d="M473.31,-85.5427C388.829,-77.876 256.297,-63.6792 143,-42 134.29,-40.3333 125.103,-38.2236 116.243,-36.0033"/>
<polygon fill="midnightblue" stroke="midnightblue" points="473.097,-89.0376 483.369,-86.4454 473.722,-82.0656 473.097,-89.0376"/>
</g>
<!-- Node9 -->
<g id="node4" class="node"><title>Node9</title>
<g id="a_node4"><a xlink:href="../../d4/dbe/AuditFactory_8cpp.html" target="_top" xlink:title="src/core/audit/AuditFactory.cpp">
<polygon fill="white" stroke="black" points="152.5,-11.5 152.5,-30.5 305.5,-30.5 305.5,-11.5 152.5,-11.5"/>
<text text-anchor="middle" x="229" y="-18.5" font-family="Helvetica,sans-Serif" font-size="10.00">src/core/audit/AuditFactory.cpp</text>
</a>
</g>
</g>
<!-- Node7&#45;&gt;Node9 -->
<g id="edge3" class="edge"><title>Node7&#45;&gt;Node9</title>
<path fill="none" stroke="midnightblue" d="M505.669,-81.9519C455.978,-72.0182 379.861,-56.5331 314,-42 297.716,-38.4067 279.732,-34.2087 264.516,-30.5892"/>
<polygon fill="midnightblue" stroke="midnightblue" points="505.059,-85.3991 515.551,-83.9238 506.429,-78.5345 505.059,-85.3991"/>
</g>
<!-- Node10 -->
<g id="node5" class="node"><title>Node10</title>
<g id="a_node5"><a xlink:href="../../d1/d88/AccessPoint_8cpp.html" target="_top" xlink:title="src/core/auth/AccessPoint.cpp">
<polygon fill="white" stroke="black" points="323.5,-11.5 323.5,-30.5 474.5,-30.5 474.5,-11.5 323.5,-11.5"/>
<text text-anchor="middle" x="399" y="-18.5" font-family="Helvetica,sans-Serif" font-size="10.00">src/core/auth/AccessPoint.cpp</text>
</a>
</g>
</g>
<!-- Node7&#45;&gt;Node10 -->
<g id="edge4" class="edge"><title>Node7&#45;&gt;Node10</title>
<path fill="none" stroke="midnightblue" d="M530.333,-79.8688C497.993,-65.6187 446.277,-42.8314 418.368,-30.5341"/>
<polygon fill="midnightblue" stroke="midnightblue" points="529.138,-83.1667 539.7,-83.9961 531.96,-76.7609 529.138,-83.1667"/>
</g>
<!-- Node11 -->
<g id="node6" class="node"><title>Node11</title>
<g id="a_node6"><a xlink:href="../../dc/d02/AccessPointService_8cpp.html" target="_top" xlink:title="src/core/auth/AccessPoint\lService.cpp">
<polygon fill="white" stroke="black" points="493,-6 493,-36 625,-36 625,-6 493,-6"/>
<text text-anchor="start" x="501" y="-24" font-family="Helvetica,sans-Serif" font-size="10.00">src/core/auth/AccessPoint</text>
<text text-anchor="middle" x="559" y="-13" font-family="Helvetica,sans-Serif" font-size="10.00">Service.cpp</text>
</a>
</g>
</g>
<!-- Node7&#45;&gt;Node11 -->
<g id="edge5" class="edge"><title>Node7&#45;&gt;Node11</title>
<path fill="none" stroke="midnightblue" d="M559,-73.7362C559,-61.9079 559,-46.8829 559,-36.0762"/>
<polygon fill="midnightblue" stroke="midnightblue" points="555.5,-73.8553 559,-83.8553 562.5,-73.8554 555.5,-73.8553"/>
</g>
<!-- Node12 -->
<g id="node7" class="node"><title>Node12</title>
<g id="a_node7"><a xlink:href="../../d0/dc5/Door_8cpp.html" target="_top" xlink:title="src/core/auth/Door.cpp">
<polygon fill="white" stroke="black" points="643,-11.5 643,-30.5 759,-30.5 759,-11.5 643,-11.5"/>
<text text-anchor="middle" x="701" y="-18.5" font-family="Helvetica,sans-Serif" font-size="10.00">src/core/auth/Door.cpp</text>
</a>
</g>
</g>
<!-- Node7&#45;&gt;Node12 -->
<g id="edge6" class="edge"><title>Node7&#45;&gt;Node12</title>
<path fill="none" stroke="midnightblue" d="M585.188,-79.4984C613.934,-65.2266 659.255,-42.7253 683.811,-30.5341"/>
<polygon fill="midnightblue" stroke="midnightblue" points="583.529,-76.4142 576.129,-83.9961 586.642,-82.684 583.529,-76.4142"/>
</g>
<!-- Node13 -->
<g id="node8" class="node"><title>Node13</title>
<g id="a_node8"><a xlink:href="../../d7/d29/AccessPointCRUD_8cpp.html" target="_top" xlink:title="src/modules/websock\l&#45;api/api/AccessPointCRUD.cpp">
<polygon fill="white" stroke="black" points="777.5,-6 777.5,-36 932.5,-36 932.5,-6 777.5,-6"/>
<text text-anchor="start" x="785.5" y="-24" font-family="Helvetica,sans-Serif" font-size="10.00">src/modules/websock</text>
<text text-anchor="middle" x="855" y="-13" font-family="Helvetica,sans-Serif" font-size="10.00">&#45;api/api/AccessPointCRUD.cpp</text>
</a>
</g>
</g>
<!-- Node7&#45;&gt;Node13 -->
<g id="edge7" class="edge"><title>Node7&#45;&gt;Node13</title>
<path fill="none" stroke="midnightblue" d="M604.542,-81.6529C655.982,-69.4013 739.845,-49.4271 796.195,-36.0059"/>
<polygon fill="midnightblue" stroke="midnightblue" points="603.621,-78.2743 594.705,-83.9961 605.243,-85.0838 603.621,-78.2743"/>
</g>
<!-- Node14 -->
<g id="node9" class="node"><title>Node14</title>
<g id="a_node9"><a xlink:href="../../d1/d54/AccessPointSearch_8cpp.html" target="_top" xlink:title="src/modules/websock\l&#45;api/api/search/AccessPoint\lSearch.cpp">
<polygon fill="white" stroke="black" points="950.5,-0.5 950.5,-41.5 1089.5,-41.5 1089.5,-0.5 950.5,-0.5"/>
<text text-anchor="start" x="958.5" y="-29.5" font-family="Helvetica,sans-Serif" font-size="10.00">src/modules/websock</text>
<text text-anchor="start" x="958.5" y="-18.5" font-family="Helvetica,sans-Serif" font-size="10.00">&#45;api/api/search/AccessPoint</text>
<text text-anchor="middle" x="1020" y="-7.5" font-family="Helvetica,sans-Serif" font-size="10.00">Search.cpp</text>
</a>
</g>
</g>
<!-- Node7&#45;&gt;Node14 -->
<g id="edge8" class="edge"><title>Node7&#45;&gt;Node14</title>
<path fill="none" stroke="midnightblue" d="M616.744,-82.2602C625.853,-80.7574 635.174,-79.2851 644,-78 776.015,-58.7775 810.884,-66.6202 942,-42 944.748,-41.484 947.543,-40.9266 950.36,-40.3373"/>
<polygon fill="midnightblue" stroke="midnightblue" points="615.873,-78.8573 606.588,-83.9614 617.029,-85.7611 615.873,-78.8573"/>
</g>
</g>
</svg>
        <g id="navigator" transform="translate(0 0)" fill="#404254">
                <rect fill="#f2f5e9" fill-opacity="0.5" stroke="#606060" stroke-width=".5" x="0" y="0" width="60" height="60"/>
                <use id="zoomplus" xlink:href="#zoomPlus" x="17" y="9" onmousedown="handleZoom(evt,'in')"/>
                <use id="zoomminus" xlink:href="#zoomMin" x="42" y="9" onmousedown="handleZoom(evt,'out')"/>
                <use id="reset" xlink:href="#resetDef" x="30" y="36" onmousedown="handleReset()"/>
                <g id="arrowUp" xlink:href="#dirArrow" transform="translate(30 24)" onmousedown="handlePan(0,-1)">
                  <use xlink:href="#rim" fill="#404040">
                        <set attributeName="fill" to="#808080" begin="arrowUp.mouseover" end="arrowUp.mouseout"/>
                  </use>
                  <path fill="none" stroke="white" stroke-width="1.5" d="M0,-3.0v7 M-2.5,-0.5L0,-3.0L2.5,-0.5"/>
                </g>
                <g id="arrowRight" xlink:href="#dirArrow" transform="rotate(90) translate(36 -43)" onmousedown="handlePan(1,0)">
                  <use xlink:href="#rim" fill="#404040">
                        <set attributeName="fill" to="#808080" begin="arrowRight.mouseover" end="arrowRight.mouseout"/>
                  </use>
                  <path fill="none" stroke="white" stroke-width="1.5" d="M0,-3.0v7 M-2.5,-0.5L0,-3.0L2.5,-0.5"/>
                </g>
                <g id="arrowDown" xlink:href="#dirArrow" transform="rotate(180) translate(-30 -48)" onmousedown="handlePan(0,1)">
                  <use xlink:href="#rim" fill="#404040">
                        <set attributeName="fill" to="#808080" begin="arrowDown.mouseover" end="arrowDown.mouseout"/>
                  </use>
                  <path fill="none" stroke="white" stroke-width="1.5" d="M0,-3.0v7 M-2.5,-0.5L0,-3.0L2.5,-0.5"/>
                </g>
                <g id="arrowLeft" xlink:href="#dirArrow" transform="rotate(270) translate(-36 17)" onmousedown="handlePan(-1,0)">
                  <use xlink:href="#rim" fill="#404040">
                        <set attributeName="fill" to="#808080" begin="arrowLeft.mouseover" end="arrowLeft.mouseout"/>
                  </use>
                  <path fill="none" stroke="white" stroke-width="1.5" d="M0,-3.0v7 M-2.5,-0.5L0,-3.0L2.5,-0.5"/>
                </g>
        </g>
        <svg viewBox="0 0 15 15" width="100%" height="30px" preserveAspectRatio="xMaxYMin meet">
         <g id="arrow_out" transform="scale(0.3 0.3)">
          <a xlink:href="IAccessPoint_8hpp__dep__incl_org.svg" target="_base">
           <rect id="button" ry="5" rx="5" y="6" x="6" height="38" width="38"
                fill="#f2f5e9" fill-opacity="0.5" stroke="#606060" stroke-width="1.0"/>
           <path id="arrow"
             d="M 11.500037,31.436501 C 11.940474,20.09759 22.043105,11.32322 32.158766,21.979434 L 37.068811,17.246167 C 37.068811,17.246167 37.088388,32 37.088388,32 L 22.160133,31.978069 C 22.160133,31.978069 26.997745,27.140456 26.997745,27.140456 C 18.528582,18.264221 13.291696,25.230495 11.500037,31.436501 z"
             style="fill:#404040;"/>
          </a>
         </g>
        </svg>
</svg>
