<?xml version="1.0" encoding="UTF-8" standalone="no"?>
<!DOCTYPE svg PUBLIC "-//W3C//DTD SVG 1.1//EN"
 "http://www.w3.org/Graphics/SVG/1.1/DTD/svg11.dtd">
<!-- Generated by graphviz version 2.38.0 (20140413.2041)
 -->
<!-- Title: src/exception/PermissionDenied.hpp Pages: 1 -->
<svg width="1100pt" height="106pt"
 viewBox="0.00 0.00 1100.00 106.00" xmlns="http://www.w3.org/2000/svg" xmlns:xlink="http://www.w3.org/1999/xlink">
<g id="graph0" class="graph" transform="scale(1 1) rotate(0) translate(4 102)">
<title>src/exception/PermissionDenied.hpp</title>
<polygon fill="white" stroke="none" points="-4,4 -4,-102 1096,-102 1096,4 -4,4"/>
<!-- Node18 -->
<g id="node1" class="node"><title>Node18</title>
<polygon fill="#bfbfbf" stroke="black" points="506.5,-67.5 506.5,-97.5 633.5,-97.5 633.5,-67.5 506.5,-67.5"/>
<text text-anchor="start" x="514.5" y="-85.5" font-family="Helvetica,sans-Serif" font-size="10.00">src/exception/Permission</text>
<text text-anchor="middle" x="570" y="-74.5" font-family="Helvetica,sans-Serif" font-size="10.00">Denied.hpp</text>
</g>
<!-- Node19 -->
<g id="node2" class="node"><title>Node19</title>
<g id="a_node2"><a xlink:href="../../db/dc2/SecurityContext_8cpp.html" target="_top" xlink:title="src/core/SecurityContext.cpp">
<polygon fill="white" stroke="black" points="0,-6 0,-25 144,-25 144,-6 0,-6"/>
<text text-anchor="middle" x="72" y="-13" font-family="Helvetica,sans-Serif" font-size="10.00">src/core/SecurityContext.cpp</text>
</a>
</g>
</g>
<!-- Node18&#45;&gt;Node19 -->
<g id="edge1" class="edge"><title>Node18&#45;&gt;Node19</title>
<path fill="none" stroke="midnightblue" d="M496.12,-73.8312C412.636,-64.8687 272.77,-48.9577 153,-31 141.274,-29.2418 128.637,-27.0995 116.912,-25.0069"/>
<polygon fill="midnightblue" stroke="midnightblue" points="495.951,-77.333 506.266,-74.9161 496.695,-70.3727 495.951,-77.333"/>
</g>
<!-- Node20 -->
<g id="node3" class="node"><title>Node20</title>
<g id="a_node3"><a xlink:href="../../d6/d73/PermissionDenied_8cpp.html" target="_top" xlink:title="src/exception/Permission\lDenied.cpp">
<polygon fill="white" stroke="black" points="162.5,-0.5 162.5,-30.5 289.5,-30.5 289.5,-0.5 162.5,-0.5"/>
<text text-anchor="start" x="170.5" y="-18.5" font-family="Helvetica,sans-Serif" font-size="10.00">src/exception/Permission</text>
<text text-anchor="middle" x="226" y="-7.5" font-family="Helvetica,sans-Serif" font-size="10.00">Denied.cpp</text>
</a>
</g>
</g>
<!-- Node18&#45;&gt;Node20 -->
<g id="edge2" class="edge"><title>Node18&#45;&gt;Node20</title>
<path fill="none" stroke="midnightblue" d="M496.518,-68.05C441.979,-58.0082 365.806,-43.8589 299,-31 295.955,-30.4139 292.839,-29.8102 289.693,-29.1974"/>
<polygon fill="midnightblue" stroke="midnightblue" points="495.974,-71.5087 506.443,-69.876 497.241,-64.6242 495.974,-71.5087"/>
</g>
<!-- Node21 -->
<g id="node4" class="node"><title>Node21</title>
<g id="a_node4"><a xlink:href="../../d5/dcb/CRUDResourceHandler_8cpp.html" target="_top" xlink:title="src/modules/websock\l&#45;api/api/CRUDResourceHandler.cpp">
<polygon fill="white" stroke="black" points="308,-0.5 308,-30.5 484,-30.5 484,-0.5 308,-0.5"/>
<text text-anchor="start" x="316" y="-18.5" font-family="Helvetica,sans-Serif" font-size="10.00">src/modules/websock</text>
<text text-anchor="middle" x="396" y="-7.5" font-family="Helvetica,sans-Serif" font-size="10.00">&#45;api/api/CRUDResourceHandler.cpp</text>
</a>
</g>
</g>
<!-- Node18&#45;&gt;Node21 -->
<g id="edge3" class="edge"><title>Node18&#45;&gt;Node21</title>
<path fill="none" stroke="midnightblue" d="M522.668,-63.8185C494.7,-53.3707 459.773,-40.3231 433.682,-30.5765"/>
<polygon fill="midnightblue" stroke="midnightblue" points="521.652,-67.1752 532.245,-67.396 524.102,-60.6178 521.652,-67.1752"/>
</g>
<!-- Node22 -->
<g id="node5" class="node"><title>Node22</title>
<g id="a_node5"><a xlink:href="../../d9/d7c/MethodHandler_8cpp.html" target="_top" xlink:title="src/modules/websock\l&#45;api/api/MethodHandler.cpp">
<polygon fill="white" stroke="black" points="502,-0.5 502,-30.5 638,-30.5 638,-0.5 502,-0.5"/>
<text text-anchor="start" x="510" y="-18.5" font-family="Helvetica,sans-Serif" font-size="10.00">src/modules/websock</text>
<text text-anchor="middle" x="570" y="-7.5" font-family="Helvetica,sans-Serif" font-size="10.00">&#45;api/api/MethodHandler.cpp</text>
</a>
</g>
</g>
<!-- Node18&#45;&gt;Node22 -->
<g id="edge4" class="edge"><title>Node18&#45;&gt;Node22</title>
<path fill="none" stroke="midnightblue" d="M570,-57.1081C570,-48.1539 570,-38.3227 570,-30.5765"/>
<polygon fill="midnightblue" stroke="midnightblue" points="566.5,-57.3959 570,-67.396 573.5,-57.396 566.5,-57.3959"/>
</g>
<!-- Node23 -->
<g id="node6" class="node"><title>Node23</title>
<g id="a_node6"><a xlink:href="../../d7/da0/PasswordChange_8cpp.html" target="_top" xlink:title="src/modules/websock\l&#45;api/api/PasswordChange.cpp">
<polygon fill="white" stroke="black" points="656.5,-0.5 656.5,-30.5 803.5,-30.5 803.5,-0.5 656.5,-0.5"/>
<text text-anchor="start" x="664.5" y="-18.5" font-family="Helvetica,sans-Serif" font-size="10.00">src/modules/websock</text>
<text text-anchor="middle" x="730" y="-7.5" font-family="Helvetica,sans-Serif" font-size="10.00">&#45;api/api/PasswordChange.cpp</text>
</a>
</g>
</g>
<!-- Node18&#45;&gt;Node23 -->
<g id="edge5" class="edge"><title>Node18&#45;&gt;Node23</title>
<path fill="none" stroke="midnightblue" d="M614.199,-63.5442C639.802,-53.143 671.568,-40.238 695.35,-30.5765"/>
<polygon fill="midnightblue" stroke="midnightblue" points="612.665,-60.3895 604.718,-67.396 615.3,-66.8748 612.665,-60.3895"/>
</g>
<!-- Node24 -->
<g id="node7" class="node"><title>Node24</title>
<g id="a_node7"><a xlink:href="../../d7/d0b/ExceptionConverter_8cpp.html" target="_top" xlink:title="src/modules/websock\l&#45;api/ExceptionConverter.cpp">
<polygon fill="white" stroke="black" points="822,-0.5 822,-30.5 962,-30.5 962,-0.5 822,-0.5"/>
<text text-anchor="start" x="830" y="-18.5" font-family="Helvetica,sans-Serif" font-size="10.00">src/modules/websock</text>
<text text-anchor="middle" x="892" y="-7.5" font-family="Helvetica,sans-Serif" font-size="10.00">&#45;api/ExceptionConverter.cpp</text>
</a>
</g>
</g>
<!-- Node18&#45;&gt;Node24 -->
<g id="edge6" class="edge"><title>Node18&#45;&gt;Node24</title>
<path fill="none" stroke="midnightblue" d="M643.421,-66.6789C697.143,-55.8345 769.564,-41.2153 822.376,-30.5546"/>
<polygon fill="midnightblue" stroke="midnightblue" points="642.727,-63.2485 633.617,-68.6581 644.112,-70.1101 642.727,-63.2485"/>
</g>
<!-- Node25 -->
<g id="node8" class="node"><title>Node25</title>
<g id="a_node8"><a xlink:href="../../d4/d2c/WSServer_8cpp.html" target="_top" xlink:title="src/modules/websock\l&#45;api/WSServer.cpp">
<polygon fill="white" stroke="black" points="980,-0.5 980,-30.5 1092,-30.5 1092,-0.5 980,-0.5"/>
<text text-anchor="start" x="988" y="-18.5" font-family="Helvetica,sans-Serif" font-size="10.00">src/modules/websock</text>
<text text-anchor="middle" x="1036" y="-7.5" font-family="Helvetica,sans-Serif" font-size="10.00">&#45;api/WSServer.cpp</text>
</a>
</g>
</g>
<!-- Node18&#45;&gt;Node25 -->
<g id="edge7" class="edge"><title>Node18&#45;&gt;Node25</title>
<path fill="none" stroke="midnightblue" d="M643.885,-74.3037C724.579,-65.9541 857.474,-50.7658 971,-31 973.848,-30.5042 976.759,-29.9669 979.695,-29.4011"/>
<polygon fill="midnightblue" stroke="midnightblue" points="643.414,-70.8337 633.824,-75.3373 644.129,-77.797 643.414,-70.8337"/>
</g>
</g>
</svg>
