<?xml version="1.0" encoding="UTF-8" standalone="no"?>
<!DOCTYPE svg PUBLIC "-//W3C//DTD SVG 1.1//EN"
 "http://www.w3.org/Graphics/SVG/1.1/DTD/svg11.dtd">
<!-- Generated by graphviz version 2.38.0 (20140413.2041)
 -->
<!-- Title: src/exception/ExceptionsTools.cpp Pages: 1 -->
<!--zoomable 151 -->
<svg id="main" version="1.1" xmlns="http://www.w3.org/2000/svg" xmlns:xlink="http://www.w3.org/1999/xlink" xml:space="preserve" onload="init(evt)">
<style type="text/css"><![CDATA[
.edge:hover path { stroke: red; }
.edge:hover polygon { stroke: red; fill: red; }
]]></style>
<script type="text/javascript"><![CDATA[
var edges = document.getElementsByTagName('g');
if (edges && edges.length) {
  for (var i=0;i<edges.length;i++) {
    if (edges[i].id.substr(0,4)=='edge') {
      edges[i].setAttribute('class','edge');
    }
  }
}
]]></script>
        <defs>
                <circle id="rim" cx="0" cy="0" r="7"/>
                <circle id="rim2" cx="0" cy="0" r="3.5"/>
                <g id="zoomPlus">
                        <use xlink:href="#rim" fill="#404040">
                                <set attributeName="fill" to="#808080" begin="zoomplus.mouseover" end="zoomplus.mouseout"/>
                        </use>
                        <path d="M-4,0h8M0,-4v8" fill="none" stroke="white" stroke-width="1.5" pointer-events="none"/>
                </g>
                <g id="zoomMin">
                        <use xlink:href="#rim" fill="#404040">
                                <set attributeName="fill" to="#808080" begin="zoomminus.mouseover" end="zoomminus.mouseout"/>
                        </use>
                        <path d="M-4,0h8" fill="none" stroke="white" stroke-width="1.5" pointer-events="none"/>
                </g>
                <g id="dirArrow">
                        <path fill="none" stroke="white" stroke-width="1.5" d="M0,-3.0v7 M-2.5,-0.5L0,-3.0L2.5,-0.5"/>
                </g>
               <g id="resetDef">
                       <use xlink:href="#rim2" fill="#404040">
                               <set attributeName="fill" to="#808080" begin="reset.mouseover" end="reset.mouseout"/>
                       </use>
               </g>
        </defs>

<script type="text/javascript">
var viewWidth = 540;
var viewHeight = 151;
var sectionId = 'dynsection-0';
</script>
<script xlink:href="../../svgpan.js"/>
<svg id="graph" class="graph">
<g id="viewport">
<title>src/exception/ExceptionsTools.cpp</title>
<polygon fill="white" stroke="none" points="-4,4 -4,-147 535.5,-147 535.5,4 -4,4"/>
<!-- Node0 -->
<g id="node1" class="node"><title>Node0</title>
<polygon fill="#bfbfbf" stroke="black" points="110.5,-112.5 110.5,-142.5 237.5,-142.5 237.5,-112.5 110.5,-112.5"/>
<text text-anchor="start" x="118.5" y="-130.5" font-family="Helvetica,sans-Serif" font-size="10.00">src/exception/Exceptions</text>
<text text-anchor="middle" x="174" y="-119.5" font-family="Helvetica,sans-Serif" font-size="10.00">Tools.cpp</text>
</g>
<!-- Node1 -->
<g id="node2" class="node"><title>Node1</title>
<g id="a_node2"><a xlink:href="../../dc/dbd/ExceptionsTools_8hpp.html" target="_top" xlink:title="ExceptionsTools.hpp">
<polygon fill="white" stroke="black" points="0,-56.5 0,-75.5 108,-75.5 108,-56.5 0,-56.5"/>
<text text-anchor="middle" x="54" y="-63.5" font-family="Helvetica,sans-Serif" font-size="10.00">ExceptionsTools.hpp</text>
</a>
</g>
</g>
<!-- Node0&#45;&gt;Node1 -->
<g id="edge1" class="edge"><title>Node0&#45;&gt;Node1</title>
<path fill="none" stroke="midnightblue" d="M145.562,-112.399C125.877,-102.639 99.8567,-89.7373 80.5868,-80.1826"/>
<polygon fill="midnightblue" stroke="midnightblue" points="81.975,-76.9644 71.4611,-75.6578 78.8654,-83.2358 81.975,-76.9644"/>
</g>
<!-- Node3 -->
<g id="node4" class="node"><title>Node3</title>
<g id="a_node4"><a xlink:href="../../dd/d35/Colorize_8hpp.html" target="_top" xlink:title="tools/Colorize.hpp">
<polygon fill="white" stroke="black" points="126.5,-56.5 126.5,-75.5 221.5,-75.5 221.5,-56.5 126.5,-56.5"/>
<text text-anchor="middle" x="174" y="-63.5" font-family="Helvetica,sans-Serif" font-size="10.00">tools/Colorize.hpp</text>
</a>
</g>
</g>
<!-- Node0&#45;&gt;Node3 -->
<g id="edge3" class="edge"><title>Node0&#45;&gt;Node3</title>
<path fill="none" stroke="midnightblue" d="M174,-112.399C174,-104.466 174,-94.458 174,-85.8583"/>
<polygon fill="midnightblue" stroke="midnightblue" points="177.5,-85.6577 174,-75.6578 170.5,-85.6578 177.5,-85.6577"/>
</g>
<!-- Node6 -->
<g id="node7" class="node"><title>Node6</title>
<g id="a_node7"><a xlink:href="../../d4/d3d/log_8hpp.html" target="_top" xlink:title="tools/log.hpp">
<polygon fill="white" stroke="black" points="240,-56.5 240,-75.5 312,-75.5 312,-56.5 240,-56.5"/>
<text text-anchor="middle" x="276" y="-63.5" font-family="Helvetica,sans-Serif" font-size="10.00">tools/log.hpp</text>
</a>
</g>
</g>
<!-- Node0&#45;&gt;Node6 -->
<g id="edge6" class="edge"><title>Node0&#45;&gt;Node6</title>
<path fill="none" stroke="midnightblue" d="M198.173,-112.399C214.522,-102.862 236.015,-90.3248 252.27,-80.8422"/>
<polygon fill="midnightblue" stroke="midnightblue" points="254.284,-83.7198 261.158,-75.6578 250.757,-77.6733 254.284,-83.7198"/>
</g>
<!-- Node2 -->
<g id="node3" class="node"><title>Node2</title>
<polygon fill="white" stroke="#bfbfbf" points="24.5,-0.5 24.5,-19.5 83.5,-19.5 83.5,-0.5 24.5,-0.5"/>
<text text-anchor="middle" x="54" y="-7.5" font-family="Helvetica,sans-Serif" font-size="10.00">exception</text>
</g>
<!-- Node1&#45;&gt;Node2 -->
<g id="edge2" class="edge"><title>Node1&#45;&gt;Node2</title>
<path fill="none" stroke="midnightblue" d="M54,-56.083C54,-49.0059 54,-38.8611 54,-29.9865"/>
<polygon fill="midnightblue" stroke="midnightblue" points="57.5001,-29.751 54,-19.7511 50.5001,-29.7511 57.5001,-29.751"/>
</g>
<!-- Node4 -->
<g id="node5" class="node"><title>Node4</title>
<polygon fill="white" stroke="#bfbfbf" points="171,-0.5 171,-19.5 223,-19.5 223,-0.5 171,-0.5"/>
<text text-anchor="middle" x="197" y="-7.5" font-family="Helvetica,sans-Serif" font-size="10.00">sstream</text>
</g>
<!-- Node3&#45;&gt;Node4 -->
<g id="edge4" class="edge"><title>Node3&#45;&gt;Node4</title>
<path fill="none" stroke="midnightblue" d="M177.798,-56.083C180.913,-48.77 185.423,-38.1814 189.289,-29.1034"/>
<polygon fill="midnightblue" stroke="midnightblue" points="192.574,-30.3229 193.273,-19.7511 186.134,-27.5798 192.574,-30.3229"/>
</g>
<!-- Node5 -->
<g id="node6" class="node"><title>Node5</title>
<polygon fill="white" stroke="#bfbfbf" points="111.5,-0.5 111.5,-19.5 152.5,-19.5 152.5,-0.5 111.5,-0.5"/>
<text text-anchor="middle" x="132" y="-7.5" font-family="Helvetica,sans-Serif" font-size="10.00">string</text>
</g>
<!-- Node3&#45;&gt;Node5 -->
<g id="edge5" class="edge"><title>Node3&#45;&gt;Node5</title>
<path fill="none" stroke="midnightblue" d="M167.065,-56.083C161.071,-48.3768 152.248,-37.0333 144.952,-27.6531"/>
<polygon fill="midnightblue" stroke="midnightblue" points="147.709,-25.4958 138.806,-19.7511 142.183,-29.7934 147.709,-25.4958"/>
</g>
<!-- Node6&#45;&gt;Node4 -->
<g id="edge11" class="edge"><title>Node6&#45;&gt;Node4</title>
<path fill="none" stroke="midnightblue" d="M263.307,-56.324C251.099,-47.979 232.422,-35.2122 217.997,-25.3524"/>
<polygon fill="midnightblue" stroke="midnightblue" points="219.892,-22.4082 209.661,-19.6545 215.942,-28.1871 219.892,-22.4082"/>
</g>
<!-- Node6&#45;&gt;Node5 -->
<g id="edge12" class="edge"><title>Node6&#45;&gt;Node5</title>
<path fill="none" stroke="midnightblue" d="M253.183,-56.4435C228.603,-47.2262 189.375,-32.5157 162.241,-22.3402"/>
<polygon fill="midnightblue" stroke="midnightblue" points="163.433,-19.0492 152.84,-18.8151 160.975,-25.6036 163.433,-19.0492"/>
</g>
<!-- Node7 -->
<g id="node8" class="node"><title>Node7</title>
<polygon fill="white" stroke="#bfbfbf" points="482.5,-0.5 482.5,-19.5 531.5,-19.5 531.5,-0.5 482.5,-0.5"/>
<text text-anchor="middle" x="507" y="-7.5" font-family="Helvetica,sans-Serif" font-size="10.00">cassert</text>
</g>
<!-- Node6&#45;&gt;Node7 -->
<g id="edge7" class="edge"><title>Node6&#45;&gt;Node7</title>
<path fill="none" stroke="midnightblue" d="M312.241,-57.2509C350.008,-49.0678 411.134,-35.5226 472.343,-20.3451"/>
<polygon fill="midnightblue" stroke="midnightblue" points="473.308,-23.7118 482.164,-17.8958 471.614,-16.9198 473.308,-23.7118"/>
</g>
<!-- Node8 -->
<g id="node9" class="node"><title>Node8</title>
<polygon fill="white" stroke="#bfbfbf" points="241.5,-0.5 241.5,-19.5 288.5,-19.5 288.5,-0.5 241.5,-0.5"/>
<text text-anchor="middle" x="265" y="-7.5" font-family="Helvetica,sans-Serif" font-size="10.00">csignal</text>
</g>
<!-- Node6&#45;&gt;Node8 -->
<g id="edge8" class="edge"><title>Node6&#45;&gt;Node8</title>
<path fill="none" stroke="midnightblue" d="M274.184,-56.083C272.726,-48.9272 270.629,-38.6353 268.807,-29.6911"/>
<polygon fill="midnightblue" stroke="midnightblue" points="272.208,-28.8512 266.783,-19.7511 265.349,-30.2485 272.208,-28.8512"/>
</g>
<!-- Node9 -->
<g id="node10" class="node"><title>Node9</title>
<polygon fill="white" stroke="#bfbfbf" points="307,-0.5 307,-19.5 361,-19.5 361,-0.5 307,-0.5"/>
<text text-anchor="middle" x="334" y="-7.5" font-family="Helvetica,sans-Serif" font-size="10.00">iostream</text>
</g>
<!-- Node6&#45;&gt;Node9 -->
<g id="edge9" class="edge"><title>Node6&#45;&gt;Node9</title>
<path fill="none" stroke="midnightblue" d="M285.319,-56.324C293.893,-48.3414 306.812,-36.3128 317.188,-26.6529"/>
<polygon fill="midnightblue" stroke="midnightblue" points="319.578,-29.2098 324.512,-19.8339 314.808,-24.0865 319.578,-29.2098"/>
</g>
<!-- Node10 -->
<g id="node11" class="node"><title>Node10</title>
<polygon fill="white" stroke="#bfbfbf" points="379.5,-0.5 379.5,-19.5 464.5,-19.5 464.5,-0.5 379.5,-0.5"/>
<text text-anchor="middle" x="422" y="-7.5" font-family="Helvetica,sans-Serif" font-size="10.00">spdlog/spdlog.h</text>
</g>
<!-- Node6&#45;&gt;Node10 -->
<g id="edge10" class="edge"><title>Node6&#45;&gt;Node10</title>
<path fill="none" stroke="midnightblue" d="M299.134,-56.4435C323.482,-47.4381 362.007,-33.1891 389.423,-23.049"/>
<polygon fill="midnightblue" stroke="midnightblue" points="390.809,-26.2681 398.974,-19.5164 388.381,-19.7028 390.809,-26.2681"/>
</g>
</g>
</svg>
        <g id="navigator" transform="translate(0 0)" fill="#404254">
                <rect fill="#f2f5e9" fill-opacity="0.5" stroke="#606060" stroke-width=".5" x="0" y="0" width="60" height="60"/>
                <use id="zoomplus" xlink:href="#zoomPlus" x="17" y="9" onmousedown="handleZoom(evt,'in')"/>
                <use id="zoomminus" xlink:href="#zoomMin" x="42" y="9" onmousedown="handleZoom(evt,'out')"/>
                <use id="reset" xlink:href="#resetDef" x="30" y="36" onmousedown="handleReset()"/>
                <g id="arrowUp" xlink:href="#dirArrow" transform="translate(30 24)" onmousedown="handlePan(0,-1)">
                  <use xlink:href="#rim" fill="#404040">
                        <set attributeName="fill" to="#808080" begin="arrowUp.mouseover" end="arrowUp.mouseout"/>
                  </use>
                  <path fill="none" stroke="white" stroke-width="1.5" d="M0,-3.0v7 M-2.5,-0.5L0,-3.0L2.5,-0.5"/>
                </g>
                <g id="arrowRight" xlink:href="#dirArrow" transform="rotate(90) translate(36 -43)" onmousedown="handlePan(1,0)">
                  <use xlink:href="#rim" fill="#404040">
                        <set attributeName="fill" to="#808080" begin="arrowRight.mouseover" end="arrowRight.mouseout"/>
                  </use>
                  <path fill="none" stroke="white" stroke-width="1.5" d="M0,-3.0v7 M-2.5,-0.5L0,-3.0L2.5,-0.5"/>
                </g>
                <g id="arrowDown" xlink:href="#dirArrow" transform="rotate(180) translate(-30 -48)" onmousedown="handlePan(0,1)">
                  <use xlink:href="#rim" fill="#404040">
                        <set attributeName="fill" to="#808080" begin="arrowDown.mouseover" end="arrowDown.mouseout"/>
                  </use>
                  <path fill="none" stroke="white" stroke-width="1.5" d="M0,-3.0v7 M-2.5,-0.5L0,-3.0L2.5,-0.5"/>
                </g>
                <g id="arrowLeft" xlink:href="#dirArrow" transform="rotate(270) translate(-36 17)" onmousedown="handlePan(-1,0)">
                  <use xlink:href="#rim" fill="#404040">
                        <set attributeName="fill" to="#808080" begin="arrowLeft.mouseover" end="arrowLeft.mouseout"/>
                  </use>
                  <path fill="none" stroke="white" stroke-width="1.5" d="M0,-3.0v7 M-2.5,-0.5L0,-3.0L2.5,-0.5"/>
                </g>
        </g>
        <svg viewBox="0 0 15 15" width="100%" height="30px" preserveAspectRatio="xMaxYMin meet">
         <g id="arrow_out" transform="scale(0.3 0.3)">
          <a xlink:href="ExceptionsTools_8cpp__incl_org.svg" target="_base">
           <rect id="button" ry="5" rx="5" y="6" x="6" height="38" width="38"
                fill="#f2f5e9" fill-opacity="0.5" stroke="#606060" stroke-width="1.0"/>
           <path id="arrow"
             d="M 11.500037,31.436501 C 11.940474,20.09759 22.043105,11.32322 32.158766,21.979434 L 37.068811,17.246167 C 37.068811,17.246167 37.088388,32 37.088388,32 L 22.160133,31.978069 C 22.160133,31.978069 26.997745,27.140456 26.997745,27.140456 C 18.528582,18.264221 13.291696,25.230495 11.500037,31.436501 z"
             style="fill:#404040;"/>
          </a>
         </g>
        </svg>
</svg>
