<?xml version="1.0" encoding="UTF-8" standalone="no"?>
<!DOCTYPE svg PUBLIC "-//W3C//DTD SVG 1.1//EN"
 "http://www.w3.org/Graphics/SVG/1.1/DTD/svg11.dtd">
<!-- Generated by graphviz version 2.38.0 (20140413.2041)
 -->
<!-- Title: src/core/audit/UpdateEvent.hpp Pages: 1 -->
<svg width="334pt" height="84pt"
 viewBox="0.00 0.00 334.00 84.00" xmlns="http://www.w3.org/2000/svg" xmlns:xlink="http://www.w3.org/1999/xlink">
<g id="graph0" class="graph" transform="scale(1 1) rotate(0) translate(4 80)">
<title>src/core/audit/UpdateEvent.hpp</title>
<polygon fill="white" stroke="none" points="-4,4 -4,-80 330,-80 330,4 -4,4"/>
<!-- Node29 -->
<g id="node1" class="node"><title>Node29</title>
<polygon fill="#bfbfbf" stroke="black" points="85,-56.5 85,-75.5 240,-75.5 240,-56.5 85,-56.5"/>
<text text-anchor="middle" x="162.5" y="-63.5" font-family="Helvetica,sans-Serif" font-size="10.00">src/core/audit/UpdateEvent.hpp</text>
</g>
<!-- Node30 -->
<g id="node2" class="node"><title>Node30</title>
<g id="a_node2"><a xlink:href="../../d4/dbe/AuditFactory_8cpp.html" target="_top" xlink:title="src/core/audit/AuditFactory.cpp">
<polygon fill="white" stroke="black" points="0,-0.5 0,-19.5 153,-19.5 153,-0.5 0,-0.5"/>
<text text-anchor="middle" x="76.5" y="-7.5" font-family="Helvetica,sans-Serif" font-size="10.00">src/core/audit/AuditFactory.cpp</text>
</a>
</g>
</g>
<!-- Node29&#45;&gt;Node30 -->
<g id="edge1" class="edge"><title>Node29&#45;&gt;Node30</title>
<path fill="none" stroke="midnightblue" d="M140.045,-50.9005C124.276,-40.9986 103.686,-28.0705 90.2831,-19.6545"/>
<polygon fill="midnightblue" stroke="midnightblue" points="138.352,-53.9704 148.683,-56.324 142.075,-48.0421 138.352,-53.9704"/>
</g>
<!-- Node31 -->
<g id="node3" class="node"><title>Node31</title>
<g id="a_node3"><a xlink:href="../../d9/d05/UpdateEvent_8cpp.html" target="_top" xlink:title="src/core/audit/UpdateEvent.cpp">
<polygon fill="white" stroke="black" points="171,-0.5 171,-19.5 326,-19.5 326,-0.5 171,-0.5"/>
<text text-anchor="middle" x="248.5" y="-7.5" font-family="Helvetica,sans-Serif" font-size="10.00">src/core/audit/UpdateEvent.cpp</text>
</a>
</g>
</g>
<!-- Node29&#45;&gt;Node31 -->
<g id="edge2" class="edge"><title>Node29&#45;&gt;Node31</title>
<path fill="none" stroke="midnightblue" d="M184.955,-50.9005C200.724,-40.9986 221.314,-28.0705 234.717,-19.6545"/>
<polygon fill="midnightblue" stroke="midnightblue" points="182.925,-48.0421 176.317,-56.324 186.648,-53.9704 182.925,-48.0421"/>
</g>
</g>
</svg>
