<?xml version="1.0" encoding="UTF-8" standalone="no"?>
<!DOCTYPE svg PUBLIC "-//W3C//DTD SVG 1.1//EN"
 "http://www.w3.org/Graphics/SVG/1.1/DTD/svg11.dtd">
<!-- Generated by graphviz version 2.38.0 (20140413.2041)
 -->
<!-- Title: src/modules/led&#45;buzzer/LedBuzzerSM.hpp Pages: 1 -->
<svg width="400pt" height="240pt"
 viewBox="0.00 0.00 400.00 240.00" xmlns="http://www.w3.org/2000/svg" xmlns:xlink="http://www.w3.org/1999/xlink">
<g id="graph0" class="graph" transform="scale(1 1) rotate(0) translate(4 236)">
<title>src/modules/led&#45;buzzer/LedBuzzerSM.hpp</title>
<polygon fill="white" stroke="none" points="-4,4 -4,-236 396,-236 396,4 -4,4"/>
<!-- Node16 -->
<g id="node1" class="node"><title>Node16</title>
<polygon fill="#bfbfbf" stroke="black" points="205,-201.5 205,-231.5 323,-231.5 323,-201.5 205,-201.5"/>
<text text-anchor="start" x="213" y="-219.5" font-family="Helvetica,sans-Serif" font-size="10.00">src/modules/led&#45;buzzer</text>
<text text-anchor="middle" x="264" y="-208.5" font-family="Helvetica,sans-Serif" font-size="10.00">/LedBuzzerSM.hpp</text>
</g>
<!-- Node17 -->
<g id="node2" class="node"><title>Node17</title>
<g id="a_node2"><a xlink:href="../../d1/d1e/LedBuzzerImpl_8hpp.html" target="_top" xlink:title="src/modules/led&#45;buzzer\l/LedBuzzerImpl.hpp">
<polygon fill="white" stroke="black" points="205,-134.5 205,-164.5 323,-164.5 323,-134.5 205,-134.5"/>
<text text-anchor="start" x="213" y="-152.5" font-family="Helvetica,sans-Serif" font-size="10.00">src/modules/led&#45;buzzer</text>
<text text-anchor="middle" x="264" y="-141.5" font-family="Helvetica,sans-Serif" font-size="10.00">/LedBuzzerImpl.hpp</text>
</a>
</g>
</g>
<!-- Node16&#45;&gt;Node17 -->
<g id="edge1" class="edge"><title>Node16&#45;&gt;Node17</title>
<path fill="none" stroke="midnightblue" d="M264,-191.108C264,-182.154 264,-172.323 264,-164.577"/>
<polygon fill="midnightblue" stroke="midnightblue" points="260.5,-191.396 264,-201.396 267.5,-191.396 260.5,-191.396"/>
</g>
<!-- Node18 -->
<g id="node3" class="node"><title>Node18</title>
<g id="a_node3"><a xlink:href="../../dd/d33/LEDBuzzerModule_8hpp.html" target="_top" xlink:title="src/modules/led&#45;buzzer\l/LEDBuzzerModule.hpp">
<polygon fill="white" stroke="black" points="136,-67.5 136,-97.5 256,-97.5 256,-67.5 136,-67.5"/>
<text text-anchor="start" x="144" y="-85.5" font-family="Helvetica,sans-Serif" font-size="10.00">src/modules/led&#45;buzzer</text>
<text text-anchor="middle" x="196" y="-74.5" font-family="Helvetica,sans-Serif" font-size="10.00">/LEDBuzzerModule.hpp</text>
</a>
</g>
</g>
<!-- Node17&#45;&gt;Node18 -->
<g id="edge2" class="edge"><title>Node17&#45;&gt;Node18</title>
<path fill="none" stroke="midnightblue" d="M241.834,-127.311C231.633,-117.561 219.809,-106.259 210.726,-97.5765"/>
<polygon fill="midnightblue" stroke="midnightblue" points="239.598,-130.016 249.245,-134.396 244.435,-124.956 239.598,-130.016"/>
</g>
<!-- Node22 -->
<g id="node7" class="node"><title>Node22</title>
<g id="a_node7"><a xlink:href="../../df/d42/LedBuzzerImpl_8cpp.html" target="_top" xlink:title="src/modules/led&#45;buzzer\l/LedBuzzerImpl.cpp">
<polygon fill="white" stroke="black" points="274,-67.5 274,-97.5 392,-97.5 392,-67.5 274,-67.5"/>
<text text-anchor="start" x="282" y="-85.5" font-family="Helvetica,sans-Serif" font-size="10.00">src/modules/led&#45;buzzer</text>
<text text-anchor="middle" x="333" y="-74.5" font-family="Helvetica,sans-Serif" font-size="10.00">/LedBuzzerImpl.cpp</text>
</a>
</g>
</g>
<!-- Node17&#45;&gt;Node22 -->
<g id="edge6" class="edge"><title>Node17&#45;&gt;Node22</title>
<path fill="none" stroke="midnightblue" d="M286.492,-127.311C296.843,-117.561 308.84,-106.259 318.057,-97.5765"/>
<polygon fill="midnightblue" stroke="midnightblue" points="283.851,-124.991 278.972,-134.396 288.651,-130.087 283.851,-124.991"/>
</g>
<!-- Node19 -->
<g id="node4" class="node"><title>Node19</title>
<g id="a_node4"><a xlink:href="../../d4/db4/led-buzzer_2init_8cpp.html" target="_top" xlink:title="src/modules/led&#45;buzzer\l/init.cpp">
<polygon fill="white" stroke="black" points="0,-0.5 0,-30.5 118,-30.5 118,-0.5 0,-0.5"/>
<text text-anchor="start" x="8" y="-18.5" font-family="Helvetica,sans-Serif" font-size="10.00">src/modules/led&#45;buzzer</text>
<text text-anchor="middle" x="59" y="-7.5" font-family="Helvetica,sans-Serif" font-size="10.00">/init.cpp</text>
</a>
</g>
</g>
<!-- Node18&#45;&gt;Node19 -->
<g id="edge3" class="edge"><title>Node18&#45;&gt;Node19</title>
<path fill="none" stroke="midnightblue" d="M156.991,-62.9921C135.276,-52.6892 108.673,-40.0677 88.6689,-30.5765"/>
<polygon fill="midnightblue" stroke="midnightblue" points="155.738,-66.2715 166.273,-67.396 158.739,-59.9472 155.738,-66.2715"/>
</g>
<!-- Node20 -->
<g id="node5" class="node"><title>Node20</title>
<g id="a_node5"><a xlink:href="../../d7/d36/LEDBuzzerModule_8cpp.html" target="_top" xlink:title="src/modules/led&#45;buzzer\l/LEDBuzzerModule.cpp">
<polygon fill="white" stroke="black" points="136,-0.5 136,-30.5 256,-30.5 256,-0.5 136,-0.5"/>
<text text-anchor="start" x="144" y="-18.5" font-family="Helvetica,sans-Serif" font-size="10.00">src/modules/led&#45;buzzer</text>
<text text-anchor="middle" x="196" y="-7.5" font-family="Helvetica,sans-Serif" font-size="10.00">/LEDBuzzerModule.cpp</text>
</a>
</g>
</g>
<!-- Node18&#45;&gt;Node20 -->
<g id="edge4" class="edge"><title>Node18&#45;&gt;Node20</title>
<path fill="none" stroke="midnightblue" d="M196,-57.1081C196,-48.1539 196,-38.3227 196,-30.5765"/>
<polygon fill="midnightblue" stroke="midnightblue" points="192.5,-57.3959 196,-67.396 199.5,-57.396 192.5,-57.3959"/>
</g>
<!-- Node21 -->
<g id="node6" class="node"><title>Node21</title>
<g id="a_node6"><a xlink:href="../../d9/d21/Led_8cpp.html" target="_top" xlink:title="test/Led.cpp">
<polygon fill="white" stroke="black" points="274.5,-6 274.5,-25 345.5,-25 345.5,-6 274.5,-6"/>
<text text-anchor="middle" x="310" y="-13" font-family="Helvetica,sans-Serif" font-size="10.00">test/Led.cpp</text>
</a>
</g>
</g>
<!-- Node18&#45;&gt;Node21 -->
<g id="edge5" class="edge"><title>Node18&#45;&gt;Node21</title>
<path fill="none" stroke="midnightblue" d="M229.661,-62.3071C251.377,-49.9256 278.554,-34.4296 295.08,-25.007"/>
<polygon fill="midnightblue" stroke="midnightblue" points="227.69,-59.4022 220.736,-67.396 231.157,-65.4832 227.69,-59.4022"/>
</g>
</g>
</svg>
