<?xml version="1.0" encoding="UTF-8" standalone="no"?>
<!DOCTYPE svg PUBLIC "-//W3C//DTD SVG 1.1//EN"
 "http://www.w3.org/Graphics/SVG/1.1/DTD/svg11.dtd">
<!-- Generated by graphviz version 2.38.0 (20140413.2041)
 -->
<!-- Title: src/modules/wiegand/ws/WiegandConfigSerializer.hpp Pages: 1 -->
<!--zoomable 442 -->
<svg id="main" version="1.1" xmlns="http://www.w3.org/2000/svg" xmlns:xlink="http://www.w3.org/1999/xlink" xml:space="preserve" onload="init(evt)">
<style type="text/css"><![CDATA[
.edge:hover path { stroke: red; }
.edge:hover polygon { stroke: red; fill: red; }
]]></style>
<script type="text/javascript"><![CDATA[
var edges = document.getElementsByTagName('g');
if (edges && edges.length) {
  for (var i=0;i<edges.length;i++) {
    if (edges[i].id.substr(0,4)=='edge') {
      edges[i].setAttribute('class','edge');
    }
  }
}
]]></script>
        <defs>
                <circle id="rim" cx="0" cy="0" r="7"/>
                <circle id="rim2" cx="0" cy="0" r="3.5"/>
                <g id="zoomPlus">
                        <use xlink:href="#rim" fill="#404040">
                                <set attributeName="fill" to="#808080" begin="zoomplus.mouseover" end="zoomplus.mouseout"/>
                        </use>
                        <path d="M-4,0h8M0,-4v8" fill="none" stroke="white" stroke-width="1.5" pointer-events="none"/>
                </g>
                <g id="zoomMin">
                        <use xlink:href="#rim" fill="#404040">
                                <set attributeName="fill" to="#808080" begin="zoomminus.mouseover" end="zoomminus.mouseout"/>
                        </use>
                        <path d="M-4,0h8" fill="none" stroke="white" stroke-width="1.5" pointer-events="none"/>
                </g>
                <g id="dirArrow">
                        <path fill="none" stroke="white" stroke-width="1.5" d="M0,-3.0v7 M-2.5,-0.5L0,-3.0L2.5,-0.5"/>
                </g>
               <g id="resetDef">
                       <use xlink:href="#rim2" fill="#404040">
                               <set attributeName="fill" to="#808080" begin="reset.mouseover" end="reset.mouseout"/>
                       </use>
               </g>
        </defs>

<script type="text/javascript">
var viewWidth = 2128;
var viewHeight = 442;
var sectionId = 'dynsection-0';
</script>
<script xlink:href="../../svgpan.js"/>
<svg id="graph" class="graph">
<g id="viewport">
<title>src/modules/wiegand/ws/WiegandConfigSerializer.hpp</title>
<polygon fill="white" stroke="none" points="-4,4 -4,-438 2123.53,-438 2123.53,4 -4,4"/>
<!-- Node0 -->
<g id="node1" class="node"><title>Node0</title>
<polygon fill="#bfbfbf" stroke="black" points="1539,-403.5 1539,-433.5 1700,-433.5 1700,-403.5 1539,-403.5"/>
<text text-anchor="start" x="1547" y="-421.5" font-family="Helvetica,sans-Serif" font-size="10.00">src/modules/wiegand</text>
<text text-anchor="middle" x="1619.5" y="-410.5" font-family="Helvetica,sans-Serif" font-size="10.00">/ws/WiegandConfigSerializer.hpp</text>
</g>
<!-- Node1 -->
<g id="node2" class="node"><title>Node1</title>
<g id="a_node2"><a xlink:href="../../dc/d49/LeosacFwd_8hpp.html" target="_top" xlink:title="LeosacFwd.hpp">
<polygon fill="white" stroke="black" points="1148.5,-347.5 1148.5,-366.5 1234.5,-366.5 1234.5,-347.5 1148.5,-347.5"/>
<text text-anchor="middle" x="1191.5" y="-354.5" font-family="Helvetica,sans-Serif" font-size="10.00">LeosacFwd.hpp</text>
</a>
</g>
</g>
<!-- Node0&#45;&gt;Node1 -->
<g id="edge1" class="edge"><title>Node0&#45;&gt;Node1</title>
<path fill="none" stroke="midnightblue" d="M1539,-406.309C1452.85,-394.332 1318.64,-375.675 1244.76,-365.404"/>
<polygon fill="midnightblue" stroke="midnightblue" points="1245.13,-361.922 1234.74,-364.012 1244.17,-368.855 1245.13,-361.922"/>
</g>
<!-- Node4 -->
<g id="node5" class="node"><title>Node4</title>
<g id="a_node5"><a xlink:href="../../d8/df5/WiegandConfig_8hpp.html" target="_top" xlink:title="modules/wiegand/WiegandConfig.hpp">
<polygon fill="white" stroke="black" points="1529,-347.5 1529,-366.5 1710,-366.5 1710,-347.5 1529,-347.5"/>
<text text-anchor="middle" x="1619.5" y="-354.5" font-family="Helvetica,sans-Serif" font-size="10.00">modules/wiegand/WiegandConfig.hpp</text>
</a>
</g>
</g>
<!-- Node0&#45;&gt;Node4 -->
<g id="edge4" class="edge"><title>Node0&#45;&gt;Node4</title>
<path fill="none" stroke="midnightblue" d="M1619.5,-403.399C1619.5,-395.466 1619.5,-385.458 1619.5,-376.858"/>
<polygon fill="midnightblue" stroke="midnightblue" points="1623,-376.658 1619.5,-366.658 1616,-376.658 1623,-376.658"/>
</g>
<!-- Node41 -->
<g id="node42" class="node"><title>Node41</title>
<polygon fill="white" stroke="#bfbfbf" points="1728,-347.5 1728,-366.5 1781,-366.5 1781,-347.5 1728,-347.5"/>
<text text-anchor="middle" x="1754.5" y="-354.5" font-family="Helvetica,sans-Serif" font-size="10.00">json.hpp</text>
</g>
<!-- Node0&#45;&gt;Node41 -->
<g id="edge71" class="edge"><title>Node0&#45;&gt;Node41</title>
<path fill="none" stroke="midnightblue" d="M1651.49,-403.399C1673.94,-393.505 1703.71,-380.383 1725.48,-370.792"/>
<polygon fill="midnightblue" stroke="midnightblue" points="1727.12,-373.894 1734.86,-366.658 1724.29,-367.488 1727.12,-373.894"/>
</g>
<!-- Node2 -->
<g id="node3" class="node"><title>Node2</title>
<polygon fill="white" stroke="#bfbfbf" points="897.5,-56.5 897.5,-75.5 949.5,-75.5 949.5,-56.5 897.5,-56.5"/>
<text text-anchor="middle" x="923.5" y="-63.5" font-family="Helvetica,sans-Serif" font-size="10.00">memory</text>
</g>
<!-- Node1&#45;&gt;Node2 -->
<g id="edge2" class="edge"><title>Node1&#45;&gt;Node2</title>
<path fill="none" stroke="midnightblue" d="M1176.58,-347.331C1151.19,-331.867 1099.41,-297.159 1069.5,-255 1030.28,-199.722 1062.08,-162.166 1016.5,-112 1001.3,-95.2688 978.524,-84.1049 959.318,-77.0817"/>
<polygon fill="midnightblue" stroke="midnightblue" points="960.253,-73.7026 949.659,-73.7789 957.989,-80.3261 960.253,-73.7026"/>
</g>
<!-- Node3 -->
<g id="node4" class="node"><title>Node3</title>
<polygon fill="white" stroke="#bfbfbf" points="1169.5,-291.5 1169.5,-310.5 1213.5,-310.5 1213.5,-291.5 1169.5,-291.5"/>
<text text-anchor="middle" x="1191.5" y="-298.5" font-family="Helvetica,sans-Serif" font-size="10.00">vector</text>
</g>
<!-- Node1&#45;&gt;Node3 -->
<g id="edge3" class="edge"><title>Node1&#45;&gt;Node3</title>
<path fill="none" stroke="midnightblue" d="M1191.5,-347.083C1191.5,-340.006 1191.5,-329.861 1191.5,-320.986"/>
<polygon fill="midnightblue" stroke="midnightblue" points="1195,-320.751 1191.5,-310.751 1188,-320.751 1195,-320.751"/>
</g>
<!-- Node5 -->
<g id="node6" class="node"><title>Node5</title>
<g id="a_node6"><a xlink:href="../../d9/d02/GPIO_8hpp.html" target="_top" xlink:title="hardware/GPIO.hpp">
<polygon fill="white" stroke="black" points="1879,-291.5 1879,-310.5 1982,-310.5 1982,-291.5 1879,-291.5"/>
<text text-anchor="middle" x="1930.5" y="-298.5" font-family="Helvetica,sans-Serif" font-size="10.00">hardware/GPIO.hpp</text>
</a>
</g>
</g>
<!-- Node4&#45;&gt;Node5 -->
<g id="edge5" class="edge"><title>Node4&#45;&gt;Node5</title>
<path fill="none" stroke="midnightblue" d="M1668.78,-347.444C1723.83,-337.885 1812.9,-322.419 1871.58,-312.23"/>
<polygon fill="midnightblue" stroke="midnightblue" points="1872.2,-315.676 1881.45,-310.516 1871,-308.779 1872.2,-315.676"/>
</g>
<!-- Node7 -->
<g id="node8" class="node"><title>Node7</title>
<g id="a_node8"><a xlink:href="../../d9/dc8/HardwareFwd_8hpp.html" target="_top" xlink:title="hardware/HardwareFwd.hpp">
<polygon fill="white" stroke="black" points="1586,-179.5 1586,-198.5 1725,-198.5 1725,-179.5 1586,-179.5"/>
<text text-anchor="middle" x="1655.5" y="-186.5" font-family="Helvetica,sans-Serif" font-size="10.00">hardware/HardwareFwd.hpp</text>
</a>
</g>
</g>
<!-- Node4&#45;&gt;Node7 -->
<g id="edge25" class="edge"><title>Node4&#45;&gt;Node7</title>
<path fill="none" stroke="midnightblue" d="M1622.5,-347.461C1625.57,-338.473 1630.34,-323.872 1633.5,-311 1642.29,-275.182 1649.24,-232.611 1652.82,-208.708"/>
<polygon fill="midnightblue" stroke="midnightblue" points="1656.32,-208.986 1654.31,-198.584 1649.39,-207.971 1656.32,-208.986"/>
</g>
<!-- Node17 -->
<g id="node18" class="node"><title>Node17</title>
<g id="a_node18"><a xlink:href="../../d4/d66/RFIDReader_8hpp.html" target="_top" xlink:title="hardware/RFIDReader.hpp">
<polygon fill="white" stroke="black" points="1704.5,-291.5 1704.5,-310.5 1838.5,-310.5 1838.5,-291.5 1704.5,-291.5"/>
<text text-anchor="middle" x="1771.5" y="-298.5" font-family="Helvetica,sans-Serif" font-size="10.00">hardware/RFIDReader.hpp</text>
</a>
</g>
</g>
<!-- Node4&#45;&gt;Node17 -->
<g id="edge26" class="edge"><title>Node4&#45;&gt;Node17</title>
<path fill="none" stroke="midnightblue" d="M1643.58,-347.444C1669.04,-338.399 1709.39,-324.064 1737.96,-313.916"/>
<polygon fill="midnightblue" stroke="midnightblue" points="1739.28,-317.162 1747.53,-310.516 1736.93,-310.566 1739.28,-317.162"/>
</g>
<!-- Node18 -->
<g id="node19" class="node"><title>Node18</title>
<g id="a_node19"><a xlink:href="../../d5/d90/WiegandFwd_8hpp.html" target="_top" xlink:title="modules/wiegand/WiegandFwd.hpp">
<polygon fill="white" stroke="black" points="1281,-179.5 1281,-198.5 1452,-198.5 1452,-179.5 1281,-179.5"/>
<text text-anchor="middle" x="1366.5" y="-186.5" font-family="Helvetica,sans-Serif" font-size="10.00">modules/wiegand/WiegandFwd.hpp</text>
</a>
</g>
</g>
<!-- Node4&#45;&gt;Node18 -->
<g id="edge33" class="edge"><title>Node4&#45;&gt;Node18</title>
<path fill="none" stroke="midnightblue" d="M1621.14,-347.239C1624.75,-325.081 1630.79,-266.347 1600.5,-235 1581.25,-215.075 1518.07,-203.68 1462.21,-197.345"/>
<polygon fill="midnightblue" stroke="midnightblue" points="1462.56,-193.862 1452.24,-196.258 1461.8,-200.821 1462.56,-193.862"/>
</g>
<!-- Node19 -->
<g id="node20" class="node"><title>Node19</title>
<g id="a_node20"><a xlink:href="../../df/da2/database_8hpp.html" target="_top" xlink:title="tools/db/database.hpp">
<polygon fill="white" stroke="black" points="1323,-291.5 1323,-310.5 1436,-310.5 1436,-291.5 1323,-291.5"/>
<text text-anchor="middle" x="1379.5" y="-298.5" font-family="Helvetica,sans-Serif" font-size="10.00">tools/db/database.hpp</text>
</a>
</g>
</g>
<!-- Node4&#45;&gt;Node19 -->
<g id="edge35" class="edge"><title>Node4&#45;&gt;Node19</title>
<path fill="none" stroke="midnightblue" d="M1581.47,-347.444C1539.69,-338.043 1472.52,-322.929 1427.23,-312.739"/>
<polygon fill="midnightblue" stroke="midnightblue" points="1427.88,-309.297 1417.35,-310.516 1426.34,-316.126 1427.88,-309.297"/>
</g>
<!-- Node40 -->
<g id="node41" class="node"><title>Node40</title>
<polygon fill="white" stroke="#bfbfbf" points="1545.5,-291.5 1545.5,-310.5 1591.5,-310.5 1591.5,-291.5 1545.5,-291.5"/>
<text text-anchor="middle" x="1568.5" y="-298.5" font-family="Helvetica,sans-Serif" font-size="10.00">chrono</text>
</g>
<!-- Node4&#45;&gt;Node40 -->
<g id="edge70" class="edge"><title>Node4&#45;&gt;Node40</title>
<path fill="none" stroke="midnightblue" d="M1611.08,-347.083C1603.65,-339.22 1592.65,-327.569 1583.69,-318.081"/>
<polygon fill="midnightblue" stroke="midnightblue" points="1586.18,-315.618 1576.76,-310.751 1581.09,-320.424 1586.18,-315.618"/>
</g>
<!-- Node6 -->
<g id="node7" class="node"><title>Node6</title>
<g id="a_node7"><a xlink:href="../../da/d14/Device_8hpp.html" target="_top" xlink:title="hardware/Device.hpp">
<polygon fill="white" stroke="black" points="1876,-235.5 1876,-254.5 1985,-254.5 1985,-235.5 1876,-235.5"/>
<text text-anchor="middle" x="1930.5" y="-242.5" font-family="Helvetica,sans-Serif" font-size="10.00">hardware/Device.hpp</text>
</a>
</g>
</g>
<!-- Node5&#45;&gt;Node6 -->
<g id="edge6" class="edge"><title>Node5&#45;&gt;Node6</title>
<path fill="none" stroke="midnightblue" d="M1930.5,-291.083C1930.5,-284.006 1930.5,-273.861 1930.5,-264.986"/>
<polygon fill="midnightblue" stroke="midnightblue" points="1934,-264.751 1930.5,-254.751 1927,-264.751 1934,-264.751"/>
</g>
<!-- Node5&#45;&gt;Node7 -->
<g id="edge20" class="edge"><title>Node5&#45;&gt;Node7</title>
<path fill="none" stroke="midnightblue" d="M1908.92,-291.368C1860.43,-271.97 1742.67,-224.87 1686.42,-202.367"/>
<polygon fill="midnightblue" stroke="midnightblue" points="1687.56,-199.056 1676.98,-198.591 1684.96,-205.555 1687.56,-199.056"/>
</g>
<!-- Node13 -->
<g id="node14" class="node"><title>Node13</title>
<polygon fill="white" stroke="#bfbfbf" points="1898,-56.5 1898,-75.5 1971,-75.5 1971,-56.5 1898,-56.5"/>
<text text-anchor="middle" x="1934.5" y="-63.5" font-family="Helvetica,sans-Serif" font-size="10.00">odb/core.hxx</text>
</g>
<!-- Node5&#45;&gt;Node13 -->
<g id="edge23" class="edge"><title>Node5&#45;&gt;Node13</title>
<path fill="none" stroke="midnightblue" d="M1982.32,-297.422C2015.33,-293.038 2056.61,-282.027 2082.5,-255 2100.25,-236.475 2093.37,-224.463 2096.5,-199 2097.59,-190.178 2100.63,-186.872 2096.5,-179 2069.71,-127.914 2007.88,-95.52 1968.82,-79.3676"/>
<polygon fill="midnightblue" stroke="midnightblue" points="1970,-76.0705 1959.42,-75.6095 1967.4,-82.5706 1970,-76.0705"/>
</g>
<!-- Node14 -->
<g id="node15" class="node"><title>Node14</title>
<polygon fill="white" stroke="#bfbfbf" points="1991,-56.5 1991,-75.5 2032,-75.5 2032,-56.5 1991,-56.5"/>
<text text-anchor="middle" x="2011.5" y="-63.5" font-family="Helvetica,sans-Serif" font-size="10.00">string</text>
</g>
<!-- Node5&#45;&gt;Node14 -->
<g id="edge24" class="edge"><title>Node5&#45;&gt;Node14</title>
<path fill="none" stroke="midnightblue" d="M1982.24,-292.608C2026.47,-285.212 2085.42,-272.431 2101.5,-255 2124.6,-229.958 2121.92,-211.436 2111.5,-179 2097.81,-136.375 2057.48,-100.532 2032.41,-81.5573"/>
<polygon fill="midnightblue" stroke="midnightblue" points="2034.39,-78.6634 2024.25,-75.5655 2030.24,-84.3055 2034.39,-78.6634"/>
</g>
<!-- Node15 -->
<g id="node16" class="node"><title>Node15</title>
<polygon fill="white" stroke="#bfbfbf" points="2041.5,-179.5 2041.5,-198.5 2087.5,-198.5 2087.5,-179.5 2041.5,-179.5"/>
<text text-anchor="middle" x="2064.5" y="-186.5" font-family="Helvetica,sans-Serif" font-size="10.00">cstdint</text>
</g>
<!-- Node5&#45;&gt;Node15 -->
<g id="edge21" class="edge"><title>Node5&#45;&gt;Node15</title>
<path fill="none" stroke="midnightblue" d="M1982.09,-297.07C2011.67,-292.423 2046.58,-281.255 2065.5,-255 2075.08,-241.707 2073.47,-222.585 2070.29,-208.521"/>
<polygon fill="midnightblue" stroke="midnightblue" points="2073.57,-207.268 2067.57,-198.535 2066.82,-209.103 2073.57,-207.268"/>
</g>
<!-- Node16 -->
<g id="node17" class="node"><title>Node16</title>
<polygon fill="white" stroke="#bfbfbf" points="1781.5,-179.5 1781.5,-198.5 1871.5,-198.5 1871.5,-179.5 1781.5,-179.5"/>
<text text-anchor="middle" x="1826.5" y="-186.5" font-family="Helvetica,sans-Serif" font-size="10.00">odb/callback.hxx</text>
</g>
<!-- Node5&#45;&gt;Node16 -->
<g id="edge22" class="edge"><title>Node5&#45;&gt;Node16</title>
<path fill="none" stroke="midnightblue" d="M1915.23,-291.43C1901.62,-283.279 1881.71,-270.051 1867.5,-255 1854.09,-240.792 1842.6,-221.567 1835.23,-207.715"/>
<polygon fill="midnightblue" stroke="midnightblue" points="1838.3,-206.028 1830.62,-198.728 1832.07,-209.223 1838.3,-206.028"/>
</g>
<!-- Node6&#45;&gt;Node7 -->
<g id="edge7" class="edge"><title>Node6&#45;&gt;Node7</title>
<path fill="none" stroke="midnightblue" d="M1886.93,-235.444C1838.65,-225.964 1760.79,-210.675 1708.89,-200.483"/>
<polygon fill="midnightblue" stroke="midnightblue" points="1709.36,-197.009 1698.87,-198.516 1708.01,-203.878 1709.36,-197.009"/>
</g>
<!-- Node8 -->
<g id="node9" class="node"><title>Node8</title>
<g id="a_node9"><a xlink:href="../../dc/dea/Uuid_8hpp.html" target="_top" xlink:title="tools/Uuid.hpp">
<polygon fill="white" stroke="black" points="1645.5,-118 1645.5,-137 1725.5,-137 1725.5,-118 1645.5,-118"/>
<text text-anchor="middle" x="1685.5" y="-125" font-family="Helvetica,sans-Serif" font-size="10.00">tools/Uuid.hpp</text>
</a>
</g>
</g>
<!-- Node6&#45;&gt;Node8 -->
<g id="edge15" class="edge"><title>Node6&#45;&gt;Node8</title>
<path fill="none" stroke="midnightblue" d="M1926.28,-235.354C1918.97,-221.301 1902.59,-193.606 1880.5,-179 1836.71,-150.043 1777.22,-137.681 1735.5,-132.41"/>
<polygon fill="midnightblue" stroke="midnightblue" points="1735.91,-128.933 1725.57,-131.245 1735.09,-135.885 1735.91,-128.933"/>
</g>
<!-- Node6&#45;&gt;Node13 -->
<g id="edge18" class="edge"><title>Node6&#45;&gt;Node13</title>
<path fill="none" stroke="midnightblue" d="M1930.69,-235.463C1931.3,-208.428 1933.21,-124.239 1934.07,-86.109"/>
<polygon fill="midnightblue" stroke="midnightblue" points="1937.57,-85.9449 1934.3,-75.8684 1930.57,-85.7867 1937.57,-85.9449"/>
</g>
<!-- Node6&#45;&gt;Node14 -->
<g id="edge19" class="edge"><title>Node6&#45;&gt;Node14</title>
<path fill="none" stroke="midnightblue" d="M1934.41,-235.463C1946.89,-208.195 1985.97,-122.783 2003.2,-85.1332"/>
<polygon fill="midnightblue" stroke="midnightblue" points="2006.46,-86.4179 2007.44,-75.8684 2000.1,-83.505 2006.46,-86.4179"/>
</g>
<!-- Node6&#45;&gt;Node15 -->
<g id="edge16" class="edge"><title>Node6&#45;&gt;Node15</title>
<path fill="none" stroke="midnightblue" d="M1951.73,-235.444C1973.88,-226.517 2008.82,-212.439 2033.94,-202.317"/>
<polygon fill="midnightblue" stroke="midnightblue" points="2035.4,-205.501 2043.37,-198.516 2032.78,-199.008 2035.4,-205.501"/>
</g>
<!-- Node6&#45;&gt;Node16 -->
<g id="edge17" class="edge"><title>Node6&#45;&gt;Node16</title>
<path fill="none" stroke="midnightblue" d="M1913.79,-235.324C1897.19,-226.703 1871.5,-213.364 1852.28,-203.386"/>
<polygon fill="midnightblue" stroke="midnightblue" points="1853.66,-200.156 1843.17,-198.655 1850.43,-206.369 1853.66,-200.156"/>
</g>
<!-- Node7&#45;&gt;Node8 -->
<g id="edge8" class="edge"><title>Node7&#45;&gt;Node8</title>
<path fill="none" stroke="midnightblue" d="M1659.8,-179.475C1664.16,-170.815 1671.06,-157.149 1676.6,-146.145"/>
<polygon fill="midnightblue" stroke="midnightblue" points="1679.83,-147.514 1681.21,-137.009 1673.58,-144.363 1679.83,-147.514"/>
</g>
<!-- Node9 -->
<g id="node10" class="node"><title>Node9</title>
<polygon fill="white" stroke="#bfbfbf" points="1761.5,-56.5 1761.5,-75.5 1875.5,-75.5 1875.5,-56.5 1761.5,-56.5"/>
<text text-anchor="middle" x="1818.5" y="-63.5" font-family="Helvetica,sans-Serif" font-size="10.00">boost/lexical_cast.hpp</text>
</g>
<!-- Node8&#45;&gt;Node9 -->
<g id="edge9" class="edge"><title>Node8&#45;&gt;Node9</title>
<path fill="none" stroke="midnightblue" d="M1704.56,-117.975C1726.97,-107.945 1764.41,-91.2002 1790.21,-79.6546"/>
<polygon fill="midnightblue" stroke="midnightblue" points="1791.78,-82.7877 1799.48,-75.5091 1788.92,-76.3979 1791.78,-82.7877"/>
</g>
<!-- Node10 -->
<g id="node11" class="node"><title>Node10</title>
<polygon fill="white" stroke="#bfbfbf" points="1331,-56.5 1331,-75.5 1492,-75.5 1492,-56.5 1331,-56.5"/>
<text text-anchor="middle" x="1411.5" y="-63.5" font-family="Helvetica,sans-Serif" font-size="10.00">boost/uuid/random_generator.hpp</text>
</g>
<!-- Node8&#45;&gt;Node10 -->
<g id="edge10" class="edge"><title>Node8&#45;&gt;Node10</title>
<path fill="none" stroke="midnightblue" d="M1646.24,-117.975C1597.31,-107.349 1513.66,-89.1847 1460.55,-77.6524"/>
<polygon fill="midnightblue" stroke="midnightblue" points="1461.2,-74.211 1450.68,-75.5091 1459.71,-81.0515 1461.2,-74.211"/>
</g>
<!-- Node11 -->
<g id="node12" class="node"><title>Node11</title>
<polygon fill="white" stroke="#bfbfbf" points="1510,-56.5 1510,-75.5 1611,-75.5 1611,-56.5 1510,-56.5"/>
<text text-anchor="middle" x="1560.5" y="-63.5" font-family="Helvetica,sans-Serif" font-size="10.00">boost/uuid/uuid.hpp</text>
</g>
<!-- Node8&#45;&gt;Node11 -->
<g id="edge11" class="edge"><title>Node8&#45;&gt;Node11</title>
<path fill="none" stroke="midnightblue" d="M1667.59,-117.975C1646.61,-107.99 1611.65,-91.3476 1587.41,-79.8075"/>
<polygon fill="midnightblue" stroke="midnightblue" points="1588.91,-76.6468 1578.38,-75.5091 1585.9,-82.9673 1588.91,-76.6468"/>
</g>
<!-- Node12 -->
<g id="node13" class="node"><title>Node12</title>
<polygon fill="white" stroke="#bfbfbf" points="1629.5,-56.5 1629.5,-75.5 1743.5,-75.5 1743.5,-56.5 1629.5,-56.5"/>
<text text-anchor="middle" x="1686.5" y="-63.5" font-family="Helvetica,sans-Serif" font-size="10.00">boost/uuid/uuid_io.hpp</text>
</g>
<!-- Node8&#45;&gt;Node12 -->
<g id="edge12" class="edge"><title>Node8&#45;&gt;Node12</title>
<path fill="none" stroke="midnightblue" d="M1685.64,-117.975C1685.78,-109.58 1686,-96.4806 1686.19,-85.6631"/>
<polygon fill="midnightblue" stroke="midnightblue" points="1689.69,-85.5665 1686.36,-75.5091 1682.69,-85.4488 1689.69,-85.5665"/>
</g>
<!-- Node8&#45;&gt;Node13 -->
<g id="edge13" class="edge"><title>Node8&#45;&gt;Node13</title>
<path fill="none" stroke="midnightblue" d="M1716.58,-117.953C1724.07,-115.948 1732.06,-113.857 1739.5,-112 1790.05,-99.3854 1848.28,-86.1097 1887.86,-77.2751"/>
<polygon fill="midnightblue" stroke="midnightblue" points="1888.75,-80.6622 1897.75,-75.0724 1887.23,-73.8295 1888.75,-80.6622"/>
</g>
<!-- Node8&#45;&gt;Node14 -->
<g id="edge14" class="edge"><title>Node8&#45;&gt;Node14</title>
<path fill="none" stroke="midnightblue" d="M1725.87,-121.066C1782.95,-113.047 1890.36,-96.7295 1980.5,-76 1980.71,-75.9513 1980.92,-75.9021 1981.14,-75.8522"/>
<polygon fill="midnightblue" stroke="midnightblue" points="1982.1,-79.2185 1990.91,-73.3303 1980.35,-72.4406 1982.1,-79.2185"/>
</g>
<!-- Node17&#45;&gt;Node6 -->
<g id="edge27" class="edge"><title>Node17&#45;&gt;Node6</title>
<path fill="none" stroke="midnightblue" d="M1796.69,-291.444C1823.44,-282.359 1865.9,-267.939 1895.81,-257.783"/>
<polygon fill="midnightblue" stroke="midnightblue" points="1897.08,-261.046 1905.42,-254.516 1894.83,-254.418 1897.08,-261.046"/>
</g>
<!-- Node17&#45;&gt;Node7 -->
<g id="edge28" class="edge"><title>Node17&#45;&gt;Node7</title>
<path fill="none" stroke="midnightblue" d="M1760.93,-291.274C1750.26,-282.378 1733.43,-268.066 1719.5,-255 1702.28,-238.853 1683.41,-219.472 1670.66,-206.098"/>
<polygon fill="midnightblue" stroke="midnightblue" points="1673,-203.476 1663.57,-198.629 1667.92,-208.293 1673,-203.476"/>
</g>
<!-- Node17&#45;&gt;Node13 -->
<g id="edge31" class="edge"><title>Node17&#45;&gt;Node13</title>
<path fill="none" stroke="midnightblue" d="M1769.04,-291.434C1763.61,-270.689 1752.54,-216.686 1772.5,-179 1799.57,-127.886 1861.6,-95.4188 1900.57,-79.274"/>
<polygon fill="midnightblue" stroke="midnightblue" points="1901.96,-82.4866 1909.95,-75.5197 1899.36,-75.9883 1901.96,-82.4866"/>
</g>
<!-- Node17&#45;&gt;Node14 -->
<g id="edge32" class="edge"><title>Node17&#45;&gt;Node14</title>
<path fill="none" stroke="midnightblue" d="M1832.44,-291.498C1894.67,-282.226 1983.66,-267.094 1994.5,-255 2037.13,-207.457 2024.71,-123.379 2016.35,-85.9212"/>
<polygon fill="midnightblue" stroke="midnightblue" points="2019.68,-84.7968 2013.95,-75.8851 2012.87,-86.4249 2019.68,-84.7968"/>
</g>
<!-- Node17&#45;&gt;Node15 -->
<g id="edge29" class="edge"><title>Node17&#45;&gt;Node15</title>
<path fill="none" stroke="midnightblue" d="M1836.59,-291.486C1907.22,-281.788 2012.05,-265.882 2027.5,-255 2043.39,-243.808 2053.35,-223.485 2058.88,-208.533"/>
<polygon fill="midnightblue" stroke="midnightblue" points="2062.28,-209.396 2062.14,-198.802 2055.64,-207.169 2062.28,-209.396"/>
</g>
<!-- Node17&#45;&gt;Node16 -->
<g id="edge30" class="edge"><title>Node17&#45;&gt;Node16</title>
<path fill="none" stroke="midnightblue" d="M1775.82,-291.368C1784.81,-273.376 1805.72,-231.55 1817.69,-207.627"/>
<polygon fill="midnightblue" stroke="midnightblue" points="1820.86,-209.101 1822.2,-198.591 1814.6,-205.97 1820.86,-209.101"/>
</g>
<!-- Node18&#45;&gt;Node2 -->
<g id="edge34" class="edge"><title>Node18&#45;&gt;Node2</title>
<path fill="none" stroke="midnightblue" d="M1336.99,-179.485C1287.4,-165.224 1184.16,-135.736 1096.5,-112 1049.2,-99.1917 994.425,-85.0625 959.397,-76.1155"/>
<polygon fill="midnightblue" stroke="midnightblue" points="960.182,-72.7038 949.628,-73.6237 958.452,-79.4866 960.182,-72.7038"/>
</g>
<!-- Node20 -->
<g id="node21" class="node"><title>Node20</title>
<g id="a_node21"><a xlink:href="../../d9/d69/db__fwd_8hpp.html" target="_top" xlink:title="db_fwd.hpp">
<polygon fill="white" stroke="black" points="1079,-179.5 1079,-198.5 1146,-198.5 1146,-179.5 1079,-179.5"/>
<text text-anchor="middle" x="1112.5" y="-186.5" font-family="Helvetica,sans-Serif" font-size="10.00">db_fwd.hpp</text>
</a>
</g>
</g>
<!-- Node19&#45;&gt;Node20 -->
<g id="edge36" class="edge"><title>Node19&#45;&gt;Node20</title>
<path fill="none" stroke="midnightblue" d="M1401.64,-291.407C1429.05,-279.553 1469.88,-257.128 1450.5,-235 1431.39,-213.174 1243.35,-198.388 1156.31,-192.658"/>
<polygon fill="midnightblue" stroke="midnightblue" points="1156.42,-189.158 1146.21,-192.004 1155.96,-196.143 1156.42,-189.158"/>
</g>
<!-- Node21 -->
<g id="node22" class="node"><title>Node21</title>
<polygon fill="white" stroke="#bfbfbf" points="1497.5,-235.5 1497.5,-254.5 1591.5,-254.5 1591.5,-235.5 1497.5,-235.5"/>
<text text-anchor="middle" x="1544.5" y="-242.5" font-family="Helvetica,sans-Serif" font-size="10.00">odb/database.hxx</text>
</g>
<!-- Node19&#45;&gt;Node21 -->
<g id="edge38" class="edge"><title>Node19&#45;&gt;Node21</title>
<path fill="none" stroke="midnightblue" d="M1405.64,-291.444C1433.52,-282.32 1477.85,-267.813 1508.9,-257.651"/>
<polygon fill="midnightblue" stroke="midnightblue" points="1510.06,-260.953 1518.48,-254.516 1507.88,-254.3 1510.06,-260.953"/>
</g>
<!-- Node22 -->
<g id="node23" class="node"><title>Node22</title>
<polygon fill="white" stroke="#bfbfbf" points="1078.5,-235.5 1078.5,-254.5 1180.5,-254.5 1180.5,-235.5 1078.5,-235.5"/>
<text text-anchor="middle" x="1129.5" y="-242.5" font-family="Helvetica,sans-Serif" font-size="10.00">odb/transaction.hxx</text>
</g>
<!-- Node19&#45;&gt;Node22 -->
<g id="edge39" class="edge"><title>Node19&#45;&gt;Node22</title>
<path fill="none" stroke="midnightblue" d="M1339.89,-291.444C1296.27,-282.023 1226.1,-266.866 1178.92,-256.675"/>
<polygon fill="midnightblue" stroke="midnightblue" points="1179.44,-253.207 1168.93,-254.516 1177.96,-260.049 1179.44,-253.207"/>
</g>
<!-- Node23 -->
<g id="node24" class="node"><title>Node23</title>
<g id="a_node24"><a xlink:href="../../d0/dee/DBService_8hpp.html" target="_top" xlink:title="tools/db/DBService.hpp">
<polygon fill="white" stroke="black" points="727.5,-235.5 727.5,-254.5 847.5,-254.5 847.5,-235.5 727.5,-235.5"/>
<text text-anchor="middle" x="787.5" y="-242.5" font-family="Helvetica,sans-Serif" font-size="10.00">tools/db/DBService.hpp</text>
</a>
</g>
</g>
<!-- Node19&#45;&gt;Node23 -->
<g id="edge40" class="edge"><title>Node19&#45;&gt;Node23</title>
<path fill="none" stroke="midnightblue" d="M1322.74,-294.822C1213.91,-284.896 976.222,-263.214 857.66,-252.4"/>
<polygon fill="midnightblue" stroke="midnightblue" points="857.88,-248.905 847.604,-251.482 857.244,-255.876 857.88,-248.905"/>
</g>
<!-- Node38 -->
<g id="node39" class="node"><title>Node38</title>
<polygon fill="white" stroke="#bfbfbf" points="1199,-235.5 1199,-254.5 1300,-254.5 1300,-235.5 1199,-235.5"/>
<text text-anchor="middle" x="1249.5" y="-242.5" font-family="Helvetica,sans-Serif" font-size="10.00">odb/connection.hxx</text>
</g>
<!-- Node19&#45;&gt;Node38 -->
<g id="edge68" class="edge"><title>Node19&#45;&gt;Node38</title>
<path fill="none" stroke="midnightblue" d="M1358.9,-291.444C1337.51,-282.557 1303.82,-268.563 1279.48,-258.451"/>
<polygon fill="midnightblue" stroke="midnightblue" points="1280.58,-255.12 1270,-254.516 1277.89,-261.585 1280.58,-255.12"/>
</g>
<!-- Node39 -->
<g id="node40" class="node"><title>Node39</title>
<polygon fill="white" stroke="#bfbfbf" points="1318,-235.5 1318,-254.5 1441,-254.5 1441,-235.5 1318,-235.5"/>
<text text-anchor="middle" x="1379.5" y="-242.5" font-family="Helvetica,sans-Serif" font-size="10.00">odb/schema&#45;catalog.hxx</text>
</g>
<!-- Node19&#45;&gt;Node39 -->
<g id="edge69" class="edge"><title>Node19&#45;&gt;Node39</title>
<path fill="none" stroke="midnightblue" d="M1379.5,-291.083C1379.5,-284.006 1379.5,-273.861 1379.5,-264.986"/>
<polygon fill="midnightblue" stroke="midnightblue" points="1383,-264.751 1379.5,-254.751 1376,-264.751 1383,-264.751"/>
</g>
<!-- Node20&#45;&gt;Node2 -->
<g id="edge37" class="edge"><title>Node20&#45;&gt;Node2</title>
<path fill="none" stroke="midnightblue" d="M1110.08,-179.297C1105.24,-163.517 1092.86,-130.139 1070.5,-112 1038.65,-86.169 992.089,-75.1349 959.941,-70.4407"/>
<polygon fill="midnightblue" stroke="midnightblue" points="960.005,-66.9189 949.633,-69.0797 959.089,-73.8587 960.005,-66.9189"/>
</g>
<!-- Node23&#45;&gt;Node20 -->
<g id="edge67" class="edge"><title>Node23&#45;&gt;Node20</title>
<path fill="none" stroke="midnightblue" d="M838.997,-235.444C902.316,-224.923 1008.7,-207.246 1068.42,-197.324"/>
<polygon fill="midnightblue" stroke="midnightblue" points="1069.36,-200.716 1078.65,-195.624 1068.21,-193.811 1069.36,-200.716"/>
</g>
<!-- Node24 -->
<g id="node25" class="node"><title>Node24</title>
<g id="a_node25"><a xlink:href="../../d3/dd8/IAuditEntry_8hpp.html" target="_top" xlink:title="core/audit/IAuditEntry.hpp">
<polygon fill="white" stroke="black" points="346.5,-179.5 346.5,-198.5 476.5,-198.5 476.5,-179.5 346.5,-179.5"/>
<text text-anchor="middle" x="411.5" y="-186.5" font-family="Helvetica,sans-Serif" font-size="10.00">core/audit/IAuditEntry.hpp</text>
</a>
</g>
</g>
<!-- Node23&#45;&gt;Node24 -->
<g id="edge41" class="edge"><title>Node23&#45;&gt;Node24</title>
<path fill="none" stroke="midnightblue" d="M727.922,-235.444C660.817,-225.806 551.897,-210.163 480.978,-199.978"/>
<polygon fill="midnightblue" stroke="midnightblue" points="481.196,-196.474 470.8,-198.516 480.2,-203.403 481.196,-196.474"/>
</g>
<!-- Node29 -->
<g id="node30" class="node"><title>Node29</title>
<g id="a_node30"><a xlink:href="../../d3/d6f/AuthFwd_8hpp.html" target="_top" xlink:title="core/auth/AuthFwd.hpp">
<polygon fill="white" stroke="black" points="442.5,-118 442.5,-137 560.5,-137 560.5,-118 442.5,-118"/>
<text text-anchor="middle" x="501.5" y="-125" font-family="Helvetica,sans-Serif" font-size="10.00">core/auth/AuthFwd.hpp</text>
</a>
</g>
</g>
<!-- Node23&#45;&gt;Node29 -->
<g id="edge57" class="edge"><title>Node23&#45;&gt;Node29</title>
<path fill="none" stroke="midnightblue" d="M766.004,-235.319C715.777,-215.035 590.576,-164.473 532.275,-140.928"/>
<polygon fill="midnightblue" stroke="midnightblue" points="533.439,-137.624 522.856,-137.124 530.818,-144.114 533.439,-137.624"/>
</g>
<!-- Node35 -->
<g id="node36" class="node"><title>Node35</title>
<g id="a_node36"><a xlink:href="../../d7/d7f/CredentialFwd_8hpp.html" target="_top" xlink:title="core/credentials/Credential\lFwd.hpp">
<polygon fill="white" stroke="black" points="857,-112.5 857,-142.5 990,-142.5 990,-112.5 857,-112.5"/>
<text text-anchor="start" x="865" y="-130.5" font-family="Helvetica,sans-Serif" font-size="10.00">core/credentials/Credential</text>
<text text-anchor="middle" x="923.5" y="-119.5" font-family="Helvetica,sans-Serif" font-size="10.00">Fwd.hpp</text>
</a>
</g>
</g>
<!-- Node23&#45;&gt;Node35 -->
<g id="edge58" class="edge"><title>Node23&#45;&gt;Node35</title>
<path fill="none" stroke="midnightblue" d="M797.722,-235.319C819.066,-217.192 868.882,-174.885 899.023,-149.288"/>
<polygon fill="midnightblue" stroke="midnightblue" points="901.605,-151.686 906.962,-142.545 897.074,-146.351 901.605,-151.686"/>
</g>
<!-- Node36 -->
<g id="node37" class="node"><title>Node36</title>
<g id="a_node37"><a xlink:href="../../d2/d0e/UpdateFwd_8hpp.html" target="_top" xlink:title="core/update/UpdateFwd.hpp">
<polygon fill="white" stroke="black" points="578.5,-118 578.5,-137 718.5,-137 718.5,-118 578.5,-118"/>
<text text-anchor="middle" x="648.5" y="-125" font-family="Helvetica,sans-Serif" font-size="10.00">core/update/UpdateFwd.hpp</text>
</a>
</g>
</g>
<!-- Node23&#45;&gt;Node36 -->
<g id="edge61" class="edge"><title>Node23&#45;&gt;Node36</title>
<path fill="none" stroke="midnightblue" d="M777.052,-235.319C753.607,-215.837 696.548,-168.425 666.967,-143.845"/>
<polygon fill="midnightblue" stroke="midnightblue" points="668.997,-140.981 659.069,-137.282 664.523,-146.365 668.997,-140.981"/>
</g>
<!-- Node37 -->
<g id="node38" class="node"><title>Node37</title>
<g id="a_node38"><a xlink:href="../../d8/d97/ToolsFwd_8hpp.html" target="_top" xlink:title="tools/ToolsFwd.hpp">
<polygon fill="white" stroke="black" points="736.5,-118 736.5,-137 838.5,-137 838.5,-118 736.5,-118"/>
<text text-anchor="middle" x="787.5" y="-125" font-family="Helvetica,sans-Serif" font-size="10.00">tools/ToolsFwd.hpp</text>
</a>
</g>
</g>
<!-- Node23&#45;&gt;Node37 -->
<g id="edge64" class="edge"><title>Node23&#45;&gt;Node37</title>
<path fill="none" stroke="midnightblue" d="M787.5,-235.319C787.5,-216.757 787.5,-172.839 787.5,-147.473"/>
<polygon fill="midnightblue" stroke="midnightblue" points="791,-147.282 787.5,-137.282 784,-147.282 791,-147.282"/>
</g>
<!-- Node24&#45;&gt;Node2 -->
<g id="edge56" class="edge"><title>Node24&#45;&gt;Node2</title>
<path fill="none" stroke="midnightblue" d="M476.58,-187.877C622.06,-186.924 963.62,-180.656 998.5,-143 1007.86,-132.892 1005.29,-123.989 998.5,-112 989.969,-96.9332 974.159,-86.3607 959.246,-79.268"/>
<polygon fill="midnightblue" stroke="midnightblue" points="960.227,-75.878 949.661,-75.0973 957.434,-82.2967 960.227,-75.878"/>
</g>
<!-- Node25 -->
<g id="node26" class="node"><title>Node25</title>
<g id="a_node26"><a xlink:href="../../d7/dcf/AuditFwd_8hpp.html" target="_top" xlink:title="core/audit/AuditFwd.hpp">
<polygon fill="white" stroke="black" points="170.5,-118 170.5,-137 292.5,-137 292.5,-118 170.5,-118"/>
<text text-anchor="middle" x="231.5" y="-125" font-family="Helvetica,sans-Serif" font-size="10.00">core/audit/AuditFwd.hpp</text>
</a>
</g>
</g>
<!-- Node24&#45;&gt;Node25 -->
<g id="edge42" class="edge"><title>Node24&#45;&gt;Node25</title>
<path fill="none" stroke="midnightblue" d="M385.71,-179.475C354.567,-169.18 302.019,-151.81 267.047,-140.25"/>
<polygon fill="midnightblue" stroke="midnightblue" points="267.835,-136.825 257.242,-137.009 265.638,-143.471 267.835,-136.825"/>
</g>
<!-- Node24&#45;&gt;Node29 -->
<g id="edge47" class="edge"><title>Node24&#45;&gt;Node29</title>
<path fill="none" stroke="midnightblue" d="M424.395,-179.475C438.964,-169.843 462.902,-154.017 480.245,-142.552"/>
<polygon fill="midnightblue" stroke="midnightblue" points="482.217,-145.444 488.629,-137.009 478.357,-139.604 482.217,-145.444"/>
</g>
<!-- Node30 -->
<g id="node31" class="node"><title>Node30</title>
<g id="a_node31"><a xlink:href="../../dd/d9d/IVisitable_8hpp.html" target="_top" xlink:title="tools/IVisitable.hpp">
<polygon fill="white" stroke="black" points="52.5,-118 52.5,-137 152.5,-137 152.5,-118 52.5,-118"/>
<text text-anchor="middle" x="102.5" y="-125" font-family="Helvetica,sans-Serif" font-size="10.00">tools/IVisitable.hpp</text>
</a>
</g>
</g>
<!-- Node24&#45;&gt;Node30 -->
<g id="edge51" class="edge"><title>Node24&#45;&gt;Node30</title>
<path fill="none" stroke="midnightblue" d="M358.638,-179.477C307.908,-171.064 229.223,-157.402 161.5,-143 156.408,-141.917 151.085,-140.713 145.812,-139.474"/>
<polygon fill="midnightblue" stroke="midnightblue" points="146.343,-136.002 135.802,-137.072 144.71,-142.809 146.343,-136.002"/>
</g>
<!-- Node34 -->
<g id="node35" class="node"><title>Node34</title>
<polygon fill="white" stroke="#bfbfbf" points="311,-112.5 311,-142.5 424,-142.5 424,-112.5 311,-112.5"/>
<text text-anchor="start" x="319" y="-130.5" font-family="Helvetica,sans-Serif" font-size="10.00">boost/date_time/posix</text>
<text text-anchor="middle" x="367.5" y="-119.5" font-family="Helvetica,sans-Serif" font-size="10.00">_time/posix_time.hpp</text>
</g>
<!-- Node24&#45;&gt;Node34 -->
<g id="edge55" class="edge"><title>Node24&#45;&gt;Node34</title>
<path fill="none" stroke="midnightblue" d="M405.196,-179.475C399.627,-171.944 391.257,-160.626 383.818,-150.566"/>
<polygon fill="midnightblue" stroke="midnightblue" points="386.63,-148.482 377.87,-142.523 381.002,-152.644 386.63,-148.482"/>
</g>
<!-- Node25&#45;&gt;Node2 -->
<g id="edge45" class="edge"><title>Node25&#45;&gt;Node2</title>
<path fill="none" stroke="midnightblue" d="M268.034,-117.982C278.766,-115.738 290.56,-113.522 301.5,-112 416.018,-96.0677 772.403,-75.3972 887.361,-68.9847"/>
<polygon fill="midnightblue" stroke="midnightblue" points="887.616,-72.476 897.407,-68.4264 887.228,-65.4868 887.616,-72.476"/>
</g>
<!-- Node26 -->
<g id="node27" class="node"><title>Node26</title>
<polygon fill="white" stroke="#bfbfbf" points="380,-56.5 380,-75.5 429,-75.5 429,-56.5 380,-56.5"/>
<text text-anchor="middle" x="404.5" y="-63.5" font-family="Helvetica,sans-Serif" font-size="10.00">cstddef</text>
</g>
<!-- Node25&#45;&gt;Node26 -->
<g id="edge43" class="edge"><title>Node25&#45;&gt;Node26</title>
<path fill="none" stroke="midnightblue" d="M256.287,-117.975C286.091,-107.725 336.291,-90.4593 369.902,-78.8994"/>
<polygon fill="midnightblue" stroke="midnightblue" points="371.441,-82.0712 379.759,-75.5091 369.165,-75.4518 371.441,-82.0712"/>
</g>
<!-- Node27 -->
<g id="node28" class="node"><title>Node27</title>
<polygon fill="white" stroke="#bfbfbf" points="199,-56.5 199,-75.5 264,-75.5 264,-56.5 199,-56.5"/>
<text text-anchor="middle" x="231.5" y="-63.5" font-family="Helvetica,sans-Serif" font-size="10.00">flagset.hpp</text>
</g>
<!-- Node25&#45;&gt;Node27 -->
<g id="edge44" class="edge"><title>Node25&#45;&gt;Node27</title>
<path fill="none" stroke="midnightblue" d="M231.5,-117.975C231.5,-109.58 231.5,-96.4806 231.5,-85.6631"/>
<polygon fill="midnightblue" stroke="midnightblue" points="235,-85.5091 231.5,-75.5091 228,-85.5091 235,-85.5091"/>
</g>
<!-- Node28 -->
<g id="node29" class="node"><title>Node28</title>
<polygon fill="white" stroke="#bfbfbf" points="605.5,-56.5 605.5,-75.5 691.5,-75.5 691.5,-56.5 605.5,-56.5"/>
<text text-anchor="middle" x="648.5" y="-63.5" font-family="Helvetica,sans-Serif" font-size="10.00">odb/lazy&#45;ptr.hxx</text>
</g>
<!-- Node25&#45;&gt;Node28 -->
<g id="edge46" class="edge"><title>Node25&#45;&gt;Node28</title>
<path fill="none" stroke="midnightblue" d="M270.279,-117.925C280.412,-115.833 291.342,-113.708 301.5,-112 405.063,-94.584 526.995,-80.1688 595.26,-72.6437"/>
<polygon fill="midnightblue" stroke="midnightblue" points="595.779,-76.1078 605.339,-71.5398 595.017,-69.1494 595.779,-76.1078"/>
</g>
<!-- Node29&#45;&gt;Node2 -->
<g id="edge49" class="edge"><title>Node29&#45;&gt;Node2</title>
<path fill="none" stroke="midnightblue" d="M538.803,-117.959C548.746,-115.843 559.504,-113.698 569.5,-112 684.925,-92.3927 822.845,-77.2113 887.149,-70.6062"/>
<polygon fill="midnightblue" stroke="midnightblue" points="887.594,-74.0792 897.187,-69.5836 886.884,-67.1152 887.594,-74.0792"/>
</g>
<!-- Node29&#45;&gt;Node26 -->
<g id="edge48" class="edge"><title>Node29&#45;&gt;Node26</title>
<path fill="none" stroke="midnightblue" d="M487.602,-117.975C471.828,-108.299 445.863,-92.3721 427.151,-80.8941"/>
<polygon fill="midnightblue" stroke="midnightblue" points="428.726,-77.7544 418.372,-75.5091 425.066,-83.7213 428.726,-77.7544"/>
</g>
<!-- Node29&#45;&gt;Node28 -->
<g id="edge50" class="edge"><title>Node29&#45;&gt;Node28</title>
<path fill="none" stroke="midnightblue" d="M522.562,-117.975C547.559,-107.857 589.442,-90.9046 617.987,-79.3507"/>
<polygon fill="midnightblue" stroke="midnightblue" points="619.521,-82.5054 627.478,-75.5091 616.895,-76.0168 619.521,-82.5054"/>
</g>
<!-- Node31 -->
<g id="node32" class="node"><title>Node31</title>
<g id="a_node32"><a xlink:href="../../d2/d91/Visitor_8hpp.html" target="_top" xlink:title="tools/Visitor.hpp">
<polygon fill="white" stroke="black" points="0,-56.5 0,-75.5 87,-75.5 87,-56.5 0,-56.5"/>
<text text-anchor="middle" x="43.5" y="-63.5" font-family="Helvetica,sans-Serif" font-size="10.00">tools/Visitor.hpp</text>
</a>
</g>
</g>
<!-- Node30&#45;&gt;Node31 -->
<g id="edge52" class="edge"><title>Node30&#45;&gt;Node31</title>
<path fill="none" stroke="midnightblue" d="M94.0467,-117.975C84.9338,-108.785 70.2298,-93.9563 59.0245,-82.656"/>
<polygon fill="midnightblue" stroke="midnightblue" points="61.4641,-80.1455 51.9376,-75.5091 56.4935,-85.0744 61.4641,-80.1455"/>
</g>
<!-- Node33 -->
<g id="node34" class="node"><title>Node33</title>
<polygon fill="white" stroke="#bfbfbf" points="105,-56.5 105,-75.5 154,-75.5 154,-56.5 105,-56.5"/>
<text text-anchor="middle" x="129.5" y="-63.5" font-family="Helvetica,sans-Serif" font-size="10.00">cassert</text>
</g>
<!-- Node30&#45;&gt;Node33 -->
<g id="edge54" class="edge"><title>Node30&#45;&gt;Node33</title>
<path fill="none" stroke="midnightblue" d="M106.368,-117.975C110.298,-109.315 116.5,-95.6486 121.493,-84.6453"/>
<polygon fill="midnightblue" stroke="midnightblue" points="124.694,-86.0617 125.639,-75.5091 118.319,-83.1691 124.694,-86.0617"/>
</g>
<!-- Node32 -->
<g id="node33" class="node"><title>Node32</title>
<polygon fill="white" stroke="#bfbfbf" points="12.5,-0.5 12.5,-19.5 74.5,-19.5 74.5,-0.5 12.5,-0.5"/>
<text text-anchor="middle" x="43.5" y="-7.5" font-family="Helvetica,sans-Serif" font-size="10.00">type_traits</text>
</g>
<!-- Node31&#45;&gt;Node32 -->
<g id="edge53" class="edge"><title>Node31&#45;&gt;Node32</title>
<path fill="none" stroke="midnightblue" d="M43.5,-56.083C43.5,-49.0059 43.5,-38.8611 43.5,-29.9865"/>
<polygon fill="midnightblue" stroke="midnightblue" points="47.0001,-29.751 43.5,-19.7511 40.0001,-29.7511 47.0001,-29.751"/>
</g>
<!-- Node35&#45;&gt;Node2 -->
<g id="edge59" class="edge"><title>Node35&#45;&gt;Node2</title>
<path fill="none" stroke="midnightblue" d="M923.5,-112.399C923.5,-104.466 923.5,-94.458 923.5,-85.8583"/>
<polygon fill="midnightblue" stroke="midnightblue" points="927,-85.6577 923.5,-75.6578 920,-85.6578 927,-85.6577"/>
</g>
<!-- Node35&#45;&gt;Node28 -->
<g id="edge60" class="edge"><title>Node35&#45;&gt;Node28</title>
<path fill="none" stroke="midnightblue" d="M858.677,-112.475C809.369,-101.806 742.564,-87.352 697.62,-77.6278"/>
<polygon fill="midnightblue" stroke="midnightblue" points="698.329,-74.2003 687.815,-75.5064 696.849,-81.042 698.329,-74.2003"/>
</g>
<!-- Node36&#45;&gt;Node2 -->
<g id="edge62" class="edge"><title>Node36&#45;&gt;Node2</title>
<path fill="none" stroke="midnightblue" d="M687.901,-117.975C741.255,-106.431 835.728,-85.9907 887.349,-74.8217"/>
<polygon fill="midnightblue" stroke="midnightblue" points="888.347,-78.1869 897.381,-72.6513 886.867,-71.3452 888.347,-78.1869"/>
</g>
<!-- Node36&#45;&gt;Node28 -->
<g id="edge63" class="edge"><title>Node36&#45;&gt;Node28</title>
<path fill="none" stroke="midnightblue" d="M648.5,-117.975C648.5,-109.58 648.5,-96.4806 648.5,-85.6631"/>
<polygon fill="midnightblue" stroke="midnightblue" points="652,-85.5091 648.5,-75.5091 645,-85.5091 652,-85.5091"/>
</g>
<!-- Node37&#45;&gt;Node2 -->
<g id="edge65" class="edge"><title>Node37&#45;&gt;Node2</title>
<path fill="none" stroke="midnightblue" d="M806.985,-117.975C829.91,-107.945 868.185,-91.2002 894.575,-79.6546"/>
<polygon fill="midnightblue" stroke="midnightblue" points="896.292,-82.7239 904.051,-75.5091 893.486,-76.3108 896.292,-82.7239"/>
</g>
<!-- Node37&#45;&gt;Node28 -->
<g id="edge66" class="edge"><title>Node37&#45;&gt;Node28</title>
<path fill="none" stroke="midnightblue" d="M767.585,-117.975C744.051,-107.901 704.69,-91.0525 677.707,-79.5023"/>
<polygon fill="midnightblue" stroke="midnightblue" points="678.949,-76.2267 668.378,-75.5091 676.194,-82.662 678.949,-76.2267"/>
</g>
</g>
</svg>
        <g id="navigator" transform="translate(0 0)" fill="#404254">
                <rect fill="#f2f5e9" fill-opacity="0.5" stroke="#606060" stroke-width=".5" x="0" y="0" width="60" height="60"/>
                <use id="zoomplus" xlink:href="#zoomPlus" x="17" y="9" onmousedown="handleZoom(evt,'in')"/>
                <use id="zoomminus" xlink:href="#zoomMin" x="42" y="9" onmousedown="handleZoom(evt,'out')"/>
                <use id="reset" xlink:href="#resetDef" x="30" y="36" onmousedown="handleReset()"/>
                <g id="arrowUp" xlink:href="#dirArrow" transform="translate(30 24)" onmousedown="handlePan(0,-1)">
                  <use xlink:href="#rim" fill="#404040">
                        <set attributeName="fill" to="#808080" begin="arrowUp.mouseover" end="arrowUp.mouseout"/>
                  </use>
                  <path fill="none" stroke="white" stroke-width="1.5" d="M0,-3.0v7 M-2.5,-0.5L0,-3.0L2.5,-0.5"/>
                </g>
                <g id="arrowRight" xlink:href="#dirArrow" transform="rotate(90) translate(36 -43)" onmousedown="handlePan(1,0)">
                  <use xlink:href="#rim" fill="#404040">
                        <set attributeName="fill" to="#808080" begin="arrowRight.mouseover" end="arrowRight.mouseout"/>
                  </use>
                  <path fill="none" stroke="white" stroke-width="1.5" d="M0,-3.0v7 M-2.5,-0.5L0,-3.0L2.5,-0.5"/>
                </g>
                <g id="arrowDown" xlink:href="#dirArrow" transform="rotate(180) translate(-30 -48)" onmousedown="handlePan(0,1)">
                  <use xlink:href="#rim" fill="#404040">
                        <set attributeName="fill" to="#808080" begin="arrowDown.mouseover" end="arrowDown.mouseout"/>
                  </use>
                  <path fill="none" stroke="white" stroke-width="1.5" d="M0,-3.0v7 M-2.5,-0.5L0,-3.0L2.5,-0.5"/>
                </g>
                <g id="arrowLeft" xlink:href="#dirArrow" transform="rotate(270) translate(-36 17)" onmousedown="handlePan(-1,0)">
                  <use xlink:href="#rim" fill="#404040">
                        <set attributeName="fill" to="#808080" begin="arrowLeft.mouseover" end="arrowLeft.mouseout"/>
                  </use>
                  <path fill="none" stroke="white" stroke-width="1.5" d="M0,-3.0v7 M-2.5,-0.5L0,-3.0L2.5,-0.5"/>
                </g>
        </g>
        <svg viewBox="0 0 15 15" width="100%" height="30px" preserveAspectRatio="xMaxYMin meet">
         <g id="arrow_out" transform="scale(0.3 0.3)">
          <a xlink:href="WiegandConfigSerializer_8hpp__incl_org.svg" target="_base">
           <rect id="button" ry="5" rx="5" y="6" x="6" height="38" width="38"
                fill="#f2f5e9" fill-opacity="0.5" stroke="#606060" stroke-width="1.0"/>
           <path id="arrow"
             d="M 11.500037,31.436501 C 11.940474,20.09759 22.043105,11.32322 32.158766,21.979434 L 37.068811,17.246167 C 37.068811,17.246167 37.088388,32 37.088388,32 L 22.160133,31.978069 C 22.160133,31.978069 26.997745,27.140456 26.997745,27.140456 C 18.528582,18.264221 13.291696,25.230495 11.500037,31.436501 z"
             style="fill:#404040;"/>
          </a>
         </g>
        </svg>
</svg>
