<?xml version="1.0" encoding="UTF-8" standalone="no"?>
<!DOCTYPE svg PUBLIC "-//W3C//DTD SVG 1.1//EN"
 "http://www.w3.org/Graphics/SVG/1.1/DTD/svg11.dtd">
<!-- Generated by graphviz version 2.38.0 (20140413.2041)
 -->
<!-- Title: src/core/audit/serializers/WSAPICallSerializer.cpp Pages: 1 -->
<svg width="1177pt" height="330pt"
 viewBox="0.00 0.00 1177.00 330.00" xmlns="http://www.w3.org/2000/svg" xmlns:xlink="http://www.w3.org/1999/xlink">
<g id="graph0" class="graph" transform="scale(1 1) rotate(0) translate(4 326)">
<title>src/core/audit/serializers/WSAPICallSerializer.cpp</title>
<polygon fill="white" stroke="none" points="-4,4 -4,-326 1173,-326 1173,4 -4,4"/>
<!-- Node0 -->
<g id="node1" class="node"><title>Node0</title>
<polygon fill="#bfbfbf" stroke="black" points="287,-291.5 287,-321.5 416,-321.5 416,-291.5 287,-291.5"/>
<text text-anchor="start" x="295" y="-309.5" font-family="Helvetica,sans-Serif" font-size="10.00">src/core/audit/serializers</text>
<text text-anchor="middle" x="351.5" y="-298.5" font-family="Helvetica,sans-Serif" font-size="10.00">/WSAPICallSerializer.cpp</text>
</g>
<!-- Node1 -->
<g id="node2" class="node"><title>Node1</title>
<g id="a_node2"><a xlink:href="../../db/d34/WSAPICallSerializer_8hpp.html" target="_top" xlink:title="WSAPICallSerializer.hpp">
<polygon fill="white" stroke="black" points="51.5,-179.5 51.5,-198.5 177.5,-198.5 177.5,-179.5 51.5,-179.5"/>
<text text-anchor="middle" x="114.5" y="-186.5" font-family="Helvetica,sans-Serif" font-size="10.00">WSAPICallSerializer.hpp</text>
</a>
</g>
</g>
<!-- Node0&#45;&gt;Node1 -->
<g id="edge1" class="edge"><title>Node0&#45;&gt;Node1</title>
<path fill="none" stroke="midnightblue" d="M322.439,-291.337C276.031,-268.721 185.87,-224.781 141.079,-202.953"/>
<polygon fill="midnightblue" stroke="midnightblue" points="142.51,-199.757 131.987,-198.522 139.443,-206.049 142.51,-199.757"/>
</g>
<!-- Node11 -->
<g id="node12" class="node"><title>Node11</title>
<g id="a_node12"><a xlink:href="../../df/da3/AuditSerializer_8hpp.html" target="_top" xlink:title="AuditSerializer.hpp">
<polygon fill="white" stroke="black" points="195.5,-179.5 195.5,-198.5 293.5,-198.5 293.5,-179.5 195.5,-179.5"/>
<text text-anchor="middle" x="244.5" y="-186.5" font-family="Helvetica,sans-Serif" font-size="10.00">AuditSerializer.hpp</text>
</a>
</g>
</g>
<!-- Node0&#45;&gt;Node11 -->
<g id="edge12" class="edge"><title>Node0&#45;&gt;Node11</title>
<path fill="none" stroke="midnightblue" d="M338.38,-291.337C318.4,-269.77 280.457,-228.813 259.443,-206.13"/>
<polygon fill="midnightblue" stroke="midnightblue" points="261.895,-203.627 252.531,-198.669 256.76,-208.384 261.895,-203.627"/>
</g>
<!-- Node12 -->
<g id="node13" class="node"><title>Node12</title>
<g id="a_node13"><a xlink:href="../../dd/dd8/IWSAPICall_8hpp.html" target="_top" xlink:title="core/audit/IWSAPICall.hpp">
<polygon fill="white" stroke="black" points="352.5,-235.5 352.5,-254.5 486.5,-254.5 486.5,-235.5 352.5,-235.5"/>
<text text-anchor="middle" x="419.5" y="-242.5" font-family="Helvetica,sans-Serif" font-size="10.00">core/audit/IWSAPICall.hpp</text>
</a>
</g>
</g>
<!-- Node0&#45;&gt;Node12 -->
<g id="edge17" class="edge"><title>Node0&#45;&gt;Node12</title>
<path fill="none" stroke="midnightblue" d="M367.615,-291.399C377.904,-282.397 391.247,-270.721 401.826,-261.465"/>
<polygon fill="midnightblue" stroke="midnightblue" points="404.384,-263.877 409.605,-254.658 399.775,-258.609 404.384,-263.877"/>
</g>
<!-- Node22 -->
<g id="node23" class="node"><title>Node22</title>
<g id="a_node23"><a xlink:href="../../d4/d3d/log_8hpp.html" target="_top" xlink:title="tools/log.hpp">
<polygon fill="white" stroke="black" points="916.5,-179.5 916.5,-198.5 988.5,-198.5 988.5,-179.5 916.5,-179.5"/>
<text text-anchor="middle" x="952.5" y="-186.5" font-family="Helvetica,sans-Serif" font-size="10.00">tools/log.hpp</text>
</a>
</g>
</g>
<!-- Node0&#45;&gt;Node22 -->
<g id="edge33" class="edge"><title>Node0&#45;&gt;Node22</title>
<path fill="none" stroke="midnightblue" d="M416.103,-293.085C538.158,-269.628 799.916,-219.324 906.21,-198.896"/>
<polygon fill="midnightblue" stroke="midnightblue" points="907.14,-202.281 916.3,-196.957 905.819,-195.407 907.14,-202.281"/>
</g>
<!-- Node2 -->
<g id="node3" class="node"><title>Node2</title>
<g id="a_node3"><a xlink:href="../../dc/d49/LeosacFwd_8hpp.html" target="_top" xlink:title="LeosacFwd.hpp">
<polygon fill="white" stroke="black" points="71.5,-118 71.5,-137 157.5,-137 157.5,-118 71.5,-118"/>
<text text-anchor="middle" x="114.5" y="-125" font-family="Helvetica,sans-Serif" font-size="10.00">LeosacFwd.hpp</text>
</a>
</g>
</g>
<!-- Node1&#45;&gt;Node2 -->
<g id="edge2" class="edge"><title>Node1&#45;&gt;Node2</title>
<path fill="none" stroke="midnightblue" d="M114.5,-179.475C114.5,-171.08 114.5,-157.981 114.5,-147.163"/>
<polygon fill="midnightblue" stroke="midnightblue" points="118,-147.009 114.5,-137.009 111,-147.009 118,-147.009"/>
</g>
<!-- Node5 -->
<g id="node6" class="node"><title>Node5</title>
<g id="a_node6"><a xlink:href="../../d7/dcf/AuditFwd_8hpp.html" target="_top" xlink:title="core/audit/AuditFwd.hpp">
<polygon fill="white" stroke="black" points="311.5,-118 311.5,-137 433.5,-137 433.5,-118 311.5,-118"/>
<text text-anchor="middle" x="372.5" y="-125" font-family="Helvetica,sans-Serif" font-size="10.00">core/audit/AuditFwd.hpp</text>
</a>
</g>
</g>
<!-- Node1&#45;&gt;Node5 -->
<g id="edge5" class="edge"><title>Node1&#45;&gt;Node5</title>
<path fill="none" stroke="midnightblue" d="M151.465,-179.475C197.35,-168.893 275.65,-150.836 325.685,-139.297"/>
<polygon fill="midnightblue" stroke="midnightblue" points="326.646,-142.667 335.603,-137.009 325.073,-135.846 326.646,-142.667"/>
</g>
<!-- Node9 -->
<g id="node10" class="node"><title>Node9</title>
<polygon fill="white" stroke="#bfbfbf" points="0,-118 0,-137 53,-137 53,-118 0,-118"/>
<text text-anchor="middle" x="26.5" y="-125" font-family="Helvetica,sans-Serif" font-size="10.00">json.hpp</text>
</g>
<!-- Node1&#45;&gt;Node9 -->
<g id="edge10" class="edge"><title>Node1&#45;&gt;Node9</title>
<path fill="none" stroke="midnightblue" d="M101.892,-179.475C87.7768,-169.931 64.6688,-154.307 47.7506,-142.868"/>
<polygon fill="midnightblue" stroke="midnightblue" points="49.3294,-139.711 39.0849,-137.009 45.4086,-145.51 49.3294,-139.711"/>
</g>
<!-- Node10 -->
<g id="node11" class="node"><title>Node10</title>
<polygon fill="white" stroke="#bfbfbf" points="176,-118 176,-137 217,-137 217,-118 176,-118"/>
<text text-anchor="middle" x="196.5" y="-125" font-family="Helvetica,sans-Serif" font-size="10.00">string</text>
</g>
<!-- Node1&#45;&gt;Node10 -->
<g id="edge11" class="edge"><title>Node1&#45;&gt;Node10</title>
<path fill="none" stroke="midnightblue" d="M126.249,-179.475C139.279,-170.02 160.536,-154.596 176.259,-143.187"/>
<polygon fill="midnightblue" stroke="midnightblue" points="178.735,-145.715 184.773,-137.009 174.624,-140.049 178.735,-145.715"/>
</g>
<!-- Node3 -->
<g id="node4" class="node"><title>Node3</title>
<polygon fill="white" stroke="#bfbfbf" points="257.5,-56.5 257.5,-75.5 309.5,-75.5 309.5,-56.5 257.5,-56.5"/>
<text text-anchor="middle" x="283.5" y="-63.5" font-family="Helvetica,sans-Serif" font-size="10.00">memory</text>
</g>
<!-- Node2&#45;&gt;Node3 -->
<g id="edge3" class="edge"><title>Node2&#45;&gt;Node3</title>
<path fill="none" stroke="midnightblue" d="M138.714,-117.975C167.829,-107.725 216.868,-90.4593 249.702,-78.8994"/>
<polygon fill="midnightblue" stroke="midnightblue" points="251.061,-82.1314 259.331,-75.5091 248.737,-75.5287 251.061,-82.1314"/>
</g>
<!-- Node4 -->
<g id="node5" class="node"><title>Node4</title>
<polygon fill="white" stroke="#bfbfbf" points="92.5,-56.5 92.5,-75.5 136.5,-75.5 136.5,-56.5 92.5,-56.5"/>
<text text-anchor="middle" x="114.5" y="-63.5" font-family="Helvetica,sans-Serif" font-size="10.00">vector</text>
</g>
<!-- Node2&#45;&gt;Node4 -->
<g id="edge4" class="edge"><title>Node2&#45;&gt;Node4</title>
<path fill="none" stroke="midnightblue" d="M114.5,-117.975C114.5,-109.58 114.5,-96.4806 114.5,-85.6631"/>
<polygon fill="midnightblue" stroke="midnightblue" points="118,-85.5091 114.5,-75.5091 111,-85.5091 118,-85.5091"/>
</g>
<!-- Node5&#45;&gt;Node3 -->
<g id="edge8" class="edge"><title>Node5&#45;&gt;Node3</title>
<path fill="none" stroke="midnightblue" d="M359.748,-117.975C345.473,-108.431 322.103,-92.8073 304.992,-81.3683"/>
<polygon fill="midnightblue" stroke="midnightblue" points="306.486,-78.1572 296.228,-75.5091 302.596,-83.9766 306.486,-78.1572"/>
</g>
<!-- Node6 -->
<g id="node7" class="node"><title>Node6</title>
<polygon fill="white" stroke="#bfbfbf" points="596,-56.5 596,-75.5 645,-75.5 645,-56.5 596,-56.5"/>
<text text-anchor="middle" x="620.5" y="-63.5" font-family="Helvetica,sans-Serif" font-size="10.00">cstddef</text>
</g>
<!-- Node5&#45;&gt;Node6 -->
<g id="edge6" class="edge"><title>Node5&#45;&gt;Node6</title>
<path fill="none" stroke="midnightblue" d="M408.032,-117.975C455.473,-106.593 538.963,-86.5623 585.917,-75.2971"/>
<polygon fill="midnightblue" stroke="midnightblue" points="587.005,-78.6356 595.912,-72.8991 585.372,-71.8287 587.005,-78.6356"/>
</g>
<!-- Node7 -->
<g id="node8" class="node"><title>Node7</title>
<polygon fill="white" stroke="#bfbfbf" points="340,-56.5 340,-75.5 405,-75.5 405,-56.5 340,-56.5"/>
<text text-anchor="middle" x="372.5" y="-63.5" font-family="Helvetica,sans-Serif" font-size="10.00">flagset.hpp</text>
</g>
<!-- Node5&#45;&gt;Node7 -->
<g id="edge7" class="edge"><title>Node5&#45;&gt;Node7</title>
<path fill="none" stroke="midnightblue" d="M372.5,-117.975C372.5,-109.58 372.5,-96.4806 372.5,-85.6631"/>
<polygon fill="midnightblue" stroke="midnightblue" points="376,-85.5091 372.5,-75.5091 369,-85.5091 376,-85.5091"/>
</g>
<!-- Node8 -->
<g id="node9" class="node"><title>Node8</title>
<polygon fill="white" stroke="#bfbfbf" points="446.5,-56.5 446.5,-75.5 532.5,-75.5 532.5,-56.5 446.5,-56.5"/>
<text text-anchor="middle" x="489.5" y="-63.5" font-family="Helvetica,sans-Serif" font-size="10.00">odb/lazy&#45;ptr.hxx</text>
</g>
<!-- Node5&#45;&gt;Node8 -->
<g id="edge9" class="edge"><title>Node5&#45;&gt;Node8</title>
<path fill="none" stroke="midnightblue" d="M389.263,-117.975C408.725,-108.078 441.045,-91.6416 463.711,-80.1151"/>
<polygon fill="midnightblue" stroke="midnightblue" points="465.441,-83.1619 472.768,-75.5091 462.268,-76.9224 465.441,-83.1619"/>
</g>
<!-- Node11&#45;&gt;Node2 -->
<g id="edge13" class="edge"><title>Node11&#45;&gt;Node2</title>
<path fill="none" stroke="midnightblue" d="M225.874,-179.475C204.057,-169.49 167.696,-152.848 142.483,-141.307"/>
<polygon fill="midnightblue" stroke="midnightblue" points="143.641,-137.988 133.091,-137.009 140.728,-144.353 143.641,-137.988"/>
</g>
<!-- Node11&#45;&gt;Node5 -->
<g id="edge14" class="edge"><title>Node11&#45;&gt;Node5</title>
<path fill="none" stroke="midnightblue" d="M262.839,-179.475C284.321,-169.49 320.122,-152.848 344.948,-141.307"/>
<polygon fill="midnightblue" stroke="midnightblue" points="346.602,-144.398 354.195,-137.009 343.651,-138.051 346.602,-144.398"/>
</g>
<!-- Node11&#45;&gt;Node9 -->
<g id="edge15" class="edge"><title>Node11&#45;&gt;Node9</title>
<path fill="none" stroke="midnightblue" d="M202.833,-179.447C165.64,-171.399 109.885,-158.317 62.5,-143 60.3642,-142.31 58.1747,-141.553 55.9816,-140.76"/>
<polygon fill="midnightblue" stroke="midnightblue" points="57.0898,-137.437 46.4992,-137.135 54.5899,-143.975 57.0898,-137.437"/>
</g>
<!-- Node11&#45;&gt;Node10 -->
<g id="edge16" class="edge"><title>Node11&#45;&gt;Node10</title>
<path fill="none" stroke="midnightblue" d="M237.623,-179.475C230.351,-170.462 218.705,-156.025 209.659,-144.812"/>
<polygon fill="midnightblue" stroke="midnightblue" points="212.367,-142.595 203.364,-137.009 206.919,-146.99 212.367,-142.595"/>
</g>
<!-- Node13 -->
<g id="node14" class="node"><title>Node13</title>
<g id="a_node14"><a xlink:href="../../d3/dd8/IAuditEntry_8hpp.html" target="_top" xlink:title="IAuditEntry.hpp">
<polygon fill="white" stroke="black" points="433.5,-179.5 433.5,-198.5 517.5,-198.5 517.5,-179.5 433.5,-179.5"/>
<text text-anchor="middle" x="475.5" y="-186.5" font-family="Helvetica,sans-Serif" font-size="10.00">IAuditEntry.hpp</text>
</a>
</g>
</g>
<!-- Node12&#45;&gt;Node13 -->
<g id="edge18" class="edge"><title>Node12&#45;&gt;Node13</title>
<path fill="none" stroke="midnightblue" d="M428.497,-235.324C436.694,-227.42 449.006,-215.548 458.972,-205.938"/>
<polygon fill="midnightblue" stroke="midnightblue" points="461.57,-208.295 466.339,-198.834 456.711,-203.256 461.57,-208.295"/>
</g>
<!-- Node20 -->
<g id="node21" class="node"><title>Node20</title>
<g id="a_node21"><a xlink:href="../../d4/dc3/APIStatusCode_8hpp.html" target="_top" xlink:title="core/APIStatusCode.hpp">
<polygon fill="white" stroke="black" points="535,-179.5 535,-198.5 660,-198.5 660,-179.5 535,-179.5"/>
<text text-anchor="middle" x="597.5" y="-186.5" font-family="Helvetica,sans-Serif" font-size="10.00">core/APIStatusCode.hpp</text>
</a>
</g>
</g>
<!-- Node12&#45;&gt;Node20 -->
<g id="edge30" class="edge"><title>Node12&#45;&gt;Node20</title>
<path fill="none" stroke="midnightblue" d="M447.705,-235.444C477.91,-226.28 526.011,-211.688 559.529,-201.519"/>
<polygon fill="midnightblue" stroke="midnightblue" points="560.874,-204.769 569.427,-198.516 558.842,-198.07 560.874,-204.769"/>
</g>
<!-- Node21 -->
<g id="node22" class="node"><title>Node21</title>
<g id="a_node22"><a xlink:href="../../d9/d69/db__fwd_8hpp.html" target="_top" xlink:title="tools/db/db_fwd.hpp">
<polygon fill="white" stroke="black" points="311.5,-179.5 311.5,-198.5 415.5,-198.5 415.5,-179.5 311.5,-179.5"/>
<text text-anchor="middle" x="363.5" y="-186.5" font-family="Helvetica,sans-Serif" font-size="10.00">tools/db/db_fwd.hpp</text>
</a>
</g>
</g>
<!-- Node12&#45;&gt;Node21 -->
<g id="edge31" class="edge"><title>Node12&#45;&gt;Node21</title>
<path fill="none" stroke="midnightblue" d="M410.503,-235.324C402.306,-227.42 389.994,-215.548 380.028,-205.938"/>
<polygon fill="midnightblue" stroke="midnightblue" points="382.289,-203.256 372.661,-198.834 377.43,-208.295 382.289,-203.256"/>
</g>
<!-- Node13&#45;&gt;Node3 -->
<g id="edge29" class="edge"><title>Node13&#45;&gt;Node3</title>
<path fill="none" stroke="midnightblue" d="M433.613,-179.439C385.457,-169.239 311.809,-152.398 302.5,-143 287.647,-128.005 283.819,-103.261 283.109,-86.0989"/>
<polygon fill="midnightblue" stroke="midnightblue" points="286.604,-85.6103 283.017,-75.6413 279.605,-85.6716 286.604,-85.6103"/>
</g>
<!-- Node13&#45;&gt;Node5 -->
<g id="edge19" class="edge"><title>Node13&#45;&gt;Node5</title>
<path fill="none" stroke="midnightblue" d="M460.743,-179.475C443.839,-169.711 415.917,-153.581 396.01,-142.081"/>
<polygon fill="midnightblue" stroke="midnightblue" points="397.64,-138.981 387.23,-137.009 394.138,-145.042 397.64,-138.981"/>
</g>
<!-- Node14 -->
<g id="node15" class="node"><title>Node14</title>
<g id="a_node15"><a xlink:href="../../d3/d6f/AuthFwd_8hpp.html" target="_top" xlink:title="core/auth/AuthFwd.hpp">
<polygon fill="white" stroke="black" points="583.5,-118 583.5,-137 701.5,-137 701.5,-118 583.5,-118"/>
<text text-anchor="middle" x="642.5" y="-125" font-family="Helvetica,sans-Serif" font-size="10.00">core/auth/AuthFwd.hpp</text>
</a>
</g>
</g>
<!-- Node13&#45;&gt;Node14 -->
<g id="edge20" class="edge"><title>Node13&#45;&gt;Node14</title>
<path fill="none" stroke="midnightblue" d="M499.427,-179.475C528.197,-169.225 576.656,-151.959 609.102,-140.399"/>
<polygon fill="midnightblue" stroke="midnightblue" points="610.372,-143.662 618.617,-137.009 608.023,-137.068 610.372,-143.662"/>
</g>
<!-- Node15 -->
<g id="node16" class="node"><title>Node15</title>
<g id="a_node16"><a xlink:href="../../dd/d9d/IVisitable_8hpp.html" target="_top" xlink:title="tools/IVisitable.hpp">
<polygon fill="white" stroke="black" points="719.5,-118 719.5,-137 819.5,-137 819.5,-118 719.5,-118"/>
<text text-anchor="middle" x="769.5" y="-125" font-family="Helvetica,sans-Serif" font-size="10.00">tools/IVisitable.hpp</text>
</a>
</g>
</g>
<!-- Node13&#45;&gt;Node15 -->
<g id="edge24" class="edge"><title>Node13&#45;&gt;Node15</title>
<path fill="none" stroke="midnightblue" d="M517.595,-180.211C574.877,-169.564 674.381,-150.891 710.5,-143 715.586,-141.889 720.905,-140.667 726.176,-139.419"/>
<polygon fill="midnightblue" stroke="midnightblue" points="727.282,-142.753 736.184,-137.007 725.642,-135.947 727.282,-142.753"/>
</g>
<!-- Node19 -->
<g id="node20" class="node"><title>Node19</title>
<polygon fill="white" stroke="#bfbfbf" points="452,-112.5 452,-142.5 565,-142.5 565,-112.5 452,-112.5"/>
<text text-anchor="start" x="460" y="-130.5" font-family="Helvetica,sans-Serif" font-size="10.00">boost/date_time/posix</text>
<text text-anchor="middle" x="508.5" y="-119.5" font-family="Helvetica,sans-Serif" font-size="10.00">_time/posix_time.hpp</text>
</g>
<!-- Node13&#45;&gt;Node19 -->
<g id="edge28" class="edge"><title>Node13&#45;&gt;Node19</title>
<path fill="none" stroke="midnightblue" d="M480.228,-179.475C484.28,-172.17 490.308,-161.302 495.758,-151.475"/>
<polygon fill="midnightblue" stroke="midnightblue" points="498.933,-152.966 500.723,-142.523 492.812,-149.57 498.933,-152.966"/>
</g>
<!-- Node14&#45;&gt;Node3 -->
<g id="edge22" class="edge"><title>Node14&#45;&gt;Node3</title>
<path fill="none" stroke="midnightblue" d="M603.897,-117.961C594.011,-115.892 583.38,-113.768 573.5,-112 466.029,-92.7649 438.139,-94.2708 330.5,-76 327.037,-75.4122 323.436,-74.773 319.836,-74.1155"/>
<polygon fill="midnightblue" stroke="midnightblue" points="320.287,-70.6392 309.814,-72.2413 319,-77.5199 320.287,-70.6392"/>
</g>
<!-- Node14&#45;&gt;Node6 -->
<g id="edge21" class="edge"><title>Node14&#45;&gt;Node6</title>
<path fill="none" stroke="midnightblue" d="M639.348,-117.975C636.179,-109.404 631.196,-95.9269 627.149,-84.983"/>
<polygon fill="midnightblue" stroke="midnightblue" points="630.397,-83.6747 623.646,-75.5091 623.832,-86.1023 630.397,-83.6747"/>
</g>
<!-- Node14&#45;&gt;Node8 -->
<g id="edge23" class="edge"><title>Node14&#45;&gt;Node8</title>
<path fill="none" stroke="midnightblue" d="M620.579,-117.975C594.448,-107.813 550.588,-90.7564 520.87,-79.1996"/>
<polygon fill="midnightblue" stroke="midnightblue" points="521.969,-75.8716 511.381,-75.5091 519.432,-82.3956 521.969,-75.8716"/>
</g>
<!-- Node16 -->
<g id="node17" class="node"><title>Node16</title>
<g id="a_node17"><a xlink:href="../../d2/d91/Visitor_8hpp.html" target="_top" xlink:title="tools/Visitor.hpp">
<polygon fill="white" stroke="black" points="726,-56.5 726,-75.5 813,-75.5 813,-56.5 726,-56.5"/>
<text text-anchor="middle" x="769.5" y="-63.5" font-family="Helvetica,sans-Serif" font-size="10.00">tools/Visitor.hpp</text>
</a>
</g>
</g>
<!-- Node15&#45;&gt;Node16 -->
<g id="edge25" class="edge"><title>Node15&#45;&gt;Node16</title>
<path fill="none" stroke="midnightblue" d="M769.5,-117.975C769.5,-109.58 769.5,-96.4806 769.5,-85.6631"/>
<polygon fill="midnightblue" stroke="midnightblue" points="773,-85.5091 769.5,-75.5091 766,-85.5091 773,-85.5091"/>
</g>
<!-- Node18 -->
<g id="node19" class="node"><title>Node18</title>
<polygon fill="white" stroke="#bfbfbf" points="950,-56.5 950,-75.5 999,-75.5 999,-56.5 950,-56.5"/>
<text text-anchor="middle" x="974.5" y="-63.5" font-family="Helvetica,sans-Serif" font-size="10.00">cassert</text>
</g>
<!-- Node15&#45;&gt;Node18 -->
<g id="edge27" class="edge"><title>Node15&#45;&gt;Node18</title>
<path fill="none" stroke="midnightblue" d="M798.872,-117.975C836.249,-107.127 900.697,-88.4208 940.264,-76.9369"/>
<polygon fill="midnightblue" stroke="midnightblue" points="941.368,-80.2608 949.996,-74.112 939.417,-73.5382 941.368,-80.2608"/>
</g>
<!-- Node17 -->
<g id="node18" class="node"><title>Node17</title>
<polygon fill="white" stroke="#bfbfbf" points="738.5,-0.5 738.5,-19.5 800.5,-19.5 800.5,-0.5 738.5,-0.5"/>
<text text-anchor="middle" x="769.5" y="-7.5" font-family="Helvetica,sans-Serif" font-size="10.00">type_traits</text>
</g>
<!-- Node16&#45;&gt;Node17 -->
<g id="edge26" class="edge"><title>Node16&#45;&gt;Node17</title>
<path fill="none" stroke="midnightblue" d="M769.5,-56.083C769.5,-49.0059 769.5,-38.8611 769.5,-29.9865"/>
<polygon fill="midnightblue" stroke="midnightblue" points="773,-29.751 769.5,-19.7511 766,-29.7511 773,-29.751"/>
</g>
<!-- Node21&#45;&gt;Node3 -->
<g id="edge32" class="edge"><title>Node21&#45;&gt;Node3</title>
<path fill="none" stroke="midnightblue" d="M323.353,-179.429C303.525,-172.953 281.362,-161.83 269.5,-143 258.367,-125.327 265.953,-101.041 273.607,-84.7219"/>
<polygon fill="midnightblue" stroke="midnightblue" points="276.774,-86.2172 278.216,-75.7209 270.543,-83.0271 276.774,-86.2172"/>
</g>
<!-- Node22&#45;&gt;Node10 -->
<g id="edge39" class="edge"><title>Node22&#45;&gt;Node10</title>
<path fill="none" stroke="midnightblue" d="M916.491,-186.353C818.01,-181.667 535.986,-167.025 302.5,-143 277.052,-140.382 248.304,-136.383 227.174,-133.248"/>
<polygon fill="midnightblue" stroke="midnightblue" points="227.578,-129.77 217.168,-131.744 226.537,-136.692 227.578,-129.77"/>
</g>
<!-- Node22&#45;&gt;Node18 -->
<g id="edge34" class="edge"><title>Node22&#45;&gt;Node18</title>
<path fill="none" stroke="midnightblue" d="M988.542,-185.45C1017.09,-181.312 1055.27,-170.596 1074.5,-143 1082.38,-131.697 1081.98,-123.57 1074.5,-112 1060.16,-89.8178 1031.99,-78.4618 1009.19,-72.7127"/>
<polygon fill="midnightblue" stroke="midnightblue" points="1009.69,-69.2372 999.163,-70.447 1008.15,-76.065 1009.69,-69.2372"/>
</g>
<!-- Node23 -->
<g id="node24" class="node"><title>Node23</title>
<polygon fill="white" stroke="#bfbfbf" points="1122,-118 1122,-137 1169,-137 1169,-118 1122,-118"/>
<text text-anchor="middle" x="1145.5" y="-125" font-family="Helvetica,sans-Serif" font-size="10.00">csignal</text>
</g>
<!-- Node22&#45;&gt;Node23 -->
<g id="edge35" class="edge"><title>Node22&#45;&gt;Node23</title>
<path fill="none" stroke="midnightblue" d="M984.799,-179.453C1016.32,-170.918 1065.52,-157.075 1107.5,-143 1109.76,-142.242 1112.08,-141.432 1114.42,-140.597"/>
<polygon fill="midnightblue" stroke="midnightblue" points="1115.74,-143.839 1123.91,-137.09 1113.31,-137.273 1115.74,-143.839"/>
</g>
<!-- Node24 -->
<g id="node25" class="node"><title>Node24</title>
<polygon fill="white" stroke="#bfbfbf" points="837.5,-118 837.5,-137 891.5,-137 891.5,-118 837.5,-118"/>
<text text-anchor="middle" x="864.5" y="-125" font-family="Helvetica,sans-Serif" font-size="10.00">iostream</text>
</g>
<!-- Node22&#45;&gt;Node24 -->
<g id="edge36" class="edge"><title>Node22&#45;&gt;Node24</title>
<path fill="none" stroke="midnightblue" d="M939.892,-179.475C925.777,-169.931 902.669,-154.307 885.751,-142.868"/>
<polygon fill="midnightblue" stroke="midnightblue" points="887.329,-139.711 877.085,-137.009 883.409,-145.51 887.329,-139.711"/>
</g>
<!-- Node25 -->
<g id="node26" class="node"><title>Node25</title>
<polygon fill="white" stroke="#bfbfbf" points="910,-118 910,-137 995,-137 995,-118 910,-118"/>
<text text-anchor="middle" x="952.5" y="-125" font-family="Helvetica,sans-Serif" font-size="10.00">spdlog/spdlog.h</text>
</g>
<!-- Node22&#45;&gt;Node25 -->
<g id="edge37" class="edge"><title>Node22&#45;&gt;Node25</title>
<path fill="none" stroke="midnightblue" d="M952.5,-179.475C952.5,-171.08 952.5,-157.981 952.5,-147.163"/>
<polygon fill="midnightblue" stroke="midnightblue" points="956,-147.009 952.5,-137.009 949,-147.009 956,-147.009"/>
</g>
<!-- Node26 -->
<g id="node27" class="node"><title>Node26</title>
<polygon fill="white" stroke="#bfbfbf" points="1013.5,-118 1013.5,-137 1065.5,-137 1065.5,-118 1013.5,-118"/>
<text text-anchor="middle" x="1039.5" y="-125" font-family="Helvetica,sans-Serif" font-size="10.00">sstream</text>
</g>
<!-- Node22&#45;&gt;Node26 -->
<g id="edge38" class="edge"><title>Node22&#45;&gt;Node26</title>
<path fill="none" stroke="midnightblue" d="M964.965,-179.475C978.919,-169.931 1001.76,-154.307 1018.49,-142.868"/>
<polygon fill="midnightblue" stroke="midnightblue" points="1020.78,-145.543 1027.06,-137.009 1016.83,-139.765 1020.78,-145.543"/>
</g>
</g>
</svg>
