<?xml version="1.0" encoding="UTF-8" standalone="no"?>
<!DOCTYPE svg PUBLIC "-//W3C//DTD SVG 1.1//EN"
 "http://www.w3.org/Graphics/SVG/1.1/DTD/svg11.dtd">
<!-- Generated by graphviz version 2.38.0 (20140413.2041)
 -->
<!-- Title: src/core/audit/IUserEvent.hpp Pages: 1 -->
<svg width="897pt" height="162pt"
 viewBox="0.00 0.00 896.50 162.00" xmlns="http://www.w3.org/2000/svg" xmlns:xlink="http://www.w3.org/1999/xlink">
<g id="graph0" class="graph" transform="scale(1 1) rotate(0) translate(4 158)">
<title>src/core/audit/IUserEvent.hpp</title>
<polygon fill="white" stroke="none" points="-4,4 -4,-158 892.5,-158 892.5,4 -4,4"/>
<!-- Node13 -->
<g id="node1" class="node"><title>Node13</title>
<polygon fill="#bfbfbf" stroke="black" points="206.5,-134.5 206.5,-153.5 353.5,-153.5 353.5,-134.5 206.5,-134.5"/>
<text text-anchor="middle" x="280" y="-141.5" font-family="Helvetica,sans-Serif" font-size="10.00">src/core/audit/IUserEvent.hpp</text>
</g>
<!-- Node14 -->
<g id="node2" class="node"><title>Node14</title>
<g id="a_node2"><a xlink:href="../../d9/db8/Audit_8hpp.html" target="_top" xlink:title="src/core/audit/Audit.hpp">
<polygon fill="white" stroke="black" points="-7.10543e-15,-73 -7.10543e-15,-92 120,-92 120,-73 -7.10543e-15,-73"/>
<text text-anchor="middle" x="60" y="-80" font-family="Helvetica,sans-Serif" font-size="10.00">src/core/audit/Audit.hpp</text>
</a>
</g>
</g>
<!-- Node13&#45;&gt;Node14 -->
<g id="edge1" class="edge"><title>Node13&#45;&gt;Node14</title>
<path fill="none" stroke="midnightblue" d="M238.671,-131.822C195.936,-120.264 130.153,-102.473 91.4622,-92.0091"/>
<polygon fill="midnightblue" stroke="midnightblue" points="237.912,-135.243 248.479,-134.475 239.74,-128.486 237.912,-135.243"/>
</g>
<!-- Node15 -->
<g id="node3" class="node"><title>Node15</title>
<g id="a_node3"><a xlink:href="../../da/d2d/UpdateEventSerializer_8cpp.html" target="_top" xlink:title="src/core/audit/serializers\l/UpdateEventSerializer.cpp">
<polygon fill="white" stroke="black" points="138,-67.5 138,-97.5 274,-97.5 274,-67.5 138,-67.5"/>
<text text-anchor="start" x="146" y="-85.5" font-family="Helvetica,sans-Serif" font-size="10.00">src/core/audit/serializers</text>
<text text-anchor="middle" x="206" y="-74.5" font-family="Helvetica,sans-Serif" font-size="10.00">/UpdateEventSerializer.cpp</text>
</a>
</g>
</g>
<!-- Node13&#45;&gt;Node15 -->
<g id="edge2" class="edge"><title>Node13&#45;&gt;Node15</title>
<path fill="none" stroke="midnightblue" d="M261.588,-128.195C249.919,-118.813 234.917,-106.751 223.44,-97.523"/>
<polygon fill="midnightblue" stroke="midnightblue" points="259.411,-130.937 269.398,-134.475 263.798,-125.481 259.411,-130.937"/>
</g>
<!-- Node16 -->
<g id="node4" class="node"><title>Node16</title>
<g id="a_node4"><a xlink:href="../../d2/da7/UserEventSerializer_8cpp.html" target="_top" xlink:title="src/core/audit/serializers\l/UserEventSerializer.cpp">
<polygon fill="white" stroke="black" points="292.5,-67.5 292.5,-97.5 417.5,-97.5 417.5,-67.5 292.5,-67.5"/>
<text text-anchor="start" x="300.5" y="-85.5" font-family="Helvetica,sans-Serif" font-size="10.00">src/core/audit/serializers</text>
<text text-anchor="middle" x="355" y="-74.5" font-family="Helvetica,sans-Serif" font-size="10.00">/UserEventSerializer.cpp</text>
</a>
</g>
</g>
<!-- Node13&#45;&gt;Node16 -->
<g id="edge3" class="edge"><title>Node13&#45;&gt;Node16</title>
<path fill="none" stroke="midnightblue" d="M298.661,-128.195C310.488,-118.813 325.692,-106.751 337.324,-97.523"/>
<polygon fill="midnightblue" stroke="midnightblue" points="296.405,-125.518 290.746,-134.475 300.755,-131.002 296.405,-125.518"/>
</g>
<!-- Node17 -->
<g id="node5" class="node"><title>Node17</title>
<g id="a_node5"><a xlink:href="../../df/d7a/UserEvent_8hpp.html" target="_top" xlink:title="src/core/audit/UserEvent.hpp">
<polygon fill="white" stroke="black" points="436,-73 436,-92 580,-92 580,-73 436,-73"/>
<text text-anchor="middle" x="508" y="-80" font-family="Helvetica,sans-Serif" font-size="10.00">src/core/audit/UserEvent.hpp</text>
</a>
</g>
</g>
<!-- Node13&#45;&gt;Node17 -->
<g id="edge4" class="edge"><title>Node13&#45;&gt;Node17</title>
<path fill="none" stroke="midnightblue" d="M322.551,-131.896C366.833,-120.34 435.211,-102.495 475.394,-92.0091"/>
<polygon fill="midnightblue" stroke="midnightblue" points="321.459,-128.563 312.667,-134.475 323.227,-135.337 321.459,-128.563"/>
</g>
<!-- Node18 -->
<g id="node6" class="node"><title>Node18</title>
<g id="a_node6"><a xlink:href="../../d4/dbe/AuditFactory_8cpp.html" target="_top" xlink:title="src/core/audit/AuditFactory.cpp">
<polygon fill="white" stroke="black" points="97.5,-6 97.5,-25 250.5,-25 250.5,-6 97.5,-6"/>
<text text-anchor="middle" x="174" y="-13" font-family="Helvetica,sans-Serif" font-size="10.00">src/core/audit/AuditFactory.cpp</text>
</a>
</g>
</g>
<!-- Node17&#45;&gt;Node18 -->
<g id="edge5" class="edge"><title>Node17&#45;&gt;Node18</title>
<path fill="none" stroke="midnightblue" d="M453.832,-70.9583C388.094,-58.1649 278.534,-36.8434 217.84,-25.0317"/>
<polygon fill="midnightblue" stroke="midnightblue" points="453.507,-74.4607 463.992,-72.9355 454.845,-67.5896 453.507,-74.4607"/>
</g>
<!-- Node19 -->
<g id="node7" class="node"><title>Node19</title>
<g id="a_node7"><a xlink:href="../../d2/d8b/UserEvent_8cpp.html" target="_top" xlink:title="src/core/audit/UserEvent.cpp">
<polygon fill="white" stroke="black" points="269,-6 269,-25 413,-25 413,-6 269,-6"/>
<text text-anchor="middle" x="341" y="-13" font-family="Helvetica,sans-Serif" font-size="10.00">src/core/audit/UserEvent.cpp</text>
</a>
</g>
</g>
<!-- Node17&#45;&gt;Node19 -->
<g id="edge6" class="edge"><title>Node17&#45;&gt;Node19</title>
<path fill="none" stroke="midnightblue" d="M476.152,-69.1041C442.994,-56.1984 391.941,-36.3272 363.002,-25.0637"/>
<polygon fill="midnightblue" stroke="midnightblue" points="475.235,-72.5029 485.824,-72.8685 477.774,-65.9796 475.235,-72.5029"/>
</g>
<!-- Node20 -->
<g id="node8" class="node"><title>Node20</title>
<g id="a_node8"><a xlink:href="../../df/dc4/MembershipCRUD_8cpp.html" target="_top" xlink:title="src/modules/websock\l&#45;api/api/MembershipCRUD.cpp">
<polygon fill="white" stroke="black" points="431.5,-0.5 431.5,-30.5 584.5,-30.5 584.5,-0.5 431.5,-0.5"/>
<text text-anchor="start" x="439.5" y="-18.5" font-family="Helvetica,sans-Serif" font-size="10.00">src/modules/websock</text>
<text text-anchor="middle" x="508" y="-7.5" font-family="Helvetica,sans-Serif" font-size="10.00">&#45;api/api/MembershipCRUD.cpp</text>
</a>
</g>
</g>
<!-- Node17&#45;&gt;Node20 -->
<g id="edge7" class="edge"><title>Node17&#45;&gt;Node20</title>
<path fill="none" stroke="midnightblue" d="M508,-62.4107C508,-52.222 508,-39.901 508,-30.589"/>
<polygon fill="midnightblue" stroke="midnightblue" points="504.5,-62.7338 508,-72.7338 511.5,-62.7338 504.5,-62.7338"/>
</g>
<!-- Node21 -->
<g id="node9" class="node"><title>Node21</title>
<g id="a_node9"><a xlink:href="../../d7/da0/PasswordChange_8cpp.html" target="_top" xlink:title="src/modules/websock\l&#45;api/api/PasswordChange.cpp">
<polygon fill="white" stroke="black" points="602.5,-0.5 602.5,-30.5 749.5,-30.5 749.5,-0.5 602.5,-0.5"/>
<text text-anchor="start" x="610.5" y="-18.5" font-family="Helvetica,sans-Serif" font-size="10.00">src/modules/websock</text>
<text text-anchor="middle" x="676" y="-7.5" font-family="Helvetica,sans-Serif" font-size="10.00">&#45;api/api/PasswordChange.cpp</text>
</a>
</g>
</g>
<!-- Node17&#45;&gt;Node21 -->
<g id="edge8" class="edge"><title>Node17&#45;&gt;Node21</title>
<path fill="none" stroke="midnightblue" d="M539.784,-69.2025C568.253,-58.1878 609.983,-42.0424 639.743,-30.5281"/>
<polygon fill="midnightblue" stroke="midnightblue" points="538.372,-65.9959 530.309,-72.8685 540.898,-72.5243 538.372,-65.9959"/>
</g>
<!-- Node22 -->
<g id="node10" class="node"><title>Node22</title>
<g id="a_node10"><a xlink:href="../../df/df7/UserCRUD_8cpp.html" target="_top" xlink:title="src/modules/websock\l&#45;api/api/UserCRUD.cpp">
<polygon fill="white" stroke="black" points="767.5,-0.5 767.5,-30.5 888.5,-30.5 888.5,-0.5 767.5,-0.5"/>
<text text-anchor="start" x="775.5" y="-18.5" font-family="Helvetica,sans-Serif" font-size="10.00">src/modules/websock</text>
<text text-anchor="middle" x="828" y="-7.5" font-family="Helvetica,sans-Serif" font-size="10.00">&#45;api/api/UserCRUD.cpp</text>
</a>
</g>
</g>
<!-- Node17&#45;&gt;Node22 -->
<g id="edge9" class="edge"><title>Node17&#45;&gt;Node22</title>
<path fill="none" stroke="midnightblue" d="M561.199,-70.9343C612.024,-60.8074 690.774,-45.0319 759,-31 761.758,-30.4328 764.577,-29.8506 767.424,-29.2604"/>
<polygon fill="midnightblue" stroke="midnightblue" points="560.229,-67.5587 551.105,-72.9444 561.596,-74.4239 560.229,-67.5587"/>
</g>
</g>
</svg>
