<?xml version="1.0" encoding="UTF-8" standalone="no"?>
<!DOCTYPE svg PUBLIC "-//W3C//DTD SVG 1.1//EN"
 "http://www.w3.org/Graphics/SVG/1.1/DTD/svg11.dtd">
<!-- Generated by graphviz version 2.38.0 (20140413.2041)
 -->
<!-- Title: src/tools/db/STDTimePointODB.hpp Pages: 1 -->
<svg width="649pt" height="151pt"
 viewBox="0.00 0.00 649.00 151.00" xmlns="http://www.w3.org/2000/svg" xmlns:xlink="http://www.w3.org/1999/xlink">
<g id="graph0" class="graph" transform="scale(1 1) rotate(0) translate(4 147)">
<title>src/tools/db/STDTimePointODB.hpp</title>
<polygon fill="white" stroke="none" points="-4,4 -4,-147 645,-147 645,4 -4,4"/>
<!-- Node0 -->
<g id="node1" class="node"><title>Node0</title>
<polygon fill="#bfbfbf" stroke="black" points="232.5,-112.5 232.5,-142.5 367.5,-142.5 367.5,-112.5 232.5,-112.5"/>
<text text-anchor="start" x="240.5" y="-130.5" font-family="Helvetica,sans-Serif" font-size="10.00">src/tools/db/STDTimePoint</text>
<text text-anchor="middle" x="300" y="-119.5" font-family="Helvetica,sans-Serif" font-size="10.00">ODB.hpp</text>
</g>
<!-- Node1 -->
<g id="node2" class="node"><title>Node1</title>
<g id="a_node2"><a xlink:href="../../d6/d41/MyTime_8hpp.html" target="_top" xlink:title="tools/MyTime.hpp">
<polygon fill="white" stroke="black" points="87.5,-56.5 87.5,-75.5 182.5,-75.5 182.5,-56.5 87.5,-56.5"/>
<text text-anchor="middle" x="135" y="-63.5" font-family="Helvetica,sans-Serif" font-size="10.00">tools/MyTime.hpp</text>
</a>
</g>
</g>
<!-- Node0&#45;&gt;Node1 -->
<g id="edge1" class="edge"><title>Node0&#45;&gt;Node1</title>
<path fill="none" stroke="midnightblue" d="M260.897,-112.399C232.842,-102.283 195.427,-88.7905 168.691,-79.1493"/>
<polygon fill="midnightblue" stroke="midnightblue" points="169.603,-75.7576 159.009,-75.6578 167.229,-82.3426 169.603,-75.7576"/>
</g>
<!-- Node2 -->
<g id="node3" class="node"><title>Node2</title>
<polygon fill="white" stroke="#bfbfbf" points="0,-0.5 0,-19.5 46,-19.5 46,-0.5 0,-0.5"/>
<text text-anchor="middle" x="23" y="-7.5" font-family="Helvetica,sans-Serif" font-size="10.00">chrono</text>
</g>
<!-- Node0&#45;&gt;Node2 -->
<g id="edge8" class="edge"><title>Node0&#45;&gt;Node2</title>
<path fill="none" stroke="midnightblue" d="M232.444,-122.348C186.144,-116.926 124.866,-104.483 78,-76 58.7257,-64.2859 42.8893,-43.4455 33.2394,-28.5187"/>
<polygon fill="midnightblue" stroke="midnightblue" points="36.043,-26.3966 27.8175,-19.7189 30.0834,-30.0686 36.043,-26.3966"/>
</g>
<!-- Node7 -->
<g id="node8" class="node"><title>Node7</title>
<polygon fill="white" stroke="#bfbfbf" points="200.5,-56.5 200.5,-75.5 249.5,-75.5 249.5,-56.5 200.5,-56.5"/>
<text text-anchor="middle" x="225" y="-63.5" font-family="Helvetica,sans-Serif" font-size="10.00">cassert</text>
</g>
<!-- Node0&#45;&gt;Node7 -->
<g id="edge7" class="edge"><title>Node0&#45;&gt;Node7</title>
<path fill="none" stroke="midnightblue" d="M282.226,-112.399C270.654,-103.218 255.577,-91.2579 243.804,-81.9182"/>
<polygon fill="midnightblue" stroke="midnightblue" points="245.923,-79.1309 235.913,-75.6578 241.572,-84.6148 245.923,-79.1309"/>
</g>
<!-- Node8 -->
<g id="node9" class="node"><title>Node8</title>
<polygon fill="white" stroke="#bfbfbf" points="267.5,-56.5 267.5,-75.5 332.5,-75.5 332.5,-56.5 267.5,-56.5"/>
<text text-anchor="middle" x="300" y="-63.5" font-family="Helvetica,sans-Serif" font-size="10.00">date/date.h</text>
</g>
<!-- Node0&#45;&gt;Node8 -->
<g id="edge9" class="edge"><title>Node0&#45;&gt;Node8</title>
<path fill="none" stroke="midnightblue" d="M300,-112.399C300,-104.466 300,-94.458 300,-85.8583"/>
<polygon fill="midnightblue" stroke="midnightblue" points="303.5,-85.6577 300,-75.6578 296.5,-85.6578 303.5,-85.6577"/>
</g>
<!-- Node9 -->
<g id="node10" class="node"><title>Node9</title>
<polygon fill="white" stroke="#bfbfbf" points="351,-56.5 351,-75.5 401,-75.5 401,-56.5 351,-56.5"/>
<text text-anchor="middle" x="376" y="-63.5" font-family="Helvetica,sans-Serif" font-size="10.00">iomanip</text>
</g>
<!-- Node0&#45;&gt;Node9 -->
<g id="edge10" class="edge"><title>Node0&#45;&gt;Node9</title>
<path fill="none" stroke="midnightblue" d="M318.011,-112.399C329.738,-103.218 345.015,-91.2579 356.945,-81.9182"/>
<polygon fill="midnightblue" stroke="midnightblue" points="359.225,-84.5782 364.941,-75.6578 354.91,-79.0664 359.225,-84.5782"/>
</g>
<!-- Node10 -->
<g id="node11" class="node"><title>Node10</title>
<polygon fill="white" stroke="#bfbfbf" points="419,-56.5 419,-75.5 521,-75.5 521,-56.5 419,-56.5"/>
<text text-anchor="middle" x="470" y="-63.5" font-family="Helvetica,sans-Serif" font-size="10.00">odb/pgsql/traits.hxx</text>
</g>
<!-- Node0&#45;&gt;Node10 -->
<g id="edge11" class="edge"><title>Node0&#45;&gt;Node10</title>
<path fill="none" stroke="midnightblue" d="M340.288,-112.399C369.32,-102.238 408.081,-88.6716 435.651,-79.0221"/>
<polygon fill="midnightblue" stroke="midnightblue" points="436.981,-82.2649 445.263,-75.6578 434.669,-75.6578 436.981,-82.2649"/>
</g>
<!-- Node11 -->
<g id="node12" class="node"><title>Node11</title>
<polygon fill="white" stroke="#bfbfbf" points="539,-56.5 539,-75.5 641,-75.5 641,-56.5 539,-56.5"/>
<text text-anchor="middle" x="590" y="-63.5" font-family="Helvetica,sans-Serif" font-size="10.00">odb/sqlite/traits.hxx</text>
</g>
<!-- Node0&#45;&gt;Node11 -->
<g id="edge12" class="edge"><title>Node0&#45;&gt;Node11</title>
<path fill="none" stroke="midnightblue" d="M367.626,-112.625C419.706,-101.94 490.619,-87.3903 538.237,-77.6204"/>
<polygon fill="midnightblue" stroke="midnightblue" points="539.233,-80.9889 548.326,-75.5504 537.826,-74.1317 539.233,-80.9889"/>
</g>
<!-- Node1&#45;&gt;Node2 -->
<g id="edge2" class="edge"><title>Node1&#45;&gt;Node2</title>
<path fill="none" stroke="midnightblue" d="M117.005,-56.324C98.9623,-47.6247 70.9531,-34.1202 50.1973,-24.113"/>
<polygon fill="midnightblue" stroke="midnightblue" points="51.4778,-20.8449 40.9501,-19.6545 48.4377,-27.1502 51.4778,-20.8449"/>
</g>
<!-- Node3 -->
<g id="node4" class="node"><title>Node3</title>
<polygon fill="white" stroke="#bfbfbf" points="64.5,-0.5 64.5,-19.5 109.5,-19.5 109.5,-0.5 64.5,-0.5"/>
<text text-anchor="middle" x="87" y="-7.5" font-family="Helvetica,sans-Serif" font-size="10.00">cstdlib</text>
</g>
<!-- Node1&#45;&gt;Node3 -->
<g id="edge3" class="edge"><title>Node1&#45;&gt;Node3</title>
<path fill="none" stroke="midnightblue" d="M127.074,-56.083C120.154,-48.2982 109.935,-36.8015 101.548,-27.3665"/>
<polygon fill="midnightblue" stroke="midnightblue" points="104.038,-24.8999 94.7787,-19.7511 98.8065,-29.5505 104.038,-24.8999"/>
</g>
<!-- Node4 -->
<g id="node5" class="node"><title>Node4</title>
<polygon fill="white" stroke="#bfbfbf" points="127.5,-0.5 127.5,-19.5 168.5,-19.5 168.5,-0.5 127.5,-0.5"/>
<text text-anchor="middle" x="148" y="-7.5" font-family="Helvetica,sans-Serif" font-size="10.00">ctime</text>
</g>
<!-- Node1&#45;&gt;Node4 -->
<g id="edge4" class="edge"><title>Node1&#45;&gt;Node4</title>
<path fill="none" stroke="midnightblue" d="M137.147,-56.083C138.869,-48.9272 141.347,-38.6353 143.5,-29.6911"/>
<polygon fill="midnightblue" stroke="midnightblue" points="146.955,-30.2925 145.893,-19.7511 140.15,-28.6541 146.955,-30.2925"/>
</g>
<!-- Node5 -->
<g id="node6" class="node"><title>Node5</title>
<polygon fill="white" stroke="#bfbfbf" points="186.5,-0.5 186.5,-19.5 235.5,-19.5 235.5,-0.5 186.5,-0.5"/>
<text text-anchor="middle" x="211" y="-7.5" font-family="Helvetica,sans-Serif" font-size="10.00">string.h</text>
</g>
<!-- Node1&#45;&gt;Node5 -->
<g id="edge5" class="edge"><title>Node1&#45;&gt;Node5</title>
<path fill="none" stroke="midnightblue" d="M147.211,-56.324C158.776,-48.1066 176.375,-35.6017 190.161,-25.8069"/>
<polygon fill="midnightblue" stroke="midnightblue" points="192.443,-28.4791 198.567,-19.8339 188.388,-22.7729 192.443,-28.4791"/>
</g>
<!-- Node6 -->
<g id="node7" class="node"><title>Node6</title>
<polygon fill="white" stroke="#bfbfbf" points="253.5,-0.5 253.5,-19.5 294.5,-19.5 294.5,-0.5 253.5,-0.5"/>
<text text-anchor="middle" x="274" y="-7.5" font-family="Helvetica,sans-Serif" font-size="10.00">string</text>
</g>
<!-- Node1&#45;&gt;Node6 -->
<g id="edge6" class="edge"><title>Node1&#45;&gt;Node6</title>
<path fill="none" stroke="midnightblue" d="M157.025,-56.4435C180.511,-47.3194 217.853,-32.8125 244.012,-22.6501"/>
<polygon fill="midnightblue" stroke="midnightblue" points="245.384,-25.8721 253.437,-18.9883 242.849,-19.3471 245.384,-25.8721"/>
</g>
</g>
</svg>
