<?xml version="1.0" encoding="UTF-8" standalone="no"?>
<!DOCTYPE svg PUBLIC "-//W3C//DTD SVG 1.1//EN"
 "http://www.w3.org/Graphics/SVG/1.1/DTD/svg11.dtd">
<!-- Generated by graphviz version 2.38.0 (20140413.2041)
 -->
<!-- Title: src/core/config/RemoteConfigCollector.cpp Pages: 1 -->
<!--zoomable 352 -->
<svg id="main" version="1.1" xmlns="http://www.w3.org/2000/svg" xmlns:xlink="http://www.w3.org/1999/xlink" xml:space="preserve" onload="init(evt)">
<style type="text/css"><![CDATA[
.edge:hover path { stroke: red; }
.edge:hover polygon { stroke: red; fill: red; }
]]></style>
<script type="text/javascript"><![CDATA[
var edges = document.getElementsByTagName('g');
if (edges && edges.length) {
  for (var i=0;i<edges.length;i++) {
    if (edges[i].id.substr(0,4)=='edge') {
      edges[i].setAttribute('class','edge');
    }
  }
}
]]></script>
        <defs>
                <circle id="rim" cx="0" cy="0" r="7"/>
                <circle id="rim2" cx="0" cy="0" r="3.5"/>
                <g id="zoomPlus">
                        <use xlink:href="#rim" fill="#404040">
                                <set attributeName="fill" to="#808080" begin="zoomplus.mouseover" end="zoomplus.mouseout"/>
                        </use>
                        <path d="M-4,0h8M0,-4v8" fill="none" stroke="white" stroke-width="1.5" pointer-events="none"/>
                </g>
                <g id="zoomMin">
                        <use xlink:href="#rim" fill="#404040">
                                <set attributeName="fill" to="#808080" begin="zoomminus.mouseover" end="zoomminus.mouseout"/>
                        </use>
                        <path d="M-4,0h8" fill="none" stroke="white" stroke-width="1.5" pointer-events="none"/>
                </g>
                <g id="dirArrow">
                        <path fill="none" stroke="white" stroke-width="1.5" d="M0,-3.0v7 M-2.5,-0.5L0,-3.0L2.5,-0.5"/>
                </g>
               <g id="resetDef">
                       <use xlink:href="#rim2" fill="#404040">
                               <set attributeName="fill" to="#808080" begin="reset.mouseover" end="reset.mouseout"/>
                       </use>
               </g>
        </defs>

<script type="text/javascript">
var viewWidth = 2458;
var viewHeight = 352;
var sectionId = 'dynsection-0';
</script>
<script xlink:href="../../svgpan.js"/>
<svg id="graph" class="graph">
<g id="viewport">
<title>src/core/config/RemoteConfigCollector.cpp</title>
<polygon fill="white" stroke="none" points="-4,4 -4,-348 2453.6,-348 2453.6,4 -4,4"/>
<!-- Node0 -->
<g id="node1" class="node"><title>Node0</title>
<polygon fill="#bfbfbf" stroke="black" points="682,-313.5 682,-343.5 829,-343.5 829,-313.5 682,-313.5"/>
<text text-anchor="start" x="690" y="-331.5" font-family="Helvetica,sans-Serif" font-size="10.00">src/core/config/RemoteConfig</text>
<text text-anchor="middle" x="755.5" y="-320.5" font-family="Helvetica,sans-Serif" font-size="10.00">Collector.cpp</text>
</g>
<!-- Node1 -->
<g id="node2" class="node"><title>Node1</title>
<g id="a_node2"><a xlink:href="../../d9/d79/RemoteConfigCollector_8hpp.html" target="_top" xlink:title="core/config/RemoteConfig\lCollector.hpp">
<polygon fill="white" stroke="black" points="347,-179.5 347,-209.5 478,-209.5 478,-179.5 347,-179.5"/>
<text text-anchor="start" x="355" y="-197.5" font-family="Helvetica,sans-Serif" font-size="10.00">core/config/RemoteConfig</text>
<text text-anchor="middle" x="412.5" y="-186.5" font-family="Helvetica,sans-Serif" font-size="10.00">Collector.hpp</text>
</a>
</g>
</g>
<!-- Node0&#45;&gt;Node1 -->
<g id="edge1" class="edge"><title>Node0&#45;&gt;Node1</title>
<path fill="none" stroke="midnightblue" d="M688.284,-313.441C651.641,-304.812 605.863,-292.445 566.5,-277 564.952,-276.393 492.839,-238.15 447.854,-214.272"/>
<polygon fill="midnightblue" stroke="midnightblue" points="449.448,-211.156 438.975,-209.559 446.166,-217.339 449.448,-211.156"/>
</g>
<!-- Node8 -->
<g id="node9" class="node"><title>Node8</title>
<g id="a_node9"><a xlink:href="../../db/d79/ConfigManager_8hpp.html" target="_top" xlink:title="core/config/ConfigManager.hpp">
<polygon fill="white" stroke="black" points="575.5,-252 575.5,-271 727.5,-271 727.5,-252 575.5,-252"/>
<text text-anchor="middle" x="651.5" y="-259" font-family="Helvetica,sans-Serif" font-size="10.00">core/config/ConfigManager.hpp</text>
</a>
</g>
</g>
<!-- Node0&#45;&gt;Node8 -->
<g id="edge8" class="edge"><title>Node0&#45;&gt;Node8</title>
<path fill="none" stroke="midnightblue" d="M732.934,-313.396C715.493,-302.496 691.466,-287.479 674.034,-276.584"/>
<polygon fill="midnightblue" stroke="midnightblue" points="675.446,-273.339 665.111,-271.007 671.736,-279.275 675.446,-273.339"/>
</g>
<!-- Node24 -->
<g id="node25" class="node"><title>Node24</title>
<g id="a_node25"><a xlink:href="../../d4/d3d/log_8hpp.html" target="_top" xlink:title="tools/log.hpp">
<polygon fill="white" stroke="black" points="2128.5,-185 2128.5,-204 2200.5,-204 2200.5,-185 2128.5,-185"/>
<text text-anchor="middle" x="2164.5" y="-192" font-family="Helvetica,sans-Serif" font-size="10.00">tools/log.hpp</text>
</a>
</g>
</g>
<!-- Node0&#45;&gt;Node24 -->
<g id="edge76" class="edge"><title>Node0&#45;&gt;Node24</title>
<path fill="none" stroke="midnightblue" d="M760.615,-313.474C768.456,-294.288 785.445,-260.582 812.5,-246 874.878,-212.379 2017.05,-217.58 2087.5,-210 2097.54,-208.92 2108.24,-207.246 2118.36,-205.414"/>
<polygon fill="midnightblue" stroke="midnightblue" points="2119.07,-208.842 2128.25,-203.546 2117.77,-201.964 2119.07,-208.842"/>
</g>
<!-- Node29 -->
<g id="node30" class="node"><title>Node29</title>
<g id="a_node30"><a xlink:href="../../d2/df7/FetchRemoteConfig_8hpp.html" target="_top" xlink:title="core/tasks/FetchRemoteConfig.hpp">
<polygon fill="white" stroke="black" points="326.5,-252 326.5,-271 498.5,-271 498.5,-252 326.5,-252"/>
<text text-anchor="middle" x="412.5" y="-259" font-family="Helvetica,sans-Serif" font-size="10.00">core/tasks/FetchRemoteConfig.hpp</text>
</a>
</g>
</g>
<!-- Node0&#45;&gt;Node29 -->
<g id="edge59" class="edge"><title>Node0&#45;&gt;Node29</title>
<path fill="none" stroke="midnightblue" d="M681.918,-313.556C617.667,-301.38 525.842,-283.979 467.712,-272.963"/>
<polygon fill="midnightblue" stroke="midnightblue" points="468.096,-269.474 457.619,-271.05 466.793,-276.351 468.096,-269.474"/>
</g>
<!-- Node34 -->
<g id="node35" class="node"><title>Node34</title>
<g id="a_node35"><a xlink:href="../../d0/d4f/GetRemoteConfigVersion_8hpp.html" target="_top" xlink:title="core/tasks/GetRemoteConfig\lVersion.hpp">
<polygon fill="white" stroke="black" points="164.5,-246.5 164.5,-276.5 308.5,-276.5 308.5,-246.5 164.5,-246.5"/>
<text text-anchor="start" x="172.5" y="-264.5" font-family="Helvetica,sans-Serif" font-size="10.00">core/tasks/GetRemoteConfig</text>
<text text-anchor="middle" x="236.5" y="-253.5" font-family="Helvetica,sans-Serif" font-size="10.00">Version.hpp</text>
</a>
</g>
</g>
<!-- Node0&#45;&gt;Node34 -->
<g id="edge68" class="edge"><title>Node0&#45;&gt;Node34</title>
<path fill="none" stroke="midnightblue" d="M681.694,-320.409C596.616,-311.915 452.364,-296.534 318.886,-277.151"/>
<polygon fill="midnightblue" stroke="midnightblue" points="319.288,-273.673 308.887,-275.689 318.275,-280.599 319.288,-273.673"/>
</g>
<!-- Node35 -->
<g id="node36" class="node"><title>Node35</title>
<g id="a_node36"><a xlink:href="../../dc/dbd/ExceptionsTools_8hpp.html" target="_top" xlink:title="exception/ExceptionsTools.hpp">
<polygon fill="white" stroke="black" points="1684,-185 1684,-204 1837,-204 1837,-185 1684,-185"/>
<text text-anchor="middle" x="1760.5" y="-192" font-family="Helvetica,sans-Serif" font-size="10.00">exception/ExceptionsTools.hpp</text>
</a>
</g>
</g>
<!-- Node0&#45;&gt;Node35 -->
<g id="edge71" class="edge"><title>Node0&#45;&gt;Node35</title>
<path fill="none" stroke="midnightblue" d="M755.095,-313.308C755.418,-294.571 759.118,-262.079 779.5,-246 781.686,-244.275 1434.15,-211.708 1673.66,-199.807"/>
<polygon fill="midnightblue" stroke="midnightblue" points="1673.91,-203.3 1683.72,-199.308 1673.56,-196.308 1673.91,-203.3"/>
</g>
<!-- Node36 -->
<g id="node37" class="node"><title>Node36</title>
<g id="a_node37"><a xlink:href="../../df/d41/BuildString_8hpp.html" target="_top" xlink:title="tools/BuildString.hpp">
<polygon fill="white" stroke="black" points="822,-252 822,-271 929,-271 929,-252 822,-252"/>
<text text-anchor="middle" x="875.5" y="-259" font-family="Helvetica,sans-Serif" font-size="10.00">tools/BuildString.hpp</text>
</a>
</g>
</g>
<!-- Node0&#45;&gt;Node36 -->
<g id="edge73" class="edge"><title>Node0&#45;&gt;Node36</title>
<path fill="none" stroke="midnightblue" d="M781.538,-313.396C802.128,-302.243 830.673,-286.781 850.884,-275.834"/>
<polygon fill="midnightblue" stroke="midnightblue" points="852.669,-278.847 859.795,-271.007 849.335,-272.692 852.669,-278.847"/>
</g>
<!-- Node37 -->
<g id="node38" class="node"><title>Node37</title>
<g id="a_node38"><a xlink:href="../../de/d35/XmlPropertyTree_8hpp.html" target="_top" xlink:title="tools/XmlPropertyTree.hpp">
<polygon fill="white" stroke="black" points="947,-252 947,-271 1080,-271 1080,-252 947,-252"/>
<text text-anchor="middle" x="1013.5" y="-259" font-family="Helvetica,sans-Serif" font-size="10.00">tools/XmlPropertyTree.hpp</text>
</a>
</g>
</g>
<!-- Node0&#45;&gt;Node37 -->
<g id="edge74" class="edge"><title>Node0&#45;&gt;Node37</title>
<path fill="none" stroke="midnightblue" d="M811.165,-313.476C858.715,-301.496 926.173,-284.501 969.886,-273.488"/>
<polygon fill="midnightblue" stroke="midnightblue" points="970.806,-276.866 979.648,-271.029 969.096,-270.078 970.806,-276.866"/>
</g>
<!-- Node39 -->
<g id="node40" class="node"><title>Node39</title>
<polygon fill="white" stroke="#bfbfbf" points="1098.5,-252 1098.5,-271 1190.5,-271 1190.5,-252 1098.5,-252"/>
<text text-anchor="middle" x="1144.5" y="-259" font-family="Helvetica,sans-Serif" font-size="10.00">zmqpp/curve.hpp</text>
</g>
<!-- Node0&#45;&gt;Node39 -->
<g id="edge77" class="edge"><title>Node0&#45;&gt;Node39</title>
<path fill="none" stroke="midnightblue" d="M829.293,-318.524C897.029,-309.762 999.994,-295.119 1088.5,-277 1093.54,-275.969 1098.8,-274.771 1103.99,-273.513"/>
<polygon fill="midnightblue" stroke="midnightblue" points="1104.97,-276.875 1113.82,-271.05 1103.27,-270.085 1104.97,-276.875"/>
</g>
<!-- Node2 -->
<g id="node3" class="node"><title>Node2</title>
<polygon fill="white" stroke="#bfbfbf" points="362,-112.5 362,-142.5 463,-142.5 463,-112.5 362,-112.5"/>
<text text-anchor="start" x="370" y="-130.5" font-family="Helvetica,sans-Serif" font-size="10.00">boost/property_tree</text>
<text text-anchor="middle" x="412.5" y="-119.5" font-family="Helvetica,sans-Serif" font-size="10.00">/ptree.hpp</text>
</g>
<!-- Node1&#45;&gt;Node2 -->
<g id="edge2" class="edge"><title>Node1&#45;&gt;Node2</title>
<path fill="none" stroke="midnightblue" d="M412.5,-179.396C412.5,-171.645 412.5,-161.812 412.5,-152.86"/>
<polygon fill="midnightblue" stroke="midnightblue" points="416,-152.576 412.5,-142.577 409,-152.577 416,-152.576"/>
</g>
<!-- Node3 -->
<g id="node4" class="node"><title>Node3</title>
<polygon fill="white" stroke="#bfbfbf" points="481,-118 481,-137 516,-137 516,-118 481,-118"/>
<text text-anchor="middle" x="498.5" y="-125" font-family="Helvetica,sans-Serif" font-size="10.00">map</text>
</g>
<!-- Node1&#45;&gt;Node3 -->
<g id="edge3" class="edge"><title>Node1&#45;&gt;Node3</title>
<path fill="none" stroke="midnightblue" d="M431.161,-179.396C445.234,-168.759 464.493,-154.203 478.811,-143.381"/>
<polygon fill="midnightblue" stroke="midnightblue" points="481.129,-146.016 486.996,-137.195 476.908,-140.432 481.129,-146.016"/>
</g>
<!-- Node4 -->
<g id="node5" class="node"><title>Node4</title>
<polygon fill="white" stroke="#bfbfbf" points="215.5,-118 215.5,-137 267.5,-137 267.5,-118 215.5,-118"/>
<text text-anchor="middle" x="241.5" y="-125" font-family="Helvetica,sans-Serif" font-size="10.00">memory</text>
</g>
<!-- Node1&#45;&gt;Node4 -->
<g id="edge4" class="edge"><title>Node1&#45;&gt;Node4</title>
<path fill="none" stroke="midnightblue" d="M375.396,-179.396C344.993,-167.84 302.419,-151.656 273.498,-140.663"/>
<polygon fill="midnightblue" stroke="midnightblue" points="274.471,-137.289 263.88,-137.007 271.984,-143.832 274.471,-137.289"/>
</g>
<!-- Node5 -->
<g id="node6" class="node"><title>Node5</title>
<polygon fill="white" stroke="#bfbfbf" points="1361,-0.5 1361,-19.5 1402,-19.5 1402,-0.5 1361,-0.5"/>
<text text-anchor="middle" x="1381.5" y="-7.5" font-family="Helvetica,sans-Serif" font-size="10.00">string</text>
</g>
<!-- Node1&#45;&gt;Node5 -->
<g id="edge5" class="edge"><title>Node1&#45;&gt;Node5</title>
<path fill="none" stroke="midnightblue" d="M381.594,-179.336C367.224,-170.975 351.56,-158.886 343.5,-143 337.266,-130.713 335.959,-123.531 343.5,-112 377.488,-60.0323 411.053,-70.2113 471.5,-56 643.909,-15.466 1211.01,-11.4128 1350.36,-11.0333"/>
<polygon fill="midnightblue" stroke="midnightblue" points="1350.73,-14.5326 1360.73,-11.0099 1350.72,-7.53263 1350.73,-14.5326"/>
</g>
<!-- Node6 -->
<g id="node7" class="node"><title>Node6</title>
<polygon fill="white" stroke="#bfbfbf" points="480.5,-56.5 480.5,-75.5 524.5,-75.5 524.5,-56.5 480.5,-56.5"/>
<text text-anchor="middle" x="502.5" y="-63.5" font-family="Helvetica,sans-Serif" font-size="10.00">vector</text>
</g>
<!-- Node1&#45;&gt;Node6 -->
<g id="edge6" class="edge"><title>Node1&#45;&gt;Node6</title>
<path fill="none" stroke="midnightblue" d="M389.436,-179.334C365.855,-163.051 334.985,-135.541 352.5,-112 379.489,-75.7257 434.711,-67.5898 470.096,-66.342"/>
<polygon fill="midnightblue" stroke="midnightblue" points="470.454,-69.8361 480.388,-66.1523 470.325,-62.8373 470.454,-69.8361"/>
</g>
<!-- Node7 -->
<g id="node8" class="node"><title>Node7</title>
<polygon fill="white" stroke="#bfbfbf" points="534,-118 534,-137 631,-137 631,-118 534,-118"/>
<text text-anchor="middle" x="582.5" y="-125" font-family="Helvetica,sans-Serif" font-size="10.00">zmqpp/zmqpp.hpp</text>
</g>
<!-- Node1&#45;&gt;Node7 -->
<g id="edge7" class="edge"><title>Node1&#45;&gt;Node7</title>
<path fill="none" stroke="midnightblue" d="M449.387,-179.396C479.612,-167.84 521.938,-151.656 550.689,-140.663"/>
<polygon fill="midnightblue" stroke="midnightblue" points="552.16,-143.848 560.251,-137.007 549.66,-137.309 552.16,-143.848"/>
</g>
<!-- Node8&#45;&gt;Node2 -->
<g id="edge53" class="edge"><title>Node8&#45;&gt;Node2</title>
<path fill="none" stroke="midnightblue" d="M635.147,-251.836C616.354,-241.851 584.613,-224.901 557.5,-210 519.25,-188.978 475.622,-164.37 446.3,-147.738"/>
<polygon fill="midnightblue" stroke="midnightblue" points="447.732,-144.527 437.308,-142.633 444.276,-150.614 447.732,-144.527"/>
</g>
<!-- Node8&#45;&gt;Node3 -->
<g id="edge54" class="edge"><title>Node8&#45;&gt;Node3</title>
<path fill="none" stroke="midnightblue" d="M641.461,-251.839C615.952,-229.831 548.383,-171.536 516.124,-143.705"/>
<polygon fill="midnightblue" stroke="midnightblue" points="518.235,-140.903 508.377,-137.021 513.662,-146.204 518.235,-140.903"/>
</g>
<!-- Node8&#45;&gt;Node4 -->
<g id="edge55" class="edge"><title>Node8&#45;&gt;Node4</title>
<path fill="none" stroke="midnightblue" d="M575.282,-253C496.28,-244.388 378.685,-228.972 337.5,-210 319.815,-201.853 280.263,-165.586 257.836,-144.275"/>
<polygon fill="midnightblue" stroke="midnightblue" points="260.066,-141.565 250.421,-137.18 255.227,-146.623 260.066,-141.565"/>
</g>
<!-- Node8&#45;&gt;Node5 -->
<g id="edge56" class="edge"><title>Node8&#45;&gt;Node5</title>
<path fill="none" stroke="midnightblue" d="M716.801,-251.967C736.297,-249.695 757.737,-247.468 777.5,-246 1014.54,-228.399 1612.34,-250.832 1846.5,-210 1942.18,-193.316 1997.31,-221.501 2054.5,-143 2133.33,-34.7848 1554.29,-14.8314 1412.39,-11.5799"/>
<polygon fill="midnightblue" stroke="midnightblue" points="1412.28,-8.07689 1402.21,-11.3586 1412.13,-15.0752 1412.28,-8.07689"/>
</g>
<!-- Node8&#45;&gt;Node6 -->
<g id="edge57" class="edge"><title>Node8&#45;&gt;Node6</title>
<path fill="none" stroke="midnightblue" d="M653.732,-251.973C659.651,-227.264 673.104,-154.675 639.5,-112 614.592,-80.3683 566.913,-70.7201 534.902,-67.9183"/>
<polygon fill="midnightblue" stroke="midnightblue" points="534.921,-64.4113 524.703,-67.2087 534.436,-71.3944 534.921,-64.4113"/>
</g>
<!-- Node8&#45;&gt;Node7 -->
<g id="edge58" class="edge"><title>Node8&#45;&gt;Node7</title>
<path fill="none" stroke="midnightblue" d="M646.973,-251.839C635.762,-230.393 606.54,-174.489 591.593,-145.895"/>
<polygon fill="midnightblue" stroke="midnightblue" points="594.689,-144.262 586.954,-137.021 588.485,-147.505 594.689,-144.262"/>
</g>
<!-- Node9 -->
<g id="node10" class="node"><title>Node9</title>
<g id="a_node10"><a xlink:href="../../d1/ddd/leosacexception_8hpp.html" target="_top" xlink:title="Exception class for LEOSAC Project related errors. ">
<polygon fill="white" stroke="black" points="1306,-185 1306,-204 1457,-204 1457,-185 1306,-185"/>
<text text-anchor="middle" x="1381.5" y="-192" font-family="Helvetica,sans-Serif" font-size="10.00">exception/leosacexception.hpp</text>
</a>
</g>
</g>
<!-- Node8&#45;&gt;Node9 -->
<g id="edge9" class="edge"><title>Node8&#45;&gt;Node9</title>
<path fill="none" stroke="midnightblue" d="M699.975,-251.952C713.395,-249.787 727.986,-247.619 741.5,-246 939.287,-222.303 1172.85,-207.08 1295.83,-200.049"/>
<polygon fill="midnightblue" stroke="midnightblue" points="1296.15,-203.536 1305.93,-199.475 1295.75,-196.548 1296.15,-203.536"/>
</g>
<!-- Node8&#45;&gt;Node24 -->
<g id="edge46" class="edge"><title>Node8&#45;&gt;Node24</title>
<path fill="none" stroke="midnightblue" d="M717.176,-251.972C737.156,-249.671 759.199,-247.427 779.5,-246 1359.62,-205.233 1509.26,-272.006 2087.5,-210 2097.54,-208.923 2108.24,-207.251 2118.36,-205.42"/>
<polygon fill="midnightblue" stroke="midnightblue" points="2119.07,-208.847 2128.25,-203.552 2117.77,-201.969 2119.07,-208.847"/>
</g>
<!-- Node9&#45;&gt;Node5 -->
<g id="edge15" class="edge"><title>Node9&#45;&gt;Node5</title>
<path fill="none" stroke="midnightblue" d="M1305.65,-191.467C1226.64,-187.56 1110.54,-176.17 1082.5,-143 1004.97,-51.281 1260,-20.9955 1350.7,-13.2544"/>
<polygon fill="midnightblue" stroke="midnightblue" points="1351.23,-16.7228 1360.92,-12.4195 1350.66,-9.74604 1351.23,-16.7228"/>
</g>
<!-- Node10 -->
<g id="node11" class="node"><title>Node10</title>
<g id="a_node11"><a xlink:href="../../d6/d2f/Stacktrace_8hpp.html" target="_top" xlink:title="tools/Stacktrace.hpp">
<polygon fill="white" stroke="black" points="688,-118 688,-137 795,-137 795,-118 688,-118"/>
<text text-anchor="middle" x="741.5" y="-125" font-family="Helvetica,sans-Serif" font-size="10.00">tools/Stacktrace.hpp</text>
</a>
</g>
</g>
<!-- Node9&#45;&gt;Node10 -->
<g id="edge10" class="edge"><title>Node9&#45;&gt;Node10</title>
<path fill="none" stroke="midnightblue" d="M1305.8,-190.332C1194.97,-184.915 982.293,-171.568 803.5,-143 797.196,-141.993 790.581,-140.702 784.116,-139.307"/>
<polygon fill="midnightblue" stroke="midnightblue" points="784.673,-135.845 774.147,-137.055 783.13,-142.672 784.673,-135.845"/>
</g>
<!-- Node11 -->
<g id="node12" class="node"><title>Node11</title>
<polygon fill="white" stroke="#bfbfbf" points="1669,-118 1669,-137 1718,-137 1718,-118 1669,-118"/>
<text text-anchor="middle" x="1693.5" y="-125" font-family="Helvetica,sans-Serif" font-size="10.00">cstddef</text>
</g>
<!-- Node9&#45;&gt;Node11 -->
<g id="edge13" class="edge"><title>Node9&#45;&gt;Node11</title>
<path fill="none" stroke="midnightblue" d="M1455.17,-184.974C1512.08,-177.241 1592.36,-163.82 1660.5,-143 1662.43,-142.41 1664.4,-141.739 1666.36,-141.016"/>
<polygon fill="midnightblue" stroke="midnightblue" points="1668.03,-144.116 1675.98,-137.11 1665.4,-137.631 1668.03,-144.116"/>
</g>
<!-- Node12 -->
<g id="node13" class="node"><title>Node12</title>
<polygon fill="white" stroke="#bfbfbf" points="1986,-118 1986,-137 2045,-137 2045,-118 1986,-118"/>
<text text-anchor="middle" x="2015.5" y="-125" font-family="Helvetica,sans-Serif" font-size="10.00">exception</text>
</g>
<!-- Node9&#45;&gt;Node12 -->
<g id="edge14" class="edge"><title>Node9&#45;&gt;Node12</title>
<path fill="none" stroke="midnightblue" d="M1457.06,-189.644C1594.37,-182.212 1879.57,-164.707 1976.5,-143 1979.57,-142.312 1982.73,-141.438 1985.85,-140.461"/>
<polygon fill="midnightblue" stroke="midnightblue" points="1987.27,-143.673 1995.57,-137.091 1984.98,-137.059 1987.27,-143.673"/>
</g>
<!-- Node13 -->
<g id="node14" class="node"><title>Node13</title>
<g id="a_node14"><a xlink:href="../../d7/d7a/configexception_8hpp.html" target="_top" xlink:title="configexception.hpp">
<polygon fill="white" stroke="black" points="1863.5,-118 1863.5,-137 1967.5,-137 1967.5,-118 1863.5,-118"/>
<text text-anchor="middle" x="1915.5" y="-125" font-family="Helvetica,sans-Serif" font-size="10.00">configexception.hpp</text>
</a>
</g>
</g>
<!-- Node9&#45;&gt;Node13 -->
<g id="edge16" class="edge"><title>Node9&#45;&gt;Node13</title>
<path fill="none" stroke="midnightblue" d="M1457.05,-187.919C1549.22,-180.745 1709.36,-166.35 1845.5,-143 1851.63,-141.949 1858.05,-140.646 1864.44,-139.255"/>
<polygon fill="midnightblue" stroke="midnightblue" points="1865.41,-142.625 1874.4,-137.021 1863.88,-135.795 1865.41,-142.625"/>
</g>
<!-- Node16 -->
<g id="node17" class="node"><title>Node16</title>
<g id="a_node17"><a xlink:href="../../d8/db0/coreexception_8hpp.html" target="_top" xlink:title="Exception class for Core related errors. ">
<polygon fill="white" stroke="black" points="1091.5,-118 1091.5,-137 1187.5,-137 1187.5,-118 1091.5,-118"/>
<text text-anchor="middle" x="1139.5" y="-125" font-family="Helvetica,sans-Serif" font-size="10.00">coreexception.hpp</text>
</a>
</g>
</g>
<!-- Node9&#45;&gt;Node16 -->
<g id="edge22" class="edge"><title>Node9&#45;&gt;Node16</title>
<path fill="none" stroke="midnightblue" d="M1344.87,-184.936C1299.31,-173.366 1222.25,-152.715 1176.52,-139.859"/>
<polygon fill="midnightblue" stroke="midnightblue" points="1177.28,-136.438 1166.71,-137.083 1175.38,-143.174 1177.28,-136.438"/>
</g>
<!-- Node17 -->
<g id="node18" class="node"><title>Node17</title>
<g id="a_node18"><a xlink:href="../../d8/d77/deviceexception_8hpp.html" target="_top" xlink:title="Exception class for Device related errors. ">
<polygon fill="white" stroke="black" points="1205.5,-118 1205.5,-137 1311.5,-137 1311.5,-118 1205.5,-118"/>
<text text-anchor="middle" x="1258.5" y="-125" font-family="Helvetica,sans-Serif" font-size="10.00">deviceexception.hpp</text>
</a>
</g>
</g>
<!-- Node9&#45;&gt;Node17 -->
<g id="edge25" class="edge"><title>Node9&#45;&gt;Node17</title>
<path fill="none" stroke="midnightblue" d="M1360.41,-184.869C1337.5,-173.99 1301.58,-155.161 1278.94,-142.282"/>
<polygon fill="midnightblue" stroke="midnightblue" points="1280.54,-139.161 1270.13,-137.167 1277.02,-145.215 1280.54,-139.161"/>
</g>
<!-- Node18 -->
<g id="node19" class="node"><title>Node18</title>
<g id="a_node19"><a xlink:href="../../db/d35/dynlibexception_8hpp.html" target="_top" xlink:title="Exception class for DynLib related errors. ">
<polygon fill="white" stroke="black" points="1330,-118 1330,-137 1433,-137 1433,-118 1330,-118"/>
<text text-anchor="middle" x="1381.5" y="-125" font-family="Helvetica,sans-Serif" font-size="10.00">dynlibexception.hpp</text>
</a>
</g>
</g>
<!-- Node9&#45;&gt;Node18 -->
<g id="edge28" class="edge"><title>Node9&#45;&gt;Node18</title>
<path fill="none" stroke="midnightblue" d="M1376.71,-184.734C1374.7,-175.183 1374.24,-159.618 1375.32,-147.283"/>
<polygon fill="midnightblue" stroke="midnightblue" points="1378.82,-147.517 1376.74,-137.127 1371.88,-146.544 1378.82,-147.517"/>
</g>
<!-- Node19 -->
<g id="node20" class="node"><title>Node19</title>
<g id="a_node20"><a xlink:href="../../d0/d4e/fsexception_8hpp.html" target="_top" xlink:title="Exception class for filesystem related errors. ">
<polygon fill="white" stroke="black" points="1451.5,-118 1451.5,-137 1537.5,-137 1537.5,-118 1451.5,-118"/>
<text text-anchor="middle" x="1494.5" y="-125" font-family="Helvetica,sans-Serif" font-size="10.00">fsexception.hpp</text>
</a>
</g>
</g>
<!-- Node9&#45;&gt;Node19 -->
<g id="edge31" class="edge"><title>Node9&#45;&gt;Node19</title>
<path fill="none" stroke="midnightblue" d="M1391.95,-184.734C1408.78,-173.721 1441.56,-154.713 1465.66,-141.879"/>
<polygon fill="midnightblue" stroke="midnightblue" points="1467.5,-144.864 1474.74,-137.127 1464.26,-138.662 1467.5,-144.864"/>
</g>
<!-- Node20 -->
<g id="node21" class="node"><title>Node20</title>
<g id="a_node21"><a xlink:href="../../d1/d8e/gpioexception_8hpp.html" target="_top" xlink:title="Exception class for Gpio related errors. ">
<polygon fill="white" stroke="black" points="1556,-118 1556,-137 1651,-137 1651,-118 1556,-118"/>
<text text-anchor="middle" x="1603.5" y="-125" font-family="Helvetica,sans-Serif" font-size="10.00">gpioexception.hpp</text>
</a>
</g>
</g>
<!-- Node9&#45;&gt;Node20 -->
<g id="edge34" class="edge"><title>Node9&#45;&gt;Node20</title>
<path fill="none" stroke="midnightblue" d="M1406.22,-184.869C1443.41,-173.254 1513.87,-152.576 1559.81,-139.753"/>
<polygon fill="midnightblue" stroke="midnightblue" points="1560.81,-143.109 1569.51,-137.064 1558.93,-136.364 1560.81,-143.109"/>
</g>
<!-- Node21 -->
<g id="node22" class="node"><title>Node21</title>
<g id="a_node22"><a xlink:href="../../d7/d8c/moduleexception_8hpp.html" target="_top" xlink:title="Exception class for modules. ">
<polygon fill="white" stroke="black" points="1736,-118 1736,-137 1845,-137 1845,-118 1736,-118"/>
<text text-anchor="middle" x="1790.5" y="-125" font-family="Helvetica,sans-Serif" font-size="10.00">moduleexception.hpp</text>
</a>
</g>
</g>
<!-- Node9&#45;&gt;Node21 -->
<g id="edge37" class="edge"><title>Node9&#45;&gt;Node21</title>
<path fill="none" stroke="midnightblue" d="M1444.54,-184.998C1512.44,-176.072 1623.34,-160.865 1718.5,-143 1724.51,-141.872 1730.81,-140.568 1737.1,-139.213"/>
<polygon fill="midnightblue" stroke="midnightblue" points="1737.9,-142.62 1746.92,-137.061 1736.41,-135.782 1737.9,-142.62"/>
</g>
<!-- Node22 -->
<g id="node23" class="node"><title>Node22</title>
<g id="a_node23"><a xlink:href="../../df/d8d/scriptexception_8hpp.html" target="_top" xlink:title="Exception class for Script related errors. ">
<polygon fill="white" stroke="black" points="813,-118 813,-137 914,-137 914,-118 813,-118"/>
<text text-anchor="middle" x="863.5" y="-125" font-family="Helvetica,sans-Serif" font-size="10.00">scriptexception.hpp</text>
</a>
</g>
</g>
<!-- Node9&#45;&gt;Node22 -->
<g id="edge40" class="edge"><title>Node9&#45;&gt;Node22</title>
<path fill="none" stroke="midnightblue" d="M1305.69,-188.704C1212.61,-181.83 1050.46,-167.256 913.5,-143 907.852,-142 901.942,-140.77 896.222,-139.454"/>
<polygon fill="midnightblue" stroke="midnightblue" points="896.773,-135.986 886.228,-137.022 895.117,-142.787 896.773,-135.986"/>
</g>
<!-- Node23 -->
<g id="node24" class="node"><title>Node23</title>
<g id="a_node24"><a xlink:href="../../dc/dce/signalexception_8hpp.html" target="_top" xlink:title="Exception class for Signal related errors. ">
<polygon fill="white" stroke="black" points="932,-118 932,-137 1035,-137 1035,-118 932,-118"/>
<text text-anchor="middle" x="983.5" y="-125" font-family="Helvetica,sans-Serif" font-size="10.00">signalexception.hpp</text>
</a>
</g>
</g>
<!-- Node9&#45;&gt;Node23 -->
<g id="edge43" class="edge"><title>Node9&#45;&gt;Node23</title>
<path fill="none" stroke="midnightblue" d="M1310.28,-184.964C1240.98,-175.79 1133.07,-160.191 1040.5,-143 1034.44,-141.875 1028.09,-140.601 1021.9,-139.287"/>
<polygon fill="midnightblue" stroke="midnightblue" points="1022.23,-135.776 1011.71,-137.056 1020.73,-142.614 1022.23,-135.776"/>
</g>
<!-- Node10&#45;&gt;Node5 -->
<g id="edge11" class="edge"><title>Node10&#45;&gt;Node5</title>
<path fill="none" stroke="midnightblue" d="M763.477,-117.894C802.897,-102.827 888.511,-71.7772 963.5,-56 1106.21,-25.9738 1280.79,-15.4053 1350.55,-12.2125"/>
<polygon fill="midnightblue" stroke="midnightblue" points="1350.99,-15.6967 1360.83,-11.7615 1350.69,-8.70341 1350.99,-15.6967"/>
</g>
<!-- Node10&#45;&gt;Node6 -->
<g id="edge12" class="edge"><title>Node10&#45;&gt;Node6</title>
<path fill="none" stroke="midnightblue" d="M707.257,-117.975C661.035,-106.468 579.305,-86.1208 534.348,-74.9287"/>
<polygon fill="midnightblue" stroke="midnightblue" points="535.096,-71.508 524.546,-72.4885 533.404,-78.3007 535.096,-71.508"/>
</g>
<!-- Node13&#45;&gt;Node5 -->
<g id="edge21" class="edge"><title>Node13&#45;&gt;Node5</title>
<path fill="none" stroke="midnightblue" d="M1880.05,-117.934C1871.68,-115.95 1862.78,-113.872 1854.5,-112 1688.23,-74.405 1488.2,-32.9194 1412.53,-17.3573"/>
<polygon fill="midnightblue" stroke="midnightblue" points="1412.79,-13.8368 1402.29,-15.2529 1411.38,-20.6936 1412.79,-13.8368"/>
</g>
<!-- Node13&#45;&gt;Node9 -->
<g id="edge17" class="edge"><title>Node13&#45;&gt;Node9</title>
<path fill="none" stroke="midnightblue" d="M1891.7,-137.021C1882.87,-139.212 1872.83,-141.399 1863.5,-143 1726.12,-166.563 1564.29,-181.007 1467.39,-188.114"/>
<polygon fill="midnightblue" stroke="midnightblue" points="1467.07,-184.628 1457.35,-188.841 1467.57,-191.609 1467.07,-184.628"/>
</g>
<!-- Node14 -->
<g id="node15" class="node"><title>Node14</title>
<g id="a_node15"><a xlink:href="../../dd/d35/Colorize_8hpp.html" target="_top" xlink:title="tools/Colorize.hpp">
<polygon fill="white" stroke="black" points="2140,-56.5 2140,-75.5 2235,-75.5 2235,-56.5 2140,-56.5"/>
<text text-anchor="middle" x="2187.5" y="-63.5" font-family="Helvetica,sans-Serif" font-size="10.00">tools/Colorize.hpp</text>
</a>
</g>
</g>
<!-- Node13&#45;&gt;Node14 -->
<g id="edge18" class="edge"><title>Node13&#45;&gt;Node14</title>
<path fill="none" stroke="midnightblue" d="M1951.54,-117.952C1960.04,-115.968 1969.09,-113.885 1977.5,-112 2031.73,-99.8492 2094,-86.5929 2136.56,-77.6374"/>
<polygon fill="midnightblue" stroke="midnightblue" points="2137.34,-81.0509 2146.41,-75.5693 2135.9,-74.2005 2137.34,-81.0509"/>
</g>
<!-- Node14&#45;&gt;Node5 -->
<g id="edge20" class="edge"><title>Node14&#45;&gt;Node5</title>
<path fill="none" stroke="midnightblue" d="M2139.82,-57.6682C2134.99,-57.0486 2130.15,-56.4775 2125.5,-56 1849.77,-27.6993 1514.6,-15.254 1412.48,-11.944"/>
<polygon fill="midnightblue" stroke="midnightblue" points="1412.37,-8.43873 1402.26,-11.6183 1412.15,-15.4352 1412.37,-8.43873"/>
</g>
<!-- Node15 -->
<g id="node16" class="node"><title>Node15</title>
<polygon fill="white" stroke="#bfbfbf" points="2296.5,-0.5 2296.5,-19.5 2348.5,-19.5 2348.5,-0.5 2296.5,-0.5"/>
<text text-anchor="middle" x="2322.5" y="-7.5" font-family="Helvetica,sans-Serif" font-size="10.00">sstream</text>
</g>
<!-- Node14&#45;&gt;Node15 -->
<g id="edge19" class="edge"><title>Node14&#45;&gt;Node15</title>
<path fill="none" stroke="midnightblue" d="M2208.89,-56.4435C2231.21,-47.5171 2266.4,-33.4387 2291.71,-23.3168"/>
<polygon fill="midnightblue" stroke="midnightblue" points="2293.22,-26.4801 2301.21,-19.5164 2290.62,-19.9807 2293.22,-26.4801"/>
</g>
<!-- Node16&#45;&gt;Node5 -->
<g id="edge23" class="edge"><title>Node16&#45;&gt;Node5</title>
<path fill="none" stroke="midnightblue" d="M1157.69,-117.819C1199.84,-97.7026 1304.38,-47.8068 1354.22,-24.0176"/>
<polygon fill="midnightblue" stroke="midnightblue" points="1355.91,-27.0905 1363.43,-19.6245 1352.9,-20.7731 1355.91,-27.0905"/>
</g>
<!-- Node16&#45;&gt;Node9 -->
<g id="edge24" class="edge"><title>Node16&#45;&gt;Node9</title>
<path fill="none" stroke="midnightblue" d="M1176.13,-137.064C1221.63,-148.618 1298.55,-169.232 1344.31,-182.091"/>
<polygon fill="midnightblue" stroke="midnightblue" points="1343.55,-185.515 1354.12,-184.869 1345.45,-178.779 1343.55,-185.515"/>
</g>
<!-- Node17&#45;&gt;Node5 -->
<g id="edge26" class="edge"><title>Node17&#45;&gt;Node5</title>
<path fill="none" stroke="midnightblue" d="M1267.74,-117.819C1288.4,-98.4207 1338.55,-51.3311 1364.82,-26.6625"/>
<polygon fill="midnightblue" stroke="midnightblue" points="1367.25,-29.1788 1372.15,-19.782 1362.46,-24.0759 1367.25,-29.1788"/>
</g>
<!-- Node17&#45;&gt;Node9 -->
<g id="edge27" class="edge"><title>Node17&#45;&gt;Node9</title>
<path fill="none" stroke="midnightblue" d="M1279.58,-137.127C1302.43,-147.976 1338.23,-166.737 1360.87,-179.615"/>
<polygon fill="midnightblue" stroke="midnightblue" points="1359.29,-182.744 1369.7,-184.734 1362.81,-176.689 1359.29,-182.744"/>
</g>
<!-- Node18&#45;&gt;Node5 -->
<g id="edge29" class="edge"><title>Node18&#45;&gt;Node5</title>
<path fill="none" stroke="midnightblue" d="M1381.5,-117.819C1381.5,-99.2568 1381.5,-55.3391 1381.5,-29.9734"/>
<polygon fill="midnightblue" stroke="midnightblue" points="1385,-29.782 1381.5,-19.782 1378,-29.782 1385,-29.782"/>
</g>
<!-- Node18&#45;&gt;Node9 -->
<g id="edge30" class="edge"><title>Node18&#45;&gt;Node9</title>
<path fill="none" stroke="midnightblue" d="M1386.26,-137.127C1388.28,-146.62 1388.76,-162.17 1387.7,-174.537"/>
<polygon fill="midnightblue" stroke="midnightblue" points="1384.19,-174.348 1386.29,-184.734 1391.13,-175.308 1384.19,-174.348"/>
</g>
<!-- Node19&#45;&gt;Node5 -->
<g id="edge32" class="edge"><title>Node19&#45;&gt;Node5</title>
<path fill="none" stroke="midnightblue" d="M1486.01,-117.819C1467.11,-98.5043 1421.35,-51.7366 1397.14,-26.9827"/>
<polygon fill="midnightblue" stroke="midnightblue" points="1399.59,-24.4824 1390.09,-19.782 1394.58,-29.3777 1399.59,-24.4824"/>
</g>
<!-- Node19&#45;&gt;Node9 -->
<g id="edge33" class="edge"><title>Node19&#45;&gt;Node9</title>
<path fill="none" stroke="midnightblue" d="M1484.2,-137.167C1467.43,-148.16 1434.54,-167.231 1410.37,-180.103"/>
<polygon fill="midnightblue" stroke="midnightblue" points="1408.5,-177.131 1401.27,-184.869 1411.75,-183.333 1408.5,-177.131"/>
</g>
<!-- Node20&#45;&gt;Node5 -->
<g id="edge36" class="edge"><title>Node20&#45;&gt;Node5</title>
<path fill="none" stroke="midnightblue" d="M1586.81,-117.819C1548.31,-97.7864 1453.04,-48.2221 1407.1,-24.3164"/>
<polygon fill="midnightblue" stroke="midnightblue" points="1408.56,-21.135 1398.08,-19.6245 1405.33,-27.3448 1408.56,-21.135"/>
</g>
<!-- Node20&#45;&gt;Node9 -->
<g id="edge35" class="edge"><title>Node20&#45;&gt;Node9</title>
<path fill="none" stroke="midnightblue" d="M1579,-137.064C1541.94,-148.643 1471.49,-169.319 1425.46,-182.172"/>
<polygon fill="midnightblue" stroke="midnightblue" points="1424.44,-178.822 1415.74,-184.869 1426.31,-185.567 1424.44,-178.822"/>
</g>
<!-- Node21&#45;&gt;Node5 -->
<g id="edge38" class="edge"><title>Node21&#45;&gt;Node5</title>
<path fill="none" stroke="midnightblue" d="M1760.09,-117.913C1684.42,-96.5424 1488.26,-41.1473 1412.23,-19.6791"/>
<polygon fill="midnightblue" stroke="midnightblue" points="1412.9,-16.2316 1402.33,-16.8821 1411,-22.9681 1412.9,-16.2316"/>
</g>
<!-- Node21&#45;&gt;Node9 -->
<g id="edge39" class="edge"><title>Node21&#45;&gt;Node9</title>
<path fill="none" stroke="midnightblue" d="M1764.31,-137.061C1755.5,-139.153 1745.66,-141.281 1736.5,-143 1645.18,-160.143 1539.38,-174.838 1467.14,-183.885"/>
<polygon fill="midnightblue" stroke="midnightblue" points="1466.66,-180.417 1457.17,-185.124 1467.52,-187.364 1466.66,-180.417"/>
</g>
<!-- Node22&#45;&gt;Node5 -->
<g id="edge41" class="edge"><title>Node22&#45;&gt;Node5</title>
<path fill="none" stroke="midnightblue" d="M878.525,-117.911C905.83,-102.728 965.833,-71.3084 1020.5,-56 1139.51,-22.6735 1287.5,-14.0028 1350.64,-11.767"/>
<polygon fill="midnightblue" stroke="midnightblue" points="1350.84,-15.2623 1360.72,-11.44 1350.61,-8.26602 1350.84,-15.2623"/>
</g>
<!-- Node22&#45;&gt;Node9 -->
<g id="edge42" class="edge"><title>Node22&#45;&gt;Node9</title>
<path fill="none" stroke="midnightblue" d="M903.522,-137.022C912.755,-139.212 922.464,-141.4 931.5,-143 1057.62,-165.335 1205.08,-179.461 1295.95,-186.925"/>
<polygon fill="midnightblue" stroke="midnightblue" points="1295.67,-190.414 1305.93,-187.736 1296.24,-183.437 1295.67,-190.414"/>
</g>
<!-- Node23&#45;&gt;Node5 -->
<g id="edge44" class="edge"><title>Node23&#45;&gt;Node5</title>
<path fill="none" stroke="midnightblue" d="M988.754,-117.772C998.549,-102.369 1021.19,-70.6123 1049.5,-56 1101.73,-29.0356 1278.45,-16.5982 1350.52,-12.5575"/>
<polygon fill="midnightblue" stroke="midnightblue" points="1350.96,-16.0386 1360.76,-12.0008 1350.58,-9.04891 1350.96,-16.0386"/>
</g>
<!-- Node23&#45;&gt;Node9 -->
<g id="edge45" class="edge"><title>Node23&#45;&gt;Node9</title>
<path fill="none" stroke="midnightblue" d="M1029.12,-137.056C1038.87,-139.125 1049.04,-141.244 1058.5,-143 1146.37,-159.318 1248.06,-174.202 1313.57,-183.517"/>
<polygon fill="midnightblue" stroke="midnightblue" points="1313.37,-187.024 1323.76,-184.964 1314.36,-180.094 1313.37,-187.024"/>
</g>
<!-- Node24&#45;&gt;Node5 -->
<g id="edge52" class="edge"><title>Node24&#45;&gt;Node5</title>
<path fill="none" stroke="midnightblue" d="M2158.35,-184.747C2151.49,-174.821 2140.19,-158.057 2131.5,-143 2109.84,-105.473 2123.67,-79.8587 2087.5,-56 2030.59,-18.4626 1541.34,-12.1882 1412.49,-11.1839"/>
<polygon fill="midnightblue" stroke="midnightblue" points="1412.19,-7.68173 1402.16,-11.1089 1412.14,-14.6815 1412.19,-7.68173"/>
</g>
<!-- Node24&#45;&gt;Node15 -->
<g id="edge51" class="edge"><title>Node24&#45;&gt;Node15</title>
<path fill="none" stroke="midnightblue" d="M2189.14,-184.988C2196,-182.823 2203.49,-180.646 2210.5,-179 2260.65,-167.224 2406.02,-182.152 2439.5,-143 2477.22,-98.8903 2394.97,-47.7464 2349.7,-24.1581"/>
<polygon fill="midnightblue" stroke="midnightblue" points="2351.16,-20.9734 2340.66,-19.5553 2347.99,-27.2115 2351.16,-20.9734"/>
</g>
<!-- Node25 -->
<g id="node26" class="node"><title>Node25</title>
<polygon fill="white" stroke="#bfbfbf" points="2140,-118 2140,-137 2189,-137 2189,-118 2140,-118"/>
<text text-anchor="middle" x="2164.5" y="-125" font-family="Helvetica,sans-Serif" font-size="10.00">cassert</text>
</g>
<!-- Node24&#45;&gt;Node25 -->
<g id="edge47" class="edge"><title>Node24&#45;&gt;Node25</title>
<path fill="none" stroke="midnightblue" d="M2164.5,-184.734C2164.5,-175.183 2164.5,-159.618 2164.5,-147.283"/>
<polygon fill="midnightblue" stroke="midnightblue" points="2168,-147.127 2164.5,-137.127 2161,-147.127 2168,-147.127"/>
</g>
<!-- Node26 -->
<g id="node27" class="node"><title>Node26</title>
<polygon fill="white" stroke="#bfbfbf" points="2207,-118 2207,-137 2254,-137 2254,-118 2207,-118"/>
<text text-anchor="middle" x="2230.5" y="-125" font-family="Helvetica,sans-Serif" font-size="10.00">csignal</text>
</g>
<!-- Node24&#45;&gt;Node26 -->
<g id="edge48" class="edge"><title>Node24&#45;&gt;Node26</title>
<path fill="none" stroke="midnightblue" d="M2173.4,-184.734C2183.89,-174.403 2201.52,-157.037 2214.42,-144.332"/>
<polygon fill="midnightblue" stroke="midnightblue" points="2217.07,-146.638 2221.74,-137.127 2212.16,-141.651 2217.07,-146.638"/>
</g>
<!-- Node27 -->
<g id="node28" class="node"><title>Node27</title>
<polygon fill="white" stroke="#bfbfbf" points="2272.5,-118 2272.5,-137 2326.5,-137 2326.5,-118 2272.5,-118"/>
<text text-anchor="middle" x="2299.5" y="-125" font-family="Helvetica,sans-Serif" font-size="10.00">iostream</text>
</g>
<!-- Node24&#45;&gt;Node27 -->
<g id="edge49" class="edge"><title>Node24&#45;&gt;Node27</title>
<path fill="none" stroke="midnightblue" d="M2182.43,-184.869C2205.42,-173.796 2245.53,-154.486 2272.3,-141.598"/>
<polygon fill="midnightblue" stroke="midnightblue" points="2274.01,-144.659 2281.5,-137.167 2270.97,-138.352 2274.01,-144.659"/>
</g>
<!-- Node28 -->
<g id="node29" class="node"><title>Node28</title>
<polygon fill="white" stroke="#bfbfbf" points="2345,-118 2345,-137 2430,-137 2430,-118 2345,-118"/>
<text text-anchor="middle" x="2387.5" y="-125" font-family="Helvetica,sans-Serif" font-size="10.00">spdlog/spdlog.h</text>
</g>
<!-- Node24&#45;&gt;Node28 -->
<g id="edge50" class="edge"><title>Node24&#45;&gt;Node28</title>
<path fill="none" stroke="midnightblue" d="M2191.22,-184.942C2197.53,-182.958 2204.24,-180.878 2210.5,-179 2236.05,-171.328 2303.59,-152.177 2347.46,-139.787"/>
<polygon fill="midnightblue" stroke="midnightblue" points="2348.57,-143.109 2357.25,-137.023 2346.67,-136.372 2348.57,-143.109"/>
</g>
<!-- Node29&#45;&gt;Node1 -->
<g id="edge67" class="edge"><title>Node29&#45;&gt;Node1</title>
<path fill="none" stroke="midnightblue" d="M412.5,-251.734C412.5,-243.541 412.5,-230.923 412.5,-219.714"/>
<polygon fill="midnightblue" stroke="midnightblue" points="416,-219.589 412.5,-209.589 409,-219.589 416,-219.589"/>
</g>
<!-- Node30 -->
<g id="node31" class="node"><title>Node30</title>
<g id="a_node31"><a xlink:href="../../dc/d49/LeosacFwd_8hpp.html" target="_top" xlink:title="LeosacFwd.hpp">
<polygon fill="white" stroke="black" points="198.5,-185 198.5,-204 284.5,-204 284.5,-185 198.5,-185"/>
<text text-anchor="middle" x="241.5" y="-192" font-family="Helvetica,sans-Serif" font-size="10.00">LeosacFwd.hpp</text>
</a>
</g>
</g>
<!-- Node29&#45;&gt;Node30 -->
<g id="edge60" class="edge"><title>Node29&#45;&gt;Node30</title>
<path fill="none" stroke="midnightblue" d="M389.793,-251.869C359.942,-240.522 307.334,-220.525 273.47,-207.652"/>
<polygon fill="midnightblue" stroke="midnightblue" points="274.62,-204.345 264.029,-204.064 272.133,-210.888 274.62,-204.345"/>
</g>
<!-- Node31 -->
<g id="node32" class="node"><title>Node31</title>
<g id="a_node32"><a xlink:href="../../d8/d91/Task_8hpp.html" target="_top" xlink:title="Task.hpp">
<polygon fill="white" stroke="black" points="123,-185 123,-204 180,-204 180,-185 123,-185"/>
<text text-anchor="middle" x="151.5" y="-192" font-family="Helvetica,sans-Serif" font-size="10.00">Task.hpp</text>
</a>
</g>
</g>
<!-- Node29&#45;&gt;Node31 -->
<g id="edge63" class="edge"><title>Node29&#45;&gt;Node31</title>
<path fill="none" stroke="midnightblue" d="M365.875,-251.945C320.409,-243.134 249.535,-228.152 189.5,-210 186.927,-209.222 184.28,-208.355 181.636,-207.442"/>
<polygon fill="midnightblue" stroke="midnightblue" points="182.816,-204.147 172.222,-204.016 180.422,-210.725 182.816,-204.147"/>
</g>
<!-- Node30&#45;&gt;Node4 -->
<g id="edge61" class="edge"><title>Node30&#45;&gt;Node4</title>
<path fill="none" stroke="midnightblue" d="M241.5,-184.734C241.5,-175.183 241.5,-159.618 241.5,-147.283"/>
<polygon fill="midnightblue" stroke="midnightblue" points="245,-147.127 241.5,-137.127 238,-147.127 245,-147.127"/>
</g>
<!-- Node30&#45;&gt;Node6 -->
<g id="edge62" class="edge"><title>Node30&#45;&gt;Node6</title>
<path fill="none" stroke="midnightblue" d="M232.418,-184.97C216.552,-169.055 187.229,-134.422 206.5,-112 240.188,-72.804 400.151,-67.3491 469.879,-66.8667"/>
<polygon fill="midnightblue" stroke="midnightblue" points="470.276,-70.3653 480.263,-66.8276 470.249,-63.3654 470.276,-70.3653"/>
</g>
<!-- Node31&#45;&gt;Node4 -->
<g id="edge66" class="edge"><title>Node31&#45;&gt;Node4</title>
<path fill="none" stroke="midnightblue" d="M163.638,-184.734C178.347,-174.111 203.356,-156.049 221.057,-143.264"/>
<polygon fill="midnightblue" stroke="midnightblue" points="223.497,-145.82 229.555,-137.127 219.398,-140.145 223.497,-145.82"/>
</g>
<!-- Node32 -->
<g id="node33" class="node"><title>Node32</title>
<polygon fill="white" stroke="#bfbfbf" points="113.5,-118 113.5,-137 159.5,-137 159.5,-118 113.5,-118"/>
<text text-anchor="middle" x="136.5" y="-125" font-family="Helvetica,sans-Serif" font-size="10.00">atomic</text>
</g>
<!-- Node31&#45;&gt;Node32 -->
<g id="edge64" class="edge"><title>Node31&#45;&gt;Node32</title>
<path fill="none" stroke="midnightblue" d="M149.477,-184.734C147.25,-175.085 143.608,-159.3 140.748,-146.906"/>
<polygon fill="midnightblue" stroke="midnightblue" points="144.15,-146.084 138.491,-137.127 137.329,-147.658 144.15,-146.084"/>
</g>
<!-- Node33 -->
<g id="node34" class="node"><title>Node33</title>
<polygon fill="white" stroke="#bfbfbf" points="0,-118 0,-137 95,-137 95,-118 0,-118"/>
<text text-anchor="middle" x="47.5" y="-125" font-family="Helvetica,sans-Serif" font-size="10.00">condition_variable</text>
</g>
<!-- Node31&#45;&gt;Node33 -->
<g id="edge65" class="edge"><title>Node31&#45;&gt;Node33</title>
<path fill="none" stroke="midnightblue" d="M137.474,-184.734C120.165,-173.916 90.5131,-155.383 70.0055,-142.566"/>
<polygon fill="midnightblue" stroke="midnightblue" points="71.6387,-139.459 61.3037,-137.127 67.9287,-145.395 71.6387,-139.459"/>
</g>
<!-- Node34&#45;&gt;Node30 -->
<g id="edge69" class="edge"><title>Node34&#45;&gt;Node30</title>
<path fill="none" stroke="midnightblue" d="M237.585,-246.396C238.311,-236.963 239.273,-224.448 240.062,-214.189"/>
<polygon fill="midnightblue" stroke="midnightblue" points="243.554,-214.434 240.831,-204.195 236.574,-213.897 243.554,-214.434"/>
</g>
<!-- Node34&#45;&gt;Node31 -->
<g id="edge70" class="edge"><title>Node34&#45;&gt;Node31</title>
<path fill="none" stroke="midnightblue" d="M218.056,-246.396C204.147,-235.759 185.111,-221.203 170.96,-210.381"/>
<polygon fill="midnightblue" stroke="midnightblue" points="172.939,-207.489 162.87,-204.195 168.687,-213.049 172.939,-207.489"/>
</g>
<!-- Node35&#45;&gt;Node12 -->
<g id="edge72" class="edge"><title>Node35&#45;&gt;Node12</title>
<path fill="none" stroke="midnightblue" d="M1804.37,-184.941C1848.31,-175.97 1917.69,-160.73 1976.5,-143 1979.07,-142.225 1981.72,-141.37 1984.36,-140.474"/>
<polygon fill="midnightblue" stroke="midnightblue" points="1985.55,-143.766 1993.8,-137.12 1983.21,-137.17 1985.55,-143.766"/>
</g>
<!-- Node38 -->
<g id="node39" class="node"><title>Node38</title>
<polygon fill="white" stroke="#bfbfbf" points="2219,-179.5 2219,-209.5 2320,-209.5 2320,-179.5 2219,-179.5"/>
<text text-anchor="start" x="2227" y="-197.5" font-family="Helvetica,sans-Serif" font-size="10.00">boost/property_tree</text>
<text text-anchor="middle" x="2269.5" y="-186.5" font-family="Helvetica,sans-Serif" font-size="10.00">/ptree_fwd.hpp</text>
</g>
<!-- Node37&#45;&gt;Node38 -->
<g id="edge75" class="edge"><title>Node37&#45;&gt;Node38</title>
<path fill="none" stroke="midnightblue" d="M1051.99,-251.947C1063.95,-249.616 1077.22,-247.361 1089.5,-246 1581.12,-191.539 1714.16,-275.681 2208.64,-209.88"/>
<polygon fill="midnightblue" stroke="midnightblue" points="2209.46,-213.302 2218.9,-208.5 2208.52,-206.364 2209.46,-213.302"/>
</g>
</g>
</svg>
        <g id="navigator" transform="translate(0 0)" fill="#404254">
                <rect fill="#f2f5e9" fill-opacity="0.5" stroke="#606060" stroke-width=".5" x="0" y="0" width="60" height="60"/>
                <use id="zoomplus" xlink:href="#zoomPlus" x="17" y="9" onmousedown="handleZoom(evt,'in')"/>
                <use id="zoomminus" xlink:href="#zoomMin" x="42" y="9" onmousedown="handleZoom(evt,'out')"/>
                <use id="reset" xlink:href="#resetDef" x="30" y="36" onmousedown="handleReset()"/>
                <g id="arrowUp" xlink:href="#dirArrow" transform="translate(30 24)" onmousedown="handlePan(0,-1)">
                  <use xlink:href="#rim" fill="#404040">
                        <set attributeName="fill" to="#808080" begin="arrowUp.mouseover" end="arrowUp.mouseout"/>
                  </use>
                  <path fill="none" stroke="white" stroke-width="1.5" d="M0,-3.0v7 M-2.5,-0.5L0,-3.0L2.5,-0.5"/>
                </g>
                <g id="arrowRight" xlink:href="#dirArrow" transform="rotate(90) translate(36 -43)" onmousedown="handlePan(1,0)">
                  <use xlink:href="#rim" fill="#404040">
                        <set attributeName="fill" to="#808080" begin="arrowRight.mouseover" end="arrowRight.mouseout"/>
                  </use>
                  <path fill="none" stroke="white" stroke-width="1.5" d="M0,-3.0v7 M-2.5,-0.5L0,-3.0L2.5,-0.5"/>
                </g>
                <g id="arrowDown" xlink:href="#dirArrow" transform="rotate(180) translate(-30 -48)" onmousedown="handlePan(0,1)">
                  <use xlink:href="#rim" fill="#404040">
                        <set attributeName="fill" to="#808080" begin="arrowDown.mouseover" end="arrowDown.mouseout"/>
                  </use>
                  <path fill="none" stroke="white" stroke-width="1.5" d="M0,-3.0v7 M-2.5,-0.5L0,-3.0L2.5,-0.5"/>
                </g>
                <g id="arrowLeft" xlink:href="#dirArrow" transform="rotate(270) translate(-36 17)" onmousedown="handlePan(-1,0)">
                  <use xlink:href="#rim" fill="#404040">
                        <set attributeName="fill" to="#808080" begin="arrowLeft.mouseover" end="arrowLeft.mouseout"/>
                  </use>
                  <path fill="none" stroke="white" stroke-width="1.5" d="M0,-3.0v7 M-2.5,-0.5L0,-3.0L2.5,-0.5"/>
                </g>
        </g>
        <svg viewBox="0 0 15 15" width="100%" height="30px" preserveAspectRatio="xMaxYMin meet">
         <g id="arrow_out" transform="scale(0.3 0.3)">
          <a xlink:href="RemoteConfigCollector_8cpp__incl_org.svg" target="_base">
           <rect id="button" ry="5" rx="5" y="6" x="6" height="38" width="38"
                fill="#f2f5e9" fill-opacity="0.5" stroke="#606060" stroke-width="1.0"/>
           <path id="arrow"
             d="M 11.500037,31.436501 C 11.940474,20.09759 22.043105,11.32322 32.158766,21.979434 L 37.068811,17.246167 C 37.068811,17.246167 37.088388,32 37.088388,32 L 22.160133,31.978069 C 22.160133,31.978069 26.997745,27.140456 26.997745,27.140456 C 18.528582,18.264221 13.291696,25.230495 11.500037,31.436501 z"
             style="fill:#404040;"/>
          </a>
         </g>
        </svg>
</svg>
