<?xml version="1.0" encoding="UTF-8" standalone="no"?>
<!DOCTYPE svg PUBLIC "-//W3C//DTD SVG 1.1//EN"
 "http://www.w3.org/Graphics/SVG/1.1/DTD/svg11.dtd">
<!-- Generated by graphviz version 2.38.0 (20140413.2041)
 -->
<!-- Title: Leosac::Module::LedBuzzer::LedBuzzerImpl Pages: 1 -->
<svg width="146pt" height="241pt"
 viewBox="0.00 0.00 146.00 241.00" xmlns="http://www.w3.org/2000/svg" xmlns:xlink="http://www.w3.org/1999/xlink">
<g id="graph0" class="graph" transform="scale(1 1) rotate(0) translate(4 237)">
<title>Leosac::Module::LedBuzzer::LedBuzzerImpl</title>
<polygon fill="white" stroke="none" points="-4,4 -4,-237 142,-237 142,4 -4,4"/>
<!-- Node1 -->
<g id="node1" class="node"><title>Node1</title>
<polygon fill="#bfbfbf" stroke="black" points="0,-0.5 0,-30.5 138,-30.5 138,-0.5 0,-0.5"/>
<text text-anchor="start" x="8" y="-18.5" font-family="Helvetica,sans-Serif" font-size="10.00">Leosac::Module::LedBuzzer</text>
<text text-anchor="middle" x="69" y="-7.5" font-family="Helvetica,sans-Serif" font-size="10.00">::LedBuzzerImpl</text>
</g>
<!-- Node2 -->
<g id="node2" class="node"><title>Node2</title>
<g id="a_node2"><a xlink:href="../../d0/dea/classLeosac_1_1Hardware_1_1FGPIO.html" target="_top" xlink:title="A Facade to a GPIO object. ">
<polygon fill="white" stroke="black" points="2.5,-78.5 2.5,-97.5 135.5,-97.5 135.5,-78.5 2.5,-78.5"/>
<text text-anchor="middle" x="69" y="-85.5" font-family="Helvetica,sans-Serif" font-size="10.00">Leosac::Hardware::FGPIO</text>
</a>
</g>
</g>
<!-- Node2&#45;&gt;Node1 -->
<g id="edge1" class="edge"><title>Node2&#45;&gt;Node1</title>
<path fill="none" stroke="#9a32cd" stroke-dasharray="5,2" d="M69,-68.2362C69,-56.4079 69,-41.3829 69,-30.5762"/>
<polygon fill="#9a32cd" stroke="#9a32cd" points="65.5001,-68.3553 69,-78.3553 72.5001,-68.3554 65.5001,-68.3553"/>
<text text-anchor="middle" x="82.5" y="-52" font-family="Helvetica,sans-Serif" font-size="10.00"> gpio_</text>
</g>
<!-- Node3 -->
<g id="node3" class="node"><title>Node3</title>
<g id="a_node3"><a xlink:title="STL class. ">
<polygon fill="white" stroke="#bfbfbf" points="39,-145.5 39,-164.5 99,-164.5 99,-145.5 39,-145.5"/>
<text text-anchor="middle" x="69" y="-152.5" font-family="Helvetica,sans-Serif" font-size="10.00">std::string</text>
</a>
</g>
</g>
<!-- Node3&#45;&gt;Node2 -->
<g id="edge2" class="edge"><title>Node3&#45;&gt;Node2</title>
<path fill="none" stroke="#9a32cd" stroke-dasharray="5,2" d="M69,-135.037C69,-122.67 69,-107.12 69,-97.6273"/>
<polygon fill="#9a32cd" stroke="#9a32cd" points="65.5001,-135.234 69,-145.234 72.5001,-135.234 65.5001,-135.234"/>
<text text-anchor="middle" x="97" y="-119" font-family="Helvetica,sans-Serif" font-size="10.00"> gpio_name_</text>
</g>
<!-- Node4 -->
<g id="node4" class="node"><title>Node4</title>
<g id="a_node4"><a xlink:title="STL class. ">
<polygon fill="white" stroke="#bfbfbf" points="21.5,-202.5 21.5,-232.5 116.5,-232.5 116.5,-202.5 21.5,-202.5"/>
<text text-anchor="start" x="29.5" y="-220.5" font-family="Helvetica,sans-Serif" font-size="10.00">std::basic_string&lt;</text>
<text text-anchor="middle" x="69" y="-209.5" font-family="Helvetica,sans-Serif" font-size="10.00"> char &gt;</text>
</a>
</g>
</g>
<!-- Node4&#45;&gt;Node3 -->
<g id="edge3" class="edge"><title>Node4&#45;&gt;Node3</title>
<path fill="none" stroke="midnightblue" d="M69,-192.352C69,-182.513 69,-171.775 69,-164.54"/>
<polygon fill="midnightblue" stroke="midnightblue" points="65.5001,-192.468 69,-202.468 72.5001,-192.468 65.5001,-192.468"/>
</g>
</g>
</svg>
