<?xml version="1.0" encoding="UTF-8" standalone="no"?>
<!DOCTYPE svg PUBLIC "-//W3C//DTD SVG 1.1//EN"
 "http://www.w3.org/Graphics/SVG/1.1/DTD/svg11.dtd">
<!-- Generated by graphviz version 2.38.0 (20140413.2041)
 -->
<!-- Title: src/modules/wiegand/WiegandConfig.hpp Pages: 1 -->
<svg width="433pt" height="173pt"
 viewBox="0.00 0.00 433.00 173.00" xmlns="http://www.w3.org/2000/svg" xmlns:xlink="http://www.w3.org/1999/xlink">
<g id="graph0" class="graph" transform="scale(1 1) rotate(0) translate(4 169)">
<title>src/modules/wiegand/WiegandConfig.hpp</title>
<polygon fill="white" stroke="none" points="-4,4 -4,-169 429,-169 429,4 -4,4"/>
<!-- Node38 -->
<g id="node1" class="node"><title>Node38</title>
<polygon fill="#bfbfbf" stroke="black" points="212,-134.5 212,-164.5 321,-164.5 321,-134.5 212,-134.5"/>
<text text-anchor="start" x="220" y="-152.5" font-family="Helvetica,sans-Serif" font-size="10.00">src/modules/wiegand</text>
<text text-anchor="middle" x="266.5" y="-141.5" font-family="Helvetica,sans-Serif" font-size="10.00">/WiegandConfig.hpp</text>
</g>
<!-- Node39 -->
<g id="node2" class="node"><title>Node39</title>
<g id="a_node2"><a xlink:href="../../de/d9c/WiegandConfigSerializer_8hpp.html" target="_top" xlink:title="src/modules/wiegand\l/ws/WiegandConfigSerializer.hpp">
<polygon fill="white" stroke="black" points="106,-67.5 106,-97.5 267,-97.5 267,-67.5 106,-67.5"/>
<text text-anchor="start" x="114" y="-85.5" font-family="Helvetica,sans-Serif" font-size="10.00">src/modules/wiegand</text>
<text text-anchor="middle" x="186.5" y="-74.5" font-family="Helvetica,sans-Serif" font-size="10.00">/ws/WiegandConfigSerializer.hpp</text>
</a>
</g>
</g>
<!-- Node38&#45;&gt;Node39 -->
<g id="edge1" class="edge"><title>Node38&#45;&gt;Node39</title>
<path fill="none" stroke="midnightblue" d="M241.125,-127.883C228.968,-118.005 214.721,-106.429 203.825,-97.5765"/>
<polygon fill="midnightblue" stroke="midnightblue" points="239.173,-130.806 249.141,-134.396 243.587,-125.374 239.173,-130.806"/>
</g>
<!-- Node43 -->
<g id="node6" class="node"><title>Node43</title>
<g id="a_node6"><a xlink:href="../../d4/d9b/WiegandReader_8cpp.html" target="_top" xlink:title="test/WiegandReader.cpp">
<polygon fill="white" stroke="black" points="285,-73 285,-92 410,-92 410,-73 285,-73"/>
<text text-anchor="middle" x="347.5" y="-80" font-family="Helvetica,sans-Serif" font-size="10.00">test/WiegandReader.cpp</text>
</a>
</g>
</g>
<!-- Node38&#45;&gt;Node43 -->
<g id="edge5" class="edge"><title>Node38&#45;&gt;Node43</title>
<path fill="none" stroke="midnightblue" d="M292.036,-128.008C307.073,-115.941 325.313,-101.305 336.665,-92.1945"/>
<polygon fill="midnightblue" stroke="midnightblue" points="289.685,-125.407 284.076,-134.396 294.066,-130.867 289.685,-125.407"/>
</g>
<!-- Node40 -->
<g id="node3" class="node"><title>Node40</title>
<g id="a_node3"><a xlink:href="../../d3/de8/wiegand_8cpp.html" target="_top" xlink:title="src/modules/wiegand\l/wiegand.cpp">
<polygon fill="white" stroke="black" points="0,-0.5 0,-30.5 109,-30.5 109,-0.5 0,-0.5"/>
<text text-anchor="start" x="8" y="-18.5" font-family="Helvetica,sans-Serif" font-size="10.00">src/modules/wiegand</text>
<text text-anchor="middle" x="54.5" y="-7.5" font-family="Helvetica,sans-Serif" font-size="10.00">/wiegand.cpp</text>
</a>
</g>
</g>
<!-- Node39&#45;&gt;Node40 -->
<g id="edge2" class="edge"><title>Node39&#45;&gt;Node40</title>
<path fill="none" stroke="midnightblue" d="M148.633,-62.8533C127.762,-52.5761 102.274,-40.0252 83.0861,-30.5765"/>
<polygon fill="midnightblue" stroke="midnightblue" points="147.34,-66.1182 157.858,-67.396 150.433,-59.8383 147.34,-66.1182"/>
</g>
<!-- Node41 -->
<g id="node4" class="node"><title>Node41</title>
<g id="a_node4"><a xlink:href="../../d9/d74/wiegand_2ws_2CRUDHandler_8cpp.html" target="_top" xlink:title="src/modules/wiegand\l/ws/CRUDHandler.cpp">
<polygon fill="white" stroke="black" points="127.5,-0.5 127.5,-30.5 245.5,-30.5 245.5,-0.5 127.5,-0.5"/>
<text text-anchor="start" x="135.5" y="-18.5" font-family="Helvetica,sans-Serif" font-size="10.00">src/modules/wiegand</text>
<text text-anchor="middle" x="186.5" y="-7.5" font-family="Helvetica,sans-Serif" font-size="10.00">/ws/CRUDHandler.cpp</text>
</a>
</g>
</g>
<!-- Node39&#45;&gt;Node41 -->
<g id="edge3" class="edge"><title>Node39&#45;&gt;Node41</title>
<path fill="none" stroke="midnightblue" d="M186.5,-57.1081C186.5,-48.1539 186.5,-38.3227 186.5,-30.5765"/>
<polygon fill="midnightblue" stroke="midnightblue" points="183,-57.3959 186.5,-67.396 190,-57.396 183,-57.3959"/>
</g>
<!-- Node42 -->
<g id="node5" class="node"><title>Node42</title>
<g id="a_node5"><a xlink:href="../../d6/d48/WiegandConfigSerializer_8cpp.html" target="_top" xlink:title="src/modules/wiegand\l/ws/WiegandConfigSerializer.cpp">
<polygon fill="white" stroke="black" points="264,-0.5 264,-30.5 425,-30.5 425,-0.5 264,-0.5"/>
<text text-anchor="start" x="272" y="-18.5" font-family="Helvetica,sans-Serif" font-size="10.00">src/modules/wiegand</text>
<text text-anchor="middle" x="344.5" y="-7.5" font-family="Helvetica,sans-Serif" font-size="10.00">/ws/WiegandConfigSerializer.cpp</text>
</a>
</g>
</g>
<!-- Node39&#45;&gt;Node42 -->
<g id="edge4" class="edge"><title>Node39&#45;&gt;Node42</title>
<path fill="none" stroke="midnightblue" d="M230.146,-63.5442C255.429,-53.143 286.798,-40.238 310.283,-30.5765"/>
<polygon fill="midnightblue" stroke="midnightblue" points="228.7,-60.3546 220.784,-67.396 231.363,-66.8282 228.7,-60.3546"/>
</g>
</g>
</svg>
