<?xml version="1.0" encoding="UTF-8" standalone="no"?>
<!DOCTYPE svg PUBLIC "-//W3C//DTD SVG 1.1//EN"
 "http://www.w3.org/Graphics/SVG/1.1/DTD/svg11.dtd">
<!-- Generated by graphviz version 2.38.0 (20140413.2041)
 -->
<!-- Title: src/modules/auth/auth&#45;file/AuthFileInstance.hpp Pages: 1 -->
<svg width="340pt" height="173pt"
 viewBox="0.00 0.00 339.50 173.00" xmlns="http://www.w3.org/2000/svg" xmlns:xlink="http://www.w3.org/1999/xlink">
<g id="graph0" class="graph" transform="scale(1 1) rotate(0) translate(4 169)">
<title>src/modules/auth/auth&#45;file/AuthFileInstance.hpp</title>
<polygon fill="white" stroke="none" points="-4,4 -4,-169 335.5,-169 335.5,4 -4,4"/>
<!-- Node55 -->
<g id="node1" class="node"><title>Node55</title>
<polygon fill="#bfbfbf" stroke="black" points="71,-134.5 71,-164.5 199,-164.5 199,-134.5 71,-134.5"/>
<text text-anchor="start" x="79" y="-152.5" font-family="Helvetica,sans-Serif" font-size="10.00">src/modules/auth/auth</text>
<text text-anchor="middle" x="135" y="-141.5" font-family="Helvetica,sans-Serif" font-size="10.00">&#45;file/AuthFileInstance.hpp</text>
</g>
<!-- Node56 -->
<g id="node2" class="node"><title>Node56</title>
<g id="a_node2"><a xlink:href="../../da/d9b/AuthFileInstance_8cpp.html" target="_top" xlink:title="src/modules/auth/auth\l&#45;file/AuthFileInstance.cpp">
<polygon fill="white" stroke="black" points="0,-67.5 0,-97.5 128,-97.5 128,-67.5 0,-67.5"/>
<text text-anchor="start" x="8" y="-85.5" font-family="Helvetica,sans-Serif" font-size="10.00">src/modules/auth/auth</text>
<text text-anchor="middle" x="64" y="-74.5" font-family="Helvetica,sans-Serif" font-size="10.00">&#45;file/AuthFileInstance.cpp</text>
</a>
</g>
</g>
<!-- Node55&#45;&gt;Node56 -->
<g id="edge1" class="edge"><title>Node55&#45;&gt;Node56</title>
<path fill="none" stroke="midnightblue" d="M112.168,-127.598C101.448,-117.783 88.9529,-106.344 79.3759,-97.5765"/>
<polygon fill="midnightblue" stroke="midnightblue" points="109.855,-130.225 119.594,-134.396 114.582,-125.062 109.855,-130.225"/>
</g>
<!-- Node57 -->
<g id="node3" class="node"><title>Node57</title>
<g id="a_node3"><a xlink:href="../../df/d57/AuthFileModule_8hpp.html" target="_top" xlink:title="src/modules/auth/auth\l&#45;file/AuthFileModule.hpp">
<polygon fill="white" stroke="black" points="146,-67.5 146,-97.5 268,-97.5 268,-67.5 146,-67.5"/>
<text text-anchor="start" x="154" y="-85.5" font-family="Helvetica,sans-Serif" font-size="10.00">src/modules/auth/auth</text>
<text text-anchor="middle" x="207" y="-74.5" font-family="Helvetica,sans-Serif" font-size="10.00">&#45;file/AuthFileModule.hpp</text>
</a>
</g>
</g>
<!-- Node55&#45;&gt;Node57 -->
<g id="edge2" class="edge"><title>Node55&#45;&gt;Node57</title>
<path fill="none" stroke="midnightblue" d="M158.153,-127.598C169.025,-117.783 181.696,-106.344 191.408,-97.5765"/>
<polygon fill="midnightblue" stroke="midnightblue" points="155.7,-125.097 150.623,-134.396 160.391,-130.293 155.7,-125.097"/>
</g>
<!-- Node58 -->
<g id="node4" class="node"><title>Node58</title>
<g id="a_node4"><a xlink:href="../../d8/d37/AuthFileModule_8cpp.html" target="_top" xlink:title="src/modules/auth/auth\l&#45;file/AuthFileModule.cpp">
<polygon fill="white" stroke="black" points="78,-0.5 78,-30.5 200,-30.5 200,-0.5 78,-0.5"/>
<text text-anchor="start" x="86" y="-18.5" font-family="Helvetica,sans-Serif" font-size="10.00">src/modules/auth/auth</text>
<text text-anchor="middle" x="139" y="-7.5" font-family="Helvetica,sans-Serif" font-size="10.00">&#45;file/AuthFileModule.cpp</text>
</a>
</g>
</g>
<!-- Node57&#45;&gt;Node58 -->
<g id="edge3" class="edge"><title>Node57&#45;&gt;Node58</title>
<path fill="none" stroke="midnightblue" d="M184.834,-60.3115C174.633,-50.5612 162.809,-39.259 153.726,-30.5765"/>
<polygon fill="midnightblue" stroke="midnightblue" points="182.598,-63.0162 192.245,-67.396 187.435,-57.9561 182.598,-63.0162"/>
</g>
<!-- Node59 -->
<g id="node5" class="node"><title>Node59</title>
<g id="a_node5"><a xlink:href="../../dc/d32/auth_2auth-file_2init_8cpp.html" target="_top" xlink:title="src/modules/auth/auth\l&#45;file/init.cpp">
<polygon fill="white" stroke="black" points="218.5,-0.5 218.5,-30.5 331.5,-30.5 331.5,-0.5 218.5,-0.5"/>
<text text-anchor="start" x="226.5" y="-18.5" font-family="Helvetica,sans-Serif" font-size="10.00">src/modules/auth/auth</text>
<text text-anchor="middle" x="275" y="-7.5" font-family="Helvetica,sans-Serif" font-size="10.00">&#45;file/init.cpp</text>
</a>
</g>
</g>
<!-- Node57&#45;&gt;Node59 -->
<g id="edge4" class="edge"><title>Node57&#45;&gt;Node59</title>
<path fill="none" stroke="midnightblue" d="M229.166,-60.3115C239.367,-50.5612 251.191,-39.259 260.274,-30.5765"/>
<polygon fill="midnightblue" stroke="midnightblue" points="226.565,-57.9561 221.755,-67.396 231.402,-63.0162 226.565,-57.9561"/>
</g>
</g>
</svg>
