<?xml version="1.0" encoding="UTF-8" standalone="no"?>
<!DOCTYPE svg PUBLIC "-//W3C//DTD SVG 1.1//EN"
 "http://www.w3.org/Graphics/SVG/1.1/DTD/svg11.dtd">
<!-- Generated by graphviz version 2.38.0 (20140413.2041)
 -->
<!-- Title: Leosac::Auth::User Pages: 1 -->
<!--zoomable 270 -->
<svg id="main" version="1.1" xmlns="http://www.w3.org/2000/svg" xmlns:xlink="http://www.w3.org/1999/xlink" xml:space="preserve" onload="init(evt)">
<style type="text/css"><![CDATA[
.edge:hover path { stroke: red; }
.edge:hover polygon { stroke: red; fill: red; }
]]></style>
<script type="text/javascript"><![CDATA[
var edges = document.getElementsByTagName('g');
if (edges && edges.length) {
  for (var i=0;i<edges.length;i++) {
    if (edges[i].id.substr(0,4)=='edge') {
      edges[i].setAttribute('class','edge');
    }
  }
}
]]></script>
        <defs>
                <circle id="rim" cx="0" cy="0" r="7"/>
                <circle id="rim2" cx="0" cy="0" r="3.5"/>
                <g id="zoomPlus">
                        <use xlink:href="#rim" fill="#404040">
                                <set attributeName="fill" to="#808080" begin="zoomplus.mouseover" end="zoomplus.mouseout"/>
                        </use>
                        <path d="M-4,0h8M0,-4v8" fill="none" stroke="white" stroke-width="1.5" pointer-events="none"/>
                </g>
                <g id="zoomMin">
                        <use xlink:href="#rim" fill="#404040">
                                <set attributeName="fill" to="#808080" begin="zoomminus.mouseover" end="zoomminus.mouseout"/>
                        </use>
                        <path d="M-4,0h8" fill="none" stroke="white" stroke-width="1.5" pointer-events="none"/>
                </g>
                <g id="dirArrow">
                        <path fill="none" stroke="white" stroke-width="1.5" d="M0,-3.0v7 M-2.5,-0.5L0,-3.0L2.5,-0.5"/>
                </g>
               <g id="resetDef">
                       <use xlink:href="#rim2" fill="#404040">
                               <set attributeName="fill" to="#808080" begin="reset.mouseover" end="reset.mouseout"/>
                       </use>
               </g>
        </defs>

<script type="text/javascript">
var viewWidth = 568;
var viewHeight = 270;
var sectionId = 'dynsection-1';
</script>
<script xlink:href="../../svgpan.js"/>
<svg id="graph" class="graph">
<g id="viewport">
<title>Leosac::Auth::User</title>
<polygon fill="white" stroke="none" points="-4,4 -4,-265.5 564,-265.5 564,4 -4,4"/>
<!-- Node2 -->
<g id="node1" class="node"><title>Node2</title>
<polygon fill="#bfbfbf" stroke="black" points="459,-111.5 459,-130.5 560,-130.5 560,-111.5 459,-111.5"/>
<text text-anchor="middle" x="509.5" y="-118.5" font-family="Helvetica,sans-Serif" font-size="10.00">Leosac::Auth::User</text>
</g>
<!-- Node3 -->
<g id="node2" class="node"><title>Node3</title>
<polygon fill="white" stroke="#bfbfbf" points="179.5,-231 179.5,-261 280.5,-261 280.5,-231 179.5,-231"/>
<text text-anchor="start" x="187.5" y="-249" font-family="Helvetica,sans-Serif" font-size="10.00">std::enable_shared</text>
<text text-anchor="middle" x="230" y="-238" font-family="Helvetica,sans-Serif" font-size="10.00">_from_this&lt; User &gt;</text>
</g>
<!-- Node3&#45;&gt;Node2 -->
<g id="edge1" class="edge"><title>Node3&#45;&gt;Node2</title>
<path fill="none" stroke="midnightblue" d="M290.812,-241.354C334.902,-235.736 394.961,-223.339 441,-196 469.317,-179.185 492.447,-146.619 502.736,-130.505"/>
<polygon fill="midnightblue" stroke="midnightblue" points="290.328,-237.887 280.813,-242.547 291.158,-244.837 290.328,-237.887"/>
</g>
<!-- Node4 -->
<g id="node3" class="node"><title>Node4</title>
<polygon fill="white" stroke="#bfbfbf" points="132,-182 132,-212 328,-212 328,-182 132,-182"/>
<text text-anchor="start" x="140" y="-200" font-family="Helvetica,sans-Serif" font-size="10.00">std::set&lt; UserGroupMembership</text>
<text text-anchor="middle" x="230" y="-189" font-family="Helvetica,sans-Serif" font-size="10.00">Ptr, UserGroupMembershipComparator &gt;</text>
</g>
<!-- Node4&#45;&gt;Node2 -->
<g id="edge2" class="edge"><title>Node4&#45;&gt;Node2</title>
<path fill="none" stroke="#9a32cd" stroke-dasharray="5,2" d="M338.278,-182.988C371.742,-176.92 408.409,-168.495 441,-157 460.163,-150.241 480.531,-138.702 493.818,-130.511"/>
<polygon fill="#9a32cd" stroke="#9a32cd" points="337.245,-179.616 328.003,-184.796 338.458,-186.51 337.245,-179.616"/>
<text text-anchor="middle" x="393.5" y="-184" font-family="Helvetica,sans-Serif" font-size="10.00"> membership_</text>
</g>
<!-- Node5 -->
<g id="node4" class="node"><title>Node5</title>
<polygon fill="white" stroke="#bfbfbf" points="180.5,-133 180.5,-163 279.5,-163 279.5,-133 180.5,-133"/>
<text text-anchor="start" x="188.5" y="-151" font-family="Helvetica,sans-Serif" font-size="10.00">std::vector&lt; Cred::</text>
<text text-anchor="middle" x="230" y="-140" font-family="Helvetica,sans-Serif" font-size="10.00">CredentialLWPtr &gt;</text>
</g>
<!-- Node5&#45;&gt;Node2 -->
<g id="edge3" class="edge"><title>Node5&#45;&gt;Node2</title>
<path fill="none" stroke="#9a32cd" stroke-dasharray="5,2" d="M289.617,-145.458C331.824,-143.228 390.066,-139.329 441,-133 446.788,-132.281 452.833,-131.397 458.825,-130.439"/>
<polygon fill="#9a32cd" stroke="#9a32cd" points="289.325,-141.969 279.517,-145.977 289.683,-148.96 289.325,-141.969"/>
<text text-anchor="middle" x="393.5" y="-145" font-family="Helvetica,sans-Serif" font-size="10.00"> credentials_</text>
</g>
<!-- Node6 -->
<g id="node5" class="node"><title>Node6</title>
<g id="a_node5"><a xlink:title="STL class. ">
<polygon fill="white" stroke="#bfbfbf" points="200,-88.5 200,-107.5 260,-107.5 260,-88.5 200,-88.5"/>
<text text-anchor="middle" x="230" y="-95.5" font-family="Helvetica,sans-Serif" font-size="10.00">std::string</text>
</a>
</g>
</g>
<!-- Node6&#45;&gt;Node2 -->
<g id="edge4" class="edge"><title>Node6&#45;&gt;Node2</title>
<path fill="none" stroke="#9a32cd" stroke-dasharray="5,2" d="M270.265,-90.2551C312.868,-83.2482 382.621,-75.8627 441,-89 460.105,-93.2993 480.157,-103.66 493.391,-111.436"/>
<polygon fill="#9a32cd" stroke="#9a32cd" points="269.564,-86.8241 260.302,-91.9688 270.751,-93.7228 269.564,-86.8241"/>
<text text-anchor="middle" x="393.5" y="-125" font-family="Helvetica,sans-Serif" font-size="10.00"> email_</text>
<text text-anchor="middle" x="393.5" y="-114" font-family="Helvetica,sans-Serif" font-size="10.00">firstname_</text>
<text text-anchor="middle" x="393.5" y="-103" font-family="Helvetica,sans-Serif" font-size="10.00">lastname_</text>
<text text-anchor="middle" x="393.5" y="-92" font-family="Helvetica,sans-Serif" font-size="10.00">username_</text>
</g>
<!-- Node7 -->
<g id="node6" class="node"><title>Node7</title>
<g id="a_node6"><a xlink:title="STL class. ">
<polygon fill="white" stroke="#bfbfbf" points="0,-83 0,-113 95,-113 95,-83 0,-83"/>
<text text-anchor="start" x="8" y="-101" font-family="Helvetica,sans-Serif" font-size="10.00">std::basic_string&lt;</text>
<text text-anchor="middle" x="47.5" y="-90" font-family="Helvetica,sans-Serif" font-size="10.00"> char &gt;</text>
</a>
</g>
</g>
<!-- Node7&#45;&gt;Node6 -->
<g id="edge5" class="edge"><title>Node7&#45;&gt;Node6</title>
<path fill="none" stroke="midnightblue" d="M105.797,-98C137.069,-98 174.458,-98 199.783,-98"/>
<polygon fill="midnightblue" stroke="midnightblue" points="105.453,-94.5001 95.4531,-98 105.453,-101.5 105.453,-94.5001"/>
</g>
<!-- Node8 -->
<g id="node7" class="node"><title>Node8</title>
<polygon fill="white" stroke="#bfbfbf" points="161.5,-39 161.5,-69 298.5,-69 298.5,-39 161.5,-39"/>
<text text-anchor="start" x="169.5" y="-57" font-family="Helvetica,sans-Serif" font-size="10.00">std::vector&lt; Tools</text>
<text text-anchor="middle" x="230" y="-46" font-family="Helvetica,sans-Serif" font-size="10.00">::ScheduleMappingLWPtr &gt;</text>
</g>
<!-- Node8&#45;&gt;Node2 -->
<g id="edge6" class="edge"><title>Node8&#45;&gt;Node2</title>
<path fill="none" stroke="#9a32cd" stroke-dasharray="5,2" d="M309.055,-47.7712C349.661,-47.2427 399.373,-50.9367 441,-67 465.642,-76.509 488.305,-98.4666 500.064,-111.261"/>
<polygon fill="#9a32cd" stroke="#9a32cd" points="308.86,-44.2746 298.939,-47.9916 309.013,-51.2729 308.86,-44.2746"/>
<text text-anchor="middle" x="393.5" y="-70" font-family="Helvetica,sans-Serif" font-size="10.00"> schedules_mapping_</text>
</g>
<!-- Node9 -->
<g id="node8" class="node"><title>Node9</title>
<g id="a_node8"><a xlink:href="../../d9/d24/classLeosac_1_1Auth_1_1ValidityInfo.html" target="_top" xlink:title="A simple class that stores (and can be queried for) the validity of some objects. ...">
<polygon fill="white" stroke="black" points="165.5,-0.5 165.5,-19.5 294.5,-19.5 294.5,-0.5 165.5,-0.5"/>
<text text-anchor="middle" x="230" y="-7.5" font-family="Helvetica,sans-Serif" font-size="10.00">Leosac::Auth::ValidityInfo</text>
</a>
</g>
</g>
<!-- Node9&#45;&gt;Node2 -->
<g id="edge7" class="edge"><title>Node9&#45;&gt;Node2</title>
<path fill="none" stroke="#9a32cd" stroke-dasharray="5,2" d="M304.888,-4.72759C347.223,-4.93455 399.929,-10.8989 441,-34 473.325,-52.1818 495.421,-92.7692 504.228,-111.362"/>
<polygon fill="#9a32cd" stroke="#9a32cd" points="304.619,-1.229 294.64,-4.78744 304.66,-8.22888 304.619,-1.229"/>
<text text-anchor="middle" x="393.5" y="-37" font-family="Helvetica,sans-Serif" font-size="10.00"> validity_</text>
</g>
</g>
</svg>
        <g id="navigator" transform="translate(0 0)" fill="#404254">
                <rect fill="#f2f5e9" fill-opacity="0.5" stroke="#606060" stroke-width=".5" x="0" y="0" width="60" height="60"/>
                <use id="zoomplus" xlink:href="#zoomPlus" x="17" y="9" onmousedown="handleZoom(evt,'in')"/>
                <use id="zoomminus" xlink:href="#zoomMin" x="42" y="9" onmousedown="handleZoom(evt,'out')"/>
                <use id="reset" xlink:href="#resetDef" x="30" y="36" onmousedown="handleReset()"/>
                <g id="arrowUp" xlink:href="#dirArrow" transform="translate(30 24)" onmousedown="handlePan(0,-1)">
                  <use xlink:href="#rim" fill="#404040">
                        <set attributeName="fill" to="#808080" begin="arrowUp.mouseover" end="arrowUp.mouseout"/>
                  </use>
                  <path fill="none" stroke="white" stroke-width="1.5" d="M0,-3.0v7 M-2.5,-0.5L0,-3.0L2.5,-0.5"/>
                </g>
                <g id="arrowRight" xlink:href="#dirArrow" transform="rotate(90) translate(36 -43)" onmousedown="handlePan(1,0)">
                  <use xlink:href="#rim" fill="#404040">
                        <set attributeName="fill" to="#808080" begin="arrowRight.mouseover" end="arrowRight.mouseout"/>
                  </use>
                  <path fill="none" stroke="white" stroke-width="1.5" d="M0,-3.0v7 M-2.5,-0.5L0,-3.0L2.5,-0.5"/>
                </g>
                <g id="arrowDown" xlink:href="#dirArrow" transform="rotate(180) translate(-30 -48)" onmousedown="handlePan(0,1)">
                  <use xlink:href="#rim" fill="#404040">
                        <set attributeName="fill" to="#808080" begin="arrowDown.mouseover" end="arrowDown.mouseout"/>
                  </use>
                  <path fill="none" stroke="white" stroke-width="1.5" d="M0,-3.0v7 M-2.5,-0.5L0,-3.0L2.5,-0.5"/>
                </g>
                <g id="arrowLeft" xlink:href="#dirArrow" transform="rotate(270) translate(-36 17)" onmousedown="handlePan(-1,0)">
                  <use xlink:href="#rim" fill="#404040">
                        <set attributeName="fill" to="#808080" begin="arrowLeft.mouseover" end="arrowLeft.mouseout"/>
                  </use>
                  <path fill="none" stroke="white" stroke-width="1.5" d="M0,-3.0v7 M-2.5,-0.5L0,-3.0L2.5,-0.5"/>
                </g>
        </g>
        <svg viewBox="0 0 15 15" width="100%" height="30px" preserveAspectRatio="xMaxYMin meet">
         <g id="arrow_out" transform="scale(0.3 0.3)">
          <a xlink:href="classLeosac_1_1Auth_1_1User__coll__graph_org.svg" target="_base">
           <rect id="button" ry="5" rx="5" y="6" x="6" height="38" width="38"
                fill="#f2f5e9" fill-opacity="0.5" stroke="#606060" stroke-width="1.0"/>
           <path id="arrow"
             d="M 11.500037,31.436501 C 11.940474,20.09759 22.043105,11.32322 32.158766,21.979434 L 37.068811,17.246167 C 37.068811,17.246167 37.088388,32 37.088388,32 L 22.160133,31.978069 C 22.160133,31.978069 26.997745,27.140456 26.997745,27.140456 C 18.528582,18.264221 13.291696,25.230495 11.500037,31.436501 z"
             style="fill:#404040;"/>
          </a>
         </g>
        </svg>
</svg>
