<?xml version="1.0" encoding="UTF-8" standalone="no"?>
<!DOCTYPE svg PUBLIC "-//W3C//DTD SVG 1.1//EN"
 "http://www.w3.org/Graphics/SVG/1.1/DTD/svg11.dtd">
<!-- Generated by graphviz version 2.38.0 (20140413.2041)
 -->
<!-- Title: src/modules/websock&#45;api/api/APISession.hpp Pages: 1 -->
<svg width="1036pt" height="274pt"
 viewBox="0.00 0.00 1036.23 274.00" xmlns="http://www.w3.org/2000/svg" xmlns:xlink="http://www.w3.org/1999/xlink">
<g id="graph0" class="graph" transform="scale(1 1) rotate(0) translate(4 270)">
<title>src/modules/websock&#45;api/api/APISession.hpp</title>
<polygon fill="white" stroke="none" points="-4,4 -4,-270 1032.23,-270 1032.23,4 -4,4"/>
<!-- Node0 -->
<g id="node1" class="node"><title>Node0</title>
<polygon fill="#bfbfbf" stroke="black" points="337.73,-235.5 337.73,-265.5 459.73,-265.5 459.73,-235.5 337.73,-235.5"/>
<text text-anchor="start" x="345.73" y="-253.5" font-family="Helvetica,sans-Serif" font-size="10.00">src/modules/websock</text>
<text text-anchor="middle" x="398.73" y="-242.5" font-family="Helvetica,sans-Serif" font-size="10.00">&#45;api/api/APISession.hpp</text>
</g>
<!-- Node1 -->
<g id="node2" class="node"><title>Node1</title>
<g id="a_node2"><a xlink:href="../../d1/d3e/SecurityContext_8hpp.html" target="_top" xlink:title="core/SecurityContext.hpp">
<polygon fill="white" stroke="black" points="288.73,-179.5 288.73,-198.5 416.73,-198.5 416.73,-179.5 288.73,-179.5"/>
<text text-anchor="middle" x="352.73" y="-186.5" font-family="Helvetica,sans-Serif" font-size="10.00">core/SecurityContext.hpp</text>
</a>
</g>
</g>
<!-- Node0&#45;&gt;Node1 -->
<g id="edge1" class="edge"><title>Node0&#45;&gt;Node1</title>
<path fill="none" stroke="midnightblue" d="M387.829,-235.399C381.145,-226.753 372.554,-215.642 365.545,-206.576"/>
<polygon fill="midnightblue" stroke="midnightblue" points="368.309,-204.428 359.424,-198.658 362.771,-208.71 368.309,-204.428"/>
</g>
<!-- Node5 -->
<g id="node6" class="node"><title>Node5</title>
<polygon fill="white" stroke="#bfbfbf" points="188.73,-56.5 188.73,-75.5 240.73,-75.5 240.73,-56.5 188.73,-56.5"/>
<text text-anchor="middle" x="214.73" y="-63.5" font-family="Helvetica,sans-Serif" font-size="10.00">memory</text>
</g>
<!-- Node0&#45;&gt;Node5 -->
<g id="edge29" class="edge"><title>Node0&#45;&gt;Node5</title>
<path fill="none" stroke="midnightblue" d="M337.686,-241.828C238.297,-227.944 48.556,-195.159 8.73037,-143 -36.4883,-83.7775 107.442,-70.685 178.038,-67.8046"/>
<polygon fill="midnightblue" stroke="midnightblue" points="178.426,-71.293 188.294,-67.4369 178.175,-64.2975 178.426,-71.293"/>
</g>
<!-- Node7 -->
<g id="node8" class="node"><title>Node7</title>
<g id="a_node8"><a xlink:href="../../d3/d6f/AuthFwd_8hpp.html" target="_top" xlink:title="core/auth/AuthFwd.hpp">
<polygon fill="white" stroke="black" points="411.73,-118 411.73,-137 529.73,-137 529.73,-118 411.73,-118"/>
<text text-anchor="middle" x="470.73" y="-125" font-family="Helvetica,sans-Serif" font-size="10.00">core/auth/AuthFwd.hpp</text>
</a>
</g>
</g>
<!-- Node0&#45;&gt;Node7 -->
<g id="edge27" class="edge"><title>Node0&#45;&gt;Node7</title>
<path fill="none" stroke="midnightblue" d="M407.272,-235.145C420.565,-212.806 446.153,-169.804 460.441,-145.792"/>
<polygon fill="midnightblue" stroke="midnightblue" points="463.536,-147.436 465.641,-137.052 457.52,-143.856 463.536,-147.436"/>
</g>
<!-- Node19 -->
<g id="node20" class="node"><title>Node19</title>
<polygon fill="white" stroke="#bfbfbf" points="473.23,-179.5 473.23,-198.5 526.23,-198.5 526.23,-179.5 473.23,-179.5"/>
<text text-anchor="middle" x="499.73" y="-186.5" font-family="Helvetica,sans-Serif" font-size="10.00">json.hpp</text>
</g>
<!-- Node0&#45;&gt;Node19 -->
<g id="edge28" class="edge"><title>Node0&#45;&gt;Node19</title>
<path fill="none" stroke="midnightblue" d="M422.666,-235.399C438.855,-225.862 460.137,-213.325 476.233,-203.842"/>
<polygon fill="midnightblue" stroke="midnightblue" points="478.194,-206.749 485.034,-198.658 474.641,-200.718 478.194,-206.749"/>
</g>
<!-- Node2 -->
<g id="node3" class="node"><title>Node2</title>
<g id="a_node3"><a xlink:href="../../d7/dcf/AuditFwd_8hpp.html" target="_top" xlink:title="core/audit/AuditFwd.hpp">
<polygon fill="white" stroke="black" points="547.73,-118 547.73,-137 669.73,-137 669.73,-118 547.73,-118"/>
<text text-anchor="middle" x="608.73" y="-125" font-family="Helvetica,sans-Serif" font-size="10.00">core/audit/AuditFwd.hpp</text>
</a>
</g>
</g>
<!-- Node1&#45;&gt;Node2 -->
<g id="edge2" class="edge"><title>Node1&#45;&gt;Node2</title>
<path fill="none" stroke="midnightblue" d="M389.409,-179.475C434.938,-168.893 512.631,-150.836 562.278,-139.297"/>
<polygon fill="midnightblue" stroke="midnightblue" points="563.172,-142.682 572.12,-137.009 561.587,-135.864 563.172,-142.682"/>
</g>
<!-- Node1&#45;&gt;Node7 -->
<g id="edge7" class="edge"><title>Node1&#45;&gt;Node7</title>
<path fill="none" stroke="midnightblue" d="M369.637,-179.475C389.265,-169.578 421.861,-153.142 444.721,-141.615"/>
<polygon fill="midnightblue" stroke="midnightblue" points="446.502,-144.637 453.855,-137.009 443.35,-138.386 446.502,-144.637"/>
</g>
<!-- Node8 -->
<g id="node9" class="node"><title>Node8</title>
<g id="a_node9"><a xlink:href="../../d7/d7f/CredentialFwd_8hpp.html" target="_top" xlink:title="core/credentials/Credential\lFwd.hpp">
<polygon fill="white" stroke="black" points="260.23,-112.5 260.23,-142.5 393.23,-142.5 393.23,-112.5 260.23,-112.5"/>
<text text-anchor="start" x="268.23" y="-130.5" font-family="Helvetica,sans-Serif" font-size="10.00">core/credentials/Credential</text>
<text text-anchor="middle" x="326.73" y="-119.5" font-family="Helvetica,sans-Serif" font-size="10.00">Fwd.hpp</text>
</a>
</g>
</g>
<!-- Node1&#45;&gt;Node8 -->
<g id="edge11" class="edge"><title>Node1&#45;&gt;Node8</title>
<path fill="none" stroke="midnightblue" d="M349.005,-179.475C345.846,-172.245 341.162,-161.525 336.903,-151.779"/>
<polygon fill="midnightblue" stroke="midnightblue" points="340.069,-150.285 332.858,-142.523 333.655,-153.088 340.069,-150.285"/>
</g>
<!-- Node9 -->
<g id="node10" class="node"><title>Node9</title>
<g id="a_node10"><a xlink:href="../../d9/dc8/HardwareFwd_8hpp.html" target="_top" xlink:title="hardware/HardwareFwd.hpp">
<polygon fill="white" stroke="black" points="688.23,-118 688.23,-137 827.23,-137 827.23,-118 688.23,-118"/>
<text text-anchor="middle" x="757.73" y="-125" font-family="Helvetica,sans-Serif" font-size="10.00">hardware/HardwareFwd.hpp</text>
</a>
</g>
</g>
<!-- Node1&#45;&gt;Node9 -->
<g id="edge14" class="edge"><title>Node1&#45;&gt;Node9</title>
<path fill="none" stroke="midnightblue" d="M416.878,-179.999C482.712,-171.588 588.051,-157.573 678.73,-143 686.659,-141.726 695.017,-140.291 703.212,-138.833"/>
<polygon fill="midnightblue" stroke="midnightblue" points="703.866,-142.271 713.086,-137.051 702.623,-135.383 703.866,-142.271"/>
</g>
<!-- Node17 -->
<g id="node18" class="node"><title>Node17</title>
<g id="a_node18"><a xlink:href="../../d8/d97/ToolsFwd_8hpp.html" target="_top" xlink:title="tools/ToolsFwd.hpp">
<polygon fill="white" stroke="black" points="139.73,-118 139.73,-137 241.73,-137 241.73,-118 139.73,-118"/>
<text text-anchor="middle" x="190.73" y="-125" font-family="Helvetica,sans-Serif" font-size="10.00">tools/ToolsFwd.hpp</text>
</a>
</g>
</g>
<!-- Node1&#45;&gt;Node17 -->
<g id="edge22" class="edge"><title>Node1&#45;&gt;Node17</title>
<path fill="none" stroke="midnightblue" d="M329.52,-179.475C301.731,-169.269 255.008,-152.108 223.537,-140.549"/>
<polygon fill="midnightblue" stroke="midnightblue" points="224.492,-137.171 213.898,-137.009 222.078,-143.742 224.492,-137.171"/>
</g>
<!-- Node18 -->
<g id="node19" class="node"><title>Node18</title>
<g id="a_node19"><a xlink:href="../../d9/d69/db__fwd_8hpp.html" target="_top" xlink:title="tools/db/db_fwd.hpp">
<polygon fill="white" stroke="black" points="17.7304,-118 17.7304,-137 121.73,-137 121.73,-118 17.7304,-118"/>
<text text-anchor="middle" x="69.7304" y="-125" font-family="Helvetica,sans-Serif" font-size="10.00">tools/db/db_fwd.hpp</text>
</a>
</g>
</g>
<!-- Node1&#45;&gt;Node18 -->
<g id="edge25" class="edge"><title>Node1&#45;&gt;Node18</title>
<path fill="none" stroke="midnightblue" d="M308.412,-179.469C263.536,-170.724 192.18,-156.527 130.73,-143 125.613,-141.873 120.263,-140.658 114.948,-139.426"/>
<polygon fill="midnightblue" stroke="midnightblue" points="115.379,-135.933 104.844,-137.058 113.782,-142.748 115.379,-135.933"/>
</g>
<!-- Node3 -->
<g id="node4" class="node"><title>Node3</title>
<polygon fill="white" stroke="#bfbfbf" points="477.23,-56.5 477.23,-75.5 526.23,-75.5 526.23,-56.5 477.23,-56.5"/>
<text text-anchor="middle" x="501.73" y="-63.5" font-family="Helvetica,sans-Serif" font-size="10.00">cstddef</text>
</g>
<!-- Node2&#45;&gt;Node3 -->
<g id="edge3" class="edge"><title>Node2&#45;&gt;Node3</title>
<path fill="none" stroke="midnightblue" d="M593.4,-117.975C575.761,-108.166 546.571,-91.9346 525.873,-80.425"/>
<polygon fill="midnightblue" stroke="midnightblue" points="527.473,-77.3102 517.032,-75.5091 524.071,-83.4279 527.473,-77.3102"/>
</g>
<!-- Node4 -->
<g id="node5" class="node"><title>Node4</title>
<polygon fill="white" stroke="#bfbfbf" points="576.23,-56.5 576.23,-75.5 641.23,-75.5 641.23,-56.5 576.23,-56.5"/>
<text text-anchor="middle" x="608.73" y="-63.5" font-family="Helvetica,sans-Serif" font-size="10.00">flagset.hpp</text>
</g>
<!-- Node2&#45;&gt;Node4 -->
<g id="edge4" class="edge"><title>Node2&#45;&gt;Node4</title>
<path fill="none" stroke="midnightblue" d="M608.73,-117.975C608.73,-109.58 608.73,-96.4806 608.73,-85.6631"/>
<polygon fill="midnightblue" stroke="midnightblue" points="612.23,-85.5091 608.73,-75.5091 605.23,-85.5091 612.23,-85.5091"/>
</g>
<!-- Node2&#45;&gt;Node5 -->
<g id="edge5" class="edge"><title>Node2&#45;&gt;Node5</title>
<path fill="none" stroke="midnightblue" d="M569.94,-117.988C559.808,-115.895 548.881,-113.754 538.73,-112 434.733,-94.027 310.981,-78.434 250.963,-71.2372"/>
<polygon fill="midnightblue" stroke="midnightblue" points="251.204,-67.7412 240.86,-70.033 250.375,-74.692 251.204,-67.7412"/>
</g>
<!-- Node6 -->
<g id="node7" class="node"><title>Node6</title>
<polygon fill="white" stroke="#bfbfbf" points="312.73,-56.5 312.73,-75.5 398.73,-75.5 398.73,-56.5 312.73,-56.5"/>
<text text-anchor="middle" x="355.73" y="-63.5" font-family="Helvetica,sans-Serif" font-size="10.00">odb/lazy&#45;ptr.hxx</text>
</g>
<!-- Node2&#45;&gt;Node6 -->
<g id="edge6" class="edge"><title>Node2&#45;&gt;Node6</title>
<path fill="none" stroke="midnightblue" d="M572.482,-117.975C527.58,-107.415 451.024,-89.411 401.946,-77.8689"/>
<polygon fill="midnightblue" stroke="midnightblue" points="402.448,-74.3914 391.912,-75.5091 400.845,-81.2055 402.448,-74.3914"/>
</g>
<!-- Node7&#45;&gt;Node3 -->
<g id="edge8" class="edge"><title>Node7&#45;&gt;Node3</title>
<path fill="none" stroke="midnightblue" d="M475.172,-117.975C479.684,-109.315 486.804,-95.6486 492.537,-84.6453"/>
<polygon fill="midnightblue" stroke="midnightblue" points="495.78,-85.9948 497.297,-75.5091 489.572,-82.7604 495.78,-85.9948"/>
</g>
<!-- Node7&#45;&gt;Node5 -->
<g id="edge9" class="edge"><title>Node7&#45;&gt;Node5</title>
<path fill="none" stroke="midnightblue" d="M434.052,-117.975C385.133,-106.605 299.082,-86.6052 250.585,-75.3333"/>
<polygon fill="midnightblue" stroke="midnightblue" points="251.365,-71.9215 240.833,-73.0667 249.781,-78.7398 251.365,-71.9215"/>
</g>
<!-- Node7&#45;&gt;Node6 -->
<g id="edge10" class="edge"><title>Node7&#45;&gt;Node6</title>
<path fill="none" stroke="midnightblue" d="M454.254,-117.975C435.125,-108.078 403.357,-91.6416 381.079,-80.1151"/>
<polygon fill="midnightblue" stroke="midnightblue" points="382.667,-76.9958 372.177,-75.5091 379.45,-83.213 382.667,-76.9958"/>
</g>
<!-- Node8&#45;&gt;Node5 -->
<g id="edge12" class="edge"><title>Node8&#45;&gt;Node5</title>
<path fill="none" stroke="midnightblue" d="M300.188,-112.399C282.067,-102.773 258.194,-90.0902 240.287,-80.5772"/>
<polygon fill="midnightblue" stroke="midnightblue" points="241.501,-77.2585 231.027,-75.6578 238.216,-83.4403 241.501,-77.2585"/>
</g>
<!-- Node8&#45;&gt;Node6 -->
<g id="edge13" class="edge"><title>Node8&#45;&gt;Node6</title>
<path fill="none" stroke="midnightblue" d="M333.603,-112.399C337.643,-104.11 342.788,-93.5542 347.1,-84.7077"/>
<polygon fill="midnightblue" stroke="midnightblue" points="350.275,-86.1804 351.511,-75.6578 343.983,-83.1135 350.275,-86.1804"/>
</g>
<!-- Node10 -->
<g id="node11" class="node"><title>Node10</title>
<g id="a_node11"><a xlink:href="../../dc/dea/Uuid_8hpp.html" target="_top" xlink:title="tools/Uuid.hpp">
<polygon fill="white" stroke="black" points="717.73,-56.5 717.73,-75.5 797.73,-75.5 797.73,-56.5 717.73,-56.5"/>
<text text-anchor="middle" x="757.73" y="-63.5" font-family="Helvetica,sans-Serif" font-size="10.00">tools/Uuid.hpp</text>
</a>
</g>
</g>
<!-- Node9&#45;&gt;Node10 -->
<g id="edge15" class="edge"><title>Node9&#45;&gt;Node10</title>
<path fill="none" stroke="midnightblue" d="M757.73,-117.975C757.73,-109.58 757.73,-96.4806 757.73,-85.6631"/>
<polygon fill="midnightblue" stroke="midnightblue" points="761.23,-85.5091 757.73,-75.5091 754.23,-85.5091 761.23,-85.5091"/>
</g>
<!-- Node11 -->
<g id="node12" class="node"><title>Node11</title>
<polygon fill="white" stroke="#bfbfbf" points="332.73,-0.5 332.73,-19.5 446.73,-19.5 446.73,-0.5 332.73,-0.5"/>
<text text-anchor="middle" x="389.73" y="-7.5" font-family="Helvetica,sans-Serif" font-size="10.00">boost/lexical_cast.hpp</text>
</g>
<!-- Node10&#45;&gt;Node11 -->
<g id="edge16" class="edge"><title>Node10&#45;&gt;Node11</title>
<path fill="none" stroke="midnightblue" d="M717.647,-59.1183C654.982,-49.9228 533.106,-32.0389 456.877,-20.8531"/>
<polygon fill="midnightblue" stroke="midnightblue" points="457.297,-17.3773 446.895,-19.3883 456.281,-24.3032 457.297,-17.3773"/>
</g>
<!-- Node12 -->
<g id="node13" class="node"><title>Node12</title>
<polygon fill="white" stroke="#bfbfbf" points="465.23,-0.5 465.23,-19.5 626.23,-19.5 626.23,-0.5 465.23,-0.5"/>
<text text-anchor="middle" x="545.73" y="-7.5" font-family="Helvetica,sans-Serif" font-size="10.00">boost/uuid/random_generator.hpp</text>
</g>
<!-- Node10&#45;&gt;Node12 -->
<g id="edge17" class="edge"><title>Node10&#45;&gt;Node12</title>
<path fill="none" stroke="midnightblue" d="M724.138,-56.4435C687.543,-47.1221 628.892,-32.1828 588.905,-21.9972"/>
<polygon fill="midnightblue" stroke="midnightblue" points="589.72,-18.5932 579.165,-19.5164 587.992,-25.3766 589.72,-18.5932"/>
</g>
<!-- Node13 -->
<g id="node14" class="node"><title>Node13</title>
<polygon fill="white" stroke="#bfbfbf" points="644.23,-0.5 644.23,-19.5 745.23,-19.5 745.23,-0.5 644.23,-0.5"/>
<text text-anchor="middle" x="694.73" y="-7.5" font-family="Helvetica,sans-Serif" font-size="10.00">boost/uuid/uuid.hpp</text>
</g>
<!-- Node10&#45;&gt;Node13 -->
<g id="edge18" class="edge"><title>Node10&#45;&gt;Node13</title>
<path fill="none" stroke="midnightblue" d="M747.608,-56.324C738.204,-48.2631 723.986,-36.0765 712.661,-26.3695"/>
<polygon fill="midnightblue" stroke="midnightblue" points="714.907,-23.6844 705.037,-19.8339 710.351,-28.9993 714.907,-23.6844"/>
</g>
<!-- Node14 -->
<g id="node15" class="node"><title>Node14</title>
<polygon fill="white" stroke="#bfbfbf" points="763.73,-0.5 763.73,-19.5 877.73,-19.5 877.73,-0.5 763.73,-0.5"/>
<text text-anchor="middle" x="820.73" y="-7.5" font-family="Helvetica,sans-Serif" font-size="10.00">boost/uuid/uuid_io.hpp</text>
</g>
<!-- Node10&#45;&gt;Node14 -->
<g id="edge19" class="edge"><title>Node10&#45;&gt;Node14</title>
<path fill="none" stroke="midnightblue" d="M767.852,-56.324C777.257,-48.2631 791.474,-36.0765 802.799,-26.3695"/>
<polygon fill="midnightblue" stroke="midnightblue" points="805.109,-28.9993 810.424,-19.8339 800.554,-23.6844 805.109,-28.9993"/>
</g>
<!-- Node15 -->
<g id="node16" class="node"><title>Node15</title>
<polygon fill="white" stroke="#bfbfbf" points="896.23,-0.5 896.23,-19.5 969.23,-19.5 969.23,-0.5 896.23,-0.5"/>
<text text-anchor="middle" x="932.73" y="-7.5" font-family="Helvetica,sans-Serif" font-size="10.00">odb/core.hxx</text>
</g>
<!-- Node10&#45;&gt;Node15 -->
<g id="edge20" class="edge"><title>Node10&#45;&gt;Node15</title>
<path fill="none" stroke="midnightblue" d="M785.46,-56.4435C815.156,-47.2801 862.447,-32.6876 895.4,-22.5192"/>
<polygon fill="midnightblue" stroke="midnightblue" points="896.607,-25.8094 905.131,-19.5164 894.543,-19.1206 896.607,-25.8094"/>
</g>
<!-- Node16 -->
<g id="node17" class="node"><title>Node16</title>
<polygon fill="white" stroke="#bfbfbf" points="987.23,-0.5 987.23,-19.5 1028.23,-19.5 1028.23,-0.5 987.23,-0.5"/>
<text text-anchor="middle" x="1007.73" y="-7.5" font-family="Helvetica,sans-Serif" font-size="10.00">string</text>
</g>
<!-- Node10&#45;&gt;Node16 -->
<g id="edge21" class="edge"><title>Node10&#45;&gt;Node16</title>
<path fill="none" stroke="midnightblue" d="M797.929,-58.0645C840.343,-50.4708 909.3,-37.3445 977.201,-20.2052"/>
<polygon fill="midnightblue" stroke="midnightblue" points="978.386,-23.5148 987.208,-17.6475 976.652,-16.7328 978.386,-23.5148"/>
</g>
<!-- Node17&#45;&gt;Node5 -->
<g id="edge23" class="edge"><title>Node17&#45;&gt;Node5</title>
<path fill="none" stroke="midnightblue" d="M194.169,-117.975C197.626,-109.404 203.062,-95.9269 207.477,-84.983"/>
<polygon fill="midnightblue" stroke="midnightblue" points="210.803,-86.0924 211.298,-75.5091 204.311,-83.4738 210.803,-86.0924"/>
</g>
<!-- Node17&#45;&gt;Node6 -->
<g id="edge24" class="edge"><title>Node17&#45;&gt;Node6</title>
<path fill="none" stroke="midnightblue" d="M214.371,-117.975C242.674,-107.769 290.263,-90.608 322.317,-79.0492"/>
<polygon fill="midnightblue" stroke="midnightblue" points="323.914,-82.1939 332.134,-75.5091 321.539,-75.6089 323.914,-82.1939"/>
</g>
<!-- Node18&#45;&gt;Node5 -->
<g id="edge26" class="edge"><title>Node18&#45;&gt;Node5</title>
<path fill="none" stroke="midnightblue" d="M90.5053,-117.975C115.163,-107.857 156.475,-90.9046 184.632,-79.3507"/>
<polygon fill="midnightblue" stroke="midnightblue" points="186.071,-82.5434 193.994,-75.5091 183.414,-76.0674 186.071,-82.5434"/>
</g>
</g>
</svg>
