<?xml version="1.0" encoding="UTF-8" standalone="no"?>
<!DOCTYPE svg PUBLIC "-//W3C//DTD SVG 1.1//EN"
 "http://www.w3.org/Graphics/SVG/1.1/DTD/svg11.dtd">
<!-- Generated by graphviz version 2.38.0 (20140413.2041)
 -->
<!-- Title: Leosac::Auth::IAuthenticationSource Pages: 1 -->
<svg width="162pt" height="151pt"
 viewBox="0.00 0.00 162.00 151.00" xmlns="http://www.w3.org/2000/svg" xmlns:xlink="http://www.w3.org/1999/xlink">
<g id="graph0" class="graph" transform="scale(1 1) rotate(0) translate(4 147)">
<title>Leosac::Auth::IAuthenticationSource</title>
<polygon fill="white" stroke="none" points="-4,4 -4,-147 158,-147 158,4 -4,4"/>
<!-- Node0 -->
<g id="node1" class="node"><title>Node0</title>
<polygon fill="#bfbfbf" stroke="black" points="4,-56.5 4,-86.5 150,-86.5 150,-56.5 4,-56.5"/>
<text text-anchor="start" x="12" y="-74.5" font-family="Helvetica,sans-Serif" font-size="10.00">Leosac::Auth::IAuthentication</text>
<text text-anchor="middle" x="77" y="-63.5" font-family="Helvetica,sans-Serif" font-size="10.00">Source</text>
</g>
<!-- Node2 -->
<g id="node3" class="node"><title>Node2</title>
<g id="a_node3"><a xlink:href="../../d6/de2/classLeosac_1_1Auth_1_1BaseAuthSource.html" target="_top" xlink:title="Leosac::Auth::BaseAuthSource">
<polygon fill="white" stroke="black" points="0,-0.5 0,-19.5 154,-19.5 154,-0.5 0,-0.5"/>
<text text-anchor="middle" x="77" y="-7.5" font-family="Helvetica,sans-Serif" font-size="10.00">Leosac::Auth::BaseAuthSource</text>
</a>
</g>
</g>
<!-- Node0&#45;&gt;Node2 -->
<g id="edge2" class="edge"><title>Node0&#45;&gt;Node2</title>
<path fill="none" stroke="midnightblue" d="M77,-46.2892C77,-36.857 77,-26.6548 77,-19.6578"/>
<polygon fill="midnightblue" stroke="midnightblue" points="73.5001,-46.3993 77,-56.3993 80.5001,-46.3994 73.5001,-46.3993"/>
</g>
<!-- Node1 -->
<g id="node2" class="node"><title>Node1</title>
<g id="a_node2"><a xlink:href="../../d0/d33/classLeosac_1_1Tools_1_1IVisitable.html" target="_top" xlink:title="Base class to make an object visitable. ">
<polygon fill="white" stroke="black" points="14.5,-123.5 14.5,-142.5 139.5,-142.5 139.5,-123.5 14.5,-123.5"/>
<text text-anchor="middle" x="77" y="-130.5" font-family="Helvetica,sans-Serif" font-size="10.00">Leosac::Tools::IVisitable</text>
</a>
</g>
</g>
<!-- Node1&#45;&gt;Node0 -->
<g id="edge1" class="edge"><title>Node1&#45;&gt;Node0</title>
<path fill="none" stroke="midnightblue" d="M77,-113.235C77,-104.586 77,-94.4969 77,-86.523"/>
<polygon fill="midnightblue" stroke="midnightblue" points="73.5001,-113.475 77,-123.475 80.5001,-113.475 73.5001,-113.475"/>
</g>
</g>
</svg>
