<?xml version="1.0" encoding="UTF-8" standalone="no"?>
<!DOCTYPE svg PUBLIC "-//W3C//DTD SVG 1.1//EN"
 "http://www.w3.org/Graphics/SVG/1.1/DTD/svg11.dtd">
<!-- Generated by graphviz version 2.38.0 (20140413.2041)
 -->
<!-- Title: src/hardware/LED.hpp Pages: 1 -->
<svg width="448pt" height="95pt"
 viewBox="0.00 0.00 448.00 95.00" xmlns="http://www.w3.org/2000/svg" xmlns:xlink="http://www.w3.org/1999/xlink">
<g id="graph0" class="graph" transform="scale(1 1) rotate(0) translate(4 91)">
<title>src/hardware/LED.hpp</title>
<polygon fill="white" stroke="none" points="-4,4 -4,-91 444,-91 444,4 -4,4"/>
<!-- Node12 -->
<g id="node1" class="node"><title>Node12</title>
<polygon fill="#bfbfbf" stroke="black" points="188,-67.5 188,-86.5 302,-86.5 302,-67.5 188,-67.5"/>
<text text-anchor="middle" x="245" y="-74.5" font-family="Helvetica,sans-Serif" font-size="10.00">src/hardware/LED.hpp</text>
</g>
<!-- Node13 -->
<g id="node2" class="node"><title>Node13</title>
<g id="a_node2"><a xlink:href="../../d9/dab/HardwareService_8cpp.html" target="_top" xlink:title="src/hardware/HardwareService.cpp">
<polygon fill="white" stroke="black" points="0,-6 0,-25 170,-25 170,-6 0,-6"/>
<text text-anchor="middle" x="85" y="-13" font-family="Helvetica,sans-Serif" font-size="10.00">src/hardware/HardwareService.cpp</text>
</a>
</g>
</g>
<!-- Node12&#45;&gt;Node13 -->
<g id="edge1" class="edge"><title>Node12&#45;&gt;Node13</title>
<path fill="none" stroke="midnightblue" d="M212.551,-63.9329C181.453,-52.3683 135.308,-35.2083 107.882,-25.0091"/>
<polygon fill="midnightblue" stroke="midnightblue" points="211.483,-67.27 222.076,-67.4751 213.923,-60.709 211.483,-67.27"/>
</g>
<!-- Node14 -->
<g id="node3" class="node"><title>Node14</title>
<g id="a_node3"><a xlink:href="../../d5/d00/LED_8cpp.html" target="_top" xlink:title="src/hardware/LED.cpp">
<polygon fill="white" stroke="black" points="188,-6 188,-25 302,-25 302,-6 188,-6"/>
<text text-anchor="middle" x="245" y="-13" font-family="Helvetica,sans-Serif" font-size="10.00">src/hardware/LED.cpp</text>
</a>
</g>
</g>
<!-- Node12&#45;&gt;Node14 -->
<g id="edge2" class="edge"><title>Node12&#45;&gt;Node14</title>
<path fill="none" stroke="midnightblue" d="M245,-57.3165C245,-46.4962 245,-33.398 245,-25.0091"/>
<polygon fill="midnightblue" stroke="midnightblue" points="241.5,-57.4751 245,-67.4751 248.5,-57.4751 241.5,-57.4751"/>
</g>
<!-- Node15 -->
<g id="node4" class="node"><title>Node15</title>
<g id="a_node4"><a xlink:href="../../d4/d68/LEDSerializer_8cpp.html" target="_top" xlink:title="src/hardware/serializers\l/LEDSerializer.cpp">
<polygon fill="white" stroke="black" points="320,-0.5 320,-30.5 440,-30.5 440,-0.5 320,-0.5"/>
<text text-anchor="start" x="328" y="-18.5" font-family="Helvetica,sans-Serif" font-size="10.00">src/hardware/serializers</text>
<text text-anchor="middle" x="380" y="-7.5" font-family="Helvetica,sans-Serif" font-size="10.00">/LEDSerializer.cpp</text>
</a>
</g>
</g>
<!-- Node12&#45;&gt;Node15 -->
<g id="edge3" class="edge"><title>Node12&#45;&gt;Node15</title>
<path fill="none" stroke="midnightblue" d="M273.746,-63.3306C295.588,-53.7037 325.619,-40.468 348.183,-30.523"/>
<polygon fill="midnightblue" stroke="midnightblue" points="272.081,-60.2392 264.342,-67.4751 274.904,-66.6447 272.081,-60.2392"/>
</g>
</g>
</svg>
