<?xml version="1.0" encoding="UTF-8" standalone="no"?>
<!DOCTYPE svg PUBLIC "-//W3C//DTD SVG 1.1//EN"
 "http://www.w3.org/Graphics/SVG/1.1/DTD/svg11.dtd">
<!-- Generated by graphviz version 2.38.0 (20140413.2041)
 -->
<!-- Title: Leosac::Hardware::Device Pages: 1 -->
<svg width="501pt" height="148pt"
 viewBox="0.00 0.00 501.00 147.50" xmlns="http://www.w3.org/2000/svg" xmlns:xlink="http://www.w3.org/1999/xlink">
<g id="graph0" class="graph" transform="scale(1 1) rotate(0) translate(4 143.5)">
<title>Leosac::Hardware::Device</title>
<polygon fill="white" stroke="none" points="-4,4 -4,-143.5 497,-143.5 497,4 -4,4"/>
<!-- Node0 -->
<g id="node1" class="node"><title>Node0</title>
<polygon fill="#bfbfbf" stroke="black" points="0,-63 0,-82 133,-82 133,-63 0,-63"/>
<text text-anchor="middle" x="66.5" y="-70" font-family="Helvetica,sans-Serif" font-size="10.00">Leosac::Hardware::Device</text>
</g>
<!-- Node1 -->
<g id="node2" class="node"><title>Node1</title>
<g id="a_node2"><a xlink:href="../../dc/d7a/classLeosac_1_1Hardware_1_1Buzzer.html" target="_top" xlink:title="Abstraction of Buzzer device attributes. ">
<polygon fill="white" stroke="black" points="181.5,-120 181.5,-139 314.5,-139 314.5,-120 181.5,-120"/>
<text text-anchor="middle" x="248" y="-127" font-family="Helvetica,sans-Serif" font-size="10.00">Leosac::Hardware::Buzzer</text>
</a>
</g>
</g>
<!-- Node0&#45;&gt;Node1 -->
<g id="edge1" class="edge"><title>Node0&#45;&gt;Node1</title>
<path fill="none" stroke="midnightblue" d="M100.056,-85.8198C119.8,-93.613 145.616,-103.303 169,-110.5 180.19,-113.944 192.434,-117.174 203.836,-119.959"/>
<polygon fill="midnightblue" stroke="midnightblue" points="101.195,-82.5059 90.6099,-82.0533 98.6024,-89.0082 101.195,-82.5059"/>
</g>
<!-- Node2 -->
<g id="node3" class="node"><title>Node2</title>
<g id="a_node3"><a xlink:href="../../de/d98/classLeosac_1_1Hardware_1_1GPIO.html" target="_top" xlink:title="Abstraction of a GPIO device attributes. ">
<polygon fill="white" stroke="black" points="184.5,-82 184.5,-101 311.5,-101 311.5,-82 184.5,-82"/>
<text text-anchor="middle" x="248" y="-89" font-family="Helvetica,sans-Serif" font-size="10.00">Leosac::Hardware::GPIO</text>
</a>
</g>
</g>
<!-- Node0&#45;&gt;Node2 -->
<g id="edge2" class="edge"><title>Node0&#45;&gt;Node2</title>
<path fill="none" stroke="midnightblue" d="M143.386,-80.5325C157.021,-81.9758 171.094,-83.4653 184.304,-84.8636"/>
<polygon fill="midnightblue" stroke="midnightblue" points="143.378,-77.0122 133.066,-79.4401 142.642,-83.9733 143.378,-77.0122"/>
</g>
<!-- Node4 -->
<g id="node5" class="node"><title>Node4</title>
<g id="a_node5"><a xlink:href="../../d3/d64/classLeosac_1_1Hardware_1_1LED.html" target="_top" xlink:title="Abstraction of LED device attributes. ">
<polygon fill="white" stroke="black" points="187,-44 187,-63 309,-63 309,-44 187,-44"/>
<text text-anchor="middle" x="248" y="-51" font-family="Helvetica,sans-Serif" font-size="10.00">Leosac::Hardware::LED</text>
</a>
</g>
</g>
<!-- Node0&#45;&gt;Node4 -->
<g id="edge4" class="edge"><title>Node0&#45;&gt;Node4</title>
<path fill="none" stroke="midnightblue" d="M143.102,-64.4975C157.748,-62.9473 172.908,-61.3426 186.972,-59.854"/>
<polygon fill="midnightblue" stroke="midnightblue" points="142.642,-61.0267 133.066,-65.5599 143.378,-67.9878 142.642,-61.0267"/>
</g>
<!-- Node5 -->
<g id="node6" class="node"><title>Node5</title>
<g id="a_node6"><a xlink:href="../../d8/d82/classLeosac_1_1Hardware_1_1RFIDReader.html" target="_top" xlink:title="Abstraction of a RFID Reader device. ">
<polygon fill="white" stroke="black" points="169,-6 169,-25 327,-25 327,-6 169,-6"/>
<text text-anchor="middle" x="248" y="-13" font-family="Helvetica,sans-Serif" font-size="10.00">Leosac::Hardware::RFIDReader</text>
</a>
</g>
</g>
<!-- Node0&#45;&gt;Node5 -->
<g id="edge5" class="edge"><title>Node0&#45;&gt;Node5</title>
<path fill="none" stroke="midnightblue" d="M100.056,-59.1802C119.8,-51.387 145.616,-41.6973 169,-34.5 180.19,-31.056 192.434,-27.8265 203.836,-25.0415"/>
<polygon fill="midnightblue" stroke="midnightblue" points="98.6024,-55.9918 90.6099,-62.9467 101.195,-62.4941 98.6024,-55.9918"/>
</g>
<!-- Node3 -->
<g id="node4" class="node"><title>Node3</title>
<g id="a_node4"><a xlink:href="../../dc/d7f/classLeosac_1_1Module_1_1Piface_1_1PFGPIO.html" target="_top" xlink:title="Piface Module GPIO descriptor. ">
<polygon fill="white" stroke="black" points="368.5,-76.5 368.5,-106.5 487.5,-106.5 487.5,-76.5 368.5,-76.5"/>
<text text-anchor="start" x="376.5" y="-94.5" font-family="Helvetica,sans-Serif" font-size="10.00">Leosac::Module::Piface</text>
<text text-anchor="middle" x="428" y="-83.5" font-family="Helvetica,sans-Serif" font-size="10.00">::PFGPIO</text>
</a>
</g>
</g>
<!-- Node2&#45;&gt;Node3 -->
<g id="edge3" class="edge"><title>Node2&#45;&gt;Node3</title>
<path fill="none" stroke="midnightblue" d="M321.583,-91.5C337.1,-91.5 353.306,-91.5 368.227,-91.5"/>
<polygon fill="midnightblue" stroke="midnightblue" points="321.506,-88.0001 311.506,-91.5 321.506,-95.0001 321.506,-88.0001"/>
</g>
<!-- Node6 -->
<g id="node7" class="node"><title>Node6</title>
<g id="a_node7"><a xlink:href="../../dc/dfa/structLeosac_1_1Module_1_1Wiegand_1_1WiegandReaderConfig.html" target="_top" xlink:title="An instance of this class represents the configuration of one Wiegand reader. ">
<polygon fill="white" stroke="black" points="363,-0.5 363,-30.5 493,-30.5 493,-0.5 363,-0.5"/>
<text text-anchor="start" x="371" y="-18.5" font-family="Helvetica,sans-Serif" font-size="10.00">Leosac::Module::Wiegand</text>
<text text-anchor="middle" x="428" y="-7.5" font-family="Helvetica,sans-Serif" font-size="10.00">::WiegandReaderConfig</text>
</a>
</g>
</g>
<!-- Node5&#45;&gt;Node6 -->
<g id="edge6" class="edge"><title>Node5&#45;&gt;Node6</title>
<path fill="none" stroke="midnightblue" d="M337.206,-15.5C345.857,-15.5 354.519,-15.5 362.864,-15.5"/>
<polygon fill="midnightblue" stroke="midnightblue" points="337.073,-12.0001 327.073,-15.5 337.073,-19.0001 337.073,-12.0001"/>
</g>
</g>
</svg>
