<?xml version="1.0" encoding="UTF-8" standalone="no"?>
<!DOCTYPE svg PUBLIC "-//W3C//DTD SVG 1.1//EN"
 "http://www.w3.org/Graphics/SVG/1.1/DTD/svg11.dtd">
<!-- Generated by graphviz version 2.38.0 (20140413.2041)
 -->
<!-- Title: Leosac::Module::Piface::WSHelperThread Pages: 1 -->
<svg width="159pt" height="117pt"
 viewBox="0.00 0.00 159.00 117.00" xmlns="http://www.w3.org/2000/svg" xmlns:xlink="http://www.w3.org/1999/xlink">
<g id="graph0" class="graph" transform="scale(1 1) rotate(0) translate(4 113)">
<title>Leosac::Module::Piface::WSHelperThread</title>
<polygon fill="white" stroke="none" points="-4,4 -4,-113 155,-113 155,4 -4,4"/>
<!-- Node0 -->
<g id="node1" class="node"><title>Node0</title>
<polygon fill="#bfbfbf" stroke="black" points="16,-0.5 16,-30.5 135,-30.5 135,-0.5 16,-0.5"/>
<text text-anchor="start" x="24" y="-18.5" font-family="Helvetica,sans-Serif" font-size="10.00">Leosac::Module::Piface</text>
<text text-anchor="middle" x="75.5" y="-7.5" font-family="Helvetica,sans-Serif" font-size="10.00">::WSHelperThread</text>
</g>
<!-- Node1 -->
<g id="node2" class="node"><title>Node1</title>
<g id="a_node2"><a xlink:href="../../d8/daf/classLeosac_1_1Module_1_1WebSockAPI_1_1BaseModuleSupportThread.html" target="_top" xlink:title="Leosac::Module::WebSockAPI\l::BaseModuleSupportThread\l\&lt; ModuleParameters \&gt;">
<polygon fill="white" stroke="black" points="0,-67.5 0,-108.5 151,-108.5 151,-67.5 0,-67.5"/>
<text text-anchor="start" x="8" y="-96.5" font-family="Helvetica,sans-Serif" font-size="10.00">Leosac::Module::WebSockAPI</text>
<text text-anchor="start" x="8" y="-85.5" font-family="Helvetica,sans-Serif" font-size="10.00">::BaseModuleSupportThread</text>
<text text-anchor="middle" x="75.5" y="-74.5" font-family="Helvetica,sans-Serif" font-size="10.00">&lt; ModuleParameters &gt;</text>
</a>
</g>
</g>
<!-- Node1&#45;&gt;Node0 -->
<g id="edge1" class="edge"><title>Node1&#45;&gt;Node0</title>
<path fill="none" stroke="midnightblue" d="M75.5,-57.08C75.5,-48.0061 75.5,-38.4498 75.5,-30.8916"/>
<polygon fill="midnightblue" stroke="midnightblue" points="72.0001,-57.3618 75.5,-67.3618 79.0001,-57.3619 72.0001,-57.3618"/>
</g>
</g>
</svg>
