<?xml version="1.0" encoding="UTF-8" standalone="no"?>
<!DOCTYPE svg PUBLIC "-//W3C//DTD SVG 1.1//EN"
 "http://www.w3.org/Graphics/SVG/1.1/DTD/svg11.dtd">
<!-- Generated by graphviz version 2.38.0 (20140413.2041)
 -->
<!-- Title: src/tools/leosac.cpp Pages: 1 -->
<svg width="182pt" height="140pt"
 viewBox="0.00 0.00 181.50 140.00" xmlns="http://www.w3.org/2000/svg" xmlns:xlink="http://www.w3.org/1999/xlink">
<g id="graph0" class="graph" transform="scale(1 1) rotate(0) translate(4 136)">
<title>src/tools/leosac.cpp</title>
<polygon fill="white" stroke="none" points="-4,4 -4,-136 177.5,-136 177.5,4 -4,4"/>
<!-- Node0 -->
<g id="node1" class="node"><title>Node0</title>
<polygon fill="#bfbfbf" stroke="black" points="28,-112.5 28,-131.5 132,-131.5 132,-112.5 28,-112.5"/>
<text text-anchor="middle" x="80" y="-119.5" font-family="Helvetica,sans-Serif" font-size="10.00">src/tools/leosac.cpp</text>
</g>
<!-- Node1 -->
<g id="node2" class="node"><title>Node1</title>
<g id="a_node2"><a xlink:href="../../dc/d31/leosac_8hpp.html" target="_top" xlink:title="version and platform handling ">
<polygon fill="white" stroke="black" points="0,-56.5 0,-75.5 64,-75.5 64,-56.5 0,-56.5"/>
<text text-anchor="middle" x="32" y="-63.5" font-family="Helvetica,sans-Serif" font-size="10.00">leosac.hpp</text>
</a>
</g>
</g>
<!-- Node0&#45;&gt;Node1 -->
<g id="edge1" class="edge"><title>Node0&#45;&gt;Node1</title>
<path fill="none" stroke="midnightblue" d="M72.0738,-112.083C65.1539,-104.298 54.9346,-92.8015 46.548,-83.3665"/>
<polygon fill="midnightblue" stroke="midnightblue" points="49.0383,-80.8999 39.7787,-75.7511 43.8065,-85.5505 49.0383,-80.8999"/>
</g>
<!-- Node3 -->
<g id="node4" class="node"><title>Node3</title>
<g id="a_node4"><a xlink:href="../../d7/dad/version_8hpp.html" target="_top" xlink:title="version handling ">
<polygon fill="white" stroke="black" points="82.5,-56.5 82.5,-75.5 173.5,-75.5 173.5,-56.5 82.5,-56.5"/>
<text text-anchor="middle" x="128" y="-63.5" font-family="Helvetica,sans-Serif" font-size="10.00">tools/version.hpp</text>
</a>
</g>
</g>
<!-- Node0&#45;&gt;Node3 -->
<g id="edge3" class="edge"><title>Node0&#45;&gt;Node3</title>
<path fill="none" stroke="midnightblue" d="M87.9262,-112.083C94.8461,-104.298 105.065,-92.8015 113.452,-83.3665"/>
<polygon fill="midnightblue" stroke="midnightblue" points="116.194,-85.5505 120.221,-75.7511 110.962,-80.8999 116.194,-85.5505"/>
</g>
<!-- Node2 -->
<g id="node3" class="node"><title>Node2</title>
<polygon fill="white" stroke="#bfbfbf" points="59.5,-0.5 59.5,-19.5 100.5,-19.5 100.5,-0.5 59.5,-0.5"/>
<text text-anchor="middle" x="80" y="-7.5" font-family="Helvetica,sans-Serif" font-size="10.00">string</text>
</g>
<!-- Node1&#45;&gt;Node2 -->
<g id="edge2" class="edge"><title>Node1&#45;&gt;Node2</title>
<path fill="none" stroke="midnightblue" d="M39.9262,-56.083C46.8461,-48.2982 57.0654,-36.8015 65.452,-27.3665"/>
<polygon fill="midnightblue" stroke="midnightblue" points="68.1935,-29.5505 72.2213,-19.7511 62.9617,-24.8999 68.1935,-29.5505"/>
</g>
<!-- Node3&#45;&gt;Node2 -->
<g id="edge4" class="edge"><title>Node3&#45;&gt;Node2</title>
<path fill="none" stroke="midnightblue" d="M120.074,-56.083C113.154,-48.2982 102.935,-36.8015 94.548,-27.3665"/>
<polygon fill="midnightblue" stroke="midnightblue" points="97.0383,-24.8999 87.7787,-19.7511 91.8065,-29.5505 97.0383,-24.8999"/>
</g>
</g>
</svg>
