<?xml version="1.0" encoding="UTF-8" standalone="no"?>
<!DOCTYPE svg PUBLIC "-//W3C//DTD SVG 1.1//EN"
 "http://www.w3.org/Graphics/SVG/1.1/DTD/svg11.dtd">
<!-- Generated by graphviz version 2.38.0 (20140413.2041)
 -->
<!-- Title: src/modules/BaseModule.cpp Pages: 1 -->
<svg width="2352pt" height="397pt"
 viewBox="0.00 0.00 2352.15 397.00" xmlns="http://www.w3.org/2000/svg" xmlns:xlink="http://www.w3.org/1999/xlink">
<g id="graph0" class="graph" transform="scale(1 1) rotate(0) translate(4 393)">
<title>src/modules/BaseModule.cpp</title>
<polygon fill="white" stroke="none" points="-4,4 -4,-393 2348.15,-393 2348.15,4 -4,4"/>
<!-- Node0 -->
<g id="node1" class="node"><title>Node0</title>
<polygon fill="#bfbfbf" stroke="black" points="1048,-369.5 1048,-388.5 1194,-388.5 1194,-369.5 1048,-369.5"/>
<text text-anchor="middle" x="1121" y="-376.5" font-family="Helvetica,sans-Serif" font-size="10.00">src/modules/BaseModule.cpp</text>
</g>
<!-- Node1 -->
<g id="node2" class="node"><title>Node1</title>
<g id="a_node2"><a xlink:href="../../d0/dc7/BaseModule_8hpp.html" target="_top" xlink:title="BaseModule.hpp">
<polygon fill="white" stroke="black" points="731.5,-308 731.5,-327 820.5,-327 820.5,-308 731.5,-308"/>
<text text-anchor="middle" x="776" y="-315" font-family="Helvetica,sans-Serif" font-size="10.00">BaseModule.hpp</text>
</a>
</g>
</g>
<!-- Node0&#45;&gt;Node1 -->
<g id="edge1" class="edge"><title>Node0&#45;&gt;Node1</title>
<path fill="none" stroke="midnightblue" d="M1071.57,-369.475C1007.81,-358.479 897.252,-339.412 830.929,-327.973"/>
<polygon fill="midnightblue" stroke="midnightblue" points="831.128,-324.456 820.679,-326.205 829.938,-331.354 831.128,-324.456"/>
</g>
<!-- Node8 -->
<g id="node9" class="node"><title>Node8</title>
<g id="a_node9"><a xlink:href="../../db/d79/ConfigManager_8hpp.html" target="_top" xlink:title="core/config/ConfigManager.hpp">
<polygon fill="white" stroke="black" points="856,-241 856,-260 1008,-260 1008,-241 856,-241"/>
<text text-anchor="middle" x="932" y="-248" font-family="Helvetica,sans-Serif" font-size="10.00">core/config/ConfigManager.hpp</text>
</a>
</g>
</g>
<!-- Node0&#45;&gt;Node8 -->
<g id="edge79" class="edge"><title>Node0&#45;&gt;Node8</title>
<path fill="none" stroke="midnightblue" d="M1108.01,-369.305C1075.97,-347.859 992.905,-292.265 953.435,-265.847"/>
<polygon fill="midnightblue" stroke="midnightblue" points="955.089,-262.742 944.832,-260.088 951.195,-268.559 955.089,-262.742"/>
</g>
<!-- Node25 -->
<g id="node26" class="node"><title>Node25</title>
<g id="a_node26"><a xlink:href="../../d4/d3d/log_8hpp.html" target="_top" xlink:title="tools/log.hpp">
<polygon fill="white" stroke="black" points="2052,-174 2052,-193 2124,-193 2124,-174 2052,-174"/>
<text text-anchor="middle" x="2088" y="-181" font-family="Helvetica,sans-Serif" font-size="10.00">tools/log.hpp</text>
</a>
</g>
</g>
<!-- Node0&#45;&gt;Node25 -->
<g id="edge82" class="edge"><title>Node0&#45;&gt;Node25</title>
<path fill="none" stroke="midnightblue" d="M1113.59,-369.411C1106.72,-360.844 1096.99,-346.979 1093,-333 1080.88,-290.566 1074.93,-263.05 1109,-235 1146.52,-204.112 1934.6,-203.329 1983,-199 2002.24,-197.279 2023.36,-194.531 2041.58,-191.888"/>
<polygon fill="midnightblue" stroke="midnightblue" points="2042.27,-195.323 2051.65,-190.395 2041.25,-188.399 2042.27,-195.323"/>
</g>
<!-- Node34 -->
<g id="node35" class="node"><title>Node34</title>
<g id="a_node35"><a xlink:href="../../d6/de5/CoreUtils_8hpp.html" target="_top" xlink:title="core/CoreUtils.hpp">
<polygon fill="white" stroke="black" points="280,-308 280,-327 378,-327 378,-308 280,-308"/>
<text text-anchor="middle" x="329" y="-315" font-family="Helvetica,sans-Serif" font-size="10.00">core/CoreUtils.hpp</text>
</a>
</g>
</g>
<!-- Node0&#45;&gt;Node34 -->
<g id="edge65" class="edge"><title>Node0&#45;&gt;Node34</title>
<path fill="none" stroke="midnightblue" d="M1047.91,-372.509C892.309,-360.819 530.894,-333.668 388.342,-322.958"/>
<polygon fill="midnightblue" stroke="midnightblue" points="388.291,-319.445 378.057,-322.185 387.767,-326.425 388.291,-319.445"/>
</g>
<!-- Node40 -->
<g id="node41" class="node"><title>Node40</title>
<g id="a_node41"><a xlink:href="../../de/d35/XmlPropertyTree_8hpp.html" target="_top" xlink:title="tools/XmlPropertyTree.hpp">
<polygon fill="white" stroke="black" points="1102.5,-308 1102.5,-327 1235.5,-327 1235.5,-308 1102.5,-308"/>
<text text-anchor="middle" x="1169" y="-315" font-family="Helvetica,sans-Serif" font-size="10.00">tools/XmlPropertyTree.hpp</text>
</a>
</g>
</g>
<!-- Node0&#45;&gt;Node40 -->
<g id="edge80" class="edge"><title>Node0&#45;&gt;Node40</title>
<path fill="none" stroke="midnightblue" d="M1127.88,-369.475C1135.15,-360.462 1146.8,-346.025 1155.84,-334.812"/>
<polygon fill="midnightblue" stroke="midnightblue" points="1158.58,-336.99 1162.14,-327.009 1153.13,-332.595 1158.58,-336.99"/>
</g>
<!-- Node42 -->
<g id="node43" class="node"><title>Node42</title>
<polygon fill="white" stroke="#bfbfbf" points="1253.5,-302.5 1253.5,-332.5 1348.5,-332.5 1348.5,-302.5 1253.5,-302.5"/>
<text text-anchor="start" x="1261.5" y="-320.5" font-family="Helvetica,sans-Serif" font-size="10.00">boost/archive/text</text>
<text text-anchor="middle" x="1301" y="-309.5" font-family="Helvetica,sans-Serif" font-size="10.00">_oarchive.hpp</text>
</g>
<!-- Node0&#45;&gt;Node42 -->
<g id="edge83" class="edge"><title>Node0&#45;&gt;Node42</title>
<path fill="none" stroke="midnightblue" d="M1146.79,-369.475C1173.33,-360.701 1215.42,-346.788 1248.93,-335.712"/>
<polygon fill="midnightblue" stroke="midnightblue" points="1250.18,-338.985 1258.58,-332.523 1247.98,-332.338 1250.18,-338.985"/>
</g>
<!-- Node43 -->
<g id="node44" class="node"><title>Node43</title>
<polygon fill="white" stroke="#bfbfbf" points="1366.5,-302.5 1366.5,-332.5 1483.5,-332.5 1483.5,-302.5 1366.5,-302.5"/>
<text text-anchor="start" x="1374.5" y="-320.5" font-family="Helvetica,sans-Serif" font-size="10.00">boost/property_tree</text>
<text text-anchor="middle" x="1425" y="-309.5" font-family="Helvetica,sans-Serif" font-size="10.00">/ptree_serialization.hpp</text>
</g>
<!-- Node0&#45;&gt;Node43 -->
<g id="edge84" class="edge"><title>Node0&#45;&gt;Node43</title>
<path fill="none" stroke="midnightblue" d="M1167.18,-369.5C1212.66,-361.061 1284.37,-347.572 1356.27,-333.122"/>
<polygon fill="midnightblue" stroke="midnightblue" points="1357.3,-336.485 1366.41,-331.077 1355.92,-329.623 1357.3,-336.485"/>
</g>
<!-- Node44 -->
<g id="node45" class="node"><title>Node44</title>
<polygon fill="white" stroke="#bfbfbf" points="1502,-308 1502,-327 1552,-327 1552,-308 1502,-308"/>
<text text-anchor="middle" x="1527" y="-315" font-family="Helvetica,sans-Serif" font-size="10.00">signal.h</text>
</g>
<!-- Node0&#45;&gt;Node44 -->
<g id="edge85" class="edge"><title>Node0&#45;&gt;Node44</title>
<path fill="none" stroke="midnightblue" d="M1194.26,-374.987C1269.9,-370.519 1390.81,-359.566 1492,-333 1494.45,-332.357 1496.95,-331.579 1499.44,-330.722"/>
<polygon fill="midnightblue" stroke="midnightblue" points="1500.71,-333.984 1508.8,-327.139 1498.21,-327.447 1500.71,-333.984"/>
</g>
<!-- Node2 -->
<g id="node3" class="node"><title>Node2</title>
<g id="a_node3"><a xlink:href="../../dc/d49/LeosacFwd_8hpp.html" target="_top" xlink:title="LeosacFwd.hpp">
<polygon fill="white" stroke="black" points="286,-241 286,-260 372,-260 372,-241 286,-241"/>
<text text-anchor="middle" x="329" y="-248" font-family="Helvetica,sans-Serif" font-size="10.00">LeosacFwd.hpp</text>
</a>
</g>
</g>
<!-- Node1&#45;&gt;Node2 -->
<g id="edge2" class="edge"><title>Node1&#45;&gt;Node2</title>
<path fill="none" stroke="midnightblue" d="M731.228,-312.904C657.631,-306.517 506.7,-291.422 381,-266 376.255,-265.04 371.307,-263.878 366.432,-262.633"/>
<polygon fill="midnightblue" stroke="midnightblue" points="367.181,-259.21 356.616,-260.001 365.369,-265.971 367.181,-259.21"/>
</g>
<!-- Node5 -->
<g id="node6" class="node"><title>Node5</title>
<g id="a_node6"><a xlink:href="../../db/d33/ConfigChecker_8hpp.html" target="_top" xlink:title="core/config/ConfigChecker.hpp">
<polygon fill="white" stroke="black" points="648,-241 648,-260 800,-260 800,-241 648,-241"/>
<text text-anchor="middle" x="724" y="-248" font-family="Helvetica,sans-Serif" font-size="10.00">core/config/ConfigChecker.hpp</text>
</a>
</g>
</g>
<!-- Node1&#45;&gt;Node5 -->
<g id="edge5" class="edge"><title>Node1&#45;&gt;Node5</title>
<path fill="none" stroke="midnightblue" d="M768.987,-307.734C760.878,-297.598 747.352,-280.69 737.245,-268.056"/>
<polygon fill="midnightblue" stroke="midnightblue" points="739.882,-265.75 730.902,-260.127 734.416,-270.122 739.882,-265.75"/>
</g>
<!-- Node1&#45;&gt;Node8 -->
<g id="edge8" class="edge"><title>Node1&#45;&gt;Node8</title>
<path fill="none" stroke="midnightblue" d="M796.716,-307.869C823.639,-296.65 870.856,-276.977 901.778,-264.092"/>
<polygon fill="midnightblue" stroke="midnightblue" points="903.314,-267.244 911.199,-260.167 900.622,-260.783 903.314,-267.244"/>
</g>
<!-- Node1&#45;&gt;Node25 -->
<g id="edge62" class="edge"><title>Node1&#45;&gt;Node25</title>
<path fill="none" stroke="midnightblue" d="M820.793,-312.738C870.512,-307.302 952.273,-294.564 1017,-266 1038.55,-256.488 1037.73,-242.675 1060,-235 1157.04,-201.567 1880.76,-208.031 1983,-199 2002.24,-197.3 2023.36,-194.556 2041.58,-191.91"/>
<polygon fill="midnightblue" stroke="midnightblue" points="2042.28,-195.345 2051.65,-190.415 2041.25,-188.421 2042.28,-195.345"/>
</g>
<!-- Node30 -->
<g id="node31" class="node"><title>Node30</title>
<polygon fill="white" stroke="#bfbfbf" points="557.5,-168.5 557.5,-198.5 658.5,-198.5 658.5,-168.5 557.5,-168.5"/>
<text text-anchor="start" x="565.5" y="-186.5" font-family="Helvetica,sans-Serif" font-size="10.00">boost/property_tree</text>
<text text-anchor="middle" x="608" y="-175.5" font-family="Helvetica,sans-Serif" font-size="10.00">/ptree.hpp</text>
</g>
<!-- Node1&#45;&gt;Node30 -->
<g id="edge63" class="edge"><title>Node1&#45;&gt;Node30</title>
<path fill="none" stroke="midnightblue" d="M731.358,-309.888C701.731,-303.36 663.863,-290.608 639,-266 623.423,-250.583 615.55,-226.538 611.649,-208.555"/>
<polygon fill="midnightblue" stroke="midnightblue" points="615.049,-207.695 609.742,-198.526 608.172,-209.003 615.049,-207.695"/>
</g>
<!-- Node31 -->
<g id="node32" class="node"><title>Node31</title>
<polygon fill="white" stroke="#bfbfbf" points="792.5,-174 792.5,-193 889.5,-193 889.5,-174 792.5,-174"/>
<text text-anchor="middle" x="841" y="-181" font-family="Helvetica,sans-Serif" font-size="10.00">zmqpp/zmqpp.hpp</text>
</g>
<!-- Node1&#45;&gt;Node31 -->
<g id="edge64" class="edge"><title>Node1&#45;&gt;Node31</title>
<path fill="none" stroke="midnightblue" d="M782.412,-307.892C789.518,-298.097 801.026,-281.449 809,-266 819.752,-245.168 829.163,-219.859 834.946,-203.026"/>
<polygon fill="midnightblue" stroke="midnightblue" points="838.339,-203.915 838.2,-193.321 831.703,-201.689 838.339,-203.915"/>
</g>
<!-- Node32 -->
<g id="node33" class="node"><title>Node32</title>
<g id="a_node33"><a xlink:href="../../d1/d91/ThreadUtils_8hpp.html" target="_top" xlink:title="tools/ThreadUtils.hpp">
<polygon fill="white" stroke="black" points="482,-241 482,-260 592,-260 592,-241 482,-241"/>
<text text-anchor="middle" x="537" y="-248" font-family="Helvetica,sans-Serif" font-size="10.00">tools/ThreadUtils.hpp</text>
</a>
</g>
</g>
<!-- Node1&#45;&gt;Node32 -->
<g id="edge59" class="edge"><title>Node1&#45;&gt;Node32</title>
<path fill="none" stroke="midnightblue" d="M744.263,-307.869C701.557,-296.254 625.525,-275.576 578.376,-262.753"/>
<polygon fill="midnightblue" stroke="midnightblue" points="579.056,-259.311 568.488,-260.064 577.219,-266.065 579.056,-259.311"/>
</g>
<!-- Node3 -->
<g id="node4" class="node"><title>Node3</title>
<polygon fill="white" stroke="#bfbfbf" points="163,-112.5 163,-131.5 215,-131.5 215,-112.5 163,-112.5"/>
<text text-anchor="middle" x="189" y="-119.5" font-family="Helvetica,sans-Serif" font-size="10.00">memory</text>
</g>
<!-- Node2&#45;&gt;Node3 -->
<g id="edge3" class="edge"><title>Node2&#45;&gt;Node3</title>
<path fill="none" stroke="midnightblue" d="M302.499,-240.982C272.007,-230.696 224.521,-213.031 212,-199 197.83,-183.122 192.386,-158.757 190.297,-141.915"/>
<polygon fill="midnightblue" stroke="midnightblue" points="193.752,-141.277 189.321,-131.653 186.784,-141.94 193.752,-141.277"/>
</g>
<!-- Node4 -->
<g id="node5" class="node"><title>Node4</title>
<polygon fill="white" stroke="#bfbfbf" points="437,-56.5 437,-75.5 481,-75.5 481,-56.5 437,-56.5"/>
<text text-anchor="middle" x="459" y="-63.5" font-family="Helvetica,sans-Serif" font-size="10.00">vector</text>
</g>
<!-- Node2&#45;&gt;Node4 -->
<g id="edge4" class="edge"><title>Node2&#45;&gt;Node4</title>
<path fill="none" stroke="midnightblue" d="M335.27,-240.698C355.562,-212.21 419.695,-122.179 446.76,-84.1835"/>
<polygon fill="midnightblue" stroke="midnightblue" points="449.842,-85.8896 452.793,-75.714 444.14,-81.8283 449.842,-85.8896"/>
</g>
<!-- Node6 -->
<g id="node7" class="node"><title>Node6</title>
<polygon fill="white" stroke="#bfbfbf" points="739.5,-174 739.5,-193 774.5,-193 774.5,-174 739.5,-174"/>
<text text-anchor="middle" x="757" y="-181" font-family="Helvetica,sans-Serif" font-size="10.00">map</text>
</g>
<!-- Node5&#45;&gt;Node6 -->
<g id="edge6" class="edge"><title>Node5&#45;&gt;Node6</title>
<path fill="none" stroke="midnightblue" d="M728.451,-240.734C733.448,-230.89 741.688,-214.66 748.034,-202.159"/>
<polygon fill="midnightblue" stroke="midnightblue" points="751.214,-203.628 752.62,-193.127 744.972,-200.46 751.214,-203.628"/>
</g>
<!-- Node7 -->
<g id="node8" class="node"><title>Node7</title>
<polygon fill="white" stroke="#bfbfbf" points="677,-174 677,-193 721,-193 721,-174 677,-174"/>
<text text-anchor="middle" x="699" y="-181" font-family="Helvetica,sans-Serif" font-size="10.00">mutex</text>
</g>
<!-- Node5&#45;&gt;Node7 -->
<g id="edge7" class="edge"><title>Node5&#45;&gt;Node7</title>
<path fill="none" stroke="midnightblue" d="M720.628,-240.734C716.88,-230.988 710.723,-214.981 705.935,-202.532"/>
<polygon fill="midnightblue" stroke="midnightblue" points="709.175,-201.204 702.318,-193.127 702.641,-203.717 709.175,-201.204"/>
</g>
<!-- Node8&#45;&gt;Node3 -->
<g id="edge55" class="edge"><title>Node8&#45;&gt;Node3</title>
<path fill="none" stroke="midnightblue" d="M931.289,-240.759C929.368,-223.501 922.427,-185.236 898,-168 838.817,-126.241 334.386,-142.193 225.314,-131.578"/>
<polygon fill="midnightblue" stroke="midnightblue" points="225.608,-128.088 215.257,-130.347 224.758,-135.036 225.608,-128.088"/>
</g>
<!-- Node8&#45;&gt;Node4 -->
<g id="edge57" class="edge"><title>Node8&#45;&gt;Node4</title>
<path fill="none" stroke="midnightblue" d="M934.226,-240.932C937.971,-224.321 943.357,-187.648 924,-168 874.088,-117.339 674.644,-150.594 606,-132 560.749,-119.743 511.579,-95.578 483.124,-80.4145"/>
<polygon fill="midnightblue" stroke="midnightblue" points="484.765,-77.323 474.304,-75.6473 481.437,-83.4812 484.765,-77.323"/>
</g>
<!-- Node8&#45;&gt;Node6 -->
<g id="edge54" class="edge"><title>Node8&#45;&gt;Node6</title>
<path fill="none" stroke="midnightblue" d="M901.42,-240.917C870.859,-231.928 822.818,-216.675 783,-199 782.153,-198.624 781.296,-198.229 780.437,-197.821"/>
<polygon fill="midnightblue" stroke="midnightblue" points="781.827,-194.599 771.338,-193.107 778.607,-200.815 781.827,-194.599"/>
</g>
<!-- Node9 -->
<g id="node10" class="node"><title>Node9</title>
<g id="a_node10"><a xlink:href="../../d1/ddd/leosacexception_8hpp.html" target="_top" xlink:title="Exception class for LEOSAC Project related errors. ">
<polygon fill="white" stroke="black" points="1132.5,-174 1132.5,-193 1283.5,-193 1283.5,-174 1132.5,-174"/>
<text text-anchor="middle" x="1208" y="-181" font-family="Helvetica,sans-Serif" font-size="10.00">exception/leosacexception.hpp</text>
</a>
</g>
</g>
<!-- Node8&#45;&gt;Node9 -->
<g id="edge9" class="edge"><title>Node8&#45;&gt;Node9</title>
<path fill="none" stroke="midnightblue" d="M968.366,-240.936C1018.11,-229.22 1107.4,-208.193 1161.82,-195.377"/>
<polygon fill="midnightblue" stroke="midnightblue" points="1162.62,-198.783 1171.55,-193.083 1161.02,-191.969 1162.62,-198.783"/>
</g>
<!-- Node11 -->
<g id="node12" class="node"><title>Node11</title>
<polygon fill="white" stroke="#bfbfbf" points="1263.5,-0.5 1263.5,-19.5 1304.5,-19.5 1304.5,-0.5 1263.5,-0.5"/>
<text text-anchor="middle" x="1284" y="-7.5" font-family="Helvetica,sans-Serif" font-size="10.00">string</text>
</g>
<!-- Node8&#45;&gt;Node11 -->
<g id="edge56" class="edge"><title>Node8&#45;&gt;Node11</title>
<path fill="none" stroke="midnightblue" d="M976.476,-240.98C988.319,-238.864 1001.12,-236.714 1013,-235 1220.33,-205.082 1810.2,-288.005 1950,-132 2038.19,-33.5878 1457.46,-14.7029 1315.02,-11.5664"/>
<polygon fill="midnightblue" stroke="midnightblue" points="1314.87,-8.06259 1304.8,-11.3522 1314.72,-15.0611 1314.87,-8.06259"/>
</g>
<!-- Node8&#45;&gt;Node25 -->
<g id="edge46" class="edge"><title>Node8&#45;&gt;Node25</title>
<path fill="none" stroke="midnightblue" d="M978.107,-240.961C992.153,-238.66 1007.67,-236.418 1022,-235 1447.34,-192.929 1557.22,-236.281 1983,-199 2002.25,-197.315 2023.36,-194.573 2041.58,-191.925"/>
<polygon fill="midnightblue" stroke="midnightblue" points="2042.28,-195.36 2051.66,-190.429 2041.25,-188.436 2042.28,-195.36"/>
</g>
<!-- Node8&#45;&gt;Node30 -->
<g id="edge53" class="edge"><title>Node8&#45;&gt;Node30</title>
<path fill="none" stroke="midnightblue" d="M883.685,-240.978C832.712,-231.827 749.819,-216.489 668.595,-199.068"/>
<polygon fill="midnightblue" stroke="midnightblue" points="669.213,-195.621 658.7,-196.934 667.737,-202.464 669.213,-195.621"/>
</g>
<!-- Node8&#45;&gt;Node31 -->
<g id="edge58" class="edge"><title>Node8&#45;&gt;Node31</title>
<path fill="none" stroke="midnightblue" d="M919.727,-240.734C904.855,-230.111 879.568,-212.049 861.67,-199.264"/>
<polygon fill="midnightblue" stroke="midnightblue" points="863.25,-196.092 853.078,-193.127 859.181,-201.788 863.25,-196.092"/>
</g>
<!-- Node10 -->
<g id="node11" class="node"><title>Node10</title>
<g id="a_node11"><a xlink:href="../../d6/d2f/Stacktrace_8hpp.html" target="_top" xlink:title="tools/Stacktrace.hpp">
<polygon fill="white" stroke="black" points="1154.5,-112.5 1154.5,-131.5 1261.5,-131.5 1261.5,-112.5 1154.5,-112.5"/>
<text text-anchor="middle" x="1208" y="-119.5" font-family="Helvetica,sans-Serif" font-size="10.00">tools/Stacktrace.hpp</text>
</a>
</g>
</g>
<!-- Node9&#45;&gt;Node10 -->
<g id="edge10" class="edge"><title>Node9&#45;&gt;Node10</title>
<path fill="none" stroke="midnightblue" d="M1208,-173.975C1208,-165.58 1208,-152.481 1208,-141.663"/>
<polygon fill="midnightblue" stroke="midnightblue" points="1211.5,-141.509 1208,-131.509 1204.5,-141.509 1211.5,-141.509"/>
</g>
<!-- Node9&#45;&gt;Node11 -->
<g id="edge15" class="edge"><title>Node9&#45;&gt;Node11</title>
<path fill="none" stroke="midnightblue" d="M1132.28,-177.392C974.146,-166.547 622.675,-141.444 614,-132 607.987,-125.454 608.427,-118.924 614,-112 695.263,-11.0389 1133.02,-9.05213 1253.37,-10.4567"/>
<polygon fill="midnightblue" stroke="midnightblue" points="1253.33,-13.9565 1263.38,-10.5905 1253.42,-6.9571 1253.33,-13.9565"/>
</g>
<!-- Node12 -->
<g id="node13" class="node"><title>Node12</title>
<polygon fill="white" stroke="#bfbfbf" points="1087.5,-112.5 1087.5,-131.5 1136.5,-131.5 1136.5,-112.5 1087.5,-112.5"/>
<text text-anchor="middle" x="1112" y="-119.5" font-family="Helvetica,sans-Serif" font-size="10.00">cstddef</text>
</g>
<!-- Node9&#45;&gt;Node12 -->
<g id="edge13" class="edge"><title>Node9&#45;&gt;Node12</title>
<path fill="none" stroke="midnightblue" d="M1194.25,-173.975C1178.63,-164.299 1152.94,-148.372 1134.42,-136.894"/>
<polygon fill="midnightblue" stroke="midnightblue" points="1136.07,-133.802 1125.73,-131.509 1132.38,-139.752 1136.07,-133.802"/>
</g>
<!-- Node13 -->
<g id="node14" class="node"><title>Node13</title>
<polygon fill="white" stroke="#bfbfbf" points="1519.5,-112.5 1519.5,-131.5 1578.5,-131.5 1578.5,-112.5 1519.5,-112.5"/>
<text text-anchor="middle" x="1549" y="-119.5" font-family="Helvetica,sans-Serif" font-size="10.00">exception</text>
</g>
<!-- Node9&#45;&gt;Node13 -->
<g id="edge14" class="edge"><title>Node9&#45;&gt;Node13</title>
<path fill="none" stroke="midnightblue" d="M1265.24,-173.995C1323.98,-165.027 1418.23,-149.974 1509.29,-132.039"/>
<polygon fill="midnightblue" stroke="midnightblue" points="1510.1,-135.446 1519.23,-130.067 1508.74,-128.58 1510.1,-135.446"/>
</g>
<!-- Node14 -->
<g id="node15" class="node"><title>Node14</title>
<g id="a_node15"><a xlink:href="../../d7/d7a/configexception_8hpp.html" target="_top" xlink:title="configexception.hpp">
<polygon fill="white" stroke="black" points="1837,-112.5 1837,-131.5 1941,-131.5 1941,-112.5 1837,-112.5"/>
<text text-anchor="middle" x="1889" y="-119.5" font-family="Helvetica,sans-Serif" font-size="10.00">configexception.hpp</text>
</a>
</g>
</g>
<!-- Node9&#45;&gt;Node14 -->
<g id="edge16" class="edge"><title>Node9&#45;&gt;Node14</title>
<path fill="none" stroke="midnightblue" d="M1283.86,-177.469C1399.37,-169.801 1625.96,-153.751 1818,-132 1820.84,-131.679 1823.74,-131.329 1826.69,-130.959"/>
<polygon fill="midnightblue" stroke="midnightblue" points="1827.32,-134.407 1836.78,-129.641 1826.41,-127.466 1827.32,-134.407"/>
</g>
<!-- Node17 -->
<g id="node18" class="node"><title>Node17</title>
<g id="a_node18"><a xlink:href="../../d8/db0/coreexception_8hpp.html" target="_top" xlink:title="Exception class for Core related errors. ">
<polygon fill="white" stroke="black" points="623,-112.5 623,-131.5 719,-131.5 719,-112.5 623,-112.5"/>
<text text-anchor="middle" x="671" y="-119.5" font-family="Helvetica,sans-Serif" font-size="10.00">coreexception.hpp</text>
</a>
</g>
</g>
<!-- Node9&#45;&gt;Node17 -->
<g id="edge22" class="edge"><title>Node9&#45;&gt;Node17</title>
<path fill="none" stroke="midnightblue" d="M1132.2,-176.309C1037.96,-167.933 872.248,-151.882 725.475,-132.833"/>
<polygon fill="midnightblue" stroke="midnightblue" points="725.758,-129.341 715.388,-131.515 724.851,-136.282 725.758,-129.341"/>
</g>
<!-- Node18 -->
<g id="node19" class="node"><title>Node18</title>
<g id="a_node19"><a xlink:href="../../d8/d77/deviceexception_8hpp.html" target="_top" xlink:title="Exception class for Device related errors. ">
<polygon fill="white" stroke="black" points="737,-112.5 737,-131.5 843,-131.5 843,-112.5 737,-112.5"/>
<text text-anchor="middle" x="790" y="-119.5" font-family="Helvetica,sans-Serif" font-size="10.00">deviceexception.hpp</text>
</a>
</g>
</g>
<!-- Node9&#45;&gt;Node18 -->
<g id="edge25" class="edge"><title>Node9&#45;&gt;Node18</title>
<path fill="none" stroke="midnightblue" d="M1141.06,-173.982C1069.98,-164.303 954.318,-147.959 849.818,-132.977"/>
<polygon fill="midnightblue" stroke="midnightblue" points="850.137,-129.487 839.742,-131.532 849.143,-136.416 850.137,-129.487"/>
</g>
<!-- Node19 -->
<g id="node20" class="node"><title>Node19</title>
<g id="a_node20"><a xlink:href="../../db/d35/dynlibexception_8hpp.html" target="_top" xlink:title="Exception class for DynLib related errors. ">
<polygon fill="white" stroke="black" points="861.5,-112.5 861.5,-131.5 964.5,-131.5 964.5,-112.5 861.5,-112.5"/>
<text text-anchor="middle" x="913" y="-119.5" font-family="Helvetica,sans-Serif" font-size="10.00">dynlibexception.hpp</text>
</a>
</g>
</g>
<!-- Node9&#45;&gt;Node19 -->
<g id="edge28" class="edge"><title>Node9&#45;&gt;Node19</title>
<path fill="none" stroke="midnightblue" d="M1160.83,-173.975C1105.72,-163.327 1015.26,-145.109 960.152,-133.581"/>
<polygon fill="midnightblue" stroke="midnightblue" points="960.797,-130.14 950.291,-131.509 959.358,-136.99 960.797,-130.14"/>
</g>
<!-- Node20 -->
<g id="node21" class="node"><title>Node20</title>
<g id="a_node21"><a xlink:href="../../d0/d4e/fsexception_8hpp.html" target="_top" xlink:title="Exception class for filesystem related errors. ">
<polygon fill="white" stroke="black" points="983,-112.5 983,-131.5 1069,-131.5 1069,-112.5 983,-112.5"/>
<text text-anchor="middle" x="1026" y="-119.5" font-family="Helvetica,sans-Serif" font-size="10.00">fsexception.hpp</text>
</a>
</g>
</g>
<!-- Node9&#45;&gt;Node20 -->
<g id="edge31" class="edge"><title>Node9&#45;&gt;Node20</title>
<path fill="none" stroke="midnightblue" d="M1177.02,-173.975C1143.43,-163.725 1090.41,-146.459 1056.87,-134.899"/>
<polygon fill="midnightblue" stroke="midnightblue" points="1057.73,-131.491 1047.13,-131.509 1055.42,-138.102 1057.73,-131.491"/>
</g>
<!-- Node21 -->
<g id="node22" class="node"><title>Node21</title>
<g id="a_node22"><a xlink:href="../../d1/d8e/gpioexception_8hpp.html" target="_top" xlink:title="Exception class for Gpio related errors. ">
<polygon fill="white" stroke="black" points="1279.5,-112.5 1279.5,-131.5 1374.5,-131.5 1374.5,-112.5 1279.5,-112.5"/>
<text text-anchor="middle" x="1327" y="-119.5" font-family="Helvetica,sans-Serif" font-size="10.00">gpioexception.hpp</text>
</a>
</g>
</g>
<!-- Node9&#45;&gt;Node21 -->
<g id="edge34" class="edge"><title>Node9&#45;&gt;Node21</title>
<path fill="none" stroke="midnightblue" d="M1220.15,-173.975C1237.94,-163.99 1270.97,-147.348 1295.72,-135.807"/>
<polygon fill="midnightblue" stroke="midnightblue" points="1297.46,-138.862 1305.08,-131.509 1294.54,-132.5 1297.46,-138.862"/>
</g>
<!-- Node22 -->
<g id="node23" class="node"><title>Node22</title>
<g id="a_node23"><a xlink:href="../../d7/d8c/moduleexception_8hpp.html" target="_top" xlink:title="Exception class for modules. ">
<polygon fill="white" stroke="black" points="1392.5,-112.5 1392.5,-131.5 1501.5,-131.5 1501.5,-112.5 1392.5,-112.5"/>
<text text-anchor="middle" x="1447" y="-119.5" font-family="Helvetica,sans-Serif" font-size="10.00">moduleexception.hpp</text>
</a>
</g>
</g>
<!-- Node9&#45;&gt;Node22 -->
<g id="edge37" class="edge"><title>Node9&#45;&gt;Node22</title>
<path fill="none" stroke="midnightblue" d="M1237.34,-173.975C1277.46,-163.415 1349.62,-145.411 1397.99,-133.869"/>
<polygon fill="midnightblue" stroke="midnightblue" points="1399,-137.225 1407.92,-131.509 1397.39,-130.414 1399,-137.225"/>
</g>
<!-- Node23 -->
<g id="node24" class="node"><title>Node23</title>
<g id="a_node24"><a xlink:href="../../df/d8d/scriptexception_8hpp.html" target="_top" xlink:title="Exception class for Script related errors. ">
<polygon fill="white" stroke="black" points="1596.5,-112.5 1596.5,-131.5 1697.5,-131.5 1697.5,-112.5 1596.5,-112.5"/>
<text text-anchor="middle" x="1647" y="-119.5" font-family="Helvetica,sans-Serif" font-size="10.00">scriptexception.hpp</text>
</a>
</g>
</g>
<!-- Node9&#45;&gt;Node23 -->
<g id="edge40" class="edge"><title>Node9&#45;&gt;Node23</title>
<path fill="none" stroke="midnightblue" d="M1267.93,-173.981C1341.16,-164.198 1468.57,-147.497 1578,-132 1580.79,-131.605 1583.65,-131.195 1586.54,-130.777"/>
<polygon fill="midnightblue" stroke="midnightblue" points="1587.08,-134.235 1596.47,-129.334 1586.08,-127.308 1587.08,-134.235"/>
</g>
<!-- Node24 -->
<g id="node25" class="node"><title>Node24</title>
<g id="a_node25"><a xlink:href="../../dc/dce/signalexception_8hpp.html" target="_top" xlink:title="Exception class for Signal related errors. ">
<polygon fill="white" stroke="black" points="1715.5,-112.5 1715.5,-131.5 1818.5,-131.5 1818.5,-112.5 1715.5,-112.5"/>
<text text-anchor="middle" x="1767" y="-119.5" font-family="Helvetica,sans-Serif" font-size="10.00">signalexception.hpp</text>
</a>
</g>
</g>
<!-- Node9&#45;&gt;Node24 -->
<g id="edge43" class="edge"><title>Node9&#45;&gt;Node24</title>
<path fill="none" stroke="midnightblue" d="M1283.69,-175.328C1379.9,-166.428 1550.83,-150.185 1697,-132 1699.79,-131.653 1702.65,-131.283 1705.54,-130.897"/>
<polygon fill="midnightblue" stroke="midnightblue" points="1706.03,-134.363 1715.47,-129.541 1705.09,-127.427 1706.03,-134.363"/>
</g>
<!-- Node10&#45;&gt;Node4 -->
<g id="edge12" class="edge"><title>Node10&#45;&gt;Node4</title>
<path fill="none" stroke="midnightblue" d="M1154.42,-113.061C1151.23,-112.678 1148.08,-112.32 1145,-112 894.128,-85.8908 589.971,-72.2227 491.459,-68.2475"/>
<polygon fill="midnightblue" stroke="midnightblue" points="491.392,-64.7421 481.261,-67.8411 491.114,-71.7366 491.392,-64.7421"/>
</g>
<!-- Node10&#45;&gt;Node11 -->
<g id="edge11" class="edge"><title>Node10&#45;&gt;Node11</title>
<path fill="none" stroke="midnightblue" d="M1213.96,-112.368C1226.51,-94.2153 1255.81,-51.8015 1272.26,-27.9902"/>
<polygon fill="midnightblue" stroke="midnightblue" points="1275.26,-29.8083 1278.06,-19.5914 1269.5,-25.8292 1275.26,-29.8083"/>
</g>
<!-- Node14&#45;&gt;Node9 -->
<g id="edge17" class="edge"><title>Node14&#45;&gt;Node9</title>
<path fill="none" stroke="midnightblue" d="M1840.26,-131.503C1838.83,-131.675 1837.4,-131.841 1836,-132 1643.15,-153.842 1415.46,-169.936 1294.15,-177.566"/>
<polygon fill="midnightblue" stroke="midnightblue" points="1293.58,-174.094 1283.82,-178.211 1294.01,-181.081 1293.58,-174.094"/>
</g>
<!-- Node14&#45;&gt;Node11 -->
<g id="edge21" class="edge"><title>Node14&#45;&gt;Node11</title>
<path fill="none" stroke="midnightblue" d="M1844.13,-112.492C1777.71,-99.9343 1649.32,-75.7871 1540,-56 1458.67,-41.2793 1362.68,-24.5893 1314.64,-16.2822"/>
<polygon fill="midnightblue" stroke="midnightblue" points="1315.04,-12.7993 1304.59,-14.5458 1313.84,-19.6971 1315.04,-12.7993"/>
</g>
<!-- Node15 -->
<g id="node16" class="node"><title>Node15</title>
<g id="a_node16"><a xlink:href="../../dd/d35/Colorize_8hpp.html" target="_top" xlink:title="tools/Colorize.hpp">
<polygon fill="white" stroke="black" points="2168.5,-56.5 2168.5,-75.5 2263.5,-75.5 2263.5,-56.5 2168.5,-56.5"/>
<text text-anchor="middle" x="2216" y="-63.5" font-family="Helvetica,sans-Serif" font-size="10.00">tools/Colorize.hpp</text>
</a>
</g>
</g>
<!-- Node14&#45;&gt;Node15 -->
<g id="edge18" class="edge"><title>Node14&#45;&gt;Node15</title>
<path fill="none" stroke="midnightblue" d="M1940.81,-112.444C2000.09,-102.654 2096.9,-86.6684 2158.47,-76.5003"/>
<polygon fill="midnightblue" stroke="midnightblue" points="2159.12,-79.9409 2168.41,-74.8583 2157.98,-73.0344 2159.12,-79.9409"/>
</g>
<!-- Node15&#45;&gt;Node11 -->
<g id="edge20" class="edge"><title>Node15&#45;&gt;Node11</title>
<path fill="none" stroke="midnightblue" d="M2168.33,-57.626C2163.49,-57.0148 2158.65,-56.4572 2154,-56 1826.61,-23.8404 1427.51,-13.844 1314.89,-11.565"/>
<polygon fill="midnightblue" stroke="midnightblue" points="1314.67,-8.0601 1304.6,-11.3624 1314.53,-15.0587 1314.67,-8.0601"/>
</g>
<!-- Node16 -->
<g id="node17" class="node"><title>Node16</title>
<polygon fill="white" stroke="#bfbfbf" points="2259,-0.5 2259,-19.5 2311,-19.5 2311,-0.5 2259,-0.5"/>
<text text-anchor="middle" x="2285" y="-7.5" font-family="Helvetica,sans-Serif" font-size="10.00">sstream</text>
</g>
<!-- Node15&#45;&gt;Node16 -->
<g id="edge19" class="edge"><title>Node15&#45;&gt;Node16</title>
<path fill="none" stroke="midnightblue" d="M2227.09,-56.324C2237.49,-48.1849 2253.26,-35.8395 2265.72,-26.0874"/>
<polygon fill="midnightblue" stroke="midnightblue" points="2267.99,-28.7533 2273.71,-19.8339 2263.68,-23.2407 2267.99,-28.7533"/>
</g>
<!-- Node17&#45;&gt;Node9 -->
<g id="edge24" class="edge"><title>Node17&#45;&gt;Node9</title>
<path fill="none" stroke="midnightblue" d="M719.105,-129.464C725.162,-130.366 731.239,-131.243 737,-132 871.465,-149.677 1027.77,-165.188 1122.27,-174.206"/>
<polygon fill="midnightblue" stroke="midnightblue" points="1122.07,-177.702 1132.36,-175.165 1122.73,-170.733 1122.07,-177.702"/>
</g>
<!-- Node17&#45;&gt;Node11 -->
<g id="edge23" class="edge"><title>Node17&#45;&gt;Node11</title>
<path fill="none" stroke="midnightblue" d="M707.224,-112.404C763.901,-99.1426 877.095,-73.4072 974,-56 1075.83,-37.7083 1197.51,-21.7521 1253.3,-14.7616"/>
<polygon fill="midnightblue" stroke="midnightblue" points="1253.75,-18.2324 1263.24,-13.5235 1252.89,-11.286 1253.75,-18.2324"/>
</g>
<!-- Node18&#45;&gt;Node9 -->
<g id="edge27" class="edge"><title>Node18&#45;&gt;Node9</title>
<path fill="none" stroke="midnightblue" d="M843.284,-129.458C849.293,-130.316 855.294,-131.181 861,-132 959.943,-146.199 1074.39,-162.393 1144.03,-172.531"/>
<polygon fill="midnightblue" stroke="midnightblue" points="1143.58,-176.001 1153.98,-173.982 1144.59,-169.074 1143.58,-176.001"/>
</g>
<!-- Node18&#45;&gt;Node11 -->
<g id="edge26" class="edge"><title>Node18&#45;&gt;Node11</title>
<path fill="none" stroke="midnightblue" d="M823.45,-112.465C874.223,-99.6124 973.847,-74.7955 1059,-56 1128.36,-40.6909 1210.25,-24.878 1253.57,-16.6892"/>
<polygon fill="midnightblue" stroke="midnightblue" points="1254.29,-20.115 1263.47,-14.8237 1252.99,-13.236 1254.29,-20.115"/>
</g>
<!-- Node19&#45;&gt;Node9 -->
<g id="edge30" class="edge"><title>Node19&#45;&gt;Node9</title>
<path fill="none" stroke="midnightblue" d="M960.085,-131.509C1015.17,-142.15 1105.62,-160.367 1160.77,-171.902"/>
<polygon fill="midnightblue" stroke="midnightblue" points="1160.13,-175.345 1170.63,-173.975 1161.57,-168.494 1160.13,-175.345"/>
</g>
<!-- Node19&#45;&gt;Node11 -->
<g id="edge29" class="edge"><title>Node19&#45;&gt;Node11</title>
<path fill="none" stroke="midnightblue" d="M940.797,-112.473C981.739,-99.941 1060.68,-75.8837 1128,-56 1171.47,-43.1585 1221.89,-28.6923 1253.37,-19.7105"/>
<polygon fill="midnightblue" stroke="midnightblue" points="1254.63,-22.9923 1263.28,-16.885 1252.71,-16.2604 1254.63,-22.9923"/>
</g>
<!-- Node20&#45;&gt;Node9 -->
<g id="edge33" class="edge"><title>Node20&#45;&gt;Node9</title>
<path fill="none" stroke="midnightblue" d="M1056.92,-131.509C1090.5,-141.752 1143.52,-159.017 1177.08,-170.583"/>
<polygon fill="midnightblue" stroke="midnightblue" points="1176.23,-173.994 1186.82,-173.975 1178.53,-167.383 1176.23,-173.994"/>
</g>
<!-- Node20&#45;&gt;Node11 -->
<g id="edge32" class="edge"><title>Node20&#45;&gt;Node11</title>
<path fill="none" stroke="midnightblue" d="M1046.24,-112.368C1091.55,-93.0507 1201.3,-46.2592 1254.33,-23.6481"/>
<polygon fill="midnightblue" stroke="midnightblue" points="1256.02,-26.733 1263.85,-19.5914 1253.28,-20.2939 1256.02,-26.733"/>
</g>
<!-- Node21&#45;&gt;Node9 -->
<g id="edge35" class="edge"><title>Node21&#45;&gt;Node9</title>
<path fill="none" stroke="midnightblue" d="M1314.88,-131.509C1297.1,-141.487 1264.08,-158.129 1239.32,-169.674"/>
<polygon fill="midnightblue" stroke="midnightblue" points="1237.58,-166.622 1229.95,-173.975 1240.5,-172.983 1237.58,-166.622"/>
</g>
<!-- Node21&#45;&gt;Node11 -->
<g id="edge36" class="edge"><title>Node21&#45;&gt;Node11</title>
<path fill="none" stroke="midnightblue" d="M1323.63,-112.368C1316.62,-94.4563 1300.39,-52.9233 1291.02,-28.9482"/>
<polygon fill="midnightblue" stroke="midnightblue" points="1294.26,-27.6308 1287.36,-19.5914 1287.74,-30.1794 1294.26,-27.6308"/>
</g>
<!-- Node22&#45;&gt;Node9 -->
<g id="edge39" class="edge"><title>Node22&#45;&gt;Node9</title>
<path fill="none" stroke="midnightblue" d="M1417.72,-131.509C1377.64,-142.061 1305.47,-160.065 1257.09,-171.614"/>
<polygon fill="midnightblue" stroke="midnightblue" points="1256.06,-168.259 1247.14,-173.975 1257.68,-175.07 1256.06,-168.259"/>
</g>
<!-- Node22&#45;&gt;Node11 -->
<g id="edge38" class="edge"><title>Node22&#45;&gt;Node11</title>
<path fill="none" stroke="midnightblue" d="M1434.21,-112.368C1406.24,-93.4924 1339.4,-48.385 1305.1,-25.2367"/>
<polygon fill="midnightblue" stroke="midnightblue" points="1306.98,-22.2841 1296.73,-19.5914 1303.06,-28.0865 1306.98,-22.2841"/>
</g>
<!-- Node23&#45;&gt;Node9 -->
<g id="edge42" class="edge"><title>Node23&#45;&gt;Node9</title>
<path fill="none" stroke="midnightblue" d="M1599.47,-131.505C1598.31,-131.672 1597.15,-131.838 1596,-132 1491.27,-146.831 1370.08,-162.765 1291.32,-172.682"/>
<polygon fill="midnightblue" stroke="midnightblue" points="1290.47,-169.262 1280.98,-173.981 1291.34,-176.208 1290.47,-169.262"/>
</g>
<!-- Node23&#45;&gt;Node11 -->
<g id="edge41" class="edge"><title>Node23&#45;&gt;Node11</title>
<path fill="none" stroke="midnightblue" d="M1618.82,-112.46C1551.95,-92.1982 1384.15,-41.347 1314.76,-20.3222"/>
<polygon fill="midnightblue" stroke="midnightblue" points="1315.47,-16.8788 1304.88,-17.3283 1313.44,-23.578 1315.47,-16.8788"/>
</g>
<!-- Node24&#45;&gt;Node9 -->
<g id="edge45" class="edge"><title>Node24&#45;&gt;Node9</title>
<path fill="none" stroke="midnightblue" d="M1718.86,-131.51C1717.56,-131.678 1716.27,-131.841 1715,-132 1567.64,-150.333 1395.11,-166.692 1294,-175.544"/>
<polygon fill="midnightblue" stroke="midnightblue" points="1293.5,-172.075 1283.84,-176.429 1294.11,-179.048 1293.5,-172.075"/>
</g>
<!-- Node24&#45;&gt;Node11 -->
<g id="edge44" class="edge"><title>Node24&#45;&gt;Node11</title>
<path fill="none" stroke="midnightblue" d="M1729.5,-112.46C1636.95,-91.3811 1399.02,-37.1956 1314.42,-17.9279"/>
<polygon fill="midnightblue" stroke="midnightblue" points="1315.18,-14.5122 1304.66,-15.7041 1313.63,-21.3374 1315.18,-14.5122"/>
</g>
<!-- Node25&#45;&gt;Node11 -->
<g id="edge52" class="edge"><title>Node25&#45;&gt;Node11</title>
<path fill="none" stroke="midnightblue" d="M2097.66,-173.801C2111.76,-160.022 2134.89,-132.625 2121,-112 2084.03,-57.0971 2047.52,-70.7606 1983,-56 1852.96,-26.2514 1432.4,-14.4411 1314.8,-11.6722"/>
<polygon fill="midnightblue" stroke="midnightblue" points="1314.77,-8.17063 1304.69,-11.439 1314.61,-15.1688 1314.77,-8.17063"/>
</g>
<!-- Node25&#45;&gt;Node16 -->
<g id="edge51" class="edge"><title>Node25&#45;&gt;Node16</title>
<path fill="none" stroke="midnightblue" d="M2124.03,-180.551C2186.03,-176.363 2308.78,-164.128 2335,-132 2361.34,-99.7266 2324.34,-51.6436 2301.19,-26.931"/>
<polygon fill="midnightblue" stroke="midnightblue" points="2303.46,-24.2422 2293.98,-19.5028 2298.43,-29.1169 2303.46,-24.2422"/>
</g>
<!-- Node26 -->
<g id="node27" class="node"><title>Node26</title>
<polygon fill="white" stroke="#bfbfbf" points="1997.5,-112.5 1997.5,-131.5 2046.5,-131.5 2046.5,-112.5 1997.5,-112.5"/>
<text text-anchor="middle" x="2022" y="-119.5" font-family="Helvetica,sans-Serif" font-size="10.00">cassert</text>
</g>
<!-- Node25&#45;&gt;Node26 -->
<g id="edge47" class="edge"><title>Node25&#45;&gt;Node26</title>
<path fill="none" stroke="midnightblue" d="M2078.54,-173.975C2068.25,-164.697 2051.58,-149.671 2039.01,-138.331"/>
<polygon fill="midnightblue" stroke="midnightblue" points="2041.21,-135.605 2031.44,-131.509 2036.52,-140.805 2041.21,-135.605"/>
</g>
<!-- Node27 -->
<g id="node28" class="node"><title>Node27</title>
<polygon fill="white" stroke="#bfbfbf" points="2064.5,-112.5 2064.5,-131.5 2111.5,-131.5 2111.5,-112.5 2064.5,-112.5"/>
<text text-anchor="middle" x="2088" y="-119.5" font-family="Helvetica,sans-Serif" font-size="10.00">csignal</text>
</g>
<!-- Node25&#45;&gt;Node27 -->
<g id="edge48" class="edge"><title>Node25&#45;&gt;Node27</title>
<path fill="none" stroke="midnightblue" d="M2088,-173.975C2088,-165.58 2088,-152.481 2088,-141.663"/>
<polygon fill="midnightblue" stroke="midnightblue" points="2091.5,-141.509 2088,-131.509 2084.5,-141.509 2091.5,-141.509"/>
</g>
<!-- Node28 -->
<g id="node29" class="node"><title>Node28</title>
<polygon fill="white" stroke="#bfbfbf" points="2168,-112.5 2168,-131.5 2222,-131.5 2222,-112.5 2168,-112.5"/>
<text text-anchor="middle" x="2195" y="-119.5" font-family="Helvetica,sans-Serif" font-size="10.00">iostream</text>
</g>
<!-- Node25&#45;&gt;Node28 -->
<g id="edge49" class="edge"><title>Node25&#45;&gt;Node28</title>
<path fill="none" stroke="midnightblue" d="M2103.33,-173.975C2120.97,-164.166 2150.16,-147.935 2170.86,-136.425"/>
<polygon fill="midnightblue" stroke="midnightblue" points="2172.66,-139.428 2179.7,-131.509 2169.26,-133.31 2172.66,-139.428"/>
</g>
<!-- Node29 -->
<g id="node30" class="node"><title>Node29</title>
<polygon fill="white" stroke="#bfbfbf" points="2240.5,-112.5 2240.5,-131.5 2325.5,-131.5 2325.5,-112.5 2240.5,-112.5"/>
<text text-anchor="middle" x="2283" y="-119.5" font-family="Helvetica,sans-Serif" font-size="10.00">spdlog/spdlog.h</text>
</g>
<!-- Node25&#45;&gt;Node29 -->
<g id="edge50" class="edge"><title>Node25&#45;&gt;Node29</title>
<path fill="none" stroke="midnightblue" d="M2115.94,-173.975C2149.97,-163.592 2207.58,-146.012 2245.46,-134.454"/>
<polygon fill="midnightblue" stroke="midnightblue" points="2246.57,-137.775 2255.11,-131.509 2244.53,-131.08 2246.57,-137.775"/>
</g>
<!-- Node32&#45;&gt;Node11 -->
<g id="edge61" class="edge"><title>Node32&#45;&gt;Node11</title>
<path fill="none" stroke="midnightblue" d="M536.374,-240.868C535.624,-225.374 535.749,-192.204 548,-168 581.092,-102.618 601.501,-84.5257 669,-56 776.125,-10.7284 1144.39,-9.88758 1253.38,-10.6696"/>
<polygon fill="midnightblue" stroke="midnightblue" points="1253.36,-14.1694 1263.39,-10.7515 1253.41,-7.16965 1253.36,-14.1694"/>
</g>
<!-- Node33 -->
<g id="node34" class="node"><title>Node33</title>
<polygon fill="white" stroke="#bfbfbf" points="455,-174 455,-193 501,-193 501,-174 455,-174"/>
<text text-anchor="middle" x="478" y="-181" font-family="Helvetica,sans-Serif" font-size="10.00">cstdint</text>
</g>
<!-- Node32&#45;&gt;Node33 -->
<g id="edge60" class="edge"><title>Node32&#45;&gt;Node33</title>
<path fill="none" stroke="midnightblue" d="M529.043,-240.734C519.754,-230.5 504.2,-213.364 492.698,-200.692"/>
<polygon fill="midnightblue" stroke="midnightblue" points="495.144,-198.179 485.831,-193.127 489.96,-202.884 495.144,-198.179"/>
</g>
<!-- Node34&#45;&gt;Node2 -->
<g id="edge74" class="edge"><title>Node34&#45;&gt;Node2</title>
<path fill="none" stroke="midnightblue" d="M329,-307.734C329,-298.183 329,-282.618 329,-270.283"/>
<polygon fill="midnightblue" stroke="midnightblue" points="332.5,-270.127 329,-260.127 325.5,-270.127 332.5,-270.127"/>
</g>
<!-- Node35 -->
<g id="node36" class="node"><title>Node35</title>
<g id="a_node36"><a xlink:href="../../d6/da2/CoreAPI_8hpp.html" target="_top" xlink:title="CoreAPI.hpp">
<polygon fill="white" stroke="black" points="390.5,-241 390.5,-260 463.5,-260 463.5,-241 390.5,-241"/>
<text text-anchor="middle" x="427" y="-248" font-family="Helvetica,sans-Serif" font-size="10.00">CoreAPI.hpp</text>
</a>
</g>
</g>
<!-- Node34&#45;&gt;Node35 -->
<g id="edge66" class="edge"><title>Node34&#45;&gt;Node35</title>
<path fill="none" stroke="midnightblue" d="M342.217,-307.734C358.454,-296.964 386.217,-278.55 405.531,-265.739"/>
<polygon fill="midnightblue" stroke="midnightblue" points="407.594,-268.571 413.993,-260.127 403.725,-262.738 407.594,-268.571"/>
</g>
<!-- Node38 -->
<g id="node39" class="node"><title>Node38</title>
<g id="a_node39"><a xlink:href="../../d9/d69/db__fwd_8hpp.html" target="_top" xlink:title="tools/db/db_fwd.hpp">
<polygon fill="white" stroke="black" points="164,-241 164,-260 268,-260 268,-241 164,-241"/>
<text text-anchor="middle" x="216" y="-248" font-family="Helvetica,sans-Serif" font-size="10.00">tools/db/db_fwd.hpp</text>
</a>
</g>
</g>
<!-- Node34&#45;&gt;Node38 -->
<g id="edge75" class="edge"><title>Node34&#45;&gt;Node38</title>
<path fill="none" stroke="midnightblue" d="M313.76,-307.734C294.784,-296.818 262.154,-278.049 239.853,-265.221"/>
<polygon fill="midnightblue" stroke="midnightblue" points="241.412,-262.08 230.998,-260.127 237.921,-268.147 241.412,-262.08"/>
</g>
<!-- Node39 -->
<g id="node40" class="node"><title>Node39</title>
<g id="a_node40"><a xlink:href="../../da/df8/ServiceFwd_8hpp.html" target="_top" xlink:title="tools/service/ServiceFwd.hpp">
<polygon fill="white" stroke="black" points="0,-241 0,-260 146,-260 146,-241 0,-241"/>
<text text-anchor="middle" x="73" y="-248" font-family="Helvetica,sans-Serif" font-size="10.00">tools/service/ServiceFwd.hpp</text>
</a>
</g>
</g>
<!-- Node34&#45;&gt;Node39 -->
<g id="edge77" class="edge"><title>Node34&#45;&gt;Node39</title>
<path fill="none" stroke="midnightblue" d="M295.269,-307.936C249.415,-296.293 167.342,-275.454 116.784,-262.617"/>
<polygon fill="midnightblue" stroke="midnightblue" points="117.359,-259.152 106.805,-260.083 115.637,-265.937 117.359,-259.152"/>
</g>
<!-- Node35&#45;&gt;Node4 -->
<g id="edge73" class="edge"><title>Node35&#45;&gt;Node4</title>
<path fill="none" stroke="midnightblue" d="M428.543,-240.698C433.475,-212.573 448.925,-124.458 455.729,-85.6575"/>
<polygon fill="midnightblue" stroke="midnightblue" points="459.192,-86.1683 457.472,-75.714 452.297,-84.9593 459.192,-86.1683"/>
</g>
<!-- Node35&#45;&gt;Node11 -->
<g id="edge72" class="edge"><title>Node35&#45;&gt;Node11</title>
<path fill="none" stroke="midnightblue" d="M423.398,-240.65C411.638,-210.165 377.919,-108.51 428,-56 457.027,-25.565 1102.46,-13.789 1252.87,-11.4529"/>
<polygon fill="midnightblue" stroke="midnightblue" points="1253.27,-14.9473 1263.21,-11.2951 1253.16,-7.9481 1253.27,-14.9473"/>
</g>
<!-- Node35&#45;&gt;Node30 -->
<g id="edge70" class="edge"><title>Node35&#45;&gt;Node30</title>
<path fill="none" stroke="midnightblue" d="M451.035,-240.869C478.548,-230.988 524.325,-214.549 559.363,-201.966"/>
<polygon fill="midnightblue" stroke="midnightblue" points="560.709,-205.202 568.937,-198.528 558.343,-198.614 560.709,-205.202"/>
</g>
<!-- Node35&#45;&gt;Node33 -->
<g id="edge71" class="edge"><title>Node35&#45;&gt;Node33</title>
<path fill="none" stroke="midnightblue" d="M433.878,-240.734C441.831,-230.598 455.097,-213.69 465.01,-201.056"/>
<polygon fill="midnightblue" stroke="midnightblue" points="467.812,-203.155 471.231,-193.127 462.304,-198.834 467.812,-203.155"/>
</g>
<!-- Node36 -->
<g id="node37" class="node"><title>Node36</title>
<g id="a_node37"><a xlink:href="../../d8/d97/ToolsFwd_8hpp.html" target="_top" xlink:title="tools/ToolsFwd.hpp">
<polygon fill="white" stroke="black" points="221,-174 221,-193 323,-193 323,-174 221,-174"/>
<text text-anchor="middle" x="272" y="-181" font-family="Helvetica,sans-Serif" font-size="10.00">tools/ToolsFwd.hpp</text>
</a>
</g>
</g>
<!-- Node35&#45;&gt;Node36 -->
<g id="edge67" class="edge"><title>Node35&#45;&gt;Node36</title>
<path fill="none" stroke="midnightblue" d="M406.417,-240.869C379.666,-229.65 332.752,-209.977 302.028,-197.092"/>
<polygon fill="midnightblue" stroke="midnightblue" points="303.243,-193.807 292.668,-193.167 300.536,-200.262 303.243,-193.807"/>
</g>
<!-- Node36&#45;&gt;Node3 -->
<g id="edge68" class="edge"><title>Node36&#45;&gt;Node3</title>
<path fill="none" stroke="midnightblue" d="M260.108,-173.975C246.795,-164.431 225,-148.807 209.043,-137.368"/>
<polygon fill="midnightblue" stroke="midnightblue" points="211.036,-134.491 200.87,-131.509 206.958,-140.18 211.036,-134.491"/>
</g>
<!-- Node37 -->
<g id="node38" class="node"><title>Node37</title>
<polygon fill="white" stroke="#bfbfbf" points="233,-112.5 233,-131.5 319,-131.5 319,-112.5 233,-112.5"/>
<text text-anchor="middle" x="276" y="-119.5" font-family="Helvetica,sans-Serif" font-size="10.00">odb/lazy&#45;ptr.hxx</text>
</g>
<!-- Node36&#45;&gt;Node37 -->
<g id="edge69" class="edge"><title>Node36&#45;&gt;Node37</title>
<path fill="none" stroke="midnightblue" d="M272.573,-173.975C273.137,-165.58 274.018,-152.481 274.745,-141.663"/>
<polygon fill="midnightblue" stroke="midnightblue" points="278.249,-141.721 275.428,-131.509 271.265,-141.252 278.249,-141.721"/>
</g>
<!-- Node38&#45;&gt;Node3 -->
<g id="edge76" class="edge"><title>Node38&#45;&gt;Node3</title>
<path fill="none" stroke="midnightblue" d="M206.912,-240.843C197.837,-231.512 184.474,-215.735 179,-199 172.747,-179.885 177.361,-156.853 182.192,-141.19"/>
<polygon fill="midnightblue" stroke="midnightblue" points="185.526,-142.257 185.44,-131.663 178.9,-139.998 185.526,-142.257"/>
</g>
<!-- Node39&#45;&gt;Node3 -->
<g id="edge78" class="edge"><title>Node39&#45;&gt;Node3</title>
<path fill="none" stroke="midnightblue" d="M80.9731,-240.805C100.178,-219.862 149.245,-166.354 174.096,-139.253"/>
<polygon fill="midnightblue" stroke="midnightblue" points="176.792,-141.492 180.971,-131.756 171.633,-136.761 176.792,-141.492"/>
</g>
<!-- Node41 -->
<g id="node42" class="node"><title>Node41</title>
<polygon fill="white" stroke="#bfbfbf" points="1118.5,-235.5 1118.5,-265.5 1219.5,-265.5 1219.5,-235.5 1118.5,-235.5"/>
<text text-anchor="start" x="1126.5" y="-253.5" font-family="Helvetica,sans-Serif" font-size="10.00">boost/property_tree</text>
<text text-anchor="middle" x="1169" y="-242.5" font-family="Helvetica,sans-Serif" font-size="10.00">/ptree_fwd.hpp</text>
</g>
<!-- Node40&#45;&gt;Node41 -->
<g id="edge81" class="edge"><title>Node40&#45;&gt;Node41</title>
<path fill="none" stroke="midnightblue" d="M1169,-307.734C1169,-299.541 1169,-286.923 1169,-275.714"/>
<polygon fill="midnightblue" stroke="midnightblue" points="1172.5,-275.589 1169,-265.589 1165.5,-275.589 1172.5,-275.589"/>
</g>
</g>
</svg>
