<?xml version="1.0" encoding="UTF-8" standalone="no"?>
<!DOCTYPE svg PUBLIC "-//W3C//DTD SVG 1.1//EN"
 "http://www.w3.org/Graphics/SVG/1.1/DTD/svg11.dtd">
<!-- Generated by graphviz version 2.38.0 (20140413.2041)
 -->
<!-- Title: Leosac::Audit::DoorEvent Pages: 1 -->
<svg width="286pt" height="207pt"
 viewBox="0.00 0.00 286.00 207.00" xmlns="http://www.w3.org/2000/svg" xmlns:xlink="http://www.w3.org/1999/xlink">
<g id="graph0" class="graph" transform="scale(1 1) rotate(0) translate(4 203)">
<title>Leosac::Audit::DoorEvent</title>
<polygon fill="white" stroke="none" points="-4,4 -4,-203 282,-203 282,4 -4,4"/>
<!-- Node0 -->
<g id="node1" class="node"><title>Node0</title>
<polygon fill="#bfbfbf" stroke="black" points="73.5,-0.5 73.5,-19.5 202.5,-19.5 202.5,-0.5 73.5,-0.5"/>
<text text-anchor="middle" x="138" y="-7.5" font-family="Helvetica,sans-Serif" font-size="10.00">Leosac::Audit::DoorEvent</text>
</g>
<!-- Node1 -->
<g id="node2" class="node"><title>Node1</title>
<g id="a_node2"><a xlink:href="../../db/dcb/classLeosac_1_1Audit_1_1IDoorEvent.html" target="_top" xlink:title="Interface that describes an Audit object for door related event. ">
<polygon fill="white" stroke="black" points="146,-56.5 146,-75.5 278,-75.5 278,-56.5 146,-56.5"/>
<text text-anchor="middle" x="212" y="-63.5" font-family="Helvetica,sans-Serif" font-size="10.00">Leosac::Audit::IDoorEvent</text>
</a>
</g>
</g>
<!-- Node1&#45;&gt;Node0 -->
<g id="edge1" class="edge"><title>Node1&#45;&gt;Node0</title>
<path fill="none" stroke="midnightblue" d="M191.966,-50.3804C178.591,-40.6204 161.441,-28.1057 150.106,-19.8339"/>
<polygon fill="midnightblue" stroke="midnightblue" points="189.97,-53.2565 200.111,-56.324 194.096,-47.602 189.97,-53.2565"/>
</g>
<!-- Node2 -->
<g id="node3" class="node"><title>Node2</title>
<g id="a_node3"><a xlink:href="../../d1/d44/classLeosac_1_1Audit_1_1IAuditEntry.html" target="_top" xlink:title="Base interface to Audit object. ">
<polygon fill="white" stroke="black" points="145.5,-118 145.5,-137 276.5,-137 276.5,-118 145.5,-118"/>
<text text-anchor="middle" x="211" y="-125" font-family="Helvetica,sans-Serif" font-size="10.00">Leosac::Audit::IAuditEntry</text>
</a>
</g>
</g>
<!-- Node2&#45;&gt;Node1 -->
<g id="edge2" class="edge"><title>Node2&#45;&gt;Node1</title>
<path fill="none" stroke="midnightblue" d="M211.314,-107.817C211.496,-96.9962 211.716,-83.898 211.857,-75.5091"/>
<polygon fill="midnightblue" stroke="midnightblue" points="207.812,-107.918 211.143,-117.975 214.811,-108.035 207.812,-107.918"/>
</g>
<!-- Node4 -->
<g id="node5" class="node"><title>Node4</title>
<g id="a_node5"><a xlink:href="../../d0/d20/classLeosac_1_1Audit_1_1AuditEntry.html" target="_top" xlink:title="Implementation of IAuditEntry, backed by ODB. ">
<polygon fill="white" stroke="black" points="0,-56.5 0,-75.5 128,-75.5 128,-56.5 0,-56.5"/>
<text text-anchor="middle" x="64" y="-63.5" font-family="Helvetica,sans-Serif" font-size="10.00">Leosac::Audit::AuditEntry</text>
</a>
</g>
</g>
<!-- Node2&#45;&gt;Node4 -->
<g id="edge5" class="edge"><title>Node2&#45;&gt;Node4</title>
<path fill="none" stroke="midnightblue" d="M180.442,-114.131C151.883,-102.572 110.002,-85.62 85.0224,-75.5091"/>
<polygon fill="midnightblue" stroke="midnightblue" points="179.356,-117.467 189.938,-117.975 181.982,-110.979 179.356,-117.467"/>
</g>
<!-- Node3 -->
<g id="node4" class="node"><title>Node3</title>
<g id="a_node4"><a xlink:href="../../d0/d33/classLeosac_1_1Tools_1_1IVisitable.html" target="_top" xlink:title="Base class to make an object visitable. ">
<polygon fill="white" stroke="black" points="148.5,-179.5 148.5,-198.5 273.5,-198.5 273.5,-179.5 148.5,-179.5"/>
<text text-anchor="middle" x="211" y="-186.5" font-family="Helvetica,sans-Serif" font-size="10.00">Leosac::Tools::IVisitable</text>
</a>
</g>
</g>
<!-- Node3&#45;&gt;Node2 -->
<g id="edge3" class="edge"><title>Node3&#45;&gt;Node2</title>
<path fill="none" stroke="midnightblue" d="M211,-169.317C211,-158.496 211,-145.398 211,-137.009"/>
<polygon fill="midnightblue" stroke="midnightblue" points="207.5,-169.475 211,-179.475 214.5,-169.475 207.5,-169.475"/>
</g>
<!-- Node4&#45;&gt;Node0 -->
<g id="edge4" class="edge"><title>Node4&#45;&gt;Node0</title>
<path fill="none" stroke="midnightblue" d="M84.0343,-50.3804C97.4091,-40.6204 114.559,-28.1057 125.894,-19.8339"/>
<polygon fill="midnightblue" stroke="midnightblue" points="81.9042,-47.602 75.8894,-56.324 86.0305,-53.2565 81.9042,-47.602"/>
</g>
<!-- Node5 -->
<g id="node6" class="node"><title>Node5</title>
<polygon fill="white" stroke="#bfbfbf" points="1,-112.5 1,-142.5 127,-142.5 127,-112.5 1,-112.5"/>
<text text-anchor="start" x="9" y="-130.5" font-family="Helvetica,sans-Serif" font-size="10.00">std::enable_shared</text>
<text text-anchor="middle" x="64" y="-119.5" font-family="Helvetica,sans-Serif" font-size="10.00">_from_this&lt; AuditEntry &gt;</text>
</g>
<!-- Node5&#45;&gt;Node4 -->
<g id="edge6" class="edge"><title>Node5&#45;&gt;Node4</title>
<path fill="none" stroke="midnightblue" d="M64,-102.289C64,-92.857 64,-82.6548 64,-75.6578"/>
<polygon fill="midnightblue" stroke="midnightblue" points="60.5001,-102.399 64,-112.399 67.5001,-102.399 60.5001,-102.399"/>
</g>
</g>
</svg>
