<?xml version="1.0" encoding="UTF-8" standalone="no"?>
<!DOCTYPE svg PUBLIC "-//W3C//DTD SVG 1.1//EN"
 "http://www.w3.org/Graphics/SVG/1.1/DTD/svg11.dtd">
<!-- Generated by graphviz version 2.38.0 (20140413.2041)
 -->
<!-- Title: src/hardware/serializers/GPIOSerializer.hpp Pages: 1 -->
<svg width="769pt" height="319pt"
 viewBox="0.00 0.00 768.50 319.00" xmlns="http://www.w3.org/2000/svg" xmlns:xlink="http://www.w3.org/1999/xlink">
<g id="graph0" class="graph" transform="scale(1 1) rotate(0) translate(4 315)">
<title>src/hardware/serializers/GPIOSerializer.hpp</title>
<polygon fill="white" stroke="none" points="-4,4 -4,-315 764.5,-315 764.5,4 -4,4"/>
<!-- Node0 -->
<g id="node1" class="node"><title>Node0</title>
<polygon fill="#bfbfbf" stroke="black" points="240,-280.5 240,-310.5 360,-310.5 360,-280.5 240,-280.5"/>
<text text-anchor="start" x="248" y="-298.5" font-family="Helvetica,sans-Serif" font-size="10.00">src/hardware/serializers</text>
<text text-anchor="middle" x="300" y="-287.5" font-family="Helvetica,sans-Serif" font-size="10.00">/GPIOSerializer.hpp</text>
</g>
<!-- Node1 -->
<g id="node2" class="node"><title>Node1</title>
<g id="a_node2"><a xlink:href="../../dc/d49/LeosacFwd_8hpp.html" target="_top" xlink:title="LeosacFwd.hpp">
<polygon fill="white" stroke="black" points="49,-224.5 49,-243.5 135,-243.5 135,-224.5 49,-224.5"/>
<text text-anchor="middle" x="92" y="-231.5" font-family="Helvetica,sans-Serif" font-size="10.00">LeosacFwd.hpp</text>
</a>
</g>
</g>
<!-- Node0&#45;&gt;Node1 -->
<g id="edge1" class="edge"><title>Node0&#45;&gt;Node1</title>
<path fill="none" stroke="midnightblue" d="M250.97,-280.475C214.616,-270.075 165.686,-256.078 131.755,-246.372"/>
<polygon fill="midnightblue" stroke="midnightblue" points="132.314,-242.892 121.737,-243.506 130.388,-249.622 132.314,-242.892"/>
</g>
<!-- Node4 -->
<g id="node5" class="node"><title>Node4</title>
<g id="a_node5"><a xlink:href="../../d9/d02/GPIO_8hpp.html" target="_top" xlink:title="hardware/GPIO.hpp">
<polygon fill="white" stroke="black" points="248.5,-224.5 248.5,-243.5 351.5,-243.5 351.5,-224.5 248.5,-224.5"/>
<text text-anchor="middle" x="300" y="-231.5" font-family="Helvetica,sans-Serif" font-size="10.00">hardware/GPIO.hpp</text>
</a>
</g>
</g>
<!-- Node0&#45;&gt;Node4 -->
<g id="edge4" class="edge"><title>Node0&#45;&gt;Node4</title>
<path fill="none" stroke="midnightblue" d="M300,-280.399C300,-272.466 300,-262.458 300,-253.858"/>
<polygon fill="midnightblue" stroke="midnightblue" points="303.5,-253.658 300,-243.658 296.5,-253.658 303.5,-253.658"/>
</g>
<!-- Node16 -->
<g id="node17" class="node"><title>Node16</title>
<polygon fill="white" stroke="#bfbfbf" points="369.5,-224.5 369.5,-243.5 422.5,-243.5 422.5,-224.5 369.5,-224.5"/>
<text text-anchor="middle" x="396" y="-231.5" font-family="Helvetica,sans-Serif" font-size="10.00">json.hpp</text>
</g>
<!-- Node0&#45;&gt;Node16 -->
<g id="edge24" class="edge"><title>Node0&#45;&gt;Node16</title>
<path fill="none" stroke="midnightblue" d="M322.751,-280.399C337.995,-270.951 357.989,-258.559 373.236,-249.109"/>
<polygon fill="midnightblue" stroke="midnightblue" points="375.375,-251.901 382.031,-243.658 371.687,-245.951 375.375,-251.901"/>
</g>
<!-- Node2 -->
<g id="node3" class="node"><title>Node2</title>
<polygon fill="white" stroke="#bfbfbf" points="0,-168.5 0,-187.5 52,-187.5 52,-168.5 0,-168.5"/>
<text text-anchor="middle" x="26" y="-175.5" font-family="Helvetica,sans-Serif" font-size="10.00">memory</text>
</g>
<!-- Node1&#45;&gt;Node2 -->
<g id="edge2" class="edge"><title>Node1&#45;&gt;Node2</title>
<path fill="none" stroke="midnightblue" d="M81.396,-224.324C71.5438,-216.263 56.6491,-204.077 44.7849,-194.369"/>
<polygon fill="midnightblue" stroke="midnightblue" points="46.7529,-191.457 36.797,-187.834 42.3202,-196.875 46.7529,-191.457"/>
</g>
<!-- Node3 -->
<g id="node4" class="node"><title>Node3</title>
<polygon fill="white" stroke="#bfbfbf" points="70,-168.5 70,-187.5 114,-187.5 114,-168.5 70,-168.5"/>
<text text-anchor="middle" x="92" y="-175.5" font-family="Helvetica,sans-Serif" font-size="10.00">vector</text>
</g>
<!-- Node1&#45;&gt;Node3 -->
<g id="edge3" class="edge"><title>Node1&#45;&gt;Node3</title>
<path fill="none" stroke="midnightblue" d="M92,-224.083C92,-217.006 92,-206.861 92,-197.986"/>
<polygon fill="midnightblue" stroke="midnightblue" points="95.5001,-197.751 92,-187.751 88.5001,-197.751 95.5001,-197.751"/>
</g>
<!-- Node5 -->
<g id="node6" class="node"><title>Node5</title>
<g id="a_node6"><a xlink:href="../../da/d14/Device_8hpp.html" target="_top" xlink:title="hardware/Device.hpp">
<polygon fill="white" stroke="black" points="328.5,-168.5 328.5,-187.5 437.5,-187.5 437.5,-168.5 328.5,-168.5"/>
<text text-anchor="middle" x="383" y="-175.5" font-family="Helvetica,sans-Serif" font-size="10.00">hardware/Device.hpp</text>
</a>
</g>
</g>
<!-- Node4&#45;&gt;Node5 -->
<g id="edge5" class="edge"><title>Node4&#45;&gt;Node5</title>
<path fill="none" stroke="midnightblue" d="M313.335,-224.324C326.162,-215.979 345.785,-203.212 360.94,-193.352"/>
<polygon fill="midnightblue" stroke="midnightblue" points="363.224,-196.042 369.698,-187.655 359.407,-190.174 363.224,-196.042"/>
</g>
<!-- Node6 -->
<g id="node7" class="node"><title>Node6</title>
<g id="a_node7"><a xlink:href="../../d9/dc8/HardwareFwd_8hpp.html" target="_top" xlink:title="hardware/HardwareFwd.hpp">
<polygon fill="white" stroke="black" points="272.5,-112.5 272.5,-131.5 411.5,-131.5 411.5,-112.5 272.5,-112.5"/>
<text text-anchor="middle" x="342" y="-119.5" font-family="Helvetica,sans-Serif" font-size="10.00">hardware/HardwareFwd.hpp</text>
</a>
</g>
</g>
<!-- Node4&#45;&gt;Node6 -->
<g id="edge19" class="edge"><title>Node4&#45;&gt;Node6</title>
<path fill="none" stroke="midnightblue" d="M301.962,-224.415C304.964,-211.811 311.181,-187.665 319,-168 322.687,-158.726 327.639,-148.809 332.003,-140.651"/>
<polygon fill="midnightblue" stroke="midnightblue" points="335.155,-142.183 336.911,-131.735 329.023,-138.808 335.155,-142.183"/>
</g>
<!-- Node12 -->
<g id="node13" class="node"><title>Node12</title>
<polygon fill="white" stroke="#bfbfbf" points="687.5,-0.5 687.5,-19.5 760.5,-19.5 760.5,-0.5 687.5,-0.5"/>
<text text-anchor="middle" x="724" y="-7.5" font-family="Helvetica,sans-Serif" font-size="10.00">odb/core.hxx</text>
</g>
<!-- Node4&#45;&gt;Node12 -->
<g id="edge22" class="edge"><title>Node4&#45;&gt;Node12</title>
<path fill="none" stroke="midnightblue" d="M351.747,-225.075C415.837,-213.299 526.177,-186.45 605,-132 649.238,-101.441 690.875,-52.9654 711.14,-27.6441"/>
<polygon fill="midnightblue" stroke="midnightblue" points="713.944,-29.7407 717.386,-19.7206 708.447,-25.4071 713.944,-29.7407"/>
</g>
<!-- Node13 -->
<g id="node14" class="node"><title>Node13</title>
<polygon fill="white" stroke="#bfbfbf" points="65.5,-0.5 65.5,-19.5 106.5,-19.5 106.5,-0.5 65.5,-0.5"/>
<text text-anchor="middle" x="86" y="-7.5" font-family="Helvetica,sans-Serif" font-size="10.00">string</text>
</g>
<!-- Node4&#45;&gt;Node13 -->
<g id="edge23" class="edge"><title>Node4&#45;&gt;Node13</title>
<path fill="none" stroke="midnightblue" d="M286.719,-224.471C273.066,-215.612 251.278,-201.222 233,-188 200.153,-164.24 188.104,-162.146 161,-132 131.649,-99.3546 106.921,-53.7587 94.5315,-28.8999"/>
<polygon fill="midnightblue" stroke="midnightblue" points="97.531,-27.0657 89.9995,-19.614 91.2402,-30.136 97.531,-27.0657"/>
</g>
<!-- Node14 -->
<g id="node15" class="node"><title>Node14</title>
<polygon fill="white" stroke="#bfbfbf" points="170,-112.5 170,-131.5 216,-131.5 216,-112.5 170,-112.5"/>
<text text-anchor="middle" x="193" y="-119.5" font-family="Helvetica,sans-Serif" font-size="10.00">cstdint</text>
</g>
<!-- Node4&#45;&gt;Node14 -->
<g id="edge20" class="edge"><title>Node4&#45;&gt;Node14</title>
<path fill="none" stroke="midnightblue" d="M291.604,-224.368C273.711,-205.974 231.589,-162.671 208.614,-139.052"/>
<polygon fill="midnightblue" stroke="midnightblue" points="210.839,-136.319 201.357,-131.591 205.821,-141.2 210.839,-136.319"/>
</g>
<!-- Node15 -->
<g id="node16" class="node"><title>Node15</title>
<polygon fill="white" stroke="#bfbfbf" points="506,-112.5 506,-131.5 596,-131.5 596,-112.5 506,-112.5"/>
<text text-anchor="middle" x="551" y="-119.5" font-family="Helvetica,sans-Serif" font-size="10.00">odb/callback.hxx</text>
</g>
<!-- Node4&#45;&gt;Node15 -->
<g id="edge21" class="edge"><title>Node4&#45;&gt;Node15</title>
<path fill="none" stroke="midnightblue" d="M337.224,-224.481C367.543,-216.868 411.059,-204.389 447,-188 478.051,-173.841 510.988,-151.932 531.277,-137.528"/>
<polygon fill="midnightblue" stroke="midnightblue" points="533.336,-140.358 539.407,-131.675 529.246,-134.677 533.336,-140.358"/>
</g>
<!-- Node5&#45;&gt;Node6 -->
<g id="edge6" class="edge"><title>Node5&#45;&gt;Node6</title>
<path fill="none" stroke="midnightblue" d="M376.23,-168.083C370.438,-160.455 361.942,-149.264 354.862,-139.941"/>
<polygon fill="midnightblue" stroke="midnightblue" points="357.479,-137.599 348.644,-131.751 351.904,-141.832 357.479,-137.599"/>
</g>
<!-- Node7 -->
<g id="node8" class="node"><title>Node7</title>
<g id="a_node8"><a xlink:href="../../dc/dea/Uuid_8hpp.html" target="_top" xlink:title="tools/Uuid.hpp">
<polygon fill="white" stroke="black" points="336,-56.5 336,-75.5 416,-75.5 416,-56.5 336,-56.5"/>
<text text-anchor="middle" x="376" y="-63.5" font-family="Helvetica,sans-Serif" font-size="10.00">tools/Uuid.hpp</text>
</a>
</g>
</g>
<!-- Node5&#45;&gt;Node7 -->
<g id="edge14" class="edge"><title>Node5&#45;&gt;Node7</title>
<path fill="none" stroke="midnightblue" d="M394.393,-168.151C408.542,-156.007 429.804,-133.255 421,-112 416.08,-100.121 406.333,-89.7428 397.166,-81.9557"/>
<polygon fill="midnightblue" stroke="midnightblue" points="399.083,-79.0101 389.064,-75.5641 394.747,-84.5058 399.083,-79.0101"/>
</g>
<!-- Node5&#45;&gt;Node12 -->
<g id="edge17" class="edge"><title>Node5&#45;&gt;Node12</title>
<path fill="none" stroke="midnightblue" d="M397.146,-168.326C418.453,-155.402 460.205,-130.617 497,-112 566.059,-77.0576 649.827,-41.4803 693.759,-23.3238"/>
<polygon fill="midnightblue" stroke="midnightblue" points="695.105,-26.5547 703.02,-19.511 692.44,-20.0818 695.105,-26.5547"/>
</g>
<!-- Node5&#45;&gt;Node13 -->
<g id="edge18" class="edge"><title>Node5&#45;&gt;Node13</title>
<path fill="none" stroke="midnightblue" d="M353.973,-168.452C329.091,-160.583 292.673,-147.758 263,-132 211.483,-104.642 204.324,-88.669 156,-56 140.343,-45.4154 122.41,-33.8981 108.614,-25.1651"/>
<polygon fill="midnightblue" stroke="midnightblue" points="110.129,-21.9827 99.8037,-19.6096 106.396,-27.9039 110.129,-21.9827"/>
</g>
<!-- Node5&#45;&gt;Node14 -->
<g id="edge15" class="edge"><title>Node5&#45;&gt;Node14</title>
<path fill="none" stroke="midnightblue" d="M352.894,-168.444C318.323,-158.618 261.789,-142.551 226.033,-132.388"/>
<polygon fill="midnightblue" stroke="midnightblue" points="226.668,-128.93 216.092,-129.563 224.754,-135.664 226.668,-128.93"/>
</g>
<!-- Node5&#45;&gt;Node15 -->
<g id="edge16" class="edge"><title>Node5&#45;&gt;Node15</title>
<path fill="none" stroke="midnightblue" d="M409.62,-168.444C438.006,-159.32 483.137,-144.813 514.753,-134.651"/>
<polygon fill="midnightblue" stroke="midnightblue" points="516.055,-137.909 524.504,-131.516 513.913,-131.244 516.055,-137.909"/>
</g>
<!-- Node6&#45;&gt;Node7 -->
<g id="edge7" class="edge"><title>Node6&#45;&gt;Node7</title>
<path fill="none" stroke="midnightblue" d="M347.614,-112.083C352.367,-104.534 359.318,-93.4948 365.152,-84.2298"/>
<polygon fill="midnightblue" stroke="midnightblue" points="368.124,-86.0783 370.49,-75.7511 362.2,-82.3486 368.124,-86.0783"/>
</g>
<!-- Node8 -->
<g id="node9" class="node"><title>Node8</title>
<polygon fill="white" stroke="#bfbfbf" points="555,-0.5 555,-19.5 669,-19.5 669,-0.5 555,-0.5"/>
<text text-anchor="middle" x="612" y="-7.5" font-family="Helvetica,sans-Serif" font-size="10.00">boost/lexical_cast.hpp</text>
</g>
<!-- Node7&#45;&gt;Node8 -->
<g id="edge8" class="edge"><title>Node7&#45;&gt;Node8</title>
<path fill="none" stroke="midnightblue" d="M413.395,-56.4435C454.392,-47.0629 520.254,-31.9926 564.784,-21.8036"/>
<polygon fill="midnightblue" stroke="midnightblue" points="565.813,-25.1588 574.78,-19.5164 564.251,-18.3352 565.813,-25.1588"/>
</g>
<!-- Node9 -->
<g id="node10" class="node"><title>Node9</title>
<polygon fill="white" stroke="#bfbfbf" points="124.5,-0.5 124.5,-19.5 285.5,-19.5 285.5,-0.5 124.5,-0.5"/>
<text text-anchor="middle" x="205" y="-7.5" font-family="Helvetica,sans-Serif" font-size="10.00">boost/uuid/random_generator.hpp</text>
</g>
<!-- Node7&#45;&gt;Node9 -->
<g id="edge9" class="edge"><title>Node7&#45;&gt;Node9</title>
<path fill="none" stroke="midnightblue" d="M348.905,-56.4435C320.012,-47.3196 274.075,-32.8133 241.895,-22.6509"/>
<polygon fill="midnightblue" stroke="midnightblue" points="242.559,-19.1903 231.969,-19.5164 240.451,-25.8654 242.559,-19.1903"/>
</g>
<!-- Node10 -->
<g id="node11" class="node"><title>Node10</title>
<polygon fill="white" stroke="#bfbfbf" points="303.5,-0.5 303.5,-19.5 404.5,-19.5 404.5,-0.5 303.5,-0.5"/>
<text text-anchor="middle" x="354" y="-7.5" font-family="Helvetica,sans-Serif" font-size="10.00">boost/uuid/uuid.hpp</text>
</g>
<!-- Node7&#45;&gt;Node10 -->
<g id="edge10" class="edge"><title>Node7&#45;&gt;Node10</title>
<path fill="none" stroke="midnightblue" d="M372.367,-56.083C369.388,-48.77 365.074,-38.1814 361.375,-29.1034"/>
<polygon fill="midnightblue" stroke="midnightblue" points="364.58,-27.6914 357.565,-19.7511 358.097,-30.3326 364.58,-27.6914"/>
</g>
<!-- Node11 -->
<g id="node12" class="node"><title>Node11</title>
<polygon fill="white" stroke="#bfbfbf" points="423,-0.5 423,-19.5 537,-19.5 537,-0.5 423,-0.5"/>
<text text-anchor="middle" x="480" y="-7.5" font-family="Helvetica,sans-Serif" font-size="10.00">boost/uuid/uuid_io.hpp</text>
</g>
<!-- Node7&#45;&gt;Node11 -->
<g id="edge11" class="edge"><title>Node7&#45;&gt;Node11</title>
<path fill="none" stroke="midnightblue" d="M392.709,-56.324C409.312,-47.7034 435.002,-34.3643 454.22,-24.3855"/>
<polygon fill="midnightblue" stroke="midnightblue" points="456.07,-27.3689 463.332,-19.6545 452.844,-21.1565 456.07,-27.3689"/>
</g>
<!-- Node7&#45;&gt;Node12 -->
<g id="edge12" class="edge"><title>Node7&#45;&gt;Node12</title>
<path fill="none" stroke="midnightblue" d="M416.15,-59.607C472.231,-51.9447 577.429,-37.1025 677.402,-20.0344"/>
<polygon fill="midnightblue" stroke="midnightblue" points="678.106,-23.4647 687.369,-18.3221 676.921,-16.5658 678.106,-23.4647"/>
</g>
<!-- Node7&#45;&gt;Node13 -->
<g id="edge13" class="edge"><title>Node7&#45;&gt;Node13</title>
<path fill="none" stroke="midnightblue" d="M335.874,-59.7376C286.31,-52.8742 199.295,-39.6437 116.336,-20.079"/>
<polygon fill="midnightblue" stroke="midnightblue" points="117.043,-16.6496 106.503,-17.7252 115.414,-23.4572 117.043,-16.6496"/>
</g>
</g>
</svg>
