<?xml version="1.0" encoding="UTF-8" standalone="no"?>
<!DOCTYPE svg PUBLIC "-//W3C//DTD SVG 1.1//EN"
 "http://www.w3.org/Graphics/SVG/1.1/DTD/svg11.dtd">
<!-- Generated by graphviz version 2.38.0 (20140413.2041)
 -->
<!-- Title: Leosac::Module::Wiegand::Strategy::WiegandCardAndPin Pages: 1 -->
<svg width="866pt" height="373pt"
 viewBox="0.00 0.00 866.00 373.00" xmlns="http://www.w3.org/2000/svg" xmlns:xlink="http://www.w3.org/1999/xlink">
<g id="graph0" class="graph" transform="scale(1 1) rotate(0) translate(4 369)">
<title>Leosac::Module::Wiegand::Strategy::WiegandCardAndPin</title>
<polygon fill="white" stroke="none" points="-4,4 -4,-369 862,-369 862,4 -4,4"/>
<!-- Node2 -->
<g id="node1" class="node"><title>Node2</title>
<polygon fill="#bfbfbf" stroke="black" points="702,-290.5 702,-320.5 858,-320.5 858,-290.5 702,-290.5"/>
<text text-anchor="start" x="710" y="-308.5" font-family="Helvetica,sans-Serif" font-size="10.00">Leosac::Module::Wiegand</text>
<text text-anchor="middle" x="780" y="-297.5" font-family="Helvetica,sans-Serif" font-size="10.00">::Strategy::WiegandCardAndPin</text>
</g>
<!-- Node3 -->
<g id="node2" class="node"><title>Node3</title>
<g id="a_node2"><a xlink:href="../../d5/d39/classLeosac_1_1Module_1_1Wiegand_1_1Strategy_1_1WiegandStrategy.html" target="_top" xlink:title="The multiple modes available to wiegand reader are implemented through the strategy pattern...">
<polygon fill="white" stroke="black" points="0,-246.5 0,-276.5 140,-276.5 140,-246.5 0,-246.5"/>
<text text-anchor="start" x="8" y="-264.5" font-family="Helvetica,sans-Serif" font-size="10.00">Leosac::Module::Wiegand</text>
<text text-anchor="middle" x="70" y="-253.5" font-family="Helvetica,sans-Serif" font-size="10.00">::Strategy::WiegandStrategy</text>
</a>
</g>
</g>
<!-- Node3&#45;&gt;Node2 -->
<g id="edge1" class="edge"><title>Node3&#45;&gt;Node2</title>
<path fill="none" stroke="midnightblue" d="M146.197,-278.493C160.981,-281.28 176.425,-283.806 191,-285.5 373.12,-306.665 588.931,-307.982 701.648,-306.88"/>
<polygon fill="midnightblue" stroke="midnightblue" points="146.57,-275 136.086,-276.529 145.235,-281.871 146.57,-275"/>
</g>
<!-- Node5 -->
<g id="node4" class="node"><title>Node5</title>
<polygon fill="white" stroke="#bfbfbf" points="191,-139 191,-180 332,-180 332,-139 191,-139"/>
<text text-anchor="start" x="199" y="-168" font-family="Helvetica,sans-Serif" font-size="10.00">std::unique_ptr&lt; Leosac</text>
<text text-anchor="start" x="199" y="-157" font-family="Helvetica,sans-Serif" font-size="10.00">::Module::Wiegand::Strategy</text>
<text text-anchor="middle" x="261.5" y="-146" font-family="Helvetica,sans-Serif" font-size="10.00">::WiegandStrategy &gt;</text>
</g>
<!-- Node3&#45;&gt;Node5 -->
<g id="edge4" class="edge"><title>Node3&#45;&gt;Node5</title>
<path fill="none" stroke="#9a32cd" stroke-dasharray="5,2" d="M93.6228,-239.302C110.253,-224.034 134.04,-204.282 158,-191.5 168.28,-186.016 179.65,-181.302 190.965,-177.31"/>
<polygon fill="#9a32cd" stroke="#9a32cd" points="90.967,-236.994 86.0645,-246.386 95.7541,-242.101 90.967,-236.994"/>
<text text-anchor="middle" x="165.5" y="-194.5" font-family="Helvetica,sans-Serif" font-size="10.00"> ptr</text>
</g>
<!-- Node12 -->
<g id="node11" class="node"><title>Node12</title>
<g id="a_node11"><a xlink:href="../../d1/db0/classLeosac_1_1Module_1_1Wiegand_1_1Strategy_1_1PinReading.html" target="_top" xlink:title="Interface for a strategy that read a PIN code. ">
<polygon fill="white" stroke="black" points="196.5,-246.5 196.5,-276.5 326.5,-276.5 326.5,-246.5 196.5,-246.5"/>
<text text-anchor="start" x="204.5" y="-264.5" font-family="Helvetica,sans-Serif" font-size="10.00">Leosac::Module::Wiegand</text>
<text text-anchor="middle" x="261.5" y="-253.5" font-family="Helvetica,sans-Serif" font-size="10.00">::Strategy::PinReading</text>
</a>
</g>
</g>
<!-- Node3&#45;&gt;Node12 -->
<g id="edge12" class="edge"><title>Node3&#45;&gt;Node12</title>
<path fill="none" stroke="midnightblue" d="M150.632,-261.5C165.825,-261.5 181.551,-261.5 196.192,-261.5"/>
<polygon fill="midnightblue" stroke="midnightblue" points="150.218,-258 140.218,-261.5 150.218,-265 150.218,-258"/>
</g>
<!-- Node14 -->
<g id="node13" class="node"><title>Node14</title>
<g id="a_node13"><a xlink:href="../../de/d50/classLeosac_1_1Module_1_1Wiegand_1_1Strategy_1_1CardReading.html" target="_top" xlink:title="Interface for a strategy that read a card number. ">
<polygon fill="white" stroke="black" points="196.5,-334.5 196.5,-364.5 326.5,-364.5 326.5,-334.5 196.5,-334.5"/>
<text text-anchor="start" x="204.5" y="-352.5" font-family="Helvetica,sans-Serif" font-size="10.00">Leosac::Module::Wiegand</text>
<text text-anchor="middle" x="261.5" y="-341.5" font-family="Helvetica,sans-Serif" font-size="10.00">::Strategy::CardReading</text>
</a>
</g>
</g>
<!-- Node3&#45;&gt;Node14 -->
<g id="edge15" class="edge"><title>Node3&#45;&gt;Node14</title>
<path fill="none" stroke="midnightblue" d="M98.1528,-282.73C114.703,-294.853 136.705,-309.569 158,-319.5 170.519,-325.338 184.432,-330.319 197.868,-334.447"/>
<polygon fill="midnightblue" stroke="midnightblue" points="100.135,-279.842 90.0277,-276.665 95.9481,-285.452 100.135,-279.842"/>
</g>
<!-- Node4 -->
<g id="node3" class="node"><title>Node4</title>
<g id="a_node3"><a xlink:href="../../d7/d64/classLeosac_1_1Module_1_1Wiegand_1_1WiegandReaderImpl.html" target="_top" xlink:title="An implementation class that represents a Wiegand Reader. ">
<polygon fill="white" stroke="black" points="431,-99.5 431,-129.5 561,-129.5 561,-99.5 431,-99.5"/>
<text text-anchor="start" x="439" y="-117.5" font-family="Helvetica,sans-Serif" font-size="10.00">Leosac::Module::Wiegand</text>
<text text-anchor="middle" x="496" y="-106.5" font-family="Helvetica,sans-Serif" font-size="10.00">::WiegandReaderImpl</text>
</a>
</g>
</g>
<!-- Node4&#45;&gt;Node3 -->
<g id="edge2" class="edge"><title>Node4&#45;&gt;Node3</title>
<path fill="none" stroke="#9a32cd" stroke-dasharray="5,2" d="M456.563,-134.266C439.386,-142.904 418.812,-152.985 400,-161.5 370.224,-174.977 363.022,-179.21 332,-189.5 270.612,-209.863 253.321,-208.204 191,-225.5 167.422,-232.044 141.392,-239.788 119.619,-246.415"/>
<polygon fill="#9a32cd" stroke="#9a32cd" points="458.378,-137.271 465.723,-129.635 455.22,-131.024 458.378,-137.271"/>
<text text-anchor="middle" x="261.5" y="-228.5" font-family="Helvetica,sans-Serif" font-size="10.00"> reader_</text>
</g>
<!-- Node5&#45;&gt;Node4 -->
<g id="edge3" class="edge"><title>Node5&#45;&gt;Node4</title>
<path fill="none" stroke="#9a32cd" stroke-dasharray="5,2" d="M342.335,-147.004C361.279,-143.802 381.388,-140.208 400,-136.5 410.543,-134.4 421.701,-131.987 432.52,-129.548"/>
<polygon fill="#9a32cd" stroke="#9a32cd" points="341.535,-143.59 332.25,-148.691 342.69,-150.494 341.535,-143.59"/>
<text text-anchor="middle" x="375" y="-149.5" font-family="Helvetica,sans-Serif" font-size="10.00"> strategy_</text>
</g>
<!-- Node6 -->
<g id="node5" class="node"><title>Node6</title>
<polygon fill="white" stroke="#bfbfbf" points="200.5,-89.5 200.5,-119.5 322.5,-119.5 322.5,-89.5 200.5,-89.5"/>
<text text-anchor="start" x="208.5" y="-107.5" font-family="Helvetica,sans-Serif" font-size="10.00">std::unique_ptr&lt; Leosac</text>
<text text-anchor="middle" x="261.5" y="-96.5" font-family="Helvetica,sans-Serif" font-size="10.00">::Hardware::FLED &gt;</text>
</g>
<!-- Node6&#45;&gt;Node4 -->
<g id="edge5" class="edge"><title>Node6&#45;&gt;Node4</title>
<path fill="none" stroke="#9a32cd" stroke-dasharray="5,2" d="M332.992,-107.532C364.043,-108.867 400.277,-110.426 430.594,-111.73"/>
<polygon fill="#9a32cd" stroke="#9a32cd" points="332.818,-104.021 322.677,-107.088 332.517,-111.015 332.818,-104.021"/>
<text text-anchor="middle" x="375" y="-124.5" font-family="Helvetica,sans-Serif" font-size="10.00"> buzzer_</text>
<text text-anchor="middle" x="375" y="-113.5" font-family="Helvetica,sans-Serif" font-size="10.00">green_led_</text>
</g>
<!-- Node7 -->
<g id="node6" class="node"><title>Node7</title>
<g id="a_node6"><a xlink:href="../../db/df5/classLeosac_1_1Hardware_1_1FLED.html" target="_top" xlink:title="A Facade to a LED object. ">
<polygon fill="white" stroke="black" points="6,-95 6,-114 134,-114 134,-95 6,-95"/>
<text text-anchor="middle" x="70" y="-102" font-family="Helvetica,sans-Serif" font-size="10.00">Leosac::Hardware::FLED</text>
</a>
</g>
</g>
<!-- Node7&#45;&gt;Node6 -->
<g id="edge6" class="edge"><title>Node7&#45;&gt;Node6</title>
<path fill="none" stroke="#9a32cd" stroke-dasharray="5,2" d="M144.251,-104.5C162.771,-104.5 182.448,-104.5 200.244,-104.5"/>
<polygon fill="#9a32cd" stroke="#9a32cd" points="144.101,-101 134.101,-104.5 144.101,-108 144.101,-101"/>
<text text-anchor="middle" x="165.5" y="-107.5" font-family="Helvetica,sans-Serif" font-size="10.00"> ptr</text>
</g>
<!-- Node8 -->
<g id="node7" class="node"><title>Node8</title>
<g id="a_node7"><a xlink:title="STL class. ">
<polygon fill="white" stroke="#bfbfbf" points="231.5,-50 231.5,-69 291.5,-69 291.5,-50 231.5,-50"/>
<text text-anchor="middle" x="261.5" y="-57" font-family="Helvetica,sans-Serif" font-size="10.00">std::string</text>
</a>
</g>
</g>
<!-- Node8&#45;&gt;Node4 -->
<g id="edge7" class="edge"><title>Node8&#45;&gt;Node4</title>
<path fill="none" stroke="#9a32cd" stroke-dasharray="5,2" d="M301.824,-59.4312C329.652,-60.2252 367.626,-63.0247 400,-71.5 423.994,-77.7814 449.514,-89.6546 468.055,-99.3357"/>
<polygon fill="#9a32cd" stroke="#9a32cd" points="301.76,-55.9292 291.688,-59.2174 301.612,-62.9276 301.76,-55.9292"/>
<text text-anchor="middle" x="375" y="-96.5" font-family="Helvetica,sans-Serif" font-size="10.00"> topic_low_</text>
<text text-anchor="middle" x="375" y="-85.5" font-family="Helvetica,sans-Serif" font-size="10.00">topic_high_</text>
<text text-anchor="middle" x="375" y="-74.5" font-family="Helvetica,sans-Serif" font-size="10.00">name_</text>
</g>
<!-- Node9 -->
<g id="node8" class="node"><title>Node9</title>
<g id="a_node8"><a xlink:title="STL class. ">
<polygon fill="white" stroke="#bfbfbf" points="22.5,-44.5 22.5,-74.5 117.5,-74.5 117.5,-44.5 22.5,-44.5"/>
<text text-anchor="start" x="30.5" y="-62.5" font-family="Helvetica,sans-Serif" font-size="10.00">std::basic_string&lt;</text>
<text text-anchor="middle" x="70" y="-51.5" font-family="Helvetica,sans-Serif" font-size="10.00"> char &gt;</text>
</a>
</g>
</g>
<!-- Node9&#45;&gt;Node8 -->
<g id="edge8" class="edge"><title>Node9&#45;&gt;Node8</title>
<path fill="none" stroke="midnightblue" d="M128.127,-59.5C162.143,-59.5 203.883,-59.5 231.287,-59.5"/>
<polygon fill="midnightblue" stroke="midnightblue" points="127.843,-56.0001 117.843,-59.5 127.843,-63.0001 127.843,-56.0001"/>
</g>
<!-- Node10 -->
<g id="node9" class="node"><title>Node10</title>
<polygon fill="white" stroke="#bfbfbf" points="212,-0.5 212,-30.5 311,-30.5 311,-0.5 212,-0.5"/>
<text text-anchor="start" x="220" y="-18.5" font-family="Helvetica,sans-Serif" font-size="10.00">std::array&lt; uint8_t,</text>
<text text-anchor="middle" x="261.5" y="-7.5" font-family="Helvetica,sans-Serif" font-size="10.00"> 16 &gt;</text>
</g>
<!-- Node10&#45;&gt;Node4 -->
<g id="edge9" class="edge"><title>Node10&#45;&gt;Node4</title>
<path fill="none" stroke="#9a32cd" stroke-dasharray="5,2" d="M321.108,-24.5767C346.116,-29.706 375.191,-37.3805 400,-48.5 429.505,-61.7245 459.473,-84.4195 477.652,-99.4424"/>
<polygon fill="#9a32cd" stroke="#9a32cd" points="321.511,-21.0892 311.024,-22.5992 320.164,-27.9584 321.511,-21.0892"/>
<text text-anchor="middle" x="375" y="-51.5" font-family="Helvetica,sans-Serif" font-size="10.00"> buffer_</text>
</g>
<!-- Node11 -->
<g id="node10" class="node"><title>Node11</title>
<polygon fill="white" stroke="#bfbfbf" points="421.5,-256 421.5,-275 570.5,-275 570.5,-256 421.5,-256"/>
<text text-anchor="middle" x="496" y="-263" font-family="Helvetica,sans-Serif" font-size="10.00">std::unique_ptr&lt; PinReading &gt;</text>
</g>
<!-- Node11&#45;&gt;Node2 -->
<g id="edge10" class="edge"><title>Node11&#45;&gt;Node2</title>
<path fill="none" stroke="#9a32cd" stroke-dasharray="5,2" d="M580.968,-269.056C613.328,-271.257 650.538,-274.801 684,-280.5 698.627,-282.991 714.284,-286.676 728.582,-290.456"/>
<polygon fill="#9a32cd" stroke="#9a32cd" points="580.848,-265.541 570.642,-268.388 580.395,-272.527 580.848,-265.541"/>
<text text-anchor="middle" x="638" y="-283.5" font-family="Helvetica,sans-Serif" font-size="10.00"> read_pin_strategy_</text>
</g>
<!-- Node12&#45;&gt;Node11 -->
<g id="edge11" class="edge"><title>Node12&#45;&gt;Node11</title>
<path fill="none" stroke="#9a32cd" stroke-dasharray="5,2" d="M336.805,-262.778C363.791,-263.243 394.261,-263.767 421.203,-264.23"/>
<polygon fill="#9a32cd" stroke="#9a32cd" points="336.706,-259.276 326.647,-262.604 336.585,-266.275 336.706,-259.276"/>
<text text-anchor="middle" x="375" y="-267.5" font-family="Helvetica,sans-Serif" font-size="10.00"> ptr</text>
</g>
<!-- Node13 -->
<g id="node12" class="node"><title>Node13</title>
<polygon fill="white" stroke="#bfbfbf" points="418,-337 418,-356 574,-356 574,-337 418,-337"/>
<text text-anchor="middle" x="496" y="-344" font-family="Helvetica,sans-Serif" font-size="10.00">std::unique_ptr&lt; CardReading &gt;</text>
</g>
<!-- Node13&#45;&gt;Node2 -->
<g id="edge13" class="edge"><title>Node13&#45;&gt;Node2</title>
<path fill="none" stroke="#9a32cd" stroke-dasharray="5,2" d="M572.386,-335.54C612.455,-329.714 661.624,-322.565 701.942,-316.703"/>
<polygon fill="#9a32cd" stroke="#9a32cd" points="571.798,-332.088 562.405,-336.991 572.805,-339.015 571.798,-332.088"/>
<text text-anchor="middle" x="638" y="-335.5" font-family="Helvetica,sans-Serif" font-size="10.00"> read_card_strategy_</text>
</g>
<!-- Node14&#45;&gt;Node13 -->
<g id="edge14" class="edge"><title>Node14&#45;&gt;Node13</title>
<path fill="none" stroke="#9a32cd" stroke-dasharray="5,2" d="M336.769,-348.542C362.648,-348.208 391.733,-347.832 417.841,-347.496"/>
<polygon fill="#9a32cd" stroke="#9a32cd" points="336.601,-345.043 326.647,-348.672 336.691,-352.043 336.601,-345.043"/>
<text text-anchor="middle" x="375" y="-351.5" font-family="Helvetica,sans-Serif" font-size="10.00"> ptr</text>
</g>
</g>
</svg>
