<?xml version="1.0" encoding="UTF-8" standalone="no"?>
<!DOCTYPE svg PUBLIC "-//W3C//DTD SVG 1.1//EN"
 "http://www.w3.org/Graphics/SVG/1.1/DTD/svg11.dtd">
<!-- Generated by graphviz version 2.38.0 (20140413.2041)
 -->
<!-- Title: src/core/RemoteControl.hpp Pages: 1 -->
<!--zoomable 151 -->
<svg id="main" version="1.1" xmlns="http://www.w3.org/2000/svg" xmlns:xlink="http://www.w3.org/1999/xlink" xml:space="preserve" onload="init(evt)">
<style type="text/css"><![CDATA[
.edge:hover path { stroke: red; }
.edge:hover polygon { stroke: red; fill: red; }
]]></style>
<script type="text/javascript"><![CDATA[
var edges = document.getElementsByTagName('g');
if (edges && edges.length) {
  for (var i=0;i<edges.length;i++) {
    if (edges[i].id.substr(0,4)=='edge') {
      edges[i].setAttribute('class','edge');
    }
  }
}
]]></script>
        <defs>
                <circle id="rim" cx="0" cy="0" r="7"/>
                <circle id="rim2" cx="0" cy="0" r="3.5"/>
                <g id="zoomPlus">
                        <use xlink:href="#rim" fill="#404040">
                                <set attributeName="fill" to="#808080" begin="zoomplus.mouseover" end="zoomplus.mouseout"/>
                        </use>
                        <path d="M-4,0h8M0,-4v8" fill="none" stroke="white" stroke-width="1.5" pointer-events="none"/>
                </g>
                <g id="zoomMin">
                        <use xlink:href="#rim" fill="#404040">
                                <set attributeName="fill" to="#808080" begin="zoomminus.mouseover" end="zoomminus.mouseout"/>
                        </use>
                        <path d="M-4,0h8" fill="none" stroke="white" stroke-width="1.5" pointer-events="none"/>
                </g>
                <g id="dirArrow">
                        <path fill="none" stroke="white" stroke-width="1.5" d="M0,-3.0v7 M-2.5,-0.5L0,-3.0L2.5,-0.5"/>
                </g>
               <g id="resetDef">
                       <use xlink:href="#rim2" fill="#404040">
                               <set attributeName="fill" to="#808080" begin="reset.mouseover" end="reset.mouseout"/>
                       </use>
               </g>
        </defs>

<script type="text/javascript">
var viewWidth = 2704;
var viewHeight = 151;
var sectionId = 'dynsection-1';
</script>
<script xlink:href="../../svgpan.js"/>
<svg id="graph" class="graph">
<g id="viewport">
<title>src/core/RemoteControl.hpp</title>
<polygon fill="white" stroke="none" points="-4,4 -4,-147 2699.5,-147 2699.5,4 -4,4"/>
<!-- Node31 -->
<g id="node1" class="node"><title>Node31</title>
<polygon fill="#bfbfbf" stroke="black" points="953,-123.5 953,-142.5 1093,-142.5 1093,-123.5 953,-123.5"/>
<text text-anchor="middle" x="1023" y="-130.5" font-family="Helvetica,sans-Serif" font-size="10.00">src/core/RemoteControl.hpp</text>
</g>
<!-- Node32 -->
<g id="node2" class="node"><title>Node32</title>
<g id="a_node2"><a xlink:href="../../df/db8/kernel_8hpp.html" target="_top" xlink:title="src/core/kernel.hpp">
<polygon fill="white" stroke="black" points="1290,-67.5 1290,-86.5 1390,-86.5 1390,-67.5 1290,-67.5"/>
<text text-anchor="middle" x="1340" y="-74.5" font-family="Helvetica,sans-Serif" font-size="10.00">src/core/kernel.hpp</text>
</a>
</g>
</g>
<!-- Node31&#45;&gt;Node32 -->
<g id="edge1" class="edge"><title>Node31&#45;&gt;Node32</title>
<path fill="none" stroke="midnightblue" d="M1083.3,-121.727C1143.21,-111.523 1233.99,-96.0583 1290.01,-86.5164"/>
<polygon fill="midnightblue" stroke="midnightblue" points="1082.5,-118.314 1073.23,-123.444 1083.68,-125.214 1082.5,-118.314"/>
</g>
<!-- Node40 -->
<g id="node10" class="node"><title>Node40</title>
<g id="a_node10"><a xlink:href="../../d4/d28/RemoteControl_8cpp.html" target="_top" xlink:title="src/core/RemoteControl.cpp">
<polygon fill="white" stroke="black" points="0,-6 0,-25 140,-25 140,-6 0,-6"/>
<text text-anchor="middle" x="70" y="-13" font-family="Helvetica,sans-Serif" font-size="10.00">src/core/RemoteControl.cpp</text>
</a>
</g>
</g>
<!-- Node31&#45;&gt;Node40 -->
<g id="edge21" class="edge"><title>Node31&#45;&gt;Node40</title>
<path fill="none" stroke="midnightblue" d="M942.607,-124.439C788.464,-109.558 440.824,-74.1337 150,-31 138.411,-29.2812 125.928,-27.1527 114.348,-25.0609"/>
<polygon fill="midnightblue" stroke="midnightblue" points="942.633,-127.958 952.923,-125.433 943.304,-120.99 942.633,-127.958"/>
</g>
<!-- Node33 -->
<g id="node3" class="node"><title>Node33</title>
<g id="a_node3"><a xlink:href="../../d6/dff/src_2core_2config_2ConfigManager_8cpp.html" target="_top" xlink:title="src/core/config/ConfigManager.cpp">
<polygon fill="white" stroke="black" points="158.5,-6 158.5,-25 327.5,-25 327.5,-6 158.5,-6"/>
<text text-anchor="middle" x="243" y="-13" font-family="Helvetica,sans-Serif" font-size="10.00">src/core/config/ConfigManager.cpp</text>
</a>
</g>
</g>
<!-- Node32&#45;&gt;Node33 -->
<g id="edge2" class="edge"><title>Node32&#45;&gt;Node33</title>
<path fill="none" stroke="midnightblue" d="M1279.43,-75.5631C1123.04,-73.9411 693.073,-66.3461 337,-31 322.211,-29.532 306.203,-27.304 291.66,-25.0319"/>
<polygon fill="midnightblue" stroke="midnightblue" points="1279.73,-79.0662 1289.77,-75.6657 1279.8,-72.0666 1279.73,-79.0662"/>
</g>
<!-- Node34 -->
<g id="node4" class="node"><title>Node34</title>
<g id="a_node4"><a xlink:href="../../d3/d1e/CoreAPI_8cpp.html" target="_top" xlink:title="src/core/CoreAPI.cpp">
<polygon fill="white" stroke="black" points="345.5,-6 345.5,-25 456.5,-25 456.5,-6 345.5,-6"/>
<text text-anchor="middle" x="401" y="-13" font-family="Helvetica,sans-Serif" font-size="10.00">src/core/CoreAPI.cpp</text>
</a>
</g>
</g>
<!-- Node32&#45;&gt;Node34 -->
<g id="edge3" class="edge"><title>Node32&#45;&gt;Node34</title>
<path fill="none" stroke="midnightblue" d="M1279.71,-76.3712C1137.38,-76.4918 769.653,-72.3871 466,-31 455.575,-29.5791 444.348,-27.3362 434.207,-25.0352"/>
<polygon fill="midnightblue" stroke="midnightblue" points="1279.97,-79.8708 1289.96,-76.3547 1279.96,-72.8708 1279.97,-79.8708"/>
</g>
<!-- Node35 -->
<g id="node5" class="node"><title>Node35</title>
<g id="a_node5"><a xlink:href="../../d4/dd4/CoreUtils_8cpp.html" target="_top" xlink:title="src/core/CoreUtils.cpp">
<polygon fill="white" stroke="black" points="474.5,-6 474.5,-25 589.5,-25 589.5,-6 474.5,-6"/>
<text text-anchor="middle" x="532" y="-13" font-family="Helvetica,sans-Serif" font-size="10.00">src/core/CoreUtils.cpp</text>
</a>
</g>
</g>
<!-- Node32&#45;&gt;Node35 -->
<g id="edge4" class="edge"><title>Node32&#45;&gt;Node35</title>
<path fill="none" stroke="midnightblue" d="M1279.6,-75.4444C1152.88,-73.5961 850.166,-65.5992 599,-31 588.389,-29.5383 576.958,-27.3122 566.595,-25.0399"/>
<polygon fill="midnightblue" stroke="midnightblue" points="1279.82,-78.9476 1289.87,-75.5861 1279.92,-71.9483 1279.82,-78.9476"/>
</g>
<!-- Node36 -->
<g id="node6" class="node"><title>Node36</title>
<g id="a_node6"><a xlink:href="../../d9/d6a/GetServiceRegistry_8cpp.html" target="_top" xlink:title="src/core/GetServiceRegistry.cpp">
<polygon fill="white" stroke="black" points="607.5,-6 607.5,-25 766.5,-25 766.5,-6 607.5,-6"/>
<text text-anchor="middle" x="687" y="-13" font-family="Helvetica,sans-Serif" font-size="10.00">src/core/GetServiceRegistry.cpp</text>
</a>
</g>
</g>
<!-- Node32&#45;&gt;Node36 -->
<g id="edge5" class="edge"><title>Node32&#45;&gt;Node36</title>
<path fill="none" stroke="midnightblue" d="M1279.44,-72.7993C1175.98,-66.9669 958.662,-53.1291 776,-31 762.634,-29.3808 748.205,-27.2131 734.934,-25.0482"/>
<polygon fill="midnightblue" stroke="midnightblue" points="1279.51,-76.3086 1289.69,-73.3718 1279.9,-69.3195 1279.51,-76.3086"/>
</g>
<!-- Node37 -->
<g id="node7" class="node"><title>Node37</title>
<g id="a_node7"><a xlink:href="../../dd/d24/kernel_8cpp.html" target="_top" xlink:title="src/core/kernel.cpp">
<polygon fill="white" stroke="black" points="785,-6 785,-25 885,-25 885,-6 785,-6"/>
<text text-anchor="middle" x="835" y="-13" font-family="Helvetica,sans-Serif" font-size="10.00">src/core/kernel.cpp</text>
</a>
</g>
</g>
<!-- Node32&#45;&gt;Node37 -->
<g id="edge6" class="edge"><title>Node32&#45;&gt;Node37</title>
<path fill="none" stroke="midnightblue" d="M1279.75,-72.6148C1193.71,-67.1709 1030.89,-54.6069 894,-31 884.957,-29.4405 875.246,-27.2663 866.366,-25.0753"/>
<polygon fill="midnightblue" stroke="midnightblue" points="1279.66,-76.1157 1289.86,-73.2437 1280.1,-69.1292 1279.66,-76.1157"/>
</g>
<!-- Node38 -->
<g id="node8" class="node"><title>Node38</title>
<g id="a_node8"><a xlink:href="../../d9/d4a/module__manager_8cpp.html" target="_top" xlink:title="src/core/module_manager.cpp">
<polygon fill="white" stroke="black" points="903,-6 903,-25 1051,-25 1051,-6 903,-6"/>
<text text-anchor="middle" x="977" y="-13" font-family="Helvetica,sans-Serif" font-size="10.00">src/core/module_manager.cpp</text>
</a>
</g>
</g>
<!-- Node32&#45;&gt;Node38 -->
<g id="edge7" class="edge"><title>Node32&#45;&gt;Node38</title>
<path fill="none" stroke="midnightblue" d="M1279.63,-66.4598C1223.1,-57.4795 1136.28,-43.5688 1061,-31 1049.61,-29.0992 1037.37,-27.0106 1025.84,-25.0251"/>
<polygon fill="midnightblue" stroke="midnightblue" points="1279.4,-69.9668 1289.82,-68.0778 1280.5,-63.0533 1279.4,-69.9668"/>
</g>
<!-- Node39 -->
<g id="node9" class="node"><title>Node39</title>
<g id="a_node9"><a xlink:href="../../d2/d2a/networkconfig_8cpp.html" target="_top" xlink:title="NetworkConfig class implementation. ">
<polygon fill="white" stroke="black" points="1069.5,-0.5 1069.5,-30.5 1168.5,-30.5 1168.5,-0.5 1069.5,-0.5"/>
<text text-anchor="start" x="1077.5" y="-18.5" font-family="Helvetica,sans-Serif" font-size="10.00">src/core/netconfig</text>
<text text-anchor="middle" x="1119" y="-7.5" font-family="Helvetica,sans-Serif" font-size="10.00">/networkconfig.cpp</text>
</a>
</g>
</g>
<!-- Node32&#45;&gt;Node39 -->
<g id="edge8" class="edge"><title>Node32&#45;&gt;Node39</title>
<path fill="none" stroke="midnightblue" d="M1298.42,-64.8042C1261.55,-54.8781 1207.64,-40.3653 1168.55,-29.8402"/>
<polygon fill="midnightblue" stroke="midnightblue" points="1297.77,-68.255 1308.34,-67.4751 1299.59,-61.4956 1297.77,-68.255"/>
</g>
<!-- Node32&#45;&gt;Node40 -->
<g id="edge9" class="edge"><title>Node32&#45;&gt;Node40</title>
<path fill="none" stroke="midnightblue" d="M1279.55,-74.8466C1069.57,-70.6626 372.454,-55.2427 150,-31 137.231,-29.6084 123.431,-27.374 110.947,-25.0717"/>
<polygon fill="midnightblue" stroke="midnightblue" points="1279.7,-78.3501 1289.77,-75.0489 1279.84,-71.3515 1279.7,-78.3501"/>
</g>
<!-- Node41 -->
<g id="node11" class="node"><title>Node41</title>
<g id="a_node11"><a xlink:href="../../df/dca/GetLocalConfigVersion_8cpp.html" target="_top" xlink:title="src/core/tasks/GetLocalConfig\lVersion.cpp">
<polygon fill="white" stroke="black" points="1186.5,-0.5 1186.5,-30.5 1335.5,-30.5 1335.5,-0.5 1186.5,-0.5"/>
<text text-anchor="start" x="1194.5" y="-18.5" font-family="Helvetica,sans-Serif" font-size="10.00">src/core/tasks/GetLocalConfig</text>
<text text-anchor="middle" x="1261" y="-7.5" font-family="Helvetica,sans-Serif" font-size="10.00">Version.cpp</text>
</a>
</g>
</g>
<!-- Node32&#45;&gt;Node41 -->
<g id="edge10" class="edge"><title>Node32&#45;&gt;Node41</title>
<path fill="none" stroke="midnightblue" d="M1320.34,-61.1955C1307.89,-51.8129 1291.87,-39.7512 1279.62,-30.523"/>
<polygon fill="midnightblue" stroke="midnightblue" points="1318.59,-64.2547 1328.68,-67.4751 1322.8,-58.6631 1318.59,-64.2547"/>
</g>
<!-- Node42 -->
<g id="node12" class="node"><title>Node42</title>
<g id="a_node12"><a xlink:href="../../d7/d6f/GetRemoteConfigVersion_8cpp.html" target="_top" xlink:title="src/core/tasks/GetRemote\lConfigVersion.cpp">
<polygon fill="white" stroke="black" points="1354,-0.5 1354,-30.5 1486,-30.5 1486,-0.5 1354,-0.5"/>
<text text-anchor="start" x="1362" y="-18.5" font-family="Helvetica,sans-Serif" font-size="10.00">src/core/tasks/GetRemote</text>
<text text-anchor="middle" x="1420" y="-7.5" font-family="Helvetica,sans-Serif" font-size="10.00">ConfigVersion.cpp</text>
</a>
</g>
</g>
<!-- Node32&#45;&gt;Node42 -->
<g id="edge11" class="edge"><title>Node32&#45;&gt;Node42</title>
<path fill="none" stroke="midnightblue" d="M1359.54,-61.468C1372.21,-52.0474 1388.62,-39.8408 1401.15,-30.523"/>
<polygon fill="midnightblue" stroke="midnightblue" points="1357.4,-58.6988 1351.46,-67.4751 1361.57,-64.3156 1357.4,-58.6988"/>
</g>
<!-- Node43 -->
<g id="node13" class="node"><title>Node43</title>
<g id="a_node13"><a xlink:href="../../d5/d8e/SyncConfig_8cpp.html" target="_top" xlink:title="src/core/tasks/SyncConfig.cpp">
<polygon fill="white" stroke="black" points="1504,-6 1504,-25 1656,-25 1656,-6 1504,-6"/>
<text text-anchor="middle" x="1580" y="-13" font-family="Helvetica,sans-Serif" font-size="10.00">src/core/tasks/SyncConfig.cpp</text>
</a>
</g>
</g>
<!-- Node32&#45;&gt;Node43 -->
<g id="edge12" class="edge"><title>Node32&#45;&gt;Node43</title>
<path fill="none" stroke="midnightblue" d="M1384.2,-65.0412C1430.8,-53.49 1503.2,-35.5394 1545.68,-25.0091"/>
<polygon fill="midnightblue" stroke="midnightblue" points="1383.25,-61.6715 1374.39,-67.4751 1384.93,-68.4659 1383.25,-61.6715"/>
</g>
<!-- Node44 -->
<g id="node14" class="node"><title>Node44</title>
<g id="a_node14"><a xlink:href="../../df/d0a/main_8cpp.html" target="_top" xlink:title="standard main ">
<polygon fill="white" stroke="black" points="1674.5,-6 1674.5,-25 1747.5,-25 1747.5,-6 1674.5,-6"/>
<text text-anchor="middle" x="1711" y="-13" font-family="Helvetica,sans-Serif" font-size="10.00">src/main.cpp</text>
</a>
</g>
</g>
<!-- Node32&#45;&gt;Node44 -->
<g id="edge13" class="edge"><title>Node32&#45;&gt;Node44</title>
<path fill="none" stroke="midnightblue" d="M1400.18,-70.7181C1465.83,-64.2505 1573.74,-51.5476 1665,-31 1672.03,-29.4181 1679.52,-27.2627 1686.38,-25.0976"/>
<polygon fill="midnightblue" stroke="midnightblue" points="1399.64,-67.2548 1390.02,-71.7028 1400.31,-74.2221 1399.64,-67.2548"/>
</g>
<!-- Node45 -->
<g id="node15" class="node"><title>Node45</title>
<g id="a_node15"><a xlink:href="../../df/dac/AuthDBModule_8cpp.html" target="_top" xlink:title="src/modules/auth/auth\l&#45;db/AuthDBModule.cpp">
<polygon fill="white" stroke="black" points="1766,-0.5 1766,-30.5 1884,-30.5 1884,-0.5 1766,-0.5"/>
<text text-anchor="start" x="1774" y="-18.5" font-family="Helvetica,sans-Serif" font-size="10.00">src/modules/auth/auth</text>
<text text-anchor="middle" x="1825" y="-7.5" font-family="Helvetica,sans-Serif" font-size="10.00">&#45;db/AuthDBModule.cpp</text>
</a>
</g>
</g>
<!-- Node32&#45;&gt;Node45 -->
<g id="edge14" class="edge"><title>Node32&#45;&gt;Node45</title>
<path fill="none" stroke="midnightblue" d="M1400.34,-71.4432C1481.67,-64.8565 1630.82,-51.2067 1757,-31 1759.86,-30.5419 1762.78,-30.0423 1765.73,-29.5129"/>
<polygon fill="midnightblue" stroke="midnightblue" points="1399.98,-67.9614 1390.29,-72.2495 1400.54,-74.939 1399.98,-67.9614"/>
</g>
<!-- Node46 -->
<g id="node16" class="node"><title>Node46</title>
<g id="a_node16"><a xlink:href="../../d8/d37/AuthFileModule_8cpp.html" target="_top" xlink:title="src/modules/auth/auth\l&#45;file/AuthFileModule.cpp">
<polygon fill="white" stroke="black" points="1902,-0.5 1902,-30.5 2024,-30.5 2024,-0.5 1902,-0.5"/>
<text text-anchor="start" x="1910" y="-18.5" font-family="Helvetica,sans-Serif" font-size="10.00">src/modules/auth/auth</text>
<text text-anchor="middle" x="1963" y="-7.5" font-family="Helvetica,sans-Serif" font-size="10.00">&#45;file/AuthFileModule.cpp</text>
</a>
</g>
</g>
<!-- Node32&#45;&gt;Node46 -->
<g id="edge15" class="edge"><title>Node32&#45;&gt;Node46</title>
<path fill="none" stroke="midnightblue" d="M1400.28,-73.5262C1502.19,-68.8011 1714.86,-56.5985 1893,-31 1895.95,-30.5763 1898.96,-30.1046 1901.99,-29.5977"/>
<polygon fill="midnightblue" stroke="midnightblue" points="1400.01,-70.0349 1390.18,-73.9868 1400.33,-77.0277 1400.01,-70.0349"/>
</g>
<!-- Node47 -->
<g id="node17" class="node"><title>Node47</title>
<g id="a_node17"><a xlink:href="../../d0/d58/DoormanModule_8cpp.html" target="_top" xlink:title="src/modules/doorman\l/DoormanModule.cpp">
<polygon fill="white" stroke="black" points="2042,-0.5 2042,-30.5 2152,-30.5 2152,-0.5 2042,-0.5"/>
<text text-anchor="start" x="2050" y="-18.5" font-family="Helvetica,sans-Serif" font-size="10.00">src/modules/doorman</text>
<text text-anchor="middle" x="2097" y="-7.5" font-family="Helvetica,sans-Serif" font-size="10.00">/DoormanModule.cpp</text>
</a>
</g>
</g>
<!-- Node32&#45;&gt;Node47 -->
<g id="edge16" class="edge"><title>Node32&#45;&gt;Node47</title>
<path fill="none" stroke="midnightblue" d="M1400.44,-75.2784C1521.24,-73.1316 1800.83,-64.624 2033,-31 2035.93,-30.5754 2038.93,-30.0876 2041.95,-29.5536"/>
<polygon fill="midnightblue" stroke="midnightblue" points="1400.23,-71.7815 1390.29,-75.4504 1400.35,-78.7804 1400.23,-71.7815"/>
</g>
<!-- Node48 -->
<g id="node18" class="node"><title>Node48</title>
<g id="a_node18"><a xlink:href="../../d7/d36/LEDBuzzerModule_8cpp.html" target="_top" xlink:title="src/modules/led&#45;buzzer\l/LEDBuzzerModule.cpp">
<polygon fill="white" stroke="black" points="2170,-0.5 2170,-30.5 2290,-30.5 2290,-0.5 2170,-0.5"/>
<text text-anchor="start" x="2178" y="-18.5" font-family="Helvetica,sans-Serif" font-size="10.00">src/modules/led&#45;buzzer</text>
<text text-anchor="middle" x="2230" y="-7.5" font-family="Helvetica,sans-Serif" font-size="10.00">/LEDBuzzerModule.cpp</text>
</a>
</g>
</g>
<!-- Node32&#45;&gt;Node48 -->
<g id="edge17" class="edge"><title>Node32&#45;&gt;Node48</title>
<path fill="none" stroke="midnightblue" d="M1400.46,-75.8302C1536.77,-74.7613 1878.24,-68.2391 2161,-31 2163.91,-30.6164 2166.89,-30.1773 2169.88,-29.6965"/>
<polygon fill="midnightblue" stroke="midnightblue" points="1400.2,-72.3318 1390.23,-75.9031 1400.25,-79.3316 1400.2,-72.3318"/>
</g>
<!-- Node49 -->
<g id="node19" class="node"><title>Node49</title>
<g id="a_node19"><a xlink:href="../../da/d77/SysFsGpioModule_8cpp.html" target="_top" xlink:title="src/modules/sysfsgpio\l/SysFsGpioModule.cpp">
<polygon fill="white" stroke="black" points="2308.5,-0.5 2308.5,-30.5 2427.5,-30.5 2427.5,-0.5 2308.5,-0.5"/>
<text text-anchor="start" x="2316.5" y="-18.5" font-family="Helvetica,sans-Serif" font-size="10.00">src/modules/sysfsgpio</text>
<text text-anchor="middle" x="2368" y="-7.5" font-family="Helvetica,sans-Serif" font-size="10.00">/SysFsGpioModule.cpp</text>
</a>
</g>
</g>
<!-- Node32&#45;&gt;Node49 -->
<g id="edge18" class="edge"><title>Node32&#45;&gt;Node49</title>
<path fill="none" stroke="midnightblue" d="M1400.2,-76.5129C1551.78,-77.0815 1961.21,-74.1345 2299,-31 2302.04,-30.6124 2305.14,-30.1622 2308.26,-29.6653"/>
<polygon fill="midnightblue" stroke="midnightblue" points="1400.18,-73.0128 1390.16,-76.4685 1400.15,-80.0128 1400.18,-73.0128"/>
</g>
<!-- Node50 -->
<g id="node20" class="node"><title>Node50</title>
<g id="a_node20"><a xlink:href="../../d9/d8d/APISession_8cpp.html" target="_top" xlink:title="src/modules/websock\l&#45;api/api/APISession.cpp">
<polygon fill="white" stroke="black" points="2446,-0.5 2446,-30.5 2568,-30.5 2568,-0.5 2446,-0.5"/>
<text text-anchor="start" x="2454" y="-18.5" font-family="Helvetica,sans-Serif" font-size="10.00">src/modules/websock</text>
<text text-anchor="middle" x="2507" y="-7.5" font-family="Helvetica,sans-Serif" font-size="10.00">&#45;api/api/APISession.cpp</text>
</a>
</g>
</g>
<!-- Node32&#45;&gt;Node50 -->
<g id="edge19" class="edge"><title>Node32&#45;&gt;Node50</title>
<path fill="none" stroke="midnightblue" d="M1400.36,-74.8232C1599.39,-70.7387 2233.84,-56.0387 2437,-31 2439.83,-30.6508 2442.72,-30.2474 2445.63,-29.8022"/>
<polygon fill="midnightblue" stroke="midnightblue" points="1400.02,-71.3292 1390.1,-75.0323 1400.17,-78.3278 1400.02,-71.3292"/>
</g>
<!-- Node51 -->
<g id="node21" class="node"><title>Node51</title>
<g id="a_node21"><a xlink:href="../../d3/de8/wiegand_8cpp.html" target="_top" xlink:title="src/modules/wiegand\l/wiegand.cpp">
<polygon fill="white" stroke="black" points="2586.5,-0.5 2586.5,-30.5 2695.5,-30.5 2695.5,-0.5 2586.5,-0.5"/>
<text text-anchor="start" x="2594.5" y="-18.5" font-family="Helvetica,sans-Serif" font-size="10.00">src/modules/wiegand</text>
<text text-anchor="middle" x="2641" y="-7.5" font-family="Helvetica,sans-Serif" font-size="10.00">/wiegand.cpp</text>
</a>
</g>
</g>
<!-- Node32&#45;&gt;Node51 -->
<g id="edge20" class="edge"><title>Node32&#45;&gt;Node51</title>
<path fill="none" stroke="midnightblue" d="M1400.34,-75.2949C1615.62,-72.5466 2345.45,-61.1734 2577,-31 2580.05,-30.6025 2583.17,-30.1276 2586.31,-29.596"/>
<polygon fill="midnightblue" stroke="midnightblue" points="1400.14,-71.7971 1390.18,-75.423 1400.22,-78.7965 1400.14,-71.7971"/>
</g>
</g>
</svg>
        <g id="navigator" transform="translate(0 0)" fill="#404254">
                <rect fill="#f2f5e9" fill-opacity="0.5" stroke="#606060" stroke-width=".5" x="0" y="0" width="60" height="60"/>
                <use id="zoomplus" xlink:href="#zoomPlus" x="17" y="9" onmousedown="handleZoom(evt,'in')"/>
                <use id="zoomminus" xlink:href="#zoomMin" x="42" y="9" onmousedown="handleZoom(evt,'out')"/>
                <use id="reset" xlink:href="#resetDef" x="30" y="36" onmousedown="handleReset()"/>
                <g id="arrowUp" xlink:href="#dirArrow" transform="translate(30 24)" onmousedown="handlePan(0,-1)">
                  <use xlink:href="#rim" fill="#404040">
                        <set attributeName="fill" to="#808080" begin="arrowUp.mouseover" end="arrowUp.mouseout"/>
                  </use>
                  <path fill="none" stroke="white" stroke-width="1.5" d="M0,-3.0v7 M-2.5,-0.5L0,-3.0L2.5,-0.5"/>
                </g>
                <g id="arrowRight" xlink:href="#dirArrow" transform="rotate(90) translate(36 -43)" onmousedown="handlePan(1,0)">
                  <use xlink:href="#rim" fill="#404040">
                        <set attributeName="fill" to="#808080" begin="arrowRight.mouseover" end="arrowRight.mouseout"/>
                  </use>
                  <path fill="none" stroke="white" stroke-width="1.5" d="M0,-3.0v7 M-2.5,-0.5L0,-3.0L2.5,-0.5"/>
                </g>
                <g id="arrowDown" xlink:href="#dirArrow" transform="rotate(180) translate(-30 -48)" onmousedown="handlePan(0,1)">
                  <use xlink:href="#rim" fill="#404040">
                        <set attributeName="fill" to="#808080" begin="arrowDown.mouseover" end="arrowDown.mouseout"/>
                  </use>
                  <path fill="none" stroke="white" stroke-width="1.5" d="M0,-3.0v7 M-2.5,-0.5L0,-3.0L2.5,-0.5"/>
                </g>
                <g id="arrowLeft" xlink:href="#dirArrow" transform="rotate(270) translate(-36 17)" onmousedown="handlePan(-1,0)">
                  <use xlink:href="#rim" fill="#404040">
                        <set attributeName="fill" to="#808080" begin="arrowLeft.mouseover" end="arrowLeft.mouseout"/>
                  </use>
                  <path fill="none" stroke="white" stroke-width="1.5" d="M0,-3.0v7 M-2.5,-0.5L0,-3.0L2.5,-0.5"/>
                </g>
        </g>
        <svg viewBox="0 0 15 15" width="100%" height="30px" preserveAspectRatio="xMaxYMin meet">
         <g id="arrow_out" transform="scale(0.3 0.3)">
          <a xlink:href="RemoteControl_8hpp__dep__incl_org.svg" target="_base">
           <rect id="button" ry="5" rx="5" y="6" x="6" height="38" width="38"
                fill="#f2f5e9" fill-opacity="0.5" stroke="#606060" stroke-width="1.0"/>
           <path id="arrow"
             d="M 11.500037,31.436501 C 11.940474,20.09759 22.043105,11.32322 32.158766,21.979434 L 37.068811,17.246167 C 37.068811,17.246167 37.088388,32 37.088388,32 L 22.160133,31.978069 C 22.160133,31.978069 26.997745,27.140456 26.997745,27.140456 C 18.528582,18.264221 13.291696,25.230495 11.500037,31.436501 z"
             style="fill:#404040;"/>
          </a>
         </g>
        </svg>
</svg>
