<?xml version="1.0" encoding="UTF-8" standalone="no"?>
<!DOCTYPE svg PUBLIC "-//W3C//DTD SVG 1.1//EN"
 "http://www.w3.org/Graphics/SVG/1.1/DTD/svg11.dtd">
<!-- Generated by graphviz version 2.38.0 (20140413.2041)
 -->
<!-- Title: src/modules/tcp&#45;notifier/protocols/PushSimpleCardNumber.hpp Pages: 1 -->
<svg width="323pt" height="229pt"
 viewBox="0.00 0.00 322.50 229.00" xmlns="http://www.w3.org/2000/svg" xmlns:xlink="http://www.w3.org/1999/xlink">
<g id="graph0" class="graph" transform="scale(1 1) rotate(0) translate(4 225)">
<title>src/modules/tcp&#45;notifier/protocols/PushSimpleCardNumber.hpp</title>
<polygon fill="white" stroke="none" points="-4,4 -4,-225 318.5,-225 318.5,4 -4,4"/>
<!-- Node0 -->
<g id="node1" class="node"><title>Node0</title>
<polygon fill="#bfbfbf" stroke="black" points="76.5,-190.5 76.5,-220.5 265.5,-220.5 265.5,-190.5 76.5,-190.5"/>
<text text-anchor="start" x="84.5" y="-208.5" font-family="Helvetica,sans-Serif" font-size="10.00">src/modules/tcp&#45;notifier</text>
<text text-anchor="middle" x="171" y="-197.5" font-family="Helvetica,sans-Serif" font-size="10.00">/protocols/PushSimpleCardNumber.hpp</text>
</g>
<!-- Node1 -->
<g id="node2" class="node"><title>Node1</title>
<g id="a_node2"><a xlink:href="../../dc/d76/ProtocolHandler_8hpp.html" target="_top" xlink:title="modules/tcp&#45;notifier\l/ProtocolHandler.hpp">
<polygon fill="white" stroke="black" points="117,-123.5 117,-153.5 225,-153.5 225,-123.5 117,-123.5"/>
<text text-anchor="start" x="125" y="-141.5" font-family="Helvetica,sans-Serif" font-size="10.00">modules/tcp&#45;notifier</text>
<text text-anchor="middle" x="171" y="-130.5" font-family="Helvetica,sans-Serif" font-size="10.00">/ProtocolHandler.hpp</text>
</a>
</g>
</g>
<!-- Node0&#45;&gt;Node1 -->
<g id="edge1" class="edge"><title>Node0&#45;&gt;Node1</title>
<path fill="none" stroke="midnightblue" d="M171,-190.396C171,-182.645 171,-172.812 171,-163.86"/>
<polygon fill="midnightblue" stroke="midnightblue" points="174.5,-163.576 171,-153.577 167.5,-163.577 174.5,-163.576"/>
</g>
<!-- Node2 -->
<g id="node3" class="node"><title>Node2</title>
<g id="a_node3"><a xlink:href="../../dc/d49/LeosacFwd_8hpp.html" target="_top" xlink:title="LeosacFwd.hpp">
<polygon fill="white" stroke="black" points="0,-62 0,-81 86,-81 86,-62 0,-62"/>
<text text-anchor="middle" x="43" y="-69" font-family="Helvetica,sans-Serif" font-size="10.00">LeosacFwd.hpp</text>
</a>
</g>
</g>
<!-- Node1&#45;&gt;Node2 -->
<g id="edge2" class="edge"><title>Node1&#45;&gt;Node2</title>
<path fill="none" stroke="midnightblue" d="M143.226,-123.396C121.065,-112.142 90.2636,-96.501 68.6739,-85.5375"/>
<polygon fill="midnightblue" stroke="midnightblue" points="70.2532,-82.4141 59.7523,-81.007 67.0838,-88.6555 70.2532,-82.4141"/>
</g>
<!-- Node5 -->
<g id="node6" class="node"><title>Node5</title>
<g id="a_node6"><a xlink:href="../../d7/d7f/CredentialFwd_8hpp.html" target="_top" xlink:title="core/credentials/Credential\lFwd.hpp">
<polygon fill="white" stroke="black" points="104.5,-56.5 104.5,-86.5 237.5,-86.5 237.5,-56.5 104.5,-56.5"/>
<text text-anchor="start" x="112.5" y="-74.5" font-family="Helvetica,sans-Serif" font-size="10.00">core/credentials/Credential</text>
<text text-anchor="middle" x="171" y="-63.5" font-family="Helvetica,sans-Serif" font-size="10.00">Fwd.hpp</text>
</a>
</g>
</g>
<!-- Node1&#45;&gt;Node5 -->
<g id="edge5" class="edge"><title>Node1&#45;&gt;Node5</title>
<path fill="none" stroke="midnightblue" d="M171,-123.396C171,-115.645 171,-105.812 171,-96.8601"/>
<polygon fill="midnightblue" stroke="midnightblue" points="174.5,-96.5765 171,-86.5765 167.5,-96.5765 174.5,-96.5765"/>
</g>
<!-- Node7 -->
<g id="node8" class="node"><title>Node7</title>
<polygon fill="white" stroke="#bfbfbf" points="255.5,-62 255.5,-81 314.5,-81 314.5,-62 255.5,-62"/>
<text text-anchor="middle" x="285" y="-69" font-family="Helvetica,sans-Serif" font-size="10.00">stdexcept</text>
</g>
<!-- Node1&#45;&gt;Node7 -->
<g id="edge8" class="edge"><title>Node1&#45;&gt;Node7</title>
<path fill="none" stroke="midnightblue" d="M195.736,-123.396C215.208,-112.294 242.169,-96.9211 261.354,-85.9825"/>
<polygon fill="midnightblue" stroke="midnightblue" points="263.127,-89.0007 270.08,-81.007 259.659,-82.9197 263.127,-89.0007"/>
</g>
<!-- Node3 -->
<g id="node4" class="node"><title>Node3</title>
<polygon fill="white" stroke="#bfbfbf" points="71,-0.5 71,-19.5 123,-19.5 123,-0.5 71,-0.5"/>
<text text-anchor="middle" x="97" y="-7.5" font-family="Helvetica,sans-Serif" font-size="10.00">memory</text>
</g>
<!-- Node2&#45;&gt;Node3 -->
<g id="edge3" class="edge"><title>Node2&#45;&gt;Node3</title>
<path fill="none" stroke="midnightblue" d="M50.7369,-61.9751C58.9973,-52.8733 72.2771,-38.241 82.4945,-26.983"/>
<polygon fill="midnightblue" stroke="midnightblue" points="85.1487,-29.2663 89.2775,-19.5091 79.9651,-24.5619 85.1487,-29.2663"/>
</g>
<!-- Node4 -->
<g id="node5" class="node"><title>Node4</title>
<polygon fill="white" stroke="#bfbfbf" points="9,-0.5 9,-19.5 53,-19.5 53,-0.5 9,-0.5"/>
<text text-anchor="middle" x="31" y="-7.5" font-family="Helvetica,sans-Serif" font-size="10.00">vector</text>
</g>
<!-- Node2&#45;&gt;Node4 -->
<g id="edge4" class="edge"><title>Node2&#45;&gt;Node4</title>
<path fill="none" stroke="midnightblue" d="M41.2807,-61.9751C39.5698,-53.4919 36.8899,-40.2043 34.6952,-29.3222"/>
<polygon fill="midnightblue" stroke="midnightblue" points="38.1241,-28.6197 32.7161,-19.5091 31.2623,-30.0037 38.1241,-28.6197"/>
</g>
<!-- Node5&#45;&gt;Node3 -->
<g id="edge6" class="edge"><title>Node5&#45;&gt;Node3</title>
<path fill="none" stroke="midnightblue" d="M153.463,-56.3993C142.156,-47.3076 127.458,-35.4899 115.893,-26.1909"/>
<polygon fill="midnightblue" stroke="midnightblue" points="117.754,-23.1964 107.768,-19.6578 113.368,-28.6517 117.754,-23.1964"/>
</g>
<!-- Node6 -->
<g id="node7" class="node"><title>Node6</title>
<polygon fill="white" stroke="#bfbfbf" points="141,-0.5 141,-19.5 227,-19.5 227,-0.5 141,-0.5"/>
<text text-anchor="middle" x="184" y="-7.5" font-family="Helvetica,sans-Serif" font-size="10.00">odb/lazy&#45;ptr.hxx</text>
</g>
<!-- Node5&#45;&gt;Node6 -->
<g id="edge7" class="edge"><title>Node5&#45;&gt;Node6</title>
<path fill="none" stroke="midnightblue" d="M174.081,-56.3993C175.834,-48.3772 178.05,-38.2328 179.943,-29.569"/>
<polygon fill="midnightblue" stroke="midnightblue" points="183.393,-30.1744 182.108,-19.6578 176.554,-28.6802 183.393,-30.1744"/>
</g>
</g>
</svg>
