<?xml version="1.0" encoding="UTF-8" standalone="no"?>
<!DOCTYPE svg PUBLIC "-//W3C//DTD SVG 1.1//EN"
 "http://www.w3.org/Graphics/SVG/1.1/DTD/svg11.dtd">
<!-- Generated by graphviz version 2.38.0 (20140413.2041)
 -->
<!-- Title: src/modules/websock&#45;api/api/search/SearchBase.hpp Pages: 1 -->
<!--zoomable 330 -->
<svg id="main" version="1.1" xmlns="http://www.w3.org/2000/svg" xmlns:xlink="http://www.w3.org/1999/xlink" xml:space="preserve" onload="init(evt)">
<style type="text/css"><![CDATA[
.edge:hover path { stroke: red; }
.edge:hover polygon { stroke: red; fill: red; }
]]></style>
<script type="text/javascript"><![CDATA[
var edges = document.getElementsByTagName('g');
if (edges && edges.length) {
  for (var i=0;i<edges.length;i++) {
    if (edges[i].id.substr(0,4)=='edge') {
      edges[i].setAttribute('class','edge');
    }
  }
}
]]></script>
        <defs>
                <circle id="rim" cx="0" cy="0" r="7"/>
                <circle id="rim2" cx="0" cy="0" r="3.5"/>
                <g id="zoomPlus">
                        <use xlink:href="#rim" fill="#404040">
                                <set attributeName="fill" to="#808080" begin="zoomplus.mouseover" end="zoomplus.mouseout"/>
                        </use>
                        <path d="M-4,0h8M0,-4v8" fill="none" stroke="white" stroke-width="1.5" pointer-events="none"/>
                </g>
                <g id="zoomMin">
                        <use xlink:href="#rim" fill="#404040">
                                <set attributeName="fill" to="#808080" begin="zoomminus.mouseover" end="zoomminus.mouseout"/>
                        </use>
                        <path d="M-4,0h8" fill="none" stroke="white" stroke-width="1.5" pointer-events="none"/>
                </g>
                <g id="dirArrow">
                        <path fill="none" stroke="white" stroke-width="1.5" d="M0,-3.0v7 M-2.5,-0.5L0,-3.0L2.5,-0.5"/>
                </g>
               <g id="resetDef">
                       <use xlink:href="#rim2" fill="#404040">
                               <set attributeName="fill" to="#808080" begin="reset.mouseover" end="reset.mouseout"/>
                       </use>
               </g>
        </defs>

<script type="text/javascript">
var viewWidth = 1432;
var viewHeight = 330;
var sectionId = 'dynsection-0';
</script>
<script xlink:href="../../svgpan.js"/>
<svg id="graph" class="graph">
<g id="viewport">
<title>src/modules/websock&#45;api/api/search/SearchBase.hpp</title>
<polygon fill="white" stroke="none" points="-4,4 -4,-326 1427.5,-326 1427.5,4 -4,4"/>
<!-- Node0 -->
<g id="node1" class="node"><title>Node0</title>
<polygon fill="#bfbfbf" stroke="black" points="1085.5,-291.5 1085.5,-321.5 1240.5,-321.5 1240.5,-291.5 1085.5,-291.5"/>
<text text-anchor="start" x="1093.5" y="-309.5" font-family="Helvetica,sans-Serif" font-size="10.00">src/modules/websock</text>
<text text-anchor="middle" x="1163" y="-298.5" font-family="Helvetica,sans-Serif" font-size="10.00">&#45;api/api/search/SearchBase.hpp</text>
</g>
<!-- Node1 -->
<g id="node2" class="node"><title>Node1</title>
<g id="a_node2"><a xlink:href="../../d0/dee/DBService_8hpp.html" target="_top" xlink:title="tools/db/DBService.hpp">
<polygon fill="white" stroke="black" points="476,-235.5 476,-254.5 596,-254.5 596,-235.5 476,-235.5"/>
<text text-anchor="middle" x="536" y="-242.5" font-family="Helvetica,sans-Serif" font-size="10.00">tools/db/DBService.hpp</text>
</a>
</g>
</g>
<!-- Node0&#45;&gt;Node1 -->
<g id="edge1" class="edge"><title>Node0&#45;&gt;Node1</title>
<path fill="none" stroke="midnightblue" d="M1085.49,-298.144C962.44,-286.468 724.264,-263.866 606.057,-252.648"/>
<polygon fill="midnightblue" stroke="midnightblue" points="606.319,-249.157 596.033,-251.697 605.658,-256.126 606.319,-249.157"/>
</g>
<!-- Node18 -->
<g id="node19" class="node"><title>Node18</title>
<g id="a_node19"><a xlink:href="../../d4/d3d/log_8hpp.html" target="_top" xlink:title="tools/log.hpp">
<polygon fill="white" stroke="black" points="1127,-235.5 1127,-254.5 1199,-254.5 1199,-235.5 1127,-235.5"/>
<text text-anchor="middle" x="1163" y="-242.5" font-family="Helvetica,sans-Serif" font-size="10.00">tools/log.hpp</text>
</a>
</g>
</g>
<!-- Node0&#45;&gt;Node18 -->
<g id="edge30" class="edge"><title>Node0&#45;&gt;Node18</title>
<path fill="none" stroke="midnightblue" d="M1163,-291.399C1163,-283.466 1163,-273.458 1163,-264.858"/>
<polygon fill="midnightblue" stroke="midnightblue" points="1166.5,-264.658 1163,-254.658 1159.5,-264.658 1166.5,-264.658"/>
</g>
<!-- Node24 -->
<g id="node25" class="node"><title>Node24</title>
<polygon fill="white" stroke="#bfbfbf" points="1217.5,-235.5 1217.5,-254.5 1270.5,-254.5 1270.5,-235.5 1217.5,-235.5"/>
<text text-anchor="middle" x="1244" y="-242.5" font-family="Helvetica,sans-Serif" font-size="10.00">json.hpp</text>
</g>
<!-- Node0&#45;&gt;Node24 -->
<g id="edge37" class="edge"><title>Node0&#45;&gt;Node24</title>
<path fill="none" stroke="midnightblue" d="M1182.2,-291.399C1194.82,-282.129 1211.29,-270.025 1224.06,-260.647"/>
<polygon fill="midnightblue" stroke="midnightblue" points="1226.23,-263.399 1232.21,-254.658 1222.08,-257.757 1226.23,-263.399"/>
</g>
<!-- Node2 -->
<g id="node3" class="node"><title>Node2</title>
<g id="a_node3"><a xlink:href="../../d3/dd8/IAuditEntry_8hpp.html" target="_top" xlink:title="core/audit/IAuditEntry.hpp">
<polygon fill="white" stroke="black" points="251,-179.5 251,-198.5 381,-198.5 381,-179.5 251,-179.5"/>
<text text-anchor="middle" x="316" y="-186.5" font-family="Helvetica,sans-Serif" font-size="10.00">core/audit/IAuditEntry.hpp</text>
</a>
</g>
</g>
<!-- Node1&#45;&gt;Node2 -->
<g id="edge2" class="edge"><title>Node1&#45;&gt;Node2</title>
<path fill="none" stroke="midnightblue" d="M501.14,-235.444C463.084,-226.102 402.042,-211.119 360.54,-200.933"/>
<polygon fill="midnightblue" stroke="midnightblue" points="361.243,-197.501 350.697,-198.516 359.574,-204.299 361.243,-197.501"/>
</g>
<!-- Node8 -->
<g id="node9" class="node"><title>Node8</title>
<g id="a_node9"><a xlink:href="../../d3/d6f/AuthFwd_8hpp.html" target="_top" xlink:title="core/auth/AuthFwd.hpp">
<polygon fill="white" stroke="black" points="0,-118 0,-137 118,-137 118,-118 0,-118"/>
<text text-anchor="middle" x="59" y="-125" font-family="Helvetica,sans-Serif" font-size="10.00">core/auth/AuthFwd.hpp</text>
</a>
</g>
</g>
<!-- Node1&#45;&gt;Node8 -->
<g id="edge18" class="edge"><title>Node1&#45;&gt;Node8</title>
<path fill="none" stroke="midnightblue" d="M475.816,-238.628C415.838,-232.381 321.471,-220.124 242,-199 185.155,-183.89 121.693,-157.068 86.4328,-141.222"/>
<polygon fill="midnightblue" stroke="midnightblue" points="87.8169,-138.007 77.2642,-137.063 84.9249,-144.381 87.8169,-138.007"/>
</g>
<!-- Node14 -->
<g id="node15" class="node"><title>Node14</title>
<g id="a_node15"><a xlink:href="../../d7/d7f/CredentialFwd_8hpp.html" target="_top" xlink:title="core/credentials/Credential\lFwd.hpp">
<polygon fill="white" stroke="black" points="314.5,-112.5 314.5,-142.5 447.5,-142.5 447.5,-112.5 314.5,-112.5"/>
<text text-anchor="start" x="322.5" y="-130.5" font-family="Helvetica,sans-Serif" font-size="10.00">core/credentials/Credential</text>
<text text-anchor="middle" x="381" y="-119.5" font-family="Helvetica,sans-Serif" font-size="10.00">Fwd.hpp</text>
</a>
</g>
</g>
<!-- Node1&#45;&gt;Node14 -->
<g id="edge19" class="edge"><title>Node1&#45;&gt;Node14</title>
<path fill="none" stroke="midnightblue" d="M524.35,-235.319C499.816,-217.037 442.275,-174.16 408.021,-148.635"/>
<polygon fill="midnightblue" stroke="midnightblue" points="409.959,-145.714 399.849,-142.545 405.776,-151.327 409.959,-145.714"/>
</g>
<!-- Node15 -->
<g id="node16" class="node"><title>Node15</title>
<g id="a_node16"><a xlink:href="../../d2/d0e/UpdateFwd_8hpp.html" target="_top" xlink:title="core/update/UpdateFwd.hpp">
<polygon fill="white" stroke="black" points="466,-118 466,-137 606,-137 606,-118 466,-118"/>
<text text-anchor="middle" x="536" y="-125" font-family="Helvetica,sans-Serif" font-size="10.00">core/update/UpdateFwd.hpp</text>
</a>
</g>
</g>
<!-- Node1&#45;&gt;Node15 -->
<g id="edge22" class="edge"><title>Node1&#45;&gt;Node15</title>
<path fill="none" stroke="midnightblue" d="M536,-235.319C536,-216.757 536,-172.839 536,-147.473"/>
<polygon fill="midnightblue" stroke="midnightblue" points="539.5,-147.282 536,-137.282 532.5,-147.282 539.5,-147.282"/>
</g>
<!-- Node16 -->
<g id="node17" class="node"><title>Node16</title>
<g id="a_node17"><a xlink:href="../../d8/d97/ToolsFwd_8hpp.html" target="_top" xlink:title="tools/ToolsFwd.hpp">
<polygon fill="white" stroke="black" points="624,-118 624,-137 726,-137 726,-118 624,-118"/>
<text text-anchor="middle" x="675" y="-125" font-family="Helvetica,sans-Serif" font-size="10.00">tools/ToolsFwd.hpp</text>
</a>
</g>
</g>
<!-- Node1&#45;&gt;Node16 -->
<g id="edge25" class="edge"><title>Node1&#45;&gt;Node16</title>
<path fill="none" stroke="midnightblue" d="M546.448,-235.319C569.893,-215.837 626.952,-168.425 656.533,-143.845"/>
<polygon fill="midnightblue" stroke="midnightblue" points="658.977,-146.365 664.431,-137.282 654.503,-140.981 658.977,-146.365"/>
</g>
<!-- Node17 -->
<g id="node18" class="node"><title>Node17</title>
<g id="a_node18"><a xlink:href="../../d9/d69/db__fwd_8hpp.html" target="_top" xlink:title="tools/db/db_fwd.hpp">
<polygon fill="white" stroke="black" points="652,-179.5 652,-198.5 756,-198.5 756,-179.5 652,-179.5"/>
<text text-anchor="middle" x="704" y="-186.5" font-family="Helvetica,sans-Serif" font-size="10.00">tools/db/db_fwd.hpp</text>
</a>
</g>
</g>
<!-- Node1&#45;&gt;Node17 -->
<g id="edge28" class="edge"><title>Node1&#45;&gt;Node17</title>
<path fill="none" stroke="midnightblue" d="M562.62,-235.444C591.006,-226.32 636.137,-211.813 667.753,-201.651"/>
<polygon fill="midnightblue" stroke="midnightblue" points="669.055,-204.909 677.504,-198.516 666.913,-198.244 669.055,-204.909"/>
</g>
<!-- Node3 -->
<g id="node4" class="node"><title>Node3</title>
<g id="a_node4"><a xlink:href="../../d7/dcf/AuditFwd_8hpp.html" target="_top" xlink:title="core/audit/AuditFwd.hpp">
<polygon fill="white" stroke="black" points="136,-118 136,-137 258,-137 258,-118 136,-118"/>
<text text-anchor="middle" x="197" y="-125" font-family="Helvetica,sans-Serif" font-size="10.00">core/audit/AuditFwd.hpp</text>
</a>
</g>
</g>
<!-- Node2&#45;&gt;Node3 -->
<g id="edge3" class="edge"><title>Node2&#45;&gt;Node3</title>
<path fill="none" stroke="midnightblue" d="M298.95,-179.475C279.156,-169.578 246.283,-153.142 223.23,-141.615"/>
<polygon fill="midnightblue" stroke="midnightblue" points="224.528,-138.351 214.018,-137.009 221.397,-144.612 224.528,-138.351"/>
</g>
<!-- Node6 -->
<g id="node7" class="node"><title>Node6</title>
<polygon fill="white" stroke="#bfbfbf" points="398,-56.5 398,-75.5 450,-75.5 450,-56.5 398,-56.5"/>
<text text-anchor="middle" x="424" y="-63.5" font-family="Helvetica,sans-Serif" font-size="10.00">memory</text>
</g>
<!-- Node2&#45;&gt;Node6 -->
<g id="edge17" class="edge"><title>Node2&#45;&gt;Node6</title>
<path fill="none" stroke="midnightblue" d="M311.068,-179.127C303.363,-163.942 290.752,-132.62 305,-112 309.992,-104.775 354.714,-89.1579 387.872,-78.3653"/>
<polygon fill="midnightblue" stroke="midnightblue" points="389.291,-81.5853 397.734,-75.1854 387.142,-74.9231 389.291,-81.5853"/>
</g>
<!-- Node2&#45;&gt;Node8 -->
<g id="edge8" class="edge"><title>Node2&#45;&gt;Node8</title>
<path fill="none" stroke="midnightblue" d="M279.178,-179.475C233.471,-168.893 155.475,-150.836 105.634,-139.297"/>
<polygon fill="midnightblue" stroke="midnightblue" points="106.285,-135.855 95.7535,-137.009 104.706,-142.674 106.285,-135.855"/>
</g>
<!-- Node9 -->
<g id="node10" class="node"><title>Node9</title>
<g id="a_node10"><a xlink:href="../../dd/d9d/IVisitable_8hpp.html" target="_top" xlink:title="tools/IVisitable.hpp">
<polygon fill="white" stroke="black" points="782,-118 782,-137 882,-137 882,-118 782,-118"/>
<text text-anchor="middle" x="832" y="-125" font-family="Helvetica,sans-Serif" font-size="10.00">tools/IVisitable.hpp</text>
</a>
</g>
</g>
<!-- Node2&#45;&gt;Node9 -->
<g id="edge12" class="edge"><title>Node2&#45;&gt;Node9</title>
<path fill="none" stroke="midnightblue" d="M381.058,-181.855C463.523,-173.873 610.005,-159.048 735,-143 746.875,-141.475 759.544,-139.694 771.676,-137.913"/>
<polygon fill="midnightblue" stroke="midnightblue" points="772.333,-141.354 781.71,-136.422 771.304,-134.43 772.333,-141.354"/>
</g>
<!-- Node13 -->
<g id="node14" class="node"><title>Node13</title>
<polygon fill="white" stroke="#bfbfbf" points="900.5,-112.5 900.5,-142.5 1013.5,-142.5 1013.5,-112.5 900.5,-112.5"/>
<text text-anchor="start" x="908.5" y="-130.5" font-family="Helvetica,sans-Serif" font-size="10.00">boost/date_time/posix</text>
<text text-anchor="middle" x="957" y="-119.5" font-family="Helvetica,sans-Serif" font-size="10.00">_time/posix_time.hpp</text>
</g>
<!-- Node2&#45;&gt;Node13 -->
<g id="edge16" class="edge"><title>Node2&#45;&gt;Node13</title>
<path fill="none" stroke="midnightblue" d="M381.002,-185.839C486.066,-181.703 699.799,-170.627 890.296,-142.957"/>
<polygon fill="midnightblue" stroke="midnightblue" points="890.826,-146.417 900.211,-141.498 889.808,-139.491 890.826,-146.417"/>
</g>
<!-- Node4 -->
<g id="node5" class="node"><title>Node4</title>
<polygon fill="white" stroke="#bfbfbf" points="66.5,-56.5 66.5,-75.5 115.5,-75.5 115.5,-56.5 66.5,-56.5"/>
<text text-anchor="middle" x="91" y="-63.5" font-family="Helvetica,sans-Serif" font-size="10.00">cstddef</text>
</g>
<!-- Node3&#45;&gt;Node4 -->
<g id="edge4" class="edge"><title>Node3&#45;&gt;Node4</title>
<path fill="none" stroke="midnightblue" d="M181.813,-117.975C164.338,-108.166 135.421,-91.9346 114.917,-80.425"/>
<polygon fill="midnightblue" stroke="midnightblue" points="116.592,-77.3519 106.159,-75.5091 113.166,-83.456 116.592,-77.3519"/>
</g>
<!-- Node5 -->
<g id="node6" class="node"><title>Node5</title>
<polygon fill="white" stroke="#bfbfbf" points="164.5,-56.5 164.5,-75.5 229.5,-75.5 229.5,-56.5 164.5,-56.5"/>
<text text-anchor="middle" x="197" y="-63.5" font-family="Helvetica,sans-Serif" font-size="10.00">flagset.hpp</text>
</g>
<!-- Node3&#45;&gt;Node5 -->
<g id="edge5" class="edge"><title>Node3&#45;&gt;Node5</title>
<path fill="none" stroke="midnightblue" d="M197,-117.975C197,-109.58 197,-96.4806 197,-85.6631"/>
<polygon fill="midnightblue" stroke="midnightblue" points="200.5,-85.5091 197,-75.5091 193.5,-85.5091 200.5,-85.5091"/>
</g>
<!-- Node3&#45;&gt;Node6 -->
<g id="edge6" class="edge"><title>Node3&#45;&gt;Node6</title>
<path fill="none" stroke="midnightblue" d="M229.524,-117.975C271.516,-106.968 344.367,-87.873 387.99,-76.4387"/>
<polygon fill="midnightblue" stroke="midnightblue" points="389.102,-79.7657 397.888,-73.8445 387.327,-72.9944 389.102,-79.7657"/>
</g>
<!-- Node7 -->
<g id="node8" class="node"><title>Node7</title>
<polygon fill="white" stroke="#bfbfbf" points="294,-56.5 294,-75.5 380,-75.5 380,-56.5 294,-56.5"/>
<text text-anchor="middle" x="337" y="-63.5" font-family="Helvetica,sans-Serif" font-size="10.00">odb/lazy&#45;ptr.hxx</text>
</g>
<!-- Node3&#45;&gt;Node7 -->
<g id="edge7" class="edge"><title>Node3&#45;&gt;Node7</title>
<path fill="none" stroke="midnightblue" d="M217.059,-117.975C240.762,-107.901 280.406,-91.0525 307.583,-79.5023"/>
<polygon fill="midnightblue" stroke="midnightblue" points="309.144,-82.6417 316.979,-75.5091 306.406,-76.1994 309.144,-82.6417"/>
</g>
<!-- Node8&#45;&gt;Node4 -->
<g id="edge9" class="edge"><title>Node8&#45;&gt;Node4</title>
<path fill="none" stroke="midnightblue" d="M63.5848,-117.975C68.2423,-109.315 75.5924,-95.6486 81.5101,-84.6453"/>
<polygon fill="midnightblue" stroke="midnightblue" points="84.7695,-85.974 86.4237,-75.5091 78.6046,-82.6584 84.7695,-85.974"/>
</g>
<!-- Node8&#45;&gt;Node6 -->
<g id="edge10" class="edge"><title>Node8&#45;&gt;Node6</title>
<path fill="none" stroke="midnightblue" d="M96.6704,-117.951C106.514,-115.859 117.131,-113.728 127,-112 239.612,-92.2844 271.916,-98.3142 387.732,-76.0544"/>
<polygon fill="midnightblue" stroke="midnightblue" points="388.556,-79.4595 397.701,-74.1088 387.216,-72.5891 388.556,-79.4595"/>
</g>
<!-- Node8&#45;&gt;Node7 -->
<g id="edge11" class="edge"><title>Node8&#45;&gt;Node7</title>
<path fill="none" stroke="midnightblue" d="M98.8306,-117.975C148.479,-107.349 233.347,-89.1847 287.229,-77.6524"/>
<polygon fill="midnightblue" stroke="midnightblue" points="288.197,-81.0245 297.243,-75.5091 286.732,-74.1796 288.197,-81.0245"/>
</g>
<!-- Node10 -->
<g id="node11" class="node"><title>Node10</title>
<g id="a_node11"><a xlink:href="../../d2/d91/Visitor_8hpp.html" target="_top" xlink:title="tools/Visitor.hpp">
<polygon fill="white" stroke="black" points="788.5,-56.5 788.5,-75.5 875.5,-75.5 875.5,-56.5 788.5,-56.5"/>
<text text-anchor="middle" x="832" y="-63.5" font-family="Helvetica,sans-Serif" font-size="10.00">tools/Visitor.hpp</text>
</a>
</g>
</g>
<!-- Node9&#45;&gt;Node10 -->
<g id="edge13" class="edge"><title>Node9&#45;&gt;Node10</title>
<path fill="none" stroke="midnightblue" d="M832,-117.975C832,-109.58 832,-96.4806 832,-85.6631"/>
<polygon fill="midnightblue" stroke="midnightblue" points="835.5,-85.5091 832,-75.5091 828.5,-85.5091 835.5,-85.5091"/>
</g>
<!-- Node12 -->
<g id="node13" class="node"><title>Node12</title>
<polygon fill="white" stroke="#bfbfbf" points="955.5,-56.5 955.5,-75.5 1004.5,-75.5 1004.5,-56.5 955.5,-56.5"/>
<text text-anchor="middle" x="980" y="-63.5" font-family="Helvetica,sans-Serif" font-size="10.00">cassert</text>
</g>
<!-- Node9&#45;&gt;Node12 -->
<g id="edge15" class="edge"><title>Node9&#45;&gt;Node12</title>
<path fill="none" stroke="midnightblue" d="M853.205,-117.975C878.372,-107.857 920.54,-90.9046 949.279,-79.3507"/>
<polygon fill="midnightblue" stroke="midnightblue" points="950.862,-82.4867 958.835,-75.5091 948.251,-75.9919 950.862,-82.4867"/>
</g>
<!-- Node11 -->
<g id="node12" class="node"><title>Node11</title>
<polygon fill="white" stroke="#bfbfbf" points="801,-0.5 801,-19.5 863,-19.5 863,-0.5 801,-0.5"/>
<text text-anchor="middle" x="832" y="-7.5" font-family="Helvetica,sans-Serif" font-size="10.00">type_traits</text>
</g>
<!-- Node10&#45;&gt;Node11 -->
<g id="edge14" class="edge"><title>Node10&#45;&gt;Node11</title>
<path fill="none" stroke="midnightblue" d="M832,-56.083C832,-49.0059 832,-38.8611 832,-29.9865"/>
<polygon fill="midnightblue" stroke="midnightblue" points="835.5,-29.751 832,-19.7511 828.5,-29.7511 835.5,-29.751"/>
</g>
<!-- Node14&#45;&gt;Node6 -->
<g id="edge20" class="edge"><title>Node14&#45;&gt;Node6</title>
<path fill="none" stroke="midnightblue" d="M391.19,-112.399C397.374,-103.842 405.303,-92.8708 411.818,-83.857"/>
<polygon fill="midnightblue" stroke="midnightblue" points="414.722,-85.8129 417.743,-75.6578 409.049,-81.7127 414.722,-85.8129"/>
</g>
<!-- Node14&#45;&gt;Node7 -->
<g id="edge21" class="edge"><title>Node14&#45;&gt;Node7</title>
<path fill="none" stroke="midnightblue" d="M370.573,-112.399C364.245,-103.842 356.131,-92.8708 349.466,-83.857"/>
<polygon fill="midnightblue" stroke="midnightblue" points="352.162,-81.6171 343.402,-75.6578 346.534,-85.7792 352.162,-81.6171"/>
</g>
<!-- Node15&#45;&gt;Node6 -->
<g id="edge23" class="edge"><title>Node15&#45;&gt;Node6</title>
<path fill="none" stroke="midnightblue" d="M519.953,-117.975C501.407,-108.122 470.66,-91.7883 448.978,-80.2697"/>
<polygon fill="midnightblue" stroke="midnightblue" points="450.49,-77.1098 440.017,-75.5091 447.206,-83.2916 450.49,-77.1098"/>
</g>
<!-- Node15&#45;&gt;Node7 -->
<g id="edge24" class="edge"><title>Node15&#45;&gt;Node7</title>
<path fill="none" stroke="midnightblue" d="M507.488,-117.975C472.762,-107.592 413.963,-90.0116 375.308,-78.4538"/>
<polygon fill="midnightblue" stroke="midnightblue" points="376.043,-75.0205 365.459,-75.5091 374.037,-81.7271 376.043,-75.0205"/>
</g>
<!-- Node16&#45;&gt;Node6 -->
<g id="edge26" class="edge"><title>Node16&#45;&gt;Node6</title>
<path fill="none" stroke="midnightblue" d="M639.792,-117.956C631.653,-115.99 623.026,-113.915 615,-112 561.236,-99.1702 498.902,-84.5277 460.456,-75.5235"/>
<polygon fill="midnightblue" stroke="midnightblue" points="460.807,-72.0111 450.272,-73.1395 459.211,-78.8269 460.807,-72.0111"/>
</g>
<!-- Node16&#45;&gt;Node7 -->
<g id="edge27" class="edge"><title>Node16&#45;&gt;Node7</title>
<path fill="none" stroke="midnightblue" d="M641.781,-117.976C633.095,-115.884 623.722,-113.746 615,-112 518.384,-92.662 491.028,-92.6537 390.122,-76.1584"/>
<polygon fill="midnightblue" stroke="midnightblue" points="390.559,-72.6832 380.123,-74.5094 389.42,-79.5899 390.559,-72.6832"/>
</g>
<!-- Node17&#45;&gt;Node6 -->
<g id="edge29" class="edge"><title>Node17&#45;&gt;Node6</title>
<path fill="none" stroke="midnightblue" d="M713.111,-179.049C727.597,-163.747 752.534,-132.254 735,-112 699.86,-71.4095 534.922,-66.6339 460.542,-66.5951"/>
<polygon fill="midnightblue" stroke="midnightblue" points="460.242,-63.0957 450.251,-66.62 460.259,-70.0957 460.242,-63.0957"/>
</g>
<!-- Node18&#45;&gt;Node12 -->
<g id="edge31" class="edge"><title>Node18&#45;&gt;Node12</title>
<path fill="none" stroke="midnightblue" d="M1127.63,-235.386C1106.07,-228.586 1079.26,-217.149 1061,-199 1030.95,-169.126 1045.44,-147.3 1022,-112 1014.92,-101.341 1005.28,-90.8082 997.015,-82.6159"/>
<polygon fill="midnightblue" stroke="midnightblue" points="999.287,-79.9451 989.646,-75.5507 994.442,-84.9979 999.287,-79.9451"/>
</g>
<!-- Node19 -->
<g id="node20" class="node"><title>Node19</title>
<polygon fill="white" stroke="#bfbfbf" points="1070.5,-179.5 1070.5,-198.5 1117.5,-198.5 1117.5,-179.5 1070.5,-179.5"/>
<text text-anchor="middle" x="1094" y="-186.5" font-family="Helvetica,sans-Serif" font-size="10.00">csignal</text>
</g>
<!-- Node18&#45;&gt;Node19 -->
<g id="edge32" class="edge"><title>Node18&#45;&gt;Node19</title>
<path fill="none" stroke="midnightblue" d="M1151.91,-235.324C1141.51,-227.185 1125.74,-214.839 1113.28,-205.087"/>
<polygon fill="midnightblue" stroke="midnightblue" points="1115.32,-202.241 1105.29,-198.834 1111.01,-207.753 1115.32,-202.241"/>
</g>
<!-- Node20 -->
<g id="node21" class="node"><title>Node20</title>
<polygon fill="white" stroke="#bfbfbf" points="1136,-179.5 1136,-198.5 1190,-198.5 1190,-179.5 1136,-179.5"/>
<text text-anchor="middle" x="1163" y="-186.5" font-family="Helvetica,sans-Serif" font-size="10.00">iostream</text>
</g>
<!-- Node18&#45;&gt;Node20 -->
<g id="edge33" class="edge"><title>Node18&#45;&gt;Node20</title>
<path fill="none" stroke="midnightblue" d="M1163,-235.083C1163,-228.006 1163,-217.861 1163,-208.986"/>
<polygon fill="midnightblue" stroke="midnightblue" points="1166.5,-208.751 1163,-198.751 1159.5,-208.751 1166.5,-208.751"/>
</g>
<!-- Node21 -->
<g id="node22" class="node"><title>Node21</title>
<polygon fill="white" stroke="#bfbfbf" points="1208.5,-179.5 1208.5,-198.5 1293.5,-198.5 1293.5,-179.5 1208.5,-179.5"/>
<text text-anchor="middle" x="1251" y="-186.5" font-family="Helvetica,sans-Serif" font-size="10.00">spdlog/spdlog.h</text>
</g>
<!-- Node18&#45;&gt;Node21 -->
<g id="edge34" class="edge"><title>Node18&#45;&gt;Node21</title>
<path fill="none" stroke="midnightblue" d="M1177.14,-235.324C1190.87,-226.9 1211.94,-213.971 1228.06,-204.074"/>
<polygon fill="midnightblue" stroke="midnightblue" points="1230.2,-206.868 1236.9,-198.655 1226.54,-200.902 1230.2,-206.868"/>
</g>
<!-- Node22 -->
<g id="node23" class="node"><title>Node22</title>
<polygon fill="white" stroke="#bfbfbf" points="1312,-179.5 1312,-198.5 1364,-198.5 1364,-179.5 1312,-179.5"/>
<text text-anchor="middle" x="1338" y="-186.5" font-family="Helvetica,sans-Serif" font-size="10.00">sstream</text>
</g>
<!-- Node18&#45;&gt;Node22 -->
<g id="edge35" class="edge"><title>Node18&#45;&gt;Node22</title>
<path fill="none" stroke="midnightblue" d="M1190.73,-235.444C1220.86,-226.145 1269.11,-211.257 1302.11,-201.073"/>
<polygon fill="midnightblue" stroke="midnightblue" points="1303.31,-204.368 1311.83,-198.075 1301.24,-197.68 1303.31,-204.368"/>
</g>
<!-- Node23 -->
<g id="node24" class="node"><title>Node23</title>
<polygon fill="white" stroke="#bfbfbf" points="1382.5,-179.5 1382.5,-198.5 1423.5,-198.5 1423.5,-179.5 1382.5,-179.5"/>
<text text-anchor="middle" x="1403" y="-186.5" font-family="Helvetica,sans-Serif" font-size="10.00">string</text>
</g>
<!-- Node18&#45;&gt;Node23 -->
<g id="edge36" class="edge"><title>Node18&#45;&gt;Node23</title>
<path fill="none" stroke="midnightblue" d="M1199.37,-236.575C1246.7,-226.854 1327.75,-209.991 1372.61,-198.897"/>
<polygon fill="midnightblue" stroke="midnightblue" points="1373.57,-202.266 1382.4,-196.416 1371.85,-195.48 1373.57,-202.266"/>
</g>
</g>
</svg>
        <g id="navigator" transform="translate(0 0)" fill="#404254">
                <rect fill="#f2f5e9" fill-opacity="0.5" stroke="#606060" stroke-width=".5" x="0" y="0" width="60" height="60"/>
                <use id="zoomplus" xlink:href="#zoomPlus" x="17" y="9" onmousedown="handleZoom(evt,'in')"/>
                <use id="zoomminus" xlink:href="#zoomMin" x="42" y="9" onmousedown="handleZoom(evt,'out')"/>
                <use id="reset" xlink:href="#resetDef" x="30" y="36" onmousedown="handleReset()"/>
                <g id="arrowUp" xlink:href="#dirArrow" transform="translate(30 24)" onmousedown="handlePan(0,-1)">
                  <use xlink:href="#rim" fill="#404040">
                        <set attributeName="fill" to="#808080" begin="arrowUp.mouseover" end="arrowUp.mouseout"/>
                  </use>
                  <path fill="none" stroke="white" stroke-width="1.5" d="M0,-3.0v7 M-2.5,-0.5L0,-3.0L2.5,-0.5"/>
                </g>
                <g id="arrowRight" xlink:href="#dirArrow" transform="rotate(90) translate(36 -43)" onmousedown="handlePan(1,0)">
                  <use xlink:href="#rim" fill="#404040">
                        <set attributeName="fill" to="#808080" begin="arrowRight.mouseover" end="arrowRight.mouseout"/>
                  </use>
                  <path fill="none" stroke="white" stroke-width="1.5" d="M0,-3.0v7 M-2.5,-0.5L0,-3.0L2.5,-0.5"/>
                </g>
                <g id="arrowDown" xlink:href="#dirArrow" transform="rotate(180) translate(-30 -48)" onmousedown="handlePan(0,1)">
                  <use xlink:href="#rim" fill="#404040">
                        <set attributeName="fill" to="#808080" begin="arrowDown.mouseover" end="arrowDown.mouseout"/>
                  </use>
                  <path fill="none" stroke="white" stroke-width="1.5" d="M0,-3.0v7 M-2.5,-0.5L0,-3.0L2.5,-0.5"/>
                </g>
                <g id="arrowLeft" xlink:href="#dirArrow" transform="rotate(270) translate(-36 17)" onmousedown="handlePan(-1,0)">
                  <use xlink:href="#rim" fill="#404040">
                        <set attributeName="fill" to="#808080" begin="arrowLeft.mouseover" end="arrowLeft.mouseout"/>
                  </use>
                  <path fill="none" stroke="white" stroke-width="1.5" d="M0,-3.0v7 M-2.5,-0.5L0,-3.0L2.5,-0.5"/>
                </g>
        </g>
        <svg viewBox="0 0 15 15" width="100%" height="30px" preserveAspectRatio="xMaxYMin meet">
         <g id="arrow_out" transform="scale(0.3 0.3)">
          <a xlink:href="SearchBase_8hpp__incl_org.svg" target="_base">
           <rect id="button" ry="5" rx="5" y="6" x="6" height="38" width="38"
                fill="#f2f5e9" fill-opacity="0.5" stroke="#606060" stroke-width="1.0"/>
           <path id="arrow"
             d="M 11.500037,31.436501 C 11.940474,20.09759 22.043105,11.32322 32.158766,21.979434 L 37.068811,17.246167 C 37.068811,17.246167 37.088388,32 37.088388,32 L 22.160133,31.978069 C 22.160133,31.978069 26.997745,27.140456 26.997745,27.140456 C 18.528582,18.264221 13.291696,25.230495 11.500037,31.436501 z"
             style="fill:#404040;"/>
          </a>
         </g>
        </svg>
</svg>
