<?xml version="1.0" encoding="UTF-8" standalone="no"?>
<!DOCTYPE svg PUBLIC "-//W3C//DTD SVG 1.1//EN"
 "http://www.w3.org/Graphics/SVG/1.1/DTD/svg11.dtd">
<!-- Generated by graphviz version 2.38.0 (20140413.2041)
 -->
<!-- Title: Leosac::Audit::WSAPICall Pages: 1 -->
<svg width="738pt" height="234pt"
 viewBox="0.00 0.00 738.00 233.50" xmlns="http://www.w3.org/2000/svg" xmlns:xlink="http://www.w3.org/1999/xlink">
<g id="graph0" class="graph" transform="scale(1 1) rotate(0) translate(4 229.5)">
<title>Leosac::Audit::WSAPICall</title>
<polygon fill="white" stroke="none" points="-4,4 -4,-229.5 734,-229.5 734,4 -4,4"/>
<!-- Node6 -->
<g id="node1" class="node"><title>Node6</title>
<polygon fill="#bfbfbf" stroke="black" points="593.5,-48.5 593.5,-67.5 726.5,-67.5 726.5,-48.5 593.5,-48.5"/>
<text text-anchor="middle" x="660" y="-55.5" font-family="Helvetica,sans-Serif" font-size="10.00">Leosac::Audit::WSAPICall</text>
</g>
<!-- Node7 -->
<g id="node2" class="node"><title>Node7</title>
<g id="a_node2"><a xlink:href="../../d9/db5/classLeosac_1_1Audit_1_1IWSAPICall.html" target="_top" xlink:title="An audit entry dedicated to tracing API call. ">
<polygon fill="white" stroke="black" points="382,-0.5 382,-19.5 518,-19.5 518,-0.5 382,-0.5"/>
<text text-anchor="middle" x="450" y="-7.5" font-family="Helvetica,sans-Serif" font-size="10.00">Leosac::Audit::IWSAPICall</text>
</a>
</g>
</g>
<!-- Node7&#45;&gt;Node6 -->
<g id="edge1" class="edge"><title>Node7&#45;&gt;Node6</title>
<path fill="none" stroke="midnightblue" d="M502.736,-21.9391C538.147,-30.1109 584.481,-40.8034 617.48,-48.4185"/>
<polygon fill="midnightblue" stroke="midnightblue" points="503.123,-18.4365 492.592,-19.5982 501.549,-25.2572 503.123,-18.4365"/>
</g>
<!-- Node8 -->
<g id="node3" class="node"><title>Node8</title>
<g id="a_node3"><a xlink:href="../../d1/d44/classLeosac_1_1Audit_1_1IAuditEntry.html" target="_top" xlink:title="Base interface to Audit object. ">
<polygon fill="white" stroke="black" points="167,-9.5 167,-28.5 298,-28.5 298,-9.5 167,-9.5"/>
<text text-anchor="middle" x="232.5" y="-16.5" font-family="Helvetica,sans-Serif" font-size="10.00">Leosac::Audit::IAuditEntry</text>
</a>
</g>
</g>
<!-- Node8&#45;&gt;Node7 -->
<g id="edge2" class="edge"><title>Node8&#45;&gt;Node7</title>
<path fill="none" stroke="midnightblue" d="M308.238,-15.8787C332.139,-14.8805 358.44,-13.7821 381.772,-12.8077"/>
<polygon fill="midnightblue" stroke="midnightblue" points="308.002,-12.3854 298.157,-16.2997 308.294,-19.3793 308.002,-12.3854"/>
</g>
<!-- Node10 -->
<g id="node5" class="node"><title>Node10</title>
<g id="a_node5"><a xlink:href="../../d0/d20/classLeosac_1_1Audit_1_1AuditEntry.html" target="_top" xlink:title="Implementation of IAuditEntry, backed by ODB. ">
<polygon fill="white" stroke="black" points="386,-153.5 386,-172.5 514,-172.5 514,-153.5 386,-153.5"/>
<text text-anchor="middle" x="450" y="-160.5" font-family="Helvetica,sans-Serif" font-size="10.00">Leosac::Audit::AuditEntry</text>
</a>
</g>
</g>
<!-- Node8&#45;&gt;Node10 -->
<g id="edge5" class="edge"><title>Node8&#45;&gt;Node10</title>
<path fill="none" stroke="midnightblue" d="M272.45,-32.2023C282.698,-36.3374 293.528,-41.3267 303,-47 333.316,-65.1585 342.781,-69.7415 364,-98 375.95,-113.914 367.446,-125.427 382,-139 388.777,-145.32 397.334,-149.997 406.046,-153.451"/>
<polygon fill="midnightblue" stroke="midnightblue" points="273.457,-28.8394 262.868,-28.505 270.937,-35.3702 273.457,-28.8394"/>
</g>
<!-- Node9 -->
<g id="node4" class="node"><title>Node9</title>
<g id="a_node4"><a xlink:href="../../d0/d33/classLeosac_1_1Tools_1_1IVisitable.html" target="_top" xlink:title="Base class to make an object visitable. ">
<polygon fill="white" stroke="black" points="0,-9.5 0,-28.5 125,-28.5 125,-9.5 0,-9.5"/>
<text text-anchor="middle" x="62.5" y="-16.5" font-family="Helvetica,sans-Serif" font-size="10.00">Leosac::Tools::IVisitable</text>
</a>
</g>
</g>
<!-- Node9&#45;&gt;Node8 -->
<g id="edge3" class="edge"><title>Node9&#45;&gt;Node8</title>
<path fill="none" stroke="midnightblue" d="M135.421,-19C145.847,-19 156.527,-19 166.8,-19"/>
<polygon fill="midnightblue" stroke="midnightblue" points="135.103,-15.5001 125.103,-19 135.103,-22.5001 135.103,-15.5001"/>
</g>
<!-- Node10&#45;&gt;Node6 -->
<g id="edge4" class="edge"><title>Node10&#45;&gt;Node6</title>
<path fill="none" stroke="midnightblue" d="M490.755,-150.073C499.833,-146.761 509.351,-142.995 518,-139 565.926,-116.863 619.071,-83.8465 644.237,-67.6566"/>
<polygon fill="midnightblue" stroke="midnightblue" points="489.397,-146.841 481.139,-153.479 491.734,-153.439 489.397,-146.841"/>
</g>
<!-- Node14 -->
<g id="node9" class="node"><title>Node14</title>
<polygon fill="white" stroke="#bfbfbf" points="590,-153.5 590,-172.5 730,-172.5 730,-153.5 590,-153.5"/>
<text text-anchor="middle" x="660" y="-160.5" font-family="Helvetica,sans-Serif" font-size="10.00">std::weak_ptr&lt; AuditEntry &gt;</text>
</g>
<!-- Node10&#45;&gt;Node14 -->
<g id="edge10" class="edge"><title>Node10&#45;&gt;Node14</title>
<path fill="none" stroke="#9a32cd" stroke-dasharray="5,2" d="M524.523,-163C545.783,-163 568.907,-163 589.888,-163"/>
<polygon fill="#9a32cd" stroke="#9a32cd" points="524.254,-159.5 514.254,-163 524.254,-166.5 524.254,-159.5"/>
<text text-anchor="middle" x="554" y="-166" font-family="Helvetica,sans-Serif" font-size="10.00"> ptr</text>
</g>
<!-- Node11 -->
<g id="node6" class="node"><title>Node11</title>
<polygon fill="white" stroke="#bfbfbf" points="169.5,-195 169.5,-225 295.5,-225 295.5,-195 169.5,-195"/>
<text text-anchor="start" x="177.5" y="-213" font-family="Helvetica,sans-Serif" font-size="10.00">std::enable_shared</text>
<text text-anchor="middle" x="232.5" y="-202" font-family="Helvetica,sans-Serif" font-size="10.00">_from_this&lt; AuditEntry &gt;</text>
</g>
<!-- Node11&#45;&gt;Node10 -->
<g id="edge6" class="edge"><title>Node11&#45;&gt;Node10</title>
<path fill="none" stroke="midnightblue" d="M305.597,-194.276C338.567,-187.085 376.556,-178.8 405.148,-172.564"/>
<polygon fill="midnightblue" stroke="midnightblue" points="304.567,-190.918 295.542,-196.469 306.059,-197.757 304.567,-190.918"/>
</g>
<!-- Node12 -->
<g id="node7" class="node"><title>Node12</title>
<polygon fill="white" stroke="#bfbfbf" points="162.5,-156.5 162.5,-175.5 302.5,-175.5 302.5,-156.5 162.5,-156.5"/>
<text text-anchor="middle" x="232.5" y="-163.5" font-family="Helvetica,sans-Serif" font-size="10.00">std::vector&lt; AuditEntryPtr &gt;</text>
</g>
<!-- Node12&#45;&gt;Node10 -->
<g id="edge7" class="edge"><title>Node12&#45;&gt;Node10</title>
<path fill="none" stroke="#9a32cd" stroke-dasharray="5,2" d="M312.749,-164.897C336.817,-164.562 362.928,-164.198 385.793,-163.88"/>
<polygon fill="#9a32cd" stroke="#9a32cd" points="312.525,-161.399 302.575,-165.038 312.623,-168.399 312.525,-161.399"/>
<text text-anchor="middle" x="342.5" y="-168" font-family="Helvetica,sans-Serif" font-size="10.00"> children_</text>
</g>
<!-- Node13 -->
<g id="node8" class="node"><title>Node13</title>
<g id="a_node8"><a xlink:href="../../dd/d95/classLeosac_1_1Tools_1_1ElapsedTimeCounter.html" target="_top" xlink:title="This class provide a simple to get the elapsed time since it&#39;s creation. ">
<polygon fill="white" stroke="black" points="162,-107 162,-137 303,-137 303,-107 162,-107"/>
<text text-anchor="start" x="170" y="-125" font-family="Helvetica,sans-Serif" font-size="10.00">Leosac::Tools::ElapsedTime</text>
<text text-anchor="middle" x="232.5" y="-114" font-family="Helvetica,sans-Serif" font-size="10.00">Counter</text>
</a>
</g>
</g>
<!-- Node13&#45;&gt;Node10 -->
<g id="edge8" class="edge"><title>Node13&#45;&gt;Node10</title>
<path fill="none" stroke="#9a32cd" stroke-dasharray="5,2" d="M313.201,-137.163C341.941,-142.631 373.542,-148.644 399.024,-153.492"/>
<polygon fill="#9a32cd" stroke="#9a32cd" points="313.647,-133.686 303.169,-135.255 312.339,-140.562 313.647,-133.686"/>
<text text-anchor="middle" x="342.5" y="-150" font-family="Helvetica,sans-Serif" font-size="10.00"> etc_</text>
</g>
<!-- Node14&#45;&gt;Node10 -->
<g id="edge9" class="edge"><title>Node14&#45;&gt;Node10</title>
<path fill="none" stroke="#9a32cd" stroke-dasharray="5,2" d="M610.033,-151.591C587.524,-147.645 560.45,-144.719 536,-147 521.946,-148.311 506.753,-150.817 493.151,-153.463"/>
<polygon fill="#9a32cd" stroke="#9a32cd" points="609.554,-155.063 620.027,-153.462 610.842,-148.182 609.554,-155.063"/>
<text text-anchor="middle" x="554" y="-150" font-family="Helvetica,sans-Serif" font-size="10.00"> parent_</text>
</g>
<!-- Node15 -->
<g id="node10" class="node"><title>Node15</title>
<g id="a_node10"><a xlink:title="STL class. ">
<polygon fill="white" stroke="#bfbfbf" points="202.5,-56.5 202.5,-75.5 262.5,-75.5 262.5,-56.5 202.5,-56.5"/>
<text text-anchor="middle" x="232.5" y="-63.5" font-family="Helvetica,sans-Serif" font-size="10.00">std::string</text>
</a>
</g>
</g>
<!-- Node15&#45;&gt;Node6 -->
<g id="edge13" class="edge"><title>Node15&#45;&gt;Node6</title>
<path fill="none" stroke="#9a32cd" stroke-dasharray="5,2" d="M272.913,-65.259C346.095,-63.883 503.655,-60.9207 593.228,-59.2366"/>
<polygon fill="#9a32cd" stroke="#9a32cd" points="272.679,-61.7627 262.746,-65.4501 272.81,-68.7614 272.679,-61.7627"/>
<text text-anchor="middle" x="450" y="-133" font-family="Helvetica,sans-Serif" font-size="10.00"> request_content_</text>
<text text-anchor="middle" x="450" y="-122" font-family="Helvetica,sans-Serif" font-size="10.00">source_endpoint_</text>
<text text-anchor="middle" x="450" y="-111" font-family="Helvetica,sans-Serif" font-size="10.00">api_method_</text>
<text text-anchor="start" x="410.5" y="-100" font-family="Helvetica,sans-Serif" font-size="10.00">response_content</text>
<text text-anchor="middle" x="450" y="-89" font-family="Helvetica,sans-Serif" font-size="10.00">_</text>
<text text-anchor="middle" x="450" y="-78" font-family="Helvetica,sans-Serif" font-size="10.00">uuid_</text>
<text text-anchor="middle" x="450" y="-67" font-family="Helvetica,sans-Serif" font-size="10.00">status_string_</text>
</g>
<!-- Node15&#45;&gt;Node10 -->
<g id="edge11" class="edge"><title>Node15&#45;&gt;Node10</title>
<path fill="none" stroke="#9a32cd" stroke-dasharray="5,2" d="M270.019,-79.0886C296.964,-89.4813 334,-105.339 364,-124 372.842,-129.501 372.959,-133.831 382,-139 392.297,-144.887 404.294,-149.734 415.267,-153.493"/>
<polygon fill="#9a32cd" stroke="#9a32cd" points="271.172,-75.7827 260.581,-75.5119 268.692,-82.3284 271.172,-75.7827"/>
<text text-anchor="middle" x="342.5" y="-127" font-family="Helvetica,sans-Serif" font-size="10.00"> msg_</text>
</g>
<!-- Node16 -->
<g id="node11" class="node"><title>Node16</title>
<g id="a_node11"><a xlink:title="STL class. ">
<polygon fill="white" stroke="#bfbfbf" points="15,-51 15,-81 110,-81 110,-51 15,-51"/>
<text text-anchor="start" x="23" y="-69" font-family="Helvetica,sans-Serif" font-size="10.00">std::basic_string&lt;</text>
<text text-anchor="middle" x="62.5" y="-58" font-family="Helvetica,sans-Serif" font-size="10.00"> char &gt;</text>
</a>
</g>
</g>
<!-- Node16&#45;&gt;Node15 -->
<g id="edge12" class="edge"><title>Node16&#45;&gt;Node15</title>
<path fill="none" stroke="midnightblue" d="M120.595,-66C148.087,-66 179.879,-66 202.357,-66"/>
<polygon fill="midnightblue" stroke="midnightblue" points="120.297,-62.5001 110.297,-66 120.297,-69.5001 120.297,-62.5001"/>
</g>
</g>
</svg>
