<?xml version="1.0" encoding="UTF-8" standalone="no"?>
<!DOCTYPE svg PUBLIC "-//W3C//DTD SVG 1.1//EN"
 "http://www.w3.org/Graphics/SVG/1.1/DTD/svg11.dtd">
<!-- Generated by graphviz version 2.38.0 (20140413.2041)
 -->
<!-- Title: src/modules/smtp/SMTPAuditSerializer.hpp Pages: 1 -->
<svg width="350pt" height="106pt"
 viewBox="0.00 0.00 350.00 106.00" xmlns="http://www.w3.org/2000/svg" xmlns:xlink="http://www.w3.org/1999/xlink">
<g id="graph0" class="graph" transform="scale(1 1) rotate(0) translate(4 102)">
<title>src/modules/smtp/SMTPAuditSerializer.hpp</title>
<polygon fill="white" stroke="none" points="-4,4 -4,-102 346,-102 346,4 -4,4"/>
<!-- Node34 -->
<g id="node1" class="node"><title>Node34</title>
<polygon fill="#bfbfbf" stroke="black" points="90,-67.5 90,-97.5 238,-97.5 238,-67.5 90,-67.5"/>
<text text-anchor="start" x="98" y="-85.5" font-family="Helvetica,sans-Serif" font-size="10.00">src/modules/smtp/SMTPAudit</text>
<text text-anchor="middle" x="164" y="-74.5" font-family="Helvetica,sans-Serif" font-size="10.00">Serializer.hpp</text>
</g>
<!-- Node35 -->
<g id="node2" class="node"><title>Node35</title>
<g id="a_node2"><a xlink:href="../../d5/d3e/SMTPAuditSerializer_8cpp.html" target="_top" xlink:title="src/modules/smtp/SMTPAudit\lSerializer.cpp">
<polygon fill="white" stroke="black" points="0,-0.5 0,-30.5 148,-30.5 148,-0.5 0,-0.5"/>
<text text-anchor="start" x="8" y="-18.5" font-family="Helvetica,sans-Serif" font-size="10.00">src/modules/smtp/SMTPAudit</text>
<text text-anchor="middle" x="74" y="-7.5" font-family="Helvetica,sans-Serif" font-size="10.00">Serializer.cpp</text>
</a>
</g>
</g>
<!-- Node34&#45;&gt;Node35 -->
<g id="edge1" class="edge"><title>Node34&#45;&gt;Node35</title>
<path fill="none" stroke="midnightblue" d="M136.24,-61.4511C122.395,-51.4517 105.984,-39.5995 93.4905,-30.5765"/>
<polygon fill="midnightblue" stroke="midnightblue" points="134.315,-64.3784 144.471,-67.396 138.414,-58.7036 134.315,-64.3784"/>
</g>
<!-- Node36 -->
<g id="node3" class="node"><title>Node36</title>
<g id="a_node3"><a xlink:href="../../da/d6f/SMTPModule_8cpp.html" target="_top" xlink:title="src/modules/smtp/SMTPModule.cpp">
<polygon fill="white" stroke="black" points="166,-6 166,-25 342,-25 342,-6 166,-6"/>
<text text-anchor="middle" x="254" y="-13" font-family="Helvetica,sans-Serif" font-size="10.00">src/modules/smtp/SMTPModule.cpp</text>
</a>
</g>
</g>
<!-- Node34&#45;&gt;Node36 -->
<g id="edge2" class="edge"><title>Node34&#45;&gt;Node36</title>
<path fill="none" stroke="midnightblue" d="M191.961,-61.3056C208.862,-49.0999 229.524,-34.1772 242.221,-25.007"/>
<polygon fill="midnightblue" stroke="midnightblue" points="189.586,-58.7036 183.529,-67.396 193.685,-64.3784 189.586,-58.7036"/>
</g>
</g>
</svg>
