<?xml version="1.0" encoding="UTF-8" standalone="no"?>
<!DOCTYPE svg PUBLIC "-//W3C//DTD SVG 1.1//EN"
 "http://www.w3.org/Graphics/SVG/1.1/DTD/svg11.dtd">
<!-- Generated by graphviz version 2.38.0 (20140413.2041)
 -->
<!-- Title: Leosac::Audit::Serializer::PolymorphicAuditJSON::HelperSerialize Pages: 1 -->
<svg width="498pt" height="443pt"
 viewBox="0.00 0.00 498.00 443.00" xmlns="http://www.w3.org/2000/svg" xmlns:xlink="http://www.w3.org/1999/xlink">
<g id="graph0" class="graph" transform="scale(1 1) rotate(0) translate(4 439)">
<title>Leosac::Audit::Serializer::PolymorphicAuditJSON::HelperSerialize</title>
<polygon fill="white" stroke="none" points="-4,4 -4,-439 494,-439 494,4 -4,4"/>
<!-- Node0 -->
<g id="node1" class="node"><title>Node0</title>
<polygon fill="#bfbfbf" stroke="black" points="364,-203 364,-244 490,-244 490,-203 364,-203"/>
<text text-anchor="start" x="372" y="-232" font-family="Helvetica,sans-Serif" font-size="10.00">Leosac::Audit::Serializer</text>
<text text-anchor="start" x="372" y="-221" font-family="Helvetica,sans-Serif" font-size="10.00">::PolymorphicAuditJSON</text>
<text text-anchor="middle" x="427" y="-210" font-family="Helvetica,sans-Serif" font-size="10.00">::HelperSerialize</text>
</g>
<!-- Node1 -->
<g id="node2" class="node"><title>Node1</title>
<g id="a_node2"><a xlink:href="../../d3/d19/classLeosac_1_1Tools_1_1Visitor.html" target="_top" xlink:title="Leosac::Tools::Visitor\l\&lt; Audit::IUserEvent \&gt;">
<polygon fill="white" stroke="black" points="192.5,-404.5 192.5,-434.5 305.5,-434.5 305.5,-404.5 192.5,-404.5"/>
<text text-anchor="start" x="200.5" y="-422.5" font-family="Helvetica,sans-Serif" font-size="10.00">Leosac::Tools::Visitor</text>
<text text-anchor="middle" x="249" y="-411.5" font-family="Helvetica,sans-Serif" font-size="10.00">&lt; Audit::IUserEvent &gt;</text>
</a>
</g>
</g>
<!-- Node1&#45;&gt;Node0 -->
<g id="edge1" class="edge"><title>Node1&#45;&gt;Node0</title>
<path fill="none" stroke="midnightblue" d="M315.007,-403.849C319.629,-401.45 324.025,-398.686 328,-395.5 378.817,-354.766 408.1,-280.091 419.884,-244.043"/>
<polygon fill="midnightblue" stroke="midnightblue" points="313.526,-400.677 305.893,-408.025 316.442,-407.041 313.526,-400.677"/>
</g>
<!-- Node2 -->
<g id="node3" class="node"><title>Node2</title>
<g id="a_node3"><a xlink:href="../../d6/da1/classLeosac_1_1Tools_1_1BaseVisitor.html" target="_top" xlink:title="Base class for visitor, should not be used directly. ">
<polygon fill="white" stroke="black" points="0,-214 0,-233 134,-233 134,-214 0,-214"/>
<text text-anchor="middle" x="67" y="-221" font-family="Helvetica,sans-Serif" font-size="10.00">Leosac::Tools::BaseVisitor</text>
</a>
</g>
</g>
<!-- Node2&#45;&gt;Node1 -->
<g id="edge2" class="edge"><title>Node2&#45;&gt;Node1</title>
<path fill="none" stroke="midnightblue" d="M74.2694,-243.078C86.694,-278.751 117.843,-354.431 170,-395.5 176.568,-400.671 184.251,-404.734 192.187,-407.924"/>
<polygon fill="midnightblue" stroke="midnightblue" points="77.5125,-241.741 71.0121,-233.375 70.8764,-243.969 77.5125,-241.741"/>
</g>
<!-- Node3 -->
<g id="node4" class="node"><title>Node3</title>
<g id="a_node4"><a xlink:href="../../d3/d19/classLeosac_1_1Tools_1_1Visitor.html" target="_top" xlink:title="Leosac::Tools::Visitor\l\&lt; Audit::IWSAPICall \&gt;">
<polygon fill="white" stroke="black" points="191,-355.5 191,-385.5 307,-385.5 307,-355.5 191,-355.5"/>
<text text-anchor="start" x="199" y="-373.5" font-family="Helvetica,sans-Serif" font-size="10.00">Leosac::Tools::Visitor</text>
<text text-anchor="middle" x="249" y="-362.5" font-family="Helvetica,sans-Serif" font-size="10.00">&lt; Audit::IWSAPICall &gt;</text>
</a>
</g>
</g>
<!-- Node2&#45;&gt;Node3 -->
<g id="edge4" class="edge"><title>Node2&#45;&gt;Node3</title>
<path fill="none" stroke="midnightblue" d="M78.4346,-241.899C94.6145,-268.794 128.281,-318.659 170,-346.5 176.364,-350.747 183.514,-354.27 190.834,-357.186"/>
<polygon fill="midnightblue" stroke="midnightblue" points="81.3602,-239.969 73.2823,-233.113 75.3219,-243.51 81.3602,-239.969"/>
</g>
<!-- Node4 -->
<g id="node5" class="node"><title>Node4</title>
<g id="a_node5"><a xlink:href="../../d3/d19/classLeosac_1_1Tools_1_1Visitor.html" target="_top" xlink:title="Leosac::Tools::Visitor\l\&lt; Audit::IScheduleEvent \&gt;">
<polygon fill="white" stroke="black" points="183,-306.5 183,-336.5 315,-336.5 315,-306.5 183,-306.5"/>
<text text-anchor="start" x="191" y="-324.5" font-family="Helvetica,sans-Serif" font-size="10.00">Leosac::Tools::Visitor</text>
<text text-anchor="middle" x="249" y="-313.5" font-family="Helvetica,sans-Serif" font-size="10.00">&lt; Audit::IScheduleEvent &gt;</text>
</a>
</g>
</g>
<!-- Node2&#45;&gt;Node4 -->
<g id="edge6" class="edge"><title>Node2&#45;&gt;Node4</title>
<path fill="none" stroke="midnightblue" d="M86.6395,-239.961C106.207,-256.506 138.456,-281.751 170,-297.5 176.718,-300.854 183.998,-303.848 191.319,-306.488"/>
<polygon fill="midnightblue" stroke="midnightblue" points="88.694,-237.112 78.8293,-233.247 84.1306,-242.42 88.694,-237.112"/>
</g>
<!-- Node5 -->
<g id="node6" class="node"><title>Node5</title>
<g id="a_node6"><a xlink:href="../../d3/d19/classLeosac_1_1Tools_1_1Visitor.html" target="_top" xlink:title="Leosac::Tools::Visitor\l\&lt; Audit::IGroupEvent \&gt;">
<polygon fill="white" stroke="black" points="190,-257.5 190,-287.5 308,-287.5 308,-257.5 190,-257.5"/>
<text text-anchor="start" x="198" y="-275.5" font-family="Helvetica,sans-Serif" font-size="10.00">Leosac::Tools::Visitor</text>
<text text-anchor="middle" x="249" y="-264.5" font-family="Helvetica,sans-Serif" font-size="10.00">&lt; Audit::IGroupEvent &gt;</text>
</a>
</g>
</g>
<!-- Node2&#45;&gt;Node5 -->
<g id="edge8" class="edge"><title>Node2&#45;&gt;Node5</title>
<path fill="none" stroke="midnightblue" d="M113.101,-235.778C137.258,-242.354 167.218,-250.509 192.762,-257.463"/>
<polygon fill="midnightblue" stroke="midnightblue" points="113.701,-232.314 103.133,-233.064 111.863,-239.068 113.701,-232.314"/>
</g>
<!-- Node6 -->
<g id="node7" class="node"><title>Node6</title>
<g id="a_node7"><a xlink:href="../../d3/d19/classLeosac_1_1Tools_1_1Visitor.html" target="_top" xlink:title="Leosac::Tools::Visitor\l\&lt; Audit::ICredentialEvent \&gt;">
<polygon fill="white" stroke="black" points="181,-208.5 181,-238.5 317,-238.5 317,-208.5 181,-208.5"/>
<text text-anchor="start" x="189" y="-226.5" font-family="Helvetica,sans-Serif" font-size="10.00">Leosac::Tools::Visitor</text>
<text text-anchor="middle" x="249" y="-215.5" font-family="Helvetica,sans-Serif" font-size="10.00">&lt; Audit::ICredentialEvent &gt;</text>
</a>
</g>
</g>
<!-- Node2&#45;&gt;Node6 -->
<g id="edge10" class="edge"><title>Node2&#45;&gt;Node6</title>
<path fill="none" stroke="midnightblue" d="M144.134,-223.5C156.315,-223.5 168.844,-223.5 180.799,-223.5"/>
<polygon fill="midnightblue" stroke="midnightblue" points="144.003,-220 134.003,-223.5 144.003,-227 144.003,-220"/>
</g>
<!-- Node7 -->
<g id="node8" class="node"><title>Node7</title>
<g id="a_node8"><a xlink:href="../../d3/d19/classLeosac_1_1Tools_1_1Visitor.html" target="_top" xlink:title="Leosac::Tools::Visitor\l\&lt; Audit::IDoorEvent \&gt;">
<polygon fill="white" stroke="black" points="192.5,-159.5 192.5,-189.5 305.5,-189.5 305.5,-159.5 192.5,-159.5"/>
<text text-anchor="start" x="200.5" y="-177.5" font-family="Helvetica,sans-Serif" font-size="10.00">Leosac::Tools::Visitor</text>
<text text-anchor="middle" x="249" y="-166.5" font-family="Helvetica,sans-Serif" font-size="10.00">&lt; Audit::IDoorEvent &gt;</text>
</a>
</g>
</g>
<!-- Node2&#45;&gt;Node7 -->
<g id="edge12" class="edge"><title>Node2&#45;&gt;Node7</title>
<path fill="none" stroke="midnightblue" d="M113.101,-211.222C137.258,-204.646 167.218,-196.491 192.762,-189.537"/>
<polygon fill="midnightblue" stroke="midnightblue" points="111.863,-207.932 103.133,-213.936 113.701,-214.686 111.863,-207.932"/>
</g>
<!-- Node8 -->
<g id="node9" class="node"><title>Node8</title>
<g id="a_node9"><a xlink:href="../../d3/d19/classLeosac_1_1Tools_1_1Visitor.html" target="_top" xlink:title="Leosac::Tools::Visitor\l\&lt; Audit::IUserGroupMembership\lEvent \&gt;">
<polygon fill="white" stroke="black" points="170,-99 170,-140 328,-140 328,-99 170,-99"/>
<text text-anchor="start" x="178" y="-128" font-family="Helvetica,sans-Serif" font-size="10.00">Leosac::Tools::Visitor</text>
<text text-anchor="start" x="178" y="-117" font-family="Helvetica,sans-Serif" font-size="10.00">&lt; Audit::IUserGroupMembership</text>
<text text-anchor="middle" x="249" y="-106" font-family="Helvetica,sans-Serif" font-size="10.00">Event &gt;</text>
</a>
</g>
</g>
<!-- Node2&#45;&gt;Node8 -->
<g id="edge14" class="edge"><title>Node2&#45;&gt;Node8</title>
<path fill="none" stroke="midnightblue" d="M87.2675,-207.53C107.107,-191.623 139.365,-167.225 170,-150.5 176.779,-146.799 184.094,-143.302 191.433,-140.083"/>
<polygon fill="midnightblue" stroke="midnightblue" points="84.8786,-204.961 79.321,-213.981 89.2906,-210.395 84.8786,-204.961"/>
</g>
<!-- Node9 -->
<g id="node10" class="node"><title>Node9</title>
<g id="a_node10"><a xlink:href="../../d3/d19/classLeosac_1_1Tools_1_1Visitor.html" target="_top" xlink:title="Leosac::Tools::Visitor\l\&lt; Audit::IUpdateEvent \&gt;">
<polygon fill="white" stroke="black" points="187.5,-49.5 187.5,-79.5 310.5,-79.5 310.5,-49.5 187.5,-49.5"/>
<text text-anchor="start" x="195.5" y="-67.5" font-family="Helvetica,sans-Serif" font-size="10.00">Leosac::Tools::Visitor</text>
<text text-anchor="middle" x="249" y="-56.5" font-family="Helvetica,sans-Serif" font-size="10.00">&lt; Audit::IUpdateEvent &gt;</text>
</a>
</g>
</g>
<!-- Node2&#45;&gt;Node9 -->
<g id="edge16" class="edge"><title>Node2&#45;&gt;Node9</title>
<path fill="none" stroke="midnightblue" d="M77.397,-204.738C92.82,-175.812 126.215,-120.441 170,-89.5 175.458,-85.643 181.541,-82.3595 187.836,-79.5691"/>
<polygon fill="midnightblue" stroke="midnightblue" points="74.2028,-203.294 72.7037,-213.783 80.4162,-206.518 74.2028,-203.294"/>
</g>
<!-- Node10 -->
<g id="node11" class="node"><title>Node10</title>
<g id="a_node11"><a xlink:href="../../d3/d19/classLeosac_1_1Tools_1_1Visitor.html" target="_top" xlink:title="Leosac::Tools::Visitor\l\&lt; Audit::IZoneEvent \&gt;">
<polygon fill="white" stroke="black" points="192.5,-0.5 192.5,-30.5 305.5,-30.5 305.5,-0.5 192.5,-0.5"/>
<text text-anchor="start" x="200.5" y="-18.5" font-family="Helvetica,sans-Serif" font-size="10.00">Leosac::Tools::Visitor</text>
<text text-anchor="middle" x="249" y="-7.5" font-family="Helvetica,sans-Serif" font-size="10.00">&lt; Audit::IZoneEvent &gt;</text>
</a>
</g>
</g>
<!-- Node2&#45;&gt;Node10 -->
<g id="edge18" class="edge"><title>Node2&#45;&gt;Node10</title>
<path fill="none" stroke="midnightblue" d="M73.469,-204.287C85.0243,-167.134 115.448,-85.1794 170,-40.5 176.601,-35.0938 184.392,-30.8484 192.453,-27.5168"/>
<polygon fill="midnightblue" stroke="midnightblue" points="70.106,-203.317 70.5935,-213.9 76.8124,-205.323 70.106,-203.317"/>
</g>
<!-- Node3&#45;&gt;Node0 -->
<g id="edge3" class="edge"><title>Node3&#45;&gt;Node0</title>
<path fill="none" stroke="midnightblue" d="M316.679,-353.082C320.634,-351.11 324.444,-348.924 328,-346.5 367.707,-319.435 399.137,-271.448 414.904,-244.099"/>
<polygon fill="midnightblue" stroke="midnightblue" points="314.943,-350.024 307.244,-357.302 317.801,-356.414 314.943,-350.024"/>
</g>
<!-- Node4&#45;&gt;Node0 -->
<g id="edge5" class="edge"><title>Node4&#45;&gt;Node0</title>
<path fill="none" stroke="midnightblue" d="M316.493,-302.809C320.445,-301.155 324.31,-299.387 328,-297.5 356.094,-283.136 384.459,-260.648 403.391,-244.229"/>
<polygon fill="midnightblue" stroke="midnightblue" points="315.196,-299.558 307.156,-306.458 317.744,-306.078 315.196,-299.558"/>
</g>
<!-- Node5&#45;&gt;Node0 -->
<g id="edge7" class="edge"><title>Node5&#45;&gt;Node0</title>
<path fill="none" stroke="midnightblue" d="M314.176,-254.633C330.407,-250.114 347.809,-245.269 363.934,-240.78"/>
<polygon fill="midnightblue" stroke="midnightblue" points="312.937,-251.345 304.242,-257.399 314.814,-258.088 312.937,-251.345"/>
</g>
<!-- Node6&#45;&gt;Node0 -->
<g id="edge9" class="edge"><title>Node6&#45;&gt;Node0</title>
<path fill="none" stroke="midnightblue" d="M327.221,-223.5C339.446,-223.5 351.952,-223.5 363.777,-223.5"/>
<polygon fill="midnightblue" stroke="midnightblue" points="327.04,-220 317.04,-223.5 327.04,-227 327.04,-220"/>
</g>
<!-- Node7&#45;&gt;Node0 -->
<g id="edge11" class="edge"><title>Node7&#45;&gt;Node0</title>
<path fill="none" stroke="midnightblue" d="M314.176,-192.367C330.407,-196.886 347.809,-201.731 363.934,-206.22"/>
<polygon fill="midnightblue" stroke="midnightblue" points="314.814,-188.912 304.242,-189.601 312.937,-195.655 314.814,-188.912"/>
</g>
<!-- Node8&#45;&gt;Node0 -->
<g id="edge13" class="edge"><title>Node8&#45;&gt;Node0</title>
<path fill="none" stroke="midnightblue" d="M316.419,-144.488C320.389,-146.414 324.279,-148.422 328,-150.5 354.859,-165.498 382.732,-186.925 401.853,-202.688"/>
<polygon fill="midnightblue" stroke="midnightblue" points="317.594,-141.174 307.049,-140.145 314.65,-147.525 317.594,-141.174"/>
</g>
<!-- Node9&#45;&gt;Node0 -->
<g id="edge15" class="edge"><title>Node9&#45;&gt;Node0</title>
<path fill="none" stroke="midnightblue" d="M319.632,-84.1768C322.541,-85.8159 325.347,-87.587 328,-89.5 369.845,-119.675 401.086,-173.166 416.093,-202.614"/>
<polygon fill="midnightblue" stroke="midnightblue" points="321.144,-81.0198 310.639,-79.6448 317.994,-87.2708 321.144,-81.0198"/>
</g>
<!-- Node10&#45;&gt;Node0 -->
<g id="edge17" class="edge"><title>Node10&#45;&gt;Node0</title>
<path fill="none" stroke="midnightblue" d="M314.876,-31.7797C319.561,-34.2844 324.006,-37.1718 328,-40.5 381.023,-84.6785 409.557,-165.164 420.569,-202.917"/>
<polygon fill="midnightblue" stroke="midnightblue" points="316.165,-28.5177 305.627,-27.4194 313.18,-34.8494 316.165,-28.5177"/>
</g>
</g>
</svg>
