<?xml version="1.0" encoding="UTF-8" standalone="no"?>
<!DOCTYPE svg PUBLIC "-//W3C//DTD SVG 1.1//EN"
 "http://www.w3.org/Graphics/SVG/1.1/DTD/svg11.dtd">
<!-- Generated by graphviz version 2.38.0 (20140413.2041)
 -->
<!-- Title: src/modules/rpleth/RplethModule.hpp Pages: 1 -->
<!--zoomable 408 -->
<svg id="main" version="1.1" xmlns="http://www.w3.org/2000/svg" xmlns:xlink="http://www.w3.org/1999/xlink" xml:space="preserve" onload="init(evt)">
<style type="text/css"><![CDATA[
.edge:hover path { stroke: red; }
.edge:hover polygon { stroke: red; fill: red; }
]]></style>
<script type="text/javascript"><![CDATA[
var edges = document.getElementsByTagName('g');
if (edges && edges.length) {
  for (var i=0;i<edges.length;i++) {
    if (edges[i].id.substr(0,4)=='edge') {
      edges[i].setAttribute('class','edge');
    }
  }
}
]]></script>
        <defs>
                <circle id="rim" cx="0" cy="0" r="7"/>
                <circle id="rim2" cx="0" cy="0" r="3.5"/>
                <g id="zoomPlus">
                        <use xlink:href="#rim" fill="#404040">
                                <set attributeName="fill" to="#808080" begin="zoomplus.mouseover" end="zoomplus.mouseout"/>
                        </use>
                        <path d="M-4,0h8M0,-4v8" fill="none" stroke="white" stroke-width="1.5" pointer-events="none"/>
                </g>
                <g id="zoomMin">
                        <use xlink:href="#rim" fill="#404040">
                                <set attributeName="fill" to="#808080" begin="zoomminus.mouseover" end="zoomminus.mouseout"/>
                        </use>
                        <path d="M-4,0h8" fill="none" stroke="white" stroke-width="1.5" pointer-events="none"/>
                </g>
                <g id="dirArrow">
                        <path fill="none" stroke="white" stroke-width="1.5" d="M0,-3.0v7 M-2.5,-0.5L0,-3.0L2.5,-0.5"/>
                </g>
               <g id="resetDef">
                       <use xlink:href="#rim2" fill="#404040">
                               <set attributeName="fill" to="#808080" begin="reset.mouseover" end="reset.mouseout"/>
                       </use>
               </g>
        </defs>

<script type="text/javascript">
var viewWidth = 2177;
var viewHeight = 408;
var sectionId = 'dynsection-0';
</script>
<script xlink:href="../../svgpan.js"/>
<svg id="graph" class="graph">
<g id="viewport">
<title>src/modules/rpleth/RplethModule.hpp</title>
<polygon fill="white" stroke="none" points="-4,4 -4,-404 2172.51,-404 2172.51,4 -4,4"/>
<!-- Node0 -->
<g id="node1" class="node"><title>Node0</title>
<polygon fill="#bfbfbf" stroke="black" points="1896.01,-369.5 1896.01,-399.5 1994.01,-399.5 1994.01,-369.5 1896.01,-369.5"/>
<text text-anchor="start" x="1904.01" y="-387.5" font-family="Helvetica,sans-Serif" font-size="10.00">src/modules/rpleth</text>
<text text-anchor="middle" x="1945.01" y="-376.5" font-family="Helvetica,sans-Serif" font-size="10.00">/RplethModule.hpp</text>
</g>
<!-- Node1 -->
<g id="node2" class="node"><title>Node1</title>
<g id="a_node2"><a xlink:href="../../de/d0c/FWiegandReader_8hpp.html" target="_top" xlink:title="hardware/facades/FWiegand\lReader.hpp">
<polygon fill="white" stroke="black" points="290.509,-246.5 290.509,-276.5 431.509,-276.5 431.509,-246.5 290.509,-246.5"/>
<text text-anchor="start" x="298.509" y="-264.5" font-family="Helvetica,sans-Serif" font-size="10.00">hardware/facades/FWiegand</text>
<text text-anchor="middle" x="361.009" y="-253.5" font-family="Helvetica,sans-Serif" font-size="10.00">Reader.hpp</text>
</a>
</g>
</g>
<!-- Node0&#45;&gt;Node1 -->
<g id="edge1" class="edge"><title>Node0&#45;&gt;Node1</title>
<path fill="none" stroke="midnightblue" d="M1895.69,-382.086C1707.45,-376.255 1016.18,-350.86 442.006,-277.465"/>
<polygon fill="midnightblue" stroke="midnightblue" points="442.231,-273.965 431.866,-276.162 441.339,-280.908 442.231,-273.965"/>
</g>
<!-- Node4 -->
<g id="node5" class="node"><title>Node4</title>
<g id="a_node5"><a xlink:href="../../d0/dc7/BaseModule_8hpp.html" target="_top" xlink:title="modules/BaseModule.hpp">
<polygon fill="white" stroke="black" points="1588.51,-313.5 1588.51,-332.5 1717.51,-332.5 1717.51,-313.5 1588.51,-313.5"/>
<text text-anchor="middle" x="1653.01" y="-320.5" font-family="Helvetica,sans-Serif" font-size="10.00">modules/BaseModule.hpp</text>
</a>
</g>
</g>
<!-- Node0&#45;&gt;Node4 -->
<g id="edge4" class="edge"><title>Node0&#45;&gt;Node4</title>
<path fill="none" stroke="midnightblue" d="M1895.81,-373.474C1842.82,-362.677 1758.88,-345.573 1704.88,-334.57"/>
<polygon fill="midnightblue" stroke="midnightblue" points="1705.33,-331.089 1694.83,-332.522 1703.93,-337.948 1705.33,-331.089"/>
</g>
<!-- Node6 -->
<g id="node7" class="node"><title>Node6</title>
<polygon fill="white" stroke="#bfbfbf" points="1884.01,-185 1884.01,-204 1936.01,-204 1936.01,-185 1884.01,-185"/>
<text text-anchor="middle" x="1910.01" y="-192" font-family="Helvetica,sans-Serif" font-size="10.00">memory</text>
</g>
<!-- Node0&#45;&gt;Node6 -->
<g id="edge76" class="edge"><title>Node0&#45;&gt;Node6</title>
<path fill="none" stroke="midnightblue" d="M1942.38,-369.369C1936.15,-335.938 1920.52,-251.974 1913.51,-214.304"/>
<polygon fill="midnightblue" stroke="midnightblue" points="1916.9,-213.397 1911.63,-204.206 1910.02,-214.678 1916.9,-213.397"/>
</g>
<!-- Node7 -->
<g id="node8" class="node"><title>Node7</title>
<polygon fill="white" stroke="#bfbfbf" points="1893.01,-56.5 1893.01,-75.5 1937.01,-75.5 1937.01,-56.5 1893.01,-56.5"/>
<text text-anchor="middle" x="1915.01" y="-63.5" font-family="Helvetica,sans-Serif" font-size="10.00">vector</text>
</g>
<!-- Node0&#45;&gt;Node7 -->
<g id="edge77" class="edge"><title>Node0&#45;&gt;Node7</title>
<path fill="none" stroke="midnightblue" d="M1946.07,-369.361C1946.78,-359.241 1947.64,-345.291 1948.01,-333 1949.57,-280.534 1951.24,-217.772 1945.01,-179 1942.35,-162.482 1938.48,-159.121 1934.01,-143 1928.62,-123.596 1923.11,-101.215 1919.42,-85.7908"/>
<polygon fill="midnightblue" stroke="midnightblue" points="1922.8,-84.8544 1917.08,-75.9314 1915.98,-86.4691 1922.8,-84.8544"/>
</g>
<!-- Node35 -->
<g id="node36" class="node"><title>Node35</title>
<g id="a_node36"><a xlink:href="../../d4/d66/circularbuffer_8hpp.html" target="_top" xlink:title="simple circular buffer class ">
<polygon fill="white" stroke="black" points="1943.01,-112.5 1943.01,-142.5 2061.01,-142.5 2061.01,-112.5 1943.01,-112.5"/>
<text text-anchor="start" x="1951.01" y="-130.5" font-family="Helvetica,sans-Serif" font-size="10.00">modules/rpleth/network</text>
<text text-anchor="middle" x="2002.01" y="-119.5" font-family="Helvetica,sans-Serif" font-size="10.00">/circularbuffer.hpp</text>
</a>
</g>
</g>
<!-- Node0&#45;&gt;Node35 -->
<g id="edge68" class="edge"><title>Node0&#45;&gt;Node35</title>
<path fill="none" stroke="midnightblue" d="M1956.76,-369.441C1964.14,-359.806 1973.15,-346.391 1978.01,-333 2000.51,-270.928 2003.04,-191.972 2002.7,-152.807"/>
<polygon fill="midnightblue" stroke="midnightblue" points="2006.19,-152.587 2002.54,-142.645 1999.2,-152.699 2006.19,-152.587"/>
</g>
<!-- Node37 -->
<g id="node38" class="node"><title>Node37</title>
<g id="a_node38"><a xlink:href="../../dd/d17/rplethpacket_8hpp.html" target="_top" xlink:title="Rpleth packet class. ">
<polygon fill="white" stroke="black" points="2079.51,-118 2079.51,-137 2168.51,-137 2168.51,-118 2079.51,-118"/>
<text text-anchor="middle" x="2124.01" y="-125" font-family="Helvetica,sans-Serif" font-size="10.00">rplethpacket.hpp</text>
</a>
</g>
</g>
<!-- Node0&#45;&gt;Node37 -->
<g id="edge73" class="edge"><title>Node0&#45;&gt;Node37</title>
<path fill="none" stroke="midnightblue" d="M1960.79,-369.273C1971.11,-359.567 1984.57,-346.135 1995.01,-333 2046.34,-268.421 2094.88,-182.477 2114.67,-146.029"/>
<polygon fill="midnightblue" stroke="midnightblue" points="2117.8,-147.584 2119.46,-137.12 2111.64,-144.266 2117.8,-147.584"/>
</g>
<!-- Node2 -->
<g id="node3" class="node"><title>Node2</title>
<polygon fill="white" stroke="#bfbfbf" points="983.509,-0.5 983.509,-19.5 1024.51,-19.5 1024.51,-0.5 983.509,-0.5"/>
<text text-anchor="middle" x="1004.01" y="-7.5" font-family="Helvetica,sans-Serif" font-size="10.00">string</text>
</g>
<!-- Node1&#45;&gt;Node2 -->
<g id="edge2" class="edge"><title>Node1&#45;&gt;Node2</title>
<path fill="none" stroke="midnightblue" d="M290.426,-255.897C168.9,-245.244 -59.9434,-211.648 15.0088,-112 68.9539,-40.2807 120.541,-71.0751 209.009,-56 360.131,-30.2483 846.102,-15.3412 973.302,-11.8166"/>
<polygon fill="midnightblue" stroke="midnightblue" points="973.592,-15.3101 983.492,-11.5374 973.4,-8.31268 973.592,-15.3101"/>
</g>
<!-- Node3 -->
<g id="node4" class="node"><title>Node3</title>
<polygon fill="white" stroke="#bfbfbf" points="340.509,-185 340.509,-204 437.509,-204 437.509,-185 340.509,-185"/>
<text text-anchor="middle" x="389.009" y="-192" font-family="Helvetica,sans-Serif" font-size="10.00">zmqpp/zmqpp.hpp</text>
</g>
<!-- Node1&#45;&gt;Node3 -->
<g id="edge3" class="edge"><title>Node1&#45;&gt;Node3</title>
<path fill="none" stroke="midnightblue" d="M367.084,-246.396C371.234,-236.763 376.769,-223.914 381.239,-213.537"/>
<polygon fill="midnightblue" stroke="midnightblue" points="384.522,-214.763 385.263,-204.195 378.093,-211.994 384.522,-214.763"/>
</g>
<!-- Node4&#45;&gt;Node3 -->
<g id="edge67" class="edge"><title>Node4&#45;&gt;Node3</title>
<path fill="none" stroke="midnightblue" d="M1588.14,-320.74C1349.37,-315.943 530.596,-298.03 479.009,-277 470.147,-273.388 428.573,-233.893 405.154,-211.238"/>
<polygon fill="midnightblue" stroke="midnightblue" points="407.324,-208.467 397.71,-204.014 402.449,-213.49 407.324,-208.467"/>
</g>
<!-- Node5 -->
<g id="node6" class="node"><title>Node5</title>
<g id="a_node6"><a xlink:href="../../dc/d49/LeosacFwd_8hpp.html" target="_top" xlink:title="LeosacFwd.hpp">
<polygon fill="white" stroke="black" points="1812.01,-252 1812.01,-271 1898.01,-271 1898.01,-252 1812.01,-252"/>
<text text-anchor="middle" x="1855.01" y="-259" font-family="Helvetica,sans-Serif" font-size="10.00">LeosacFwd.hpp</text>
</a>
</g>
</g>
<!-- Node4&#45;&gt;Node5 -->
<g id="edge5" class="edge"><title>Node4&#45;&gt;Node5</title>
<path fill="none" stroke="midnightblue" d="M1681.95,-313.475C1717.28,-303.07 1777.14,-285.437 1816.37,-273.88"/>
<polygon fill="midnightblue" stroke="midnightblue" points="1817.52,-277.192 1826.12,-271.009 1815.54,-270.477 1817.52,-277.192"/>
</g>
<!-- Node8 -->
<g id="node9" class="node"><title>Node8</title>
<g id="a_node9"><a xlink:href="../../db/d33/ConfigChecker_8hpp.html" target="_top" xlink:title="core/config/ConfigChecker.hpp">
<polygon fill="white" stroke="black" points="488.009,-252 488.009,-271 640.009,-271 640.009,-252 488.009,-252"/>
<text text-anchor="middle" x="564.009" y="-259" font-family="Helvetica,sans-Serif" font-size="10.00">core/config/ConfigChecker.hpp</text>
</a>
</g>
</g>
<!-- Node4&#45;&gt;Node8 -->
<g id="edge8" class="edge"><title>Node4&#45;&gt;Node8</title>
<path fill="none" stroke="midnightblue" d="M1588.15,-318.456C1401.3,-308.247 861.737,-278.767 650.381,-267.219"/>
<polygon fill="midnightblue" stroke="midnightblue" points="650.44,-263.717 640.264,-266.666 650.058,-270.707 650.44,-263.717"/>
</g>
<!-- Node11 -->
<g id="node12" class="node"><title>Node11</title>
<g id="a_node12"><a xlink:href="../../db/d79/ConfigManager_8hpp.html" target="_top" xlink:title="core/config/ConfigManager.hpp">
<polygon fill="white" stroke="black" points="1521.01,-252 1521.01,-271 1673.01,-271 1673.01,-252 1521.01,-252"/>
<text text-anchor="middle" x="1597.01" y="-259" font-family="Helvetica,sans-Serif" font-size="10.00">core/config/ConfigManager.hpp</text>
</a>
</g>
</g>
<!-- Node4&#45;&gt;Node11 -->
<g id="edge11" class="edge"><title>Node4&#45;&gt;Node11</title>
<path fill="none" stroke="midnightblue" d="M1644.99,-313.475C1636.42,-304.373 1622.65,-289.741 1612.05,-278.483"/>
<polygon fill="midnightblue" stroke="midnightblue" points="1614.42,-275.892 1605.02,-271.009 1609.32,-280.69 1614.42,-275.892"/>
</g>
<!-- Node27 -->
<g id="node28" class="node"><title>Node27</title>
<g id="a_node28"><a xlink:href="../../d4/d3d/log_8hpp.html" target="_top" xlink:title="tools/log.hpp">
<polygon fill="white" stroke="black" points="572.009,-185 572.009,-204 644.009,-204 644.009,-185 572.009,-185"/>
<text text-anchor="middle" x="608.009" y="-192" font-family="Helvetica,sans-Serif" font-size="10.00">tools/log.hpp</text>
</a>
</g>
</g>
<!-- Node4&#45;&gt;Node27 -->
<g id="edge65" class="edge"><title>Node4&#45;&gt;Node27</title>
<path fill="none" stroke="midnightblue" d="M1588.43,-314.182C1394.58,-290.716 820.848,-221.265 654.003,-201.068"/>
<polygon fill="midnightblue" stroke="midnightblue" points="654.414,-197.592 644.066,-199.865 653.572,-204.541 654.414,-197.592"/>
</g>
<!-- Node32 -->
<g id="node33" class="node"><title>Node32</title>
<polygon fill="white" stroke="#bfbfbf" points="1663.51,-179.5 1663.51,-209.5 1764.51,-209.5 1764.51,-179.5 1663.51,-179.5"/>
<text text-anchor="start" x="1671.51" y="-197.5" font-family="Helvetica,sans-Serif" font-size="10.00">boost/property_tree</text>
<text text-anchor="middle" x="1714.01" y="-186.5" font-family="Helvetica,sans-Serif" font-size="10.00">/ptree.hpp</text>
</g>
<!-- Node4&#45;&gt;Node32 -->
<g id="edge66" class="edge"><title>Node4&#45;&gt;Node32</title>
<path fill="none" stroke="midnightblue" d="M1659.32,-313.346C1665.6,-304.505 1675.23,-290.236 1682.01,-277 1691.65,-258.177 1700.26,-235.742 1706.12,-219.181"/>
<polygon fill="midnightblue" stroke="midnightblue" points="1709.43,-220.307 1709.39,-209.713 1702.82,-218.02 1709.43,-220.307"/>
</g>
<!-- Node33 -->
<g id="node34" class="node"><title>Node33</title>
<g id="a_node34"><a xlink:href="../../d1/d91/ThreadUtils_8hpp.html" target="_top" xlink:title="tools/ThreadUtils.hpp">
<polygon fill="white" stroke="black" points="1765.01,-56.5 1765.01,-75.5 1875.01,-75.5 1875.01,-56.5 1765.01,-56.5"/>
<text text-anchor="middle" x="1820.01" y="-63.5" font-family="Helvetica,sans-Serif" font-size="10.00">tools/ThreadUtils.hpp</text>
</a>
</g>
</g>
<!-- Node4&#45;&gt;Node33 -->
<g id="edge62" class="edge"><title>Node4&#45;&gt;Node33</title>
<path fill="none" stroke="midnightblue" d="M1665.91,-313.443C1690.37,-296.559 1743.68,-256.529 1773.01,-210 1798.36,-169.779 1811.42,-114.502 1816.85,-85.8835"/>
<polygon fill="midnightblue" stroke="midnightblue" points="1820.36,-86.1415 1818.67,-75.6817 1813.47,-84.9098 1820.36,-86.1415"/>
</g>
<!-- Node5&#45;&gt;Node6 -->
<g id="edge6" class="edge"><title>Node5&#45;&gt;Node6</title>
<path fill="none" stroke="midnightblue" d="M1862.43,-251.734C1871,-241.598 1885.31,-224.69 1896,-212.056"/>
<polygon fill="midnightblue" stroke="midnightblue" points="1898.92,-214.022 1902.71,-204.127 1893.58,-209.5 1898.92,-214.022"/>
</g>
<!-- Node5&#45;&gt;Node7 -->
<g id="edge7" class="edge"><title>Node5&#45;&gt;Node7</title>
<path fill="none" stroke="midnightblue" d="M1856.82,-251.856C1860.04,-236.889 1867.13,-205.232 1875.01,-179 1885.12,-145.353 1899.46,-106.954 1907.94,-84.9849"/>
<polygon fill="midnightblue" stroke="midnightblue" points="1911.22,-86.2013 1911.59,-75.6128 1904.7,-83.6615 1911.22,-86.2013"/>
</g>
<!-- Node9 -->
<g id="node10" class="node"><title>Node9</title>
<polygon fill="white" stroke="#bfbfbf" points="518.509,-185 518.509,-204 553.509,-204 553.509,-185 518.509,-185"/>
<text text-anchor="middle" x="536.009" y="-192" font-family="Helvetica,sans-Serif" font-size="10.00">map</text>
</g>
<!-- Node8&#45;&gt;Node9 -->
<g id="edge9" class="edge"><title>Node8&#45;&gt;Node9</title>
<path fill="none" stroke="midnightblue" d="M560.233,-251.734C556.034,-241.988 549.139,-225.981 543.776,-213.532"/>
<polygon fill="midnightblue" stroke="midnightblue" points="546.896,-211.927 539.725,-204.127 540.467,-214.696 546.896,-211.927"/>
</g>
<!-- Node10 -->
<g id="node11" class="node"><title>Node10</title>
<polygon fill="white" stroke="#bfbfbf" points="456.009,-185 456.009,-204 500.009,-204 500.009,-185 456.009,-185"/>
<text text-anchor="middle" x="478.009" y="-192" font-family="Helvetica,sans-Serif" font-size="10.00">mutex</text>
</g>
<!-- Node8&#45;&gt;Node10 -->
<g id="edge10" class="edge"><title>Node8&#45;&gt;Node10</title>
<path fill="none" stroke="midnightblue" d="M552.41,-251.734C538.355,-241.111 514.458,-223.049 497.543,-210.264"/>
<polygon fill="midnightblue" stroke="midnightblue" points="499.511,-207.365 489.423,-204.127 495.291,-212.949 499.511,-207.365"/>
</g>
<!-- Node11&#45;&gt;Node2 -->
<g id="edge59" class="edge"><title>Node11&#45;&gt;Node2</title>
<path fill="none" stroke="midnightblue" d="M1597.04,-251.557C1597.59,-234.954 1601.18,-199.22 1621.01,-179 1658.21,-141.065 1703.6,-185.856 1735.01,-143 1743.15,-131.887 1743.49,-122.86 1735.01,-112 1691.06,-55.7077 1169.08,-20.8525 1035.16,-12.7978"/>
<polygon fill="midnightblue" stroke="midnightblue" points="1035,-9.2819 1024.81,-12.1821 1034.58,-16.2696 1035,-9.2819"/>
</g>
<!-- Node11&#45;&gt;Node3 -->
<g id="edge61" class="edge"><title>Node11&#45;&gt;Node3</title>
<path fill="none" stroke="midnightblue" d="M1520.66,-259.15C1298.54,-254.906 655.156,-240.274 447.009,-210 440.955,-209.12 434.615,-207.876 428.44,-206.483"/>
<polygon fill="midnightblue" stroke="midnightblue" points="428.828,-202.976 418.286,-204.036 427.188,-209.781 428.828,-202.976"/>
</g>
<!-- Node11&#45;&gt;Node6 -->
<g id="edge58" class="edge"><title>Node11&#45;&gt;Node6</title>
<path fill="none" stroke="midnightblue" d="M1638.25,-251.936C1699.95,-239.122 1815.28,-215.171 1873.87,-203.006"/>
<polygon fill="midnightblue" stroke="midnightblue" points="1874.7,-206.407 1883.78,-200.947 1873.28,-199.553 1874.7,-206.407"/>
</g>
<!-- Node11&#45;&gt;Node7 -->
<g id="edge60" class="edge"><title>Node11&#45;&gt;Node7</title>
<path fill="none" stroke="midnightblue" d="M1600.66,-251.956C1608.18,-235.388 1626.98,-198.787 1654.01,-179 1697.22,-147.364 1719.51,-163.444 1769.01,-143 1813.86,-124.477 1863.44,-97.0894 1891.75,-80.7462"/>
<polygon fill="midnightblue" stroke="midnightblue" points="1893.62,-83.7109 1900.5,-75.6559 1890.1,-77.6608 1893.62,-83.7109"/>
</g>
<!-- Node11&#45;&gt;Node9 -->
<g id="edge57" class="edge"><title>Node11&#45;&gt;Node9</title>
<path fill="none" stroke="midnightblue" d="M1520.95,-261.112C1313.83,-262.092 743.221,-260.034 563.009,-210 561.535,-209.591 560.051,-209.091 558.579,-208.525"/>
<polygon fill="midnightblue" stroke="midnightblue" points="559.784,-205.223 549.247,-204.116 556.793,-211.552 559.784,-205.223"/>
</g>
<!-- Node12 -->
<g id="node13" class="node"><title>Node12</title>
<g id="a_node13"><a xlink:href="../../d1/ddd/leosacexception_8hpp.html" target="_top" xlink:title="Exception class for LEOSAC Project related errors. ">
<polygon fill="white" stroke="black" points="928.509,-185 928.509,-204 1079.51,-204 1079.51,-185 928.509,-185"/>
<text text-anchor="middle" x="1004.01" y="-192" font-family="Helvetica,sans-Serif" font-size="10.00">exception/leosacexception.hpp</text>
</a>
</g>
</g>
<!-- Node11&#45;&gt;Node12 -->
<g id="edge12" class="edge"><title>Node11&#45;&gt;Node12</title>
<path fill="none" stroke="midnightblue" d="M1521,-252.169C1410.42,-240.048 1205.78,-217.617 1089.89,-204.914"/>
<polygon fill="midnightblue" stroke="midnightblue" points="1089.97,-201.401 1079.65,-203.791 1089.2,-208.36 1089.97,-201.401"/>
</g>
<!-- Node11&#45;&gt;Node27 -->
<g id="edge49" class="edge"><title>Node11&#45;&gt;Node27</title>
<path fill="none" stroke="midnightblue" d="M1520.64,-255.481C1325.31,-242.643 811.915,-208.901 654.54,-198.558"/>
<polygon fill="midnightblue" stroke="midnightblue" points="654.472,-195.046 644.264,-197.883 654.013,-202.031 654.472,-195.046"/>
</g>
<!-- Node11&#45;&gt;Node32 -->
<g id="edge56" class="edge"><title>Node11&#45;&gt;Node32</title>
<path fill="none" stroke="midnightblue" d="M1612.79,-251.734C1629.89,-242.231 1657.71,-226.777 1679.86,-214.472"/>
<polygon fill="midnightblue" stroke="midnightblue" points="1681.61,-217.505 1688.65,-209.589 1678.21,-211.386 1681.61,-217.505"/>
</g>
<!-- Node12&#45;&gt;Node2 -->
<g id="edge18" class="edge"><title>Node12&#45;&gt;Node2</title>
<path fill="none" stroke="midnightblue" d="M1079.74,-189.827C1195.21,-183.44 1404.39,-168.477 1427.01,-143 1538.82,-17.0414 1150,-9.98258 1035.07,-10.5788"/>
<polygon fill="midnightblue" stroke="midnightblue" points="1034.8,-7.08062 1024.83,-10.6566 1034.86,-14.0804 1034.8,-7.08062"/>
</g>
<!-- Node13 -->
<g id="node14" class="node"><title>Node13</title>
<g id="a_node14"><a xlink:href="../../d6/d2f/Stacktrace_8hpp.html" target="_top" xlink:title="tools/Stacktrace.hpp">
<polygon fill="white" stroke="black" points="1619.51,-118 1619.51,-137 1726.51,-137 1726.51,-118 1619.51,-118"/>
<text text-anchor="middle" x="1673.01" y="-125" font-family="Helvetica,sans-Serif" font-size="10.00">tools/Stacktrace.hpp</text>
</a>
</g>
</g>
<!-- Node12&#45;&gt;Node13 -->
<g id="edge13" class="edge"><title>Node12&#45;&gt;Node13</title>
<path fill="none" stroke="midnightblue" d="M1079.53,-190.68C1194.58,-185.602 1420.42,-172.562 1610.01,-143 1616.41,-142.001 1623.13,-140.715 1629.7,-139.323"/>
<polygon fill="midnightblue" stroke="midnightblue" points="1630.83,-142.658 1639.83,-137.072 1629.31,-135.824 1630.83,-142.658"/>
</g>
<!-- Node14 -->
<g id="node15" class="node"><title>Node14</title>
<polygon fill="white" stroke="#bfbfbf" points="1475.51,-118 1475.51,-137 1524.51,-137 1524.51,-118 1475.51,-118"/>
<text text-anchor="middle" x="1500.01" y="-125" font-family="Helvetica,sans-Serif" font-size="10.00">cstddef</text>
</g>
<!-- Node12&#45;&gt;Node14 -->
<g id="edge16" class="edge"><title>Node12&#45;&gt;Node14</title>
<path fill="none" stroke="midnightblue" d="M1079.78,-190.82C1171.24,-186.286 1329.17,-174.288 1461.01,-143 1464,-142.289 1467.08,-141.413 1470.14,-140.446"/>
<polygon fill="midnightblue" stroke="midnightblue" points="1471.36,-143.727 1479.66,-137.141 1469.06,-137.114 1471.36,-143.727"/>
</g>
<!-- Node15 -->
<g id="node16" class="node"><title>Node15</title>
<polygon fill="white" stroke="#bfbfbf" points="1542.51,-118 1542.51,-137 1601.51,-137 1601.51,-118 1542.51,-118"/>
<text text-anchor="middle" x="1572.01" y="-125" font-family="Helvetica,sans-Serif" font-size="10.00">exception</text>
</g>
<!-- Node12&#45;&gt;Node15 -->
<g id="edge17" class="edge"><title>Node12&#45;&gt;Node15</title>
<path fill="none" stroke="midnightblue" d="M1079.89,-192.439C1183.52,-189.596 1374.52,-179.368 1533.01,-143 1536.08,-142.296 1539.23,-141.411 1542.36,-140.427"/>
<polygon fill="midnightblue" stroke="midnightblue" points="1543.78,-143.639 1552.07,-137.049 1541.48,-137.027 1543.78,-143.639"/>
</g>
<!-- Node16 -->
<g id="node17" class="node"><title>Node16</title>
<g id="a_node17"><a xlink:href="../../d7/d7a/configexception_8hpp.html" target="_top" xlink:title="configexception.hpp">
<polygon fill="white" stroke="black" points="370.009,-118 370.009,-137 474.009,-137 474.009,-118 370.009,-118"/>
<text text-anchor="middle" x="422.009" y="-125" font-family="Helvetica,sans-Serif" font-size="10.00">configexception.hpp</text>
</a>
</g>
</g>
<!-- Node12&#45;&gt;Node16 -->
<g id="edge19" class="edge"><title>Node12&#45;&gt;Node16</title>
<path fill="none" stroke="midnightblue" d="M928.152,-189.769C824.722,-183.723 634.242,-169.681 474.009,-143 467.956,-141.992 461.61,-140.725 455.491,-139.361"/>
<polygon fill="midnightblue" stroke="midnightblue" points="456.034,-135.894 445.498,-137.005 454.428,-142.707 456.034,-135.894"/>
</g>
<!-- Node19 -->
<g id="node20" class="node"><title>Node19</title>
<g id="a_node20"><a xlink:href="../../d8/db0/coreexception_8hpp.html" target="_top" xlink:title="Exception class for Core related errors. ">
<polygon fill="white" stroke="black" points="492.009,-118 492.009,-137 588.009,-137 588.009,-118 492.009,-118"/>
<text text-anchor="middle" x="540.009" y="-125" font-family="Helvetica,sans-Serif" font-size="10.00">coreexception.hpp</text>
</a>
</g>
</g>
<!-- Node12&#45;&gt;Node19 -->
<g id="edge25" class="edge"><title>Node12&#45;&gt;Node19</title>
<path fill="none" stroke="midnightblue" d="M928.382,-187.588C844.517,-180.023 705.733,-165.186 588.009,-143 582.75,-142.009 577.256,-140.816 571.92,-139.545"/>
<polygon fill="midnightblue" stroke="midnightblue" points="572.509,-136.085 561.958,-137.039 570.801,-142.873 572.509,-136.085"/>
</g>
<!-- Node20 -->
<g id="node21" class="node"><title>Node20</title>
<g id="a_node21"><a xlink:href="../../d8/d77/deviceexception_8hpp.html" target="_top" xlink:title="Exception class for Device related errors. ">
<polygon fill="white" stroke="black" points="606.009,-118 606.009,-137 712.009,-137 712.009,-118 606.009,-118"/>
<text text-anchor="middle" x="659.009" y="-125" font-family="Helvetica,sans-Serif" font-size="10.00">deviceexception.hpp</text>
</a>
</g>
</g>
<!-- Node12&#45;&gt;Node20 -->
<g id="edge28" class="edge"><title>Node12&#45;&gt;Node20</title>
<path fill="none" stroke="midnightblue" d="M944.785,-184.977C885.486,-175.546 792.052,-159.489 712.009,-143 706.528,-141.871 700.79,-140.621 695.181,-139.343"/>
<polygon fill="midnightblue" stroke="midnightblue" points="695.841,-135.903 685.306,-137.031 694.245,-142.719 695.841,-135.903"/>
</g>
<!-- Node21 -->
<g id="node22" class="node"><title>Node21</title>
<g id="a_node22"><a xlink:href="../../db/d35/dynlibexception_8hpp.html" target="_top" xlink:title="Exception class for DynLib related errors. ">
<polygon fill="white" stroke="black" points="730.509,-118 730.509,-137 833.509,-137 833.509,-118 730.509,-118"/>
<text text-anchor="middle" x="782.009" y="-125" font-family="Helvetica,sans-Serif" font-size="10.00">dynlibexception.hpp</text>
</a>
</g>
</g>
<!-- Node12&#45;&gt;Node21 -->
<g id="edge31" class="edge"><title>Node12&#45;&gt;Node21</title>
<path fill="none" stroke="midnightblue" d="M969.769,-184.869C927.978,-173.351 858.02,-152.922 816.24,-140.077"/>
<polygon fill="midnightblue" stroke="midnightblue" points="817.099,-136.679 806.512,-137.064 815.028,-143.366 817.099,-136.679"/>
</g>
<!-- Node22 -->
<g id="node23" class="node"><title>Node22</title>
<g id="a_node23"><a xlink:href="../../d0/d4e/fsexception_8hpp.html" target="_top" xlink:title="Exception class for filesystem related errors. ">
<polygon fill="white" stroke="black" points="852.009,-118 852.009,-137 938.009,-137 938.009,-118 852.009,-118"/>
<text text-anchor="middle" x="895.009" y="-125" font-family="Helvetica,sans-Serif" font-size="10.00">fsexception.hpp</text>
</a>
</g>
</g>
<!-- Node12&#45;&gt;Node22 -->
<g id="edge34" class="edge"><title>Node12&#45;&gt;Node22</title>
<path fill="none" stroke="midnightblue" d="M984.774,-184.869C964.489,-174.136 933.198,-155.664 913.289,-142.803"/>
<polygon fill="midnightblue" stroke="midnightblue" points="915.046,-139.768 904.775,-137.167 911.182,-145.605 915.046,-139.768"/>
</g>
<!-- Node23 -->
<g id="node24" class="node"><title>Node23</title>
<g id="a_node24"><a xlink:href="../../d1/d8e/gpioexception_8hpp.html" target="_top" xlink:title="Exception class for Gpio related errors. ">
<polygon fill="white" stroke="black" points="956.509,-118 956.509,-137 1051.51,-137 1051.51,-118 956.509,-118"/>
<text text-anchor="middle" x="1004.01" y="-125" font-family="Helvetica,sans-Serif" font-size="10.00">gpioexception.hpp</text>
</a>
</g>
</g>
<!-- Node12&#45;&gt;Node23 -->
<g id="edge37" class="edge"><title>Node12&#45;&gt;Node23</title>
<path fill="none" stroke="midnightblue" d="M999.22,-184.734C997.21,-175.183 996.745,-159.618 997.824,-147.283"/>
<polygon fill="midnightblue" stroke="midnightblue" points="1001.33,-147.517 999.25,-137.127 994.394,-146.544 1001.33,-147.517"/>
</g>
<!-- Node24 -->
<g id="node25" class="node"><title>Node24</title>
<g id="a_node25"><a xlink:href="../../d7/d8c/moduleexception_8hpp.html" target="_top" xlink:title="Exception class for modules. ">
<polygon fill="white" stroke="black" points="1069.51,-118 1069.51,-137 1178.51,-137 1178.51,-118 1069.51,-118"/>
<text text-anchor="middle" x="1124.01" y="-125" font-family="Helvetica,sans-Serif" font-size="10.00">moduleexception.hpp</text>
</a>
</g>
</g>
<!-- Node12&#45;&gt;Node24 -->
<g id="edge40" class="edge"><title>Node12&#45;&gt;Node24</title>
<path fill="none" stroke="midnightblue" d="M1015.4,-184.734C1033.5,-173.672 1068.55,-154.544 1094.07,-141.709"/>
<polygon fill="midnightblue" stroke="midnightblue" points="1095.91,-144.7 1103.32,-137.127 1092.81,-138.427 1095.91,-144.7"/>
</g>
<!-- Node25 -->
<g id="node26" class="node"><title>Node25</title>
<g id="a_node26"><a xlink:href="../../df/d8d/scriptexception_8hpp.html" target="_top" xlink:title="Exception class for Script related errors. ">
<polygon fill="white" stroke="black" points="1196.51,-118 1196.51,-137 1297.51,-137 1297.51,-118 1196.51,-118"/>
<text text-anchor="middle" x="1247.01" y="-125" font-family="Helvetica,sans-Serif" font-size="10.00">scriptexception.hpp</text>
</a>
</g>
</g>
<!-- Node12&#45;&gt;Node25 -->
<g id="edge43" class="edge"><title>Node12&#45;&gt;Node25</title>
<path fill="none" stroke="midnightblue" d="M1031.52,-184.869C1072.63,-173.205 1150.25,-152.402 1200.31,-139.592"/>
<polygon fill="midnightblue" stroke="midnightblue" points="1201.42,-142.922 1210.25,-137.064 1199.69,-136.138 1201.42,-142.922"/>
</g>
<!-- Node26 -->
<g id="node27" class="node"><title>Node26</title>
<g id="a_node27"><a xlink:href="../../dc/dce/signalexception_8hpp.html" target="_top" xlink:title="Exception class for Signal related errors. ">
<polygon fill="white" stroke="black" points="1315.51,-118 1315.51,-137 1418.51,-137 1418.51,-118 1315.51,-118"/>
<text text-anchor="middle" x="1367.01" y="-125" font-family="Helvetica,sans-Serif" font-size="10.00">signalexception.hpp</text>
</a>
</g>
</g>
<!-- Node12&#45;&gt;Node26 -->
<g id="edge46" class="edge"><title>Node12&#45;&gt;Node26</title>
<path fill="none" stroke="midnightblue" d="M1055.4,-184.978C1114.09,-175.758 1212.6,-160.069 1297.01,-143 1302.61,-141.867 1308.49,-140.588 1314.36,-139.271"/>
<polygon fill="midnightblue" stroke="midnightblue" points="1315.22,-142.665 1324.2,-137.038 1313.67,-135.839 1315.22,-142.665"/>
</g>
<!-- Node13&#45;&gt;Node2 -->
<g id="edge14" class="edge"><title>Node13&#45;&gt;Node2</title>
<path fill="none" stroke="midnightblue" d="M1652.37,-117.916C1614.96,-102.741 1533.09,-71.3336 1461.01,-56 1303.07,-22.4031 1108.99,-13.8002 1034.81,-11.6722"/>
<polygon fill="midnightblue" stroke="midnightblue" points="1034.85,-8.17202 1024.76,-11.4031 1034.66,-15.1695 1034.85,-8.17202"/>
</g>
<!-- Node13&#45;&gt;Node7 -->
<g id="edge15" class="edge"><title>Node13&#45;&gt;Node7</title>
<path fill="none" stroke="midnightblue" d="M1711.26,-117.921C1751.65,-108.736 1817.4,-93.4226 1883.02,-76.1747"/>
<polygon fill="midnightblue" stroke="midnightblue" points="1883.92,-79.5561 1892.69,-73.6164 1882.13,-72.7886 1883.92,-79.5561"/>
</g>
<!-- Node16&#45;&gt;Node2 -->
<g id="edge24" class="edge"><title>Node16&#45;&gt;Node2</title>
<path fill="none" stroke="midnightblue" d="M457.798,-117.927C466.073,-115.963 474.844,-113.896 483.009,-112 592.655,-86.5394 619.532,-77.5754 730.009,-56 817.909,-38.8336 922.536,-22.883 973.316,-15.4246"/>
<polygon fill="midnightblue" stroke="midnightblue" points="973.921,-18.8735 983.31,-13.9646 972.909,-11.9471 973.921,-18.8735"/>
</g>
<!-- Node16&#45;&gt;Node12 -->
<g id="edge20" class="edge"><title>Node16&#45;&gt;Node12</title>
<path fill="none" stroke="midnightblue" d="M462.767,-137.005C472.399,-139.222 482.56,-141.427 492.009,-143 640.855,-167.785 815.802,-181.664 917.913,-188.357"/>
<polygon fill="midnightblue" stroke="midnightblue" points="917.967,-191.868 928.172,-189.021 918.419,-184.882 917.967,-191.868"/>
</g>
<!-- Node17 -->
<g id="node18" class="node"><title>Node17</title>
<g id="a_node18"><a xlink:href="../../dd/d35/Colorize_8hpp.html" target="_top" xlink:title="tools/Colorize.hpp">
<polygon fill="white" stroke="black" points="218.509,-56.5 218.509,-75.5 313.509,-75.5 313.509,-56.5 218.509,-56.5"/>
<text text-anchor="middle" x="266.009" y="-63.5" font-family="Helvetica,sans-Serif" font-size="10.00">tools/Colorize.hpp</text>
</a>
</g>
</g>
<!-- Node16&#45;&gt;Node17 -->
<g id="edge21" class="edge"><title>Node16&#45;&gt;Node17</title>
<path fill="none" stroke="midnightblue" d="M399.658,-117.975C373.014,-107.813 328.295,-90.7564 297.994,-79.1996"/>
<polygon fill="midnightblue" stroke="midnightblue" points="298.909,-75.8026 288.318,-75.5091 296.415,-82.343 298.909,-75.8026"/>
</g>
<!-- Node17&#45;&gt;Node2 -->
<g id="edge23" class="edge"><title>Node17&#45;&gt;Node2</title>
<path fill="none" stroke="midnightblue" d="M313.689,-57.6975C318.52,-57.072 323.358,-56.4916 328.009,-56 576.355,-29.749 877.746,-16.0883 973.371,-12.1906"/>
<polygon fill="midnightblue" stroke="midnightblue" points="973.644,-15.6825 983.495,-11.7833 973.362,-8.68816 973.644,-15.6825"/>
</g>
<!-- Node18 -->
<g id="node19" class="node"><title>Node18</title>
<polygon fill="white" stroke="#bfbfbf" points="86.0088,-0.5 86.0088,-19.5 138.009,-19.5 138.009,-0.5 86.0088,-0.5"/>
<text text-anchor="middle" x="112.009" y="-7.5" font-family="Helvetica,sans-Serif" font-size="10.00">sstream</text>
</g>
<!-- Node17&#45;&gt;Node18 -->
<g id="edge22" class="edge"><title>Node17&#45;&gt;Node18</title>
<path fill="none" stroke="midnightblue" d="M241.607,-56.4435C215.812,-47.3986 174.932,-33.064 145.991,-22.9158"/>
<polygon fill="midnightblue" stroke="midnightblue" points="146.891,-19.5226 136.296,-19.5164 144.575,-26.1283 146.891,-19.5226"/>
</g>
<!-- Node19&#45;&gt;Node2 -->
<g id="edge26" class="edge"><title>Node19&#45;&gt;Node2</title>
<path fill="none" stroke="midnightblue" d="M571.162,-117.911C620.894,-104.281 721.351,-77.0857 807.009,-56 865.548,-41.5899 934.264,-26.2489 973.117,-17.72"/>
<polygon fill="midnightblue" stroke="midnightblue" points="974.23,-21.0592 983.25,-15.5014 972.733,-14.2212 974.23,-21.0592"/>
</g>
<!-- Node19&#45;&gt;Node12 -->
<g id="edge27" class="edge"><title>Node19&#45;&gt;Node12</title>
<path fill="none" stroke="midnightblue" d="M579.275,-137.039C588.115,-139.204 597.379,-141.374 606.009,-143 712.866,-163.138 837.073,-177.221 917.991,-185.307"/>
<polygon fill="midnightblue" stroke="midnightblue" points="917.835,-188.808 928.131,-186.311 918.525,-181.842 917.835,-188.808"/>
</g>
<!-- Node20&#45;&gt;Node2 -->
<g id="edge29" class="edge"><title>Node20&#45;&gt;Node2</title>
<path fill="none" stroke="midnightblue" d="M684.658,-117.913C747.043,-97.0276 906.497,-43.6453 973.562,-21.1931"/>
<polygon fill="midnightblue" stroke="midnightblue" points="974.763,-24.4821 983.134,-17.9885 972.54,-17.8442 974.763,-24.4821"/>
</g>
<!-- Node20&#45;&gt;Node12 -->
<g id="edge30" class="edge"><title>Node20&#45;&gt;Node12</title>
<path fill="none" stroke="midnightblue" d="M702.736,-137.031C711.812,-139.078 721.239,-141.193 730.009,-143 805.362,-158.523 892.583,-173.663 948.089,-183.252"/>
<polygon fill="midnightblue" stroke="midnightblue" points="947.625,-186.724 958.075,-184.977 948.816,-179.826 947.625,-186.724"/>
</g>
<!-- Node21&#45;&gt;Node2 -->
<g id="edge32" class="edge"><title>Node21&#45;&gt;Node2</title>
<path fill="none" stroke="midnightblue" d="M798.695,-117.819C837.199,-97.7864 932.465,-48.2221 978.414,-24.3164"/>
<polygon fill="midnightblue" stroke="midnightblue" points="980.176,-27.3448 987.432,-19.6245 976.945,-21.135 980.176,-27.3448"/>
</g>
<!-- Node21&#45;&gt;Node12 -->
<g id="edge33" class="edge"><title>Node21&#45;&gt;Node12</title>
<path fill="none" stroke="midnightblue" d="M816.003,-137.064C857.682,-148.546 927.64,-168.973 969.531,-181.847"/>
<polygon fill="midnightblue" stroke="midnightblue" points="968.701,-185.254 979.289,-184.869 970.772,-178.567 968.701,-185.254"/>
</g>
<!-- Node22&#45;&gt;Node2 -->
<g id="edge35" class="edge"><title>Node22&#45;&gt;Node2</title>
<path fill="none" stroke="midnightblue" d="M903.202,-117.819C921.35,-98.5879 965.183,-52.141 988.621,-27.3054"/>
<polygon fill="midnightblue" stroke="midnightblue" points="991.403,-29.457 995.721,-19.782 986.312,-24.6526 991.403,-29.457"/>
</g>
<!-- Node22&#45;&gt;Node12 -->
<g id="edge36" class="edge"><title>Node22&#45;&gt;Node12</title>
<path fill="none" stroke="midnightblue" d="M914.235,-137.127C934.467,-147.831 965.651,-166.236 985.569,-179.095"/>
<polygon fill="midnightblue" stroke="midnightblue" points="983.825,-182.137 994.097,-184.734 987.687,-176.298 983.825,-182.137"/>
</g>
<!-- Node23&#45;&gt;Node2 -->
<g id="edge39" class="edge"><title>Node23&#45;&gt;Node2</title>
<path fill="none" stroke="midnightblue" d="M1004.01,-117.819C1004.01,-99.2568 1004.01,-55.3391 1004.01,-29.9734"/>
<polygon fill="midnightblue" stroke="midnightblue" points="1007.51,-29.782 1004.01,-19.782 1000.51,-29.782 1007.51,-29.782"/>
</g>
<!-- Node23&#45;&gt;Node12 -->
<g id="edge38" class="edge"><title>Node23&#45;&gt;Node12</title>
<path fill="none" stroke="midnightblue" d="M1008.77,-137.127C1010.79,-146.62 1011.27,-162.17 1010.21,-174.537"/>
<polygon fill="midnightblue" stroke="midnightblue" points="1006.7,-174.348 1008.8,-184.734 1013.64,-175.308 1006.7,-174.348"/>
</g>
<!-- Node24&#45;&gt;Node2 -->
<g id="edge41" class="edge"><title>Node24&#45;&gt;Node2</title>
<path fill="none" stroke="midnightblue" d="M1114.99,-117.819C1094.92,-98.5043 1046.33,-51.7366 1020.61,-26.9827"/>
<polygon fill="midnightblue" stroke="midnightblue" points="1022.77,-24.195 1013.13,-19.782 1017.91,-29.2384 1022.77,-24.195"/>
</g>
<!-- Node24&#45;&gt;Node12 -->
<g id="edge42" class="edge"><title>Node24&#45;&gt;Node12</title>
<path fill="none" stroke="midnightblue" d="M1112.78,-137.167C1094.74,-148.209 1059.57,-167.4 1033.99,-180.274"/>
<polygon fill="midnightblue" stroke="midnightblue" points="1032.11,-177.295 1024.7,-184.869 1035.22,-183.569 1032.11,-177.295"/>
</g>
<!-- Node25&#45;&gt;Node2 -->
<g id="edge44" class="edge"><title>Node25&#45;&gt;Node2</title>
<path fill="none" stroke="midnightblue" d="M1228.74,-117.819C1186.42,-97.7026 1081.45,-47.8068 1031.4,-24.0176"/>
<polygon fill="midnightblue" stroke="midnightblue" points="1032.69,-20.7563 1022.15,-19.6245 1029.68,-27.0785 1032.69,-20.7563"/>
</g>
<!-- Node25&#45;&gt;Node12 -->
<g id="edge45" class="edge"><title>Node25&#45;&gt;Node12</title>
<path fill="none" stroke="midnightblue" d="M1219.67,-137.083C1178.6,-148.736 1100.85,-169.576 1050.72,-182.404"/>
<polygon fill="midnightblue" stroke="midnightblue" points="1049.6,-179.077 1040.77,-184.936 1051.33,-185.861 1049.6,-179.077"/>
</g>
<!-- Node26&#45;&gt;Node2 -->
<g id="edge47" class="edge"><title>Node26&#45;&gt;Node2</title>
<path fill="none" stroke="midnightblue" d="M1340.02,-117.913C1273.91,-96.8784 1104.21,-42.881 1034.55,-20.7167"/>
<polygon fill="midnightblue" stroke="midnightblue" points="1035.23,-17.2606 1024.64,-17.5638 1033.11,-23.9311 1035.23,-17.2606"/>
</g>
<!-- Node26&#45;&gt;Node12 -->
<g id="edge48" class="edge"><title>Node26&#45;&gt;Node12</title>
<path fill="none" stroke="midnightblue" d="M1341.6,-137.038C1333.16,-139.107 1323.76,-141.231 1315.01,-143 1234.89,-159.202 1142.05,-174.161 1078.74,-183.524"/>
<polygon fill="midnightblue" stroke="midnightblue" points="1078.22,-180.062 1068.84,-184.978 1079.24,-186.988 1078.22,-180.062"/>
</g>
<!-- Node27&#45;&gt;Node2 -->
<g id="edge55" class="edge"><title>Node27&#45;&gt;Node2</title>
<path fill="none" stroke="midnightblue" d="M582.866,-184.935C576.139,-182.82 568.839,-180.681 562.009,-179 470.571,-156.498 301.541,-185.012 361.009,-112 439.293,-15.8847 855.681,-10.3323 973.139,-10.7092"/>
<polygon fill="midnightblue" stroke="midnightblue" points="973.229,-14.2096 983.247,-10.7593 973.264,-7.20973 973.229,-14.2096"/>
</g>
<!-- Node27&#45;&gt;Node18 -->
<g id="edge54" class="edge"><title>Node27&#45;&gt;Node18</title>
<path fill="none" stroke="midnightblue" d="M584.411,-184.87C577.3,-182.595 569.416,-180.39 562.009,-179 502.145,-167.764 56.6399,-187.461 15.0088,-143 -21.8812,-103.602 49.2364,-50.0726 88.4938,-25.0172"/>
<polygon fill="midnightblue" stroke="midnightblue" points="90.6125,-27.821 97.2491,-19.5622 86.9108,-21.8798 90.6125,-27.821"/>
</g>
<!-- Node28 -->
<g id="node29" class="node"><title>Node28</title>
<polygon fill="white" stroke="#bfbfbf" points="199.509,-118 199.509,-137 248.509,-137 248.509,-118 199.509,-118"/>
<text text-anchor="middle" x="224.009" y="-125" font-family="Helvetica,sans-Serif" font-size="10.00">cassert</text>
</g>
<!-- Node27&#45;&gt;Node28 -->
<g id="edge50" class="edge"><title>Node27&#45;&gt;Node28</title>
<path fill="none" stroke="midnightblue" d="M583.887,-184.96C576.9,-182.743 569.213,-180.546 562.009,-179 428.552,-150.356 388.714,-178.848 257.009,-143 254.716,-142.376 252.378,-141.618 250.057,-140.78"/>
<polygon fill="midnightblue" stroke="midnightblue" points="251.368,-137.534 240.786,-137.018 248.736,-144.021 251.368,-137.534"/>
</g>
<!-- Node29 -->
<g id="node30" class="node"><title>Node29</title>
<polygon fill="white" stroke="#bfbfbf" points="266.509,-118 266.509,-137 313.509,-137 313.509,-118 266.509,-118"/>
<text text-anchor="middle" x="290.009" y="-125" font-family="Helvetica,sans-Serif" font-size="10.00">csignal</text>
</g>
<!-- Node27&#45;&gt;Node29 -->
<g id="edge51" class="edge"><title>Node27&#45;&gt;Node29</title>
<path fill="none" stroke="midnightblue" d="M583.373,-184.972C576.514,-182.808 569.022,-180.635 562.009,-179 459.532,-155.113 429.734,-169.907 328.009,-143 325.349,-142.296 322.618,-141.471 319.9,-140.577"/>
<polygon fill="midnightblue" stroke="midnightblue" points="320.853,-137.201 310.258,-137.136 318.5,-143.794 320.853,-137.201"/>
</g>
<!-- Node30 -->
<g id="node31" class="node"><title>Node30</title>
<polygon fill="white" stroke="#bfbfbf" points="24.0088,-118 24.0088,-137 78.0088,-137 78.0088,-118 24.0088,-118"/>
<text text-anchor="middle" x="51.0088" y="-125" font-family="Helvetica,sans-Serif" font-size="10.00">iostream</text>
</g>
<!-- Node27&#45;&gt;Node30 -->
<g id="edge52" class="edge"><title>Node27&#45;&gt;Node30</title>
<path fill="none" stroke="midnightblue" d="M584.402,-184.916C577.291,-182.643 569.409,-180.427 562.009,-179 354.122,-138.911 293.185,-191.116 87.0088,-143 84.3329,-142.376 81.596,-141.582 78.8854,-140.689"/>
<polygon fill="midnightblue" stroke="midnightblue" points="79.9327,-137.345 69.3398,-137.145 77.4963,-143.907 79.9327,-137.345"/>
</g>
<!-- Node31 -->
<g id="node32" class="node"><title>Node31</title>
<polygon fill="white" stroke="#bfbfbf" points="96.5088,-118 96.5088,-137 181.509,-137 181.509,-118 96.5088,-118"/>
<text text-anchor="middle" x="139.009" y="-125" font-family="Helvetica,sans-Serif" font-size="10.00">spdlog/spdlog.h</text>
</g>
<!-- Node27&#45;&gt;Node31 -->
<g id="edge53" class="edge"><title>Node27&#45;&gt;Node31</title>
<path fill="none" stroke="midnightblue" d="M583.907,-184.862C576.921,-182.643 569.229,-180.471 562.009,-179 399.244,-145.851 353.227,-173.838 190.009,-143 185.229,-142.097 180.25,-140.949 175.356,-139.695"/>
<polygon fill="midnightblue" stroke="midnightblue" points="176.093,-136.269 165.525,-137.019 174.255,-143.023 176.093,-136.269"/>
</g>
<!-- Node33&#45;&gt;Node2 -->
<g id="edge64" class="edge"><title>Node33&#45;&gt;Node2</title>
<path fill="none" stroke="midnightblue" d="M1764.69,-57.4399C1760.06,-56.9129 1755.46,-56.4237 1751.01,-56 1473.66,-29.5906 1136.82,-15.8504 1034.75,-12.085"/>
<polygon fill="midnightblue" stroke="midnightblue" points="1034.67,-8.57957 1024.55,-11.713 1034.41,-15.5749 1034.67,-8.57957"/>
</g>
<!-- Node34 -->
<g id="node35" class="node"><title>Node34</title>
<polygon fill="white" stroke="#bfbfbf" points="1909.01,-0.5 1909.01,-19.5 1955.01,-19.5 1955.01,-0.5 1909.01,-0.5"/>
<text text-anchor="middle" x="1932.01" y="-7.5" font-family="Helvetica,sans-Serif" font-size="10.00">cstdint</text>
</g>
<!-- Node33&#45;&gt;Node34 -->
<g id="edge63" class="edge"><title>Node33&#45;&gt;Node34</title>
<path fill="none" stroke="midnightblue" d="M1838,-56.324C1856.05,-47.6247 1884.06,-34.1202 1904.81,-24.113"/>
<polygon fill="midnightblue" stroke="midnightblue" points="1906.57,-27.1502 1914.06,-19.6545 1903.53,-20.8449 1906.57,-27.1502"/>
</g>
<!-- Node35&#45;&gt;Node2 -->
<g id="edge69" class="edge"><title>Node35&#45;&gt;Node2</title>
<path fill="none" stroke="midnightblue" d="M1995.45,-112.377C1986.79,-95.5519 1969.8,-68.1916 1946.01,-56 1863.39,-13.6554 1187.76,-11.0204 1034.74,-10.9701"/>
<polygon fill="midnightblue" stroke="midnightblue" points="1034.64,-7.47003 1024.64,-10.9705 1034.64,-14.47 1034.64,-7.47003"/>
</g>
<!-- Node35&#45;&gt;Node7 -->
<g id="edge70" class="edge"><title>Node35&#45;&gt;Node7</title>
<path fill="none" stroke="midnightblue" d="M1981.39,-112.399C1967.71,-103.04 1949.8,-90.7924 1936.03,-81.3771"/>
<polygon fill="midnightblue" stroke="midnightblue" points="1937.9,-78.414 1927.67,-75.6578 1933.95,-84.1919 1937.9,-78.414"/>
</g>
<!-- Node36 -->
<g id="node37" class="node"><title>Node36</title>
<g id="a_node37"><a xlink:href="../../d4/d90/bufferutils_8hpp.html" target="_top" xlink:title="buffer&#45;related helper functions ">
<polygon fill="white" stroke="black" points="1993.01,-56.5 1993.01,-75.5 2095.01,-75.5 2095.01,-56.5 1993.01,-56.5"/>
<text text-anchor="middle" x="2044.01" y="-63.5" font-family="Helvetica,sans-Serif" font-size="10.00">tools/bufferutils.hpp</text>
</a>
</g>
</g>
<!-- Node35&#45;&gt;Node36 -->
<g id="edge71" class="edge"><title>Node35&#45;&gt;Node36</title>
<path fill="none" stroke="midnightblue" d="M2011.96,-112.399C2018,-103.842 2025.75,-92.8708 2032.11,-83.857"/>
<polygon fill="midnightblue" stroke="midnightblue" points="2034.99,-85.8459 2037.9,-75.6578 2029.27,-81.8091 2034.99,-85.8459"/>
</g>
<!-- Node36&#45;&gt;Node34 -->
<g id="edge72" class="edge"><title>Node36&#45;&gt;Node34</title>
<path fill="none" stroke="midnightblue" d="M2026.01,-56.324C2007.97,-47.6247 1979.96,-34.1202 1959.21,-24.113"/>
<polygon fill="midnightblue" stroke="midnightblue" points="1960.49,-20.8449 1949.96,-19.6545 1957.45,-27.1502 1960.49,-20.8449"/>
</g>
<!-- Node37&#45;&gt;Node7 -->
<g id="edge75" class="edge"><title>Node37&#45;&gt;Node7</title>
<path fill="none" stroke="midnightblue" d="M2094.06,-117.975C2055.02,-106.86 1987.01,-87.4986 1946.99,-76.1053"/>
<polygon fill="midnightblue" stroke="midnightblue" points="1947.79,-72.6937 1937.21,-73.3218 1945.87,-79.4262 1947.79,-72.6937"/>
</g>
<!-- Node37&#45;&gt;Node36 -->
<g id="edge74" class="edge"><title>Node37&#45;&gt;Node36</title>
<path fill="none" stroke="midnightblue" d="M2112.55,-117.975C2099.83,-108.52 2079.1,-93.0961 2063.76,-81.6871"/>
<polygon fill="midnightblue" stroke="midnightblue" points="2065.56,-78.6686 2055.45,-75.5091 2061.38,-84.2854 2065.56,-78.6686"/>
</g>
</g>
</svg>
        <g id="navigator" transform="translate(0 0)" fill="#404254">
                <rect fill="#f2f5e9" fill-opacity="0.5" stroke="#606060" stroke-width=".5" x="0" y="0" width="60" height="60"/>
                <use id="zoomplus" xlink:href="#zoomPlus" x="17" y="9" onmousedown="handleZoom(evt,'in')"/>
                <use id="zoomminus" xlink:href="#zoomMin" x="42" y="9" onmousedown="handleZoom(evt,'out')"/>
                <use id="reset" xlink:href="#resetDef" x="30" y="36" onmousedown="handleReset()"/>
                <g id="arrowUp" xlink:href="#dirArrow" transform="translate(30 24)" onmousedown="handlePan(0,-1)">
                  <use xlink:href="#rim" fill="#404040">
                        <set attributeName="fill" to="#808080" begin="arrowUp.mouseover" end="arrowUp.mouseout"/>
                  </use>
                  <path fill="none" stroke="white" stroke-width="1.5" d="M0,-3.0v7 M-2.5,-0.5L0,-3.0L2.5,-0.5"/>
                </g>
                <g id="arrowRight" xlink:href="#dirArrow" transform="rotate(90) translate(36 -43)" onmousedown="handlePan(1,0)">
                  <use xlink:href="#rim" fill="#404040">
                        <set attributeName="fill" to="#808080" begin="arrowRight.mouseover" end="arrowRight.mouseout"/>
                  </use>
                  <path fill="none" stroke="white" stroke-width="1.5" d="M0,-3.0v7 M-2.5,-0.5L0,-3.0L2.5,-0.5"/>
                </g>
                <g id="arrowDown" xlink:href="#dirArrow" transform="rotate(180) translate(-30 -48)" onmousedown="handlePan(0,1)">
                  <use xlink:href="#rim" fill="#404040">
                        <set attributeName="fill" to="#808080" begin="arrowDown.mouseover" end="arrowDown.mouseout"/>
                  </use>
                  <path fill="none" stroke="white" stroke-width="1.5" d="M0,-3.0v7 M-2.5,-0.5L0,-3.0L2.5,-0.5"/>
                </g>
                <g id="arrowLeft" xlink:href="#dirArrow" transform="rotate(270) translate(-36 17)" onmousedown="handlePan(-1,0)">
                  <use xlink:href="#rim" fill="#404040">
                        <set attributeName="fill" to="#808080" begin="arrowLeft.mouseover" end="arrowLeft.mouseout"/>
                  </use>
                  <path fill="none" stroke="white" stroke-width="1.5" d="M0,-3.0v7 M-2.5,-0.5L0,-3.0L2.5,-0.5"/>
                </g>
        </g>
        <svg viewBox="0 0 15 15" width="100%" height="30px" preserveAspectRatio="xMaxYMin meet">
         <g id="arrow_out" transform="scale(0.3 0.3)">
          <a xlink:href="RplethModule_8hpp__incl_org.svg" target="_base">
           <rect id="button" ry="5" rx="5" y="6" x="6" height="38" width="38"
                fill="#f2f5e9" fill-opacity="0.5" stroke="#606060" stroke-width="1.0"/>
           <path id="arrow"
             d="M 11.500037,31.436501 C 11.940474,20.09759 22.043105,11.32322 32.158766,21.979434 L 37.068811,17.246167 C 37.068811,17.246167 37.088388,32 37.088388,32 L 22.160133,31.978069 C 22.160133,31.978069 26.997745,27.140456 26.997745,27.140456 C 18.528582,18.264221 13.291696,25.230495 11.500037,31.436501 z"
             style="fill:#404040;"/>
          </a>
         </g>
        </svg>
</svg>
