<?xml version="1.0" encoding="UTF-8" standalone="no"?>
<!DOCTYPE svg PUBLIC "-//W3C//DTD SVG 1.1//EN"
 "http://www.w3.org/Graphics/SVG/1.1/DTD/svg11.dtd">
<!-- Generated by graphviz version 2.38.0 (20140413.2041)
 -->
<!-- Title: src/core/credentials/CredentialValidator.hpp Pages: 1 -->
<svg width="250pt" height="106pt"
 viewBox="0.00 0.00 249.50 106.00" xmlns="http://www.w3.org/2000/svg" xmlns:xlink="http://www.w3.org/1999/xlink">
<g id="graph0" class="graph" transform="scale(1 1) rotate(0) translate(4 102)">
<title>src/core/credentials/CredentialValidator.hpp</title>
<polygon fill="white" stroke="none" points="-4,4 -4,-102 245.5,-102 245.5,4 -4,4"/>
<!-- Node4 -->
<g id="node1" class="node"><title>Node4</title>
<polygon fill="#bfbfbf" stroke="black" points="55.5,-67.5 55.5,-97.5 176.5,-97.5 176.5,-67.5 55.5,-67.5"/>
<text text-anchor="start" x="63.5" y="-85.5" font-family="Helvetica,sans-Serif" font-size="10.00">src/core/credentials</text>
<text text-anchor="middle" x="116" y="-74.5" font-family="Helvetica,sans-Serif" font-size="10.00">/CredentialValidator.hpp</text>
</g>
<!-- Node5 -->
<g id="node2" class="node"><title>Node5</title>
<g id="a_node2"><a xlink:href="../../d7/de7/Credential_8cpp.html" target="_top" xlink:title="src/core/credentials\l/Credential.cpp">
<polygon fill="white" stroke="black" points="0,-0.5 0,-30.5 102,-30.5 102,-0.5 0,-0.5"/>
<text text-anchor="start" x="8" y="-18.5" font-family="Helvetica,sans-Serif" font-size="10.00">src/core/credentials</text>
<text text-anchor="middle" x="51" y="-7.5" font-family="Helvetica,sans-Serif" font-size="10.00">/Credential.cpp</text>
</a>
</g>
</g>
<!-- Node4&#45;&gt;Node5 -->
<g id="edge1" class="edge"><title>Node4&#45;&gt;Node5</title>
<path fill="none" stroke="midnightblue" d="M94.8115,-60.3115C85.0612,-50.5612 73.759,-39.259 65.0765,-30.5765"/>
<polygon fill="midnightblue" stroke="midnightblue" points="92.35,-62.7998 101.896,-67.396 97.2998,-57.85 92.35,-62.7998"/>
</g>
<!-- Node6 -->
<g id="node3" class="node"><title>Node6</title>
<g id="a_node3"><a xlink:href="../../d6/da9/src_2core_2credentials_2CredentialValidator_8cpp.html" target="_top" xlink:title="src/core/credentials\l/CredentialValidator.cpp">
<polygon fill="white" stroke="black" points="120.5,-0.5 120.5,-30.5 241.5,-30.5 241.5,-0.5 120.5,-0.5"/>
<text text-anchor="start" x="128.5" y="-18.5" font-family="Helvetica,sans-Serif" font-size="10.00">src/core/credentials</text>
<text text-anchor="middle" x="181" y="-7.5" font-family="Helvetica,sans-Serif" font-size="10.00">/CredentialValidator.cpp</text>
</a>
</g>
</g>
<!-- Node4&#45;&gt;Node6 -->
<g id="edge2" class="edge"><title>Node4&#45;&gt;Node6</title>
<path fill="none" stroke="midnightblue" d="M137.189,-60.3115C146.939,-50.5612 158.241,-39.259 166.923,-30.5765"/>
<polygon fill="midnightblue" stroke="midnightblue" points="134.7,-57.85 130.104,-67.396 139.65,-62.7998 134.7,-57.85"/>
</g>
</g>
</svg>
