<?xml version="1.0" encoding="UTF-8" standalone="no"?>
<!DOCTYPE svg PUBLIC "-//W3C//DTD SVG 1.1//EN"
 "http://www.w3.org/Graphics/SVG/1.1/DTD/svg11.dtd">
<!-- Generated by graphviz version 2.38.0 (20140413.2041)
 -->
<!-- Title: src/core/audit/CredentialEvent.hpp Pages: 1 -->
<svg width="302pt" height="106pt"
 viewBox="0.00 0.00 302.00 106.00" xmlns="http://www.w3.org/2000/svg" xmlns:xlink="http://www.w3.org/1999/xlink">
<g id="graph0" class="graph" transform="scale(1 1) rotate(0) translate(4 102)">
<title>src/core/audit/CredentialEvent.hpp</title>
<polygon fill="white" stroke="none" points="-4,4 -4,-102 298,-102 298,4 -4,4"/>
<!-- Node30 -->
<g id="node1" class="node"><title>Node30</title>
<polygon fill="#bfbfbf" stroke="black" points="93,-67.5 93,-97.5 216,-97.5 216,-67.5 93,-67.5"/>
<text text-anchor="start" x="101" y="-85.5" font-family="Helvetica,sans-Serif" font-size="10.00">src/core/audit/Credential</text>
<text text-anchor="middle" x="154.5" y="-74.5" font-family="Helvetica,sans-Serif" font-size="10.00">Event.hpp</text>
</g>
<!-- Node31 -->
<g id="node2" class="node"><title>Node31</title>
<g id="a_node2"><a xlink:href="../../d4/dbe/AuditFactory_8cpp.html" target="_top" xlink:title="src/core/audit/AuditFactory.cpp">
<polygon fill="white" stroke="black" points="0,-6 0,-25 153,-25 153,-6 0,-6"/>
<text text-anchor="middle" x="76.5" y="-13" font-family="Helvetica,sans-Serif" font-size="10.00">src/core/audit/AuditFactory.cpp</text>
</a>
</g>
</g>
<!-- Node30&#45;&gt;Node31 -->
<g id="edge1" class="edge"><title>Node30&#45;&gt;Node31</title>
<path fill="none" stroke="midnightblue" d="M129.507,-60.6722C115.105,-48.6707 97.7643,-34.2203 86.9334,-25.1945"/>
<polygon fill="midnightblue" stroke="midnightblue" points="127.652,-63.6829 137.575,-67.396 132.134,-58.3053 127.652,-63.6829"/>
</g>
<!-- Node32 -->
<g id="node3" class="node"><title>Node32</title>
<g id="a_node3"><a xlink:href="../../d5/dd1/CredentialEvent_8cpp.html" target="_top" xlink:title="src/core/audit/Credential\lEvent.cpp">
<polygon fill="white" stroke="black" points="171,-0.5 171,-30.5 294,-30.5 294,-0.5 171,-0.5"/>
<text text-anchor="start" x="179" y="-18.5" font-family="Helvetica,sans-Serif" font-size="10.00">src/core/audit/Credential</text>
<text text-anchor="middle" x="232.5" y="-7.5" font-family="Helvetica,sans-Serif" font-size="10.00">Event.cpp</text>
</a>
</g>
</g>
<!-- Node30&#45;&gt;Node32 -->
<g id="edge2" class="edge"><title>Node30&#45;&gt;Node32</title>
<path fill="none" stroke="midnightblue" d="M179.24,-60.8832C191.093,-51.0054 204.985,-39.4293 215.608,-30.5765"/>
<polygon fill="midnightblue" stroke="midnightblue" points="176.866,-58.3053 171.425,-67.396 181.348,-63.6829 176.866,-58.3053"/>
</g>
</g>
</svg>
