<?xml version="1.0" encoding="UTF-8" standalone="no"?>
<!DOCTYPE svg PUBLIC "-//W3C//DTD SVG 1.1//EN"
 "http://www.w3.org/Graphics/SVG/1.1/DTD/svg11.dtd">
<!-- Generated by graphviz version 2.38.0 (20140413.2041)
 -->
<!-- Title: src/core/auth/Auth.hpp Pages: 1 -->
<!--zoomable 474 -->
<svg id="main" version="1.1" xmlns="http://www.w3.org/2000/svg" xmlns:xlink="http://www.w3.org/1999/xlink" xml:space="preserve" onload="init(evt)">
<style type="text/css"><![CDATA[
.edge:hover path { stroke: red; }
.edge:hover polygon { stroke: red; fill: red; }
]]></style>
<script type="text/javascript"><![CDATA[
var edges = document.getElementsByTagName('g');
if (edges && edges.length) {
  for (var i=0;i<edges.length;i++) {
    if (edges[i].id.substr(0,4)=='edge') {
      edges[i].setAttribute('class','edge');
    }
  }
}
]]></script>
        <defs>
                <circle id="rim" cx="0" cy="0" r="7"/>
                <circle id="rim2" cx="0" cy="0" r="3.5"/>
                <g id="zoomPlus">
                        <use xlink:href="#rim" fill="#404040">
                                <set attributeName="fill" to="#808080" begin="zoomplus.mouseover" end="zoomplus.mouseout"/>
                        </use>
                        <path d="M-4,0h8M0,-4v8" fill="none" stroke="white" stroke-width="1.5" pointer-events="none"/>
                </g>
                <g id="zoomMin">
                        <use xlink:href="#rim" fill="#404040">
                                <set attributeName="fill" to="#808080" begin="zoomminus.mouseover" end="zoomminus.mouseout"/>
                        </use>
                        <path d="M-4,0h8" fill="none" stroke="white" stroke-width="1.5" pointer-events="none"/>
                </g>
                <g id="dirArrow">
                        <path fill="none" stroke="white" stroke-width="1.5" d="M0,-3.0v7 M-2.5,-0.5L0,-3.0L2.5,-0.5"/>
                </g>
               <g id="resetDef">
                       <use xlink:href="#rim2" fill="#404040">
                               <set attributeName="fill" to="#808080" begin="reset.mouseover" end="reset.mouseout"/>
                       </use>
               </g>
        </defs>

<script type="text/javascript">
var viewWidth = 2410;
var viewHeight = 474;
var sectionId = 'dynsection-1';
</script>
<script xlink:href="../../svgpan.js"/>
<svg id="graph" class="graph">
<g id="viewport">
<title>src/core/auth/Auth.hpp</title>
<polygon fill="white" stroke="none" points="-4,4 -4,-470 2405.5,-470 2405.5,4 -4,4"/>
<!-- Node6 -->
<g id="node1" class="node"><title>Node6</title>
<polygon fill="#bfbfbf" stroke="black" points="1187,-446.5 1187,-465.5 1303,-465.5 1303,-446.5 1187,-446.5"/>
<text text-anchor="middle" x="1245" y="-453.5" font-family="Helvetica,sans-Serif" font-size="10.00">src/core/auth/Auth.hpp</text>
</g>
<!-- Node7 -->
<g id="node2" class="node"><title>Node7</title>
<g id="a_node2"><a xlink:href="../../de/d1f/Auth_8cpp.html" target="_top" xlink:title="src/core/auth/Auth.cpp">
<polygon fill="white" stroke="black" points="0,-385 0,-404 116,-404 116,-385 0,-385"/>
<text text-anchor="middle" x="58" y="-392" font-family="Helvetica,sans-Serif" font-size="10.00">src/core/auth/Auth.cpp</text>
</a>
</g>
</g>
<!-- Node6&#45;&gt;Node7 -->
<g id="edge1" class="edge"><title>Node6&#45;&gt;Node7</title>
<path fill="none" stroke="midnightblue" d="M1176.49,-453.801C965.903,-449.87 330.025,-436.105 125,-410 114.139,-408.617 102.431,-406.355 91.8875,-404.025"/>
<polygon fill="midnightblue" stroke="midnightblue" points="1176.72,-457.306 1186.78,-453.992 1176.85,-450.307 1176.72,-457.306"/>
</g>
<!-- Node8 -->
<g id="node3" class="node"><title>Node8</title>
<g id="a_node3"><a xlink:href="../../d0/dc0/src_2core_2auth_2AuthSourceBuilder_8cpp.html" target="_top" xlink:title="src/core/auth/AuthSource\lBuilder.cpp">
<polygon fill="white" stroke="black" points="134,-379.5 134,-409.5 262,-409.5 262,-379.5 134,-379.5"/>
<text text-anchor="start" x="142" y="-397.5" font-family="Helvetica,sans-Serif" font-size="10.00">src/core/auth/AuthSource</text>
<text text-anchor="middle" x="198" y="-386.5" font-family="Helvetica,sans-Serif" font-size="10.00">Builder.cpp</text>
</a>
</g>
</g>
<!-- Node6&#45;&gt;Node8 -->
<g id="edge2" class="edge"><title>Node6&#45;&gt;Node8</title>
<path fill="none" stroke="midnightblue" d="M1176.71,-455.354C1017.41,-455.415 609.103,-451.154 271,-410 268.05,-409.641 265.041,-409.229 262.007,-408.778"/>
<polygon fill="midnightblue" stroke="midnightblue" points="1176.84,-458.854 1186.84,-455.344 1176.83,-451.854 1176.84,-458.854"/>
</g>
<!-- Node9 -->
<g id="node4" class="node"><title>Node9</title>
<g id="a_node4"><a xlink:href="../../da/d9b/AuthFileInstance_8cpp.html" target="_top" xlink:title="src/modules/auth/auth\l&#45;file/AuthFileInstance.cpp">
<polygon fill="white" stroke="black" points="280,-379.5 280,-409.5 408,-409.5 408,-379.5 280,-379.5"/>
<text text-anchor="start" x="288" y="-397.5" font-family="Helvetica,sans-Serif" font-size="10.00">src/modules/auth/auth</text>
<text text-anchor="middle" x="344" y="-386.5" font-family="Helvetica,sans-Serif" font-size="10.00">&#45;file/AuthFileInstance.cpp</text>
</a>
</g>
</g>
<!-- Node6&#45;&gt;Node9 -->
<g id="edge3" class="edge"><title>Node6&#45;&gt;Node9</title>
<path fill="none" stroke="midnightblue" d="M1176.47,-454.554C1034.33,-452.909 697.264,-445.27 417,-410 414.051,-409.629 411.043,-409.207 408.01,-408.748"/>
<polygon fill="midnightblue" stroke="midnightblue" points="1176.74,-458.057 1186.77,-454.667 1176.81,-451.058 1176.74,-458.057"/>
</g>
<!-- Node10 -->
<g id="node5" class="node"><title>Node10</title>
<g id="a_node5"><a xlink:href="../../d3/dc5/FileAuthSourceMapper_8cpp.html" target="_top" xlink:title="src/modules/auth/auth\l&#45;file/FileAuthSourceMapper.cpp">
<polygon fill="white" stroke="black" points="426.5,-379.5 426.5,-409.5 579.5,-409.5 579.5,-379.5 426.5,-379.5"/>
<text text-anchor="start" x="434.5" y="-397.5" font-family="Helvetica,sans-Serif" font-size="10.00">src/modules/auth/auth</text>
<text text-anchor="middle" x="503" y="-386.5" font-family="Helvetica,sans-Serif" font-size="10.00">&#45;file/FileAuthSourceMapper.cpp</text>
</a>
</g>
</g>
<!-- Node6&#45;&gt;Node10 -->
<g id="edge4" class="edge"><title>Node6&#45;&gt;Node10</title>
<path fill="none" stroke="midnightblue" d="M1176.9,-452.29C1058.21,-447.121 805.911,-434.159 594,-410 589.39,-409.474 584.658,-408.882 579.888,-408.244"/>
<polygon fill="midnightblue" stroke="midnightblue" points="1176.79,-455.788 1186.93,-452.722 1177.09,-448.795 1176.79,-455.788"/>
</g>
<!-- Node11 -->
<g id="node6" class="node"><title>Node11</title>
<g id="a_node6"><a xlink:href="../../d5/d40/DoormanInstance_8hpp.html" target="_top" xlink:title="src/modules/doorman\l/DoormanInstance.hpp">
<polygon fill="white" stroke="black" points="636,-379.5 636,-409.5 752,-409.5 752,-379.5 636,-379.5"/>
<text text-anchor="start" x="644" y="-397.5" font-family="Helvetica,sans-Serif" font-size="10.00">src/modules/doorman</text>
<text text-anchor="middle" x="694" y="-386.5" font-family="Helvetica,sans-Serif" font-size="10.00">/DoormanInstance.hpp</text>
</a>
</g>
</g>
<!-- Node6&#45;&gt;Node11 -->
<g id="edge5" class="edge"><title>Node6&#45;&gt;Node11</title>
<path fill="none" stroke="midnightblue" d="M1176.75,-450.853C1083.59,-444.676 911.559,-431.434 766,-410 761.459,-409.331 756.771,-408.564 752.067,-407.739"/>
<polygon fill="midnightblue" stroke="midnightblue" points="1176.68,-454.356 1186.88,-451.517 1177.13,-447.371 1176.68,-454.356"/>
</g>
<!-- Node12 -->
<g id="node7" class="node"><title>Node12</title>
<g id="a_node7"><a xlink:href="../../d2/d46/DoormanInstance_8cpp.html" target="_top" xlink:title="src/modules/doorman\l/DoormanInstance.cpp">
<polygon fill="white" stroke="black" points="505,-312.5 505,-342.5 621,-342.5 621,-312.5 505,-312.5"/>
<text text-anchor="start" x="513" y="-330.5" font-family="Helvetica,sans-Serif" font-size="10.00">src/modules/doorman</text>
<text text-anchor="middle" x="563" y="-319.5" font-family="Helvetica,sans-Serif" font-size="10.00">/DoormanInstance.cpp</text>
</a>
</g>
</g>
<!-- Node6&#45;&gt;Node12 -->
<g id="edge9" class="edge"><title>Node6&#45;&gt;Node12</title>
<path fill="none" stroke="midnightblue" d="M1176.93,-453.136C1026.36,-448.57 674.581,-435.311 627,-410 598.887,-395.045 579.054,-361.809 569.491,-342.721"/>
<polygon fill="midnightblue" stroke="midnightblue" points="1176.89,-456.636 1186.99,-453.437 1177.1,-449.639 1176.89,-456.636"/>
</g>
<!-- Node13 -->
<g id="node8" class="node"><title>Node13</title>
<g id="a_node8"><a xlink:href="../../d0/d58/DoormanModule_8cpp.html" target="_top" xlink:title="src/modules/doorman\l/DoormanModule.cpp">
<polygon fill="white" stroke="black" points="767,-312.5 767,-342.5 877,-342.5 877,-312.5 767,-312.5"/>
<text text-anchor="start" x="775" y="-330.5" font-family="Helvetica,sans-Serif" font-size="10.00">src/modules/doorman</text>
<text text-anchor="middle" x="822" y="-319.5" font-family="Helvetica,sans-Serif" font-size="10.00">/DoormanModule.cpp</text>
</a>
</g>
</g>
<!-- Node6&#45;&gt;Node13 -->
<g id="edge10" class="edge"><title>Node6&#45;&gt;Node13</title>
<path fill="none" stroke="midnightblue" d="M1176.68,-453.05C1057.97,-448.951 823.819,-437.45 799,-410 781.942,-391.134 798.442,-360.547 810.935,-342.697"/>
<polygon fill="midnightblue" stroke="midnightblue" points="1176.65,-456.551 1186.76,-453.39 1176.88,-449.555 1176.65,-456.551"/>
</g>
<!-- Node15 -->
<g id="node10" class="node"><title>Node15</title>
<g id="a_node10"><a xlink:href="../../d5/dca/EventPublish_8cpp.html" target="_top" xlink:title="src/modules/event&#45;publish\l/EventPublish.cpp">
<polygon fill="white" stroke="black" points="808.5,-379.5 808.5,-409.5 939.5,-409.5 939.5,-379.5 808.5,-379.5"/>
<text text-anchor="start" x="816.5" y="-397.5" font-family="Helvetica,sans-Serif" font-size="10.00">src/modules/event&#45;publish</text>
<text text-anchor="middle" x="874" y="-386.5" font-family="Helvetica,sans-Serif" font-size="10.00">/EventPublish.cpp</text>
</a>
</g>
</g>
<!-- Node6&#45;&gt;Node15 -->
<g id="edge11" class="edge"><title>Node6&#45;&gt;Node15</title>
<path fill="none" stroke="midnightblue" d="M1176.64,-445.401C1116.56,-436.776 1026.84,-423.435 949,-410 945.994,-409.481 942.923,-408.939 939.823,-408.381"/>
<polygon fill="midnightblue" stroke="midnightblue" points="1176.36,-448.897 1186.76,-446.849 1177.35,-441.968 1176.36,-448.897"/>
</g>
<!-- Node16 -->
<g id="node11" class="node"><title>Node16</title>
<g id="a_node11"><a xlink:href="../../d8/dba/RplethModule_8cpp.html" target="_top" xlink:title="src/modules/rpleth\l/RplethModule.cpp">
<polygon fill="white" stroke="black" points="958,-379.5 958,-409.5 1056,-409.5 1056,-379.5 958,-379.5"/>
<text text-anchor="start" x="966" y="-397.5" font-family="Helvetica,sans-Serif" font-size="10.00">src/modules/rpleth</text>
<text text-anchor="middle" x="1007" y="-386.5" font-family="Helvetica,sans-Serif" font-size="10.00">/RplethModule.cpp</text>
</a>
</g>
</g>
<!-- Node6&#45;&gt;Node16 -->
<g id="edge12" class="edge"><title>Node6&#45;&gt;Node16</title>
<path fill="none" stroke="midnightblue" d="M1201.19,-444.048C1160.2,-433.8 1099.04,-418.511 1056.35,-407.837"/>
<polygon fill="midnightblue" stroke="midnightblue" points="1200.35,-447.445 1210.9,-446.475 1202.05,-440.654 1200.35,-447.445"/>
</g>
<!-- Node17 -->
<g id="node12" class="node"><title>Node17</title>
<g id="a_node12"><a xlink:href="../../da/d6f/SMTPModule_8cpp.html" target="_top" xlink:title="src/modules/smtp/SMTPModule.cpp">
<polygon fill="white" stroke="black" points="1074,-385 1074,-404 1250,-404 1250,-385 1074,-385"/>
<text text-anchor="middle" x="1162" y="-392" font-family="Helvetica,sans-Serif" font-size="10.00">src/modules/smtp/SMTPModule.cpp</text>
</a>
</g>
</g>
<!-- Node6&#45;&gt;Node17 -->
<g id="edge13" class="edge"><title>Node6&#45;&gt;Node17</title>
<path fill="none" stroke="midnightblue" d="M1224.93,-440.613C1208.97,-429.169 1187.17,-413.546 1173.87,-404.009"/>
<polygon fill="midnightblue" stroke="midnightblue" points="1222.94,-443.493 1233.11,-446.475 1227.02,-437.804 1222.94,-443.493"/>
</g>
<!-- Node18 -->
<g id="node13" class="node"><title>Node18</title>
<g id="a_node13"><a xlink:href="../../d2/d99/NotifierInstance_8cpp.html" target="_top" xlink:title="src/modules/tcp&#45;notifier\l/NotifierInstance.cpp">
<polygon fill="white" stroke="black" points="1268.5,-379.5 1268.5,-409.5 1387.5,-409.5 1387.5,-379.5 1268.5,-379.5"/>
<text text-anchor="start" x="1276.5" y="-397.5" font-family="Helvetica,sans-Serif" font-size="10.00">src/modules/tcp&#45;notifier</text>
<text text-anchor="middle" x="1328" y="-386.5" font-family="Helvetica,sans-Serif" font-size="10.00">/NotifierInstance.cpp</text>
</a>
</g>
</g>
<!-- Node6&#45;&gt;Node18 -->
<g id="edge14" class="edge"><title>Node6&#45;&gt;Node18</title>
<path fill="none" stroke="midnightblue" d="M1265.27,-440.468C1278.41,-431.047 1295.44,-418.841 1308.44,-409.523"/>
<polygon fill="midnightblue" stroke="midnightblue" points="1262.98,-437.804 1256.89,-446.475 1267.06,-443.493 1262.98,-437.804"/>
</g>
<!-- Node19 -->
<g id="node14" class="node"><title>Node19</title>
<g id="a_node14"><a xlink:href="../../d0/df4/TcpNotifier_8cpp.html" target="_top" xlink:title="src/modules/tcp&#45;notifier\l/TcpNotifier.cpp">
<polygon fill="white" stroke="black" points="1405.5,-379.5 1405.5,-409.5 1524.5,-409.5 1524.5,-379.5 1405.5,-379.5"/>
<text text-anchor="start" x="1413.5" y="-397.5" font-family="Helvetica,sans-Serif" font-size="10.00">src/modules/tcp&#45;notifier</text>
<text text-anchor="middle" x="1465" y="-386.5" font-family="Helvetica,sans-Serif" font-size="10.00">/TcpNotifier.cpp</text>
</a>
</g>
</g>
<!-- Node6&#45;&gt;Node19 -->
<g id="edge15" class="edge"><title>Node6&#45;&gt;Node19</title>
<path fill="none" stroke="midnightblue" d="M1286.19,-443.859C1322.11,-434.144 1374.39,-420.006 1413.15,-409.523"/>
<polygon fill="midnightblue" stroke="midnightblue" points="1285.26,-440.486 1276.52,-446.475 1287.09,-447.243 1285.26,-440.486"/>
</g>
<!-- Node20 -->
<g id="node15" class="node"><title>Node20</title>
<g id="a_node15"><a xlink:href="../../d9/dfd/TestAndResetModule_8cpp.html" target="_top" xlink:title="src/modules/test&#45;and\l&#45;reset/TestAndResetModule.cpp">
<polygon fill="white" stroke="black" points="1543,-379.5 1543,-409.5 1701,-409.5 1701,-379.5 1543,-379.5"/>
<text text-anchor="start" x="1551" y="-397.5" font-family="Helvetica,sans-Serif" font-size="10.00">src/modules/test&#45;and</text>
<text text-anchor="middle" x="1622" y="-386.5" font-family="Helvetica,sans-Serif" font-size="10.00">&#45;reset/TestAndResetModule.cpp</text>
</a>
</g>
</g>
<!-- Node6&#45;&gt;Node20 -->
<g id="edge16" class="edge"><title>Node6&#45;&gt;Node20</title>
<path fill="none" stroke="midnightblue" d="M1310.92,-444.905C1369.52,-435.891 1457.49,-422.259 1534,-410 1536.9,-409.535 1539.86,-409.058 1542.85,-408.575"/>
<polygon fill="midnightblue" stroke="midnightblue" points="1310.05,-441.498 1300.7,-446.477 1311.11,-448.417 1310.05,-441.498"/>
</g>
<!-- Node21 -->
<g id="node16" class="node"><title>Node21</title>
<g id="a_node16"><a xlink:href="../../dd/d5c/WiegandStrategy_8hpp.html" target="_top" xlink:title="src/modules/wiegand\l/strategies/WiegandStrategy.hpp">
<polygon fill="white" stroke="black" points="1756.5,-379.5 1756.5,-409.5 1915.5,-409.5 1915.5,-379.5 1756.5,-379.5"/>
<text text-anchor="start" x="1764.5" y="-397.5" font-family="Helvetica,sans-Serif" font-size="10.00">src/modules/wiegand</text>
<text text-anchor="middle" x="1836" y="-386.5" font-family="Helvetica,sans-Serif" font-size="10.00">/strategies/WiegandStrategy.hpp</text>
</a>
</g>
</g>
<!-- Node6&#45;&gt;Node21 -->
<g id="edge17" class="edge"><title>Node6&#45;&gt;Node21</title>
<path fill="none" stroke="midnightblue" d="M1313.18,-450.24C1409.24,-443.215 1589.83,-428.841 1743,-410 1747.38,-409.461 1751.87,-408.875 1756.4,-408.257"/>
<polygon fill="midnightblue" stroke="midnightblue" points="1312.74,-446.763 1303.02,-450.979 1313.25,-453.744 1312.74,-446.763"/>
</g>
<!-- Node36 -->
<g id="node31" class="node"><title>Node36</title>
<g id="a_node31"><a xlink:href="../../de/d9a/WiegandReaderImpl_8hpp.html" target="_top" xlink:title="src/modules/wiegand\l/WiegandReaderImpl.hpp">
<polygon fill="white" stroke="black" points="1660.5,-312.5 1660.5,-342.5 1787.5,-342.5 1787.5,-312.5 1660.5,-312.5"/>
<text text-anchor="start" x="1668.5" y="-330.5" font-family="Helvetica,sans-Serif" font-size="10.00">src/modules/wiegand</text>
<text text-anchor="middle" x="1724" y="-319.5" font-family="Helvetica,sans-Serif" font-size="10.00">/WiegandReaderImpl.hpp</text>
</a>
</g>
</g>
<!-- Node6&#45;&gt;Node36 -->
<g id="edge49" class="edge"><title>Node6&#45;&gt;Node36</title>
<path fill="none" stroke="midnightblue" d="M1313.05,-452.91C1435.17,-448.512 1681.53,-436.443 1710,-410 1728.41,-392.901 1728.19,-361.094 1726.21,-342.679"/>
<polygon fill="midnightblue" stroke="midnightblue" points="1312.92,-449.412 1303.05,-453.263 1313.17,-456.408 1312.92,-449.412"/>
</g>
<!-- Node38 -->
<g id="node33" class="node"><title>Node38</title>
<g id="a_node33"><a xlink:href="../../d4/d9b/WiegandReader_8cpp.html" target="_top" xlink:title="test/WiegandReader.cpp">
<polygon fill="white" stroke="black" points="1881.5,-167.5 1881.5,-186.5 2006.5,-186.5 2006.5,-167.5 1881.5,-167.5"/>
<text text-anchor="middle" x="1944" y="-174.5" font-family="Helvetica,sans-Serif" font-size="10.00">test/WiegandReader.cpp</text>
</a>
</g>
</g>
<!-- Node6&#45;&gt;Node38 -->
<g id="edge54" class="edge"><title>Node6&#45;&gt;Node38</title>
<path fill="none" stroke="midnightblue" d="M1313.24,-454.438C1479.52,-452.534 1895.86,-444.353 1948,-410 2018.03,-363.865 2052.84,-309.331 2016,-234 2005.08,-211.666 1980.47,-195.664 1963.07,-186.627"/>
<polygon fill="midnightblue" stroke="midnightblue" points="1313.09,-450.939 1303.13,-454.55 1313.17,-457.939 1313.09,-450.939"/>
</g>
<!-- Node39 -->
<g id="node34" class="node"><title>Node39</title>
<g id="a_node34"><a xlink:href="../../d8/df0/WiegandReaderImpl_8cpp.html" target="_top" xlink:title="src/modules/wiegand\l/WiegandReaderImpl.cpp">
<polygon fill="white" stroke="black" points="1879.5,-240 1879.5,-270 2006.5,-270 2006.5,-240 1879.5,-240"/>
<text text-anchor="start" x="1887.5" y="-258" font-family="Helvetica,sans-Serif" font-size="10.00">src/modules/wiegand</text>
<text text-anchor="middle" x="1943" y="-247" font-family="Helvetica,sans-Serif" font-size="10.00">/WiegandReaderImpl.cpp</text>
</a>
</g>
</g>
<!-- Node6&#45;&gt;Node39 -->
<g id="edge50" class="edge"><title>Node6&#45;&gt;Node39</title>
<path fill="none" stroke="midnightblue" d="M1313.49,-455.332C1477.29,-455.45 1881.37,-451.485 1925,-410 1963.82,-373.086 1953.16,-300.505 1946.49,-270.014"/>
<polygon fill="midnightblue" stroke="midnightblue" points="1313.06,-451.831 1303.05,-455.319 1313.05,-458.831 1313.06,-451.831"/>
</g>
<!-- Node40 -->
<g id="node35" class="node"><title>Node40</title>
<g id="a_node35"><a xlink:href="../../dc/d29/WebServiceNotifier_8cpp.html" target="_top" xlink:title="src/modules/ws&#45;notifier\l/WebServiceNotifier.cpp">
<polygon fill="white" stroke="black" points="2022.5,-379.5 2022.5,-409.5 2145.5,-409.5 2145.5,-379.5 2022.5,-379.5"/>
<text text-anchor="start" x="2030.5" y="-397.5" font-family="Helvetica,sans-Serif" font-size="10.00">src/modules/ws&#45;notifier</text>
<text text-anchor="middle" x="2084" y="-386.5" font-family="Helvetica,sans-Serif" font-size="10.00">/WebServiceNotifier.cpp</text>
</a>
</g>
</g>
<!-- Node6&#45;&gt;Node40 -->
<g id="edge51" class="edge"><title>Node6&#45;&gt;Node40</title>
<path fill="none" stroke="midnightblue" d="M1313.24,-453.937C1447.02,-451.201 1752.93,-441.719 2008,-410 2012.67,-409.42 2017.48,-408.727 2022.3,-407.964"/>
<polygon fill="midnightblue" stroke="midnightblue" points="1313.07,-450.44 1303.14,-454.138 1313.21,-457.439 1313.07,-450.44"/>
</g>
<!-- Node41 -->
<g id="node36" class="node"><title>Node41</title>
<g id="a_node36"><a xlink:href="../../d9/d75/test_2AuthSourceBuilder_8cpp.html" target="_top" xlink:title="test/AuthSourceBuilder.cpp">
<polygon fill="white" stroke="black" points="2164,-385 2164,-404 2300,-404 2300,-385 2164,-385"/>
<text text-anchor="middle" x="2232" y="-392" font-family="Helvetica,sans-Serif" font-size="10.00">test/AuthSourceBuilder.cpp</text>
</a>
</g>
</g>
<!-- Node6&#45;&gt;Node41 -->
<g id="edge52" class="edge"><title>Node6&#45;&gt;Node41</title>
<path fill="none" stroke="midnightblue" d="M1313.36,-454.805C1465.26,-453.674 1842.13,-447.018 2155,-410 2167.16,-408.561 2180.28,-406.342 2192.2,-404.069"/>
<polygon fill="midnightblue" stroke="midnightblue" points="1313.23,-451.305 1303.25,-454.874 1313.28,-458.305 1313.23,-451.305"/>
</g>
<!-- Node42 -->
<g id="node37" class="node"><title>Node42</title>
<g id="a_node37"><a xlink:href="../../db/d44/Rpleth_8cpp.html" target="_top" xlink:title="test/Rpleth.cpp">
<polygon fill="white" stroke="black" points="2318.5,-385 2318.5,-404 2401.5,-404 2401.5,-385 2318.5,-385"/>
<text text-anchor="middle" x="2360" y="-392" font-family="Helvetica,sans-Serif" font-size="10.00">test/Rpleth.cpp</text>
</a>
</g>
</g>
<!-- Node6&#45;&gt;Node42 -->
<g id="edge53" class="edge"><title>Node6&#45;&gt;Node42</title>
<path fill="none" stroke="midnightblue" d="M1313.28,-454.204C1516.64,-451.503 2116.13,-441.054 2309,-410 2317.36,-408.654 2326.3,-406.403 2334.32,-404.071"/>
<polygon fill="midnightblue" stroke="midnightblue" points="1312.99,-450.708 1303.03,-454.338 1313.08,-457.707 1312.99,-450.708"/>
</g>
<!-- Node11&#45;&gt;Node12 -->
<g id="edge6" class="edge"><title>Node11&#45;&gt;Node12</title>
<path fill="none" stroke="midnightblue" d="M656.42,-374.853C635.707,-364.576 610.412,-352.025 591.37,-342.577"/>
<polygon fill="midnightblue" stroke="midnightblue" points="655.061,-378.086 665.575,-379.396 658.173,-371.816 655.061,-378.086"/>
</g>
<!-- Node11&#45;&gt;Node13 -->
<g id="edge7" class="edge"><title>Node11&#45;&gt;Node13</title>
<path fill="none" stroke="midnightblue" d="M730.72,-374.853C750.958,-364.576 775.674,-352.025 794.28,-342.577"/>
<polygon fill="midnightblue" stroke="midnightblue" points="729.106,-371.747 721.774,-379.396 732.275,-377.989 729.106,-371.747"/>
</g>
<!-- Node14 -->
<g id="node9" class="node"><title>Node14</title>
<g id="a_node9"><a xlink:href="../../d8/d54/doorman_2init_8cpp.html" target="_top" xlink:title="src/modules/doorman\l/init.cpp">
<polygon fill="white" stroke="black" points="639,-312.5 639,-342.5 749,-342.5 749,-312.5 639,-312.5"/>
<text text-anchor="start" x="647" y="-330.5" font-family="Helvetica,sans-Serif" font-size="10.00">src/modules/doorman</text>
<text text-anchor="middle" x="694" y="-319.5" font-family="Helvetica,sans-Serif" font-size="10.00">/init.cpp</text>
</a>
</g>
</g>
<!-- Node11&#45;&gt;Node14 -->
<g id="edge8" class="edge"><title>Node11&#45;&gt;Node14</title>
<path fill="none" stroke="midnightblue" d="M694,-369.108C694,-360.154 694,-350.323 694,-342.577"/>
<polygon fill="midnightblue" stroke="midnightblue" points="690.5,-369.396 694,-379.396 697.5,-369.396 690.5,-369.396"/>
</g>
<!-- Node22 -->
<g id="node17" class="node"><title>Node22</title>
<g id="a_node17"><a xlink:href="../../db/db3/CardReading_8hpp.html" target="_top" xlink:title="src/modules/wiegand\l/strategies/CardReading.hpp">
<polygon fill="white" stroke="black" points="987.5,-312.5 987.5,-342.5 1128.5,-342.5 1128.5,-312.5 987.5,-312.5"/>
<text text-anchor="start" x="995.5" y="-330.5" font-family="Helvetica,sans-Serif" font-size="10.00">src/modules/wiegand</text>
<text text-anchor="middle" x="1058" y="-319.5" font-family="Helvetica,sans-Serif" font-size="10.00">/strategies/CardReading.hpp</text>
</a>
</g>
</g>
<!-- Node21&#45;&gt;Node22 -->
<g id="edge18" class="edge"><title>Node21&#45;&gt;Node22</title>
<path fill="none" stroke="midnightblue" d="M1746.23,-382.755C1734.06,-381.419 1721.73,-380.129 1710,-379 1498.67,-358.663 1248.18,-341.091 1128.51,-333.096"/>
<polygon fill="midnightblue" stroke="midnightblue" points="1746.07,-386.258 1756.4,-383.884 1746.85,-379.301 1746.07,-386.258"/>
</g>
<!-- Node31 -->
<g id="node26" class="node"><title>Node31</title>
<g id="a_node26"><a xlink:href="../../d0/dc4/PinReading_8hpp.html" target="_top" xlink:title="src/modules/wiegand\l/strategies/PinReading.hpp">
<polygon fill="white" stroke="black" points="1317,-312.5 1317,-342.5 1451,-342.5 1451,-312.5 1317,-312.5"/>
<text text-anchor="start" x="1325" y="-330.5" font-family="Helvetica,sans-Serif" font-size="10.00">src/modules/wiegand</text>
<text text-anchor="middle" x="1384" y="-319.5" font-family="Helvetica,sans-Serif" font-size="10.00">/strategies/PinReading.hpp</text>
</a>
</g>
</g>
<!-- Node21&#45;&gt;Node31 -->
<g id="edge29" class="edge"><title>Node21&#45;&gt;Node31</title>
<path fill="none" stroke="midnightblue" d="M1746.38,-380.612C1659.5,-368.118 1529.66,-349.447 1451.27,-338.174"/>
<polygon fill="midnightblue" stroke="midnightblue" points="1746.09,-384.107 1756.49,-382.066 1747.09,-377.178 1746.09,-384.107"/>
</g>
<!-- Node21&#45;&gt;Node36 -->
<g id="edge37" class="edge"><title>Node21&#45;&gt;Node36</title>
<path fill="none" stroke="midnightblue" d="M1802.91,-374.296C1785.38,-364.125 1764.24,-351.855 1748.25,-342.577"/>
<polygon fill="midnightblue" stroke="midnightblue" points="1801.29,-377.404 1811.7,-379.396 1804.81,-371.349 1801.29,-377.404"/>
</g>
<!-- Node37 -->
<g id="node32" class="node"><title>Node37</title>
<g id="a_node32"><a xlink:href="../../d0/d6f/wiegand_8hpp.html" target="_top" xlink:title="src/modules/wiegand\l/wiegand.hpp">
<polygon fill="white" stroke="black" points="1752.5,-240 1752.5,-270 1861.5,-270 1861.5,-240 1752.5,-240"/>
<text text-anchor="start" x="1760.5" y="-258" font-family="Helvetica,sans-Serif" font-size="10.00">src/modules/wiegand</text>
<text text-anchor="middle" x="1807" y="-247" font-family="Helvetica,sans-Serif" font-size="10.00">/wiegand.hpp</text>
</a>
</g>
</g>
<!-- Node21&#45;&gt;Node37 -->
<g id="edge47" class="edge"><title>Node21&#45;&gt;Node37</title>
<path fill="none" stroke="midnightblue" d="M1830.89,-369.287C1824.84,-340.607 1814.97,-293.775 1810.02,-270.326"/>
<polygon fill="midnightblue" stroke="midnightblue" points="1827.52,-370.241 1833.01,-379.303 1834.37,-368.796 1827.52,-370.241"/>
</g>
<!-- Node21&#45;&gt;Node39 -->
<g id="edge48" class="edge"><title>Node21&#45;&gt;Node39</title>
<path fill="none" stroke="midnightblue" d="M1853.39,-371.155C1875.55,-342.682 1913.2,-294.292 1931.85,-270.326"/>
<polygon fill="midnightblue" stroke="midnightblue" points="1850.43,-369.261 1847.05,-379.303 1855.95,-373.56 1850.43,-369.261"/>
</g>
<!-- Node23 -->
<g id="node18" class="node"><title>Node23</title>
<g id="a_node18"><a xlink:href="../../dc/d8e/SimpleWiegandStrategy_8hpp.html" target="_top" xlink:title="src/modules/wiegand\l/strategies/SimpleWiegandStrategy.hpp">
<polygon fill="white" stroke="black" points="963.5,-240 963.5,-270 1152.5,-270 1152.5,-240 963.5,-240"/>
<text text-anchor="start" x="971.5" y="-258" font-family="Helvetica,sans-Serif" font-size="10.00">src/modules/wiegand</text>
<text text-anchor="middle" x="1058" y="-247" font-family="Helvetica,sans-Serif" font-size="10.00">/strategies/SimpleWiegandStrategy.hpp</text>
</a>
</g>
</g>
<!-- Node22&#45;&gt;Node23 -->
<g id="edge19" class="edge"><title>Node22&#45;&gt;Node23</title>
<path fill="none" stroke="midnightblue" d="M1058,-302.232C1058,-291.568 1058,-279.414 1058,-270.246"/>
<polygon fill="midnightblue" stroke="midnightblue" points="1054.5,-302.233 1058,-312.233 1061.5,-302.233 1054.5,-302.233"/>
</g>
<!-- Node24 -->
<g id="node19" class="node"><title>Node24</title>
<g id="a_node19"><a xlink:href="../../dc/d0d/Strategies_8hpp.html" target="_top" xlink:title="src/modules/wiegand\l/strategies/Strategies.hpp">
<polygon fill="white" stroke="black" points="970,-162 970,-192 1098,-192 1098,-162 970,-162"/>
<text text-anchor="start" x="978" y="-180" font-family="Helvetica,sans-Serif" font-size="10.00">src/modules/wiegand</text>
<text text-anchor="middle" x="1034" y="-169" font-family="Helvetica,sans-Serif" font-size="10.00">/strategies/Strategies.hpp</text>
</a>
</g>
</g>
<!-- Node22&#45;&gt;Node24 -->
<g id="edge28" class="edge"><title>Node22&#45;&gt;Node24</title>
<path fill="none" stroke="midnightblue" d="M993.45,-308.203C978.28,-300.73 963.943,-290.345 955,-276 945.125,-260.16 946.429,-250.582 955,-234 964.727,-215.183 984.016,-201.323 1001.1,-192.099"/>
<polygon fill="midnightblue" stroke="midnightblue" points="992.407,-311.572 1002.96,-312.489 995.283,-305.19 992.407,-311.572"/>
</g>
<!-- Node23&#45;&gt;Node24 -->
<g id="edge20" class="edge"><title>Node23&#45;&gt;Node24</title>
<path fill="none" stroke="midnightblue" d="M1050.41,-229.963C1046.49,-217.551 1041.84,-202.83 1038.49,-192.231"/>
<polygon fill="midnightblue" stroke="midnightblue" points="1047.14,-231.223 1053.49,-239.705 1053.81,-229.115 1047.14,-231.223"/>
</g>
<!-- Node30 -->
<g id="node25" class="node"><title>Node30</title>
<g id="a_node25"><a xlink:href="../../d2/d32/SimpleWiegandStrategy_8cpp.html" target="_top" xlink:title="src/modules/wiegand\l/strategies/SimpleWiegandStrategy.cpp">
<polygon fill="white" stroke="black" points="1116.5,-162 1116.5,-192 1305.5,-192 1305.5,-162 1116.5,-162"/>
<text text-anchor="start" x="1124.5" y="-180" font-family="Helvetica,sans-Serif" font-size="10.00">src/modules/wiegand</text>
<text text-anchor="middle" x="1211" y="-169" font-family="Helvetica,sans-Serif" font-size="10.00">/strategies/SimpleWiegandStrategy.cpp</text>
</a>
</g>
</g>
<!-- Node23&#45;&gt;Node30 -->
<g id="edge27" class="edge"><title>Node23&#45;&gt;Node30</title>
<path fill="none" stroke="midnightblue" d="M1095.55,-235.349C1122.48,-221.971 1158.2,-204.229 1182.73,-192.041"/>
<polygon fill="midnightblue" stroke="midnightblue" points="1093.82,-232.3 1086.42,-239.883 1096.93,-238.569 1093.82,-232.3"/>
</g>
<!-- Node25 -->
<g id="node20" class="node"><title>Node25</title>
<g id="a_node20"><a xlink:href="../../db/de0/Autodetect_8hpp.html" target="_top" xlink:title="src/modules/wiegand\l/strategies/Autodetect.hpp">
<polygon fill="white" stroke="black" points="1564.5,-84 1564.5,-114 1695.5,-114 1695.5,-84 1564.5,-84"/>
<text text-anchor="start" x="1572.5" y="-102" font-family="Helvetica,sans-Serif" font-size="10.00">src/modules/wiegand</text>
<text text-anchor="middle" x="1630" y="-91" font-family="Helvetica,sans-Serif" font-size="10.00">/strategies/Autodetect.hpp</text>
</a>
</g>
</g>
<!-- Node24&#45;&gt;Node25 -->
<g id="edge21" class="edge"><title>Node24&#45;&gt;Node25</title>
<path fill="none" stroke="midnightblue" d="M1091.46,-159.527C1097.03,-158.217 1102.6,-157.012 1108,-156 1270.59,-125.502 1465.02,-110.1 1564.42,-103.719"/>
<polygon fill="midnightblue" stroke="midnightblue" points="1090.39,-156.188 1081.51,-161.978 1092.06,-162.985 1090.39,-156.188"/>
</g>
<!-- Node28 -->
<g id="node23" class="node"><title>Node28</title>
<g id="a_node23"><a xlink:href="../../db/da6/WiegandCardAndPin_8hpp.html" target="_top" xlink:title="src/modules/wiegand\l/strategies/WiegandCardAnd\lPin.hpp">
<polygon fill="white" stroke="black" points="963,-78.5 963,-119.5 1105,-119.5 1105,-78.5 963,-78.5"/>
<text text-anchor="start" x="971" y="-107.5" font-family="Helvetica,sans-Serif" font-size="10.00">src/modules/wiegand</text>
<text text-anchor="start" x="971" y="-96.5" font-family="Helvetica,sans-Serif" font-size="10.00">/strategies/WiegandCardAnd</text>
<text text-anchor="middle" x="1034" y="-85.5" font-family="Helvetica,sans-Serif" font-size="10.00">Pin.hpp</text>
</a>
</g>
</g>
<!-- Node24&#45;&gt;Node28 -->
<g id="edge24" class="edge"><title>Node24&#45;&gt;Node28</title>
<path fill="none" stroke="midnightblue" d="M1027.65,-151.656C1027.02,-141.326 1027.13,-129.443 1028,-119.68"/>
<polygon fill="midnightblue" stroke="midnightblue" points="1024.18,-152.072 1028.59,-161.705 1031.15,-151.424 1024.18,-152.072"/>
</g>
<!-- Node26 -->
<g id="node21" class="node"><title>Node26</title>
<g id="a_node21"><a xlink:href="../../d3/d15/Autodetect_8cpp.html" target="_top" xlink:title="src/modules/wiegand\l/strategies/Autodetect.cpp">
<polygon fill="white" stroke="black" points="1699.5,-6 1699.5,-36 1830.5,-36 1830.5,-6 1699.5,-6"/>
<text text-anchor="start" x="1707.5" y="-24" font-family="Helvetica,sans-Serif" font-size="10.00">src/modules/wiegand</text>
<text text-anchor="middle" x="1765" y="-13" font-family="Helvetica,sans-Serif" font-size="10.00">/strategies/Autodetect.cpp</text>
</a>
</g>
</g>
<!-- Node25&#45;&gt;Node26 -->
<g id="edge22" class="edge"><title>Node25&#45;&gt;Node26</title>
<path fill="none" stroke="midnightblue" d="M1664.07,-78.8214C1687.72,-65.5075 1718.69,-48.0698 1740.06,-36.0413"/>
<polygon fill="midnightblue" stroke="midnightblue" points="1662.07,-75.9275 1655.08,-83.8831 1665.51,-82.0273 1662.07,-75.9275"/>
</g>
<!-- Node27 -->
<g id="node22" class="node"><title>Node27</title>
<g id="a_node22"><a xlink:href="../../d3/de8/wiegand_8cpp.html" target="_top" xlink:title="src/modules/wiegand\l/wiegand.cpp">
<polygon fill="white" stroke="black" points="1572.5,-6 1572.5,-36 1681.5,-36 1681.5,-6 1572.5,-6"/>
<text text-anchor="start" x="1580.5" y="-24" font-family="Helvetica,sans-Serif" font-size="10.00">src/modules/wiegand</text>
<text text-anchor="middle" x="1627" y="-13" font-family="Helvetica,sans-Serif" font-size="10.00">/wiegand.cpp</text>
</a>
</g>
</g>
<!-- Node25&#45;&gt;Node27 -->
<g id="edge23" class="edge"><title>Node25&#45;&gt;Node27</title>
<path fill="none" stroke="midnightblue" d="M1629.04,-73.5898C1628.55,-61.2565 1627.98,-46.7237 1627.56,-36.2309"/>
<polygon fill="midnightblue" stroke="midnightblue" points="1625.54,-73.8508 1629.44,-83.705 1632.54,-73.5747 1625.54,-73.8508"/>
</g>
<!-- Node28&#45;&gt;Node24 -->
<g id="edge25" class="edge"><title>Node28&#45;&gt;Node24</title>
<path fill="none" stroke="midnightblue" d="M1040.61,-129.787C1040.99,-140.769 1040.59,-152.712 1039.41,-161.705"/>
<polygon fill="midnightblue" stroke="midnightblue" points="1044.09,-129.451 1040,-119.68 1037.11,-129.873 1044.09,-129.451"/>
</g>
<!-- Node29 -->
<g id="node24" class="node"><title>Node29</title>
<g id="a_node24"><a xlink:href="../../d5/d4a/WiegandCardAndPin_8cpp.html" target="_top" xlink:title="src/modules/wiegand\l/strategies/WiegandCardAnd\lPin.cpp">
<polygon fill="white" stroke="black" points="1189,-0.5 1189,-41.5 1331,-41.5 1331,-0.5 1189,-0.5"/>
<text text-anchor="start" x="1197" y="-29.5" font-family="Helvetica,sans-Serif" font-size="10.00">src/modules/wiegand</text>
<text text-anchor="start" x="1197" y="-18.5" font-family="Helvetica,sans-Serif" font-size="10.00">/strategies/WiegandCardAnd</text>
<text text-anchor="middle" x="1260" y="-7.5" font-family="Helvetica,sans-Serif" font-size="10.00">Pin.cpp</text>
</a>
</g>
</g>
<!-- Node28&#45;&gt;Node29 -->
<g id="edge26" class="edge"><title>Node28&#45;&gt;Node29</title>
<path fill="none" stroke="midnightblue" d="M1101.9,-75.1652C1133.81,-64.4366 1171.45,-51.7786 1202,-41.5056"/>
<polygon fill="midnightblue" stroke="midnightblue" points="1100.56,-71.9232 1092.2,-78.4281 1102.79,-78.5581 1100.56,-71.9232"/>
</g>
<!-- Node31&#45;&gt;Node24 -->
<g id="edge36" class="edge"><title>Node31&#45;&gt;Node24</title>
<path fill="none" stroke="midnightblue" d="M1306.98,-315.082C1272.75,-307.604 1233.05,-295.466 1201,-276 1179.23,-262.776 1182.77,-248.747 1162,-234 1136.29,-215.745 1103.68,-201.589 1077.81,-192.077"/>
<polygon fill="midnightblue" stroke="midnightblue" points="1306.44,-318.545 1316.94,-317.164 1307.87,-311.693 1306.44,-318.545"/>
</g>
<!-- Node32 -->
<g id="node27" class="node"><title>Node32</title>
<g id="a_node27"><a xlink:href="../../d6/da6/WiegandPinBuffered_8hpp.html" target="_top" xlink:title="src/modules/wiegand\l/strategies/WiegandPinBuffered.hpp">
<polygon fill="white" stroke="black" points="1209.5,-240 1209.5,-270 1382.5,-270 1382.5,-240 1209.5,-240"/>
<text text-anchor="start" x="1217.5" y="-258" font-family="Helvetica,sans-Serif" font-size="10.00">src/modules/wiegand</text>
<text text-anchor="middle" x="1296" y="-247" font-family="Helvetica,sans-Serif" font-size="10.00">/strategies/WiegandPinBuffered.hpp</text>
</a>
</g>
</g>
<!-- Node31&#45;&gt;Node32 -->
<g id="edge30" class="edge"><title>Node31&#45;&gt;Node32</title>
<path fill="none" stroke="midnightblue" d="M1358.15,-305.788C1343.76,-294.266 1326.25,-280.233 1313.48,-270.005"/>
<polygon fill="midnightblue" stroke="midnightblue" points="1356.2,-308.712 1366.19,-312.233 1360.58,-303.249 1356.2,-308.712"/>
</g>
<!-- Node34 -->
<g id="node29" class="node"><title>Node34</title>
<g id="a_node29"><a xlink:href="../../d4/d9d/WiegandPinNBitsOnly_8hpp.html" target="_top" xlink:title="src/modules/wiegand\l/strategies/WiegandPinNBits\lOnly.hpp">
<polygon fill="white" stroke="black" points="1400.5,-234.5 1400.5,-275.5 1543.5,-275.5 1543.5,-234.5 1400.5,-234.5"/>
<text text-anchor="start" x="1408.5" y="-263.5" font-family="Helvetica,sans-Serif" font-size="10.00">src/modules/wiegand</text>
<text text-anchor="start" x="1408.5" y="-252.5" font-family="Helvetica,sans-Serif" font-size="10.00">/strategies/WiegandPinNBits</text>
<text text-anchor="middle" x="1472" y="-241.5" font-family="Helvetica,sans-Serif" font-size="10.00">Only.hpp</text>
</a>
</g>
</g>
<!-- Node31&#45;&gt;Node34 -->
<g id="edge33" class="edge"><title>Node31&#45;&gt;Node34</title>
<path fill="none" stroke="midnightblue" d="M1409.67,-305.933C1421.62,-296.363 1435.76,-285.034 1447.55,-275.588"/>
<polygon fill="midnightblue" stroke="midnightblue" points="1407.42,-303.249 1401.81,-312.233 1411.8,-308.712 1407.42,-303.249"/>
</g>
<!-- Node32&#45;&gt;Node24 -->
<g id="edge31" class="edge"><title>Node32&#45;&gt;Node24</title>
<path fill="none" stroke="midnightblue" d="M1237.97,-237.167C1191.29,-223.627 1126.47,-204.823 1082.52,-192.075"/>
<polygon fill="midnightblue" stroke="midnightblue" points="1237.06,-240.547 1247.64,-239.972 1239.01,-233.824 1237.06,-240.547"/>
</g>
<!-- Node33 -->
<g id="node28" class="node"><title>Node33</title>
<g id="a_node28"><a xlink:href="../../d7/da6/WiegandPinBuffered_8cpp.html" target="_top" xlink:title="src/modules/wiegand\l/strategies/WiegandPinBuffered.cpp">
<polygon fill="white" stroke="black" points="1323.5,-162 1323.5,-192 1496.5,-192 1496.5,-162 1323.5,-162"/>
<text text-anchor="start" x="1331.5" y="-180" font-family="Helvetica,sans-Serif" font-size="10.00">src/modules/wiegand</text>
<text text-anchor="middle" x="1410" y="-169" font-family="Helvetica,sans-Serif" font-size="10.00">/strategies/WiegandPinBuffered.cpp</text>
</a>
</g>
</g>
<!-- Node32&#45;&gt;Node33 -->
<g id="edge32" class="edge"><title>Node32&#45;&gt;Node33</title>
<path fill="none" stroke="midnightblue" d="M1325.57,-234.289C1345.43,-221.046 1371.13,-203.91 1388.94,-192.041"/>
<polygon fill="midnightblue" stroke="midnightblue" points="1323.55,-231.424 1317.18,-239.883 1327.44,-237.248 1323.55,-231.424"/>
</g>
<!-- Node34&#45;&gt;Node24 -->
<g id="edge34" class="edge"><title>Node34&#45;&gt;Node24</title>
<path fill="none" stroke="midnightblue" d="M1390.17,-233.765C1265.16,-211.121 1229.65,-222.031 1108,-198 1099.64,-196.349 1090.84,-194.274 1082.34,-192.09"/>
<polygon fill="midnightblue" stroke="midnightblue" points="1389.66,-237.229 1400.13,-235.604 1390.93,-230.346 1389.66,-237.229"/>
</g>
<!-- Node35 -->
<g id="node30" class="node"><title>Node35</title>
<g id="a_node30"><a xlink:href="../../dc/d9a/WiegandPinNBitsOnly_8cpp.html" target="_top" xlink:title="src/modules/wiegand\l/strategies/WiegandPinNBits\lOnly.cpp">
<polygon fill="white" stroke="black" points="1514.5,-156.5 1514.5,-197.5 1657.5,-197.5 1657.5,-156.5 1514.5,-156.5"/>
<text text-anchor="start" x="1522.5" y="-185.5" font-family="Helvetica,sans-Serif" font-size="10.00">src/modules/wiegand</text>
<text text-anchor="start" x="1522.5" y="-174.5" font-family="Helvetica,sans-Serif" font-size="10.00">/strategies/WiegandPinNBits</text>
<text text-anchor="middle" x="1586" y="-163.5" font-family="Helvetica,sans-Serif" font-size="10.00">Only.cpp</text>
</a>
</g>
</g>
<!-- Node34&#45;&gt;Node35 -->
<g id="edge35" class="edge"><title>Node34&#45;&gt;Node35</title>
<path fill="none" stroke="midnightblue" d="M1510.05,-228.635C1525.27,-218.487 1542.53,-206.982 1556.74,-197.506"/>
<polygon fill="midnightblue" stroke="midnightblue" points="1507.74,-225.969 1501.36,-234.428 1511.62,-231.793 1507.74,-225.969"/>
</g>
<!-- Node36&#45;&gt;Node26 -->
<g id="edge38" class="edge"><title>Node36&#45;&gt;Node26</title>
<path fill="none" stroke="midnightblue" d="M1727.3,-302.018C1735.49,-241.137 1756.6,-84.3511 1763.08,-36.2474"/>
<polygon fill="midnightblue" stroke="midnightblue" points="1723.79,-301.844 1725.92,-312.222 1730.73,-302.778 1723.79,-301.844"/>
</g>
<!-- Node36&#45;&gt;Node29 -->
<g id="edge40" class="edge"><title>Node36&#45;&gt;Node29</title>
<path fill="none" stroke="midnightblue" d="M1722.59,-302.114C1719.16,-265.412 1707.38,-196.02 1667,-156 1630.16,-119.493 1605.28,-136.15 1556,-120 1473.57,-92.9866 1378.35,-61.3917 1318.65,-41.5363"/>
<polygon fill="midnightblue" stroke="midnightblue" points="1719.12,-302.697 1723.41,-312.387 1726.1,-302.14 1719.12,-302.697"/>
</g>
<!-- Node36&#45;&gt;Node30 -->
<g id="edge39" class="edge"><title>Node36&#45;&gt;Node30</title>
<path fill="none" stroke="midnightblue" d="M1654.31,-309.318C1631.2,-301.528 1606.23,-290.686 1586,-276 1566.79,-262.056 1573.51,-245.949 1553,-234 1460.56,-180.151 1420.44,-216.105 1315,-198 1304.31,-196.164 1293.02,-194.112 1281.98,-192.041"/>
<polygon fill="midnightblue" stroke="midnightblue" points="1653.49,-312.731 1664.08,-312.472 1655.64,-306.069 1653.49,-312.731"/>
</g>
<!-- Node36&#45;&gt;Node33 -->
<g id="edge41" class="edge"><title>Node36&#45;&gt;Node33</title>
<path fill="none" stroke="midnightblue" d="M1684.39,-307.809C1667.36,-299.071 1647.6,-287.959 1631,-276 1608.8,-260.011 1609.61,-247.818 1586,-234 1552.65,-214.484 1511.7,-200.933 1477.7,-192.056"/>
<polygon fill="midnightblue" stroke="midnightblue" points="1683.02,-311.04 1693.53,-312.41 1686.17,-304.787 1683.02,-311.04"/>
</g>
<!-- Node36&#45;&gt;Node35 -->
<g id="edge42" class="edge"><title>Node36&#45;&gt;Node35</title>
<path fill="none" stroke="midnightblue" d="M1701.3,-305.21C1692.05,-296.34 1681.35,-285.833 1672,-276 1646.89,-249.588 1619.35,-217.636 1602.37,-197.559"/>
<polygon fill="midnightblue" stroke="midnightblue" points="1699.01,-307.866 1708.67,-312.225 1703.84,-302.796 1699.01,-307.866"/>
</g>
<!-- Node36&#45;&gt;Node37 -->
<g id="edge43" class="edge"><title>Node36&#45;&gt;Node37</title>
<path fill="none" stroke="midnightblue" d="M1748.77,-305.464C1762.26,-294.004 1778.58,-280.137 1790.51,-270.005"/>
<polygon fill="midnightblue" stroke="midnightblue" points="1746.15,-303.092 1740.8,-312.233 1750.68,-308.427 1746.15,-303.092"/>
</g>
<!-- Node36&#45;&gt;Node39 -->
<g id="edge46" class="edge"><title>Node36&#45;&gt;Node39</title>
<path fill="none" stroke="midnightblue" d="M1777.25,-309.358C1814.65,-297.32 1864.06,-281.412 1899.18,-270.107"/>
<polygon fill="midnightblue" stroke="midnightblue" points="1775.98,-306.091 1767.53,-312.487 1778.12,-312.754 1775.98,-306.091"/>
</g>
<!-- Node37&#45;&gt;Node27 -->
<g id="edge44" class="edge"><title>Node37&#45;&gt;Node27</title>
<path fill="none" stroke="midnightblue" d="M1797.19,-230.336C1781.53,-194.503 1748.19,-125.617 1705,-78 1689.66,-61.0837 1668.4,-46.2351 1651.95,-36.0859"/>
<polygon fill="midnightblue" stroke="midnightblue" points="1794.15,-232.118 1801.3,-239.929 1800.58,-229.359 1794.15,-232.118"/>
</g>
<!-- Node37&#45;&gt;Node38 -->
<g id="edge45" class="edge"><title>Node37&#45;&gt;Node38</title>
<path fill="none" stroke="midnightblue" d="M1841.5,-234.864C1869.44,-219.364 1907.49,-198.255 1928.49,-186.606"/>
<polygon fill="midnightblue" stroke="midnightblue" points="1839.49,-231.971 1832.45,-239.883 1842.89,-238.093 1839.49,-231.971"/>
</g>
</g>
</svg>
        <g id="navigator" transform="translate(0 0)" fill="#404254">
                <rect fill="#f2f5e9" fill-opacity="0.5" stroke="#606060" stroke-width=".5" x="0" y="0" width="60" height="60"/>
                <use id="zoomplus" xlink:href="#zoomPlus" x="17" y="9" onmousedown="handleZoom(evt,'in')"/>
                <use id="zoomminus" xlink:href="#zoomMin" x="42" y="9" onmousedown="handleZoom(evt,'out')"/>
                <use id="reset" xlink:href="#resetDef" x="30" y="36" onmousedown="handleReset()"/>
                <g id="arrowUp" xlink:href="#dirArrow" transform="translate(30 24)" onmousedown="handlePan(0,-1)">
                  <use xlink:href="#rim" fill="#404040">
                        <set attributeName="fill" to="#808080" begin="arrowUp.mouseover" end="arrowUp.mouseout"/>
                  </use>
                  <path fill="none" stroke="white" stroke-width="1.5" d="M0,-3.0v7 M-2.5,-0.5L0,-3.0L2.5,-0.5"/>
                </g>
                <g id="arrowRight" xlink:href="#dirArrow" transform="rotate(90) translate(36 -43)" onmousedown="handlePan(1,0)">
                  <use xlink:href="#rim" fill="#404040">
                        <set attributeName="fill" to="#808080" begin="arrowRight.mouseover" end="arrowRight.mouseout"/>
                  </use>
                  <path fill="none" stroke="white" stroke-width="1.5" d="M0,-3.0v7 M-2.5,-0.5L0,-3.0L2.5,-0.5"/>
                </g>
                <g id="arrowDown" xlink:href="#dirArrow" transform="rotate(180) translate(-30 -48)" onmousedown="handlePan(0,1)">
                  <use xlink:href="#rim" fill="#404040">
                        <set attributeName="fill" to="#808080" begin="arrowDown.mouseover" end="arrowDown.mouseout"/>
                  </use>
                  <path fill="none" stroke="white" stroke-width="1.5" d="M0,-3.0v7 M-2.5,-0.5L0,-3.0L2.5,-0.5"/>
                </g>
                <g id="arrowLeft" xlink:href="#dirArrow" transform="rotate(270) translate(-36 17)" onmousedown="handlePan(-1,0)">
                  <use xlink:href="#rim" fill="#404040">
                        <set attributeName="fill" to="#808080" begin="arrowLeft.mouseover" end="arrowLeft.mouseout"/>
                  </use>
                  <path fill="none" stroke="white" stroke-width="1.5" d="M0,-3.0v7 M-2.5,-0.5L0,-3.0L2.5,-0.5"/>
                </g>
        </g>
        <svg viewBox="0 0 15 15" width="100%" height="30px" preserveAspectRatio="xMaxYMin meet">
         <g id="arrow_out" transform="scale(0.3 0.3)">
          <a xlink:href="Auth_8hpp__dep__incl_org.svg" target="_base">
           <rect id="button" ry="5" rx="5" y="6" x="6" height="38" width="38"
                fill="#f2f5e9" fill-opacity="0.5" stroke="#606060" stroke-width="1.0"/>
           <path id="arrow"
             d="M 11.500037,31.436501 C 11.940474,20.09759 22.043105,11.32322 32.158766,21.979434 L 37.068811,17.246167 C 37.068811,17.246167 37.088388,32 37.088388,32 L 22.160133,31.978069 C 22.160133,31.978069 26.997745,27.140456 26.997745,27.140456 C 18.528582,18.264221 13.291696,25.230495 11.500037,31.436501 z"
             style="fill:#404040;"/>
          </a>
         </g>
        </svg>
</svg>
