<?xml version="1.0" encoding="UTF-8" standalone="no"?>
<!DOCTYPE svg PUBLIC "-//W3C//DTD SVG 1.1//EN"
 "http://www.w3.org/Graphics/SVG/1.1/DTD/svg11.dtd">
<!-- Generated by graphviz version 2.38.0 (20140413.2041)
 -->
<!-- Title: src/modules/wiegand/ws/CRUDHandler.hpp Pages: 1 -->
<svg width="274pt" height="106pt"
 viewBox="0.00 0.00 273.50 106.00" xmlns="http://www.w3.org/2000/svg" xmlns:xlink="http://www.w3.org/1999/xlink">
<g id="graph0" class="graph" transform="scale(1 1) rotate(0) translate(4 102)">
<title>src/modules/wiegand/ws/CRUDHandler.hpp</title>
<polygon fill="white" stroke="none" points="-4,4 -4,-102 269.5,-102 269.5,4 -4,4"/>
<!-- Node27 -->
<g id="node1" class="node"><title>Node27</title>
<polygon fill="#bfbfbf" stroke="black" points="71,-67.5 71,-97.5 189,-97.5 189,-67.5 71,-67.5"/>
<text text-anchor="start" x="79" y="-85.5" font-family="Helvetica,sans-Serif" font-size="10.00">src/modules/wiegand</text>
<text text-anchor="middle" x="130" y="-74.5" font-family="Helvetica,sans-Serif" font-size="10.00">/ws/CRUDHandler.hpp</text>
</g>
<!-- Node28 -->
<g id="node2" class="node"><title>Node28</title>
<g id="a_node2"><a xlink:href="../../d9/d74/wiegand_2ws_2CRUDHandler_8cpp.html" target="_top" xlink:title="src/modules/wiegand\l/ws/CRUDHandler.cpp">
<polygon fill="white" stroke="black" points="0,-0.5 0,-30.5 118,-30.5 118,-0.5 0,-0.5"/>
<text text-anchor="start" x="8" y="-18.5" font-family="Helvetica,sans-Serif" font-size="10.00">src/modules/wiegand</text>
<text text-anchor="middle" x="59" y="-7.5" font-family="Helvetica,sans-Serif" font-size="10.00">/ws/CRUDHandler.cpp</text>
</a>
</g>
</g>
<!-- Node27&#45;&gt;Node28 -->
<g id="edge1" class="edge"><title>Node27&#45;&gt;Node28</title>
<path fill="none" stroke="midnightblue" d="M107.168,-60.5978C96.4477,-50.7831 83.9529,-39.3442 74.3759,-30.5765"/>
<polygon fill="midnightblue" stroke="midnightblue" points="104.855,-63.225 114.594,-67.396 109.582,-58.0618 104.855,-63.225"/>
</g>
<!-- Node29 -->
<g id="node3" class="node"><title>Node29</title>
<g id="a_node3"><a xlink:href="../../d8/d9e/wiegand_2ws_2WSHelperThread_8cpp.html" target="_top" xlink:title="src/modules/wiegand\l/ws/WSHelperThread.cpp">
<polygon fill="white" stroke="black" points="136.5,-0.5 136.5,-30.5 265.5,-30.5 265.5,-0.5 136.5,-0.5"/>
<text text-anchor="start" x="144.5" y="-18.5" font-family="Helvetica,sans-Serif" font-size="10.00">src/modules/wiegand</text>
<text text-anchor="middle" x="201" y="-7.5" font-family="Helvetica,sans-Serif" font-size="10.00">/ws/WSHelperThread.cpp</text>
</a>
</g>
</g>
<!-- Node27&#45;&gt;Node29 -->
<g id="edge2" class="edge"><title>Node27&#45;&gt;Node29</title>
<path fill="none" stroke="midnightblue" d="M152.832,-60.5978C163.552,-50.7831 176.047,-39.3442 185.624,-30.5765"/>
<polygon fill="midnightblue" stroke="midnightblue" points="150.418,-58.0618 145.406,-67.396 155.145,-63.225 150.418,-58.0618"/>
</g>
</g>
</svg>
