<?xml version="1.0" encoding="UTF-8" standalone="no"?>
<!DOCTYPE svg PUBLIC "-//W3C//DTD SVG 1.1//EN"
 "http://www.w3.org/Graphics/SVG/1.1/DTD/svg11.dtd">
<!-- Generated by graphviz version 2.38.0 (20140413.2041)
 -->
<!-- Title: src/tools/scrypt/Scrypt.hpp Pages: 1 -->
<!--zoomable 162 -->
<svg id="main" version="1.1" xmlns="http://www.w3.org/2000/svg" xmlns:xlink="http://www.w3.org/1999/xlink" xml:space="preserve" onload="init(evt)">
<style type="text/css"><![CDATA[
.edge:hover path { stroke: red; }
.edge:hover polygon { stroke: red; fill: red; }
]]></style>
<script type="text/javascript"><![CDATA[
var edges = document.getElementsByTagName('g');
if (edges && edges.length) {
  for (var i=0;i<edges.length;i++) {
    if (edges[i].id.substr(0,4)=='edge') {
      edges[i].setAttribute('class','edge');
    }
  }
}
]]></script>
        <defs>
                <circle id="rim" cx="0" cy="0" r="7"/>
                <circle id="rim2" cx="0" cy="0" r="3.5"/>
                <g id="zoomPlus">
                        <use xlink:href="#rim" fill="#404040">
                                <set attributeName="fill" to="#808080" begin="zoomplus.mouseover" end="zoomplus.mouseout"/>
                        </use>
                        <path d="M-4,0h8M0,-4v8" fill="none" stroke="white" stroke-width="1.5" pointer-events="none"/>
                </g>
                <g id="zoomMin">
                        <use xlink:href="#rim" fill="#404040">
                                <set attributeName="fill" to="#808080" begin="zoomminus.mouseover" end="zoomminus.mouseout"/>
                        </use>
                        <path d="M-4,0h8" fill="none" stroke="white" stroke-width="1.5" pointer-events="none"/>
                </g>
                <g id="dirArrow">
                        <path fill="none" stroke="white" stroke-width="1.5" d="M0,-3.0v7 M-2.5,-0.5L0,-3.0L2.5,-0.5"/>
                </g>
               <g id="resetDef">
                       <use xlink:href="#rim2" fill="#404040">
                               <set attributeName="fill" to="#808080" begin="reset.mouseover" end="reset.mouseout"/>
                       </use>
               </g>
        </defs>

<script type="text/javascript">
var viewWidth = 3079;
var viewHeight = 162;
var sectionId = 'dynsection-1';
</script>
<script xlink:href="../../svgpan.js"/>
<svg id="graph" class="graph">
<g id="viewport">
<title>src/tools/scrypt/Scrypt.hpp</title>
<polygon fill="white" stroke="none" points="-4,4 -4,-158 3074.5,-158 3074.5,4 -4,4"/>
<!-- Node10 -->
<g id="node1" class="node"><title>Node10</title>
<polygon fill="#bfbfbf" stroke="black" points="2308.5,-134.5 2308.5,-153.5 2442.5,-153.5 2442.5,-134.5 2308.5,-134.5"/>
<text text-anchor="middle" x="2375.5" y="-141.5" font-family="Helvetica,sans-Serif" font-size="10.00">src/tools/scrypt/Scrypt.hpp</text>
</g>
<!-- Node11 -->
<g id="node2" class="node"><title>Node11</title>
<g id="a_node2"><a xlink:href="../../de/dfd/User_8hpp.html" target="_top" xlink:title="src/core/auth/User.hpp">
<polygon fill="white" stroke="black" points="1542.5,-73 1542.5,-92 1658.5,-92 1658.5,-73 1542.5,-73"/>
<text text-anchor="middle" x="1600.5" y="-80" font-family="Helvetica,sans-Serif" font-size="10.00">src/core/auth/User.hpp</text>
</a>
</g>
</g>
<!-- Node10&#45;&gt;Node11 -->
<g id="edge1" class="edge"><title>Node10&#45;&gt;Node11</title>
<path fill="none" stroke="midnightblue" d="M2298.02,-137.052C2142.74,-125.13 1796.53,-98.5503 1658.72,-87.9701"/>
<polygon fill="midnightblue" stroke="midnightblue" points="2298.18,-140.574 2308.42,-137.85 2298.71,-133.594 2298.18,-140.574"/>
</g>
<!-- Node32 -->
<g id="node23" class="node"><title>Node32</title>
<g id="a_node23"><a xlink:href="../../da/ddc/ScryptResultODB_8hpp.html" target="_top" xlink:title="src/tools/db/ScryptResult\lODB.hpp">
<polygon fill="white" stroke="black" points="2311.5,-67.5 2311.5,-97.5 2439.5,-97.5 2439.5,-67.5 2311.5,-67.5"/>
<text text-anchor="start" x="2319.5" y="-85.5" font-family="Helvetica,sans-Serif" font-size="10.00">src/tools/db/ScryptResult</text>
<text text-anchor="middle" x="2375.5" y="-74.5" font-family="Helvetica,sans-Serif" font-size="10.00">ODB.hpp</text>
</a>
</g>
</g>
<!-- Node10&#45;&gt;Node32 -->
<g id="edge22" class="edge"><title>Node10&#45;&gt;Node32</title>
<path fill="none" stroke="midnightblue" d="M2375.5,-124.235C2375.5,-115.586 2375.5,-105.497 2375.5,-97.523"/>
<polygon fill="midnightblue" stroke="midnightblue" points="2372,-124.475 2375.5,-134.475 2379,-124.475 2372,-124.475"/>
</g>
<!-- Node34 -->
<g id="node25" class="node"><title>Node34</title>
<g id="a_node25"><a xlink:href="../../db/d1c/Scrypt_8cpp.html" target="_top" xlink:title="src/tools/scrypt/Scrypt.cpp">
<polygon fill="white" stroke="black" points="2457.5,-73 2457.5,-92 2591.5,-92 2591.5,-73 2457.5,-73"/>
<text text-anchor="middle" x="2524.5" y="-80" font-family="Helvetica,sans-Serif" font-size="10.00">src/tools/scrypt/Scrypt.cpp</text>
</a>
</g>
</g>
<!-- Node10&#45;&gt;Node34 -->
<g id="edge24" class="edge"><title>Node10&#45;&gt;Node34</title>
<path fill="none" stroke="midnightblue" d="M2406.47,-130.631C2435.42,-119.072 2477.87,-102.12 2503.19,-92.0091"/>
<polygon fill="midnightblue" stroke="midnightblue" points="2404.84,-127.516 2396.85,-134.475 2407.43,-134.017 2404.84,-127.516"/>
</g>
<!-- Node12 -->
<g id="node3" class="node"><title>Node12</title>
<g id="a_node3"><a xlink:href="../../d3/d19/AuditEntry_8cpp.html" target="_top" xlink:title="src/core/audit/AuditEntry.cpp">
<polygon fill="white" stroke="black" points="0,-6 0,-25 143,-25 143,-6 0,-6"/>
<text text-anchor="middle" x="71.5" y="-13" font-family="Helvetica,sans-Serif" font-size="10.00">src/core/audit/AuditEntry.cpp</text>
</a>
</g>
</g>
<!-- Node11&#45;&gt;Node12 -->
<g id="edge2" class="edge"><title>Node11&#45;&gt;Node12</title>
<path fill="none" stroke="midnightblue" d="M1532.16,-80.4292C1283.07,-76.322 424.272,-60.3179 151.5,-31 138.588,-29.6122 124.625,-27.3493 112.033,-25.0193"/>
<polygon fill="midnightblue" stroke="midnightblue" points="1532.1,-83.9287 1542.16,-80.5931 1532.22,-76.9296 1532.1,-83.9287"/>
</g>
<!-- Node13 -->
<g id="node4" class="node"><title>Node13</title>
<g id="a_node4"><a xlink:href="../../d4/dbe/AuditFactory_8cpp.html" target="_top" xlink:title="src/core/audit/AuditFactory.cpp">
<polygon fill="white" stroke="black" points="161,-6 161,-25 314,-25 314,-6 161,-6"/>
<text text-anchor="middle" x="237.5" y="-13" font-family="Helvetica,sans-Serif" font-size="10.00">src/core/audit/AuditFactory.cpp</text>
</a>
</g>
</g>
<!-- Node11&#45;&gt;Node13 -->
<g id="edge3" class="edge"><title>Node11&#45;&gt;Node13</title>
<path fill="none" stroke="midnightblue" d="M1532.21,-81.8557C1340.88,-82.1941 783.457,-78.6737 323.5,-31 309.795,-29.5795 294.966,-27.3367 281.545,-25.0357"/>
<polygon fill="midnightblue" stroke="midnightblue" points="1532.41,-85.3554 1542.4,-81.8333 1532.39,-78.3554 1532.41,-85.3554"/>
</g>
<!-- Node14 -->
<g id="node5" class="node"><title>Node14</title>
<g id="a_node5"><a xlink:href="../../d2/d8b/UserEvent_8cpp.html" target="_top" xlink:title="src/core/audit/UserEvent.cpp">
<polygon fill="white" stroke="black" points="332.5,-6 332.5,-25 476.5,-25 476.5,-6 332.5,-6"/>
<text text-anchor="middle" x="404.5" y="-13" font-family="Helvetica,sans-Serif" font-size="10.00">src/core/audit/UserEvent.cpp</text>
</a>
</g>
</g>
<!-- Node11&#45;&gt;Node14 -->
<g id="edge4" class="edge"><title>Node11&#45;&gt;Node14</title>
<path fill="none" stroke="midnightblue" d="M1532.17,-81.5336C1357.41,-80.9421 880.127,-75.0636 485.5,-31 472.58,-29.5574 458.61,-27.3082 445.97,-25.0081"/>
<polygon fill="midnightblue" stroke="midnightblue" points="1532.24,-85.0337 1542.25,-81.5629 1532.26,-78.0338 1532.24,-85.0337"/>
</g>
<!-- Node15 -->
<g id="node6" class="node"><title>Node15</title>
<g id="a_node6"><a xlink:href="../../d2/de5/WSAPICall_8cpp.html" target="_top" xlink:title="src/core/audit/WSAPICall.cpp">
<polygon fill="white" stroke="black" points="494.5,-6 494.5,-25 642.5,-25 642.5,-6 494.5,-6"/>
<text text-anchor="middle" x="568.5" y="-13" font-family="Helvetica,sans-Serif" font-size="10.00">src/core/audit/WSAPICall.cpp</text>
</a>
</g>
</g>
<!-- Node11&#45;&gt;Node15 -->
<g id="edge5" class="edge"><title>Node11&#45;&gt;Node15</title>
<path fill="none" stroke="midnightblue" d="M1531.84,-80.6623C1375.25,-78.1368 979.821,-68.2785 651.5,-31 638.419,-29.5147 624.277,-27.2817 611.437,-25.0101"/>
<polygon fill="midnightblue" stroke="midnightblue" points="1532.2,-84.1682 1542.26,-80.825 1532.31,-77.1691 1532.2,-84.1682"/>
</g>
<!-- Node16 -->
<g id="node7" class="node"><title>Node16</title>
<g id="a_node7"><a xlink:href="../../d3/da9/UserSerializer_8cpp.html" target="_top" xlink:title="src/core/auth/serializers\l/UserSerializer.cpp">
<polygon fill="white" stroke="black" points="661,-0.5 661,-30.5 782,-30.5 782,-0.5 661,-0.5"/>
<text text-anchor="start" x="669" y="-18.5" font-family="Helvetica,sans-Serif" font-size="10.00">src/core/auth/serializers</text>
<text text-anchor="middle" x="721.5" y="-7.5" font-family="Helvetica,sans-Serif" font-size="10.00">/UserSerializer.cpp</text>
</a>
</g>
</g>
<!-- Node11&#45;&gt;Node16 -->
<g id="edge6" class="edge"><title>Node11&#45;&gt;Node16</title>
<path fill="none" stroke="midnightblue" d="M1532.22,-80.5025C1392.54,-77.7445 1064.32,-67.5837 791.5,-31 788.425,-30.5876 785.283,-30.1175 782.116,-29.6049"/>
<polygon fill="midnightblue" stroke="midnightblue" points="1532.28,-84.0043 1542.35,-80.696 1532.42,-77.0056 1532.28,-84.0043"/>
</g>
<!-- Node17 -->
<g id="node8" class="node"><title>Node17</title>
<g id="a_node8"><a xlink:href="../../dd/d24/kernel_8cpp.html" target="_top" xlink:title="src/core/kernel.cpp">
<polygon fill="white" stroke="black" points="800.5,-6 800.5,-25 900.5,-25 900.5,-6 800.5,-6"/>
<text text-anchor="middle" x="850.5" y="-13" font-family="Helvetica,sans-Serif" font-size="10.00">src/core/kernel.cpp</text>
</a>
</g>
</g>
<!-- Node11&#45;&gt;Node17 -->
<g id="edge7" class="edge"><title>Node11&#45;&gt;Node17</title>
<path fill="none" stroke="midnightblue" d="M1532.19,-80.304C1407.66,-77.2832 1135.7,-66.8018 909.5,-31 900.124,-29.516 890.048,-27.2833 880.923,-25.0117"/>
<polygon fill="midnightblue" stroke="midnightblue" points="1532.26,-83.8065 1542.34,-80.5415 1532.42,-76.8084 1532.26,-83.8065"/>
</g>
<!-- Node18 -->
<g id="node9" class="node"><title>Node18</title>
<g id="a_node9"><a xlink:href="../../da/d9b/AuthFileInstance_8cpp.html" target="_top" xlink:title="src/modules/auth/auth\l&#45;file/AuthFileInstance.cpp">
<polygon fill="white" stroke="black" points="918.5,-0.5 918.5,-30.5 1046.5,-30.5 1046.5,-0.5 918.5,-0.5"/>
<text text-anchor="start" x="926.5" y="-18.5" font-family="Helvetica,sans-Serif" font-size="10.00">src/modules/auth/auth</text>
<text text-anchor="middle" x="982.5" y="-7.5" font-family="Helvetica,sans-Serif" font-size="10.00">&#45;file/AuthFileInstance.cpp</text>
</a>
</g>
</g>
<!-- Node11&#45;&gt;Node18 -->
<g id="edge8" class="edge"><title>Node11&#45;&gt;Node18</title>
<path fill="none" stroke="midnightblue" d="M1532.19,-77.4525C1428.69,-70.8058 1226.14,-55.7843 1055.5,-31 1052.56,-30.5728 1049.56,-30.1054 1046.53,-29.6083"/>
<polygon fill="midnightblue" stroke="midnightblue" points="1531.99,-80.9469 1542.19,-78.0887 1532.43,-73.961 1531.99,-80.9469"/>
</g>
<!-- Node19 -->
<g id="node10" class="node"><title>Node19</title>
<g id="a_node10"><a xlink:href="../../d3/dc5/FileAuthSourceMapper_8cpp.html" target="_top" xlink:title="src/modules/auth/auth\l&#45;file/FileAuthSourceMapper.cpp">
<polygon fill="white" stroke="black" points="1065,-0.5 1065,-30.5 1218,-30.5 1218,-0.5 1065,-0.5"/>
<text text-anchor="start" x="1073" y="-18.5" font-family="Helvetica,sans-Serif" font-size="10.00">src/modules/auth/auth</text>
<text text-anchor="middle" x="1141.5" y="-7.5" font-family="Helvetica,sans-Serif" font-size="10.00">&#45;file/FileAuthSourceMapper.cpp</text>
</a>
</g>
</g>
<!-- Node11&#45;&gt;Node19 -->
<g id="edge9" class="edge"><title>Node11&#45;&gt;Node19</title>
<path fill="none" stroke="midnightblue" d="M1532.17,-72.9974C1457.11,-63.4888 1333.05,-47.2769 1226.5,-31 1223.84,-30.5931 1221.13,-30.1717 1218.39,-29.7399"/>
<polygon fill="midnightblue" stroke="midnightblue" points="1532.07,-76.5124 1542.43,-74.2939 1532.95,-69.5676 1532.07,-76.5124"/>
</g>
<!-- Node20 -->
<g id="node11" class="node"><title>Node20</title>
<g id="a_node11"><a xlink:href="../../d7/d29/AccessPointCRUD_8cpp.html" target="_top" xlink:title="src/modules/websock\l&#45;api/api/AccessPointCRUD.cpp">
<polygon fill="white" stroke="black" points="1236,-0.5 1236,-30.5 1391,-30.5 1391,-0.5 1236,-0.5"/>
<text text-anchor="start" x="1244" y="-18.5" font-family="Helvetica,sans-Serif" font-size="10.00">src/modules/websock</text>
<text text-anchor="middle" x="1313.5" y="-7.5" font-family="Helvetica,sans-Serif" font-size="10.00">&#45;api/api/AccessPointCRUD.cpp</text>
</a>
</g>
</g>
<!-- Node11&#45;&gt;Node20 -->
<g id="edge10" class="edge"><title>Node11&#45;&gt;Node20</title>
<path fill="none" stroke="midnightblue" d="M1552.75,-70.6855C1504.2,-59.6889 1428.74,-42.6002 1375.58,-30.5592"/>
<polygon fill="midnightblue" stroke="midnightblue" points="1552.16,-74.1402 1562.68,-72.9355 1553.7,-67.3131 1552.16,-74.1402"/>
</g>
<!-- Node21 -->
<g id="node12" class="node"><title>Node21</title>
<g id="a_node12"><a xlink:href="../../d7/d86/APIAuth_8cpp.html" target="_top" xlink:title="src/modules/websock\l&#45;api/api/APIAuth.cpp">
<polygon fill="white" stroke="black" points="1409.5,-0.5 1409.5,-30.5 1521.5,-30.5 1521.5,-0.5 1409.5,-0.5"/>
<text text-anchor="start" x="1417.5" y="-18.5" font-family="Helvetica,sans-Serif" font-size="10.00">src/modules/websock</text>
<text text-anchor="middle" x="1465.5" y="-7.5" font-family="Helvetica,sans-Serif" font-size="10.00">&#45;api/api/APIAuth.cpp</text>
</a>
</g>
</g>
<!-- Node11&#45;&gt;Node21 -->
<g id="edge11" class="edge"><title>Node11&#45;&gt;Node21</title>
<path fill="none" stroke="midnightblue" d="M1573.45,-68.4738C1550.62,-57.485 1518.03,-41.791 1494.64,-30.5281"/>
<polygon fill="midnightblue" stroke="midnightblue" points="1572.04,-71.6838 1582.57,-72.8685 1575.08,-65.3768 1572.04,-71.6838"/>
</g>
<!-- Node22 -->
<g id="node13" class="node"><title>Node22</title>
<g id="a_node13"><a xlink:href="../../d9/d8d/APISession_8cpp.html" target="_top" xlink:title="src/modules/websock\l&#45;api/api/APISession.cpp">
<polygon fill="white" stroke="black" points="1539.5,-0.5 1539.5,-30.5 1661.5,-30.5 1661.5,-0.5 1539.5,-0.5"/>
<text text-anchor="start" x="1547.5" y="-18.5" font-family="Helvetica,sans-Serif" font-size="10.00">src/modules/websock</text>
<text text-anchor="middle" x="1600.5" y="-7.5" font-family="Helvetica,sans-Serif" font-size="10.00">&#45;api/api/APISession.cpp</text>
</a>
</g>
</g>
<!-- Node11&#45;&gt;Node22 -->
<g id="edge12" class="edge"><title>Node11&#45;&gt;Node22</title>
<path fill="none" stroke="midnightblue" d="M1600.5,-62.4107C1600.5,-52.222 1600.5,-39.901 1600.5,-30.589"/>
<polygon fill="midnightblue" stroke="midnightblue" points="1597,-62.7338 1600.5,-72.7338 1604,-62.7338 1597,-62.7338"/>
</g>
<!-- Node23 -->
<g id="node14" class="node"><title>Node23</title>
<g id="a_node14"><a xlink:href="../../d7/dde/DoorCRUD_8cpp.html" target="_top" xlink:title="src/modules/websock\l&#45;api/api/DoorCRUD.cpp">
<polygon fill="white" stroke="black" points="1680,-0.5 1680,-30.5 1801,-30.5 1801,-0.5 1680,-0.5"/>
<text text-anchor="start" x="1688" y="-18.5" font-family="Helvetica,sans-Serif" font-size="10.00">src/modules/websock</text>
<text text-anchor="middle" x="1740.5" y="-7.5" font-family="Helvetica,sans-Serif" font-size="10.00">&#45;api/api/DoorCRUD.cpp</text>
</a>
</g>
</g>
<!-- Node11&#45;&gt;Node23 -->
<g id="edge13" class="edge"><title>Node11&#45;&gt;Node23</title>
<path fill="none" stroke="midnightblue" d="M1628.24,-68.6206C1651.92,-57.6252 1685.92,-41.8413 1710.29,-30.5281"/>
<polygon fill="midnightblue" stroke="midnightblue" points="1626.69,-65.4828 1619.09,-72.8685 1629.63,-71.8319 1626.69,-65.4828"/>
</g>
<!-- Node24 -->
<g id="node15" class="node"><title>Node24</title>
<g id="a_node15"><a xlink:href="../../d1/de1/GroupCRUD_8cpp.html" target="_top" xlink:title="src/modules/websock\l&#45;api/api/GroupCRUD.cpp">
<polygon fill="white" stroke="black" points="1819.5,-0.5 1819.5,-30.5 1945.5,-30.5 1945.5,-0.5 1819.5,-0.5"/>
<text text-anchor="start" x="1827.5" y="-18.5" font-family="Helvetica,sans-Serif" font-size="10.00">src/modules/websock</text>
<text text-anchor="middle" x="1882.5" y="-7.5" font-family="Helvetica,sans-Serif" font-size="10.00">&#45;api/api/GroupCRUD.cpp</text>
</a>
</g>
</g>
<!-- Node11&#45;&gt;Node24 -->
<g id="edge14" class="edge"><title>Node11&#45;&gt;Node24</title>
<path fill="none" stroke="midnightblue" d="M1647.42,-70.6855C1695.13,-59.6889 1769.27,-42.6002 1821.5,-30.5592"/>
<polygon fill="midnightblue" stroke="midnightblue" points="1646.61,-67.2788 1637.66,-72.9355 1648.19,-74.1 1646.61,-67.2788"/>
</g>
<!-- Node25 -->
<g id="node16" class="node"><title>Node25</title>
<g id="a_node16"><a xlink:href="../../df/dc4/MembershipCRUD_8cpp.html" target="_top" xlink:title="src/modules/websock\l&#45;api/api/MembershipCRUD.cpp">
<polygon fill="white" stroke="black" points="1964,-0.5 1964,-30.5 2117,-30.5 2117,-0.5 1964,-0.5"/>
<text text-anchor="start" x="1972" y="-18.5" font-family="Helvetica,sans-Serif" font-size="10.00">src/modules/websock</text>
<text text-anchor="middle" x="2040.5" y="-7.5" font-family="Helvetica,sans-Serif" font-size="10.00">&#45;api/api/MembershipCRUD.cpp</text>
</a>
</g>
</g>
<!-- Node11&#45;&gt;Node25 -->
<g id="edge15" class="edge"><title>Node11&#45;&gt;Node25</title>
<path fill="none" stroke="midnightblue" d="M1668.71,-72.291C1740.06,-62.5374 1855.25,-46.4434 1954.5,-31 1957.49,-30.5344 1960.54,-30.053 1963.62,-29.5612"/>
<polygon fill="midnightblue" stroke="midnightblue" points="1667.95,-68.863 1658.51,-73.6833 1668.89,-75.7987 1667.95,-68.863"/>
</g>
<!-- Node26 -->
<g id="node17" class="node"><title>Node26</title>
<g id="a_node17"><a xlink:href="../../df/df7/UserCRUD_8cpp.html" target="_top" xlink:title="src/modules/websock\l&#45;api/api/UserCRUD.cpp">
<polygon fill="white" stroke="black" points="2135,-0.5 2135,-30.5 2256,-30.5 2256,-0.5 2135,-0.5"/>
<text text-anchor="start" x="2143" y="-18.5" font-family="Helvetica,sans-Serif" font-size="10.00">src/modules/websock</text>
<text text-anchor="middle" x="2195.5" y="-7.5" font-family="Helvetica,sans-Serif" font-size="10.00">&#45;api/api/UserCRUD.cpp</text>
</a>
</g>
</g>
<!-- Node11&#45;&gt;Node26 -->
<g id="edge16" class="edge"><title>Node11&#45;&gt;Node26</title>
<path fill="none" stroke="midnightblue" d="M1668.64,-77.3132C1769.04,-70.6089 1962.47,-55.6516 2125.5,-31 2128.57,-30.5361 2131.7,-30.0245 2134.87,-29.479"/>
<polygon fill="midnightblue" stroke="midnightblue" points="1668.38,-73.8229 1658.63,-77.9748 1668.84,-80.8076 1668.38,-73.8229"/>
</g>
<!-- Node27 -->
<g id="node18" class="node"><title>Node27</title>
<g id="a_node18"><a xlink:href="../../d6/dd1/Exceptions_8cpp.html" target="_top" xlink:title="src/modules/websock\l&#45;api/Exceptions.cpp">
<polygon fill="white" stroke="black" points="2274.5,-0.5 2274.5,-30.5 2386.5,-30.5 2386.5,-0.5 2274.5,-0.5"/>
<text text-anchor="start" x="2282.5" y="-18.5" font-family="Helvetica,sans-Serif" font-size="10.00">src/modules/websock</text>
<text text-anchor="middle" x="2330.5" y="-7.5" font-family="Helvetica,sans-Serif" font-size="10.00">&#45;api/Exceptions.cpp</text>
</a>
</g>
</g>
<!-- Node11&#45;&gt;Node27 -->
<g id="edge17" class="edge"><title>Node11&#45;&gt;Node27</title>
<path fill="none" stroke="midnightblue" d="M1668.73,-79.4688C1789.45,-75.1732 2048.33,-62.8053 2264.5,-31 2267.75,-30.5218 2271.08,-29.9748 2274.43,-29.3797"/>
<polygon fill="midnightblue" stroke="midnightblue" points="1668.41,-75.9779 1658.53,-79.8241 1668.65,-82.9737 1668.41,-75.9779"/>
</g>
<!-- Node28 -->
<g id="node19" class="node"><title>Node28</title>
<g id="a_node19"><a xlink:href="../../d4/d2c/WSServer_8cpp.html" target="_top" xlink:title="src/modules/websock\l&#45;api/WSServer.cpp">
<polygon fill="white" stroke="black" points="2404.5,-0.5 2404.5,-30.5 2516.5,-30.5 2516.5,-0.5 2404.5,-0.5"/>
<text text-anchor="start" x="2412.5" y="-18.5" font-family="Helvetica,sans-Serif" font-size="10.00">src/modules/websock</text>
<text text-anchor="middle" x="2460.5" y="-7.5" font-family="Helvetica,sans-Serif" font-size="10.00">&#45;api/WSServer.cpp</text>
</a>
</g>
</g>
<!-- Node11&#45;&gt;Node28 -->
<g id="edge18" class="edge"><title>Node11&#45;&gt;Node28</title>
<path fill="none" stroke="midnightblue" d="M1668.68,-80.7452C1806.61,-78.4322 2128.35,-69.0451 2395.5,-31 2398.36,-30.5925 2401.28,-30.1263 2404.23,-29.6167"/>
<polygon fill="midnightblue" stroke="midnightblue" points="1668.61,-77.2457 1658.67,-80.9059 1668.73,-84.2448 1668.61,-77.2457"/>
</g>
<!-- Node29 -->
<g id="node20" class="node"><title>Node29</title>
<g id="a_node20"><a xlink:href="../../d7/d01/ScheduleMapping_8cpp.html" target="_top" xlink:title="src/tools/ScheduleMapping.cpp">
<polygon fill="white" stroke="black" points="2535,-6 2535,-25 2688,-25 2688,-6 2535,-6"/>
<text text-anchor="middle" x="2611.5" y="-13" font-family="Helvetica,sans-Serif" font-size="10.00">src/tools/ScheduleMapping.cpp</text>
</a>
</g>
</g>
<!-- Node11&#45;&gt;Node29 -->
<g id="edge19" class="edge"><title>Node11&#45;&gt;Node29</title>
<path fill="none" stroke="midnightblue" d="M1668.81,-80.3975C1822.36,-77.3449 2206.35,-66.5028 2525.5,-31 2538.89,-29.5101 2553.37,-27.3036 2566.55,-25.0589"/>
<polygon fill="midnightblue" stroke="midnightblue" points="1668.52,-76.9023 1658.59,-80.5958 1668.66,-83.901 1668.52,-76.9023"/>
</g>
<!-- Node30 -->
<g id="node21" class="node"><title>Node30</title>
<g id="a_node21"><a xlink:href="../../d5/d58/AuthFile_8cpp.html" target="_top" xlink:title="This file contains unit test suite related to the AuthFile module. ">
<polygon fill="white" stroke="black" points="2706,-6 2706,-25 2797,-25 2797,-6 2706,-6"/>
<text text-anchor="middle" x="2751.5" y="-13" font-family="Helvetica,sans-Serif" font-size="10.00">test/AuthFile.cpp</text>
</a>
</g>
</g>
<!-- Node11&#45;&gt;Node30 -->
<g id="edge20" class="edge"><title>Node11&#45;&gt;Node30</title>
<path fill="none" stroke="midnightblue" d="M1668.75,-80.2901C1876.28,-76.306 2497.76,-62.0392 2697.5,-31 2706.32,-29.6287 2715.78,-27.3703 2724.27,-25.0396"/>
<polygon fill="midnightblue" stroke="midnightblue" points="1668.53,-76.7936 1658.6,-80.4831 1668.66,-83.7923 1668.53,-76.7936"/>
</g>
<!-- Node31 -->
<g id="node22" class="node"><title>Node31</title>
<g id="a_node22"><a xlink:href="../../d8/df5/GroupValidator_8cpp.html" target="_top" xlink:title="test/GroupValidator.cpp">
<polygon fill="white" stroke="black" points="2815,-6 2815,-25 2934,-25 2934,-6 2815,-6"/>
<text text-anchor="middle" x="2874.5" y="-13" font-family="Helvetica,sans-Serif" font-size="10.00">test/GroupValidator.cpp</text>
</a>
</g>
</g>
<!-- Node11&#45;&gt;Node31 -->
<g id="edge21" class="edge"><title>Node11&#45;&gt;Node31</title>
<path fill="none" stroke="midnightblue" d="M1668.95,-80.1495C1890.11,-75.5481 2583.94,-59.1845 2806.5,-31 2817.52,-29.6048 2829.4,-27.3397 2840.1,-25.0101"/>
<polygon fill="midnightblue" stroke="midnightblue" points="1668.71,-76.6537 1658.78,-80.3597 1668.85,-83.6522 1668.71,-76.6537"/>
</g>
<!-- Node33 -->
<g id="node24" class="node"><title>Node33</title>
<g id="a_node24"><a xlink:href="../../de/dee/ODB__Auth__Prologue_8hpp.html" target="_top" xlink:title="src/tools/db/ODB_Auth\l_Prologue.hpp">
<polygon fill="white" stroke="black" points="2952.5,-0.5 2952.5,-30.5 3070.5,-30.5 3070.5,-0.5 2952.5,-0.5"/>
<text text-anchor="start" x="2960.5" y="-18.5" font-family="Helvetica,sans-Serif" font-size="10.00">src/tools/db/ODB_Auth</text>
<text text-anchor="middle" x="3011.5" y="-7.5" font-family="Helvetica,sans-Serif" font-size="10.00">_Prologue.hpp</text>
</a>
</g>
</g>
<!-- Node32&#45;&gt;Node33 -->
<g id="edge23" class="edge"><title>Node32&#45;&gt;Node33</title>
<path fill="none" stroke="midnightblue" d="M2449.74,-66.9555C2668.89,-38.189 2728.42,-61.6038 2943.5,-31 2946.37,-30.5919 2949.3,-30.1328 2952.25,-29.636"/>
<polygon fill="midnightblue" stroke="midnightblue" points="2448.97,-63.5271 2439.52,-68.3193 2449.89,-70.4656 2448.97,-63.5271"/>
</g>
</g>
</svg>
        <g id="navigator" transform="translate(0 0)" fill="#404254">
                <rect fill="#f2f5e9" fill-opacity="0.5" stroke="#606060" stroke-width=".5" x="0" y="0" width="60" height="60"/>
                <use id="zoomplus" xlink:href="#zoomPlus" x="17" y="9" onmousedown="handleZoom(evt,'in')"/>
                <use id="zoomminus" xlink:href="#zoomMin" x="42" y="9" onmousedown="handleZoom(evt,'out')"/>
                <use id="reset" xlink:href="#resetDef" x="30" y="36" onmousedown="handleReset()"/>
                <g id="arrowUp" xlink:href="#dirArrow" transform="translate(30 24)" onmousedown="handlePan(0,-1)">
                  <use xlink:href="#rim" fill="#404040">
                        <set attributeName="fill" to="#808080" begin="arrowUp.mouseover" end="arrowUp.mouseout"/>
                  </use>
                  <path fill="none" stroke="white" stroke-width="1.5" d="M0,-3.0v7 M-2.5,-0.5L0,-3.0L2.5,-0.5"/>
                </g>
                <g id="arrowRight" xlink:href="#dirArrow" transform="rotate(90) translate(36 -43)" onmousedown="handlePan(1,0)">
                  <use xlink:href="#rim" fill="#404040">
                        <set attributeName="fill" to="#808080" begin="arrowRight.mouseover" end="arrowRight.mouseout"/>
                  </use>
                  <path fill="none" stroke="white" stroke-width="1.5" d="M0,-3.0v7 M-2.5,-0.5L0,-3.0L2.5,-0.5"/>
                </g>
                <g id="arrowDown" xlink:href="#dirArrow" transform="rotate(180) translate(-30 -48)" onmousedown="handlePan(0,1)">
                  <use xlink:href="#rim" fill="#404040">
                        <set attributeName="fill" to="#808080" begin="arrowDown.mouseover" end="arrowDown.mouseout"/>
                  </use>
                  <path fill="none" stroke="white" stroke-width="1.5" d="M0,-3.0v7 M-2.5,-0.5L0,-3.0L2.5,-0.5"/>
                </g>
                <g id="arrowLeft" xlink:href="#dirArrow" transform="rotate(270) translate(-36 17)" onmousedown="handlePan(-1,0)">
                  <use xlink:href="#rim" fill="#404040">
                        <set attributeName="fill" to="#808080" begin="arrowLeft.mouseover" end="arrowLeft.mouseout"/>
                  </use>
                  <path fill="none" stroke="white" stroke-width="1.5" d="M0,-3.0v7 M-2.5,-0.5L0,-3.0L2.5,-0.5"/>
                </g>
        </g>
        <svg viewBox="0 0 15 15" width="100%" height="30px" preserveAspectRatio="xMaxYMin meet">
         <g id="arrow_out" transform="scale(0.3 0.3)">
          <a xlink:href="Scrypt_8hpp__dep__incl_org.svg" target="_base">
           <rect id="button" ry="5" rx="5" y="6" x="6" height="38" width="38"
                fill="#f2f5e9" fill-opacity="0.5" stroke="#606060" stroke-width="1.0"/>
           <path id="arrow"
             d="M 11.500037,31.436501 C 11.940474,20.09759 22.043105,11.32322 32.158766,21.979434 L 37.068811,17.246167 C 37.068811,17.246167 37.088388,32 37.088388,32 L 22.160133,31.978069 C 22.160133,31.978069 26.997745,27.140456 26.997745,27.140456 C 18.528582,18.264221 13.291696,25.230495 11.500037,31.436501 z"
             style="fill:#404040;"/>
          </a>
         </g>
        </svg>
</svg>
