<?xml version="1.0" encoding="UTF-8" standalone="no"?>
<!DOCTYPE svg PUBLIC "-//W3C//DTD SVG 1.1//EN"
 "http://www.w3.org/Graphics/SVG/1.1/DTD/svg11.dtd">
<!-- Generated by graphviz version 2.38.0 (20140413.2041)
 -->
<!-- Title: src/modules/led&#45;buzzer/LedBuzzerImpl.hpp Pages: 1 -->
<svg width="989pt" height="218pt"
 viewBox="0.00 0.00 988.50 218.00" xmlns="http://www.w3.org/2000/svg" xmlns:xlink="http://www.w3.org/1999/xlink">
<g id="graph0" class="graph" transform="scale(1 1) rotate(0) translate(4 214)">
<title>src/modules/led&#45;buzzer/LedBuzzerImpl.hpp</title>
<polygon fill="white" stroke="none" points="-4,4 -4,-214 984.5,-214 984.5,4 -4,4"/>
<!-- Node0 -->
<g id="node1" class="node"><title>Node0</title>
<polygon fill="#bfbfbf" stroke="black" points="423.5,-179.5 423.5,-209.5 541.5,-209.5 541.5,-179.5 423.5,-179.5"/>
<text text-anchor="start" x="431.5" y="-197.5" font-family="Helvetica,sans-Serif" font-size="10.00">src/modules/led&#45;buzzer</text>
<text text-anchor="middle" x="482.5" y="-186.5" font-family="Helvetica,sans-Serif" font-size="10.00">/LedBuzzerImpl.hpp</text>
</g>
<!-- Node1 -->
<g id="node2" class="node"><title>Node1</title>
<g id="a_node2"><a xlink:href="../../d7/d6e/LedBuzzerSM_8hpp.html" target="_top" xlink:title="LedBuzzerSM.hpp">
<polygon fill="white" stroke="black" points="434,-123.5 434,-142.5 531,-142.5 531,-123.5 434,-123.5"/>
<text text-anchor="middle" x="482.5" y="-130.5" font-family="Helvetica,sans-Serif" font-size="10.00">LedBuzzerSM.hpp</text>
</a>
</g>
</g>
<!-- Node0&#45;&gt;Node1 -->
<g id="edge1" class="edge"><title>Node0&#45;&gt;Node1</title>
<path fill="none" stroke="midnightblue" d="M482.5,-179.399C482.5,-171.466 482.5,-161.458 482.5,-152.858"/>
<polygon fill="midnightblue" stroke="midnightblue" points="486,-152.658 482.5,-142.658 479,-152.658 486,-152.658"/>
</g>
<!-- Node2 -->
<g id="node3" class="node"><title>Node2</title>
<g id="a_node3"><a xlink:href="../../de/df0/FGPIO_8hpp.html" target="_top" xlink:title="hardware/facades/FGPIO.hpp">
<polygon fill="white" stroke="black" points="834.5,-62 834.5,-81 980.5,-81 980.5,-62 834.5,-62"/>
<text text-anchor="middle" x="907.5" y="-69" font-family="Helvetica,sans-Serif" font-size="10.00">hardware/facades/FGPIO.hpp</text>
</a>
</g>
</g>
<!-- Node0&#45;&gt;Node2 -->
<g id="edge22" class="edge"><title>Node0&#45;&gt;Node2</title>
<path fill="none" stroke="midnightblue" d="M496.711,-179.492C514.313,-163.048 545.975,-136.335 578.5,-123 681.146,-80.9174 715.977,-104.661 825.5,-87 833.707,-85.6767 842.364,-84.2163 850.855,-82.7472"/>
<polygon fill="midnightblue" stroke="midnightblue" points="851.46,-86.1944 860.709,-81.0262 850.256,-79.2988 851.46,-86.1944"/>
</g>
<!-- Node3 -->
<g id="node4" class="node"><title>Node3</title>
<polygon fill="white" stroke="#bfbfbf" points="490.5,-0.5 490.5,-19.5 536.5,-19.5 536.5,-0.5 490.5,-0.5"/>
<text text-anchor="middle" x="513.5" y="-7.5" font-family="Helvetica,sans-Serif" font-size="10.00">chrono</text>
</g>
<!-- Node0&#45;&gt;Node3 -->
<g id="edge24" class="edge"><title>Node0&#45;&gt;Node3</title>
<path fill="none" stroke="midnightblue" d="M423.255,-180.887C341.826,-160.934 211.027,-117.896 263.5,-56 295.11,-18.7144 432.748,-30.4443 480.5,-20 480.602,-19.9778 480.703,-19.9555 480.805,-19.933"/>
<polygon fill="midnightblue" stroke="midnightblue" points="481.595,-23.343 490.495,-17.5954 479.953,-16.5382 481.595,-23.343"/>
</g>
<!-- Node8 -->
<g id="node9" class="node"><title>Node8</title>
<g id="a_node9"><a xlink:href="../../d4/d3d/log_8hpp.html" target="_top" xlink:title="tools/log.hpp">
<polygon fill="white" stroke="black" points="144.5,-62 144.5,-81 216.5,-81 216.5,-62 144.5,-62"/>
<text text-anchor="middle" x="180.5" y="-69" font-family="Helvetica,sans-Serif" font-size="10.00">tools/log.hpp</text>
</a>
</g>
</g>
<!-- Node0&#45;&gt;Node8 -->
<g id="edge23" class="edge"><title>Node0&#45;&gt;Node8</title>
<path fill="none" stroke="midnightblue" d="M423.387,-193.731C369.17,-191.298 288.695,-180.782 230.5,-143 210.698,-130.143 196.349,-106.458 188.231,-90.1127"/>
<polygon fill="midnightblue" stroke="midnightblue" points="191.397,-88.62 183.988,-81.0459 185.057,-91.5868 191.397,-88.62"/>
</g>
<!-- Node17 -->
<g id="node18" class="node"><title>Node17</title>
<polygon fill="white" stroke="#bfbfbf" points="588,-123.5 588,-142.5 685,-142.5 685,-123.5 588,-123.5"/>
<text text-anchor="middle" x="636.5" y="-130.5" font-family="Helvetica,sans-Serif" font-size="10.00">zmqpp/zmqpp.hpp</text>
</g>
<!-- Node0&#45;&gt;Node17 -->
<g id="edge25" class="edge"><title>Node0&#45;&gt;Node17</title>
<path fill="none" stroke="midnightblue" d="M518.996,-179.399C545.065,-169.327 579.794,-155.909 604.724,-146.277"/>
<polygon fill="midnightblue" stroke="midnightblue" points="606.025,-149.527 614.092,-142.658 603.502,-142.997 606.025,-149.527"/>
</g>
<!-- Node1&#45;&gt;Node2 -->
<g id="edge2" class="edge"><title>Node1&#45;&gt;Node2</title>
<path fill="none" stroke="midnightblue" d="M531.33,-124.955C536.117,-124.286 540.902,-123.624 545.5,-123 669.829,-106.128 701.467,-105.929 825.5,-87 833.923,-85.7145 842.814,-84.2524 851.511,-82.7631"/>
<polygon fill="midnightblue" stroke="midnightblue" points="852.339,-86.1718 861.592,-81.0113 851.14,-79.2752 852.339,-86.1718"/>
</g>
<!-- Node7 -->
<g id="node8" class="node"><title>Node7</title>
<g id="a_node8"><a xlink:href="../../d3/dbd/FLED_8hpp.html" target="_top" xlink:title="hardware/facades/FLED.hpp">
<polygon fill="white" stroke="black" points="412,-62 412,-81 553,-81 553,-62 412,-62"/>
<text text-anchor="middle" x="482.5" y="-69" font-family="Helvetica,sans-Serif" font-size="10.00">hardware/facades/FLED.hpp</text>
</a>
</g>
</g>
<!-- Node1&#45;&gt;Node7 -->
<g id="edge7" class="edge"><title>Node1&#45;&gt;Node7</title>
<path fill="none" stroke="midnightblue" d="M482.5,-123.475C482.5,-115.08 482.5,-101.981 482.5,-91.1631"/>
<polygon fill="midnightblue" stroke="midnightblue" points="486,-91.0091 482.5,-81.0091 479,-91.0091 486,-91.0091"/>
</g>
<!-- Node1&#45;&gt;Node8 -->
<g id="edge12" class="edge"><title>Node1&#45;&gt;Node8</title>
<path fill="none" stroke="midnightblue" d="M439.231,-123.475C382.764,-112.35 284.36,-92.9625 226.553,-81.5734"/>
<polygon fill="midnightblue" stroke="midnightblue" points="227.086,-78.1111 216.598,-79.612 225.733,-84.9791 227.086,-78.1111"/>
</g>
<!-- Node14 -->
<g id="node15" class="node"><title>Node14</title>
<polygon fill="white" stroke="#bfbfbf" points="702.5,-56.5 702.5,-86.5 816.5,-86.5 816.5,-56.5 702.5,-56.5"/>
<text text-anchor="start" x="710.5" y="-74.5" font-family="Helvetica,sans-Serif" font-size="10.00">boost/msm/back/state</text>
<text text-anchor="middle" x="759.5" y="-63.5" font-family="Helvetica,sans-Serif" font-size="10.00">_machine.hpp</text>
</g>
<!-- Node1&#45;&gt;Node14 -->
<g id="edge19" class="edge"><title>Node1&#45;&gt;Node14</title>
<path fill="none" stroke="midnightblue" d="M522.373,-123.481C564.618,-114.449 633.268,-99.7557 692.5,-87 692.602,-86.9781 692.704,-86.9561 692.806,-86.9342"/>
<polygon fill="midnightblue" stroke="midnightblue" points="693.444,-90.3772 702.481,-84.8481 691.968,-83.5344 693.444,-90.3772"/>
</g>
<!-- Node15 -->
<g id="node16" class="node"><title>Node15</title>
<polygon fill="white" stroke="#bfbfbf" points="273,-56.5 273,-86.5 394,-86.5 394,-56.5 273,-56.5"/>
<text text-anchor="start" x="281" y="-74.5" font-family="Helvetica,sans-Serif" font-size="10.00">boost/msm/front/functor</text>
<text text-anchor="middle" x="333.5" y="-63.5" font-family="Helvetica,sans-Serif" font-size="10.00">_row.hpp</text>
</g>
<!-- Node1&#45;&gt;Node15 -->
<g id="edge20" class="edge"><title>Node1&#45;&gt;Node15</title>
<path fill="none" stroke="midnightblue" d="M461.152,-123.475C439.557,-114.852 405.531,-101.264 378.038,-90.2852"/>
<polygon fill="midnightblue" stroke="midnightblue" points="379.201,-86.9811 368.616,-86.523 376.605,-93.482 379.201,-86.9811"/>
</g>
<!-- Node16 -->
<g id="node17" class="node"><title>Node16</title>
<polygon fill="white" stroke="#bfbfbf" points="571,-56.5 571,-86.5 684,-86.5 684,-56.5 571,-56.5"/>
<text text-anchor="start" x="579" y="-74.5" font-family="Helvetica,sans-Serif" font-size="10.00">boost/msm/front/state</text>
<text text-anchor="middle" x="627.5" y="-63.5" font-family="Helvetica,sans-Serif" font-size="10.00">_machine_def.hpp</text>
</g>
<!-- Node1&#45;&gt;Node16 -->
<g id="edge21" class="edge"><title>Node1&#45;&gt;Node16</title>
<path fill="none" stroke="midnightblue" d="M503.275,-123.475C524.198,-114.889 557.114,-101.383 583.807,-90.4291"/>
<polygon fill="midnightblue" stroke="midnightblue" points="585.404,-93.5573 593.326,-86.523 582.746,-87.0813 585.404,-93.5573"/>
</g>
<!-- Node2&#45;&gt;Node3 -->
<g id="edge3" class="edge"><title>Node2&#45;&gt;Node3</title>
<path fill="none" stroke="midnightblue" d="M860.711,-61.9617C849.21,-59.936 836.919,-57.8327 825.5,-56 724.226,-39.7467 604.011,-23.1724 546.871,-15.4587"/>
<polygon fill="midnightblue" stroke="midnightblue" points="547.009,-11.9457 536.631,-14.0801 546.075,-18.8831 547.009,-11.9457"/>
</g>
<!-- Node4 -->
<g id="node5" class="node"><title>Node4</title>
<polygon fill="white" stroke="#bfbfbf" points="431,-0.5 431,-19.5 472,-19.5 472,-0.5 431,-0.5"/>
<text text-anchor="middle" x="451.5" y="-7.5" font-family="Helvetica,sans-Serif" font-size="10.00">string</text>
</g>
<!-- Node2&#45;&gt;Node4 -->
<g id="edge4" class="edge"><title>Node2&#45;&gt;Node4</title>
<path fill="none" stroke="midnightblue" d="M862.478,-61.9481C850.488,-59.8325 837.526,-57.6903 825.5,-56 676.543,-35.0625 634.04,-49.5645 482.191,-19.7402"/>
<polygon fill="midnightblue" stroke="midnightblue" points="482.52,-16.237 472.029,-17.7108 481.149,-23.1014 482.52,-16.237"/>
</g>
<!-- Node5 -->
<g id="node6" class="node"><title>Node5</title>
<polygon fill="white" stroke="#bfbfbf" points="652,-0.5 652,-19.5 743,-19.5 743,-0.5 652,-0.5"/>
<text text-anchor="middle" x="697.5" y="-7.5" font-family="Helvetica,sans-Serif" font-size="10.00">zmqpp/poller.hpp</text>
</g>
<!-- Node2&#45;&gt;Node5 -->
<g id="edge5" class="edge"><title>Node2&#45;&gt;Node5</title>
<path fill="none" stroke="midnightblue" d="M877.412,-61.9751C840.61,-51.5478 778.189,-33.8618 737.406,-22.3066"/>
<polygon fill="midnightblue" stroke="midnightblue" points="738.107,-18.8677 727.532,-19.5091 736.199,-25.6026 738.107,-18.8677"/>
</g>
<!-- Node6 -->
<g id="node7" class="node"><title>Node6</title>
<polygon fill="white" stroke="#bfbfbf" points="810,-0.5 810,-19.5 907,-19.5 907,-0.5 810,-0.5"/>
<text text-anchor="middle" x="858.5" y="-7.5" font-family="Helvetica,sans-Serif" font-size="10.00">zmqpp/socket.hpp</text>
</g>
<!-- Node2&#45;&gt;Node6 -->
<g id="edge6" class="edge"><title>Node2&#45;&gt;Node6</title>
<path fill="none" stroke="midnightblue" d="M900.479,-61.9751C893.057,-52.9617 881.167,-38.5246 871.933,-27.3118"/>
<polygon fill="midnightblue" stroke="midnightblue" points="874.566,-25.0034 865.507,-19.5091 869.163,-29.4534 874.566,-25.0034"/>
</g>
<!-- Node7&#45;&gt;Node3 -->
<g id="edge8" class="edge"><title>Node7&#45;&gt;Node3</title>
<path fill="none" stroke="midnightblue" d="M486.942,-61.9751C491.453,-53.3152 498.574,-39.6486 504.307,-28.6453"/>
<polygon fill="midnightblue" stroke="midnightblue" points="507.55,-29.9948 509.067,-19.5091 501.342,-26.7604 507.55,-29.9948"/>
</g>
<!-- Node7&#45;&gt;Node4 -->
<g id="edge9" class="edge"><title>Node7&#45;&gt;Node4</title>
<path fill="none" stroke="midnightblue" d="M478.058,-61.9751C473.547,-53.3152 466.426,-39.6486 460.693,-28.6453"/>
<polygon fill="midnightblue" stroke="midnightblue" points="463.658,-26.7604 455.933,-19.5091 457.45,-29.9948 463.658,-26.7604"/>
</g>
<!-- Node7&#45;&gt;Node5 -->
<g id="edge10" class="edge"><title>Node7&#45;&gt;Node5</title>
<path fill="none" stroke="midnightblue" d="M513.304,-61.9751C551.062,-51.5257 615.161,-33.7868 656.909,-22.2332"/>
<polygon fill="midnightblue" stroke="midnightblue" points="658.049,-25.5496 666.753,-19.5091 656.182,-18.8031 658.049,-25.5496"/>
</g>
<!-- Node7&#45;&gt;Node6 -->
<g id="edge11" class="edge"><title>Node7&#45;&gt;Node6</title>
<path fill="none" stroke="midnightblue" d="M527.576,-61.976C538.657,-59.9498 550.498,-57.8427 561.5,-56 644.035,-42.1763 739.794,-28.0018 799.77,-19.3477"/>
<polygon fill="midnightblue" stroke="midnightblue" points="800.411,-22.7916 809.81,-17.9023 799.414,-15.863 800.411,-22.7916"/>
</g>
<!-- Node8&#45;&gt;Node4 -->
<g id="edge18" class="edge"><title>Node8&#45;&gt;Node4</title>
<path fill="none" stroke="midnightblue" d="M208.423,-61.9672C215.588,-59.8978 223.304,-57.773 230.5,-56 297.968,-39.3775 378.096,-24.1765 420.911,-16.414"/>
<polygon fill="midnightblue" stroke="midnightblue" points="421.74,-19.821 430.962,-14.6044 420.5,-12.9318 421.74,-19.821"/>
</g>
<!-- Node9 -->
<g id="node10" class="node"><title>Node9</title>
<polygon fill="white" stroke="#bfbfbf" points="312,-0.5 312,-19.5 361,-19.5 361,-0.5 312,-0.5"/>
<text text-anchor="middle" x="336.5" y="-7.5" font-family="Helvetica,sans-Serif" font-size="10.00">cassert</text>
</g>
<!-- Node8&#45;&gt;Node9 -->
<g id="edge13" class="edge"><title>Node8&#45;&gt;Node9</title>
<path fill="none" stroke="midnightblue" d="M202.851,-61.9751C229.495,-51.8129 274.214,-34.7564 304.514,-23.1996"/>
<polygon fill="midnightblue" stroke="midnightblue" points="306.094,-26.343 314.19,-19.5091 303.6,-19.8026 306.094,-26.343"/>
</g>
<!-- Node10 -->
<g id="node11" class="node"><title>Node10</title>
<polygon fill="white" stroke="#bfbfbf" points="0,-0.5 0,-19.5 47,-19.5 47,-0.5 0,-0.5"/>
<text text-anchor="middle" x="23.5" y="-7.5" font-family="Helvetica,sans-Serif" font-size="10.00">csignal</text>
</g>
<!-- Node8&#45;&gt;Node10 -->
<g id="edge14" class="edge"><title>Node8&#45;&gt;Node10</title>
<path fill="none" stroke="midnightblue" d="M158.006,-61.9751C131.191,-51.8129 86.185,-34.7564 55.6906,-23.1996"/>
<polygon fill="midnightblue" stroke="midnightblue" points="56.5439,-19.7801 45.9525,-19.5091 54.0632,-26.3258 56.5439,-19.7801"/>
</g>
<!-- Node11 -->
<g id="node12" class="node"><title>Node11</title>
<polygon fill="white" stroke="#bfbfbf" points="65.5,-0.5 65.5,-19.5 119.5,-19.5 119.5,-0.5 65.5,-0.5"/>
<text text-anchor="middle" x="92.5" y="-7.5" font-family="Helvetica,sans-Serif" font-size="10.00">iostream</text>
</g>
<!-- Node8&#45;&gt;Node11 -->
<g id="edge15" class="edge"><title>Node8&#45;&gt;Node11</title>
<path fill="none" stroke="midnightblue" d="M167.892,-61.9751C153.777,-52.4315 130.669,-36.8073 113.751,-25.3683"/>
<polygon fill="midnightblue" stroke="midnightblue" points="115.329,-22.2109 105.085,-19.5091 111.409,-28.0098 115.329,-22.2109"/>
</g>
<!-- Node12 -->
<g id="node13" class="node"><title>Node12</title>
<polygon fill="white" stroke="#bfbfbf" points="138,-0.5 138,-19.5 223,-19.5 223,-0.5 138,-0.5"/>
<text text-anchor="middle" x="180.5" y="-7.5" font-family="Helvetica,sans-Serif" font-size="10.00">spdlog/spdlog.h</text>
</g>
<!-- Node8&#45;&gt;Node12 -->
<g id="edge16" class="edge"><title>Node8&#45;&gt;Node12</title>
<path fill="none" stroke="midnightblue" d="M180.5,-61.9751C180.5,-53.5803 180.5,-40.4806 180.5,-29.6631"/>
<polygon fill="midnightblue" stroke="midnightblue" points="184,-29.5091 180.5,-19.5091 177,-29.5091 184,-29.5091"/>
</g>
<!-- Node13 -->
<g id="node14" class="node"><title>Node13</title>
<polygon fill="white" stroke="#bfbfbf" points="241.5,-0.5 241.5,-19.5 293.5,-19.5 293.5,-0.5 241.5,-0.5"/>
<text text-anchor="middle" x="267.5" y="-7.5" font-family="Helvetica,sans-Serif" font-size="10.00">sstream</text>
</g>
<!-- Node8&#45;&gt;Node13 -->
<g id="edge17" class="edge"><title>Node8&#45;&gt;Node13</title>
<path fill="none" stroke="midnightblue" d="M192.965,-61.9751C206.919,-52.4315 229.765,-36.8073 246.491,-25.3683"/>
<polygon fill="midnightblue" stroke="midnightblue" points="248.78,-28.0433 255.058,-19.5091 244.828,-22.2653 248.78,-28.0433"/>
</g>
</g>
</svg>
