<?xml version="1.0" encoding="UTF-8" standalone="no"?>
<!DOCTYPE svg PUBLIC "-//W3C//DTD SVG 1.1//EN"
 "http://www.w3.org/Graphics/SVG/1.1/DTD/svg11.dtd">
<!-- Generated by graphviz version 2.38.0 (20140413.2041)
 -->
<!-- Title: src/core/audit/WSAPICall.hpp Pages: 1 -->
<svg width="1094pt" height="431pt"
 viewBox="0.00 0.00 1094.26 431.00" xmlns="http://www.w3.org/2000/svg" xmlns:xlink="http://www.w3.org/1999/xlink">
<g id="graph0" class="graph" transform="scale(1 1) rotate(0) translate(4 427)">
<title>src/core/audit/WSAPICall.hpp</title>
<polygon fill="white" stroke="none" points="-4,4 -4,-427 1090.26,-427 1090.26,4 -4,4"/>
<!-- Node0 -->
<g id="node1" class="node"><title>Node0</title>
<polygon fill="#bfbfbf" stroke="black" points="190.763,-403.5 190.763,-422.5 338.763,-422.5 338.763,-403.5 190.763,-403.5"/>
<text text-anchor="middle" x="264.763" y="-410.5" font-family="Helvetica,sans-Serif" font-size="10.00">src/core/audit/WSAPICall.hpp</text>
</g>
<!-- Node1 -->
<g id="node2" class="node"><title>Node1</title>
<g id="a_node2"><a xlink:href="../../d4/d93/AuditEntry_8hpp.html" target="_top" xlink:title="AuditEntry.hpp">
<polygon fill="white" stroke="black" points="526.263,-347.5 526.263,-366.5 607.263,-366.5 607.263,-347.5 526.263,-347.5"/>
<text text-anchor="middle" x="566.763" y="-354.5" font-family="Helvetica,sans-Serif" font-size="10.00">AuditEntry.hpp</text>
</a>
</g>
</g>
<!-- Node0&#45;&gt;Node1 -->
<g id="edge1" class="edge"><title>Node0&#45;&gt;Node1</title>
<path fill="none" stroke="midnightblue" d="M312.616,-403.444C368.043,-393.533 458.988,-377.271 515.732,-367.125"/>
<polygon fill="midnightblue" stroke="midnightblue" points="516.686,-370.51 525.913,-365.304 515.453,-363.619 516.686,-370.51"/>
</g>
<!-- Node28 -->
<g id="node29" class="node"><title>Node28</title>
<g id="a_node29"><a xlink:href="../../dd/dd8/IWSAPICall_8hpp.html" target="_top" xlink:title="core/audit/IWSAPICall.hpp">
<polygon fill="white" stroke="black" points="67.7627,-235.5 67.7627,-254.5 201.763,-254.5 201.763,-235.5 67.7627,-235.5"/>
<text text-anchor="middle" x="134.763" y="-242.5" font-family="Helvetica,sans-Serif" font-size="10.00">core/audit/IWSAPICall.hpp</text>
</a>
</g>
</g>
<!-- Node0&#45;&gt;Node28 -->
<g id="edge46" class="edge"><title>Node0&#45;&gt;Node28</title>
<path fill="none" stroke="midnightblue" d="M257.773,-403.075C236.956,-376.493 175.124,-297.538 147.891,-262.763"/>
<polygon fill="midnightblue" stroke="midnightblue" points="150.394,-260.283 141.473,-254.568 144.883,-264.599 150.394,-260.283"/>
</g>
<!-- Node2 -->
<g id="node3" class="node"><title>Node2</title>
<g id="a_node3"><a xlink:href="../../d7/dcf/AuditFwd_8hpp.html" target="_top" xlink:title="core/audit/AuditFwd.hpp">
<polygon fill="white" stroke="black" points="803.763,-118 803.763,-137 925.763,-137 925.763,-118 803.763,-118"/>
<text text-anchor="middle" x="864.763" y="-125" font-family="Helvetica,sans-Serif" font-size="10.00">core/audit/AuditFwd.hpp</text>
</a>
</g>
</g>
<!-- Node1&#45;&gt;Node2 -->
<g id="edge2" class="edge"><title>Node1&#45;&gt;Node2</title>
<path fill="none" stroke="midnightblue" d="M607.505,-353.746C686.89,-348.859 859.196,-335.694 912.763,-311 952.35,-292.75 991.77,-275.137 974.763,-235 957.23,-193.621 914.879,-160.447 888.137,-142.688"/>
<polygon fill="midnightblue" stroke="midnightblue" points="889.698,-139.53 879.395,-137.061 885.909,-145.416 889.698,-139.53"/>
</g>
<!-- Node5 -->
<g id="node6" class="node"><title>Node5</title>
<polygon fill="white" stroke="#bfbfbf" points="352.763,-56.5 352.763,-75.5 404.763,-75.5 404.763,-56.5 352.763,-56.5"/>
<text text-anchor="middle" x="378.763" y="-63.5" font-family="Helvetica,sans-Serif" font-size="10.00">memory</text>
</g>
<!-- Node1&#45;&gt;Node5 -->
<g id="edge43" class="edge"><title>Node1&#45;&gt;Node5</title>
<path fill="none" stroke="midnightblue" d="M526.129,-356.723C396.58,-357.953 1.76271,-352.927 1.76271,-246 1.76271,-246 1.76271,-246 1.76271,-188 1.76271,-153.183 -5.28812,-135.1 20.7627,-112 67.805,-70.2866 261.193,-66.322 342.494,-66.5541"/>
<polygon fill="midnightblue" stroke="midnightblue" points="342.725,-70.0553 352.743,-66.6077 342.762,-63.0554 342.725,-70.0553"/>
</g>
<!-- Node7 -->
<g id="node8" class="node"><title>Node7</title>
<g id="a_node8"><a xlink:href="../../d3/dd8/IAuditEntry_8hpp.html" target="_top" xlink:title="core/audit/IAuditEntry.hpp">
<polygon fill="white" stroke="black" points="523.763,-179.5 523.763,-198.5 653.763,-198.5 653.763,-179.5 523.763,-179.5"/>
<text text-anchor="middle" x="588.763" y="-186.5" font-family="Helvetica,sans-Serif" font-size="10.00">core/audit/IAuditEntry.hpp</text>
</a>
</g>
</g>
<!-- Node1&#45;&gt;Node7 -->
<g id="edge7" class="edge"><title>Node1&#45;&gt;Node7</title>
<path fill="none" stroke="midnightblue" d="M607.275,-351.487C696.243,-340.634 903.951,-309.831 943.763,-255 948.985,-247.807 949.64,-241.669 943.763,-235 925.589,-214.377 762.865,-200.761 664.148,-194.32"/>
<polygon fill="midnightblue" stroke="midnightblue" points="664.121,-190.812 653.917,-193.664 663.672,-197.797 664.121,-190.812"/>
</g>
<!-- Node8 -->
<g id="node9" class="node"><title>Node8</title>
<g id="a_node9"><a xlink:href="../../d3/d6f/AuthFwd_8hpp.html" target="_top" xlink:title="core/auth/AuthFwd.hpp">
<polygon fill="white" stroke="black" points="667.763,-118 667.763,-137 785.763,-137 785.763,-118 667.763,-118"/>
<text text-anchor="middle" x="726.763" y="-125" font-family="Helvetica,sans-Serif" font-size="10.00">core/auth/AuthFwd.hpp</text>
</a>
</g>
</g>
<!-- Node1&#45;&gt;Node8 -->
<g id="edge19" class="edge"><title>Node1&#45;&gt;Node8</title>
<path fill="none" stroke="midnightblue" d="M607.731,-355.434C667.751,-353.408 782.27,-344.955 872.763,-311 915.816,-294.845 937.739,-295.367 959.763,-255 964.02,-247.197 964.567,-242.479 959.763,-235 937.435,-200.245 824.836,-159.855 764.722,-140.305"/>
<polygon fill="midnightblue" stroke="midnightblue" points="765.436,-136.858 754.844,-137.127 763.291,-143.522 765.436,-136.858"/>
</g>
<!-- Node13 -->
<g id="node14" class="node"><title>Node13</title>
<polygon fill="white" stroke="#bfbfbf" points="30.2627,-112.5 30.2627,-142.5 143.263,-142.5 143.263,-112.5 30.2627,-112.5"/>
<text text-anchor="start" x="38.2627" y="-130.5" font-family="Helvetica,sans-Serif" font-size="10.00">boost/date_time/posix</text>
<text text-anchor="middle" x="86.7627" y="-119.5" font-family="Helvetica,sans-Serif" font-size="10.00">_time/posix_time.hpp</text>
</g>
<!-- Node1&#45;&gt;Node13 -->
<g id="edge42" class="edge"><title>Node1&#45;&gt;Node13</title>
<path fill="none" stroke="midnightblue" d="M525.957,-354.762C415.026,-350.403 112.636,-331.578 58.7627,-255 36.8816,-223.897 56.1139,-178.703 71.6992,-151.595"/>
<polygon fill="midnightblue" stroke="midnightblue" points="74.8266,-153.186 76.9864,-142.814 68.8297,-149.576 74.8266,-153.186"/>
</g>
<!-- Node14 -->
<g id="node15" class="node"><title>Node14</title>
<g id="a_node15"><a xlink:href="../../d6/d65/ElapsedTimeCounter_8hpp.html" target="_top" xlink:title="tools/ElapsedTimeCounter.hpp">
<polygon fill="white" stroke="black" points="224.263,-291.5 224.263,-310.5 375.263,-310.5 375.263,-291.5 224.263,-291.5"/>
<text text-anchor="middle" x="299.763" y="-298.5" font-family="Helvetica,sans-Serif" font-size="10.00">tools/ElapsedTimeCounter.hpp</text>
</a>
</g>
</g>
<!-- Node1&#45;&gt;Node14 -->
<g id="edge20" class="edge"><title>Node1&#45;&gt;Node14</title>
<path fill="none" stroke="midnightblue" d="M526.211,-347.799C479.574,-338.366 402.893,-322.858 351.868,-312.538"/>
<polygon fill="midnightblue" stroke="midnightblue" points="352.517,-309.099 342.021,-310.547 351.129,-315.96 352.517,-309.099"/>
</g>
<!-- Node16 -->
<g id="node17" class="node"><title>Node16</title>
<g id="a_node17"><a xlink:href="../../df/da2/database_8hpp.html" target="_top" xlink:title="tools/db/database.hpp">
<polygon fill="white" stroke="black" points="450.263,-291.5 450.263,-310.5 563.263,-310.5 563.263,-291.5 450.263,-291.5"/>
<text text-anchor="middle" x="506.763" y="-298.5" font-family="Helvetica,sans-Serif" font-size="10.00">tools/db/database.hpp</text>
</a>
</g>
</g>
<!-- Node1&#45;&gt;Node16 -->
<g id="edge22" class="edge"><title>Node1&#45;&gt;Node16</title>
<path fill="none" stroke="midnightblue" d="M557.123,-347.324C548.253,-339.341 534.888,-327.313 524.155,-317.653"/>
<polygon fill="midnightblue" stroke="midnightblue" points="526.353,-314.922 516.578,-310.834 521.67,-320.125 526.353,-314.922"/>
</g>
<!-- Node26 -->
<g id="node27" class="node"><title>Node26</title>
<polygon fill="white" stroke="#bfbfbf" points="581.763,-291.5 581.763,-310.5 671.763,-310.5 671.763,-291.5 581.763,-291.5"/>
<text text-anchor="middle" x="626.763" y="-298.5" font-family="Helvetica,sans-Serif" font-size="10.00">odb/callback.hxx</text>
</g>
<!-- Node1&#45;&gt;Node26 -->
<g id="edge44" class="edge"><title>Node1&#45;&gt;Node26</title>
<path fill="none" stroke="midnightblue" d="M576.403,-347.324C585.272,-339.341 598.637,-327.313 609.371,-317.653"/>
<polygon fill="midnightblue" stroke="midnightblue" points="611.856,-320.125 616.947,-310.834 607.173,-314.922 611.856,-320.125"/>
</g>
<!-- Node27 -->
<g id="node28" class="node"><title>Node27</title>
<polygon fill="white" stroke="#bfbfbf" points="690.263,-291.5 690.263,-310.5 763.263,-310.5 763.263,-291.5 690.263,-291.5"/>
<text text-anchor="middle" x="726.763" y="-298.5" font-family="Helvetica,sans-Serif" font-size="10.00">odb/core.hxx</text>
</g>
<!-- Node1&#45;&gt;Node27 -->
<g id="edge45" class="edge"><title>Node1&#45;&gt;Node27</title>
<path fill="none" stroke="midnightblue" d="M592.115,-347.444C619.032,-338.359 661.759,-323.939 691.85,-313.783"/>
<polygon fill="midnightblue" stroke="midnightblue" points="693.173,-317.031 701.529,-310.516 690.935,-310.398 693.173,-317.031"/>
</g>
<!-- Node3 -->
<g id="node4" class="node"><title>Node3</title>
<polygon fill="white" stroke="#bfbfbf" points="733.263,-56.5 733.263,-75.5 782.263,-75.5 782.263,-56.5 733.263,-56.5"/>
<text text-anchor="middle" x="757.763" y="-63.5" font-family="Helvetica,sans-Serif" font-size="10.00">cstddef</text>
</g>
<!-- Node2&#45;&gt;Node3 -->
<g id="edge3" class="edge"><title>Node2&#45;&gt;Node3</title>
<path fill="none" stroke="midnightblue" d="M849.432,-117.975C831.793,-108.166 802.603,-91.9346 781.905,-80.425"/>
<polygon fill="midnightblue" stroke="midnightblue" points="783.505,-77.3102 773.065,-75.5091 780.103,-83.4279 783.505,-77.3102"/>
</g>
<!-- Node4 -->
<g id="node5" class="node"><title>Node4</title>
<polygon fill="white" stroke="#bfbfbf" points="832.263,-56.5 832.263,-75.5 897.263,-75.5 897.263,-56.5 832.263,-56.5"/>
<text text-anchor="middle" x="864.763" y="-63.5" font-family="Helvetica,sans-Serif" font-size="10.00">flagset.hpp</text>
</g>
<!-- Node2&#45;&gt;Node4 -->
<g id="edge4" class="edge"><title>Node2&#45;&gt;Node4</title>
<path fill="none" stroke="midnightblue" d="M864.763,-117.975C864.763,-109.58 864.763,-96.4806 864.763,-85.6631"/>
<polygon fill="midnightblue" stroke="midnightblue" points="868.263,-85.5091 864.763,-75.5091 861.263,-85.5091 868.263,-85.5091"/>
</g>
<!-- Node2&#45;&gt;Node5 -->
<g id="edge5" class="edge"><title>Node2&#45;&gt;Node5</title>
<path fill="none" stroke="midnightblue" d="M826.738,-117.928C816.402,-115.788 805.184,-113.639 794.763,-112 655.232,-90.0543 487.675,-75.4858 415.157,-69.7481"/>
<polygon fill="midnightblue" stroke="midnightblue" points="415.404,-66.2568 405.162,-68.9658 414.858,-73.2355 415.404,-66.2568"/>
</g>
<!-- Node6 -->
<g id="node7" class="node"><title>Node6</title>
<polygon fill="white" stroke="#bfbfbf" points="539.763,-56.5 539.763,-75.5 625.763,-75.5 625.763,-56.5 539.763,-56.5"/>
<text text-anchor="middle" x="582.763" y="-63.5" font-family="Helvetica,sans-Serif" font-size="10.00">odb/lazy&#45;ptr.hxx</text>
</g>
<!-- Node2&#45;&gt;Node6 -->
<g id="edge6" class="edge"><title>Node2&#45;&gt;Node6</title>
<path fill="none" stroke="midnightblue" d="M824.359,-117.975C773.892,-107.327 687.549,-89.1092 632.909,-77.5806"/>
<polygon fill="midnightblue" stroke="midnightblue" points="633.599,-74.149 623.091,-75.5091 632.153,-80.9982 633.599,-74.149"/>
</g>
<!-- Node7&#45;&gt;Node2 -->
<g id="edge8" class="edge"><title>Node7&#45;&gt;Node2</title>
<path fill="none" stroke="midnightblue" d="M628.307,-179.475C677.598,-168.849 761.855,-150.685 815.35,-139.152"/>
<polygon fill="midnightblue" stroke="midnightblue" points="816.254,-142.538 825.292,-137.009 814.779,-135.695 816.254,-142.538"/>
</g>
<!-- Node7&#45;&gt;Node5 -->
<g id="edge18" class="edge"><title>Node7&#45;&gt;Node5</title>
<path fill="none" stroke="midnightblue" d="M523.733,-184.9C460.419,-180.357 370.625,-169.342 348.763,-143 334.26,-125.525 349.628,-100.184 363.179,-83.6498"/>
<polygon fill="midnightblue" stroke="midnightblue" points="366.005,-85.7346 369.932,-75.8944 360.726,-81.1378 366.005,-85.7346"/>
</g>
<!-- Node7&#45;&gt;Node8 -->
<g id="edge9" class="edge"><title>Node7&#45;&gt;Node8</title>
<path fill="none" stroke="midnightblue" d="M608.535,-179.475C631.899,-169.401 670.977,-152.553 697.766,-141.002"/>
<polygon fill="midnightblue" stroke="midnightblue" points="699.23,-144.182 707.027,-137.009 696.459,-137.754 699.23,-144.182"/>
</g>
<!-- Node9 -->
<g id="node10" class="node"><title>Node9</title>
<g id="a_node10"><a xlink:href="../../dd/d9d/IVisitable_8hpp.html" target="_top" xlink:title="tools/IVisitable.hpp">
<polygon fill="white" stroke="black" points="943.763,-118 943.763,-137 1043.76,-137 1043.76,-118 943.763,-118"/>
<text text-anchor="middle" x="993.763" y="-125" font-family="Helvetica,sans-Serif" font-size="10.00">tools/IVisitable.hpp</text>
</a>
</g>
</g>
<!-- Node7&#45;&gt;Node9 -->
<g id="edge13" class="edge"><title>Node7&#45;&gt;Node9</title>
<path fill="none" stroke="midnightblue" d="M653.829,-181.729C723.629,-174.492 837.564,-161.206 934.763,-143 940.27,-141.968 946.033,-140.74 951.708,-139.442"/>
<polygon fill="midnightblue" stroke="midnightblue" points="952.832,-142.773 961.753,-137.056 951.214,-135.962 952.832,-142.773"/>
</g>
<!-- Node7&#45;&gt;Node13 -->
<g id="edge17" class="edge"><title>Node7&#45;&gt;Node13</title>
<path fill="none" stroke="midnightblue" d="M523.552,-181.152C444.669,-172.746 307.873,-157.782 190.763,-143 178.752,-141.484 165.974,-139.779 153.636,-138.085"/>
<polygon fill="midnightblue" stroke="midnightblue" points="153.787,-134.572 143.402,-136.668 152.828,-141.506 153.787,-134.572"/>
</g>
<!-- Node8&#45;&gt;Node3 -->
<g id="edge10" class="edge"><title>Node8&#45;&gt;Node3</title>
<path fill="none" stroke="midnightblue" d="M731.204,-117.975C735.716,-109.315 742.837,-95.6486 748.569,-84.6453"/>
<polygon fill="midnightblue" stroke="midnightblue" points="751.813,-85.9948 753.329,-75.5091 745.605,-82.7604 751.813,-85.9948"/>
</g>
<!-- Node8&#45;&gt;Node5 -->
<g id="edge11" class="edge"><title>Node8&#45;&gt;Node5</title>
<path fill="none" stroke="midnightblue" d="M687.781,-117.973C677.999,-115.925 667.511,-113.809 657.763,-112 570.931,-95.8832 468.273,-80.1833 414.973,-72.282"/>
<polygon fill="midnightblue" stroke="midnightblue" points="415.394,-68.8063 404.99,-70.8079 414.372,-75.7312 415.394,-68.8063"/>
</g>
<!-- Node8&#45;&gt;Node6 -->
<g id="edge12" class="edge"><title>Node8&#45;&gt;Node6</title>
<path fill="none" stroke="midnightblue" d="M706.131,-117.975C681.644,-107.857 640.616,-90.9046 612.653,-79.3507"/>
<polygon fill="midnightblue" stroke="midnightblue" points="613.935,-76.0932 603.356,-75.5091 611.262,-82.5627 613.935,-76.0932"/>
</g>
<!-- Node10 -->
<g id="node11" class="node"><title>Node10</title>
<g id="a_node11"><a xlink:href="../../d2/d91/Visitor_8hpp.html" target="_top" xlink:title="tools/Visitor.hpp">
<polygon fill="white" stroke="black" points="932.263,-56.5 932.263,-75.5 1019.26,-75.5 1019.26,-56.5 932.263,-56.5"/>
<text text-anchor="middle" x="975.763" y="-63.5" font-family="Helvetica,sans-Serif" font-size="10.00">tools/Visitor.hpp</text>
</a>
</g>
</g>
<!-- Node9&#45;&gt;Node10 -->
<g id="edge14" class="edge"><title>Node9&#45;&gt;Node10</title>
<path fill="none" stroke="midnightblue" d="M991.184,-117.975C988.617,-109.492 984.598,-96.2043 981.306,-85.3222"/>
<polygon fill="midnightblue" stroke="midnightblue" points="984.583,-84.0672 978.337,-75.5091 977.883,-86.0942 984.583,-84.0672"/>
</g>
<!-- Node12 -->
<g id="node13" class="node"><title>Node12</title>
<polygon fill="white" stroke="#bfbfbf" points="1037.26,-56.5 1037.26,-75.5 1086.26,-75.5 1086.26,-56.5 1037.26,-56.5"/>
<text text-anchor="middle" x="1061.76" y="-63.5" font-family="Helvetica,sans-Serif" font-size="10.00">cassert</text>
</g>
<!-- Node9&#45;&gt;Node12 -->
<g id="edge16" class="edge"><title>Node9&#45;&gt;Node12</title>
<path fill="none" stroke="midnightblue" d="M1003.51,-117.975C1014.11,-108.697 1031.28,-93.6706 1044.24,-82.331"/>
<polygon fill="midnightblue" stroke="midnightblue" points="1046.82,-84.7282 1052.04,-75.5091 1042.21,-79.4601 1046.82,-84.7282"/>
</g>
<!-- Node11 -->
<g id="node12" class="node"><title>Node11</title>
<polygon fill="white" stroke="#bfbfbf" points="944.763,-0.5 944.763,-19.5 1006.76,-19.5 1006.76,-0.5 944.763,-0.5"/>
<text text-anchor="middle" x="975.763" y="-7.5" font-family="Helvetica,sans-Serif" font-size="10.00">type_traits</text>
</g>
<!-- Node10&#45;&gt;Node11 -->
<g id="edge15" class="edge"><title>Node10&#45;&gt;Node11</title>
<path fill="none" stroke="midnightblue" d="M975.763,-56.083C975.763,-49.0059 975.763,-38.8611 975.763,-29.9865"/>
<polygon fill="midnightblue" stroke="midnightblue" points="979.263,-29.751 975.763,-19.7511 972.263,-29.7511 979.263,-29.751"/>
</g>
<!-- Node15 -->
<g id="node16" class="node"><title>Node15</title>
<polygon fill="white" stroke="#bfbfbf" points="219.763,-235.5 219.763,-254.5 265.763,-254.5 265.763,-235.5 219.763,-235.5"/>
<text text-anchor="middle" x="242.763" y="-242.5" font-family="Helvetica,sans-Serif" font-size="10.00">chrono</text>
</g>
<!-- Node14&#45;&gt;Node15 -->
<g id="edge21" class="edge"><title>Node14&#45;&gt;Node15</title>
<path fill="none" stroke="midnightblue" d="M290.605,-291.324C282.261,-283.42 269.73,-271.548 259.586,-261.938"/>
<polygon fill="midnightblue" stroke="midnightblue" points="261.754,-259.171 252.087,-254.834 256.94,-264.252 261.754,-259.171"/>
</g>
<!-- Node17 -->
<g id="node18" class="node"><title>Node17</title>
<g id="a_node18"><a xlink:href="../../d9/d69/db__fwd_8hpp.html" target="_top" xlink:title="db_fwd.hpp">
<polygon fill="white" stroke="black" points="232.263,-179.5 232.263,-198.5 299.263,-198.5 299.263,-179.5 232.263,-179.5"/>
<text text-anchor="middle" x="265.763" y="-186.5" font-family="Helvetica,sans-Serif" font-size="10.00">db_fwd.hpp</text>
</a>
</g>
</g>
<!-- Node16&#45;&gt;Node17 -->
<g id="edge23" class="edge"><title>Node16&#45;&gt;Node17</title>
<path fill="none" stroke="midnightblue" d="M449.943,-297.338C408.875,-293.04 353.658,-282.166 312.763,-255 295.233,-243.355 282.021,-222.807 274.137,-207.926"/>
<polygon fill="midnightblue" stroke="midnightblue" points="277.137,-206.096 269.544,-198.707 270.871,-209.219 277.137,-206.096"/>
</g>
<!-- Node18 -->
<g id="node19" class="node"><title>Node18</title>
<polygon fill="white" stroke="#bfbfbf" points="459.763,-235.5 459.763,-254.5 553.763,-254.5 553.763,-235.5 459.763,-235.5"/>
<text text-anchor="middle" x="506.763" y="-242.5" font-family="Helvetica,sans-Serif" font-size="10.00">odb/database.hxx</text>
</g>
<!-- Node16&#45;&gt;Node18 -->
<g id="edge25" class="edge"><title>Node16&#45;&gt;Node18</title>
<path fill="none" stroke="midnightblue" d="M506.763,-291.083C506.763,-284.006 506.763,-273.861 506.763,-264.986"/>
<polygon fill="midnightblue" stroke="midnightblue" points="510.263,-264.751 506.763,-254.751 503.263,-264.751 510.263,-264.751"/>
</g>
<!-- Node19 -->
<g id="node20" class="node"><title>Node19</title>
<polygon fill="white" stroke="#bfbfbf" points="571.763,-235.5 571.763,-254.5 673.763,-254.5 673.763,-235.5 571.763,-235.5"/>
<text text-anchor="middle" x="622.763" y="-242.5" font-family="Helvetica,sans-Serif" font-size="10.00">odb/transaction.hxx</text>
</g>
<!-- Node16&#45;&gt;Node19 -->
<g id="edge26" class="edge"><title>Node16&#45;&gt;Node19</title>
<path fill="none" stroke="midnightblue" d="M525.143,-291.444C543.979,-282.675 573.494,-268.935 595.142,-258.858"/>
<polygon fill="midnightblue" stroke="midnightblue" points="596.879,-261.91 604.468,-254.516 593.925,-255.564 596.879,-261.91"/>
</g>
<!-- Node20 -->
<g id="node21" class="node"><title>Node20</title>
<g id="a_node21"><a xlink:href="../../d0/dee/DBService_8hpp.html" target="_top" xlink:title="tools/db/DBService.hpp">
<polygon fill="white" stroke="black" points="321.763,-235.5 321.763,-254.5 441.763,-254.5 441.763,-235.5 321.763,-235.5"/>
<text text-anchor="middle" x="381.763" y="-242.5" font-family="Helvetica,sans-Serif" font-size="10.00">tools/db/DBService.hpp</text>
</a>
</g>
</g>
<!-- Node16&#45;&gt;Node20 -->
<g id="edge27" class="edge"><title>Node16&#45;&gt;Node20</title>
<path fill="none" stroke="midnightblue" d="M486.956,-291.444C466.476,-282.596 434.28,-268.687 410.898,-258.586"/>
<polygon fill="midnightblue" stroke="midnightblue" points="412.045,-255.269 401.477,-254.516 409.269,-261.695 412.045,-255.269"/>
</g>
<!-- Node24 -->
<g id="node25" class="node"><title>Node24</title>
<polygon fill="white" stroke="#bfbfbf" points="692.263,-235.5 692.263,-254.5 793.263,-254.5 793.263,-235.5 692.263,-235.5"/>
<text text-anchor="middle" x="742.763" y="-242.5" font-family="Helvetica,sans-Serif" font-size="10.00">odb/connection.hxx</text>
</g>
<!-- Node16&#45;&gt;Node24 -->
<g id="edge40" class="edge"><title>Node16&#45;&gt;Node24</title>
<path fill="none" stroke="midnightblue" d="M544.158,-291.444C585.155,-282.063 651.017,-266.993 695.547,-256.804"/>
<polygon fill="midnightblue" stroke="midnightblue" points="696.575,-260.159 705.543,-254.516 695.014,-253.335 696.575,-260.159"/>
</g>
<!-- Node25 -->
<g id="node26" class="node"><title>Node25</title>
<polygon fill="white" stroke="#bfbfbf" points="811.263,-235.5 811.263,-254.5 934.263,-254.5 934.263,-235.5 811.263,-235.5"/>
<text text-anchor="middle" x="872.763" y="-242.5" font-family="Helvetica,sans-Serif" font-size="10.00">odb/schema&#45;catalog.hxx</text>
</g>
<!-- Node16&#45;&gt;Node25 -->
<g id="edge41" class="edge"><title>Node16&#45;&gt;Node25</title>
<path fill="none" stroke="midnightblue" d="M563.549,-291.622C628.712,-282.008 735.503,-266.251 804.968,-256.003"/>
<polygon fill="midnightblue" stroke="midnightblue" points="805.555,-259.454 814.937,-254.532 804.533,-252.529 805.555,-259.454"/>
</g>
<!-- Node17&#45;&gt;Node5 -->
<g id="edge24" class="edge"><title>Node17&#45;&gt;Node5</title>
<path fill="none" stroke="midnightblue" d="M238.481,-179.453C221.469,-172.548 200.938,-160.971 190.763,-143 183.974,-131.011 182.229,-122.817 190.763,-112 209.257,-88.557 292.873,-75.9622 342.145,-70.4612"/>
<polygon fill="midnightblue" stroke="midnightblue" points="342.826,-73.9083 352.397,-69.3633 342.081,-66.9481 342.826,-73.9083"/>
</g>
<!-- Node20&#45;&gt;Node7 -->
<g id="edge28" class="edge"><title>Node20&#45;&gt;Node7</title>
<path fill="none" stroke="midnightblue" d="M414.562,-235.444C450.143,-226.162 507.077,-211.309 546.109,-201.127"/>
<polygon fill="midnightblue" stroke="midnightblue" points="547.324,-204.427 556.116,-198.516 545.557,-197.654 547.324,-204.427"/>
</g>
<!-- Node20&#45;&gt;Node8 -->
<g id="edge29" class="edge"><title>Node20&#45;&gt;Node8</title>
<path fill="none" stroke="midnightblue" d="M441.433,-235.471C521.02,-223.945 653.096,-204.234 662.763,-199 685.851,-186.499 704.926,-162.373 716.079,-145.858"/>
<polygon fill="midnightblue" stroke="midnightblue" points="719.213,-147.458 721.702,-137.16 713.334,-143.658 719.213,-147.458"/>
</g>
<!-- Node20&#45;&gt;Node17 -->
<g id="edge39" class="edge"><title>Node20&#45;&gt;Node17</title>
<path fill="none" stroke="midnightblue" d="M363.382,-235.444C344.546,-226.675 315.031,-212.935 293.383,-202.858"/>
<polygon fill="midnightblue" stroke="midnightblue" points="294.6,-199.564 284.057,-198.516 291.646,-205.91 294.6,-199.564"/>
</g>
<!-- Node21 -->
<g id="node22" class="node"><title>Node21</title>
<g id="a_node22"><a xlink:href="../../d7/d7f/CredentialFwd_8hpp.html" target="_top" xlink:title="core/credentials/Credential\lFwd.hpp">
<polygon fill="white" stroke="black" points="516.263,-112.5 516.263,-142.5 649.263,-142.5 649.263,-112.5 516.263,-112.5"/>
<text text-anchor="start" x="524.263" y="-130.5" font-family="Helvetica,sans-Serif" font-size="10.00">core/credentials/Credential</text>
<text text-anchor="middle" x="582.763" y="-119.5" font-family="Helvetica,sans-Serif" font-size="10.00">Fwd.hpp</text>
</a>
</g>
</g>
<!-- Node20&#45;&gt;Node21 -->
<g id="edge30" class="edge"><title>Node20&#45;&gt;Node21</title>
<path fill="none" stroke="midnightblue" d="M396.87,-235.319C429.089,-216.805 505.207,-173.066 549.401,-147.67"/>
<polygon fill="midnightblue" stroke="midnightblue" points="551.394,-150.562 558.32,-142.545 547.906,-144.493 551.394,-150.562"/>
</g>
<!-- Node22 -->
<g id="node23" class="node"><title>Node22</title>
<g id="a_node23"><a xlink:href="../../d2/d0e/UpdateFwd_8hpp.html" target="_top" xlink:title="core/update/UpdateFwd.hpp">
<polygon fill="white" stroke="black" points="357.763,-118 357.763,-137 497.763,-137 497.763,-118 357.763,-118"/>
<text text-anchor="middle" x="427.763" y="-125" font-family="Helvetica,sans-Serif" font-size="10.00">core/update/UpdateFwd.hpp</text>
</a>
</g>
</g>
<!-- Node20&#45;&gt;Node22 -->
<g id="edge33" class="edge"><title>Node20&#45;&gt;Node22</title>
<path fill="none" stroke="midnightblue" d="M385.22,-235.319C392.679,-216.59 410.42,-172.046 420.477,-146.792"/>
<polygon fill="midnightblue" stroke="midnightblue" points="423.817,-147.867 424.265,-137.282 417.313,-145.277 423.817,-147.867"/>
</g>
<!-- Node23 -->
<g id="node24" class="node"><title>Node23</title>
<g id="a_node24"><a xlink:href="../../d8/d97/ToolsFwd_8hpp.html" target="_top" xlink:title="tools/ToolsFwd.hpp">
<polygon fill="white" stroke="black" points="199.763,-118 199.763,-137 301.763,-137 301.763,-118 199.763,-118"/>
<text text-anchor="middle" x="250.763" y="-125" font-family="Helvetica,sans-Serif" font-size="10.00">tools/ToolsFwd.hpp</text>
</a>
</g>
</g>
<!-- Node20&#45;&gt;Node23 -->
<g id="edge36" class="edge"><title>Node20&#45;&gt;Node23</title>
<path fill="none" stroke="midnightblue" d="M371.916,-235.319C349.915,-215.921 296.506,-168.831 268.527,-144.162"/>
<polygon fill="midnightblue" stroke="midnightblue" points="270.539,-141.27 260.723,-137.282 265.909,-146.521 270.539,-141.27"/>
</g>
<!-- Node21&#45;&gt;Node5 -->
<g id="edge31" class="edge"><title>Node21&#45;&gt;Node5</title>
<path fill="none" stroke="midnightblue" d="M534.676,-112.475C497.953,-101.764 448.147,-87.237 414.804,-77.5121"/>
<polygon fill="midnightblue" stroke="midnightblue" points="415.598,-74.0978 405.018,-74.6577 413.638,-80.8178 415.598,-74.0978"/>
</g>
<!-- Node21&#45;&gt;Node6 -->
<g id="edge32" class="edge"><title>Node21&#45;&gt;Node6</title>
<path fill="none" stroke="midnightblue" d="M582.763,-112.399C582.763,-104.466 582.763,-94.458 582.763,-85.8583"/>
<polygon fill="midnightblue" stroke="midnightblue" points="586.263,-85.6577 582.763,-75.6578 579.263,-85.6578 586.263,-85.6577"/>
</g>
<!-- Node22&#45;&gt;Node5 -->
<g id="edge34" class="edge"><title>Node22&#45;&gt;Node5</title>
<path fill="none" stroke="midnightblue" d="M420.742,-117.975C413.319,-108.962 401.43,-94.5246 392.196,-83.3118"/>
<polygon fill="midnightblue" stroke="midnightblue" points="394.829,-81.0034 385.77,-75.5091 389.426,-85.4534 394.829,-81.0034"/>
</g>
<!-- Node22&#45;&gt;Node6 -->
<g id="edge35" class="edge"><title>Node22&#45;&gt;Node6</title>
<path fill="none" stroke="midnightblue" d="M449.97,-117.975C476.443,-107.813 520.876,-90.7564 550.982,-79.1996"/>
<polygon fill="midnightblue" stroke="midnightblue" points="552.515,-82.3604 560.596,-75.5091 550.006,-75.8254 552.515,-82.3604"/>
</g>
<!-- Node23&#45;&gt;Node5 -->
<g id="edge37" class="edge"><title>Node23&#45;&gt;Node5</title>
<path fill="none" stroke="midnightblue" d="M269.102,-117.975C290.583,-107.99 326.385,-91.3476 351.21,-79.8075"/>
<polygon fill="midnightblue" stroke="midnightblue" points="352.865,-82.8983 360.457,-75.5091 349.914,-76.5506 352.865,-82.8983"/>
</g>
<!-- Node23&#45;&gt;Node6 -->
<g id="edge38" class="edge"><title>Node23&#45;&gt;Node6</title>
<path fill="none" stroke="midnightblue" d="M298.33,-117.975C359.6,-106.995 465.785,-87.9645 529.637,-76.521"/>
<polygon fill="midnightblue" stroke="midnightblue" points="530.283,-79.9611 539.509,-74.7519 529.048,-73.0709 530.283,-79.9611"/>
</g>
<!-- Node28&#45;&gt;Node7 -->
<g id="edge47" class="edge"><title>Node28&#45;&gt;Node7</title>
<path fill="none" stroke="midnightblue" d="M202.241,-235.974C285.521,-226.068 426.725,-209.273 513.455,-198.957"/>
<polygon fill="midnightblue" stroke="midnightblue" points="513.978,-202.42 523.494,-197.763 513.151,-195.469 513.978,-202.42"/>
</g>
<!-- Node28&#45;&gt;Node17 -->
<g id="edge49" class="edge"><title>Node28&#45;&gt;Node17</title>
<path fill="none" stroke="midnightblue" d="M155.52,-235.444C177.079,-226.557 211.026,-212.563 235.557,-202.451"/>
<polygon fill="midnightblue" stroke="midnightblue" points="237.191,-205.563 245.102,-198.516 234.523,-199.092 237.191,-205.563"/>
</g>
<!-- Node29 -->
<g id="node30" class="node"><title>Node29</title>
<g id="a_node30"><a xlink:href="../../d4/dc3/APIStatusCode_8hpp.html" target="_top" xlink:title="core/APIStatusCode.hpp">
<polygon fill="white" stroke="black" points="72.2627,-179.5 72.2627,-198.5 197.263,-198.5 197.263,-179.5 72.2627,-179.5"/>
<text text-anchor="middle" x="134.763" y="-186.5" font-family="Helvetica,sans-Serif" font-size="10.00">core/APIStatusCode.hpp</text>
</a>
</g>
</g>
<!-- Node28&#45;&gt;Node29 -->
<g id="edge48" class="edge"><title>Node28&#45;&gt;Node29</title>
<path fill="none" stroke="midnightblue" d="M134.763,-235.083C134.763,-228.006 134.763,-217.861 134.763,-208.986"/>
<polygon fill="midnightblue" stroke="midnightblue" points="138.263,-208.751 134.763,-198.751 131.263,-208.751 138.263,-208.751"/>
</g>
</g>
</svg>
