<?xml version="1.0" encoding="UTF-8" standalone="no"?>
<!DOCTYPE svg PUBLIC "-//W3C//DTD SVG 1.1//EN"
 "http://www.w3.org/Graphics/SVG/1.1/DTD/svg11.dtd">
<!-- Generated by graphviz version 2.38.0 (20140413.2041)
 -->
<!-- Title: src/tools/version.hpp Pages: 1 -->
<svg width="452pt" height="95pt"
 viewBox="0.00 0.00 451.50 95.00" xmlns="http://www.w3.org/2000/svg" xmlns:xlink="http://www.w3.org/1999/xlink">
<g id="graph0" class="graph" transform="scale(1 1) rotate(0) translate(4 91)">
<title>src/tools/version.hpp</title>
<polygon fill="white" stroke="none" points="-4,4 -4,-91 447.5,-91 447.5,4 -4,4"/>
<!-- Node2 -->
<g id="node1" class="node"><title>Node2</title>
<polygon fill="#bfbfbf" stroke="black" points="165,-67.5 165,-86.5 272,-86.5 272,-67.5 165,-67.5"/>
<text text-anchor="middle" x="218.5" y="-74.5" font-family="Helvetica,sans-Serif" font-size="10.00">src/tools/version.hpp</text>
</g>
<!-- Node3 -->
<g id="node2" class="node"><title>Node3</title>
<g id="a_node2"><a xlink:href="../../df/d0a/main_8cpp.html" target="_top" xlink:title="standard main ">
<polygon fill="white" stroke="black" points="0,-6 0,-25 73,-25 73,-6 0,-6"/>
<text text-anchor="middle" x="36.5" y="-13" font-family="Helvetica,sans-Serif" font-size="10.00">src/main.cpp</text>
</a>
</g>
</g>
<!-- Node2&#45;&gt;Node3 -->
<g id="edge1" class="edge"><title>Node2&#45;&gt;Node3</title>
<path fill="none" stroke="midnightblue" d="M182.504,-64.232C147.125,-52.666 93.9954,-35.2966 62.5278,-25.0091"/>
<polygon fill="midnightblue" stroke="midnightblue" points="181.831,-67.6944 192.424,-67.4751 184.006,-61.0409 181.831,-67.6944"/>
</g>
<!-- Node4 -->
<g id="node3" class="node"><title>Node4</title>
<g id="a_node3"><a xlink:href="../../d9/d8d/APISession_8cpp.html" target="_top" xlink:title="src/modules/websock\l&#45;api/api/APISession.cpp">
<polygon fill="white" stroke="black" points="91.5,-0.5 91.5,-30.5 213.5,-30.5 213.5,-0.5 91.5,-0.5"/>
<text text-anchor="start" x="99.5" y="-18.5" font-family="Helvetica,sans-Serif" font-size="10.00">src/modules/websock</text>
<text text-anchor="middle" x="152.5" y="-7.5" font-family="Helvetica,sans-Serif" font-size="10.00">&#45;api/api/APISession.cpp</text>
</a>
</g>
</g>
<!-- Node2&#45;&gt;Node4 -->
<g id="edge2" class="edge"><title>Node2&#45;&gt;Node4</title>
<path fill="none" stroke="midnightblue" d="M201.469,-60.6459C191.152,-51.3456 178.092,-39.572 168.055,-30.523"/>
<polygon fill="midnightblue" stroke="midnightblue" points="199.273,-63.3788 209.044,-67.4751 203.96,-58.1796 199.273,-63.3788"/>
</g>
<!-- Node5 -->
<g id="node4" class="node"><title>Node5</title>
<g id="a_node4"><a xlink:href="../../d4/d9e/src_2tools_2version_8cpp.html" target="_top" xlink:title="src/tools/version.cpp">
<polygon fill="white" stroke="black" points="232,-6 232,-25 339,-25 339,-6 232,-6"/>
<text text-anchor="middle" x="285.5" y="-13" font-family="Helvetica,sans-Serif" font-size="10.00">src/tools/version.cpp</text>
</a>
</g>
</g>
<!-- Node2&#45;&gt;Node5 -->
<g id="edge3" class="edge"><title>Node2&#45;&gt;Node5</title>
<path fill="none" stroke="midnightblue" d="M235.785,-60.6496C248.559,-49.3058 265.478,-34.2811 275.918,-25.0091"/>
<polygon fill="midnightblue" stroke="midnightblue" points="233.253,-58.2179 228.099,-67.4751 237.901,-63.4519 233.253,-58.2179"/>
</g>
<!-- Node6 -->
<g id="node5" class="node"><title>Node6</title>
<g id="a_node5"><a xlink:href="../../d1/ddc/test_2version_8cpp.html" target="_top" xlink:title="test/version.cpp">
<polygon fill="white" stroke="black" points="357.5,-6 357.5,-25 443.5,-25 443.5,-6 357.5,-6"/>
<text text-anchor="middle" x="400.5" y="-13" font-family="Helvetica,sans-Serif" font-size="10.00">test/version.cpp</text>
</a>
</g>
</g>
<!-- Node2&#45;&gt;Node6 -->
<g id="edge4" class="edge"><title>Node2&#45;&gt;Node6</title>
<path fill="none" stroke="midnightblue" d="M254.496,-64.232C289.875,-52.666 343.005,-35.2966 374.472,-25.0091"/>
<polygon fill="midnightblue" stroke="midnightblue" points="252.994,-61.0409 244.576,-67.4751 255.169,-67.6944 252.994,-61.0409"/>
</g>
</g>
</svg>
