<?xml version="1.0" encoding="UTF-8" standalone="no"?>
<!DOCTYPE svg PUBLIC "-//W3C//DTD SVG 1.1//EN"
 "http://www.w3.org/Graphics/SVG/1.1/DTD/svg11.dtd">
<!-- Generated by graphviz version 2.38.0 (20140413.2041)
 -->
<!-- Title: src/tools/XmlNodeNameEnforcer.hpp Pages: 1 -->
<svg width="3496pt" height="296pt"
 viewBox="0.00 0.00 3496.00 296.00" xmlns="http://www.w3.org/2000/svg" xmlns:xlink="http://www.w3.org/1999/xlink">
<g id="graph0" class="graph" transform="scale(1 1) rotate(0) translate(4 292)">
<title>src/tools/XmlNodeNameEnforcer.hpp</title>
<polygon fill="white" stroke="none" points="-4,4 -4,-292 3492,-292 3492,4 -4,4"/>
<!-- Node2 -->
<g id="node1" class="node"><title>Node2</title>
<polygon fill="#bfbfbf" stroke="black" points="2993,-268.5 2993,-287.5 3172,-287.5 3172,-268.5 2993,-268.5"/>
<text text-anchor="middle" x="3082.5" y="-275.5" font-family="Helvetica,sans-Serif" font-size="10.00">src/tools/XmlNodeNameEnforcer.hpp</text>
</g>
<!-- Node3 -->
<g id="node2" class="node"><title>Node3</title>
<g id="a_node2"><a xlink:href="../../df/db8/kernel_8hpp.html" target="_top" xlink:title="src/core/kernel.hpp">
<polygon fill="white" stroke="black" points="1450.5,-207 1450.5,-226 1550.5,-226 1550.5,-207 1450.5,-207"/>
<text text-anchor="middle" x="1500.5" y="-214" font-family="Helvetica,sans-Serif" font-size="10.00">src/core/kernel.hpp</text>
</a>
</g>
</g>
<!-- Node2&#45;&gt;Node3 -->
<g id="edge1" class="edge"><title>Node2&#45;&gt;Node3</title>
<path fill="none" stroke="midnightblue" d="M2982.8,-273.25C2679.26,-261.834 1773.51,-227.768 1550.52,-219.381"/>
<polygon fill="midnightblue" stroke="midnightblue" points="2982.79,-276.752 2992.91,-273.631 2983.05,-269.757 2982.79,-276.752"/>
</g>
<!-- Node23 -->
<g id="node22" class="node"><title>Node23</title>
<g id="a_node22"><a xlink:href="../../df/d5d/FileAuthSourceMapper_8hpp.html" target="_top" xlink:title="src/modules/auth/auth\l&#45;file/FileAuthSourceMapper.hpp">
<polygon fill="white" stroke="black" points="2863,-201.5 2863,-231.5 3016,-231.5 3016,-201.5 2863,-201.5"/>
<text text-anchor="start" x="2871" y="-219.5" font-family="Helvetica,sans-Serif" font-size="10.00">src/modules/auth/auth</text>
<text text-anchor="middle" x="2939.5" y="-208.5" font-family="Helvetica,sans-Serif" font-size="10.00">&#45;file/FileAuthSourceMapper.hpp</text>
</a>
</g>
</g>
<!-- Node2&#45;&gt;Node23 -->
<g id="edge21" class="edge"><title>Node2&#45;&gt;Node23</title>
<path fill="none" stroke="midnightblue" d="M3052.67,-264.59C3029.49,-254.942 2997.32,-241.558 2973.2,-231.523"/>
<polygon fill="midnightblue" stroke="midnightblue" points="3051.43,-267.865 3062.01,-268.475 3054.12,-261.402 3051.43,-267.865"/>
</g>
<!-- Node31 -->
<g id="node30" class="node"><title>Node31</title>
<g id="a_node30"><a xlink:href="../../d0/dd9/TcpNotifier_8hpp.html" target="_top" xlink:title="src/modules/tcp&#45;notifier\l/TcpNotifier.hpp">
<polygon fill="white" stroke="black" points="3166,-201.5 3166,-231.5 3285,-231.5 3285,-201.5 3166,-201.5"/>
<text text-anchor="start" x="3174" y="-219.5" font-family="Helvetica,sans-Serif" font-size="10.00">src/modules/tcp&#45;notifier</text>
<text text-anchor="middle" x="3225.5" y="-208.5" font-family="Helvetica,sans-Serif" font-size="10.00">/TcpNotifier.hpp</text>
</a>
</g>
</g>
<!-- Node2&#45;&gt;Node31 -->
<g id="edge31" class="edge"><title>Node2&#45;&gt;Node31</title>
<path fill="none" stroke="midnightblue" d="M3112.33,-264.59C3135.51,-254.942 3167.68,-241.558 3191.8,-231.523"/>
<polygon fill="midnightblue" stroke="midnightblue" points="3110.88,-261.402 3102.99,-268.475 3113.57,-267.865 3110.88,-261.402"/>
</g>
<!-- Node34 -->
<g id="node33" class="node"><title>Node34</title>
<g id="a_node33"><a xlink:href="../../d2/d6c/XmlNodeNameEnforcer_8cpp.html" target="_top" xlink:title="src/tools/XmlNodeNameEnforcer.cpp">
<polygon fill="white" stroke="black" points="3303,-207 3303,-226 3482,-226 3482,-207 3303,-207"/>
<text text-anchor="middle" x="3392.5" y="-214" font-family="Helvetica,sans-Serif" font-size="10.00">src/tools/XmlNodeNameEnforcer.cpp</text>
</a>
</g>
</g>
<!-- Node2&#45;&gt;Node34 -->
<g id="edge34" class="edge"><title>Node2&#45;&gt;Node34</title>
<path fill="none" stroke="midnightblue" d="M3136.97,-266.546C3197.03,-255.018 3292.5,-236.694 3348.17,-226.009"/>
<polygon fill="midnightblue" stroke="midnightblue" points="3136.08,-263.153 3126.92,-268.475 3137.4,-270.027 3136.08,-263.153"/>
</g>
<!-- Node4 -->
<g id="node3" class="node"><title>Node4</title>
<g id="a_node3"><a xlink:href="../../d6/dff/src_2core_2config_2ConfigManager_8cpp.html" target="_top" xlink:title="src/core/config/ConfigManager.cpp">
<polygon fill="white" stroke="black" points="0,-140 0,-159 169,-159 169,-140 0,-140"/>
<text text-anchor="middle" x="84.5" y="-147" font-family="Helvetica,sans-Serif" font-size="10.00">src/core/config/ConfigManager.cpp</text>
</a>
</g>
</g>
<!-- Node3&#45;&gt;Node4 -->
<g id="edge2" class="edge"><title>Node3&#45;&gt;Node4</title>
<path fill="none" stroke="midnightblue" d="M1440.3,-215.694C1252.85,-215.765 663.073,-211.96 177.5,-165 162.699,-163.569 146.669,-161.323 132.154,-159.022"/>
<polygon fill="midnightblue" stroke="midnightblue" points="1440.5,-219.194 1450.5,-215.686 1440.5,-212.194 1440.5,-219.194"/>
</g>
<!-- Node5 -->
<g id="node4" class="node"><title>Node5</title>
<g id="a_node4"><a xlink:href="../../d3/d1e/CoreAPI_8cpp.html" target="_top" xlink:title="src/core/CoreAPI.cpp">
<polygon fill="white" stroke="black" points="187,-140 187,-159 298,-159 298,-140 187,-140"/>
<text text-anchor="middle" x="242.5" y="-147" font-family="Helvetica,sans-Serif" font-size="10.00">src/core/CoreAPI.cpp</text>
</a>
</g>
</g>
<!-- Node3&#45;&gt;Node5 -->
<g id="edge3" class="edge"><title>Node3&#45;&gt;Node5</title>
<path fill="none" stroke="midnightblue" d="M1440.17,-214.389C1229.77,-210.291 529.22,-194.692 306.5,-165 296.111,-163.615 284.923,-161.353 274.853,-159.023"/>
<polygon fill="midnightblue" stroke="midnightblue" points="1440.33,-217.893 1450.4,-214.587 1440.47,-210.894 1440.33,-217.893"/>
</g>
<!-- Node6 -->
<g id="node5" class="node"><title>Node6</title>
<g id="a_node5"><a xlink:href="../../d4/dd4/CoreUtils_8cpp.html" target="_top" xlink:title="src/core/CoreUtils.cpp">
<polygon fill="white" stroke="black" points="316,-140 316,-159 431,-159 431,-140 316,-140"/>
<text text-anchor="middle" x="373.5" y="-147" font-family="Helvetica,sans-Serif" font-size="10.00">src/core/CoreUtils.cpp</text>
</a>
</g>
</g>
<!-- Node3&#45;&gt;Node6 -->
<g id="edge4" class="edge"><title>Node3&#45;&gt;Node6</title>
<path fill="none" stroke="midnightblue" d="M1439.97,-216.179C1277.33,-217.235 817.608,-215.168 439.5,-165 428.917,-163.596 417.518,-161.358 407.221,-159.056"/>
<polygon fill="midnightblue" stroke="midnightblue" points="1440.27,-219.677 1450.25,-216.105 1440.22,-212.677 1440.27,-219.677"/>
</g>
<!-- Node7 -->
<g id="node6" class="node"><title>Node7</title>
<g id="a_node6"><a xlink:href="../../d9/d6a/GetServiceRegistry_8cpp.html" target="_top" xlink:title="src/core/GetServiceRegistry.cpp">
<polygon fill="white" stroke="black" points="449,-140 449,-159 608,-159 608,-140 449,-140"/>
<text text-anchor="middle" x="528.5" y="-147" font-family="Helvetica,sans-Serif" font-size="10.00">src/core/GetServiceRegistry.cpp</text>
</a>
</g>
</g>
<!-- Node3&#45;&gt;Node7 -->
<g id="edge5" class="edge"><title>Node3&#45;&gt;Node7</title>
<path fill="none" stroke="midnightblue" d="M1439.73,-214.208C1296.25,-210.683 925.364,-198.789 617.5,-165 603.65,-163.48 588.673,-161.264 575.027,-159.02"/>
<polygon fill="midnightblue" stroke="midnightblue" points="1439.99,-217.716 1450.07,-214.458 1440.16,-210.718 1439.99,-217.716"/>
</g>
<!-- Node8 -->
<g id="node7" class="node"><title>Node8</title>
<g id="a_node7"><a xlink:href="../../dd/d24/kernel_8cpp.html" target="_top" xlink:title="src/core/kernel.cpp">
<polygon fill="white" stroke="black" points="626.5,-140 626.5,-159 726.5,-159 726.5,-140 626.5,-140"/>
<text text-anchor="middle" x="676.5" y="-147" font-family="Helvetica,sans-Serif" font-size="10.00">src/core/kernel.cpp</text>
</a>
</g>
</g>
<!-- Node3&#45;&gt;Node8 -->
<g id="edge6" class="edge"><title>Node3&#45;&gt;Node8</title>
<path fill="none" stroke="midnightblue" d="M1440.38,-215.098C1310.79,-213.453 995.801,-205.26 735.5,-165 726.118,-163.549 716.041,-161.326 706.917,-159.053"/>
<polygon fill="midnightblue" stroke="midnightblue" points="1440.46,-218.599 1450.5,-215.218 1440.54,-211.6 1440.46,-218.599"/>
</g>
<!-- Node9 -->
<g id="node8" class="node"><title>Node9</title>
<g id="a_node8"><a xlink:href="../../d9/d4a/module__manager_8cpp.html" target="_top" xlink:title="src/core/module_manager.cpp">
<polygon fill="white" stroke="black" points="744.5,-140 744.5,-159 892.5,-159 892.5,-140 744.5,-140"/>
<text text-anchor="middle" x="818.5" y="-147" font-family="Helvetica,sans-Serif" font-size="10.00">src/core/module_manager.cpp</text>
</a>
</g>
</g>
<!-- Node3&#45;&gt;Node9 -->
<g id="edge7" class="edge"><title>Node3&#45;&gt;Node9</title>
<path fill="none" stroke="midnightblue" d="M1440.17,-212.192C1331.95,-205.863 1097.77,-190.367 901.5,-165 889.024,-163.388 875.563,-161.222 863.187,-159.057"/>
<polygon fill="midnightblue" stroke="midnightblue" points="1440.06,-215.692 1450.25,-212.776 1440.47,-208.703 1440.06,-215.692"/>
</g>
<!-- Node10 -->
<g id="node9" class="node"><title>Node10</title>
<g id="a_node9"><a xlink:href="../../d2/d2a/networkconfig_8cpp.html" target="_top" xlink:title="NetworkConfig class implementation. ">
<polygon fill="white" stroke="black" points="911,-134.5 911,-164.5 1010,-164.5 1010,-134.5 911,-134.5"/>
<text text-anchor="start" x="919" y="-152.5" font-family="Helvetica,sans-Serif" font-size="10.00">src/core/netconfig</text>
<text text-anchor="middle" x="960.5" y="-141.5" font-family="Helvetica,sans-Serif" font-size="10.00">/networkconfig.cpp</text>
</a>
</g>
</g>
<!-- Node3&#45;&gt;Node10 -->
<g id="edge8" class="edge"><title>Node3&#45;&gt;Node10</title>
<path fill="none" stroke="midnightblue" d="M1440.15,-211.817C1348.67,-205.636 1169.63,-191.204 1019.5,-165 1016.49,-164.474 1013.4,-163.881 1010.29,-163.243"/>
<polygon fill="midnightblue" stroke="midnightblue" points="1440.12,-215.322 1450.33,-212.495 1440.59,-208.338 1440.12,-215.322"/>
</g>
<!-- Node11 -->
<g id="node10" class="node"><title>Node11</title>
<g id="a_node10"><a xlink:href="../../d4/d28/RemoteControl_8cpp.html" target="_top" xlink:title="src/core/RemoteControl.cpp">
<polygon fill="white" stroke="black" points="1028.5,-140 1028.5,-159 1168.5,-159 1168.5,-140 1028.5,-140"/>
<text text-anchor="middle" x="1098.5" y="-147" font-family="Helvetica,sans-Serif" font-size="10.00">src/core/RemoteControl.cpp</text>
</a>
</g>
</g>
<!-- Node3&#45;&gt;Node11 -->
<g id="edge9" class="edge"><title>Node3&#45;&gt;Node11</title>
<path fill="none" stroke="midnightblue" d="M1440.3,-206.574C1375.37,-196.833 1268.99,-180.545 1177.5,-165 1166.64,-163.155 1154.96,-161.067 1144,-159.063"/>
<polygon fill="midnightblue" stroke="midnightblue" points="1439.95,-210.06 1450.36,-208.08 1440.99,-203.138 1439.95,-210.06"/>
</g>
<!-- Node12 -->
<g id="node11" class="node"><title>Node12</title>
<g id="a_node11"><a xlink:href="../../df/dca/GetLocalConfigVersion_8cpp.html" target="_top" xlink:title="src/core/tasks/GetLocalConfig\lVersion.cpp">
<polygon fill="white" stroke="black" points="1187,-134.5 1187,-164.5 1336,-164.5 1336,-134.5 1187,-134.5"/>
<text text-anchor="start" x="1195" y="-152.5" font-family="Helvetica,sans-Serif" font-size="10.00">src/core/tasks/GetLocalConfig</text>
<text text-anchor="middle" x="1261.5" y="-141.5" font-family="Helvetica,sans-Serif" font-size="10.00">Version.cpp</text>
</a>
</g>
</g>
<!-- Node3&#45;&gt;Node12 -->
<g id="edge10" class="edge"><title>Node3&#45;&gt;Node12</title>
<path fill="none" stroke="midnightblue" d="M1458.94,-204.198C1418.43,-193.179 1356.71,-176.394 1313.08,-164.528"/>
<polygon fill="midnightblue" stroke="midnightblue" points="1458.19,-207.621 1468.76,-206.869 1460.03,-200.867 1458.19,-207.621"/>
</g>
<!-- Node13 -->
<g id="node12" class="node"><title>Node13</title>
<g id="a_node12"><a xlink:href="../../d7/d6f/GetRemoteConfigVersion_8cpp.html" target="_top" xlink:title="src/core/tasks/GetRemote\lConfigVersion.cpp">
<polygon fill="white" stroke="black" points="1354.5,-134.5 1354.5,-164.5 1486.5,-164.5 1486.5,-134.5 1354.5,-134.5"/>
<text text-anchor="start" x="1362.5" y="-152.5" font-family="Helvetica,sans-Serif" font-size="10.00">src/core/tasks/GetRemote</text>
<text text-anchor="middle" x="1420.5" y="-141.5" font-family="Helvetica,sans-Serif" font-size="10.00">ConfigVersion.cpp</text>
</a>
</g>
</g>
<!-- Node3&#45;&gt;Node13 -->
<g id="edge11" class="edge"><title>Node3&#45;&gt;Node13</title>
<path fill="none" stroke="midnightblue" d="M1481.71,-200.237C1468.44,-189.452 1450.78,-175.102 1437.84,-164.589"/>
<polygon fill="midnightblue" stroke="midnightblue" points="1479.74,-203.144 1489.71,-206.734 1484.16,-197.711 1479.74,-203.144"/>
</g>
<!-- Node14 -->
<g id="node13" class="node"><title>Node14</title>
<g id="a_node13"><a xlink:href="../../d5/d8e/SyncConfig_8cpp.html" target="_top" xlink:title="src/core/tasks/SyncConfig.cpp">
<polygon fill="white" stroke="black" points="1504.5,-140 1504.5,-159 1656.5,-159 1656.5,-140 1504.5,-140"/>
<text text-anchor="middle" x="1580.5" y="-147" font-family="Helvetica,sans-Serif" font-size="10.00">src/core/tasks/SyncConfig.cpp</text>
</a>
</g>
</g>
<!-- Node3&#45;&gt;Node14 -->
<g id="edge12" class="edge"><title>Node3&#45;&gt;Node14</title>
<path fill="none" stroke="midnightblue" d="M1519.31,-200.213C1535.08,-187.407 1557.01,-169.588 1569.88,-159.127"/>
<polygon fill="midnightblue" stroke="midnightblue" points="1516.84,-197.711 1511.29,-206.734 1521.26,-203.144 1516.84,-197.711"/>
</g>
<!-- Node15 -->
<g id="node14" class="node"><title>Node15</title>
<g id="a_node14"><a xlink:href="../../df/d0a/main_8cpp.html" target="_top" xlink:title="standard main ">
<polygon fill="white" stroke="black" points="1675,-140 1675,-159 1748,-159 1748,-140 1675,-140"/>
<text text-anchor="middle" x="1711.5" y="-147" font-family="Helvetica,sans-Serif" font-size="10.00">src/main.cpp</text>
</a>
</g>
</g>
<!-- Node3&#45;&gt;Node15 -->
<g id="edge13" class="edge"><title>Node3&#45;&gt;Node15</title>
<path fill="none" stroke="midnightblue" d="M1538.37,-204.007C1571.83,-193.829 1621.94,-178.53 1665.5,-165 1671.58,-163.112 1678.1,-161.067 1684.27,-159.125"/>
<polygon fill="midnightblue" stroke="midnightblue" points="1537.1,-200.736 1528.55,-206.993 1539.13,-207.433 1537.1,-200.736"/>
</g>
<!-- Node16 -->
<g id="node15" class="node"><title>Node16</title>
<g id="a_node15"><a xlink:href="../../df/dac/AuthDBModule_8cpp.html" target="_top" xlink:title="src/modules/auth/auth\l&#45;db/AuthDBModule.cpp">
<polygon fill="white" stroke="black" points="1766.5,-134.5 1766.5,-164.5 1884.5,-164.5 1884.5,-134.5 1766.5,-134.5"/>
<text text-anchor="start" x="1774.5" y="-152.5" font-family="Helvetica,sans-Serif" font-size="10.00">src/modules/auth/auth</text>
<text text-anchor="middle" x="1825.5" y="-141.5" font-family="Helvetica,sans-Serif" font-size="10.00">&#45;db/AuthDBModule.cpp</text>
</a>
</g>
</g>
<!-- Node3&#45;&gt;Node16 -->
<g id="edge14" class="edge"><title>Node3&#45;&gt;Node16</title>
<path fill="none" stroke="midnightblue" d="M1554.45,-205.059C1606.28,-194.98 1686.79,-179.199 1756.5,-165 1759.74,-164.34 1763.06,-163.659 1766.41,-162.967"/>
<polygon fill="midnightblue" stroke="midnightblue" points="1553.62,-201.654 1544.47,-206.997 1554.96,-208.525 1553.62,-201.654"/>
</g>
<!-- Node17 -->
<g id="node16" class="node"><title>Node17</title>
<g id="a_node16"><a xlink:href="../../d8/d37/AuthFileModule_8cpp.html" target="_top" xlink:title="src/modules/auth/auth\l&#45;file/AuthFileModule.cpp">
<polygon fill="white" stroke="black" points="2197.5,-0.5 2197.5,-30.5 2319.5,-30.5 2319.5,-0.5 2197.5,-0.5"/>
<text text-anchor="start" x="2205.5" y="-18.5" font-family="Helvetica,sans-Serif" font-size="10.00">src/modules/auth/auth</text>
<text text-anchor="middle" x="2258.5" y="-7.5" font-family="Helvetica,sans-Serif" font-size="10.00">&#45;file/AuthFileModule.cpp</text>
</a>
</g>
</g>
<!-- Node3&#45;&gt;Node17 -->
<g id="edge15" class="edge"><title>Node3&#45;&gt;Node17</title>
<path fill="none" stroke="midnightblue" d="M1560.55,-211.827C1655.35,-205.355 1834.96,-190.167 1893.5,-165 1913.52,-156.391 1912.53,-144.728 1931.5,-134 2020.38,-83.7456 2134.66,-48.582 2201.92,-30.5212"/>
<polygon fill="midnightblue" stroke="midnightblue" points="1560.27,-208.338 1550.53,-212.5 1560.74,-215.322 1560.27,-208.338"/>
</g>
<!-- Node18 -->
<g id="node17" class="node"><title>Node18</title>
<g id="a_node17"><a xlink:href="../../d0/d58/DoormanModule_8cpp.html" target="_top" xlink:title="src/modules/doorman\l/DoormanModule.cpp">
<polygon fill="white" stroke="black" points="1940.5,-134.5 1940.5,-164.5 2050.5,-164.5 2050.5,-134.5 1940.5,-134.5"/>
<text text-anchor="start" x="1948.5" y="-152.5" font-family="Helvetica,sans-Serif" font-size="10.00">src/modules/doorman</text>
<text text-anchor="middle" x="1995.5" y="-141.5" font-family="Helvetica,sans-Serif" font-size="10.00">/DoormanModule.cpp</text>
</a>
</g>
</g>
<!-- Node3&#45;&gt;Node18 -->
<g id="edge16" class="edge"><title>Node3&#45;&gt;Node18</title>
<path fill="none" stroke="midnightblue" d="M1560.52,-210.087C1643.21,-202.243 1796.68,-186.291 1926.5,-165 1930.97,-164.267 1935.59,-163.443 1940.22,-162.57"/>
<polygon fill="midnightblue" stroke="midnightblue" points="1560.17,-206.604 1550.55,-211.026 1560.83,-213.573 1560.17,-206.604"/>
</g>
<!-- Node19 -->
<g id="node18" class="node"><title>Node19</title>
<g id="a_node18"><a xlink:href="../../d7/d36/LEDBuzzerModule_8cpp.html" target="_top" xlink:title="src/modules/led&#45;buzzer\l/LEDBuzzerModule.cpp">
<polygon fill="white" stroke="black" points="2068.5,-134.5 2068.5,-164.5 2188.5,-164.5 2188.5,-134.5 2068.5,-134.5"/>
<text text-anchor="start" x="2076.5" y="-152.5" font-family="Helvetica,sans-Serif" font-size="10.00">src/modules/led&#45;buzzer</text>
<text text-anchor="middle" x="2128.5" y="-141.5" font-family="Helvetica,sans-Serif" font-size="10.00">/LEDBuzzerModule.cpp</text>
</a>
</g>
</g>
<!-- Node3&#45;&gt;Node19 -->
<g id="edge17" class="edge"><title>Node3&#45;&gt;Node19</title>
<path fill="none" stroke="midnightblue" d="M1561.04,-212.359C1663.91,-206.502 1879.22,-191.992 2059.5,-165 2062.41,-164.565 2065.37,-164.084 2068.36,-163.57"/>
<polygon fill="midnightblue" stroke="midnightblue" points="1560.63,-208.876 1550.84,-212.932 1561.02,-215.865 1560.63,-208.876"/>
</g>
<!-- Node20 -->
<g id="node19" class="node"><title>Node20</title>
<g id="a_node19"><a xlink:href="../../da/d77/SysFsGpioModule_8cpp.html" target="_top" xlink:title="src/modules/sysfsgpio\l/SysFsGpioModule.cpp">
<polygon fill="white" stroke="black" points="2207,-134.5 2207,-164.5 2326,-164.5 2326,-134.5 2207,-134.5"/>
<text text-anchor="start" x="2215" y="-152.5" font-family="Helvetica,sans-Serif" font-size="10.00">src/modules/sysfsgpio</text>
<text text-anchor="middle" x="2266.5" y="-141.5" font-family="Helvetica,sans-Serif" font-size="10.00">/SysFsGpioModule.cpp</text>
</a>
</g>
</g>
<!-- Node3&#45;&gt;Node20 -->
<g id="edge18" class="edge"><title>Node3&#45;&gt;Node20</title>
<path fill="none" stroke="midnightblue" d="M1560.79,-213.866C1681.96,-209.982 1963.44,-197.92 2197.5,-165 2200.53,-164.574 2203.63,-164.093 2206.75,-163.571"/>
<polygon fill="midnightblue" stroke="midnightblue" points="1560.49,-210.374 1550.61,-214.186 1560.71,-217.37 1560.49,-210.374"/>
</g>
<!-- Node21 -->
<g id="node20" class="node"><title>Node21</title>
<g id="a_node20"><a xlink:href="../../d9/d8d/APISession_8cpp.html" target="_top" xlink:title="src/modules/websock\l&#45;api/api/APISession.cpp">
<polygon fill="white" stroke="black" points="2344.5,-134.5 2344.5,-164.5 2466.5,-164.5 2466.5,-134.5 2344.5,-134.5"/>
<text text-anchor="start" x="2352.5" y="-152.5" font-family="Helvetica,sans-Serif" font-size="10.00">src/modules/websock</text>
<text text-anchor="middle" x="2405.5" y="-141.5" font-family="Helvetica,sans-Serif" font-size="10.00">&#45;api/api/APISession.cpp</text>
</a>
</g>
</g>
<!-- Node3&#45;&gt;Node21 -->
<g id="edge19" class="edge"><title>Node3&#45;&gt;Node21</title>
<path fill="none" stroke="midnightblue" d="M1560.89,-214.756C1698.65,-212.425 2046.46,-202.94 2334.5,-165 2337.74,-164.573 2341.06,-164.083 2344.4,-163.547"/>
<polygon fill="midnightblue" stroke="midnightblue" points="1560.5,-211.262 1550.56,-214.924 1560.61,-218.261 1560.5,-211.262"/>
</g>
<!-- Node22 -->
<g id="node21" class="node"><title>Node22</title>
<g id="a_node21"><a xlink:href="../../d3/de8/wiegand_8cpp.html" target="_top" xlink:title="src/modules/wiegand\l/wiegand.cpp">
<polygon fill="white" stroke="black" points="2485,-134.5 2485,-164.5 2594,-164.5 2594,-134.5 2485,-134.5"/>
<text text-anchor="start" x="2493" y="-152.5" font-family="Helvetica,sans-Serif" font-size="10.00">src/modules/wiegand</text>
<text text-anchor="middle" x="2539.5" y="-141.5" font-family="Helvetica,sans-Serif" font-size="10.00">/wiegand.cpp</text>
</a>
</g>
</g>
<!-- Node3&#45;&gt;Node22 -->
<g id="edge20" class="edge"><title>Node3&#45;&gt;Node22</title>
<path fill="none" stroke="midnightblue" d="M1560.65,-215.948C1713.98,-216.321 2131.64,-212.502 2475.5,-165 2478.55,-164.579 2481.66,-164.086 2484.8,-163.54"/>
<polygon fill="midnightblue" stroke="midnightblue" points="1560.51,-212.448 1550.5,-215.917 1560.49,-219.448 1560.51,-212.448"/>
</g>
<!-- Node24 -->
<g id="node23" class="node"><title>Node24</title>
<g id="a_node23"><a xlink:href="../../de/df9/AuthFileInstance_8hpp.html" target="_top" xlink:title="src/modules/auth/auth\l&#45;file/AuthFileInstance.hpp">
<polygon fill="white" stroke="black" points="2650.5,-134.5 2650.5,-164.5 2778.5,-164.5 2778.5,-134.5 2650.5,-134.5"/>
<text text-anchor="start" x="2658.5" y="-152.5" font-family="Helvetica,sans-Serif" font-size="10.00">src/modules/auth/auth</text>
<text text-anchor="middle" x="2714.5" y="-141.5" font-family="Helvetica,sans-Serif" font-size="10.00">&#45;file/AuthFileInstance.hpp</text>
</a>
</g>
</g>
<!-- Node23&#45;&gt;Node24 -->
<g id="edge22" class="edge"><title>Node23&#45;&gt;Node24</title>
<path fill="none" stroke="midnightblue" d="M2880.93,-198.58C2844.39,-188.022 2797.9,-174.592 2763.35,-164.611"/>
<polygon fill="midnightblue" stroke="midnightblue" points="2880.38,-202.063 2890.96,-201.476 2882.32,-195.338 2880.38,-202.063"/>
</g>
<!-- Node25 -->
<g id="node24" class="node"><title>Node25</title>
<g id="a_node24"><a xlink:href="../../da/d9b/AuthFileInstance_8cpp.html" target="_top" xlink:title="src/modules/auth/auth\l&#45;file/AuthFileInstance.cpp">
<polygon fill="white" stroke="black" points="2532.5,-67.5 2532.5,-97.5 2660.5,-97.5 2660.5,-67.5 2532.5,-67.5"/>
<text text-anchor="start" x="2540.5" y="-85.5" font-family="Helvetica,sans-Serif" font-size="10.00">src/modules/auth/auth</text>
<text text-anchor="middle" x="2596.5" y="-74.5" font-family="Helvetica,sans-Serif" font-size="10.00">&#45;file/AuthFileInstance.cpp</text>
</a>
</g>
</g>
<!-- Node23&#45;&gt;Node25 -->
<g id="edge27" class="edge"><title>Node23&#45;&gt;Node25</title>
<path fill="none" stroke="midnightblue" d="M2852.84,-209.147C2777.28,-202.13 2674.73,-188.575 2641.5,-165 2618.3,-148.539 2605.73,-116.19 2600.14,-97.58"/>
<polygon fill="midnightblue" stroke="midnightblue" points="2852.57,-212.637 2862.84,-210.053 2853.2,-205.666 2852.57,-212.637"/>
</g>
<!-- Node28 -->
<g id="node27" class="node"><title>Node28</title>
<g id="a_node27"><a xlink:href="../../d3/dc5/FileAuthSourceMapper_8cpp.html" target="_top" xlink:title="src/modules/auth/auth\l&#45;file/FileAuthSourceMapper.cpp">
<polygon fill="white" stroke="black" points="2797,-134.5 2797,-164.5 2950,-164.5 2950,-134.5 2797,-134.5"/>
<text text-anchor="start" x="2805" y="-152.5" font-family="Helvetica,sans-Serif" font-size="10.00">src/modules/auth/auth</text>
<text text-anchor="middle" x="2873.5" y="-141.5" font-family="Helvetica,sans-Serif" font-size="10.00">&#45;file/FileAuthSourceMapper.cpp</text>
</a>
</g>
</g>
<!-- Node23&#45;&gt;Node28 -->
<g id="edge28" class="edge"><title>Node23&#45;&gt;Node28</title>
<path fill="none" stroke="midnightblue" d="M2917.99,-194.311C2908.09,-184.561 2896.61,-173.259 2887.79,-164.577"/>
<polygon fill="midnightblue" stroke="midnightblue" points="2915.6,-196.873 2925.18,-201.396 2920.51,-191.885 2915.6,-196.873"/>
</g>
<!-- Node29 -->
<g id="node28" class="node"><title>Node29</title>
<g id="a_node28"><a xlink:href="../../d5/d58/AuthFile_8cpp.html" target="_top" xlink:title="This file contains unit test suite related to the AuthFile module. ">
<polygon fill="white" stroke="black" points="2968,-140 2968,-159 3059,-159 3059,-140 2968,-140"/>
<text text-anchor="middle" x="3013.5" y="-147" font-family="Helvetica,sans-Serif" font-size="10.00">test/AuthFile.cpp</text>
</a>
</g>
</g>
<!-- Node23&#45;&gt;Node29 -->
<g id="edge29" class="edge"><title>Node23&#45;&gt;Node29</title>
<path fill="none" stroke="midnightblue" d="M2963.21,-194.672C2976.87,-182.671 2993.33,-168.22 3003.6,-159.195"/>
<polygon fill="midnightblue" stroke="midnightblue" points="2960.76,-192.167 2955.56,-201.396 2965.38,-197.426 2960.76,-192.167"/>
</g>
<!-- Node30 -->
<g id="node29" class="node"><title>Node30</title>
<g id="a_node29"><a xlink:href="../../d9/d75/test_2AuthSourceBuilder_8cpp.html" target="_top" xlink:title="test/AuthSourceBuilder.cpp">
<polygon fill="white" stroke="black" points="3077.5,-140 3077.5,-159 3213.5,-159 3213.5,-140 3077.5,-140"/>
<text text-anchor="middle" x="3145.5" y="-147" font-family="Helvetica,sans-Serif" font-size="10.00">test/AuthSourceBuilder.cpp</text>
</a>
</g>
</g>
<!-- Node23&#45;&gt;Node30 -->
<g id="edge30" class="edge"><title>Node23&#45;&gt;Node30</title>
<path fill="none" stroke="midnightblue" d="M2993.6,-198.43C3033.77,-185.754 3086.87,-169.001 3118.47,-159.029"/>
<polygon fill="midnightblue" stroke="midnightblue" points="2992.43,-195.129 2983.95,-201.476 2994.54,-201.805 2992.43,-195.129"/>
</g>
<!-- Node24&#45;&gt;Node25 -->
<g id="edge23" class="edge"><title>Node24&#45;&gt;Node25</title>
<path fill="none" stroke="midnightblue" d="M2679.89,-129.435C2661.38,-119.237 2638.98,-106.897 2622.05,-97.5765"/>
<polygon fill="midnightblue" stroke="midnightblue" points="2678.45,-132.637 2688.9,-134.396 2681.83,-126.505 2678.45,-132.637"/>
</g>
<!-- Node26 -->
<g id="node25" class="node"><title>Node26</title>
<g id="a_node25"><a xlink:href="../../df/d57/AuthFileModule_8hpp.html" target="_top" xlink:title="src/modules/auth/auth\l&#45;file/AuthFileModule.hpp">
<polygon fill="white" stroke="black" points="2678.5,-67.5 2678.5,-97.5 2800.5,-97.5 2800.5,-67.5 2678.5,-67.5"/>
<text text-anchor="start" x="2686.5" y="-85.5" font-family="Helvetica,sans-Serif" font-size="10.00">src/modules/auth/auth</text>
<text text-anchor="middle" x="2739.5" y="-74.5" font-family="Helvetica,sans-Serif" font-size="10.00">&#45;file/AuthFileModule.hpp</text>
</a>
</g>
</g>
<!-- Node24&#45;&gt;Node26 -->
<g id="edge24" class="edge"><title>Node24&#45;&gt;Node26</title>
<path fill="none" stroke="midnightblue" d="M2723.54,-124.991C2727.08,-115.804 2731.01,-105.578 2734.09,-97.5765"/>
<polygon fill="midnightblue" stroke="midnightblue" points="2720.25,-123.806 2719.92,-134.396 2726.78,-126.319 2720.25,-123.806"/>
</g>
<!-- Node26&#45;&gt;Node17 -->
<g id="edge25" class="edge"><title>Node26&#45;&gt;Node17</title>
<path fill="none" stroke="midnightblue" d="M2668.35,-66.8936C2538.54,-45.8302 2398.1,-30.3922 2319.65,-22.4315"/>
<polygon fill="midnightblue" stroke="midnightblue" points="2668.04,-70.3891 2678.47,-68.5512 2669.17,-63.4811 2668.04,-70.3891"/>
</g>
<!-- Node27 -->
<g id="node26" class="node"><title>Node27</title>
<g id="a_node26"><a xlink:href="../../dc/d32/auth_2auth-file_2init_8cpp.html" target="_top" xlink:title="src/modules/auth/auth\l&#45;file/init.cpp">
<polygon fill="white" stroke="black" points="2683,-0.5 2683,-30.5 2796,-30.5 2796,-0.5 2683,-0.5"/>
<text text-anchor="start" x="2691" y="-18.5" font-family="Helvetica,sans-Serif" font-size="10.00">src/modules/auth/auth</text>
<text text-anchor="middle" x="2739.5" y="-7.5" font-family="Helvetica,sans-Serif" font-size="10.00">&#45;file/init.cpp</text>
</a>
</g>
</g>
<!-- Node26&#45;&gt;Node27 -->
<g id="edge26" class="edge"><title>Node26&#45;&gt;Node27</title>
<path fill="none" stroke="midnightblue" d="M2739.5,-57.1081C2739.5,-48.1539 2739.5,-38.3227 2739.5,-30.5765"/>
<polygon fill="midnightblue" stroke="midnightblue" points="2736,-57.3959 2739.5,-67.396 2743,-57.396 2736,-57.3959"/>
</g>
<!-- Node32 -->
<g id="node31" class="node"><title>Node32</title>
<g id="a_node31"><a xlink:href="../../dc/d63/tcp-notifier_2init_8cpp.html" target="_top" xlink:title="src/modules/tcp&#45;notifier\l/init.cpp">
<polygon fill="white" stroke="black" points="3232,-134.5 3232,-164.5 3351,-164.5 3351,-134.5 3232,-134.5"/>
<text text-anchor="start" x="3240" y="-152.5" font-family="Helvetica,sans-Serif" font-size="10.00">src/modules/tcp&#45;notifier</text>
<text text-anchor="middle" x="3291.5" y="-141.5" font-family="Helvetica,sans-Serif" font-size="10.00">/init.cpp</text>
</a>
</g>
</g>
<!-- Node31&#45;&gt;Node32 -->
<g id="edge32" class="edge"><title>Node31&#45;&gt;Node32</title>
<path fill="none" stroke="midnightblue" d="M3247.01,-194.311C3256.91,-184.561 3268.39,-173.259 3277.21,-164.577"/>
<polygon fill="midnightblue" stroke="midnightblue" points="3244.49,-191.885 3239.82,-201.396 3249.4,-196.873 3244.49,-191.885"/>
</g>
<!-- Node33 -->
<g id="node32" class="node"><title>Node33</title>
<g id="a_node32"><a xlink:href="../../d0/df4/TcpNotifier_8cpp.html" target="_top" xlink:title="src/modules/tcp&#45;notifier\l/TcpNotifier.cpp">
<polygon fill="white" stroke="black" points="3369,-134.5 3369,-164.5 3488,-164.5 3488,-134.5 3369,-134.5"/>
<text text-anchor="start" x="3377" y="-152.5" font-family="Helvetica,sans-Serif" font-size="10.00">src/modules/tcp&#45;notifier</text>
<text text-anchor="middle" x="3428.5" y="-141.5" font-family="Helvetica,sans-Serif" font-size="10.00">/TcpNotifier.cpp</text>
</a>
</g>
</g>
<!-- Node31&#45;&gt;Node33 -->
<g id="edge33" class="edge"><title>Node31&#45;&gt;Node33</title>
<path fill="none" stroke="midnightblue" d="M3279.44,-198.228C3312.28,-187.713 3353.7,-174.451 3384.54,-164.577"/>
<polygon fill="midnightblue" stroke="midnightblue" points="3278,-195.013 3269.55,-201.396 3280.14,-201.68 3278,-195.013"/>
</g>
</g>
</svg>
