<?xml version="1.0" encoding="UTF-8" standalone="no"?>
<!DOCTYPE svg PUBLIC "-//W3C//DTD SVG 1.1//EN"
 "http://www.w3.org/Graphics/SVG/1.1/DTD/svg11.dtd">
<!-- Generated by graphviz version 2.38.0 (20140413.2041)
 -->
<!-- Title: Leosac::db::MultiplexedTransaction Pages: 1 -->
<svg width="179pt" height="106pt"
 viewBox="0.00 0.00 179.00 106.00" xmlns="http://www.w3.org/2000/svg" xmlns:xlink="http://www.w3.org/1999/xlink">
<g id="graph0" class="graph" transform="scale(1 1) rotate(0) translate(4 102)">
<title>Leosac::db::MultiplexedTransaction</title>
<polygon fill="white" stroke="none" points="-4,4 -4,-102 175,-102 175,4 -4,4"/>
<!-- Node1 -->
<g id="node1" class="node"><title>Node1</title>
<polygon fill="#bfbfbf" stroke="black" points="0,-0.5 0,-19.5 171,-19.5 171,-0.5 0,-0.5"/>
<text text-anchor="middle" x="85.5" y="-7.5" font-family="Helvetica,sans-Serif" font-size="10.00">Leosac::db::MultiplexedTransaction</text>
</g>
<!-- Node2 -->
<g id="node2" class="node"><title>Node2</title>
<polygon fill="white" stroke="#bfbfbf" points="32.5,-67.5 32.5,-97.5 138.5,-97.5 138.5,-67.5 32.5,-67.5"/>
<text text-anchor="start" x="40.5" y="-85.5" font-family="Helvetica,sans-Serif" font-size="10.00">std::unique_ptr&lt; odb</text>
<text text-anchor="middle" x="85.5" y="-74.5" font-family="Helvetica,sans-Serif" font-size="10.00">::transaction &gt;</text>
</g>
<!-- Node2&#45;&gt;Node1 -->
<g id="edge1" class="edge"><title>Node2&#45;&gt;Node1</title>
<path fill="none" stroke="#9a32cd" stroke-dasharray="5,2" d="M85.5,-57.0913C85.5,-44.2136 85.5,-29.1974 85.5,-19.8932"/>
<polygon fill="#9a32cd" stroke="#9a32cd" points="82.0001,-57.2332 85.5,-67.2333 89.0001,-57.2333 82.0001,-57.2332"/>
<text text-anchor="middle" x="114" y="-41" font-family="Helvetica,sans-Serif" font-size="10.00"> transaction_</text>
</g>
</g>
</svg>
