<?xml version="1.0" encoding="UTF-8" standalone="no"?>
<!DOCTYPE svg PUBLIC "-//W3C//DTD SVG 1.1//EN"
 "http://www.w3.org/Graphics/SVG/1.1/DTD/svg11.dtd">
<!-- Generated by graphviz version 2.38.0 (20140413.2041)
 -->
<!-- Title: src/core/CoreUtils.hpp Pages: 1 -->
<svg width="4313pt" height="229pt"
 viewBox="0.00 0.00 4313.00 229.00" xmlns="http://www.w3.org/2000/svg" xmlns:xlink="http://www.w3.org/1999/xlink">
<g id="graph0" class="graph" transform="scale(1 1) rotate(0) translate(4 225)">
<title>src/core/CoreUtils.hpp</title>
<polygon fill="white" stroke="none" points="-4,4 -4,-225 4309,-225 4309,4 -4,4"/>
<!-- Node12 -->
<g id="node1" class="node"><title>Node12</title>
<polygon fill="#bfbfbf" stroke="black" points="2884,-201.5 2884,-220.5 2999,-220.5 2999,-201.5 2884,-201.5"/>
<text text-anchor="middle" x="2941.5" y="-208.5" font-family="Helvetica,sans-Serif" font-size="10.00">src/core/CoreUtils.hpp</text>
</g>
<!-- Node13 -->
<g id="node2" class="node"><title>Node13</title>
<g id="a_node2"><a xlink:href="../../df/db8/kernel_8hpp.html" target="_top" xlink:title="src/core/kernel.hpp">
<polygon fill="white" stroke="black" points="1169.5,-140 1169.5,-159 1269.5,-159 1269.5,-140 1169.5,-140"/>
<text text-anchor="middle" x="1219.5" y="-147" font-family="Helvetica,sans-Serif" font-size="10.00">src/core/kernel.hpp</text>
</a>
</g>
</g>
<!-- Node12&#45;&gt;Node13 -->
<g id="edge1" class="edge"><title>Node12&#45;&gt;Node13</title>
<path fill="none" stroke="midnightblue" d="M2873.62,-207.655C2591.59,-197.91 1515.57,-160.73 1269.72,-152.235"/>
<polygon fill="midnightblue" stroke="midnightblue" points="2873.6,-211.156 2883.71,-208.003 2873.84,-204.16 2873.6,-211.156"/>
</g>
<!-- Node16 -->
<g id="node5" class="node"><title>Node16</title>
<g id="a_node5"><a xlink:href="../../d4/dd4/CoreUtils_8cpp.html" target="_top" xlink:title="src/core/CoreUtils.cpp">
<polygon fill="white" stroke="black" points="0,-73 0,-92 115,-92 115,-73 0,-73"/>
<text text-anchor="middle" x="57.5" y="-80" font-family="Helvetica,sans-Serif" font-size="10.00">src/core/CoreUtils.cpp</text>
</a>
</g>
</g>
<!-- Node12&#45;&gt;Node16 -->
<g id="edge21" class="edge"><title>Node12&#45;&gt;Node16</title>
<path fill="none" stroke="midnightblue" d="M2873.39,-209.762C2539.01,-208.429 1068.82,-200.61 612.5,-165 394.24,-147.967 340.088,-136.07 124.5,-98 114.772,-96.2822 104.31,-94.1541 94.6111,-92.0623"/>
<polygon fill="midnightblue" stroke="midnightblue" points="2873.87,-213.264 2883.88,-209.803 2873.9,-206.264 2873.87,-213.264"/>
</g>
<!-- Node21 -->
<g id="node10" class="node"><title>Node21</title>
<g id="a_node10"><a xlink:href="../../d4/d28/RemoteControl_8cpp.html" target="_top" xlink:title="src/core/RemoteControl.cpp">
<polygon fill="white" stroke="black" points="133.5,-73 133.5,-92 273.5,-92 273.5,-73 133.5,-73"/>
<text text-anchor="middle" x="203.5" y="-80" font-family="Helvetica,sans-Serif" font-size="10.00">src/core/RemoteControl.cpp</text>
</a>
</g>
</g>
<!-- Node12&#45;&gt;Node21 -->
<g id="edge22" class="edge"><title>Node12&#45;&gt;Node21</title>
<path fill="none" stroke="midnightblue" d="M2873.64,-209.529C2637.22,-207.622 1827.85,-198.871 1160.5,-165 769.646,-145.162 670.613,-148.284 282.5,-98 270.331,-96.4233 257.193,-94.2172 245.19,-92.0008"/>
<polygon fill="midnightblue" stroke="midnightblue" points="2873.77,-213.03 2883.8,-209.609 2873.83,-206.03 2873.77,-213.03"/>
</g>
<!-- Node26 -->
<g id="node15" class="node"><title>Node26</title>
<g id="a_node15"><a xlink:href="../../df/dac/AuthDBModule_8cpp.html" target="_top" xlink:title="src/modules/auth/auth\l&#45;db/AuthDBModule.cpp">
<polygon fill="white" stroke="black" points="2107.5,-67.5 2107.5,-97.5 2225.5,-97.5 2225.5,-67.5 2107.5,-67.5"/>
<text text-anchor="start" x="2115.5" y="-85.5" font-family="Helvetica,sans-Serif" font-size="10.00">src/modules/auth/auth</text>
<text text-anchor="middle" x="2166.5" y="-74.5" font-family="Helvetica,sans-Serif" font-size="10.00">&#45;db/AuthDBModule.cpp</text>
</a>
</g>
</g>
<!-- Node12&#45;&gt;Node26 -->
<g id="edge23" class="edge"><title>Node12&#45;&gt;Node26</title>
<path fill="none" stroke="midnightblue" d="M2873.54,-209.853C2770.08,-208.401 2567.36,-200.718 2399.5,-165 2325.52,-149.258 2242.79,-116.482 2198.55,-97.6432"/>
<polygon fill="midnightblue" stroke="midnightblue" points="2873.8,-213.357 2883.84,-209.982 2873.89,-206.357 2873.8,-213.357"/>
</g>
<!-- Node27 -->
<g id="node16" class="node"><title>Node27</title>
<g id="a_node16"><a xlink:href="../../d8/d37/AuthFileModule_8cpp.html" target="_top" xlink:title="src/modules/auth/auth\l&#45;file/AuthFileModule.cpp">
<polygon fill="white" stroke="black" points="2243.5,-67.5 2243.5,-97.5 2365.5,-97.5 2365.5,-67.5 2243.5,-67.5"/>
<text text-anchor="start" x="2251.5" y="-85.5" font-family="Helvetica,sans-Serif" font-size="10.00">src/modules/auth/auth</text>
<text text-anchor="middle" x="2304.5" y="-74.5" font-family="Helvetica,sans-Serif" font-size="10.00">&#45;file/AuthFileModule.cpp</text>
</a>
</g>
</g>
<!-- Node12&#45;&gt;Node27 -->
<g id="edge25" class="edge"><title>Node12&#45;&gt;Node27</title>
<path fill="none" stroke="midnightblue" d="M2873.52,-210.237C2782.98,-208.997 2618.53,-201.297 2483.5,-165 2425.13,-149.311 2361.91,-116.356 2328.44,-97.5113"/>
<polygon fill="midnightblue" stroke="midnightblue" points="2873.62,-213.738 2883.66,-210.353 2873.7,-206.738 2873.62,-213.738"/>
</g>
<!-- Node31 -->
<g id="node20" class="node"><title>Node31</title>
<g id="a_node20"><a xlink:href="../../d9/d8d/APISession_8cpp.html" target="_top" xlink:title="src/modules/websock\l&#45;api/api/APISession.cpp">
<polygon fill="white" stroke="black" points="2383.5,-67.5 2383.5,-97.5 2505.5,-97.5 2505.5,-67.5 2383.5,-67.5"/>
<text text-anchor="start" x="2391.5" y="-85.5" font-family="Helvetica,sans-Serif" font-size="10.00">src/modules/websock</text>
<text text-anchor="middle" x="2444.5" y="-74.5" font-family="Helvetica,sans-Serif" font-size="10.00">&#45;api/api/APISession.cpp</text>
</a>
</g>
</g>
<!-- Node12&#45;&gt;Node31 -->
<g id="edge34" class="edge"><title>Node12&#45;&gt;Node31</title>
<path fill="none" stroke="midnightblue" d="M2873.83,-207.999C2772.59,-204.11 2587.2,-193.271 2527.5,-165 2495.19,-149.701 2467.88,-116.597 2454.1,-97.6229"/>
<polygon fill="midnightblue" stroke="midnightblue" points="2873.84,-211.501 2883.96,-208.375 2874.1,-204.506 2873.84,-211.501"/>
</g>
<!-- Node33 -->
<g id="node22" class="node"><title>Node33</title>
<g id="a_node22"><a xlink:href="../../da/d9b/AuthFileInstance_8cpp.html" target="_top" xlink:title="src/modules/auth/auth\l&#45;file/AuthFileInstance.cpp">
<polygon fill="white" stroke="black" points="2722.5,-134.5 2722.5,-164.5 2850.5,-164.5 2850.5,-134.5 2722.5,-134.5"/>
<text text-anchor="start" x="2730.5" y="-152.5" font-family="Helvetica,sans-Serif" font-size="10.00">src/modules/auth/auth</text>
<text text-anchor="middle" x="2786.5" y="-141.5" font-family="Helvetica,sans-Serif" font-size="10.00">&#45;file/AuthFileInstance.cpp</text>
</a>
</g>
</g>
<!-- Node12&#45;&gt;Node33 -->
<g id="edge24" class="edge"><title>Node12&#45;&gt;Node33</title>
<path fill="none" stroke="midnightblue" d="M2909.84,-197.847C2884.66,-188.182 2849.4,-174.647 2823.03,-164.523"/>
<polygon fill="midnightblue" stroke="midnightblue" points="2908.7,-201.159 2919.29,-201.475 2911.21,-194.624 2908.7,-201.159"/>
</g>
<!-- Node34 -->
<g id="node23" class="node"><title>Node34</title>
<g id="a_node23"><a xlink:href="../../de/d21/BaseModule_8cpp.html" target="_top" xlink:title="src/modules/BaseModule.cpp">
<polygon fill="white" stroke="black" points="2868.5,-140 2868.5,-159 3014.5,-159 3014.5,-140 2868.5,-140"/>
<text text-anchor="middle" x="2941.5" y="-147" font-family="Helvetica,sans-Serif" font-size="10.00">src/modules/BaseModule.cpp</text>
</a>
</g>
</g>
<!-- Node12&#45;&gt;Node34 -->
<g id="edge26" class="edge"><title>Node12&#45;&gt;Node34</title>
<path fill="none" stroke="midnightblue" d="M2941.5,-191.317C2941.5,-180.496 2941.5,-167.398 2941.5,-159.009"/>
<polygon fill="midnightblue" stroke="midnightblue" points="2938,-191.475 2941.5,-201.475 2945,-191.475 2938,-191.475"/>
</g>
<!-- Node35 -->
<g id="node24" class="node"><title>Node35</title>
<g id="a_node24"><a xlink:href="../../d6/d95/PFDigitalModule_8cpp.html" target="_top" xlink:title="src/modules/pifacedigital\l/PFDigitalModule.cpp">
<polygon fill="white" stroke="black" points="2961,-0.5 2961,-30.5 3086,-30.5 3086,-0.5 2961,-0.5"/>
<text text-anchor="start" x="2969" y="-18.5" font-family="Helvetica,sans-Serif" font-size="10.00">src/modules/pifacedigital</text>
<text text-anchor="middle" x="3023.5" y="-7.5" font-family="Helvetica,sans-Serif" font-size="10.00">/PFDigitalModule.cpp</text>
</a>
</g>
</g>
<!-- Node12&#45;&gt;Node35 -->
<g id="edge27" class="edge"><title>Node12&#45;&gt;Node35</title>
<path fill="none" stroke="midnightblue" d="M2873.78,-208.645C2790.53,-204.621 2665.77,-189.495 2713.5,-134 2783.26,-52.8932 2857.55,-149.164 2951.5,-98 2980.68,-82.1082 3003.77,-49.5462 3015.35,-30.7468"/>
<polygon fill="midnightblue" stroke="midnightblue" points="2873.83,-212.15 2883.97,-209.093 2874.13,-205.157 2873.83,-212.15"/>
</g>
<!-- Node36 -->
<g id="node25" class="node"><title>Node36</title>
<g id="a_node25"><a xlink:href="../../db/df9/ReplicationModule_8hpp.html" target="_top" xlink:title="src/modules/replication\l/ReplicationModule.hpp">
<polygon fill="white" stroke="black" points="3033,-134.5 3033,-164.5 3152,-164.5 3152,-134.5 3033,-134.5"/>
<text text-anchor="start" x="3041" y="-152.5" font-family="Helvetica,sans-Serif" font-size="10.00">src/modules/replication</text>
<text text-anchor="middle" x="3092.5" y="-141.5" font-family="Helvetica,sans-Serif" font-size="10.00">/ReplicationModule.hpp</text>
</a>
</g>
</g>
<!-- Node12&#45;&gt;Node36 -->
<g id="edge28" class="edge"><title>Node12&#45;&gt;Node36</title>
<path fill="none" stroke="midnightblue" d="M2972.67,-197.719C2997.17,-188.062 3031.33,-174.602 3056.91,-164.523"/>
<polygon fill="midnightblue" stroke="midnightblue" points="2971.16,-194.553 2963.13,-201.475 2973.72,-201.065 2971.16,-194.553"/>
</g>
<!-- Node38 -->
<g id="node27" class="node"><title>Node38</title>
<g id="a_node27"><a xlink:href="../../d2/dac/ReplicationModule_8cpp.html" target="_top" xlink:title="src/modules/replication\l/ReplicationModule.cpp">
<polygon fill="white" stroke="black" points="3135,-67.5 3135,-97.5 3254,-97.5 3254,-67.5 3135,-67.5"/>
<text text-anchor="start" x="3143" y="-85.5" font-family="Helvetica,sans-Serif" font-size="10.00">src/modules/replication</text>
<text text-anchor="middle" x="3194.5" y="-74.5" font-family="Helvetica,sans-Serif" font-size="10.00">/ReplicationModule.cpp</text>
</a>
</g>
</g>
<!-- Node12&#45;&gt;Node38 -->
<g id="edge31" class="edge"><title>Node12&#45;&gt;Node38</title>
<path fill="none" stroke="midnightblue" d="M3009.25,-203.046C3064.76,-196.111 3137.73,-183.762 3160.5,-165 3181.21,-147.94 3189.49,-116.119 3192.66,-97.6907"/>
<polygon fill="midnightblue" stroke="midnightblue" points="3008.61,-199.598 2999.11,-204.278 3009.45,-206.547 3008.61,-199.598"/>
</g>
<!-- Node39 -->
<g id="node28" class="node"><title>Node39</title>
<g id="a_node28"><a xlink:href="../../da/d6f/SMTPModule_8cpp.html" target="_top" xlink:title="src/modules/smtp/SMTPModule.cpp">
<polygon fill="white" stroke="black" points="3208.5,-140 3208.5,-159 3384.5,-159 3384.5,-140 3208.5,-140"/>
<text text-anchor="middle" x="3296.5" y="-147" font-family="Helvetica,sans-Serif" font-size="10.00">src/modules/smtp/SMTPModule.cpp</text>
</a>
</g>
</g>
<!-- Node12&#45;&gt;Node39 -->
<g id="edge32" class="edge"><title>Node12&#45;&gt;Node39</title>
<path fill="none" stroke="midnightblue" d="M3002.6,-199.759C3071.29,-188.246 3181.59,-169.76 3245.73,-159.009"/>
<polygon fill="midnightblue" stroke="midnightblue" points="3001.65,-196.37 2992.36,-201.475 3002.8,-203.274 3001.65,-196.37"/>
</g>
<!-- Node40 -->
<g id="node29" class="node"><title>Node40</title>
<g id="a_node29"><a xlink:href="../../d7/d86/APIAuth_8cpp.html" target="_top" xlink:title="src/modules/websock\l&#45;api/api/APIAuth.cpp">
<polygon fill="white" stroke="black" points="3402.5,-134.5 3402.5,-164.5 3514.5,-164.5 3514.5,-134.5 3402.5,-134.5"/>
<text text-anchor="start" x="3410.5" y="-152.5" font-family="Helvetica,sans-Serif" font-size="10.00">src/modules/websock</text>
<text text-anchor="middle" x="3458.5" y="-141.5" font-family="Helvetica,sans-Serif" font-size="10.00">&#45;api/api/APIAuth.cpp</text>
</a>
</g>
</g>
<!-- Node12&#45;&gt;Node40 -->
<g id="edge33" class="edge"><title>Node12&#45;&gt;Node40</title>
<path fill="none" stroke="midnightblue" d="M3009.42,-205.795C3098.14,-199.718 3258.13,-186.757 3393.5,-165 3396.35,-164.541 3399.27,-164.034 3402.21,-163.492"/>
<polygon fill="midnightblue" stroke="midnightblue" points="3008.97,-202.318 2999.22,-206.484 3009.44,-209.302 3008.97,-202.318"/>
</g>
<!-- Node41 -->
<g id="node30" class="node"><title>Node41</title>
<g id="a_node30"><a xlink:href="../../da/d62/AuditGet_8cpp.html" target="_top" xlink:title="src/modules/websock\l&#45;api/api/AuditGet.cpp">
<polygon fill="white" stroke="black" points="3532.5,-134.5 3532.5,-164.5 3644.5,-164.5 3644.5,-134.5 3532.5,-134.5"/>
<text text-anchor="start" x="3540.5" y="-152.5" font-family="Helvetica,sans-Serif" font-size="10.00">src/modules/websock</text>
<text text-anchor="middle" x="3588.5" y="-141.5" font-family="Helvetica,sans-Serif" font-size="10.00">&#45;api/api/AuditGet.cpp</text>
</a>
</g>
</g>
<!-- Node12&#45;&gt;Node41 -->
<g id="edge35" class="edge"><title>Node12&#45;&gt;Node41</title>
<path fill="none" stroke="midnightblue" d="M3009.41,-207.883C3118.37,-203.785 3338.77,-192.603 3523.5,-165 3526.36,-164.573 3529.28,-164.091 3532.22,-163.569"/>
<polygon fill="midnightblue" stroke="midnightblue" points="3009.08,-204.393 2999.22,-208.258 3009.34,-211.388 3009.08,-204.393"/>
</g>
<!-- Node42 -->
<g id="node31" class="node"><title>Node42</title>
<g id="a_node31"><a xlink:href="../../d1/d43/Restart_8cpp.html" target="_top" xlink:title="src/modules/websock\l&#45;api/api/Restart.cpp">
<polygon fill="white" stroke="black" points="3662.5,-134.5 3662.5,-164.5 3774.5,-164.5 3774.5,-134.5 3662.5,-134.5"/>
<text text-anchor="start" x="3670.5" y="-152.5" font-family="Helvetica,sans-Serif" font-size="10.00">src/modules/websock</text>
<text text-anchor="middle" x="3718.5" y="-141.5" font-family="Helvetica,sans-Serif" font-size="10.00">&#45;api/api/Restart.cpp</text>
</a>
</g>
</g>
<!-- Node12&#45;&gt;Node42 -->
<g id="edge36" class="edge"><title>Node12&#45;&gt;Node42</title>
<path fill="none" stroke="midnightblue" d="M3009.37,-209.235C3136.42,-207.023 3418.54,-198.423 3653.5,-165 3656.36,-164.593 3659.28,-164.127 3662.23,-163.618"/>
<polygon fill="midnightblue" stroke="midnightblue" points="3008.97,-205.741 2999.03,-209.407 3009.09,-212.74 3008.97,-205.741"/>
</g>
<!-- Node43 -->
<g id="node32" class="node"><title>Node43</title>
<g id="a_node32"><a xlink:href="../../d9/d6b/WebSockAPI_8cpp.html" target="_top" xlink:title="src/modules/websock\l&#45;api/WebSockAPI.cpp">
<polygon fill="white" stroke="black" points="3793,-134.5 3793,-164.5 3906,-164.5 3906,-134.5 3793,-134.5"/>
<text text-anchor="start" x="3801" y="-152.5" font-family="Helvetica,sans-Serif" font-size="10.00">src/modules/websock</text>
<text text-anchor="middle" x="3849.5" y="-141.5" font-family="Helvetica,sans-Serif" font-size="10.00">&#45;api/WebSockAPI.cpp</text>
</a>
</g>
</g>
<!-- Node12&#45;&gt;Node43 -->
<g id="edge37" class="edge"><title>Node12&#45;&gt;Node43</title>
<path fill="none" stroke="midnightblue" d="M3009.64,-210.108C3153.35,-209.513 3497.81,-203.754 3783.5,-165 3786.52,-164.59 3789.61,-164.114 3792.72,-163.589"/>
<polygon fill="midnightblue" stroke="midnightblue" points="3009.22,-206.609 2999.23,-210.143 3009.24,-213.609 3009.22,-206.609"/>
</g>
<!-- Node44 -->
<g id="node33" class="node"><title>Node44</title>
<g id="a_node33"><a xlink:href="../../da/df4/websock-api_2WSHelperThread_8hpp.html" target="_top" xlink:title="src/modules/websock\l&#45;api/WSHelperThread.hpp">
<polygon fill="white" stroke="black" points="2537,-134.5 2537,-164.5 2666,-164.5 2666,-134.5 2537,-134.5"/>
<text text-anchor="start" x="2545" y="-152.5" font-family="Helvetica,sans-Serif" font-size="10.00">src/modules/websock</text>
<text text-anchor="middle" x="2601.5" y="-141.5" font-family="Helvetica,sans-Serif" font-size="10.00">&#45;api/WSHelperThread.hpp</text>
</a>
</g>
</g>
<!-- Node12&#45;&gt;Node44 -->
<g id="edge38" class="edge"><title>Node12&#45;&gt;Node44</title>
<path fill="none" stroke="midnightblue" d="M2881.05,-199.768C2828.13,-190.765 2749.18,-177.224 2680.5,-165 2675.83,-164.169 2671.01,-163.303 2666.16,-162.426"/>
<polygon fill="midnightblue" stroke="midnightblue" points="2880.5,-203.225 2890.95,-201.45 2881.68,-196.324 2880.5,-203.225"/>
</g>
<!-- Node51 -->
<g id="node40" class="node"><title>Node51</title>
<g id="a_node40"><a xlink:href="../../d4/d2c/WSServer_8cpp.html" target="_top" xlink:title="src/modules/websock\l&#45;api/WSServer.cpp">
<polygon fill="white" stroke="black" points="3924.5,-134.5 3924.5,-164.5 4036.5,-164.5 4036.5,-134.5 3924.5,-134.5"/>
<text text-anchor="start" x="3932.5" y="-152.5" font-family="Helvetica,sans-Serif" font-size="10.00">src/modules/websock</text>
<text text-anchor="middle" x="3980.5" y="-141.5" font-family="Helvetica,sans-Serif" font-size="10.00">&#45;api/WSServer.cpp</text>
</a>
</g>
</g>
<!-- Node12&#45;&gt;Node51 -->
<g id="edge48" class="edge"><title>Node12&#45;&gt;Node51</title>
<path fill="none" stroke="midnightblue" d="M3009.2,-210.813C3168.05,-211.864 3576.77,-209.58 3914.5,-165 3917.76,-164.57 3921.09,-164.061 3924.45,-163.495"/>
<polygon fill="midnightblue" stroke="midnightblue" points="3009.13,-207.313 2999.1,-210.74 3009.08,-214.313 3009.13,-207.313"/>
</g>
<!-- Node52 -->
<g id="node41" class="node"><title>Node52</title>
<g id="a_node41"><a xlink:href="../../d8/dfd/TestHelper_8hpp.html" target="_top" xlink:title="test/helper/TestHelper.hpp">
<polygon fill="white" stroke="black" points="4054.5,-140 4054.5,-159 4186.5,-159 4186.5,-140 4054.5,-140"/>
<text text-anchor="middle" x="4120.5" y="-147" font-family="Helvetica,sans-Serif" font-size="10.00">test/helper/TestHelper.hpp</text>
</a>
</g>
</g>
<!-- Node12&#45;&gt;Node52 -->
<g id="edge49" class="edge"><title>Node12&#45;&gt;Node52</title>
<path fill="none" stroke="midnightblue" d="M3009.37,-208.571C3217.24,-203.983 3843.25,-188.538 4045.5,-165 4057.49,-163.605 4070.43,-161.369 4082.13,-159.067"/>
<polygon fill="midnightblue" stroke="midnightblue" points="3009.13,-205.075 2999.21,-208.794 3009.28,-212.074 3009.13,-205.075"/>
</g>
<!-- Node14 -->
<g id="node3" class="node"><title>Node14</title>
<g id="a_node3"><a xlink:href="../../d6/dff/src_2core_2config_2ConfigManager_8cpp.html" target="_top" xlink:title="src/core/config/ConfigManager.cpp">
<polygon fill="white" stroke="black" points="1614,-73 1614,-92 1783,-92 1783,-73 1614,-73"/>
<text text-anchor="middle" x="1698.5" y="-80" font-family="Helvetica,sans-Serif" font-size="10.00">src/core/config/ConfigManager.cpp</text>
</a>
</g>
</g>
<!-- Node13&#45;&gt;Node14 -->
<g id="edge2" class="edge"><title>Node13&#45;&gt;Node14</title>
<path fill="none" stroke="midnightblue" d="M1280.01,-140.993C1355.88,-131.481 1489.93,-114.348 1604.5,-98 1617.41,-96.1573 1631.31,-94.071 1644.35,-92.067"/>
<polygon fill="midnightblue" stroke="midnightblue" points="1279.18,-137.569 1269.69,-142.284 1280.05,-144.515 1279.18,-137.569"/>
</g>
<!-- Node15 -->
<g id="node4" class="node"><title>Node15</title>
<g id="a_node4"><a xlink:href="../../d3/d1e/CoreAPI_8cpp.html" target="_top" xlink:title="src/core/CoreAPI.cpp">
<polygon fill="white" stroke="black" points="1801,-73 1801,-92 1912,-92 1912,-73 1801,-73"/>
<text text-anchor="middle" x="1856.5" y="-80" font-family="Helvetica,sans-Serif" font-size="10.00">src/core/CoreAPI.cpp</text>
</a>
</g>
</g>
<!-- Node13&#45;&gt;Node15 -->
<g id="edge3" class="edge"><title>Node13&#45;&gt;Node15</title>
<path fill="none" stroke="midnightblue" d="M1279.95,-145.779C1384.65,-140.484 1606.3,-126.705 1791.5,-98 1801.55,-96.4416 1812.38,-94.2412 1822.25,-92.0244"/>
<polygon fill="midnightblue" stroke="midnightblue" points="1279.7,-142.287 1269.88,-146.28 1280.05,-149.278 1279.7,-142.287"/>
</g>
<!-- Node13&#45;&gt;Node16 -->
<g id="edge4" class="edge"><title>Node13&#45;&gt;Node16</title>
<path fill="none" stroke="midnightblue" d="M1159.24,-147.048C960.538,-142.053 327.158,-124.414 124.5,-98 113.761,-96.6003 102.19,-94.3634 91.7369,-92.0615"/>
<polygon fill="midnightblue" stroke="midnightblue" points="1159.4,-150.553 1169.49,-147.304 1159.58,-143.556 1159.4,-150.553"/>
</g>
<!-- Node17 -->
<g id="node6" class="node"><title>Node17</title>
<g id="a_node6"><a xlink:href="../../d9/d6a/GetServiceRegistry_8cpp.html" target="_top" xlink:title="src/core/GetServiceRegistry.cpp">
<polygon fill="white" stroke="black" points="1930,-73 1930,-92 2089,-92 2089,-73 1930,-73"/>
<text text-anchor="middle" x="2009.5" y="-80" font-family="Helvetica,sans-Serif" font-size="10.00">src/core/GetServiceRegistry.cpp</text>
</a>
</g>
</g>
<!-- Node13&#45;&gt;Node17 -->
<g id="edge5" class="edge"><title>Node13&#45;&gt;Node17</title>
<path fill="none" stroke="midnightblue" d="M1280.02,-145.969C1401.67,-140.477 1684.4,-125.681 1920.5,-98 1934.03,-96.414 1948.64,-94.2314 1962.04,-92.0407"/>
<polygon fill="midnightblue" stroke="midnightblue" points="1279.63,-142.483 1269.8,-146.425 1279.94,-149.476 1279.63,-142.483"/>
</g>
<!-- Node18 -->
<g id="node7" class="node"><title>Node18</title>
<g id="a_node7"><a xlink:href="../../dd/d24/kernel_8cpp.html" target="_top" xlink:title="src/core/kernel.cpp">
<polygon fill="white" stroke="black" points="291.5,-73 291.5,-92 391.5,-92 391.5,-73 291.5,-73"/>
<text text-anchor="middle" x="341.5" y="-80" font-family="Helvetica,sans-Serif" font-size="10.00">src/core/kernel.cpp</text>
</a>
</g>
</g>
<!-- Node13&#45;&gt;Node18 -->
<g id="edge6" class="edge"><title>Node13&#45;&gt;Node18</title>
<path fill="none" stroke="midnightblue" d="M1159.09,-148.469C1022.9,-147.595 681.872,-140.895 400.5,-98 391.011,-96.5534 380.813,-94.3031 371.609,-92.0032"/>
<polygon fill="midnightblue" stroke="midnightblue" points="1159.29,-151.97 1169.31,-148.526 1159.33,-144.97 1159.29,-151.97"/>
</g>
<!-- Node19 -->
<g id="node8" class="node"><title>Node19</title>
<g id="a_node8"><a xlink:href="../../d9/d4a/module__manager_8cpp.html" target="_top" xlink:title="src/core/module_manager.cpp">
<polygon fill="white" stroke="black" points="409.5,-73 409.5,-92 557.5,-92 557.5,-73 409.5,-73"/>
<text text-anchor="middle" x="483.5" y="-80" font-family="Helvetica,sans-Serif" font-size="10.00">src/core/module_manager.cpp</text>
</a>
</g>
</g>
<!-- Node13&#45;&gt;Node19 -->
<g id="edge7" class="edge"><title>Node13&#45;&gt;Node19</title>
<path fill="none" stroke="midnightblue" d="M1159.02,-145.518C1044.21,-139.472 786.861,-124.086 571.5,-98 558.281,-96.3988 544.012,-94.237 530.891,-92.072"/>
<polygon fill="midnightblue" stroke="midnightblue" points="1159.19,-149.031 1169.35,-146.057 1159.55,-142.04 1159.19,-149.031"/>
</g>
<!-- Node20 -->
<g id="node9" class="node"><title>Node20</title>
<g id="a_node9"><a xlink:href="../../d2/d2a/networkconfig_8cpp.html" target="_top" xlink:title="NetworkConfig class implementation. ">
<polygon fill="white" stroke="black" points="789,-67.5 789,-97.5 888,-97.5 888,-67.5 789,-67.5"/>
<text text-anchor="start" x="797" y="-85.5" font-family="Helvetica,sans-Serif" font-size="10.00">src/core/netconfig</text>
<text text-anchor="middle" x="838.5" y="-74.5" font-family="Helvetica,sans-Serif" font-size="10.00">/networkconfig.cpp</text>
</a>
</g>
</g>
<!-- Node13&#45;&gt;Node20 -->
<g id="edge8" class="edge"><title>Node13&#45;&gt;Node20</title>
<path fill="none" stroke="midnightblue" d="M1159.37,-140.746C1094.29,-131.97 987.582,-116.467 896.5,-98 893.753,-97.4431 890.941,-96.8425 888.107,-96.2134"/>
<polygon fill="midnightblue" stroke="midnightblue" points="1159.08,-144.237 1169.45,-142.096 1160.01,-137.299 1159.08,-144.237"/>
</g>
<!-- Node13&#45;&gt;Node21 -->
<g id="edge9" class="edge"><title>Node13&#45;&gt;Node21</title>
<path fill="none" stroke="midnightblue" d="M1158.96,-147.91C1009.59,-145.875 611.714,-136.923 282.5,-98 270.037,-96.5265 256.573,-94.2969 244.352,-92.025"/>
<polygon fill="midnightblue" stroke="midnightblue" points="1159.24,-151.414 1169.28,-148.045 1159.33,-144.415 1159.24,-151.414"/>
</g>
<!-- Node22 -->
<g id="node11" class="node"><title>Node22</title>
<g id="a_node11"><a xlink:href="../../df/dca/GetLocalConfigVersion_8cpp.html" target="_top" xlink:title="src/core/tasks/GetLocalConfig\lVersion.cpp">
<polygon fill="white" stroke="black" points="906,-67.5 906,-97.5 1055,-97.5 1055,-67.5 906,-67.5"/>
<text text-anchor="start" x="914" y="-85.5" font-family="Helvetica,sans-Serif" font-size="10.00">src/core/tasks/GetLocalConfig</text>
<text text-anchor="middle" x="980.5" y="-74.5" font-family="Helvetica,sans-Serif" font-size="10.00">Version.cpp</text>
</a>
</g>
</g>
<!-- Node13&#45;&gt;Node22 -->
<g id="edge10" class="edge"><title>Node13&#45;&gt;Node22</title>
<path fill="none" stroke="midnightblue" d="M1177.94,-137.198C1137.43,-126.179 1075.71,-109.394 1032.08,-97.5281"/>
<polygon fill="midnightblue" stroke="midnightblue" points="1177.19,-140.621 1187.76,-139.869 1179.03,-133.867 1177.19,-140.621"/>
</g>
<!-- Node23 -->
<g id="node12" class="node"><title>Node23</title>
<g id="a_node12"><a xlink:href="../../d7/d6f/GetRemoteConfigVersion_8cpp.html" target="_top" xlink:title="src/core/tasks/GetRemote\lConfigVersion.cpp">
<polygon fill="white" stroke="black" points="1073.5,-67.5 1073.5,-97.5 1205.5,-97.5 1205.5,-67.5 1073.5,-67.5"/>
<text text-anchor="start" x="1081.5" y="-85.5" font-family="Helvetica,sans-Serif" font-size="10.00">src/core/tasks/GetRemote</text>
<text text-anchor="middle" x="1139.5" y="-74.5" font-family="Helvetica,sans-Serif" font-size="10.00">ConfigVersion.cpp</text>
</a>
</g>
</g>
<!-- Node13&#45;&gt;Node23 -->
<g id="edge11" class="edge"><title>Node13&#45;&gt;Node23</title>
<path fill="none" stroke="midnightblue" d="M1200.71,-133.237C1187.44,-122.452 1169.78,-108.102 1156.84,-97.589"/>
<polygon fill="midnightblue" stroke="midnightblue" points="1198.74,-136.144 1208.71,-139.734 1203.16,-130.711 1198.74,-136.144"/>
</g>
<!-- Node24 -->
<g id="node13" class="node"><title>Node24</title>
<g id="a_node13"><a xlink:href="../../d5/d8e/SyncConfig_8cpp.html" target="_top" xlink:title="src/core/tasks/SyncConfig.cpp">
<polygon fill="white" stroke="black" points="1223.5,-73 1223.5,-92 1375.5,-92 1375.5,-73 1223.5,-73"/>
<text text-anchor="middle" x="1299.5" y="-80" font-family="Helvetica,sans-Serif" font-size="10.00">src/core/tasks/SyncConfig.cpp</text>
</a>
</g>
</g>
<!-- Node13&#45;&gt;Node24 -->
<g id="edge12" class="edge"><title>Node13&#45;&gt;Node24</title>
<path fill="none" stroke="midnightblue" d="M1238.31,-133.213C1254.08,-120.407 1276.01,-102.588 1288.88,-92.1273"/>
<polygon fill="midnightblue" stroke="midnightblue" points="1235.84,-130.711 1230.29,-139.734 1240.26,-136.144 1235.84,-130.711"/>
</g>
<!-- Node25 -->
<g id="node14" class="node"><title>Node25</title>
<g id="a_node14"><a xlink:href="../../df/d0a/main_8cpp.html" target="_top" xlink:title="standard main ">
<polygon fill="white" stroke="black" points="1394,-73 1394,-92 1467,-92 1467,-73 1394,-73"/>
<text text-anchor="middle" x="1430.5" y="-80" font-family="Helvetica,sans-Serif" font-size="10.00">src/main.cpp</text>
</a>
</g>
</g>
<!-- Node13&#45;&gt;Node25 -->
<g id="edge13" class="edge"><title>Node13&#45;&gt;Node25</title>
<path fill="none" stroke="midnightblue" d="M1257.37,-137.007C1290.83,-126.829 1340.94,-111.53 1384.5,-98 1390.58,-96.1122 1397.1,-94.0673 1403.27,-92.125"/>
<polygon fill="midnightblue" stroke="midnightblue" points="1256.1,-133.736 1247.55,-139.993 1258.13,-140.433 1256.1,-133.736"/>
</g>
<!-- Node13&#45;&gt;Node26 -->
<g id="edge14" class="edge"><title>Node13&#45;&gt;Node26</title>
<path fill="none" stroke="midnightblue" d="M1280.04,-148.131C1422.95,-146.582 1792.23,-138.623 2097.5,-98 2100.65,-97.5802 2103.88,-97.0961 2107.13,-96.5651"/>
<polygon fill="midnightblue" stroke="midnightblue" points="1279.7,-144.634 1269.74,-148.235 1279.78,-151.633 1279.7,-144.634"/>
</g>
<!-- Node13&#45;&gt;Node27 -->
<g id="edge15" class="edge"><title>Node13&#45;&gt;Node27</title>
<path fill="none" stroke="midnightblue" d="M1280.08,-148.74C1437.92,-148.664 1874.59,-143.95 2234.5,-98 2237.33,-97.6385 2240.22,-97.2249 2243.13,-96.7715"/>
<polygon fill="midnightblue" stroke="midnightblue" points="1279.64,-145.24 1269.64,-148.739 1279.64,-152.24 1279.64,-145.24"/>
</g>
<!-- Node28 -->
<g id="node17" class="node"><title>Node28</title>
<g id="a_node17"><a xlink:href="../../d0/d58/DoormanModule_8cpp.html" target="_top" xlink:title="src/modules/doorman\l/DoormanModule.cpp">
<polygon fill="white" stroke="black" points="1485.5,-67.5 1485.5,-97.5 1595.5,-97.5 1595.5,-67.5 1485.5,-67.5"/>
<text text-anchor="start" x="1493.5" y="-85.5" font-family="Helvetica,sans-Serif" font-size="10.00">src/modules/doorman</text>
<text text-anchor="middle" x="1540.5" y="-74.5" font-family="Helvetica,sans-Serif" font-size="10.00">/DoormanModule.cpp</text>
</a>
</g>
</g>
<!-- Node13&#45;&gt;Node28 -->
<g id="edge16" class="edge"><title>Node13&#45;&gt;Node28</title>
<path fill="none" stroke="midnightblue" d="M1274.42,-138.074C1326.31,-128.125 1406.3,-112.542 1475.5,-98 1478.67,-97.3342 1481.92,-96.6407 1485.2,-95.9333"/>
<polygon fill="midnightblue" stroke="midnightblue" points="1273.59,-134.669 1264.43,-139.986 1274.91,-141.544 1273.59,-134.669"/>
</g>
<!-- Node29 -->
<g id="node18" class="node"><title>Node29</title>
<g id="a_node18"><a xlink:href="../../d7/d36/LEDBuzzerModule_8cpp.html" target="_top" xlink:title="src/modules/led&#45;buzzer\l/LEDBuzzerModule.cpp">
<polygon fill="white" stroke="black" points="1391.5,-0.5 1391.5,-30.5 1511.5,-30.5 1511.5,-0.5 1391.5,-0.5"/>
<text text-anchor="start" x="1399.5" y="-18.5" font-family="Helvetica,sans-Serif" font-size="10.00">src/modules/led&#45;buzzer</text>
<text text-anchor="middle" x="1451.5" y="-7.5" font-family="Helvetica,sans-Serif" font-size="10.00">/LEDBuzzerModule.cpp</text>
</a>
</g>
</g>
<!-- Node13&#45;&gt;Node29 -->
<g id="edge17" class="edge"><title>Node13&#45;&gt;Node29</title>
<path fill="none" stroke="midnightblue" d="M1158.98,-148.033C1012.13,-146.274 646.225,-137.891 609.5,-98 600.168,-87.8637 600.054,-77.0298 609.5,-67 636.279,-38.5663 1203.37,-22.4482 1391.47,-17.869"/>
<polygon fill="midnightblue" stroke="midnightblue" points="1159.13,-151.535 1169.17,-148.149 1159.21,-144.536 1159.13,-151.535"/>
</g>
<!-- Node30 -->
<g id="node19" class="node"><title>Node30</title>
<g id="a_node19"><a xlink:href="../../da/d77/SysFsGpioModule_8cpp.html" target="_top" xlink:title="src/modules/sysfsgpio\l/SysFsGpioModule.cpp">
<polygon fill="white" stroke="black" points="652,-67.5 652,-97.5 771,-97.5 771,-67.5 652,-67.5"/>
<text text-anchor="start" x="660" y="-85.5" font-family="Helvetica,sans-Serif" font-size="10.00">src/modules/sysfsgpio</text>
<text text-anchor="middle" x="711.5" y="-74.5" font-family="Helvetica,sans-Serif" font-size="10.00">/SysFsGpioModule.cpp</text>
</a>
</g>
</g>
<!-- Node13&#45;&gt;Node30 -->
<g id="edge18" class="edge"><title>Node13&#45;&gt;Node30</title>
<path fill="none" stroke="midnightblue" d="M1159.49,-143.449C1074.55,-135.884 914.579,-120.101 779.5,-98 776.76,-97.5517 773.964,-97.0669 771.143,-96.5558"/>
<polygon fill="midnightblue" stroke="midnightblue" points="1159.2,-146.937 1169.47,-144.331 1159.81,-139.964 1159.2,-146.937"/>
</g>
<!-- Node13&#45;&gt;Node31 -->
<g id="edge19" class="edge"><title>Node13&#45;&gt;Node31</title>
<path fill="none" stroke="midnightblue" d="M1279.59,-147.148C1485.15,-142.325 2159.42,-124.802 2374.5,-98 2377.33,-97.647 2380.22,-97.2404 2383.13,-96.7927"/>
<polygon fill="midnightblue" stroke="midnightblue" points="1279.5,-143.649 1269.58,-147.382 1279.66,-150.648 1279.5,-143.649"/>
</g>
<!-- Node32 -->
<g id="node21" class="node"><title>Node32</title>
<g id="a_node21"><a xlink:href="../../d3/de8/wiegand_8cpp.html" target="_top" xlink:title="src/modules/wiegand\l/wiegand.cpp">
<polygon fill="white" stroke="black" points="2544,-0.5 2544,-30.5 2653,-30.5 2653,-0.5 2544,-0.5"/>
<text text-anchor="start" x="2552" y="-18.5" font-family="Helvetica,sans-Serif" font-size="10.00">src/modules/wiegand</text>
<text text-anchor="middle" x="2598.5" y="-7.5" font-family="Helvetica,sans-Serif" font-size="10.00">/wiegand.cpp</text>
</a>
</g>
</g>
<!-- Node13&#45;&gt;Node32 -->
<g id="edge20" class="edge"><title>Node13&#45;&gt;Node32</title>
<path fill="none" stroke="midnightblue" d="M1159.19,-148.899C997.016,-148.986 568.706,-142.211 642.5,-67 679.314,-29.479 2482.32,-37.3403 2534.5,-31 2537.55,-30.629 2540.67,-30.1749 2543.82,-29.6595"/>
<polygon fill="midnightblue" stroke="midnightblue" points="1159.48,-152.399 1169.47,-148.884 1159.47,-145.399 1159.48,-152.399"/>
</g>
<!-- Node37 -->
<g id="node26" class="node"><title>Node37</title>
<g id="a_node26"><a xlink:href="../../d5/d63/replication_2init_8cpp.html" target="_top" xlink:title="src/modules/replication\l/init.cpp">
<polygon fill="white" stroke="black" points="3000,-67.5 3000,-97.5 3117,-97.5 3117,-67.5 3000,-67.5"/>
<text text-anchor="start" x="3008" y="-85.5" font-family="Helvetica,sans-Serif" font-size="10.00">src/modules/replication</text>
<text text-anchor="middle" x="3058.5" y="-74.5" font-family="Helvetica,sans-Serif" font-size="10.00">/init.cpp</text>
</a>
</g>
</g>
<!-- Node36&#45;&gt;Node37 -->
<g id="edge29" class="edge"><title>Node36&#45;&gt;Node37</title>
<path fill="none" stroke="midnightblue" d="M3080.36,-125.283C3075.51,-116.022 3070.09,-105.663 3065.86,-97.5765"/>
<polygon fill="midnightblue" stroke="midnightblue" points="3077.39,-127.157 3085.12,-134.396 3083.59,-123.913 3077.39,-127.157"/>
</g>
<!-- Node36&#45;&gt;Node38 -->
<g id="edge30" class="edge"><title>Node36&#45;&gt;Node38</title>
<path fill="none" stroke="midnightblue" d="M3123.08,-129.015C3138.95,-118.9 3157.98,-106.77 3172.41,-97.5765"/>
<polygon fill="midnightblue" stroke="midnightblue" points="3121.18,-126.07 3114.63,-134.396 3124.95,-131.973 3121.18,-126.07"/>
</g>
<!-- Node45 -->
<g id="node34" class="node"><title>Node45</title>
<g id="a_node34"><a xlink:href="../../dc/d31/led-buzzer_2ws_2WSHelperThread_8hpp.html" target="_top" xlink:title="src/modules/led&#45;buzzer\l/ws/WSHelperThread.hpp">
<polygon fill="white" stroke="black" points="2524,-67.5 2524,-97.5 2653,-97.5 2653,-67.5 2524,-67.5"/>
<text text-anchor="start" x="2532" y="-85.5" font-family="Helvetica,sans-Serif" font-size="10.00">src/modules/led&#45;buzzer</text>
<text text-anchor="middle" x="2588.5" y="-74.5" font-family="Helvetica,sans-Serif" font-size="10.00">/ws/WSHelperThread.hpp</text>
</a>
</g>
</g>
<!-- Node44&#45;&gt;Node45 -->
<g id="edge39" class="edge"><title>Node44&#45;&gt;Node45</title>
<path fill="none" stroke="midnightblue" d="M2596.68,-124.403C2594.87,-115.37 2592.88,-105.408 2591.32,-97.5765"/>
<polygon fill="midnightblue" stroke="midnightblue" points="2593.29,-125.277 2598.68,-134.396 2600.15,-123.904 2593.29,-125.277"/>
</g>
<!-- Node47 -->
<g id="node36" class="node"><title>Node47</title>
<g id="a_node36"><a xlink:href="../../d7/d36/PFDigitalModule_8hpp.html" target="_top" xlink:title="src/modules/pifacedigital\l/PFDigitalModule.hpp">
<polygon fill="white" stroke="black" points="2818,-67.5 2818,-97.5 2943,-97.5 2943,-67.5 2818,-67.5"/>
<text text-anchor="start" x="2826" y="-85.5" font-family="Helvetica,sans-Serif" font-size="10.00">src/modules/pifacedigital</text>
<text text-anchor="middle" x="2880.5" y="-74.5" font-family="Helvetica,sans-Serif" font-size="10.00">/PFDigitalModule.hpp</text>
</a>
</g>
</g>
<!-- Node44&#45;&gt;Node47 -->
<g id="edge42" class="edge"><title>Node44&#45;&gt;Node47</title>
<path fill="none" stroke="midnightblue" d="M2671.53,-132.186C2717.22,-121.54 2776.27,-107.784 2819.93,-97.6109"/>
<polygon fill="midnightblue" stroke="midnightblue" points="2670.64,-128.798 2661.7,-134.476 2672.23,-135.616 2670.64,-128.798"/>
</g>
<!-- Node49 -->
<g id="node38" class="node"><title>Node49</title>
<g id="a_node38"><a xlink:href="../../d4/df3/wiegand_2ws_2WSHelperThread_8hpp.html" target="_top" xlink:title="src/modules/wiegand\l/ws/WSHelperThread.hpp">
<polygon fill="white" stroke="black" points="2671,-67.5 2671,-97.5 2800,-97.5 2800,-67.5 2671,-67.5"/>
<text text-anchor="start" x="2679" y="-85.5" font-family="Helvetica,sans-Serif" font-size="10.00">src/modules/wiegand</text>
<text text-anchor="middle" x="2735.5" y="-74.5" font-family="Helvetica,sans-Serif" font-size="10.00">/ws/WSHelperThread.hpp</text>
</a>
</g>
</g>
<!-- Node44&#45;&gt;Node49 -->
<g id="edge45" class="edge"><title>Node44&#45;&gt;Node49</title>
<path fill="none" stroke="midnightblue" d="M2639.65,-129.992C2660.89,-119.689 2686.91,-107.068 2706.48,-97.5765"/>
<polygon fill="midnightblue" stroke="midnightblue" points="2638.05,-126.882 2630.58,-134.396 2641.1,-133.181 2638.05,-126.882"/>
</g>
<!-- Node45&#45;&gt;Node29 -->
<g id="edge40" class="edge"><title>Node45&#45;&gt;Node29</title>
<path fill="none" stroke="midnightblue" d="M2513.63,-67.0289C2126.97,-20.954 1672.75,-16.3844 1511.7,-16.29"/>
<polygon fill="midnightblue" stroke="midnightblue" points="2513.27,-70.5102 2523.61,-68.2295 2514.1,-63.5603 2513.27,-70.5102"/>
</g>
<!-- Node46 -->
<g id="node35" class="node"><title>Node46</title>
<g id="a_node35"><a xlink:href="../../dd/d4b/led-buzzer_2ws_2WSHelperThread_8cpp.html" target="_top" xlink:title="src/modules/led&#45;buzzer\l/ws/WSHelperThread.cpp">
<polygon fill="white" stroke="black" points="2397,-0.5 2397,-30.5 2526,-30.5 2526,-0.5 2397,-0.5"/>
<text text-anchor="start" x="2405" y="-18.5" font-family="Helvetica,sans-Serif" font-size="10.00">src/modules/led&#45;buzzer</text>
<text text-anchor="middle" x="2461.5" y="-7.5" font-family="Helvetica,sans-Serif" font-size="10.00">/ws/WSHelperThread.cpp</text>
</a>
</g>
</g>
<!-- Node45&#45;&gt;Node46 -->
<g id="edge41" class="edge"><title>Node45&#45;&gt;Node46</title>
<path fill="none" stroke="midnightblue" d="M2551.8,-62.7143C2531.77,-52.4631 2507.38,-39.9826 2489,-30.5765"/>
<polygon fill="midnightblue" stroke="midnightblue" points="2550.45,-65.9555 2560.94,-67.396 2553.64,-59.7242 2550.45,-65.9555"/>
</g>
<!-- Node47&#45;&gt;Node35 -->
<g id="edge44" class="edge"><title>Node47&#45;&gt;Node35</title>
<path fill="none" stroke="midnightblue" d="M2920.91,-63.1305C2943.63,-52.8025 2971.56,-40.1103 2992.53,-30.5765"/>
<polygon fill="midnightblue" stroke="midnightblue" points="2919.18,-60.0716 2911.53,-67.396 2922.08,-66.4442 2919.18,-60.0716"/>
</g>
<!-- Node48 -->
<g id="node37" class="node"><title>Node48</title>
<g id="a_node37"><a xlink:href="../../d6/d6d/pifacedigital_2init_8cpp.html" target="_top" xlink:title="src/modules/pifacedigital\l/init.cpp">
<polygon fill="white" stroke="black" points="2818,-0.5 2818,-30.5 2943,-30.5 2943,-0.5 2818,-0.5"/>
<text text-anchor="start" x="2826" y="-18.5" font-family="Helvetica,sans-Serif" font-size="10.00">src/modules/pifacedigital</text>
<text text-anchor="middle" x="2880.5" y="-7.5" font-family="Helvetica,sans-Serif" font-size="10.00">/init.cpp</text>
</a>
</g>
</g>
<!-- Node47&#45;&gt;Node48 -->
<g id="edge43" class="edge"><title>Node47&#45;&gt;Node48</title>
<path fill="none" stroke="midnightblue" d="M2880.5,-57.1081C2880.5,-48.1539 2880.5,-38.3227 2880.5,-30.5765"/>
<polygon fill="midnightblue" stroke="midnightblue" points="2877,-57.3959 2880.5,-67.396 2884,-57.396 2877,-57.3959"/>
</g>
<!-- Node49&#45;&gt;Node32 -->
<g id="edge46" class="edge"><title>Node49&#45;&gt;Node32</title>
<path fill="none" stroke="midnightblue" d="M2696.49,-62.9921C2674.78,-52.6892 2648.17,-40.0677 2628.17,-30.5765"/>
<polygon fill="midnightblue" stroke="midnightblue" points="2695.24,-66.2715 2705.77,-67.396 2698.24,-59.9472 2695.24,-66.2715"/>
</g>
<!-- Node50 -->
<g id="node39" class="node"><title>Node50</title>
<g id="a_node39"><a xlink:href="../../d8/d9e/wiegand_2ws_2WSHelperThread_8cpp.html" target="_top" xlink:title="src/modules/wiegand\l/ws/WSHelperThread.cpp">
<polygon fill="white" stroke="black" points="2671,-0.5 2671,-30.5 2800,-30.5 2800,-0.5 2671,-0.5"/>
<text text-anchor="start" x="2679" y="-18.5" font-family="Helvetica,sans-Serif" font-size="10.00">src/modules/wiegand</text>
<text text-anchor="middle" x="2735.5" y="-7.5" font-family="Helvetica,sans-Serif" font-size="10.00">/ws/WSHelperThread.cpp</text>
</a>
</g>
</g>
<!-- Node49&#45;&gt;Node50 -->
<g id="edge47" class="edge"><title>Node49&#45;&gt;Node50</title>
<path fill="none" stroke="midnightblue" d="M2735.5,-57.1081C2735.5,-48.1539 2735.5,-38.3227 2735.5,-30.5765"/>
<polygon fill="midnightblue" stroke="midnightblue" points="2732,-57.3959 2735.5,-67.396 2739,-57.396 2732,-57.3959"/>
</g>
<!-- Node53 -->
<g id="node42" class="node"><title>Node53</title>
<g id="a_node42"><a xlink:href="../../d9/d21/Led_8cpp.html" target="_top" xlink:title="test/Led.cpp">
<polygon fill="white" stroke="black" points="3990,-73 3990,-92 4061,-92 4061,-73 3990,-73"/>
<text text-anchor="middle" x="4025.5" y="-80" font-family="Helvetica,sans-Serif" font-size="10.00">test/Led.cpp</text>
</a>
</g>
</g>
<!-- Node52&#45;&gt;Node53 -->
<g id="edge50" class="edge"><title>Node52&#45;&gt;Node53</title>
<path fill="none" stroke="midnightblue" d="M4099.19,-133.92C4080.41,-121.069 4053.68,-102.782 4038.11,-92.1273"/>
<polygon fill="midnightblue" stroke="midnightblue" points="4097.46,-136.976 4107.69,-139.734 4101.41,-131.198 4097.46,-136.976"/>
</g>
<!-- Node54 -->
<g id="node43" class="node"><title>Node54</title>
<g id="a_node43"><a xlink:href="../../db/d44/Rpleth_8cpp.html" target="_top" xlink:title="test/Rpleth.cpp">
<polygon fill="white" stroke="black" points="4079,-73 4079,-92 4162,-92 4162,-73 4079,-73"/>
<text text-anchor="middle" x="4120.5" y="-80" font-family="Helvetica,sans-Serif" font-size="10.00">test/Rpleth.cpp</text>
</a>
</g>
</g>
<!-- Node52&#45;&gt;Node54 -->
<g id="edge51" class="edge"><title>Node52&#45;&gt;Node54</title>
<path fill="none" stroke="midnightblue" d="M4120.5,-129.537C4120.5,-117.17 4120.5,-101.62 4120.5,-92.1273"/>
<polygon fill="midnightblue" stroke="midnightblue" points="4117,-129.734 4120.5,-139.734 4124,-129.734 4117,-129.734"/>
</g>
<!-- Node55 -->
<g id="node44" class="node"><title>Node55</title>
<g id="a_node44"><a xlink:href="../../d4/d9b/WiegandReader_8cpp.html" target="_top" xlink:title="test/WiegandReader.cpp">
<polygon fill="white" stroke="black" points="4180,-73 4180,-92 4305,-92 4305,-73 4180,-73"/>
<text text-anchor="middle" x="4242.5" y="-80" font-family="Helvetica,sans-Serif" font-size="10.00">test/WiegandReader.cpp</text>
</a>
</g>
</g>
<!-- Node52&#45;&gt;Node55 -->
<g id="edge52" class="edge"><title>Node52&#45;&gt;Node55</title>
<path fill="none" stroke="midnightblue" d="M4145.64,-135.103C4169.81,-122.231 4205.6,-103.16 4226.23,-92.1672"/>
<polygon fill="midnightblue" stroke="midnightblue" points="4143.88,-132.077 4136.7,-139.869 4147.17,-138.255 4143.88,-132.077"/>
</g>
</g>
</svg>
