<?xml version="1.0" encoding="UTF-8" standalone="no"?>
<!DOCTYPE svg PUBLIC "-//W3C//DTD SVG 1.1//EN"
 "http://www.w3.org/Graphics/SVG/1.1/DTD/svg11.dtd">
<!-- Generated by graphviz version 2.38.0 (20140413.2041)
 -->
<!-- Title: src/modules/websock&#45;api/Messages.hpp Pages: 1 -->
<svg width="1936pt" height="240pt"
 viewBox="0.00 0.00 1936.00 240.00" xmlns="http://www.w3.org/2000/svg" xmlns:xlink="http://www.w3.org/1999/xlink">
<g id="graph0" class="graph" transform="scale(1 1) rotate(0) translate(4 236)">
<title>src/modules/websock&#45;api/Messages.hpp</title>
<polygon fill="white" stroke="none" points="-4,4 -4,-236 1932,-236 1932,4 -4,4"/>
<!-- Node9 -->
<g id="node1" class="node"><title>Node9</title>
<polygon fill="#bfbfbf" stroke="black" points="257,-201.5 257,-231.5 369,-231.5 369,-201.5 257,-201.5"/>
<text text-anchor="start" x="265" y="-219.5" font-family="Helvetica,sans-Serif" font-size="10.00">src/modules/websock</text>
<text text-anchor="middle" x="313" y="-208.5" font-family="Helvetica,sans-Serif" font-size="10.00">&#45;api/Messages.hpp</text>
</g>
<!-- Node10 -->
<g id="node2" class="node"><title>Node10</title>
<g id="a_node2"><a xlink:href="../../d6/d95/PFDigitalModule_8cpp.html" target="_top" xlink:title="src/modules/pifacedigital\l/PFDigitalModule.cpp">
<polygon fill="white" stroke="black" points="99.5,-134.5 99.5,-164.5 224.5,-164.5 224.5,-134.5 99.5,-134.5"/>
<text text-anchor="start" x="107.5" y="-152.5" font-family="Helvetica,sans-Serif" font-size="10.00">src/modules/pifacedigital</text>
<text text-anchor="middle" x="162" y="-141.5" font-family="Helvetica,sans-Serif" font-size="10.00">/PFDigitalModule.cpp</text>
</a>
</g>
</g>
<!-- Node9&#45;&gt;Node10 -->
<g id="edge1" class="edge"><title>Node9&#45;&gt;Node10</title>
<path fill="none" stroke="midnightblue" d="M270.968,-197.407C246.861,-187.029 217.046,-174.195 194.701,-164.577"/>
<polygon fill="midnightblue" stroke="midnightblue" points="269.666,-200.657 280.235,-201.396 272.434,-194.227 269.666,-200.657"/>
</g>
<!-- Node11 -->
<g id="node3" class="node"><title>Node11</title>
<g id="a_node3"><a xlink:href="../../d7/d6d/ExceptionConverter_8hpp.html" target="_top" xlink:title="src/modules/websock\l&#45;api/ExceptionConverter.hpp">
<polygon fill="white" stroke="black" points="243,-134.5 243,-164.5 383,-164.5 383,-134.5 243,-134.5"/>
<text text-anchor="start" x="251" y="-152.5" font-family="Helvetica,sans-Serif" font-size="10.00">src/modules/websock</text>
<text text-anchor="middle" x="313" y="-141.5" font-family="Helvetica,sans-Serif" font-size="10.00">&#45;api/ExceptionConverter.hpp</text>
</a>
</g>
</g>
<!-- Node9&#45;&gt;Node11 -->
<g id="edge2" class="edge"><title>Node9&#45;&gt;Node11</title>
<path fill="none" stroke="midnightblue" d="M313,-191.108C313,-182.154 313,-172.323 313,-164.577"/>
<polygon fill="midnightblue" stroke="midnightblue" points="309.5,-191.396 313,-201.396 316.5,-191.396 309.5,-191.396"/>
</g>
<!-- Node15 -->
<g id="node7" class="node"><title>Node15</title>
<g id="a_node7"><a xlink:href="../../d5/dde/WSServer_8hpp.html" target="_top" xlink:title="src/modules/websock\l&#45;api/WSServer.hpp">
<polygon fill="white" stroke="black" points="1034,-134.5 1034,-164.5 1146,-164.5 1146,-134.5 1034,-134.5"/>
<text text-anchor="start" x="1042" y="-152.5" font-family="Helvetica,sans-Serif" font-size="10.00">src/modules/websock</text>
<text text-anchor="middle" x="1090" y="-141.5" font-family="Helvetica,sans-Serif" font-size="10.00">&#45;api/WSServer.hpp</text>
</a>
</g>
</g>
<!-- Node9&#45;&gt;Node15 -->
<g id="edge6" class="edge"><title>Node9&#45;&gt;Node15</title>
<path fill="none" stroke="midnightblue" d="M379.202,-209.962C529.419,-197.395 893.871,-166.907 1033.91,-155.193"/>
<polygon fill="midnightblue" stroke="midnightblue" points="378.866,-206.478 369.192,-210.799 379.449,-213.453 378.866,-206.478"/>
</g>
<!-- Node12 -->
<g id="node4" class="node"><title>Node12</title>
<g id="a_node4"><a xlink:href="../../da/d6f/SMTPModule_8cpp.html" target="_top" xlink:title="src/modules/smtp/SMTPModule.cpp">
<polygon fill="white" stroke="black" points="0,-73 0,-92 176,-92 176,-73 0,-73"/>
<text text-anchor="middle" x="88" y="-80" font-family="Helvetica,sans-Serif" font-size="10.00">src/modules/smtp/SMTPModule.cpp</text>
</a>
</g>
</g>
<!-- Node11&#45;&gt;Node12 -->
<g id="edge3" class="edge"><title>Node11&#45;&gt;Node12</title>
<path fill="none" stroke="midnightblue" d="M254.744,-131.671C210.77,-118.967 152.26,-102.064 117.522,-92.0287"/>
<polygon fill="midnightblue" stroke="midnightblue" points="253.877,-135.063 264.455,-134.476 255.82,-128.338 253.877,-135.063"/>
</g>
<!-- Node13 -->
<g id="node5" class="node"><title>Node13</title>
<g id="a_node5"><a xlink:href="../../d7/d0b/ExceptionConverter_8cpp.html" target="_top" xlink:title="src/modules/websock\l&#45;api/ExceptionConverter.cpp">
<polygon fill="white" stroke="black" points="194,-67.5 194,-97.5 334,-97.5 334,-67.5 194,-67.5"/>
<text text-anchor="start" x="202" y="-85.5" font-family="Helvetica,sans-Serif" font-size="10.00">src/modules/websock</text>
<text text-anchor="middle" x="264" y="-74.5" font-family="Helvetica,sans-Serif" font-size="10.00">&#45;api/ExceptionConverter.cpp</text>
</a>
</g>
</g>
<!-- Node11&#45;&gt;Node13 -->
<g id="edge4" class="edge"><title>Node11&#45;&gt;Node13</title>
<path fill="none" stroke="midnightblue" d="M296.157,-126.157C289.012,-116.679 280.9,-105.919 274.612,-97.5765"/>
<polygon fill="midnightblue" stroke="midnightblue" points="293.553,-128.518 302.368,-134.396 299.143,-124.304 293.553,-128.518"/>
</g>
<!-- Node14 -->
<g id="node6" class="node"><title>Node14</title>
<g id="a_node6"><a xlink:href="../../d4/d2c/WSServer_8cpp.html" target="_top" xlink:title="src/modules/websock\l&#45;api/WSServer.cpp">
<polygon fill="white" stroke="black" points="344,-0.5 344,-30.5 456,-30.5 456,-0.5 344,-0.5"/>
<text text-anchor="start" x="352" y="-18.5" font-family="Helvetica,sans-Serif" font-size="10.00">src/modules/websock</text>
<text text-anchor="middle" x="400" y="-7.5" font-family="Helvetica,sans-Serif" font-size="10.00">&#45;api/WSServer.cpp</text>
</a>
</g>
</g>
<!-- Node11&#45;&gt;Node14 -->
<g id="edge5" class="edge"><title>Node11&#45;&gt;Node14</title>
<path fill="none" stroke="midnightblue" d="M327.939,-125.834C345.977,-98.4659 375.756,-53.2842 390.756,-30.5247"/>
<polygon fill="midnightblue" stroke="midnightblue" points="324.891,-124.098 322.311,-134.374 330.736,-127.95 324.891,-124.098"/>
</g>
<!-- Node15&#45;&gt;Node14 -->
<g id="edge21" class="edge"><title>Node15&#45;&gt;Node14</title>
<path fill="none" stroke="midnightblue" d="M1023.55,-147.891C863.073,-145.807 464.221,-136.746 419,-98 399.582,-81.3625 397.883,-49.0801 398.718,-30.5283"/>
<polygon fill="midnightblue" stroke="midnightblue" points="1023.73,-151.393 1033.77,-148.018 1023.82,-144.394 1023.73,-151.393"/>
</g>
<!-- Node16 -->
<g id="node8" class="node"><title>Node16</title>
<g id="a_node8"><a xlink:href="../../d7/d29/AccessPointCRUD_8cpp.html" target="_top" xlink:title="src/modules/websock\l&#45;api/api/AccessPointCRUD.cpp">
<polygon fill="white" stroke="black" points="428.5,-67.5 428.5,-97.5 583.5,-97.5 583.5,-67.5 428.5,-67.5"/>
<text text-anchor="start" x="436.5" y="-85.5" font-family="Helvetica,sans-Serif" font-size="10.00">src/modules/websock</text>
<text text-anchor="middle" x="506" y="-74.5" font-family="Helvetica,sans-Serif" font-size="10.00">&#45;api/api/AccessPointCRUD.cpp</text>
</a>
</g>
</g>
<!-- Node15&#45;&gt;Node16 -->
<g id="edge7" class="edge"><title>Node15&#45;&gt;Node16</title>
<path fill="none" stroke="midnightblue" d="M1023.89,-143.135C928.505,-135.089 746.851,-118.616 593,-98 589.965,-97.5933 586.873,-97.1616 583.751,-96.7113"/>
<polygon fill="midnightblue" stroke="midnightblue" points="1023.7,-146.632 1033.96,-143.981 1024.29,-139.657 1023.7,-146.632"/>
</g>
<!-- Node17 -->
<g id="node9" class="node"><title>Node17</title>
<g id="a_node9"><a xlink:href="../../d7/d86/APIAuth_8cpp.html" target="_top" xlink:title="src/modules/websock\l&#45;api/api/APIAuth.cpp">
<polygon fill="white" stroke="black" points="602,-67.5 602,-97.5 714,-97.5 714,-67.5 602,-67.5"/>
<text text-anchor="start" x="610" y="-85.5" font-family="Helvetica,sans-Serif" font-size="10.00">src/modules/websock</text>
<text text-anchor="middle" x="658" y="-74.5" font-family="Helvetica,sans-Serif" font-size="10.00">&#45;api/api/APIAuth.cpp</text>
</a>
</g>
</g>
<!-- Node15&#45;&gt;Node17 -->
<g id="edge8" class="edge"><title>Node15&#45;&gt;Node17</title>
<path fill="none" stroke="midnightblue" d="M1023.75,-141.057C950.05,-132.389 827.587,-116.828 723,-98 720.155,-97.4879 717.246,-96.9375 714.313,-96.3612"/>
<polygon fill="midnightblue" stroke="midnightblue" points="1023.48,-144.549 1033.81,-142.234 1024.29,-137.596 1023.48,-144.549"/>
</g>
<!-- Node18 -->
<g id="node10" class="node"><title>Node18</title>
<g id="a_node10"><a xlink:href="../../d9/d8d/APISession_8cpp.html" target="_top" xlink:title="src/modules/websock\l&#45;api/api/APISession.cpp">
<polygon fill="white" stroke="black" points="732,-67.5 732,-97.5 854,-97.5 854,-67.5 732,-67.5"/>
<text text-anchor="start" x="740" y="-85.5" font-family="Helvetica,sans-Serif" font-size="10.00">src/modules/websock</text>
<text text-anchor="middle" x="793" y="-74.5" font-family="Helvetica,sans-Serif" font-size="10.00">&#45;api/api/APISession.cpp</text>
</a>
</g>
</g>
<!-- Node15&#45;&gt;Node18 -->
<g id="edge9" class="edge"><title>Node15&#45;&gt;Node18</title>
<path fill="none" stroke="midnightblue" d="M1023.9,-134.033C973.131,-122.923 903.569,-107.699 854.098,-96.8715"/>
<polygon fill="midnightblue" stroke="midnightblue" points="1023.27,-137.479 1033.79,-136.198 1024.77,-130.64 1023.27,-137.479"/>
</g>
<!-- Node19 -->
<g id="node11" class="node"><title>Node19</title>
<g id="a_node11"><a xlink:href="../../da/d62/AuditGet_8cpp.html" target="_top" xlink:title="src/modules/websock\l&#45;api/api/AuditGet.cpp">
<polygon fill="white" stroke="black" points="872,-67.5 872,-97.5 984,-97.5 984,-67.5 872,-67.5"/>
<text text-anchor="start" x="880" y="-85.5" font-family="Helvetica,sans-Serif" font-size="10.00">src/modules/websock</text>
<text text-anchor="middle" x="928" y="-74.5" font-family="Helvetica,sans-Serif" font-size="10.00">&#45;api/api/AuditGet.cpp</text>
</a>
</g>
</g>
<!-- Node15&#45;&gt;Node19 -->
<g id="edge10" class="edge"><title>Node15&#45;&gt;Node19</title>
<path fill="none" stroke="midnightblue" d="M1045.25,-130.544C1019.33,-120.143 987.162,-107.238 963.083,-97.5765"/>
<polygon fill="midnightblue" stroke="midnightblue" points="1044.26,-133.92 1054.85,-134.396 1046.87,-127.424 1044.26,-133.92"/>
</g>
<!-- Node20 -->
<g id="node12" class="node"><title>Node20</title>
<g id="a_node12"><a xlink:href="../../d5/dcb/CRUDResourceHandler_8cpp.html" target="_top" xlink:title="src/modules/websock\l&#45;api/api/CRUDResourceHandler.cpp">
<polygon fill="white" stroke="black" points="1002,-67.5 1002,-97.5 1178,-97.5 1178,-67.5 1002,-67.5"/>
<text text-anchor="start" x="1010" y="-85.5" font-family="Helvetica,sans-Serif" font-size="10.00">src/modules/websock</text>
<text text-anchor="middle" x="1090" y="-74.5" font-family="Helvetica,sans-Serif" font-size="10.00">&#45;api/api/CRUDResourceHandler.cpp</text>
</a>
</g>
</g>
<!-- Node15&#45;&gt;Node20 -->
<g id="edge11" class="edge"><title>Node15&#45;&gt;Node20</title>
<path fill="none" stroke="midnightblue" d="M1090,-124.108C1090,-115.154 1090,-105.323 1090,-97.5765"/>
<polygon fill="midnightblue" stroke="midnightblue" points="1086.5,-124.396 1090,-134.396 1093.5,-124.396 1086.5,-124.396"/>
</g>
<!-- Node21 -->
<g id="node13" class="node"><title>Node21</title>
<g id="a_node13"><a xlink:href="../../d9/d7c/MethodHandler_8cpp.html" target="_top" xlink:title="src/modules/websock\l&#45;api/api/MethodHandler.cpp">
<polygon fill="white" stroke="black" points="1196,-67.5 1196,-97.5 1332,-97.5 1332,-67.5 1196,-67.5"/>
<text text-anchor="start" x="1204" y="-85.5" font-family="Helvetica,sans-Serif" font-size="10.00">src/modules/websock</text>
<text text-anchor="middle" x="1264" y="-74.5" font-family="Helvetica,sans-Serif" font-size="10.00">&#45;api/api/MethodHandler.cpp</text>
</a>
</g>
</g>
<!-- Node15&#45;&gt;Node21 -->
<g id="edge12" class="edge"><title>Node15&#45;&gt;Node21</title>
<path fill="none" stroke="midnightblue" d="M1137.33,-130.819C1165.3,-120.371 1200.23,-107.323 1226.32,-97.5765"/>
<polygon fill="midnightblue" stroke="midnightblue" points="1135.9,-127.618 1127.76,-134.396 1138.35,-134.175 1135.9,-127.618"/>
</g>
<!-- Node22 -->
<g id="node14" class="node"><title>Node22</title>
<g id="a_node14"><a xlink:href="../../d7/da0/PasswordChange_8cpp.html" target="_top" xlink:title="src/modules/websock\l&#45;api/api/PasswordChange.cpp">
<polygon fill="white" stroke="black" points="1350.5,-67.5 1350.5,-97.5 1497.5,-97.5 1497.5,-67.5 1350.5,-67.5"/>
<text text-anchor="start" x="1358.5" y="-85.5" font-family="Helvetica,sans-Serif" font-size="10.00">src/modules/websock</text>
<text text-anchor="middle" x="1424" y="-74.5" font-family="Helvetica,sans-Serif" font-size="10.00">&#45;api/api/PasswordChange.cpp</text>
</a>
</g>
</g>
<!-- Node15&#45;&gt;Node22 -->
<g id="edge13" class="edge"><title>Node15&#45;&gt;Node22</title>
<path fill="none" stroke="midnightblue" d="M1156.19,-135.619C1212.72,-124.617 1293.89,-108.822 1352.02,-97.5074"/>
<polygon fill="midnightblue" stroke="midnightblue" points="1155.43,-132.201 1146.28,-137.547 1156.77,-139.072 1155.43,-132.201"/>
</g>
<!-- Node23 -->
<g id="node15" class="node"><title>Node23</title>
<g id="a_node15"><a xlink:href="../../d1/d43/Restart_8cpp.html" target="_top" xlink:title="src/modules/websock\l&#45;api/api/Restart.cpp">
<polygon fill="white" stroke="black" points="1516,-67.5 1516,-97.5 1628,-97.5 1628,-67.5 1516,-67.5"/>
<text text-anchor="start" x="1524" y="-85.5" font-family="Helvetica,sans-Serif" font-size="10.00">src/modules/websock</text>
<text text-anchor="middle" x="1572" y="-74.5" font-family="Helvetica,sans-Serif" font-size="10.00">&#45;api/api/Restart.cpp</text>
</a>
</g>
</g>
<!-- Node15&#45;&gt;Node23 -->
<g id="edge14" class="edge"><title>Node15&#45;&gt;Node23</title>
<path fill="none" stroke="midnightblue" d="M1156.23,-142.522C1238.73,-134.606 1383.84,-119.141 1507,-98 1509.85,-97.511 1512.76,-96.9792 1515.7,-96.4176"/>
<polygon fill="midnightblue" stroke="midnightblue" points="1155.86,-139.041 1146.24,-143.473 1156.53,-146.009 1155.86,-139.041"/>
</g>
<!-- Node24 -->
<g id="node16" class="node"><title>Node24</title>
<g id="a_node16"><a xlink:href="../../d9/d90/WebSockAPI_8hpp.html" target="_top" xlink:title="src/modules/websock\l&#45;api/WebSockAPI.hpp">
<polygon fill="white" stroke="black" points="1646.5,-67.5 1646.5,-97.5 1759.5,-97.5 1759.5,-67.5 1646.5,-67.5"/>
<text text-anchor="start" x="1654.5" y="-85.5" font-family="Helvetica,sans-Serif" font-size="10.00">src/modules/websock</text>
<text text-anchor="middle" x="1703" y="-74.5" font-family="Helvetica,sans-Serif" font-size="10.00">&#45;api/WebSockAPI.hpp</text>
</a>
</g>
</g>
<!-- Node15&#45;&gt;Node24 -->
<g id="edge15" class="edge"><title>Node15&#45;&gt;Node24</title>
<path fill="none" stroke="midnightblue" d="M1156.47,-145.033C1259.75,-139.046 1464.8,-124.758 1637,-98 1640.01,-97.5316 1643.1,-97.0088 1646.2,-96.4475"/>
<polygon fill="midnightblue" stroke="midnightblue" points="1155.98,-141.555 1146.19,-145.621 1156.37,-148.544 1155.98,-141.555"/>
</g>
<!-- Node26 -->
<g id="node18" class="node"><title>Node26</title>
<g id="a_node18"><a xlink:href="../../d9/d6b/WebSockAPI_8cpp.html" target="_top" xlink:title="src/modules/websock\l&#45;api/WebSockAPI.cpp">
<polygon fill="white" stroke="black" points="1731.5,-0.5 1731.5,-30.5 1844.5,-30.5 1844.5,-0.5 1731.5,-0.5"/>
<text text-anchor="start" x="1739.5" y="-18.5" font-family="Helvetica,sans-Serif" font-size="10.00">src/modules/websock</text>
<text text-anchor="middle" x="1788" y="-7.5" font-family="Helvetica,sans-Serif" font-size="10.00">&#45;api/WebSockAPI.cpp</text>
</a>
</g>
</g>
<!-- Node15&#45;&gt;Node26 -->
<g id="edge20" class="edge"><title>Node15&#45;&gt;Node26</title>
<path fill="none" stroke="midnightblue" d="M1156.36,-147.956C1318.17,-146.018 1723.14,-137.256 1769,-98 1788.43,-81.3711 1790.12,-49.0855 1789.28,-30.5308"/>
<polygon fill="midnightblue" stroke="midnightblue" points="1156.02,-144.46 1146.06,-148.074 1156.1,-151.459 1156.02,-144.46"/>
</g>
<!-- Node27 -->
<g id="node19" class="node"><title>Node27</title>
<g id="a_node19"><a xlink:href="../../d2/dc4/Service_8cpp.html" target="_top" xlink:title="src/modules/websock\l&#45;api/Service.cpp">
<polygon fill="white" stroke="black" points="1816,-67.5 1816,-97.5 1928,-97.5 1928,-67.5 1816,-67.5"/>
<text text-anchor="start" x="1824" y="-85.5" font-family="Helvetica,sans-Serif" font-size="10.00">src/modules/websock</text>
<text text-anchor="middle" x="1872" y="-74.5" font-family="Helvetica,sans-Serif" font-size="10.00">&#45;api/Service.cpp</text>
</a>
</g>
</g>
<!-- Node15&#45;&gt;Node27 -->
<g id="edge19" class="edge"><title>Node15&#45;&gt;Node27</title>
<path fill="none" stroke="midnightblue" d="M1156.38,-146.747C1282.65,-142.759 1565.9,-130.678 1802,-98 1806.55,-97.3704 1811.24,-96.62 1815.95,-95.7967"/>
<polygon fill="midnightblue" stroke="midnightblue" points="1156,-143.257 1146.11,-147.064 1156.21,-150.254 1156,-143.257"/>
</g>
<!-- Node24&#45;&gt;Node14 -->
<g id="edge18" class="edge"><title>Node24&#45;&gt;Node14</title>
<path fill="none" stroke="midnightblue" d="M1636.01,-67.0821C1383.77,-36.4452 663.078,-21.305 456.14,-17.4825"/>
<polygon fill="midnightblue" stroke="midnightblue" points="1635.87,-70.5917 1646.23,-68.3651 1636.74,-63.6463 1635.87,-70.5917"/>
</g>
<!-- Node25 -->
<g id="node17" class="node"><title>Node25</title>
<g id="a_node17"><a xlink:href="../../de/d22/websock-api_2init_8cpp.html" target="_top" xlink:title="src/modules/websock\l&#45;api/init.cpp">
<polygon fill="white" stroke="black" points="1601,-0.5 1601,-30.5 1713,-30.5 1713,-0.5 1601,-0.5"/>
<text text-anchor="start" x="1609" y="-18.5" font-family="Helvetica,sans-Serif" font-size="10.00">src/modules/websock</text>
<text text-anchor="middle" x="1657" y="-7.5" font-family="Helvetica,sans-Serif" font-size="10.00">&#45;api/init.cpp</text>
</a>
</g>
</g>
<!-- Node24&#45;&gt;Node25 -->
<g id="edge16" class="edge"><title>Node24&#45;&gt;Node25</title>
<path fill="none" stroke="midnightblue" d="M1687.19,-59.1575C1680.48,-49.6788 1672.87,-38.9186 1666.96,-30.5765"/>
<polygon fill="midnightblue" stroke="midnightblue" points="1684.38,-61.2551 1693.02,-67.396 1690.1,-57.2114 1684.38,-61.2551"/>
</g>
<!-- Node24&#45;&gt;Node26 -->
<g id="edge17" class="edge"><title>Node24&#45;&gt;Node26</title>
<path fill="none" stroke="midnightblue" d="M1729.59,-61.1677C1742.59,-51.2283 1757.9,-39.5144 1769.59,-30.5765"/>
<polygon fill="midnightblue" stroke="midnightblue" points="1727.26,-58.5412 1721.44,-67.396 1731.51,-64.1017 1727.26,-58.5412"/>
</g>
</g>
</svg>
