<?xml version="1.0" encoding="UTF-8" standalone="no"?>
<!DOCTYPE svg PUBLIC "-//W3C//DTD SVG 1.1//EN"
 "http://www.w3.org/Graphics/SVG/1.1/DTD/svg11.dtd">
<!-- Generated by graphviz version 2.38.0 (20140413.2041)
 -->
<!-- Title: Leosac::Auth::AuthTarget Pages: 1 -->
<svg width="848pt" height="116pt"
 viewBox="0.00 0.00 848.00 116.00" xmlns="http://www.w3.org/2000/svg" xmlns:xlink="http://www.w3.org/1999/xlink">
<g id="graph0" class="graph" transform="scale(1 1) rotate(0) translate(4 112)">
<title>Leosac::Auth::AuthTarget</title>
<polygon fill="white" stroke="none" points="-4,4 -4,-112 844,-112 844,4 -4,4"/>
<!-- Node1 -->
<g id="node1" class="node"><title>Node1</title>
<polygon fill="#bfbfbf" stroke="black" points="712,-55 712,-74 840,-74 840,-55 712,-55"/>
<text text-anchor="middle" x="776" y="-62" font-family="Helvetica,sans-Serif" font-size="10.00">Leosac::Auth::AuthTarget</text>
</g>
<!-- Node2 -->
<g id="node2" class="node"><title>Node2</title>
<g id="a_node2"><a xlink:title="STL class. ">
<polygon fill="white" stroke="#bfbfbf" points="132,-83 132,-102 192,-102 192,-83 132,-83"/>
<text text-anchor="middle" x="162" y="-90" font-family="Helvetica,sans-Serif" font-size="10.00">std::string</text>
</a>
</g>
</g>
<!-- Node2&#45;&gt;Node1 -->
<g id="edge1" class="edge"><title>Node2&#45;&gt;Node1</title>
<path fill="none" stroke="#9a32cd" stroke-dasharray="5,2" d="M202.217,-94.2939C204.851,-94.3758 207.464,-94.4461 210,-94.5 234.883,-95.0292 241.112,-94.7183 266,-94.5 418.018,-93.1666 456.258,-97.7535 608,-88.5 646.36,-86.1607 655.965,-85.0032 694,-79.5 704.757,-77.9436 716.266,-75.9892 727.133,-74.0104"/>
<polygon fill="#9a32cd" stroke="#9a32cd" points="202.196,-90.791 192.077,-93.9307 201.945,-97.7865 202.196,-90.791"/>
<text text-anchor="middle" x="451.5" y="-97.5" font-family="Helvetica,sans-Serif" font-size="10.00"> name_</text>
</g>
<!-- Node5 -->
<g id="node5" class="node"><title>Node5</title>
<g id="a_node5"><a xlink:href="../../d0/dea/classLeosac_1_1Hardware_1_1FGPIO.html" target="_top" xlink:title="A Facade to a GPIO object. ">
<polygon fill="white" stroke="black" points="284,-60 284,-79 417,-79 417,-60 284,-60"/>
<text text-anchor="middle" x="350.5" y="-67" font-family="Helvetica,sans-Serif" font-size="10.00">Leosac::Hardware::FGPIO</text>
</a>
</g>
</g>
<!-- Node2&#45;&gt;Node5 -->
<g id="edge5" class="edge"><title>Node2&#45;&gt;Node5</title>
<path fill="none" stroke="#9a32cd" stroke-dasharray="5,2" d="M201.894,-84.774C204.633,-84.3157 207.355,-83.8852 210,-83.5 233.966,-80.0099 260.376,-77.1179 283.709,-74.8863"/>
<polygon fill="#9a32cd" stroke="#9a32cd" points="201.251,-81.3334 192.015,-86.5246 202.472,-88.2261 201.251,-81.3334"/>
<text text-anchor="middle" x="238" y="-86.5" font-family="Helvetica,sans-Serif" font-size="10.00"> gpio_name_</text>
</g>
<!-- Node3 -->
<g id="node3" class="node"><title>Node3</title>
<g id="a_node3"><a xlink:title="STL class. ">
<polygon fill="white" stroke="#bfbfbf" points="0,-77.5 0,-107.5 95,-107.5 95,-77.5 0,-77.5"/>
<text text-anchor="start" x="8" y="-95.5" font-family="Helvetica,sans-Serif" font-size="10.00">std::basic_string&lt;</text>
<text text-anchor="middle" x="47.5" y="-84.5" font-family="Helvetica,sans-Serif" font-size="10.00"> char &gt;</text>
</a>
</g>
</g>
<!-- Node3&#45;&gt;Node2 -->
<g id="edge2" class="edge"><title>Node3&#45;&gt;Node2</title>
<path fill="none" stroke="midnightblue" d="M105.526,-92.5C114.678,-92.5 123.803,-92.5 131.931,-92.5"/>
<polygon fill="midnightblue" stroke="midnightblue" points="105.233,-89.0001 95.2328,-92.5 105.233,-96.0001 105.233,-89.0001"/>
</g>
<!-- Node4 -->
<g id="node4" class="node"><title>Node4</title>
<polygon fill="white" stroke="#bfbfbf" points="486,-49.5 486,-79.5 608,-79.5 608,-49.5 486,-49.5"/>
<text text-anchor="start" x="494" y="-67.5" font-family="Helvetica,sans-Serif" font-size="10.00">std::unique_ptr&lt; Leosac</text>
<text text-anchor="middle" x="547" y="-56.5" font-family="Helvetica,sans-Serif" font-size="10.00">::Hardware::FGPIO &gt;</text>
</g>
<!-- Node4&#45;&gt;Node1 -->
<g id="edge3" class="edge"><title>Node4&#45;&gt;Node1</title>
<path fill="none" stroke="#9a32cd" stroke-dasharray="5,2" d="M618.561,-64.5C648.343,-64.5 682.752,-64.5 711.703,-64.5"/>
<polygon fill="#9a32cd" stroke="#9a32cd" points="618.236,-61.0001 608.236,-64.5 618.236,-68.0001 618.236,-61.0001"/>
<text text-anchor="middle" x="660" y="-67.5" font-family="Helvetica,sans-Serif" font-size="10.00"> gpio_</text>
</g>
<!-- Node5&#45;&gt;Node4 -->
<g id="edge4" class="edge"><title>Node5&#45;&gt;Node4</title>
<path fill="none" stroke="#9a32cd" stroke-dasharray="5,2" d="M427.145,-67.5554C446.643,-67.0542 467.361,-66.5216 485.946,-66.0438"/>
<polygon fill="#9a32cd" stroke="#9a32cd" points="426.984,-64.0583 417.078,-67.8142 427.164,-71.056 426.984,-64.0583"/>
<text text-anchor="middle" x="451.5" y="-70.5" font-family="Helvetica,sans-Serif" font-size="10.00"> ptr</text>
</g>
<!-- Node6 -->
<g id="node6" class="node"><title>Node6</title>
<polygon fill="white" stroke="#bfbfbf" points="499,-0.5 499,-30.5 595,-30.5 595,-0.5 499,-0.5"/>
<text text-anchor="start" x="507" y="-18.5" font-family="Helvetica,sans-Serif" font-size="10.00">std::vector&lt; Tools</text>
<text text-anchor="middle" x="547" y="-7.5" font-family="Helvetica,sans-Serif" font-size="10.00">::IScheduleCPtr &gt;</text>
</g>
<!-- Node6&#45;&gt;Node1 -->
<g id="edge6" class="edge"><title>Node6&#45;&gt;Node1</title>
<path fill="none" stroke="#9a32cd" stroke-dasharray="5,2" d="M605.142,-22.4193C632.26,-26.2323 665.002,-31.6055 694,-38.5 712.536,-42.907 732.958,-49.4745 748.66,-54.9061"/>
<polygon fill="#9a32cd" stroke="#9a32cd" points="605.426,-18.9256 595.043,-21.0344 604.475,-25.8607 605.426,-18.9256"/>
<text text-anchor="middle" x="660" y="-52.5" font-family="Helvetica,sans-Serif" font-size="10.00"> always_close_</text>
<text text-anchor="middle" x="660" y="-41.5" font-family="Helvetica,sans-Serif" font-size="10.00">always_open_</text>
</g>
</g>
</svg>
