<?xml version="1.0" encoding="UTF-8" standalone="no"?>
<!DOCTYPE svg PUBLIC "-//W3C//DTD SVG 1.1//EN"
 "http://www.w3.org/Graphics/SVG/1.1/DTD/svg11.dtd">
<!-- Generated by graphviz version 2.38.0 (20140413.2041)
 -->
<!-- Title: src/core/auth/User.cpp Pages: 1 -->
<svg width="2217pt" height="263pt"
 viewBox="0.00 0.00 2217.00 263.00" xmlns="http://www.w3.org/2000/svg" xmlns:xlink="http://www.w3.org/1999/xlink">
<g id="graph0" class="graph" transform="scale(1 1) rotate(0) translate(4 259)">
<title>src/core/auth/User.cpp</title>
<polygon fill="white" stroke="none" points="-4,4 -4,-259 2213,-259 2213,4 -4,4"/>
<!-- Node0 -->
<g id="node1" class="node"><title>Node0</title>
<polygon fill="#bfbfbf" stroke="black" points="1593.5,-235.5 1593.5,-254.5 1709.5,-254.5 1709.5,-235.5 1593.5,-235.5"/>
<text text-anchor="middle" x="1651.5" y="-242.5" font-family="Helvetica,sans-Serif" font-size="10.00">src/core/auth/User.cpp</text>
</g>
<!-- Node1 -->
<g id="node2" class="node"><title>Node1</title>
<polygon fill="white" stroke="#bfbfbf" points="409.5,-179.5 409.5,-198.5 525.5,-198.5 525.5,-179.5 409.5,-179.5"/>
<text text-anchor="middle" x="467.5" y="-186.5" font-family="Helvetica,sans-Serif" font-size="10.00">core/auth/Group_odb.h</text>
</g>
<!-- Node0&#45;&gt;Node1 -->
<g id="edge1" class="edge"><title>Node0&#45;&gt;Node1</title>
<path fill="none" stroke="midnightblue" d="M1593.24,-243.566C1428.72,-241.933 946.454,-234.327 535.565,-199.003"/>
<polygon fill="midnightblue" stroke="midnightblue" points="535.833,-195.514 525.568,-198.137 535.228,-202.487 535.833,-195.514"/>
</g>
<!-- Node2 -->
<g id="node3" class="node"><title>Node2</title>
<polygon fill="white" stroke="#bfbfbf" points="543.5,-179.5 543.5,-198.5 653.5,-198.5 653.5,-179.5 543.5,-179.5"/>
<text text-anchor="middle" x="598.5" y="-186.5" font-family="Helvetica,sans-Serif" font-size="10.00">core/auth/User_odb.h</text>
</g>
<!-- Node0&#45;&gt;Node2 -->
<g id="edge2" class="edge"><title>Node0&#45;&gt;Node2</title>
<path fill="none" stroke="midnightblue" d="M1593.4,-243.267C1442.03,-240.948 1022.93,-231.906 663.695,-199.017"/>
<polygon fill="midnightblue" stroke="midnightblue" points="663.899,-195.521 653.619,-198.087 663.255,-202.492 663.899,-195.521"/>
</g>
<!-- Node3 -->
<g id="node4" class="node"><title>Node3</title>
<g id="a_node4"><a xlink:href="../../d0/db0/ICredential_8hpp.html" target="_top" xlink:title="core/credentials/ICredential.hpp">
<polygon fill="white" stroke="black" points="1574,-179.5 1574,-198.5 1729,-198.5 1729,-179.5 1574,-179.5"/>
<text text-anchor="middle" x="1651.5" y="-186.5" font-family="Helvetica,sans-Serif" font-size="10.00">core/credentials/ICredential.hpp</text>
</a>
</g>
</g>
<!-- Node0&#45;&gt;Node3 -->
<g id="edge3" class="edge"><title>Node0&#45;&gt;Node3</title>
<path fill="none" stroke="midnightblue" d="M1651.5,-235.083C1651.5,-228.006 1651.5,-217.861 1651.5,-208.986"/>
<polygon fill="midnightblue" stroke="midnightblue" points="1655,-208.751 1651.5,-198.751 1648,-208.751 1655,-208.751"/>
</g>
<!-- Node14 -->
<g id="node15" class="node"><title>Node14</title>
<g id="a_node15"><a xlink:href="../../d1/ddd/leosacexception_8hpp.html" target="_top" xlink:title="Exception class for LEOSAC Project related errors. ">
<polygon fill="white" stroke="black" points="672,-179.5 672,-198.5 823,-198.5 823,-179.5 672,-179.5"/>
<text text-anchor="middle" x="747.5" y="-186.5" font-family="Helvetica,sans-Serif" font-size="10.00">exception/leosacexception.hpp</text>
</a>
</g>
</g>
<!-- Node0&#45;&gt;Node14 -->
<g id="edge19" class="edge"><title>Node0&#45;&gt;Node14</title>
<path fill="none" stroke="midnightblue" d="M1593.23,-240.519C1438.31,-231.265 1015.65,-206.018 833.217,-195.12"/>
<polygon fill="midnightblue" stroke="midnightblue" points="833.322,-191.62 823.131,-194.518 832.904,-198.608 833.322,-191.62"/>
</g>
<!-- Node30 -->
<g id="node31" class="node"><title>Node30</title>
<g id="a_node31"><a xlink:href="../../d3/db1/AssertCast_8hpp.html" target="_top" xlink:title="tools/AssertCast.hpp">
<polygon fill="white" stroke="black" points="1747,-179.5 1747,-198.5 1856,-198.5 1856,-179.5 1747,-179.5"/>
<text text-anchor="middle" x="1801.5" y="-186.5" font-family="Helvetica,sans-Serif" font-size="10.00">tools/AssertCast.hpp</text>
</a>
</g>
</g>
<!-- Node0&#45;&gt;Node30 -->
<g id="edge56" class="edge"><title>Node0&#45;&gt;Node30</title>
<path fill="none" stroke="midnightblue" d="M1675.27,-235.444C1700.39,-226.399 1740.21,-212.064 1768.4,-201.916"/>
<polygon fill="midnightblue" stroke="midnightblue" points="1769.62,-205.197 1777.84,-198.516 1767.25,-198.611 1769.62,-205.197"/>
</g>
<!-- Node31 -->
<g id="node32" class="node"><title>Node31</title>
<g id="a_node32"><a xlink:href="../../d4/d3d/log_8hpp.html" target="_top" xlink:title="tools/log.hpp">
<polygon fill="white" stroke="black" points="1947.5,-118 1947.5,-137 2019.5,-137 2019.5,-118 1947.5,-118"/>
<text text-anchor="middle" x="1983.5" y="-125" font-family="Helvetica,sans-Serif" font-size="10.00">tools/log.hpp</text>
</a>
</g>
</g>
<!-- Node0&#45;&gt;Node31 -->
<g id="edge65" class="edge"><title>Node0&#45;&gt;Node31</title>
<path fill="none" stroke="midnightblue" d="M1709.77,-237.066C1753.67,-230.584 1814.76,-218.848 1865.5,-199 1885.05,-191.351 1933.47,-160.911 1961.84,-142.623"/>
<polygon fill="midnightblue" stroke="midnightblue" points="1963.79,-145.53 1970.28,-137.157 1959.99,-139.653 1963.79,-145.53"/>
</g>
<!-- Node35 -->
<g id="node36" class="node"><title>Node35</title>
<polygon fill="white" stroke="#bfbfbf" points="1913,-179.5 1913,-198.5 2042,-198.5 2042,-179.5 1913,-179.5"/>
<text text-anchor="middle" x="1977.5" y="-186.5" font-family="Helvetica,sans-Serif" font-size="10.00">boost/algorithm/string.hpp</text>
</g>
<!-- Node0&#45;&gt;Node35 -->
<g id="edge66" class="edge"><title>Node0&#45;&gt;Node35</title>
<path fill="none" stroke="midnightblue" d="M1703.16,-235.444C1760.98,-225.865 1854.61,-210.356 1916.12,-200.167"/>
<polygon fill="midnightblue" stroke="midnightblue" points="1916.79,-203.604 1926.09,-198.516 1915.65,-196.698 1916.79,-203.604"/>
</g>
<!-- Node4 -->
<g id="node5" class="node"><title>Node4</title>
<g id="a_node5"><a xlink:href="../../d3/d6f/AuthFwd_8hpp.html" target="_top" xlink:title="core/auth/AuthFwd.hpp">
<polygon fill="white" stroke="black" points="1345.5,-118 1345.5,-137 1463.5,-137 1463.5,-118 1345.5,-118"/>
<text text-anchor="middle" x="1404.5" y="-125" font-family="Helvetica,sans-Serif" font-size="10.00">core/auth/AuthFwd.hpp</text>
</a>
</g>
</g>
<!-- Node3&#45;&gt;Node4 -->
<g id="edge4" class="edge"><title>Node3&#45;&gt;Node4</title>
<path fill="none" stroke="midnightblue" d="M1616.11,-179.475C1572.27,-168.915 1497.53,-150.911 1449.62,-139.369"/>
<polygon fill="midnightblue" stroke="midnightblue" points="1450.37,-135.948 1439.82,-137.009 1448.73,-142.754 1450.37,-135.948"/>
</g>
<!-- Node6 -->
<g id="node7" class="node"><title>Node6</title>
<polygon fill="white" stroke="#bfbfbf" points="1658.5,-56.5 1658.5,-75.5 1710.5,-75.5 1710.5,-56.5 1658.5,-56.5"/>
<text text-anchor="middle" x="1684.5" y="-63.5" font-family="Helvetica,sans-Serif" font-size="10.00">memory</text>
</g>
<!-- Node3&#45;&gt;Node6 -->
<g id="edge18" class="edge"><title>Node3&#45;&gt;Node6</title>
<path fill="none" stroke="midnightblue" d="M1690.75,-179.475C1710.5,-172.99 1732.68,-161.843 1744.5,-143 1751.82,-131.327 1750.66,-124.323 1744.5,-112 1737.77,-98.5432 1724.89,-88.0665 1712.79,-80.6212"/>
<polygon fill="midnightblue" stroke="midnightblue" points="1714.22,-77.4101 1703.8,-75.5195 1710.77,-83.4985 1714.22,-77.4101"/>
</g>
<!-- Node8 -->
<g id="node9" class="node"><title>Node8</title>
<g id="a_node9"><a xlink:href="../../d7/d7f/CredentialFwd_8hpp.html" target="_top" xlink:title="core/credentials/Credential\lFwd.hpp">
<polygon fill="white" stroke="black" points="1482,-112.5 1482,-142.5 1615,-142.5 1615,-112.5 1482,-112.5"/>
<text text-anchor="start" x="1490" y="-130.5" font-family="Helvetica,sans-Serif" font-size="10.00">core/credentials/Credential</text>
<text text-anchor="middle" x="1548.5" y="-119.5" font-family="Helvetica,sans-Serif" font-size="10.00">Fwd.hpp</text>
</a>
</g>
</g>
<!-- Node3&#45;&gt;Node8 -->
<g id="edge8" class="edge"><title>Node3&#45;&gt;Node8</title>
<path fill="none" stroke="midnightblue" d="M1636.74,-179.475C1622.4,-171.191 1600.13,-158.325 1581.55,-147.591"/>
<polygon fill="midnightblue" stroke="midnightblue" points="1583.18,-144.494 1572.78,-142.523 1579.68,-150.556 1583.18,-144.494"/>
</g>
<!-- Node9 -->
<g id="node10" class="node"><title>Node9</title>
<g id="a_node10"><a xlink:href="../../dd/d9d/IVisitable_8hpp.html" target="_top" xlink:title="tools/IVisitable.hpp">
<polygon fill="white" stroke="black" points="1829.5,-118 1829.5,-137 1929.5,-137 1929.5,-118 1829.5,-118"/>
<text text-anchor="middle" x="1879.5" y="-125" font-family="Helvetica,sans-Serif" font-size="10.00">tools/IVisitable.hpp</text>
</a>
</g>
</g>
<!-- Node3&#45;&gt;Node9 -->
<g id="edge11" class="edge"><title>Node3&#45;&gt;Node9</title>
<path fill="none" stroke="midnightblue" d="M1684.17,-179.475C1724.38,-168.982 1792.76,-151.137 1837.02,-139.587"/>
<polygon fill="midnightblue" stroke="midnightblue" points="1838.1,-142.921 1846.89,-137.009 1836.33,-136.148 1838.1,-142.921"/>
</g>
<!-- Node13 -->
<g id="node14" class="node"><title>Node13</title>
<g id="a_node14"><a xlink:href="../../d8/d97/ToolsFwd_8hpp.html" target="_top" xlink:title="tools/ToolsFwd.hpp">
<polygon fill="white" stroke="black" points="1633.5,-118 1633.5,-137 1735.5,-137 1735.5,-118 1633.5,-118"/>
<text text-anchor="middle" x="1684.5" y="-125" font-family="Helvetica,sans-Serif" font-size="10.00">tools/ToolsFwd.hpp</text>
</a>
</g>
</g>
<!-- Node3&#45;&gt;Node13 -->
<g id="edge15" class="edge"><title>Node3&#45;&gt;Node13</title>
<path fill="none" stroke="midnightblue" d="M1656.23,-179.475C1661.08,-170.727 1668.77,-156.869 1674.9,-145.809"/>
<polygon fill="midnightblue" stroke="midnightblue" points="1677.99,-147.452 1679.78,-137.009 1671.87,-144.057 1677.99,-147.452"/>
</g>
<!-- Node5 -->
<g id="node6" class="node"><title>Node5</title>
<polygon fill="white" stroke="#bfbfbf" points="1341,-56.5 1341,-75.5 1390,-75.5 1390,-56.5 1341,-56.5"/>
<text text-anchor="middle" x="1365.5" y="-63.5" font-family="Helvetica,sans-Serif" font-size="10.00">cstddef</text>
</g>
<!-- Node4&#45;&gt;Node5 -->
<g id="edge5" class="edge"><title>Node4&#45;&gt;Node5</title>
<path fill="none" stroke="midnightblue" d="M1398.91,-117.975C1393.12,-109.138 1383.91,-95.0886 1376.63,-83.975"/>
<polygon fill="midnightblue" stroke="midnightblue" points="1379.49,-81.9539 1371.08,-75.5091 1373.63,-85.7913 1379.49,-81.9539"/>
</g>
<!-- Node4&#45;&gt;Node6 -->
<g id="edge6" class="edge"><title>Node4&#45;&gt;Node6</title>
<path fill="none" stroke="midnightblue" d="M1444.41,-117.983C1453.63,-116.017 1463.41,-113.934 1472.5,-112 1534.38,-98.8356 1606.42,-83.5521 1648.59,-74.6117"/>
<polygon fill="midnightblue" stroke="midnightblue" points="1649.33,-78.0324 1658.39,-72.5344 1647.88,-71.1846 1649.33,-78.0324"/>
</g>
<!-- Node7 -->
<g id="node8" class="node"><title>Node7</title>
<polygon fill="white" stroke="#bfbfbf" points="1505.5,-56.5 1505.5,-75.5 1591.5,-75.5 1591.5,-56.5 1505.5,-56.5"/>
<text text-anchor="middle" x="1548.5" y="-63.5" font-family="Helvetica,sans-Serif" font-size="10.00">odb/lazy&#45;ptr.hxx</text>
</g>
<!-- Node4&#45;&gt;Node7 -->
<g id="edge7" class="edge"><title>Node4&#45;&gt;Node7</title>
<path fill="none" stroke="midnightblue" d="M1425.13,-117.975C1449.62,-107.857 1490.65,-90.9046 1518.61,-79.3507"/>
<polygon fill="midnightblue" stroke="midnightblue" points="1520,-82.5627 1527.91,-75.5091 1517.33,-76.0932 1520,-82.5627"/>
</g>
<!-- Node8&#45;&gt;Node6 -->
<g id="edge9" class="edge"><title>Node8&#45;&gt;Node6</title>
<path fill="none" stroke="midnightblue" d="M1580.73,-112.399C1603.34,-102.505 1633.34,-89.3832 1655.26,-79.7919"/>
<polygon fill="midnightblue" stroke="midnightblue" points="1656.95,-82.8726 1664.71,-75.6578 1654.15,-76.4595 1656.95,-82.8726"/>
</g>
<!-- Node8&#45;&gt;Node7 -->
<g id="edge10" class="edge"><title>Node8&#45;&gt;Node7</title>
<path fill="none" stroke="midnightblue" d="M1548.5,-112.399C1548.5,-104.466 1548.5,-94.458 1548.5,-85.8583"/>
<polygon fill="midnightblue" stroke="midnightblue" points="1552,-85.6577 1548.5,-75.6578 1545,-85.6578 1552,-85.6577"/>
</g>
<!-- Node10 -->
<g id="node11" class="node"><title>Node10</title>
<g id="a_node11"><a xlink:href="../../d2/d91/Visitor_8hpp.html" target="_top" xlink:title="tools/Visitor.hpp">
<polygon fill="white" stroke="black" points="1737,-56.5 1737,-75.5 1824,-75.5 1824,-56.5 1737,-56.5"/>
<text text-anchor="middle" x="1780.5" y="-63.5" font-family="Helvetica,sans-Serif" font-size="10.00">tools/Visitor.hpp</text>
</a>
</g>
</g>
<!-- Node9&#45;&gt;Node10 -->
<g id="edge12" class="edge"><title>Node9&#45;&gt;Node10</title>
<path fill="none" stroke="midnightblue" d="M1865.32,-117.975C1849.14,-108.255 1822.47,-92.2266 1803.36,-80.7372"/>
<polygon fill="midnightblue" stroke="midnightblue" points="1805.03,-77.6606 1794.66,-75.5091 1801.43,-83.6603 1805.03,-77.6606"/>
</g>
<!-- Node12 -->
<g id="node13" class="node"><title>Node12</title>
<polygon fill="white" stroke="#bfbfbf" points="1842,-56.5 1842,-75.5 1891,-75.5 1891,-56.5 1842,-56.5"/>
<text text-anchor="middle" x="1866.5" y="-63.5" font-family="Helvetica,sans-Serif" font-size="10.00">cassert</text>
</g>
<!-- Node9&#45;&gt;Node12 -->
<g id="edge14" class="edge"><title>Node9&#45;&gt;Node12</title>
<path fill="none" stroke="midnightblue" d="M1877.64,-117.975C1875.78,-109.492 1872.88,-96.2043 1870.5,-85.3222"/>
<polygon fill="midnightblue" stroke="midnightblue" points="1873.91,-84.5315 1868.36,-75.5091 1867.07,-86.0257 1873.91,-84.5315"/>
</g>
<!-- Node11 -->
<g id="node12" class="node"><title>Node11</title>
<polygon fill="white" stroke="#bfbfbf" points="1749.5,-0.5 1749.5,-19.5 1811.5,-19.5 1811.5,-0.5 1749.5,-0.5"/>
<text text-anchor="middle" x="1780.5" y="-7.5" font-family="Helvetica,sans-Serif" font-size="10.00">type_traits</text>
</g>
<!-- Node10&#45;&gt;Node11 -->
<g id="edge13" class="edge"><title>Node10&#45;&gt;Node11</title>
<path fill="none" stroke="midnightblue" d="M1780.5,-56.083C1780.5,-49.0059 1780.5,-38.8611 1780.5,-29.9865"/>
<polygon fill="midnightblue" stroke="midnightblue" points="1784,-29.751 1780.5,-19.7511 1777,-29.7511 1784,-29.751"/>
</g>
<!-- Node13&#45;&gt;Node6 -->
<g id="edge16" class="edge"><title>Node13&#45;&gt;Node6</title>
<path fill="none" stroke="midnightblue" d="M1684.5,-117.975C1684.5,-109.58 1684.5,-96.4806 1684.5,-85.6631"/>
<polygon fill="midnightblue" stroke="midnightblue" points="1688,-85.5091 1684.5,-75.5091 1681,-85.5091 1688,-85.5091"/>
</g>
<!-- Node13&#45;&gt;Node7 -->
<g id="edge17" class="edge"><title>Node13&#45;&gt;Node7</title>
<path fill="none" stroke="midnightblue" d="M1665.01,-117.975C1642.09,-107.945 1603.81,-91.2002 1577.42,-79.6546"/>
<polygon fill="midnightblue" stroke="midnightblue" points="1578.51,-76.3108 1567.95,-75.5091 1575.71,-82.7239 1578.51,-76.3108"/>
</g>
<!-- Node14&#45;&gt;Node5 -->
<g id="edge23" class="edge"><title>Node14&#45;&gt;Node5</title>
<path fill="none" stroke="midnightblue" d="M823.01,-188.721C954.002,-188.845 1217.16,-183.796 1298.5,-143 1324.24,-130.092 1344.45,-102.619 1355.69,-84.4846"/>
<polygon fill="midnightblue" stroke="midnightblue" points="1358.91,-85.9122 1360.98,-75.5222 1352.88,-82.3518 1358.91,-85.9122"/>
</g>
<!-- Node15 -->
<g id="node16" class="node"><title>Node15</title>
<g id="a_node16"><a xlink:href="../../d6/d2f/Stacktrace_8hpp.html" target="_top" xlink:title="tools/Stacktrace.hpp">
<polygon fill="white" stroke="black" points="814,-118 814,-137 921,-137 921,-118 814,-118"/>
<text text-anchor="middle" x="867.5" y="-125" font-family="Helvetica,sans-Serif" font-size="10.00">tools/Stacktrace.hpp</text>
</a>
</g>
</g>
<!-- Node14&#45;&gt;Node15 -->
<g id="edge20" class="edge"><title>Node14&#45;&gt;Node15</title>
<path fill="none" stroke="midnightblue" d="M764.693,-179.475C784.743,-169.534 818.099,-152.995 841.36,-141.461"/>
<polygon fill="midnightblue" stroke="midnightblue" points="842.934,-144.587 850.339,-137.009 839.825,-138.316 842.934,-144.587"/>
</g>
<!-- Node16 -->
<g id="node17" class="node"><title>Node16</title>
<polygon fill="white" stroke="#bfbfbf" points="727,-0.5 727,-19.5 768,-19.5 768,-0.5 727,-0.5"/>
<text text-anchor="middle" x="747.5" y="-7.5" font-family="Helvetica,sans-Serif" font-size="10.00">string</text>
</g>
<!-- Node14&#45;&gt;Node16 -->
<g id="edge25" class="edge"><title>Node14&#45;&gt;Node16</title>
<path fill="none" stroke="midnightblue" d="M690.54,-179.487C649.526,-172.057 599.263,-159.82 586.5,-143 543.937,-86.9092 659.377,-39.7489 717.001,-20.407"/>
<polygon fill="midnightblue" stroke="midnightblue" points="718.295,-23.6664 726.709,-17.228 716.116,-17.014 718.295,-23.6664"/>
</g>
<!-- Node18 -->
<g id="node19" class="node"><title>Node18</title>
<polygon fill="white" stroke="#bfbfbf" points="480,-118 480,-137 539,-137 539,-118 480,-118"/>
<text text-anchor="middle" x="509.5" y="-125" font-family="Helvetica,sans-Serif" font-size="10.00">exception</text>
</g>
<!-- Node14&#45;&gt;Node18 -->
<g id="edge24" class="edge"><title>Node14&#45;&gt;Node18</title>
<path fill="none" stroke="midnightblue" d="M705.595,-179.425C666.116,-171.077 605.437,-157.549 553.5,-143 550.325,-142.11 547.038,-141.134 543.757,-140.121"/>
<polygon fill="midnightblue" stroke="midnightblue" points="544.638,-136.729 534.047,-137.024 542.511,-143.398 544.638,-136.729"/>
</g>
<!-- Node19 -->
<g id="node20" class="node"><title>Node19</title>
<g id="a_node20"><a xlink:href="../../d7/d7a/configexception_8hpp.html" target="_top" xlink:title="configexception.hpp">
<polygon fill="white" stroke="black" points="1185.5,-118 1185.5,-137 1289.5,-137 1289.5,-118 1185.5,-118"/>
<text text-anchor="middle" x="1237.5" y="-125" font-family="Helvetica,sans-Serif" font-size="10.00">configexception.hpp</text>
</a>
</g>
</g>
<!-- Node14&#45;&gt;Node19 -->
<g id="edge26" class="edge"><title>Node14&#45;&gt;Node19</title>
<path fill="none" stroke="midnightblue" d="M823.246,-182.404C907.459,-175.817 1047.15,-163.149 1166.5,-143 1172.72,-141.949 1179.25,-140.646 1185.75,-139.255"/>
<polygon fill="midnightblue" stroke="midnightblue" points="1186.86,-142.595 1195.87,-137.021 1185.35,-135.759 1186.86,-142.595"/>
</g>
<!-- Node22 -->
<g id="node23" class="node"><title>Node22</title>
<g id="a_node23"><a xlink:href="../../d8/db0/coreexception_8hpp.html" target="_top" xlink:title="Exception class for Core related errors. ">
<polygon fill="white" stroke="black" points="699.5,-118 699.5,-137 795.5,-137 795.5,-118 699.5,-118"/>
<text text-anchor="middle" x="747.5" y="-125" font-family="Helvetica,sans-Serif" font-size="10.00">coreexception.hpp</text>
</a>
</g>
</g>
<!-- Node14&#45;&gt;Node22 -->
<g id="edge32" class="edge"><title>Node14&#45;&gt;Node22</title>
<path fill="none" stroke="midnightblue" d="M742.599,-179.475C740.768,-171.08 740.297,-157.981 741.185,-147.163"/>
<polygon fill="midnightblue" stroke="midnightblue" points="744.686,-147.397 742.603,-137.009 737.754,-146.429 744.686,-147.397"/>
</g>
<!-- Node23 -->
<g id="node24" class="node"><title>Node23</title>
<g id="a_node24"><a xlink:href="../../d8/d77/deviceexception_8hpp.html" target="_top" xlink:title="Exception class for Device related errors. ">
<polygon fill="white" stroke="black" points="939.5,-118 939.5,-137 1045.5,-137 1045.5,-118 939.5,-118"/>
<text text-anchor="middle" x="992.5" y="-125" font-family="Helvetica,sans-Serif" font-size="10.00">deviceexception.hpp</text>
</a>
</g>
</g>
<!-- Node14&#45;&gt;Node23 -->
<g id="edge35" class="edge"><title>Node14&#45;&gt;Node23</title>
<path fill="none" stroke="midnightblue" d="M777.702,-179.475C818.967,-168.893 893.173,-150.836 942.7,-139.297"/>
<polygon fill="midnightblue" stroke="midnightblue" points="943.614,-142.677 952.565,-137.009 942.033,-135.858 943.614,-142.677"/>
</g>
<!-- Node24 -->
<g id="node25" class="node"><title>Node24</title>
<g id="a_node25"><a xlink:href="../../db/d35/dynlibexception_8hpp.html" target="_top" xlink:title="Exception class for DynLib related errors. ">
<polygon fill="white" stroke="black" points="1064,-118 1064,-137 1167,-137 1167,-118 1064,-118"/>
<text text-anchor="middle" x="1115.5" y="-125" font-family="Helvetica,sans-Serif" font-size="10.00">dynlibexception.hpp</text>
</a>
</g>
</g>
<!-- Node14&#45;&gt;Node24 -->
<g id="edge38" class="edge"><title>Node14&#45;&gt;Node24</title>
<path fill="none" stroke="midnightblue" d="M810.807,-179.467C871.321,-171.478 964.821,-158.471 1045.5,-143 1051.25,-141.897 1057.28,-140.617 1063.3,-139.283"/>
<polygon fill="midnightblue" stroke="midnightblue" points="1064.39,-142.626 1073.37,-137.009 1062.85,-135.798 1064.39,-142.626"/>
</g>
<!-- Node25 -->
<g id="node26" class="node"><title>Node25</title>
<g id="a_node26"><a xlink:href="../../d0/d4e/fsexception_8hpp.html" target="_top" xlink:title="Exception class for filesystem related errors. ">
<polygon fill="white" stroke="black" points="595.5,-118 595.5,-137 681.5,-137 681.5,-118 595.5,-118"/>
<text text-anchor="middle" x="638.5" y="-125" font-family="Helvetica,sans-Serif" font-size="10.00">fsexception.hpp</text>
</a>
</g>
</g>
<!-- Node14&#45;&gt;Node25 -->
<g id="edge41" class="edge"><title>Node14&#45;&gt;Node25</title>
<path fill="none" stroke="midnightblue" d="M726.982,-179.475C707.055,-169.755 677.395,-153.727 657.873,-142.237"/>
<polygon fill="midnightblue" stroke="midnightblue" points="659.563,-139.169 649.191,-137.009 655.952,-145.166 659.563,-139.169"/>
</g>
<!-- Node26 -->
<g id="node27" class="node"><title>Node26</title>
<g id="a_node27"><a xlink:href="../../d1/d8e/gpioexception_8hpp.html" target="_top" xlink:title="Exception class for Gpio related errors. ">
<polygon fill="white" stroke="black" points="0,-118 0,-137 95,-137 95,-118 0,-118"/>
<text text-anchor="middle" x="47.5" y="-125" font-family="Helvetica,sans-Serif" font-size="10.00">gpioexception.hpp</text>
</a>
</g>
</g>
<!-- Node14&#45;&gt;Node26 -->
<g id="edge44" class="edge"><title>Node14&#45;&gt;Node26</title>
<path fill="none" stroke="midnightblue" d="M671.743,-180.666C665.556,-180.069 659.414,-179.503 653.5,-179 405.438,-157.889 340.325,-182.378 94.5,-143 88.86,-142.097 82.962,-140.879 77.2977,-139.531"/>
<polygon fill="midnightblue" stroke="midnightblue" points="78.0169,-136.102 67.4605,-137.004 76.2755,-142.882 78.0169,-136.102"/>
</g>
<!-- Node27 -->
<g id="node28" class="node"><title>Node27</title>
<g id="a_node28"><a xlink:href="../../d7/d8c/moduleexception_8hpp.html" target="_top" xlink:title="Exception class for modules. ">
<polygon fill="white" stroke="black" points="353,-118 353,-137 462,-137 462,-118 353,-118"/>
<text text-anchor="middle" x="407.5" y="-125" font-family="Helvetica,sans-Serif" font-size="10.00">moduleexception.hpp</text>
</a>
</g>
</g>
<!-- Node14&#45;&gt;Node27 -->
<g id="edge47" class="edge"><title>Node14&#45;&gt;Node27</title>
<path fill="none" stroke="midnightblue" d="M681.179,-179.5C622.907,-171.179 536.203,-157.649 461.5,-143 455.855,-141.893 449.946,-140.648 444.176,-139.365"/>
<polygon fill="midnightblue" stroke="midnightblue" points="444.558,-135.862 434.029,-137.036 442.992,-142.684 444.558,-135.862"/>
</g>
<!-- Node28 -->
<g id="node29" class="node"><title>Node28</title>
<g id="a_node29"><a xlink:href="../../df/d8d/scriptexception_8hpp.html" target="_top" xlink:title="Exception class for Script related errors. ">
<polygon fill="white" stroke="black" points="113,-118 113,-137 214,-137 214,-118 113,-118"/>
<text text-anchor="middle" x="163.5" y="-125" font-family="Helvetica,sans-Serif" font-size="10.00">scriptexception.hpp</text>
</a>
</g>
</g>
<!-- Node14&#45;&gt;Node28 -->
<g id="edge50" class="edge"><title>Node14&#45;&gt;Node28</title>
<path fill="none" stroke="midnightblue" d="M671.733,-180.775C665.548,-180.156 659.41,-179.555 653.5,-179 458.149,-160.669 407.162,-174.514 213.5,-143 207.564,-142.034 201.346,-140.779 195.365,-139.412"/>
<polygon fill="midnightblue" stroke="midnightblue" points="196.159,-136.003 185.614,-137.036 194.501,-142.804 196.159,-136.003"/>
</g>
<!-- Node29 -->
<g id="node30" class="node"><title>Node29</title>
<g id="a_node30"><a xlink:href="../../dc/dce/signalexception_8hpp.html" target="_top" xlink:title="Exception class for Signal related errors. ">
<polygon fill="white" stroke="black" points="232,-118 232,-137 335,-137 335,-118 232,-118"/>
<text text-anchor="middle" x="283.5" y="-125" font-family="Helvetica,sans-Serif" font-size="10.00">signalexception.hpp</text>
</a>
</g>
</g>
<!-- Node14&#45;&gt;Node29 -->
<g id="edge53" class="edge"><title>Node14&#45;&gt;Node29</title>
<path fill="none" stroke="midnightblue" d="M671.94,-180.432C557.16,-168.369 350.682,-145.845 334.5,-143 328.617,-141.966 322.452,-140.695 316.499,-139.339"/>
<polygon fill="midnightblue" stroke="midnightblue" points="317.31,-135.934 306.769,-137.004 315.676,-142.741 317.31,-135.934"/>
</g>
<!-- Node15&#45;&gt;Node16 -->
<g id="edge21" class="edge"><title>Node15&#45;&gt;Node16</title>
<path fill="none" stroke="midnightblue" d="M858.48,-117.819C838.414,-98.5043 789.824,-51.7366 764.105,-26.9827"/>
<polygon fill="midnightblue" stroke="midnightblue" points="766.256,-24.195 756.624,-19.782 761.402,-29.2384 766.256,-24.195"/>
</g>
<!-- Node17 -->
<g id="node18" class="node"><title>Node17</title>
<polygon fill="white" stroke="#bfbfbf" points="845.5,-56.5 845.5,-75.5 889.5,-75.5 889.5,-56.5 845.5,-56.5"/>
<text text-anchor="middle" x="867.5" y="-63.5" font-family="Helvetica,sans-Serif" font-size="10.00">vector</text>
</g>
<!-- Node15&#45;&gt;Node17 -->
<g id="edge22" class="edge"><title>Node15&#45;&gt;Node17</title>
<path fill="none" stroke="midnightblue" d="M867.5,-117.975C867.5,-109.58 867.5,-96.4806 867.5,-85.6631"/>
<polygon fill="midnightblue" stroke="midnightblue" points="871,-85.5091 867.5,-75.5091 864,-85.5091 871,-85.5091"/>
</g>
<!-- Node19&#45;&gt;Node14 -->
<g id="edge27" class="edge"><title>Node19&#45;&gt;Node14</title>
<path fill="none" stroke="midnightblue" d="M1213.16,-137.021C1204.18,-139.212 1193.98,-141.399 1184.5,-143 1063.55,-163.42 921.708,-176.156 833.14,-182.666"/>
<polygon fill="midnightblue" stroke="midnightblue" points="832.862,-179.177 823.142,-183.391 833.368,-186.158 832.862,-179.177"/>
</g>
<!-- Node19&#45;&gt;Node16 -->
<g id="edge31" class="edge"><title>Node19&#45;&gt;Node16</title>
<path fill="none" stroke="midnightblue" d="M1207.73,-117.975C1158.71,-104.081 1057.82,-76.089 971.5,-56 902.796,-40.0099 821.449,-24.5198 778.18,-16.5515"/>
<polygon fill="midnightblue" stroke="midnightblue" points="778.749,-13.0976 768.282,-14.7378 777.487,-19.9829 778.749,-13.0976"/>
</g>
<!-- Node20 -->
<g id="node21" class="node"><title>Node20</title>
<g id="a_node21"><a xlink:href="../../dd/d35/Colorize_8hpp.html" target="_top" xlink:title="tools/Colorize.hpp">
<polygon fill="white" stroke="black" points="1190,-56.5 1190,-75.5 1285,-75.5 1285,-56.5 1190,-56.5"/>
<text text-anchor="middle" x="1237.5" y="-63.5" font-family="Helvetica,sans-Serif" font-size="10.00">tools/Colorize.hpp</text>
</a>
</g>
</g>
<!-- Node19&#45;&gt;Node20 -->
<g id="edge28" class="edge"><title>Node19&#45;&gt;Node20</title>
<path fill="none" stroke="midnightblue" d="M1237.5,-117.975C1237.5,-109.58 1237.5,-96.4806 1237.5,-85.6631"/>
<polygon fill="midnightblue" stroke="midnightblue" points="1241,-85.5091 1237.5,-75.5091 1234,-85.5091 1241,-85.5091"/>
</g>
<!-- Node20&#45;&gt;Node16 -->
<g id="edge30" class="edge"><title>Node20&#45;&gt;Node16</title>
<path fill="none" stroke="midnightblue" d="M1189.94,-58.3418C1183.74,-57.5247 1177.47,-56.7237 1171.5,-56 1024.67,-38.2007 848.744,-20.7727 778.591,-13.9796"/>
<polygon fill="midnightblue" stroke="midnightblue" points="778.551,-10.4595 768.261,-12.9822 777.878,-17.4271 778.551,-10.4595"/>
</g>
<!-- Node21 -->
<g id="node22" class="node"><title>Node21</title>
<polygon fill="white" stroke="#bfbfbf" points="1445.5,-0.5 1445.5,-19.5 1497.5,-19.5 1497.5,-0.5 1445.5,-0.5"/>
<text text-anchor="middle" x="1471.5" y="-7.5" font-family="Helvetica,sans-Serif" font-size="10.00">sstream</text>
</g>
<!-- Node20&#45;&gt;Node21 -->
<g id="edge29" class="edge"><title>Node20&#45;&gt;Node21</title>
<path fill="none" stroke="midnightblue" d="M1274.58,-56.4435C1318.72,-46.2567 1391.94,-29.3602 1435.57,-19.2914"/>
<polygon fill="midnightblue" stroke="midnightblue" points="1436.51,-22.6675 1445.46,-17.0084 1434.93,-15.8467 1436.51,-22.6675"/>
</g>
<!-- Node22&#45;&gt;Node14 -->
<g id="edge34" class="edge"><title>Node22&#45;&gt;Node14</title>
<path fill="none" stroke="midnightblue" d="M752.397,-137.009C754.23,-145.398 754.703,-158.496 753.817,-169.317"/>
<polygon fill="midnightblue" stroke="midnightblue" points="750.315,-169.088 752.401,-179.475 757.248,-170.054 750.315,-169.088"/>
</g>
<!-- Node22&#45;&gt;Node16 -->
<g id="edge33" class="edge"><title>Node22&#45;&gt;Node16</title>
<path fill="none" stroke="midnightblue" d="M747.5,-117.819C747.5,-99.2568 747.5,-55.3391 747.5,-29.9734"/>
<polygon fill="midnightblue" stroke="midnightblue" points="751,-29.782 747.5,-19.782 744,-29.782 751,-29.782"/>
</g>
<!-- Node23&#45;&gt;Node14 -->
<g id="edge37" class="edge"><title>Node23&#45;&gt;Node14</title>
<path fill="none" stroke="midnightblue" d="M962.36,-137.009C921.128,-147.584 846.925,-165.641 797.374,-177.186"/>
<polygon fill="midnightblue" stroke="midnightblue" points="796.454,-173.807 787.503,-179.475 798.035,-180.626 796.454,-173.807"/>
</g>
<!-- Node23&#45;&gt;Node16 -->
<g id="edge36" class="edge"><title>Node23&#45;&gt;Node16</title>
<path fill="none" stroke="midnightblue" d="M983.377,-117.871C967.391,-103.186 932.752,-73.251 898.5,-56 859.1,-36.1562 809.417,-23.4558 778.042,-16.7737"/>
<polygon fill="midnightblue" stroke="midnightblue" points="778.645,-13.3245 768.145,-14.7366 777.234,-20.1808 778.645,-13.3245"/>
</g>
<!-- Node24&#45;&gt;Node14 -->
<g id="edge40" class="edge"><title>Node24&#45;&gt;Node14</title>
<path fill="none" stroke="midnightblue" d="M1090.74,-137.009C1082.13,-139.125 1072.48,-141.278 1063.5,-143 986.165,-157.83 897.049,-170.396 833.146,-178.449"/>
<polygon fill="midnightblue" stroke="midnightblue" points="832.602,-174.989 823.113,-179.702 833.469,-181.935 832.602,-174.989"/>
</g>
<!-- Node24&#45;&gt;Node16 -->
<g id="edge39" class="edge"><title>Node24&#45;&gt;Node16</title>
<path fill="none" stroke="midnightblue" d="M1095.3,-117.99C1061.29,-103.87 990.277,-75.2524 928.5,-56 876.307,-39.7345 814.231,-25.3507 778.01,-17.4412"/>
<polygon fill="midnightblue" stroke="midnightblue" points="778.587,-13.9853 768.073,-15.2927 777.108,-20.8272 778.587,-13.9853"/>
</g>
<!-- Node25&#45;&gt;Node14 -->
<g id="edge43" class="edge"><title>Node25&#45;&gt;Node14</title>
<path fill="none" stroke="midnightblue" d="M658.985,-137.009C678.902,-146.723 708.562,-162.75 728.095,-174.244"/>
<polygon fill="midnightblue" stroke="midnightblue" points="726.411,-177.316 736.784,-179.475 730.022,-171.319 726.411,-177.316"/>
</g>
<!-- Node25&#45;&gt;Node16 -->
<g id="edge42" class="edge"><title>Node25&#45;&gt;Node16</title>
<path fill="none" stroke="midnightblue" d="M646.693,-117.819C664.841,-98.5879 708.674,-52.141 732.112,-27.3054"/>
<polygon fill="midnightblue" stroke="midnightblue" points="734.894,-29.457 739.212,-19.782 729.803,-24.6526 734.894,-29.457"/>
</g>
<!-- Node26&#45;&gt;Node14 -->
<g id="edge45" class="edge"><title>Node26&#45;&gt;Node14</title>
<path fill="none" stroke="midnightblue" d="M84.652,-137.004C93.7915,-139.304 103.476,-141.554 112.5,-143 354.964,-181.84 421.623,-158.546 666.587,-178.609"/>
<polygon fill="midnightblue" stroke="midnightblue" points="666.621,-182.124 676.877,-179.469 667.204,-175.149 666.621,-182.124"/>
</g>
<!-- Node26&#45;&gt;Node16 -->
<g id="edge46" class="edge"><title>Node26&#45;&gt;Node16</title>
<path fill="none" stroke="midnightblue" d="M79.7393,-117.989C87.5092,-115.983 95.7926,-113.882 103.5,-112 211.589,-85.6082 237.818,-74.6939 347.5,-56 484.212,-32.6992 649.341,-18.4818 716.673,-13.2672"/>
<polygon fill="midnightblue" stroke="midnightblue" points="717.283,-16.731 726.987,-12.48 716.75,-9.75128 717.283,-16.731"/>
</g>
<!-- Node27&#45;&gt;Node14 -->
<g id="edge49" class="edge"><title>Node27&#45;&gt;Node14</title>
<path fill="none" stroke="midnightblue" d="M451.437,-137.036C460.759,-139.105 470.469,-141.229 479.5,-143 549.68,-156.762 630.451,-169.537 684.897,-177.932"/>
<polygon fill="midnightblue" stroke="midnightblue" points="684.67,-181.438 695.086,-179.5 685.735,-174.52 684.67,-181.438"/>
</g>
<!-- Node27&#45;&gt;Node16 -->
<g id="edge48" class="edge"><title>Node27&#45;&gt;Node16</title>
<path fill="none" stroke="midnightblue" d="M422.367,-117.944C448.248,-103.367 503.592,-73.592 553.5,-56 609.684,-36.1956 678.12,-22.665 716.865,-15.9345"/>
<polygon fill="midnightblue" stroke="midnightblue" points="717.698,-19.3431 726.97,-14.2168 716.525,-12.442 717.698,-19.3431"/>
</g>
<!-- Node28&#45;&gt;Node14 -->
<g id="edge52" class="edge"><title>Node28&#45;&gt;Node14</title>
<path fill="none" stroke="midnightblue" d="M202.858,-137.036C212.28,-139.28 222.234,-141.492 231.5,-143 421.852,-173.975 474.365,-161.129 666.284,-178.532"/>
<polygon fill="midnightblue" stroke="midnightblue" points="666.143,-182.034 676.422,-179.467 666.786,-175.063 666.143,-182.034"/>
</g>
<!-- Node28&#45;&gt;Node16 -->
<g id="edge51" class="edge"><title>Node28&#45;&gt;Node16</title>
<path fill="none" stroke="midnightblue" d="M192.022,-117.913C241.007,-103.423 344.453,-73.9465 433.5,-56 536.455,-35.2505 660.274,-20.4427 716.735,-14.2392"/>
<polygon fill="midnightblue" stroke="midnightblue" points="717.225,-17.7067 726.789,-13.1477 716.469,-10.7475 717.225,-17.7067"/>
</g>
<!-- Node29&#45;&gt;Node14 -->
<g id="edge55" class="edge"><title>Node29&#45;&gt;Node14</title>
<path fill="none" stroke="midnightblue" d="M324.062,-137.004C333.447,-139.194 343.317,-141.386 352.5,-143 367.792,-145.688 553.022,-165.951 664.364,-178.352"/>
<polygon fill="midnightblue" stroke="midnightblue" points="664.243,-181.86 674.569,-179.489 665.018,-174.903 664.243,-181.86"/>
</g>
<!-- Node29&#45;&gt;Node16 -->
<g id="edge54" class="edge"><title>Node29&#45;&gt;Node16</title>
<path fill="none" stroke="midnightblue" d="M307.091,-117.892C347.202,-103.502 431.456,-74.3368 504.5,-56 579.975,-37.0528 670.478,-22.3654 716.831,-15.4124"/>
<polygon fill="midnightblue" stroke="midnightblue" points="717.452,-18.8586 726.831,-13.93 716.425,-11.9343 717.452,-18.8586"/>
</g>
<!-- Node30&#45;&gt;Node6 -->
<g id="edge64" class="edge"><title>Node30&#45;&gt;Node6</title>
<path fill="none" stroke="midnightblue" d="M1798.49,-179.064C1792.99,-163.784 1780.03,-132.323 1760.5,-112 1747.48,-98.4487 1729.51,-87.5585 1714.31,-79.8875"/>
<polygon fill="midnightblue" stroke="midnightblue" points="1715.8,-76.7214 1705.27,-75.5322 1712.76,-83.0271 1715.8,-76.7214"/>
</g>
<!-- Node30&#45;&gt;Node31 -->
<g id="edge57" class="edge"><title>Node30&#45;&gt;Node31</title>
<path fill="none" stroke="midnightblue" d="M1827.58,-179.475C1859.07,-169.18 1912.2,-151.81 1947.56,-140.25"/>
<polygon fill="midnightblue" stroke="midnightblue" points="1949.05,-143.443 1957.47,-137.009 1946.88,-136.79 1949.05,-143.443"/>
</g>
<!-- Node31&#45;&gt;Node12 -->
<g id="edge58" class="edge"><title>Node31&#45;&gt;Node12</title>
<path fill="none" stroke="midnightblue" d="M1966.74,-117.975C1947.28,-108.078 1914.95,-91.6416 1892.29,-80.1151"/>
<polygon fill="midnightblue" stroke="midnightblue" points="1893.73,-76.9224 1883.23,-75.5091 1890.56,-83.1619 1893.73,-76.9224"/>
</g>
<!-- Node31&#45;&gt;Node16 -->
<g id="edge63" class="edge"><title>Node31&#45;&gt;Node16</title>
<path fill="none" stroke="midnightblue" d="M1976.87,-117.956C1964.1,-102.246 1934.32,-69.18 1900.5,-56 1846.77,-35.0617 956.627,-15.3783 778.414,-11.6367"/>
<polygon fill="midnightblue" stroke="midnightblue" points="778.467,-8.13711 768.396,-11.4274 778.321,-15.1356 778.467,-8.13711"/>
</g>
<!-- Node31&#45;&gt;Node21 -->
<g id="edge62" class="edge"><title>Node31&#45;&gt;Node21</title>
<path fill="none" stroke="midnightblue" d="M2019.66,-120.539C2068.56,-111.042 2146.2,-90.001 2114.5,-56 2093.67,-33.6629 1640.65,-16.6944 1507.8,-12.185"/>
<polygon fill="midnightblue" stroke="midnightblue" points="1507.84,-8.6844 1497.73,-11.8462 1507.61,-15.6804 1507.84,-8.6844"/>
</g>
<!-- Node32 -->
<g id="node33" class="node"><title>Node32</title>
<polygon fill="white" stroke="#bfbfbf" points="2162,-56.5 2162,-75.5 2209,-75.5 2209,-56.5 2162,-56.5"/>
<text text-anchor="middle" x="2185.5" y="-63.5" font-family="Helvetica,sans-Serif" font-size="10.00">csignal</text>
</g>
<!-- Node31&#45;&gt;Node32 -->
<g id="edge59" class="edge"><title>Node31&#45;&gt;Node32</title>
<path fill="none" stroke="midnightblue" d="M2012.44,-117.975C2049.39,-107.091 2113.2,-88.2967 2152.15,-76.8229"/>
<polygon fill="midnightblue" stroke="midnightblue" points="2153.36,-80.1162 2161.96,-73.9332 2151.38,-73.4014 2153.36,-80.1162"/>
</g>
<!-- Node33 -->
<g id="node34" class="node"><title>Node33</title>
<polygon fill="white" stroke="#bfbfbf" points="1947.5,-56.5 1947.5,-75.5 2001.5,-75.5 2001.5,-56.5 1947.5,-56.5"/>
<text text-anchor="middle" x="1974.5" y="-63.5" font-family="Helvetica,sans-Serif" font-size="10.00">iostream</text>
</g>
<!-- Node31&#45;&gt;Node33 -->
<g id="edge60" class="edge"><title>Node31&#45;&gt;Node33</title>
<path fill="none" stroke="midnightblue" d="M1982.21,-117.975C1980.94,-109.58 1978.96,-96.4806 1977.32,-85.6631"/>
<polygon fill="midnightblue" stroke="midnightblue" points="1980.74,-84.8731 1975.79,-75.5091 1973.82,-85.9201 1980.74,-84.8731"/>
</g>
<!-- Node34 -->
<g id="node35" class="node"><title>Node34</title>
<polygon fill="white" stroke="#bfbfbf" points="2020,-56.5 2020,-75.5 2105,-75.5 2105,-56.5 2020,-56.5"/>
<text text-anchor="middle" x="2062.5" y="-63.5" font-family="Helvetica,sans-Serif" font-size="10.00">spdlog/spdlog.h</text>
</g>
<!-- Node31&#45;&gt;Node34 -->
<g id="edge61" class="edge"><title>Node31&#45;&gt;Node34</title>
<path fill="none" stroke="midnightblue" d="M1994.82,-117.975C2007.37,-108.52 2027.85,-93.0961 2043,-81.6871"/>
<polygon fill="midnightblue" stroke="midnightblue" points="2045.32,-84.321 2051.2,-75.5091 2041.11,-78.7295 2045.32,-84.321"/>
</g>
</g>
</svg>
