<?xml version="1.0" encoding="UTF-8" standalone="no"?>
<!DOCTYPE svg PUBLIC "-//W3C//DTD SVG 1.1//EN"
 "http://www.w3.org/Graphics/SVG/1.1/DTD/svg11.dtd">
<!-- Generated by graphviz version 2.38.0 (20140413.2041)
 -->
<!-- Title: src/core/audit/AuditFactory.hpp Pages: 1 -->
<svg width="1824pt" height="95pt"
 viewBox="0.00 0.00 1824.00 95.00" xmlns="http://www.w3.org/2000/svg" xmlns:xlink="http://www.w3.org/1999/xlink">
<g id="graph0" class="graph" transform="scale(1 1) rotate(0) translate(4 91)">
<title>src/core/audit/AuditFactory.hpp</title>
<polygon fill="white" stroke="none" points="-4,4 -4,-91 1820,-91 1820,4 -4,4"/>
<!-- Node11 -->
<g id="node1" class="node"><title>Node11</title>
<polygon fill="#bfbfbf" stroke="black" points="850.5,-67.5 850.5,-86.5 1003.5,-86.5 1003.5,-67.5 850.5,-67.5"/>
<text text-anchor="middle" x="927" y="-74.5" font-family="Helvetica,sans-Serif" font-size="10.00">src/core/audit/AuditFactory.hpp</text>
</g>
<!-- Node12 -->
<g id="node2" class="node"><title>Node12</title>
<g id="a_node2"><a xlink:href="../../d9/db8/Audit_8hpp.html" target="_top" xlink:title="src/core/audit/Audit.hpp">
<polygon fill="white" stroke="black" points="0,-6 0,-25 120,-25 120,-6 0,-6"/>
<text text-anchor="middle" x="60" y="-13" font-family="Helvetica,sans-Serif" font-size="10.00">src/core/audit/Audit.hpp</text>
</a>
</g>
</g>
<!-- Node11&#45;&gt;Node12 -->
<g id="edge1" class="edge"><title>Node11&#45;&gt;Node12</title>
<path fill="none" stroke="midnightblue" d="M840.136,-75.3795C693.104,-73.3746 386.085,-65.0633 129,-31 118.079,-29.5529 106.308,-27.3312 95.6357,-25.0583"/>
<polygon fill="midnightblue" stroke="midnightblue" points="840.398,-78.8831 850.443,-75.5133 840.489,-71.8837 840.398,-78.8831"/>
</g>
<!-- Node13 -->
<g id="node3" class="node"><title>Node13</title>
<g id="a_node3"><a xlink:href="../../d4/dbe/AuditFactory_8cpp.html" target="_top" xlink:title="src/core/audit/AuditFactory.cpp">
<polygon fill="white" stroke="black" points="138.5,-6 138.5,-25 291.5,-25 291.5,-6 138.5,-6"/>
<text text-anchor="middle" x="215" y="-13" font-family="Helvetica,sans-Serif" font-size="10.00">src/core/audit/AuditFactory.cpp</text>
</a>
</g>
</g>
<!-- Node11&#45;&gt;Node13 -->
<g id="edge2" class="edge"><title>Node11&#45;&gt;Node13</title>
<path fill="none" stroke="midnightblue" d="M839.693,-72.4203C718.318,-66.8328 491.867,-54.1945 300,-31 287.07,-29.4369 273.112,-27.2616 260.317,-25.0707"/>
<polygon fill="midnightblue" stroke="midnightblue" points="839.886,-75.9326 850.035,-72.891 840.204,-68.9399 839.886,-75.9326"/>
</g>
<!-- Node14 -->
<g id="node4" class="node"><title>Node14</title>
<g id="a_node4"><a xlink:href="../../d7/d29/AccessPointCRUD_8cpp.html" target="_top" xlink:title="src/modules/websock\l&#45;api/api/AccessPointCRUD.cpp">
<polygon fill="white" stroke="black" points="309.5,-0.5 309.5,-30.5 464.5,-30.5 464.5,-0.5 309.5,-0.5"/>
<text text-anchor="start" x="317.5" y="-18.5" font-family="Helvetica,sans-Serif" font-size="10.00">src/modules/websock</text>
<text text-anchor="middle" x="387" y="-7.5" font-family="Helvetica,sans-Serif" font-size="10.00">&#45;api/api/AccessPointCRUD.cpp</text>
</a>
</g>
</g>
<!-- Node11&#45;&gt;Node14 -->
<g id="edge3" class="edge"><title>Node11&#45;&gt;Node14</title>
<path fill="none" stroke="midnightblue" d="M840.248,-69.0984C748.921,-61.4316 601.052,-47.8794 474,-31 470.964,-30.5967 467.872,-30.1679 464.75,-29.72"/>
<polygon fill="midnightblue" stroke="midnightblue" points="840.02,-72.5914 850.276,-69.9357 840.602,-65.6157 840.02,-72.5914"/>
</g>
<!-- Node15 -->
<g id="node5" class="node"><title>Node15</title>
<g id="a_node5"><a xlink:href="../../d2/df6/CredentialCRUD_8cpp.html" target="_top" xlink:title="src/modules/websock\l&#45;api/api/CredentialCRUD.cpp">
<polygon fill="white" stroke="black" points="483,-0.5 483,-30.5 627,-30.5 627,-0.5 483,-0.5"/>
<text text-anchor="start" x="491" y="-18.5" font-family="Helvetica,sans-Serif" font-size="10.00">src/modules/websock</text>
<text text-anchor="middle" x="555" y="-7.5" font-family="Helvetica,sans-Serif" font-size="10.00">&#45;api/api/CredentialCRUD.cpp</text>
</a>
</g>
</g>
<!-- Node11&#45;&gt;Node15 -->
<g id="edge4" class="edge"><title>Node11&#45;&gt;Node15</title>
<path fill="none" stroke="midnightblue" d="M859.291,-65.9941C800.267,-57.1607 712.386,-43.7414 636,-31 633.182,-30.5299 630.309,-30.0448 627.409,-29.5498"/>
<polygon fill="midnightblue" stroke="midnightblue" points="858.83,-69.464 869.238,-67.4801 859.865,-62.5409 858.83,-69.464"/>
</g>
<!-- Node16 -->
<g id="node6" class="node"><title>Node16</title>
<g id="a_node6"><a xlink:href="../../d7/dde/DoorCRUD_8cpp.html" target="_top" xlink:title="src/modules/websock\l&#45;api/api/DoorCRUD.cpp">
<polygon fill="white" stroke="black" points="645.5,-0.5 645.5,-30.5 766.5,-30.5 766.5,-0.5 645.5,-0.5"/>
<text text-anchor="start" x="653.5" y="-18.5" font-family="Helvetica,sans-Serif" font-size="10.00">src/modules/websock</text>
<text text-anchor="middle" x="706" y="-7.5" font-family="Helvetica,sans-Serif" font-size="10.00">&#45;api/api/DoorCRUD.cpp</text>
</a>
</g>
</g>
<!-- Node11&#45;&gt;Node16 -->
<g id="edge5" class="edge"><title>Node11&#45;&gt;Node16</title>
<path fill="none" stroke="midnightblue" d="M885.619,-64.859C849.536,-55.1442 797.02,-41.0055 758.085,-30.523"/>
<polygon fill="midnightblue" stroke="midnightblue" points="884.77,-68.2549 895.336,-67.4751 886.59,-61.4956 884.77,-68.2549"/>
</g>
<!-- Node17 -->
<g id="node7" class="node"><title>Node17</title>
<g id="a_node7"><a xlink:href="../../d1/de1/GroupCRUD_8cpp.html" target="_top" xlink:title="src/modules/websock\l&#45;api/api/GroupCRUD.cpp">
<polygon fill="white" stroke="black" points="785,-0.5 785,-30.5 911,-30.5 911,-0.5 785,-0.5"/>
<text text-anchor="start" x="793" y="-18.5" font-family="Helvetica,sans-Serif" font-size="10.00">src/modules/websock</text>
<text text-anchor="middle" x="848" y="-7.5" font-family="Helvetica,sans-Serif" font-size="10.00">&#45;api/api/GroupCRUD.cpp</text>
</a>
</g>
</g>
<!-- Node11&#45;&gt;Node17 -->
<g id="edge6" class="edge"><title>Node11&#45;&gt;Node17</title>
<path fill="none" stroke="midnightblue" d="M907.344,-61.1955C894.886,-51.8129 878.871,-39.7512 866.619,-30.523"/>
<polygon fill="midnightblue" stroke="midnightblue" points="905.588,-64.2547 915.681,-67.4751 909.799,-58.6631 905.588,-64.2547"/>
</g>
<!-- Node18 -->
<g id="node8" class="node"><title>Node18</title>
<g id="a_node8"><a xlink:href="../../df/dc4/MembershipCRUD_8cpp.html" target="_top" xlink:title="src/modules/websock\l&#45;api/api/MembershipCRUD.cpp">
<polygon fill="white" stroke="black" points="929.5,-0.5 929.5,-30.5 1082.5,-30.5 1082.5,-0.5 929.5,-0.5"/>
<text text-anchor="start" x="937.5" y="-18.5" font-family="Helvetica,sans-Serif" font-size="10.00">src/modules/websock</text>
<text text-anchor="middle" x="1006" y="-7.5" font-family="Helvetica,sans-Serif" font-size="10.00">&#45;api/api/MembershipCRUD.cpp</text>
</a>
</g>
</g>
<!-- Node11&#45;&gt;Node18 -->
<g id="edge7" class="edge"><title>Node11&#45;&gt;Node18</title>
<path fill="none" stroke="midnightblue" d="M946.656,-61.1955C959.114,-51.8129 975.129,-39.7512 987.381,-30.523"/>
<polygon fill="midnightblue" stroke="midnightblue" points="944.201,-58.6631 938.319,-67.4751 948.412,-64.2547 944.201,-58.6631"/>
</g>
<!-- Node19 -->
<g id="node9" class="node"><title>Node19</title>
<g id="a_node9"><a xlink:href="../../d7/da0/PasswordChange_8cpp.html" target="_top" xlink:title="src/modules/websock\l&#45;api/api/PasswordChange.cpp">
<polygon fill="white" stroke="black" points="1100.5,-0.5 1100.5,-30.5 1247.5,-30.5 1247.5,-0.5 1100.5,-0.5"/>
<text text-anchor="start" x="1108.5" y="-18.5" font-family="Helvetica,sans-Serif" font-size="10.00">src/modules/websock</text>
<text text-anchor="middle" x="1174" y="-7.5" font-family="Helvetica,sans-Serif" font-size="10.00">&#45;api/api/PasswordChange.cpp</text>
</a>
</g>
</g>
<!-- Node11&#45;&gt;Node19 -->
<g id="edge8" class="edge"><title>Node11&#45;&gt;Node19</title>
<path fill="none" stroke="midnightblue" d="M972.219,-65.1072C1012.57,-55.3862 1071.9,-41.0951 1115.79,-30.523"/>
<polygon fill="midnightblue" stroke="midnightblue" points="971.291,-61.7304 962.389,-67.4751 972.931,-68.5358 971.291,-61.7304"/>
</g>
<!-- Node20 -->
<g id="node10" class="node"><title>Node20</title>
<g id="a_node10"><a xlink:href="../../df/dfa/ScheduleCRUD_8cpp.html" target="_top" xlink:title="src/modules/websock\l&#45;api/api/ScheduleCRUD.cpp">
<polygon fill="white" stroke="black" points="1266,-0.5 1266,-30.5 1406,-30.5 1406,-0.5 1266,-0.5"/>
<text text-anchor="start" x="1274" y="-18.5" font-family="Helvetica,sans-Serif" font-size="10.00">src/modules/websock</text>
<text text-anchor="middle" x="1336" y="-7.5" font-family="Helvetica,sans-Serif" font-size="10.00">&#45;api/api/ScheduleCRUD.cpp</text>
</a>
</g>
</g>
<!-- Node11&#45;&gt;Node20 -->
<g id="edge9" class="edge"><title>Node11&#45;&gt;Node20</title>
<path fill="none" stroke="midnightblue" d="M1006.4,-66.2131C1073.34,-57.7133 1171.6,-44.6528 1257,-31 1259.89,-30.5377 1262.84,-30.0537 1265.82,-29.5547"/>
<polygon fill="midnightblue" stroke="midnightblue" points="1005.83,-62.7577 996.348,-67.4855 1006.71,-69.7023 1005.83,-62.7577"/>
</g>
<!-- Node21 -->
<g id="node11" class="node"><title>Node21</title>
<g id="a_node11"><a xlink:href="../../df/df7/UserCRUD_8cpp.html" target="_top" xlink:title="src/modules/websock\l&#45;api/api/UserCRUD.cpp">
<polygon fill="white" stroke="black" points="1424.5,-0.5 1424.5,-30.5 1545.5,-30.5 1545.5,-0.5 1424.5,-0.5"/>
<text text-anchor="start" x="1432.5" y="-18.5" font-family="Helvetica,sans-Serif" font-size="10.00">src/modules/websock</text>
<text text-anchor="middle" x="1485" y="-7.5" font-family="Helvetica,sans-Serif" font-size="10.00">&#45;api/api/UserCRUD.cpp</text>
</a>
</g>
</g>
<!-- Node11&#45;&gt;Node21 -->
<g id="edge10" class="edge"><title>Node11&#45;&gt;Node21</title>
<path fill="none" stroke="midnightblue" d="M1013.95,-70.9389C1111.83,-64.5566 1275.41,-51.826 1415,-31 1418.07,-30.5422 1421.21,-30.0355 1424.37,-29.4938"/>
<polygon fill="midnightblue" stroke="midnightblue" points="1013.57,-67.4565 1003.81,-71.5928 1014.02,-74.442 1013.57,-67.4565"/>
</g>
<!-- Node22 -->
<g id="node12" class="node"><title>Node22</title>
<g id="a_node12"><a xlink:href="../../de/dd7/ZoneCRUD_8cpp.html" target="_top" xlink:title="src/modules/websock\l&#45;api/api/ZoneCRUD.cpp">
<polygon fill="white" stroke="black" points="1564,-0.5 1564,-30.5 1686,-30.5 1686,-0.5 1564,-0.5"/>
<text text-anchor="start" x="1572" y="-18.5" font-family="Helvetica,sans-Serif" font-size="10.00">src/modules/websock</text>
<text text-anchor="middle" x="1625" y="-7.5" font-family="Helvetica,sans-Serif" font-size="10.00">&#45;api/api/ZoneCRUD.cpp</text>
</a>
</g>
</g>
<!-- Node11&#45;&gt;Node22 -->
<g id="edge11" class="edge"><title>Node11&#45;&gt;Node22</title>
<path fill="none" stroke="midnightblue" d="M1014.07,-73.4116C1135.66,-68.9681 1363,-57.6442 1555,-31 1557.95,-30.5906 1560.96,-30.1305 1564,-29.6328"/>
<polygon fill="midnightblue" stroke="midnightblue" points="1013.58,-69.9268 1003.71,-73.7828 1013.83,-76.9223 1013.58,-69.9268"/>
</g>
<!-- Node23 -->
<g id="node13" class="node"><title>Node23</title>
<g id="a_node13"><a xlink:href="../../d4/d2c/WSServer_8cpp.html" target="_top" xlink:title="src/modules/websock\l&#45;api/WSServer.cpp">
<polygon fill="white" stroke="black" points="1704,-0.5 1704,-30.5 1816,-30.5 1816,-0.5 1704,-0.5"/>
<text text-anchor="start" x="1712" y="-18.5" font-family="Helvetica,sans-Serif" font-size="10.00">src/modules/websock</text>
<text text-anchor="middle" x="1760" y="-7.5" font-family="Helvetica,sans-Serif" font-size="10.00">&#45;api/WSServer.cpp</text>
</a>
</g>
</g>
<!-- Node11&#45;&gt;Node23 -->
<g id="edge12" class="edge"><title>Node11&#45;&gt;Node23</title>
<path fill="none" stroke="midnightblue" d="M1013.72,-75.4532C1156.46,-73.5394 1449.57,-65.3374 1695,-31 1697.86,-30.5995 1700.79,-30.1389 1703.73,-29.6339"/>
<polygon fill="midnightblue" stroke="midnightblue" points="1013.66,-71.9536 1003.71,-75.5804 1013.75,-78.9531 1013.66,-71.9536"/>
</g>
</g>
</svg>
