<?xml version="1.0" encoding="UTF-8" standalone="no"?>
<!DOCTYPE svg PUBLIC "-//W3C//DTD SVG 1.1//EN"
 "http://www.w3.org/Graphics/SVG/1.1/DTD/svg11.dtd">
<!-- Generated by graphviz version 2.38.0 (20140413.2041)
 -->
<!-- Title: src/tools/log.hpp Pages: 1 -->
<svg width="428pt" height="84pt"
 viewBox="0.00 0.00 428.00 84.00" xmlns="http://www.w3.org/2000/svg" xmlns:xlink="http://www.w3.org/1999/xlink">
<g id="graph0" class="graph" transform="scale(1 1) rotate(0) translate(4 80)">
<title>src/tools/log.hpp</title>
<polygon fill="white" stroke="none" points="-4,4 -4,-80 424,-80 424,4 -4,4"/>
<!-- Node0 -->
<g id="node1" class="node"><title>Node0</title>
<polygon fill="#bfbfbf" stroke="black" points="159,-56.5 159,-75.5 248,-75.5 248,-56.5 159,-56.5"/>
<text text-anchor="middle" x="203.5" y="-63.5" font-family="Helvetica,sans-Serif" font-size="10.00">src/tools/log.hpp</text>
</g>
<!-- Node1 -->
<g id="node2" class="node"><title>Node1</title>
<polygon fill="white" stroke="#bfbfbf" points="0,-0.5 0,-19.5 49,-19.5 49,-0.5 0,-0.5"/>
<text text-anchor="middle" x="24.5" y="-7.5" font-family="Helvetica,sans-Serif" font-size="10.00">cassert</text>
</g>
<!-- Node0&#45;&gt;Node1 -->
<g id="edge1" class="edge"><title>Node0&#45;&gt;Node1</title>
<path fill="none" stroke="midnightblue" d="M175.137,-56.4435C143.69,-46.9567 92.9534,-31.6507 59.1713,-21.4595"/>
<polygon fill="midnightblue" stroke="midnightblue" points="59.8564,-18.0104 49.2717,-18.473 57.8346,-24.7121 59.8564,-18.0104"/>
</g>
<!-- Node2 -->
<g id="node3" class="node"><title>Node2</title>
<polygon fill="white" stroke="#bfbfbf" points="67,-0.5 67,-19.5 114,-19.5 114,-0.5 67,-0.5"/>
<text text-anchor="middle" x="90.5" y="-7.5" font-family="Helvetica,sans-Serif" font-size="10.00">csignal</text>
</g>
<!-- Node0&#45;&gt;Node2 -->
<g id="edge2" class="edge"><title>Node0&#45;&gt;Node2</title>
<path fill="none" stroke="midnightblue" d="M185.595,-56.4435C167.246,-47.6751 138.495,-33.9355 117.406,-23.8579"/>
<polygon fill="midnightblue" stroke="midnightblue" points="118.853,-20.6703 108.321,-19.5164 115.835,-26.9862 118.853,-20.6703"/>
</g>
<!-- Node3 -->
<g id="node4" class="node"><title>Node3</title>
<polygon fill="white" stroke="#bfbfbf" points="132.5,-0.5 132.5,-19.5 186.5,-19.5 186.5,-0.5 132.5,-0.5"/>
<text text-anchor="middle" x="159.5" y="-7.5" font-family="Helvetica,sans-Serif" font-size="10.00">iostream</text>
</g>
<!-- Node0&#45;&gt;Node3 -->
<g id="edge3" class="edge"><title>Node0&#45;&gt;Node3</title>
<path fill="none" stroke="midnightblue" d="M196.234,-56.083C189.955,-48.3768 180.712,-37.0333 173.069,-27.6531"/>
<polygon fill="midnightblue" stroke="midnightblue" points="175.661,-25.2926 166.631,-19.7511 170.234,-29.7143 175.661,-25.2926"/>
</g>
<!-- Node4 -->
<g id="node5" class="node"><title>Node4</title>
<polygon fill="white" stroke="#bfbfbf" points="205,-0.5 205,-19.5 290,-19.5 290,-0.5 205,-0.5"/>
<text text-anchor="middle" x="247.5" y="-7.5" font-family="Helvetica,sans-Serif" font-size="10.00">spdlog/spdlog.h</text>
</g>
<!-- Node0&#45;&gt;Node4 -->
<g id="edge4" class="edge"><title>Node0&#45;&gt;Node4</title>
<path fill="none" stroke="midnightblue" d="M210.766,-56.083C217.045,-48.3768 226.288,-37.0333 233.931,-27.6531"/>
<polygon fill="midnightblue" stroke="midnightblue" points="236.766,-29.7143 240.369,-19.7511 231.339,-25.2926 236.766,-29.7143"/>
</g>
<!-- Node5 -->
<g id="node6" class="node"><title>Node5</title>
<polygon fill="white" stroke="#bfbfbf" points="308.5,-0.5 308.5,-19.5 360.5,-19.5 360.5,-0.5 308.5,-0.5"/>
<text text-anchor="middle" x="334.5" y="-7.5" font-family="Helvetica,sans-Serif" font-size="10.00">sstream</text>
</g>
<!-- Node0&#45;&gt;Node5 -->
<g id="edge5" class="edge"><title>Node0&#45;&gt;Node5</title>
<path fill="none" stroke="midnightblue" d="M224.257,-56.4435C245.816,-47.5566 279.763,-33.5632 304.294,-23.4514"/>
<polygon fill="midnightblue" stroke="midnightblue" points="305.928,-26.5634 313.84,-19.5164 303.261,-20.0917 305.928,-26.5634"/>
</g>
<!-- Node6 -->
<g id="node7" class="node"><title>Node6</title>
<polygon fill="white" stroke="#bfbfbf" points="379,-0.5 379,-19.5 420,-19.5 420,-0.5 379,-0.5"/>
<text text-anchor="middle" x="399.5" y="-7.5" font-family="Helvetica,sans-Serif" font-size="10.00">string</text>
</g>
<!-- Node0&#45;&gt;Node6 -->
<g id="edge6" class="edge"><title>Node0&#45;&gt;Node6</title>
<path fill="none" stroke="midnightblue" d="M236.016,-56.4606C267.57,-48.1129 317.045,-34.8653 369.115,-20.0528"/>
<polygon fill="midnightblue" stroke="midnightblue" points="370.209,-23.3804 378.864,-17.2696 368.288,-16.6493 370.209,-23.3804"/>
</g>
</g>
</svg>
