<?xml version="1.0" encoding="UTF-8" standalone="no"?>
<!DOCTYPE svg PUBLIC "-//W3C//DTD SVG 1.1//EN"
 "http://www.w3.org/Graphics/SVG/1.1/DTD/svg11.dtd">
<!-- Generated by graphviz version 2.38.0 (20140413.2041)
 -->
<!-- Title: src/modules/tcp&#45;notifier/ProtocolHandler.cpp Pages: 1 -->
<svg width="323pt" height="285pt"
 viewBox="0.00 0.00 322.50 285.00" xmlns="http://www.w3.org/2000/svg" xmlns:xlink="http://www.w3.org/1999/xlink">
<g id="graph0" class="graph" transform="scale(1 1) rotate(0) translate(4 281)">
<title>src/modules/tcp&#45;notifier/ProtocolHandler.cpp</title>
<polygon fill="white" stroke="none" points="-4,4 -4,-281 318.5,-281 318.5,4 -4,4"/>
<!-- Node0 -->
<g id="node1" class="node"><title>Node0</title>
<polygon fill="#bfbfbf" stroke="black" points="111.5,-246.5 111.5,-276.5 230.5,-276.5 230.5,-246.5 111.5,-246.5"/>
<text text-anchor="start" x="119.5" y="-264.5" font-family="Helvetica,sans-Serif" font-size="10.00">src/modules/tcp&#45;notifier</text>
<text text-anchor="middle" x="171" y="-253.5" font-family="Helvetica,sans-Serif" font-size="10.00">/ProtocolHandler.cpp</text>
</g>
<!-- Node1 -->
<g id="node2" class="node"><title>Node1</title>
<g id="a_node2"><a xlink:href="../../dc/d76/ProtocolHandler_8hpp.html" target="_top" xlink:title="ProtocolHandler.hpp">
<polygon fill="white" stroke="black" points="118.5,-123.5 118.5,-142.5 223.5,-142.5 223.5,-123.5 118.5,-123.5"/>
<text text-anchor="middle" x="171" y="-130.5" font-family="Helvetica,sans-Serif" font-size="10.00">ProtocolHandler.hpp</text>
</a>
</g>
</g>
<!-- Node0&#45;&gt;Node1 -->
<g id="edge1" class="edge"><title>Node0&#45;&gt;Node1</title>
<path fill="none" stroke="midnightblue" d="M160.561,-246.315C154.103,-236.627 146.414,-223.199 143,-210 139.55,-196.661 139.215,-192.248 143,-179 145.902,-168.844 151.832,-158.747 157.49,-150.699"/>
<polygon fill="midnightblue" stroke="midnightblue" points="160.376,-152.685 163.588,-142.589 154.781,-148.479 160.376,-152.685"/>
</g>
<!-- Node8 -->
<g id="node9" class="node"><title>Node8</title>
<g id="a_node9"><a xlink:href="../../df/d3b/PushSimpleCardNumber_8hpp.html" target="_top" xlink:title="protocols/PushSimpleCard\lNumber.hpp">
<polygon fill="white" stroke="black" points="152.5,-179.5 152.5,-209.5 285.5,-209.5 285.5,-179.5 152.5,-179.5"/>
<text text-anchor="start" x="160.5" y="-197.5" font-family="Helvetica,sans-Serif" font-size="10.00">protocols/PushSimpleCard</text>
<text text-anchor="middle" x="219" y="-186.5" font-family="Helvetica,sans-Serif" font-size="10.00">Number.hpp</text>
</a>
</g>
</g>
<!-- Node0&#45;&gt;Node8 -->
<g id="edge9" class="edge"><title>Node0&#45;&gt;Node8</title>
<path fill="none" stroke="midnightblue" d="M181.415,-246.396C187.579,-238.049 195.526,-227.287 202.524,-217.811"/>
<polygon fill="midnightblue" stroke="midnightblue" points="205.48,-219.7 208.605,-209.577 199.849,-215.542 205.48,-219.7"/>
</g>
<!-- Node2 -->
<g id="node3" class="node"><title>Node2</title>
<g id="a_node3"><a xlink:href="../../dc/d49/LeosacFwd_8hpp.html" target="_top" xlink:title="LeosacFwd.hpp">
<polygon fill="white" stroke="black" points="0,-62 0,-81 86,-81 86,-62 0,-62"/>
<text text-anchor="middle" x="43" y="-69" font-family="Helvetica,sans-Serif" font-size="10.00">LeosacFwd.hpp</text>
</a>
</g>
</g>
<!-- Node1&#45;&gt;Node2 -->
<g id="edge2" class="edge"><title>Node1&#45;&gt;Node2</title>
<path fill="none" stroke="midnightblue" d="M152.661,-123.475C131.179,-113.49 95.378,-96.8476 70.5523,-85.3075"/>
<polygon fill="midnightblue" stroke="midnightblue" points="71.8488,-82.0506 61.3053,-81.0091 68.8981,-88.3983 71.8488,-82.0506"/>
</g>
<!-- Node5 -->
<g id="node6" class="node"><title>Node5</title>
<g id="a_node6"><a xlink:href="../../d7/d7f/CredentialFwd_8hpp.html" target="_top" xlink:title="core/credentials/Credential\lFwd.hpp">
<polygon fill="white" stroke="black" points="104.5,-56.5 104.5,-86.5 237.5,-86.5 237.5,-56.5 104.5,-56.5"/>
<text text-anchor="start" x="112.5" y="-74.5" font-family="Helvetica,sans-Serif" font-size="10.00">core/credentials/Credential</text>
<text text-anchor="middle" x="171" y="-63.5" font-family="Helvetica,sans-Serif" font-size="10.00">Fwd.hpp</text>
</a>
</g>
</g>
<!-- Node1&#45;&gt;Node5 -->
<g id="edge5" class="edge"><title>Node1&#45;&gt;Node5</title>
<path fill="none" stroke="midnightblue" d="M171,-123.475C171,-116.471 171,-106.192 171,-96.6956"/>
<polygon fill="midnightblue" stroke="midnightblue" points="174.5,-96.5229 171,-86.523 167.5,-96.523 174.5,-96.5229"/>
</g>
<!-- Node7 -->
<g id="node8" class="node"><title>Node7</title>
<polygon fill="white" stroke="#bfbfbf" points="255.5,-62 255.5,-81 314.5,-81 314.5,-62 255.5,-62"/>
<text text-anchor="middle" x="285" y="-69" font-family="Helvetica,sans-Serif" font-size="10.00">stdexcept</text>
</g>
<!-- Node1&#45;&gt;Node7 -->
<g id="edge8" class="edge"><title>Node1&#45;&gt;Node7</title>
<path fill="none" stroke="midnightblue" d="M187.333,-123.475C206.211,-113.622 237.507,-97.2883 259.576,-85.7697"/>
<polygon fill="midnightblue" stroke="midnightblue" points="261.451,-88.7389 268.697,-81.0091 258.212,-82.5333 261.451,-88.7389"/>
</g>
<!-- Node3 -->
<g id="node4" class="node"><title>Node3</title>
<polygon fill="white" stroke="#bfbfbf" points="71,-0.5 71,-19.5 123,-19.5 123,-0.5 71,-0.5"/>
<text text-anchor="middle" x="97" y="-7.5" font-family="Helvetica,sans-Serif" font-size="10.00">memory</text>
</g>
<!-- Node2&#45;&gt;Node3 -->
<g id="edge3" class="edge"><title>Node2&#45;&gt;Node3</title>
<path fill="none" stroke="midnightblue" d="M50.7369,-61.9751C58.9973,-52.8733 72.2771,-38.241 82.4945,-26.983"/>
<polygon fill="midnightblue" stroke="midnightblue" points="85.1487,-29.2663 89.2775,-19.5091 79.9651,-24.5619 85.1487,-29.2663"/>
</g>
<!-- Node4 -->
<g id="node5" class="node"><title>Node4</title>
<polygon fill="white" stroke="#bfbfbf" points="9,-0.5 9,-19.5 53,-19.5 53,-0.5 9,-0.5"/>
<text text-anchor="middle" x="31" y="-7.5" font-family="Helvetica,sans-Serif" font-size="10.00">vector</text>
</g>
<!-- Node2&#45;&gt;Node4 -->
<g id="edge4" class="edge"><title>Node2&#45;&gt;Node4</title>
<path fill="none" stroke="midnightblue" d="M41.2807,-61.9751C39.5698,-53.4919 36.8899,-40.2043 34.6952,-29.3222"/>
<polygon fill="midnightblue" stroke="midnightblue" points="38.1241,-28.6197 32.7161,-19.5091 31.2623,-30.0037 38.1241,-28.6197"/>
</g>
<!-- Node5&#45;&gt;Node3 -->
<g id="edge6" class="edge"><title>Node5&#45;&gt;Node3</title>
<path fill="none" stroke="midnightblue" d="M153.463,-56.3993C142.156,-47.3076 127.458,-35.4899 115.893,-26.1909"/>
<polygon fill="midnightblue" stroke="midnightblue" points="117.754,-23.1964 107.768,-19.6578 113.368,-28.6517 117.754,-23.1964"/>
</g>
<!-- Node6 -->
<g id="node7" class="node"><title>Node6</title>
<polygon fill="white" stroke="#bfbfbf" points="141,-0.5 141,-19.5 227,-19.5 227,-0.5 141,-0.5"/>
<text text-anchor="middle" x="184" y="-7.5" font-family="Helvetica,sans-Serif" font-size="10.00">odb/lazy&#45;ptr.hxx</text>
</g>
<!-- Node5&#45;&gt;Node6 -->
<g id="edge7" class="edge"><title>Node5&#45;&gt;Node6</title>
<path fill="none" stroke="midnightblue" d="M174.081,-56.3993C175.834,-48.3772 178.05,-38.2328 179.943,-29.569"/>
<polygon fill="midnightblue" stroke="midnightblue" points="183.393,-30.1744 182.108,-19.6578 176.554,-28.6802 183.393,-30.1744"/>
</g>
<!-- Node8&#45;&gt;Node1 -->
<g id="edge10" class="edge"><title>Node8&#45;&gt;Node1</title>
<path fill="none" stroke="midnightblue" d="M207.625,-179.399C200.65,-170.753 191.686,-159.642 184.372,-150.576"/>
<polygon fill="midnightblue" stroke="midnightblue" points="186.987,-148.243 177.984,-142.658 181.539,-152.638 186.987,-148.243"/>
</g>
</g>
</svg>
