<?xml version="1.0" encoding="UTF-8" standalone="no"?>
<!DOCTYPE svg PUBLIC "-//W3C//DTD SVG 1.1//EN"
 "http://www.w3.org/Graphics/SVG/1.1/DTD/svg11.dtd">
<!-- Generated by graphviz version 2.38.0 (20140413.2041)
 -->
<!-- Title: Leosac::Module::TestAndReset::TestAndResetModule Pages: 1 -->
<svg width="769pt" height="137pt"
 viewBox="0.00 0.00 769.00 137.00" xmlns="http://www.w3.org/2000/svg" xmlns:xlink="http://www.w3.org/1999/xlink">
<g id="graph0" class="graph" transform="scale(1 1) rotate(0) translate(4 133)">
<title>Leosac::Module::TestAndReset::TestAndResetModule</title>
<polygon fill="white" stroke="none" points="-4,4 -4,-133 765,-133 765,4 -4,4"/>
<!-- Node2 -->
<g id="node1" class="node"><title>Node2</title>
<polygon fill="#bfbfbf" stroke="black" points="606,-52 606,-82 761,-82 761,-52 606,-52"/>
<text text-anchor="start" x="614" y="-70" font-family="Helvetica,sans-Serif" font-size="10.00">Leosac::Module::TestAndReset</text>
<text text-anchor="middle" x="683.5" y="-59" font-family="Helvetica,sans-Serif" font-size="10.00">::TestAndResetModule</text>
</g>
<!-- Node3 -->
<g id="node2" class="node"><title>Node3</title>
<g id="a_node2"><a xlink:href="../../df/d9f/classLeosac_1_1Module_1_1BaseModule.html" target="_top" xlink:title="Base class for module implementation. ">
<polygon fill="white" stroke="black" points="336,-57.5 336,-76.5 482,-76.5 482,-57.5 336,-57.5"/>
<text text-anchor="middle" x="409" y="-64.5" font-family="Helvetica,sans-Serif" font-size="10.00">Leosac::Module::BaseModule</text>
</a>
</g>
</g>
<!-- Node3&#45;&gt;Node2 -->
<g id="edge1" class="edge"><title>Node3&#45;&gt;Node2</title>
<path fill="none" stroke="midnightblue" d="M492.747,-67C528.615,-67 570.364,-67 605.555,-67"/>
<polygon fill="midnightblue" stroke="midnightblue" points="492.31,-63.5001 482.31,-67 492.31,-70.5001 492.31,-63.5001"/>
</g>
<!-- Node4 -->
<g id="node3" class="node"><title>Node4</title>
<g id="a_node3"><a xlink:title="STL class. ">
<polygon fill="white" stroke="#bfbfbf" points="166,-91.5 166,-110.5 226,-110.5 226,-91.5 166,-91.5"/>
<text text-anchor="middle" x="196" y="-98.5" font-family="Helvetica,sans-Serif" font-size="10.00">std::string</text>
</a>
</g>
</g>
<!-- Node4&#45;&gt;Node3 -->
<g id="edge2" class="edge"><title>Node4&#45;&gt;Node3</title>
<path fill="none" stroke="#9a32cd" stroke-dasharray="5,2" d="M236.536,-94.6292C268.197,-89.5275 313.095,-82.2927 349.006,-76.5062"/>
<polygon fill="#9a32cd" stroke="#9a32cd" points="235.654,-91.2261 226.339,-96.2724 236.768,-98.1369 235.654,-91.2261"/>
<text text-anchor="middle" x="298" y="-91" font-family="Helvetica,sans-Serif" font-size="10.00"> name_</text>
</g>
<!-- Node9 -->
<g id="node8" class="node"><title>Node9</title>
<polygon fill="white" stroke="#bfbfbf" points="354,-98 354,-128 464,-128 464,-98 354,-98"/>
<text text-anchor="start" x="362" y="-116" font-family="Helvetica,sans-Serif" font-size="10.00">std::map&lt; std::string,</text>
<text text-anchor="middle" x="409" y="-105" font-family="Helvetica,sans-Serif" font-size="10.00"> std::string &gt;</text>
</g>
<!-- Node4&#45;&gt;Node9 -->
<g id="edge8" class="edge"><title>Node4&#45;&gt;Node9</title>
<path fill="none" stroke="#9a32cd" stroke-dasharray="5,2" d="M236.53,-103.248C269.581,-105.128 317.059,-107.828 353.679,-109.911"/>
<polygon fill="#9a32cd" stroke="#9a32cd" points="236.521,-99.7421 226.339,-102.669 236.124,-106.731 236.521,-99.7421"/>
<text text-anchor="middle" x="298" y="-121" font-family="Helvetica,sans-Serif" font-size="10.00"> keys</text>
<text text-anchor="middle" x="298" y="-110" font-family="Helvetica,sans-Serif" font-size="10.00">elements</text>
</g>
<!-- Node5 -->
<g id="node4" class="node"><title>Node5</title>
<g id="a_node4"><a xlink:title="STL class. ">
<polygon fill="white" stroke="#bfbfbf" points="0,-86 0,-116 95,-116 95,-86 0,-86"/>
<text text-anchor="start" x="8" y="-104" font-family="Helvetica,sans-Serif" font-size="10.00">std::basic_string&lt;</text>
<text text-anchor="middle" x="47.5" y="-93" font-family="Helvetica,sans-Serif" font-size="10.00"> char &gt;</text>
</a>
</g>
</g>
<!-- Node5&#45;&gt;Node4 -->
<g id="edge3" class="edge"><title>Node5&#45;&gt;Node4</title>
<path fill="none" stroke="midnightblue" d="M105.499,-101C126.078,-101 148.459,-101 165.692,-101"/>
<polygon fill="midnightblue" stroke="midnightblue" points="105.256,-97.5001 95.2563,-101 105.256,-104.5 105.256,-97.5001"/>
</g>
<!-- Node6 -->
<g id="node5" class="node"><title>Node6</title>
<polygon fill="white" stroke="#bfbfbf" points="177,-38.5 177,-57.5 215,-57.5 215,-38.5 177,-38.5"/>
<text text-anchor="middle" x="196" y="-45.5" font-family="Helvetica,sans-Serif" font-size="10.00">ptree</text>
</g>
<!-- Node6&#45;&gt;Node3 -->
<g id="edge4" class="edge"><title>Node6&#45;&gt;Node3</title>
<path fill="none" stroke="#9a32cd" stroke-dasharray="5,2" d="M225.166,-46.7318C249.743,-45.9828 286.327,-45.7315 318,-49 334.801,-50.7338 353.119,-54.1178 368.817,-57.4883"/>
<polygon fill="#9a32cd" stroke="#9a32cd" points="224.969,-43.2364 215.099,-47.0872 225.216,-50.2321 224.969,-43.2364"/>
<text text-anchor="middle" x="298" y="-52" font-family="Helvetica,sans-Serif" font-size="10.00"> config_</text>
</g>
<!-- Node7 -->
<g id="node6" class="node"><title>Node7</title>
<polygon fill="white" stroke="#bfbfbf" points="348,-4 348,-34 470,-34 470,-4 348,-4"/>
<text text-anchor="start" x="356" y="-22" font-family="Helvetica,sans-Serif" font-size="10.00">std::unique_ptr&lt; Leosac</text>
<text text-anchor="middle" x="409" y="-11" font-family="Helvetica,sans-Serif" font-size="10.00">::Hardware::FLED &gt;</text>
</g>
<!-- Node7&#45;&gt;Node2 -->
<g id="edge5" class="edge"><title>Node7&#45;&gt;Node2</title>
<path fill="none" stroke="#9a32cd" stroke-dasharray="5,2" d="M480.077,-25.2814C513.012,-28.8401 552.708,-34.0027 588,-41 602.688,-43.9122 618.445,-47.8945 632.799,-51.8671"/>
<polygon fill="#9a32cd" stroke="#9a32cd" points="480.398,-21.7959 470.086,-24.2283 479.664,-28.7573 480.398,-21.7959"/>
<text text-anchor="middle" x="544" y="-55" font-family="Helvetica,sans-Serif" font-size="10.00"> test_led_</text>
<text text-anchor="middle" x="544" y="-44" font-family="Helvetica,sans-Serif" font-size="10.00">test_buzzer_</text>
</g>
<!-- Node8 -->
<g id="node7" class="node"><title>Node8</title>
<g id="a_node7"><a xlink:href="../../db/df5/classLeosac_1_1Hardware_1_1FLED.html" target="_top" xlink:title="A Facade to a LED object. ">
<polygon fill="white" stroke="black" points="132,-0.5 132,-19.5 260,-19.5 260,-0.5 132,-0.5"/>
<text text-anchor="middle" x="196" y="-7.5" font-family="Helvetica,sans-Serif" font-size="10.00">Leosac::Hardware::FLED</text>
</a>
</g>
</g>
<!-- Node8&#45;&gt;Node7 -->
<g id="edge6" class="edge"><title>Node8&#45;&gt;Node7</title>
<path fill="none" stroke="#9a32cd" stroke-dasharray="5,2" d="M270.318,-12.9929C286.05,-13.6454 302.578,-14.3387 318,-15 327.688,-15.4155 337.963,-15.8643 347.971,-16.306"/>
<polygon fill="#9a32cd" stroke="#9a32cd" points="270.251,-9.48727 260.115,-12.5708 269.962,-16.4813 270.251,-9.48727"/>
<text text-anchor="middle" x="298" y="-18" font-family="Helvetica,sans-Serif" font-size="10.00"> ptr</text>
</g>
<!-- Node9&#45;&gt;Node2 -->
<g id="edge7" class="edge"><title>Node9&#45;&gt;Node2</title>
<path fill="none" stroke="#9a32cd" stroke-dasharray="5,2" d="M474.198,-102.163C513.663,-95.5009 564.451,-86.9276 605.996,-79.9144"/>
<polygon fill="#9a32cd" stroke="#9a32cd" points="473.441,-98.7411 464.163,-103.857 474.606,-105.643 473.441,-98.7411"/>
<text text-anchor="middle" x="544" y="-111" font-family="Helvetica,sans-Serif" font-size="10.00"> device_reset_card_</text>
<text text-anchor="middle" x="544" y="-100" font-family="Helvetica,sans-Serif" font-size="10.00">device_test_card_</text>
</g>
</g>
</svg>
