<?xml version="1.0" encoding="UTF-8" standalone="no"?>
<!DOCTYPE svg PUBLIC "-//W3C//DTD SVG 1.1//EN"
 "http://www.w3.org/Graphics/SVG/1.1/DTD/svg11.dtd">
<!-- Generated by graphviz version 2.38.0 (20140413.2041)
 -->
<!-- Title: src/exception/coreexception.hpp Pages: 1 -->
<!--zoomable 252 -->
<svg id="main" version="1.1" xmlns="http://www.w3.org/2000/svg" xmlns:xlink="http://www.w3.org/1999/xlink" xml:space="preserve" onload="init(evt)">
<style type="text/css"><![CDATA[
.edge:hover path { stroke: red; }
.edge:hover polygon { stroke: red; fill: red; }
]]></style>
<script type="text/javascript"><![CDATA[
var edges = document.getElementsByTagName('g');
if (edges && edges.length) {
  for (var i=0;i<edges.length;i++) {
    if (edges[i].id.substr(0,4)=='edge') {
      edges[i].setAttribute('class','edge');
    }
  }
}
]]></script>
        <defs>
                <circle id="rim" cx="0" cy="0" r="7"/>
                <circle id="rim2" cx="0" cy="0" r="3.5"/>
                <g id="zoomPlus">
                        <use xlink:href="#rim" fill="#404040">
                                <set attributeName="fill" to="#808080" begin="zoomplus.mouseover" end="zoomplus.mouseout"/>
                        </use>
                        <path d="M-4,0h8M0,-4v8" fill="none" stroke="white" stroke-width="1.5" pointer-events="none"/>
                </g>
                <g id="zoomMin">
                        <use xlink:href="#rim" fill="#404040">
                                <set attributeName="fill" to="#808080" begin="zoomminus.mouseover" end="zoomminus.mouseout"/>
                        </use>
                        <path d="M-4,0h8" fill="none" stroke="white" stroke-width="1.5" pointer-events="none"/>
                </g>
                <g id="dirArrow">
                        <path fill="none" stroke="white" stroke-width="1.5" d="M0,-3.0v7 M-2.5,-0.5L0,-3.0L2.5,-0.5"/>
                </g>
               <g id="resetDef">
                       <use xlink:href="#rim2" fill="#404040">
                               <set attributeName="fill" to="#808080" begin="reset.mouseover" end="reset.mouseout"/>
                       </use>
               </g>
        </defs>

<script type="text/javascript">
var viewWidth = 1259;
var viewHeight = 252;
var sectionId = 'dynsection-0';
</script>
<script xlink:href="../../svgpan.js"/>
<svg id="graph" class="graph">
<g id="viewport">
<title>src/exception/coreexception.hpp</title>
<polygon fill="white" stroke="none" points="-4,4 -4,-248 1255.42,-248 1255.42,4 -4,4"/>
<!-- Node0 -->
<g id="node1" class="node"><title>Node0</title>
<polygon fill="#bfbfbf" stroke="black" points="585,-224.5 585,-243.5 743,-243.5 743,-224.5 585,-224.5"/>
<text text-anchor="middle" x="664" y="-231.5" font-family="Helvetica,sans-Serif" font-size="10.00">src/exception/coreexception.hpp</text>
</g>
<!-- Node1 -->
<g id="node2" class="node"><title>Node1</title>
<polygon fill="white" stroke="#bfbfbf" points="707.5,-0.5 707.5,-19.5 748.5,-19.5 748.5,-0.5 707.5,-0.5"/>
<text text-anchor="middle" x="728" y="-7.5" font-family="Helvetica,sans-Serif" font-size="10.00">string</text>
</g>
<!-- Node0&#45;&gt;Node1 -->
<g id="edge1" class="edge"><title>Node0&#45;&gt;Node1</title>
<path fill="none" stroke="midnightblue" d="M743.102,-230.908C883.855,-225.336 1168.8,-205.086 1230,-132 1275.09,-78.1532 1249.7,-94.1306 1136,-56 1065.85,-32.4754 841.068,-17.507 758.659,-12.6919"/>
<polygon fill="midnightblue" stroke="midnightblue" points="758.852,-9.19734 748.668,-12.1174 758.45,-16.1858 758.852,-9.19734"/>
</g>
<!-- Node2 -->
<g id="node3" class="node"><title>Node2</title>
<g id="a_node3"><a xlink:href="../../d1/ddd/leosacexception_8hpp.html" target="_top" xlink:title="Exception class for LEOSAC Project related errors. ">
<polygon fill="white" stroke="black" points="611,-168.5 611,-187.5 717,-187.5 717,-168.5 611,-168.5"/>
<text text-anchor="middle" x="664" y="-175.5" font-family="Helvetica,sans-Serif" font-size="10.00">leosacexception.hpp</text>
</a>
</g>
</g>
<!-- Node0&#45;&gt;Node2 -->
<g id="edge2" class="edge"><title>Node0&#45;&gt;Node2</title>
<path fill="none" stroke="midnightblue" d="M658.834,-224.083C657.324,-216.927 656.894,-206.635 657.542,-197.691"/>
<polygon fill="midnightblue" stroke="midnightblue" points="661.015,-198.126 658.869,-187.751 654.077,-197.2 661.015,-198.126"/>
</g>
<!-- Node2&#45;&gt;Node0 -->
<g id="edge15" class="edge"><title>Node2&#45;&gt;Node0</title>
<path fill="none" stroke="midnightblue" d="M669.131,-187.751C670.657,-194.858 671.104,-205.136 670.472,-214.101"/>
<polygon fill="midnightblue" stroke="midnightblue" points="666.993,-213.713 669.166,-224.083 673.934,-214.622 666.993,-213.713"/>
</g>
<!-- Node2&#45;&gt;Node1 -->
<g id="edge8" class="edge"><title>Node2&#45;&gt;Node1</title>
<path fill="none" stroke="midnightblue" d="M717.211,-176.64C848.531,-175.2 1179.83,-168 1213,-132 1277.51,-61.9874 875.209,-23.1058 758.86,-13.4193"/>
<polygon fill="midnightblue" stroke="midnightblue" points="759.075,-9.92523 748.823,-12.5974 758.504,-16.9019 759.075,-9.92523"/>
</g>
<!-- Node3 -->
<g id="node4" class="node"><title>Node3</title>
<g id="a_node4"><a xlink:href="../../d6/d2f/Stacktrace_8hpp.html" target="_top" xlink:title="tools/Stacktrace.hpp">
<polygon fill="white" stroke="black" points="729.5,-112.5 729.5,-131.5 836.5,-131.5 836.5,-112.5 729.5,-112.5"/>
<text text-anchor="middle" x="783" y="-119.5" font-family="Helvetica,sans-Serif" font-size="10.00">tools/Stacktrace.hpp</text>
</a>
</g>
</g>
<!-- Node2&#45;&gt;Node3 -->
<g id="edge3" class="edge"><title>Node2&#45;&gt;Node3</title>
<path fill="none" stroke="midnightblue" d="M682.856,-168.444C702.266,-159.636 732.73,-145.812 754.965,-135.722"/>
<polygon fill="midnightblue" stroke="midnightblue" points="756.572,-138.836 764.232,-131.516 753.68,-132.462 756.572,-138.836"/>
</g>
<!-- Node5 -->
<g id="node6" class="node"><title>Node5</title>
<polygon fill="white" stroke="#bfbfbf" points="246.5,-112.5 246.5,-131.5 295.5,-131.5 295.5,-112.5 246.5,-112.5"/>
<text text-anchor="middle" x="271" y="-119.5" font-family="Helvetica,sans-Serif" font-size="10.00">cstddef</text>
</g>
<!-- Node2&#45;&gt;Node5 -->
<g id="edge6" class="edge"><title>Node2&#45;&gt;Node5</title>
<path fill="none" stroke="midnightblue" d="M610.858,-172.734C542.286,-166.703 419.197,-154.101 305.677,-132.109"/>
<polygon fill="midnightblue" stroke="midnightblue" points="306.264,-128.658 295.777,-130.162 304.913,-135.526 306.264,-128.658"/>
</g>
<!-- Node6 -->
<g id="node7" class="node"><title>Node6</title>
<polygon fill="white" stroke="#bfbfbf" points="313.5,-112.5 313.5,-131.5 372.5,-131.5 372.5,-112.5 313.5,-112.5"/>
<text text-anchor="middle" x="343" y="-119.5" font-family="Helvetica,sans-Serif" font-size="10.00">exception</text>
</g>
<!-- Node2&#45;&gt;Node6 -->
<g id="edge7" class="edge"><title>Node2&#45;&gt;Node6</title>
<path fill="none" stroke="midnightblue" d="M610.849,-169.76C555.988,-162.016 467.717,-148.802 382.883,-132.266"/>
<polygon fill="midnightblue" stroke="midnightblue" points="383.312,-128.784 372.825,-130.287 381.961,-135.652 383.312,-128.784"/>
</g>
<!-- Node7 -->
<g id="node8" class="node"><title>Node7</title>
<g id="a_node8"><a xlink:href="../../d7/d7a/configexception_8hpp.html" target="_top" xlink:title="configexception.hpp">
<polygon fill="white" stroke="black" points="0,-112.5 0,-131.5 104,-131.5 104,-112.5 0,-112.5"/>
<text text-anchor="middle" x="52" y="-119.5" font-family="Helvetica,sans-Serif" font-size="10.00">configexception.hpp</text>
</a>
</g>
</g>
<!-- Node2&#45;&gt;Node7 -->
<g id="edge9" class="edge"><title>Node2&#45;&gt;Node7</title>
<path fill="none" stroke="midnightblue" d="M610.938,-174.133C512.926,-168.282 297.223,-153.755 109.838,-132.644"/>
<polygon fill="midnightblue" stroke="midnightblue" points="110.139,-129.156 99.808,-131.505 109.349,-136.111 110.139,-129.156"/>
</g>
<!-- Node10 -->
<g id="node11" class="node"><title>Node10</title>
<g id="a_node11"><a xlink:href="../../d8/d77/deviceexception_8hpp.html" target="_top" xlink:title="Exception class for Device related errors. ">
<polygon fill="white" stroke="black" points="122,-112.5 122,-131.5 228,-131.5 228,-112.5 122,-112.5"/>
<text text-anchor="middle" x="175" y="-119.5" font-family="Helvetica,sans-Serif" font-size="10.00">deviceexception.hpp</text>
</a>
</g>
</g>
<!-- Node2&#45;&gt;Node10 -->
<g id="edge16" class="edge"><title>Node2&#45;&gt;Node10</title>
<path fill="none" stroke="midnightblue" d="M610.992,-172.611C530.576,-165.351 373.174,-149.971 234.059,-132.744"/>
<polygon fill="midnightblue" stroke="midnightblue" points="234.431,-129.263 224.075,-131.501 233.566,-136.21 234.431,-129.263"/>
</g>
<!-- Node11 -->
<g id="node12" class="node"><title>Node11</title>
<g id="a_node12"><a xlink:href="../../db/d35/dynlibexception_8hpp.html" target="_top" xlink:title="Exception class for DynLib related errors. ">
<polygon fill="white" stroke="black" points="390.5,-112.5 390.5,-131.5 493.5,-131.5 493.5,-112.5 390.5,-112.5"/>
<text text-anchor="middle" x="442" y="-119.5" font-family="Helvetica,sans-Serif" font-size="10.00">dynlibexception.hpp</text>
</a>
</g>
</g>
<!-- Node2&#45;&gt;Node11 -->
<g id="edge19" class="edge"><title>Node2&#45;&gt;Node11</title>
<path fill="none" stroke="midnightblue" d="M623.735,-168.444C583.369,-159.122 521.794,-144.183 481.65,-133.997"/>
<polygon fill="midnightblue" stroke="midnightblue" points="482.487,-130.599 471.932,-131.516 480.756,-137.381 482.487,-130.599"/>
</g>
<!-- Node12 -->
<g id="node13" class="node"><title>Node12</title>
<g id="a_node13"><a xlink:href="../../d0/d4e/fsexception_8hpp.html" target="_top" xlink:title="Exception class for filesystem related errors. ">
<polygon fill="white" stroke="black" points="512,-112.5 512,-131.5 598,-131.5 598,-112.5 512,-112.5"/>
<text text-anchor="middle" x="555" y="-119.5" font-family="Helvetica,sans-Serif" font-size="10.00">fsexception.hpp</text>
</a>
</g>
</g>
<!-- Node2&#45;&gt;Node12 -->
<g id="edge22" class="edge"><title>Node2&#45;&gt;Node12</title>
<path fill="none" stroke="midnightblue" d="M641.64,-168.444C622.371,-159.833 595.036,-146.429 576.137,-136.406"/>
<polygon fill="midnightblue" stroke="midnightblue" points="577.57,-133.202 567.111,-131.516 574.236,-139.357 577.57,-133.202"/>
</g>
<!-- Node13 -->
<g id="node14" class="node"><title>Node13</title>
<g id="a_node14"><a xlink:href="../../d1/d8e/gpioexception_8hpp.html" target="_top" xlink:title="Exception class for Gpio related errors. ">
<polygon fill="white" stroke="black" points="616.5,-112.5 616.5,-131.5 711.5,-131.5 711.5,-112.5 616.5,-112.5"/>
<text text-anchor="middle" x="664" y="-119.5" font-family="Helvetica,sans-Serif" font-size="10.00">gpioexception.hpp</text>
</a>
</g>
</g>
<!-- Node2&#45;&gt;Node13 -->
<g id="edge25" class="edge"><title>Node2&#45;&gt;Node13</title>
<path fill="none" stroke="midnightblue" d="M658.834,-168.083C657.324,-160.927 656.894,-150.635 657.542,-141.691"/>
<polygon fill="midnightblue" stroke="midnightblue" points="661.015,-142.126 658.869,-131.751 654.077,-141.2 661.015,-142.126"/>
</g>
<!-- Node14 -->
<g id="node15" class="node"><title>Node14</title>
<g id="a_node15"><a xlink:href="../../d7/d8c/moduleexception_8hpp.html" target="_top" xlink:title="Exception class for modules. ">
<polygon fill="white" stroke="black" points="854.5,-112.5 854.5,-131.5 963.5,-131.5 963.5,-112.5 854.5,-112.5"/>
<text text-anchor="middle" x="909" y="-119.5" font-family="Helvetica,sans-Serif" font-size="10.00">moduleexception.hpp</text>
</a>
</g>
</g>
<!-- Node2&#45;&gt;Node14 -->
<g id="edge28" class="edge"><title>Node2&#45;&gt;Node14</title>
<path fill="none" stroke="midnightblue" d="M697.732,-168.444C738.491,-159.004 807.326,-143.802 855.363,-133.611"/>
<polygon fill="midnightblue" stroke="midnightblue" points="856.22,-137.008 865.281,-131.516 854.773,-130.159 856.22,-137.008"/>
</g>
<!-- Node15 -->
<g id="node16" class="node"><title>Node15</title>
<g id="a_node16"><a xlink:href="../../df/d8d/scriptexception_8hpp.html" target="_top" xlink:title="Exception class for Script related errors. ">
<polygon fill="white" stroke="black" points="981.5,-112.5 981.5,-131.5 1082.5,-131.5 1082.5,-112.5 981.5,-112.5"/>
<text text-anchor="middle" x="1032" y="-119.5" font-family="Helvetica,sans-Serif" font-size="10.00">scriptexception.hpp</text>
</a>
</g>
</g>
<!-- Node2&#45;&gt;Node15 -->
<g id="edge31" class="edge"><title>Node2&#45;&gt;Node15</title>
<path fill="none" stroke="midnightblue" d="M716.06,-168.482C775.754,-159.481 876.266,-144.841 963,-132 965.784,-131.588 968.64,-131.164 971.534,-130.734"/>
<polygon fill="midnightblue" stroke="midnightblue" points="972.084,-134.191 981.465,-129.266 971.06,-127.267 972.084,-134.191"/>
</g>
<!-- Node16 -->
<g id="node17" class="node"><title>Node16</title>
<g id="a_node17"><a xlink:href="../../dc/dce/signalexception_8hpp.html" target="_top" xlink:title="Exception class for Signal related errors. ">
<polygon fill="white" stroke="black" points="1100.5,-112.5 1100.5,-131.5 1203.5,-131.5 1203.5,-112.5 1100.5,-112.5"/>
<text text-anchor="middle" x="1152" y="-119.5" font-family="Helvetica,sans-Serif" font-size="10.00">signalexception.hpp</text>
</a>
</g>
</g>
<!-- Node2&#45;&gt;Node16 -->
<g id="edge34" class="edge"><title>Node2&#45;&gt;Node16</title>
<path fill="none" stroke="midnightblue" d="M717.134,-171.549C796.652,-163.767 950.917,-148.57 1082,-132 1084.79,-131.648 1087.65,-131.273 1090.54,-130.884"/>
<polygon fill="midnightblue" stroke="midnightblue" points="1091.03,-134.349 1100.46,-129.52 1090.08,-127.414 1091.03,-134.349"/>
</g>
<!-- Node3&#45;&gt;Node1 -->
<g id="edge4" class="edge"><title>Node3&#45;&gt;Node1</title>
<path fill="none" stroke="midnightblue" d="M781.552,-112.179C779.191,-99.2828 773.764,-74.7753 764,-56 758.587,-45.5912 750.579,-35.276 743.49,-27.1528"/>
<polygon fill="midnightblue" stroke="midnightblue" points="745.903,-24.6047 736.581,-19.569 740.728,-29.3186 745.903,-24.6047"/>
</g>
<!-- Node4 -->
<g id="node5" class="node"><title>Node4</title>
<polygon fill="white" stroke="#bfbfbf" points="711,-56.5 711,-75.5 755,-75.5 755,-56.5 711,-56.5"/>
<text text-anchor="middle" x="733" y="-63.5" font-family="Helvetica,sans-Serif" font-size="10.00">vector</text>
</g>
<!-- Node3&#45;&gt;Node4 -->
<g id="edge5" class="edge"><title>Node3&#45;&gt;Node4</title>
<path fill="none" stroke="midnightblue" d="M774.744,-112.083C767.535,-104.298 756.89,-92.8015 748.154,-83.3665"/>
<polygon fill="midnightblue" stroke="midnightblue" points="750.465,-80.7108 741.103,-75.7511 745.329,-85.4666 750.465,-80.7108"/>
</g>
<!-- Node7&#45;&gt;Node1 -->
<g id="edge14" class="edge"><title>Node7&#45;&gt;Node1</title>
<path fill="none" stroke="midnightblue" d="M93.6906,-112.468C158.578,-99.3467 287.74,-73.8629 398,-56 507.885,-38.1978 639.125,-21.7218 697.458,-14.645"/>
<polygon fill="midnightblue" stroke="midnightblue" points="697.971,-18.1085 707.479,-13.4348 697.132,-11.159 697.971,-18.1085"/>
</g>
<!-- Node7&#45;&gt;Node2 -->
<g id="edge10" class="edge"><title>Node7&#45;&gt;Node2</title>
<path fill="none" stroke="midnightblue" d="M104.191,-129.739C110.222,-130.562 116.257,-131.343 122,-132 294.855,-151.789 499.189,-166.116 600.554,-172.794"/>
<polygon fill="midnightblue" stroke="midnightblue" points="600.42,-176.293 610.628,-173.455 600.878,-169.308 600.42,-176.293"/>
</g>
<!-- Node8 -->
<g id="node9" class="node"><title>Node8</title>
<g id="a_node9"><a xlink:href="../../dd/d35/Colorize_8hpp.html" target="_top" xlink:title="tools/Colorize.hpp">
<polygon fill="white" stroke="black" points="25.5,-56.5 25.5,-75.5 120.5,-75.5 120.5,-56.5 25.5,-56.5"/>
<text text-anchor="middle" x="73" y="-63.5" font-family="Helvetica,sans-Serif" font-size="10.00">tools/Colorize.hpp</text>
</a>
</g>
</g>
<!-- Node7&#45;&gt;Node8 -->
<g id="edge11" class="edge"><title>Node7&#45;&gt;Node8</title>
<path fill="none" stroke="midnightblue" d="M55.4677,-112.083C58.3117,-104.77 62.4295,-94.1814 65.9598,-85.1034"/>
<polygon fill="midnightblue" stroke="midnightblue" points="69.2343,-86.3397 69.5968,-75.7511 62.7103,-83.8025 69.2343,-86.3397"/>
</g>
<!-- Node8&#45;&gt;Node1 -->
<g id="edge13" class="edge"><title>Node8&#45;&gt;Node1</title>
<path fill="none" stroke="midnightblue" d="M120.634,-61.073C247.727,-50.595 592.324,-22.1855 697.261,-13.5342"/>
<polygon fill="midnightblue" stroke="midnightblue" points="697.803,-17.0015 707.481,-12.6916 697.227,-10.0252 697.803,-17.0015"/>
</g>
<!-- Node9 -->
<g id="node10" class="node"><title>Node9</title>
<polygon fill="white" stroke="#bfbfbf" points="47,-0.5 47,-19.5 99,-19.5 99,-0.5 47,-0.5"/>
<text text-anchor="middle" x="73" y="-7.5" font-family="Helvetica,sans-Serif" font-size="10.00">sstream</text>
</g>
<!-- Node8&#45;&gt;Node9 -->
<g id="edge12" class="edge"><title>Node8&#45;&gt;Node9</title>
<path fill="none" stroke="midnightblue" d="M73,-56.083C73,-49.0059 73,-38.8611 73,-29.9865"/>
<polygon fill="midnightblue" stroke="midnightblue" points="76.5001,-29.751 73,-19.7511 69.5001,-29.7511 76.5001,-29.751"/>
</g>
<!-- Node10&#45;&gt;Node1 -->
<g id="edge17" class="edge"><title>Node10&#45;&gt;Node1</title>
<path fill="none" stroke="midnightblue" d="M217.933,-112.46C325.57,-91.0494 604.921,-35.4822 697.612,-17.0446"/>
<polygon fill="midnightblue" stroke="midnightblue" points="698.352,-20.4661 707.477,-15.0824 696.986,-13.6007 698.352,-20.4661"/>
</g>
<!-- Node10&#45;&gt;Node2 -->
<g id="edge18" class="edge"><title>Node10&#45;&gt;Node2</title>
<path fill="none" stroke="midnightblue" d="M228.258,-129.651C234.271,-130.478 240.28,-131.284 246,-132 371.725,-147.744 518.745,-162.42 600.717,-170.505"/>
<polygon fill="midnightblue" stroke="midnightblue" points="600.576,-174.008 610.871,-171.506 601.263,-167.042 600.576,-174.008"/>
</g>
<!-- Node11&#45;&gt;Node1 -->
<g id="edge20" class="edge"><title>Node11&#45;&gt;Node1</title>
<path fill="none" stroke="midnightblue" d="M464.442,-112.368C515.374,-92.7792 639.759,-44.9388 697.556,-22.7094"/>
<polygon fill="midnightblue" stroke="midnightblue" points="699.139,-25.8505 707.216,-18.994 696.626,-19.3171 699.139,-25.8505"/>
</g>
<!-- Node11&#45;&gt;Node2 -->
<g id="edge21" class="edge"><title>Node11&#45;&gt;Node2</title>
<path fill="none" stroke="midnightblue" d="M482.092,-131.516C522.397,-140.822 583.972,-155.76 624.177,-165.959"/>
<polygon fill="midnightblue" stroke="midnightblue" points="623.357,-169.362 633.912,-168.444 625.088,-162.579 623.357,-169.362"/>
</g>
<!-- Node12&#45;&gt;Node1 -->
<g id="edge23" class="edge"><title>Node12&#45;&gt;Node1</title>
<path fill="none" stroke="midnightblue" d="M568.575,-112.368C598.262,-93.4924 669.204,-48.385 705.61,-25.2367"/>
<polygon fill="midnightblue" stroke="midnightblue" points="707.927,-27.9106 714.488,-19.5914 704.171,-22.0035 707.927,-27.9106"/>
</g>
<!-- Node12&#45;&gt;Node2 -->
<g id="edge24" class="edge"><title>Node12&#45;&gt;Node2</title>
<path fill="none" stroke="midnightblue" d="M577.579,-131.655C596.745,-140.228 623.78,-153.483 642.596,-163.453"/>
<polygon fill="midnightblue" stroke="midnightblue" points="641.141,-166.645 651.602,-168.324 644.472,-160.488 641.141,-166.645"/>
</g>
<!-- Node13&#45;&gt;Node1 -->
<g id="edge27" class="edge"><title>Node13&#45;&gt;Node1</title>
<path fill="none" stroke="midnightblue" d="M669.022,-112.368C679.537,-94.2957 704.043,-52.1764 717.93,-28.3074"/>
<polygon fill="midnightblue" stroke="midnightblue" points="720.998,-29.9951 723.001,-19.5914 714.947,-26.4748 720.998,-29.9951"/>
</g>
<!-- Node13&#45;&gt;Node2 -->
<g id="edge26" class="edge"><title>Node13&#45;&gt;Node2</title>
<path fill="none" stroke="midnightblue" d="M669.131,-131.751C670.657,-138.858 671.104,-149.136 670.472,-158.101"/>
<polygon fill="midnightblue" stroke="midnightblue" points="666.993,-157.713 669.166,-168.083 673.934,-158.622 666.993,-157.713"/>
</g>
<!-- Node14&#45;&gt;Node1 -->
<g id="edge29" class="edge"><title>Node14&#45;&gt;Node1</title>
<path fill="none" stroke="midnightblue" d="M894.797,-112.368C863.605,-93.4121 788.883,-48.0006 750.942,-24.9424"/>
<polygon fill="midnightblue" stroke="midnightblue" points="752.5,-21.794 742.137,-19.5914 748.865,-27.7759 752.5,-21.794"/>
</g>
<!-- Node14&#45;&gt;Node2 -->
<g id="edge30" class="edge"><title>Node14&#45;&gt;Node2</title>
<path fill="none" stroke="midnightblue" d="M875.441,-131.516C834.762,-140.94 765.937,-156.141 717.841,-166.346"/>
<polygon fill="midnightblue" stroke="midnightblue" points="716.97,-162.952 707.91,-168.444 718.417,-169.801 716.97,-162.952"/>
</g>
<!-- Node15&#45;&gt;Node1 -->
<g id="edge32" class="edge"><title>Node15&#45;&gt;Node1</title>
<path fill="none" stroke="midnightblue" d="M1008.4,-112.46C953.802,-92.7048 818.842,-43.8706 758.273,-21.9541"/>
<polygon fill="midnightblue" stroke="midnightblue" points="759.132,-18.5429 748.538,-18.4315 756.75,-25.1253 759.132,-18.5429"/>
</g>
<!-- Node15&#45;&gt;Node2 -->
<g id="edge33" class="edge"><title>Node15&#45;&gt;Node2</title>
<path fill="none" stroke="midnightblue" d="M984.153,-131.533C983.094,-131.69 982.042,-131.846 981,-132 893.215,-144.997 791.317,-159.836 727.158,-168.806"/>
<polygon fill="midnightblue" stroke="midnightblue" points="726.615,-165.348 717.193,-170.194 727.58,-172.281 726.615,-165.348"/>
</g>
<!-- Node16&#45;&gt;Node1 -->
<g id="edge35" class="edge"><title>Node16&#45;&gt;Node1</title>
<path fill="none" stroke="midnightblue" d="M1119.08,-112.46C1039.36,-91.7775 836.784,-39.2222 759.036,-19.0517"/>
<polygon fill="midnightblue" stroke="midnightblue" points="759.478,-15.5506 748.919,-16.4272 757.72,-22.3263 759.478,-15.5506"/>
</g>
<!-- Node16&#45;&gt;Node2 -->
<g id="edge36" class="edge"><title>Node16&#45;&gt;Node2</title>
<path fill="none" stroke="midnightblue" d="M1103.86,-131.503C1102.56,-131.673 1101.27,-131.839 1100,-132 967.819,-148.709 812.066,-164.022 727.026,-171.743"/>
<polygon fill="midnightblue" stroke="midnightblue" points="726.657,-168.262 717.012,-172.647 727.287,-175.234 726.657,-168.262"/>
</g>
</g>
</svg>
        <g id="navigator" transform="translate(0 0)" fill="#404254">
                <rect fill="#f2f5e9" fill-opacity="0.5" stroke="#606060" stroke-width=".5" x="0" y="0" width="60" height="60"/>
                <use id="zoomplus" xlink:href="#zoomPlus" x="17" y="9" onmousedown="handleZoom(evt,'in')"/>
                <use id="zoomminus" xlink:href="#zoomMin" x="42" y="9" onmousedown="handleZoom(evt,'out')"/>
                <use id="reset" xlink:href="#resetDef" x="30" y="36" onmousedown="handleReset()"/>
                <g id="arrowUp" xlink:href="#dirArrow" transform="translate(30 24)" onmousedown="handlePan(0,-1)">
                  <use xlink:href="#rim" fill="#404040">
                        <set attributeName="fill" to="#808080" begin="arrowUp.mouseover" end="arrowUp.mouseout"/>
                  </use>
                  <path fill="none" stroke="white" stroke-width="1.5" d="M0,-3.0v7 M-2.5,-0.5L0,-3.0L2.5,-0.5"/>
                </g>
                <g id="arrowRight" xlink:href="#dirArrow" transform="rotate(90) translate(36 -43)" onmousedown="handlePan(1,0)">
                  <use xlink:href="#rim" fill="#404040">
                        <set attributeName="fill" to="#808080" begin="arrowRight.mouseover" end="arrowRight.mouseout"/>
                  </use>
                  <path fill="none" stroke="white" stroke-width="1.5" d="M0,-3.0v7 M-2.5,-0.5L0,-3.0L2.5,-0.5"/>
                </g>
                <g id="arrowDown" xlink:href="#dirArrow" transform="rotate(180) translate(-30 -48)" onmousedown="handlePan(0,1)">
                  <use xlink:href="#rim" fill="#404040">
                        <set attributeName="fill" to="#808080" begin="arrowDown.mouseover" end="arrowDown.mouseout"/>
                  </use>
                  <path fill="none" stroke="white" stroke-width="1.5" d="M0,-3.0v7 M-2.5,-0.5L0,-3.0L2.5,-0.5"/>
                </g>
                <g id="arrowLeft" xlink:href="#dirArrow" transform="rotate(270) translate(-36 17)" onmousedown="handlePan(-1,0)">
                  <use xlink:href="#rim" fill="#404040">
                        <set attributeName="fill" to="#808080" begin="arrowLeft.mouseover" end="arrowLeft.mouseout"/>
                  </use>
                  <path fill="none" stroke="white" stroke-width="1.5" d="M0,-3.0v7 M-2.5,-0.5L0,-3.0L2.5,-0.5"/>
                </g>
        </g>
        <svg viewBox="0 0 15 15" width="100%" height="30px" preserveAspectRatio="xMaxYMin meet">
         <g id="arrow_out" transform="scale(0.3 0.3)">
          <a xlink:href="coreexception_8hpp__incl_org.svg" target="_base">
           <rect id="button" ry="5" rx="5" y="6" x="6" height="38" width="38"
                fill="#f2f5e9" fill-opacity="0.5" stroke="#606060" stroke-width="1.0"/>
           <path id="arrow"
             d="M 11.500037,31.436501 C 11.940474,20.09759 22.043105,11.32322 32.158766,21.979434 L 37.068811,17.246167 C 37.068811,17.246167 37.088388,32 37.088388,32 L 22.160133,31.978069 C 22.160133,31.978069 26.997745,27.140456 26.997745,27.140456 C 18.528582,18.264221 13.291696,25.230495 11.500037,31.436501 z"
             style="fill:#404040;"/>
          </a>
         </g>
        </svg>
</svg>
