<?xml version="1.0" encoding="UTF-8" standalone="no"?>
<!DOCTYPE svg PUBLIC "-//W3C//DTD SVG 1.1//EN"
 "http://www.w3.org/Graphics/SVG/1.1/DTD/svg11.dtd">
<!-- Generated by graphviz version 2.38.0 (20140413.2041)
 -->
<!-- Title: src/core/CoreUtils.hpp Pages: 1 -->
<svg width="698pt" height="207pt"
 viewBox="0.00 0.00 698.00 207.00" xmlns="http://www.w3.org/2000/svg" xmlns:xlink="http://www.w3.org/1999/xlink">
<g id="graph0" class="graph" transform="scale(1 1) rotate(0) translate(4 203)">
<title>src/core/CoreUtils.hpp</title>
<polygon fill="white" stroke="none" points="-4,4 -4,-203 694,-203 694,4 -4,4"/>
<!-- Node0 -->
<g id="node1" class="node"><title>Node0</title>
<polygon fill="#bfbfbf" stroke="black" points="359.5,-179.5 359.5,-198.5 474.5,-198.5 474.5,-179.5 359.5,-179.5"/>
<text text-anchor="middle" x="417" y="-186.5" font-family="Helvetica,sans-Serif" font-size="10.00">src/core/CoreUtils.hpp</text>
</g>
<!-- Node1 -->
<g id="node2" class="node"><title>Node1</title>
<g id="a_node2"><a xlink:href="../../d6/da2/CoreAPI_8hpp.html" target="_top" xlink:title="CoreAPI.hpp">
<polygon fill="white" stroke="black" points="226.5,-123.5 226.5,-142.5 299.5,-142.5 299.5,-123.5 226.5,-123.5"/>
<text text-anchor="middle" x="263" y="-130.5" font-family="Helvetica,sans-Serif" font-size="10.00">CoreAPI.hpp</text>
</a>
</g>
</g>
<!-- Node0&#45;&gt;Node1 -->
<g id="edge1" class="edge"><title>Node0&#45;&gt;Node1</title>
<path fill="none" stroke="midnightblue" d="M392.598,-179.444C366.803,-170.399 325.923,-156.064 296.982,-145.916"/>
<polygon fill="midnightblue" stroke="midnightblue" points="297.882,-142.523 287.288,-142.516 295.566,-149.128 297.882,-142.523"/>
</g>
<!-- Node9 -->
<g id="node10" class="node"><title>Node9</title>
<g id="a_node10"><a xlink:href="../../dc/d49/LeosacFwd_8hpp.html" target="_top" xlink:title="LeosacFwd.hpp">
<polygon fill="white" stroke="black" points="318,-123.5 318,-142.5 404,-142.5 404,-123.5 318,-123.5"/>
<text text-anchor="middle" x="361" y="-130.5" font-family="Helvetica,sans-Serif" font-size="10.00">LeosacFwd.hpp</text>
</a>
</g>
</g>
<!-- Node0&#45;&gt;Node9 -->
<g id="edge9" class="edge"><title>Node0&#45;&gt;Node9</title>
<path fill="none" stroke="midnightblue" d="M408.003,-179.324C399.806,-171.42 387.494,-159.548 377.528,-149.938"/>
<polygon fill="midnightblue" stroke="midnightblue" points="379.789,-147.256 370.161,-142.834 374.93,-152.295 379.789,-147.256"/>
</g>
<!-- Node10 -->
<g id="node11" class="node"><title>Node10</title>
<g id="a_node11"><a xlink:href="../../d9/d69/db__fwd_8hpp.html" target="_top" xlink:title="tools/db/db_fwd.hpp">
<polygon fill="white" stroke="black" points="422,-123.5 422,-142.5 526,-142.5 526,-123.5 422,-123.5"/>
<text text-anchor="middle" x="474" y="-130.5" font-family="Helvetica,sans-Serif" font-size="10.00">tools/db/db_fwd.hpp</text>
</a>
</g>
</g>
<!-- Node0&#45;&gt;Node10 -->
<g id="edge12" class="edge"><title>Node0&#45;&gt;Node10</title>
<path fill="none" stroke="midnightblue" d="M426.158,-179.324C434.501,-171.42 447.032,-159.548 457.177,-149.938"/>
<polygon fill="midnightblue" stroke="midnightblue" points="459.823,-152.252 464.675,-142.834 455.009,-147.171 459.823,-152.252"/>
</g>
<!-- Node11 -->
<g id="node12" class="node"><title>Node11</title>
<g id="a_node12"><a xlink:href="../../da/df8/ServiceFwd_8hpp.html" target="_top" xlink:title="tools/service/ServiceFwd.hpp">
<polygon fill="white" stroke="black" points="544,-123.5 544,-142.5 690,-142.5 690,-123.5 544,-123.5"/>
<text text-anchor="middle" x="617" y="-130.5" font-family="Helvetica,sans-Serif" font-size="10.00">tools/service/ServiceFwd.hpp</text>
</a>
</g>
</g>
<!-- Node0&#45;&gt;Node11 -->
<g id="edge14" class="edge"><title>Node0&#45;&gt;Node11</title>
<path fill="none" stroke="midnightblue" d="M448.691,-179.444C483.068,-170.162 538.077,-155.309 575.789,-145.127"/>
<polygon fill="midnightblue" stroke="midnightblue" points="576.716,-148.502 585.458,-142.516 574.891,-141.744 576.716,-148.502"/>
</g>
<!-- Node2 -->
<g id="node3" class="node"><title>Node2</title>
<g id="a_node3"><a xlink:href="../../d8/d97/ToolsFwd_8hpp.html" target="_top" xlink:title="tools/ToolsFwd.hpp">
<polygon fill="white" stroke="black" points="0,-62 0,-81 102,-81 102,-62 0,-62"/>
<text text-anchor="middle" x="51" y="-69" font-family="Helvetica,sans-Serif" font-size="10.00">tools/ToolsFwd.hpp</text>
</a>
</g>
</g>
<!-- Node1&#45;&gt;Node2 -->
<g id="edge2" class="edge"><title>Node1&#45;&gt;Node2</title>
<path fill="none" stroke="midnightblue" d="M232.626,-123.475C195.394,-113.026 132.19,-95.2868 91.0243,-83.7332"/>
<polygon fill="midnightblue" stroke="midnightblue" points="91.8919,-80.3416 81.3181,-81.0091 90.0003,-87.0811 91.8919,-80.3416"/>
</g>
<!-- Node5 -->
<g id="node6" class="node"><title>Node5</title>
<polygon fill="white" stroke="#bfbfbf" points="120.5,-56.5 120.5,-86.5 221.5,-86.5 221.5,-56.5 120.5,-56.5"/>
<text text-anchor="start" x="128.5" y="-74.5" font-family="Helvetica,sans-Serif" font-size="10.00">boost/property_tree</text>
<text text-anchor="middle" x="171" y="-63.5" font-family="Helvetica,sans-Serif" font-size="10.00">/ptree.hpp</text>
</g>
<!-- Node1&#45;&gt;Node5 -->
<g id="edge5" class="edge"><title>Node1&#45;&gt;Node5</title>
<path fill="none" stroke="midnightblue" d="M249.819,-123.475C237.242,-115.341 217.836,-102.791 201.428,-92.1788"/>
<polygon fill="midnightblue" stroke="midnightblue" points="202.98,-89.0147 192.683,-86.523 199.179,-94.8926 202.98,-89.0147"/>
</g>
<!-- Node6 -->
<g id="node7" class="node"><title>Node6</title>
<polygon fill="white" stroke="#bfbfbf" points="240,-62 240,-81 286,-81 286,-62 240,-62"/>
<text text-anchor="middle" x="263" y="-69" font-family="Helvetica,sans-Serif" font-size="10.00">cstdint</text>
</g>
<!-- Node1&#45;&gt;Node6 -->
<g id="edge6" class="edge"><title>Node1&#45;&gt;Node6</title>
<path fill="none" stroke="midnightblue" d="M263,-123.475C263,-115.08 263,-101.981 263,-91.1631"/>
<polygon fill="midnightblue" stroke="midnightblue" points="266.5,-91.0091 263,-81.0091 259.5,-91.0091 266.5,-91.0091"/>
</g>
<!-- Node7 -->
<g id="node8" class="node"><title>Node7</title>
<polygon fill="white" stroke="#bfbfbf" points="304.5,-62 304.5,-81 345.5,-81 345.5,-62 304.5,-62"/>
<text text-anchor="middle" x="325" y="-69" font-family="Helvetica,sans-Serif" font-size="10.00">string</text>
</g>
<!-- Node1&#45;&gt;Node7 -->
<g id="edge7" class="edge"><title>Node1&#45;&gt;Node7</title>
<path fill="none" stroke="midnightblue" d="M271.883,-123.475C281.459,-114.285 296.911,-99.4563 308.686,-88.156"/>
<polygon fill="midnightblue" stroke="midnightblue" points="311.342,-90.4585 316.133,-81.0091 306.495,-85.408 311.342,-90.4585"/>
</g>
<!-- Node8 -->
<g id="node9" class="node"><title>Node8</title>
<polygon fill="white" stroke="#bfbfbf" points="364,-62 364,-81 408,-81 408,-62 364,-62"/>
<text text-anchor="middle" x="386" y="-69" font-family="Helvetica,sans-Serif" font-size="10.00">vector</text>
</g>
<!-- Node1&#45;&gt;Node8 -->
<g id="edge8" class="edge"><title>Node1&#45;&gt;Node8</title>
<path fill="none" stroke="midnightblue" d="M280.623,-123.475C301.174,-113.534 335.364,-96.9947 359.207,-85.461"/>
<polygon fill="midnightblue" stroke="midnightblue" points="360.932,-88.5145 368.41,-81.0091 357.884,-82.2131 360.932,-88.5145"/>
</g>
<!-- Node3 -->
<g id="node4" class="node"><title>Node3</title>
<polygon fill="white" stroke="#bfbfbf" points="429,-0.5 429,-19.5 481,-19.5 481,-0.5 429,-0.5"/>
<text text-anchor="middle" x="455" y="-7.5" font-family="Helvetica,sans-Serif" font-size="10.00">memory</text>
</g>
<!-- Node2&#45;&gt;Node3 -->
<g id="edge3" class="edge"><title>Node2&#45;&gt;Node3</title>
<path fill="none" stroke="midnightblue" d="M83.5605,-61.9601C92.4207,-59.8202 102.044,-57.663 111,-56 222.401,-35.3141 355.832,-20.7305 418.763,-14.4508"/>
<polygon fill="midnightblue" stroke="midnightblue" points="419.351,-17.9099 428.959,-13.4447 418.664,-10.9437 419.351,-17.9099"/>
</g>
<!-- Node4 -->
<g id="node5" class="node"><title>Node4</title>
<polygon fill="white" stroke="#bfbfbf" points="8,-0.5 8,-19.5 94,-19.5 94,-0.5 8,-0.5"/>
<text text-anchor="middle" x="51" y="-7.5" font-family="Helvetica,sans-Serif" font-size="10.00">odb/lazy&#45;ptr.hxx</text>
</g>
<!-- Node2&#45;&gt;Node4 -->
<g id="edge4" class="edge"><title>Node2&#45;&gt;Node4</title>
<path fill="none" stroke="midnightblue" d="M51,-61.9751C51,-53.5803 51,-40.4806 51,-29.6631"/>
<polygon fill="midnightblue" stroke="midnightblue" points="54.5001,-29.5091 51,-19.5091 47.5001,-29.5091 54.5001,-29.5091"/>
</g>
<!-- Node9&#45;&gt;Node3 -->
<g id="edge10" class="edge"><title>Node9&#45;&gt;Node3</title>
<path fill="none" stroke="midnightblue" d="M374.843,-123.381C387.125,-115.198 404.941,-101.95 417,-87 431.283,-69.2925 442.148,-45.3387 448.529,-29.0906"/>
<polygon fill="midnightblue" stroke="midnightblue" points="451.828,-30.2612 452.066,-19.669 445.275,-27.8009 451.828,-30.2612"/>
</g>
<!-- Node9&#45;&gt;Node8 -->
<g id="edge11" class="edge"><title>Node9&#45;&gt;Node8</title>
<path fill="none" stroke="midnightblue" d="M364.582,-123.475C368.183,-114.904 373.846,-101.427 378.444,-90.483"/>
<polygon fill="midnightblue" stroke="midnightblue" points="381.778,-91.5842 382.425,-81.0091 375.324,-88.8726 381.778,-91.5842"/>
</g>
<!-- Node10&#45;&gt;Node3 -->
<g id="edge13" class="edge"><title>Node10&#45;&gt;Node3</title>
<path fill="none" stroke="midnightblue" d="M472.634,-123.298C469.566,-103.763 462.076,-56.0646 457.912,-29.5471"/>
<polygon fill="midnightblue" stroke="midnightblue" points="461.363,-28.9592 456.354,-19.6232 454.448,-30.0451 461.363,-28.9592"/>
</g>
<!-- Node11&#45;&gt;Node3 -->
<g id="edge15" class="edge"><title>Node11&#45;&gt;Node3</title>
<path fill="none" stroke="midnightblue" d="M605.608,-123.492C578.37,-103.147 509.194,-51.478 474.899,-25.8629"/>
<polygon fill="midnightblue" stroke="midnightblue" points="476.702,-22.8411 466.596,-19.661 472.513,-28.4494 476.702,-22.8411"/>
</g>
</g>
</svg>
