<?xml version="1.0" encoding="UTF-8" standalone="no"?>
<!DOCTYPE svg PUBLIC "-//W3C//DTD SVG 1.1//EN"
 "http://www.w3.org/Graphics/SVG/1.1/DTD/svg11.dtd">
<!-- Generated by graphviz version 2.38.0 (20140413.2041)
 -->
<!-- Title: src/core/credentials/Credential.hpp Pages: 1 -->
<svg width="838pt" height="274pt"
 viewBox="0.00 0.00 838.00 274.00" xmlns="http://www.w3.org/2000/svg" xmlns:xlink="http://www.w3.org/1999/xlink">
<g id="graph0" class="graph" transform="scale(1 1) rotate(0) translate(4 270)">
<title>src/core/credentials/Credential.hpp</title>
<polygon fill="white" stroke="none" points="-4,4 -4,-270 834,-270 834,4 -4,4"/>
<!-- Node0 -->
<g id="node1" class="node"><title>Node0</title>
<polygon fill="#bfbfbf" stroke="black" points="471,-235.5 471,-265.5 573,-265.5 573,-235.5 471,-235.5"/>
<text text-anchor="start" x="479" y="-253.5" font-family="Helvetica,sans-Serif" font-size="10.00">src/core/credentials</text>
<text text-anchor="middle" x="522" y="-242.5" font-family="Helvetica,sans-Serif" font-size="10.00">/Credential.hpp</text>
</g>
<!-- Node1 -->
<g id="node2" class="node"><title>Node1</title>
<g id="a_node2"><a xlink:href="../../dc/d49/LeosacFwd_8hpp.html" target="_top" xlink:title="LeosacFwd.hpp">
<polygon fill="white" stroke="black" points="147,-179.5 147,-198.5 233,-198.5 233,-179.5 147,-179.5"/>
<text text-anchor="middle" x="190" y="-186.5" font-family="Helvetica,sans-Serif" font-size="10.00">LeosacFwd.hpp</text>
</a>
</g>
</g>
<!-- Node0&#45;&gt;Node1 -->
<g id="edge1" class="edge"><title>Node0&#45;&gt;Node1</title>
<path fill="none" stroke="midnightblue" d="M470.853,-240.334C409.083,-229.263 305.698,-210.735 243.077,-199.512"/>
<polygon fill="midnightblue" stroke="midnightblue" points="243.472,-196.027 233.012,-197.708 242.237,-202.918 243.472,-196.027"/>
</g>
<!-- Node4 -->
<g id="node5" class="node"><title>Node4</title>
<g id="a_node5"><a xlink:href="../../d3/d6f/AuthFwd_8hpp.html" target="_top" xlink:title="core/auth/AuthFwd.hpp">
<polygon fill="white" stroke="black" points="528,-118 528,-137 646,-137 646,-118 528,-118"/>
<text text-anchor="middle" x="587" y="-125" font-family="Helvetica,sans-Serif" font-size="10.00">core/auth/AuthFwd.hpp</text>
</a>
</g>
</g>
<!-- Node0&#45;&gt;Node4 -->
<g id="edge4" class="edge"><title>Node0&#45;&gt;Node4</title>
<path fill="none" stroke="midnightblue" d="M529.712,-235.145C541.658,-212.906 564.607,-170.186 577.538,-146.113"/>
<polygon fill="midnightblue" stroke="midnightblue" points="580.757,-147.518 582.406,-137.052 574.59,-144.205 580.757,-147.518"/>
</g>
<!-- Node5 -->
<g id="node6" class="node"><title>Node5</title>
<polygon fill="white" stroke="#bfbfbf" points="605.5,-56.5 605.5,-75.5 654.5,-75.5 654.5,-56.5 605.5,-56.5"/>
<text text-anchor="middle" x="630" y="-63.5" font-family="Helvetica,sans-Serif" font-size="10.00">cstddef</text>
</g>
<!-- Node0&#45;&gt;Node5 -->
<g id="edge26" class="edge"><title>Node0&#45;&gt;Node5</title>
<path fill="none" stroke="midnightblue" d="M552.458,-235.374C584.725,-218.521 633.867,-186.996 655,-143 664.351,-123.533 653.121,-99.6773 642.861,-83.9454"/>
<polygon fill="midnightblue" stroke="midnightblue" points="645.699,-81.8973 637.095,-75.716 639.966,-85.9141 645.699,-81.8973"/>
</g>
<!-- Node7 -->
<g id="node8" class="node"><title>Node7</title>
<g id="a_node8"><a xlink:href="../../dc/dfe/ValidityInfo_8hpp.html" target="_top" xlink:title="core/auth/ValidityInfo.hpp">
<polygon fill="white" stroke="black" points="702,-179.5 702,-198.5 830,-198.5 830,-179.5 702,-179.5"/>
<text text-anchor="middle" x="766" y="-186.5" font-family="Helvetica,sans-Serif" font-size="10.00">core/auth/ValidityInfo.hpp</text>
</a>
</g>
</g>
<!-- Node0&#45;&gt;Node7 -->
<g id="edge8" class="edge"><title>Node0&#45;&gt;Node7</title>
<path fill="none" stroke="midnightblue" d="M573.15,-237.027C616.915,-226.355 679.294,-211.143 721.141,-200.939"/>
<polygon fill="midnightblue" stroke="midnightblue" points="722.166,-204.292 731.052,-198.522 720.507,-197.491 722.166,-204.292"/>
</g>
<!-- Node10 -->
<g id="node11" class="node"><title>Node10</title>
<g id="a_node11"><a xlink:href="../../d0/db0/ICredential_8hpp.html" target="_top" xlink:title="core/credentials/ICredential.hpp">
<polygon fill="white" stroke="black" points="285.5,-179.5 285.5,-198.5 440.5,-198.5 440.5,-179.5 285.5,-179.5"/>
<text text-anchor="middle" x="363" y="-186.5" font-family="Helvetica,sans-Serif" font-size="10.00">core/credentials/ICredential.hpp</text>
</a>
</g>
</g>
<!-- Node0&#45;&gt;Node10 -->
<g id="edge12" class="edge"><title>Node0&#45;&gt;Node10</title>
<path fill="none" stroke="midnightblue" d="M484.319,-235.399C457.404,-225.327 421.548,-211.909 395.807,-202.277"/>
<polygon fill="midnightblue" stroke="midnightblue" points="396.728,-198.885 386.136,-198.658 394.275,-205.441 396.728,-198.885"/>
</g>
<!-- Node16 -->
<g id="node17" class="node"><title>Node16</title>
<g id="a_node17"><a xlink:href="../../d8/d97/ToolsFwd_8hpp.html" target="_top" xlink:title="tools/ToolsFwd.hpp">
<polygon fill="white" stroke="black" points="408,-118 408,-137 510,-137 510,-118 408,-118"/>
<text text-anchor="middle" x="459" y="-125" font-family="Helvetica,sans-Serif" font-size="10.00">tools/ToolsFwd.hpp</text>
</a>
</g>
</g>
<!-- Node0&#45;&gt;Node16 -->
<g id="edge25" class="edge"><title>Node0&#45;&gt;Node16</title>
<path fill="none" stroke="midnightblue" d="M514.526,-235.145C502.947,-212.906 480.704,-170.186 468.171,-146.113"/>
<polygon fill="midnightblue" stroke="midnightblue" points="471.175,-144.306 463.453,-137.052 464.967,-147.538 471.175,-144.306"/>
</g>
<!-- Node2 -->
<g id="node3" class="node"><title>Node2</title>
<polygon fill="white" stroke="#bfbfbf" points="297,-56.5 297,-75.5 349,-75.5 349,-56.5 297,-56.5"/>
<text text-anchor="middle" x="323" y="-63.5" font-family="Helvetica,sans-Serif" font-size="10.00">memory</text>
</g>
<!-- Node1&#45;&gt;Node2 -->
<g id="edge2" class="edge"><title>Node1&#45;&gt;Node2</title>
<path fill="none" stroke="midnightblue" d="M193.589,-179.468C200.344,-164.254 216.248,-132.15 238,-112 252.95,-98.1511 272.964,-87.2791 289.817,-79.6932"/>
<polygon fill="midnightblue" stroke="midnightblue" points="291.508,-82.7757 299.312,-75.6089 288.742,-76.3454 291.508,-82.7757"/>
</g>
<!-- Node3 -->
<g id="node4" class="node"><title>Node3</title>
<polygon fill="white" stroke="#bfbfbf" points="0,-118 0,-137 44,-137 44,-118 0,-118"/>
<text text-anchor="middle" x="22" y="-125" font-family="Helvetica,sans-Serif" font-size="10.00">vector</text>
</g>
<!-- Node1&#45;&gt;Node3 -->
<g id="edge3" class="edge"><title>Node1&#45;&gt;Node3</title>
<path fill="none" stroke="midnightblue" d="M160.506,-179.434C132.512,-171.042 89.4219,-157.439 53,-143 51.5846,-142.439 50.142,-141.845 48.6918,-141.23"/>
<polygon fill="midnightblue" stroke="midnightblue" points="49.7769,-137.882 39.2187,-137.001 46.9236,-144.274 49.7769,-137.882"/>
</g>
<!-- Node4&#45;&gt;Node2 -->
<g id="edge6" class="edge"><title>Node4&#45;&gt;Node2</title>
<path fill="none" stroke="midnightblue" d="M549.175,-117.975C498.461,-106.545 409.05,-86.3939 359.186,-75.1556"/>
<polygon fill="midnightblue" stroke="midnightblue" points="359.699,-71.6834 349.174,-72.8991 358.16,-78.5122 359.699,-71.6834"/>
</g>
<!-- Node4&#45;&gt;Node5 -->
<g id="edge5" class="edge"><title>Node4&#45;&gt;Node5</title>
<path fill="none" stroke="midnightblue" d="M593.161,-117.975C599.611,-109.05 609.904,-94.8071 617.973,-83.6425"/>
<polygon fill="midnightblue" stroke="midnightblue" points="620.83,-85.6642 623.851,-75.5091 615.156,-81.564 620.83,-85.6642"/>
</g>
<!-- Node6 -->
<g id="node7" class="node"><title>Node6</title>
<polygon fill="white" stroke="#bfbfbf" points="416,-56.5 416,-75.5 502,-75.5 502,-56.5 416,-56.5"/>
<text text-anchor="middle" x="459" y="-63.5" font-family="Helvetica,sans-Serif" font-size="10.00">odb/lazy&#45;ptr.hxx</text>
</g>
<!-- Node4&#45;&gt;Node6 -->
<g id="edge7" class="edge"><title>Node4&#45;&gt;Node6</title>
<path fill="none" stroke="midnightblue" d="M568.661,-117.975C547.179,-107.99 511.378,-91.3476 486.552,-79.8075"/>
<polygon fill="midnightblue" stroke="midnightblue" points="487.849,-76.5506 477.305,-75.5091 484.898,-82.8983 487.849,-76.5506"/>
</g>
<!-- Node7&#45;&gt;Node4 -->
<g id="edge9" class="edge"><title>Node7&#45;&gt;Node4</title>
<path fill="none" stroke="midnightblue" d="M740.354,-179.475C709.383,-169.18 657.127,-151.81 622.349,-140.25"/>
<polygon fill="midnightblue" stroke="midnightblue" points="623.192,-136.842 612.599,-137.009 620.984,-143.485 623.192,-136.842"/>
</g>
<!-- Node8 -->
<g id="node9" class="node"><title>Node8</title>
<polygon fill="white" stroke="#bfbfbf" points="723,-118 723,-137 769,-137 769,-118 723,-118"/>
<text text-anchor="middle" x="746" y="-125" font-family="Helvetica,sans-Serif" font-size="10.00">chrono</text>
</g>
<!-- Node7&#45;&gt;Node8 -->
<g id="edge10" class="edge"><title>Node7&#45;&gt;Node8</title>
<path fill="none" stroke="midnightblue" d="M763.134,-179.475C760.283,-170.992 755.817,-157.704 752.159,-146.822"/>
<polygon fill="midnightblue" stroke="midnightblue" points="755.364,-145.373 748.86,-137.009 748.729,-147.603 755.364,-145.373"/>
</g>
<!-- Node9 -->
<g id="node10" class="node"><title>Node9</title>
<polygon fill="white" stroke="#bfbfbf" points="787.5,-118 787.5,-137 828.5,-137 828.5,-118 787.5,-118"/>
<text text-anchor="middle" x="808" y="-125" font-family="Helvetica,sans-Serif" font-size="10.00">string</text>
</g>
<!-- Node7&#45;&gt;Node9 -->
<g id="edge11" class="edge"><title>Node7&#45;&gt;Node9</title>
<path fill="none" stroke="midnightblue" d="M772.018,-179.475C778.255,-170.638 788.173,-156.589 796.018,-145.475"/>
<polygon fill="midnightblue" stroke="midnightblue" points="799.086,-147.197 801.994,-137.009 793.367,-143.16 799.086,-147.197"/>
</g>
<!-- Node10&#45;&gt;Node2 -->
<g id="edge24" class="edge"><title>Node10&#45;&gt;Node2</title>
<path fill="none" stroke="midnightblue" d="M304.429,-179.483C282.675,-173.164 260.119,-162.16 247,-143 239.216,-131.632 240.177,-123.97 247,-112 255.804,-96.5554 272.221,-85.8704 287.551,-78.8016"/>
<polygon fill="midnightblue" stroke="midnightblue" points="289.03,-81.9762 296.877,-74.8574 286.303,-75.5291 289.03,-81.9762"/>
</g>
<!-- Node10&#45;&gt;Node4 -->
<g id="edge13" class="edge"><title>Node10&#45;&gt;Node4</title>
<path fill="none" stroke="midnightblue" d="M395.094,-179.475C434.599,-168.982 501.779,-151.137 545.261,-139.587"/>
<polygon fill="midnightblue" stroke="midnightblue" points="546.199,-142.959 554.966,-137.009 544.402,-136.194 546.199,-142.959"/>
</g>
<!-- Node11 -->
<g id="node12" class="node"><title>Node11</title>
<g id="a_node12"><a xlink:href="../../d7/d7f/CredentialFwd_8hpp.html" target="_top" xlink:title="core/credentials/Credential\lFwd.hpp">
<polygon fill="white" stroke="black" points="256.5,-112.5 256.5,-142.5 389.5,-142.5 389.5,-112.5 256.5,-112.5"/>
<text text-anchor="start" x="264.5" y="-130.5" font-family="Helvetica,sans-Serif" font-size="10.00">core/credentials/Credential</text>
<text text-anchor="middle" x="323" y="-119.5" font-family="Helvetica,sans-Serif" font-size="10.00">Fwd.hpp</text>
</a>
</g>
</g>
<!-- Node10&#45;&gt;Node11 -->
<g id="edge14" class="edge"><title>Node10&#45;&gt;Node11</title>
<path fill="none" stroke="midnightblue" d="M357.269,-179.475C352.257,-172.019 344.749,-160.852 338.038,-150.869"/>
<polygon fill="midnightblue" stroke="midnightblue" points="340.911,-148.869 332.427,-142.523 335.102,-152.775 340.911,-148.869"/>
</g>
<!-- Node12 -->
<g id="node13" class="node"><title>Node12</title>
<g id="a_node13"><a xlink:href="../../dd/d9d/IVisitable_8hpp.html" target="_top" xlink:title="tools/IVisitable.hpp">
<polygon fill="white" stroke="black" points="62,-118 62,-137 162,-137 162,-118 62,-118"/>
<text text-anchor="middle" x="112" y="-125" font-family="Helvetica,sans-Serif" font-size="10.00">tools/IVisitable.hpp</text>
</a>
</g>
</g>
<!-- Node10&#45;&gt;Node12 -->
<g id="edge17" class="edge"><title>Node10&#45;&gt;Node12</title>
<path fill="none" stroke="midnightblue" d="M327.038,-179.475C282.491,-168.915 206.541,-150.911 157.851,-139.369"/>
<polygon fill="midnightblue" stroke="midnightblue" points="158.433,-135.91 147.895,-137.009 156.818,-142.721 158.433,-135.91"/>
</g>
<!-- Node10&#45;&gt;Node16 -->
<g id="edge21" class="edge"><title>Node10&#45;&gt;Node16</title>
<path fill="none" stroke="midnightblue" d="M376.754,-179.475C392.366,-169.799 418.063,-153.872 436.583,-142.394"/>
<polygon fill="midnightblue" stroke="midnightblue" points="438.615,-145.252 445.271,-137.009 434.927,-139.302 438.615,-145.252"/>
</g>
<!-- Node11&#45;&gt;Node2 -->
<g id="edge15" class="edge"><title>Node11&#45;&gt;Node2</title>
<path fill="none" stroke="midnightblue" d="M323,-112.399C323,-104.466 323,-94.458 323,-85.8583"/>
<polygon fill="midnightblue" stroke="midnightblue" points="326.5,-85.6577 323,-75.6578 319.5,-85.6578 326.5,-85.6577"/>
</g>
<!-- Node11&#45;&gt;Node6 -->
<g id="edge16" class="edge"><title>Node11&#45;&gt;Node6</title>
<path fill="none" stroke="midnightblue" d="M355.23,-112.399C377.845,-102.505 407.838,-89.3832 429.761,-79.7919"/>
<polygon fill="midnightblue" stroke="midnightblue" points="431.452,-82.8726 439.211,-75.6578 428.646,-76.4595 431.452,-82.8726"/>
</g>
<!-- Node13 -->
<g id="node14" class="node"><title>Node13</title>
<g id="a_node14"><a xlink:href="../../d2/d91/Visitor_8hpp.html" target="_top" xlink:title="tools/Visitor.hpp">
<polygon fill="white" stroke="black" points="25.5,-56.5 25.5,-75.5 112.5,-75.5 112.5,-56.5 25.5,-56.5"/>
<text text-anchor="middle" x="69" y="-63.5" font-family="Helvetica,sans-Serif" font-size="10.00">tools/Visitor.hpp</text>
</a>
</g>
</g>
<!-- Node12&#45;&gt;Node13 -->
<g id="edge18" class="edge"><title>Node12&#45;&gt;Node13</title>
<path fill="none" stroke="midnightblue" d="M105.839,-117.975C99.3891,-109.05 89.0959,-94.8071 81.0274,-83.6425"/>
<polygon fill="midnightblue" stroke="midnightblue" points="83.8436,-81.564 75.1494,-75.5091 78.1701,-85.6642 83.8436,-81.564"/>
</g>
<!-- Node15 -->
<g id="node16" class="node"><title>Node15</title>
<polygon fill="white" stroke="#bfbfbf" points="130.5,-56.5 130.5,-75.5 179.5,-75.5 179.5,-56.5 130.5,-56.5"/>
<text text-anchor="middle" x="155" y="-63.5" font-family="Helvetica,sans-Serif" font-size="10.00">cassert</text>
</g>
<!-- Node12&#45;&gt;Node15 -->
<g id="edge20" class="edge"><title>Node12&#45;&gt;Node15</title>
<path fill="none" stroke="midnightblue" d="M118.161,-117.975C124.611,-109.05 134.904,-94.8071 142.973,-83.6425"/>
<polygon fill="midnightblue" stroke="midnightblue" points="145.83,-85.6642 148.851,-75.5091 140.156,-81.564 145.83,-85.6642"/>
</g>
<!-- Node14 -->
<g id="node15" class="node"><title>Node14</title>
<polygon fill="white" stroke="#bfbfbf" points="38,-0.5 38,-19.5 100,-19.5 100,-0.5 38,-0.5"/>
<text text-anchor="middle" x="69" y="-7.5" font-family="Helvetica,sans-Serif" font-size="10.00">type_traits</text>
</g>
<!-- Node13&#45;&gt;Node14 -->
<g id="edge19" class="edge"><title>Node13&#45;&gt;Node14</title>
<path fill="none" stroke="midnightblue" d="M69,-56.083C69,-49.0059 69,-38.8611 69,-29.9865"/>
<polygon fill="midnightblue" stroke="midnightblue" points="72.5001,-29.751 69,-19.7511 65.5001,-29.7511 72.5001,-29.751"/>
</g>
<!-- Node16&#45;&gt;Node2 -->
<g id="edge22" class="edge"><title>Node16&#45;&gt;Node2</title>
<path fill="none" stroke="midnightblue" d="M439.515,-117.975C416.59,-107.945 378.315,-91.2002 351.925,-79.6546"/>
<polygon fill="midnightblue" stroke="midnightblue" points="353.014,-76.3108 342.449,-75.5091 350.208,-82.7239 353.014,-76.3108"/>
</g>
<!-- Node16&#45;&gt;Node6 -->
<g id="edge23" class="edge"><title>Node16&#45;&gt;Node6</title>
<path fill="none" stroke="midnightblue" d="M459,-117.975C459,-109.58 459,-96.4806 459,-85.6631"/>
<polygon fill="midnightblue" stroke="midnightblue" points="462.5,-85.5091 459,-75.5091 455.5,-85.5091 462.5,-85.5091"/>
</g>
</g>
</svg>
