<?xml version="1.0" encoding="UTF-8" standalone="no"?>
<!DOCTYPE svg PUBLIC "-//W3C//DTD SVG 1.1//EN"
 "http://www.w3.org/Graphics/SVG/1.1/DTD/svg11.dtd">
<!-- Generated by graphviz version 2.38.0 (20140413.2041)
 -->
<!-- Title: Leosac::Audit::IAuditEntry Pages: 1 -->
<svg width="664pt" height="455pt"
 viewBox="0.00 0.00 664.00 454.50" xmlns="http://www.w3.org/2000/svg" xmlns:xlink="http://www.w3.org/1999/xlink">
<g id="graph0" class="graph" transform="scale(1 1) rotate(0) translate(4 450.5)">
<title>Leosac::Audit::IAuditEntry</title>
<polygon fill="white" stroke="none" points="-4,4 -4,-450.5 660,-450.5 660,4 -4,4"/>
<!-- Node0 -->
<g id="node1" class="node"><title>Node0</title>
<polygon fill="#bfbfbf" stroke="black" points="161,-202.5 161,-221.5 292,-221.5 292,-202.5 161,-202.5"/>
<text text-anchor="middle" x="226.5" y="-209.5" font-family="Helvetica,sans-Serif" font-size="10.00">Leosac::Audit::IAuditEntry</text>
</g>
<!-- Node2 -->
<g id="node3" class="node"><title>Node2</title>
<g id="a_node3"><a xlink:href="../../d0/d20/classLeosac_1_1Audit_1_1AuditEntry.html" target="_top" xlink:title="Implementation of IAuditEntry, backed by ODB. ">
<polygon fill="white" stroke="black" points="335.5,-202.5 335.5,-221.5 463.5,-221.5 463.5,-202.5 335.5,-202.5"/>
<text text-anchor="middle" x="399.5" y="-209.5" font-family="Helvetica,sans-Serif" font-size="10.00">Leosac::Audit::AuditEntry</text>
</a>
</g>
</g>
<!-- Node0&#45;&gt;Node2 -->
<g id="edge2" class="edge"><title>Node0&#45;&gt;Node2</title>
<path fill="none" stroke="midnightblue" d="M302.235,-212C313.319,-212 324.647,-212 335.46,-212"/>
<polygon fill="midnightblue" stroke="midnightblue" points="302.148,-208.5 292.148,-212 302.148,-215.5 302.148,-208.5"/>
</g>
<!-- Node14 -->
<g id="node15" class="node"><title>Node14</title>
<g id="a_node15"><a xlink:href="../../d8/d9b/classLeosac_1_1Audit_1_1IAccessPointEvent.html" target="_top" xlink:title="Interface that describes an Audit object for AccessPoint related event. ">
<polygon fill="white" stroke="black" points="329,-416 329,-446 470,-446 470,-416 329,-416"/>
<text text-anchor="start" x="337" y="-434" font-family="Helvetica,sans-Serif" font-size="10.00">Leosac::Audit::IAccessPoint</text>
<text text-anchor="middle" x="399.5" y="-423" font-family="Helvetica,sans-Serif" font-size="10.00">Event</text>
</a>
</g>
</g>
<!-- Node0&#45;&gt;Node14 -->
<g id="edge14" class="edge"><title>Node0&#45;&gt;Node14</title>
<path fill="none" stroke="midnightblue" d="M232.438,-231.654C243.181,-270.482 272.3,-357.462 328,-406 332.406,-409.839 337.441,-413.101 342.748,-415.87"/>
<polygon fill="midnightblue" stroke="midnightblue" points="235.731,-230.416 229.786,-221.646 228.964,-232.209 235.731,-230.416"/>
</g>
<!-- Node15 -->
<g id="node16" class="node"><title>Node15</title>
<g id="a_node16"><a xlink:href="../../d0/d87/classLeosac_1_1Audit_1_1ICredentialEvent.html" target="_top" xlink:title="Audit interface to Credential related events. ">
<polygon fill="white" stroke="black" points="334.5,-367 334.5,-397 464.5,-397 464.5,-367 334.5,-367"/>
<text text-anchor="start" x="342.5" y="-385" font-family="Helvetica,sans-Serif" font-size="10.00">Leosac::Audit::ICredential</text>
<text text-anchor="middle" x="399.5" y="-374" font-family="Helvetica,sans-Serif" font-size="10.00">Event</text>
</a>
</g>
</g>
<!-- Node0&#45;&gt;Node15 -->
<g id="edge16" class="edge"><title>Node0&#45;&gt;Node15</title>
<path fill="none" stroke="midnightblue" d="M235.787,-230.845C250.204,-261.548 282.748,-322.402 328,-357 333.055,-360.865 338.758,-364.166 344.675,-366.978"/>
<polygon fill="midnightblue" stroke="midnightblue" points="238.936,-229.315 231.6,-221.671 232.568,-232.221 238.936,-229.315"/>
</g>
<!-- Node16 -->
<g id="node17" class="node"><title>Node16</title>
<g id="a_node17"><a xlink:href="../../db/dcb/classLeosac_1_1Audit_1_1IDoorEvent.html" target="_top" xlink:title="Interface that describes an Audit object for door related event. ">
<polygon fill="white" stroke="black" points="333.5,-328.5 333.5,-347.5 465.5,-347.5 465.5,-328.5 333.5,-328.5"/>
<text text-anchor="middle" x="399.5" y="-335.5" font-family="Helvetica,sans-Serif" font-size="10.00">Leosac::Audit::IDoorEvent</text>
</a>
</g>
</g>
<!-- Node0&#45;&gt;Node16 -->
<g id="edge18" class="edge"><title>Node0&#45;&gt;Node16</title>
<path fill="none" stroke="midnightblue" d="M239.631,-230.192C256.573,-254.165 289.597,-295.981 328,-319 334.415,-322.845 341.618,-325.927 348.904,-328.393"/>
<polygon fill="midnightblue" stroke="midnightblue" points="242.316,-227.921 233.759,-221.674 236.553,-231.894 242.316,-227.921"/>
</g>
<!-- Node17 -->
<g id="node18" class="node"><title>Node17</title>
<g id="a_node18"><a xlink:href="../../d1/df4/classLeosac_1_1Audit_1_1IGroupEvent.html" target="_top" xlink:title="Interface that describes an Audit object for group related event. ">
<polygon fill="white" stroke="black" points="331,-290.5 331,-309.5 468,-309.5 468,-290.5 331,-290.5"/>
<text text-anchor="middle" x="399.5" y="-297.5" font-family="Helvetica,sans-Serif" font-size="10.00">Leosac::Audit::IGroupEvent</text>
</a>
</g>
</g>
<!-- Node0&#45;&gt;Node17 -->
<g id="edge20" class="edge"><title>Node0&#45;&gt;Node17</title>
<path fill="none" stroke="midnightblue" d="M247.204,-228.14C266.682,-243.393 297.856,-265.969 328,-280 336.881,-284.134 346.798,-287.591 356.324,-290.403"/>
<polygon fill="midnightblue" stroke="midnightblue" points="249.127,-225.197 239.124,-221.705 244.766,-230.673 249.127,-225.197"/>
</g>
<!-- Node18 -->
<g id="node19" class="node"><title>Node18</title>
<g id="a_node19"><a xlink:href="../../d7/d97/classLeosac_1_1Audit_1_1IScheduleEvent.html" target="_top" xlink:title="Audit interface to Schedule related events. ">
<polygon fill="white" stroke="black" points="336.5,-241 336.5,-271 462.5,-271 462.5,-241 336.5,-241"/>
<text text-anchor="start" x="344.5" y="-259" font-family="Helvetica,sans-Serif" font-size="10.00">Leosac::Audit::ISchedule</text>
<text text-anchor="middle" x="399.5" y="-248" font-family="Helvetica,sans-Serif" font-size="10.00">Event</text>
</a>
</g>
</g>
<!-- Node0&#45;&gt;Node18 -->
<g id="edge22" class="edge"><title>Node0&#45;&gt;Node18</title>
<path fill="none" stroke="midnightblue" d="M274.515,-224.097C294.739,-229.301 318.594,-235.439 339.951,-240.935"/>
<polygon fill="midnightblue" stroke="midnightblue" points="275.161,-220.65 264.604,-221.547 273.417,-227.429 275.161,-220.65"/>
</g>
<!-- Node19 -->
<g id="node20" class="node"><title>Node19</title>
<g id="a_node20"><a xlink:href="../../d4/d99/classLeosac_1_1Audit_1_1IUpdateEvent.html" target="_top" xlink:title="Interface for update&#45;related event. ">
<polygon fill="white" stroke="black" points="328,-164.5 328,-183.5 471,-183.5 471,-164.5 328,-164.5"/>
<text text-anchor="middle" x="399.5" y="-171.5" font-family="Helvetica,sans-Serif" font-size="10.00">Leosac::Audit::IUpdateEvent</text>
</a>
</g>
</g>
<!-- Node0&#45;&gt;Node19 -->
<g id="edge24" class="edge"><title>Node0&#45;&gt;Node19</title>
<path fill="none" stroke="midnightblue" d="M280.709,-200.176C304.817,-194.818 332.94,-188.569 355.66,-183.52"/>
<polygon fill="midnightblue" stroke="midnightblue" points="279.653,-196.825 270.651,-202.411 281.172,-203.658 279.653,-196.825"/>
</g>
<!-- Node20 -->
<g id="node21" class="node"><title>Node20</title>
<g id="a_node21"><a xlink:href="../../df/df5/classLeosac_1_1Audit_1_1IUserEvent.html" target="_top" xlink:title="Interface that describes an Audit object when a user&#45;related event happens. ">
<polygon fill="white" stroke="black" points="333.5,-126.5 333.5,-145.5 465.5,-145.5 465.5,-126.5 333.5,-126.5"/>
<text text-anchor="middle" x="399.5" y="-133.5" font-family="Helvetica,sans-Serif" font-size="10.00">Leosac::Audit::IUserEvent</text>
</a>
</g>
</g>
<!-- Node0&#45;&gt;Node20 -->
<g id="edge26" class="edge"><title>Node0&#45;&gt;Node20</title>
<path fill="none" stroke="midnightblue" d="M250.182,-196.923C270.021,-184.285 299.967,-166.51 328,-155 336.912,-151.341 346.746,-148.18 356.169,-145.544"/>
<polygon fill="midnightblue" stroke="midnightblue" points="248.061,-194.127 241.564,-202.496 251.862,-200.005 248.061,-194.127"/>
</g>
<!-- Node21 -->
<g id="node22" class="node"><title>Node21</title>
<g id="a_node22"><a xlink:href="../../d3/d84/classLeosac_1_1Audit_1_1IUserGroupMembershipEvent.html" target="_top" xlink:title="Interface to audit object that take care of tracking user/group membership change. ">
<polygon fill="white" stroke="black" points="333,-77 333,-107 466,-107 466,-77 333,-77"/>
<text text-anchor="start" x="341" y="-95" font-family="Helvetica,sans-Serif" font-size="10.00">Leosac::Audit::IUserGroup</text>
<text text-anchor="middle" x="399.5" y="-84" font-family="Helvetica,sans-Serif" font-size="10.00">MembershipEvent</text>
</a>
</g>
</g>
<!-- Node0&#45;&gt;Node21 -->
<g id="edge28" class="edge"><title>Node0&#45;&gt;Node21</title>
<path fill="none" stroke="midnightblue" d="M241.955,-194.439C260.092,-173.413 293.079,-138.364 328,-117 334.093,-113.273 340.822,-109.993 347.632,-107.141"/>
<polygon fill="midnightblue" stroke="midnightblue" points="239.125,-192.365 235.338,-202.26 244.469,-196.887 239.125,-192.365"/>
</g>
<!-- Node22 -->
<g id="node23" class="node"><title>Node22</title>
<g id="a_node23"><a xlink:href="../../d9/db5/classLeosac_1_1Audit_1_1IWSAPICall.html" target="_top" xlink:title="An audit entry dedicated to tracing API call. ">
<polygon fill="white" stroke="black" points="331.5,-38.5 331.5,-57.5 467.5,-57.5 467.5,-38.5 331.5,-38.5"/>
<text text-anchor="middle" x="399.5" y="-45.5" font-family="Helvetica,sans-Serif" font-size="10.00">Leosac::Audit::IWSAPICall</text>
</a>
</g>
</g>
<!-- Node0&#45;&gt;Node22 -->
<g id="edge30" class="edge"><title>Node0&#45;&gt;Node22</title>
<path fill="none" stroke="midnightblue" d="M235.292,-193.206C249.181,-162.075 281.216,-99.9764 328,-67 333.491,-63.1293 339.731,-60.047 346.173,-57.5925"/>
<polygon fill="midnightblue" stroke="midnightblue" points="232.035,-191.922 231.283,-202.49 238.461,-194.697 232.035,-191.922"/>
</g>
<!-- Node23 -->
<g id="node24" class="node"><title>Node23</title>
<g id="a_node24"><a xlink:href="../../d1/d20/classLeosac_1_1Audit_1_1IZoneEvent.html" target="_top" xlink:title="Interface that describes an Audit object for zone related event. ">
<polygon fill="white" stroke="black" points="333,-0.5 333,-19.5 466,-19.5 466,-0.5 333,-0.5"/>
<text text-anchor="middle" x="399.5" y="-7.5" font-family="Helvetica,sans-Serif" font-size="10.00">Leosac::Audit::IZoneEvent</text>
</a>
</g>
</g>
<!-- Node0&#45;&gt;Node23 -->
<g id="edge32" class="edge"><title>Node0&#45;&gt;Node23</title>
<path fill="none" stroke="midnightblue" d="M232.622,-192.562C243.543,-155.019 272.744,-72.4107 328,-29 332.984,-25.0844 338.71,-21.9736 344.699,-19.5025"/>
<polygon fill="midnightblue" stroke="midnightblue" points="229.227,-191.71 229.915,-202.282 235.97,-193.588 229.227,-191.71"/>
</g>
<!-- Node1 -->
<g id="node2" class="node"><title>Node1</title>
<g id="a_node2"><a xlink:href="../../d0/d33/classLeosac_1_1Tools_1_1IVisitable.html" target="_top" xlink:title="Base class to make an object visitable. ">
<polygon fill="white" stroke="black" points="0,-202.5 0,-221.5 125,-221.5 125,-202.5 0,-202.5"/>
<text text-anchor="middle" x="62.5" y="-209.5" font-family="Helvetica,sans-Serif" font-size="10.00">Leosac::Tools::IVisitable</text>
</a>
</g>
</g>
<!-- Node1&#45;&gt;Node0 -->
<g id="edge1" class="edge"><title>Node1&#45;&gt;Node0</title>
<path fill="none" stroke="midnightblue" d="M135.404,-212C143.838,-212 152.405,-212 160.733,-212"/>
<polygon fill="midnightblue" stroke="midnightblue" points="135.207,-208.5 125.207,-212 135.207,-215.5 135.207,-208.5"/>
</g>
<!-- Node3 -->
<g id="node4" class="node"><title>Node3</title>
<g id="a_node4"><a xlink:href="../../d1/de7/classLeosac_1_1Audit_1_1AccessPointEvent.html" target="_top" xlink:title="Provides an implementation of IAccessPointEvent. ">
<polygon fill="white" stroke="black" points="512.5,-416 512.5,-446 650.5,-446 650.5,-416 512.5,-416"/>
<text text-anchor="start" x="520.5" y="-434" font-family="Helvetica,sans-Serif" font-size="10.00">Leosac::Audit::AccessPoint</text>
<text text-anchor="middle" x="581.5" y="-423" font-family="Helvetica,sans-Serif" font-size="10.00">Event</text>
</a>
</g>
</g>
<!-- Node2&#45;&gt;Node3 -->
<g id="edge3" class="edge"><title>Node2&#45;&gt;Node3</title>
<path fill="none" stroke="midnightblue" d="M467.002,-227.266C468.408,-228.425 469.746,-229.667 471,-231 525.429,-288.818 454.467,-346.454 507,-406 510.388,-409.841 514.39,-413.092 518.749,-415.844"/>
<polygon fill="midnightblue" stroke="midnightblue" points="468.553,-224.096 458.279,-221.507 464.696,-229.938 468.553,-224.096"/>
</g>
<!-- Node4 -->
<g id="node5" class="node"><title>Node4</title>
<g id="a_node5"><a xlink:href="../../d3/d8c/classLeosac_1_1Audit_1_1CredentialEvent.html" target="_top" xlink:title="Provides an implementation of ICredentialEvent. ">
<polygon fill="white" stroke="black" points="518,-367 518,-397 645,-397 645,-367 518,-367"/>
<text text-anchor="start" x="526" y="-385" font-family="Helvetica,sans-Serif" font-size="10.00">Leosac::Audit::Credential</text>
<text text-anchor="middle" x="581.5" y="-374" font-family="Helvetica,sans-Serif" font-size="10.00">Event</text>
</a>
</g>
</g>
<!-- Node2&#45;&gt;Node4 -->
<g id="edge4" class="edge"><title>Node2&#45;&gt;Node4</title>
<path fill="none" stroke="midnightblue" d="M466.361,-227.005C467.991,-228.236 469.544,-229.566 471,-231 512.491,-271.871 466.851,-314.81 507,-357 510.717,-360.906 515.066,-364.201 519.76,-366.982"/>
<polygon fill="midnightblue" stroke="midnightblue" points="467.986,-223.895 457.636,-221.628 464.313,-229.854 467.986,-223.895"/>
</g>
<!-- Node5 -->
<g id="node6" class="node"><title>Node5</title>
<g id="a_node6"><a xlink:href="../../d3/dea/classLeosac_1_1Audit_1_1DoorEvent.html" target="_top" xlink:title="Provides an implementation of IDoorEvent. ">
<polygon fill="white" stroke="black" points="517,-328.5 517,-347.5 646,-347.5 646,-328.5 517,-328.5"/>
<text text-anchor="middle" x="581.5" y="-335.5" font-family="Helvetica,sans-Serif" font-size="10.00">Leosac::Audit::DoorEvent</text>
</a>
</g>
</g>
<!-- Node2&#45;&gt;Node5 -->
<g id="edge5" class="edge"><title>Node2&#45;&gt;Node5</title>
<path fill="none" stroke="midnightblue" d="M465.348,-226.671C467.331,-227.993 469.224,-229.433 471,-231 502.689,-258.955 475.167,-291.209 507,-319 511.369,-322.814 516.407,-325.878 521.755,-328.338"/>
<polygon fill="midnightblue" stroke="midnightblue" points="466.607,-223.368 456.162,-221.593 463.22,-229.494 466.607,-223.368"/>
</g>
<!-- Node6 -->
<g id="node7" class="node"><title>Node6</title>
<g id="a_node7"><a xlink:href="../../df/d1d/classLeosac_1_1Audit_1_1GroupEvent.html" target="_top" xlink:title="Provides an implementation of IGroupEvent. ">
<polygon fill="white" stroke="black" points="514.5,-290.5 514.5,-309.5 648.5,-309.5 648.5,-290.5 514.5,-290.5"/>
<text text-anchor="middle" x="581.5" y="-297.5" font-family="Helvetica,sans-Serif" font-size="10.00">Leosac::Audit::GroupEvent</text>
</a>
</g>
</g>
<!-- Node2&#45;&gt;Node6 -->
<g id="edge6" class="edge"><title>Node2&#45;&gt;Node6</title>
<path fill="none" stroke="midnightblue" d="M461.762,-225.591C464.991,-227.197 468.097,-228.992 471,-231 493.522,-246.575 484.398,-265.541 507,-281 512.657,-284.869 519.048,-287.95 525.642,-290.404"/>
<polygon fill="midnightblue" stroke="midnightblue" points="462.965,-222.298 452.396,-221.548 460.19,-228.725 462.965,-222.298"/>
</g>
<!-- Node7 -->
<g id="node8" class="node"><title>Node7</title>
<g id="a_node8"><a xlink:href="../../db/ddb/classLeosac_1_1Audit_1_1ScheduleEvent.html" target="_top" xlink:title="Provides an implementation of IScheduleEvent. ">
<polygon fill="white" stroke="black" points="507,-252.5 507,-271.5 656,-271.5 656,-252.5 507,-252.5"/>
<text text-anchor="middle" x="581.5" y="-259.5" font-family="Helvetica,sans-Serif" font-size="10.00">Leosac::Audit::ScheduleEvent</text>
</a>
</g>
</g>
<!-- Node2&#45;&gt;Node7 -->
<g id="edge7" class="edge"><title>Node2&#45;&gt;Node7</title>
<path fill="none" stroke="midnightblue" d="M446.564,-224.177C454.718,-226.401 463.118,-228.734 471,-231 487.079,-235.622 490.926,-237.359 507,-242 519.197,-245.522 532.582,-249.215 544.549,-252.455"/>
<polygon fill="midnightblue" stroke="midnightblue" points="447.359,-220.767 436.792,-221.533 445.53,-227.524 447.359,-220.767"/>
</g>
<!-- Node8 -->
<g id="node9" class="node"><title>Node8</title>
<g id="a_node9"><a xlink:href="../../df/d03/classLeosac_1_1Audit_1_1UpdateEvent.html" target="_top" xlink:title="Provides an implementation of IUpdateEvent. ">
<polygon fill="white" stroke="black" points="511.5,-164.5 511.5,-183.5 651.5,-183.5 651.5,-164.5 511.5,-164.5"/>
<text text-anchor="middle" x="581.5" y="-171.5" font-family="Helvetica,sans-Serif" font-size="10.00">Leosac::Audit::UpdateEvent</text>
</a>
</g>
</g>
<!-- Node2&#45;&gt;Node8 -->
<g id="edge8" class="edge"><title>Node2&#45;&gt;Node8</title>
<path fill="none" stroke="midnightblue" d="M455.831,-200.319C481.357,-194.93 511.276,-188.614 535.405,-183.52"/>
<polygon fill="midnightblue" stroke="midnightblue" points="454.983,-196.921 445.922,-202.411 456.429,-203.77 454.983,-196.921"/>
</g>
<!-- Node9 -->
<g id="node10" class="node"><title>Node9</title>
<g id="a_node10"><a xlink:href="../../db/d18/classLeosac_1_1Audit_1_1UserEvent.html" target="_top" xlink:title="Provides an implementation of IUserEvent. ">
<polygon fill="white" stroke="black" points="517,-126.5 517,-145.5 646,-145.5 646,-126.5 517,-126.5"/>
<text text-anchor="middle" x="581.5" y="-133.5" font-family="Helvetica,sans-Serif" font-size="10.00">Leosac::Audit::UserEvent</text>
</a>
</g>
</g>
<!-- Node2&#45;&gt;Node9 -->
<g id="edge9" class="edge"><title>Node2&#45;&gt;Node9</title>
<path fill="none" stroke="midnightblue" d="M459.339,-198.859C463.395,-197.136 467.326,-195.192 471,-193 490.98,-181.082 486.959,-166.815 507,-155 513.585,-151.118 520.959,-148.019 528.427,-145.549"/>
<polygon fill="midnightblue" stroke="midnightblue" points="457.83,-195.688 449.71,-202.494 460.302,-202.237 457.83,-195.688"/>
</g>
<!-- Node10 -->
<g id="node11" class="node"><title>Node10</title>
<g id="a_node11"><a xlink:href="../../d8/db4/classLeosac_1_1Audit_1_1UserGroupMembershipEvent.html" target="_top" xlink:title="Provides an implementation of IUserGroupMembershipEvent. ">
<polygon fill="white" stroke="black" points="516.5,-77 516.5,-107 646.5,-107 646.5,-77 516.5,-77"/>
<text text-anchor="start" x="524.5" y="-95" font-family="Helvetica,sans-Serif" font-size="10.00">Leosac::Audit::UserGroup</text>
<text text-anchor="middle" x="581.5" y="-84" font-family="Helvetica,sans-Serif" font-size="10.00">MembershipEvent</text>
</a>
</g>
</g>
<!-- Node2&#45;&gt;Node10 -->
<g id="edge10" class="edge"><title>Node2&#45;&gt;Node10</title>
<path fill="none" stroke="midnightblue" d="M464.49,-197.676C466.775,-196.261 468.957,-194.706 471,-193 499.686,-169.041 479.102,-141.873 507,-117 511.326,-113.143 516.272,-109.876 521.509,-107.111"/>
<polygon fill="midnightblue" stroke="midnightblue" points="462.506,-194.763 455.245,-202.478 465.733,-200.975 462.506,-194.763"/>
</g>
<!-- Node11 -->
<g id="node12" class="node"><title>Node11</title>
<g id="a_node12"><a xlink:href="../../d5/d44/classLeosac_1_1Audit_1_1WSAPICall.html" target="_top" xlink:title="Provides the implementation of IWSAPICall. ">
<polygon fill="white" stroke="black" points="515,-38.5 515,-57.5 648,-57.5 648,-38.5 515,-38.5"/>
<text text-anchor="middle" x="581.5" y="-45.5" font-family="Helvetica,sans-Serif" font-size="10.00">Leosac::Audit::WSAPICall</text>
</a>
</g>
</g>
<!-- Node2&#45;&gt;Node11 -->
<g id="edge11" class="edge"><title>Node2&#45;&gt;Node11</title>
<path fill="none" stroke="midnightblue" d="M466.361,-196.995C467.991,-195.764 469.544,-194.434 471,-193 512.491,-152.129 465.299,-107.658 507,-67 510.963,-63.1357 515.605,-60.0279 520.595,-57.5325"/>
<polygon fill="midnightblue" stroke="midnightblue" points="464.313,-194.146 457.636,-202.372 467.986,-200.105 464.313,-194.146"/>
</g>
<!-- Node12 -->
<g id="node13" class="node"><title>Node12</title>
<g id="a_node13"><a xlink:href="../../df/dc9/classLeosac_1_1Audit_1_1ZoneEvent.html" target="_top" xlink:title="Provides an implementation of IZoneEvent. ">
<polygon fill="white" stroke="black" points="516.5,-0.5 516.5,-19.5 646.5,-19.5 646.5,-0.5 516.5,-0.5"/>
<text text-anchor="middle" x="581.5" y="-7.5" font-family="Helvetica,sans-Serif" font-size="10.00">Leosac::Audit::ZoneEvent</text>
</a>
</g>
</g>
<!-- Node2&#45;&gt;Node12 -->
<g id="edge12" class="edge"><title>Node2&#45;&gt;Node12</title>
<path fill="none" stroke="midnightblue" d="M466.978,-196.712C468.392,-195.56 469.737,-194.324 471,-193 522.508,-139.003 455.215,-82.7314 507,-29 510.658,-25.2041 514.968,-22.1305 519.636,-19.6462"/>
<polygon fill="midnightblue" stroke="midnightblue" points="464.675,-194.036 458.226,-202.442 468.509,-199.893 464.675,-194.036"/>
</g>
<!-- Node13 -->
<g id="node14" class="node"><title>Node13</title>
<g id="a_node14"><a xlink:href="../../d3/dc8/classLeosac_1_1Module_1_1SMTP_1_1SMTPAudit.html" target="_top" xlink:title="Keeps track of SMTP event. ">
<polygon fill="white" stroke="black" points="522,-203 522,-233 641,-233 641,-203 522,-203"/>
<text text-anchor="start" x="530" y="-221" font-family="Helvetica,sans-Serif" font-size="10.00">Leosac::Module::SMTP</text>
<text text-anchor="middle" x="581.5" y="-210" font-family="Helvetica,sans-Serif" font-size="10.00">::SMTPAudit</text>
</a>
</g>
</g>
<!-- Node2&#45;&gt;Node13 -->
<g id="edge13" class="edge"><title>Node2&#45;&gt;Node13</title>
<path fill="none" stroke="midnightblue" d="M474.066,-214.452C490.018,-214.984 506.684,-215.539 521.964,-216.049"/>
<polygon fill="midnightblue" stroke="midnightblue" points="473.819,-210.942 463.708,-214.107 473.586,-217.938 473.819,-210.942"/>
</g>
<!-- Node14&#45;&gt;Node3 -->
<g id="edge15" class="edge"><title>Node14&#45;&gt;Node3</title>
<path fill="none" stroke="midnightblue" d="M480.255,-431C490.939,-431 501.817,-431 512.277,-431"/>
<polygon fill="midnightblue" stroke="midnightblue" points="480.093,-427.5 470.093,-431 480.093,-434.5 480.093,-427.5"/>
</g>
<!-- Node15&#45;&gt;Node4 -->
<g id="edge17" class="edge"><title>Node15&#45;&gt;Node4</title>
<path fill="none" stroke="midnightblue" d="M474.975,-382C489.215,-382 503.989,-382 517.814,-382"/>
<polygon fill="midnightblue" stroke="midnightblue" points="474.722,-378.5 464.722,-382 474.722,-385.5 474.722,-378.5"/>
</g>
<!-- Node16&#45;&gt;Node5 -->
<g id="edge19" class="edge"><title>Node16&#45;&gt;Node5</title>
<path fill="none" stroke="midnightblue" d="M476.047,-338C489.672,-338 503.75,-338 516.988,-338"/>
<polygon fill="midnightblue" stroke="midnightblue" points="475.739,-334.5 465.739,-338 475.739,-341.5 475.739,-334.5"/>
</g>
<!-- Node17&#45;&gt;Node6 -->
<g id="edge21" class="edge"><title>Node17&#45;&gt;Node6</title>
<path fill="none" stroke="midnightblue" d="M478.099,-300C490.186,-300 502.577,-300 514.377,-300"/>
<polygon fill="midnightblue" stroke="midnightblue" points="478.038,-296.5 468.037,-300 478.037,-303.5 478.038,-296.5"/>
</g>
<!-- Node18&#45;&gt;Node7 -->
<g id="edge23" class="edge"><title>Node18&#45;&gt;Node7</title>
<path fill="none" stroke="midnightblue" d="M472.849,-258.412C484.042,-258.785 495.614,-259.17 506.835,-259.544"/>
<polygon fill="midnightblue" stroke="midnightblue" points="472.809,-254.908 462.698,-258.073 472.576,-261.905 472.809,-254.908"/>
</g>
<!-- Node19&#45;&gt;Node8 -->
<g id="edge25" class="edge"><title>Node19&#45;&gt;Node8</title>
<path fill="none" stroke="midnightblue" d="M481.428,-174C491.387,-174 501.495,-174 511.259,-174"/>
<polygon fill="midnightblue" stroke="midnightblue" points="481.124,-170.5 471.124,-174 481.124,-177.5 481.124,-170.5"/>
</g>
<!-- Node20&#45;&gt;Node9 -->
<g id="edge27" class="edge"><title>Node20&#45;&gt;Node9</title>
<path fill="none" stroke="midnightblue" d="M476.047,-136C489.672,-136 503.75,-136 516.988,-136"/>
<polygon fill="midnightblue" stroke="midnightblue" points="475.739,-132.5 465.739,-136 475.739,-139.5 475.739,-132.5"/>
</g>
<!-- Node21&#45;&gt;Node10 -->
<g id="edge29" class="edge"><title>Node21&#45;&gt;Node10</title>
<path fill="none" stroke="midnightblue" d="M476.347,-92C489.687,-92 503.453,-92 516.432,-92"/>
<polygon fill="midnightblue" stroke="midnightblue" points="476.248,-88.5001 466.248,-92 476.248,-95.5001 476.248,-88.5001"/>
</g>
<!-- Node22&#45;&gt;Node11 -->
<g id="edge31" class="edge"><title>Node22&#45;&gt;Node11</title>
<path fill="none" stroke="midnightblue" d="M477.811,-48C490.173,-48 502.86,-48 514.915,-48"/>
<polygon fill="midnightblue" stroke="midnightblue" points="477.525,-44.5001 467.525,-48 477.525,-51.5001 477.525,-44.5001"/>
</g>
<!-- Node23&#45;&gt;Node12 -->
<g id="edge33" class="edge"><title>Node23&#45;&gt;Node12</title>
<path fill="none" stroke="midnightblue" d="M476.347,-10C489.687,-10 503.453,-10 516.432,-10"/>
<polygon fill="midnightblue" stroke="midnightblue" points="476.248,-6.5001 466.248,-10 476.248,-13.5001 476.248,-6.5001"/>
</g>
</g>
</svg>
