<?xml version="1.0" encoding="UTF-8" standalone="no"?>
<!DOCTYPE svg PUBLIC "-//W3C//DTD SVG 1.1//EN"
 "http://www.w3.org/Graphics/SVG/1.1/DTD/svg11.dtd">
<!-- Generated by graphviz version 2.38.0 (20140413.2041)
 -->
<!-- Title: Leosac::Module::Wiegand::WSHelperThread Pages: 1 -->
<svg width="258pt" height="252pt"
 viewBox="0.00 0.00 257.50 252.00" xmlns="http://www.w3.org/2000/svg" xmlns:xlink="http://www.w3.org/1999/xlink">
<g id="graph0" class="graph" transform="scale(1 1) rotate(0) translate(4 248)">
<title>Leosac::Module::Wiegand::WSHelperThread</title>
<polygon fill="white" stroke="none" points="-4,4 -4,-248 253.5,-248 253.5,4 -4,4"/>
<!-- Node2 -->
<g id="node1" class="node"><title>Node2</title>
<polygon fill="#bfbfbf" stroke="black" points="44.5,-0.5 44.5,-30.5 174.5,-30.5 174.5,-0.5 44.5,-0.5"/>
<text text-anchor="start" x="52.5" y="-18.5" font-family="Helvetica,sans-Serif" font-size="10.00">Leosac::Module::Wiegand</text>
<text text-anchor="middle" x="109.5" y="-7.5" font-family="Helvetica,sans-Serif" font-size="10.00">::WSHelperThread</text>
</g>
<!-- Node3 -->
<g id="node2" class="node"><title>Node3</title>
<g id="a_node2"><a xlink:href="../../d8/daf/classLeosac_1_1Module_1_1WebSockAPI_1_1BaseModuleSupportThread.html" target="_top" xlink:title="Leosac::Module::WebSockAPI\l::BaseModuleSupportThread\&lt; int \&gt;">
<polygon fill="white" stroke="black" points="25,-68.5 25,-98.5 194,-98.5 194,-68.5 25,-68.5"/>
<text text-anchor="start" x="33" y="-86.5" font-family="Helvetica,sans-Serif" font-size="10.00">Leosac::Module::WebSockAPI</text>
<text text-anchor="middle" x="109.5" y="-75.5" font-family="Helvetica,sans-Serif" font-size="10.00">::BaseModuleSupportThread&lt; int &gt;</text>
</a>
</g>
</g>
<!-- Node3&#45;&gt;Node2 -->
<g id="edge1" class="edge"><title>Node3&#45;&gt;Node2</title>
<path fill="none" stroke="midnightblue" d="M109.5,-58.0322C109.5,-48.8606 109.5,-38.7449 109.5,-30.7931"/>
<polygon fill="midnightblue" stroke="midnightblue" points="106,-58.1789 109.5,-68.179 113,-58.179 106,-58.1789"/>
</g>
<!-- Node4 -->
<g id="node3" class="node"><title>Node4</title>
<polygon fill="white" stroke="#bfbfbf" points="0,-146.5 0,-176.5 127,-176.5 127,-146.5 0,-146.5"/>
<text text-anchor="start" x="8" y="-164.5" font-family="Helvetica,sans-Serif" font-size="10.00">std::unique_ptr&lt; boost</text>
<text text-anchor="middle" x="63.5" y="-153.5" font-family="Helvetica,sans-Serif" font-size="10.00">::asio::io_service::work &gt;</text>
</g>
<!-- Node4&#45;&gt;Node3 -->
<g id="edge2" class="edge"><title>Node4&#45;&gt;Node3</title>
<path fill="none" stroke="#9a32cd" stroke-dasharray="5,2" d="M77.3766,-137.574C85.0247,-124.937 94.2791,-109.648 100.887,-98.7309"/>
<polygon fill="#9a32cd" stroke="#9a32cd" points="74.3361,-135.838 72.1522,-146.205 80.3246,-139.462 74.3361,-135.838"/>
<text text-anchor="middle" x="104.5" y="-120" font-family="Helvetica,sans-Serif" font-size="10.00"> work_</text>
</g>
<!-- Node5 -->
<g id="node4" class="node"><title>Node5</title>
<polygon fill="white" stroke="#bfbfbf" points="145.5,-146.5 145.5,-176.5 249.5,-176.5 249.5,-146.5 145.5,-146.5"/>
<text text-anchor="start" x="153.5" y="-164.5" font-family="Helvetica,sans-Serif" font-size="10.00">std::unique_ptr&lt; std</text>
<text text-anchor="middle" x="197.5" y="-153.5" font-family="Helvetica,sans-Serif" font-size="10.00">::thread &gt;</text>
</g>
<!-- Node5&#45;&gt;Node3 -->
<g id="edge3" class="edge"><title>Node5&#45;&gt;Node3</title>
<path fill="none" stroke="#9a32cd" stroke-dasharray="5,2" d="M173.062,-139.394C158.053,-126.432 139.232,-110.178 125.978,-98.7309"/>
<polygon fill="#9a32cd" stroke="#9a32cd" points="171.092,-142.318 180.948,-146.205 175.667,-137.02 171.092,-142.318"/>
<text text-anchor="middle" x="176.5" y="-120" font-family="Helvetica,sans-Serif" font-size="10.00"> thread_</text>
</g>
<!-- Node6 -->
<g id="node5" class="node"><title>Node6</title>
<g id="a_node5"><a xlink:title="STL class. ">
<polygon fill="white" stroke="#bfbfbf" points="166,-224.5 166,-243.5 229,-243.5 229,-224.5 166,-224.5"/>
<text text-anchor="middle" x="197.5" y="-231.5" font-family="Helvetica,sans-Serif" font-size="10.00">std::thread</text>
</a>
</g>
</g>
<!-- Node6&#45;&gt;Node5 -->
<g id="edge4" class="edge"><title>Node6&#45;&gt;Node5</title>
<path fill="none" stroke="#9a32cd" stroke-dasharray="5,2" d="M197.5,-214.236C197.5,-202.408 197.5,-187.383 197.5,-176.576"/>
<polygon fill="#9a32cd" stroke="#9a32cd" points="194,-214.355 197.5,-224.355 201,-214.355 194,-214.355"/>
<text text-anchor="middle" x="205" y="-198" font-family="Helvetica,sans-Serif" font-size="10.00"> ptr</text>
</g>
</g>
</svg>
