<?xml version="1.0" encoding="UTF-8" standalone="no"?>
<!DOCTYPE svg PUBLIC "-//W3C//DTD SVG 1.1//EN"
 "http://www.w3.org/Graphics/SVG/1.1/DTD/svg11.dtd">
<!-- Generated by graphviz version 2.38.0 (20140413.2041)
 -->
<!-- Title: src/tools/ThreadUtils.cpp Pages: 1 -->
<svg width="1467pt" height="364pt"
 viewBox="0.00 0.00 1467.00 364.00" xmlns="http://www.w3.org/2000/svg" xmlns:xlink="http://www.w3.org/1999/xlink">
<g id="graph0" class="graph" transform="scale(1 1) rotate(0) translate(4 360)">
<title>src/tools/ThreadUtils.cpp</title>
<polygon fill="white" stroke="none" points="-4,4 -4,-360 1463,-360 1463,4 -4,4"/>
<!-- Node0 -->
<g id="node1" class="node"><title>Node0</title>
<polygon fill="#bfbfbf" stroke="black" points="949,-336.5 949,-355.5 1075,-355.5 1075,-336.5 949,-336.5"/>
<text text-anchor="middle" x="1012" y="-343.5" font-family="Helvetica,sans-Serif" font-size="10.00">src/tools/ThreadUtils.cpp</text>
</g>
<!-- Node1 -->
<g id="node2" class="node"><title>Node1</title>
<g id="a_node2"><a xlink:href="../../d1/d91/ThreadUtils_8hpp.html" target="_top" xlink:title="ThreadUtils.hpp">
<polygon fill="white" stroke="black" points="31,-280.5 31,-299.5 117,-299.5 117,-280.5 31,-280.5"/>
<text text-anchor="middle" x="74" y="-287.5" font-family="Helvetica,sans-Serif" font-size="10.00">ThreadUtils.hpp</text>
</a>
</g>
</g>
<!-- Node0&#45;&gt;Node1 -->
<g id="edge1" class="edge"><title>Node0&#45;&gt;Node1</title>
<path fill="none" stroke="midnightblue" d="M948.999,-341.373C774.859,-331.348 289.197,-303.389 127.291,-294.068"/>
<polygon fill="midnightblue" stroke="midnightblue" points="127.286,-290.562 117.102,-293.481 126.884,-297.55 127.286,-290.562"/>
</g>
<!-- Node4 -->
<g id="node5" class="node"><title>Node4</title>
<g id="a_node5"><a xlink:href="../../dc/da6/enforce_8hpp.html" target="_top" xlink:title="enforce.hpp">
<polygon fill="white" stroke="black" points="749,-280.5 749,-299.5 817,-299.5 817,-280.5 749,-280.5"/>
<text text-anchor="middle" x="783" y="-287.5" font-family="Helvetica,sans-Serif" font-size="10.00">enforce.hpp</text>
</a>
</g>
</g>
<!-- Node0&#45;&gt;Node4 -->
<g id="edge4" class="edge"><title>Node0&#45;&gt;Node4</title>
<path fill="none" stroke="midnightblue" d="M975.714,-336.444C935.433,-326.945 870.414,-311.613 827.196,-301.422"/>
<polygon fill="midnightblue" stroke="midnightblue" points="827.782,-297.964 817.246,-299.075 826.176,-304.777 827.782,-297.964"/>
</g>
<!-- Node22 -->
<g id="node23" class="node"><title>Node22</title>
<polygon fill="white" stroke="#bfbfbf" points="832,-168.5 832,-187.5 948,-187.5 948,-168.5 832,-168.5"/>
<text text-anchor="middle" x="890" y="-175.5" font-family="Helvetica,sans-Serif" font-size="10.00">spdlog/details/format.h</text>
</g>
<!-- Node0&#45;&gt;Node22 -->
<g id="edge47" class="edge"><title>Node0&#45;&gt;Node22</title>
<path fill="none" stroke="midnightblue" d="M974.568,-336.468C954.008,-329.874 929.758,-318.624 915,-300 891.433,-270.258 888.499,-223.84 888.936,-197.996"/>
<polygon fill="midnightblue" stroke="midnightblue" points="892.444,-197.825 889.312,-187.704 885.449,-197.569 892.444,-197.825"/>
</g>
<!-- Node24 -->
<g id="node25" class="node"><title>Node24</title>
<polygon fill="white" stroke="#bfbfbf" points="923.5,-280.5 923.5,-299.5 970.5,-299.5 970.5,-280.5 923.5,-280.5"/>
<text text-anchor="middle" x="947" y="-287.5" font-family="Helvetica,sans-Serif" font-size="10.00">errno.h</text>
</g>
<!-- Node0&#45;&gt;Node24 -->
<g id="edge46" class="edge"><title>Node0&#45;&gt;Node24</title>
<path fill="none" stroke="midnightblue" d="M1001.56,-336.324C991.854,-328.263 977.185,-316.077 965.5,-306.369"/>
<polygon fill="midnightblue" stroke="midnightblue" points="967.562,-303.532 957.633,-299.834 963.089,-308.916 967.562,-303.532"/>
</g>
<!-- Node25 -->
<g id="node26" class="node"><title>Node25</title>
<polygon fill="white" stroke="#bfbfbf" points="989,-280.5 989,-299.5 1035,-299.5 1035,-280.5 989,-280.5"/>
<text text-anchor="middle" x="1012" y="-287.5" font-family="Helvetica,sans-Serif" font-size="10.00">stdio.h</text>
</g>
<!-- Node0&#45;&gt;Node25 -->
<g id="edge48" class="edge"><title>Node0&#45;&gt;Node25</title>
<path fill="none" stroke="midnightblue" d="M1012,-336.083C1012,-329.006 1012,-318.861 1012,-309.986"/>
<polygon fill="midnightblue" stroke="midnightblue" points="1015.5,-309.751 1012,-299.751 1008.5,-309.751 1015.5,-309.751"/>
</g>
<!-- Node26 -->
<g id="node27" class="node"><title>Node26</title>
<polygon fill="white" stroke="#bfbfbf" points="1053,-280.5 1053,-299.5 1101,-299.5 1101,-280.5 1053,-280.5"/>
<text text-anchor="middle" x="1077" y="-287.5" font-family="Helvetica,sans-Serif" font-size="10.00">stdlib.h</text>
</g>
<!-- Node0&#45;&gt;Node26 -->
<g id="edge49" class="edge"><title>Node0&#45;&gt;Node26</title>
<path fill="none" stroke="midnightblue" d="M1022.44,-336.324C1032.15,-328.263 1046.82,-316.077 1058.5,-306.369"/>
<polygon fill="midnightblue" stroke="midnightblue" points="1060.91,-308.916 1066.37,-299.834 1056.44,-303.532 1060.91,-308.916"/>
</g>
<!-- Node27 -->
<g id="node28" class="node"><title>Node27</title>
<polygon fill="white" stroke="#bfbfbf" points="1119,-280.5 1119,-299.5 1181,-299.5 1181,-280.5 1119,-280.5"/>
<text text-anchor="middle" x="1150" y="-287.5" font-family="Helvetica,sans-Serif" font-size="10.00">sys/prctl.h</text>
</g>
<!-- Node0&#45;&gt;Node27 -->
<g id="edge50" class="edge"><title>Node0&#45;&gt;Node27</title>
<path fill="none" stroke="midnightblue" d="M1033.87,-336.444C1056.78,-327.478 1092.98,-313.314 1118.87,-303.183"/>
<polygon fill="midnightblue" stroke="midnightblue" points="1120.2,-306.42 1128.24,-299.516 1117.65,-299.901 1120.2,-306.42"/>
</g>
<!-- Node28 -->
<g id="node29" class="node"><title>Node28</title>
<polygon fill="white" stroke="#bfbfbf" points="1199,-280.5 1199,-299.5 1273,-299.5 1273,-280.5 1199,-280.5"/>
<text text-anchor="middle" x="1236" y="-287.5" font-family="Helvetica,sans-Serif" font-size="10.00">sys/syscall.h</text>
</g>
<!-- Node0&#45;&gt;Node28 -->
<g id="edge51" class="edge"><title>Node0&#45;&gt;Node28</title>
<path fill="none" stroke="midnightblue" d="M1047.49,-336.444C1086.32,-327.083 1148.66,-312.056 1190.92,-301.868"/>
<polygon fill="midnightblue" stroke="midnightblue" points="1191.77,-305.263 1200.67,-299.516 1190.13,-298.458 1191.77,-305.263"/>
</g>
<!-- Node29 -->
<g id="node30" class="node"><title>Node29</title>
<polygon fill="white" stroke="#bfbfbf" points="1291.5,-280.5 1291.5,-299.5 1342.5,-299.5 1342.5,-280.5 1291.5,-280.5"/>
<text text-anchor="middle" x="1317" y="-287.5" font-family="Helvetica,sans-Serif" font-size="10.00">unistd.h</text>
</g>
<!-- Node0&#45;&gt;Node29 -->
<g id="edge52" class="edge"><title>Node0&#45;&gt;Node29</title>
<path fill="none" stroke="midnightblue" d="M1072.33,-336.473C1124.99,-328.684 1203.63,-316.218 1281.46,-299.951"/>
<polygon fill="midnightblue" stroke="midnightblue" points="1282.38,-303.334 1291.45,-297.843 1280.94,-296.485 1282.38,-303.334"/>
</g>
<!-- Node2 -->
<g id="node3" class="node"><title>Node2</title>
<polygon fill="white" stroke="#bfbfbf" points="0,-224.5 0,-243.5 46,-243.5 46,-224.5 0,-224.5"/>
<text text-anchor="middle" x="23" y="-231.5" font-family="Helvetica,sans-Serif" font-size="10.00">cstdint</text>
</g>
<!-- Node1&#45;&gt;Node2 -->
<g id="edge2" class="edge"><title>Node1&#45;&gt;Node2</title>
<path fill="none" stroke="midnightblue" d="M65.5784,-280.083C58.1518,-272.22 47.1483,-260.569 38.1878,-251.081"/>
<polygon fill="midnightblue" stroke="midnightblue" points="40.6757,-248.618 31.2649,-243.751 35.5866,-253.424 40.6757,-248.618"/>
</g>
<!-- Node3 -->
<g id="node4" class="node"><title>Node3</title>
<polygon fill="white" stroke="#bfbfbf" points="756.5,-0.5 756.5,-19.5 797.5,-19.5 797.5,-0.5 756.5,-0.5"/>
<text text-anchor="middle" x="777" y="-7.5" font-family="Helvetica,sans-Serif" font-size="10.00">string</text>
</g>
<!-- Node1&#45;&gt;Node3 -->
<g id="edge3" class="edge"><title>Node1&#45;&gt;Node3</title>
<path fill="none" stroke="midnightblue" d="M74,-280.442C74,-261.936 74,-216.812 74,-179 74,-179 74,-179 74,-121 74,-51.9162 610.756,-19.5755 746.236,-12.5128"/>
<polygon fill="midnightblue" stroke="midnightblue" points="746.534,-16.0022 756.341,-11.9944 746.175,-9.01143 746.534,-16.0022"/>
</g>
<!-- Node5 -->
<g id="node6" class="node"><title>Node5</title>
<g id="a_node6"><a xlink:href="../../de/d99/InvalidArgument_8hpp.html" target="_top" xlink:title="exception/InvalidArgument.hpp">
<polygon fill="white" stroke="black" points="657.5,-224.5 657.5,-243.5 808.5,-243.5 808.5,-224.5 657.5,-224.5"/>
<text text-anchor="middle" x="733" y="-231.5" font-family="Helvetica,sans-Serif" font-size="10.00">exception/InvalidArgument.hpp</text>
</a>
</g>
</g>
<!-- Node4&#45;&gt;Node5 -->
<g id="edge5" class="edge"><title>Node4&#45;&gt;Node5</title>
<path fill="none" stroke="midnightblue" d="M774.744,-280.083C767.535,-272.298 756.89,-260.801 748.154,-251.367"/>
<polygon fill="midnightblue" stroke="midnightblue" points="750.465,-248.711 741.103,-243.751 745.329,-253.467 750.465,-248.711"/>
</g>
<!-- Node6 -->
<g id="node7" class="node"><title>Node6</title>
<g id="a_node7"><a xlink:href="../../d1/ddd/leosacexception_8hpp.html" target="_top" xlink:title="Exception class for LEOSAC Project related errors. ">
<polygon fill="white" stroke="black" points="657.5,-168.5 657.5,-187.5 808.5,-187.5 808.5,-168.5 657.5,-168.5"/>
<text text-anchor="middle" x="733" y="-175.5" font-family="Helvetica,sans-Serif" font-size="10.00">exception/leosacexception.hpp</text>
</a>
</g>
</g>
<!-- Node4&#45;&gt;Node6 -->
<g id="edge44" class="edge"><title>Node4&#45;&gt;Node6</title>
<path fill="none" stroke="midnightblue" d="M748.83,-288.187C716.899,-285.386 670.824,-275.666 648,-244 631.435,-221.018 664.767,-202.351 694.428,-191.014"/>
<polygon fill="midnightblue" stroke="midnightblue" points="695.653,-194.293 703.861,-187.594 693.267,-187.712 695.653,-194.293"/>
</g>
<!-- Node23 -->
<g id="node24" class="node"><title>Node23</title>
<polygon fill="white" stroke="#bfbfbf" points="827,-224.5 827,-243.5 867,-243.5 867,-224.5 827,-224.5"/>
<text text-anchor="middle" x="847" y="-231.5" font-family="Helvetica,sans-Serif" font-size="10.00">utility</text>
</g>
<!-- Node4&#45;&gt;Node23 -->
<g id="edge45" class="edge"><title>Node4&#45;&gt;Node23</title>
<path fill="none" stroke="midnightblue" d="M793.283,-280.324C802.836,-272.263 817.28,-260.077 828.784,-250.369"/>
<polygon fill="midnightblue" stroke="midnightblue" points="831.144,-252.958 836.53,-243.834 826.63,-247.608 831.144,-252.958"/>
</g>
<!-- Node5&#45;&gt;Node6 -->
<g id="edge6" class="edge"><title>Node5&#45;&gt;Node6</title>
<path fill="none" stroke="midnightblue" d="M733,-224.083C733,-217.006 733,-206.861 733,-197.986"/>
<polygon fill="midnightblue" stroke="midnightblue" points="736.5,-197.751 733,-187.751 729.5,-197.751 736.5,-197.751"/>
</g>
<!-- Node5&#45;&gt;Node22 -->
<g id="edge43" class="edge"><title>Node5&#45;&gt;Node22</title>
<path fill="none" stroke="midnightblue" d="M757.877,-224.444C784.289,-215.359 826.215,-200.939 855.742,-190.783"/>
<polygon fill="midnightblue" stroke="midnightblue" points="856.921,-194.079 865.239,-187.516 854.645,-187.459 856.921,-194.079"/>
</g>
<!-- Node6&#45;&gt;Node3 -->
<g id="edge12" class="edge"><title>Node6&#45;&gt;Node3</title>
<path fill="none" stroke="midnightblue" d="M808.569,-169.409C931.542,-157.014 1161.53,-133.634 1163,-132 1265.13,-18.6193 915.805,-10.5374 807.818,-10.6859"/>
<polygon fill="midnightblue" stroke="midnightblue" points="807.56,-7.18675 797.574,-10.7263 807.588,-14.1867 807.56,-7.18675"/>
</g>
<!-- Node7 -->
<g id="node8" class="node"><title>Node7</title>
<g id="a_node8"><a xlink:href="../../d6/d2f/Stacktrace_8hpp.html" target="_top" xlink:title="tools/Stacktrace.hpp">
<polygon fill="white" stroke="black" points="679.5,-112.5 679.5,-131.5 786.5,-131.5 786.5,-112.5 679.5,-112.5"/>
<text text-anchor="middle" x="733" y="-119.5" font-family="Helvetica,sans-Serif" font-size="10.00">tools/Stacktrace.hpp</text>
</a>
</g>
</g>
<!-- Node6&#45;&gt;Node7 -->
<g id="edge7" class="edge"><title>Node6&#45;&gt;Node7</title>
<path fill="none" stroke="midnightblue" d="M733,-168.083C733,-161.006 733,-150.861 733,-141.986"/>
<polygon fill="midnightblue" stroke="midnightblue" points="736.5,-141.751 733,-131.751 729.5,-141.751 736.5,-141.751"/>
</g>
<!-- Node9 -->
<g id="node10" class="node"><title>Node9</title>
<polygon fill="white" stroke="#bfbfbf" points="1210.5,-112.5 1210.5,-131.5 1259.5,-131.5 1259.5,-112.5 1210.5,-112.5"/>
<text text-anchor="middle" x="1235" y="-119.5" font-family="Helvetica,sans-Serif" font-size="10.00">cstddef</text>
</g>
<!-- Node6&#45;&gt;Node9 -->
<g id="edge10" class="edge"><title>Node6&#45;&gt;Node9</title>
<path fill="none" stroke="midnightblue" d="M808.62,-169.419C813.486,-168.937 818.312,-168.461 823,-168 988.75,-151.714 1031.62,-158.782 1196,-132 1197.46,-131.763 1198.94,-131.503 1200.44,-131.225"/>
<polygon fill="midnightblue" stroke="midnightblue" points="1201.24,-134.633 1210.34,-129.203 1199.84,-127.775 1201.24,-134.633"/>
</g>
<!-- Node10 -->
<g id="node11" class="node"><title>Node10</title>
<polygon fill="white" stroke="#bfbfbf" points="1277.5,-112.5 1277.5,-131.5 1336.5,-131.5 1336.5,-112.5 1277.5,-112.5"/>
<text text-anchor="middle" x="1307" y="-119.5" font-family="Helvetica,sans-Serif" font-size="10.00">exception</text>
</g>
<!-- Node6&#45;&gt;Node10 -->
<g id="edge11" class="edge"><title>Node6&#45;&gt;Node10</title>
<path fill="none" stroke="midnightblue" d="M808.612,-169.333C813.48,-168.872 818.308,-168.424 823,-168 1017.77,-150.402 1070.81,-162.586 1267.15,-132.088"/>
<polygon fill="midnightblue" stroke="midnightblue" points="1267.88,-135.516 1277.21,-130.506 1266.79,-128.601 1267.88,-135.516"/>
</g>
<!-- Node11 -->
<g id="node12" class="node"><title>Node11</title>
<g id="a_node12"><a xlink:href="../../d7/d7a/configexception_8hpp.html" target="_top" xlink:title="configexception.hpp">
<polygon fill="white" stroke="black" points="1355,-112.5 1355,-131.5 1459,-131.5 1459,-112.5 1355,-112.5"/>
<text text-anchor="middle" x="1407" y="-119.5" font-family="Helvetica,sans-Serif" font-size="10.00">configexception.hpp</text>
</a>
</g>
</g>
<!-- Node6&#45;&gt;Node11 -->
<g id="edge13" class="edge"><title>Node6&#45;&gt;Node11</title>
<path fill="none" stroke="midnightblue" d="M808.309,-168.489C810.223,-168.322 812.122,-168.158 814,-168 1046.17,-148.406 1105.35,-157.023 1337,-132 1339.51,-131.728 1342.08,-131.43 1344.68,-131.113"/>
<polygon fill="midnightblue" stroke="midnightblue" points="1345.35,-134.557 1354.82,-129.808 1344.45,-127.614 1345.35,-134.557"/>
</g>
<!-- Node14 -->
<g id="node15" class="node"><title>Node14</title>
<g id="a_node15"><a xlink:href="../../d8/db0/coreexception_8hpp.html" target="_top" xlink:title="Exception class for Core related errors. ">
<polygon fill="white" stroke="black" points="102,-112.5 102,-131.5 198,-131.5 198,-112.5 102,-112.5"/>
<text text-anchor="middle" x="150" y="-119.5" font-family="Helvetica,sans-Serif" font-size="10.00">coreexception.hpp</text>
</a>
</g>
</g>
<!-- Node6&#45;&gt;Node14 -->
<g id="edge19" class="edge"><title>Node6&#45;&gt;Node14</title>
<path fill="none" stroke="midnightblue" d="M657.144,-172.609C555.268,-166.048 368.709,-152.374 204.372,-132.748"/>
<polygon fill="midnightblue" stroke="midnightblue" points="204.427,-129.23 194.08,-131.508 203.59,-136.179 204.427,-129.23"/>
</g>
<!-- Node15 -->
<g id="node16" class="node"><title>Node15</title>
<g id="a_node16"><a xlink:href="../../d8/d77/deviceexception_8hpp.html" target="_top" xlink:title="Exception class for Device related errors. ">
<polygon fill="white" stroke="black" points="216,-112.5 216,-131.5 322,-131.5 322,-112.5 216,-112.5"/>
<text text-anchor="middle" x="269" y="-119.5" font-family="Helvetica,sans-Serif" font-size="10.00">deviceexception.hpp</text>
</a>
</g>
</g>
<!-- Node6&#45;&gt;Node15 -->
<g id="edge22" class="edge"><title>Node6&#45;&gt;Node15</title>
<path fill="none" stroke="midnightblue" d="M657.439,-169.96C577.107,-161.868 446.337,-147.818 328.661,-132.844"/>
<polygon fill="midnightblue" stroke="midnightblue" points="328.77,-129.33 318.406,-131.533 327.882,-136.273 328.77,-129.33"/>
</g>
<!-- Node16 -->
<g id="node17" class="node"><title>Node16</title>
<g id="a_node17"><a xlink:href="../../db/d35/dynlibexception_8hpp.html" target="_top" xlink:title="Exception class for DynLib related errors. ">
<polygon fill="white" stroke="black" points="340.5,-112.5 340.5,-131.5 443.5,-131.5 443.5,-112.5 340.5,-112.5"/>
<text text-anchor="middle" x="392" y="-119.5" font-family="Helvetica,sans-Serif" font-size="10.00">dynlibexception.hpp</text>
</a>
</g>
</g>
<!-- Node6&#45;&gt;Node16 -->
<g id="edge25" class="edge"><title>Node6&#45;&gt;Node16</title>
<path fill="none" stroke="midnightblue" d="M673.879,-168.444C611.294,-158.865 513.244,-143.356 450.787,-133.167"/>
<polygon fill="midnightblue" stroke="midnightblue" points="451.134,-129.677 440.7,-131.516 450.003,-136.585 451.134,-129.677"/>
</g>
<!-- Node17 -->
<g id="node18" class="node"><title>Node17</title>
<g id="a_node18"><a xlink:href="../../d0/d4e/fsexception_8hpp.html" target="_top" xlink:title="Exception class for filesystem related errors. ">
<polygon fill="white" stroke="black" points="462,-112.5 462,-131.5 548,-131.5 548,-112.5 462,-112.5"/>
<text text-anchor="middle" x="505" y="-119.5" font-family="Helvetica,sans-Serif" font-size="10.00">fsexception.hpp</text>
</a>
</g>
</g>
<!-- Node6&#45;&gt;Node17 -->
<g id="edge28" class="edge"><title>Node6&#45;&gt;Node17</title>
<path fill="none" stroke="midnightblue" d="M691.784,-168.444C650.294,-159.102 586.88,-144.119 545.61,-133.933"/>
<polygon fill="midnightblue" stroke="midnightblue" points="546.427,-130.529 535.878,-131.516 544.74,-137.323 546.427,-130.529"/>
</g>
<!-- Node18 -->
<g id="node19" class="node"><title>Node18</title>
<g id="a_node19"><a xlink:href="../../d1/d8e/gpioexception_8hpp.html" target="_top" xlink:title="Exception class for Gpio related errors. ">
<polygon fill="white" stroke="black" points="566.5,-112.5 566.5,-131.5 661.5,-131.5 661.5,-112.5 566.5,-112.5"/>
<text text-anchor="middle" x="614" y="-119.5" font-family="Helvetica,sans-Serif" font-size="10.00">gpioexception.hpp</text>
</a>
</g>
</g>
<!-- Node6&#45;&gt;Node18 -->
<g id="edge31" class="edge"><title>Node6&#45;&gt;Node18</title>
<path fill="none" stroke="midnightblue" d="M709.055,-168.444C687.905,-159.715 657.552,-146.059 636.768,-135.994"/>
<polygon fill="midnightblue" stroke="midnightblue" points="638.204,-132.8 627.688,-131.516 635.108,-139.078 638.204,-132.8"/>
</g>
<!-- Node19 -->
<g id="node20" class="node"><title>Node19</title>
<g id="a_node20"><a xlink:href="../../d7/d8c/moduleexception_8hpp.html" target="_top" xlink:title="Exception class for modules. ">
<polygon fill="white" stroke="black" points="804.5,-112.5 804.5,-131.5 913.5,-131.5 913.5,-112.5 804.5,-112.5"/>
<text text-anchor="middle" x="859" y="-119.5" font-family="Helvetica,sans-Serif" font-size="10.00">moduleexception.hpp</text>
</a>
</g>
</g>
<!-- Node6&#45;&gt;Node19 -->
<g id="edge34" class="edge"><title>Node6&#45;&gt;Node19</title>
<path fill="none" stroke="midnightblue" d="M747.876,-168.444C766.747,-159.517 799.369,-145.439 824.49,-135.317"/>
<polygon fill="midnightblue" stroke="midnightblue" points="826.049,-138.464 834.048,-131.516 823.463,-131.959 826.049,-138.464"/>
</g>
<!-- Node20 -->
<g id="node21" class="node"><title>Node20</title>
<g id="a_node21"><a xlink:href="../../df/d8d/scriptexception_8hpp.html" target="_top" xlink:title="Exception class for Script related errors. ">
<polygon fill="white" stroke="black" points="931.5,-112.5 931.5,-131.5 1032.5,-131.5 1032.5,-112.5 931.5,-112.5"/>
<text text-anchor="middle" x="982" y="-119.5" font-family="Helvetica,sans-Serif" font-size="10.00">scriptexception.hpp</text>
</a>
</g>
</g>
<!-- Node6&#45;&gt;Node20 -->
<g id="edge37" class="edge"><title>Node6&#45;&gt;Node20</title>
<path fill="none" stroke="midnightblue" d="M767.366,-168.444C808.824,-159.004 878.785,-143.802 927.577,-133.611"/>
<polygon fill="midnightblue" stroke="midnightblue" points="928.572,-136.979 937.65,-131.516 927.147,-130.126 928.572,-136.979"/>
</g>
<!-- Node21 -->
<g id="node22" class="node"><title>Node21</title>
<g id="a_node22"><a xlink:href="../../dc/dce/signalexception_8hpp.html" target="_top" xlink:title="Exception class for Signal related errors. ">
<polygon fill="white" stroke="black" points="1050.5,-112.5 1050.5,-131.5 1153.5,-131.5 1153.5,-112.5 1050.5,-112.5"/>
<text text-anchor="middle" x="1102" y="-119.5" font-family="Helvetica,sans-Serif" font-size="10.00">signalexception.hpp</text>
</a>
</g>
</g>
<!-- Node6&#45;&gt;Node21 -->
<g id="edge40" class="edge"><title>Node6&#45;&gt;Node21</title>
<path fill="none" stroke="midnightblue" d="M785.252,-168.49C845.148,-159.496 945.987,-144.862 1033,-132 1035.46,-131.636 1037.98,-131.263 1040.53,-130.885"/>
<polygon fill="midnightblue" stroke="midnightblue" points="1041.1,-134.339 1050.48,-129.414 1040.07,-127.414 1041.1,-134.339"/>
</g>
<!-- Node7&#45;&gt;Node3 -->
<g id="edge8" class="edge"><title>Node7&#45;&gt;Node3</title>
<path fill="none" stroke="midnightblue" d="M738.585,-112.328C744.1,-103.474 752.488,-89.1943 758,-76 764.373,-60.7446 769.478,-42.6357 772.785,-29.4114"/>
<polygon fill="midnightblue" stroke="midnightblue" points="776.204,-30.1619 775.128,-19.6218 769.396,-28.5325 776.204,-30.1619"/>
</g>
<!-- Node8 -->
<g id="node9" class="node"><title>Node8</title>
<polygon fill="white" stroke="#bfbfbf" points="705,-56.5 705,-75.5 749,-75.5 749,-56.5 705,-56.5"/>
<text text-anchor="middle" x="727" y="-63.5" font-family="Helvetica,sans-Serif" font-size="10.00">vector</text>
</g>
<!-- Node7&#45;&gt;Node8 -->
<g id="edge9" class="edge"><title>Node7&#45;&gt;Node8</title>
<path fill="none" stroke="midnightblue" d="M732.009,-112.083C731.214,-104.927 730.071,-94.6353 729.077,-85.6911"/>
<polygon fill="midnightblue" stroke="midnightblue" points="732.555,-85.3034 727.972,-75.7511 725.598,-86.0765 732.555,-85.3034"/>
</g>
<!-- Node11&#45;&gt;Node3 -->
<g id="edge18" class="edge"><title>Node11&#45;&gt;Node3</title>
<path fill="none" stroke="midnightblue" d="M1384.27,-112.414C1346,-98.3198 1266.02,-70.4061 1196,-56 1052.81,-26.5409 877.892,-15.6542 808.002,-12.2944"/>
<polygon fill="midnightblue" stroke="midnightblue" points="807.859,-8.78414 797.708,-11.8181 807.535,-15.7767 807.859,-8.78414"/>
</g>
<!-- Node11&#45;&gt;Node6 -->
<g id="edge14" class="edge"><title>Node11&#45;&gt;Node6</title>
<path fill="none" stroke="midnightblue" d="M1359.19,-131.529C1357.78,-131.693 1356.38,-131.851 1355,-132 1123.35,-157.023 1064.17,-148.406 832,-168 827.775,-168.357 823.44,-168.738 819.055,-169.135"/>
<polygon fill="midnightblue" stroke="midnightblue" points="818.396,-165.681 808.76,-170.086 819.04,-172.651 818.396,-165.681"/>
</g>
<!-- Node12 -->
<g id="node13" class="node"><title>Node12</title>
<g id="a_node13"><a xlink:href="../../dd/d35/Colorize_8hpp.html" target="_top" xlink:title="tools/Colorize.hpp">
<polygon fill="white" stroke="black" points="1331.5,-56.5 1331.5,-75.5 1426.5,-75.5 1426.5,-56.5 1331.5,-56.5"/>
<text text-anchor="middle" x="1379" y="-63.5" font-family="Helvetica,sans-Serif" font-size="10.00">tools/Colorize.hpp</text>
</a>
</g>
</g>
<!-- Node11&#45;&gt;Node12 -->
<g id="edge15" class="edge"><title>Node11&#45;&gt;Node12</title>
<path fill="none" stroke="midnightblue" d="M1402.38,-112.083C1398.54,-104.691 1392.98,-93.9533 1388.24,-84.8111"/>
<polygon fill="midnightblue" stroke="midnightblue" points="1391.25,-83.0175 1383.54,-75.7511 1385.03,-86.2398 1391.25,-83.0175"/>
</g>
<!-- Node12&#45;&gt;Node3 -->
<g id="edge17" class="edge"><title>Node12&#45;&gt;Node3</title>
<path fill="none" stroke="midnightblue" d="M1331.37,-60.1291C1317.69,-58.7598 1302.76,-57.2925 1289,-56 1107,-38.9024 888.405,-20.3515 808.339,-13.6226"/>
<polygon fill="midnightblue" stroke="midnightblue" points="808.237,-10.1018 797.979,-12.753 807.651,-17.0773 808.237,-10.1018"/>
</g>
<!-- Node13 -->
<g id="node14" class="node"><title>Node13</title>
<polygon fill="white" stroke="#bfbfbf" points="1353,-0.5 1353,-19.5 1405,-19.5 1405,-0.5 1353,-0.5"/>
<text text-anchor="middle" x="1379" y="-7.5" font-family="Helvetica,sans-Serif" font-size="10.00">sstream</text>
</g>
<!-- Node12&#45;&gt;Node13 -->
<g id="edge16" class="edge"><title>Node12&#45;&gt;Node13</title>
<path fill="none" stroke="midnightblue" d="M1379,-56.083C1379,-49.0059 1379,-38.8611 1379,-29.9865"/>
<polygon fill="midnightblue" stroke="midnightblue" points="1382.5,-29.751 1379,-19.7511 1375.5,-29.7511 1382.5,-29.751"/>
</g>
<!-- Node14&#45;&gt;Node3 -->
<g id="edge20" class="edge"><title>Node14&#45;&gt;Node3</title>
<path fill="none" stroke="midnightblue" d="M186.11,-112.471C243.185,-99.1856 357.85,-73.2822 456,-56 561.954,-37.3436 688.678,-21.4557 746.06,-14.6059"/>
<polygon fill="midnightblue" stroke="midnightblue" points="746.748,-18.049 756.266,-13.3958 745.924,-11.0976 746.748,-18.049"/>
</g>
<!-- Node14&#45;&gt;Node6 -->
<g id="edge21" class="edge"><title>Node14&#45;&gt;Node6</title>
<path fill="none" stroke="midnightblue" d="M198.092,-129.565C204.151,-130.453 210.232,-131.299 216,-132 367.448,-150.411 544.333,-163.905 647.072,-171.092"/>
<polygon fill="midnightblue" stroke="midnightblue" points="646.866,-174.586 657.085,-171.789 647.352,-167.603 646.866,-174.586"/>
</g>
<!-- Node15&#45;&gt;Node3 -->
<g id="edge23" class="edge"><title>Node15&#45;&gt;Node3</title>
<path fill="none" stroke="midnightblue" d="M303.066,-112.421C354.775,-99.5125 456.242,-74.6238 543,-56 615.645,-40.4057 701.534,-24.5434 746.327,-16.4647"/>
<polygon fill="midnightblue" stroke="midnightblue" points="747.057,-19.8897 756.28,-14.6759 745.819,-13.0001 747.057,-19.8897"/>
</g>
<!-- Node15&#45;&gt;Node6 -->
<g id="edge24" class="edge"><title>Node15&#45;&gt;Node6</title>
<path fill="none" stroke="midnightblue" d="M322.262,-129.616C328.275,-130.449 334.282,-131.265 340,-132 445.874,-145.607 567.743,-158.919 647.404,-167.491"/>
<polygon fill="midnightblue" stroke="midnightblue" points="647.072,-170.975 657.389,-168.564 647.821,-164.015 647.072,-170.975"/>
</g>
<!-- Node16&#45;&gt;Node3 -->
<g id="edge26" class="edge"><title>Node16&#45;&gt;Node3</title>
<path fill="none" stroke="midnightblue" d="M420.56,-112.419C462.627,-99.8208 543.755,-75.6814 613,-56 659.384,-42.8165 713.335,-28.1386 746.319,-19.2391"/>
<polygon fill="midnightblue" stroke="midnightblue" points="747.51,-22.5431 756.255,-16.562 745.689,-15.7842 747.51,-22.5431"/>
</g>
<!-- Node16&#45;&gt;Node6 -->
<g id="edge27" class="edge"><title>Node16&#45;&gt;Node6</title>
<path fill="none" stroke="midnightblue" d="M443.749,-130.431C505.687,-139.867 608.986,-156.194 673.968,-166.793"/>
<polygon fill="midnightblue" stroke="midnightblue" points="673.622,-170.283 684.056,-168.444 674.752,-163.375 673.622,-170.283"/>
</g>
<!-- Node17&#45;&gt;Node3 -->
<g id="edge29" class="edge"><title>Node17&#45;&gt;Node3</title>
<path fill="none" stroke="midnightblue" d="M526.343,-112.368C574.428,-92.9226 691.351,-45.6374 746.829,-23.2015"/>
<polygon fill="midnightblue" stroke="midnightblue" points="748.171,-26.4343 756.129,-19.4403 745.547,-19.9448 748.171,-26.4343"/>
</g>
<!-- Node17&#45;&gt;Node6 -->
<g id="edge30" class="edge"><title>Node17&#45;&gt;Node6</title>
<path fill="none" stroke="midnightblue" d="M546.038,-131.516C587.465,-140.841 650.88,-155.823 692.213,-166.024"/>
<polygon fill="midnightblue" stroke="midnightblue" points="691.413,-169.431 701.961,-168.444 693.099,-162.637 691.413,-169.431"/>
</g>
<!-- Node18&#45;&gt;Node3 -->
<g id="edge33" class="edge"><title>Node18&#45;&gt;Node3</title>
<path fill="none" stroke="midnightblue" d="M623.701,-112.448C638.658,-99.4666 668.503,-74.3585 696,-56 713.671,-44.2021 734.669,-32.5997 750.857,-24.1315"/>
<polygon fill="midnightblue" stroke="midnightblue" points="752.491,-27.2271 759.771,-19.5299 749.28,-21.007 752.491,-27.2271"/>
</g>
<!-- Node18&#45;&gt;Node6 -->
<g id="edge32" class="edge"><title>Node18&#45;&gt;Node6</title>
<path fill="none" stroke="midnightblue" d="M638.182,-131.655C659.221,-140.346 689.238,-153.849 709.936,-163.862"/>
<polygon fill="midnightblue" stroke="midnightblue" points="708.478,-167.046 718.995,-168.324 711.571,-160.766 708.478,-167.046"/>
</g>
<!-- Node19&#45;&gt;Node3 -->
<g id="edge35" class="edge"><title>Node19&#45;&gt;Node3</title>
<path fill="none" stroke="midnightblue" d="M852.566,-112.368C838.973,-94.135 807.136,-51.4257 789.431,-27.6752"/>
<polygon fill="midnightblue" stroke="midnightblue" points="792.187,-25.5171 783.405,-19.5914 786.575,-29.7007 792.187,-25.5171"/>
</g>
<!-- Node19&#45;&gt;Node6 -->
<g id="edge36" class="edge"><title>Node19&#45;&gt;Node6</title>
<path fill="none" stroke="midnightblue" d="M844.208,-131.516C825.379,-140.427 792.766,-154.504 767.622,-164.638"/>
<polygon fill="midnightblue" stroke="midnightblue" points="766.052,-161.495 758.054,-168.444 768.639,-168 766.052,-161.495"/>
</g>
<!-- Node20&#45;&gt;Node3 -->
<g id="edge38" class="edge"><title>Node20&#45;&gt;Node3</title>
<path fill="none" stroke="midnightblue" d="M965.914,-112.368C930.287,-93.2515 844.518,-47.229 801.9,-24.361"/>
<polygon fill="midnightblue" stroke="midnightblue" points="803.478,-21.2356 793.011,-19.5914 800.168,-27.4037 803.478,-21.2356"/>
</g>
<!-- Node20&#45;&gt;Node6 -->
<g id="edge39" class="edge"><title>Node20&#45;&gt;Node6</title>
<path fill="none" stroke="midnightblue" d="M947.81,-131.516C906.433,-140.94 836.482,-156.141 787.63,-166.346"/>
<polygon fill="midnightblue" stroke="midnightblue" points="786.621,-162.98 777.544,-168.444 788.047,-169.834 786.621,-162.98"/>
</g>
<!-- Node21&#45;&gt;Node3 -->
<g id="edge41" class="edge"><title>Node21&#45;&gt;Node3</title>
<path fill="none" stroke="midnightblue" d="M1076.77,-112.46C1017.86,-92.5205 871.418,-42.957 807.573,-21.3479"/>
<polygon fill="midnightblue" stroke="midnightblue" points="808.302,-17.8996 797.708,-18.0088 806.058,-24.5301 808.302,-17.8996"/>
</g>
<!-- Node21&#45;&gt;Node6 -->
<g id="edge42" class="edge"><title>Node21&#45;&gt;Node6</title>
<path fill="none" stroke="midnightblue" d="M1054.15,-131.533C1053.09,-131.69 1052.04,-131.846 1051,-132 968.406,-144.209 873.354,-158.015 808.767,-167.077"/>
<polygon fill="midnightblue" stroke="midnightblue" points="808.088,-163.638 798.669,-168.49 809.058,-170.57 808.088,-163.638"/>
</g>
</g>
</svg>
