<?xml version="1.0" encoding="UTF-8" standalone="no"?>
<!DOCTYPE svg PUBLIC "-//W3C//DTD SVG 1.1//EN"
 "http://www.w3.org/Graphics/SVG/1.1/DTD/svg11.dtd">
<!-- Generated by graphviz version 2.38.0 (20140413.2041)
 -->
<!-- Title: Leosac::Module::LedBuzzer::CRUDHandler&lt; ObjectT, ObjectIdKey, SerializerT &gt; Pages: 1 -->
<svg width="159pt" height="184pt"
 viewBox="0.00 0.00 159.00 184.00" xmlns="http://www.w3.org/2000/svg" xmlns:xlink="http://www.w3.org/1999/xlink">
<g id="graph0" class="graph" transform="scale(1 1) rotate(0) translate(4 180)">
<title>Leosac::Module::LedBuzzer::CRUDHandler&lt; ObjectT, ObjectIdKey, SerializerT &gt;</title>
<polygon fill="white" stroke="none" points="-4,4 -4,-180 155,-180 155,4 -4,4"/>
<!-- Node0 -->
<g id="node1" class="node"><title>Node0</title>
<polygon fill="#bfbfbf" stroke="black" points="6.5,-0.5 6.5,-41.5 144.5,-41.5 144.5,-0.5 6.5,-0.5"/>
<text text-anchor="start" x="14.5" y="-29.5" font-family="Helvetica,sans-Serif" font-size="10.00">Leosac::Module::LedBuzzer</text>
<text text-anchor="start" x="14.5" y="-18.5" font-family="Helvetica,sans-Serif" font-size="10.00">::CRUDHandler&lt; ObjectT,</text>
<text text-anchor="middle" x="75.5" y="-7.5" font-family="Helvetica,sans-Serif" font-size="10.00"> ObjectIdKey, SerializerT &gt;</text>
</g>
<!-- Node1 -->
<g id="node2" class="node"><title>Node1</title>
<g id="a_node2"><a xlink:href="../../da/dc2/classLeosac_1_1Module_1_1WebSockAPI_1_1CRUDResourceHandler.html" target="_top" xlink:title="Base CRUD handler for use within the websocket module. ">
<polygon fill="white" stroke="black" points="0,-78.5 0,-108.5 151,-108.5 151,-78.5 0,-78.5"/>
<text text-anchor="start" x="8" y="-96.5" font-family="Helvetica,sans-Serif" font-size="10.00">Leosac::Module::WebSockAPI</text>
<text text-anchor="middle" x="75.5" y="-85.5" font-family="Helvetica,sans-Serif" font-size="10.00">::CRUDResourceHandler</text>
</a>
</g>
</g>
<!-- Node1&#45;&gt;Node0 -->
<g id="edge1" class="edge"><title>Node1&#45;&gt;Node0</title>
<path fill="none" stroke="midnightblue" d="M75.5,-67.9815C75.5,-59.3468 75.5,-49.7625 75.5,-41.5884"/>
<polygon fill="midnightblue" stroke="midnightblue" points="72.0001,-68.2332 75.5,-78.2333 79.0001,-68.2333 72.0001,-68.2332"/>
</g>
<!-- Node2 -->
<g id="node3" class="node"><title>Node2</title>
<g id="a_node3"><a xlink:href="../../d3/dd9/classLeosac_1_1Module_1_1WebSockAPI_1_1ICRUDResourceHandler.html" target="_top" xlink:title="A common interface for CRUD handler. ">
<polygon fill="white" stroke="black" points="0,-145.5 0,-175.5 151,-175.5 151,-145.5 0,-145.5"/>
<text text-anchor="start" x="8" y="-163.5" font-family="Helvetica,sans-Serif" font-size="10.00">Leosac::Module::WebSockAPI</text>
<text text-anchor="middle" x="75.5" y="-152.5" font-family="Helvetica,sans-Serif" font-size="10.00">::ICRUDResourceHandler</text>
</a>
</g>
</g>
<!-- Node2&#45;&gt;Node1 -->
<g id="edge2" class="edge"><title>Node2&#45;&gt;Node1</title>
<path fill="none" stroke="midnightblue" d="M75.5,-135.108C75.5,-126.154 75.5,-116.323 75.5,-108.577"/>
<polygon fill="midnightblue" stroke="midnightblue" points="72.0001,-135.396 75.5,-145.396 79.0001,-135.396 72.0001,-135.396"/>
</g>
</g>
</svg>
