<?xml version="1.0" encoding="UTF-8" standalone="no"?>
<!DOCTYPE svg PUBLIC "-//W3C//DTD SVG 1.1//EN"
 "http://www.w3.org/Graphics/SVG/1.1/DTD/svg11.dtd">
<!-- Generated by graphviz version 2.38.0 (20140413.2041)
 -->
<!-- Title: Leosac::Module::Wiegand::Strategy::CardReading Pages: 1 -->
<svg width="178pt" height="173pt"
 viewBox="0.00 0.00 178.00 173.00" xmlns="http://www.w3.org/2000/svg" xmlns:xlink="http://www.w3.org/1999/xlink">
<g id="graph0" class="graph" transform="scale(1 1) rotate(0) translate(4 169)">
<title>Leosac::Module::Wiegand::Strategy::CardReading</title>
<polygon fill="white" stroke="none" points="-4,4 -4,-169 174,-169 174,4 -4,4"/>
<!-- Node0 -->
<g id="node1" class="node"><title>Node0</title>
<polygon fill="#bfbfbf" stroke="black" points="20,-67.5 20,-97.5 150,-97.5 150,-67.5 20,-67.5"/>
<text text-anchor="start" x="28" y="-85.5" font-family="Helvetica,sans-Serif" font-size="10.00">Leosac::Module::Wiegand</text>
<text text-anchor="middle" x="85" y="-74.5" font-family="Helvetica,sans-Serif" font-size="10.00">::Strategy::CardReading</text>
</g>
<!-- Node2 -->
<g id="node3" class="node"><title>Node2</title>
<g id="a_node3"><a xlink:href="../../db/d15/classLeosac_1_1Module_1_1Wiegand_1_1Strategy_1_1SimpleWiegandStrategy.html" target="_top" xlink:title="Implementation of a wiegand card only strategy. ">
<polygon fill="white" stroke="black" points="0,-0.5 0,-30.5 170,-30.5 170,-0.5 0,-0.5"/>
<text text-anchor="start" x="8" y="-18.5" font-family="Helvetica,sans-Serif" font-size="10.00">Leosac::Module::Wiegand</text>
<text text-anchor="middle" x="85" y="-7.5" font-family="Helvetica,sans-Serif" font-size="10.00">::Strategy::SimpleWiegandStrategy</text>
</a>
</g>
</g>
<!-- Node0&#45;&gt;Node2 -->
<g id="edge2" class="edge"><title>Node0&#45;&gt;Node2</title>
<path fill="none" stroke="midnightblue" d="M85,-57.1081C85,-48.1539 85,-38.3227 85,-30.5765"/>
<polygon fill="midnightblue" stroke="midnightblue" points="81.5001,-57.3959 85,-67.396 88.5001,-57.396 81.5001,-57.3959"/>
</g>
<!-- Node1 -->
<g id="node2" class="node"><title>Node1</title>
<g id="a_node2"><a xlink:href="../../d5/d39/classLeosac_1_1Module_1_1Wiegand_1_1Strategy_1_1WiegandStrategy.html" target="_top" xlink:title="The multiple modes available to wiegand reader are implemented through the strategy pattern...">
<polygon fill="white" stroke="black" points="15,-134.5 15,-164.5 155,-164.5 155,-134.5 15,-134.5"/>
<text text-anchor="start" x="23" y="-152.5" font-family="Helvetica,sans-Serif" font-size="10.00">Leosac::Module::Wiegand</text>
<text text-anchor="middle" x="85" y="-141.5" font-family="Helvetica,sans-Serif" font-size="10.00">::Strategy::WiegandStrategy</text>
</a>
</g>
</g>
<!-- Node1&#45;&gt;Node0 -->
<g id="edge1" class="edge"><title>Node1&#45;&gt;Node0</title>
<path fill="none" stroke="midnightblue" d="M85,-124.108C85,-115.154 85,-105.323 85,-97.5765"/>
<polygon fill="midnightblue" stroke="midnightblue" points="81.5001,-124.396 85,-134.396 88.5001,-124.396 81.5001,-124.396"/>
</g>
</g>
</svg>
