<?xml version="1.0" encoding="UTF-8" standalone="no"?>
<!DOCTYPE svg PUBLIC "-//W3C//DTD SVG 1.1//EN"
 "http://www.w3.org/Graphics/SVG/1.1/DTD/svg11.dtd">
<!-- Generated by graphviz version 2.38.0 (20140413.2041)
 -->
<!-- Title: src/core/audit/serializers/UserGroupMembershipEventSerializer.cpp Pages: 1 -->
<!--zoomable 352 -->
<svg id="main" version="1.1" xmlns="http://www.w3.org/2000/svg" xmlns:xlink="http://www.w3.org/1999/xlink" xml:space="preserve" onload="init(evt)">
<style type="text/css"><![CDATA[
.edge:hover path { stroke: red; }
.edge:hover polygon { stroke: red; fill: red; }
]]></style>
<script type="text/javascript"><![CDATA[
var edges = document.getElementsByTagName('g');
if (edges && edges.length) {
  for (var i=0;i<edges.length;i++) {
    if (edges[i].id.substr(0,4)=='edge') {
      edges[i].setAttribute('class','edge');
    }
  }
}
]]></script>
        <defs>
                <circle id="rim" cx="0" cy="0" r="7"/>
                <circle id="rim2" cx="0" cy="0" r="3.5"/>
                <g id="zoomPlus">
                        <use xlink:href="#rim" fill="#404040">
                                <set attributeName="fill" to="#808080" begin="zoomplus.mouseover" end="zoomplus.mouseout"/>
                        </use>
                        <path d="M-4,0h8M0,-4v8" fill="none" stroke="white" stroke-width="1.5" pointer-events="none"/>
                </g>
                <g id="zoomMin">
                        <use xlink:href="#rim" fill="#404040">
                                <set attributeName="fill" to="#808080" begin="zoomminus.mouseover" end="zoomminus.mouseout"/>
                        </use>
                        <path d="M-4,0h8" fill="none" stroke="white" stroke-width="1.5" pointer-events="none"/>
                </g>
                <g id="dirArrow">
                        <path fill="none" stroke="white" stroke-width="1.5" d="M0,-3.0v7 M-2.5,-0.5L0,-3.0L2.5,-0.5"/>
                </g>
               <g id="resetDef">
                       <use xlink:href="#rim2" fill="#404040">
                               <set attributeName="fill" to="#808080" begin="reset.mouseover" end="reset.mouseout"/>
                       </use>
               </g>
        </defs>

<script type="text/javascript">
var viewWidth = 1904;
var viewHeight = 352;
var sectionId = 'dynsection-0';
</script>
<script xlink:href="../../svgpan.js"/>
<svg id="graph" class="graph">
<g id="viewport">
<title>src/core/audit/serializers/UserGroupMembershipEventSerializer.cpp</title>
<polygon fill="white" stroke="none" points="-4,4 -4,-348 1900,-348 1900,4 -4,4"/>
<!-- Node0 -->
<g id="node1" class="node"><title>Node0</title>
<polygon fill="#bfbfbf" stroke="black" points="1226.5,-313.5 1226.5,-343.5 1431.5,-343.5 1431.5,-313.5 1226.5,-313.5"/>
<text text-anchor="start" x="1234.5" y="-331.5" font-family="Helvetica,sans-Serif" font-size="10.00">src/core/audit/serializers</text>
<text text-anchor="middle" x="1329" y="-320.5" font-family="Helvetica,sans-Serif" font-size="10.00">/UserGroupMembershipEventSerializer.cpp</text>
</g>
<!-- Node1 -->
<g id="node2" class="node"><title>Node1</title>
<g id="a_node2"><a xlink:href="../../de/dc4/UserGroupMembershipEventSerializer_8hpp.html" target="_top" xlink:title="UserGroupMembershipEvent\lSerializer.hpp">
<polygon fill="white" stroke="black" points="1396.5,-179.5 1396.5,-209.5 1539.5,-209.5 1539.5,-179.5 1396.5,-179.5"/>
<text text-anchor="start" x="1404.5" y="-197.5" font-family="Helvetica,sans-Serif" font-size="10.00">UserGroupMembershipEvent</text>
<text text-anchor="middle" x="1468" y="-186.5" font-family="Helvetica,sans-Serif" font-size="10.00">Serializer.hpp</text>
</a>
</g>
</g>
<!-- Node0&#45;&gt;Node1 -->
<g id="edge1" class="edge"><title>Node0&#45;&gt;Node1</title>
<path fill="none" stroke="midnightblue" d="M1343.88,-313.374C1368.33,-290.151 1417.16,-243.781 1445.74,-216.636"/>
<polygon fill="midnightblue" stroke="midnightblue" points="1448.39,-218.949 1453.23,-209.525 1443.57,-213.873 1448.39,-218.949"/>
</g>
<!-- Node11 -->
<g id="node12" class="node"><title>Node11</title>
<g id="a_node12"><a xlink:href="../../df/da3/AuditSerializer_8hpp.html" target="_top" xlink:title="AuditSerializer.hpp">
<polygon fill="white" stroke="black" points="1280,-185 1280,-204 1378,-204 1378,-185 1280,-185"/>
<text text-anchor="middle" x="1329" y="-192" font-family="Helvetica,sans-Serif" font-size="10.00">AuditSerializer.hpp</text>
</a>
</g>
</g>
<!-- Node0&#45;&gt;Node11 -->
<g id="edge12" class="edge"><title>Node0&#45;&gt;Node11</title>
<path fill="none" stroke="midnightblue" d="M1329,-313.374C1329,-289.504 1329,-241.181 1329,-214.415"/>
<polygon fill="midnightblue" stroke="midnightblue" points="1332.5,-214.097 1329,-204.097 1325.5,-214.097 1332.5,-214.097"/>
</g>
<!-- Node12 -->
<g id="node13" class="node"><title>Node12</title>
<g id="a_node13"><a xlink:href="../../d1/d3e/SecurityContext_8hpp.html" target="_top" xlink:title="core/SecurityContext.hpp">
<polygon fill="white" stroke="black" points="621,-185 621,-204 749,-204 749,-185 621,-185"/>
<text text-anchor="middle" x="685" y="-192" font-family="Helvetica,sans-Serif" font-size="10.00">core/SecurityContext.hpp</text>
</a>
</g>
</g>
<!-- Node0&#45;&gt;Node12 -->
<g id="edge17" class="edge"><title>Node0&#45;&gt;Node12</title>
<path fill="none" stroke="midnightblue" d="M1226.16,-322.991C1137.17,-317.335 1005.59,-304.746 894,-277 826.057,-260.107 750.477,-226.751 711.488,-208.383"/>
<polygon fill="midnightblue" stroke="midnightblue" points="712.925,-205.191 702.391,-204.056 709.918,-211.512 712.925,-205.191"/>
</g>
<!-- Node24 -->
<g id="node25" class="node"><title>Node24</title>
<g id="a_node25"><a xlink:href="../../d5/dfd/IUserGroupMembershipEvent_8hpp.html" target="_top" xlink:title="core/audit/IUserGroupMembership\lEvent.hpp">
<polygon fill="white" stroke="black" points="903,-246.5 903,-276.5 1069,-276.5 1069,-246.5 903,-246.5"/>
<text text-anchor="start" x="911" y="-264.5" font-family="Helvetica,sans-Serif" font-size="10.00">core/audit/IUserGroupMembership</text>
<text text-anchor="middle" x="986" y="-253.5" font-family="Helvetica,sans-Serif" font-size="10.00">Event.hpp</text>
</a>
</g>
</g>
<!-- Node0&#45;&gt;Node24 -->
<g id="edge39" class="edge"><title>Node0&#45;&gt;Node24</title>
<path fill="none" stroke="midnightblue" d="M1255,-313.476C1200.65,-303.178 1126.76,-289.174 1070.16,-278.45"/>
<polygon fill="midnightblue" stroke="midnightblue" points="1070.64,-274.978 1060.17,-276.555 1069.34,-281.856 1070.64,-274.978"/>
</g>
<!-- Node31 -->
<g id="node32" class="node"><title>Node31</title>
<g id="a_node32"><a xlink:href="../../d4/d3d/log_8hpp.html" target="_top" xlink:title="tools/log.hpp">
<polygon fill="white" stroke="black" points="1590,-118 1590,-137 1662,-137 1662,-118 1590,-118"/>
<text text-anchor="middle" x="1626" y="-125" font-family="Helvetica,sans-Serif" font-size="10.00">tools/log.hpp</text>
</a>
</g>
</g>
<!-- Node0&#45;&gt;Node31 -->
<g id="edge50" class="edge"><title>Node0&#45;&gt;Node31</title>
<path fill="none" stroke="midnightblue" d="M1362.84,-313.377C1407.62,-293.821 1487.88,-255.69 1548,-210 1573.36,-190.725 1597.98,-163.044 1612.57,-145.419"/>
<polygon fill="midnightblue" stroke="midnightblue" points="1615.64,-147.185 1619.23,-137.217 1610.21,-142.772 1615.64,-147.185"/>
</g>
<!-- Node2 -->
<g id="node3" class="node"><title>Node2</title>
<g id="a_node3"><a xlink:href="../../dc/d49/LeosacFwd_8hpp.html" target="_top" xlink:title="LeosacFwd.hpp">
<polygon fill="white" stroke="black" points="1357,-118 1357,-137 1443,-137 1443,-118 1357,-118"/>
<text text-anchor="middle" x="1400" y="-125" font-family="Helvetica,sans-Serif" font-size="10.00">LeosacFwd.hpp</text>
</a>
</g>
</g>
<!-- Node1&#45;&gt;Node2 -->
<g id="edge2" class="edge"><title>Node1&#45;&gt;Node2</title>
<path fill="none" stroke="midnightblue" d="M1453.25,-179.396C1442.43,-169.06 1427.75,-155.024 1416.54,-144.309"/>
<polygon fill="midnightblue" stroke="midnightblue" points="1418.74,-141.574 1409.1,-137.195 1413.91,-146.634 1418.74,-141.574"/>
</g>
<!-- Node5 -->
<g id="node6" class="node"><title>Node5</title>
<g id="a_node6"><a xlink:href="../../d7/dcf/AuditFwd_8hpp.html" target="_top" xlink:title="core/audit/AuditFwd.hpp">
<polygon fill="white" stroke="black" points="1061,-118 1061,-137 1183,-137 1183,-118 1061,-118"/>
<text text-anchor="middle" x="1122" y="-125" font-family="Helvetica,sans-Serif" font-size="10.00">core/audit/AuditFwd.hpp</text>
</a>
</g>
</g>
<!-- Node1&#45;&gt;Node5 -->
<g id="edge5" class="edge"><title>Node1&#45;&gt;Node5</title>
<path fill="none" stroke="midnightblue" d="M1396.49,-180.611C1328.19,-168.266 1230.19,-150.448 1192,-143 1185.68,-141.768 1179.06,-140.441 1172.5,-139.107"/>
<polygon fill="midnightblue" stroke="midnightblue" points="1172.81,-135.598 1162.32,-137.018 1171.41,-142.456 1172.81,-135.598"/>
</g>
<!-- Node9 -->
<g id="node10" class="node"><title>Node9</title>
<polygon fill="white" stroke="#bfbfbf" points="1461.5,-118 1461.5,-137 1514.5,-137 1514.5,-118 1461.5,-118"/>
<text text-anchor="middle" x="1488" y="-125" font-family="Helvetica,sans-Serif" font-size="10.00">json.hpp</text>
</g>
<!-- Node1&#45;&gt;Node9 -->
<g id="edge10" class="edge"><title>Node1&#45;&gt;Node9</title>
<path fill="none" stroke="midnightblue" d="M1472.34,-179.396C1475.27,-169.863 1479.17,-157.182 1482.35,-146.862"/>
<polygon fill="midnightblue" stroke="midnightblue" points="1485.73,-147.782 1485.32,-137.195 1479.04,-145.723 1485.73,-147.782"/>
</g>
<!-- Node10 -->
<g id="node11" class="node"><title>Node10</title>
<polygon fill="white" stroke="#bfbfbf" points="1402.5,-0.5 1402.5,-19.5 1443.5,-19.5 1443.5,-0.5 1402.5,-0.5"/>
<text text-anchor="middle" x="1423" y="-7.5" font-family="Helvetica,sans-Serif" font-size="10.00">string</text>
</g>
<!-- Node1&#45;&gt;Node10 -->
<g id="edge11" class="edge"><title>Node1&#45;&gt;Node10</title>
<path fill="none" stroke="midnightblue" d="M1490.78,-179.436C1502.79,-170.619 1516.38,-158.072 1523,-143 1538.73,-107.207 1533.99,-86.8669 1510,-56 1495.93,-37.9051 1472.56,-26.3904 1453.59,-19.5426"/>
<polygon fill="midnightblue" stroke="midnightblue" points="1454.45,-16.1419 1443.86,-16.2917 1452.23,-22.781 1454.45,-16.1419"/>
</g>
<!-- Node3 -->
<g id="node4" class="node"><title>Node3</title>
<polygon fill="white" stroke="#bfbfbf" points="788,-56.5 788,-75.5 840,-75.5 840,-56.5 788,-56.5"/>
<text text-anchor="middle" x="814" y="-63.5" font-family="Helvetica,sans-Serif" font-size="10.00">memory</text>
</g>
<!-- Node2&#45;&gt;Node3 -->
<g id="edge3" class="edge"><title>Node2&#45;&gt;Node3</title>
<path fill="none" stroke="midnightblue" d="M1356.6,-118.885C1341.84,-116.461 1325.23,-113.916 1310,-112 1220.71,-100.77 948.674,-78.0491 850.129,-69.9501"/>
<polygon fill="midnightblue" stroke="midnightblue" points="850.318,-66.4539 840.065,-69.1243 849.745,-73.4305 850.318,-66.4539"/>
</g>
<!-- Node4 -->
<g id="node5" class="node"><title>Node4</title>
<polygon fill="white" stroke="#bfbfbf" points="1378,-56.5 1378,-75.5 1422,-75.5 1422,-56.5 1378,-56.5"/>
<text text-anchor="middle" x="1400" y="-63.5" font-family="Helvetica,sans-Serif" font-size="10.00">vector</text>
</g>
<!-- Node2&#45;&gt;Node4 -->
<g id="edge4" class="edge"><title>Node2&#45;&gt;Node4</title>
<path fill="none" stroke="midnightblue" d="M1400,-117.975C1400,-109.58 1400,-96.4806 1400,-85.6631"/>
<polygon fill="midnightblue" stroke="midnightblue" points="1403.5,-85.5091 1400,-75.5091 1396.5,-85.5091 1403.5,-85.5091"/>
</g>
<!-- Node5&#45;&gt;Node3 -->
<g id="edge8" class="edge"><title>Node5&#45;&gt;Node3</title>
<path fill="none" stroke="midnightblue" d="M1080.72,-117.97C1070.98,-115.984 1060.63,-113.897 1051,-112 979.945,-97.9993 896.746,-82.3808 850.23,-73.7182"/>
<polygon fill="midnightblue" stroke="midnightblue" points="850.798,-70.2638 840.326,-71.8758 849.517,-77.1458 850.798,-70.2638"/>
</g>
<!-- Node6 -->
<g id="node7" class="node"><title>Node6</title>
<polygon fill="white" stroke="#bfbfbf" points="940.5,-56.5 940.5,-75.5 989.5,-75.5 989.5,-56.5 940.5,-56.5"/>
<text text-anchor="middle" x="965" y="-63.5" font-family="Helvetica,sans-Serif" font-size="10.00">cstddef</text>
</g>
<!-- Node5&#45;&gt;Node6 -->
<g id="edge6" class="edge"><title>Node5&#45;&gt;Node6</title>
<path fill="none" stroke="midnightblue" d="M1099.51,-117.975C1072.69,-107.813 1027.68,-90.7564 997.191,-79.1996"/>
<polygon fill="midnightblue" stroke="midnightblue" points="998.044,-75.7801 987.453,-75.5091 995.563,-82.3258 998.044,-75.7801"/>
</g>
<!-- Node7 -->
<g id="node8" class="node"><title>Node7</title>
<polygon fill="white" stroke="#bfbfbf" points="1089.5,-56.5 1089.5,-75.5 1154.5,-75.5 1154.5,-56.5 1089.5,-56.5"/>
<text text-anchor="middle" x="1122" y="-63.5" font-family="Helvetica,sans-Serif" font-size="10.00">flagset.hpp</text>
</g>
<!-- Node5&#45;&gt;Node7 -->
<g id="edge7" class="edge"><title>Node5&#45;&gt;Node7</title>
<path fill="none" stroke="midnightblue" d="M1122,-117.975C1122,-109.58 1122,-96.4806 1122,-85.6631"/>
<polygon fill="midnightblue" stroke="midnightblue" points="1125.5,-85.5091 1122,-75.5091 1118.5,-85.5091 1125.5,-85.5091"/>
</g>
<!-- Node8 -->
<g id="node9" class="node"><title>Node8</title>
<polygon fill="white" stroke="#bfbfbf" points="596,-56.5 596,-75.5 682,-75.5 682,-56.5 596,-56.5"/>
<text text-anchor="middle" x="639" y="-63.5" font-family="Helvetica,sans-Serif" font-size="10.00">odb/lazy&#45;ptr.hxx</text>
</g>
<!-- Node5&#45;&gt;Node8 -->
<g id="edge9" class="edge"><title>Node5&#45;&gt;Node8</title>
<path fill="none" stroke="midnightblue" d="M1083.43,-117.946C1072.94,-115.806 1061.57,-113.652 1051,-112 922.925,-91.9716 771.065,-77.8462 692.33,-71.2347"/>
<polygon fill="midnightblue" stroke="midnightblue" points="692.431,-67.7312 682.176,-70.3898 691.851,-74.7071 692.431,-67.7312"/>
</g>
<!-- Node11&#45;&gt;Node2 -->
<g id="edge13" class="edge"><title>Node11&#45;&gt;Node2</title>
<path fill="none" stroke="midnightblue" d="M1338.58,-184.734C1349.97,-174.305 1369.19,-156.709 1383.1,-143.973"/>
<polygon fill="midnightblue" stroke="midnightblue" points="1385.56,-146.461 1390.58,-137.127 1380.84,-141.298 1385.56,-146.461"/>
</g>
<!-- Node11&#45;&gt;Node5 -->
<g id="edge14" class="edge"><title>Node11&#45;&gt;Node5</title>
<path fill="none" stroke="midnightblue" d="M1301.51,-184.869C1264.83,-173.351 1199.77,-152.922 1158.87,-140.077"/>
<polygon fill="midnightblue" stroke="midnightblue" points="1159.86,-136.72 1149.27,-137.064 1157.76,-143.399 1159.86,-136.72"/>
</g>
<!-- Node11&#45;&gt;Node9 -->
<g id="edge15" class="edge"><title>Node11&#45;&gt;Node9</title>
<path fill="none" stroke="midnightblue" d="M1350.11,-184.869C1377.63,-173.619 1425.95,-153.867 1457.46,-140.985"/>
<polygon fill="midnightblue" stroke="midnightblue" points="1459.12,-144.088 1467.05,-137.064 1456.47,-137.608 1459.12,-144.088"/>
</g>
<!-- Node11&#45;&gt;Node10 -->
<g id="edge16" class="edge"><title>Node11&#45;&gt;Node10</title>
<path fill="none" stroke="midnightblue" d="M1329.56,-184.928C1331.44,-161.964 1339.21,-97.9614 1369,-56 1377.47,-44.0656 1389.86,-33.4365 1400.63,-25.5092"/>
<polygon fill="midnightblue" stroke="midnightblue" points="1402.65,-28.3695 1408.82,-19.7575 1398.63,-22.6414 1402.65,-28.3695"/>
</g>
<!-- Node12&#45;&gt;Node5 -->
<g id="edge18" class="edge"><title>Node12&#45;&gt;Node5</title>
<path fill="none" stroke="midnightblue" d="M749.324,-185.896C822.571,-176.943 945.727,-160.993 1051,-143 1058.08,-141.791 1065.53,-140.4 1072.83,-138.969"/>
<polygon fill="midnightblue" stroke="midnightblue" points="1073.53,-142.398 1082.65,-137.005 1072.16,-135.533 1073.53,-142.398"/>
</g>
<!-- Node13 -->
<g id="node14" class="node"><title>Node13</title>
<g id="a_node14"><a xlink:href="../../d3/d6f/AuthFwd_8hpp.html" target="_top" xlink:title="core/auth/AuthFwd.hpp">
<polygon fill="white" stroke="black" points="755,-118 755,-137 873,-137 873,-118 755,-118"/>
<text text-anchor="middle" x="814" y="-125" font-family="Helvetica,sans-Serif" font-size="10.00">core/auth/AuthFwd.hpp</text>
</a>
</g>
</g>
<!-- Node12&#45;&gt;Node13 -->
<g id="edge19" class="edge"><title>Node12&#45;&gt;Node13</title>
<path fill="none" stroke="midnightblue" d="M702.13,-184.869C724.008,-173.845 762.092,-154.655 787.669,-141.768"/>
<polygon fill="midnightblue" stroke="midnightblue" points="789.444,-144.793 796.799,-137.167 786.294,-138.541 789.444,-144.793"/>
</g>
<!-- Node14 -->
<g id="node15" class="node"><title>Node14</title>
<g id="a_node15"><a xlink:href="../../d7/d7f/CredentialFwd_8hpp.html" target="_top" xlink:title="core/credentials/Credential\lFwd.hpp">
<polygon fill="white" stroke="black" points="481.5,-112.5 481.5,-142.5 614.5,-142.5 614.5,-112.5 481.5,-112.5"/>
<text text-anchor="start" x="489.5" y="-130.5" font-family="Helvetica,sans-Serif" font-size="10.00">core/credentials/Credential</text>
<text text-anchor="middle" x="548" y="-119.5" font-family="Helvetica,sans-Serif" font-size="10.00">Fwd.hpp</text>
</a>
</g>
</g>
<!-- Node12&#45;&gt;Node14 -->
<g id="edge23" class="edge"><title>Node12&#45;&gt;Node14</title>
<path fill="none" stroke="midnightblue" d="M666.807,-184.869C646.517,-175.242 613.102,-159.388 586.869,-146.942"/>
<polygon fill="midnightblue" stroke="midnightblue" points="588.102,-143.653 577.567,-142.528 585.101,-149.977 588.102,-143.653"/>
</g>
<!-- Node15 -->
<g id="node16" class="node"><title>Node15</title>
<g id="a_node16"><a xlink:href="../../d9/dc8/HardwareFwd_8hpp.html" target="_top" xlink:title="hardware/HardwareFwd.hpp">
<polygon fill="white" stroke="black" points="203.5,-118 203.5,-137 342.5,-137 342.5,-118 203.5,-118"/>
<text text-anchor="middle" x="273" y="-125" font-family="Helvetica,sans-Serif" font-size="10.00">hardware/HardwareFwd.hpp</text>
</a>
</g>
</g>
<!-- Node12&#45;&gt;Node15 -->
<g id="edge26" class="edge"><title>Node12&#45;&gt;Node15</title>
<path fill="none" stroke="midnightblue" d="M625.057,-184.981C558.32,-175.363 447.299,-158.968 352,-143 344.264,-141.704 336.114,-140.277 328.104,-138.84"/>
<polygon fill="midnightblue" stroke="midnightblue" points="328.54,-135.362 318.077,-137.023 327.292,-142.25 328.54,-135.362"/>
</g>
<!-- Node22 -->
<g id="node23" class="node"><title>Node22</title>
<g id="a_node23"><a xlink:href="../../d8/d97/ToolsFwd_8hpp.html" target="_top" xlink:title="tools/ToolsFwd.hpp">
<polygon fill="white" stroke="black" points="361,-118 361,-137 463,-137 463,-118 361,-118"/>
<text text-anchor="middle" x="412" y="-125" font-family="Helvetica,sans-Serif" font-size="10.00">tools/ToolsFwd.hpp</text>
</a>
</g>
</g>
<!-- Node12&#45;&gt;Node22 -->
<g id="edge34" class="edge"><title>Node12&#45;&gt;Node22</title>
<path fill="none" stroke="midnightblue" d="M648.808,-184.97C606.42,-174.967 534.093,-157.864 472,-143 467.235,-141.859 462.259,-140.664 457.298,-139.469"/>
<polygon fill="midnightblue" stroke="midnightblue" points="457.752,-135.978 447.21,-137.036 456.111,-142.783 457.752,-135.978"/>
</g>
<!-- Node23 -->
<g id="node24" class="node"><title>Node23</title>
<g id="a_node24"><a xlink:href="../../d9/d69/db__fwd_8hpp.html" target="_top" xlink:title="tools/db/db_fwd.hpp">
<polygon fill="white" stroke="black" points="633,-118 633,-137 737,-137 737,-118 633,-118"/>
<text text-anchor="middle" x="685" y="-125" font-family="Helvetica,sans-Serif" font-size="10.00">tools/db/db_fwd.hpp</text>
</a>
</g>
</g>
<!-- Node12&#45;&gt;Node23 -->
<g id="edge37" class="edge"><title>Node12&#45;&gt;Node23</title>
<path fill="none" stroke="midnightblue" d="M685,-184.734C685,-175.183 685,-159.618 685,-147.283"/>
<polygon fill="midnightblue" stroke="midnightblue" points="688.5,-147.127 685,-137.127 681.5,-147.127 688.5,-147.127"/>
</g>
<!-- Node13&#45;&gt;Node3 -->
<g id="edge21" class="edge"><title>Node13&#45;&gt;Node3</title>
<path fill="none" stroke="midnightblue" d="M814,-117.975C814,-109.58 814,-96.4806 814,-85.6631"/>
<polygon fill="midnightblue" stroke="midnightblue" points="817.5,-85.5091 814,-75.5091 810.5,-85.5091 817.5,-85.5091"/>
</g>
<!-- Node13&#45;&gt;Node6 -->
<g id="edge20" class="edge"><title>Node13&#45;&gt;Node6</title>
<path fill="none" stroke="midnightblue" d="M835.635,-117.975C861.424,-107.813 904.711,-90.7564 934.04,-79.1996"/>
<polygon fill="midnightblue" stroke="midnightblue" points="935.385,-82.4315 943.406,-75.5091 932.819,-75.9189 935.385,-82.4315"/>
</g>
<!-- Node13&#45;&gt;Node8 -->
<g id="edge22" class="edge"><title>Node13&#45;&gt;Node8</title>
<path fill="none" stroke="midnightblue" d="M788.927,-117.975C758.648,-107.68 707.56,-90.3103 673.559,-78.7502"/>
<polygon fill="midnightblue" stroke="midnightblue" points="674.621,-75.4145 664.027,-75.5091 672.368,-82.0419 674.621,-75.4145"/>
</g>
<!-- Node14&#45;&gt;Node3 -->
<g id="edge24" class="edge"><title>Node14&#45;&gt;Node3</title>
<path fill="none" stroke="midnightblue" d="M610.701,-112.475C662.777,-100.826 735.032,-84.664 777.905,-75.0739"/>
<polygon fill="midnightblue" stroke="midnightblue" points="778.888,-78.4406 787.883,-72.842 777.36,-71.6094 778.888,-78.4406"/>
</g>
<!-- Node14&#45;&gt;Node8 -->
<g id="edge25" class="edge"><title>Node14&#45;&gt;Node8</title>
<path fill="none" stroke="midnightblue" d="M569.566,-112.399C583.88,-103.04 602.612,-90.7924 617.011,-81.3771"/>
<polygon fill="midnightblue" stroke="midnightblue" points="619.304,-84.0597 625.759,-75.6578 615.474,-78.2009 619.304,-84.0597"/>
</g>
<!-- Node16 -->
<g id="node17" class="node"><title>Node16</title>
<g id="a_node17"><a xlink:href="../../dc/dea/Uuid_8hpp.html" target="_top" xlink:title="tools/Uuid.hpp">
<polygon fill="white" stroke="black" points="322,-56.5 322,-75.5 402,-75.5 402,-56.5 322,-56.5"/>
<text text-anchor="middle" x="362" y="-63.5" font-family="Helvetica,sans-Serif" font-size="10.00">tools/Uuid.hpp</text>
</a>
</g>
</g>
<!-- Node15&#45;&gt;Node16 -->
<g id="edge27" class="edge"><title>Node15&#45;&gt;Node16</title>
<path fill="none" stroke="midnightblue" d="M285.752,-117.975C300.027,-108.431 323.397,-92.8073 340.508,-81.3683"/>
<polygon fill="midnightblue" stroke="midnightblue" points="342.904,-83.9766 349.272,-75.5091 339.014,-78.1572 342.904,-83.9766"/>
</g>
<!-- Node16&#45;&gt;Node10 -->
<g id="edge33" class="edge"><title>Node16&#45;&gt;Node10</title>
<path fill="none" stroke="midnightblue" d="M402.308,-63.3312C531.555,-57.9196 947.241,-40.0428 1291,-20 1325.67,-17.9789 1365.42,-15.2064 1392.16,-13.2747"/>
<polygon fill="midnightblue" stroke="midnightblue" points="1392.71,-16.7443 1402.43,-12.5283 1392.2,-9.76272 1392.71,-16.7443"/>
</g>
<!-- Node17 -->
<g id="node18" class="node"><title>Node17</title>
<polygon fill="white" stroke="#bfbfbf" points="0,-0.5 0,-19.5 114,-19.5 114,-0.5 0,-0.5"/>
<text text-anchor="middle" x="57" y="-7.5" font-family="Helvetica,sans-Serif" font-size="10.00">boost/lexical_cast.hpp</text>
</g>
<!-- Node16&#45;&gt;Node17 -->
<g id="edge28" class="edge"><title>Node16&#45;&gt;Node17</title>
<path fill="none" stroke="midnightblue" d="M321.813,-57.8849C268.982,-48.5312 175.795,-32.0326 115.237,-21.3109"/>
<polygon fill="midnightblue" stroke="midnightblue" points="115.526,-17.8076 105.069,-19.5106 114.306,-24.7004 115.526,-17.8076"/>
</g>
<!-- Node18 -->
<g id="node19" class="node"><title>Node18</title>
<polygon fill="white" stroke="#bfbfbf" points="132.5,-0.5 132.5,-19.5 293.5,-19.5 293.5,-0.5 132.5,-0.5"/>
<text text-anchor="middle" x="213" y="-7.5" font-family="Helvetica,sans-Serif" font-size="10.00">boost/uuid/random_generator.hpp</text>
</g>
<!-- Node16&#45;&gt;Node18 -->
<g id="edge29" class="edge"><title>Node16&#45;&gt;Node18</title>
<path fill="none" stroke="midnightblue" d="M338.391,-56.4435C313.542,-47.4381 274.226,-33.1891 246.246,-23.049"/>
<polygon fill="midnightblue" stroke="midnightblue" points="247.093,-19.6332 236.499,-19.5164 244.708,-26.2144 247.093,-19.6332"/>
</g>
<!-- Node19 -->
<g id="node20" class="node"><title>Node19</title>
<polygon fill="white" stroke="#bfbfbf" points="311.5,-0.5 311.5,-19.5 412.5,-19.5 412.5,-0.5 311.5,-0.5"/>
<text text-anchor="middle" x="362" y="-7.5" font-family="Helvetica,sans-Serif" font-size="10.00">boost/uuid/uuid.hpp</text>
</g>
<!-- Node16&#45;&gt;Node19 -->
<g id="edge30" class="edge"><title>Node16&#45;&gt;Node19</title>
<path fill="none" stroke="midnightblue" d="M362,-56.083C362,-49.0059 362,-38.8611 362,-29.9865"/>
<polygon fill="midnightblue" stroke="midnightblue" points="365.5,-29.751 362,-19.7511 358.5,-29.7511 365.5,-29.751"/>
</g>
<!-- Node20 -->
<g id="node21" class="node"><title>Node20</title>
<polygon fill="white" stroke="#bfbfbf" points="431,-0.5 431,-19.5 545,-19.5 545,-0.5 431,-0.5"/>
<text text-anchor="middle" x="488" y="-7.5" font-family="Helvetica,sans-Serif" font-size="10.00">boost/uuid/uuid_io.hpp</text>
</g>
<!-- Node16&#45;&gt;Node20 -->
<g id="edge31" class="edge"><title>Node16&#45;&gt;Node20</title>
<path fill="none" stroke="midnightblue" d="M381.965,-56.4435C402.609,-47.5961 435.063,-33.6875 458.632,-23.5865"/>
<polygon fill="midnightblue" stroke="midnightblue" points="460.316,-26.6727 468.128,-19.5164 457.558,-20.2387 460.316,-26.6727"/>
</g>
<!-- Node21 -->
<g id="node22" class="node"><title>Node21</title>
<polygon fill="white" stroke="#bfbfbf" points="563.5,-0.5 563.5,-19.5 636.5,-19.5 636.5,-0.5 563.5,-0.5"/>
<text text-anchor="middle" x="600" y="-7.5" font-family="Helvetica,sans-Serif" font-size="10.00">odb/core.hxx</text>
</g>
<!-- Node16&#45;&gt;Node21 -->
<g id="edge32" class="edge"><title>Node16&#45;&gt;Node21</title>
<path fill="none" stroke="midnightblue" d="M399.712,-56.4435C441.387,-46.9878 508.541,-31.7511 553.458,-21.56"/>
<polygon fill="midnightblue" stroke="midnightblue" points="554.269,-24.965 563.247,-19.339 552.72,-18.1385 554.269,-24.965"/>
</g>
<!-- Node22&#45;&gt;Node3 -->
<g id="edge35" class="edge"><title>Node22&#45;&gt;Node3</title>
<path fill="none" stroke="midnightblue" d="M444.561,-117.965C453.422,-115.825 463.045,-113.666 472,-112 582.478,-91.4425 714.744,-76.8446 777.501,-70.5146"/>
<polygon fill="midnightblue" stroke="midnightblue" points="778.074,-73.9749 787.678,-69.4995 777.379,-67.0095 778.074,-73.9749"/>
</g>
<!-- Node22&#45;&gt;Node8 -->
<g id="edge36" class="edge"><title>Node22&#45;&gt;Node8</title>
<path fill="none" stroke="midnightblue" d="M444.524,-117.975C484.558,-107.482 552.638,-89.6367 596.702,-78.087"/>
<polygon fill="midnightblue" stroke="midnightblue" points="597.751,-81.4303 606.537,-75.5091 595.976,-74.659 597.751,-81.4303"/>
</g>
<!-- Node23&#45;&gt;Node3 -->
<g id="edge38" class="edge"><title>Node23&#45;&gt;Node3</title>
<path fill="none" stroke="midnightblue" d="M703.483,-117.975C725.132,-107.99 761.213,-91.3476 786.232,-79.8075"/>
<polygon fill="midnightblue" stroke="midnightblue" points="787.937,-82.8757 795.552,-75.5091 785.005,-76.5193 787.937,-82.8757"/>
</g>
<!-- Node24&#45;&gt;Node13 -->
<g id="edge49" class="edge"><title>Node24&#45;&gt;Node13</title>
<path fill="none" stroke="midnightblue" d="M967.593,-246.374C934.817,-221.22 866.655,-168.91 833.27,-143.288"/>
<polygon fill="midnightblue" stroke="midnightblue" points="835.266,-140.409 825.202,-137.097 831.005,-145.962 835.266,-140.409"/>
</g>
<!-- Node25 -->
<g id="node26" class="node"><title>Node25</title>
<g id="a_node26"><a xlink:href="../../d3/dd8/IAuditEntry_8hpp.html" target="_top" xlink:title="IAuditEntry.hpp">
<polygon fill="white" stroke="black" points="944,-185 944,-204 1028,-204 1028,-185 944,-185"/>
<text text-anchor="middle" x="986" y="-192" font-family="Helvetica,sans-Serif" font-size="10.00">IAuditEntry.hpp</text>
</a>
</g>
</g>
<!-- Node24&#45;&gt;Node25 -->
<g id="edge40" class="edge"><title>Node24&#45;&gt;Node25</title>
<path fill="none" stroke="midnightblue" d="M986,-246.396C986,-237.064 986,-224.714 986,-214.517"/>
<polygon fill="midnightblue" stroke="midnightblue" points="989.5,-214.195 986,-204.195 982.5,-214.195 989.5,-214.195"/>
</g>
<!-- Node25&#45;&gt;Node3 -->
<g id="edge48" class="edge"><title>Node25&#45;&gt;Node3</title>
<path fill="none" stroke="midnightblue" d="M974.231,-184.669C960.964,-174.674 938.792,-157.848 920,-143 902.898,-129.487 899.554,-124.919 882,-112 867.178,-101.092 849.874,-89.6578 836.431,-81.0451"/>
<polygon fill="midnightblue" stroke="midnightblue" points="838.137,-77.9823 827.82,-75.5743 834.384,-83.8908 838.137,-77.9823"/>
</g>
<!-- Node25&#45;&gt;Node5 -->
<g id="edge41" class="edge"><title>Node25&#45;&gt;Node5</title>
<path fill="none" stroke="midnightblue" d="M1004.06,-184.869C1027.23,-173.796 1067.63,-154.486 1094.6,-141.598"/>
<polygon fill="midnightblue" stroke="midnightblue" points="1096.35,-144.637 1103.87,-137.167 1093.33,-138.322 1096.35,-144.637"/>
</g>
<!-- Node25&#45;&gt;Node13 -->
<g id="edge42" class="edge"><title>Node25&#45;&gt;Node13</title>
<path fill="none" stroke="midnightblue" d="M963.16,-184.869C933.135,-173.522 880.219,-153.525 846.157,-140.652"/>
<polygon fill="midnightblue" stroke="midnightblue" points="847.252,-137.325 836.661,-137.064 844.778,-143.873 847.252,-137.325"/>
</g>
<!-- Node26 -->
<g id="node27" class="node"><title>Node26</title>
<g id="a_node27"><a xlink:href="../../dd/d9d/IVisitable_8hpp.html" target="_top" xlink:title="tools/IVisitable.hpp">
<polygon fill="white" stroke="black" points="1201,-118 1201,-137 1301,-137 1301,-118 1201,-118"/>
<text text-anchor="middle" x="1251" y="-125" font-family="Helvetica,sans-Serif" font-size="10.00">tools/IVisitable.hpp</text>
</a>
</g>
</g>
<!-- Node25&#45;&gt;Node26 -->
<g id="edge43" class="edge"><title>Node25&#45;&gt;Node26</title>
<path fill="none" stroke="midnightblue" d="M1020.99,-184.928C1061.98,-174.887 1131.92,-157.747 1192,-143 1196.68,-141.85 1201.58,-140.649 1206.45,-139.451"/>
<polygon fill="midnightblue" stroke="midnightblue" points="1207.5,-142.799 1216.37,-137.014 1205.82,-136.001 1207.5,-142.799"/>
</g>
<!-- Node30 -->
<g id="node31" class="node"><title>Node30</title>
<polygon fill="white" stroke="#bfbfbf" points="929.5,-112.5 929.5,-142.5 1042.5,-142.5 1042.5,-112.5 929.5,-112.5"/>
<text text-anchor="start" x="937.5" y="-130.5" font-family="Helvetica,sans-Serif" font-size="10.00">boost/date_time/posix</text>
<text text-anchor="middle" x="986" y="-119.5" font-family="Helvetica,sans-Serif" font-size="10.00">_time/posix_time.hpp</text>
</g>
<!-- Node25&#45;&gt;Node30 -->
<g id="edge47" class="edge"><title>Node25&#45;&gt;Node30</title>
<path fill="none" stroke="midnightblue" d="M986,-184.734C986,-176.541 986,-163.923 986,-152.714"/>
<polygon fill="midnightblue" stroke="midnightblue" points="989.5,-152.589 986,-142.589 982.5,-152.589 989.5,-152.589"/>
</g>
<!-- Node27 -->
<g id="node28" class="node"><title>Node27</title>
<g id="a_node28"><a xlink:href="../../d2/d91/Visitor_8hpp.html" target="_top" xlink:title="tools/Visitor.hpp">
<polygon fill="white" stroke="black" points="1207.5,-56.5 1207.5,-75.5 1294.5,-75.5 1294.5,-56.5 1207.5,-56.5"/>
<text text-anchor="middle" x="1251" y="-63.5" font-family="Helvetica,sans-Serif" font-size="10.00">tools/Visitor.hpp</text>
</a>
</g>
</g>
<!-- Node26&#45;&gt;Node27 -->
<g id="edge44" class="edge"><title>Node26&#45;&gt;Node27</title>
<path fill="none" stroke="midnightblue" d="M1251,-117.975C1251,-109.58 1251,-96.4806 1251,-85.6631"/>
<polygon fill="midnightblue" stroke="midnightblue" points="1254.5,-85.5091 1251,-75.5091 1247.5,-85.5091 1254.5,-85.5091"/>
</g>
<!-- Node29 -->
<g id="node30" class="node"><title>Node29</title>
<polygon fill="white" stroke="#bfbfbf" points="1452.5,-56.5 1452.5,-75.5 1501.5,-75.5 1501.5,-56.5 1452.5,-56.5"/>
<text text-anchor="middle" x="1477" y="-63.5" font-family="Helvetica,sans-Serif" font-size="10.00">cassert</text>
</g>
<!-- Node26&#45;&gt;Node29 -->
<g id="edge46" class="edge"><title>Node26&#45;&gt;Node29</title>
<path fill="none" stroke="midnightblue" d="M1283.38,-117.975C1325.64,-106.849 1399.29,-87.4592 1442.55,-76.0705"/>
<polygon fill="midnightblue" stroke="midnightblue" points="1443.55,-79.4249 1452.33,-73.4941 1441.77,-72.6555 1443.55,-79.4249"/>
</g>
<!-- Node28 -->
<g id="node29" class="node"><title>Node28</title>
<polygon fill="white" stroke="#bfbfbf" points="1220,-0.5 1220,-19.5 1282,-19.5 1282,-0.5 1220,-0.5"/>
<text text-anchor="middle" x="1251" y="-7.5" font-family="Helvetica,sans-Serif" font-size="10.00">type_traits</text>
</g>
<!-- Node27&#45;&gt;Node28 -->
<g id="edge45" class="edge"><title>Node27&#45;&gt;Node28</title>
<path fill="none" stroke="midnightblue" d="M1251,-56.083C1251,-49.0059 1251,-38.8611 1251,-29.9865"/>
<polygon fill="midnightblue" stroke="midnightblue" points="1254.5,-29.751 1251,-19.7511 1247.5,-29.7511 1254.5,-29.751"/>
</g>
<!-- Node31&#45;&gt;Node10 -->
<g id="edge56" class="edge"><title>Node31&#45;&gt;Node10</title>
<path fill="none" stroke="midnightblue" d="M1618.89,-117.928C1606.37,-103.327 1578.95,-73.5174 1550,-56 1519.61,-37.6106 1480.59,-25.2045 1453.87,-18.1535"/>
<polygon fill="midnightblue" stroke="midnightblue" points="1454.48,-14.6979 1443.93,-15.6272 1452.76,-21.4823 1454.48,-14.6979"/>
</g>
<!-- Node31&#45;&gt;Node29 -->
<g id="edge51" class="edge"><title>Node31&#45;&gt;Node29</title>
<path fill="none" stroke="midnightblue" d="M1604.65,-117.975C1579.31,-107.857 1536.86,-90.9046 1507.93,-79.3507"/>
<polygon fill="midnightblue" stroke="midnightblue" points="1508.89,-75.9673 1498.31,-75.5091 1506.3,-82.4681 1508.89,-75.9673"/>
</g>
<!-- Node32 -->
<g id="node33" class="node"><title>Node32</title>
<polygon fill="white" stroke="#bfbfbf" points="1602.5,-56.5 1602.5,-75.5 1649.5,-75.5 1649.5,-56.5 1602.5,-56.5"/>
<text text-anchor="middle" x="1626" y="-63.5" font-family="Helvetica,sans-Serif" font-size="10.00">csignal</text>
</g>
<!-- Node31&#45;&gt;Node32 -->
<g id="edge52" class="edge"><title>Node31&#45;&gt;Node32</title>
<path fill="none" stroke="midnightblue" d="M1626,-117.975C1626,-109.58 1626,-96.4806 1626,-85.6631"/>
<polygon fill="midnightblue" stroke="midnightblue" points="1629.5,-85.5091 1626,-75.5091 1622.5,-85.5091 1629.5,-85.5091"/>
</g>
<!-- Node33 -->
<g id="node34" class="node"><title>Node33</title>
<polygon fill="white" stroke="#bfbfbf" points="1668,-56.5 1668,-75.5 1722,-75.5 1722,-56.5 1668,-56.5"/>
<text text-anchor="middle" x="1695" y="-63.5" font-family="Helvetica,sans-Serif" font-size="10.00">iostream</text>
</g>
<!-- Node31&#45;&gt;Node33 -->
<g id="edge53" class="edge"><title>Node31&#45;&gt;Node33</title>
<path fill="none" stroke="midnightblue" d="M1635.89,-117.975C1646.65,-108.697 1664.07,-93.6706 1677.22,-82.331"/>
<polygon fill="midnightblue" stroke="midnightblue" points="1679.84,-84.6902 1685.13,-75.5091 1675.27,-79.389 1679.84,-84.6902"/>
</g>
<!-- Node34 -->
<g id="node35" class="node"><title>Node34</title>
<polygon fill="white" stroke="#bfbfbf" points="1740.5,-56.5 1740.5,-75.5 1825.5,-75.5 1825.5,-56.5 1740.5,-56.5"/>
<text text-anchor="middle" x="1783" y="-63.5" font-family="Helvetica,sans-Serif" font-size="10.00">spdlog/spdlog.h</text>
</g>
<!-- Node31&#45;&gt;Node34 -->
<g id="edge54" class="edge"><title>Node31&#45;&gt;Node34</title>
<path fill="none" stroke="midnightblue" d="M1648.49,-117.975C1675.31,-107.813 1720.32,-90.7564 1750.81,-79.1996"/>
<polygon fill="midnightblue" stroke="midnightblue" points="1752.44,-82.3258 1760.55,-75.5091 1749.96,-75.7801 1752.44,-82.3258"/>
</g>
<!-- Node35 -->
<g id="node36" class="node"><title>Node35</title>
<polygon fill="white" stroke="#bfbfbf" points="1844,-56.5 1844,-75.5 1896,-75.5 1896,-56.5 1844,-56.5"/>
<text text-anchor="middle" x="1870" y="-63.5" font-family="Helvetica,sans-Serif" font-size="10.00">sstream</text>
</g>
<!-- Node31&#45;&gt;Node35 -->
<g id="edge55" class="edge"><title>Node31&#45;&gt;Node35</title>
<path fill="none" stroke="midnightblue" d="M1661.91,-117.991C1701.63,-108.544 1767.76,-92.7025 1833.88,-76.2536"/>
<polygon fill="midnightblue" stroke="midnightblue" points="1834.78,-79.6375 1843.64,-73.8229 1833.09,-72.8452 1834.78,-79.6375"/>
</g>
</g>
</svg>
        <g id="navigator" transform="translate(0 0)" fill="#404254">
                <rect fill="#f2f5e9" fill-opacity="0.5" stroke="#606060" stroke-width=".5" x="0" y="0" width="60" height="60"/>
                <use id="zoomplus" xlink:href="#zoomPlus" x="17" y="9" onmousedown="handleZoom(evt,'in')"/>
                <use id="zoomminus" xlink:href="#zoomMin" x="42" y="9" onmousedown="handleZoom(evt,'out')"/>
                <use id="reset" xlink:href="#resetDef" x="30" y="36" onmousedown="handleReset()"/>
                <g id="arrowUp" xlink:href="#dirArrow" transform="translate(30 24)" onmousedown="handlePan(0,-1)">
                  <use xlink:href="#rim" fill="#404040">
                        <set attributeName="fill" to="#808080" begin="arrowUp.mouseover" end="arrowUp.mouseout"/>
                  </use>
                  <path fill="none" stroke="white" stroke-width="1.5" d="M0,-3.0v7 M-2.5,-0.5L0,-3.0L2.5,-0.5"/>
                </g>
                <g id="arrowRight" xlink:href="#dirArrow" transform="rotate(90) translate(36 -43)" onmousedown="handlePan(1,0)">
                  <use xlink:href="#rim" fill="#404040">
                        <set attributeName="fill" to="#808080" begin="arrowRight.mouseover" end="arrowRight.mouseout"/>
                  </use>
                  <path fill="none" stroke="white" stroke-width="1.5" d="M0,-3.0v7 M-2.5,-0.5L0,-3.0L2.5,-0.5"/>
                </g>
                <g id="arrowDown" xlink:href="#dirArrow" transform="rotate(180) translate(-30 -48)" onmousedown="handlePan(0,1)">
                  <use xlink:href="#rim" fill="#404040">
                        <set attributeName="fill" to="#808080" begin="arrowDown.mouseover" end="arrowDown.mouseout"/>
                  </use>
                  <path fill="none" stroke="white" stroke-width="1.5" d="M0,-3.0v7 M-2.5,-0.5L0,-3.0L2.5,-0.5"/>
                </g>
                <g id="arrowLeft" xlink:href="#dirArrow" transform="rotate(270) translate(-36 17)" onmousedown="handlePan(-1,0)">
                  <use xlink:href="#rim" fill="#404040">
                        <set attributeName="fill" to="#808080" begin="arrowLeft.mouseover" end="arrowLeft.mouseout"/>
                  </use>
                  <path fill="none" stroke="white" stroke-width="1.5" d="M0,-3.0v7 M-2.5,-0.5L0,-3.0L2.5,-0.5"/>
                </g>
        </g>
        <svg viewBox="0 0 15 15" width="100%" height="30px" preserveAspectRatio="xMaxYMin meet">
         <g id="arrow_out" transform="scale(0.3 0.3)">
          <a xlink:href="UserGroupMembershipEventSerializer_8cpp__incl_org.svg" target="_base">
           <rect id="button" ry="5" rx="5" y="6" x="6" height="38" width="38"
                fill="#f2f5e9" fill-opacity="0.5" stroke="#606060" stroke-width="1.0"/>
           <path id="arrow"
             d="M 11.500037,31.436501 C 11.940474,20.09759 22.043105,11.32322 32.158766,21.979434 L 37.068811,17.246167 C 37.068811,17.246167 37.088388,32 37.088388,32 L 22.160133,31.978069 C 22.160133,31.978069 26.997745,27.140456 26.997745,27.140456 C 18.528582,18.264221 13.291696,25.230495 11.500037,31.436501 z"
             style="fill:#404040;"/>
          </a>
         </g>
        </svg>
</svg>
