<?xml version="1.0" encoding="UTF-8" standalone="no"?>
<!DOCTYPE svg PUBLIC "-//W3C//DTD SVG 1.1//EN"
 "http://www.w3.org/Graphics/SVG/1.1/DTD/svg11.dtd">
<!-- Generated by graphviz version 2.38.0 (20140413.2041)
 -->
<!-- Title: src/hardware/serializers/GPIOSerializer.hpp Pages: 1 -->
<svg width="272pt" height="106pt"
 viewBox="0.00 0.00 271.50 106.00" xmlns="http://www.w3.org/2000/svg" xmlns:xlink="http://www.w3.org/1999/xlink">
<g id="graph0" class="graph" transform="scale(1 1) rotate(0) translate(4 102)">
<title>src/hardware/serializers/GPIOSerializer.hpp</title>
<polygon fill="white" stroke="none" points="-4,4 -4,-102 267.5,-102 267.5,4 -4,4"/>
<!-- Node17 -->
<g id="node1" class="node"><title>Node17</title>
<polygon fill="#bfbfbf" stroke="black" points="70,-67.5 70,-97.5 190,-97.5 190,-67.5 70,-67.5"/>
<text text-anchor="start" x="78" y="-85.5" font-family="Helvetica,sans-Serif" font-size="10.00">src/hardware/serializers</text>
<text text-anchor="middle" x="130" y="-74.5" font-family="Helvetica,sans-Serif" font-size="10.00">/GPIOSerializer.hpp</text>
</g>
<!-- Node18 -->
<g id="node2" class="node"><title>Node18</title>
<g id="a_node2"><a xlink:href="../../d3/dbb/GPIOSerializer_8cpp.html" target="_top" xlink:title="src/hardware/serializers\l/GPIOSerializer.cpp">
<polygon fill="white" stroke="black" points="0,-0.5 0,-30.5 120,-30.5 120,-0.5 0,-0.5"/>
<text text-anchor="start" x="8" y="-18.5" font-family="Helvetica,sans-Serif" font-size="10.00">src/hardware/serializers</text>
<text text-anchor="middle" x="60" y="-7.5" font-family="Helvetica,sans-Serif" font-size="10.00">/GPIOSerializer.cpp</text>
</a>
</g>
</g>
<!-- Node17&#45;&gt;Node18 -->
<g id="edge1" class="edge"><title>Node17&#45;&gt;Node18</title>
<path fill="none" stroke="midnightblue" d="M107.182,-60.3115C96.6813,-50.5612 84.5097,-39.259 75.1593,-30.5765"/>
<polygon fill="midnightblue" stroke="midnightblue" points="105.101,-63.1562 114.811,-67.396 109.865,-58.0266 105.101,-63.1562"/>
</g>
<!-- Node19 -->
<g id="node3" class="node"><title>Node19</title>
<g id="a_node3"><a xlink:href="../../d7/d35/PFGPIO_8cpp.html" target="_top" xlink:title="src/modules/pifacedigital\l/PFGPIO.cpp">
<polygon fill="white" stroke="black" points="138.5,-0.5 138.5,-30.5 263.5,-30.5 263.5,-0.5 138.5,-0.5"/>
<text text-anchor="start" x="146.5" y="-18.5" font-family="Helvetica,sans-Serif" font-size="10.00">src/modules/pifacedigital</text>
<text text-anchor="middle" x="201" y="-7.5" font-family="Helvetica,sans-Serif" font-size="10.00">/PFGPIO.cpp</text>
</a>
</g>
</g>
<!-- Node17&#45;&gt;Node19 -->
<g id="edge2" class="edge"><title>Node17&#45;&gt;Node19</title>
<path fill="none" stroke="midnightblue" d="M152.832,-60.5978C163.552,-50.7831 176.047,-39.3442 185.624,-30.5765"/>
<polygon fill="midnightblue" stroke="midnightblue" points="150.418,-58.0618 145.406,-67.396 155.145,-63.225 150.418,-58.0618"/>
</g>
</g>
</svg>
