<?xml version="1.0" encoding="UTF-8" standalone="no"?>
<!DOCTYPE svg PUBLIC "-//W3C//DTD SVG 1.1//EN"
 "http://www.w3.org/Graphics/SVG/1.1/DTD/svg11.dtd">
<!-- Generated by graphviz version 2.38.0 (20140413.2041)
 -->
<!-- Title: src/core/UserSecurityContext.hpp Pages: 1 -->
<!--zoomable 263 -->
<svg id="main" version="1.1" xmlns="http://www.w3.org/2000/svg" xmlns:xlink="http://www.w3.org/1999/xlink" xml:space="preserve" onload="init(evt)">
<style type="text/css"><![CDATA[
.edge:hover path { stroke: red; }
.edge:hover polygon { stroke: red; fill: red; }
]]></style>
<script type="text/javascript"><![CDATA[
var edges = document.getElementsByTagName('g');
if (edges && edges.length) {
  for (var i=0;i<edges.length;i++) {
    if (edges[i].id.substr(0,4)=='edge') {
      edges[i].setAttribute('class','edge');
    }
  }
}
]]></script>
        <defs>
                <circle id="rim" cx="0" cy="0" r="7"/>
                <circle id="rim2" cx="0" cy="0" r="3.5"/>
                <g id="zoomPlus">
                        <use xlink:href="#rim" fill="#404040">
                                <set attributeName="fill" to="#808080" begin="zoomplus.mouseover" end="zoomplus.mouseout"/>
                        </use>
                        <path d="M-4,0h8M0,-4v8" fill="none" stroke="white" stroke-width="1.5" pointer-events="none"/>
                </g>
                <g id="zoomMin">
                        <use xlink:href="#rim" fill="#404040">
                                <set attributeName="fill" to="#808080" begin="zoomminus.mouseover" end="zoomminus.mouseout"/>
                        </use>
                        <path d="M-4,0h8" fill="none" stroke="white" stroke-width="1.5" pointer-events="none"/>
                </g>
                <g id="dirArrow">
                        <path fill="none" stroke="white" stroke-width="1.5" d="M0,-3.0v7 M-2.5,-0.5L0,-3.0L2.5,-0.5"/>
                </g>
               <g id="resetDef">
                       <use xlink:href="#rim2" fill="#404040">
                               <set attributeName="fill" to="#808080" begin="reset.mouseover" end="reset.mouseout"/>
                       </use>
               </g>
        </defs>

<script type="text/javascript">
var viewWidth = 1019;
var viewHeight = 263;
var sectionId = 'dynsection-0';
</script>
<script xlink:href="../../svgpan.js"/>
<svg id="graph" class="graph">
<g id="viewport">
<title>src/core/UserSecurityContext.hpp</title>
<polygon fill="white" stroke="none" points="-4,4 -4,-259 1014.5,-259 1014.5,4 -4,4"/>
<!-- Node0 -->
<g id="node1" class="node"><title>Node0</title>
<polygon fill="#bfbfbf" stroke="black" points="201.5,-235.5 201.5,-254.5 366.5,-254.5 366.5,-235.5 201.5,-235.5"/>
<text text-anchor="middle" x="284" y="-242.5" font-family="Helvetica,sans-Serif" font-size="10.00">src/core/UserSecurityContext.hpp</text>
</g>
<!-- Node1 -->
<g id="node2" class="node"><title>Node1</title>
<g id="a_node2"><a xlink:href="../../d1/d3e/SecurityContext_8hpp.html" target="_top" xlink:title="core/SecurityContext.hpp">
<polygon fill="white" stroke="black" points="279,-179.5 279,-198.5 407,-198.5 407,-179.5 279,-179.5"/>
<text text-anchor="middle" x="343" y="-186.5" font-family="Helvetica,sans-Serif" font-size="10.00">core/SecurityContext.hpp</text>
</a>
</g>
</g>
<!-- Node0&#45;&gt;Node1 -->
<g id="edge1" class="edge"><title>Node0&#45;&gt;Node1</title>
<path fill="none" stroke="midnightblue" d="M293.479,-235.324C302.201,-227.341 315.343,-215.313 325.898,-205.653"/>
<polygon fill="midnightblue" stroke="midnightblue" points="328.334,-208.167 333.348,-198.834 323.608,-203.004 328.334,-208.167"/>
</g>
<!-- Node7 -->
<g id="node8" class="node"><title>Node7</title>
<g id="a_node8"><a xlink:href="../../d3/d6f/AuthFwd_8hpp.html" target="_top" xlink:title="core/auth/AuthFwd.hpp">
<polygon fill="white" stroke="black" points="140,-118 140,-137 258,-137 258,-118 140,-118"/>
<text text-anchor="middle" x="199" y="-125" font-family="Helvetica,sans-Serif" font-size="10.00">core/auth/AuthFwd.hpp</text>
</a>
</g>
</g>
<!-- Node0&#45;&gt;Node7 -->
<g id="edge27" class="edge"><title>Node0&#45;&gt;Node7</title>
<path fill="none" stroke="midnightblue" d="M277.611,-235.319C263.582,-216.255 229.87,-170.447 211.48,-145.458"/>
<polygon fill="midnightblue" stroke="midnightblue" points="214.209,-143.262 205.463,-137.282 208.571,-147.411 214.209,-143.262"/>
</g>
<!-- Node2 -->
<g id="node3" class="node"><title>Node2</title>
<g id="a_node3"><a xlink:href="../../d7/dcf/AuditFwd_8hpp.html" target="_top" xlink:title="core/audit/AuditFwd.hpp">
<polygon fill="white" stroke="black" points="0,-118 0,-137 122,-137 122,-118 0,-118"/>
<text text-anchor="middle" x="61" y="-125" font-family="Helvetica,sans-Serif" font-size="10.00">core/audit/AuditFwd.hpp</text>
</a>
</g>
</g>
<!-- Node1&#45;&gt;Node2 -->
<g id="edge2" class="edge"><title>Node1&#45;&gt;Node2</title>
<path fill="none" stroke="midnightblue" d="M302.596,-179.475C252.129,-168.827 165.786,-150.609 111.146,-139.081"/>
<polygon fill="midnightblue" stroke="midnightblue" points="111.836,-135.649 101.329,-137.009 110.391,-142.498 111.836,-135.649"/>
</g>
<!-- Node1&#45;&gt;Node7 -->
<g id="edge7" class="edge"><title>Node1&#45;&gt;Node7</title>
<path fill="none" stroke="midnightblue" d="M322.368,-179.475C297.881,-169.357 256.853,-152.405 228.891,-140.851"/>
<polygon fill="midnightblue" stroke="midnightblue" points="230.172,-137.593 219.593,-137.009 227.499,-144.063 230.172,-137.593"/>
</g>
<!-- Node8 -->
<g id="node9" class="node"><title>Node8</title>
<g id="a_node9"><a xlink:href="../../d7/d7f/CredentialFwd_8hpp.html" target="_top" xlink:title="core/credentials/Credential\lFwd.hpp">
<polygon fill="white" stroke="black" points="276.5,-112.5 276.5,-142.5 409.5,-142.5 409.5,-112.5 276.5,-112.5"/>
<text text-anchor="start" x="284.5" y="-130.5" font-family="Helvetica,sans-Serif" font-size="10.00">core/credentials/Credential</text>
<text text-anchor="middle" x="343" y="-119.5" font-family="Helvetica,sans-Serif" font-size="10.00">Fwd.hpp</text>
</a>
</g>
</g>
<!-- Node1&#45;&gt;Node8 -->
<g id="edge11" class="edge"><title>Node1&#45;&gt;Node8</title>
<path fill="none" stroke="midnightblue" d="M343,-179.475C343,-172.471 343,-162.192 343,-152.696"/>
<polygon fill="midnightblue" stroke="midnightblue" points="346.5,-152.523 343,-142.523 339.5,-152.523 346.5,-152.523"/>
</g>
<!-- Node9 -->
<g id="node10" class="node"><title>Node9</title>
<g id="a_node10"><a xlink:href="../../d9/dc8/HardwareFwd_8hpp.html" target="_top" xlink:title="hardware/HardwareFwd.hpp">
<polygon fill="white" stroke="black" points="670.5,-118 670.5,-137 809.5,-137 809.5,-118 670.5,-118"/>
<text text-anchor="middle" x="740" y="-125" font-family="Helvetica,sans-Serif" font-size="10.00">hardware/HardwareFwd.hpp</text>
</a>
</g>
</g>
<!-- Node1&#45;&gt;Node9 -->
<g id="edge14" class="edge"><title>Node1&#45;&gt;Node9</title>
<path fill="none" stroke="midnightblue" d="M407.071,-179.717C471.376,-171.22 573.216,-157.261 661,-143 668.926,-141.712 677.284,-140.27 685.478,-138.808"/>
<polygon fill="midnightblue" stroke="midnightblue" points="686.133,-142.247 695.351,-137.025 684.888,-135.358 686.133,-142.247"/>
</g>
<!-- Node17 -->
<g id="node18" class="node"><title>Node17</title>
<g id="a_node18"><a xlink:href="../../d8/d97/ToolsFwd_8hpp.html" target="_top" xlink:title="tools/ToolsFwd.hpp">
<polygon fill="white" stroke="black" points="428,-118 428,-137 530,-137 530,-118 428,-118"/>
<text text-anchor="middle" x="479" y="-125" font-family="Helvetica,sans-Serif" font-size="10.00">tools/ToolsFwd.hpp</text>
</a>
</g>
</g>
<!-- Node1&#45;&gt;Node17 -->
<g id="edge22" class="edge"><title>Node1&#45;&gt;Node17</title>
<path fill="none" stroke="midnightblue" d="M362.485,-179.475C385.41,-169.445 423.685,-152.7 450.075,-141.155"/>
<polygon fill="midnightblue" stroke="midnightblue" points="451.792,-144.224 459.551,-137.009 448.986,-137.811 451.792,-144.224"/>
</g>
<!-- Node18 -->
<g id="node19" class="node"><title>Node18</title>
<g id="a_node19"><a xlink:href="../../d9/d69/db__fwd_8hpp.html" target="_top" xlink:title="tools/db/db_fwd.hpp">
<polygon fill="white" stroke="black" points="548,-118 548,-137 652,-137 652,-118 548,-118"/>
<text text-anchor="middle" x="600" y="-125" font-family="Helvetica,sans-Serif" font-size="10.00">tools/db/db_fwd.hpp</text>
</a>
</g>
</g>
<!-- Node1&#45;&gt;Node18 -->
<g id="edge25" class="edge"><title>Node1&#45;&gt;Node18</title>
<path fill="none" stroke="midnightblue" d="M380.594,-179.459C420.065,-170.47 483.924,-155.868 539,-143 543.974,-141.838 549.173,-140.615 554.349,-139.392"/>
<polygon fill="midnightblue" stroke="midnightblue" points="555.283,-142.767 564.207,-137.057 553.67,-135.956 555.283,-142.767"/>
</g>
<!-- Node3 -->
<g id="node4" class="node"><title>Node3</title>
<polygon fill="white" stroke="#bfbfbf" points="119.5,-56.5 119.5,-75.5 168.5,-75.5 168.5,-56.5 119.5,-56.5"/>
<text text-anchor="middle" x="144" y="-63.5" font-family="Helvetica,sans-Serif" font-size="10.00">cstddef</text>
</g>
<!-- Node2&#45;&gt;Node3 -->
<g id="edge3" class="edge"><title>Node2&#45;&gt;Node3</title>
<path fill="none" stroke="midnightblue" d="M72.8919,-117.975C86.2048,-108.431 108,-92.8073 123.957,-81.3683"/>
<polygon fill="midnightblue" stroke="midnightblue" points="126.042,-84.18 132.13,-75.5091 121.964,-78.4908 126.042,-84.18"/>
</g>
<!-- Node4 -->
<g id="node5" class="node"><title>Node4</title>
<polygon fill="white" stroke="#bfbfbf" points="28.5,-56.5 28.5,-75.5 93.5,-75.5 93.5,-56.5 28.5,-56.5"/>
<text text-anchor="middle" x="61" y="-63.5" font-family="Helvetica,sans-Serif" font-size="10.00">flagset.hpp</text>
</g>
<!-- Node2&#45;&gt;Node4 -->
<g id="edge4" class="edge"><title>Node2&#45;&gt;Node4</title>
<path fill="none" stroke="midnightblue" d="M61,-117.975C61,-109.58 61,-96.4806 61,-85.6631"/>
<polygon fill="midnightblue" stroke="midnightblue" points="64.5001,-85.5091 61,-75.5091 57.5001,-85.5091 64.5001,-85.5091"/>
</g>
<!-- Node5 -->
<g id="node6" class="node"><title>Node5</title>
<polygon fill="white" stroke="#bfbfbf" points="317,-56.5 317,-75.5 369,-75.5 369,-56.5 317,-56.5"/>
<text text-anchor="middle" x="343" y="-63.5" font-family="Helvetica,sans-Serif" font-size="10.00">memory</text>
</g>
<!-- Node2&#45;&gt;Node5 -->
<g id="edge5" class="edge"><title>Node2&#45;&gt;Node5</title>
<path fill="none" stroke="midnightblue" d="M101.404,-117.975C156.516,-106.347 254.412,-85.6915 307.082,-74.5784"/>
<polygon fill="midnightblue" stroke="midnightblue" points="307.925,-77.9776 316.987,-72.4885 306.48,-71.1284 307.925,-77.9776"/>
</g>
<!-- Node6 -->
<g id="node7" class="node"><title>Node6</title>
<polygon fill="white" stroke="#bfbfbf" points="204,-56.5 204,-75.5 290,-75.5 290,-56.5 204,-56.5"/>
<text text-anchor="middle" x="247" y="-63.5" font-family="Helvetica,sans-Serif" font-size="10.00">odb/lazy&#45;ptr.hxx</text>
</g>
<!-- Node2&#45;&gt;Node6 -->
<g id="edge6" class="edge"><title>Node2&#45;&gt;Node6</title>
<path fill="none" stroke="midnightblue" d="M87.6493,-117.975C119.969,-107.636 174.597,-90.1611 210.733,-78.6017"/>
<polygon fill="midnightblue" stroke="midnightblue" points="211.942,-81.8896 220.4,-75.5091 209.809,-75.2224 211.942,-81.8896"/>
</g>
<!-- Node7&#45;&gt;Node3 -->
<g id="edge8" class="edge"><title>Node7&#45;&gt;Node3</title>
<path fill="none" stroke="midnightblue" d="M191.12,-117.975C182.706,-108.873 169.181,-94.241 158.774,-82.983"/>
<polygon fill="midnightblue" stroke="midnightblue" points="161.224,-80.4766 151.866,-75.5091 156.083,-85.2282 161.224,-80.4766"/>
</g>
<!-- Node7&#45;&gt;Node5 -->
<g id="edge9" class="edge"><title>Node7&#45;&gt;Node5</title>
<path fill="none" stroke="midnightblue" d="M219.632,-117.975C244.119,-107.857 285.147,-90.9046 313.109,-79.3507"/>
<polygon fill="midnightblue" stroke="midnightblue" points="314.501,-82.5627 322.407,-75.5091 311.828,-76.0932 314.501,-82.5627"/>
</g>
<!-- Node7&#45;&gt;Node6 -->
<g id="edge10" class="edge"><title>Node7&#45;&gt;Node6</title>
<path fill="none" stroke="midnightblue" d="M205.877,-117.975C213.149,-108.962 224.795,-94.5246 233.841,-83.3118"/>
<polygon fill="midnightblue" stroke="midnightblue" points="236.581,-85.4898 240.136,-75.5091 231.133,-81.0946 236.581,-85.4898"/>
</g>
<!-- Node8&#45;&gt;Node5 -->
<g id="edge12" class="edge"><title>Node8&#45;&gt;Node5</title>
<path fill="none" stroke="midnightblue" d="M343,-112.399C343,-104.466 343,-94.458 343,-85.8583"/>
<polygon fill="midnightblue" stroke="midnightblue" points="346.5,-85.6577 343,-75.6578 339.5,-85.6578 346.5,-85.6577"/>
</g>
<!-- Node8&#45;&gt;Node6 -->
<g id="edge13" class="edge"><title>Node8&#45;&gt;Node6</title>
<path fill="none" stroke="midnightblue" d="M320.249,-112.399C305.005,-102.951 285.011,-90.5589 269.764,-81.1089"/>
<polygon fill="midnightblue" stroke="midnightblue" points="271.313,-77.951 260.969,-75.6578 267.625,-83.9009 271.313,-77.951"/>
</g>
<!-- Node10 -->
<g id="node11" class="node"><title>Node10</title>
<g id="a_node11"><a xlink:href="../../dc/dea/Uuid_8hpp.html" target="_top" xlink:title="tools/Uuid.hpp">
<polygon fill="white" stroke="black" points="700,-56.5 700,-75.5 780,-75.5 780,-56.5 700,-56.5"/>
<text text-anchor="middle" x="740" y="-63.5" font-family="Helvetica,sans-Serif" font-size="10.00">tools/Uuid.hpp</text>
</a>
</g>
</g>
<!-- Node9&#45;&gt;Node10 -->
<g id="edge15" class="edge"><title>Node9&#45;&gt;Node10</title>
<path fill="none" stroke="midnightblue" d="M740,-117.975C740,-109.58 740,-96.4806 740,-85.6631"/>
<polygon fill="midnightblue" stroke="midnightblue" points="743.5,-85.5091 740,-75.5091 736.5,-85.5091 743.5,-85.5091"/>
</g>
<!-- Node11 -->
<g id="node12" class="node"><title>Node11</title>
<polygon fill="white" stroke="#bfbfbf" points="315,-0.5 315,-19.5 429,-19.5 429,-0.5 315,-0.5"/>
<text text-anchor="middle" x="372" y="-7.5" font-family="Helvetica,sans-Serif" font-size="10.00">boost/lexical_cast.hpp</text>
</g>
<!-- Node10&#45;&gt;Node11 -->
<g id="edge16" class="edge"><title>Node10&#45;&gt;Node11</title>
<path fill="none" stroke="midnightblue" d="M699.917,-59.1183C637.252,-49.9228 515.376,-32.0389 439.147,-20.8531"/>
<polygon fill="midnightblue" stroke="midnightblue" points="439.567,-17.3773 429.165,-19.3883 438.551,-24.3032 439.567,-17.3773"/>
</g>
<!-- Node12 -->
<g id="node13" class="node"><title>Node12</title>
<polygon fill="white" stroke="#bfbfbf" points="447.5,-0.5 447.5,-19.5 608.5,-19.5 608.5,-0.5 447.5,-0.5"/>
<text text-anchor="middle" x="528" y="-7.5" font-family="Helvetica,sans-Serif" font-size="10.00">boost/uuid/random_generator.hpp</text>
</g>
<!-- Node10&#45;&gt;Node12 -->
<g id="edge17" class="edge"><title>Node10&#45;&gt;Node12</title>
<path fill="none" stroke="midnightblue" d="M706.408,-56.4435C669.813,-47.1221 611.162,-32.1828 571.174,-21.9972"/>
<polygon fill="midnightblue" stroke="midnightblue" points="571.989,-18.5932 561.435,-19.5164 570.261,-25.3766 571.989,-18.5932"/>
</g>
<!-- Node13 -->
<g id="node14" class="node"><title>Node13</title>
<polygon fill="white" stroke="#bfbfbf" points="626.5,-0.5 626.5,-19.5 727.5,-19.5 727.5,-0.5 626.5,-0.5"/>
<text text-anchor="middle" x="677" y="-7.5" font-family="Helvetica,sans-Serif" font-size="10.00">boost/uuid/uuid.hpp</text>
</g>
<!-- Node10&#45;&gt;Node13 -->
<g id="edge18" class="edge"><title>Node10&#45;&gt;Node13</title>
<path fill="none" stroke="midnightblue" d="M729.878,-56.324C720.474,-48.2631 706.256,-36.0765 694.931,-26.3695"/>
<polygon fill="midnightblue" stroke="midnightblue" points="697.177,-23.6844 687.306,-19.8339 692.621,-28.9993 697.177,-23.6844"/>
</g>
<!-- Node14 -->
<g id="node15" class="node"><title>Node14</title>
<polygon fill="white" stroke="#bfbfbf" points="746,-0.5 746,-19.5 860,-19.5 860,-0.5 746,-0.5"/>
<text text-anchor="middle" x="803" y="-7.5" font-family="Helvetica,sans-Serif" font-size="10.00">boost/uuid/uuid_io.hpp</text>
</g>
<!-- Node10&#45;&gt;Node14 -->
<g id="edge19" class="edge"><title>Node10&#45;&gt;Node14</title>
<path fill="none" stroke="midnightblue" d="M750.122,-56.324C759.526,-48.2631 773.744,-36.0765 785.069,-26.3695"/>
<polygon fill="midnightblue" stroke="midnightblue" points="787.379,-28.9993 792.694,-19.8339 782.823,-23.6844 787.379,-28.9993"/>
</g>
<!-- Node15 -->
<g id="node16" class="node"><title>Node15</title>
<polygon fill="white" stroke="#bfbfbf" points="878.5,-0.5 878.5,-19.5 951.5,-19.5 951.5,-0.5 878.5,-0.5"/>
<text text-anchor="middle" x="915" y="-7.5" font-family="Helvetica,sans-Serif" font-size="10.00">odb/core.hxx</text>
</g>
<!-- Node10&#45;&gt;Node15 -->
<g id="edge20" class="edge"><title>Node10&#45;&gt;Node15</title>
<path fill="none" stroke="midnightblue" d="M767.729,-56.4435C797.426,-47.2801 844.716,-32.6876 877.669,-22.5192"/>
<polygon fill="midnightblue" stroke="midnightblue" points="878.877,-25.8094 887.4,-19.5164 876.813,-19.1206 878.877,-25.8094"/>
</g>
<!-- Node16 -->
<g id="node17" class="node"><title>Node16</title>
<polygon fill="white" stroke="#bfbfbf" points="969.5,-0.5 969.5,-19.5 1010.5,-19.5 1010.5,-0.5 969.5,-0.5"/>
<text text-anchor="middle" x="990" y="-7.5" font-family="Helvetica,sans-Serif" font-size="10.00">string</text>
</g>
<!-- Node10&#45;&gt;Node16 -->
<g id="edge21" class="edge"><title>Node10&#45;&gt;Node16</title>
<path fill="none" stroke="midnightblue" d="M780.199,-58.0645C822.613,-50.4708 891.57,-37.3445 959.47,-20.2052"/>
<polygon fill="midnightblue" stroke="midnightblue" points="960.656,-23.5148 969.477,-17.6475 958.922,-16.7328 960.656,-23.5148"/>
</g>
<!-- Node17&#45;&gt;Node5 -->
<g id="edge23" class="edge"><title>Node17&#45;&gt;Node5</title>
<path fill="none" stroke="midnightblue" d="M459.515,-117.975C436.59,-107.945 398.315,-91.2002 371.925,-79.6546"/>
<polygon fill="midnightblue" stroke="midnightblue" points="373.014,-76.3108 362.449,-75.5091 370.208,-82.7239 373.014,-76.3108"/>
</g>
<!-- Node17&#45;&gt;Node6 -->
<g id="edge24" class="edge"><title>Node17&#45;&gt;Node6</title>
<path fill="none" stroke="midnightblue" d="M445.76,-117.975C404.758,-107.459 334.971,-89.5615 289.946,-78.0142"/>
<polygon fill="midnightblue" stroke="midnightblue" points="290.734,-74.6031 280.178,-75.5091 288.995,-81.3837 290.734,-74.6031"/>
</g>
<!-- Node18&#45;&gt;Node5 -->
<g id="edge26" class="edge"><title>Node18&#45;&gt;Node5</title>
<path fill="none" stroke="midnightblue" d="M564.207,-117.943C555.933,-115.979 547.162,-113.907 539,-112 483.137,-98.9478 418.237,-84.1117 378.916,-75.159"/>
<polygon fill="midnightblue" stroke="midnightblue" points="379.54,-71.7114 369.012,-72.9053 377.987,-78.537 379.54,-71.7114"/>
</g>
</g>
</svg>
        <g id="navigator" transform="translate(0 0)" fill="#404254">
                <rect fill="#f2f5e9" fill-opacity="0.5" stroke="#606060" stroke-width=".5" x="0" y="0" width="60" height="60"/>
                <use id="zoomplus" xlink:href="#zoomPlus" x="17" y="9" onmousedown="handleZoom(evt,'in')"/>
                <use id="zoomminus" xlink:href="#zoomMin" x="42" y="9" onmousedown="handleZoom(evt,'out')"/>
                <use id="reset" xlink:href="#resetDef" x="30" y="36" onmousedown="handleReset()"/>
                <g id="arrowUp" xlink:href="#dirArrow" transform="translate(30 24)" onmousedown="handlePan(0,-1)">
                  <use xlink:href="#rim" fill="#404040">
                        <set attributeName="fill" to="#808080" begin="arrowUp.mouseover" end="arrowUp.mouseout"/>
                  </use>
                  <path fill="none" stroke="white" stroke-width="1.5" d="M0,-3.0v7 M-2.5,-0.5L0,-3.0L2.5,-0.5"/>
                </g>
                <g id="arrowRight" xlink:href="#dirArrow" transform="rotate(90) translate(36 -43)" onmousedown="handlePan(1,0)">
                  <use xlink:href="#rim" fill="#404040">
                        <set attributeName="fill" to="#808080" begin="arrowRight.mouseover" end="arrowRight.mouseout"/>
                  </use>
                  <path fill="none" stroke="white" stroke-width="1.5" d="M0,-3.0v7 M-2.5,-0.5L0,-3.0L2.5,-0.5"/>
                </g>
                <g id="arrowDown" xlink:href="#dirArrow" transform="rotate(180) translate(-30 -48)" onmousedown="handlePan(0,1)">
                  <use xlink:href="#rim" fill="#404040">
                        <set attributeName="fill" to="#808080" begin="arrowDown.mouseover" end="arrowDown.mouseout"/>
                  </use>
                  <path fill="none" stroke="white" stroke-width="1.5" d="M0,-3.0v7 M-2.5,-0.5L0,-3.0L2.5,-0.5"/>
                </g>
                <g id="arrowLeft" xlink:href="#dirArrow" transform="rotate(270) translate(-36 17)" onmousedown="handlePan(-1,0)">
                  <use xlink:href="#rim" fill="#404040">
                        <set attributeName="fill" to="#808080" begin="arrowLeft.mouseover" end="arrowLeft.mouseout"/>
                  </use>
                  <path fill="none" stroke="white" stroke-width="1.5" d="M0,-3.0v7 M-2.5,-0.5L0,-3.0L2.5,-0.5"/>
                </g>
        </g>
        <svg viewBox="0 0 15 15" width="100%" height="30px" preserveAspectRatio="xMaxYMin meet">
         <g id="arrow_out" transform="scale(0.3 0.3)">
          <a xlink:href="UserSecurityContext_8hpp__incl_org.svg" target="_base">
           <rect id="button" ry="5" rx="5" y="6" x="6" height="38" width="38"
                fill="#f2f5e9" fill-opacity="0.5" stroke="#606060" stroke-width="1.0"/>
           <path id="arrow"
             d="M 11.500037,31.436501 C 11.940474,20.09759 22.043105,11.32322 32.158766,21.979434 L 37.068811,17.246167 C 37.068811,17.246167 37.088388,32 37.088388,32 L 22.160133,31.978069 C 22.160133,31.978069 26.997745,27.140456 26.997745,27.140456 C 18.528582,18.264221 13.291696,25.230495 11.500037,31.436501 z"
             style="fill:#404040;"/>
          </a>
         </g>
        </svg>
</svg>
