<?xml version="1.0" encoding="UTF-8" standalone="no"?>
<!DOCTYPE svg PUBLIC "-//W3C//DTD SVG 1.1//EN"
 "http://www.w3.org/Graphics/SVG/1.1/DTD/svg11.dtd">
<!-- Generated by graphviz version 2.38.0 (20140413.2041)
 -->
<!-- Title: src/tools/LogEntry.hpp Pages: 1 -->
<svg width="1068pt" height="375pt"
 viewBox="0.00 0.00 1067.50 375.00" xmlns="http://www.w3.org/2000/svg" xmlns:xlink="http://www.w3.org/1999/xlink">
<g id="graph0" class="graph" transform="scale(1 1) rotate(0) translate(4 371)">
<title>src/tools/LogEntry.hpp</title>
<polygon fill="white" stroke="none" points="-4,4 -4,-371 1063.5,-371 1063.5,4 -4,4"/>
<!-- Node0 -->
<g id="node1" class="node"><title>Node0</title>
<polygon fill="#bfbfbf" stroke="black" points="900.5,-347.5 900.5,-366.5 1015.5,-366.5 1015.5,-347.5 900.5,-347.5"/>
<text text-anchor="middle" x="958" y="-354.5" font-family="Helvetica,sans-Serif" font-size="10.00">src/tools/LogEntry.hpp</text>
</g>
<!-- Node1 -->
<g id="node2" class="node"><title>Node1</title>
<g id="a_node2"><a xlink:href="../../df/da2/database_8hpp.html" target="_top" xlink:title="tools/db/database.hpp">
<polygon fill="white" stroke="black" points="631.5,-291.5 631.5,-310.5 744.5,-310.5 744.5,-291.5 631.5,-291.5"/>
<text text-anchor="middle" x="688" y="-298.5" font-family="Helvetica,sans-Serif" font-size="10.00">tools/db/database.hpp</text>
</a>
</g>
</g>
<!-- Node0&#45;&gt;Node1 -->
<g id="edge1" class="edge"><title>Node0&#45;&gt;Node1</title>
<path fill="none" stroke="midnightblue" d="M915.218,-347.444C867.821,-337.964 791.374,-322.675 740.417,-312.483"/>
<polygon fill="midnightblue" stroke="midnightblue" points="741.074,-309.046 730.582,-310.516 739.702,-315.91 741.074,-309.046"/>
</g>
<!-- Node17 -->
<g id="node18" class="node"><title>Node17</title>
<polygon fill="white" stroke="#bfbfbf" points="900.5,-112.5 900.5,-142.5 1013.5,-142.5 1013.5,-112.5 900.5,-112.5"/>
<text text-anchor="start" x="908.5" y="-130.5" font-family="Helvetica,sans-Serif" font-size="10.00">boost/date_time/posix</text>
<text text-anchor="middle" x="957" y="-119.5" font-family="Helvetica,sans-Serif" font-size="10.00">_time/posix_time.hpp</text>
</g>
<!-- Node0&#45;&gt;Node17 -->
<g id="edge36" class="edge"><title>Node0&#45;&gt;Node17</title>
<path fill="none" stroke="midnightblue" d="M957.962,-347.36C957.821,-315.366 957.327,-202.909 957.107,-152.849"/>
<polygon fill="midnightblue" stroke="midnightblue" points="960.606,-152.608 957.062,-142.624 953.606,-152.639 960.606,-152.608"/>
</g>
<!-- Node23 -->
<g id="node24" class="node"><title>Node23</title>
<polygon fill="white" stroke="#bfbfbf" points="986.5,-291.5 986.5,-310.5 1059.5,-310.5 1059.5,-291.5 986.5,-291.5"/>
<text text-anchor="middle" x="1023" y="-298.5" font-family="Helvetica,sans-Serif" font-size="10.00">odb/core.hxx</text>
</g>
<!-- Node0&#45;&gt;Node23 -->
<g id="edge37" class="edge"><title>Node0&#45;&gt;Node23</title>
<path fill="none" stroke="midnightblue" d="M968.443,-347.324C978.146,-339.263 992.815,-327.077 1004.5,-317.369"/>
<polygon fill="midnightblue" stroke="midnightblue" points="1006.91,-319.916 1012.37,-310.834 1002.44,-314.532 1006.91,-319.916"/>
</g>
<!-- Node2 -->
<g id="node3" class="node"><title>Node2</title>
<g id="a_node3"><a xlink:href="../../d9/d69/db__fwd_8hpp.html" target="_top" xlink:title="db_fwd.hpp">
<polygon fill="white" stroke="black" points="542.5,-179.5 542.5,-198.5 609.5,-198.5 609.5,-179.5 542.5,-179.5"/>
<text text-anchor="middle" x="576" y="-186.5" font-family="Helvetica,sans-Serif" font-size="10.00">db_fwd.hpp</text>
</a>
</g>
</g>
<!-- Node1&#45;&gt;Node2 -->
<g id="edge2" class="edge"><title>Node1&#45;&gt;Node2</title>
<path fill="none" stroke="midnightblue" d="M687.493,-291.386C686.271,-277.869 682.114,-251.515 668,-235 654.939,-219.718 635.47,-209.157 617.8,-202.128"/>
<polygon fill="midnightblue" stroke="midnightblue" points="618.814,-198.771 608.221,-198.579 616.382,-205.335 618.814,-198.771"/>
</g>
<!-- Node4 -->
<g id="node5" class="node"><title>Node4</title>
<polygon fill="white" stroke="#bfbfbf" points="716,-235.5 716,-254.5 810,-254.5 810,-235.5 716,-235.5"/>
<text text-anchor="middle" x="763" y="-242.5" font-family="Helvetica,sans-Serif" font-size="10.00">odb/database.hxx</text>
</g>
<!-- Node1&#45;&gt;Node4 -->
<g id="edge4" class="edge"><title>Node1&#45;&gt;Node4</title>
<path fill="none" stroke="midnightblue" d="M700.05,-291.324C711.463,-283.107 728.831,-270.602 742.435,-260.807"/>
<polygon fill="midnightblue" stroke="midnightblue" points="744.66,-263.517 750.731,-254.834 740.57,-257.837 744.66,-263.517"/>
</g>
<!-- Node5 -->
<g id="node6" class="node"><title>Node5</title>
<polygon fill="white" stroke="#bfbfbf" points="828,-235.5 828,-254.5 930,-254.5 930,-235.5 828,-235.5"/>
<text text-anchor="middle" x="879" y="-242.5" font-family="Helvetica,sans-Serif" font-size="10.00">odb/transaction.hxx</text>
</g>
<!-- Node1&#45;&gt;Node5 -->
<g id="edge5" class="edge"><title>Node1&#45;&gt;Node5</title>
<path fill="none" stroke="midnightblue" d="M718.265,-291.444C750.955,-282.201 803.182,-267.436 839.183,-257.257"/>
<polygon fill="midnightblue" stroke="midnightblue" points="840.206,-260.605 848.877,-254.516 838.302,-253.869 840.206,-260.605"/>
</g>
<!-- Node6 -->
<g id="node7" class="node"><title>Node6</title>
<g id="a_node7"><a xlink:href="../../d0/dee/DBService_8hpp.html" target="_top" xlink:title="tools/db/DBService.hpp">
<polygon fill="white" stroke="black" points="279,-235.5 279,-254.5 399,-254.5 399,-235.5 279,-235.5"/>
<text text-anchor="middle" x="339" y="-242.5" font-family="Helvetica,sans-Serif" font-size="10.00">tools/db/DBService.hpp</text>
</a>
</g>
</g>
<!-- Node1&#45;&gt;Node6 -->
<g id="edge6" class="edge"><title>Node1&#45;&gt;Node6</title>
<path fill="none" stroke="midnightblue" d="M632.7,-291.444C570.669,-281.846 470.144,-266.292 404.3,-256.104"/>
<polygon fill="midnightblue" stroke="midnightblue" points="404.459,-252.587 394.041,-254.516 403.389,-259.504 404.459,-252.587"/>
</g>
<!-- Node21 -->
<g id="node22" class="node"><title>Node21</title>
<polygon fill="white" stroke="#bfbfbf" points="417.5,-235.5 417.5,-254.5 518.5,-254.5 518.5,-235.5 417.5,-235.5"/>
<text text-anchor="middle" x="468" y="-242.5" font-family="Helvetica,sans-Serif" font-size="10.00">odb/connection.hxx</text>
</g>
<!-- Node1&#45;&gt;Node21 -->
<g id="edge34" class="edge"><title>Node1&#45;&gt;Node21</title>
<path fill="none" stroke="midnightblue" d="M653.14,-291.444C615.084,-282.102 554.042,-267.119 512.54,-256.933"/>
<polygon fill="midnightblue" stroke="midnightblue" points="513.243,-253.501 502.697,-254.516 511.574,-260.299 513.243,-253.501"/>
</g>
<!-- Node22 -->
<g id="node23" class="node"><title>Node22</title>
<polygon fill="white" stroke="#bfbfbf" points="536.5,-235.5 536.5,-254.5 659.5,-254.5 659.5,-235.5 536.5,-235.5"/>
<text text-anchor="middle" x="598" y="-242.5" font-family="Helvetica,sans-Serif" font-size="10.00">odb/schema&#45;catalog.hxx</text>
</g>
<!-- Node1&#45;&gt;Node22 -->
<g id="edge35" class="edge"><title>Node1&#45;&gt;Node22</title>
<path fill="none" stroke="midnightblue" d="M673.54,-291.324C659.5,-282.9 637.952,-269.971 621.457,-260.074"/>
<polygon fill="midnightblue" stroke="midnightblue" points="622.8,-256.798 612.424,-254.655 619.198,-262.801 622.8,-256.798"/>
</g>
<!-- Node3 -->
<g id="node4" class="node"><title>Node3</title>
<polygon fill="white" stroke="#bfbfbf" points="463,-56.5 463,-75.5 515,-75.5 515,-56.5 463,-56.5"/>
<text text-anchor="middle" x="489" y="-63.5" font-family="Helvetica,sans-Serif" font-size="10.00">memory</text>
</g>
<!-- Node2&#45;&gt;Node3 -->
<g id="edge3" class="edge"><title>Node2&#45;&gt;Node3</title>
<path fill="none" stroke="midnightblue" d="M575.816,-179.181C575.09,-164.077 571.764,-132.875 557,-112 547.369,-98.3834 532.201,-87.7692 518.632,-80.2777"/>
<polygon fill="midnightblue" stroke="midnightblue" points="520.071,-77.0814 509.581,-75.5917 516.852,-83.2976 520.071,-77.0814"/>
</g>
<!-- Node6&#45;&gt;Node2 -->
<g id="edge33" class="edge"><title>Node6&#45;&gt;Node2</title>
<path fill="none" stroke="midnightblue" d="M376.553,-235.444C418.935,-225.787 487.778,-210.101 532.473,-199.918"/>
<polygon fill="midnightblue" stroke="midnightblue" points="533.482,-203.277 542.454,-197.643 531.927,-196.452 533.482,-203.277"/>
</g>
<!-- Node7 -->
<g id="node8" class="node"><title>Node7</title>
<g id="a_node8"><a xlink:href="../../d3/dd8/IAuditEntry_8hpp.html" target="_top" xlink:title="core/audit/IAuditEntry.hpp">
<polygon fill="white" stroke="black" points="633,-179.5 633,-198.5 763,-198.5 763,-179.5 633,-179.5"/>
<text text-anchor="middle" x="698" y="-186.5" font-family="Helvetica,sans-Serif" font-size="10.00">core/audit/IAuditEntry.hpp</text>
</a>
</g>
</g>
<!-- Node6&#45;&gt;Node7 -->
<g id="edge7" class="edge"><title>Node6&#45;&gt;Node7</title>
<path fill="none" stroke="midnightblue" d="M395.885,-235.444C459.824,-225.826 563.524,-210.228 631.247,-200.041"/>
<polygon fill="midnightblue" stroke="midnightblue" points="632.013,-203.465 641.382,-198.516 630.972,-196.543 632.013,-203.465"/>
</g>
<!-- Node12 -->
<g id="node13" class="node"><title>Node12</title>
<g id="a_node13"><a xlink:href="../../d3/d6f/AuthFwd_8hpp.html" target="_top" xlink:title="core/auth/AuthFwd.hpp">
<polygon fill="white" stroke="black" points="430,-118 430,-137 548,-137 548,-118 430,-118"/>
<text text-anchor="middle" x="489" y="-125" font-family="Helvetica,sans-Serif" font-size="10.00">core/auth/AuthFwd.hpp</text>
</a>
</g>
</g>
<!-- Node6&#45;&gt;Node12 -->
<g id="edge23" class="edge"><title>Node6&#45;&gt;Node12</title>
<path fill="none" stroke="midnightblue" d="M350.274,-235.319C375.684,-215.753 437.679,-168.017 469.481,-143.53"/>
<polygon fill="midnightblue" stroke="midnightblue" points="471.807,-146.156 477.595,-137.282 467.536,-140.61 471.807,-146.156"/>
</g>
<!-- Node18 -->
<g id="node19" class="node"><title>Node18</title>
<g id="a_node19"><a xlink:href="../../d7/d7f/CredentialFwd_8hpp.html" target="_top" xlink:title="core/credentials/Credential\lFwd.hpp">
<polygon fill="white" stroke="black" points="120.5,-112.5 120.5,-142.5 253.5,-142.5 253.5,-112.5 120.5,-112.5"/>
<text text-anchor="start" x="128.5" y="-130.5" font-family="Helvetica,sans-Serif" font-size="10.00">core/credentials/Credential</text>
<text text-anchor="middle" x="187" y="-119.5" font-family="Helvetica,sans-Serif" font-size="10.00">Fwd.hpp</text>
</a>
</g>
</g>
<!-- Node6&#45;&gt;Node18 -->
<g id="edge24" class="edge"><title>Node6&#45;&gt;Node18</title>
<path fill="none" stroke="midnightblue" d="M327.575,-235.319C303.516,-217.037 247.089,-174.16 213.498,-148.635"/>
<polygon fill="midnightblue" stroke="midnightblue" points="215.564,-145.809 205.484,-142.545 211.328,-151.382 215.564,-145.809"/>
</g>
<!-- Node19 -->
<g id="node20" class="node"><title>Node19</title>
<g id="a_node20"><a xlink:href="../../d2/d0e/UpdateFwd_8hpp.html" target="_top" xlink:title="core/update/UpdateFwd.hpp">
<polygon fill="white" stroke="black" points="272,-118 272,-137 412,-137 412,-118 272,-118"/>
<text text-anchor="middle" x="342" y="-125" font-family="Helvetica,sans-Serif" font-size="10.00">core/update/UpdateFwd.hpp</text>
</a>
</g>
</g>
<!-- Node6&#45;&gt;Node19 -->
<g id="edge27" class="edge"><title>Node6&#45;&gt;Node19</title>
<path fill="none" stroke="midnightblue" d="M339.225,-235.319C339.708,-216.757 340.848,-172.839 341.507,-147.473"/>
<polygon fill="midnightblue" stroke="midnightblue" points="345.011,-147.37 341.772,-137.282 338.013,-147.188 345.011,-147.37"/>
</g>
<!-- Node20 -->
<g id="node21" class="node"><title>Node20</title>
<g id="a_node21"><a xlink:href="../../d8/d97/ToolsFwd_8hpp.html" target="_top" xlink:title="tools/ToolsFwd.hpp">
<polygon fill="white" stroke="black" points="0,-118 0,-137 102,-137 102,-118 0,-118"/>
<text text-anchor="middle" x="51" y="-125" font-family="Helvetica,sans-Serif" font-size="10.00">tools/ToolsFwd.hpp</text>
</a>
</g>
</g>
<!-- Node6&#45;&gt;Node20 -->
<g id="edge30" class="edge"><title>Node6&#45;&gt;Node20</title>
<path fill="none" stroke="midnightblue" d="M317.353,-235.319C266.776,-215.035 140.699,-164.473 81.9903,-140.928"/>
<polygon fill="midnightblue" stroke="midnightblue" points="83.0894,-137.598 72.5051,-137.124 80.4838,-144.095 83.0894,-137.598"/>
</g>
<!-- Node7&#45;&gt;Node3 -->
<g id="edge22" class="edge"><title>Node7&#45;&gt;Node3</title>
<path fill="none" stroke="midnightblue" d="M685.286,-179.375C663.648,-164.825 618.102,-134.767 578,-112 557.8,-100.532 534.33,-88.7255 516.565,-80.0845"/>
<polygon fill="midnightblue" stroke="midnightblue" points="517.866,-76.8264 507.339,-75.6319 514.823,-83.1306 517.866,-76.8264"/>
</g>
<!-- Node8 -->
<g id="node9" class="node"><title>Node8</title>
<g id="a_node9"><a xlink:href="../../d7/dcf/AuditFwd_8hpp.html" target="_top" xlink:title="core/audit/AuditFwd.hpp">
<polygon fill="white" stroke="black" points="642,-118 642,-137 764,-137 764,-118 642,-118"/>
<text text-anchor="middle" x="703" y="-125" font-family="Helvetica,sans-Serif" font-size="10.00">core/audit/AuditFwd.hpp</text>
</a>
</g>
</g>
<!-- Node7&#45;&gt;Node8 -->
<g id="edge8" class="edge"><title>Node7&#45;&gt;Node8</title>
<path fill="none" stroke="midnightblue" d="M698.716,-179.475C699.422,-171.08 700.523,-157.981 701.432,-147.163"/>
<polygon fill="midnightblue" stroke="midnightblue" points="704.935,-147.267 702.285,-137.009 697.96,-146.681 704.935,-147.267"/>
</g>
<!-- Node7&#45;&gt;Node12 -->
<g id="edge13" class="edge"><title>Node7&#45;&gt;Node12</title>
<path fill="none" stroke="midnightblue" d="M668.055,-179.475C631.428,-169.048 569.305,-151.362 528.716,-139.807"/>
<polygon fill="midnightblue" stroke="midnightblue" points="529.465,-136.381 518.889,-137.009 527.549,-143.113 529.465,-136.381"/>
</g>
<!-- Node13 -->
<g id="node14" class="node"><title>Node13</title>
<g id="a_node14"><a xlink:href="../../dd/d9d/IVisitable_8hpp.html" target="_top" xlink:title="tools/IVisitable.hpp">
<polygon fill="white" stroke="black" points="782,-118 782,-137 882,-137 882,-118 782,-118"/>
<text text-anchor="middle" x="832" y="-125" font-family="Helvetica,sans-Serif" font-size="10.00">tools/IVisitable.hpp</text>
</a>
</g>
</g>
<!-- Node7&#45;&gt;Node13 -->
<g id="edge17" class="edge"><title>Node7&#45;&gt;Node13</title>
<path fill="none" stroke="midnightblue" d="M717.199,-179.475C739.787,-169.445 777.499,-152.7 803.501,-141.155"/>
<polygon fill="midnightblue" stroke="midnightblue" points="805.118,-144.266 812.837,-137.009 802.277,-137.869 805.118,-144.266"/>
</g>
<!-- Node7&#45;&gt;Node17 -->
<g id="edge21" class="edge"><title>Node7&#45;&gt;Node17</title>
<path fill="none" stroke="midnightblue" d="M735.108,-179.475C775.544,-170.186 841.056,-155.136 890.436,-143.792"/>
<polygon fill="midnightblue" stroke="midnightblue" points="891.436,-147.153 900.399,-141.503 889.869,-140.331 891.436,-147.153"/>
</g>
<!-- Node8&#45;&gt;Node3 -->
<g id="edge11" class="edge"><title>Node8&#45;&gt;Node3</title>
<path fill="none" stroke="midnightblue" d="M672.339,-117.975C633.368,-107.14 566.208,-88.4666 524.891,-76.9792"/>
<polygon fill="midnightblue" stroke="midnightblue" points="525.801,-73.5994 515.229,-74.2926 523.926,-80.3435 525.801,-73.5994"/>
</g>
<!-- Node9 -->
<g id="node10" class="node"><title>Node9</title>
<polygon fill="white" stroke="#bfbfbf" points="568.5,-56.5 568.5,-75.5 617.5,-75.5 617.5,-56.5 568.5,-56.5"/>
<text text-anchor="middle" x="593" y="-63.5" font-family="Helvetica,sans-Serif" font-size="10.00">cstddef</text>
</g>
<!-- Node8&#45;&gt;Node9 -->
<g id="edge9" class="edge"><title>Node8&#45;&gt;Node9</title>
<path fill="none" stroke="midnightblue" d="M687.24,-117.975C669.024,-108.122 638.827,-91.7883 617.532,-80.2697"/>
<polygon fill="midnightblue" stroke="midnightblue" points="619.192,-77.1883 608.731,-75.5091 615.862,-83.3453 619.192,-77.1883"/>
</g>
<!-- Node10 -->
<g id="node11" class="node"><title>Node10</title>
<polygon fill="white" stroke="#bfbfbf" points="670.5,-56.5 670.5,-75.5 735.5,-75.5 735.5,-56.5 670.5,-56.5"/>
<text text-anchor="middle" x="703" y="-63.5" font-family="Helvetica,sans-Serif" font-size="10.00">flagset.hpp</text>
</g>
<!-- Node8&#45;&gt;Node10 -->
<g id="edge10" class="edge"><title>Node8&#45;&gt;Node10</title>
<path fill="none" stroke="midnightblue" d="M703,-117.975C703,-109.58 703,-96.4806 703,-85.6631"/>
<polygon fill="midnightblue" stroke="midnightblue" points="706.5,-85.5091 703,-75.5091 699.5,-85.5091 706.5,-85.5091"/>
</g>
<!-- Node11 -->
<g id="node12" class="node"><title>Node11</title>
<polygon fill="white" stroke="#bfbfbf" points="299,-56.5 299,-75.5 385,-75.5 385,-56.5 299,-56.5"/>
<text text-anchor="middle" x="342" y="-63.5" font-family="Helvetica,sans-Serif" font-size="10.00">odb/lazy&#45;ptr.hxx</text>
</g>
<!-- Node8&#45;&gt;Node11 -->
<g id="edge12" class="edge"><title>Node8&#45;&gt;Node11</title>
<path fill="none" stroke="midnightblue" d="M651.278,-117.975C583.221,-106.758 464.199,-87.1408 395.344,-75.7921"/>
<polygon fill="midnightblue" stroke="midnightblue" points="395.586,-72.2849 385.15,-74.112 394.448,-79.1917 395.586,-72.2849"/>
</g>
<!-- Node12&#45;&gt;Node3 -->
<g id="edge15" class="edge"><title>Node12&#45;&gt;Node3</title>
<path fill="none" stroke="midnightblue" d="M489,-117.975C489,-109.58 489,-96.4806 489,-85.6631"/>
<polygon fill="midnightblue" stroke="midnightblue" points="492.5,-85.5091 489,-75.5091 485.5,-85.5091 492.5,-85.5091"/>
</g>
<!-- Node12&#45;&gt;Node9 -->
<g id="edge14" class="edge"><title>Node12&#45;&gt;Node9</title>
<path fill="none" stroke="midnightblue" d="M503.901,-117.975C520.968,-108.211 549.161,-92.0807 569.262,-80.5808"/>
<polygon fill="midnightblue" stroke="midnightblue" points="571.185,-83.513 578.127,-75.5091 567.709,-77.4371 571.185,-83.513"/>
</g>
<!-- Node12&#45;&gt;Node11 -->
<g id="edge16" class="edge"><title>Node12&#45;&gt;Node11</title>
<path fill="none" stroke="midnightblue" d="M467.938,-117.975C442.941,-107.857 401.058,-90.9046 372.513,-79.3507"/>
<polygon fill="midnightblue" stroke="midnightblue" points="373.605,-76.0168 363.022,-75.5091 370.979,-82.5054 373.605,-76.0168"/>
</g>
<!-- Node14 -->
<g id="node15" class="node"><title>Node14</title>
<g id="a_node15"><a xlink:href="../../d2/d91/Visitor_8hpp.html" target="_top" xlink:title="tools/Visitor.hpp">
<polygon fill="white" stroke="black" points="847.5,-56.5 847.5,-75.5 934.5,-75.5 934.5,-56.5 847.5,-56.5"/>
<text text-anchor="middle" x="891" y="-63.5" font-family="Helvetica,sans-Serif" font-size="10.00">tools/Visitor.hpp</text>
</a>
</g>
</g>
<!-- Node13&#45;&gt;Node14 -->
<g id="edge18" class="edge"><title>Node13&#45;&gt;Node14</title>
<path fill="none" stroke="midnightblue" d="M840.453,-117.975C849.566,-108.785 864.27,-93.9563 875.476,-82.656"/>
<polygon fill="midnightblue" stroke="midnightblue" points="878.007,-85.0744 882.562,-75.5091 873.036,-80.1455 878.007,-85.0744"/>
</g>
<!-- Node16 -->
<g id="node17" class="node"><title>Node16</title>
<polygon fill="white" stroke="#bfbfbf" points="780.5,-56.5 780.5,-75.5 829.5,-75.5 829.5,-56.5 780.5,-56.5"/>
<text text-anchor="middle" x="805" y="-63.5" font-family="Helvetica,sans-Serif" font-size="10.00">cassert</text>
</g>
<!-- Node13&#45;&gt;Node16 -->
<g id="edge20" class="edge"><title>Node13&#45;&gt;Node16</title>
<path fill="none" stroke="midnightblue" d="M828.132,-117.975C824.202,-109.315 818,-95.6486 813.007,-84.6453"/>
<polygon fill="midnightblue" stroke="midnightblue" points="816.181,-83.1691 808.861,-75.5091 809.806,-86.0617 816.181,-83.1691"/>
</g>
<!-- Node15 -->
<g id="node16" class="node"><title>Node15</title>
<polygon fill="white" stroke="#bfbfbf" points="860,-0.5 860,-19.5 922,-19.5 922,-0.5 860,-0.5"/>
<text text-anchor="middle" x="891" y="-7.5" font-family="Helvetica,sans-Serif" font-size="10.00">type_traits</text>
</g>
<!-- Node14&#45;&gt;Node15 -->
<g id="edge19" class="edge"><title>Node14&#45;&gt;Node15</title>
<path fill="none" stroke="midnightblue" d="M891,-56.083C891,-49.0059 891,-38.8611 891,-29.9865"/>
<polygon fill="midnightblue" stroke="midnightblue" points="894.5,-29.751 891,-19.7511 887.5,-29.7511 894.5,-29.751"/>
</g>
<!-- Node18&#45;&gt;Node3 -->
<g id="edge25" class="edge"><title>Node18&#45;&gt;Node3</title>
<path fill="none" stroke="midnightblue" d="M253.649,-113.369C315.111,-101.26 404.024,-83.742 453.093,-74.0745"/>
<polygon fill="midnightblue" stroke="midnightblue" points="453.8,-77.5025 462.934,-72.1354 452.446,-70.6346 453.8,-77.5025"/>
</g>
<!-- Node18&#45;&gt;Node11 -->
<g id="edge26" class="edge"><title>Node18&#45;&gt;Node11</title>
<path fill="none" stroke="midnightblue" d="M223.733,-112.399C249.971,-102.327 284.925,-88.9093 310.018,-79.2769"/>
<polygon fill="midnightblue" stroke="midnightblue" points="311.365,-82.5091 319.446,-75.6578 308.856,-75.9741 311.365,-82.5091"/>
</g>
<!-- Node19&#45;&gt;Node3 -->
<g id="edge28" class="edge"><title>Node19&#45;&gt;Node3</title>
<path fill="none" stroke="midnightblue" d="M363.062,-117.975C388.059,-107.857 429.942,-90.9046 458.487,-79.3507"/>
<polygon fill="midnightblue" stroke="midnightblue" points="460.021,-82.5054 467.978,-75.5091 457.395,-76.0168 460.021,-82.5054"/>
</g>
<!-- Node19&#45;&gt;Node11 -->
<g id="edge29" class="edge"><title>Node19&#45;&gt;Node11</title>
<path fill="none" stroke="midnightblue" d="M342,-117.975C342,-109.58 342,-96.4806 342,-85.6631"/>
<polygon fill="midnightblue" stroke="midnightblue" points="345.5,-85.5091 342,-75.5091 338.5,-85.5091 345.5,-85.5091"/>
</g>
<!-- Node20&#45;&gt;Node3 -->
<g id="edge31" class="edge"><title>Node20&#45;&gt;Node3</title>
<path fill="none" stroke="midnightblue" d="M83.2355,-117.966C92.1814,-115.801 101.929,-113.63 111,-112 176.208,-100.282 371.138,-79.3161 452.597,-70.776"/>
<polygon fill="midnightblue" stroke="midnightblue" points="453.279,-74.2239 462.86,-69.7028 452.551,-67.2618 453.279,-74.2239"/>
</g>
<!-- Node20&#45;&gt;Node11 -->
<g id="edge32" class="edge"><title>Node20&#45;&gt;Node11</title>
<path fill="none" stroke="midnightblue" d="M85.2067,-117.954C93.6232,-115.928 102.624,-113.827 111,-112 171.807,-98.7368 242.035,-85.3253 288.945,-76.6377"/>
<polygon fill="midnightblue" stroke="midnightblue" points="289.683,-80.0607 298.882,-74.8036 288.412,-73.177 289.683,-80.0607"/>
</g>
</g>
</svg>
