<?xml version="1.0" encoding="UTF-8" standalone="no"?>
<!DOCTYPE svg PUBLIC "-//W3C//DTD SVG 1.1//EN"
 "http://www.w3.org/Graphics/SVG/1.1/DTD/svg11.dtd">
<!-- Generated by graphviz version 2.38.0 (20140413.2041)
 -->
<!-- Title: src/modules/websock&#45;api/api/ScheduleCRUD.hpp Pages: 1 -->
<svg width="1343pt" height="397pt"
 viewBox="0.00 0.00 1342.50 397.00" xmlns="http://www.w3.org/2000/svg" xmlns:xlink="http://www.w3.org/1999/xlink">
<g id="graph0" class="graph" transform="scale(1 1) rotate(0) translate(4 393)">
<title>src/modules/websock&#45;api/api/ScheduleCRUD.hpp</title>
<polygon fill="white" stroke="none" points="-4,4 -4,-393 1338.5,-393 1338.5,4 -4,4"/>
<!-- Node0 -->
<g id="node1" class="node"><title>Node0</title>
<polygon fill="#bfbfbf" stroke="black" points="528,-358.5 528,-388.5 668,-388.5 668,-358.5 528,-358.5"/>
<text text-anchor="start" x="536" y="-376.5" font-family="Helvetica,sans-Serif" font-size="10.00">src/modules/websock</text>
<text text-anchor="middle" x="598" y="-365.5" font-family="Helvetica,sans-Serif" font-size="10.00">&#45;api/api/ScheduleCRUD.hpp</text>
</g>
<!-- Node1 -->
<g id="node2" class="node"><title>Node1</title>
<g id="a_node2"><a xlink:href="../../dc/df4/CRUDResourceHandler_8hpp.html" target="_top" xlink:title="api/CRUDResourceHandler.hpp">
<polygon fill="white" stroke="black" points="238.5,-302.5 238.5,-321.5 395.5,-321.5 395.5,-302.5 238.5,-302.5"/>
<text text-anchor="middle" x="317" y="-309.5" font-family="Helvetica,sans-Serif" font-size="10.00">api/CRUDResourceHandler.hpp</text>
</a>
</g>
</g>
<!-- Node0&#45;&gt;Node1 -->
<g id="edge1" class="edge"><title>Node0&#45;&gt;Node1</title>
<path fill="none" stroke="midnightblue" d="M531.763,-358.475C481.379,-347.806 413.116,-333.352 367.192,-323.628"/>
<polygon fill="midnightblue" stroke="midnightblue" points="367.681,-320.154 357.173,-321.506 366.231,-327.002 367.681,-320.154"/>
</g>
<!-- Node19 -->
<g id="node20" class="node"><title>Node19</title>
<g id="a_node20"><a xlink:href="../../d8/d97/ToolsFwd_8hpp.html" target="_top" xlink:title="tools/ToolsFwd.hpp">
<polygon fill="white" stroke="black" points="874,-118 874,-137 976,-137 976,-118 874,-118"/>
<text text-anchor="middle" x="925" y="-125" font-family="Helvetica,sans-Serif" font-size="10.00">tools/ToolsFwd.hpp</text>
</a>
</g>
</g>
<!-- Node0&#45;&gt;Node19 -->
<g id="edge44" class="edge"><title>Node0&#45;&gt;Node19</title>
<path fill="none" stroke="midnightblue" d="M618.744,-358.345C648.061,-338.233 703.156,-300.043 749,-266 807.333,-222.683 874.566,-169.11 906.418,-143.504"/>
<polygon fill="midnightblue" stroke="midnightblue" points="908.833,-146.053 914.426,-137.055 904.442,-140.601 908.833,-146.053"/>
</g>
<!-- Node2 -->
<g id="node3" class="node"><title>Node2</title>
<g id="a_node3"><a xlink:href="../../df/d2f/UserSecurityContext_8hpp.html" target="_top" xlink:title="core/UserSecurityContext.hpp">
<polygon fill="white" stroke="black" points="591.5,-241 591.5,-260 740.5,-260 740.5,-241 591.5,-241"/>
<text text-anchor="middle" x="666" y="-248" font-family="Helvetica,sans-Serif" font-size="10.00">core/UserSecurityContext.hpp</text>
</a>
</g>
</g>
<!-- Node1&#45;&gt;Node2 -->
<g id="edge2" class="edge"><title>Node1&#45;&gt;Node2</title>
<path fill="none" stroke="midnightblue" d="M367.003,-302.475C430.109,-291.716 538.539,-273.23 606.031,-261.724"/>
<polygon fill="midnightblue" stroke="midnightblue" points="606.82,-265.14 616.09,-260.009 605.644,-258.24 606.82,-265.14"/>
</g>
<!-- Node21 -->
<g id="node22" class="node"><title>Node21</title>
<g id="a_node22"><a xlink:href="../../dd/d46/RequestContext_8hpp.html" target="_top" xlink:title="modules/websock&#45;api\l/RequestContext.hpp">
<polygon fill="white" stroke="black" points="261.5,-235.5 261.5,-265.5 372.5,-265.5 372.5,-235.5 261.5,-235.5"/>
<text text-anchor="start" x="269.5" y="-253.5" font-family="Helvetica,sans-Serif" font-size="10.00">modules/websock&#45;api</text>
<text text-anchor="middle" x="317" y="-242.5" font-family="Helvetica,sans-Serif" font-size="10.00">/RequestContext.hpp</text>
</a>
</g>
</g>
<!-- Node1&#45;&gt;Node21 -->
<g id="edge30" class="edge"><title>Node1&#45;&gt;Node21</title>
<path fill="none" stroke="midnightblue" d="M317,-302.475C317,-295.471 317,-285.192 317,-275.696"/>
<polygon fill="midnightblue" stroke="midnightblue" points="320.5,-275.523 317,-265.523 313.5,-275.523 320.5,-275.523"/>
</g>
<!-- Node23 -->
<g id="node24" class="node"><title>Node23</title>
<polygon fill="white" stroke="#bfbfbf" points="262,-118 262,-137 306,-137 306,-118 262,-118"/>
<text text-anchor="middle" x="284" y="-125" font-family="Helvetica,sans-Serif" font-size="10.00">vector</text>
</g>
<!-- Node1&#45;&gt;Node23 -->
<g id="edge43" class="edge"><title>Node1&#45;&gt;Node23</title>
<path fill="none" stroke="midnightblue" d="M338.483,-302.36C353.392,-295.09 372.111,-283.117 381,-266 387.35,-253.773 385.911,-247.873 381,-235 365.916,-195.459 328.391,-161.658 304.683,-143.286"/>
<polygon fill="midnightblue" stroke="midnightblue" points="306.735,-140.45 296.641,-137.233 302.526,-146.043 306.735,-140.45"/>
</g>
<!-- Node24 -->
<g id="node25" class="node"><title>Node24</title>
<g id="a_node25"><a xlink:href="../../d8/d8b/WebSockFwd_8hpp.html" target="_top" xlink:title="WebSockFwd.hpp">
<polygon fill="white" stroke="black" points="82.5,-179.5 82.5,-198.5 179.5,-198.5 179.5,-179.5 82.5,-179.5"/>
<text text-anchor="middle" x="131" y="-186.5" font-family="Helvetica,sans-Serif" font-size="10.00">WebSockFwd.hpp</text>
</a>
</g>
</g>
<!-- Node1&#45;&gt;Node24 -->
<g id="edge40" class="edge"><title>Node1&#45;&gt;Node24</title>
<path fill="none" stroke="midnightblue" d="M278.192,-302.439C252.642,-295.505 219.357,-283.9 194,-266 171.554,-250.155 152.515,-224.351 141.418,-207.275"/>
<polygon fill="midnightblue" stroke="midnightblue" points="144.381,-205.412 136.099,-198.805 138.453,-209.135 144.381,-205.412"/>
</g>
<!-- Node25 -->
<g id="node26" class="node"><title>Node25</title>
<polygon fill="white" stroke="#bfbfbf" points="0,-118 0,-137 96,-137 96,-118 0,-118"/>
<text text-anchor="middle" x="48" y="-125" font-family="Helvetica,sans-Serif" font-size="10.00">boost/optional.hpp</text>
</g>
<!-- Node1&#45;&gt;Node25 -->
<g id="edge41" class="edge"><title>Node1&#45;&gt;Node25</title>
<path fill="none" stroke="midnightblue" d="M269.61,-302.485C237.269,-295.498 194.098,-283.813 159,-266 115.794,-244.071 101.344,-238.297 73,-199 61.7401,-183.389 55.1382,-162.222 51.5752,-147.166"/>
<polygon fill="midnightblue" stroke="midnightblue" points="54.9239,-146.087 49.4159,-137.037 48.0778,-147.547 54.9239,-146.087"/>
</g>
<!-- Node26 -->
<g id="node27" class="node"><title>Node26</title>
<polygon fill="white" stroke="#bfbfbf" points="152.5,-118 152.5,-137 205.5,-137 205.5,-118 152.5,-118"/>
<text text-anchor="middle" x="179" y="-125" font-family="Helvetica,sans-Serif" font-size="10.00">json.hpp</text>
</g>
<!-- Node1&#45;&gt;Node26 -->
<g id="edge42" class="edge"><title>Node1&#45;&gt;Node26</title>
<path fill="none" stroke="midnightblue" d="M300.396,-302.474C286.177,-294.533 265.86,-281.592 252,-266 219.186,-229.086 196.022,-174.808 185.451,-146.766"/>
<polygon fill="midnightblue" stroke="midnightblue" points="188.634,-145.279 181.914,-137.088 182.059,-147.682 188.634,-145.279"/>
</g>
<!-- Node3 -->
<g id="node4" class="node"><title>Node3</title>
<g id="a_node4"><a xlink:href="../../d1/d3e/SecurityContext_8hpp.html" target="_top" xlink:title="core/SecurityContext.hpp">
<polygon fill="white" stroke="black" points="602,-179.5 602,-198.5 730,-198.5 730,-179.5 602,-179.5"/>
<text text-anchor="middle" x="666" y="-186.5" font-family="Helvetica,sans-Serif" font-size="10.00">core/SecurityContext.hpp</text>
</a>
</g>
</g>
<!-- Node2&#45;&gt;Node3 -->
<g id="edge3" class="edge"><title>Node2&#45;&gt;Node3</title>
<path fill="none" stroke="midnightblue" d="M666,-240.975C666,-232.58 666,-219.481 666,-208.663"/>
<polygon fill="midnightblue" stroke="midnightblue" points="669.5,-208.509 666,-198.509 662.5,-208.509 669.5,-208.509"/>
</g>
<!-- Node9 -->
<g id="node10" class="node"><title>Node9</title>
<g id="a_node10"><a xlink:href="../../d3/d6f/AuthFwd_8hpp.html" target="_top" xlink:title="core/auth/AuthFwd.hpp">
<polygon fill="white" stroke="black" points="738,-118 738,-137 856,-137 856,-118 738,-118"/>
<text text-anchor="middle" x="797" y="-125" font-family="Helvetica,sans-Serif" font-size="10.00">core/auth/AuthFwd.hpp</text>
</a>
</g>
</g>
<!-- Node2&#45;&gt;Node9 -->
<g id="edge29" class="edge"><title>Node2&#45;&gt;Node9</title>
<path fill="none" stroke="midnightblue" d="M680.868,-240.911C696.275,-231.636 720.628,-215.903 739,-199 756.773,-182.648 773.936,-160.785 784.92,-145.765"/>
<polygon fill="midnightblue" stroke="midnightblue" points="787.929,-147.574 790.91,-137.407 782.24,-143.496 787.929,-147.574"/>
</g>
<!-- Node4 -->
<g id="node5" class="node"><title>Node4</title>
<g id="a_node5"><a xlink:href="../../d7/dcf/AuditFwd_8hpp.html" target="_top" xlink:title="core/audit/AuditFwd.hpp">
<polygon fill="white" stroke="black" points="446,-118 446,-137 568,-137 568,-118 446,-118"/>
<text text-anchor="middle" x="507" y="-125" font-family="Helvetica,sans-Serif" font-size="10.00">core/audit/AuditFwd.hpp</text>
</a>
</g>
</g>
<!-- Node3&#45;&gt;Node4 -->
<g id="edge4" class="edge"><title>Node3&#45;&gt;Node4</title>
<path fill="none" stroke="midnightblue" d="M643.219,-179.475C615.945,-169.269 570.087,-152.108 539.199,-140.549"/>
<polygon fill="midnightblue" stroke="midnightblue" points="540.331,-137.236 529.739,-137.009 537.878,-143.792 540.331,-137.236"/>
</g>
<!-- Node3&#45;&gt;Node9 -->
<g id="edge9" class="edge"><title>Node3&#45;&gt;Node9</title>
<path fill="none" stroke="midnightblue" d="M684.769,-179.475C706.851,-169.445 743.719,-152.7 769.139,-141.155"/>
<polygon fill="midnightblue" stroke="midnightblue" points="770.608,-144.331 778.266,-137.009 767.713,-137.958 770.608,-144.331"/>
</g>
<!-- Node10 -->
<g id="node11" class="node"><title>Node10</title>
<g id="a_node11"><a xlink:href="../../d7/d7f/CredentialFwd_8hpp.html" target="_top" xlink:title="core/credentials/Credential\lFwd.hpp">
<polygon fill="white" stroke="black" points="586.5,-112.5 586.5,-142.5 719.5,-142.5 719.5,-112.5 586.5,-112.5"/>
<text text-anchor="start" x="594.5" y="-130.5" font-family="Helvetica,sans-Serif" font-size="10.00">core/credentials/Credential</text>
<text text-anchor="middle" x="653" y="-119.5" font-family="Helvetica,sans-Serif" font-size="10.00">Fwd.hpp</text>
</a>
</g>
</g>
<!-- Node3&#45;&gt;Node10 -->
<g id="edge13" class="edge"><title>Node3&#45;&gt;Node10</title>
<path fill="none" stroke="midnightblue" d="M664.137,-179.475C662.591,-172.396 660.313,-161.97 658.22,-152.39"/>
<polygon fill="midnightblue" stroke="midnightblue" points="661.618,-151.545 656.064,-142.523 654.779,-153.04 661.618,-151.545"/>
</g>
<!-- Node11 -->
<g id="node12" class="node"><title>Node11</title>
<g id="a_node12"><a xlink:href="../../d9/dc8/HardwareFwd_8hpp.html" target="_top" xlink:title="hardware/HardwareFwd.hpp">
<polygon fill="white" stroke="black" points="994.5,-118 994.5,-137 1133.5,-137 1133.5,-118 994.5,-118"/>
<text text-anchor="middle" x="1064" y="-125" font-family="Helvetica,sans-Serif" font-size="10.00">hardware/HardwareFwd.hpp</text>
</a>
</g>
</g>
<!-- Node3&#45;&gt;Node11 -->
<g id="edge16" class="edge"><title>Node3&#45;&gt;Node11</title>
<path fill="none" stroke="midnightblue" d="M730.273,-179.728C794.781,-171.239 896.943,-157.286 985,-143 992.926,-141.714 1001.28,-140.273 1009.48,-138.812"/>
<polygon fill="midnightblue" stroke="midnightblue" points="1010.13,-142.25 1019.35,-137.028 1008.89,-135.361 1010.13,-142.25"/>
</g>
<!-- Node3&#45;&gt;Node19 -->
<g id="edge24" class="edge"><title>Node3&#45;&gt;Node19</title>
<path fill="none" stroke="midnightblue" d="M704.56,-179.457C744.678,-170.527 809.298,-156.028 865,-143 869.96,-141.84 875.146,-140.611 880.304,-139.378"/>
<polygon fill="midnightblue" stroke="midnightblue" points="881.215,-142.759 890.121,-137.021 879.58,-135.953 881.215,-142.759"/>
</g>
<!-- Node20 -->
<g id="node21" class="node"><title>Node20</title>
<g id="a_node21"><a xlink:href="../../d9/d69/db__fwd_8hpp.html" target="_top" xlink:title="tools/db/db_fwd.hpp">
<polygon fill="white" stroke="black" points="324,-118 324,-137 428,-137 428,-118 324,-118"/>
<text text-anchor="middle" x="376" y="-125" font-family="Helvetica,sans-Serif" font-size="10.00">tools/db/db_fwd.hpp</text>
</a>
</g>
</g>
<!-- Node3&#45;&gt;Node20 -->
<g id="edge27" class="edge"><title>Node3&#45;&gt;Node20</title>
<path fill="none" stroke="midnightblue" d="M619.835,-179.48C573.508,-170.801 500.155,-156.706 437,-143 431.681,-141.846 426.113,-140.589 420.596,-139.314"/>
<polygon fill="midnightblue" stroke="midnightblue" points="421.319,-135.889 410.785,-137.018 419.724,-142.705 421.319,-135.889"/>
</g>
<!-- Node5 -->
<g id="node6" class="node"><title>Node5</title>
<polygon fill="white" stroke="#bfbfbf" points="605.5,-56.5 605.5,-75.5 654.5,-75.5 654.5,-56.5 605.5,-56.5"/>
<text text-anchor="middle" x="630" y="-63.5" font-family="Helvetica,sans-Serif" font-size="10.00">cstddef</text>
</g>
<!-- Node4&#45;&gt;Node5 -->
<g id="edge5" class="edge"><title>Node4&#45;&gt;Node5</title>
<path fill="none" stroke="midnightblue" d="M524.623,-117.975C545.174,-108.034 579.364,-91.4947 603.207,-79.961"/>
<polygon fill="midnightblue" stroke="midnightblue" points="604.932,-83.0145 612.41,-75.5091 601.884,-76.7131 604.932,-83.0145"/>
</g>
<!-- Node6 -->
<g id="node7" class="node"><title>Node6</title>
<polygon fill="white" stroke="#bfbfbf" points="490.5,-56.5 490.5,-75.5 555.5,-75.5 555.5,-56.5 490.5,-56.5"/>
<text text-anchor="middle" x="523" y="-63.5" font-family="Helvetica,sans-Serif" font-size="10.00">flagset.hpp</text>
</g>
<!-- Node4&#45;&gt;Node6 -->
<g id="edge6" class="edge"><title>Node4&#45;&gt;Node6</title>
<path fill="none" stroke="midnightblue" d="M509.292,-117.975C511.574,-109.492 515.147,-96.2043 518.073,-85.3222"/>
<polygon fill="midnightblue" stroke="midnightblue" points="521.495,-86.0749 520.712,-75.5091 514.735,-84.2571 521.495,-86.0749"/>
</g>
<!-- Node7 -->
<g id="node8" class="node"><title>Node7</title>
<polygon fill="white" stroke="#bfbfbf" points="420,-56.5 420,-75.5 472,-75.5 472,-56.5 420,-56.5"/>
<text text-anchor="middle" x="446" y="-63.5" font-family="Helvetica,sans-Serif" font-size="10.00">memory</text>
</g>
<!-- Node4&#45;&gt;Node7 -->
<g id="edge7" class="edge"><title>Node4&#45;&gt;Node7</title>
<path fill="none" stroke="midnightblue" d="M498.26,-117.975C488.838,-108.785 473.636,-93.9563 462.051,-82.656"/>
<polygon fill="midnightblue" stroke="midnightblue" points="464.326,-79.9861 454.724,-75.5091 459.438,-84.9971 464.326,-79.9861"/>
</g>
<!-- Node8 -->
<g id="node9" class="node"><title>Node8</title>
<polygon fill="white" stroke="#bfbfbf" points="737,-56.5 737,-75.5 823,-75.5 823,-56.5 737,-56.5"/>
<text text-anchor="middle" x="780" y="-63.5" font-family="Helvetica,sans-Serif" font-size="10.00">odb/lazy&#45;ptr.hxx</text>
</g>
<!-- Node4&#45;&gt;Node8 -->
<g id="edge8" class="edge"><title>Node4&#45;&gt;Node8</title>
<path fill="none" stroke="midnightblue" d="M546.114,-117.975C594.869,-107.349 678.211,-89.1847 731.124,-77.6524"/>
<polygon fill="midnightblue" stroke="midnightblue" points="731.933,-81.0584 740.958,-75.5091 730.442,-74.2189 731.933,-81.0584"/>
</g>
<!-- Node9&#45;&gt;Node5 -->
<g id="edge10" class="edge"><title>Node9&#45;&gt;Node5</title>
<path fill="none" stroke="midnightblue" d="M773.073,-117.975C744.303,-107.725 695.844,-90.4593 663.398,-78.8994"/>
<polygon fill="midnightblue" stroke="midnightblue" points="664.477,-75.5684 653.883,-75.5091 662.128,-82.1624 664.477,-75.5684"/>
</g>
<!-- Node9&#45;&gt;Node7 -->
<g id="edge11" class="edge"><title>Node9&#45;&gt;Node7</title>
<path fill="none" stroke="midnightblue" d="M758.399,-117.945C748.513,-115.876 737.883,-113.757 728,-112 621.975,-93.1521 591.534,-97.5581 482.404,-76.1003"/>
<polygon fill="midnightblue" stroke="midnightblue" points="482.795,-72.6094 472.304,-74.0854 481.426,-79.4742 482.795,-72.6094"/>
</g>
<!-- Node9&#45;&gt;Node8 -->
<g id="edge12" class="edge"><title>Node9&#45;&gt;Node8</title>
<path fill="none" stroke="midnightblue" d="M794.564,-117.975C792.141,-109.492 788.344,-96.2043 785.235,-85.3222"/>
<polygon fill="midnightblue" stroke="midnightblue" points="788.544,-84.1628 782.431,-75.5091 781.813,-86.0859 788.544,-84.1628"/>
</g>
<!-- Node10&#45;&gt;Node7 -->
<g id="edge14" class="edge"><title>Node10&#45;&gt;Node7</title>
<path fill="none" stroke="midnightblue" d="M604.206,-112.475C566.727,-101.702 515.816,-87.0679 481.983,-77.343"/>
<polygon fill="midnightblue" stroke="midnightblue" points="482.643,-73.891 472.065,-74.4922 480.709,-80.6186 482.643,-73.891"/>
</g>
<!-- Node10&#45;&gt;Node8 -->
<g id="edge15" class="edge"><title>Node10&#45;&gt;Node8</title>
<path fill="none" stroke="midnightblue" d="M683.097,-112.399C704.12,-102.55 731.972,-89.5014 752.419,-79.9217"/>
<polygon fill="midnightblue" stroke="midnightblue" points="753.95,-83.0698 761.52,-75.6578 750.98,-76.7309 753.95,-83.0698"/>
</g>
<!-- Node12 -->
<g id="node13" class="node"><title>Node12</title>
<g id="a_node13"><a xlink:href="../../dc/dea/Uuid_8hpp.html" target="_top" xlink:title="tools/Uuid.hpp">
<polygon fill="white" stroke="black" points="1024,-56.5 1024,-75.5 1104,-75.5 1104,-56.5 1024,-56.5"/>
<text text-anchor="middle" x="1064" y="-63.5" font-family="Helvetica,sans-Serif" font-size="10.00">tools/Uuid.hpp</text>
</a>
</g>
</g>
<!-- Node11&#45;&gt;Node12 -->
<g id="edge17" class="edge"><title>Node11&#45;&gt;Node12</title>
<path fill="none" stroke="midnightblue" d="M1064,-117.975C1064,-109.58 1064,-96.4806 1064,-85.6631"/>
<polygon fill="midnightblue" stroke="midnightblue" points="1067.5,-85.5091 1064,-75.5091 1060.5,-85.5091 1067.5,-85.5091"/>
</g>
<!-- Node13 -->
<g id="node14" class="node"><title>Node13</title>
<polygon fill="white" stroke="#bfbfbf" points="639,-0.5 639,-19.5 753,-19.5 753,-0.5 639,-0.5"/>
<text text-anchor="middle" x="696" y="-7.5" font-family="Helvetica,sans-Serif" font-size="10.00">boost/lexical_cast.hpp</text>
</g>
<!-- Node12&#45;&gt;Node13 -->
<g id="edge18" class="edge"><title>Node12&#45;&gt;Node13</title>
<path fill="none" stroke="midnightblue" d="M1023.92,-59.1183C961.252,-49.9228 839.376,-32.0389 763.147,-20.8531"/>
<polygon fill="midnightblue" stroke="midnightblue" points="763.567,-17.3773 753.165,-19.3883 762.551,-24.3032 763.567,-17.3773"/>
</g>
<!-- Node14 -->
<g id="node15" class="node"><title>Node14</title>
<polygon fill="white" stroke="#bfbfbf" points="771.5,-0.5 771.5,-19.5 932.5,-19.5 932.5,-0.5 771.5,-0.5"/>
<text text-anchor="middle" x="852" y="-7.5" font-family="Helvetica,sans-Serif" font-size="10.00">boost/uuid/random_generator.hpp</text>
</g>
<!-- Node12&#45;&gt;Node14 -->
<g id="edge19" class="edge"><title>Node12&#45;&gt;Node14</title>
<path fill="none" stroke="midnightblue" d="M1030.41,-56.4435C993.813,-47.1221 935.162,-32.1828 895.174,-21.9972"/>
<polygon fill="midnightblue" stroke="midnightblue" points="895.989,-18.5932 885.435,-19.5164 894.261,-25.3766 895.989,-18.5932"/>
</g>
<!-- Node15 -->
<g id="node16" class="node"><title>Node15</title>
<polygon fill="white" stroke="#bfbfbf" points="950.5,-0.5 950.5,-19.5 1051.5,-19.5 1051.5,-0.5 950.5,-0.5"/>
<text text-anchor="middle" x="1001" y="-7.5" font-family="Helvetica,sans-Serif" font-size="10.00">boost/uuid/uuid.hpp</text>
</g>
<!-- Node12&#45;&gt;Node15 -->
<g id="edge20" class="edge"><title>Node12&#45;&gt;Node15</title>
<path fill="none" stroke="midnightblue" d="M1053.88,-56.324C1044.47,-48.2631 1030.26,-36.0765 1018.93,-26.3695"/>
<polygon fill="midnightblue" stroke="midnightblue" points="1021.18,-23.6844 1011.31,-19.8339 1016.62,-28.9993 1021.18,-23.6844"/>
</g>
<!-- Node16 -->
<g id="node17" class="node"><title>Node16</title>
<polygon fill="white" stroke="#bfbfbf" points="1070,-0.5 1070,-19.5 1184,-19.5 1184,-0.5 1070,-0.5"/>
<text text-anchor="middle" x="1127" y="-7.5" font-family="Helvetica,sans-Serif" font-size="10.00">boost/uuid/uuid_io.hpp</text>
</g>
<!-- Node12&#45;&gt;Node16 -->
<g id="edge21" class="edge"><title>Node12&#45;&gt;Node16</title>
<path fill="none" stroke="midnightblue" d="M1074.12,-56.324C1083.53,-48.2631 1097.74,-36.0765 1109.07,-26.3695"/>
<polygon fill="midnightblue" stroke="midnightblue" points="1111.38,-28.9993 1116.69,-19.8339 1106.82,-23.6844 1111.38,-28.9993"/>
</g>
<!-- Node17 -->
<g id="node18" class="node"><title>Node17</title>
<polygon fill="white" stroke="#bfbfbf" points="1202.5,-0.5 1202.5,-19.5 1275.5,-19.5 1275.5,-0.5 1202.5,-0.5"/>
<text text-anchor="middle" x="1239" y="-7.5" font-family="Helvetica,sans-Serif" font-size="10.00">odb/core.hxx</text>
</g>
<!-- Node12&#45;&gt;Node17 -->
<g id="edge22" class="edge"><title>Node12&#45;&gt;Node17</title>
<path fill="none" stroke="midnightblue" d="M1091.73,-56.4435C1121.43,-47.2801 1168.72,-32.6876 1201.67,-22.5192"/>
<polygon fill="midnightblue" stroke="midnightblue" points="1202.88,-25.8094 1211.4,-19.5164 1200.81,-19.1206 1202.88,-25.8094"/>
</g>
<!-- Node18 -->
<g id="node19" class="node"><title>Node18</title>
<polygon fill="white" stroke="#bfbfbf" points="1293.5,-0.5 1293.5,-19.5 1334.5,-19.5 1334.5,-0.5 1293.5,-0.5"/>
<text text-anchor="middle" x="1314" y="-7.5" font-family="Helvetica,sans-Serif" font-size="10.00">string</text>
</g>
<!-- Node12&#45;&gt;Node18 -->
<g id="edge23" class="edge"><title>Node12&#45;&gt;Node18</title>
<path fill="none" stroke="midnightblue" d="M1104.2,-58.0645C1146.61,-50.4708 1215.57,-37.3445 1283.47,-20.2052"/>
<polygon fill="midnightblue" stroke="midnightblue" points="1284.66,-23.5148 1293.48,-17.6475 1282.92,-16.7328 1284.66,-23.5148"/>
</g>
<!-- Node19&#45;&gt;Node7 -->
<g id="edge25" class="edge"><title>Node19&#45;&gt;Node7</title>
<path fill="none" stroke="midnightblue" d="M893.413,-117.967C884.299,-115.75 874.302,-113.552 865,-112 699.141,-84.3313 651.667,-104.631 482.281,-75.958"/>
<polygon fill="midnightblue" stroke="midnightblue" points="482.726,-72.4832 472.276,-74.2321 481.536,-79.3813 482.726,-72.4832"/>
</g>
<!-- Node19&#45;&gt;Node8 -->
<g id="edge26" class="edge"><title>Node19&#45;&gt;Node8</title>
<path fill="none" stroke="midnightblue" d="M904.225,-117.975C879.568,-107.857 838.255,-90.9046 810.098,-79.3507"/>
<polygon fill="midnightblue" stroke="midnightblue" points="811.317,-76.0674 800.736,-75.5091 808.659,-82.5434 811.317,-76.0674"/>
</g>
<!-- Node20&#45;&gt;Node7 -->
<g id="edge28" class="edge"><title>Node20&#45;&gt;Node7</title>
<path fill="none" stroke="midnightblue" d="M386.029,-117.975C397.049,-108.608 414.96,-93.3839 428.343,-82.0081"/>
<polygon fill="midnightblue" stroke="midnightblue" points="430.637,-84.6524 435.989,-75.5091 426.103,-79.3188 430.637,-84.6524"/>
</g>
<!-- Node21&#45;&gt;Node4 -->
<g id="edge38" class="edge"><title>Node21&#45;&gt;Node4</title>
<path fill="none" stroke="midnightblue" d="M339.167,-235.383C375.806,-212.05 448.565,-165.714 485.056,-142.475"/>
<polygon fill="midnightblue" stroke="midnightblue" points="486.953,-145.416 493.508,-137.092 483.193,-139.512 486.953,-145.416"/>
</g>
<!-- Node21&#45;&gt;Node20 -->
<g id="edge39" class="edge"><title>Node21&#45;&gt;Node20</title>
<path fill="none" stroke="midnightblue" d="M324,-235.145C334.844,-212.906 355.674,-170.186 367.412,-146.113"/>
<polygon fill="midnightblue" stroke="midnightblue" points="370.593,-147.575 371.83,-137.052 364.301,-144.507 370.593,-147.575"/>
</g>
<!-- Node22 -->
<g id="node23" class="node"><title>Node22</title>
<g id="a_node23"><a xlink:href="../../dc/d49/LeosacFwd_8hpp.html" target="_top" xlink:title="LeosacFwd.hpp">
<polygon fill="white" stroke="black" points="236,-179.5 236,-198.5 322,-198.5 322,-179.5 236,-179.5"/>
<text text-anchor="middle" x="279" y="-186.5" font-family="Helvetica,sans-Serif" font-size="10.00">LeosacFwd.hpp</text>
</a>
</g>
</g>
<!-- Node21&#45;&gt;Node22 -->
<g id="edge31" class="edge"><title>Node21&#45;&gt;Node22</title>
<path fill="none" stroke="midnightblue" d="M307.995,-235.399C302.587,-226.932 295.668,-216.099 289.946,-207.139"/>
<polygon fill="midnightblue" stroke="midnightblue" points="292.862,-205.202 284.529,-198.658 286.962,-208.97 292.862,-205.202"/>
</g>
<!-- Node21&#45;&gt;Node24 -->
<g id="edge34" class="edge"><title>Node21&#45;&gt;Node24</title>
<path fill="none" stroke="midnightblue" d="M272.921,-235.399C240.781,-225.118 197.743,-211.351 167.518,-201.682"/>
<polygon fill="midnightblue" stroke="midnightblue" points="168.384,-198.284 157.793,-198.571 166.251,-204.951 168.384,-198.284"/>
</g>
<!-- Node22&#45;&gt;Node7 -->
<g id="edge32" class="edge"><title>Node22&#45;&gt;Node7</title>
<path fill="none" stroke="midnightblue" d="M271.021,-179.109C258.364,-163.897 236.702,-132.535 253,-112 272.17,-87.8466 359.117,-75.4551 409.529,-70.196"/>
<polygon fill="midnightblue" stroke="midnightblue" points="410.091,-73.6573 419.694,-69.1804 409.395,-66.692 410.091,-73.6573"/>
</g>
<!-- Node22&#45;&gt;Node23 -->
<g id="edge33" class="edge"><title>Node22&#45;&gt;Node23</title>
<path fill="none" stroke="midnightblue" d="M279.716,-179.475C280.422,-171.08 281.523,-157.981 282.432,-147.163"/>
<polygon fill="midnightblue" stroke="midnightblue" points="285.935,-147.267 283.285,-137.009 278.96,-146.681 285.935,-147.267"/>
</g>
<!-- Node24&#45;&gt;Node7 -->
<g id="edge37" class="edge"><title>Node24&#45;&gt;Node7</title>
<path fill="none" stroke="midnightblue" d="M129.423,-179.262C127.117,-163.425 124.877,-129.958 143,-112 179.92,-75.4166 337.107,-68.4643 409.379,-67.2219"/>
<polygon fill="midnightblue" stroke="midnightblue" points="409.862,-70.7154 419.811,-67.0725 409.762,-63.7161 409.862,-70.7154"/>
</g>
<!-- Node24&#45;&gt;Node25 -->
<g id="edge35" class="edge"><title>Node24&#45;&gt;Node25</title>
<path fill="none" stroke="midnightblue" d="M119.108,-179.475C105.795,-169.931 84.0001,-154.307 68.0432,-142.868"/>
<polygon fill="midnightblue" stroke="midnightblue" points="70.0364,-139.991 59.8698,-137.009 65.958,-145.68 70.0364,-139.991"/>
</g>
<!-- Node24&#45;&gt;Node26 -->
<g id="edge36" class="edge"><title>Node24&#45;&gt;Node26</title>
<path fill="none" stroke="midnightblue" d="M137.877,-179.475C145.149,-170.462 156.795,-156.025 165.841,-144.812"/>
<polygon fill="midnightblue" stroke="midnightblue" points="168.581,-146.99 172.136,-137.009 163.133,-142.595 168.581,-146.99"/>
</g>
</g>
</svg>
