<?xml version="1.0" encoding="UTF-8" standalone="no"?>
<!DOCTYPE svg PUBLIC "-//W3C//DTD SVG 1.1//EN"
 "http://www.w3.org/Graphics/SVG/1.1/DTD/svg11.dtd">
<!-- Generated by graphviz version 2.38.0 (20140413.2041)
 -->
<!-- Title: Leosac::Audit::AuditEntry Pages: 1 -->
<svg width="730pt" height="210pt"
 viewBox="0.00 0.00 730.00 209.50" xmlns="http://www.w3.org/2000/svg" xmlns:xlink="http://www.w3.org/1999/xlink">
<g id="graph0" class="graph" transform="scale(1 1) rotate(0) translate(4 205.5)">
<title>Leosac::Audit::AuditEntry</title>
<polygon fill="white" stroke="none" points="-4,4 -4,-205.5 726,-205.5 726,4 -4,4"/>
<!-- Node15 -->
<g id="node1" class="node"><title>Node15</title>
<polygon fill="#bfbfbf" stroke="black" points="382,-94 382,-113 510,-113 510,-94 382,-94"/>
<text text-anchor="middle" x="446" y="-101" font-family="Helvetica,sans-Serif" font-size="10.00">Leosac::Audit::AuditEntry</text>
</g>
<!-- Node21 -->
<g id="node7" class="node"><title>Node21</title>
<polygon fill="white" stroke="#bfbfbf" points="582,-94 582,-113 722,-113 722,-94 582,-94"/>
<text text-anchor="middle" x="652" y="-101" font-family="Helvetica,sans-Serif" font-size="10.00">std::weak_ptr&lt; AuditEntry &gt;</text>
</g>
<!-- Node15&#45;&gt;Node21 -->
<g id="edge7" class="edge"><title>Node15&#45;&gt;Node21</title>
<path fill="none" stroke="#9a32cd" stroke-dasharray="5,2" d="M520.165,-103.5C540.233,-103.5 561.923,-103.5 581.763,-103.5"/>
<polygon fill="#9a32cd" stroke="#9a32cd" points="520.15,-100 510.15,-103.5 520.15,-107 520.15,-100"/>
<text text-anchor="middle" x="546" y="-106.5" font-family="Helvetica,sans-Serif" font-size="10.00"> ptr</text>
</g>
<!-- Node16 -->
<g id="node2" class="node"><title>Node16</title>
<g id="a_node2"><a xlink:href="../../d1/d44/classLeosac_1_1Audit_1_1IAuditEntry.html" target="_top" xlink:title="Base interface to Audit object. ">
<polygon fill="white" stroke="black" points="167,-182 167,-201 298,-201 298,-182 167,-182"/>
<text text-anchor="middle" x="232.5" y="-189" font-family="Helvetica,sans-Serif" font-size="10.00">Leosac::Audit::IAuditEntry</text>
</a>
</g>
</g>
<!-- Node16&#45;&gt;Node15 -->
<g id="edge1" class="edge"><title>Node16&#45;&gt;Node15</title>
<path fill="none" stroke="midnightblue" d="M283.311,-179.091C289.992,-177.076 296.707,-174.866 303,-172.5 349.694,-154.946 401.766,-127.477 427.969,-113.063"/>
<polygon fill="midnightblue" stroke="midnightblue" points="282.233,-175.759 273.599,-181.9 284.177,-182.484 282.233,-175.759"/>
</g>
<!-- Node17 -->
<g id="node3" class="node"><title>Node17</title>
<g id="a_node3"><a xlink:href="../../d0/d33/classLeosac_1_1Tools_1_1IVisitable.html" target="_top" xlink:title="Base class to make an object visitable. ">
<polygon fill="white" stroke="black" points="0,-182 0,-201 125,-201 125,-182 0,-182"/>
<text text-anchor="middle" x="62.5" y="-189" font-family="Helvetica,sans-Serif" font-size="10.00">Leosac::Tools::IVisitable</text>
</a>
</g>
</g>
<!-- Node17&#45;&gt;Node16 -->
<g id="edge2" class="edge"><title>Node17&#45;&gt;Node16</title>
<path fill="none" stroke="midnightblue" d="M135.421,-191.5C145.847,-191.5 156.527,-191.5 166.8,-191.5"/>
<polygon fill="midnightblue" stroke="midnightblue" points="135.103,-188 125.103,-191.5 135.103,-195 135.103,-188"/>
</g>
<!-- Node18 -->
<g id="node4" class="node"><title>Node18</title>
<polygon fill="white" stroke="#bfbfbf" points="169.5,-132.5 169.5,-162.5 295.5,-162.5 295.5,-132.5 169.5,-132.5"/>
<text text-anchor="start" x="177.5" y="-150.5" font-family="Helvetica,sans-Serif" font-size="10.00">std::enable_shared</text>
<text text-anchor="middle" x="232.5" y="-139.5" font-family="Helvetica,sans-Serif" font-size="10.00">_from_this&lt; AuditEntry &gt;</text>
</g>
<!-- Node18&#45;&gt;Node15 -->
<g id="edge3" class="edge"><title>Node18&#45;&gt;Node15</title>
<path fill="none" stroke="midnightblue" d="M305.424,-132.537C336.423,-126.088 371.756,-118.738 399.116,-113.046"/>
<polygon fill="midnightblue" stroke="midnightblue" points="304.605,-129.132 295.528,-134.596 306.031,-135.986 304.605,-129.132"/>
</g>
<!-- Node19 -->
<g id="node5" class="node"><title>Node19</title>
<polygon fill="white" stroke="#bfbfbf" points="162.5,-94 162.5,-113 302.5,-113 302.5,-94 162.5,-94"/>
<text text-anchor="middle" x="232.5" y="-101" font-family="Helvetica,sans-Serif" font-size="10.00">std::vector&lt; AuditEntryPtr &gt;</text>
</g>
<!-- Node19&#45;&gt;Node15 -->
<g id="edge4" class="edge"><title>Node19&#45;&gt;Node15</title>
<path fill="none" stroke="#9a32cd" stroke-dasharray="5,2" d="M313.035,-103.5C335.711,-103.5 360.103,-103.5 381.673,-103.5"/>
<polygon fill="#9a32cd" stroke="#9a32cd" points="312.753,-100 302.753,-103.5 312.753,-107 312.753,-100"/>
<text text-anchor="middle" x="342.5" y="-106.5" font-family="Helvetica,sans-Serif" font-size="10.00"> children_</text>
</g>
<!-- Node20 -->
<g id="node6" class="node"><title>Node20</title>
<g id="a_node6"><a xlink:href="../../dd/d95/classLeosac_1_1Tools_1_1ElapsedTimeCounter.html" target="_top" xlink:title="This class provide a simple to get the elapsed time since it&#39;s creation. ">
<polygon fill="white" stroke="black" points="162,-44.5 162,-74.5 303,-74.5 303,-44.5 162,-44.5"/>
<text text-anchor="start" x="170" y="-62.5" font-family="Helvetica,sans-Serif" font-size="10.00">Leosac::Tools::ElapsedTime</text>
<text text-anchor="middle" x="232.5" y="-51.5" font-family="Helvetica,sans-Serif" font-size="10.00">Counter</text>
</a>
</g>
</g>
<!-- Node20&#45;&gt;Node15 -->
<g id="edge5" class="edge"><title>Node20&#45;&gt;Node15</title>
<path fill="none" stroke="#9a32cd" stroke-dasharray="5,2" d="M313.174,-76.0753C342.182,-82.11 373.982,-88.7255 399.08,-93.9469"/>
<polygon fill="#9a32cd" stroke="#9a32cd" points="313.549,-72.5784 303.046,-73.9682 312.123,-79.4317 313.549,-72.5784"/>
<text text-anchor="middle" x="342.5" y="-88.5" font-family="Helvetica,sans-Serif" font-size="10.00"> etc_</text>
</g>
<!-- Node21&#45;&gt;Node15 -->
<g id="edge6" class="edge"><title>Node21&#45;&gt;Node15</title>
<path fill="none" stroke="#9a32cd" stroke-dasharray="5,2" d="M602.536,-92.0811C579.924,-88.0679 552.626,-85.0911 528,-87.5 514.59,-88.8118 500.107,-91.3175 487.147,-93.9634"/>
<polygon fill="#9a32cd" stroke="#9a32cd" points="602.092,-95.5591 612.568,-93.9823 603.395,-88.6815 602.092,-95.5591"/>
<text text-anchor="middle" x="546" y="-90.5" font-family="Helvetica,sans-Serif" font-size="10.00"> parent_</text>
</g>
<!-- Node22 -->
<g id="node8" class="node"><title>Node22</title>
<g id="a_node8"><a xlink:title="STL class. ">
<polygon fill="white" stroke="#bfbfbf" points="202.5,-6 202.5,-25 262.5,-25 262.5,-6 202.5,-6"/>
<text text-anchor="middle" x="232.5" y="-13" font-family="Helvetica,sans-Serif" font-size="10.00">std::string</text>
</a>
</g>
</g>
<!-- Node22&#45;&gt;Node15 -->
<g id="edge8" class="edge"><title>Node22&#45;&gt;Node15</title>
<path fill="none" stroke="#9a32cd" stroke-dasharray="5,2" d="M272.415,-24.7731C282.495,-27.5452 293.253,-30.8356 303,-34.5 349.694,-52.0539 401.766,-79.5231 427.969,-93.9371"/>
<polygon fill="#9a32cd" stroke="#9a32cd" points="273.186,-21.3568 262.624,-22.179 271.394,-28.1233 273.186,-21.3568"/>
<text text-anchor="middle" x="342.5" y="-63.5" font-family="Helvetica,sans-Serif" font-size="10.00"> msg_</text>
</g>
<!-- Node23 -->
<g id="node9" class="node"><title>Node23</title>
<g id="a_node9"><a xlink:title="STL class. ">
<polygon fill="white" stroke="#bfbfbf" points="15,-0.5 15,-30.5 110,-30.5 110,-0.5 15,-0.5"/>
<text text-anchor="start" x="23" y="-18.5" font-family="Helvetica,sans-Serif" font-size="10.00">std::basic_string&lt;</text>
<text text-anchor="middle" x="62.5" y="-7.5" font-family="Helvetica,sans-Serif" font-size="10.00"> char &gt;</text>
</a>
</g>
</g>
<!-- Node23&#45;&gt;Node22 -->
<g id="edge9" class="edge"><title>Node23&#45;&gt;Node22</title>
<path fill="none" stroke="midnightblue" d="M120.595,-15.5C148.087,-15.5 179.879,-15.5 202.357,-15.5"/>
<polygon fill="midnightblue" stroke="midnightblue" points="120.297,-12.0001 110.297,-15.5 120.297,-19.0001 120.297,-12.0001"/>
</g>
</g>
</svg>
