<?xml version="1.0" encoding="UTF-8" standalone="no"?>
<!DOCTYPE svg PUBLIC "-//W3C//DTD SVG 1.1//EN"
 "http://www.w3.org/Graphics/SVG/1.1/DTD/svg11.dtd">
<!-- Generated by graphviz version 2.38.0 (20140413.2041)
 -->
<!-- Title: test/helper/FakeWiegandReader.hpp Pages: 1 -->
<svg width="286pt" height="84pt"
 viewBox="0.00 0.00 285.50 84.00" xmlns="http://www.w3.org/2000/svg" xmlns:xlink="http://www.w3.org/1999/xlink">
<g id="graph0" class="graph" transform="scale(1 1) rotate(0) translate(4 80)">
<title>test/helper/FakeWiegandReader.hpp</title>
<polygon fill="white" stroke="none" points="-4,4 -4,-80 281.5,-80 281.5,4 -4,4"/>
<!-- Node2 -->
<g id="node1" class="node"><title>Node2</title>
<polygon fill="#bfbfbf" stroke="black" points="74,-56.5 74,-75.5 250,-75.5 250,-56.5 74,-56.5"/>
<text text-anchor="middle" x="162" y="-63.5" font-family="Helvetica,sans-Serif" font-size="10.00">test/helper/FakeWiegandReader.hpp</text>
</g>
<!-- Node3 -->
<g id="node2" class="node"><title>Node3</title>
<g id="a_node2"><a xlink:href="../../d8/daf/FakeWiegandReader_8cpp.html" target="_top" xlink:title="test/helper/FakeWiegandReader.cpp">
<polygon fill="white" stroke="black" points="0,-0.5 0,-19.5 176,-19.5 176,-0.5 0,-0.5"/>
<text text-anchor="middle" x="88" y="-7.5" font-family="Helvetica,sans-Serif" font-size="10.00">test/helper/FakeWiegandReader.cpp</text>
</a>
</g>
</g>
<!-- Node2&#45;&gt;Node3 -->
<g id="edge1" class="edge"><title>Node2&#45;&gt;Node3</title>
<path fill="none" stroke="midnightblue" d="M141.966,-50.3804C128.591,-40.6204 111.441,-28.1057 100.106,-19.8339"/>
<polygon fill="midnightblue" stroke="midnightblue" points="139.97,-53.2565 150.111,-56.324 144.096,-47.602 139.97,-53.2565"/>
</g>
<!-- Node4 -->
<g id="node3" class="node"><title>Node4</title>
<g id="a_node3"><a xlink:href="../../db/d44/Rpleth_8cpp.html" target="_top" xlink:title="test/Rpleth.cpp">
<polygon fill="white" stroke="black" points="194.5,-0.5 194.5,-19.5 277.5,-19.5 277.5,-0.5 194.5,-0.5"/>
<text text-anchor="middle" x="236" y="-7.5" font-family="Helvetica,sans-Serif" font-size="10.00">test/Rpleth.cpp</text>
</a>
</g>
</g>
<!-- Node2&#45;&gt;Node4 -->
<g id="edge2" class="edge"><title>Node2&#45;&gt;Node4</title>
<path fill="none" stroke="midnightblue" d="M182.034,-50.3804C195.409,-40.6204 212.559,-28.1057 223.894,-19.8339"/>
<polygon fill="midnightblue" stroke="midnightblue" points="179.904,-47.602 173.889,-56.324 184.03,-53.2565 179.904,-47.602"/>
</g>
</g>
</svg>
