<?xml version="1.0" encoding="UTF-8" standalone="no"?>
<!DOCTYPE svg PUBLIC "-//W3C//DTD SVG 1.1//EN"
 "http://www.w3.org/Graphics/SVG/1.1/DTD/svg11.dtd">
<!-- Generated by graphviz version 2.38.0 (20140413.2041)
 -->
<!-- Title: src/core/GetServiceRegistry.hpp Pages: 1 -->
<!--zoomable 240 -->
<svg id="main" version="1.1" xmlns="http://www.w3.org/2000/svg" xmlns:xlink="http://www.w3.org/1999/xlink" xml:space="preserve" onload="init(evt)">
<style type="text/css"><![CDATA[
.edge:hover path { stroke: red; }
.edge:hover polygon { stroke: red; fill: red; }
]]></style>
<script type="text/javascript"><![CDATA[
var edges = document.getElementsByTagName('g');
if (edges && edges.length) {
  for (var i=0;i<edges.length;i++) {
    if (edges[i].id.substr(0,4)=='edge') {
      edges[i].setAttribute('class','edge');
    }
  }
}
]]></script>
        <defs>
                <circle id="rim" cx="0" cy="0" r="7"/>
                <circle id="rim2" cx="0" cy="0" r="3.5"/>
                <g id="zoomPlus">
                        <use xlink:href="#rim" fill="#404040">
                                <set attributeName="fill" to="#808080" begin="zoomplus.mouseover" end="zoomplus.mouseout"/>
                        </use>
                        <path d="M-4,0h8M0,-4v8" fill="none" stroke="white" stroke-width="1.5" pointer-events="none"/>
                </g>
                <g id="zoomMin">
                        <use xlink:href="#rim" fill="#404040">
                                <set attributeName="fill" to="#808080" begin="zoomminus.mouseover" end="zoomminus.mouseout"/>
                        </use>
                        <path d="M-4,0h8" fill="none" stroke="white" stroke-width="1.5" pointer-events="none"/>
                </g>
                <g id="dirArrow">
                        <path fill="none" stroke="white" stroke-width="1.5" d="M0,-3.0v7 M-2.5,-0.5L0,-3.0L2.5,-0.5"/>
                </g>
               <g id="resetDef">
                       <use xlink:href="#rim2" fill="#404040">
                               <set attributeName="fill" to="#808080" begin="reset.mouseover" end="reset.mouseout"/>
                       </use>
               </g>
        </defs>

<script type="text/javascript">
var viewWidth = 4161;
var viewHeight = 240;
var sectionId = 'dynsection-1';
</script>
<script xlink:href="../../svgpan.js"/>
<svg id="graph" class="graph">
<g id="viewport">
<title>src/core/GetServiceRegistry.hpp</title>
<polygon fill="white" stroke="none" points="-4,4 -4,-236 4156.5,-236 4156.5,4 -4,4"/>
<!-- Node44 -->
<g id="node1" class="node"><title>Node44</title>
<polygon fill="#bfbfbf" stroke="black" points="1933,-212.5 1933,-231.5 2092,-231.5 2092,-212.5 1933,-212.5"/>
<text text-anchor="middle" x="2012.5" y="-219.5" font-family="Helvetica,sans-Serif" font-size="10.00">src/core/GetServiceRegistry.hpp</text>
</g>
<!-- Node45 -->
<g id="node2" class="node"><title>Node45</title>
<g id="a_node2"><a xlink:href="../../d5/dce/PolymorphicAuditSerializer_8cpp.html" target="_top" xlink:title="src/core/audit/serializers\l/PolymorphicAuditSerializer.cpp">
<polygon fill="white" stroke="black" points="0,-140 0,-170 155,-170 155,-140 0,-140"/>
<text text-anchor="start" x="8" y="-158" font-family="Helvetica,sans-Serif" font-size="10.00">src/core/audit/serializers</text>
<text text-anchor="middle" x="77.5" y="-147" font-family="Helvetica,sans-Serif" font-size="10.00">/PolymorphicAuditSerializer.cpp</text>
</a>
</g>
</g>
<!-- Node44&#45;&gt;Node45 -->
<g id="edge1" class="edge"><title>Node44&#45;&gt;Node45</title>
<path fill="none" stroke="midnightblue" d="M1922.63,-221.241C1601.26,-221.723 509.736,-220.004 163.5,-176 152.703,-174.628 141.28,-172.478 130.409,-170.088"/>
<polygon fill="midnightblue" stroke="midnightblue" points="1922.84,-224.741 1932.83,-221.224 1922.82,-217.741 1922.84,-224.741"/>
</g>
<!-- Node46 -->
<g id="node3" class="node"><title>Node46</title>
<g id="a_node3"><a xlink:href="../../d8/da2/DoorSerializer_8cpp.html" target="_top" xlink:title="src/core/auth/serializers\l/DoorSerializer.cpp">
<polygon fill="white" stroke="black" points="173,-140 173,-170 294,-170 294,-140 173,-140"/>
<text text-anchor="start" x="181" y="-158" font-family="Helvetica,sans-Serif" font-size="10.00">src/core/auth/serializers</text>
<text text-anchor="middle" x="233.5" y="-147" font-family="Helvetica,sans-Serif" font-size="10.00">/DoorSerializer.cpp</text>
</a>
</g>
</g>
<!-- Node44&#45;&gt;Node46 -->
<g id="edge2" class="edge"><title>Node44&#45;&gt;Node46</title>
<path fill="none" stroke="midnightblue" d="M1922.38,-219.977C1592.64,-216.048 462.619,-200.891 302.5,-176 293.627,-174.621 284.286,-172.435 275.444,-170.006"/>
<polygon fill="midnightblue" stroke="midnightblue" points="1922.8,-223.482 1932.84,-220.101 1922.88,-216.483 1922.8,-223.482"/>
</g>
<!-- Node47 -->
<g id="node4" class="node"><title>Node47</title>
<g id="a_node4"><a xlink:href="../../da/dbe/ZoneSerializer_8cpp.html" target="_top" xlink:title="src/core/auth/serializers\l/ZoneSerializer.cpp">
<polygon fill="white" stroke="black" points="312,-140 312,-170 433,-170 433,-140 312,-140"/>
<text text-anchor="start" x="320" y="-158" font-family="Helvetica,sans-Serif" font-size="10.00">src/core/auth/serializers</text>
<text text-anchor="middle" x="372.5" y="-147" font-family="Helvetica,sans-Serif" font-size="10.00">/ZoneSerializer.cpp</text>
</a>
</g>
</g>
<!-- Node44&#45;&gt;Node47 -->
<g id="edge3" class="edge"><title>Node44&#45;&gt;Node47</title>
<path fill="none" stroke="midnightblue" d="M1922.72,-221.366C1633.9,-222.081 730.789,-220.597 442.5,-176 433.632,-174.628 424.298,-172.479 415.44,-170.089"/>
<polygon fill="midnightblue" stroke="midnightblue" points="1922.74,-224.866 1932.74,-221.34 1922.73,-217.866 1922.74,-224.866"/>
</g>
<!-- Node48 -->
<g id="node5" class="node"><title>Node48</title>
<g id="a_node5"><a xlink:href="../../d6/d5a/CredentialSerializer_8cpp.html" target="_top" xlink:title="src/core/credentials\l/serializers/CredentialSerializer.cpp">
<polygon fill="white" stroke="black" points="451.5,-140 451.5,-170 621.5,-170 621.5,-140 451.5,-140"/>
<text text-anchor="start" x="459.5" y="-158" font-family="Helvetica,sans-Serif" font-size="10.00">src/core/credentials</text>
<text text-anchor="middle" x="536.5" y="-147" font-family="Helvetica,sans-Serif" font-size="10.00">/serializers/CredentialSerializer.cpp</text>
</a>
</g>
</g>
<!-- Node44&#45;&gt;Node48 -->
<g id="edge4" class="edge"><title>Node44&#45;&gt;Node48</title>
<path fill="none" stroke="midnightblue" d="M1922.45,-220.151C1657.23,-217.319 881.825,-206.584 630.5,-176 618.823,-174.579 606.449,-172.424 594.647,-170.047"/>
<polygon fill="midnightblue" stroke="midnightblue" points="1922.77,-223.654 1932.81,-220.26 1922.85,-216.655 1922.77,-223.654"/>
</g>
<!-- Node49 -->
<g id="node6" class="node"><title>Node49</title>
<g id="a_node6"><a xlink:href="../../d9/d6a/GetServiceRegistry_8cpp.html" target="_top" xlink:title="src/core/GetServiceRegistry.cpp">
<polygon fill="white" stroke="black" points="640,-145.5 640,-164.5 799,-164.5 799,-145.5 640,-145.5"/>
<text text-anchor="middle" x="719.5" y="-152.5" font-family="Helvetica,sans-Serif" font-size="10.00">src/core/GetServiceRegistry.cpp</text>
</a>
</g>
</g>
<!-- Node44&#45;&gt;Node49 -->
<g id="edge5" class="edge"><title>Node44&#45;&gt;Node49</title>
<path fill="none" stroke="midnightblue" d="M1922.47,-219.778C1681.18,-216.161 1023.73,-203.964 808.5,-176 789.183,-173.49 767.883,-168.775 750.965,-164.553"/>
<polygon fill="midnightblue" stroke="midnightblue" points="1922.56,-223.28 1932.61,-219.929 1922.66,-216.281 1922.56,-223.28"/>
</g>
<!-- Node50 -->
<g id="node7" class="node"><title>Node50</title>
<g id="a_node7"><a xlink:href="../../de/dd9/UpdateService_8cpp.html" target="_top" xlink:title="src/core/update/UpdateService.cpp">
<polygon fill="white" stroke="black" points="817.5,-145.5 817.5,-164.5 987.5,-164.5 987.5,-145.5 817.5,-145.5"/>
<text text-anchor="middle" x="902.5" y="-152.5" font-family="Helvetica,sans-Serif" font-size="10.00">src/core/update/UpdateService.cpp</text>
</a>
</g>
</g>
<!-- Node44&#45;&gt;Node50 -->
<g id="edge6" class="edge"><title>Node44&#45;&gt;Node50</title>
<path fill="none" stroke="midnightblue" d="M1922.51,-218.924C1708.58,-213.68 1174.2,-198.682 996.5,-176 976.308,-173.423 954.013,-168.76 936.206,-164.584"/>
<polygon fill="midnightblue" stroke="midnightblue" points="1922.68,-222.429 1932.76,-219.174 1922.85,-215.431 1922.68,-222.429"/>
</g>
<!-- Node51 -->
<g id="node8" class="node"><title>Node51</title>
<g id="a_node8"><a xlink:href="../../d2/dc0/Device_8cpp.html" target="_top" xlink:title="src/hardware/Device.cpp">
<polygon fill="white" stroke="black" points="1006,-145.5 1006,-164.5 1131,-164.5 1131,-145.5 1006,-145.5"/>
<text text-anchor="middle" x="1068.5" y="-152.5" font-family="Helvetica,sans-Serif" font-size="10.00">src/hardware/Device.cpp</text>
</a>
</g>
</g>
<!-- Node44&#45;&gt;Node51 -->
<g id="edge7" class="edge"><title>Node44&#45;&gt;Node51</title>
<path fill="none" stroke="midnightblue" d="M1922.97,-218.871C1731.8,-213.917 1289.06,-200.165 1140.5,-176 1124.75,-173.438 1107.51,-168.721 1093.85,-164.511"/>
<polygon fill="midnightblue" stroke="midnightblue" points="1922.9,-222.37 1932.99,-219.128 1923.08,-215.372 1922.9,-222.37"/>
</g>
<!-- Node52 -->
<g id="node9" class="node"><title>Node52</title>
<g id="a_node9"><a xlink:href="../../d6/d24/BuzzerSerializer_8cpp.html" target="_top" xlink:title="src/hardware/serializers\l/BuzzerSerializer.cpp">
<polygon fill="white" stroke="black" points="1149.5,-140 1149.5,-170 1269.5,-170 1269.5,-140 1149.5,-140"/>
<text text-anchor="start" x="1157.5" y="-158" font-family="Helvetica,sans-Serif" font-size="10.00">src/hardware/serializers</text>
<text text-anchor="middle" x="1209.5" y="-147" font-family="Helvetica,sans-Serif" font-size="10.00">/BuzzerSerializer.cpp</text>
</a>
</g>
</g>
<!-- Node44&#45;&gt;Node52 -->
<g id="edge8" class="edge"><title>Node44&#45;&gt;Node52</title>
<path fill="none" stroke="midnightblue" d="M1922.63,-221.845C1783.52,-221.73 1508.14,-215.817 1278.5,-176 1270.02,-174.53 1261.1,-172.399 1252.59,-170.071"/>
<polygon fill="midnightblue" stroke="midnightblue" points="1922.81,-225.345 1932.81,-221.843 1922.81,-218.345 1922.81,-225.345"/>
</g>
<!-- Node53 -->
<g id="node10" class="node"><title>Node53</title>
<g id="a_node10"><a xlink:href="../../d4/d68/LEDSerializer_8cpp.html" target="_top" xlink:title="src/hardware/serializers\l/LEDSerializer.cpp">
<polygon fill="white" stroke="black" points="1287.5,-140 1287.5,-170 1407.5,-170 1407.5,-140 1287.5,-140"/>
<text text-anchor="start" x="1295.5" y="-158" font-family="Helvetica,sans-Serif" font-size="10.00">src/hardware/serializers</text>
<text text-anchor="middle" x="1347.5" y="-147" font-family="Helvetica,sans-Serif" font-size="10.00">/LEDSerializer.cpp</text>
</a>
</g>
</g>
<!-- Node44&#45;&gt;Node53 -->
<g id="edge9" class="edge"><title>Node44&#45;&gt;Node53</title>
<path fill="none" stroke="midnightblue" d="M1922.77,-219.984C1805.49,-217.346 1594.11,-208.088 1416.5,-176 1408.15,-174.492 1399.37,-172.374 1390.98,-170.077"/>
<polygon fill="midnightblue" stroke="midnightblue" points="1922.71,-223.484 1932.79,-220.199 1922.86,-216.485 1922.71,-223.484"/>
</g>
<!-- Node54 -->
<g id="node11" class="node"><title>Node54</title>
<g id="a_node11"><a xlink:href="../../d7/d41/AsioModule_8cpp.html" target="_top" xlink:title="src/modules/AsioModule.cpp">
<polygon fill="white" stroke="black" points="1426,-145.5 1426,-164.5 1569,-164.5 1569,-145.5 1426,-145.5"/>
<text text-anchor="middle" x="1497.5" y="-152.5" font-family="Helvetica,sans-Serif" font-size="10.00">src/modules/AsioModule.cpp</text>
</a>
</g>
</g>
<!-- Node44&#45;&gt;Node54 -->
<g id="edge10" class="edge"><title>Node44&#45;&gt;Node54</title>
<path fill="none" stroke="midnightblue" d="M1922.67,-215.445C1834.35,-209.106 1695.94,-196.823 1577.5,-176 1560.72,-173.05 1542.25,-168.521 1527.3,-164.518"/>
<polygon fill="midnightblue" stroke="midnightblue" points="1922.43,-218.937 1932.65,-216.151 1922.93,-211.954 1922.43,-218.937"/>
</g>
<!-- Node55 -->
<g id="node12" class="node"><title>Node55</title>
<g id="a_node12"><a xlink:href="../../d7/d0d/NotifdModule_8cpp.html" target="_top" xlink:title="src/modules/notifd\l/NotifdModule.cpp">
<polygon fill="white" stroke="black" points="1587,-140 1587,-170 1684,-170 1684,-140 1587,-140"/>
<text text-anchor="start" x="1595" y="-158" font-family="Helvetica,sans-Serif" font-size="10.00">src/modules/notifd</text>
<text text-anchor="middle" x="1635.5" y="-147" font-family="Helvetica,sans-Serif" font-size="10.00">/NotifdModule.cpp</text>
</a>
</g>
</g>
<!-- Node44&#45;&gt;Node55 -->
<g id="edge11" class="edge"><title>Node44&#45;&gt;Node55</title>
<path fill="none" stroke="midnightblue" d="M1922.85,-212.135C1859.65,-204.919 1773.28,-193.105 1698.5,-176 1691.23,-174.337 1683.59,-172.229 1676.24,-170.009"/>
<polygon fill="midnightblue" stroke="midnightblue" points="1922.47,-215.614 1932.79,-213.254 1923.25,-208.658 1922.47,-215.614"/>
</g>
<!-- Node56 -->
<g id="node13" class="node"><title>Node56</title>
<g id="a_node13"><a xlink:href="../../d6/d95/PFDigitalModule_8cpp.html" target="_top" xlink:title="src/modules/pifacedigital\l/PFDigitalModule.cpp">
<polygon fill="white" stroke="black" points="2001,-0.5 2001,-30.5 2126,-30.5 2126,-0.5 2001,-0.5"/>
<text text-anchor="start" x="2009" y="-18.5" font-family="Helvetica,sans-Serif" font-size="10.00">src/modules/pifacedigital</text>
<text text-anchor="middle" x="2063.5" y="-7.5" font-family="Helvetica,sans-Serif" font-size="10.00">/PFDigitalModule.cpp</text>
</a>
</g>
</g>
<!-- Node44&#45;&gt;Node56 -->
<g id="edge12" class="edge"><title>Node44&#45;&gt;Node56</title>
<path fill="none" stroke="midnightblue" d="M1922.57,-218.872C1849.88,-215.027 1755.8,-204.502 1731.5,-176 1719.39,-161.795 1720.73,-149.243 1731.5,-134 1792.56,-47.6244 1922.71,-24.3309 2000.69,-18.3061"/>
<polygon fill="midnightblue" stroke="midnightblue" points="1922.51,-222.374 1932.67,-219.372 1922.86,-215.382 1922.51,-222.374"/>
</g>
<!-- Node57 -->
<g id="node14" class="node"><title>Node57</title>
<g id="a_node14"><a xlink:href="../../da/d6f/SMTPModule_8cpp.html" target="_top" xlink:title="src/modules/smtp/SMTPModule.cpp">
<polygon fill="white" stroke="black" points="1740.5,-145.5 1740.5,-164.5 1916.5,-164.5 1916.5,-145.5 1740.5,-145.5"/>
<text text-anchor="middle" x="1828.5" y="-152.5" font-family="Helvetica,sans-Serif" font-size="10.00">src/modules/smtp/SMTPModule.cpp</text>
</a>
</g>
</g>
<!-- Node44&#45;&gt;Node57 -->
<g id="edge13" class="edge"><title>Node44&#45;&gt;Node57</title>
<path fill="none" stroke="midnightblue" d="M1978.35,-208.936C1941.85,-196.042 1884.9,-175.924 1852.74,-164.564"/>
<polygon fill="midnightblue" stroke="midnightblue" points="1977.47,-212.338 1988.07,-212.369 1979.8,-205.737 1977.47,-212.338"/>
</g>
<!-- Node58 -->
<g id="node15" class="node"><title>Node58</title>
<g id="a_node15"><a xlink:href="../../d7/d29/AccessPointCRUD_8cpp.html" target="_top" xlink:title="src/modules/websock\l&#45;api/api/AccessPointCRUD.cpp">
<polygon fill="white" stroke="black" points="1935,-140 1935,-170 2090,-170 2090,-140 1935,-140"/>
<text text-anchor="start" x="1943" y="-158" font-family="Helvetica,sans-Serif" font-size="10.00">src/modules/websock</text>
<text text-anchor="middle" x="2012.5" y="-147" font-family="Helvetica,sans-Serif" font-size="10.00">&#45;api/api/AccessPointCRUD.cpp</text>
</a>
</g>
</g>
<!-- Node44&#45;&gt;Node58 -->
<g id="edge14" class="edge"><title>Node44&#45;&gt;Node58</title>
<path fill="none" stroke="midnightblue" d="M2012.5,-201.911C2012.5,-191.722 2012.5,-179.401 2012.5,-170.089"/>
<polygon fill="midnightblue" stroke="midnightblue" points="2009,-202.234 2012.5,-212.234 2016,-202.234 2009,-202.234"/>
</g>
<!-- Node59 -->
<g id="node16" class="node"><title>Node59</title>
<g id="a_node16"><a xlink:href="../../d7/d86/APIAuth_8cpp.html" target="_top" xlink:title="src/modules/websock\l&#45;api/api/APIAuth.cpp">
<polygon fill="white" stroke="black" points="2108.5,-140 2108.5,-170 2220.5,-170 2220.5,-140 2108.5,-140"/>
<text text-anchor="start" x="2116.5" y="-158" font-family="Helvetica,sans-Serif" font-size="10.00">src/modules/websock</text>
<text text-anchor="middle" x="2164.5" y="-147" font-family="Helvetica,sans-Serif" font-size="10.00">&#45;api/api/APIAuth.cpp</text>
</a>
</g>
</g>
<!-- Node44&#45;&gt;Node59 -->
<g id="edge15" class="edge"><title>Node44&#45;&gt;Node59</title>
<path fill="none" stroke="midnightblue" d="M2041.93,-208.413C2067.67,-197.406 2105.01,-181.442 2131.7,-170.028"/>
<polygon fill="midnightblue" stroke="midnightblue" points="2040.5,-205.218 2032.68,-212.369 2043.26,-211.655 2040.5,-205.218"/>
</g>
<!-- Node60 -->
<g id="node17" class="node"><title>Node60</title>
<g id="a_node17"><a xlink:href="../../de/dc2/HardwareSearch_8cpp.html" target="_top" xlink:title="src/modules/websock\l&#45;api/api/search/HardwareSearch.cpp">
<polygon fill="white" stroke="black" points="2239,-140 2239,-170 2414,-170 2414,-140 2239,-140"/>
<text text-anchor="start" x="2247" y="-158" font-family="Helvetica,sans-Serif" font-size="10.00">src/modules/websock</text>
<text text-anchor="middle" x="2326.5" y="-147" font-family="Helvetica,sans-Serif" font-size="10.00">&#45;api/api/search/HardwareSearch.cpp</text>
</a>
</g>
</g>
<!-- Node44&#45;&gt;Node60 -->
<g id="edge16" class="edge"><title>Node44&#45;&gt;Node60</title>
<path fill="none" stroke="midnightblue" d="M2063.75,-210.392C2116.83,-199.404 2200.05,-182.176 2258.58,-170.059"/>
<polygon fill="midnightblue" stroke="midnightblue" points="2062.96,-206.981 2053.87,-212.436 2064.37,-213.836 2062.96,-206.981"/>
</g>
<!-- Node61 -->
<g id="node18" class="node"><title>Node61</title>
<g id="a_node18"><a xlink:href="../../d1/deb/AckUpdate_8cpp.html" target="_top" xlink:title="src/modules/websock\l&#45;api/api/update&#45;management\l/AckUpdate.cpp">
<polygon fill="white" stroke="black" points="2432.5,-134.5 2432.5,-175.5 2572.5,-175.5 2572.5,-134.5 2432.5,-134.5"/>
<text text-anchor="start" x="2440.5" y="-163.5" font-family="Helvetica,sans-Serif" font-size="10.00">src/modules/websock</text>
<text text-anchor="start" x="2440.5" y="-152.5" font-family="Helvetica,sans-Serif" font-size="10.00">&#45;api/api/update&#45;management</text>
<text text-anchor="middle" x="2502.5" y="-141.5" font-family="Helvetica,sans-Serif" font-size="10.00">/AckUpdate.cpp</text>
</a>
</g>
</g>
<!-- Node44&#45;&gt;Node61 -->
<g id="edge17" class="edge"><title>Node44&#45;&gt;Node61</title>
<path fill="none" stroke="midnightblue" d="M2102.12,-214.794C2185.72,-208.153 2313.7,-195.81 2423.5,-176 2426.42,-175.472 2429.4,-174.897 2432.4,-174.285"/>
<polygon fill="midnightblue" stroke="midnightblue" points="2101.84,-211.305 2092.14,-215.576 2102.39,-218.283 2101.84,-211.305"/>
</g>
<!-- Node62 -->
<g id="node19" class="node"><title>Node62</title>
<g id="a_node19"><a xlink:href="../../d0/dcd/CancelUpdate_8cpp.html" target="_top" xlink:title="src/modules/websock\l&#45;api/api/update&#45;management\l/CancelUpdate.cpp">
<polygon fill="white" stroke="black" points="2590.5,-134.5 2590.5,-175.5 2730.5,-175.5 2730.5,-134.5 2590.5,-134.5"/>
<text text-anchor="start" x="2598.5" y="-163.5" font-family="Helvetica,sans-Serif" font-size="10.00">src/modules/websock</text>
<text text-anchor="start" x="2598.5" y="-152.5" font-family="Helvetica,sans-Serif" font-size="10.00">&#45;api/api/update&#45;management</text>
<text text-anchor="middle" x="2660.5" y="-141.5" font-family="Helvetica,sans-Serif" font-size="10.00">/CancelUpdate.cpp</text>
</a>
</g>
</g>
<!-- Node44&#45;&gt;Node62 -->
<g id="edge18" class="edge"><title>Node44&#45;&gt;Node62</title>
<path fill="none" stroke="midnightblue" d="M2102.47,-218.577C2215.11,-214.468 2413.68,-203.675 2581.5,-176 2584.43,-175.517 2587.41,-174.978 2590.42,-174.396"/>
<polygon fill="midnightblue" stroke="midnightblue" points="2102.04,-215.089 2092.17,-218.942 2102.29,-222.085 2102.04,-215.089"/>
</g>
<!-- Node63 -->
<g id="node20" class="node"><title>Node63</title>
<g id="a_node20"><a xlink:href="../../d4/d2d/CheckUpdate_8cpp.html" target="_top" xlink:title="src/modules/websock\l&#45;api/api/update&#45;management\l/CheckUpdate.cpp">
<polygon fill="white" stroke="black" points="2748.5,-134.5 2748.5,-175.5 2888.5,-175.5 2888.5,-134.5 2748.5,-134.5"/>
<text text-anchor="start" x="2756.5" y="-163.5" font-family="Helvetica,sans-Serif" font-size="10.00">src/modules/websock</text>
<text text-anchor="start" x="2756.5" y="-152.5" font-family="Helvetica,sans-Serif" font-size="10.00">&#45;api/api/update&#45;management</text>
<text text-anchor="middle" x="2818.5" y="-141.5" font-family="Helvetica,sans-Serif" font-size="10.00">/CheckUpdate.cpp</text>
</a>
</g>
</g>
<!-- Node44&#45;&gt;Node63 -->
<g id="edge19" class="edge"><title>Node44&#45;&gt;Node63</title>
<path fill="none" stroke="midnightblue" d="M2102.18,-220.798C2240.02,-219.287 2511.87,-211.542 2739.5,-176 2742.44,-175.542 2745.42,-175.024 2748.43,-174.46"/>
<polygon fill="midnightblue" stroke="midnightblue" points="2102.06,-217.299 2092.09,-220.901 2102.13,-224.299 2102.06,-217.299"/>
</g>
<!-- Node64 -->
<g id="node21" class="node"><title>Node64</title>
<g id="a_node21"><a xlink:href="../../dd/d7b/CreateUpdate_8cpp.html" target="_top" xlink:title="src/modules/websock\l&#45;api/api/update&#45;management\l/CreateUpdate.cpp">
<polygon fill="white" stroke="black" points="2906.5,-134.5 2906.5,-175.5 3046.5,-175.5 3046.5,-134.5 2906.5,-134.5"/>
<text text-anchor="start" x="2914.5" y="-163.5" font-family="Helvetica,sans-Serif" font-size="10.00">src/modules/websock</text>
<text text-anchor="start" x="2914.5" y="-152.5" font-family="Helvetica,sans-Serif" font-size="10.00">&#45;api/api/update&#45;management</text>
<text text-anchor="middle" x="2976.5" y="-141.5" font-family="Helvetica,sans-Serif" font-size="10.00">/CreateUpdate.cpp</text>
</a>
</g>
</g>
<!-- Node44&#45;&gt;Node64 -->
<g id="edge20" class="edge"><title>Node44&#45;&gt;Node64</title>
<path fill="none" stroke="midnightblue" d="M2102.25,-218.684C2295.59,-213.328 2746.17,-198.774 2897.5,-176 2900.44,-175.558 2903.43,-175.054 2906.43,-174.501"/>
<polygon fill="midnightblue" stroke="midnightblue" points="2102.02,-215.189 2092.12,-218.963 2102.21,-222.186 2102.02,-215.189"/>
</g>
<!-- Node65 -->
<g id="node22" class="node"><title>Node65</title>
<g id="a_node22"><a xlink:href="../../d9/d03/PendingUpdateGet_8cpp.html" target="_top" xlink:title="src/modules/websock\l&#45;api/api/update&#45;management\l/PendingUpdateGet.cpp">
<polygon fill="white" stroke="black" points="3064.5,-134.5 3064.5,-175.5 3204.5,-175.5 3204.5,-134.5 3064.5,-134.5"/>
<text text-anchor="start" x="3072.5" y="-163.5" font-family="Helvetica,sans-Serif" font-size="10.00">src/modules/websock</text>
<text text-anchor="start" x="3072.5" y="-152.5" font-family="Helvetica,sans-Serif" font-size="10.00">&#45;api/api/update&#45;management</text>
<text text-anchor="middle" x="3134.5" y="-141.5" font-family="Helvetica,sans-Serif" font-size="10.00">/PendingUpdateGet.cpp</text>
</a>
</g>
</g>
<!-- Node44&#45;&gt;Node65 -->
<g id="edge21" class="edge"><title>Node44&#45;&gt;Node65</title>
<path fill="none" stroke="midnightblue" d="M2102.23,-219.489C2320.15,-215.438 2872.79,-202.78 3055.5,-176 3058.44,-175.569 3061.43,-175.074 3064.44,-174.529"/>
<polygon fill="midnightblue" stroke="midnightblue" points="2102.04,-215.992 2092.11,-219.675 2102.17,-222.99 2102.04,-215.992"/>
</g>
<!-- Node66 -->
<g id="node23" class="node"><title>Node66</title>
<g id="a_node23"><a xlink:href="../../d0/d36/UpdateGet_8cpp.html" target="_top" xlink:title="src/modules/websock\l&#45;api/api/update&#45;management\l/UpdateGet.cpp">
<polygon fill="white" stroke="black" points="3222.5,-134.5 3222.5,-175.5 3362.5,-175.5 3362.5,-134.5 3222.5,-134.5"/>
<text text-anchor="start" x="3230.5" y="-163.5" font-family="Helvetica,sans-Serif" font-size="10.00">src/modules/websock</text>
<text text-anchor="start" x="3230.5" y="-152.5" font-family="Helvetica,sans-Serif" font-size="10.00">&#45;api/api/update&#45;management</text>
<text text-anchor="middle" x="3292.5" y="-141.5" font-family="Helvetica,sans-Serif" font-size="10.00">/UpdateGet.cpp</text>
</a>
</g>
</g>
<!-- Node44&#45;&gt;Node66 -->
<g id="edge22" class="edge"><title>Node44&#45;&gt;Node66</title>
<path fill="none" stroke="midnightblue" d="M2102.35,-220.082C2343.15,-217.232 2999.2,-206.79 3213.5,-176 3216.44,-175.577 3219.43,-175.09 3222.44,-174.55"/>
<polygon fill="midnightblue" stroke="midnightblue" points="2102.19,-216.584 2092.23,-220.201 2102.27,-223.583 2102.19,-216.584"/>
</g>
<!-- Node67 -->
<g id="node24" class="node"><title>Node67</title>
<g id="a_node24"><a xlink:href="../../d1/d97/UpdateHistory_8cpp.html" target="_top" xlink:title="src/modules/websock\l&#45;api/api/update&#45;management\l/UpdateHistory.cpp">
<polygon fill="white" stroke="black" points="3380.5,-134.5 3380.5,-175.5 3520.5,-175.5 3520.5,-134.5 3380.5,-134.5"/>
<text text-anchor="start" x="3388.5" y="-163.5" font-family="Helvetica,sans-Serif" font-size="10.00">src/modules/websock</text>
<text text-anchor="start" x="3388.5" y="-152.5" font-family="Helvetica,sans-Serif" font-size="10.00">&#45;api/api/update&#45;management</text>
<text text-anchor="middle" x="3450.5" y="-141.5" font-family="Helvetica,sans-Serif" font-size="10.00">/UpdateHistory.cpp</text>
</a>
</g>
</g>
<!-- Node44&#45;&gt;Node67 -->
<g id="edge23" class="edge"><title>Node44&#45;&gt;Node67</title>
<path fill="none" stroke="midnightblue" d="M2102.48,-220.54C2364.76,-218.801 3125.42,-210.811 3371.5,-176 3374.44,-175.584 3377.43,-175.101 3380.44,-174.566"/>
<polygon fill="midnightblue" stroke="midnightblue" points="2102.22,-217.042 2092.24,-220.607 2102.26,-224.042 2102.22,-217.042"/>
</g>
<!-- Node68 -->
<g id="node25" class="node"><title>Node68</title>
<g id="a_node25"><a xlink:href="../../da/df4/websock-api_2WSHelperThread_8hpp.html" target="_top" xlink:title="src/modules/websock\l&#45;api/WSHelperThread.hpp">
<polygon fill="white" stroke="black" points="3539,-140 3539,-170 3668,-170 3668,-140 3539,-140"/>
<text text-anchor="start" x="3547" y="-158" font-family="Helvetica,sans-Serif" font-size="10.00">src/modules/websock</text>
<text text-anchor="middle" x="3603.5" y="-147" font-family="Helvetica,sans-Serif" font-size="10.00">&#45;api/WSHelperThread.hpp</text>
</a>
</g>
</g>
<!-- Node44&#45;&gt;Node68 -->
<g id="edge24" class="edge"><title>Node44&#45;&gt;Node68</title>
<path fill="none" stroke="midnightblue" d="M2102.56,-221.092C2385.12,-220.946 3251.76,-217.071 3529.5,-176 3538.85,-174.618 3548.7,-172.464 3558.06,-170.073"/>
<polygon fill="midnightblue" stroke="midnightblue" points="2102.36,-217.592 2092.36,-221.096 2102.36,-224.592 2102.36,-217.592"/>
</g>
<!-- Node77 -->
<g id="node34" class="node"><title>Node77</title>
<g id="a_node34"><a xlink:href="../../d4/d2c/WSServer_8cpp.html" target="_top" xlink:title="src/modules/websock\l&#45;api/WSServer.cpp">
<polygon fill="white" stroke="black" points="3686.5,-140 3686.5,-170 3798.5,-170 3798.5,-140 3686.5,-140"/>
<text text-anchor="start" x="3694.5" y="-158" font-family="Helvetica,sans-Serif" font-size="10.00">src/modules/websock</text>
<text text-anchor="middle" x="3742.5" y="-147" font-family="Helvetica,sans-Serif" font-size="10.00">&#45;api/WSServer.cpp</text>
</a>
</g>
</g>
<!-- Node44&#45;&gt;Node77 -->
<g id="edge34" class="edge"><title>Node44&#45;&gt;Node77</title>
<path fill="none" stroke="midnightblue" d="M2102.45,-219.995C2426.36,-216.181 3522.16,-201.509 3677.5,-176 3685.89,-174.622 3694.7,-172.438 3703.03,-170.009"/>
<polygon fill="midnightblue" stroke="midnightblue" points="2102.14,-216.499 2092.18,-220.116 2102.22,-223.498 2102.14,-216.499"/>
</g>
<!-- Node78 -->
<g id="node35" class="node"><title>Node78</title>
<g id="a_node35"><a xlink:href="../../d6/d48/WiegandConfigSerializer_8cpp.html" target="_top" xlink:title="src/modules/wiegand\l/ws/WiegandConfigSerializer.cpp">
<polygon fill="white" stroke="black" points="3817,-140 3817,-170 3978,-170 3978,-140 3817,-140"/>
<text text-anchor="start" x="3825" y="-158" font-family="Helvetica,sans-Serif" font-size="10.00">src/modules/wiegand</text>
<text text-anchor="middle" x="3897.5" y="-147" font-family="Helvetica,sans-Serif" font-size="10.00">/ws/WiegandConfigSerializer.cpp</text>
</a>
</g>
</g>
<!-- Node44&#45;&gt;Node78 -->
<g id="edge35" class="edge"><title>Node44&#45;&gt;Node78</title>
<path fill="none" stroke="midnightblue" d="M2102.6,-221.047C2418.13,-220.852 3472.21,-217.065 3807.5,-176 3818.78,-174.618 3830.73,-172.465 3842.1,-170.074"/>
<polygon fill="midnightblue" stroke="midnightblue" points="2102.14,-217.547 2092.14,-221.052 2102.14,-224.547 2102.14,-217.547"/>
</g>
<!-- Node79 -->
<g id="node36" class="node"><title>Node79</title>
<g id="a_node36"><a xlink:href="../../d4/ded/ScheduleMappingSerializer_8cpp.html" target="_top" xlink:title="src/tools/serializers\l/ScheduleMappingSerializer.cpp">
<polygon fill="white" stroke="black" points="3996.5,-140 3996.5,-170 4152.5,-170 4152.5,-140 3996.5,-140"/>
<text text-anchor="start" x="4004.5" y="-158" font-family="Helvetica,sans-Serif" font-size="10.00">src/tools/serializers</text>
<text text-anchor="middle" x="4074.5" y="-147" font-family="Helvetica,sans-Serif" font-size="10.00">/ScheduleMappingSerializer.cpp</text>
</a>
</g>
</g>
<!-- Node44&#45;&gt;Node79 -->
<g id="edge36" class="edge"><title>Node44&#45;&gt;Node79</title>
<path fill="none" stroke="midnightblue" d="M2102.21,-221.375C2437.29,-222.399 3615.3,-222.531 3987.5,-176 3998.42,-174.635 4009.97,-172.489 4020.97,-170.1"/>
<polygon fill="midnightblue" stroke="midnightblue" points="2102.08,-217.875 2092.07,-221.343 2102.06,-224.875 2102.08,-217.875"/>
</g>
<!-- Node69 -->
<g id="node26" class="node"><title>Node69</title>
<g id="a_node26"><a xlink:href="../../dc/d31/led-buzzer_2ws_2WSHelperThread_8hpp.html" target="_top" xlink:title="src/modules/led&#45;buzzer\l/ws/WSHelperThread.hpp">
<polygon fill="white" stroke="black" points="3612,-67.5 3612,-97.5 3741,-97.5 3741,-67.5 3612,-67.5"/>
<text text-anchor="start" x="3620" y="-85.5" font-family="Helvetica,sans-Serif" font-size="10.00">src/modules/led&#45;buzzer</text>
<text text-anchor="middle" x="3676.5" y="-74.5" font-family="Helvetica,sans-Serif" font-size="10.00">/ws/WSHelperThread.hpp</text>
</a>
</g>
</g>
<!-- Node68&#45;&gt;Node69 -->
<g id="edge25" class="edge"><title>Node68&#45;&gt;Node69</title>
<path fill="none" stroke="midnightblue" d="M3625.57,-132.688C3637.28,-121.373 3651.37,-107.774 3661.75,-97.7455"/>
<polygon fill="midnightblue" stroke="midnightblue" points="3623.03,-130.269 3618.27,-139.733 3627.9,-135.304 3623.03,-130.269"/>
</g>
<!-- Node72 -->
<g id="node29" class="node"><title>Node72</title>
<g id="a_node29"><a xlink:href="../../d7/d36/PFDigitalModule_8hpp.html" target="_top" xlink:title="src/modules/pifacedigital\l/PFDigitalModule.hpp">
<polygon fill="white" stroke="black" points="2846,-67.5 2846,-97.5 2971,-97.5 2971,-67.5 2846,-67.5"/>
<text text-anchor="start" x="2854" y="-85.5" font-family="Helvetica,sans-Serif" font-size="10.00">src/modules/pifacedigital</text>
<text text-anchor="middle" x="2908.5" y="-74.5" font-family="Helvetica,sans-Serif" font-size="10.00">/PFDigitalModule.hpp</text>
</a>
</g>
</g>
<!-- Node68&#45;&gt;Node72 -->
<g id="edge28" class="edge"><title>Node68&#45;&gt;Node72</title>
<path fill="none" stroke="midnightblue" d="M3547,-137.597C3541.12,-136.231 3535.21,-134.995 3529.5,-134 3327.3,-98.7591 3083.67,-88.0157 2971.12,-84.8153"/>
<polygon fill="midnightblue" stroke="midnightblue" points="3546.27,-141.021 3556.81,-139.998 3547.93,-134.222 3546.27,-141.021"/>
</g>
<!-- Node74 -->
<g id="node31" class="node"><title>Node74</title>
<g id="a_node31"><a xlink:href="../../d4/df3/wiegand_2ws_2WSHelperThread_8hpp.html" target="_top" xlink:title="src/modules/wiegand\l/ws/WSHelperThread.hpp">
<polygon fill="white" stroke="black" points="3465,-67.5 3465,-97.5 3594,-97.5 3594,-67.5 3465,-67.5"/>
<text text-anchor="start" x="3473" y="-85.5" font-family="Helvetica,sans-Serif" font-size="10.00">src/modules/wiegand</text>
<text text-anchor="middle" x="3529.5" y="-74.5" font-family="Helvetica,sans-Serif" font-size="10.00">/ws/WSHelperThread.hpp</text>
</a>
</g>
</g>
<!-- Node68&#45;&gt;Node74 -->
<g id="edge31" class="edge"><title>Node68&#45;&gt;Node74</title>
<path fill="none" stroke="midnightblue" d="M3581.13,-132.688C3569.25,-121.373 3554.98,-107.774 3544.45,-97.7455"/>
<polygon fill="midnightblue" stroke="midnightblue" points="3578.87,-135.37 3588.52,-139.733 3583.7,-130.301 3578.87,-135.37"/>
</g>
<!-- Node70 -->
<g id="node27" class="node"><title>Node70</title>
<g id="a_node27"><a xlink:href="../../d7/d36/LEDBuzzerModule_8cpp.html" target="_top" xlink:title="src/modules/led&#45;buzzer\l/LEDBuzzerModule.cpp">
<polygon fill="white" stroke="black" points="3615.5,-0.5 3615.5,-30.5 3735.5,-30.5 3735.5,-0.5 3615.5,-0.5"/>
<text text-anchor="start" x="3623.5" y="-18.5" font-family="Helvetica,sans-Serif" font-size="10.00">src/modules/led&#45;buzzer</text>
<text text-anchor="middle" x="3675.5" y="-7.5" font-family="Helvetica,sans-Serif" font-size="10.00">/LEDBuzzerModule.cpp</text>
</a>
</g>
</g>
<!-- Node69&#45;&gt;Node70 -->
<g id="edge26" class="edge"><title>Node69&#45;&gt;Node70</title>
<path fill="none" stroke="midnightblue" d="M3676.12,-57.1081C3675.99,-48.1539 3675.84,-38.3227 3675.72,-30.5765"/>
<polygon fill="midnightblue" stroke="midnightblue" points="3672.63,-57.451 3676.28,-67.396 3679.63,-57.3433 3672.63,-57.451"/>
</g>
<!-- Node71 -->
<g id="node28" class="node"><title>Node71</title>
<g id="a_node28"><a xlink:href="../../dd/d4b/led-buzzer_2ws_2WSHelperThread_8cpp.html" target="_top" xlink:title="src/modules/led&#45;buzzer\l/ws/WSHelperThread.cpp">
<polygon fill="white" stroke="black" points="3754,-0.5 3754,-30.5 3883,-30.5 3883,-0.5 3754,-0.5"/>
<text text-anchor="start" x="3762" y="-18.5" font-family="Helvetica,sans-Serif" font-size="10.00">src/modules/led&#45;buzzer</text>
<text text-anchor="middle" x="3818.5" y="-7.5" font-family="Helvetica,sans-Serif" font-size="10.00">/ws/WSHelperThread.cpp</text>
</a>
</g>
</g>
<!-- Node69&#45;&gt;Node71 -->
<g id="edge27" class="edge"><title>Node69&#45;&gt;Node71</title>
<path fill="none" stroke="midnightblue" d="M3716.63,-63.1305C3739.19,-52.8025 3766.92,-40.1103 3787.75,-30.5765"/>
<polygon fill="midnightblue" stroke="midnightblue" points="3714.95,-60.0513 3707.31,-67.396 3717.86,-66.4162 3714.95,-60.0513"/>
</g>
<!-- Node72&#45;&gt;Node56 -->
<g id="edge30" class="edge"><title>Node72&#45;&gt;Node56</title>
<path fill="none" stroke="midnightblue" d="M2835.24,-75.8648C2671.7,-63.2848 2279.26,-33.0966 2126.16,-21.3201"/>
<polygon fill="midnightblue" stroke="midnightblue" points="2835.44,-79.3902 2845.68,-76.6675 2835.98,-72.4108 2835.44,-79.3902"/>
</g>
<!-- Node73 -->
<g id="node30" class="node"><title>Node73</title>
<g id="a_node30"><a xlink:href="../../d6/d6d/pifacedigital_2init_8cpp.html" target="_top" xlink:title="src/modules/pifacedigital\l/init.cpp">
<polygon fill="white" stroke="black" points="2846,-0.5 2846,-30.5 2971,-30.5 2971,-0.5 2846,-0.5"/>
<text text-anchor="start" x="2854" y="-18.5" font-family="Helvetica,sans-Serif" font-size="10.00">src/modules/pifacedigital</text>
<text text-anchor="middle" x="2908.5" y="-7.5" font-family="Helvetica,sans-Serif" font-size="10.00">/init.cpp</text>
</a>
</g>
</g>
<!-- Node72&#45;&gt;Node73 -->
<g id="edge29" class="edge"><title>Node72&#45;&gt;Node73</title>
<path fill="none" stroke="midnightblue" d="M2908.5,-57.1081C2908.5,-48.1539 2908.5,-38.3227 2908.5,-30.5765"/>
<polygon fill="midnightblue" stroke="midnightblue" points="2905,-57.3959 2908.5,-67.396 2912,-57.396 2905,-57.3959"/>
</g>
<!-- Node75 -->
<g id="node32" class="node"><title>Node75</title>
<g id="a_node32"><a xlink:href="../../d3/de8/wiegand_8cpp.html" target="_top" xlink:title="src/modules/wiegand\l/wiegand.cpp">
<polygon fill="white" stroke="black" points="3340,-0.5 3340,-30.5 3449,-30.5 3449,-0.5 3340,-0.5"/>
<text text-anchor="start" x="3348" y="-18.5" font-family="Helvetica,sans-Serif" font-size="10.00">src/modules/wiegand</text>
<text text-anchor="middle" x="3394.5" y="-7.5" font-family="Helvetica,sans-Serif" font-size="10.00">/wiegand.cpp</text>
</a>
</g>
</g>
<!-- Node74&#45;&gt;Node75 -->
<g id="edge32" class="edge"><title>Node74&#45;&gt;Node75</title>
<path fill="none" stroke="midnightblue" d="M3491.06,-62.9921C3469.66,-52.6892 3443.45,-40.0677 3423.74,-30.5765"/>
<polygon fill="midnightblue" stroke="midnightblue" points="3489.68,-66.2113 3500.21,-67.396 3492.72,-59.9042 3489.68,-66.2113"/>
</g>
<!-- Node76 -->
<g id="node33" class="node"><title>Node76</title>
<g id="a_node33"><a xlink:href="../../d8/d9e/wiegand_2ws_2WSHelperThread_8cpp.html" target="_top" xlink:title="src/modules/wiegand\l/ws/WSHelperThread.cpp">
<polygon fill="white" stroke="black" points="3467,-0.5 3467,-30.5 3596,-30.5 3596,-0.5 3467,-0.5"/>
<text text-anchor="start" x="3475" y="-18.5" font-family="Helvetica,sans-Serif" font-size="10.00">src/modules/wiegand</text>
<text text-anchor="middle" x="3531.5" y="-7.5" font-family="Helvetica,sans-Serif" font-size="10.00">/ws/WSHelperThread.cpp</text>
</a>
</g>
</g>
<!-- Node74&#45;&gt;Node76 -->
<g id="edge33" class="edge"><title>Node74&#45;&gt;Node76</title>
<path fill="none" stroke="midnightblue" d="M3530.25,-57.1081C3530.53,-48.1539 3530.83,-38.3227 3531.07,-30.5765"/>
<polygon fill="midnightblue" stroke="midnightblue" points="3526.74,-57.293 3529.93,-67.396 3533.74,-57.5084 3526.74,-57.293"/>
</g>
</g>
</svg>
        <g id="navigator" transform="translate(0 0)" fill="#404254">
                <rect fill="#f2f5e9" fill-opacity="0.5" stroke="#606060" stroke-width=".5" x="0" y="0" width="60" height="60"/>
                <use id="zoomplus" xlink:href="#zoomPlus" x="17" y="9" onmousedown="handleZoom(evt,'in')"/>
                <use id="zoomminus" xlink:href="#zoomMin" x="42" y="9" onmousedown="handleZoom(evt,'out')"/>
                <use id="reset" xlink:href="#resetDef" x="30" y="36" onmousedown="handleReset()"/>
                <g id="arrowUp" xlink:href="#dirArrow" transform="translate(30 24)" onmousedown="handlePan(0,-1)">
                  <use xlink:href="#rim" fill="#404040">
                        <set attributeName="fill" to="#808080" begin="arrowUp.mouseover" end="arrowUp.mouseout"/>
                  </use>
                  <path fill="none" stroke="white" stroke-width="1.5" d="M0,-3.0v7 M-2.5,-0.5L0,-3.0L2.5,-0.5"/>
                </g>
                <g id="arrowRight" xlink:href="#dirArrow" transform="rotate(90) translate(36 -43)" onmousedown="handlePan(1,0)">
                  <use xlink:href="#rim" fill="#404040">
                        <set attributeName="fill" to="#808080" begin="arrowRight.mouseover" end="arrowRight.mouseout"/>
                  </use>
                  <path fill="none" stroke="white" stroke-width="1.5" d="M0,-3.0v7 M-2.5,-0.5L0,-3.0L2.5,-0.5"/>
                </g>
                <g id="arrowDown" xlink:href="#dirArrow" transform="rotate(180) translate(-30 -48)" onmousedown="handlePan(0,1)">
                  <use xlink:href="#rim" fill="#404040">
                        <set attributeName="fill" to="#808080" begin="arrowDown.mouseover" end="arrowDown.mouseout"/>
                  </use>
                  <path fill="none" stroke="white" stroke-width="1.5" d="M0,-3.0v7 M-2.5,-0.5L0,-3.0L2.5,-0.5"/>
                </g>
                <g id="arrowLeft" xlink:href="#dirArrow" transform="rotate(270) translate(-36 17)" onmousedown="handlePan(-1,0)">
                  <use xlink:href="#rim" fill="#404040">
                        <set attributeName="fill" to="#808080" begin="arrowLeft.mouseover" end="arrowLeft.mouseout"/>
                  </use>
                  <path fill="none" stroke="white" stroke-width="1.5" d="M0,-3.0v7 M-2.5,-0.5L0,-3.0L2.5,-0.5"/>
                </g>
        </g>
        <svg viewBox="0 0 15 15" width="100%" height="30px" preserveAspectRatio="xMaxYMin meet">
         <g id="arrow_out" transform="scale(0.3 0.3)">
          <a xlink:href="GetServiceRegistry_8hpp__dep__incl_org.svg" target="_base">
           <rect id="button" ry="5" rx="5" y="6" x="6" height="38" width="38"
                fill="#f2f5e9" fill-opacity="0.5" stroke="#606060" stroke-width="1.0"/>
           <path id="arrow"
             d="M 11.500037,31.436501 C 11.940474,20.09759 22.043105,11.32322 32.158766,21.979434 L 37.068811,17.246167 C 37.068811,17.246167 37.088388,32 37.088388,32 L 22.160133,31.978069 C 22.160133,31.978069 26.997745,27.140456 26.997745,27.140456 C 18.528582,18.264221 13.291696,25.230495 11.500037,31.436501 z"
             style="fill:#404040;"/>
          </a>
         </g>
        </svg>
</svg>
