<?xml version="1.0" encoding="UTF-8" standalone="no"?>
<!DOCTYPE svg PUBLIC "-//W3C//DTD SVG 1.1//EN"
 "http://www.w3.org/Graphics/SVG/1.1/DTD/svg11.dtd">
<!-- Generated by graphviz version 2.38.0 (20140413.2041)
 -->
<!-- Title: src/modules/bench&#45;toggle/bench&#45;toggle.cpp Pages: 1 -->
<svg width="1031pt" height="162pt"
 viewBox="0.00 0.00 1030.50 162.00" xmlns="http://www.w3.org/2000/svg" xmlns:xlink="http://www.w3.org/1999/xlink">
<g id="graph0" class="graph" transform="scale(1 1) rotate(0) translate(4 158)">
<title>src/modules/bench&#45;toggle/bench&#45;toggle.cpp</title>
<polygon fill="white" stroke="none" points="-4,4 -4,-158 1026.5,-158 1026.5,4 -4,4"/>
<!-- Node0 -->
<g id="node1" class="node"><title>Node0</title>
<polygon fill="#bfbfbf" stroke="black" points="594,-123.5 594,-153.5 722,-153.5 722,-123.5 594,-123.5"/>
<text text-anchor="start" x="602" y="-141.5" font-family="Helvetica,sans-Serif" font-size="10.00">src/modules/bench&#45;toggle</text>
<text text-anchor="middle" x="658" y="-130.5" font-family="Helvetica,sans-Serif" font-size="10.00">/bench&#45;toggle.cpp</text>
</g>
<!-- Node1 -->
<g id="node2" class="node"><title>Node1</title>
<g id="a_node2"><a xlink:href="../../de/df0/FGPIO_8hpp.html" target="_top" xlink:title="hardware/facades/FGPIO.hpp">
<polygon fill="white" stroke="black" points="149,-62 149,-81 295,-81 295,-62 149,-62"/>
<text text-anchor="middle" x="222" y="-69" font-family="Helvetica,sans-Serif" font-size="10.00">hardware/facades/FGPIO.hpp</text>
</a>
</g>
</g>
<!-- Node0&#45;&gt;Node1 -->
<g id="edge1" class="edge"><title>Node0&#45;&gt;Node1</title>
<path fill="none" stroke="midnightblue" d="M593.667,-127.909C512.147,-115.756 372.297,-94.9066 289.362,-82.5425"/>
<polygon fill="midnightblue" stroke="midnightblue" points="289.697,-79.0538 279.29,-81.0409 288.665,-85.9773 289.697,-79.0538"/>
</g>
<!-- Node6 -->
<g id="node7" class="node"><title>Node6</title>
<g id="a_node7"><a xlink:href="../../d4/d3d/log_8hpp.html" target="_top" xlink:title="tools/log.hpp">
<polygon fill="white" stroke="black" points="402,-62 402,-81 474,-81 474,-62 402,-62"/>
<text text-anchor="middle" x="438" y="-69" font-family="Helvetica,sans-Serif" font-size="10.00">tools/log.hpp</text>
</a>
</g>
</g>
<!-- Node0&#45;&gt;Node6 -->
<g id="edge6" class="edge"><title>Node0&#45;&gt;Node6</title>
<path fill="none" stroke="midnightblue" d="M608.41,-123.434C573.549,-113.466 525.847,-99.6664 484,-87 480.874,-86.0539 477.634,-85.0596 474.385,-84.0537"/>
<polygon fill="midnightblue" stroke="midnightblue" points="475.313,-80.6769 464.724,-81.0377 473.227,-87.3588 475.313,-80.6769"/>
</g>
<!-- Node12 -->
<g id="node13" class="node"><title>Node12</title>
<polygon fill="white" stroke="#bfbfbf" points="492.5,-62 492.5,-81 589.5,-81 589.5,-62 492.5,-62"/>
<text text-anchor="middle" x="541" y="-69" font-family="Helvetica,sans-Serif" font-size="10.00">zmqpp/zmqpp.hpp</text>
</g>
<!-- Node0&#45;&gt;Node12 -->
<g id="edge13" class="edge"><title>Node0&#45;&gt;Node12</title>
<path fill="none" stroke="midnightblue" d="M632.613,-123.396C612.629,-112.294 584.958,-96.9211 565.269,-85.9825"/>
<polygon fill="midnightblue" stroke="midnightblue" points="566.754,-82.8039 556.313,-81.007 563.354,-88.923 566.754,-82.8039"/>
</g>
<!-- Node13 -->
<g id="node14" class="node"><title>Node13</title>
<polygon fill="white" stroke="#bfbfbf" points="607.5,-56.5 607.5,-86.5 708.5,-86.5 708.5,-56.5 607.5,-56.5"/>
<text text-anchor="start" x="615.5" y="-74.5" font-family="Helvetica,sans-Serif" font-size="10.00">boost/property_tree</text>
<text text-anchor="middle" x="658" y="-63.5" font-family="Helvetica,sans-Serif" font-size="10.00">/ptree.hpp</text>
</g>
<!-- Node0&#45;&gt;Node13 -->
<g id="edge14" class="edge"><title>Node0&#45;&gt;Node13</title>
<path fill="none" stroke="midnightblue" d="M658,-123.396C658,-115.645 658,-105.812 658,-96.8601"/>
<polygon fill="midnightblue" stroke="midnightblue" points="661.5,-96.5765 658,-86.5765 654.5,-96.5765 661.5,-96.5765"/>
</g>
<!-- Node14 -->
<g id="node15" class="node"><title>Node14</title>
<polygon fill="white" stroke="#bfbfbf" points="727,-62 727,-81 779,-81 779,-62 727,-62"/>
<text text-anchor="middle" x="753" y="-69" font-family="Helvetica,sans-Serif" font-size="10.00">memory</text>
</g>
<!-- Node0&#45;&gt;Node14 -->
<g id="edge15" class="edge"><title>Node0&#45;&gt;Node14</title>
<path fill="none" stroke="midnightblue" d="M678.614,-123.396C694.397,-112.597 716.087,-97.7564 731.973,-86.8872"/>
<polygon fill="midnightblue" stroke="midnightblue" points="734.29,-89.5425 740.567,-81.007 730.337,-83.7653 734.29,-89.5425"/>
</g>
<!-- Node15 -->
<g id="node16" class="node"><title>Node15</title>
<polygon fill="white" stroke="#bfbfbf" points="797,-62 797,-81 897,-81 897,-62 797,-62"/>
<text text-anchor="middle" x="847" y="-69" font-family="Helvetica,sans-Serif" font-size="10.00">zmqpp/context.hpp</text>
</g>
<!-- Node0&#45;&gt;Node15 -->
<g id="edge16" class="edge"><title>Node0&#45;&gt;Node15</title>
<path fill="none" stroke="midnightblue" d="M699.01,-123.396C732.906,-111.739 780.492,-95.3731 812.468,-84.3761"/>
<polygon fill="midnightblue" stroke="midnightblue" points="813.946,-87.569 822.264,-81.007 811.67,-80.9495 813.946,-87.569"/>
</g>
<!-- Node16 -->
<g id="node17" class="node"><title>Node16</title>
<polygon fill="white" stroke="#bfbfbf" points="915.5,-62 915.5,-81 1022.5,-81 1022.5,-62 915.5,-62"/>
<text text-anchor="middle" x="969" y="-69" font-family="Helvetica,sans-Serif" font-size="10.00">zmqpp/message.hpp</text>
</g>
<!-- Node0&#45;&gt;Node16 -->
<g id="edge17" class="edge"><title>Node0&#45;&gt;Node16</title>
<path fill="none" stroke="midnightblue" d="M722.065,-124.918C772.197,-114.96 843.628,-100.526 906,-87 911.416,-85.8256 917.086,-84.5648 922.711,-83.2946"/>
<polygon fill="midnightblue" stroke="midnightblue" points="923.749,-86.6479 932.723,-81.0149 922.195,-79.8226 923.749,-86.6479"/>
</g>
<!-- Node2 -->
<g id="node3" class="node"><title>Node2</title>
<polygon fill="white" stroke="#bfbfbf" points="0,-0.5 0,-19.5 46,-19.5 46,-0.5 0,-0.5"/>
<text text-anchor="middle" x="23" y="-7.5" font-family="Helvetica,sans-Serif" font-size="10.00">chrono</text>
</g>
<!-- Node1&#45;&gt;Node2 -->
<g id="edge2" class="edge"><title>Node1&#45;&gt;Node2</title>
<path fill="none" stroke="midnightblue" d="M193.488,-61.9751C157.084,-51.0906 94.2275,-32.2967 55.8531,-20.8229"/>
<polygon fill="midnightblue" stroke="midnightblue" points="56.7719,-17.4446 46.1883,-17.9332 54.7666,-24.1512 56.7719,-17.4446"/>
</g>
<!-- Node3 -->
<g id="node4" class="node"><title>Node3</title>
<polygon fill="white" stroke="#bfbfbf" points="288.5,-0.5 288.5,-19.5 329.5,-19.5 329.5,-0.5 288.5,-0.5"/>
<text text-anchor="middle" x="309" y="-7.5" font-family="Helvetica,sans-Serif" font-size="10.00">string</text>
</g>
<!-- Node1&#45;&gt;Node3 -->
<g id="edge3" class="edge"><title>Node1&#45;&gt;Node3</title>
<path fill="none" stroke="midnightblue" d="M234.465,-61.9751C248.419,-52.4315 271.265,-36.8073 287.991,-25.3683"/>
<polygon fill="midnightblue" stroke="midnightblue" points="290.28,-28.0433 296.558,-19.5091 286.328,-22.2653 290.28,-28.0433"/>
</g>
<!-- Node4 -->
<g id="node5" class="node"><title>Node4</title>
<polygon fill="white" stroke="#bfbfbf" points="64.5,-0.5 64.5,-19.5 155.5,-19.5 155.5,-0.5 64.5,-0.5"/>
<text text-anchor="middle" x="110" y="-7.5" font-family="Helvetica,sans-Serif" font-size="10.00">zmqpp/poller.hpp</text>
</g>
<!-- Node1&#45;&gt;Node4 -->
<g id="edge4" class="edge"><title>Node1&#45;&gt;Node4</title>
<path fill="none" stroke="midnightblue" d="M205.953,-61.9751C187.407,-52.1222 156.66,-35.7883 134.978,-24.2697"/>
<polygon fill="midnightblue" stroke="midnightblue" points="136.49,-21.1098 126.017,-19.5091 133.206,-27.2916 136.49,-21.1098"/>
</g>
<!-- Node5 -->
<g id="node6" class="node"><title>Node5</title>
<polygon fill="white" stroke="#bfbfbf" points="173.5,-0.5 173.5,-19.5 270.5,-19.5 270.5,-0.5 173.5,-0.5"/>
<text text-anchor="middle" x="222" y="-7.5" font-family="Helvetica,sans-Serif" font-size="10.00">zmqpp/socket.hpp</text>
</g>
<!-- Node1&#45;&gt;Node5 -->
<g id="edge5" class="edge"><title>Node1&#45;&gt;Node5</title>
<path fill="none" stroke="midnightblue" d="M222,-61.9751C222,-53.5803 222,-40.4806 222,-29.6631"/>
<polygon fill="midnightblue" stroke="midnightblue" points="225.5,-29.5091 222,-19.5091 218.5,-29.5091 225.5,-29.5091"/>
</g>
<!-- Node6&#45;&gt;Node3 -->
<g id="edge12" class="edge"><title>Node6&#45;&gt;Node3</title>
<path fill="none" stroke="midnightblue" d="M419.517,-61.9751C397.868,-51.9897 361.787,-35.3476 336.768,-23.8075"/>
<polygon fill="midnightblue" stroke="midnightblue" points="337.995,-20.5193 327.448,-19.5091 335.063,-26.8757 337.995,-20.5193"/>
</g>
<!-- Node7 -->
<g id="node8" class="node"><title>Node7</title>
<polygon fill="white" stroke="#bfbfbf" points="347.5,-0.5 347.5,-19.5 396.5,-19.5 396.5,-0.5 347.5,-0.5"/>
<text text-anchor="middle" x="372" y="-7.5" font-family="Helvetica,sans-Serif" font-size="10.00">cassert</text>
</g>
<!-- Node6&#45;&gt;Node7 -->
<g id="edge7" class="edge"><title>Node6&#45;&gt;Node7</title>
<path fill="none" stroke="midnightblue" d="M428.544,-61.9751C418.252,-52.6966 401.584,-37.6706 389.006,-26.331"/>
<polygon fill="midnightblue" stroke="midnightblue" points="391.21,-23.6054 381.439,-19.5091 386.522,-28.8046 391.21,-23.6054"/>
</g>
<!-- Node8 -->
<g id="node9" class="node"><title>Node8</title>
<polygon fill="white" stroke="#bfbfbf" points="414.5,-0.5 414.5,-19.5 461.5,-19.5 461.5,-0.5 414.5,-0.5"/>
<text text-anchor="middle" x="438" y="-7.5" font-family="Helvetica,sans-Serif" font-size="10.00">csignal</text>
</g>
<!-- Node6&#45;&gt;Node8 -->
<g id="edge8" class="edge"><title>Node6&#45;&gt;Node8</title>
<path fill="none" stroke="midnightblue" d="M438,-61.9751C438,-53.5803 438,-40.4806 438,-29.6631"/>
<polygon fill="midnightblue" stroke="midnightblue" points="441.5,-29.5091 438,-19.5091 434.5,-29.5091 441.5,-29.5091"/>
</g>
<!-- Node9 -->
<g id="node10" class="node"><title>Node9</title>
<polygon fill="white" stroke="#bfbfbf" points="480,-0.5 480,-19.5 534,-19.5 534,-0.5 480,-0.5"/>
<text text-anchor="middle" x="507" y="-7.5" font-family="Helvetica,sans-Serif" font-size="10.00">iostream</text>
</g>
<!-- Node6&#45;&gt;Node9 -->
<g id="edge9" class="edge"><title>Node6&#45;&gt;Node9</title>
<path fill="none" stroke="midnightblue" d="M447.886,-61.9751C458.646,-52.6966 476.071,-37.6706 489.221,-26.331"/>
<polygon fill="midnightblue" stroke="midnightblue" points="491.845,-28.6902 497.132,-19.5091 487.273,-23.389 491.845,-28.6902"/>
</g>
<!-- Node10 -->
<g id="node11" class="node"><title>Node10</title>
<polygon fill="white" stroke="#bfbfbf" points="552.5,-0.5 552.5,-19.5 637.5,-19.5 637.5,-0.5 552.5,-0.5"/>
<text text-anchor="middle" x="595" y="-7.5" font-family="Helvetica,sans-Serif" font-size="10.00">spdlog/spdlog.h</text>
</g>
<!-- Node6&#45;&gt;Node10 -->
<g id="edge10" class="edge"><title>Node6&#45;&gt;Node10</title>
<path fill="none" stroke="midnightblue" d="M460.494,-61.9751C487.309,-51.8129 532.315,-34.7564 562.809,-23.1996"/>
<polygon fill="midnightblue" stroke="midnightblue" points="564.437,-26.3258 572.547,-19.5091 561.956,-19.7801 564.437,-26.3258"/>
</g>
<!-- Node11 -->
<g id="node12" class="node"><title>Node11</title>
<polygon fill="white" stroke="#bfbfbf" points="656,-0.5 656,-19.5 708,-19.5 708,-0.5 656,-0.5"/>
<text text-anchor="middle" x="682" y="-7.5" font-family="Helvetica,sans-Serif" font-size="10.00">sstream</text>
</g>
<!-- Node6&#45;&gt;Node11 -->
<g id="edge11" class="edge"><title>Node6&#45;&gt;Node11</title>
<path fill="none" stroke="midnightblue" d="M463.672,-61.969C470.264,-59.8995 477.367,-57.7742 484,-56 552.591,-37.6531 573.096,-37.2416 645.566,-20.2682"/>
<polygon fill="midnightblue" stroke="midnightblue" points="646.727,-23.5901 655.651,-17.8787 645.113,-16.7787 646.727,-23.5901"/>
</g>
</g>
</svg>
