<?xml version="1.0" encoding="UTF-8" standalone="no"?>
<!DOCTYPE svg PUBLIC "-//W3C//DTD SVG 1.1//EN"
 "http://www.w3.org/Graphics/SVG/1.1/DTD/svg11.dtd">
<!-- Generated by graphviz version 2.38.0 (20140413.2041)
 -->
<!-- Title: src/modules/auth/auth&#45;db/AuthDBModule.hpp Pages: 1 -->
<svg width="258pt" height="106pt"
 viewBox="0.00 0.00 257.50 106.00" xmlns="http://www.w3.org/2000/svg" xmlns:xlink="http://www.w3.org/1999/xlink">
<g id="graph0" class="graph" transform="scale(1 1) rotate(0) translate(4 102)">
<title>src/modules/auth/auth&#45;db/AuthDBModule.hpp</title>
<polygon fill="white" stroke="none" points="-4,4 -4,-102 253.5,-102 253.5,4 -4,4"/>
<!-- Node55 -->
<g id="node1" class="node"><title>Node55</title>
<polygon fill="#bfbfbf" stroke="black" points="67,-67.5 67,-97.5 185,-97.5 185,-67.5 67,-67.5"/>
<text text-anchor="start" x="75" y="-85.5" font-family="Helvetica,sans-Serif" font-size="10.00">src/modules/auth/auth</text>
<text text-anchor="middle" x="126" y="-74.5" font-family="Helvetica,sans-Serif" font-size="10.00">&#45;db/AuthDBModule.hpp</text>
</g>
<!-- Node56 -->
<g id="node2" class="node"><title>Node56</title>
<g id="a_node2"><a xlink:href="../../df/dac/AuthDBModule_8cpp.html" target="_top" xlink:title="src/modules/auth/auth\l&#45;db/AuthDBModule.cpp">
<polygon fill="white" stroke="black" points="0,-0.5 0,-30.5 118,-30.5 118,-0.5 0,-0.5"/>
<text text-anchor="start" x="8" y="-18.5" font-family="Helvetica,sans-Serif" font-size="10.00">src/modules/auth/auth</text>
<text text-anchor="middle" x="59" y="-7.5" font-family="Helvetica,sans-Serif" font-size="10.00">&#45;db/AuthDBModule.cpp</text>
</a>
</g>
</g>
<!-- Node55&#45;&gt;Node56 -->
<g id="edge1" class="edge"><title>Node55&#45;&gt;Node56</title>
<path fill="none" stroke="midnightblue" d="M104.16,-60.3115C94.1092,-50.5612 82.4593,-39.259 73.5096,-30.5765"/>
<polygon fill="midnightblue" stroke="midnightblue" points="101.847,-62.9449 111.462,-67.396 106.722,-57.9207 101.847,-62.9449"/>
</g>
<!-- Node57 -->
<g id="node3" class="node"><title>Node57</title>
<g id="a_node3"><a xlink:href="../../d9/dd9/auth_2auth-db_2init_8cpp.html" target="_top" xlink:title="src/modules/auth/auth\l&#45;db/init.cpp">
<polygon fill="white" stroke="black" points="136.5,-0.5 136.5,-30.5 249.5,-30.5 249.5,-0.5 136.5,-0.5"/>
<text text-anchor="start" x="144.5" y="-18.5" font-family="Helvetica,sans-Serif" font-size="10.00">src/modules/auth/auth</text>
<text text-anchor="middle" x="193" y="-7.5" font-family="Helvetica,sans-Serif" font-size="10.00">&#45;db/init.cpp</text>
</a>
</g>
</g>
<!-- Node55&#45;&gt;Node57 -->
<g id="edge2" class="edge"><title>Node55&#45;&gt;Node57</title>
<path fill="none" stroke="midnightblue" d="M147.84,-60.3115C157.891,-50.5612 169.541,-39.259 178.49,-30.5765"/>
<polygon fill="midnightblue" stroke="midnightblue" points="145.278,-57.9207 140.538,-67.396 150.153,-62.9449 145.278,-57.9207"/>
</g>
</g>
</svg>
