<?xml version="1.0" encoding="UTF-8" standalone="no"?>
<!DOCTYPE svg PUBLIC "-//W3C//DTD SVG 1.1//EN"
 "http://www.w3.org/Graphics/SVG/1.1/DTD/svg11.dtd">
<!-- Generated by graphviz version 2.38.0 (20140413.2041)
 -->
<!-- Title: src/core/tasks/Task.hpp Pages: 1 -->
<svg width="238pt" height="84pt"
 viewBox="0.00 0.00 238.00 84.00" xmlns="http://www.w3.org/2000/svg" xmlns:xlink="http://www.w3.org/1999/xlink">
<g id="graph0" class="graph" transform="scale(1 1) rotate(0) translate(4 80)">
<title>src/core/tasks/Task.hpp</title>
<polygon fill="white" stroke="none" points="-4,4 -4,-80 234,-80 234,4 -4,4"/>
<!-- Node0 -->
<g id="node1" class="node"><title>Node0</title>
<polygon fill="#bfbfbf" stroke="black" points="51,-56.5 51,-75.5 173,-75.5 173,-56.5 51,-56.5"/>
<text text-anchor="middle" x="112" y="-63.5" font-family="Helvetica,sans-Serif" font-size="10.00">src/core/tasks/Task.hpp</text>
</g>
<!-- Node1 -->
<g id="node2" class="node"><title>Node1</title>
<polygon fill="white" stroke="#bfbfbf" points="0,-0.5 0,-19.5 46,-19.5 46,-0.5 0,-0.5"/>
<text text-anchor="middle" x="23" y="-7.5" font-family="Helvetica,sans-Serif" font-size="10.00">atomic</text>
</g>
<!-- Node0&#45;&gt;Node1 -->
<g id="edge1" class="edge"><title>Node0&#45;&gt;Node1</title>
<path fill="none" stroke="midnightblue" d="M97.7006,-56.324C83.8171,-47.9002 62.5076,-34.9709 46.1963,-25.0741"/>
<polygon fill="midnightblue" stroke="midnightblue" points="47.6289,-21.8495 37.2639,-19.6545 43.9978,-27.8341 47.6289,-21.8495"/>
</g>
<!-- Node2 -->
<g id="node3" class="node"><title>Node2</title>
<polygon fill="white" stroke="#bfbfbf" points="64.5,-0.5 64.5,-19.5 159.5,-19.5 159.5,-0.5 64.5,-0.5"/>
<text text-anchor="middle" x="112" y="-7.5" font-family="Helvetica,sans-Serif" font-size="10.00">condition_variable</text>
</g>
<!-- Node0&#45;&gt;Node2 -->
<g id="edge2" class="edge"><title>Node0&#45;&gt;Node2</title>
<path fill="none" stroke="midnightblue" d="M112,-56.083C112,-49.0059 112,-38.8611 112,-29.9865"/>
<polygon fill="midnightblue" stroke="midnightblue" points="115.5,-29.751 112,-19.7511 108.5,-29.7511 115.5,-29.751"/>
</g>
<!-- Node3 -->
<g id="node4" class="node"><title>Node3</title>
<polygon fill="white" stroke="#bfbfbf" points="178,-0.5 178,-19.5 230,-19.5 230,-0.5 178,-0.5"/>
<text text-anchor="middle" x="204" y="-7.5" font-family="Helvetica,sans-Serif" font-size="10.00">memory</text>
</g>
<!-- Node0&#45;&gt;Node3 -->
<g id="edge3" class="edge"><title>Node0&#45;&gt;Node3</title>
<path fill="none" stroke="midnightblue" d="M126.781,-56.324C141.267,-47.8215 163.573,-34.7288 180.493,-24.7975"/>
<polygon fill="midnightblue" stroke="midnightblue" points="182.403,-27.735 189.255,-19.6545 178.859,-21.6981 182.403,-27.735"/>
</g>
</g>
</svg>
