<?xml version="1.0" encoding="UTF-8" standalone="no"?>
<!DOCTYPE svg PUBLIC "-//W3C//DTD SVG 1.1//EN"
 "http://www.w3.org/Graphics/SVG/1.1/DTD/svg11.dtd">
<!-- Generated by graphviz version 2.38.0 (20140413.2041)
 -->
<!-- Title: src/tools/scrypt/Scrypt.cpp Pages: 1 -->
<svg width="938pt" height="151pt"
 viewBox="0.00 0.00 937.50 151.00" xmlns="http://www.w3.org/2000/svg" xmlns:xlink="http://www.w3.org/1999/xlink">
<g id="graph0" class="graph" transform="scale(1 1) rotate(0) translate(4 147)">
<title>src/tools/scrypt/Scrypt.cpp</title>
<polygon fill="white" stroke="none" points="-4,4 -4,-147 933.5,-147 933.5,4 -4,4"/>
<!-- Node0 -->
<g id="node1" class="node"><title>Node0</title>
<polygon fill="#bfbfbf" stroke="black" points="606.5,-123.5 606.5,-142.5 740.5,-142.5 740.5,-123.5 606.5,-123.5"/>
<text text-anchor="middle" x="673.5" y="-130.5" font-family="Helvetica,sans-Serif" font-size="10.00">src/tools/scrypt/Scrypt.cpp</text>
</g>
<!-- Node1 -->
<g id="node2" class="node"><title>Node1</title>
<g id="a_node2"><a xlink:href="../../d2/df6/Scrypt_8hpp.html" target="_top" xlink:title="tools/scrypt/Scrypt.hpp">
<polygon fill="white" stroke="black" points="457.5,-67.5 457.5,-86.5 575.5,-86.5 575.5,-67.5 457.5,-67.5"/>
<text text-anchor="middle" x="516.5" y="-74.5" font-family="Helvetica,sans-Serif" font-size="10.00">tools/scrypt/Scrypt.hpp</text>
</a>
</g>
</g>
<!-- Node0&#45;&gt;Node1 -->
<g id="edge1" class="edge"><title>Node0&#45;&gt;Node1</title>
<path fill="none" stroke="midnightblue" d="M648.623,-123.444C622.211,-114.359 580.285,-99.9388 550.758,-89.7831"/>
<polygon fill="midnightblue" stroke="midnightblue" points="551.855,-86.4593 541.261,-86.5164 549.579,-93.0787 551.855,-86.4593"/>
</g>
<!-- Node11 -->
<g id="node12" class="node"><title>Node11</title>
<g id="a_node12"><a xlink:href="../../dd/d6e/Random_8hpp.html" target="_top" xlink:title="tools/scrypt/Random.hpp">
<polygon fill="white" stroke="black" points="749.5,-67.5 749.5,-86.5 875.5,-86.5 875.5,-67.5 749.5,-67.5"/>
<text text-anchor="middle" x="812.5" y="-74.5" font-family="Helvetica,sans-Serif" font-size="10.00">tools/scrypt/Random.hpp</text>
</a>
</g>
</g>
<!-- Node0&#45;&gt;Node11 -->
<g id="edge11" class="edge"><title>Node0&#45;&gt;Node11</title>
<path fill="none" stroke="midnightblue" d="M695.525,-123.444C718.604,-114.478 755.062,-100.314 781.141,-90.1827"/>
<polygon fill="midnightblue" stroke="midnightblue" points="782.524,-93.4002 790.578,-86.5164 779.989,-86.8753 782.524,-93.4002"/>
</g>
<!-- Node2 -->
<g id="node3" class="node"><title>Node2</title>
<polygon fill="white" stroke="#bfbfbf" points="0,-6 0,-25 45,-25 45,-6 0,-6"/>
<text text-anchor="middle" x="22.5" y="-13" font-family="Helvetica,sans-Serif" font-size="10.00">cstdlib</text>
</g>
<!-- Node1&#45;&gt;Node2 -->
<g id="edge2" class="edge"><title>Node1&#45;&gt;Node2</title>
<path fill="none" stroke="midnightblue" d="M457.426,-76.3811C368.494,-75.5913 195.608,-68.7303 54.5,-31 52.3456,-30.424 50.1539,-29.7167 47.9794,-28.9274"/>
<polygon fill="midnightblue" stroke="midnightblue" points="49.3046,-25.688 38.7263,-25.095 46.626,-32.1552 49.3046,-25.688"/>
</g>
<!-- Node3 -->
<g id="node4" class="node"><title>Node3</title>
<polygon fill="white" stroke="#bfbfbf" points="63.5,-6 63.5,-25 125.5,-25 125.5,-6 63.5,-6"/>
<text text-anchor="middle" x="94.5" y="-13" font-family="Helvetica,sans-Serif" font-size="10.00">libscrypt.h</text>
</g>
<!-- Node1&#45;&gt;Node3 -->
<g id="edge3" class="edge"><title>Node1&#45;&gt;Node3</title>
<path fill="none" stroke="midnightblue" d="M457.196,-73.2517C381.457,-68.7796 246.755,-57.5815 134.5,-31 131.436,-30.2745 128.284,-29.3886 125.157,-28.4158"/>
<polygon fill="midnightblue" stroke="midnightblue" points="125.992,-25.0031 115.398,-25.1026 123.742,-31.6316 125.992,-25.0031"/>
</g>
<!-- Node4 -->
<g id="node5" class="node"><title>Node4</title>
<polygon fill="white" stroke="#bfbfbf" points="144,-6 144,-25 265,-25 265,-6 144,-6"/>
<text text-anchor="middle" x="204.5" y="-13" font-family="Helvetica,sans-Serif" font-size="10.00">boost/algorithm/hex.hpp</text>
</g>
<!-- Node1&#45;&gt;Node4 -->
<g id="edge4" class="edge"><title>Node1&#45;&gt;Node4</title>
<path fill="none" stroke="midnightblue" d="M469.147,-67.4896C420.322,-58.6455 342.011,-44.2675 274.5,-31 268.266,-29.775 261.727,-28.4601 255.253,-27.1403"/>
<polygon fill="midnightblue" stroke="midnightblue" points="255.688,-23.6565 245.188,-25.0745 254.28,-30.5136 255.688,-23.6565"/>
</g>
<!-- Node5 -->
<g id="node6" class="node"><title>Node5</title>
<polygon fill="white" stroke="#bfbfbf" points="283.5,-0.5 283.5,-30.5 393.5,-30.5 393.5,-0.5 283.5,-0.5"/>
<text text-anchor="start" x="291.5" y="-18.5" font-family="Helvetica,sans-Serif" font-size="10.00">boost/algorithm/string</text>
<text text-anchor="middle" x="338.5" y="-7.5" font-family="Helvetica,sans-Serif" font-size="10.00">/classification.hpp</text>
</g>
<!-- Node1&#45;&gt;Node5 -->
<g id="edge5" class="edge"><title>Node1&#45;&gt;Node5</title>
<path fill="none" stroke="midnightblue" d="M490.997,-67.4751C464.749,-58.7012 423.126,-44.788 389.992,-33.7123"/>
<polygon fill="midnightblue" stroke="midnightblue" points="391.045,-30.3738 380.451,-30.523 388.826,-37.0128 391.045,-30.3738"/>
</g>
<!-- Node6 -->
<g id="node7" class="node"><title>Node6</title>
<polygon fill="white" stroke="#bfbfbf" points="411.5,-0.5 411.5,-30.5 521.5,-30.5 521.5,-0.5 411.5,-0.5"/>
<text text-anchor="start" x="419.5" y="-18.5" font-family="Helvetica,sans-Serif" font-size="10.00">boost/algorithm/string</text>
<text text-anchor="middle" x="466.5" y="-7.5" font-family="Helvetica,sans-Serif" font-size="10.00">/split.hpp</text>
</g>
<!-- Node1&#45;&gt;Node6 -->
<g id="edge6" class="edge"><title>Node1&#45;&gt;Node6</title>
<path fill="none" stroke="midnightblue" d="M509.336,-67.4751C502.944,-59.8685 493.306,-48.3992 484.79,-38.2649"/>
<polygon fill="midnightblue" stroke="midnightblue" points="487.397,-35.9271 478.284,-30.523 482.038,-40.4305 487.397,-35.9271"/>
</g>
<!-- Node7 -->
<g id="node8" class="node"><title>Node7</title>
<polygon fill="white" stroke="#bfbfbf" points="539.5,-6 539.5,-25 593.5,-25 593.5,-6 539.5,-6"/>
<text text-anchor="middle" x="566.5" y="-13" font-family="Helvetica,sans-Serif" font-size="10.00">iostream</text>
</g>
<!-- Node1&#45;&gt;Node7 -->
<g id="edge7" class="edge"><title>Node1&#45;&gt;Node7</title>
<path fill="none" stroke="midnightblue" d="M523.664,-67.4751C531.238,-58.4617 543.37,-44.0246 552.793,-32.8118"/>
<polygon fill="midnightblue" stroke="midnightblue" points="555.596,-34.9166 559.35,-25.0091 550.237,-30.4132 555.596,-34.9166"/>
</g>
<!-- Node8 -->
<g id="node9" class="node"><title>Node8</title>
<polygon fill="white" stroke="#bfbfbf" points="611.5,-6 611.5,-25 663.5,-25 663.5,-6 611.5,-6"/>
<text text-anchor="middle" x="637.5" y="-13" font-family="Helvetica,sans-Serif" font-size="10.00">sstream</text>
</g>
<!-- Node1&#45;&gt;Node8 -->
<g id="edge8" class="edge"><title>Node1&#45;&gt;Node8</title>
<path fill="none" stroke="midnightblue" d="M533.836,-67.4751C554.053,-57.5338 587.687,-40.9947 611.142,-29.461"/>
<polygon fill="midnightblue" stroke="midnightblue" points="612.767,-32.5627 620.196,-25.0091 609.678,-26.281 612.767,-32.5627"/>
</g>
<!-- Node9 -->
<g id="node10" class="node"><title>Node9</title>
<polygon fill="white" stroke="#bfbfbf" points="682,-6 682,-25 741,-25 741,-6 682,-6"/>
<text text-anchor="middle" x="711.5" y="-13" font-family="Helvetica,sans-Serif" font-size="10.00">stdexcept</text>
</g>
<!-- Node1&#45;&gt;Node9 -->
<g id="edge9" class="edge"><title>Node1&#45;&gt;Node9</title>
<path fill="none" stroke="midnightblue" d="M548.684,-67.476C580.379,-58.9035 630.068,-44.986 672.5,-31 674.901,-30.2085 677.375,-29.3624 679.856,-28.4915"/>
<polygon fill="midnightblue" stroke="midnightblue" points="681.111,-31.7597 689.328,-25.0718 678.734,-25.1757 681.111,-31.7597"/>
</g>
<!-- Node10 -->
<g id="node11" class="node"><title>Node10</title>
<polygon fill="white" stroke="#bfbfbf" points="759.5,-6 759.5,-25 803.5,-25 803.5,-6 759.5,-6"/>
<text text-anchor="middle" x="781.5" y="-13" font-family="Helvetica,sans-Serif" font-size="10.00">vector</text>
</g>
<!-- Node1&#45;&gt;Node10 -->
<g id="edge10" class="edge"><title>Node1&#45;&gt;Node10</title>
<path fill="none" stroke="midnightblue" d="M575.864,-68.4619C623.53,-61.4779 691.79,-49.3664 749.5,-31 751.374,-30.4035 753.284,-29.7271 755.191,-29.0005"/>
<polygon fill="midnightblue" stroke="midnightblue" points="756.653,-32.1827 764.52,-25.0858 753.945,-25.728 756.653,-32.1827"/>
</g>
<!-- Node11&#45;&gt;Node10 -->
<g id="edge14" class="edge"><title>Node11&#45;&gt;Node10</title>
<path fill="none" stroke="midnightblue" d="M808.058,-67.4751C803.547,-58.8152 796.426,-45.1486 790.693,-34.1453"/>
<polygon fill="midnightblue" stroke="midnightblue" points="793.658,-32.2604 785.933,-25.0091 787.45,-35.4948 793.658,-32.2604"/>
</g>
<!-- Node12 -->
<g id="node13" class="node"><title>Node12</title>
<polygon fill="white" stroke="#bfbfbf" points="821.5,-6 821.5,-25 867.5,-25 867.5,-6 821.5,-6"/>
<text text-anchor="middle" x="844.5" y="-13" font-family="Helvetica,sans-Serif" font-size="10.00">cstdint</text>
</g>
<!-- Node11&#45;&gt;Node12 -->
<g id="edge12" class="edge"><title>Node11&#45;&gt;Node12</title>
<path fill="none" stroke="midnightblue" d="M817.085,-67.4751C821.742,-58.8152 829.092,-45.1486 835.01,-34.1453"/>
<polygon fill="midnightblue" stroke="midnightblue" points="838.27,-35.474 839.924,-25.0091 832.105,-32.1584 838.27,-35.474"/>
</g>
<!-- Node13 -->
<g id="node14" class="node"><title>Node13</title>
<polygon fill="white" stroke="#bfbfbf" points="885.5,-6 885.5,-25 929.5,-25 929.5,-6 885.5,-6"/>
<text text-anchor="middle" x="907.5" y="-13" font-family="Helvetica,sans-Serif" font-size="10.00">mutex</text>
</g>
<!-- Node11&#45;&gt;Node13 -->
<g id="edge13" class="edge"><title>Node11&#45;&gt;Node13</title>
<path fill="none" stroke="midnightblue" d="M826.111,-67.4751C841.561,-57.7989 866.99,-41.8721 885.316,-30.3941"/>
<polygon fill="midnightblue" stroke="midnightblue" points="887.297,-33.2834 893.914,-25.0091 883.581,-27.3509 887.297,-33.2834"/>
</g>
</g>
</svg>
