<?xml version="1.0" encoding="UTF-8" standalone="no"?>
<!DOCTYPE svg PUBLIC "-//W3C//DTD SVG 1.1//EN"
 "http://www.w3.org/Graphics/SVG/1.1/DTD/svg11.dtd">
<!-- Generated by graphviz version 2.38.0 (20140413.2041)
 -->
<!-- Title: Leosac::Module::LedBuzzer::LEDBuzzerModule Pages: 1 -->
<!--zoomable 189 -->
<svg id="main" version="1.1" xmlns="http://www.w3.org/2000/svg" xmlns:xlink="http://www.w3.org/1999/xlink" xml:space="preserve" onload="init(evt)">
<style type="text/css"><![CDATA[
.edge:hover path { stroke: red; }
.edge:hover polygon { stroke: red; fill: red; }
]]></style>
<script type="text/javascript"><![CDATA[
var edges = document.getElementsByTagName('g');
if (edges && edges.length) {
  for (var i=0;i<edges.length;i++) {
    if (edges[i].id.substr(0,4)=='edge') {
      edges[i].setAttribute('class','edge');
    }
  }
}
]]></script>
        <defs>
                <circle id="rim" cx="0" cy="0" r="7"/>
                <circle id="rim2" cx="0" cy="0" r="3.5"/>
                <g id="zoomPlus">
                        <use xlink:href="#rim" fill="#404040">
                                <set attributeName="fill" to="#808080" begin="zoomplus.mouseover" end="zoomplus.mouseout"/>
                        </use>
                        <path d="M-4,0h8M0,-4v8" fill="none" stroke="white" stroke-width="1.5" pointer-events="none"/>
                </g>
                <g id="zoomMin">
                        <use xlink:href="#rim" fill="#404040">
                                <set attributeName="fill" to="#808080" begin="zoomminus.mouseover" end="zoomminus.mouseout"/>
                        </use>
                        <path d="M-4,0h8" fill="none" stroke="white" stroke-width="1.5" pointer-events="none"/>
                </g>
                <g id="dirArrow">
                        <path fill="none" stroke="white" stroke-width="1.5" d="M0,-3.0v7 M-2.5,-0.5L0,-3.0L2.5,-0.5"/>
                </g>
               <g id="resetDef">
                       <use xlink:href="#rim2" fill="#404040">
                               <set attributeName="fill" to="#808080" begin="reset.mouseover" end="reset.mouseout"/>
                       </use>
               </g>
        </defs>

<script type="text/javascript">
var viewWidth = 1162;
var viewHeight = 189;
var sectionId = 'dynsection-1';
</script>
<script xlink:href="../../svgpan.js"/>
<svg id="graph" class="graph">
<g id="viewport">
<title>Leosac::Module::LedBuzzer::LEDBuzzerModule</title>
<polygon fill="white" stroke="none" points="-4,4 -4,-184.5 1158,-184.5 1158,4 -4,4"/>
<!-- Node2 -->
<g id="node1" class="node"><title>Node2</title>
<polygon fill="#bfbfbf" stroke="black" points="1016,-66 1016,-96 1154,-96 1154,-66 1016,-66"/>
<text text-anchor="start" x="1024" y="-84" font-family="Helvetica,sans-Serif" font-size="10.00">Leosac::Module::LedBuzzer</text>
<text text-anchor="middle" x="1085" y="-73" font-family="Helvetica,sans-Serif" font-size="10.00">::LEDBuzzerModule</text>
</g>
<!-- Node3 -->
<g id="node2" class="node"><title>Node3</title>
<g id="a_node2"><a xlink:href="../../df/d9f/classLeosac_1_1Module_1_1BaseModule.html" target="_top" xlink:title="Base class for module implementation. ">
<polygon fill="white" stroke="black" points="737,-120.5 737,-139.5 883,-139.5 883,-120.5 737,-120.5"/>
<text text-anchor="middle" x="810" y="-127.5" font-family="Helvetica,sans-Serif" font-size="10.00">Leosac::Module::BaseModule</text>
</a>
</g>
</g>
<!-- Node3&#45;&gt;Node2 -->
<g id="edge1" class="edge"><title>Node3&#45;&gt;Node2</title>
<path fill="none" stroke="midnightblue" d="M873.899,-118.71C916.362,-111.089 972.383,-101.034 1015.9,-93.2235"/>
<polygon fill="midnightblue" stroke="midnightblue" points="873.185,-115.283 863.961,-120.494 874.422,-122.172 873.185,-115.283"/>
</g>
<!-- Node4 -->
<g id="node3" class="node"><title>Node4</title>
<g id="a_node3"><a xlink:title="STL class. ">
<polygon fill="white" stroke="#bfbfbf" points="558,-155.5 558,-174.5 618,-174.5 618,-155.5 558,-155.5"/>
<text text-anchor="middle" x="588" y="-162.5" font-family="Helvetica,sans-Serif" font-size="10.00">std::string</text>
</a>
</g>
</g>
<!-- Node4&#45;&gt;Node3 -->
<g id="edge2" class="edge"><title>Node4&#45;&gt;Node3</title>
<path fill="none" stroke="#9a32cd" stroke-dasharray="5,2" d="M628.099,-158.78C661.624,-153.446 710.46,-145.677 748.943,-139.555"/>
<polygon fill="#9a32cd" stroke="#9a32cd" points="627.54,-155.325 618.214,-160.352 628.64,-162.238 627.54,-155.325"/>
<text text-anchor="middle" x="692.5" y="-153" font-family="Helvetica,sans-Serif" font-size="10.00"> name_</text>
</g>
<!-- Node5 -->
<g id="node4" class="node"><title>Node5</title>
<g id="a_node4"><a xlink:title="STL class. ">
<polygon fill="white" stroke="#bfbfbf" points="350,-150 350,-180 445,-180 445,-150 350,-150"/>
<text text-anchor="start" x="358" y="-168" font-family="Helvetica,sans-Serif" font-size="10.00">std::basic_string&lt;</text>
<text text-anchor="middle" x="397.5" y="-157" font-family="Helvetica,sans-Serif" font-size="10.00"> char &gt;</text>
</a>
</g>
</g>
<!-- Node5&#45;&gt;Node4 -->
<g id="edge3" class="edge"><title>Node5&#45;&gt;Node4</title>
<path fill="none" stroke="midnightblue" d="M455.326,-165C489.162,-165 530.682,-165 557.941,-165"/>
<polygon fill="midnightblue" stroke="midnightblue" points="455.096,-161.5 445.096,-165 455.095,-168.5 455.096,-161.5"/>
</g>
<!-- Node6 -->
<g id="node5" class="node"><title>Node6</title>
<polygon fill="white" stroke="#bfbfbf" points="569,-117.5 569,-136.5 607,-136.5 607,-117.5 569,-117.5"/>
<text text-anchor="middle" x="588" y="-124.5" font-family="Helvetica,sans-Serif" font-size="10.00">ptree</text>
</g>
<!-- Node6&#45;&gt;Node3 -->
<g id="edge4" class="edge"><title>Node6&#45;&gt;Node3</title>
<path fill="none" stroke="#9a32cd" stroke-dasharray="5,2" d="M617.177,-127.384C647.225,-127.794 696.012,-128.459 736.864,-129.016"/>
<polygon fill="#9a32cd" stroke="#9a32cd" points="617.05,-123.882 607.004,-127.246 616.955,-130.882 617.05,-123.882"/>
<text text-anchor="middle" x="692.5" y="-132" font-family="Helvetica,sans-Serif" font-size="10.00"> config_</text>
</g>
<!-- Node7 -->
<g id="node6" class="node"><title>Node7</title>
<polygon fill="white" stroke="#bfbfbf" points="731,-60.5 731,-101.5 889,-101.5 889,-60.5 731,-60.5"/>
<text text-anchor="start" x="739" y="-89.5" font-family="Helvetica,sans-Serif" font-size="10.00">std::unique_ptr&lt; Leosac</text>
<text text-anchor="start" x="739" y="-78.5" font-family="Helvetica,sans-Serif" font-size="10.00">::Module::LedBuzzer::WSHelper</text>
<text text-anchor="middle" x="810" y="-67.5" font-family="Helvetica,sans-Serif" font-size="10.00">Thread &gt;</text>
</g>
<!-- Node7&#45;&gt;Node2 -->
<g id="edge5" class="edge"><title>Node7&#45;&gt;Node2</title>
<path fill="none" stroke="#9a32cd" stroke-dasharray="5,2" d="M899.236,-81C937.101,-81 980.653,-81 1015.96,-81"/>
<polygon fill="#9a32cd" stroke="#9a32cd" points="899.231,-77.5001 889.231,-81 899.231,-84.5001 899.231,-77.5001"/>
<text text-anchor="middle" x="954" y="-84" font-family="Helvetica,sans-Serif" font-size="10.00"> ws_helper_thread_</text>
</g>
<!-- Node8 -->
<g id="node7" class="node"><title>Node8</title>
<g id="a_node7"><a xlink:href="../../d1/d5f/classLeosac_1_1Module_1_1LedBuzzer_1_1WSHelperThread.html" target="_top" xlink:title="Leosac::Module::LedBuzzer\l::WSHelperThread">
<polygon fill="white" stroke="black" points="519,-66 519,-96 657,-96 657,-66 519,-66"/>
<text text-anchor="start" x="527" y="-84" font-family="Helvetica,sans-Serif" font-size="10.00">Leosac::Module::LedBuzzer</text>
<text text-anchor="middle" x="588" y="-73" font-family="Helvetica,sans-Serif" font-size="10.00">::WSHelperThread</text>
</a>
</g>
</g>
<!-- Node8&#45;&gt;Node7 -->
<g id="edge6" class="edge"><title>Node8&#45;&gt;Node7</title>
<path fill="none" stroke="#9a32cd" stroke-dasharray="5,2" d="M667.113,-81C687.803,-81 710.141,-81 730.834,-81"/>
<polygon fill="#9a32cd" stroke="#9a32cd" points="667.103,-77.5001 657.103,-81 667.103,-84.5001 667.103,-77.5001"/>
<text text-anchor="middle" x="692.5" y="-84" font-family="Helvetica,sans-Serif" font-size="10.00"> ptr</text>
</g>
<!-- Node9 -->
<g id="node8" class="node"><title>Node9</title>
<g id="a_node8"><a xlink:href="../../d8/daf/classLeosac_1_1Module_1_1WebSockAPI_1_1BaseModuleSupportThread.html" target="_top" xlink:title="Leosac::Module::WebSockAPI\l::BaseModuleSupportThread\&lt; int \&gt;">
<polygon fill="white" stroke="black" points="313,-66 313,-96 482,-96 482,-66 313,-66"/>
<text text-anchor="start" x="321" y="-84" font-family="Helvetica,sans-Serif" font-size="10.00">Leosac::Module::WebSockAPI</text>
<text text-anchor="middle" x="397.5" y="-73" font-family="Helvetica,sans-Serif" font-size="10.00">::BaseModuleSupportThread&lt; int &gt;</text>
</a>
</g>
</g>
<!-- Node9&#45;&gt;Node8 -->
<g id="edge7" class="edge"><title>Node9&#45;&gt;Node8</title>
<path fill="none" stroke="midnightblue" d="M492.138,-81C501.134,-81 510.137,-81 518.82,-81"/>
<polygon fill="midnightblue" stroke="midnightblue" points="492.002,-77.5001 482.002,-81 492.002,-84.5001 492.002,-77.5001"/>
</g>
<!-- Node10 -->
<g id="node9" class="node"><title>Node10</title>
<polygon fill="white" stroke="#bfbfbf" points="114,-84 114,-114 241,-114 241,-84 114,-84"/>
<text text-anchor="start" x="122" y="-102" font-family="Helvetica,sans-Serif" font-size="10.00">std::unique_ptr&lt; boost</text>
<text text-anchor="middle" x="177.5" y="-91" font-family="Helvetica,sans-Serif" font-size="10.00">::asio::io_service::work &gt;</text>
</g>
<!-- Node10&#45;&gt;Node9 -->
<g id="edge8" class="edge"><title>Node10&#45;&gt;Node9</title>
<path fill="none" stroke="#9a32cd" stroke-dasharray="5,2" d="M251.369,-92.9833C271.036,-91.3594 292.473,-89.5894 312.686,-87.9204"/>
<polygon fill="#9a32cd" stroke="#9a32cd" points="250.94,-89.5067 241.262,-93.8178 251.516,-96.483 250.94,-89.5067"/>
<text text-anchor="middle" x="277" y="-96" font-family="Helvetica,sans-Serif" font-size="10.00"> work_</text>
</g>
<!-- Node11 -->
<g id="node10" class="node"><title>Node11</title>
<polygon fill="white" stroke="#bfbfbf" points="125.5,-35 125.5,-65 229.5,-65 229.5,-35 125.5,-35"/>
<text text-anchor="start" x="133.5" y="-53" font-family="Helvetica,sans-Serif" font-size="10.00">std::unique_ptr&lt; std</text>
<text text-anchor="middle" x="177.5" y="-42" font-family="Helvetica,sans-Serif" font-size="10.00">::thread &gt;</text>
</g>
<!-- Node11&#45;&gt;Node9 -->
<g id="edge9" class="edge"><title>Node11&#45;&gt;Node9</title>
<path fill="none" stroke="#9a32cd" stroke-dasharray="5,2" d="M239.769,-58.7125C262.442,-61.9367 288.549,-65.6492 312.872,-69.1079"/>
<polygon fill="#9a32cd" stroke="#9a32cd" points="240.004,-55.2109 229.611,-57.2681 239.019,-62.1412 240.004,-55.2109"/>
<text text-anchor="middle" x="277" y="-70" font-family="Helvetica,sans-Serif" font-size="10.00"> thread_</text>
</g>
<!-- Node12 -->
<g id="node11" class="node"><title>Node12</title>
<g id="a_node11"><a xlink:title="STL class. ">
<polygon fill="white" stroke="#bfbfbf" points="0,-40.5 0,-59.5 63,-59.5 63,-40.5 0,-40.5"/>
<text text-anchor="middle" x="31.5" y="-47.5" font-family="Helvetica,sans-Serif" font-size="10.00">std::thread</text>
</a>
</g>
</g>
<!-- Node12&#45;&gt;Node11 -->
<g id="edge10" class="edge"><title>Node12&#45;&gt;Node11</title>
<path fill="none" stroke="#9a32cd" stroke-dasharray="5,2" d="M73.2522,-50C89.4361,-50 108.233,-50 125.319,-50"/>
<polygon fill="#9a32cd" stroke="#9a32cd" points="73.0387,-46.5001 63.0387,-50 73.0387,-53.5001 73.0387,-46.5001"/>
<text text-anchor="middle" x="88.5" y="-53" font-family="Helvetica,sans-Serif" font-size="10.00"> ptr</text>
</g>
<!-- Node13 -->
<g id="node12" class="node"><title>Node13</title>
<polygon fill="white" stroke="#bfbfbf" points="728,-0.5 728,-41.5 892,-41.5 892,-0.5 728,-0.5"/>
<text text-anchor="start" x="736" y="-29.5" font-family="Helvetica,sans-Serif" font-size="10.00">std::vector&lt; std::shared</text>
<text text-anchor="start" x="736" y="-18.5" font-family="Helvetica,sans-Serif" font-size="10.00">_ptr&lt; Leosac::Module::LedBuzzer</text>
<text text-anchor="middle" x="810" y="-7.5" font-family="Helvetica,sans-Serif" font-size="10.00">::LedBuzzerImpl &gt; &gt;</text>
</g>
<!-- Node13&#45;&gt;Node2 -->
<g id="edge11" class="edge"><title>Node13&#45;&gt;Node2</title>
<path fill="none" stroke="#9a32cd" stroke-dasharray="5,2" d="M901.979,-40.9954C939.056,-49.1442 981.193,-58.4051 1015.58,-65.9629"/>
<polygon fill="#9a32cd" stroke="#9a32cd" points="902.688,-37.5678 892.17,-38.8395 901.185,-44.4046 902.688,-37.5678"/>
<text text-anchor="middle" x="954" y="-65" font-family="Helvetica,sans-Serif" font-size="10.00"> leds_and_buzzers_</text>
</g>
</g>
</svg>
        <g id="navigator" transform="translate(0 0)" fill="#404254">
                <rect fill="#f2f5e9" fill-opacity="0.5" stroke="#606060" stroke-width=".5" x="0" y="0" width="60" height="60"/>
                <use id="zoomplus" xlink:href="#zoomPlus" x="17" y="9" onmousedown="handleZoom(evt,'in')"/>
                <use id="zoomminus" xlink:href="#zoomMin" x="42" y="9" onmousedown="handleZoom(evt,'out')"/>
                <use id="reset" xlink:href="#resetDef" x="30" y="36" onmousedown="handleReset()"/>
                <g id="arrowUp" xlink:href="#dirArrow" transform="translate(30 24)" onmousedown="handlePan(0,-1)">
                  <use xlink:href="#rim" fill="#404040">
                        <set attributeName="fill" to="#808080" begin="arrowUp.mouseover" end="arrowUp.mouseout"/>
                  </use>
                  <path fill="none" stroke="white" stroke-width="1.5" d="M0,-3.0v7 M-2.5,-0.5L0,-3.0L2.5,-0.5"/>
                </g>
                <g id="arrowRight" xlink:href="#dirArrow" transform="rotate(90) translate(36 -43)" onmousedown="handlePan(1,0)">
                  <use xlink:href="#rim" fill="#404040">
                        <set attributeName="fill" to="#808080" begin="arrowRight.mouseover" end="arrowRight.mouseout"/>
                  </use>
                  <path fill="none" stroke="white" stroke-width="1.5" d="M0,-3.0v7 M-2.5,-0.5L0,-3.0L2.5,-0.5"/>
                </g>
                <g id="arrowDown" xlink:href="#dirArrow" transform="rotate(180) translate(-30 -48)" onmousedown="handlePan(0,1)">
                  <use xlink:href="#rim" fill="#404040">
                        <set attributeName="fill" to="#808080" begin="arrowDown.mouseover" end="arrowDown.mouseout"/>
                  </use>
                  <path fill="none" stroke="white" stroke-width="1.5" d="M0,-3.0v7 M-2.5,-0.5L0,-3.0L2.5,-0.5"/>
                </g>
                <g id="arrowLeft" xlink:href="#dirArrow" transform="rotate(270) translate(-36 17)" onmousedown="handlePan(-1,0)">
                  <use xlink:href="#rim" fill="#404040">
                        <set attributeName="fill" to="#808080" begin="arrowLeft.mouseover" end="arrowLeft.mouseout"/>
                  </use>
                  <path fill="none" stroke="white" stroke-width="1.5" d="M0,-3.0v7 M-2.5,-0.5L0,-3.0L2.5,-0.5"/>
                </g>
        </g>
        <svg viewBox="0 0 15 15" width="100%" height="30px" preserveAspectRatio="xMaxYMin meet">
         <g id="arrow_out" transform="scale(0.3 0.3)">
          <a xlink:href="classLeosac_1_1Module_1_1LedBuzzer_1_1LEDBuzzerModule__coll__graph_org.svg" target="_base">
           <rect id="button" ry="5" rx="5" y="6" x="6" height="38" width="38"
                fill="#f2f5e9" fill-opacity="0.5" stroke="#606060" stroke-width="1.0"/>
           <path id="arrow"
             d="M 11.500037,31.436501 C 11.940474,20.09759 22.043105,11.32322 32.158766,21.979434 L 37.068811,17.246167 C 37.068811,17.246167 37.088388,32 37.088388,32 L 22.160133,31.978069 C 22.160133,31.978069 26.997745,27.140456 26.997745,27.140456 C 18.528582,18.264221 13.291696,25.230495 11.500037,31.436501 z"
             style="fill:#404040;"/>
          </a>
         </g>
        </svg>
</svg>
