<?xml version="1.0" encoding="UTF-8" standalone="no"?>
<!DOCTYPE svg PUBLIC "-//W3C//DTD SVG 1.1//EN"
 "http://www.w3.org/Graphics/SVG/1.1/DTD/svg11.dtd">
<!-- Generated by graphviz version 2.38.0 (20140413.2041)
 -->
<!-- Title: src/modules/monitor/MonitorModule.hpp Pages: 1 -->
<svg width="236pt" height="106pt"
 viewBox="0.00 0.00 236.00 106.00" xmlns="http://www.w3.org/2000/svg" xmlns:xlink="http://www.w3.org/1999/xlink">
<g id="graph0" class="graph" transform="scale(1 1) rotate(0) translate(4 102)">
<title>src/modules/monitor/MonitorModule.hpp</title>
<polygon fill="white" stroke="none" points="-4,4 -4,-102 232,-102 232,4 -4,4"/>
<!-- Node38 -->
<g id="node1" class="node"><title>Node38</title>
<polygon fill="#bfbfbf" stroke="black" points="61,-67.5 61,-97.5 166,-97.5 166,-67.5 61,-67.5"/>
<text text-anchor="start" x="69" y="-85.5" font-family="Helvetica,sans-Serif" font-size="10.00">src/modules/monitor</text>
<text text-anchor="middle" x="113.5" y="-74.5" font-family="Helvetica,sans-Serif" font-size="10.00">/MonitorModule.hpp</text>
</g>
<!-- Node39 -->
<g id="node2" class="node"><title>Node39</title>
<g id="a_node2"><a xlink:href="../../d9/da6/monitor_2init_8cpp.html" target="_top" xlink:title="src/modules/monitor\l/init.cpp">
<polygon fill="white" stroke="black" points="0,-0.5 0,-30.5 105,-30.5 105,-0.5 0,-0.5"/>
<text text-anchor="start" x="8" y="-18.5" font-family="Helvetica,sans-Serif" font-size="10.00">src/modules/monitor</text>
<text text-anchor="middle" x="52.5" y="-7.5" font-family="Helvetica,sans-Serif" font-size="10.00">/init.cpp</text>
</a>
</g>
</g>
<!-- Node38&#45;&gt;Node39 -->
<g id="edge1" class="edge"><title>Node38&#45;&gt;Node39</title>
<path fill="none" stroke="midnightblue" d="M93.3458,-60.0243C84.2574,-50.3398 73.7786,-39.1739 65.7103,-30.5765"/>
<polygon fill="midnightblue" stroke="midnightblue" points="90.8686,-62.4992 100.264,-67.396 95.9729,-57.709 90.8686,-62.4992"/>
</g>
<!-- Node40 -->
<g id="node3" class="node"><title>Node40</title>
<g id="a_node3"><a xlink:href="../../df/d30/MonitorModule_8cpp.html" target="_top" xlink:title="src/modules/monitor\l/MonitorModule.cpp">
<polygon fill="white" stroke="black" points="123,-0.5 123,-30.5 228,-30.5 228,-0.5 123,-0.5"/>
<text text-anchor="start" x="131" y="-18.5" font-family="Helvetica,sans-Serif" font-size="10.00">src/modules/monitor</text>
<text text-anchor="middle" x="175.5" y="-7.5" font-family="Helvetica,sans-Serif" font-size="10.00">/MonitorModule.cpp</text>
</a>
</g>
</g>
<!-- Node38&#45;&gt;Node40 -->
<g id="edge2" class="edge"><title>Node38&#45;&gt;Node40</title>
<path fill="none" stroke="midnightblue" d="M133.985,-60.0243C143.222,-50.3398 153.873,-39.1739 162.073,-30.5765"/>
<polygon fill="midnightblue" stroke="midnightblue" points="131.323,-57.7441 126.953,-67.396 136.388,-62.5756 131.323,-57.7441"/>
</g>
</g>
</svg>
