<?xml version="1.0" encoding="UTF-8" standalone="no"?>
<!DOCTYPE svg PUBLIC "-//W3C//DTD SVG 1.1//EN"
 "http://www.w3.org/Graphics/SVG/1.1/DTD/svg11.dtd">
<!-- Generated by graphviz version 2.38.0 (20140413.2041)
 -->
<!-- Title: src/core/credentials/IPinCode.hpp Pages: 1 -->
<!--zoomable 274 -->
<svg id="main" version="1.1" xmlns="http://www.w3.org/2000/svg" xmlns:xlink="http://www.w3.org/1999/xlink" xml:space="preserve" onload="init(evt)">
<style type="text/css"><![CDATA[
.edge:hover path { stroke: red; }
.edge:hover polygon { stroke: red; fill: red; }
]]></style>
<script type="text/javascript"><![CDATA[
var edges = document.getElementsByTagName('g');
if (edges && edges.length) {
  for (var i=0;i<edges.length;i++) {
    if (edges[i].id.substr(0,4)=='edge') {
      edges[i].setAttribute('class','edge');
    }
  }
}
]]></script>
        <defs>
                <circle id="rim" cx="0" cy="0" r="7"/>
                <circle id="rim2" cx="0" cy="0" r="3.5"/>
                <g id="zoomPlus">
                        <use xlink:href="#rim" fill="#404040">
                                <set attributeName="fill" to="#808080" begin="zoomplus.mouseover" end="zoomplus.mouseout"/>
                        </use>
                        <path d="M-4,0h8M0,-4v8" fill="none" stroke="white" stroke-width="1.5" pointer-events="none"/>
                </g>
                <g id="zoomMin">
                        <use xlink:href="#rim" fill="#404040">
                                <set attributeName="fill" to="#808080" begin="zoomminus.mouseover" end="zoomminus.mouseout"/>
                        </use>
                        <path d="M-4,0h8" fill="none" stroke="white" stroke-width="1.5" pointer-events="none"/>
                </g>
                <g id="dirArrow">
                        <path fill="none" stroke="white" stroke-width="1.5" d="M0,-3.0v7 M-2.5,-0.5L0,-3.0L2.5,-0.5"/>
                </g>
               <g id="resetDef">
                       <use xlink:href="#rim2" fill="#404040">
                               <set attributeName="fill" to="#808080" begin="reset.mouseover" end="reset.mouseout"/>
                       </use>
               </g>
        </defs>

<script type="text/javascript">
var viewWidth = 581;
var viewHeight = 274;
var sectionId = 'dynsection-0';
</script>
<script xlink:href="../../svgpan.js"/>
<svg id="graph" class="graph">
<g id="viewport">
<title>src/core/credentials/IPinCode.hpp</title>
<polygon fill="white" stroke="none" points="-4,4 -4,-270 577.012,-270 577.012,4 -4,4"/>
<!-- Node0 -->
<g id="node1" class="node"><title>Node0</title>
<polygon fill="#bfbfbf" stroke="black" points="0.512108,-235.5 0.512108,-265.5 102.512,-265.5 102.512,-235.5 0.512108,-235.5"/>
<text text-anchor="start" x="8.51211" y="-253.5" font-family="Helvetica,sans-Serif" font-size="10.00">src/core/credentials</text>
<text text-anchor="middle" x="51.5121" y="-242.5" font-family="Helvetica,sans-Serif" font-size="10.00">/IPinCode.hpp</text>
</g>
<!-- Node1 -->
<g id="node2" class="node"><title>Node1</title>
<g id="a_node2"><a xlink:href="../../d0/db0/ICredential_8hpp.html" target="_top" xlink:title="core/credentials/ICredential.hpp">
<polygon fill="white" stroke="black" points="67.0121,-179.5 67.0121,-198.5 222.012,-198.5 222.012,-179.5 67.0121,-179.5"/>
<text text-anchor="middle" x="144.512" y="-186.5" font-family="Helvetica,sans-Serif" font-size="10.00">core/credentials/ICredential.hpp</text>
</a>
</g>
</g>
<!-- Node0&#45;&gt;Node1 -->
<g id="edge1" class="edge"><title>Node0&#45;&gt;Node1</title>
<path fill="none" stroke="midnightblue" d="M73.5518,-235.399C88.3197,-225.951 107.689,-213.559 122.46,-204.109"/>
<polygon fill="midnightblue" stroke="midnightblue" points="124.442,-206.995 130.98,-198.658 120.67,-201.099 124.442,-206.995"/>
</g>
<!-- Node4 -->
<g id="node5" class="node"><title>Node4</title>
<polygon fill="white" stroke="#bfbfbf" points="50.5121,-56.5 50.5121,-75.5 102.512,-75.5 102.512,-56.5 50.5121,-56.5"/>
<text text-anchor="middle" x="76.5121" y="-63.5" font-family="Helvetica,sans-Serif" font-size="10.00">memory</text>
</g>
<!-- Node0&#45;&gt;Node4 -->
<g id="edge17" class="edge"><title>Node0&#45;&gt;Node4</title>
<path fill="none" stroke="midnightblue" d="M39.7235,-235.144C20.0536,-209.331 -15.1703,-153.873 7.51211,-112 15.2607,-97.6958 29.7463,-87.2188 43.4521,-79.992"/>
<polygon fill="midnightblue" stroke="midnightblue" points="45.2497,-83.0103 52.7237,-75.501 42.1981,-76.7104 45.2497,-83.0103"/>
</g>
<!-- Node2 -->
<g id="node3" class="node"><title>Node2</title>
<g id="a_node3"><a xlink:href="../../d3/d6f/AuthFwd_8hpp.html" target="_top" xlink:title="core/auth/AuthFwd.hpp">
<polygon fill="white" stroke="black" points="297.512,-118 297.512,-137 415.512,-137 415.512,-118 297.512,-118"/>
<text text-anchor="middle" x="356.512" y="-125" font-family="Helvetica,sans-Serif" font-size="10.00">core/auth/AuthFwd.hpp</text>
</a>
</g>
</g>
<!-- Node1&#45;&gt;Node2 -->
<g id="edge2" class="edge"><title>Node1&#45;&gt;Node2</title>
<path fill="none" stroke="midnightblue" d="M174.887,-179.475C212.118,-169.026 275.322,-151.287 316.488,-139.733"/>
<polygon fill="midnightblue" stroke="midnightblue" points="317.512,-143.081 326.194,-137.009 315.62,-136.342 317.512,-143.081"/>
</g>
<!-- Node1&#45;&gt;Node4 -->
<g id="edge16" class="edge"><title>Node1&#45;&gt;Node4</title>
<path fill="none" stroke="midnightblue" d="M74.345,-179.455C52.1895,-173.07 29.9927,-162.029 16.5121,-143 8.54755,-131.758 10.3505,-124.323 16.5121,-112 23.2405,-98.5432 36.1184,-88.0665 48.2238,-80.6212"/>
<polygon fill="midnightblue" stroke="midnightblue" points="50.2453,-83.4985 57.2157,-75.5195 46.791,-77.4101 50.2453,-83.4985"/>
</g>
<!-- Node6 -->
<g id="node7" class="node"><title>Node6</title>
<g id="a_node7"><a xlink:href="../../d7/d7f/CredentialFwd_8hpp.html" target="_top" xlink:title="core/credentials/Credential\lFwd.hpp">
<polygon fill="white" stroke="black" points="146.012,-112.5 146.012,-142.5 279.012,-142.5 279.012,-112.5 146.012,-112.5"/>
<text text-anchor="start" x="154.012" y="-130.5" font-family="Helvetica,sans-Serif" font-size="10.00">core/credentials/Credential</text>
<text text-anchor="middle" x="212.512" y="-119.5" font-family="Helvetica,sans-Serif" font-size="10.00">Fwd.hpp</text>
</a>
</g>
</g>
<!-- Node1&#45;&gt;Node6 -->
<g id="edge6" class="edge"><title>Node1&#45;&gt;Node6</title>
<path fill="none" stroke="midnightblue" d="M154.255,-179.475C163.206,-171.643 176.838,-159.714 188.666,-149.366"/>
<polygon fill="midnightblue" stroke="midnightblue" points="191.265,-151.742 196.486,-142.523 186.655,-146.474 191.265,-151.742"/>
</g>
<!-- Node7 -->
<g id="node8" class="node"><title>Node7</title>
<g id="a_node8"><a xlink:href="../../dd/d9d/IVisitable_8hpp.html" target="_top" xlink:title="tools/IVisitable.hpp">
<polygon fill="white" stroke="black" points="433.512,-118 433.512,-137 533.512,-137 533.512,-118 433.512,-118"/>
<text text-anchor="middle" x="483.512" y="-125" font-family="Helvetica,sans-Serif" font-size="10.00">tools/IVisitable.hpp</text>
</a>
</g>
</g>
<!-- Node1&#45;&gt;Node7 -->
<g id="edge9" class="edge"><title>Node1&#45;&gt;Node7</title>
<path fill="none" stroke="midnightblue" d="M206.776,-179.481C263.692,-171.341 350.084,-158.1 424.512,-143 429.875,-141.912 435.486,-140.67 441.026,-139.38"/>
<polygon fill="midnightblue" stroke="midnightblue" points="441.939,-142.76 450.851,-137.031 440.311,-135.952 441.939,-142.76"/>
</g>
<!-- Node11 -->
<g id="node12" class="node"><title>Node11</title>
<g id="a_node12"><a xlink:href="../../d8/d97/ToolsFwd_8hpp.html" target="_top" xlink:title="tools/ToolsFwd.hpp">
<polygon fill="white" stroke="black" points="25.5121,-118 25.5121,-137 127.512,-137 127.512,-118 25.5121,-118"/>
<text text-anchor="middle" x="76.5121" y="-125" font-family="Helvetica,sans-Serif" font-size="10.00">tools/ToolsFwd.hpp</text>
</a>
</g>
</g>
<!-- Node1&#45;&gt;Node11 -->
<g id="edge13" class="edge"><title>Node1&#45;&gt;Node11</title>
<path fill="none" stroke="midnightblue" d="M134.769,-179.475C124.165,-170.197 106.993,-155.171 94.0333,-143.831"/>
<polygon fill="midnightblue" stroke="midnightblue" points="96.0673,-140.96 86.2368,-137.009 91.4578,-146.228 96.0673,-140.96"/>
</g>
<!-- Node3 -->
<g id="node4" class="node"><title>Node3</title>
<polygon fill="white" stroke="#bfbfbf" points="332.012,-56.5 332.012,-75.5 381.012,-75.5 381.012,-56.5 332.012,-56.5"/>
<text text-anchor="middle" x="356.512" y="-63.5" font-family="Helvetica,sans-Serif" font-size="10.00">cstddef</text>
</g>
<!-- Node2&#45;&gt;Node3 -->
<g id="edge3" class="edge"><title>Node2&#45;&gt;Node3</title>
<path fill="none" stroke="midnightblue" d="M356.512,-117.975C356.512,-109.58 356.512,-96.4806 356.512,-85.6631"/>
<polygon fill="midnightblue" stroke="midnightblue" points="360.012,-85.5091 356.512,-75.5091 353.012,-85.5091 360.012,-85.5091"/>
</g>
<!-- Node2&#45;&gt;Node4 -->
<g id="edge4" class="edge"><title>Node2&#45;&gt;Node4</title>
<path fill="none" stroke="midnightblue" d="M316.395,-117.975C261.815,-106.377 164.975,-85.7984 112.582,-74.6649"/>
<polygon fill="midnightblue" stroke="midnightblue" points="113.231,-71.2247 102.722,-72.5696 111.776,-78.0718 113.231,-71.2247"/>
</g>
<!-- Node5 -->
<g id="node6" class="node"><title>Node5</title>
<polygon fill="white" stroke="#bfbfbf" points="169.512,-56.5 169.512,-75.5 255.512,-75.5 255.512,-56.5 169.512,-56.5"/>
<text text-anchor="middle" x="212.512" y="-63.5" font-family="Helvetica,sans-Serif" font-size="10.00">odb/lazy&#45;ptr.hxx</text>
</g>
<!-- Node2&#45;&gt;Node5 -->
<g id="edge5" class="edge"><title>Node2&#45;&gt;Node5</title>
<path fill="none" stroke="midnightblue" d="M335.88,-117.975C311.393,-107.857 270.365,-90.9046 242.403,-79.3507"/>
<polygon fill="midnightblue" stroke="midnightblue" points="243.684,-76.0932 233.106,-75.5091 241.011,-82.5627 243.684,-76.0932"/>
</g>
<!-- Node6&#45;&gt;Node4 -->
<g id="edge7" class="edge"><title>Node6&#45;&gt;Node4</title>
<path fill="none" stroke="midnightblue" d="M180.282,-112.399C157.667,-102.505 127.674,-89.3832 105.751,-79.7919"/>
<polygon fill="midnightblue" stroke="midnightblue" points="106.866,-76.4595 96.3013,-75.6578 104.06,-82.8726 106.866,-76.4595"/>
</g>
<!-- Node6&#45;&gt;Node5 -->
<g id="edge8" class="edge"><title>Node6&#45;&gt;Node5</title>
<path fill="none" stroke="midnightblue" d="M212.512,-112.399C212.512,-104.466 212.512,-94.458 212.512,-85.8583"/>
<polygon fill="midnightblue" stroke="midnightblue" points="216.012,-85.6577 212.512,-75.6578 209.012,-85.6578 216.012,-85.6577"/>
</g>
<!-- Node8 -->
<g id="node9" class="node"><title>Node8</title>
<g id="a_node9"><a xlink:href="../../d2/d91/Visitor_8hpp.html" target="_top" xlink:title="tools/Visitor.hpp">
<polygon fill="white" stroke="black" points="419.012,-56.5 419.012,-75.5 506.012,-75.5 506.012,-56.5 419.012,-56.5"/>
<text text-anchor="middle" x="462.512" y="-63.5" font-family="Helvetica,sans-Serif" font-size="10.00">tools/Visitor.hpp</text>
</a>
</g>
</g>
<!-- Node7&#45;&gt;Node8 -->
<g id="edge10" class="edge"><title>Node7&#45;&gt;Node8</title>
<path fill="none" stroke="midnightblue" d="M480.503,-117.975C477.478,-109.404 472.722,-95.9269 468.859,-84.983"/>
<polygon fill="midnightblue" stroke="midnightblue" points="472.144,-83.7741 465.515,-75.5091 465.543,-86.1039 472.144,-83.7741"/>
</g>
<!-- Node10 -->
<g id="node11" class="node"><title>Node10</title>
<polygon fill="white" stroke="#bfbfbf" points="524.012,-56.5 524.012,-75.5 573.012,-75.5 573.012,-56.5 524.012,-56.5"/>
<text text-anchor="middle" x="548.512" y="-63.5" font-family="Helvetica,sans-Serif" font-size="10.00">cassert</text>
</g>
<!-- Node7&#45;&gt;Node10 -->
<g id="edge12" class="edge"><title>Node7&#45;&gt;Node10</title>
<path fill="none" stroke="midnightblue" d="M492.825,-117.975C502.961,-108.697 519.376,-93.6706 531.764,-82.331"/>
<polygon fill="midnightblue" stroke="midnightblue" points="534.203,-84.8429 539.216,-75.5091 529.477,-79.6795 534.203,-84.8429"/>
</g>
<!-- Node9 -->
<g id="node10" class="node"><title>Node9</title>
<polygon fill="white" stroke="#bfbfbf" points="431.512,-0.5 431.512,-19.5 493.512,-19.5 493.512,-0.5 431.512,-0.5"/>
<text text-anchor="middle" x="462.512" y="-7.5" font-family="Helvetica,sans-Serif" font-size="10.00">type_traits</text>
</g>
<!-- Node8&#45;&gt;Node9 -->
<g id="edge11" class="edge"><title>Node8&#45;&gt;Node9</title>
<path fill="none" stroke="midnightblue" d="M462.512,-56.083C462.512,-49.0059 462.512,-38.8611 462.512,-29.9865"/>
<polygon fill="midnightblue" stroke="midnightblue" points="466.012,-29.751 462.512,-19.7511 459.012,-29.7511 466.012,-29.751"/>
</g>
<!-- Node11&#45;&gt;Node4 -->
<g id="edge14" class="edge"><title>Node11&#45;&gt;Node4</title>
<path fill="none" stroke="midnightblue" d="M76.5121,-117.975C76.5121,-109.58 76.5121,-96.4806 76.5121,-85.6631"/>
<polygon fill="midnightblue" stroke="midnightblue" points="80.0122,-85.5091 76.5121,-75.5091 73.0122,-85.5091 80.0122,-85.5091"/>
</g>
<!-- Node11&#45;&gt;Node5 -->
<g id="edge15" class="edge"><title>Node11&#45;&gt;Node5</title>
<path fill="none" stroke="midnightblue" d="M95.9976,-117.975C118.922,-107.945 157.197,-91.2002 183.587,-79.6546"/>
<polygon fill="midnightblue" stroke="midnightblue" points="185.304,-82.7239 193.063,-75.5091 182.498,-76.3108 185.304,-82.7239"/>
</g>
</g>
</svg>
        <g id="navigator" transform="translate(0 0)" fill="#404254">
                <rect fill="#f2f5e9" fill-opacity="0.5" stroke="#606060" stroke-width=".5" x="0" y="0" width="60" height="60"/>
                <use id="zoomplus" xlink:href="#zoomPlus" x="17" y="9" onmousedown="handleZoom(evt,'in')"/>
                <use id="zoomminus" xlink:href="#zoomMin" x="42" y="9" onmousedown="handleZoom(evt,'out')"/>
                <use id="reset" xlink:href="#resetDef" x="30" y="36" onmousedown="handleReset()"/>
                <g id="arrowUp" xlink:href="#dirArrow" transform="translate(30 24)" onmousedown="handlePan(0,-1)">
                  <use xlink:href="#rim" fill="#404040">
                        <set attributeName="fill" to="#808080" begin="arrowUp.mouseover" end="arrowUp.mouseout"/>
                  </use>
                  <path fill="none" stroke="white" stroke-width="1.5" d="M0,-3.0v7 M-2.5,-0.5L0,-3.0L2.5,-0.5"/>
                </g>
                <g id="arrowRight" xlink:href="#dirArrow" transform="rotate(90) translate(36 -43)" onmousedown="handlePan(1,0)">
                  <use xlink:href="#rim" fill="#404040">
                        <set attributeName="fill" to="#808080" begin="arrowRight.mouseover" end="arrowRight.mouseout"/>
                  </use>
                  <path fill="none" stroke="white" stroke-width="1.5" d="M0,-3.0v7 M-2.5,-0.5L0,-3.0L2.5,-0.5"/>
                </g>
                <g id="arrowDown" xlink:href="#dirArrow" transform="rotate(180) translate(-30 -48)" onmousedown="handlePan(0,1)">
                  <use xlink:href="#rim" fill="#404040">
                        <set attributeName="fill" to="#808080" begin="arrowDown.mouseover" end="arrowDown.mouseout"/>
                  </use>
                  <path fill="none" stroke="white" stroke-width="1.5" d="M0,-3.0v7 M-2.5,-0.5L0,-3.0L2.5,-0.5"/>
                </g>
                <g id="arrowLeft" xlink:href="#dirArrow" transform="rotate(270) translate(-36 17)" onmousedown="handlePan(-1,0)">
                  <use xlink:href="#rim" fill="#404040">
                        <set attributeName="fill" to="#808080" begin="arrowLeft.mouseover" end="arrowLeft.mouseout"/>
                  </use>
                  <path fill="none" stroke="white" stroke-width="1.5" d="M0,-3.0v7 M-2.5,-0.5L0,-3.0L2.5,-0.5"/>
                </g>
        </g>
        <svg viewBox="0 0 15 15" width="100%" height="30px" preserveAspectRatio="xMaxYMin meet">
         <g id="arrow_out" transform="scale(0.3 0.3)">
          <a xlink:href="IPinCode_8hpp__incl_org.svg" target="_base">
           <rect id="button" ry="5" rx="5" y="6" x="6" height="38" width="38"
                fill="#f2f5e9" fill-opacity="0.5" stroke="#606060" stroke-width="1.0"/>
           <path id="arrow"
             d="M 11.500037,31.436501 C 11.940474,20.09759 22.043105,11.32322 32.158766,21.979434 L 37.068811,17.246167 C 37.068811,17.246167 37.088388,32 37.088388,32 L 22.160133,31.978069 C 22.160133,31.978069 26.997745,27.140456 26.997745,27.140456 C 18.528582,18.264221 13.291696,25.230495 11.500037,31.436501 z"
             style="fill:#404040;"/>
          </a>
         </g>
        </svg>
</svg>
