<?xml version="1.0" encoding="UTF-8" standalone="no"?>
<!DOCTYPE svg PUBLIC "-//W3C//DTD SVG 1.1//EN"
 "http://www.w3.org/Graphics/SVG/1.1/DTD/svg11.dtd">
<!-- Generated by graphviz version 2.38.0 (20140413.2041)
 -->
<!-- Title: src/core/audit/AuditFwd.hpp Pages: 1 -->
<svg width="315pt" height="84pt"
 viewBox="0.00 0.00 314.50 84.00" xmlns="http://www.w3.org/2000/svg" xmlns:xlink="http://www.w3.org/1999/xlink">
<g id="graph0" class="graph" transform="scale(1 1) rotate(0) translate(4 80)">
<title>src/core/audit/AuditFwd.hpp</title>
<polygon fill="white" stroke="none" points="-4,4 -4,-80 310.5,-80 310.5,4 -4,4"/>
<!-- Node0 -->
<g id="node1" class="node"><title>Node0</title>
<polygon fill="#bfbfbf" stroke="black" points="68,-56.5 68,-75.5 207,-75.5 207,-56.5 68,-56.5"/>
<text text-anchor="middle" x="137.5" y="-63.5" font-family="Helvetica,sans-Serif" font-size="10.00">src/core/audit/AuditFwd.hpp</text>
</g>
<!-- Node1 -->
<g id="node2" class="node"><title>Node1</title>
<polygon fill="white" stroke="#bfbfbf" points="0,-0.5 0,-19.5 49,-19.5 49,-0.5 0,-0.5"/>
<text text-anchor="middle" x="24.5" y="-7.5" font-family="Helvetica,sans-Serif" font-size="10.00">cstddef</text>
</g>
<!-- Node0&#45;&gt;Node1 -->
<g id="edge1" class="edge"><title>Node0&#45;&gt;Node1</title>
<path fill="none" stroke="midnightblue" d="M119.595,-56.4435C101.246,-47.6751 72.4946,-33.9355 51.4064,-23.8579"/>
<polygon fill="midnightblue" stroke="midnightblue" points="52.8532,-20.6703 42.3214,-19.5164 49.835,-26.9862 52.8532,-20.6703"/>
</g>
<!-- Node2 -->
<g id="node3" class="node"><title>Node2</title>
<polygon fill="white" stroke="#bfbfbf" points="67,-0.5 67,-19.5 132,-19.5 132,-0.5 67,-0.5"/>
<text text-anchor="middle" x="99.5" y="-7.5" font-family="Helvetica,sans-Serif" font-size="10.00">flagset.hpp</text>
</g>
<!-- Node0&#45;&gt;Node2 -->
<g id="edge2" class="edge"><title>Node0&#45;&gt;Node2</title>
<path fill="none" stroke="midnightblue" d="M131.225,-56.083C125.858,-48.4554 117.982,-37.2645 111.421,-27.9408"/>
<polygon fill="midnightblue" stroke="midnightblue" points="114.275,-25.9149 105.658,-19.7511 108.551,-29.9434 114.275,-25.9149"/>
</g>
<!-- Node3 -->
<g id="node4" class="node"><title>Node3</title>
<polygon fill="white" stroke="#bfbfbf" points="150.5,-0.5 150.5,-19.5 202.5,-19.5 202.5,-0.5 150.5,-0.5"/>
<text text-anchor="middle" x="176.5" y="-7.5" font-family="Helvetica,sans-Serif" font-size="10.00">memory</text>
</g>
<!-- Node0&#45;&gt;Node3 -->
<g id="edge3" class="edge"><title>Node0&#45;&gt;Node3</title>
<path fill="none" stroke="midnightblue" d="M143.94,-56.083C149.449,-48.4554 157.531,-37.2645 164.265,-27.9408"/>
<polygon fill="midnightblue" stroke="midnightblue" points="167.162,-29.9071 170.18,-19.7511 161.487,-25.8087 167.162,-29.9071"/>
</g>
<!-- Node4 -->
<g id="node5" class="node"><title>Node4</title>
<polygon fill="white" stroke="#bfbfbf" points="220.5,-0.5 220.5,-19.5 306.5,-19.5 306.5,-0.5 220.5,-0.5"/>
<text text-anchor="middle" x="263.5" y="-7.5" font-family="Helvetica,sans-Serif" font-size="10.00">odb/lazy&#45;ptr.hxx</text>
</g>
<!-- Node0&#45;&gt;Node4 -->
<g id="edge4" class="edge"><title>Node0&#45;&gt;Node4</title>
<path fill="none" stroke="midnightblue" d="M157.465,-56.4435C178.109,-47.5961 210.563,-33.6875 234.132,-23.5865"/>
<polygon fill="midnightblue" stroke="midnightblue" points="235.816,-26.6727 243.628,-19.5164 233.058,-20.2387 235.816,-26.6727"/>
</g>
</g>
</svg>
