<?xml version="1.0" encoding="UTF-8" standalone="no"?>
<!DOCTYPE svg PUBLIC "-//W3C//DTD SVG 1.1//EN"
 "http://www.w3.org/Graphics/SVG/1.1/DTD/svg11.dtd">
<!-- Generated by graphviz version 2.38.0 (20140413.2041)
 -->
<!-- Title: src/core/update/serializers/UpdateDescriptorSerializer.hpp Pages: 1 -->
<svg width="220pt" height="151pt"
 viewBox="0.00 0.00 219.50 151.00" xmlns="http://www.w3.org/2000/svg" xmlns:xlink="http://www.w3.org/1999/xlink">
<g id="graph0" class="graph" transform="scale(1 1) rotate(0) translate(4 147)">
<title>src/core/update/serializers/UpdateDescriptorSerializer.hpp</title>
<polygon fill="white" stroke="none" points="-4,4 -4,-147 215.5,-147 215.5,4 -4,4"/>
<!-- Node0 -->
<g id="node1" class="node"><title>Node0</title>
<polygon fill="#bfbfbf" stroke="black" points="49.5,-112.5 49.5,-142.5 204.5,-142.5 204.5,-112.5 49.5,-112.5"/>
<text text-anchor="start" x="57.5" y="-130.5" font-family="Helvetica,sans-Serif" font-size="10.00">src/core/update/serializers</text>
<text text-anchor="middle" x="127" y="-119.5" font-family="Helvetica,sans-Serif" font-size="10.00">/UpdateDescriptorSerializer.hpp</text>
</g>
<!-- Node1 -->
<g id="node2" class="node"><title>Node1</title>
<g id="a_node2"><a xlink:href="../../d2/d0e/UpdateFwd_8hpp.html" target="_top" xlink:title="core/update/UpdateFwd.hpp">
<polygon fill="white" stroke="black" points="0,-56.5 0,-75.5 140,-75.5 140,-56.5 0,-56.5"/>
<text text-anchor="middle" x="70" y="-63.5" font-family="Helvetica,sans-Serif" font-size="10.00">core/update/UpdateFwd.hpp</text>
</a>
</g>
</g>
<!-- Node0&#45;&gt;Node1 -->
<g id="edge1" class="edge"><title>Node0&#45;&gt;Node1</title>
<path fill="none" stroke="midnightblue" d="M113.492,-112.399C105.038,-103.575 94.1246,-92.1827 85.3448,-83.0178"/>
<polygon fill="midnightblue" stroke="midnightblue" points="87.7392,-80.4577 78.294,-75.6578 82.6844,-85.3002 87.7392,-80.4577"/>
</g>
<!-- Node4 -->
<g id="node5" class="node"><title>Node4</title>
<polygon fill="white" stroke="#bfbfbf" points="158.5,-56.5 158.5,-75.5 211.5,-75.5 211.5,-56.5 158.5,-56.5"/>
<text text-anchor="middle" x="185" y="-63.5" font-family="Helvetica,sans-Serif" font-size="10.00">json.hpp</text>
</g>
<!-- Node0&#45;&gt;Node4 -->
<g id="edge4" class="edge"><title>Node0&#45;&gt;Node4</title>
<path fill="none" stroke="midnightblue" d="M140.745,-112.399C149.347,-103.575 160.452,-92.1827 169.386,-83.0178"/>
<polygon fill="midnightblue" stroke="midnightblue" points="172.086,-85.2616 176.56,-75.6578 167.074,-80.3755 172.086,-85.2616"/>
</g>
<!-- Node2 -->
<g id="node3" class="node"><title>Node2</title>
<polygon fill="white" stroke="#bfbfbf" points="1,-0.5 1,-19.5 53,-19.5 53,-0.5 1,-0.5"/>
<text text-anchor="middle" x="27" y="-7.5" font-family="Helvetica,sans-Serif" font-size="10.00">memory</text>
</g>
<!-- Node1&#45;&gt;Node2 -->
<g id="edge2" class="edge"><title>Node1&#45;&gt;Node2</title>
<path fill="none" stroke="midnightblue" d="M62.8994,-56.083C56.763,-48.3768 47.7303,-37.0333 40.2608,-27.6531"/>
<polygon fill="midnightblue" stroke="midnightblue" points="42.9357,-25.3936 33.9685,-19.7511 37.4598,-29.7542 42.9357,-25.3936"/>
</g>
<!-- Node3 -->
<g id="node4" class="node"><title>Node3</title>
<polygon fill="white" stroke="#bfbfbf" points="71,-0.5 71,-19.5 157,-19.5 157,-0.5 71,-0.5"/>
<text text-anchor="middle" x="114" y="-7.5" font-family="Helvetica,sans-Serif" font-size="10.00">odb/lazy&#45;ptr.hxx</text>
</g>
<!-- Node1&#45;&gt;Node3 -->
<g id="edge3" class="edge"><title>Node1&#45;&gt;Node3</title>
<path fill="none" stroke="midnightblue" d="M77.2657,-56.083C83.5448,-48.3768 92.7876,-37.0333 100.431,-27.6531"/>
<polygon fill="midnightblue" stroke="midnightblue" points="103.266,-29.7143 106.869,-19.7511 97.8394,-25.2926 103.266,-29.7143"/>
</g>
</g>
</svg>
