<?xml version="1.0" encoding="UTF-8" standalone="no"?>
<!DOCTYPE svg PUBLIC "-//W3C//DTD SVG 1.1//EN"
 "http://www.w3.org/Graphics/SVG/1.1/DTD/svg11.dtd">
<!-- Generated by graphviz version 2.38.0 (20140413.2041)
 -->
<!-- Title: Leosac::Auth::BaseAuthSource Pages: 1 -->
<!--zoomable 165 -->
<svg id="main" version="1.1" xmlns="http://www.w3.org/2000/svg" xmlns:xlink="http://www.w3.org/1999/xlink" xml:space="preserve" onload="init(evt)">
<style type="text/css"><![CDATA[
.edge:hover path { stroke: red; }
.edge:hover polygon { stroke: red; fill: red; }
]]></style>
<script type="text/javascript"><![CDATA[
var edges = document.getElementsByTagName('g');
if (edges && edges.length) {
  for (var i=0;i<edges.length;i++) {
    if (edges[i].id.substr(0,4)=='edge') {
      edges[i].setAttribute('class','edge');
    }
  }
}
]]></script>
        <defs>
                <circle id="rim" cx="0" cy="0" r="7"/>
                <circle id="rim2" cx="0" cy="0" r="3.5"/>
                <g id="zoomPlus">
                        <use xlink:href="#rim" fill="#404040">
                                <set attributeName="fill" to="#808080" begin="zoomplus.mouseover" end="zoomplus.mouseout"/>
                        </use>
                        <path d="M-4,0h8M0,-4v8" fill="none" stroke="white" stroke-width="1.5" pointer-events="none"/>
                </g>
                <g id="zoomMin">
                        <use xlink:href="#rim" fill="#404040">
                                <set attributeName="fill" to="#808080" begin="zoomminus.mouseover" end="zoomminus.mouseout"/>
                        </use>
                        <path d="M-4,0h8" fill="none" stroke="white" stroke-width="1.5" pointer-events="none"/>
                </g>
                <g id="dirArrow">
                        <path fill="none" stroke="white" stroke-width="1.5" d="M0,-3.0v7 M-2.5,-0.5L0,-3.0L2.5,-0.5"/>
                </g>
               <g id="resetDef">
                       <use xlink:href="#rim2" fill="#404040">
                               <set attributeName="fill" to="#808080" begin="reset.mouseover" end="reset.mouseout"/>
                       </use>
               </g>
        </defs>

<script type="text/javascript">
var viewWidth = 573;
var viewHeight = 165;
var sectionId = 'dynsection-1';
</script>
<script xlink:href="../../svgpan.js"/>
<svg id="graph" class="graph">
<g id="viewport">
<title>Leosac::Auth::BaseAuthSource</title>
<polygon fill="white" stroke="none" points="-4,4 -4,-161 569,-161 569,4 -4,4"/>
<!-- Node3 -->
<g id="node1" class="node"><title>Node3</title>
<polygon fill="#bfbfbf" stroke="black" points="411,-68 411,-87 565,-87 565,-68 411,-68"/>
<text text-anchor="middle" x="488" y="-75" font-family="Helvetica,sans-Serif" font-size="10.00">Leosac::Auth::BaseAuthSource</text>
</g>
<!-- Node4 -->
<g id="node2" class="node"><title>Node4</title>
<g id="a_node2"><a xlink:href="../../d6/d6c/classLeosac_1_1Auth_1_1IAuthenticationSource.html" target="_top" xlink:title="An Auth source is a card id, a pin code, a fingerprint, etc... ">
<polygon fill="white" stroke="black" points="162,-126.5 162,-156.5 308,-156.5 308,-126.5 162,-126.5"/>
<text text-anchor="start" x="170" y="-144.5" font-family="Helvetica,sans-Serif" font-size="10.00">Leosac::Auth::IAuthentication</text>
<text text-anchor="middle" x="235" y="-133.5" font-family="Helvetica,sans-Serif" font-size="10.00">Source</text>
</a>
</g>
</g>
<!-- Node4&#45;&gt;Node3 -->
<g id="edge1" class="edge"><title>Node4&#45;&gt;Node3</title>
<path fill="none" stroke="midnightblue" d="M318.207,-132.135C342.545,-128.366 369.074,-123.266 393,-116.5 419.692,-108.952 449,-95.9934 467.675,-87.0998"/>
<polygon fill="midnightblue" stroke="midnightblue" points="317.658,-128.678 308.285,-133.617 318.693,-135.601 317.658,-128.678"/>
</g>
<!-- Node5 -->
<g id="node3" class="node"><title>Node5</title>
<g id="a_node3"><a xlink:href="../../d0/d33/classLeosac_1_1Tools_1_1IVisitable.html" target="_top" xlink:title="Base class to make an object visitable. ">
<polygon fill="white" stroke="black" points="0,-132 0,-151 125,-151 125,-132 0,-132"/>
<text text-anchor="middle" x="62.5" y="-139" font-family="Helvetica,sans-Serif" font-size="10.00">Leosac::Tools::IVisitable</text>
</a>
</g>
</g>
<!-- Node5&#45;&gt;Node4 -->
<g id="edge2" class="edge"><title>Node5&#45;&gt;Node4</title>
<path fill="none" stroke="midnightblue" d="M135.251,-141.5C144.033,-141.5 153.012,-141.5 161.801,-141.5"/>
<polygon fill="midnightblue" stroke="midnightblue" points="135.054,-138 125.054,-141.5 135.054,-145 135.054,-138"/>
</g>
<!-- Node6 -->
<g id="node4" class="node"><title>Node6</title>
<g id="a_node4"><a xlink:title="STL class. ">
<polygon fill="white" stroke="#bfbfbf" points="205,-88 205,-107 265,-107 265,-88 205,-88"/>
<text text-anchor="middle" x="235" y="-95" font-family="Helvetica,sans-Serif" font-size="10.00">std::string</text>
</a>
</g>
</g>
<!-- Node6&#45;&gt;Node3 -->
<g id="edge3" class="edge"><title>Node6&#45;&gt;Node3</title>
<path fill="none" stroke="#9a32cd" stroke-dasharray="5,2" d="M275.427,-94.3584C311.583,-91.4774 366.131,-87.131 410.784,-83.573"/>
<polygon fill="#9a32cd" stroke="#9a32cd" points="274.974,-90.8833 265.284,-95.1666 275.531,-97.8612 274.974,-90.8833"/>
<text text-anchor="middle" x="359.5" y="-104.5" font-family="Helvetica,sans-Serif" font-size="10.00"> source_name_</text>
<text text-anchor="middle" x="359.5" y="-93.5" font-family="Helvetica,sans-Serif" font-size="10.00">id_</text>
</g>
<!-- Node7 -->
<g id="node5" class="node"><title>Node7</title>
<g id="a_node5"><a xlink:title="STL class. ">
<polygon fill="white" stroke="#bfbfbf" points="15,-82.5 15,-112.5 110,-112.5 110,-82.5 15,-82.5"/>
<text text-anchor="start" x="23" y="-100.5" font-family="Helvetica,sans-Serif" font-size="10.00">std::basic_string&lt;</text>
<text text-anchor="middle" x="62.5" y="-89.5" font-family="Helvetica,sans-Serif" font-size="10.00"> char &gt;</text>
</a>
</g>
</g>
<!-- Node7&#45;&gt;Node6 -->
<g id="edge4" class="edge"><title>Node7&#45;&gt;Node6</title>
<path fill="none" stroke="midnightblue" d="M120.291,-97.5C148.636,-97.5 181.722,-97.5 204.872,-97.5"/>
<polygon fill="midnightblue" stroke="midnightblue" points="120.09,-94.0001 110.09,-97.5 120.09,-101 120.09,-94.0001"/>
</g>
<!-- Node8 -->
<g id="node6" class="node"><title>Node8</title>
<g id="a_node6"><a xlink:href="../../d9/d24/classLeosac_1_1Auth_1_1ValidityInfo.html" target="_top" xlink:title="A simple class that stores (and can be queried for) the validity of some objects. ...">
<polygon fill="white" stroke="black" points="170.5,-50 170.5,-69 299.5,-69 299.5,-50 170.5,-50"/>
<text text-anchor="middle" x="235" y="-57" font-family="Helvetica,sans-Serif" font-size="10.00">Leosac::Auth::ValidityInfo</text>
</a>
</g>
</g>
<!-- Node8&#45;&gt;Node3 -->
<g id="edge5" class="edge"><title>Node8&#45;&gt;Node3</title>
<path fill="none" stroke="#9a32cd" stroke-dasharray="5,2" d="M309.788,-58.7971C336.094,-59.1047 365.911,-60.0916 393,-62.5 406.827,-63.7293 421.701,-65.7669 435.446,-67.9499"/>
<polygon fill="#9a32cd" stroke="#9a32cd" points="309.542,-55.2949 299.512,-58.7088 309.482,-62.2947 309.542,-55.2949"/>
<text text-anchor="middle" x="359.5" y="-65.5" font-family="Helvetica,sans-Serif" font-size="10.00"> validity_</text>
</g>
<!-- Node9 -->
<g id="node7" class="node"><title>Node9</title>
<polygon fill="white" stroke="#bfbfbf" points="166.5,-0.5 166.5,-30.5 303.5,-30.5 303.5,-0.5 166.5,-0.5"/>
<text text-anchor="start" x="174.5" y="-18.5" font-family="Helvetica,sans-Serif" font-size="10.00">std::vector&lt; IAuthentication</text>
<text text-anchor="middle" x="235" y="-7.5" font-family="Helvetica,sans-Serif" font-size="10.00">SourcePtr &gt;</text>
</g>
<!-- Node9&#45;&gt;Node3 -->
<g id="edge6" class="edge"><title>Node9&#45;&gt;Node3</title>
<path fill="none" stroke="#9a32cd" stroke-dasharray="5,2" d="M313.716,-27.3973C339.169,-31.9457 367.462,-37.7025 393,-44.5 417.235,-50.9507 444.173,-60.6809 462.977,-67.906"/>
<polygon fill="#9a32cd" stroke="#9a32cd" points="314.197,-23.9283 303.743,-25.6503 312.989,-30.8233 314.197,-23.9283"/>
<text text-anchor="middle" x="359.5" y="-47.5" font-family="Helvetica,sans-Serif" font-size="10.00"> subsources_</text>
</g>
</g>
</svg>
        <g id="navigator" transform="translate(0 0)" fill="#404254">
                <rect fill="#f2f5e9" fill-opacity="0.5" stroke="#606060" stroke-width=".5" x="0" y="0" width="60" height="60"/>
                <use id="zoomplus" xlink:href="#zoomPlus" x="17" y="9" onmousedown="handleZoom(evt,'in')"/>
                <use id="zoomminus" xlink:href="#zoomMin" x="42" y="9" onmousedown="handleZoom(evt,'out')"/>
                <use id="reset" xlink:href="#resetDef" x="30" y="36" onmousedown="handleReset()"/>
                <g id="arrowUp" xlink:href="#dirArrow" transform="translate(30 24)" onmousedown="handlePan(0,-1)">
                  <use xlink:href="#rim" fill="#404040">
                        <set attributeName="fill" to="#808080" begin="arrowUp.mouseover" end="arrowUp.mouseout"/>
                  </use>
                  <path fill="none" stroke="white" stroke-width="1.5" d="M0,-3.0v7 M-2.5,-0.5L0,-3.0L2.5,-0.5"/>
                </g>
                <g id="arrowRight" xlink:href="#dirArrow" transform="rotate(90) translate(36 -43)" onmousedown="handlePan(1,0)">
                  <use xlink:href="#rim" fill="#404040">
                        <set attributeName="fill" to="#808080" begin="arrowRight.mouseover" end="arrowRight.mouseout"/>
                  </use>
                  <path fill="none" stroke="white" stroke-width="1.5" d="M0,-3.0v7 M-2.5,-0.5L0,-3.0L2.5,-0.5"/>
                </g>
                <g id="arrowDown" xlink:href="#dirArrow" transform="rotate(180) translate(-30 -48)" onmousedown="handlePan(0,1)">
                  <use xlink:href="#rim" fill="#404040">
                        <set attributeName="fill" to="#808080" begin="arrowDown.mouseover" end="arrowDown.mouseout"/>
                  </use>
                  <path fill="none" stroke="white" stroke-width="1.5" d="M0,-3.0v7 M-2.5,-0.5L0,-3.0L2.5,-0.5"/>
                </g>
                <g id="arrowLeft" xlink:href="#dirArrow" transform="rotate(270) translate(-36 17)" onmousedown="handlePan(-1,0)">
                  <use xlink:href="#rim" fill="#404040">
                        <set attributeName="fill" to="#808080" begin="arrowLeft.mouseover" end="arrowLeft.mouseout"/>
                  </use>
                  <path fill="none" stroke="white" stroke-width="1.5" d="M0,-3.0v7 M-2.5,-0.5L0,-3.0L2.5,-0.5"/>
                </g>
        </g>
        <svg viewBox="0 0 15 15" width="100%" height="30px" preserveAspectRatio="xMaxYMin meet">
         <g id="arrow_out" transform="scale(0.3 0.3)">
          <a xlink:href="classLeosac_1_1Auth_1_1BaseAuthSource__coll__graph_org.svg" target="_base">
           <rect id="button" ry="5" rx="5" y="6" x="6" height="38" width="38"
                fill="#f2f5e9" fill-opacity="0.5" stroke="#606060" stroke-width="1.0"/>
           <path id="arrow"
             d="M 11.500037,31.436501 C 11.940474,20.09759 22.043105,11.32322 32.158766,21.979434 L 37.068811,17.246167 C 37.068811,17.246167 37.088388,32 37.088388,32 L 22.160133,31.978069 C 22.160133,31.978069 26.997745,27.140456 26.997745,27.140456 C 18.528582,18.264221 13.291696,25.230495 11.500037,31.436501 z"
             style="fill:#404040;"/>
          </a>
         </g>
        </svg>
</svg>
