<?xml version="1.0" encoding="UTF-8" standalone="no"?>
<!DOCTYPE svg PUBLIC "-//W3C//DTD SVG 1.1//EN"
 "http://www.w3.org/Graphics/SVG/1.1/DTD/svg11.dtd">
<!-- Generated by graphviz version 2.38.0 (20140413.2041)
 -->
<!-- Title: src/tools/db/OptionalTransaction.cpp Pages: 1 -->
<!--zoomable 431 -->
<svg id="main" version="1.1" xmlns="http://www.w3.org/2000/svg" xmlns:xlink="http://www.w3.org/1999/xlink" xml:space="preserve" onload="init(evt)">
<style type="text/css"><![CDATA[
.edge:hover path { stroke: red; }
.edge:hover polygon { stroke: red; fill: red; }
]]></style>
<script type="text/javascript"><![CDATA[
var edges = document.getElementsByTagName('g');
if (edges && edges.length) {
  for (var i=0;i<edges.length;i++) {
    if (edges[i].id.substr(0,4)=='edge') {
      edges[i].setAttribute('class','edge');
    }
  }
}
]]></script>
        <defs>
                <circle id="rim" cx="0" cy="0" r="7"/>
                <circle id="rim2" cx="0" cy="0" r="3.5"/>
                <g id="zoomPlus">
                        <use xlink:href="#rim" fill="#404040">
                                <set attributeName="fill" to="#808080" begin="zoomplus.mouseover" end="zoomplus.mouseout"/>
                        </use>
                        <path d="M-4,0h8M0,-4v8" fill="none" stroke="white" stroke-width="1.5" pointer-events="none"/>
                </g>
                <g id="zoomMin">
                        <use xlink:href="#rim" fill="#404040">
                                <set attributeName="fill" to="#808080" begin="zoomminus.mouseover" end="zoomminus.mouseout"/>
                        </use>
                        <path d="M-4,0h8" fill="none" stroke="white" stroke-width="1.5" pointer-events="none"/>
                </g>
                <g id="dirArrow">
                        <path fill="none" stroke="white" stroke-width="1.5" d="M0,-3.0v7 M-2.5,-0.5L0,-3.0L2.5,-0.5"/>
                </g>
               <g id="resetDef">
                       <use xlink:href="#rim2" fill="#404040">
                               <set attributeName="fill" to="#808080" begin="reset.mouseover" end="reset.mouseout"/>
                       </use>
               </g>
        </defs>

<script type="text/javascript">
var viewWidth = 1432;
var viewHeight = 431;
var sectionId = 'dynsection-0';
</script>
<script xlink:href="../../svgpan.js"/>
<svg id="graph" class="graph">
<g id="viewport">
<title>src/tools/db/OptionalTransaction.cpp</title>
<polygon fill="white" stroke="none" points="-4,4 -4,-427 1427.5,-427 1427.5,4 -4,4"/>
<!-- Node0 -->
<g id="node1" class="node"><title>Node0</title>
<polygon fill="#bfbfbf" stroke="black" points="917,-403.5 917,-422.5 1093,-422.5 1093,-403.5 917,-403.5"/>
<text text-anchor="middle" x="1005" y="-410.5" font-family="Helvetica,sans-Serif" font-size="10.00">src/tools/db/OptionalTransaction.cpp</text>
</g>
<!-- Node1 -->
<g id="node2" class="node"><title>Node1</title>
<g id="a_node2"><a xlink:href="../../df/d73/OptionalTransaction_8hpp.html" target="_top" xlink:title="OptionalTransaction.hpp">
<polygon fill="white" stroke="black" points="651,-347.5 651,-366.5 773,-366.5 773,-347.5 651,-347.5"/>
<text text-anchor="middle" x="712" y="-354.5" font-family="Helvetica,sans-Serif" font-size="10.00">OptionalTransaction.hpp</text>
</a>
</g>
</g>
<!-- Node0&#45;&gt;Node1 -->
<g id="edge1" class="edge"><title>Node0&#45;&gt;Node1</title>
<path fill="none" stroke="midnightblue" d="M958.573,-403.444C906.924,-393.925 823.488,-378.547 768.193,-368.356"/>
<polygon fill="midnightblue" stroke="midnightblue" points="768.678,-364.887 758.21,-366.516 767.409,-371.771 768.678,-364.887"/>
</g>
<!-- Node24 -->
<g id="node25" class="node"><title>Node24</title>
<g id="a_node25"><a xlink:href="../../d4/d3d/log_8hpp.html" target="_top" xlink:title="tools/log.hpp">
<polygon fill="white" stroke="black" points="1127,-347.5 1127,-366.5 1199,-366.5 1199,-347.5 1127,-347.5"/>
<text text-anchor="middle" x="1163" y="-354.5" font-family="Helvetica,sans-Serif" font-size="10.00">tools/log.hpp</text>
</a>
</g>
</g>
<!-- Node0&#45;&gt;Node24 -->
<g id="edge39" class="edge"><title>Node0&#45;&gt;Node24</title>
<path fill="none" stroke="midnightblue" d="M1030.04,-403.444C1056.62,-394.359 1098.81,-379.939 1128.52,-369.783"/>
<polygon fill="midnightblue" stroke="midnightblue" points="1129.75,-373.062 1138.08,-366.516 1127.49,-366.439 1129.75,-373.062"/>
</g>
<!-- Node2 -->
<g id="node3" class="node"><title>Node2</title>
<g id="a_node3"><a xlink:href="../../df/da2/database_8hpp.html" target="_top" xlink:title="database.hpp">
<polygon fill="white" stroke="black" points="539.5,-291.5 539.5,-310.5 614.5,-310.5 614.5,-291.5 539.5,-291.5"/>
<text text-anchor="middle" x="577" y="-298.5" font-family="Helvetica,sans-Serif" font-size="10.00">database.hpp</text>
</a>
</g>
</g>
<!-- Node1&#45;&gt;Node2 -->
<g id="edge2" class="edge"><title>Node1&#45;&gt;Node2</title>
<path fill="none" stroke="midnightblue" d="M690.609,-347.444C668.293,-338.517 633.097,-324.439 607.792,-314.317"/>
<polygon fill="midnightblue" stroke="midnightblue" points="608.876,-310.981 598.291,-310.516 606.276,-317.48 608.876,-310.981"/>
</g>
<!-- Node3 -->
<g id="node4" class="node"><title>Node3</title>
<g id="a_node4"><a xlink:href="../../d9/d69/db__fwd_8hpp.html" target="_top" xlink:title="db_fwd.hpp">
<polygon fill="white" stroke="black" points="760.5,-179.5 760.5,-198.5 827.5,-198.5 827.5,-179.5 760.5,-179.5"/>
<text text-anchor="middle" x="794" y="-186.5" font-family="Helvetica,sans-Serif" font-size="10.00">db_fwd.hpp</text>
</a>
</g>
</g>
<!-- Node1&#45;&gt;Node3 -->
<g id="edge37" class="edge"><title>Node1&#45;&gt;Node3</title>
<path fill="none" stroke="midnightblue" d="M728.953,-347.337C755.699,-332.587 806.728,-299.784 827,-255 834.693,-238.005 822.585,-219.03 810.929,-205.991"/>
<polygon fill="midnightblue" stroke="midnightblue" points="813.371,-203.481 803.911,-198.71 808.331,-208.339 813.371,-203.481"/>
</g>
<!-- Node6 -->
<g id="node7" class="node"><title>Node6</title>
<polygon fill="white" stroke="#bfbfbf" points="167,-235.5 167,-254.5 269,-254.5 269,-235.5 167,-235.5"/>
<text text-anchor="middle" x="218" y="-242.5" font-family="Helvetica,sans-Serif" font-size="10.00">odb/transaction.hxx</text>
</g>
<!-- Node1&#45;&gt;Node6 -->
<g id="edge38" class="edge"><title>Node1&#45;&gt;Node6</title>
<path fill="none" stroke="midnightblue" d="M673.648,-347.46C584.646,-327.642 364.22,-278.559 266.257,-256.745"/>
<polygon fill="midnightblue" stroke="midnightblue" points="266.85,-253.292 256.328,-254.535 265.328,-260.124 266.85,-253.292"/>
</g>
<!-- Node2&#45;&gt;Node3 -->
<g id="edge3" class="edge"><title>Node2&#45;&gt;Node3</title>
<path fill="none" stroke="midnightblue" d="M576.912,-291.439C577.26,-277.508 580.073,-249.985 596,-235 607.216,-224.448 695.369,-207.335 750.204,-197.534"/>
<polygon fill="midnightblue" stroke="midnightblue" points="751.126,-200.926 760.362,-195.734 749.904,-194.033 751.126,-200.926"/>
</g>
<!-- Node5 -->
<g id="node6" class="node"><title>Node5</title>
<polygon fill="white" stroke="#bfbfbf" points="605,-235.5 605,-254.5 699,-254.5 699,-235.5 605,-235.5"/>
<text text-anchor="middle" x="652" y="-242.5" font-family="Helvetica,sans-Serif" font-size="10.00">odb/database.hxx</text>
</g>
<!-- Node2&#45;&gt;Node5 -->
<g id="edge5" class="edge"><title>Node2&#45;&gt;Node5</title>
<path fill="none" stroke="midnightblue" d="M589.05,-291.324C600.463,-283.107 617.831,-270.602 631.435,-260.807"/>
<polygon fill="midnightblue" stroke="midnightblue" points="633.66,-263.517 639.731,-254.834 629.57,-257.837 633.66,-263.517"/>
</g>
<!-- Node2&#45;&gt;Node6 -->
<g id="edge6" class="edge"><title>Node2&#45;&gt;Node6</title>
<path fill="none" stroke="midnightblue" d="M539.259,-294.323C477.448,-285.026 354.064,-266.467 279.487,-255.249"/>
<polygon fill="midnightblue" stroke="midnightblue" points="279.709,-251.743 269.3,-253.716 278.668,-258.665 279.709,-251.743"/>
</g>
<!-- Node7 -->
<g id="node8" class="node"><title>Node7</title>
<g id="a_node8"><a xlink:href="../../d0/dee/DBService_8hpp.html" target="_top" xlink:title="tools/db/DBService.hpp">
<polygon fill="white" stroke="black" points="429,-235.5 429,-254.5 549,-254.5 549,-235.5 429,-235.5"/>
<text text-anchor="middle" x="489" y="-242.5" font-family="Helvetica,sans-Serif" font-size="10.00">tools/db/DBService.hpp</text>
</a>
</g>
</g>
<!-- Node2&#45;&gt;Node7 -->
<g id="edge7" class="edge"><title>Node2&#45;&gt;Node7</title>
<path fill="none" stroke="midnightblue" d="M562.861,-291.324C549.134,-282.9 528.064,-269.971 511.936,-260.074"/>
<polygon fill="midnightblue" stroke="midnightblue" points="513.457,-256.902 503.104,-254.655 509.796,-262.868 513.457,-256.902"/>
</g>
<!-- Node22 -->
<g id="node23" class="node"><title>Node22</title>
<polygon fill="white" stroke="#bfbfbf" points="717.5,-235.5 717.5,-254.5 818.5,-254.5 818.5,-235.5 717.5,-235.5"/>
<text text-anchor="middle" x="768" y="-242.5" font-family="Helvetica,sans-Serif" font-size="10.00">odb/connection.hxx</text>
</g>
<!-- Node2&#45;&gt;Node22 -->
<g id="edge35" class="edge"><title>Node2&#45;&gt;Node22</title>
<path fill="none" stroke="midnightblue" d="M607.265,-291.444C639.955,-282.201 692.182,-267.436 728.183,-257.257"/>
<polygon fill="midnightblue" stroke="midnightblue" points="729.206,-260.605 737.877,-254.516 727.302,-253.869 729.206,-260.605"/>
</g>
<!-- Node23 -->
<g id="node24" class="node"><title>Node23</title>
<polygon fill="white" stroke="#bfbfbf" points="287.5,-235.5 287.5,-254.5 410.5,-254.5 410.5,-235.5 287.5,-235.5"/>
<text text-anchor="middle" x="349" y="-242.5" font-family="Helvetica,sans-Serif" font-size="10.00">odb/schema&#45;catalog.hxx</text>
</g>
<!-- Node2&#45;&gt;Node23 -->
<g id="edge36" class="edge"><title>Node2&#45;&gt;Node23</title>
<path fill="none" stroke="midnightblue" d="M540.873,-291.444C501.349,-282.083 437.903,-267.056 394.887,-256.868"/>
<polygon fill="midnightblue" stroke="midnightblue" points="395.496,-253.415 384.958,-254.516 393.882,-260.227 395.496,-253.415"/>
</g>
<!-- Node4 -->
<g id="node5" class="node"><title>Node4</title>
<polygon fill="white" stroke="#bfbfbf" points="463,-56.5 463,-75.5 515,-75.5 515,-56.5 463,-56.5"/>
<text text-anchor="middle" x="489" y="-63.5" font-family="Helvetica,sans-Serif" font-size="10.00">memory</text>
</g>
<!-- Node3&#45;&gt;Node4 -->
<g id="edge4" class="edge"><title>Node3&#45;&gt;Node4</title>
<path fill="none" stroke="midnightblue" d="M820.211,-179.414C836.85,-172.445 857.057,-160.809 867,-143 873.716,-130.97 876.148,-122.302 867,-112 855.697,-99.2716 617.687,-77.8787 525.254,-70.0163"/>
<polygon fill="midnightblue" stroke="midnightblue" points="525.496,-66.5244 515.237,-69.1689 524.906,-73.4995 525.496,-66.5244"/>
</g>
<!-- Node7&#45;&gt;Node3 -->
<g id="edge34" class="edge"><title>Node7&#45;&gt;Node3</title>
<path fill="none" stroke="midnightblue" d="M537.328,-235.444C595.836,-225.085 693.531,-207.788 750.015,-197.787"/>
<polygon fill="midnightblue" stroke="midnightblue" points="750.827,-201.198 760.064,-196.008 749.606,-194.305 750.827,-201.198"/>
</g>
<!-- Node8 -->
<g id="node9" class="node"><title>Node8</title>
<g id="a_node9"><a xlink:href="../../d3/dd8/IAuditEntry_8hpp.html" target="_top" xlink:title="core/audit/IAuditEntry.hpp">
<polygon fill="white" stroke="black" points="585,-179.5 585,-198.5 715,-198.5 715,-179.5 585,-179.5"/>
<text text-anchor="middle" x="650" y="-186.5" font-family="Helvetica,sans-Serif" font-size="10.00">core/audit/IAuditEntry.hpp</text>
</a>
</g>
</g>
<!-- Node7&#45;&gt;Node8 -->
<g id="edge8" class="edge"><title>Node7&#45;&gt;Node8</title>
<path fill="none" stroke="midnightblue" d="M514.511,-235.444C541.596,-226.359 584.59,-211.939 614.869,-201.783"/>
<polygon fill="midnightblue" stroke="midnightblue" points="616.24,-205.015 624.608,-198.516 614.014,-198.378 616.24,-205.015"/>
</g>
<!-- Node13 -->
<g id="node14" class="node"><title>Node13</title>
<g id="a_node14"><a xlink:href="../../d3/d6f/AuthFwd_8hpp.html" target="_top" xlink:title="core/auth/AuthFwd.hpp">
<polygon fill="white" stroke="black" points="430,-118 430,-137 548,-137 548,-118 430,-118"/>
<text text-anchor="middle" x="489" y="-125" font-family="Helvetica,sans-Serif" font-size="10.00">core/auth/AuthFwd.hpp</text>
</a>
</g>
</g>
<!-- Node7&#45;&gt;Node13 -->
<g id="edge24" class="edge"><title>Node7&#45;&gt;Node13</title>
<path fill="none" stroke="midnightblue" d="M489,-235.319C489,-216.757 489,-172.839 489,-147.473"/>
<polygon fill="midnightblue" stroke="midnightblue" points="492.5,-147.282 489,-137.282 485.5,-147.282 492.5,-147.282"/>
</g>
<!-- Node19 -->
<g id="node20" class="node"><title>Node19</title>
<g id="a_node20"><a xlink:href="../../d7/d7f/CredentialFwd_8hpp.html" target="_top" xlink:title="core/credentials/Credential\lFwd.hpp">
<polygon fill="white" stroke="black" points="120.5,-112.5 120.5,-142.5 253.5,-142.5 253.5,-112.5 120.5,-112.5"/>
<text text-anchor="start" x="128.5" y="-130.5" font-family="Helvetica,sans-Serif" font-size="10.00">core/credentials/Credential</text>
<text text-anchor="middle" x="187" y="-119.5" font-family="Helvetica,sans-Serif" font-size="10.00">Fwd.hpp</text>
</a>
</g>
</g>
<!-- Node7&#45;&gt;Node19 -->
<g id="edge25" class="edge"><title>Node7&#45;&gt;Node19</title>
<path fill="none" stroke="midnightblue" d="M466.301,-235.319C416.981,-216.456 299.197,-171.41 233.426,-146.256"/>
<polygon fill="midnightblue" stroke="midnightblue" points="234.315,-142.848 223.724,-142.545 231.814,-149.387 234.315,-142.848"/>
</g>
<!-- Node20 -->
<g id="node21" class="node"><title>Node20</title>
<g id="a_node21"><a xlink:href="../../d2/d0e/UpdateFwd_8hpp.html" target="_top" xlink:title="core/update/UpdateFwd.hpp">
<polygon fill="white" stroke="black" points="272,-118 272,-137 412,-137 412,-118 272,-118"/>
<text text-anchor="middle" x="342" y="-125" font-family="Helvetica,sans-Serif" font-size="10.00">core/update/UpdateFwd.hpp</text>
</a>
</g>
</g>
<!-- Node7&#45;&gt;Node20 -->
<g id="edge28" class="edge"><title>Node7&#45;&gt;Node20</title>
<path fill="none" stroke="midnightblue" d="M477.951,-235.319C453.05,-215.753 392.295,-168.017 361.129,-143.53"/>
<polygon fill="midnightblue" stroke="midnightblue" points="363.203,-140.708 353.177,-137.282 358.878,-146.212 363.203,-140.708"/>
</g>
<!-- Node21 -->
<g id="node22" class="node"><title>Node21</title>
<g id="a_node22"><a xlink:href="../../d8/d97/ToolsFwd_8hpp.html" target="_top" xlink:title="tools/ToolsFwd.hpp">
<polygon fill="white" stroke="black" points="0,-118 0,-137 102,-137 102,-118 0,-118"/>
<text text-anchor="middle" x="51" y="-125" font-family="Helvetica,sans-Serif" font-size="10.00">tools/ToolsFwd.hpp</text>
</a>
</g>
</g>
<!-- Node7&#45;&gt;Node21 -->
<g id="edge31" class="edge"><title>Node7&#45;&gt;Node21</title>
<path fill="none" stroke="midnightblue" d="M455.82,-235.428C420.984,-226.414 364.621,-211.791 316,-199 237.011,-178.22 144.876,-153.629 92.6909,-139.668"/>
<polygon fill="midnightblue" stroke="midnightblue" points="93.3672,-136.226 82.8023,-137.022 91.5576,-142.988 93.3672,-136.226"/>
</g>
<!-- Node8&#45;&gt;Node4 -->
<g id="edge23" class="edge"><title>Node8&#45;&gt;Node4</title>
<path fill="none" stroke="midnightblue" d="M660.284,-179.348C676.704,-164.497 705.313,-133.666 688,-112 668.037,-87.0186 577.238,-74.8906 525.457,-69.9121"/>
<polygon fill="midnightblue" stroke="midnightblue" points="525.625,-66.4128 515.347,-68.983 524.985,-73.3835 525.625,-66.4128"/>
</g>
<!-- Node9 -->
<g id="node10" class="node"><title>Node9</title>
<g id="a_node10"><a xlink:href="../../d7/dcf/AuditFwd_8hpp.html" target="_top" xlink:title="core/audit/AuditFwd.hpp">
<polygon fill="white" stroke="black" points="736,-118 736,-137 858,-137 858,-118 736,-118"/>
<text text-anchor="middle" x="797" y="-125" font-family="Helvetica,sans-Serif" font-size="10.00">core/audit/AuditFwd.hpp</text>
</a>
</g>
</g>
<!-- Node8&#45;&gt;Node9 -->
<g id="edge9" class="edge"><title>Node8&#45;&gt;Node9</title>
<path fill="none" stroke="midnightblue" d="M671.062,-179.475C696.059,-169.357 737.942,-152.405 766.487,-140.851"/>
<polygon fill="midnightblue" stroke="midnightblue" points="768.021,-144.005 775.978,-137.009 765.395,-137.517 768.021,-144.005"/>
</g>
<!-- Node8&#45;&gt;Node13 -->
<g id="edge14" class="edge"><title>Node8&#45;&gt;Node13</title>
<path fill="none" stroke="midnightblue" d="M626.933,-179.475C599.315,-169.269 552.88,-152.108 521.604,-140.549"/>
<polygon fill="midnightblue" stroke="midnightblue" points="522.618,-137.193 512.025,-137.009 520.191,-143.759 522.618,-137.193"/>
</g>
<!-- Node14 -->
<g id="node15" class="node"><title>Node14</title>
<g id="a_node15"><a xlink:href="../../dd/d9d/IVisitable_8hpp.html" target="_top" xlink:title="tools/IVisitable.hpp">
<polygon fill="white" stroke="black" points="914,-118 914,-137 1014,-137 1014,-118 914,-118"/>
<text text-anchor="middle" x="964" y="-125" font-family="Helvetica,sans-Serif" font-size="10.00">tools/IVisitable.hpp</text>
</a>
</g>
</g>
<!-- Node8&#45;&gt;Node14 -->
<g id="edge18" class="edge"><title>Node8&#45;&gt;Node14</title>
<path fill="none" stroke="midnightblue" d="M694.989,-179.475C751.416,-168.783 848.122,-150.458 908.919,-138.937"/>
<polygon fill="midnightblue" stroke="midnightblue" points="909.921,-142.31 919.095,-137.009 908.618,-135.432 909.921,-142.31"/>
</g>
<!-- Node18 -->
<g id="node19" class="node"><title>Node18</title>
<polygon fill="white" stroke="#bfbfbf" points="566.5,-112.5 566.5,-142.5 679.5,-142.5 679.5,-112.5 566.5,-112.5"/>
<text text-anchor="start" x="574.5" y="-130.5" font-family="Helvetica,sans-Serif" font-size="10.00">boost/date_time/posix</text>
<text text-anchor="middle" x="623" y="-119.5" font-family="Helvetica,sans-Serif" font-size="10.00">_time/posix_time.hpp</text>
</g>
<!-- Node8&#45;&gt;Node18 -->
<g id="edge22" class="edge"><title>Node8&#45;&gt;Node18</title>
<path fill="none" stroke="midnightblue" d="M646.132,-179.475C642.851,-172.245 637.986,-161.525 633.564,-151.779"/>
<polygon fill="midnightblue" stroke="midnightblue" points="636.683,-150.183 629.363,-142.523 630.308,-153.076 636.683,-150.183"/>
</g>
<!-- Node9&#45;&gt;Node4 -->
<g id="edge12" class="edge"><title>Node9&#45;&gt;Node4</title>
<path fill="none" stroke="midnightblue" d="M752.98,-117.988C742.806,-116.021 732.026,-113.937 722,-112 652.387,-98.5484 571.072,-82.8462 525.247,-73.9983"/>
<polygon fill="midnightblue" stroke="midnightblue" points="525.689,-70.5191 515.207,-72.0598 524.362,-77.3922 525.689,-70.5191"/>
</g>
<!-- Node10 -->
<g id="node11" class="node"><title>Node10</title>
<polygon fill="white" stroke="#bfbfbf" points="615.5,-56.5 615.5,-75.5 664.5,-75.5 664.5,-56.5 615.5,-56.5"/>
<text text-anchor="middle" x="640" y="-63.5" font-family="Helvetica,sans-Serif" font-size="10.00">cstddef</text>
</g>
<!-- Node9&#45;&gt;Node10 -->
<g id="edge10" class="edge"><title>Node9&#45;&gt;Node10</title>
<path fill="none" stroke="midnightblue" d="M774.506,-117.975C747.691,-107.813 702.685,-90.7564 672.191,-79.1996"/>
<polygon fill="midnightblue" stroke="midnightblue" points="673.044,-75.7801 662.453,-75.5091 670.563,-82.3258 673.044,-75.7801"/>
</g>
<!-- Node11 -->
<g id="node12" class="node"><title>Node11</title>
<polygon fill="white" stroke="#bfbfbf" points="764.5,-56.5 764.5,-75.5 829.5,-75.5 829.5,-56.5 764.5,-56.5"/>
<text text-anchor="middle" x="797" y="-63.5" font-family="Helvetica,sans-Serif" font-size="10.00">flagset.hpp</text>
</g>
<!-- Node9&#45;&gt;Node11 -->
<g id="edge11" class="edge"><title>Node9&#45;&gt;Node11</title>
<path fill="none" stroke="midnightblue" d="M797,-117.975C797,-109.58 797,-96.4806 797,-85.6631"/>
<polygon fill="midnightblue" stroke="midnightblue" points="800.5,-85.5091 797,-75.5091 793.5,-85.5091 800.5,-85.5091"/>
</g>
<!-- Node12 -->
<g id="node13" class="node"><title>Node12</title>
<polygon fill="white" stroke="#bfbfbf" points="299,-56.5 299,-75.5 385,-75.5 385,-56.5 299,-56.5"/>
<text text-anchor="middle" x="342" y="-63.5" font-family="Helvetica,sans-Serif" font-size="10.00">odb/lazy&#45;ptr.hxx</text>
</g>
<!-- Node9&#45;&gt;Node12 -->
<g id="edge13" class="edge"><title>Node9&#45;&gt;Node12</title>
<path fill="none" stroke="midnightblue" d="M735.896,-118.34C720.281,-116.263 703.52,-114.042 688,-112 584.317,-98.3613 463.125,-82.6529 395.19,-73.8688"/>
<polygon fill="midnightblue" stroke="midnightblue" points="395.524,-70.383 385.158,-72.5719 394.627,-77.3252 395.524,-70.383"/>
</g>
<!-- Node13&#45;&gt;Node4 -->
<g id="edge16" class="edge"><title>Node13&#45;&gt;Node4</title>
<path fill="none" stroke="midnightblue" d="M489,-117.975C489,-109.58 489,-96.4806 489,-85.6631"/>
<polygon fill="midnightblue" stroke="midnightblue" points="492.5,-85.5091 489,-75.5091 485.5,-85.5091 492.5,-85.5091"/>
</g>
<!-- Node13&#45;&gt;Node10 -->
<g id="edge15" class="edge"><title>Node13&#45;&gt;Node10</title>
<path fill="none" stroke="midnightblue" d="M510.635,-117.975C536.424,-107.813 579.711,-90.7564 609.04,-79.1996"/>
<polygon fill="midnightblue" stroke="midnightblue" points="610.385,-82.4315 618.406,-75.5091 607.819,-75.9189 610.385,-82.4315"/>
</g>
<!-- Node13&#45;&gt;Node12 -->
<g id="edge17" class="edge"><title>Node13&#45;&gt;Node12</title>
<path fill="none" stroke="midnightblue" d="M467.938,-117.975C442.941,-107.857 401.058,-90.9046 372.513,-79.3507"/>
<polygon fill="midnightblue" stroke="midnightblue" points="373.605,-76.0168 363.022,-75.5091 370.979,-82.5054 373.605,-76.0168"/>
</g>
<!-- Node15 -->
<g id="node16" class="node"><title>Node15</title>
<g id="a_node16"><a xlink:href="../../d2/d91/Visitor_8hpp.html" target="_top" xlink:title="tools/Visitor.hpp">
<polygon fill="white" stroke="black" points="912.5,-56.5 912.5,-75.5 999.5,-75.5 999.5,-56.5 912.5,-56.5"/>
<text text-anchor="middle" x="956" y="-63.5" font-family="Helvetica,sans-Serif" font-size="10.00">tools/Visitor.hpp</text>
</a>
</g>
</g>
<!-- Node14&#45;&gt;Node15 -->
<g id="edge19" class="edge"><title>Node14&#45;&gt;Node15</title>
<path fill="none" stroke="midnightblue" d="M962.854,-117.975C961.725,-109.58 959.964,-96.4806 958.509,-85.6631"/>
<polygon fill="midnightblue" stroke="midnightblue" points="961.945,-84.9535 957.144,-75.5091 955.008,-85.8863 961.945,-84.9535"/>
</g>
<!-- Node17 -->
<g id="node18" class="node"><title>Node17</title>
<polygon fill="white" stroke="#bfbfbf" points="1017.5,-56.5 1017.5,-75.5 1066.5,-75.5 1066.5,-56.5 1017.5,-56.5"/>
<text text-anchor="middle" x="1042" y="-63.5" font-family="Helvetica,sans-Serif" font-size="10.00">cassert</text>
</g>
<!-- Node14&#45;&gt;Node17 -->
<g id="edge21" class="edge"><title>Node14&#45;&gt;Node17</title>
<path fill="none" stroke="midnightblue" d="M975.175,-117.975C987.571,-108.52 1007.79,-93.0961 1022.75,-81.6871"/>
<polygon fill="midnightblue" stroke="midnightblue" points="1025.02,-84.357 1030.85,-75.5091 1020.77,-78.7914 1025.02,-84.357"/>
</g>
<!-- Node16 -->
<g id="node17" class="node"><title>Node16</title>
<polygon fill="white" stroke="#bfbfbf" points="925,-0.5 925,-19.5 987,-19.5 987,-0.5 925,-0.5"/>
<text text-anchor="middle" x="956" y="-7.5" font-family="Helvetica,sans-Serif" font-size="10.00">type_traits</text>
</g>
<!-- Node15&#45;&gt;Node16 -->
<g id="edge20" class="edge"><title>Node15&#45;&gt;Node16</title>
<path fill="none" stroke="midnightblue" d="M956,-56.083C956,-49.0059 956,-38.8611 956,-29.9865"/>
<polygon fill="midnightblue" stroke="midnightblue" points="959.5,-29.751 956,-19.7511 952.5,-29.7511 959.5,-29.751"/>
</g>
<!-- Node19&#45;&gt;Node4 -->
<g id="edge26" class="edge"><title>Node19&#45;&gt;Node4</title>
<path fill="none" stroke="midnightblue" d="M253.649,-113.369C315.111,-101.26 404.024,-83.742 453.093,-74.0745"/>
<polygon fill="midnightblue" stroke="midnightblue" points="453.8,-77.5025 462.934,-72.1354 452.446,-70.6346 453.8,-77.5025"/>
</g>
<!-- Node19&#45;&gt;Node12 -->
<g id="edge27" class="edge"><title>Node19&#45;&gt;Node12</title>
<path fill="none" stroke="midnightblue" d="M223.733,-112.399C249.971,-102.327 284.925,-88.9093 310.018,-79.2769"/>
<polygon fill="midnightblue" stroke="midnightblue" points="311.365,-82.5091 319.446,-75.6578 308.856,-75.9741 311.365,-82.5091"/>
</g>
<!-- Node20&#45;&gt;Node4 -->
<g id="edge29" class="edge"><title>Node20&#45;&gt;Node4</title>
<path fill="none" stroke="midnightblue" d="M363.062,-117.975C388.059,-107.857 429.942,-90.9046 458.487,-79.3507"/>
<polygon fill="midnightblue" stroke="midnightblue" points="460.021,-82.5054 467.978,-75.5091 457.395,-76.0168 460.021,-82.5054"/>
</g>
<!-- Node20&#45;&gt;Node12 -->
<g id="edge30" class="edge"><title>Node20&#45;&gt;Node12</title>
<path fill="none" stroke="midnightblue" d="M342,-117.975C342,-109.58 342,-96.4806 342,-85.6631"/>
<polygon fill="midnightblue" stroke="midnightblue" points="345.5,-85.5091 342,-75.5091 338.5,-85.5091 345.5,-85.5091"/>
</g>
<!-- Node21&#45;&gt;Node4 -->
<g id="edge32" class="edge"><title>Node21&#45;&gt;Node4</title>
<path fill="none" stroke="midnightblue" d="M83.2355,-117.966C92.1814,-115.801 101.929,-113.63 111,-112 176.208,-100.282 371.138,-79.3161 452.597,-70.776"/>
<polygon fill="midnightblue" stroke="midnightblue" points="453.279,-74.2239 462.86,-69.7028 452.551,-67.2618 453.279,-74.2239"/>
</g>
<!-- Node21&#45;&gt;Node12 -->
<g id="edge33" class="edge"><title>Node21&#45;&gt;Node12</title>
<path fill="none" stroke="midnightblue" d="M85.2067,-117.954C93.6232,-115.928 102.624,-113.827 111,-112 171.807,-98.7368 242.035,-85.3253 288.945,-76.6377"/>
<polygon fill="midnightblue" stroke="midnightblue" points="289.683,-80.0607 298.882,-74.8036 288.412,-73.177 289.683,-80.0607"/>
</g>
<!-- Node24&#45;&gt;Node17 -->
<g id="edge40" class="edge"><title>Node24&#45;&gt;Node17</title>
<path fill="none" stroke="midnightblue" d="M1126.69,-347.903C1105.13,-341.337 1078.8,-329.965 1062,-311 1041.95,-288.378 1042,-276.225 1042,-246 1042,-246 1042,-246 1042,-188 1042,-151.714 1042,-109.307 1042,-85.559"/>
<polygon fill="midnightblue" stroke="midnightblue" points="1045.5,-85.5085 1042,-75.5085 1038.5,-85.5086 1045.5,-85.5085"/>
</g>
<!-- Node25 -->
<g id="node26" class="node"><title>Node25</title>
<polygon fill="white" stroke="#bfbfbf" points="1070.5,-291.5 1070.5,-310.5 1117.5,-310.5 1117.5,-291.5 1070.5,-291.5"/>
<text text-anchor="middle" x="1094" y="-298.5" font-family="Helvetica,sans-Serif" font-size="10.00">csignal</text>
</g>
<!-- Node24&#45;&gt;Node25 -->
<g id="edge41" class="edge"><title>Node24&#45;&gt;Node25</title>
<path fill="none" stroke="midnightblue" d="M1151.91,-347.324C1141.51,-339.185 1125.74,-326.839 1113.28,-317.087"/>
<polygon fill="midnightblue" stroke="midnightblue" points="1115.32,-314.241 1105.29,-310.834 1111.01,-319.753 1115.32,-314.241"/>
</g>
<!-- Node26 -->
<g id="node27" class="node"><title>Node26</title>
<polygon fill="white" stroke="#bfbfbf" points="1136,-291.5 1136,-310.5 1190,-310.5 1190,-291.5 1136,-291.5"/>
<text text-anchor="middle" x="1163" y="-298.5" font-family="Helvetica,sans-Serif" font-size="10.00">iostream</text>
</g>
<!-- Node24&#45;&gt;Node26 -->
<g id="edge42" class="edge"><title>Node24&#45;&gt;Node26</title>
<path fill="none" stroke="midnightblue" d="M1163,-347.083C1163,-340.006 1163,-329.861 1163,-320.986"/>
<polygon fill="midnightblue" stroke="midnightblue" points="1166.5,-320.751 1163,-310.751 1159.5,-320.751 1166.5,-320.751"/>
</g>
<!-- Node27 -->
<g id="node28" class="node"><title>Node27</title>
<polygon fill="white" stroke="#bfbfbf" points="1208.5,-291.5 1208.5,-310.5 1293.5,-310.5 1293.5,-291.5 1208.5,-291.5"/>
<text text-anchor="middle" x="1251" y="-298.5" font-family="Helvetica,sans-Serif" font-size="10.00">spdlog/spdlog.h</text>
</g>
<!-- Node24&#45;&gt;Node27 -->
<g id="edge43" class="edge"><title>Node24&#45;&gt;Node27</title>
<path fill="none" stroke="midnightblue" d="M1177.14,-347.324C1190.87,-338.9 1211.94,-325.971 1228.06,-316.074"/>
<polygon fill="midnightblue" stroke="midnightblue" points="1230.2,-318.868 1236.9,-310.655 1226.54,-312.902 1230.2,-318.868"/>
</g>
<!-- Node28 -->
<g id="node29" class="node"><title>Node28</title>
<polygon fill="white" stroke="#bfbfbf" points="1312,-291.5 1312,-310.5 1364,-310.5 1364,-291.5 1312,-291.5"/>
<text text-anchor="middle" x="1338" y="-298.5" font-family="Helvetica,sans-Serif" font-size="10.00">sstream</text>
</g>
<!-- Node24&#45;&gt;Node28 -->
<g id="edge44" class="edge"><title>Node24&#45;&gt;Node28</title>
<path fill="none" stroke="midnightblue" d="M1190.73,-347.444C1220.86,-338.145 1269.11,-323.257 1302.11,-313.073"/>
<polygon fill="midnightblue" stroke="midnightblue" points="1303.31,-316.368 1311.83,-310.075 1301.24,-309.68 1303.31,-316.368"/>
</g>
<!-- Node29 -->
<g id="node30" class="node"><title>Node29</title>
<polygon fill="white" stroke="#bfbfbf" points="1382.5,-291.5 1382.5,-310.5 1423.5,-310.5 1423.5,-291.5 1382.5,-291.5"/>
<text text-anchor="middle" x="1403" y="-298.5" font-family="Helvetica,sans-Serif" font-size="10.00">string</text>
</g>
<!-- Node24&#45;&gt;Node29 -->
<g id="edge45" class="edge"><title>Node24&#45;&gt;Node29</title>
<path fill="none" stroke="midnightblue" d="M1199.25,-349.152C1239.3,-341.383 1305.89,-327.871 1372.57,-310.939"/>
<polygon fill="midnightblue" stroke="midnightblue" points="1373.59,-314.291 1382.4,-308.416 1371.85,-307.511 1373.59,-314.291"/>
</g>
</g>
</svg>
        <g id="navigator" transform="translate(0 0)" fill="#404254">
                <rect fill="#f2f5e9" fill-opacity="0.5" stroke="#606060" stroke-width=".5" x="0" y="0" width="60" height="60"/>
                <use id="zoomplus" xlink:href="#zoomPlus" x="17" y="9" onmousedown="handleZoom(evt,'in')"/>
                <use id="zoomminus" xlink:href="#zoomMin" x="42" y="9" onmousedown="handleZoom(evt,'out')"/>
                <use id="reset" xlink:href="#resetDef" x="30" y="36" onmousedown="handleReset()"/>
                <g id="arrowUp" xlink:href="#dirArrow" transform="translate(30 24)" onmousedown="handlePan(0,-1)">
                  <use xlink:href="#rim" fill="#404040">
                        <set attributeName="fill" to="#808080" begin="arrowUp.mouseover" end="arrowUp.mouseout"/>
                  </use>
                  <path fill="none" stroke="white" stroke-width="1.5" d="M0,-3.0v7 M-2.5,-0.5L0,-3.0L2.5,-0.5"/>
                </g>
                <g id="arrowRight" xlink:href="#dirArrow" transform="rotate(90) translate(36 -43)" onmousedown="handlePan(1,0)">
                  <use xlink:href="#rim" fill="#404040">
                        <set attributeName="fill" to="#808080" begin="arrowRight.mouseover" end="arrowRight.mouseout"/>
                  </use>
                  <path fill="none" stroke="white" stroke-width="1.5" d="M0,-3.0v7 M-2.5,-0.5L0,-3.0L2.5,-0.5"/>
                </g>
                <g id="arrowDown" xlink:href="#dirArrow" transform="rotate(180) translate(-30 -48)" onmousedown="handlePan(0,1)">
                  <use xlink:href="#rim" fill="#404040">
                        <set attributeName="fill" to="#808080" begin="arrowDown.mouseover" end="arrowDown.mouseout"/>
                  </use>
                  <path fill="none" stroke="white" stroke-width="1.5" d="M0,-3.0v7 M-2.5,-0.5L0,-3.0L2.5,-0.5"/>
                </g>
                <g id="arrowLeft" xlink:href="#dirArrow" transform="rotate(270) translate(-36 17)" onmousedown="handlePan(-1,0)">
                  <use xlink:href="#rim" fill="#404040">
                        <set attributeName="fill" to="#808080" begin="arrowLeft.mouseover" end="arrowLeft.mouseout"/>
                  </use>
                  <path fill="none" stroke="white" stroke-width="1.5" d="M0,-3.0v7 M-2.5,-0.5L0,-3.0L2.5,-0.5"/>
                </g>
        </g>
        <svg viewBox="0 0 15 15" width="100%" height="30px" preserveAspectRatio="xMaxYMin meet">
         <g id="arrow_out" transform="scale(0.3 0.3)">
          <a xlink:href="OptionalTransaction_8cpp__incl_org.svg" target="_base">
           <rect id="button" ry="5" rx="5" y="6" x="6" height="38" width="38"
                fill="#f2f5e9" fill-opacity="0.5" stroke="#606060" stroke-width="1.0"/>
           <path id="arrow"
             d="M 11.500037,31.436501 C 11.940474,20.09759 22.043105,11.32322 32.158766,21.979434 L 37.068811,17.246167 C 37.068811,17.246167 37.088388,32 37.088388,32 L 22.160133,31.978069 C 22.160133,31.978069 26.997745,27.140456 26.997745,27.140456 C 18.528582,18.264221 13.291696,25.230495 11.500037,31.436501 z"
             style="fill:#404040;"/>
          </a>
         </g>
        </svg>
</svg>
