<?xml version="1.0" encoding="UTF-8" standalone="no"?>
<!DOCTYPE svg PUBLIC "-//W3C//DTD SVG 1.1//EN"
 "http://www.w3.org/Graphics/SVG/1.1/DTD/svg11.dtd">
<!-- Generated by graphviz version 2.38.0 (20140413.2041)
 -->
<!-- Title: src/core/audit/UpdateEvent.cpp Pages: 1 -->
<!--zoomable 498 -->
<svg id="main" version="1.1" xmlns="http://www.w3.org/2000/svg" xmlns:xlink="http://www.w3.org/1999/xlink" xml:space="preserve" onload="init(evt)">
<style type="text/css"><![CDATA[
.edge:hover path { stroke: red; }
.edge:hover polygon { stroke: red; fill: red; }
]]></style>
<script type="text/javascript"><![CDATA[
var edges = document.getElementsByTagName('g');
if (edges && edges.length) {
  for (var i=0;i<edges.length;i++) {
    if (edges[i].id.substr(0,4)=='edge') {
      edges[i].setAttribute('class','edge');
    }
  }
}
]]></script>
        <defs>
                <circle id="rim" cx="0" cy="0" r="7"/>
                <circle id="rim2" cx="0" cy="0" r="3.5"/>
                <g id="zoomPlus">
                        <use xlink:href="#rim" fill="#404040">
                                <set attributeName="fill" to="#808080" begin="zoomplus.mouseover" end="zoomplus.mouseout"/>
                        </use>
                        <path d="M-4,0h8M0,-4v8" fill="none" stroke="white" stroke-width="1.5" pointer-events="none"/>
                </g>
                <g id="zoomMin">
                        <use xlink:href="#rim" fill="#404040">
                                <set attributeName="fill" to="#808080" begin="zoomminus.mouseover" end="zoomminus.mouseout"/>
                        </use>
                        <path d="M-4,0h8" fill="none" stroke="white" stroke-width="1.5" pointer-events="none"/>
                </g>
                <g id="dirArrow">
                        <path fill="none" stroke="white" stroke-width="1.5" d="M0,-3.0v7 M-2.5,-0.5L0,-3.0L2.5,-0.5"/>
                </g>
               <g id="resetDef">
                       <use xlink:href="#rim2" fill="#404040">
                               <set attributeName="fill" to="#808080" begin="reset.mouseover" end="reset.mouseout"/>
                       </use>
               </g>
        </defs>

<script type="text/javascript">
var viewWidth = 1752;
var viewHeight = 498;
var sectionId = 'dynsection-0';
</script>
<script xlink:href="../../svgpan.js"/>
<svg id="graph" class="graph">
<g id="viewport">
<title>src/core/audit/UpdateEvent.cpp</title>
<polygon fill="white" stroke="none" points="-4,4 -4,-494 1748,-494 1748,4 -4,4"/>
<!-- Node0 -->
<g id="node1" class="node"><title>Node0</title>
<polygon fill="#bfbfbf" stroke="black" points="1246.5,-470.5 1246.5,-489.5 1401.5,-489.5 1401.5,-470.5 1246.5,-470.5"/>
<text text-anchor="middle" x="1324" y="-477.5" font-family="Helvetica,sans-Serif" font-size="10.00">src/core/audit/UpdateEvent.cpp</text>
</g>
<!-- Node1 -->
<g id="node2" class="node"><title>Node1</title>
<g id="a_node2"><a xlink:href="../../d0/d85/UpdateEvent_8hpp.html" target="_top" xlink:title="UpdateEvent.hpp">
<polygon fill="white" stroke="black" points="619,-409 619,-428 711,-428 711,-409 619,-409"/>
<text text-anchor="middle" x="665" y="-416" font-family="Helvetica,sans-Serif" font-size="10.00">UpdateEvent.hpp</text>
</a>
</g>
</g>
<!-- Node0&#45;&gt;Node1 -->
<g id="edge1" class="edge"><title>Node0&#45;&gt;Node1</title>
<path fill="none" stroke="midnightblue" d="M1246.47,-472C1112.21,-459.878 839.528,-435.258 721.527,-424.604"/>
<polygon fill="midnightblue" stroke="midnightblue" points="721.548,-421.091 711.274,-423.678 720.918,-428.063 721.548,-421.091"/>
</g>
<!-- Node30 -->
<g id="node31" class="node"><title>Node30</title>
<polygon fill="white" stroke="#bfbfbf" points="1435.5,-403.5 1435.5,-433.5 1554.5,-433.5 1554.5,-403.5 1435.5,-403.5"/>
<text text-anchor="start" x="1443.5" y="-421.5" font-family="Helvetica,sans-Serif" font-size="10.00">core/audit/UpdateEvent</text>
<text text-anchor="middle" x="1495" y="-410.5" font-family="Helvetica,sans-Serif" font-size="10.00">_odb.h</text>
</g>
<!-- Node0&#45;&gt;Node30 -->
<g id="edge50" class="edge"><title>Node0&#45;&gt;Node30</title>
<path fill="none" stroke="midnightblue" d="M1348.5,-470.475C1373.61,-461.739 1413.36,-447.907 1445.12,-436.855"/>
<polygon fill="midnightblue" stroke="midnightblue" points="1446.4,-440.115 1454.7,-433.523 1444.1,-433.504 1446.4,-440.115"/>
</g>
<!-- Node31 -->
<g id="node32" class="node"><title>Node31</title>
<g id="a_node32"><a xlink:href="../../d3/db1/AssertCast_8hpp.html" target="_top" xlink:title="tools/AssertCast.hpp">
<polygon fill="white" stroke="black" points="1269.5,-409 1269.5,-428 1378.5,-428 1378.5,-409 1269.5,-409"/>
<text text-anchor="middle" x="1324" y="-416" font-family="Helvetica,sans-Serif" font-size="10.00">tools/AssertCast.hpp</text>
</a>
</g>
</g>
<!-- Node0&#45;&gt;Node31 -->
<g id="edge51" class="edge"><title>Node0&#45;&gt;Node31</title>
<path fill="none" stroke="midnightblue" d="M1324,-470.475C1324,-462.08 1324,-448.981 1324,-438.163"/>
<polygon fill="midnightblue" stroke="midnightblue" points="1327.5,-438.009 1324,-428.009 1320.5,-438.009 1327.5,-438.009"/>
</g>
<!-- Node32 -->
<g id="node33" class="node"><title>Node32</title>
<g id="a_node33"><a xlink:href="../../d4/d3d/log_8hpp.html" target="_top" xlink:title="tools/log.hpp">
<polygon fill="white" stroke="black" points="1412,-347.5 1412,-366.5 1484,-366.5 1484,-347.5 1412,-347.5"/>
<text text-anchor="middle" x="1448" y="-354.5" font-family="Helvetica,sans-Serif" font-size="10.00">tools/log.hpp</text>
</a>
</g>
</g>
<!-- Node0&#45;&gt;Node32 -->
<g id="edge64" class="edge"><title>Node0&#45;&gt;Node32</title>
<path fill="none" stroke="midnightblue" d="M1338.62,-470.431C1352.21,-462.087 1372.61,-448.562 1388,-434 1407.19,-415.844 1425.43,-391.338 1436.66,-375.121"/>
<polygon fill="midnightblue" stroke="midnightblue" points="1439.69,-376.881 1442.41,-366.641 1433.9,-372.952 1439.69,-376.881"/>
</g>
<!-- Node38 -->
<g id="node39" class="node"><title>Node38</title>
<g id="a_node39"><a xlink:href="../../df/d73/OptionalTransaction_8hpp.html" target="_top" xlink:title="tools/db/OptionalTransaction.hpp">
<polygon fill="white" stroke="black" points="1132,-347.5 1132,-366.5 1292,-366.5 1292,-347.5 1132,-347.5"/>
<text text-anchor="middle" x="1212" y="-354.5" font-family="Helvetica,sans-Serif" font-size="10.00">tools/db/OptionalTransaction.hpp</text>
</a>
</g>
</g>
<!-- Node0&#45;&gt;Node38 -->
<g id="edge60" class="edge"><title>Node0&#45;&gt;Node38</title>
<path fill="none" stroke="midnightblue" d="M1308.77,-470.396C1295.18,-462.222 1275.28,-448.981 1261,-434 1244.13,-416.311 1229.66,-392.029 1220.91,-375.715"/>
<polygon fill="midnightblue" stroke="midnightblue" points="1223.94,-373.973 1216.22,-366.717 1217.73,-377.203 1223.94,-373.973"/>
</g>
<!-- Node2 -->
<g id="node3" class="node"><title>Node2</title>
<g id="a_node3"><a xlink:href="../../d4/d93/AuditEntry_8hpp.html" target="_top" xlink:title="AuditEntry.hpp">
<polygon fill="white" stroke="black" points="423.5,-347.5 423.5,-366.5 504.5,-366.5 504.5,-347.5 423.5,-347.5"/>
<text text-anchor="middle" x="464" y="-354.5" font-family="Helvetica,sans-Serif" font-size="10.00">AuditEntry.hpp</text>
</a>
</g>
</g>
<!-- Node1&#45;&gt;Node2 -->
<g id="edge2" class="edge"><title>Node1&#45;&gt;Node2</title>
<path fill="none" stroke="midnightblue" d="M636.202,-408.975C601.126,-398.592 541.737,-381.012 502.693,-369.454"/>
<polygon fill="midnightblue" stroke="midnightblue" points="503.327,-365.992 492.745,-366.509 501.34,-372.704 503.327,-365.992"/>
</g>
<!-- Node29 -->
<g id="node30" class="node"><title>Node29</title>
<g id="a_node30"><a xlink:href="../../d0/d00/IUpdateEvent_8hpp.html" target="_top" xlink:title="IUpdateEvent.hpp">
<polygon fill="white" stroke="black" points="455.5,-235.5 455.5,-254.5 550.5,-254.5 550.5,-235.5 455.5,-235.5"/>
<text text-anchor="middle" x="503" y="-242.5" font-family="Helvetica,sans-Serif" font-size="10.00">IUpdateEvent.hpp</text>
</a>
</g>
</g>
<!-- Node1&#45;&gt;Node29 -->
<g id="edge47" class="edge"><title>Node1&#45;&gt;Node29</title>
<path fill="none" stroke="midnightblue" d="M666.427,-408.882C669.618,-386.476 674.868,-325.725 645,-291 633.181,-277.26 591.737,-265.076 556.65,-256.863"/>
<polygon fill="midnightblue" stroke="midnightblue" points="557.008,-253.355 546.48,-254.549 555.455,-260.18 557.008,-253.355"/>
</g>
<!-- Node3 -->
<g id="node4" class="node"><title>Node3</title>
<g id="a_node4"><a xlink:href="../../d7/dcf/AuditFwd_8hpp.html" target="_top" xlink:title="core/audit/AuditFwd.hpp">
<polygon fill="white" stroke="black" points="0,-118 0,-137 122,-137 122,-118 0,-118"/>
<text text-anchor="middle" x="61" y="-125" font-family="Helvetica,sans-Serif" font-size="10.00">core/audit/AuditFwd.hpp</text>
</a>
</g>
</g>
<!-- Node2&#45;&gt;Node3 -->
<g id="edge3" class="edge"><title>Node2&#45;&gt;Node3</title>
<path fill="none" stroke="midnightblue" d="M423.304,-352.443C360.152,-346.34 242.061,-332.422 206,-311 137.309,-270.193 88.325,-183.777 69.5084,-146.375"/>
<polygon fill="midnightblue" stroke="midnightblue" points="72.5562,-144.641 65.0098,-137.205 66.2716,-147.724 72.5562,-144.641"/>
</g>
<!-- Node6 -->
<g id="node7" class="node"><title>Node6</title>
<polygon fill="white" stroke="#bfbfbf" points="738,-56.5 738,-75.5 790,-75.5 790,-56.5 738,-56.5"/>
<text text-anchor="middle" x="764" y="-63.5" font-family="Helvetica,sans-Serif" font-size="10.00">memory</text>
</g>
<!-- Node2&#45;&gt;Node6 -->
<g id="edge44" class="edge"><title>Node2&#45;&gt;Node6</title>
<path fill="none" stroke="midnightblue" d="M504.66,-351.232C542.599,-345.574 599.958,-333.865 645,-311 691.987,-287.147 692.5,-264.739 736,-235 805.954,-187.175 859.896,-215.958 903,-143 910.008,-131.138 911.104,-123.142 903,-112 879.709,-79.9784 833.137,-70.2767 800.338,-67.581"/>
<polygon fill="midnightblue" stroke="midnightblue" points="800.423,-64.0794 790.22,-66.9326 799.975,-71.0651 800.423,-64.0794"/>
</g>
<!-- Node8 -->
<g id="node9" class="node"><title>Node8</title>
<g id="a_node9"><a xlink:href="../../d3/dd8/IAuditEntry_8hpp.html" target="_top" xlink:title="core/audit/IAuditEntry.hpp">
<polygon fill="white" stroke="black" points="346,-179.5 346,-198.5 476,-198.5 476,-179.5 346,-179.5"/>
<text text-anchor="middle" x="411" y="-186.5" font-family="Helvetica,sans-Serif" font-size="10.00">core/audit/IAuditEntry.hpp</text>
</a>
</g>
</g>
<!-- Node2&#45;&gt;Node8 -->
<g id="edge8" class="edge"><title>Node2&#45;&gt;Node8</title>
<path fill="none" stroke="midnightblue" d="M460.294,-347.468C456.462,-338.487 450.43,-323.891 446,-311 433.667,-275.115 421.973,-232.286 415.718,-208.413"/>
<polygon fill="midnightblue" stroke="midnightblue" points="419.071,-207.401 413.174,-198.599 412.295,-209.158 419.071,-207.401"/>
</g>
<!-- Node9 -->
<g id="node10" class="node"><title>Node9</title>
<g id="a_node10"><a xlink:href="../../d3/d6f/AuthFwd_8hpp.html" target="_top" xlink:title="core/auth/AuthFwd.hpp">
<polygon fill="white" stroke="black" points="272,-118 272,-137 390,-137 390,-118 272,-118"/>
<text text-anchor="middle" x="331" y="-125" font-family="Helvetica,sans-Serif" font-size="10.00">core/auth/AuthFwd.hpp</text>
</a>
</g>
</g>
<!-- Node2&#45;&gt;Node9 -->
<g id="edge20" class="edge"><title>Node2&#45;&gt;Node9</title>
<path fill="none" stroke="midnightblue" d="M423.086,-353.883C364.432,-349.895 260.966,-338.99 238,-311 193.332,-256.561 273.414,-177.144 311.978,-143.965"/>
<polygon fill="midnightblue" stroke="midnightblue" points="314.546,-146.378 319.943,-137.261 310.039,-141.022 314.546,-146.378"/>
</g>
<!-- Node14 -->
<g id="node15" class="node"><title>Node14</title>
<polygon fill="white" stroke="#bfbfbf" points="140.5,-112.5 140.5,-142.5 253.5,-142.5 253.5,-112.5 140.5,-112.5"/>
<text text-anchor="start" x="148.5" y="-130.5" font-family="Helvetica,sans-Serif" font-size="10.00">boost/date_time/posix</text>
<text text-anchor="middle" x="197" y="-119.5" font-family="Helvetica,sans-Serif" font-size="10.00">_time/posix_time.hpp</text>
</g>
<!-- Node2&#45;&gt;Node14 -->
<g id="edge43" class="edge"><title>Node2&#45;&gt;Node14</title>
<path fill="none" stroke="midnightblue" d="M423.395,-353.944C362.283,-349.966 250.932,-338.989 224,-311 182.792,-268.175 187.136,-191.552 192.647,-152.624"/>
<polygon fill="midnightblue" stroke="midnightblue" points="196.111,-153.124 194.196,-142.704 189.195,-152.044 196.111,-153.124"/>
</g>
<!-- Node15 -->
<g id="node16" class="node"><title>Node15</title>
<g id="a_node16"><a xlink:href="../../d6/d65/ElapsedTimeCounter_8hpp.html" target="_top" xlink:title="tools/ElapsedTimeCounter.hpp">
<polygon fill="white" stroke="black" points="247.5,-291.5 247.5,-310.5 398.5,-310.5 398.5,-291.5 247.5,-291.5"/>
<text text-anchor="middle" x="323" y="-298.5" font-family="Helvetica,sans-Serif" font-size="10.00">tools/ElapsedTimeCounter.hpp</text>
</a>
</g>
</g>
<!-- Node2&#45;&gt;Node15 -->
<g id="edge21" class="edge"><title>Node2&#45;&gt;Node15</title>
<path fill="none" stroke="midnightblue" d="M441.658,-347.444C418.247,-338.478 381.264,-324.314 354.81,-314.183"/>
<polygon fill="midnightblue" stroke="midnightblue" points="355.828,-310.824 345.237,-310.516 353.324,-317.361 355.828,-310.824"/>
</g>
<!-- Node17 -->
<g id="node18" class="node"><title>Node17</title>
<g id="a_node18"><a xlink:href="../../df/da2/database_8hpp.html" target="_top" xlink:title="tools/db/database.hpp">
<polygon fill="white" stroke="black" points="916.5,-291.5 916.5,-310.5 1029.5,-310.5 1029.5,-291.5 916.5,-291.5"/>
<text text-anchor="middle" x="973" y="-298.5" font-family="Helvetica,sans-Serif" font-size="10.00">tools/db/database.hpp</text>
</a>
</g>
</g>
<!-- Node2&#45;&gt;Node17 -->
<g id="edge23" class="edge"><title>Node2&#45;&gt;Node17</title>
<path fill="none" stroke="midnightblue" d="M504.793,-351.672C592.436,-342.374 799.409,-320.416 906.39,-309.067"/>
<polygon fill="midnightblue" stroke="midnightblue" points="906.849,-312.538 916.424,-308.002 906.11,-305.577 906.849,-312.538"/>
</g>
<!-- Node27 -->
<g id="node28" class="node"><title>Node27</title>
<polygon fill="white" stroke="#bfbfbf" points="455,-291.5 455,-310.5 545,-310.5 545,-291.5 455,-291.5"/>
<text text-anchor="middle" x="500" y="-298.5" font-family="Helvetica,sans-Serif" font-size="10.00">odb/callback.hxx</text>
</g>
<!-- Node2&#45;&gt;Node27 -->
<g id="edge45" class="edge"><title>Node2&#45;&gt;Node27</title>
<path fill="none" stroke="midnightblue" d="M469.945,-347.083C474.977,-339.534 482.337,-328.495 488.513,-319.23"/>
<polygon fill="midnightblue" stroke="midnightblue" points="491.531,-321.013 494.166,-310.751 485.707,-317.13 491.531,-321.013"/>
</g>
<!-- Node28 -->
<g id="node29" class="node"><title>Node28</title>
<polygon fill="white" stroke="#bfbfbf" points="563.5,-291.5 563.5,-310.5 636.5,-310.5 636.5,-291.5 563.5,-291.5"/>
<text text-anchor="middle" x="600" y="-298.5" font-family="Helvetica,sans-Serif" font-size="10.00">odb/core.hxx</text>
</g>
<!-- Node2&#45;&gt;Node28 -->
<g id="edge46" class="edge"><title>Node2&#45;&gt;Node28</title>
<path fill="none" stroke="midnightblue" d="M485.55,-347.444C508.031,-338.517 543.488,-324.439 568.98,-314.317"/>
<polygon fill="midnightblue" stroke="midnightblue" points="570.549,-317.46 578.551,-310.516 567.965,-310.954 570.549,-317.46"/>
</g>
<!-- Node4 -->
<g id="node5" class="node"><title>Node4</title>
<polygon fill="white" stroke="#bfbfbf" points="209.5,-56.5 209.5,-75.5 258.5,-75.5 258.5,-56.5 209.5,-56.5"/>
<text text-anchor="middle" x="234" y="-63.5" font-family="Helvetica,sans-Serif" font-size="10.00">cstddef</text>
</g>
<!-- Node3&#45;&gt;Node4 -->
<g id="edge4" class="edge"><title>Node3&#45;&gt;Node4</title>
<path fill="none" stroke="midnightblue" d="M85.7867,-117.975C115.591,-107.725 165.791,-90.4593 199.402,-78.8994"/>
<polygon fill="midnightblue" stroke="midnightblue" points="200.941,-82.0712 209.259,-75.5091 198.665,-75.4518 200.941,-82.0712"/>
</g>
<!-- Node5 -->
<g id="node6" class="node"><title>Node5</title>
<polygon fill="white" stroke="#bfbfbf" points="28.5,-56.5 28.5,-75.5 93.5,-75.5 93.5,-56.5 28.5,-56.5"/>
<text text-anchor="middle" x="61" y="-63.5" font-family="Helvetica,sans-Serif" font-size="10.00">flagset.hpp</text>
</g>
<!-- Node3&#45;&gt;Node5 -->
<g id="edge5" class="edge"><title>Node3&#45;&gt;Node5</title>
<path fill="none" stroke="midnightblue" d="M61,-117.975C61,-109.58 61,-96.4806 61,-85.6631"/>
<polygon fill="midnightblue" stroke="midnightblue" points="64.5001,-85.5091 61,-75.5091 57.5001,-85.5091 64.5001,-85.5091"/>
</g>
<!-- Node3&#45;&gt;Node6 -->
<g id="edge6" class="edge"><title>Node3&#45;&gt;Node6</title>
<path fill="none" stroke="midnightblue" d="M97.533,-117.973C108.265,-115.729 120.059,-113.515 131,-112 247.675,-95.8419 611.054,-75.2819 727.619,-68.946"/>
<polygon fill="midnightblue" stroke="midnightblue" points="728.003,-72.4304 737.799,-68.3948 727.625,-65.4407 728.003,-72.4304"/>
</g>
<!-- Node7 -->
<g id="node8" class="node"><title>Node7</title>
<polygon fill="white" stroke="#bfbfbf" points="506,-56.5 506,-75.5 592,-75.5 592,-56.5 506,-56.5"/>
<text text-anchor="middle" x="549" y="-63.5" font-family="Helvetica,sans-Serif" font-size="10.00">odb/lazy&#45;ptr.hxx</text>
</g>
<!-- Node3&#45;&gt;Node7 -->
<g id="edge7" class="edge"><title>Node3&#45;&gt;Node7</title>
<path fill="none" stroke="midnightblue" d="M98.6495,-117.938C109.087,-115.773 120.449,-113.609 131,-112 292.148,-87.4334 334.436,-97.6583 496,-76 496.101,-75.9864 496.202,-75.9728 496.304,-75.9592"/>
<polygon fill="midnightblue" stroke="midnightblue" points="496.541,-79.4612 505.94,-74.571 495.543,-72.5328 496.541,-79.4612"/>
</g>
<!-- Node8&#45;&gt;Node3 -->
<g id="edge9" class="edge"><title>Node8&#45;&gt;Node3</title>
<path fill="none" stroke="midnightblue" d="M353.223,-179.489C296.516,-170.954 207.63,-157.087 131,-143 124.357,-141.779 117.375,-140.422 110.498,-139.041"/>
<polygon fill="midnightblue" stroke="midnightblue" points="111.048,-135.581 100.55,-137.016 109.651,-142.441 111.048,-135.581"/>
</g>
<!-- Node8&#45;&gt;Node6 -->
<g id="edge19" class="edge"><title>Node8&#45;&gt;Node6</title>
<path fill="none" stroke="midnightblue" d="M430.989,-179.469C474.821,-160.789 576.783,-117.49 593,-112 638.719,-96.5213 692.785,-83.0809 727.697,-75.014"/>
<polygon fill="midnightblue" stroke="midnightblue" points="728.917,-78.3256 737.887,-72.6867 727.358,-71.5013 728.917,-78.3256"/>
</g>
<!-- Node8&#45;&gt;Node9 -->
<g id="edge10" class="edge"><title>Node8&#45;&gt;Node9</title>
<path fill="none" stroke="midnightblue" d="M399.538,-179.475C386.825,-170.02 366.087,-154.596 350.747,-143.187"/>
<polygon fill="midnightblue" stroke="midnightblue" points="352.554,-140.169 342.441,-137.009 348.376,-145.785 352.554,-140.169"/>
</g>
<!-- Node10 -->
<g id="node11" class="node"><title>Node10</title>
<g id="a_node11"><a xlink:href="../../dd/d9d/IVisitable_8hpp.html" target="_top" xlink:title="tools/IVisitable.hpp">
<polygon fill="white" stroke="black" points="408,-118 408,-137 508,-137 508,-118 408,-118"/>
<text text-anchor="middle" x="458" y="-125" font-family="Helvetica,sans-Serif" font-size="10.00">tools/IVisitable.hpp</text>
</a>
</g>
</g>
<!-- Node8&#45;&gt;Node10 -->
<g id="edge14" class="edge"><title>Node8&#45;&gt;Node10</title>
<path fill="none" stroke="midnightblue" d="M417.734,-179.475C424.784,-170.55 436.035,-156.307 444.854,-145.143"/>
<polygon fill="midnightblue" stroke="midnightblue" points="447.826,-147.026 451.279,-137.009 442.333,-142.687 447.826,-147.026"/>
</g>
<!-- Node8&#45;&gt;Node14 -->
<g id="edge18" class="edge"><title>Node8&#45;&gt;Node14</title>
<path fill="none" stroke="midnightblue" d="M380.339,-179.475C348.308,-170.569 297.234,-156.369 257.118,-145.215"/>
<polygon fill="midnightblue" stroke="midnightblue" points="258.008,-141.83 247.436,-142.523 256.133,-148.574 258.008,-141.83"/>
</g>
<!-- Node9&#45;&gt;Node4 -->
<g id="edge11" class="edge"><title>Node9&#45;&gt;Node4</title>
<path fill="none" stroke="midnightblue" d="M317.102,-117.975C301.328,-108.299 275.363,-92.3721 256.651,-80.8941"/>
<polygon fill="midnightblue" stroke="midnightblue" points="258.226,-77.7544 247.872,-75.5091 254.566,-83.7213 258.226,-77.7544"/>
</g>
<!-- Node9&#45;&gt;Node6 -->
<g id="edge12" class="edge"><title>Node9&#45;&gt;Node6</title>
<path fill="none" stroke="midnightblue" d="M368.299,-117.933C378.242,-115.818 389,-113.679 399,-112 518.59,-91.9172 661.634,-76.8645 727.507,-70.4322"/>
<polygon fill="midnightblue" stroke="midnightblue" points="728.157,-73.8857 737.774,-69.4387 727.483,-66.9182 728.157,-73.8857"/>
</g>
<!-- Node9&#45;&gt;Node7 -->
<g id="edge13" class="edge"><title>Node9&#45;&gt;Node7</title>
<path fill="none" stroke="midnightblue" d="M362.234,-117.975C400.6,-107.504 465.787,-89.7118 508.111,-78.1601"/>
<polygon fill="midnightblue" stroke="midnightblue" points="509.098,-81.5187 517.824,-75.5091 507.255,-74.7657 509.098,-81.5187"/>
</g>
<!-- Node11 -->
<g id="node12" class="node"><title>Node11</title>
<g id="a_node12"><a xlink:href="../../d2/d91/Visitor_8hpp.html" target="_top" xlink:title="tools/Visitor.hpp">
<polygon fill="white" stroke="black" points="400.5,-56.5 400.5,-75.5 487.5,-75.5 487.5,-56.5 400.5,-56.5"/>
<text text-anchor="middle" x="444" y="-63.5" font-family="Helvetica,sans-Serif" font-size="10.00">tools/Visitor.hpp</text>
</a>
</g>
</g>
<!-- Node10&#45;&gt;Node11 -->
<g id="edge15" class="edge"><title>Node10&#45;&gt;Node11</title>
<path fill="none" stroke="midnightblue" d="M455.994,-117.975C453.998,-109.492 450.872,-96.2043 448.311,-85.3222"/>
<polygon fill="midnightblue" stroke="midnightblue" points="451.7,-84.4416 446.002,-75.5091 444.886,-86.0449 451.7,-84.4416"/>
</g>
<!-- Node13 -->
<g id="node14" class="node"><title>Node13</title>
<polygon fill="white" stroke="#bfbfbf" points="1102.5,-56.5 1102.5,-75.5 1151.5,-75.5 1151.5,-56.5 1102.5,-56.5"/>
<text text-anchor="middle" x="1127" y="-63.5" font-family="Helvetica,sans-Serif" font-size="10.00">cassert</text>
</g>
<!-- Node10&#45;&gt;Node13 -->
<g id="edge17" class="edge"><title>Node10&#45;&gt;Node13</title>
<path fill="none" stroke="midnightblue" d="M508.298,-120.821C533.681,-118.025 564.96,-114.687 593,-112 781.286,-93.9573 1007.3,-76.1912 1092.37,-69.6416"/>
<polygon fill="midnightblue" stroke="midnightblue" points="1092.8,-73.1194 1102.5,-68.8637 1092.26,-66.14 1092.8,-73.1194"/>
</g>
<!-- Node12 -->
<g id="node13" class="node"><title>Node12</title>
<polygon fill="white" stroke="#bfbfbf" points="413,-0.5 413,-19.5 475,-19.5 475,-0.5 413,-0.5"/>
<text text-anchor="middle" x="444" y="-7.5" font-family="Helvetica,sans-Serif" font-size="10.00">type_traits</text>
</g>
<!-- Node11&#45;&gt;Node12 -->
<g id="edge16" class="edge"><title>Node11&#45;&gt;Node12</title>
<path fill="none" stroke="midnightblue" d="M444,-56.083C444,-49.0059 444,-38.8611 444,-29.9865"/>
<polygon fill="midnightblue" stroke="midnightblue" points="447.5,-29.751 444,-19.7511 440.5,-29.7511 447.5,-29.751"/>
</g>
<!-- Node16 -->
<g id="node17" class="node"><title>Node16</title>
<polygon fill="white" stroke="#bfbfbf" points="300,-235.5 300,-254.5 346,-254.5 346,-235.5 300,-235.5"/>
<text text-anchor="middle" x="323" y="-242.5" font-family="Helvetica,sans-Serif" font-size="10.00">chrono</text>
</g>
<!-- Node15&#45;&gt;Node16 -->
<g id="edge22" class="edge"><title>Node15&#45;&gt;Node16</title>
<path fill="none" stroke="midnightblue" d="M323,-291.083C323,-284.006 323,-273.861 323,-264.986"/>
<polygon fill="midnightblue" stroke="midnightblue" points="326.5,-264.751 323,-254.751 319.5,-264.751 326.5,-264.751"/>
</g>
<!-- Node18 -->
<g id="node19" class="node"><title>Node18</title>
<g id="a_node19"><a xlink:href="../../d9/d69/db__fwd_8hpp.html" target="_top" xlink:title="db_fwd.hpp">
<polygon fill="white" stroke="black" points="1052.5,-179.5 1052.5,-198.5 1119.5,-198.5 1119.5,-179.5 1052.5,-179.5"/>
<text text-anchor="middle" x="1086" y="-186.5" font-family="Helvetica,sans-Serif" font-size="10.00">db_fwd.hpp</text>
</a>
</g>
</g>
<!-- Node17&#45;&gt;Node18 -->
<g id="edge24" class="edge"><title>Node17&#45;&gt;Node18</title>
<path fill="none" stroke="midnightblue" d="M1029.78,-296.384C1058.47,-291.337 1090.94,-279.998 1109,-255 1119.47,-240.514 1109.9,-220.817 1100.11,-206.914"/>
<polygon fill="midnightblue" stroke="midnightblue" points="1102.71,-204.546 1093.85,-198.727 1097.15,-208.797 1102.71,-204.546"/>
</g>
<!-- Node19 -->
<g id="node20" class="node"><title>Node19</title>
<polygon fill="white" stroke="#bfbfbf" points="745,-235.5 745,-254.5 839,-254.5 839,-235.5 745,-235.5"/>
<text text-anchor="middle" x="792" y="-242.5" font-family="Helvetica,sans-Serif" font-size="10.00">odb/database.hxx</text>
</g>
<!-- Node17&#45;&gt;Node19 -->
<g id="edge26" class="edge"><title>Node17&#45;&gt;Node19</title>
<path fill="none" stroke="midnightblue" d="M944.32,-291.444C913.473,-282.241 864.272,-267.562 830.171,-257.388"/>
<polygon fill="midnightblue" stroke="midnightblue" points="831.129,-254.021 820.546,-254.516 829.128,-260.729 831.129,-254.021"/>
</g>
<!-- Node20 -->
<g id="node21" class="node"><title>Node20</title>
<polygon fill="white" stroke="#bfbfbf" points="1156,-235.5 1156,-254.5 1258,-254.5 1258,-235.5 1156,-235.5"/>
<text text-anchor="middle" x="1207" y="-242.5" font-family="Helvetica,sans-Serif" font-size="10.00">odb/transaction.hxx</text>
</g>
<!-- Node17&#45;&gt;Node20 -->
<g id="edge27" class="edge"><title>Node17&#45;&gt;Node20</title>
<path fill="none" stroke="midnightblue" d="M1010.08,-291.444C1050.73,-282.063 1116.03,-266.993 1160.18,-256.804"/>
<polygon fill="midnightblue" stroke="midnightblue" points="1161.14,-260.175 1170.1,-254.516 1159.56,-253.355 1161.14,-260.175"/>
</g>
<!-- Node21 -->
<g id="node22" class="node"><title>Node21</title>
<g id="a_node22"><a xlink:href="../../d0/dee/DBService_8hpp.html" target="_top" xlink:title="tools/db/DBService.hpp">
<polygon fill="white" stroke="black" points="569,-235.5 569,-254.5 689,-254.5 689,-235.5 569,-235.5"/>
<text text-anchor="middle" x="629" y="-242.5" font-family="Helvetica,sans-Serif" font-size="10.00">tools/db/DBService.hpp</text>
</a>
</g>
</g>
<!-- Node17&#45;&gt;Node21 -->
<g id="edge28" class="edge"><title>Node17&#45;&gt;Node21</title>
<path fill="none" stroke="midnightblue" d="M918.492,-291.444C857.35,-281.846 758.265,-266.292 693.364,-256.104"/>
<polygon fill="midnightblue" stroke="midnightblue" points="693.675,-252.61 683.253,-254.516 692.589,-259.525 693.675,-252.61"/>
</g>
<!-- Node25 -->
<g id="node26" class="node"><title>Node25</title>
<polygon fill="white" stroke="#bfbfbf" points="857.5,-235.5 857.5,-254.5 958.5,-254.5 958.5,-235.5 857.5,-235.5"/>
<text text-anchor="middle" x="908" y="-242.5" font-family="Helvetica,sans-Serif" font-size="10.00">odb/connection.hxx</text>
</g>
<!-- Node17&#45;&gt;Node25 -->
<g id="edge41" class="edge"><title>Node17&#45;&gt;Node25</title>
<path fill="none" stroke="midnightblue" d="M962.557,-291.324C952.854,-283.263 938.185,-271.077 926.5,-261.369"/>
<polygon fill="midnightblue" stroke="midnightblue" points="928.562,-258.532 918.633,-254.834 924.089,-263.916 928.562,-258.532"/>
</g>
<!-- Node26 -->
<g id="node27" class="node"><title>Node26</title>
<polygon fill="white" stroke="#bfbfbf" points="976.5,-235.5 976.5,-254.5 1099.5,-254.5 1099.5,-235.5 976.5,-235.5"/>
<text text-anchor="middle" x="1038" y="-242.5" font-family="Helvetica,sans-Serif" font-size="10.00">odb/schema&#45;catalog.hxx</text>
</g>
<!-- Node17&#45;&gt;Node26 -->
<g id="edge42" class="edge"><title>Node17&#45;&gt;Node26</title>
<path fill="none" stroke="midnightblue" d="M983.443,-291.324C993.146,-283.263 1007.82,-271.077 1019.5,-261.369"/>
<polygon fill="midnightblue" stroke="midnightblue" points="1021.91,-263.916 1027.37,-254.834 1017.44,-258.532 1021.91,-263.916"/>
</g>
<!-- Node18&#45;&gt;Node6 -->
<g id="edge25" class="edge"><title>Node18&#45;&gt;Node6</title>
<path fill="none" stroke="midnightblue" d="M1071.57,-179.372C1045.37,-164.004 987.864,-131.666 936,-112 890.294,-94.6691 835.314,-81.5595 800.026,-74.0809"/>
<polygon fill="midnightblue" stroke="midnightblue" points="800.683,-70.6427 790.179,-72.0322 799.257,-77.4959 800.683,-70.6427"/>
</g>
<!-- Node21&#45;&gt;Node8 -->
<g id="edge29" class="edge"><title>Node21&#45;&gt;Node8</title>
<path fill="none" stroke="midnightblue" d="M594.457,-235.444C556.747,-226.102 496.26,-211.119 455.135,-200.933"/>
<polygon fill="midnightblue" stroke="midnightblue" points="455.929,-197.524 445.381,-198.516 454.246,-204.318 455.929,-197.524"/>
</g>
<!-- Node21&#45;&gt;Node9 -->
<g id="edge30" class="edge"><title>Node21&#45;&gt;Node9</title>
<path fill="none" stroke="midnightblue" d="M607.247,-235.383C585.655,-226.684 551.72,-212.625 523,-199 505.757,-190.82 502.574,-186.444 485,-179 447.595,-163.156 403.399,-149.121 371.97,-139.894"/>
<polygon fill="midnightblue" stroke="midnightblue" points="372.818,-136.496 362.238,-137.071 370.867,-143.218 372.818,-136.496"/>
</g>
<!-- Node21&#45;&gt;Node18 -->
<g id="edge40" class="edge"><title>Node21&#45;&gt;Node18</title>
<path fill="none" stroke="midnightblue" d="M689.215,-236.885C782.653,-225.844 960.334,-204.849 1042.42,-195.149"/>
<polygon fill="midnightblue" stroke="midnightblue" points="1042.9,-198.618 1052.42,-193.968 1042.08,-191.666 1042.9,-198.618"/>
</g>
<!-- Node22 -->
<g id="node23" class="node"><title>Node22</title>
<g id="a_node23"><a xlink:href="../../d7/d7f/CredentialFwd_8hpp.html" target="_top" xlink:title="core/credentials/Credential\lFwd.hpp">
<polygon fill="white" stroke="black" points="602.5,-112.5 602.5,-142.5 735.5,-142.5 735.5,-112.5 602.5,-112.5"/>
<text text-anchor="start" x="610.5" y="-130.5" font-family="Helvetica,sans-Serif" font-size="10.00">core/credentials/Credential</text>
<text text-anchor="middle" x="669" y="-119.5" font-family="Helvetica,sans-Serif" font-size="10.00">Fwd.hpp</text>
</a>
</g>
</g>
<!-- Node21&#45;&gt;Node22 -->
<g id="edge31" class="edge"><title>Node21&#45;&gt;Node22</title>
<path fill="none" stroke="midnightblue" d="M644.783,-235.467C657.203,-227.769 673.605,-215.179 681,-199 687.728,-184.28 684.493,-166.27 679.696,-152.139"/>
<polygon fill="midnightblue" stroke="midnightblue" points="682.899,-150.717 676.048,-142.636 676.365,-153.226 682.899,-150.717"/>
</g>
<!-- Node23 -->
<g id="node24" class="node"><title>Node23</title>
<g id="a_node24"><a xlink:href="../../d2/d0e/UpdateFwd_8hpp.html" target="_top" xlink:title="core/update/UpdateFwd.hpp">
<polygon fill="white" stroke="black" points="532,-179.5 532,-198.5 672,-198.5 672,-179.5 532,-179.5"/>
<text text-anchor="middle" x="602" y="-186.5" font-family="Helvetica,sans-Serif" font-size="10.00">core/update/UpdateFwd.hpp</text>
</a>
</g>
</g>
<!-- Node21&#45;&gt;Node23 -->
<g id="edge34" class="edge"><title>Node21&#45;&gt;Node23</title>
<path fill="none" stroke="midnightblue" d="M624.541,-235.083C620.846,-227.691 615.477,-216.953 610.906,-207.811"/>
<polygon fill="midnightblue" stroke="midnightblue" points="613.978,-206.13 606.376,-198.751 607.717,-209.261 613.978,-206.13"/>
</g>
<!-- Node24 -->
<g id="node25" class="node"><title>Node24</title>
<g id="a_node25"><a xlink:href="../../d8/d97/ToolsFwd_8hpp.html" target="_top" xlink:title="tools/ToolsFwd.hpp">
<polygon fill="white" stroke="black" points="792,-118 792,-137 894,-137 894,-118 792,-118"/>
<text text-anchor="middle" x="843" y="-125" font-family="Helvetica,sans-Serif" font-size="10.00">tools/ToolsFwd.hpp</text>
</a>
</g>
</g>
<!-- Node21&#45;&gt;Node24 -->
<g id="edge37" class="edge"><title>Node21&#45;&gt;Node24</title>
<path fill="none" stroke="midnightblue" d="M645.085,-235.319C682.123,-215.328 773.65,-165.929 818.049,-141.967"/>
<polygon fill="midnightblue" stroke="midnightblue" points="819.883,-144.954 827.02,-137.124 816.558,-138.794 819.883,-144.954"/>
</g>
<!-- Node22&#45;&gt;Node6 -->
<g id="edge32" class="edge"><title>Node22&#45;&gt;Node6</title>
<path fill="none" stroke="midnightblue" d="M691.514,-112.399C706.599,-102.951 726.385,-90.5589 741.473,-81.1089"/>
<polygon fill="midnightblue" stroke="midnightblue" points="743.559,-83.9321 750.177,-75.6578 739.844,-77.9996 743.559,-83.9321"/>
</g>
<!-- Node22&#45;&gt;Node7 -->
<g id="edge33" class="edge"><title>Node22&#45;&gt;Node7</title>
<path fill="none" stroke="midnightblue" d="M640.562,-112.399C620.877,-102.639 594.857,-89.7373 575.587,-80.1826"/>
<polygon fill="midnightblue" stroke="midnightblue" points="576.975,-76.9644 566.461,-75.6578 573.865,-83.2358 576.975,-76.9644"/>
</g>
<!-- Node23&#45;&gt;Node6 -->
<g id="edge35" class="edge"><title>Node23&#45;&gt;Node6</title>
<path fill="none" stroke="midnightblue" d="M672.027,-180.121C697.769,-173.881 725.192,-162.764 744,-143 758.52,-127.742 762.801,-103.249 763.911,-86.2078"/>
<polygon fill="midnightblue" stroke="midnightblue" points="767.423,-85.9172 764.261,-75.8053 760.427,-85.6822 767.423,-85.9172"/>
</g>
<!-- Node23&#45;&gt;Node7 -->
<g id="edge36" class="edge"><title>Node23&#45;&gt;Node7</title>
<path fill="none" stroke="midnightblue" d="M598.188,-179.298C589.555,-159.589 568.365,-111.211 556.815,-84.842"/>
<polygon fill="midnightblue" stroke="midnightblue" points="559.995,-83.3787 552.777,-75.6232 553.583,-86.1873 559.995,-83.3787"/>
</g>
<!-- Node24&#45;&gt;Node6 -->
<g id="edge38" class="edge"><title>Node24&#45;&gt;Node6</title>
<path fill="none" stroke="midnightblue" d="M831.681,-117.975C819.127,-108.52 798.649,-93.0961 783.501,-81.6871"/>
<polygon fill="midnightblue" stroke="midnightblue" points="785.391,-78.7295 775.298,-75.5091 781.18,-84.321 785.391,-78.7295"/>
</g>
<!-- Node24&#45;&gt;Node7 -->
<g id="edge39" class="edge"><title>Node24&#45;&gt;Node7</title>
<path fill="none" stroke="midnightblue" d="M800.877,-117.975C748.153,-107.305 657.872,-89.0335 600.926,-77.5089"/>
<polygon fill="midnightblue" stroke="midnightblue" points="601.54,-74.0623 591.045,-75.5091 600.152,-80.9232 601.54,-74.0623"/>
</g>
<!-- Node29&#45;&gt;Node8 -->
<g id="edge48" class="edge"><title>Node29&#45;&gt;Node8</title>
<path fill="none" stroke="midnightblue" d="M488.219,-235.324C473.733,-226.822 451.427,-213.729 434.507,-203.797"/>
<polygon fill="midnightblue" stroke="midnightblue" points="436.141,-200.698 425.745,-198.655 432.597,-206.735 436.141,-200.698"/>
</g>
<!-- Node29&#45;&gt;Node23 -->
<g id="edge49" class="edge"><title>Node29&#45;&gt;Node23</title>
<path fill="none" stroke="midnightblue" d="M518.906,-235.324C534.638,-226.743 558.942,-213.486 577.209,-203.522"/>
<polygon fill="midnightblue" stroke="midnightblue" points="579.03,-206.516 586.133,-198.655 575.678,-200.37 579.03,-206.516"/>
</g>
<!-- Node31&#45;&gt;Node6 -->
<g id="edge59" class="edge"><title>Node31&#45;&gt;Node6</title>
<path fill="none" stroke="midnightblue" d="M1324,-408.807C1324,-389.562 1324,-341.904 1324,-302 1324,-302 1324,-302 1324,-188 1324,-80.4781 924.594,-68.2661 800.4,-67.0679"/>
<polygon fill="midnightblue" stroke="midnightblue" points="800.286,-63.567 790.259,-66.9891 800.231,-70.5668 800.286,-63.567"/>
</g>
<!-- Node31&#45;&gt;Node32 -->
<g id="edge52" class="edge"><title>Node31&#45;&gt;Node32</title>
<path fill="none" stroke="midnightblue" d="M1341.77,-408.975C1362.48,-399.034 1396.95,-382.495 1420.99,-370.961"/>
<polygon fill="midnightblue" stroke="midnightblue" points="1422.77,-373.991 1430.27,-366.509 1419.74,-367.68 1422.77,-373.991"/>
</g>
<!-- Node32&#45;&gt;Node13 -->
<g id="edge53" class="edge"><title>Node32&#45;&gt;Node13</title>
<path fill="none" stroke="midnightblue" d="M1444.49,-347.325C1437.4,-328.959 1422,-284.658 1422,-246 1422,-246 1422,-246 1422,-188 1422,-137.654 1382.82,-134.926 1338,-112 1280.7,-82.6923 1205.26,-72.4543 1161.85,-68.8903"/>
<polygon fill="midnightblue" stroke="midnightblue" points="1162.02,-65.3937 1151.79,-68.1378 1161.5,-72.3742 1162.02,-65.3937"/>
</g>
<!-- Node33 -->
<g id="node34" class="node"><title>Node33</title>
<polygon fill="white" stroke="#bfbfbf" points="1450.5,-291.5 1450.5,-310.5 1497.5,-310.5 1497.5,-291.5 1450.5,-291.5"/>
<text text-anchor="middle" x="1474" y="-298.5" font-family="Helvetica,sans-Serif" font-size="10.00">csignal</text>
</g>
<!-- Node32&#45;&gt;Node33 -->
<g id="edge54" class="edge"><title>Node32&#45;&gt;Node33</title>
<path fill="none" stroke="midnightblue" d="M1452.29,-347.083C1455.85,-339.691 1461.02,-328.953 1465.42,-319.811"/>
<polygon fill="midnightblue" stroke="midnightblue" points="1468.6,-321.279 1469.79,-310.751 1462.29,-318.243 1468.6,-321.279"/>
</g>
<!-- Node34 -->
<g id="node35" class="node"><title>Node34</title>
<polygon fill="white" stroke="#bfbfbf" points="1516,-291.5 1516,-310.5 1570,-310.5 1570,-291.5 1516,-291.5"/>
<text text-anchor="middle" x="1543" y="-298.5" font-family="Helvetica,sans-Serif" font-size="10.00">iostream</text>
</g>
<!-- Node32&#45;&gt;Node34 -->
<g id="edge55" class="edge"><title>Node32&#45;&gt;Node34</title>
<path fill="none" stroke="midnightblue" d="M1463.26,-347.324C1478.22,-338.822 1501.25,-325.729 1518.73,-315.797"/>
<polygon fill="midnightblue" stroke="midnightblue" points="1520.81,-318.639 1527.77,-310.655 1517.35,-312.553 1520.81,-318.639"/>
</g>
<!-- Node35 -->
<g id="node36" class="node"><title>Node35</title>
<polygon fill="white" stroke="#bfbfbf" points="1588.5,-291.5 1588.5,-310.5 1673.5,-310.5 1673.5,-291.5 1588.5,-291.5"/>
<text text-anchor="middle" x="1631" y="-298.5" font-family="Helvetica,sans-Serif" font-size="10.00">spdlog/spdlog.h</text>
</g>
<!-- Node32&#45;&gt;Node35 -->
<g id="edge56" class="edge"><title>Node32&#45;&gt;Node35</title>
<path fill="none" stroke="midnightblue" d="M1477,-347.444C1508.18,-338.241 1557.93,-323.562 1592.41,-313.388"/>
<polygon fill="midnightblue" stroke="midnightblue" points="1593.54,-316.704 1602.14,-310.516 1591.56,-309.99 1593.54,-316.704"/>
</g>
<!-- Node36 -->
<g id="node37" class="node"><title>Node36</title>
<polygon fill="white" stroke="#bfbfbf" points="1692,-291.5 1692,-310.5 1744,-310.5 1744,-291.5 1692,-291.5"/>
<text text-anchor="middle" x="1718" y="-298.5" font-family="Helvetica,sans-Serif" font-size="10.00">sstream</text>
</g>
<!-- Node32&#45;&gt;Node36 -->
<g id="edge57" class="edge"><title>Node32&#45;&gt;Node36</title>
<path fill="none" stroke="midnightblue" d="M1484.38,-349.762C1528.7,-342.002 1606.06,-327.944 1681.52,-311.226"/>
<polygon fill="midnightblue" stroke="midnightblue" points="1682.67,-314.555 1691.67,-308.959 1681.15,-307.723 1682.67,-314.555"/>
</g>
<!-- Node37 -->
<g id="node38" class="node"><title>Node37</title>
<polygon fill="white" stroke="#bfbfbf" points="1352.5,-291.5 1352.5,-310.5 1393.5,-310.5 1393.5,-291.5 1352.5,-291.5"/>
<text text-anchor="middle" x="1373" y="-298.5" font-family="Helvetica,sans-Serif" font-size="10.00">string</text>
</g>
<!-- Node32&#45;&gt;Node37 -->
<g id="edge58" class="edge"><title>Node32&#45;&gt;Node37</title>
<path fill="none" stroke="midnightblue" d="M1435.95,-347.324C1424.54,-339.107 1407.17,-326.602 1393.57,-316.807"/>
<polygon fill="midnightblue" stroke="midnightblue" points="1395.43,-313.837 1385.27,-310.834 1391.34,-319.517 1395.43,-313.837"/>
</g>
<!-- Node38&#45;&gt;Node17 -->
<g id="edge61" class="edge"><title>Node38&#45;&gt;Node17</title>
<path fill="none" stroke="midnightblue" d="M1174.13,-347.444C1132.52,-338.043 1065.63,-322.929 1020.53,-312.739"/>
<polygon fill="midnightblue" stroke="midnightblue" points="1021.22,-309.306 1010.69,-310.516 1019.68,-316.134 1021.22,-309.306"/>
</g>
<!-- Node38&#45;&gt;Node18 -->
<g id="edge62" class="edge"><title>Node38&#45;&gt;Node18</title>
<path fill="none" stroke="midnightblue" d="M1221.81,-347.334C1244.36,-326.365 1295.85,-271.903 1267,-235 1250.28,-213.611 1177.8,-200.935 1129.78,-194.734"/>
<polygon fill="midnightblue" stroke="midnightblue" points="1130,-191.234 1119.64,-193.473 1129.13,-198.18 1130,-191.234"/>
</g>
<!-- Node38&#45;&gt;Node20 -->
<g id="edge63" class="edge"><title>Node38&#45;&gt;Node20</title>
<path fill="none" stroke="midnightblue" d="M1211.61,-347.368C1210.8,-329.617 1208.94,-288.666 1207.85,-264.597"/>
<polygon fill="midnightblue" stroke="midnightblue" points="1211.34,-264.422 1207.39,-254.591 1204.35,-264.74 1211.34,-264.422"/>
</g>
</g>
</svg>
        <g id="navigator" transform="translate(0 0)" fill="#404254">
                <rect fill="#f2f5e9" fill-opacity="0.5" stroke="#606060" stroke-width=".5" x="0" y="0" width="60" height="60"/>
                <use id="zoomplus" xlink:href="#zoomPlus" x="17" y="9" onmousedown="handleZoom(evt,'in')"/>
                <use id="zoomminus" xlink:href="#zoomMin" x="42" y="9" onmousedown="handleZoom(evt,'out')"/>
                <use id="reset" xlink:href="#resetDef" x="30" y="36" onmousedown="handleReset()"/>
                <g id="arrowUp" xlink:href="#dirArrow" transform="translate(30 24)" onmousedown="handlePan(0,-1)">
                  <use xlink:href="#rim" fill="#404040">
                        <set attributeName="fill" to="#808080" begin="arrowUp.mouseover" end="arrowUp.mouseout"/>
                  </use>
                  <path fill="none" stroke="white" stroke-width="1.5" d="M0,-3.0v7 M-2.5,-0.5L0,-3.0L2.5,-0.5"/>
                </g>
                <g id="arrowRight" xlink:href="#dirArrow" transform="rotate(90) translate(36 -43)" onmousedown="handlePan(1,0)">
                  <use xlink:href="#rim" fill="#404040">
                        <set attributeName="fill" to="#808080" begin="arrowRight.mouseover" end="arrowRight.mouseout"/>
                  </use>
                  <path fill="none" stroke="white" stroke-width="1.5" d="M0,-3.0v7 M-2.5,-0.5L0,-3.0L2.5,-0.5"/>
                </g>
                <g id="arrowDown" xlink:href="#dirArrow" transform="rotate(180) translate(-30 -48)" onmousedown="handlePan(0,1)">
                  <use xlink:href="#rim" fill="#404040">
                        <set attributeName="fill" to="#808080" begin="arrowDown.mouseover" end="arrowDown.mouseout"/>
                  </use>
                  <path fill="none" stroke="white" stroke-width="1.5" d="M0,-3.0v7 M-2.5,-0.5L0,-3.0L2.5,-0.5"/>
                </g>
                <g id="arrowLeft" xlink:href="#dirArrow" transform="rotate(270) translate(-36 17)" onmousedown="handlePan(-1,0)">
                  <use xlink:href="#rim" fill="#404040">
                        <set attributeName="fill" to="#808080" begin="arrowLeft.mouseover" end="arrowLeft.mouseout"/>
                  </use>
                  <path fill="none" stroke="white" stroke-width="1.5" d="M0,-3.0v7 M-2.5,-0.5L0,-3.0L2.5,-0.5"/>
                </g>
        </g>
        <svg viewBox="0 0 15 15" width="100%" height="30px" preserveAspectRatio="xMaxYMin meet">
         <g id="arrow_out" transform="scale(0.3 0.3)">
          <a xlink:href="UpdateEvent_8cpp__incl_org.svg" target="_base">
           <rect id="button" ry="5" rx="5" y="6" x="6" height="38" width="38"
                fill="#f2f5e9" fill-opacity="0.5" stroke="#606060" stroke-width="1.0"/>
           <path id="arrow"
             d="M 11.500037,31.436501 C 11.940474,20.09759 22.043105,11.32322 32.158766,21.979434 L 37.068811,17.246167 C 37.068811,17.246167 37.088388,32 37.088388,32 L 22.160133,31.978069 C 22.160133,31.978069 26.997745,27.140456 26.997745,27.140456 C 18.528582,18.264221 13.291696,25.230495 11.500037,31.436501 z"
             style="fill:#404040;"/>
          </a>
         </g>
        </svg>
</svg>
