<?xml version="1.0" encoding="UTF-8" standalone="no"?>
<!DOCTYPE svg PUBLIC "-//W3C//DTD SVG 1.1//EN"
 "http://www.w3.org/Graphics/SVG/1.1/DTD/svg11.dtd">
<!-- Generated by graphviz version 2.38.0 (20140413.2041)
 -->
<!-- Title: src/modules/websock&#45;api/Service.hpp Pages: 1 -->
<svg width="2515pt" height="240pt"
 viewBox="0.00 0.00 2514.50 240.00" xmlns="http://www.w3.org/2000/svg" xmlns:xlink="http://www.w3.org/1999/xlink">
<g id="graph0" class="graph" transform="scale(1 1) rotate(0) translate(4 236)">
<title>src/modules/websock&#45;api/Service.hpp</title>
<polygon fill="white" stroke="none" points="-4,4 -4,-236 2510.5,-236 2510.5,4 -4,4"/>
<!-- Node52 -->
<g id="node1" class="node"><title>Node52</title>
<polygon fill="#bfbfbf" stroke="black" points="710.5,-201.5 710.5,-231.5 822.5,-231.5 822.5,-201.5 710.5,-201.5"/>
<text text-anchor="start" x="718.5" y="-219.5" font-family="Helvetica,sans-Serif" font-size="10.00">src/modules/websock</text>
<text text-anchor="middle" x="766.5" y="-208.5" font-family="Helvetica,sans-Serif" font-size="10.00">&#45;api/Service.hpp</text>
</g>
<!-- Node53 -->
<g id="node2" class="node"><title>Node53</title>
<g id="a_node2"><a xlink:href="../../dd/d4b/led-buzzer_2ws_2WSHelperThread_8cpp.html" target="_top" xlink:title="src/modules/led&#45;buzzer\l/ws/WSHelperThread.cpp">
<polygon fill="white" stroke="black" points="0,-0.5 0,-30.5 129,-30.5 129,-0.5 0,-0.5"/>
<text text-anchor="start" x="8" y="-18.5" font-family="Helvetica,sans-Serif" font-size="10.00">src/modules/led&#45;buzzer</text>
<text text-anchor="middle" x="64.5" y="-7.5" font-family="Helvetica,sans-Serif" font-size="10.00">/ws/WSHelperThread.cpp</text>
</a>
</g>
</g>
<!-- Node52&#45;&gt;Node53 -->
<g id="edge1" class="edge"><title>Node52&#45;&gt;Node53</title>
<path fill="none" stroke="midnightblue" d="M699.973,-209.177C557.547,-194.684 228.364,-155.807 133.5,-98 105.795,-81.1174 83.7242,-49.2315 72.5311,-30.7439"/>
<polygon fill="midnightblue" stroke="midnightblue" points="700.008,-212.698 710.308,-210.219 700.71,-205.733 700.008,-212.698"/>
</g>
<!-- Node54 -->
<g id="node3" class="node"><title>Node54</title>
<g id="a_node3"><a xlink:href="../../d6/d95/PFDigitalModule_8cpp.html" target="_top" xlink:title="src/modules/pifacedigital\l/PFDigitalModule.cpp">
<polygon fill="white" stroke="black" points="286,-0.5 286,-30.5 411,-30.5 411,-0.5 286,-0.5"/>
<text text-anchor="start" x="294" y="-18.5" font-family="Helvetica,sans-Serif" font-size="10.00">src/modules/pifacedigital</text>
<text text-anchor="middle" x="348.5" y="-7.5" font-family="Helvetica,sans-Serif" font-size="10.00">/PFDigitalModule.cpp</text>
</a>
</g>
</g>
<!-- Node52&#45;&gt;Node54 -->
<g id="edge2" class="edge"><title>Node52&#45;&gt;Node54</title>
<path fill="none" stroke="midnightblue" d="M700.303,-215.108C637.771,-212.296 542.884,-201.58 469.5,-165 410.271,-135.476 370.009,-62.1196 355.016,-30.9166"/>
<polygon fill="midnightblue" stroke="midnightblue" points="700.307,-218.61 710.437,-215.507 700.582,-211.616 700.307,-218.61"/>
</g>
<!-- Node55 -->
<g id="node4" class="node"><title>Node55</title>
<g id="a_node4"><a xlink:href="../../da/d6f/SMTPModule_8cpp.html" target="_top" xlink:title="src/modules/smtp/SMTPModule.cpp">
<polygon fill="white" stroke="black" points="736.5,-140 736.5,-159 912.5,-159 912.5,-140 736.5,-140"/>
<text text-anchor="middle" x="824.5" y="-147" font-family="Helvetica,sans-Serif" font-size="10.00">src/modules/smtp/SMTPModule.cpp</text>
</a>
</g>
</g>
<!-- Node52&#45;&gt;Node55 -->
<g id="edge3" class="edge"><title>Node52&#45;&gt;Node55</title>
<path fill="none" stroke="midnightblue" d="M785.991,-193.657C796.513,-181.865 808.914,-167.967 816.742,-159.195"/>
<polygon fill="midnightblue" stroke="midnightblue" points="783.132,-191.604 779.085,-201.396 788.355,-196.265 783.132,-191.604"/>
</g>
<!-- Node56 -->
<g id="node5" class="node"><title>Node56</title>
<g id="a_node5"><a xlink:href="../../d5/dde/WSServer_8hpp.html" target="_top" xlink:title="src/modules/websock\l&#45;api/WSServer.hpp">
<polygon fill="white" stroke="black" points="1612.5,-134.5 1612.5,-164.5 1724.5,-164.5 1724.5,-134.5 1612.5,-134.5"/>
<text text-anchor="start" x="1620.5" y="-152.5" font-family="Helvetica,sans-Serif" font-size="10.00">src/modules/websock</text>
<text text-anchor="middle" x="1668.5" y="-141.5" font-family="Helvetica,sans-Serif" font-size="10.00">&#45;api/WSServer.hpp</text>
</a>
</g>
</g>
<!-- Node52&#45;&gt;Node56 -->
<g id="edge4" class="edge"><title>Node52&#45;&gt;Node56</title>
<path fill="none" stroke="midnightblue" d="M832.659,-210.732C1002.87,-198.466 1453.7,-165.979 1612.33,-154.548"/>
<polygon fill="midnightblue" stroke="midnightblue" points="832.306,-207.249 822.583,-211.459 832.809,-214.231 832.306,-207.249"/>
</g>
<!-- Node68 -->
<g id="node17" class="node"><title>Node68</title>
<g id="a_node17"><a xlink:href="../../d4/d2c/WSServer_8cpp.html" target="_top" xlink:title="src/modules/websock\l&#45;api/WSServer.cpp">
<polygon fill="white" stroke="black" points="922.5,-0.5 922.5,-30.5 1034.5,-30.5 1034.5,-0.5 922.5,-0.5"/>
<text text-anchor="start" x="930.5" y="-18.5" font-family="Helvetica,sans-Serif" font-size="10.00">src/modules/websock</text>
<text text-anchor="middle" x="978.5" y="-7.5" font-family="Helvetica,sans-Serif" font-size="10.00">&#45;api/WSServer.cpp</text>
</a>
</g>
</g>
<!-- Node52&#45;&gt;Node68 -->
<g id="edge31" class="edge"><title>Node52&#45;&gt;Node68</title>
<path fill="none" stroke="midnightblue" d="M832.888,-207.136C863.17,-200.268 897.532,-187.764 921.5,-165 960.946,-127.536 973.436,-59.7929 977.098,-30.5576"/>
<polygon fill="midnightblue" stroke="midnightblue" points="831.863,-203.775 822.796,-209.256 833.302,-210.625 831.863,-203.775"/>
</g>
<!-- Node69 -->
<g id="node18" class="node"><title>Node69</title>
<g id="a_node18"><a xlink:href="../../d2/dc4/Service_8cpp.html" target="_top" xlink:title="src/modules/websock\l&#45;api/Service.cpp">
<polygon fill="white" stroke="black" points="2394.5,-67.5 2394.5,-97.5 2506.5,-97.5 2506.5,-67.5 2394.5,-67.5"/>
<text text-anchor="start" x="2402.5" y="-85.5" font-family="Helvetica,sans-Serif" font-size="10.00">src/modules/websock</text>
<text text-anchor="middle" x="2450.5" y="-74.5" font-family="Helvetica,sans-Serif" font-size="10.00">&#45;api/Service.cpp</text>
</a>
</g>
</g>
<!-- Node52&#45;&gt;Node69 -->
<g id="edge20" class="edge"><title>Node52&#45;&gt;Node69</title>
<path fill="none" stroke="midnightblue" d="M832.59,-213.869C1052.16,-207.766 1776.97,-182.133 2369.5,-98 2377.56,-96.8552 2386.05,-95.5014 2394.37,-94.0884"/>
<polygon fill="midnightblue" stroke="midnightblue" points="832.419,-210.372 822.518,-214.145 832.61,-217.37 832.419,-210.372"/>
</g>
<!-- Node70 -->
<g id="node19" class="node"><title>Node70</title>
<g id="a_node19"><a xlink:href="../../da/df4/websock-api_2WSHelperThread_8hpp.html" target="_top" xlink:title="src/modules/websock\l&#45;api/WSHelperThread.hpp">
<polygon fill="white" stroke="black" points="479,-134.5 479,-164.5 608,-164.5 608,-134.5 479,-134.5"/>
<text text-anchor="start" x="487" y="-152.5" font-family="Helvetica,sans-Serif" font-size="10.00">src/modules/websock</text>
<text text-anchor="middle" x="543.5" y="-141.5" font-family="Helvetica,sans-Serif" font-size="10.00">&#45;api/WSHelperThread.hpp</text>
</a>
</g>
</g>
<!-- Node52&#45;&gt;Node70 -->
<g id="edge21" class="edge"><title>Node52&#45;&gt;Node70</title>
<path fill="none" stroke="midnightblue" d="M708.451,-198.58C672.231,-188.022 626.155,-174.592 591.911,-164.611"/>
<polygon fill="midnightblue" stroke="midnightblue" points="707.807,-202.038 718.387,-201.476 709.766,-195.317 707.807,-202.038"/>
</g>
<!-- Node77 -->
<g id="node26" class="node"><title>Node77</title>
<g id="a_node26"><a xlink:href="../../d8/d9e/wiegand_2ws_2WSHelperThread_8cpp.html" target="_top" xlink:title="src/modules/wiegand\l/ws/WSHelperThread.cpp">
<polygon fill="white" stroke="black" points="699,-0.5 699,-30.5 828,-30.5 828,-0.5 699,-0.5"/>
<text text-anchor="start" x="707" y="-18.5" font-family="Helvetica,sans-Serif" font-size="10.00">src/modules/wiegand</text>
<text text-anchor="middle" x="763.5" y="-7.5" font-family="Helvetica,sans-Serif" font-size="10.00">/ws/WSHelperThread.cpp</text>
</a>
</g>
</g>
<!-- Node52&#45;&gt;Node77 -->
<g id="edge32" class="edge"><title>Node52&#45;&gt;Node77</title>
<path fill="none" stroke="midnightblue" d="M744.482,-193.527C737.676,-185.283 731.041,-175.379 727.5,-165 711.053,-116.795 739.526,-57.3661 754.791,-30.6646"/>
<polygon fill="midnightblue" stroke="midnightblue" points="741.994,-195.996 751.237,-201.174 747.24,-191.362 741.994,-195.996"/>
</g>
<!-- Node57 -->
<g id="node6" class="node"><title>Node57</title>
<g id="a_node6"><a xlink:href="../../d7/d29/AccessPointCRUD_8cpp.html" target="_top" xlink:title="src/modules/websock\l&#45;api/api/AccessPointCRUD.cpp">
<polygon fill="white" stroke="black" points="1007,-67.5 1007,-97.5 1162,-97.5 1162,-67.5 1007,-67.5"/>
<text text-anchor="start" x="1015" y="-85.5" font-family="Helvetica,sans-Serif" font-size="10.00">src/modules/websock</text>
<text text-anchor="middle" x="1084.5" y="-74.5" font-family="Helvetica,sans-Serif" font-size="10.00">&#45;api/api/AccessPointCRUD.cpp</text>
</a>
</g>
</g>
<!-- Node56&#45;&gt;Node57 -->
<g id="edge5" class="edge"><title>Node56&#45;&gt;Node57</title>
<path fill="none" stroke="midnightblue" d="M1602.39,-143.135C1507.01,-135.089 1325.35,-118.616 1171.5,-98 1168.46,-97.5933 1165.37,-97.1616 1162.25,-96.7113"/>
<polygon fill="midnightblue" stroke="midnightblue" points="1602.2,-146.632 1612.46,-143.981 1602.79,-139.657 1602.2,-146.632"/>
</g>
<!-- Node58 -->
<g id="node7" class="node"><title>Node58</title>
<g id="a_node7"><a xlink:href="../../d7/d86/APIAuth_8cpp.html" target="_top" xlink:title="src/modules/websock\l&#45;api/api/APIAuth.cpp">
<polygon fill="white" stroke="black" points="1180.5,-67.5 1180.5,-97.5 1292.5,-97.5 1292.5,-67.5 1180.5,-67.5"/>
<text text-anchor="start" x="1188.5" y="-85.5" font-family="Helvetica,sans-Serif" font-size="10.00">src/modules/websock</text>
<text text-anchor="middle" x="1236.5" y="-74.5" font-family="Helvetica,sans-Serif" font-size="10.00">&#45;api/api/APIAuth.cpp</text>
</a>
</g>
</g>
<!-- Node56&#45;&gt;Node58 -->
<g id="edge6" class="edge"><title>Node56&#45;&gt;Node58</title>
<path fill="none" stroke="midnightblue" d="M1602.25,-141.057C1528.55,-132.389 1406.09,-116.828 1301.5,-98 1298.66,-97.4879 1295.75,-96.9375 1292.81,-96.3612"/>
<polygon fill="midnightblue" stroke="midnightblue" points="1601.98,-144.549 1612.31,-142.234 1602.79,-137.596 1601.98,-144.549"/>
</g>
<!-- Node59 -->
<g id="node8" class="node"><title>Node59</title>
<g id="a_node8"><a xlink:href="../../d9/d8d/APISession_8cpp.html" target="_top" xlink:title="src/modules/websock\l&#45;api/api/APISession.cpp">
<polygon fill="white" stroke="black" points="1310.5,-67.5 1310.5,-97.5 1432.5,-97.5 1432.5,-67.5 1310.5,-67.5"/>
<text text-anchor="start" x="1318.5" y="-85.5" font-family="Helvetica,sans-Serif" font-size="10.00">src/modules/websock</text>
<text text-anchor="middle" x="1371.5" y="-74.5" font-family="Helvetica,sans-Serif" font-size="10.00">&#45;api/api/APISession.cpp</text>
</a>
</g>
</g>
<!-- Node56&#45;&gt;Node59 -->
<g id="edge7" class="edge"><title>Node56&#45;&gt;Node59</title>
<path fill="none" stroke="midnightblue" d="M1602.4,-134.033C1551.63,-122.923 1482.07,-107.699 1432.6,-96.8715"/>
<polygon fill="midnightblue" stroke="midnightblue" points="1601.77,-137.479 1612.29,-136.198 1603.27,-130.64 1601.77,-137.479"/>
</g>
<!-- Node60 -->
<g id="node9" class="node"><title>Node60</title>
<g id="a_node9"><a xlink:href="../../da/d62/AuditGet_8cpp.html" target="_top" xlink:title="src/modules/websock\l&#45;api/api/AuditGet.cpp">
<polygon fill="white" stroke="black" points="1450.5,-67.5 1450.5,-97.5 1562.5,-97.5 1562.5,-67.5 1450.5,-67.5"/>
<text text-anchor="start" x="1458.5" y="-85.5" font-family="Helvetica,sans-Serif" font-size="10.00">src/modules/websock</text>
<text text-anchor="middle" x="1506.5" y="-74.5" font-family="Helvetica,sans-Serif" font-size="10.00">&#45;api/api/AuditGet.cpp</text>
</a>
</g>
</g>
<!-- Node56&#45;&gt;Node60 -->
<g id="edge8" class="edge"><title>Node56&#45;&gt;Node60</title>
<path fill="none" stroke="midnightblue" d="M1623.75,-130.544C1597.83,-120.143 1565.66,-107.238 1541.58,-97.5765"/>
<polygon fill="midnightblue" stroke="midnightblue" points="1622.76,-133.92 1633.35,-134.396 1625.37,-127.424 1622.76,-133.92"/>
</g>
<!-- Node61 -->
<g id="node10" class="node"><title>Node61</title>
<g id="a_node10"><a xlink:href="../../d5/dcb/CRUDResourceHandler_8cpp.html" target="_top" xlink:title="src/modules/websock\l&#45;api/api/CRUDResourceHandler.cpp">
<polygon fill="white" stroke="black" points="1580.5,-67.5 1580.5,-97.5 1756.5,-97.5 1756.5,-67.5 1580.5,-67.5"/>
<text text-anchor="start" x="1588.5" y="-85.5" font-family="Helvetica,sans-Serif" font-size="10.00">src/modules/websock</text>
<text text-anchor="middle" x="1668.5" y="-74.5" font-family="Helvetica,sans-Serif" font-size="10.00">&#45;api/api/CRUDResourceHandler.cpp</text>
</a>
</g>
</g>
<!-- Node56&#45;&gt;Node61 -->
<g id="edge9" class="edge"><title>Node56&#45;&gt;Node61</title>
<path fill="none" stroke="midnightblue" d="M1668.5,-124.108C1668.5,-115.154 1668.5,-105.323 1668.5,-97.5765"/>
<polygon fill="midnightblue" stroke="midnightblue" points="1665,-124.396 1668.5,-134.396 1672,-124.396 1665,-124.396"/>
</g>
<!-- Node62 -->
<g id="node11" class="node"><title>Node62</title>
<g id="a_node11"><a xlink:href="../../d9/d7c/MethodHandler_8cpp.html" target="_top" xlink:title="src/modules/websock\l&#45;api/api/MethodHandler.cpp">
<polygon fill="white" stroke="black" points="1774.5,-67.5 1774.5,-97.5 1910.5,-97.5 1910.5,-67.5 1774.5,-67.5"/>
<text text-anchor="start" x="1782.5" y="-85.5" font-family="Helvetica,sans-Serif" font-size="10.00">src/modules/websock</text>
<text text-anchor="middle" x="1842.5" y="-74.5" font-family="Helvetica,sans-Serif" font-size="10.00">&#45;api/api/MethodHandler.cpp</text>
</a>
</g>
</g>
<!-- Node56&#45;&gt;Node62 -->
<g id="edge10" class="edge"><title>Node56&#45;&gt;Node62</title>
<path fill="none" stroke="midnightblue" d="M1715.83,-130.819C1743.8,-120.371 1778.73,-107.323 1804.82,-97.5765"/>
<polygon fill="midnightblue" stroke="midnightblue" points="1714.4,-127.618 1706.26,-134.396 1716.85,-134.175 1714.4,-127.618"/>
</g>
<!-- Node63 -->
<g id="node12" class="node"><title>Node63</title>
<g id="a_node12"><a xlink:href="../../d7/da0/PasswordChange_8cpp.html" target="_top" xlink:title="src/modules/websock\l&#45;api/api/PasswordChange.cpp">
<polygon fill="white" stroke="black" points="1929,-67.5 1929,-97.5 2076,-97.5 2076,-67.5 1929,-67.5"/>
<text text-anchor="start" x="1937" y="-85.5" font-family="Helvetica,sans-Serif" font-size="10.00">src/modules/websock</text>
<text text-anchor="middle" x="2002.5" y="-74.5" font-family="Helvetica,sans-Serif" font-size="10.00">&#45;api/api/PasswordChange.cpp</text>
</a>
</g>
</g>
<!-- Node56&#45;&gt;Node63 -->
<g id="edge11" class="edge"><title>Node56&#45;&gt;Node63</title>
<path fill="none" stroke="midnightblue" d="M1734.69,-135.619C1791.22,-124.617 1872.39,-108.822 1930.52,-97.5074"/>
<polygon fill="midnightblue" stroke="midnightblue" points="1733.93,-132.201 1724.78,-137.547 1735.27,-139.072 1733.93,-132.201"/>
</g>
<!-- Node64 -->
<g id="node13" class="node"><title>Node64</title>
<g id="a_node13"><a xlink:href="../../d1/d43/Restart_8cpp.html" target="_top" xlink:title="src/modules/websock\l&#45;api/api/Restart.cpp">
<polygon fill="white" stroke="black" points="2094.5,-67.5 2094.5,-97.5 2206.5,-97.5 2206.5,-67.5 2094.5,-67.5"/>
<text text-anchor="start" x="2102.5" y="-85.5" font-family="Helvetica,sans-Serif" font-size="10.00">src/modules/websock</text>
<text text-anchor="middle" x="2150.5" y="-74.5" font-family="Helvetica,sans-Serif" font-size="10.00">&#45;api/api/Restart.cpp</text>
</a>
</g>
</g>
<!-- Node56&#45;&gt;Node64 -->
<g id="edge12" class="edge"><title>Node56&#45;&gt;Node64</title>
<path fill="none" stroke="midnightblue" d="M1734.56,-142.446C1816.85,-134.454 1961.6,-118.91 2084.5,-98 2087.74,-97.449 2091.06,-96.8451 2094.4,-96.2064"/>
<polygon fill="midnightblue" stroke="midnightblue" points="1734.21,-138.963 1724.59,-143.407 1734.88,-145.931 1734.21,-138.963"/>
</g>
<!-- Node65 -->
<g id="node14" class="node"><title>Node65</title>
<g id="a_node14"><a xlink:href="../../d9/d90/WebSockAPI_8hpp.html" target="_top" xlink:title="src/modules/websock\l&#45;api/WebSockAPI.hpp">
<polygon fill="white" stroke="black" points="2225,-67.5 2225,-97.5 2338,-97.5 2338,-67.5 2225,-67.5"/>
<text text-anchor="start" x="2233" y="-85.5" font-family="Helvetica,sans-Serif" font-size="10.00">src/modules/websock</text>
<text text-anchor="middle" x="2281.5" y="-74.5" font-family="Helvetica,sans-Serif" font-size="10.00">&#45;api/WebSockAPI.hpp</text>
</a>
</g>
</g>
<!-- Node56&#45;&gt;Node65 -->
<g id="edge13" class="edge"><title>Node56&#45;&gt;Node65</title>
<path fill="none" stroke="midnightblue" d="M1734.97,-145.033C1838.25,-139.046 2043.3,-124.758 2215.5,-98 2218.51,-97.5316 2221.6,-97.0088 2224.7,-96.4475"/>
<polygon fill="midnightblue" stroke="midnightblue" points="1734.48,-141.555 1724.69,-145.621 1734.87,-148.544 1734.48,-141.555"/>
</g>
<!-- Node67 -->
<g id="node16" class="node"><title>Node67</title>
<g id="a_node16"><a xlink:href="../../d9/d6b/WebSockAPI_8cpp.html" target="_top" xlink:title="src/modules/websock\l&#45;api/WebSockAPI.cpp">
<polygon fill="white" stroke="black" points="2310,-0.5 2310,-30.5 2423,-30.5 2423,-0.5 2310,-0.5"/>
<text text-anchor="start" x="2318" y="-18.5" font-family="Helvetica,sans-Serif" font-size="10.00">src/modules/websock</text>
<text text-anchor="middle" x="2366.5" y="-7.5" font-family="Helvetica,sans-Serif" font-size="10.00">&#45;api/WebSockAPI.cpp</text>
</a>
</g>
</g>
<!-- Node56&#45;&gt;Node67 -->
<g id="edge18" class="edge"><title>Node56&#45;&gt;Node67</title>
<path fill="none" stroke="midnightblue" d="M1734.66,-145.661C1900.69,-138.258 2323.36,-117.58 2346.5,-98 2366.07,-81.4371 2368.19,-49.1267 2367.6,-30.5502"/>
<polygon fill="midnightblue" stroke="midnightblue" points="1734.41,-142.168 1724.58,-146.108 1734.72,-149.161 1734.41,-142.168"/>
</g>
<!-- Node56&#45;&gt;Node68 -->
<g id="edge19" class="edge"><title>Node56&#45;&gt;Node68</title>
<path fill="none" stroke="midnightblue" d="M1602.05,-147.891C1441.57,-145.807 1042.72,-136.746 997.5,-98 978.082,-81.3625 976.383,-49.0801 977.218,-30.5283"/>
<polygon fill="midnightblue" stroke="midnightblue" points="1602.23,-151.393 1612.27,-148.018 1602.32,-144.394 1602.23,-151.393"/>
</g>
<!-- Node56&#45;&gt;Node69 -->
<g id="edge17" class="edge"><title>Node56&#45;&gt;Node69</title>
<path fill="none" stroke="midnightblue" d="M1734.88,-146.747C1861.15,-142.759 2144.4,-130.678 2380.5,-98 2385.05,-97.3704 2389.74,-96.62 2394.45,-95.7967"/>
<polygon fill="midnightblue" stroke="midnightblue" points="1734.5,-143.257 1724.61,-147.064 1734.71,-150.254 1734.5,-143.257"/>
</g>
<!-- Node66 -->
<g id="node15" class="node"><title>Node66</title>
<g id="a_node15"><a xlink:href="../../de/d22/websock-api_2init_8cpp.html" target="_top" xlink:title="src/modules/websock\l&#45;api/init.cpp">
<polygon fill="white" stroke="black" points="2179.5,-0.5 2179.5,-30.5 2291.5,-30.5 2291.5,-0.5 2179.5,-0.5"/>
<text text-anchor="start" x="2187.5" y="-18.5" font-family="Helvetica,sans-Serif" font-size="10.00">src/modules/websock</text>
<text text-anchor="middle" x="2235.5" y="-7.5" font-family="Helvetica,sans-Serif" font-size="10.00">&#45;api/init.cpp</text>
</a>
</g>
</g>
<!-- Node65&#45;&gt;Node66 -->
<g id="edge14" class="edge"><title>Node65&#45;&gt;Node66</title>
<path fill="none" stroke="midnightblue" d="M2265.69,-59.1575C2258.98,-49.6788 2251.37,-38.9186 2245.46,-30.5765"/>
<polygon fill="midnightblue" stroke="midnightblue" points="2262.88,-61.2551 2271.52,-67.396 2268.6,-57.2114 2262.88,-61.2551"/>
</g>
<!-- Node65&#45;&gt;Node67 -->
<g id="edge15" class="edge"><title>Node65&#45;&gt;Node67</title>
<path fill="none" stroke="midnightblue" d="M2308.09,-61.1677C2321.09,-51.2283 2336.4,-39.5144 2348.09,-30.5765"/>
<polygon fill="midnightblue" stroke="midnightblue" points="2305.76,-58.5412 2299.94,-67.396 2310.01,-64.1017 2305.76,-58.5412"/>
</g>
<!-- Node65&#45;&gt;Node68 -->
<g id="edge16" class="edge"><title>Node65&#45;&gt;Node68</title>
<path fill="none" stroke="midnightblue" d="M2214.51,-67.0821C1962.27,-36.4452 1241.58,-21.305 1034.64,-17.4825"/>
<polygon fill="midnightblue" stroke="midnightblue" points="2214.37,-70.5917 2224.73,-68.3651 2215.24,-63.6463 2214.37,-70.5917"/>
</g>
<!-- Node71 -->
<g id="node20" class="node"><title>Node71</title>
<g id="a_node20"><a xlink:href="../../dc/d31/led-buzzer_2ws_2WSHelperThread_8hpp.html" target="_top" xlink:title="src/modules/led&#45;buzzer\l/ws/WSHelperThread.hpp">
<polygon fill="white" stroke="black" points="143,-67.5 143,-97.5 272,-97.5 272,-67.5 143,-67.5"/>
<text text-anchor="start" x="151" y="-85.5" font-family="Helvetica,sans-Serif" font-size="10.00">src/modules/led&#45;buzzer</text>
<text text-anchor="middle" x="207.5" y="-74.5" font-family="Helvetica,sans-Serif" font-size="10.00">/ws/WSHelperThread.hpp</text>
</a>
</g>
</g>
<!-- Node70&#45;&gt;Node71 -->
<g id="edge22" class="edge"><title>Node70&#45;&gt;Node71</title>
<path fill="none" stroke="midnightblue" d="M468.711,-134.032C409.71,-122.618 328.27,-106.863 272.085,-95.9942"/>
<polygon fill="midnightblue" stroke="midnightblue" points="468.233,-137.504 478.716,-135.967 469.563,-130.632 468.233,-137.504"/>
</g>
<!-- Node73 -->
<g id="node22" class="node"><title>Node73</title>
<g id="a_node22"><a xlink:href="../../d7/d36/PFDigitalModule_8hpp.html" target="_top" xlink:title="src/modules/pifacedigital\l/PFDigitalModule.hpp">
<polygon fill="white" stroke="black" points="408,-67.5 408,-97.5 533,-97.5 533,-67.5 408,-67.5"/>
<text text-anchor="start" x="416" y="-85.5" font-family="Helvetica,sans-Serif" font-size="10.00">src/modules/pifacedigital</text>
<text text-anchor="middle" x="470.5" y="-74.5" font-family="Helvetica,sans-Serif" font-size="10.00">/PFDigitalModule.hpp</text>
</a>
</g>
</g>
<!-- Node70&#45;&gt;Node73 -->
<g id="edge25" class="edge"><title>Node70&#45;&gt;Node73</title>
<path fill="none" stroke="midnightblue" d="M520.025,-127.598C509.003,-117.783 496.156,-106.344 486.309,-97.5765"/>
<polygon fill="midnightblue" stroke="midnightblue" points="517.864,-130.36 527.66,-134.396 522.519,-125.132 517.864,-130.36"/>
</g>
<!-- Node75 -->
<g id="node24" class="node"><title>Node75</title>
<g id="a_node24"><a xlink:href="../../d4/df3/wiegand_2ws_2WSHelperThread_8hpp.html" target="_top" xlink:title="src/modules/wiegand\l/ws/WSHelperThread.hpp">
<polygon fill="white" stroke="black" points="551,-67.5 551,-97.5 680,-97.5 680,-67.5 551,-67.5"/>
<text text-anchor="start" x="559" y="-85.5" font-family="Helvetica,sans-Serif" font-size="10.00">src/modules/wiegand</text>
<text text-anchor="middle" x="615.5" y="-74.5" font-family="Helvetica,sans-Serif" font-size="10.00">/ws/WSHelperThread.hpp</text>
</a>
</g>
</g>
<!-- Node70&#45;&gt;Node75 -->
<g id="edge28" class="edge"><title>Node70&#45;&gt;Node75</title>
<path fill="none" stroke="midnightblue" d="M566.653,-127.598C577.525,-117.783 590.196,-106.344 599.908,-97.5765"/>
<polygon fill="midnightblue" stroke="midnightblue" points="564.2,-125.097 559.123,-134.396 568.891,-130.293 564.2,-125.097"/>
</g>
<!-- Node71&#45;&gt;Node53 -->
<g id="edge24" class="edge"><title>Node71&#45;&gt;Node53</title>
<path fill="none" stroke="midnightblue" d="M167.087,-63.1305C144.365,-52.8025 116.443,-40.1103 95.4683,-30.5765"/>
<polygon fill="midnightblue" stroke="midnightblue" points="165.919,-66.4442 176.471,-67.396 168.816,-60.0716 165.919,-66.4442"/>
</g>
<!-- Node72 -->
<g id="node21" class="node"><title>Node72</title>
<g id="a_node21"><a xlink:href="../../d7/d36/LEDBuzzerModule_8cpp.html" target="_top" xlink:title="src/modules/led&#45;buzzer\l/LEDBuzzerModule.cpp">
<polygon fill="white" stroke="black" points="147.5,-0.5 147.5,-30.5 267.5,-30.5 267.5,-0.5 147.5,-0.5"/>
<text text-anchor="start" x="155.5" y="-18.5" font-family="Helvetica,sans-Serif" font-size="10.00">src/modules/led&#45;buzzer</text>
<text text-anchor="middle" x="207.5" y="-7.5" font-family="Helvetica,sans-Serif" font-size="10.00">/LEDBuzzerModule.cpp</text>
</a>
</g>
</g>
<!-- Node71&#45;&gt;Node72 -->
<g id="edge23" class="edge"><title>Node71&#45;&gt;Node72</title>
<path fill="none" stroke="midnightblue" d="M207.5,-57.1081C207.5,-48.1539 207.5,-38.3227 207.5,-30.5765"/>
<polygon fill="midnightblue" stroke="midnightblue" points="204,-57.3959 207.5,-67.396 211,-57.396 204,-57.3959"/>
</g>
<!-- Node73&#45;&gt;Node54 -->
<g id="edge27" class="edge"><title>Node73&#45;&gt;Node54</title>
<path fill="none" stroke="midnightblue" d="M434.979,-62.575C415.788,-52.3502 392.495,-39.94 374.921,-30.5765"/>
<polygon fill="midnightblue" stroke="midnightblue" points="433.557,-65.7827 444.028,-67.396 436.848,-59.6048 433.557,-65.7827"/>
</g>
<!-- Node74 -->
<g id="node23" class="node"><title>Node74</title>
<g id="a_node23"><a xlink:href="../../d6/d6d/pifacedigital_2init_8cpp.html" target="_top" xlink:title="src/modules/pifacedigital\l/init.cpp">
<polygon fill="white" stroke="black" points="429,-0.5 429,-30.5 554,-30.5 554,-0.5 429,-0.5"/>
<text text-anchor="start" x="437" y="-18.5" font-family="Helvetica,sans-Serif" font-size="10.00">src/modules/pifacedigital</text>
<text text-anchor="middle" x="491.5" y="-7.5" font-family="Helvetica,sans-Serif" font-size="10.00">/init.cpp</text>
</a>
</g>
</g>
<!-- Node73&#45;&gt;Node74 -->
<g id="edge26" class="edge"><title>Node73&#45;&gt;Node74</title>
<path fill="none" stroke="midnightblue" d="M478.19,-57.6971C481.133,-48.5871 484.395,-38.4929 486.952,-30.5765"/>
<polygon fill="midnightblue" stroke="midnightblue" points="474.801,-56.8042 475.057,-67.396 481.462,-58.9563 474.801,-56.8042"/>
</g>
<!-- Node76 -->
<g id="node25" class="node"><title>Node76</title>
<g id="a_node25"><a xlink:href="../../d3/de8/wiegand_8cpp.html" target="_top" xlink:title="src/modules/wiegand\l/wiegand.cpp">
<polygon fill="white" stroke="black" points="572,-0.5 572,-30.5 681,-30.5 681,-0.5 572,-0.5"/>
<text text-anchor="start" x="580" y="-18.5" font-family="Helvetica,sans-Serif" font-size="10.00">src/modules/wiegand</text>
<text text-anchor="middle" x="626.5" y="-7.5" font-family="Helvetica,sans-Serif" font-size="10.00">/wiegand.cpp</text>
</a>
</g>
</g>
<!-- Node75&#45;&gt;Node76 -->
<g id="edge29" class="edge"><title>Node75&#45;&gt;Node76</title>
<path fill="none" stroke="midnightblue" d="M619.578,-57.4029C621.107,-48.3703 622.793,-38.4078 624.118,-30.5765"/>
<polygon fill="midnightblue" stroke="midnightblue" points="616.105,-56.9521 617.887,-67.396 623.006,-58.1202 616.105,-56.9521"/>
</g>
<!-- Node75&#45;&gt;Node77 -->
<g id="edge30" class="edge"><title>Node75&#45;&gt;Node77</title>
<path fill="none" stroke="midnightblue" d="M657.011,-63.2687C680.584,-52.9159 709.644,-40.1528 731.449,-30.5765"/>
<polygon fill="midnightblue" stroke="midnightblue" points="655.362,-60.1702 647.614,-67.396 658.177,-66.5793 655.362,-60.1702"/>
</g>
</g>
</svg>
