<?xml version="1.0" encoding="UTF-8" standalone="no"?>
<!DOCTYPE svg PUBLIC "-//W3C//DTD SVG 1.1//EN"
 "http://www.w3.org/Graphics/SVG/1.1/DTD/svg11.dtd">
<!-- Generated by graphviz version 2.38.0 (20140413.2041)
 -->
<!-- Title: src/tools/Schedule.hpp Pages: 1 -->
<!--zoomable 386 -->
<svg id="main" version="1.1" xmlns="http://www.w3.org/2000/svg" xmlns:xlink="http://www.w3.org/1999/xlink" xml:space="preserve" onload="init(evt)">
<style type="text/css"><![CDATA[
.edge:hover path { stroke: red; }
.edge:hover polygon { stroke: red; fill: red; }
]]></style>
<script type="text/javascript"><![CDATA[
var edges = document.getElementsByTagName('g');
if (edges && edges.length) {
  for (var i=0;i<edges.length;i++) {
    if (edges[i].id.substr(0,4)=='edge') {
      edges[i].setAttribute('class','edge');
    }
  }
}
]]></script>
        <defs>
                <circle id="rim" cx="0" cy="0" r="7"/>
                <circle id="rim2" cx="0" cy="0" r="3.5"/>
                <g id="zoomPlus">
                        <use xlink:href="#rim" fill="#404040">
                                <set attributeName="fill" to="#808080" begin="zoomplus.mouseover" end="zoomplus.mouseout"/>
                        </use>
                        <path d="M-4,0h8M0,-4v8" fill="none" stroke="white" stroke-width="1.5" pointer-events="none"/>
                </g>
                <g id="zoomMin">
                        <use xlink:href="#rim" fill="#404040">
                                <set attributeName="fill" to="#808080" begin="zoomminus.mouseover" end="zoomminus.mouseout"/>
                        </use>
                        <path d="M-4,0h8" fill="none" stroke="white" stroke-width="1.5" pointer-events="none"/>
                </g>
                <g id="dirArrow">
                        <path fill="none" stroke="white" stroke-width="1.5" d="M0,-3.0v7 M-2.5,-0.5L0,-3.0L2.5,-0.5"/>
                </g>
               <g id="resetDef">
                       <use xlink:href="#rim2" fill="#404040">
                               <set attributeName="fill" to="#808080" begin="reset.mouseover" end="reset.mouseout"/>
                       </use>
               </g>
        </defs>

<script type="text/javascript">
var viewWidth = 1282;
var viewHeight = 386;
var sectionId = 'dynsection-0';
</script>
<script xlink:href="../../svgpan.js"/>
<svg id="graph" class="graph">
<g id="viewport">
<title>src/tools/Schedule.hpp</title>
<polygon fill="white" stroke="none" points="-4,4 -4,-382 1278.18,-382 1278.18,4 -4,4"/>
<!-- Node0 -->
<g id="node1" class="node"><title>Node0</title>
<polygon fill="#bfbfbf" stroke="black" points="289.681,-358.5 289.681,-377.5 405.681,-377.5 405.681,-358.5 289.681,-358.5"/>
<text text-anchor="middle" x="347.681" y="-365.5" font-family="Helvetica,sans-Serif" font-size="10.00">src/tools/Schedule.hpp</text>
</g>
<!-- Node1 -->
<g id="node2" class="node"><title>Node1</title>
<g id="a_node2"><a xlink:href="../../dc/d49/LeosacFwd_8hpp.html" target="_top" xlink:title="LeosacFwd.hpp">
<polygon fill="white" stroke="black" points="15.6811,-302.5 15.6811,-321.5 101.681,-321.5 101.681,-302.5 15.6811,-302.5"/>
<text text-anchor="middle" x="58.6811" y="-309.5" font-family="Helvetica,sans-Serif" font-size="10.00">LeosacFwd.hpp</text>
</a>
</g>
</g>
<!-- Node0&#45;&gt;Node1 -->
<g id="edge1" class="edge"><title>Node0&#45;&gt;Node1</title>
<path fill="none" stroke="midnightblue" d="M301.888,-358.444C250.303,-348.805 166.568,-333.159 112.058,-322.974"/>
<polygon fill="midnightblue" stroke="midnightblue" points="112.373,-319.472 101.9,-321.075 111.087,-326.353 112.373,-319.472"/>
</g>
<!-- Node3 -->
<g id="node4" class="node"><title>Node3</title>
<polygon fill="white" stroke="#bfbfbf" points="180.681,-246.5 180.681,-265.5 224.681,-265.5 224.681,-246.5 180.681,-246.5"/>
<text text-anchor="middle" x="202.681" y="-253.5" font-family="Helvetica,sans-Serif" font-size="10.00">vector</text>
</g>
<!-- Node0&#45;&gt;Node3 -->
<g id="edge54" class="edge"><title>Node0&#45;&gt;Node3</title>
<path fill="none" stroke="midnightblue" d="M289.205,-361.761C236.953,-355.726 166.039,-343.722 148.681,-322 134.4,-304.129 157.549,-283.914 177.83,-270.84"/>
<polygon fill="midnightblue" stroke="midnightblue" points="179.805,-273.735 186.514,-265.536 176.156,-267.762 179.805,-273.735"/>
</g>
<!-- Node4 -->
<g id="node5" class="node"><title>Node4</title>
<g id="a_node5"><a xlink:href="../../d6/dab/ISchedule_8hpp.html" target="_top" xlink:title="tools/ISchedule.hpp">
<polygon fill="white" stroke="black" points="158.181,-302.5 158.181,-321.5 261.181,-321.5 261.181,-302.5 158.181,-302.5"/>
<text text-anchor="middle" x="209.681" y="-309.5" font-family="Helvetica,sans-Serif" font-size="10.00">tools/ISchedule.hpp</text>
</a>
</g>
</g>
<!-- Node0&#45;&gt;Node4 -->
<g id="edge4" class="edge"><title>Node0&#45;&gt;Node4</title>
<path fill="none" stroke="midnightblue" d="M325.815,-358.444C302.902,-349.478 266.706,-335.314 240.815,-325.183"/>
<polygon fill="midnightblue" stroke="midnightblue" points="242.033,-321.901 231.445,-321.516 239.482,-328.42 242.033,-321.901"/>
</g>
<!-- Node5 -->
<g id="node6" class="node"><title>Node5</title>
<g id="a_node6"><a xlink:href="../../d8/d97/ToolsFwd_8hpp.html" target="_top" xlink:title="tools/ToolsFwd.hpp">
<polygon fill="white" stroke="black" points="323.681,-185 323.681,-204 425.681,-204 425.681,-185 323.681,-185"/>
<text text-anchor="middle" x="374.681" y="-192" font-family="Helvetica,sans-Serif" font-size="10.00">tools/ToolsFwd.hpp</text>
</a>
</g>
</g>
<!-- Node0&#45;&gt;Node5 -->
<g id="edge23" class="edge"><title>Node0&#45;&gt;Node5</title>
<path fill="none" stroke="midnightblue" d="M386.936,-358.475C406.677,-351.99 428.866,-340.843 440.681,-322 464.891,-283.391 420.221,-234.945 393.166,-210.739"/>
<polygon fill="midnightblue" stroke="midnightblue" points="395.283,-207.942 385.432,-204.043 390.701,-213.234 395.283,-207.942"/>
</g>
<!-- Node7 -->
<g id="node8" class="node"><title>Node7</title>
<polygon fill="white" stroke="#bfbfbf" points="324.681,-246.5 324.681,-265.5 370.681,-265.5 370.681,-246.5 324.681,-246.5"/>
<text text-anchor="middle" x="347.681" y="-253.5" font-family="Helvetica,sans-Serif" font-size="10.00">chrono</text>
</g>
<!-- Node0&#45;&gt;Node7 -->
<g id="edge52" class="edge"><title>Node0&#45;&gt;Node7</title>
<path fill="none" stroke="midnightblue" d="M373.414,-358.466C401.126,-347.757 439.396,-327.643 424.681,-302 415.083,-285.273 396.597,-274.17 380.143,-267.178"/>
<polygon fill="midnightblue" stroke="midnightblue" points="381.362,-263.897 370.774,-263.525 378.819,-270.419 381.362,-263.897"/>
</g>
<!-- Node8 -->
<g id="node9" class="node"><title>Node8</title>
<polygon fill="white" stroke="#bfbfbf" points="102.181,-246.5 102.181,-265.5 143.181,-265.5 143.181,-246.5 102.181,-246.5"/>
<text text-anchor="middle" x="122.681" y="-253.5" font-family="Helvetica,sans-Serif" font-size="10.00">string</text>
</g>
<!-- Node0&#45;&gt;Node8 -->
<g id="edge53" class="edge"><title>Node0&#45;&gt;Node8</title>
<path fill="none" stroke="midnightblue" d="M289.615,-363.455C197.165,-357.212 25.0108,-342.907 6.68114,-322 -20.9451,-290.489 48.9379,-270.983 91.932,-262.301"/>
<polygon fill="midnightblue" stroke="midnightblue" points="92.7903,-265.7 101.949,-260.374 91.4676,-258.826 92.7903,-265.7"/>
</g>
<!-- Node9 -->
<g id="node10" class="node"><title>Node9</title>
<g id="a_node10"><a xlink:href="../../d6/d11/ScheduleMapping_8hpp.html" target="_top" xlink:title="tools/ScheduleMapping.hpp">
<polygon fill="white" stroke="black" points="510.181,-302.5 510.181,-321.5 647.181,-321.5 647.181,-302.5 510.181,-302.5"/>
<text text-anchor="middle" x="578.681" y="-309.5" font-family="Helvetica,sans-Serif" font-size="10.00">tools/ScheduleMapping.hpp</text>
</a>
</g>
</g>
<!-- Node0&#45;&gt;Node9 -->
<g id="edge11" class="edge"><title>Node0&#45;&gt;Node9</title>
<path fill="none" stroke="midnightblue" d="M384.284,-358.444C424.412,-349.063 488.879,-333.993 532.466,-323.804"/>
<polygon fill="midnightblue" stroke="midnightblue" points="533.309,-327.201 542.25,-321.516 531.716,-320.385 533.309,-327.201"/>
</g>
<!-- Node13 -->
<g id="node14" class="node"><title>Node13</title>
<g id="a_node14"><a xlink:href="../../df/dfe/SingleTimeFrame_8hpp.html" target="_top" xlink:title="tools/SingleTimeFrame.hpp">
<polygon fill="white" stroke="black" points="279.681,-302.5 279.681,-321.5 415.681,-321.5 415.681,-302.5 279.681,-302.5"/>
<text text-anchor="middle" x="347.681" y="-309.5" font-family="Helvetica,sans-Serif" font-size="10.00">tools/SingleTimeFrame.hpp</text>
</a>
</g>
</g>
<!-- Node0&#45;&gt;Node13 -->
<g id="edge21" class="edge"><title>Node0&#45;&gt;Node13</title>
<path fill="none" stroke="midnightblue" d="M347.681,-358.083C347.681,-351.006 347.681,-340.861 347.681,-331.986"/>
<polygon fill="midnightblue" stroke="midnightblue" points="351.181,-331.751 347.681,-321.751 344.181,-331.751 351.181,-331.751"/>
</g>
<!-- Node14 -->
<g id="node15" class="node"><title>Node14</title>
<g id="a_node15"><a xlink:href="../../df/da2/database_8hpp.html" target="_top" xlink:title="tools/db/database.hpp">
<polygon fill="white" stroke="black" points="790.181,-302.5 790.181,-321.5 903.181,-321.5 903.181,-302.5 790.181,-302.5"/>
<text text-anchor="middle" x="846.681" y="-309.5" font-family="Helvetica,sans-Serif" font-size="10.00">tools/db/database.hpp</text>
</a>
</g>
</g>
<!-- Node0&#45;&gt;Node14 -->
<g id="edge24" class="edge"><title>Node0&#45;&gt;Node14</title>
<path fill="none" stroke="midnightblue" d="M405.899,-360.7C499.138,-350.61 681.443,-330.881 779.858,-320.231"/>
<polygon fill="midnightblue" stroke="midnightblue" points="780.418,-323.691 789.983,-319.136 779.665,-316.732 780.418,-323.691"/>
</g>
<!-- Node2 -->
<g id="node3" class="node"><title>Node2</title>
<polygon fill="white" stroke="#bfbfbf" points="443.681,-56.5 443.681,-75.5 495.681,-75.5 495.681,-56.5 443.681,-56.5"/>
<text text-anchor="middle" x="469.681" y="-63.5" font-family="Helvetica,sans-Serif" font-size="10.00">memory</text>
</g>
<!-- Node1&#45;&gt;Node2 -->
<g id="edge2" class="edge"><title>Node1&#45;&gt;Node2</title>
<path fill="none" stroke="midnightblue" d="M61.2989,-302.394C65.7828,-288.886 76.0875,-262.545 92.6811,-246 192.931,-146.041 359.769,-94.3934 433.149,-75.5406"/>
<polygon fill="midnightblue" stroke="midnightblue" points="434.433,-78.8268 443.279,-72.9951 432.727,-72.0379 434.433,-78.8268"/>
</g>
<!-- Node1&#45;&gt;Node3 -->
<g id="edge3" class="edge"><title>Node1&#45;&gt;Node3</title>
<path fill="none" stroke="midnightblue" d="M81.4984,-302.444C105.654,-293.385 143.958,-279.021 171.026,-268.871"/>
<polygon fill="midnightblue" stroke="midnightblue" points="172.309,-272.127 180.444,-265.339 169.852,-265.573 172.309,-272.127"/>
</g>
<!-- Node4&#45;&gt;Node3 -->
<g id="edge10" class="edge"><title>Node4&#45;&gt;Node3</title>
<path fill="none" stroke="midnightblue" d="M208.525,-302.083C207.598,-294.927 206.263,-284.635 205.104,-275.691"/>
<polygon fill="midnightblue" stroke="midnightblue" points="208.572,-275.218 203.816,-265.751 201.63,-276.118 208.572,-275.218"/>
</g>
<!-- Node4&#45;&gt;Node5 -->
<g id="edge5" class="edge"><title>Node4&#45;&gt;Node5</title>
<path fill="none" stroke="midnightblue" d="M222.083,-302.319C250.153,-282.67 318.812,-234.609 353.657,-210.217"/>
<polygon fill="midnightblue" stroke="midnightblue" points="355.95,-212.884 362.135,-204.282 351.936,-207.149 355.95,-212.884"/>
</g>
<!-- Node4&#45;&gt;Node7 -->
<g id="edge8" class="edge"><title>Node4&#45;&gt;Node7</title>
<path fill="none" stroke="midnightblue" d="M231.548,-302.444C254.461,-293.478 290.656,-279.314 316.548,-269.183"/>
<polygon fill="midnightblue" stroke="midnightblue" points="317.88,-272.42 325.917,-265.516 315.329,-265.901 317.88,-272.42"/>
</g>
<!-- Node4&#45;&gt;Node8 -->
<g id="edge9" class="edge"><title>Node4&#45;&gt;Node8</title>
<path fill="none" stroke="midnightblue" d="M195.703,-302.324C182.132,-293.9 161.301,-280.971 145.356,-271.074"/>
<polygon fill="midnightblue" stroke="midnightblue" points="146.967,-267.954 136.625,-265.655 143.275,-273.902 146.967,-267.954"/>
</g>
<!-- Node5&#45;&gt;Node2 -->
<g id="edge6" class="edge"><title>Node5&#45;&gt;Node2</title>
<path fill="none" stroke="midnightblue" d="M369.483,-184.813C360.731,-168.941 345.434,-134.791 360.681,-112 376.79,-87.9218 408.394,-76.7131 433.441,-71.5033"/>
<polygon fill="midnightblue" stroke="midnightblue" points="434.163,-74.9292 443.362,-69.6736 432.893,-68.0453 434.163,-74.9292"/>
</g>
<!-- Node6 -->
<g id="node7" class="node"><title>Node6</title>
<polygon fill="white" stroke="#bfbfbf" points="641.681,-56.5 641.681,-75.5 727.681,-75.5 727.681,-56.5 641.681,-56.5"/>
<text text-anchor="middle" x="684.681" y="-63.5" font-family="Helvetica,sans-Serif" font-size="10.00">odb/lazy&#45;ptr.hxx</text>
</g>
<!-- Node5&#45;&gt;Node6 -->
<g id="edge7" class="edge"><title>Node5&#45;&gt;Node6</title>
<path fill="none" stroke="midnightblue" d="M386.132,-184.814C408.387,-168.325 459.528,-132.323 507.681,-112 547.695,-95.1125 595.564,-83.4134 631.425,-76.1854"/>
<polygon fill="midnightblue" stroke="midnightblue" points="632.536,-79.5343 641.675,-74.1749 631.189,-72.6652 632.536,-79.5343"/>
</g>
<!-- Node9&#45;&gt;Node3 -->
<g id="edge20" class="edge"><title>Node9&#45;&gt;Node3</title>
<path fill="none" stroke="midnightblue" d="M519.103,-302.444C438.65,-290.889 298.093,-270.703 234.977,-261.638"/>
<polygon fill="midnightblue" stroke="midnightblue" points="235.223,-258.138 224.827,-260.181 234.228,-265.067 235.223,-258.138"/>
</g>
<!-- Node9&#45;&gt;Node5 -->
<g id="edge19" class="edge"><title>Node9&#45;&gt;Node5</title>
<path fill="none" stroke="midnightblue" d="M569.09,-302.067C554.249,-288.586 524.424,-262.836 495.681,-246 468.405,-230.023 435.117,-216.52 410.364,-207.508"/>
<polygon fill="midnightblue" stroke="midnightblue" points="411.252,-204.109 400.658,-204.044 408.899,-210.701 411.252,-204.109"/>
</g>
<!-- Node10 -->
<g id="node11" class="node"><title>Node10</title>
<g id="a_node11"><a xlink:href="../../d3/d6f/AuthFwd_8hpp.html" target="_top" xlink:title="core/auth/AuthFwd.hpp">
<polygon fill="white" stroke="black" points="712.681,-118 712.681,-137 830.681,-137 830.681,-118 712.681,-118"/>
<text text-anchor="middle" x="771.681" y="-125" font-family="Helvetica,sans-Serif" font-size="10.00">core/auth/AuthFwd.hpp</text>
</a>
</g>
</g>
<!-- Node9&#45;&gt;Node10 -->
<g id="edge12" class="edge"><title>Node9&#45;&gt;Node10</title>
<path fill="none" stroke="midnightblue" d="M639.966,-302.485C683.813,-295.087 737.637,-282.894 752.681,-266 782.109,-232.952 779.096,-176.57 775.04,-147.332"/>
<polygon fill="midnightblue" stroke="midnightblue" points="778.463,-146.571 773.443,-137.241 771.549,-147.665 778.463,-146.571"/>
</g>
<!-- Node12 -->
<g id="node13" class="node"><title>Node12</title>
<g id="a_node13"><a xlink:href="../../d7/d7f/CredentialFwd_8hpp.html" target="_top" xlink:title="core/credentials/Credential\lFwd.hpp">
<polygon fill="white" stroke="black" points="444.181,-179.5 444.181,-209.5 577.181,-209.5 577.181,-179.5 444.181,-179.5"/>
<text text-anchor="start" x="452.181" y="-197.5" font-family="Helvetica,sans-Serif" font-size="10.00">core/credentials/Credential</text>
<text text-anchor="middle" x="510.681" y="-186.5" font-family="Helvetica,sans-Serif" font-size="10.00">Fwd.hpp</text>
</a>
</g>
</g>
<!-- Node9&#45;&gt;Node12 -->
<g id="edge16" class="edge"><title>Node9&#45;&gt;Node12</title>
<path fill="none" stroke="midnightblue" d="M573.57,-302.319C563.172,-284.657 539.258,-244.039 524.098,-218.289"/>
<polygon fill="midnightblue" stroke="midnightblue" points="527.04,-216.387 518.95,-209.545 521.008,-219.938 527.04,-216.387"/>
</g>
<!-- Node10&#45;&gt;Node2 -->
<g id="edge14" class="edge"><title>Node10&#45;&gt;Node2</title>
<path fill="none" stroke="midnightblue" d="M728.412,-117.975C668.655,-106.202 561.931,-85.175 506.059,-74.1672"/>
<polygon fill="midnightblue" stroke="midnightblue" points="506.404,-70.668 495.916,-72.1689 505.051,-77.536 506.404,-70.668"/>
</g>
<!-- Node10&#45;&gt;Node6 -->
<g id="edge15" class="edge"><title>Node10&#45;&gt;Node6</title>
<path fill="none" stroke="midnightblue" d="M759.216,-117.975C745.262,-108.431 722.416,-92.8073 705.69,-81.3683"/>
<polygon fill="midnightblue" stroke="midnightblue" points="707.353,-78.2653 697.123,-75.5091 703.401,-84.0433 707.353,-78.2653"/>
</g>
<!-- Node11 -->
<g id="node12" class="node"><title>Node11</title>
<polygon fill="white" stroke="#bfbfbf" points="844.181,-56.5 844.181,-75.5 893.181,-75.5 893.181,-56.5 844.181,-56.5"/>
<text text-anchor="middle" x="868.681" y="-63.5" font-family="Helvetica,sans-Serif" font-size="10.00">cstddef</text>
</g>
<!-- Node10&#45;&gt;Node11 -->
<g id="edge13" class="edge"><title>Node10&#45;&gt;Node11</title>
<path fill="none" stroke="midnightblue" d="M785.579,-117.975C801.353,-108.299 827.318,-92.3721 846.03,-80.8941"/>
<polygon fill="midnightblue" stroke="midnightblue" points="848.115,-83.7213 854.809,-75.5091 844.455,-77.7544 848.115,-83.7213"/>
</g>
<!-- Node12&#45;&gt;Node2 -->
<g id="edge17" class="edge"><title>Node12&#45;&gt;Node2</title>
<path fill="none" stroke="midnightblue" d="M476.827,-179.444C461.646,-171.226 445.254,-159.228 436.681,-143 426.137,-123.039 440.923,-98.9897 453.945,-83.3664"/>
<polygon fill="midnightblue" stroke="midnightblue" points="456.793,-85.4305 460.825,-75.6331 451.563,-80.7774 456.793,-85.4305"/>
</g>
<!-- Node12&#45;&gt;Node6 -->
<g id="edge18" class="edge"><title>Node12&#45;&gt;Node6</title>
<path fill="none" stroke="midnightblue" d="M573.926,-179.474C610.888,-170.055 652.75,-156.869 665.681,-143 679.999,-127.643 683.958,-103.171 684.845,-86.1611"/>
<polygon fill="midnightblue" stroke="midnightblue" points="688.352,-85.8507 685.058,-75.7811 681.353,-85.7072 688.352,-85.8507"/>
</g>
<!-- Node13&#45;&gt;Node7 -->
<g id="edge22" class="edge"><title>Node13&#45;&gt;Node7</title>
<path fill="none" stroke="midnightblue" d="M347.681,-302.083C347.681,-295.006 347.681,-284.861 347.681,-275.986"/>
<polygon fill="midnightblue" stroke="midnightblue" points="351.181,-275.751 347.681,-265.751 344.181,-275.751 351.181,-275.751"/>
</g>
<!-- Node15 -->
<g id="node16" class="node"><title>Node15</title>
<g id="a_node16"><a xlink:href="../../d9/d69/db__fwd_8hpp.html" target="_top" xlink:title="db_fwd.hpp">
<polygon fill="white" stroke="black" points="595.181,-185 595.181,-204 662.181,-204 662.181,-185 595.181,-185"/>
<text text-anchor="middle" x="628.681" y="-192" font-family="Helvetica,sans-Serif" font-size="10.00">db_fwd.hpp</text>
</a>
</g>
</g>
<!-- Node14&#45;&gt;Node15 -->
<g id="edge25" class="edge"><title>Node14&#45;&gt;Node15</title>
<path fill="none" stroke="midnightblue" d="M789.96,-308.049C728.565,-303.527 636.478,-292.431 614.681,-266 602.568,-251.311 609.867,-229.088 617.741,-213.53"/>
<polygon fill="midnightblue" stroke="midnightblue" points="621.008,-214.856 622.801,-204.414 614.888,-211.459 621.008,-214.856"/>
</g>
<!-- Node16 -->
<g id="node17" class="node"><title>Node16</title>
<polygon fill="white" stroke="#bfbfbf" points="799.681,-246.5 799.681,-265.5 893.681,-265.5 893.681,-246.5 799.681,-246.5"/>
<text text-anchor="middle" x="846.681" y="-253.5" font-family="Helvetica,sans-Serif" font-size="10.00">odb/database.hxx</text>
</g>
<!-- Node14&#45;&gt;Node16 -->
<g id="edge27" class="edge"><title>Node14&#45;&gt;Node16</title>
<path fill="none" stroke="midnightblue" d="M846.681,-302.083C846.681,-295.006 846.681,-284.861 846.681,-275.986"/>
<polygon fill="midnightblue" stroke="midnightblue" points="850.181,-275.751 846.681,-265.751 843.181,-275.751 850.181,-275.751"/>
</g>
<!-- Node17 -->
<g id="node18" class="node"><title>Node17</title>
<polygon fill="white" stroke="#bfbfbf" points="911.681,-246.5 911.681,-265.5 1013.68,-265.5 1013.68,-246.5 911.681,-246.5"/>
<text text-anchor="middle" x="962.681" y="-253.5" font-family="Helvetica,sans-Serif" font-size="10.00">odb/transaction.hxx</text>
</g>
<!-- Node14&#45;&gt;Node17 -->
<g id="edge28" class="edge"><title>Node14&#45;&gt;Node17</title>
<path fill="none" stroke="midnightblue" d="M865.062,-302.444C883.898,-293.675 913.412,-279.935 935.06,-269.858"/>
<polygon fill="midnightblue" stroke="midnightblue" points="936.798,-272.91 944.387,-265.516 933.844,-266.564 936.798,-272.91"/>
</g>
<!-- Node18 -->
<g id="node19" class="node"><title>Node18</title>
<g id="a_node19"><a xlink:href="../../d0/dee/DBService_8hpp.html" target="_top" xlink:title="tools/db/DBService.hpp">
<polygon fill="white" stroke="black" points="623.681,-246.5 623.681,-265.5 743.681,-265.5 743.681,-246.5 623.681,-246.5"/>
<text text-anchor="middle" x="683.681" y="-253.5" font-family="Helvetica,sans-Serif" font-size="10.00">tools/db/DBService.hpp</text>
</a>
</g>
</g>
<!-- Node14&#45;&gt;Node18 -->
<g id="edge29" class="edge"><title>Node14&#45;&gt;Node18</title>
<path fill="none" stroke="midnightblue" d="M820.853,-302.444C793.432,-293.359 749.904,-278.939 719.249,-268.783"/>
<polygon fill="midnightblue" stroke="midnightblue" points="719.981,-265.339 709.388,-265.516 717.78,-271.984 719.981,-265.339"/>
</g>
<!-- Node28 -->
<g id="node29" class="node"><title>Node28</title>
<polygon fill="white" stroke="#bfbfbf" points="1032.18,-246.5 1032.18,-265.5 1133.18,-265.5 1133.18,-246.5 1032.18,-246.5"/>
<text text-anchor="middle" x="1082.68" y="-253.5" font-family="Helvetica,sans-Serif" font-size="10.00">odb/connection.hxx</text>
</g>
<!-- Node14&#45;&gt;Node28 -->
<g id="edge50" class="edge"><title>Node14&#45;&gt;Node28</title>
<path fill="none" stroke="midnightblue" d="M884.076,-302.444C925.073,-293.063 990.936,-277.993 1035.47,-267.804"/>
<polygon fill="midnightblue" stroke="midnightblue" points="1036.49,-271.159 1045.46,-265.516 1034.93,-264.335 1036.49,-271.159"/>
</g>
<!-- Node29 -->
<g id="node30" class="node"><title>Node29</title>
<polygon fill="white" stroke="#bfbfbf" points="1151.18,-246.5 1151.18,-265.5 1274.18,-265.5 1274.18,-246.5 1151.18,-246.5"/>
<text text-anchor="middle" x="1212.68" y="-253.5" font-family="Helvetica,sans-Serif" font-size="10.00">odb/schema&#45;catalog.hxx</text>
</g>
<!-- Node14&#45;&gt;Node29 -->
<g id="edge51" class="edge"><title>Node14&#45;&gt;Node29</title>
<path fill="none" stroke="midnightblue" d="M903.467,-302.622C968.63,-293.008 1075.42,-277.251 1144.89,-267.003"/>
<polygon fill="midnightblue" stroke="midnightblue" points="1145.47,-270.454 1154.86,-265.532 1144.45,-263.529 1145.47,-270.454"/>
</g>
<!-- Node15&#45;&gt;Node2 -->
<g id="edge26" class="edge"><title>Node15&#45;&gt;Node2</title>
<path fill="none" stroke="midnightblue" d="M603.232,-184.864C597.465,-182.922 591.366,-180.88 585.681,-179 536.442,-162.714 506.538,-183.926 474.681,-143 462.142,-126.892 462.908,-102.574 465.492,-85.8058"/>
<polygon fill="midnightblue" stroke="midnightblue" points="469.003,-86.074 467.43,-75.5966 462.126,-84.7684 469.003,-86.074"/>
</g>
<!-- Node18&#45;&gt;Node5 -->
<g id="edge48" class="edge"><title>Node18&#45;&gt;Node5</title>
<path fill="none" stroke="midnightblue" d="M631.526,-246.485C581.027,-238.026 502.379,-224.285 434.681,-210 429.373,-208.88 423.818,-207.636 418.321,-206.36"/>
<polygon fill="midnightblue" stroke="midnightblue" points="419.092,-202.946 408.555,-204.051 417.481,-209.759 419.092,-202.946"/>
</g>
<!-- Node18&#45;&gt;Node10 -->
<g id="edge43" class="edge"><title>Node18&#45;&gt;Node10</title>
<path fill="none" stroke="midnightblue" d="M689.73,-246.305C704.11,-225.633 740.563,-173.232 759.634,-145.818"/>
<polygon fill="midnightblue" stroke="midnightblue" points="762.753,-147.464 765.59,-137.256 757.006,-143.466 762.753,-147.464"/>
</g>
<!-- Node18&#45;&gt;Node12 -->
<g id="edge44" class="edge"><title>Node18&#45;&gt;Node12</title>
<path fill="none" stroke="midnightblue" d="M658.894,-246.475C633.493,-237.739 593.277,-223.907 561.142,-212.855"/>
<polygon fill="midnightblue" stroke="midnightblue" points="562.049,-209.466 551.454,-209.523 559.772,-216.085 562.049,-209.466"/>
</g>
<!-- Node18&#45;&gt;Node15 -->
<g id="edge49" class="edge"><title>Node18&#45;&gt;Node15</title>
<path fill="none" stroke="midnightblue" d="M675.801,-246.475C667.388,-237.373 653.862,-222.741 643.455,-211.483"/>
<polygon fill="midnightblue" stroke="midnightblue" points="645.905,-208.977 636.547,-204.009 640.764,-213.728 645.905,-208.977"/>
</g>
<!-- Node19 -->
<g id="node20" class="node"><title>Node19</title>
<g id="a_node20"><a xlink:href="../../d3/dd8/IAuditEntry_8hpp.html" target="_top" xlink:title="core/audit/IAuditEntry.hpp">
<polygon fill="white" stroke="black" points="819.681,-185 819.681,-204 949.681,-204 949.681,-185 819.681,-185"/>
<text text-anchor="middle" x="884.681" y="-192" font-family="Helvetica,sans-Serif" font-size="10.00">core/audit/IAuditEntry.hpp</text>
</a>
</g>
</g>
<!-- Node18&#45;&gt;Node19 -->
<g id="edge30" class="edge"><title>Node18&#45;&gt;Node19</title>
<path fill="none" stroke="midnightblue" d="M712.48,-246.475C747.555,-236.092 806.945,-218.512 845.988,-206.954"/>
<polygon fill="midnightblue" stroke="midnightblue" points="847.341,-210.204 855.936,-204.009 845.354,-203.492 847.341,-210.204"/>
</g>
<!-- Node27 -->
<g id="node28" class="node"><title>Node27</title>
<g id="a_node28"><a xlink:href="../../d2/d0e/UpdateFwd_8hpp.html" target="_top" xlink:title="core/update/UpdateFwd.hpp">
<polygon fill="white" stroke="black" points="516.681,-118 516.681,-137 656.681,-137 656.681,-118 516.681,-118"/>
<text text-anchor="middle" x="586.681" y="-125" font-family="Helvetica,sans-Serif" font-size="10.00">core/update/UpdateFwd.hpp</text>
</a>
</g>
</g>
<!-- Node18&#45;&gt;Node27 -->
<g id="edge45" class="edge"><title>Node18&#45;&gt;Node27</title>
<path fill="none" stroke="midnightblue" d="M684.422,-246.16C685.235,-231.026 684.88,-199.778 670.681,-179 658.855,-161.693 638.96,-149.349 621.499,-141.199"/>
<polygon fill="midnightblue" stroke="midnightblue" points="622.681,-137.896 612.117,-137.098 619.878,-144.31 622.681,-137.896"/>
</g>
<!-- Node19&#45;&gt;Node2 -->
<g id="edge42" class="edge"><title>Node19&#45;&gt;Node2</title>
<path fill="none" stroke="midnightblue" d="M819.506,-188.097C718.349,-179.218 532.536,-160.75 507.681,-143 488.593,-129.369 478.557,-103.352 473.692,-85.5941"/>
<polygon fill="midnightblue" stroke="midnightblue" points="477.07,-84.6723 471.297,-75.7887 470.27,-86.3336 477.07,-84.6723"/>
</g>
<!-- Node19&#45;&gt;Node10 -->
<g id="edge36" class="edge"><title>Node19&#45;&gt;Node10</title>
<path fill="none" stroke="midnightblue" d="M869.441,-184.734C850.465,-173.818 817.835,-155.049 795.534,-142.221"/>
<polygon fill="midnightblue" stroke="midnightblue" points="797.093,-139.08 786.679,-137.127 793.602,-145.147 797.093,-139.08"/>
</g>
<!-- Node20 -->
<g id="node21" class="node"><title>Node20</title>
<g id="a_node21"><a xlink:href="../../d7/dcf/AuditFwd_8hpp.html" target="_top" xlink:title="core/audit/AuditFwd.hpp">
<polygon fill="white" stroke="black" points="980.681,-118 980.681,-137 1102.68,-137 1102.68,-118 980.681,-118"/>
<text text-anchor="middle" x="1041.68" y="-125" font-family="Helvetica,sans-Serif" font-size="10.00">core/audit/AuditFwd.hpp</text>
</a>
</g>
</g>
<!-- Node19&#45;&gt;Node20 -->
<g id="edge31" class="edge"><title>Node19&#45;&gt;Node20</title>
<path fill="none" stroke="midnightblue" d="M905.53,-184.869C932.625,-173.65 980.145,-153.977 1011.27,-141.092"/>
<polygon fill="midnightblue" stroke="midnightblue" points="1012.85,-144.226 1020.75,-137.167 1010.17,-137.759 1012.85,-144.226"/>
</g>
<!-- Node22 -->
<g id="node23" class="node"><title>Node22</title>
<g id="a_node23"><a xlink:href="../../dd/d9d/IVisitable_8hpp.html" target="_top" xlink:title="tools/IVisitable.hpp">
<polygon fill="white" stroke="black" points="1120.68,-118 1120.68,-137 1220.68,-137 1220.68,-118 1120.68,-118"/>
<text text-anchor="middle" x="1170.68" y="-125" font-family="Helvetica,sans-Serif" font-size="10.00">tools/IVisitable.hpp</text>
</a>
</g>
</g>
<!-- Node19&#45;&gt;Node22 -->
<g id="edge37" class="edge"><title>Node19&#45;&gt;Node22</title>
<path fill="none" stroke="midnightblue" d="M924.517,-184.917C969.893,-175.075 1046.23,-158.321 1111.68,-143 1116.44,-141.887 1121.4,-140.701 1126.35,-139.507"/>
<polygon fill="midnightblue" stroke="midnightblue" points="1127.51,-142.828 1136.39,-137.062 1125.85,-136.026 1127.51,-142.828"/>
</g>
<!-- Node26 -->
<g id="node27" class="node"><title>Node26</title>
<polygon fill="white" stroke="#bfbfbf" points="849.181,-112.5 849.181,-142.5 962.181,-142.5 962.181,-112.5 849.181,-112.5"/>
<text text-anchor="start" x="857.181" y="-130.5" font-family="Helvetica,sans-Serif" font-size="10.00">boost/date_time/posix</text>
<text text-anchor="middle" x="905.681" y="-119.5" font-family="Helvetica,sans-Serif" font-size="10.00">_time/posix_time.hpp</text>
</g>
<!-- Node19&#45;&gt;Node26 -->
<g id="edge41" class="edge"><title>Node19&#45;&gt;Node26</title>
<path fill="none" stroke="midnightblue" d="M887.513,-184.734C890.188,-176.456 894.321,-163.662 897.97,-152.367"/>
<polygon fill="midnightblue" stroke="midnightblue" points="901.385,-153.181 901.129,-142.589 894.724,-151.029 901.385,-153.181"/>
</g>
<!-- Node20&#45;&gt;Node2 -->
<g id="edge34" class="edge"><title>Node20&#45;&gt;Node2</title>
<path fill="none" stroke="midnightblue" d="M1003.87,-117.961C993.18,-115.77 981.511,-113.587 970.681,-112 797.675,-86.6454 588.823,-73.4244 506.028,-68.8669"/>
<polygon fill="midnightblue" stroke="midnightblue" points="506.055,-65.3633 495.88,-68.3172 505.676,-72.3531 506.055,-65.3633"/>
</g>
<!-- Node20&#45;&gt;Node6 -->
<g id="edge35" class="edge"><title>Node20&#45;&gt;Node6</title>
<path fill="none" stroke="midnightblue" d="M1001.57,-117.976C991.499,-115.929 980.709,-113.812 970.681,-112 889.724,-97.3721 795.38,-83.0544 737.859,-74.6296"/>
<polygon fill="midnightblue" stroke="midnightblue" points="738.307,-71.1581 727.907,-73.177 737.296,-78.0847 738.307,-71.1581"/>
</g>
<!-- Node20&#45;&gt;Node11 -->
<g id="edge32" class="edge"><title>Node20&#45;&gt;Node11</title>
<path fill="none" stroke="midnightblue" d="M1016.89,-117.975C987.09,-107.725 936.89,-90.4593 903.279,-78.8994"/>
<polygon fill="midnightblue" stroke="midnightblue" points="904.017,-75.4518 893.422,-75.5091 901.74,-82.0712 904.017,-75.4518"/>
</g>
<!-- Node21 -->
<g id="node22" class="node"><title>Node21</title>
<polygon fill="white" stroke="#bfbfbf" points="1009.18,-56.5 1009.18,-75.5 1074.18,-75.5 1074.18,-56.5 1009.18,-56.5"/>
<text text-anchor="middle" x="1041.68" y="-63.5" font-family="Helvetica,sans-Serif" font-size="10.00">flagset.hpp</text>
</g>
<!-- Node20&#45;&gt;Node21 -->
<g id="edge33" class="edge"><title>Node20&#45;&gt;Node21</title>
<path fill="none" stroke="midnightblue" d="M1041.68,-117.975C1041.68,-109.58 1041.68,-96.4806 1041.68,-85.6631"/>
<polygon fill="midnightblue" stroke="midnightblue" points="1045.18,-85.5091 1041.68,-75.5091 1038.18,-85.5091 1045.18,-85.5091"/>
</g>
<!-- Node23 -->
<g id="node24" class="node"><title>Node23</title>
<g id="a_node24"><a xlink:href="../../d2/d91/Visitor_8hpp.html" target="_top" xlink:title="tools/Visitor.hpp">
<polygon fill="white" stroke="black" points="1186.18,-56.5 1186.18,-75.5 1273.18,-75.5 1273.18,-56.5 1186.18,-56.5"/>
<text text-anchor="middle" x="1229.68" y="-63.5" font-family="Helvetica,sans-Serif" font-size="10.00">tools/Visitor.hpp</text>
</a>
</g>
</g>
<!-- Node22&#45;&gt;Node23 -->
<g id="edge38" class="edge"><title>Node22&#45;&gt;Node23</title>
<path fill="none" stroke="midnightblue" d="M1179.13,-117.975C1188.25,-108.785 1202.95,-93.9563 1214.16,-82.656"/>
<polygon fill="midnightblue" stroke="midnightblue" points="1216.69,-85.0744 1221.24,-75.5091 1211.72,-80.1455 1216.69,-85.0744"/>
</g>
<!-- Node25 -->
<g id="node26" class="node"><title>Node25</title>
<polygon fill="white" stroke="#bfbfbf" points="1119.18,-56.5 1119.18,-75.5 1168.18,-75.5 1168.18,-56.5 1119.18,-56.5"/>
<text text-anchor="middle" x="1143.68" y="-63.5" font-family="Helvetica,sans-Serif" font-size="10.00">cassert</text>
</g>
<!-- Node22&#45;&gt;Node25 -->
<g id="edge40" class="edge"><title>Node22&#45;&gt;Node25</title>
<path fill="none" stroke="midnightblue" d="M1166.81,-117.975C1162.88,-109.315 1156.68,-95.6486 1151.69,-84.6453"/>
<polygon fill="midnightblue" stroke="midnightblue" points="1154.86,-83.1691 1147.54,-75.5091 1148.49,-86.0617 1154.86,-83.1691"/>
</g>
<!-- Node24 -->
<g id="node25" class="node"><title>Node24</title>
<polygon fill="white" stroke="#bfbfbf" points="1198.68,-0.5 1198.68,-19.5 1260.68,-19.5 1260.68,-0.5 1198.68,-0.5"/>
<text text-anchor="middle" x="1229.68" y="-7.5" font-family="Helvetica,sans-Serif" font-size="10.00">type_traits</text>
</g>
<!-- Node23&#45;&gt;Node24 -->
<g id="edge39" class="edge"><title>Node23&#45;&gt;Node24</title>
<path fill="none" stroke="midnightblue" d="M1229.68,-56.083C1229.68,-49.0059 1229.68,-38.8611 1229.68,-29.9865"/>
<polygon fill="midnightblue" stroke="midnightblue" points="1233.18,-29.751 1229.68,-19.7511 1226.18,-29.7511 1233.18,-29.751"/>
</g>
<!-- Node27&#45;&gt;Node2 -->
<g id="edge46" class="edge"><title>Node27&#45;&gt;Node2</title>
<path fill="none" stroke="midnightblue" d="M569.918,-117.975C550.456,-108.078 518.136,-91.6416 495.47,-80.1151"/>
<polygon fill="midnightblue" stroke="midnightblue" points="496.913,-76.9224 486.413,-75.5091 493.74,-83.1619 496.913,-76.9224"/>
</g>
<!-- Node27&#45;&gt;Node6 -->
<g id="edge47" class="edge"><title>Node27&#45;&gt;Node6</title>
<path fill="none" stroke="midnightblue" d="M600.722,-117.975C616.732,-108.255 643.132,-92.2266 662.055,-80.7372"/>
<polygon fill="midnightblue" stroke="midnightblue" points="663.935,-83.6907 670.666,-75.5091 660.302,-77.7072 663.935,-83.6907"/>
</g>
</g>
</svg>
        <g id="navigator" transform="translate(0 0)" fill="#404254">
                <rect fill="#f2f5e9" fill-opacity="0.5" stroke="#606060" stroke-width=".5" x="0" y="0" width="60" height="60"/>
                <use id="zoomplus" xlink:href="#zoomPlus" x="17" y="9" onmousedown="handleZoom(evt,'in')"/>
                <use id="zoomminus" xlink:href="#zoomMin" x="42" y="9" onmousedown="handleZoom(evt,'out')"/>
                <use id="reset" xlink:href="#resetDef" x="30" y="36" onmousedown="handleReset()"/>
                <g id="arrowUp" xlink:href="#dirArrow" transform="translate(30 24)" onmousedown="handlePan(0,-1)">
                  <use xlink:href="#rim" fill="#404040">
                        <set attributeName="fill" to="#808080" begin="arrowUp.mouseover" end="arrowUp.mouseout"/>
                  </use>
                  <path fill="none" stroke="white" stroke-width="1.5" d="M0,-3.0v7 M-2.5,-0.5L0,-3.0L2.5,-0.5"/>
                </g>
                <g id="arrowRight" xlink:href="#dirArrow" transform="rotate(90) translate(36 -43)" onmousedown="handlePan(1,0)">
                  <use xlink:href="#rim" fill="#404040">
                        <set attributeName="fill" to="#808080" begin="arrowRight.mouseover" end="arrowRight.mouseout"/>
                  </use>
                  <path fill="none" stroke="white" stroke-width="1.5" d="M0,-3.0v7 M-2.5,-0.5L0,-3.0L2.5,-0.5"/>
                </g>
                <g id="arrowDown" xlink:href="#dirArrow" transform="rotate(180) translate(-30 -48)" onmousedown="handlePan(0,1)">
                  <use xlink:href="#rim" fill="#404040">
                        <set attributeName="fill" to="#808080" begin="arrowDown.mouseover" end="arrowDown.mouseout"/>
                  </use>
                  <path fill="none" stroke="white" stroke-width="1.5" d="M0,-3.0v7 M-2.5,-0.5L0,-3.0L2.5,-0.5"/>
                </g>
                <g id="arrowLeft" xlink:href="#dirArrow" transform="rotate(270) translate(-36 17)" onmousedown="handlePan(-1,0)">
                  <use xlink:href="#rim" fill="#404040">
                        <set attributeName="fill" to="#808080" begin="arrowLeft.mouseover" end="arrowLeft.mouseout"/>
                  </use>
                  <path fill="none" stroke="white" stroke-width="1.5" d="M0,-3.0v7 M-2.5,-0.5L0,-3.0L2.5,-0.5"/>
                </g>
        </g>
        <svg viewBox="0 0 15 15" width="100%" height="30px" preserveAspectRatio="xMaxYMin meet">
         <g id="arrow_out" transform="scale(0.3 0.3)">
          <a xlink:href="Schedule_8hpp__incl_org.svg" target="_base">
           <rect id="button" ry="5" rx="5" y="6" x="6" height="38" width="38"
                fill="#f2f5e9" fill-opacity="0.5" stroke="#606060" stroke-width="1.0"/>
           <path id="arrow"
             d="M 11.500037,31.436501 C 11.940474,20.09759 22.043105,11.32322 32.158766,21.979434 L 37.068811,17.246167 C 37.068811,17.246167 37.088388,32 37.088388,32 L 22.160133,31.978069 C 22.160133,31.978069 26.997745,27.140456 26.997745,27.140456 C 18.528582,18.264221 13.291696,25.230495 11.500037,31.436501 z"
             style="fill:#404040;"/>
          </a>
         </g>
        </svg>
</svg>
