<?xml version="1.0" encoding="UTF-8" standalone="no"?>
<!DOCTYPE svg PUBLIC "-//W3C//DTD SVG 1.1//EN"
 "http://www.w3.org/Graphics/SVG/1.1/DTD/svg11.dtd">
<!-- Generated by graphviz version 2.38.0 (20140413.2041)
 -->
<!-- Title: Leosac::Module::SMTP::SMTPAudit Pages: 1 -->
<svg width="284pt" height="218pt"
 viewBox="0.00 0.00 283.50 218.00" xmlns="http://www.w3.org/2000/svg" xmlns:xlink="http://www.w3.org/1999/xlink">
<g id="graph0" class="graph" transform="scale(1 1) rotate(0) translate(4 214)">
<title>Leosac::Module::SMTP::SMTPAudit</title>
<polygon fill="white" stroke="none" points="-4,4 -4,-214 279.5,-214 279.5,4 -4,4"/>
<!-- Node0 -->
<g id="node1" class="node"><title>Node0</title>
<polygon fill="#bfbfbf" stroke="black" points="79,-0.5 79,-30.5 198,-30.5 198,-0.5 79,-0.5"/>
<text text-anchor="start" x="87" y="-18.5" font-family="Helvetica,sans-Serif" font-size="10.00">Leosac::Module::SMTP</text>
<text text-anchor="middle" x="138.5" y="-7.5" font-family="Helvetica,sans-Serif" font-size="10.00">::SMTPAudit</text>
</g>
<!-- Node1 -->
<g id="node2" class="node"><title>Node1</title>
<g id="a_node2"><a xlink:href="../../d0/d20/classLeosac_1_1Audit_1_1AuditEntry.html" target="_top" xlink:title="Implementation of IAuditEntry, backed by ODB. ">
<polygon fill="white" stroke="black" points="74.5,-67.5 74.5,-86.5 202.5,-86.5 202.5,-67.5 74.5,-67.5"/>
<text text-anchor="middle" x="138.5" y="-74.5" font-family="Helvetica,sans-Serif" font-size="10.00">Leosac::Audit::AuditEntry</text>
</a>
</g>
</g>
<!-- Node1&#45;&gt;Node0 -->
<g id="edge1" class="edge"><title>Node1&#45;&gt;Node0</title>
<path fill="none" stroke="midnightblue" d="M138.5,-57.2349C138.5,-48.5864 138.5,-38.4969 138.5,-30.523"/>
<polygon fill="midnightblue" stroke="midnightblue" points="135,-57.4751 138.5,-67.4751 142,-57.4751 135,-57.4751"/>
</g>
<!-- Node2 -->
<g id="node3" class="node"><title>Node2</title>
<g id="a_node3"><a xlink:href="../../d1/d44/classLeosac_1_1Audit_1_1IAuditEntry.html" target="_top" xlink:title="Base interface to Audit object. ">
<polygon fill="white" stroke="black" points="0,-129 0,-148 131,-148 131,-129 0,-129"/>
<text text-anchor="middle" x="65.5" y="-136" font-family="Helvetica,sans-Serif" font-size="10.00">Leosac::Audit::IAuditEntry</text>
</a>
</g>
</g>
<!-- Node2&#45;&gt;Node1 -->
<g id="edge2" class="edge"><title>Node2&#45;&gt;Node1</title>
<path fill="none" stroke="midnightblue" d="M83.9368,-122.473C97.8991,-111.093 116.576,-95.8694 128.06,-86.5091"/>
<polygon fill="midnightblue" stroke="midnightblue" points="81.4992,-119.944 75.9591,-128.975 85.9218,-125.37 81.4992,-119.944"/>
</g>
<!-- Node3 -->
<g id="node4" class="node"><title>Node3</title>
<g id="a_node4"><a xlink:href="../../d0/d33/classLeosac_1_1Tools_1_1IVisitable.html" target="_top" xlink:title="Base class to make an object visitable. ">
<polygon fill="white" stroke="black" points="3,-190.5 3,-209.5 128,-209.5 128,-190.5 3,-190.5"/>
<text text-anchor="middle" x="65.5" y="-197.5" font-family="Helvetica,sans-Serif" font-size="10.00">Leosac::Tools::IVisitable</text>
</a>
</g>
</g>
<!-- Node3&#45;&gt;Node2 -->
<g id="edge3" class="edge"><title>Node3&#45;&gt;Node2</title>
<path fill="none" stroke="midnightblue" d="M65.5,-180.317C65.5,-169.496 65.5,-156.398 65.5,-148.009"/>
<polygon fill="midnightblue" stroke="midnightblue" points="62.0001,-180.475 65.5,-190.475 69.0001,-180.475 62.0001,-180.475"/>
</g>
<!-- Node4 -->
<g id="node5" class="node"><title>Node4</title>
<polygon fill="white" stroke="#bfbfbf" points="149.5,-123.5 149.5,-153.5 275.5,-153.5 275.5,-123.5 149.5,-123.5"/>
<text text-anchor="start" x="157.5" y="-141.5" font-family="Helvetica,sans-Serif" font-size="10.00">std::enable_shared</text>
<text text-anchor="middle" x="212.5" y="-130.5" font-family="Helvetica,sans-Serif" font-size="10.00">_from_this&lt; AuditEntry &gt;</text>
</g>
<!-- Node4&#45;&gt;Node1 -->
<g id="edge4" class="edge"><title>Node4&#45;&gt;Node1</title>
<path fill="none" stroke="midnightblue" d="M186.872,-116.893C173.999,-106.543 159.093,-94.5577 149.268,-86.6578"/>
<polygon fill="midnightblue" stroke="midnightblue" points="184.977,-119.861 194.963,-123.399 189.363,-114.405 184.977,-119.861"/>
</g>
</g>
</svg>
