<?xml version="1.0" encoding="UTF-8" standalone="no"?>
<!DOCTYPE svg PUBLIC "-//W3C//DTD SVG 1.1//EN"
 "http://www.w3.org/Graphics/SVG/1.1/DTD/svg11.dtd">
<!-- Generated by graphviz version 2.38.0 (20140413.2041)
 -->
<!-- Title: Leosac::Module::WebSockAPI::ICRUDResourceHandler Pages: 1 -->
<svg width="546pt" height="541pt"
 viewBox="0.00 0.00 546.00 540.50" xmlns="http://www.w3.org/2000/svg" xmlns:xlink="http://www.w3.org/1999/xlink">
<g id="graph0" class="graph" transform="scale(1 1) rotate(0) translate(4 536.5)">
<title>Leosac::Module::WebSockAPI::ICRUDResourceHandler</title>
<polygon fill="white" stroke="none" points="-4,4 -4,-536.5 542,-536.5 542,4 -4,4"/>
<!-- Node0 -->
<g id="node1" class="node"><title>Node0</title>
<polygon fill="#bfbfbf" stroke="black" points="0,-220.5 0,-250.5 151,-250.5 151,-220.5 0,-220.5"/>
<text text-anchor="start" x="8" y="-238.5" font-family="Helvetica,sans-Serif" font-size="10.00">Leosac::Module::WebSockAPI</text>
<text text-anchor="middle" x="75.5" y="-227.5" font-family="Helvetica,sans-Serif" font-size="10.00">::ICRUDResourceHandler</text>
</g>
<!-- Node1 -->
<g id="node2" class="node"><title>Node1</title>
<g id="a_node2"><a xlink:href="../../da/dc2/classLeosac_1_1Module_1_1WebSockAPI_1_1CRUDResourceHandler.html" target="_top" xlink:title="Base CRUD handler for use within the websocket module. ">
<polygon fill="white" stroke="black" points="193.5,-245.5 193.5,-275.5 344.5,-275.5 344.5,-245.5 193.5,-245.5"/>
<text text-anchor="start" x="201.5" y="-263.5" font-family="Helvetica,sans-Serif" font-size="10.00">Leosac::Module::WebSockAPI</text>
<text text-anchor="middle" x="269" y="-252.5" font-family="Helvetica,sans-Serif" font-size="10.00">::CRUDResourceHandler</text>
</a>
</g>
</g>
<!-- Node0&#45;&gt;Node1 -->
<g id="edge1" class="edge"><title>Node0&#45;&gt;Node1</title>
<path fill="none" stroke="midnightblue" d="M161.251,-246.564C171.93,-247.958 182.794,-249.376 193.301,-250.748"/>
<polygon fill="midnightblue" stroke="midnightblue" points="161.456,-243.061 151.087,-245.237 160.55,-250.002 161.456,-243.061"/>
</g>
<!-- Node13 -->
<g id="node14" class="node"><title>Node13</title>
<g id="a_node14"><a xlink:href="../../d2/de7/classLeosac_1_1Module_1_1WebSockAPI_1_1ExternalCRUDResourceHandler.html" target="_top" xlink:title="For other module to use. ">
<polygon fill="white" stroke="black" points="187,-196.5 187,-226.5 351,-226.5 351,-196.5 187,-196.5"/>
<text text-anchor="start" x="195" y="-214.5" font-family="Helvetica,sans-Serif" font-size="10.00">Leosac::Module::WebSockAPI</text>
<text text-anchor="middle" x="269" y="-203.5" font-family="Helvetica,sans-Serif" font-size="10.00">::ExternalCRUDResourceHandler</text>
</a>
</g>
</g>
<!-- Node0&#45;&gt;Node13 -->
<g id="edge13" class="edge"><title>Node0&#45;&gt;Node13</title>
<path fill="none" stroke="midnightblue" d="M161.101,-224.897C169.693,-223.82 178.407,-222.728 186.96,-221.656"/>
<polygon fill="midnightblue" stroke="midnightblue" points="160.574,-221.436 151.087,-226.152 161.445,-228.381 160.574,-221.436"/>
</g>
<!-- Node2 -->
<g id="node3" class="node"><title>Node2</title>
<g id="a_node3"><a xlink:href="../../df/dc5/classLeosac_1_1Module_1_1LedBuzzer_1_1CRUDHandler.html" target="_top" xlink:title="CRUD handler for Buzzer and LED. ">
<polygon fill="white" stroke="black" points="393.5,-491 393.5,-532 531.5,-532 531.5,-491 393.5,-491"/>
<text text-anchor="start" x="401.5" y="-520" font-family="Helvetica,sans-Serif" font-size="10.00">Leosac::Module::LedBuzzer</text>
<text text-anchor="start" x="401.5" y="-509" font-family="Helvetica,sans-Serif" font-size="10.00">::CRUDHandler&lt; ObjectT,</text>
<text text-anchor="middle" x="462.5" y="-498" font-family="Helvetica,sans-Serif" font-size="10.00"> ObjectIdKey, SerializerT &gt;</text>
</a>
</g>
</g>
<!-- Node1&#45;&gt;Node2 -->
<g id="edge2" class="edge"><title>Node1&#45;&gt;Node2</title>
<path fill="none" stroke="midnightblue" d="M276.946,-285.478C290.694,-330.583 325.49,-426.081 387,-481.5 390.833,-484.953 395.114,-488.035 399.634,-490.781"/>
<polygon fill="midnightblue" stroke="midnightblue" points="280.232,-284.247 274.043,-275.648 273.519,-286.229 280.232,-284.247"/>
</g>
<!-- Node3 -->
<g id="node4" class="node"><title>Node3</title>
<g id="a_node4"><a xlink:href="../../de/d75/classLeosac_1_1Module_1_1Piface_1_1CRUDHandler.html" target="_top" xlink:title="CRUD Handler for GPIO backed by Piface module. ">
<polygon fill="white" stroke="black" points="403,-441.5 403,-471.5 522,-471.5 522,-441.5 403,-441.5"/>
<text text-anchor="start" x="411" y="-459.5" font-family="Helvetica,sans-Serif" font-size="10.00">Leosac::Module::Piface</text>
<text text-anchor="middle" x="462.5" y="-448.5" font-family="Helvetica,sans-Serif" font-size="10.00">::CRUDHandler</text>
</a>
</g>
</g>
<!-- Node1&#45;&gt;Node3 -->
<g id="edge3" class="edge"><title>Node1&#45;&gt;Node3</title>
<path fill="none" stroke="midnightblue" d="M280.387,-285.215C297.299,-322.52 334.277,-393.035 387,-432.5 391.787,-436.083 397.129,-439.143 402.694,-441.755"/>
<polygon fill="midnightblue" stroke="midnightblue" points="283.394,-283.361 276.153,-275.627 276.991,-286.189 283.394,-283.361"/>
</g>
<!-- Node4 -->
<g id="node5" class="node"><title>Node4</title>
<g id="a_node5"><a xlink:href="../../d9/da1/classLeosac_1_1Module_1_1WebSockAPI_1_1AccessPointCRUD.html" target="_top" xlink:title="CRUD Handler for AccessPoint. ">
<polygon fill="white" stroke="black" points="387,-392.5 387,-422.5 538,-422.5 538,-392.5 387,-392.5"/>
<text text-anchor="start" x="395" y="-410.5" font-family="Helvetica,sans-Serif" font-size="10.00">Leosac::Module::WebSockAPI</text>
<text text-anchor="middle" x="462.5" y="-399.5" font-family="Helvetica,sans-Serif" font-size="10.00">::AccessPointCRUD</text>
</a>
</g>
</g>
<!-- Node1&#45;&gt;Node4 -->
<g id="edge4" class="edge"><title>Node1&#45;&gt;Node4</title>
<path fill="none" stroke="midnightblue" d="M286.508,-283.967C307.062,-311.542 344.667,-356.899 387,-383.5 392.408,-386.898 398.341,-389.857 404.424,-392.424"/>
<polygon fill="midnightblue" stroke="midnightblue" points="289.179,-281.689 280.45,-275.685 283.529,-285.822 289.179,-281.689"/>
</g>
<!-- Node5 -->
<g id="node6" class="node"><title>Node5</title>
<g id="a_node6"><a xlink:href="../../d2/d04/classLeosac_1_1Module_1_1WebSockAPI_1_1CredentialCRUD.html" target="_top" xlink:title="CRUD Handler for credentials. ">
<polygon fill="white" stroke="black" points="387,-343.5 387,-373.5 538,-373.5 538,-343.5 387,-343.5"/>
<text text-anchor="start" x="395" y="-361.5" font-family="Helvetica,sans-Serif" font-size="10.00">Leosac::Module::WebSockAPI</text>
<text text-anchor="middle" x="462.5" y="-350.5" font-family="Helvetica,sans-Serif" font-size="10.00">::CredentialCRUD</text>
</a>
</g>
</g>
<!-- Node1&#45;&gt;Node5 -->
<g id="edge5" class="edge"><title>Node1&#45;&gt;Node5</title>
<path fill="none" stroke="midnightblue" d="M298.493,-281.404C321.492,-297.554 355.152,-319.592 387,-334.5 394.015,-337.784 401.6,-340.795 409.152,-343.492"/>
<polygon fill="midnightblue" stroke="midnightblue" points="300.405,-278.47 290.226,-275.531 296.351,-284.176 300.405,-278.47"/>
</g>
<!-- Node6 -->
<g id="node7" class="node"><title>Node6</title>
<g id="a_node7"><a xlink:href="../../d3/d94/classLeosac_1_1Module_1_1WebSockAPI_1_1DoorCRUD.html" target="_top" xlink:title="CRUD Handler for Doors. ">
<polygon fill="white" stroke="black" points="387,-294.5 387,-324.5 538,-324.5 538,-294.5 387,-294.5"/>
<text text-anchor="start" x="395" y="-312.5" font-family="Helvetica,sans-Serif" font-size="10.00">Leosac::Module::WebSockAPI</text>
<text text-anchor="middle" x="462.5" y="-301.5" font-family="Helvetica,sans-Serif" font-size="10.00">::DoorCRUD</text>
</a>
</g>
</g>
<!-- Node1&#45;&gt;Node6 -->
<g id="edge6" class="edge"><title>Node1&#45;&gt;Node6</title>
<path fill="none" stroke="midnightblue" d="M338.588,-278.05C359.617,-283.431 382.551,-289.299 402.853,-294.494"/>
<polygon fill="midnightblue" stroke="midnightblue" points="339.313,-274.623 328.758,-275.535 337.578,-281.404 339.313,-274.623"/>
</g>
<!-- Node7 -->
<g id="node8" class="node"><title>Node7</title>
<g id="a_node8"><a xlink:href="../../de/d3d/classLeosac_1_1Module_1_1WebSockAPI_1_1GroupCRUD.html" target="_top" xlink:title="CRUD Handler for Groups. ">
<polygon fill="white" stroke="black" points="387,-245.5 387,-275.5 538,-275.5 538,-245.5 387,-245.5"/>
<text text-anchor="start" x="395" y="-263.5" font-family="Helvetica,sans-Serif" font-size="10.00">Leosac::Module::WebSockAPI</text>
<text text-anchor="middle" x="462.5" y="-252.5" font-family="Helvetica,sans-Serif" font-size="10.00">::GroupCRUD</text>
</a>
</g>
</g>
<!-- Node1&#45;&gt;Node7 -->
<g id="edge7" class="edge"><title>Node1&#45;&gt;Node7</title>
<path fill="none" stroke="midnightblue" d="M354.751,-260.5C365.43,-260.5 376.294,-260.5 386.801,-260.5"/>
<polygon fill="midnightblue" stroke="midnightblue" points="354.587,-257 344.587,-260.5 354.587,-264 354.587,-257"/>
</g>
<!-- Node8 -->
<g id="node9" class="node"><title>Node8</title>
<g id="a_node9"><a xlink:href="../../db/de3/classLeosac_1_1Module_1_1WebSockAPI_1_1MembershipCRUD.html" target="_top" xlink:title="CRUD Handler for UserGroupMembership. ">
<polygon fill="white" stroke="black" points="387,-196.5 387,-226.5 538,-226.5 538,-196.5 387,-196.5"/>
<text text-anchor="start" x="395" y="-214.5" font-family="Helvetica,sans-Serif" font-size="10.00">Leosac::Module::WebSockAPI</text>
<text text-anchor="middle" x="462.5" y="-203.5" font-family="Helvetica,sans-Serif" font-size="10.00">::MembershipCRUD</text>
</a>
</g>
</g>
<!-- Node1&#45;&gt;Node8 -->
<g id="edge8" class="edge"><title>Node1&#45;&gt;Node8</title>
<path fill="none" stroke="midnightblue" d="M338.588,-242.95C359.617,-237.569 382.551,-231.701 402.853,-226.506"/>
<polygon fill="midnightblue" stroke="midnightblue" points="337.578,-239.596 328.758,-245.465 339.313,-246.377 337.578,-239.596"/>
</g>
<!-- Node9 -->
<g id="node10" class="node"><title>Node9</title>
<g id="a_node10"><a xlink:href="../../d9/db2/classLeosac_1_1Module_1_1WebSockAPI_1_1ScheduleCRUD.html" target="_top" xlink:title="CRUD Handler for schedules. ">
<polygon fill="white" stroke="black" points="387,-147.5 387,-177.5 538,-177.5 538,-147.5 387,-147.5"/>
<text text-anchor="start" x="395" y="-165.5" font-family="Helvetica,sans-Serif" font-size="10.00">Leosac::Module::WebSockAPI</text>
<text text-anchor="middle" x="462.5" y="-154.5" font-family="Helvetica,sans-Serif" font-size="10.00">::ScheduleCRUD</text>
</a>
</g>
</g>
<!-- Node1&#45;&gt;Node9 -->
<g id="edge9" class="edge"><title>Node1&#45;&gt;Node9</title>
<path fill="none" stroke="midnightblue" d="M344.279,-240.762C346.599,-239.431 348.848,-238.013 351,-236.5 373.109,-220.961 365.172,-203.431 387,-187.5 392.29,-183.639 398.215,-180.348 404.351,-177.547"/>
<polygon fill="midnightblue" stroke="midnightblue" points="342.351,-237.815 335.022,-245.466 345.523,-244.055 342.351,-237.815"/>
</g>
<!-- Node10 -->
<g id="node11" class="node"><title>Node10</title>
<g id="a_node11"><a xlink:href="../../db/d03/classLeosac_1_1Module_1_1WebSockAPI_1_1UserCRUD.html" target="_top" xlink:title="CRUD Handler for Users. ">
<polygon fill="white" stroke="black" points="387,-98.5 387,-128.5 538,-128.5 538,-98.5 387,-98.5"/>
<text text-anchor="start" x="395" y="-116.5" font-family="Helvetica,sans-Serif" font-size="10.00">Leosac::Module::WebSockAPI</text>
<text text-anchor="middle" x="462.5" y="-105.5" font-family="Helvetica,sans-Serif" font-size="10.00">::UserCRUD</text>
</a>
</g>
</g>
<!-- Node1&#45;&gt;Node10 -->
<g id="edge10" class="edge"><title>Node1&#45;&gt;Node10</title>
<path fill="none" stroke="midnightblue" d="M347.46,-239.559C348.682,-238.585 349.863,-237.566 351,-236.5 384.844,-204.756 353.729,-170.843 387,-138.5 391.011,-134.601 395.648,-131.31 400.608,-128.531"/>
<polygon fill="midnightblue" stroke="midnightblue" points="345.212,-236.854 338.888,-245.354 349.132,-242.653 345.212,-236.854"/>
</g>
<!-- Node11 -->
<g id="node12" class="node"><title>Node11</title>
<g id="a_node12"><a xlink:href="../../da/df1/classLeosac_1_1Module_1_1WebSockAPI_1_1ZoneCRUD.html" target="_top" xlink:title="CRUD Handler for Zones. ">
<polygon fill="white" stroke="black" points="387,-49.5 387,-79.5 538,-79.5 538,-49.5 387,-49.5"/>
<text text-anchor="start" x="395" y="-67.5" font-family="Helvetica,sans-Serif" font-size="10.00">Leosac::Module::WebSockAPI</text>
<text text-anchor="middle" x="462.5" y="-56.5" font-family="Helvetica,sans-Serif" font-size="10.00">::ZoneCRUD</text>
</a>
</g>
</g>
<!-- Node1&#45;&gt;Node11 -->
<g id="edge11" class="edge"><title>Node1&#45;&gt;Node11</title>
<path fill="none" stroke="midnightblue" d="M348.163,-239.255C349.142,-238.373 350.089,-237.455 351,-236.5 397.411,-187.812 341.466,-139.009 387,-89.5 390.509,-85.6842 394.619,-82.4504 399.072,-79.7098"/>
<polygon fill="midnightblue" stroke="midnightblue" points="345.969,-236.526 340.082,-245.334 350.177,-242.12 345.969,-236.526"/>
</g>
<!-- Node12 -->
<g id="node13" class="node"><title>Node12</title>
<g id="a_node13"><a xlink:href="../../d6/ded/classLeosac_1_1Module_1_1Wiegand_1_1CRUDHandler.html" target="_top" xlink:title="Leosac::Module::Wiegand\l::CRUDHandler">
<polygon fill="white" stroke="black" points="397.5,-0.5 397.5,-30.5 527.5,-30.5 527.5,-0.5 397.5,-0.5"/>
<text text-anchor="start" x="405.5" y="-18.5" font-family="Helvetica,sans-Serif" font-size="10.00">Leosac::Module::Wiegand</text>
<text text-anchor="middle" x="462.5" y="-7.5" font-family="Helvetica,sans-Serif" font-size="10.00">::CRUDHandler</text>
</a>
</g>
</g>
<!-- Node1&#45;&gt;Node12 -->
<g id="edge12" class="edge"><title>Node1&#45;&gt;Node12</title>
<path fill="none" stroke="midnightblue" d="M348.638,-238.949C349.452,-238.162 350.24,-237.345 351,-236.5 410.208,-170.631 328.977,-107.416 387,-40.5 390.307,-36.6862 394.214,-33.4526 398.479,-30.7112"/>
<polygon fill="midnightblue" stroke="midnightblue" points="346.309,-236.331 340.681,-245.307 350.678,-241.8 346.309,-236.331"/>
</g>
</g>
</svg>
