<?xml version="1.0" encoding="UTF-8" standalone="no"?>
<!DOCTYPE svg PUBLIC "-//W3C//DTD SVG 1.1//EN"
 "http://www.w3.org/Graphics/SVG/1.1/DTD/svg11.dtd">
<!-- Generated by graphviz version 2.38.0 (20140413.2041)
 -->
<!-- Title: src/core/module_manager.hpp Pages: 1 -->
<!--zoomable 319 -->
<svg id="main" version="1.1" xmlns="http://www.w3.org/2000/svg" xmlns:xlink="http://www.w3.org/1999/xlink" xml:space="preserve" onload="init(evt)">
<style type="text/css"><![CDATA[
.edge:hover path { stroke: red; }
.edge:hover polygon { stroke: red; fill: red; }
]]></style>
<script type="text/javascript"><![CDATA[
var edges = document.getElementsByTagName('g');
if (edges && edges.length) {
  for (var i=0;i<edges.length;i++) {
    if (edges[i].id.substr(0,4)=='edge') {
      edges[i].setAttribute('class','edge');
    }
  }
}
]]></script>
        <defs>
                <circle id="rim" cx="0" cy="0" r="7"/>
                <circle id="rim2" cx="0" cy="0" r="3.5"/>
                <g id="zoomPlus">
                        <use xlink:href="#rim" fill="#404040">
                                <set attributeName="fill" to="#808080" begin="zoomplus.mouseover" end="zoomplus.mouseout"/>
                        </use>
                        <path d="M-4,0h8M0,-4v8" fill="none" stroke="white" stroke-width="1.5" pointer-events="none"/>
                </g>
                <g id="zoomMin">
                        <use xlink:href="#rim" fill="#404040">
                                <set attributeName="fill" to="#808080" begin="zoomminus.mouseover" end="zoomminus.mouseout"/>
                        </use>
                        <path d="M-4,0h8" fill="none" stroke="white" stroke-width="1.5" pointer-events="none"/>
                </g>
                <g id="dirArrow">
                        <path fill="none" stroke="white" stroke-width="1.5" d="M0,-3.0v7 M-2.5,-0.5L0,-3.0L2.5,-0.5"/>
                </g>
               <g id="resetDef">
                       <use xlink:href="#rim2" fill="#404040">
                               <set attributeName="fill" to="#808080" begin="reset.mouseover" end="reset.mouseout"/>
                       </use>
               </g>
        </defs>

<script type="text/javascript">
var viewWidth = 1939;
var viewHeight = 319;
var sectionId = 'dynsection-0';
</script>
<script xlink:href="../../svgpan.js"/>
<svg id="graph" class="graph">
<g id="viewport">
<title>src/core/module_manager.hpp</title>
<polygon fill="white" stroke="none" points="-4,4 -4,-315 1935.32,-315 1935.32,4 -4,4"/>
<!-- Node0 -->
<g id="node1" class="node"><title>Node0</title>
<polygon fill="#bfbfbf" stroke="black" points="1479.82,-291.5 1479.82,-310.5 1627.82,-310.5 1627.82,-291.5 1479.82,-291.5"/>
<text text-anchor="middle" x="1553.82" y="-298.5" font-family="Helvetica,sans-Serif" font-size="10.00">src/core/module_manager.hpp</text>
</g>
<!-- Node1 -->
<g id="node2" class="node"><title>Node1</title>
<g id="a_node2"><a xlink:href="../../dc/d49/LeosacFwd_8hpp.html" target="_top" xlink:title="LeosacFwd.hpp">
<polygon fill="white" stroke="black" points="28.8152,-235.5 28.8152,-254.5 114.815,-254.5 114.815,-235.5 28.8152,-235.5"/>
<text text-anchor="middle" x="71.8152" y="-242.5" font-family="Helvetica,sans-Serif" font-size="10.00">LeosacFwd.hpp</text>
</a>
</g>
</g>
<!-- Node0&#45;&gt;Node1 -->
<g id="edge1" class="edge"><title>Node0&#45;&gt;Node1</title>
<path fill="none" stroke="midnightblue" d="M1479.56,-297.294C1219.01,-287.801 350.036,-256.138 125.262,-247.947"/>
<polygon fill="midnightblue" stroke="midnightblue" points="125.172,-244.442 115.051,-247.575 124.917,-251.437 125.172,-244.442"/>
</g>
<!-- Node3 -->
<g id="node4" class="node"><title>Node3</title>
<polygon fill="white" stroke="#bfbfbf" points="32.8152,-56.5 32.8152,-75.5 76.8152,-75.5 76.8152,-56.5 32.8152,-56.5"/>
<text text-anchor="middle" x="54.8152" y="-63.5" font-family="Helvetica,sans-Serif" font-size="10.00">vector</text>
</g>
<!-- Node0&#45;&gt;Node3 -->
<g id="edge63" class="edge"><title>Node0&#45;&gt;Node3</title>
<path fill="none" stroke="midnightblue" d="M1479.66,-299.216C1176.42,-295.837 45.5257,-281.476 19.8152,-255 -26.0453,-207.775 20.1321,-120.922 43.2861,-84.159"/>
<polygon fill="midnightblue" stroke="midnightblue" points="46.3536,-85.8614 48.8596,-75.5672 40.481,-82.0518 46.3536,-85.8614"/>
</g>
<!-- Node4 -->
<g id="node5" class="node"><title>Node4</title>
<polygon fill="white" stroke="#bfbfbf" points="1398.32,-168.5 1398.32,-198.5 1499.32,-198.5 1499.32,-168.5 1398.32,-168.5"/>
<text text-anchor="start" x="1406.32" y="-186.5" font-family="Helvetica,sans-Serif" font-size="10.00">boost/property_tree</text>
<text text-anchor="middle" x="1448.82" y="-175.5" font-family="Helvetica,sans-Serif" font-size="10.00">/ptree.hpp</text>
</g>
<!-- Node0&#45;&gt;Node4 -->
<g id="edge4" class="edge"><title>Node0&#45;&gt;Node4</title>
<path fill="none" stroke="midnightblue" d="M1545.92,-291.319C1529.59,-273.347 1491.64,-231.606 1468.31,-205.948"/>
<polygon fill="midnightblue" stroke="midnightblue" points="1470.9,-203.59 1461.58,-198.545 1465.72,-208.299 1470.9,-203.59"/>
</g>
<!-- Node5 -->
<g id="node6" class="node"><title>Node5</title>
<g id="a_node6"><a xlink:href="../../db/d79/ConfigManager_8hpp.html" target="_top" xlink:title="core/config/ConfigManager.hpp">
<polygon fill="white" stroke="black" points="785.815,-235.5 785.815,-254.5 937.815,-254.5 937.815,-235.5 785.815,-235.5"/>
<text text-anchor="middle" x="861.815" y="-242.5" font-family="Helvetica,sans-Serif" font-size="10.00">core/config/ConfigManager.hpp</text>
</a>
</g>
</g>
<!-- Node0&#45;&gt;Node5 -->
<g id="edge5" class="edge"><title>Node0&#45;&gt;Node5</title>
<path fill="none" stroke="midnightblue" d="M1479.76,-294.221C1350.67,-284.148 1085.15,-263.428 948.015,-252.727"/>
<polygon fill="midnightblue" stroke="midnightblue" points="948.207,-249.231 937.965,-251.942 947.662,-256.21 948.207,-249.231"/>
</g>
<!-- Node8 -->
<g id="node9" class="node"><title>Node8</title>
<polygon fill="white" stroke="#bfbfbf" points="855.315,-0.5 855.315,-19.5 896.315,-19.5 896.315,-0.5 855.315,-0.5"/>
<text text-anchor="middle" x="875.815" y="-7.5" font-family="Helvetica,sans-Serif" font-size="10.00">string</text>
</g>
<!-- Node0&#45;&gt;Node8 -->
<g id="edge62" class="edge"><title>Node0&#45;&gt;Node8</title>
<path fill="none" stroke="midnightblue" d="M1555.57,-291.28C1559.55,-270.034 1568.4,-213.965 1560.82,-168 1550.37,-104.719 1529.65,-79.093 1469.82,-56 1365.46,-15.7241 1013.33,-11.3834 906.681,-11.0053"/>
<polygon fill="midnightblue" stroke="midnightblue" points="906.591,-7.5052 896.581,-10.9791 906.572,-14.5052 906.591,-7.5052"/>
</g>
<!-- Node27 -->
<g id="node28" class="node"><title>Node27</title>
<polygon fill="white" stroke="#bfbfbf" points="1517.32,-174 1517.32,-193 1552.32,-193 1552.32,-174 1517.32,-174"/>
<text text-anchor="middle" x="1534.82" y="-181" font-family="Helvetica,sans-Serif" font-size="10.00">map</text>
</g>
<!-- Node0&#45;&gt;Node27 -->
<g id="edge60" class="edge"><title>Node0&#45;&gt;Node27</title>
<path fill="none" stroke="midnightblue" d="M1552.39,-291.319C1549.33,-272.757 1542.11,-228.839 1537.94,-203.473"/>
<polygon fill="midnightblue" stroke="midnightblue" points="1541.34,-202.581 1536.26,-193.282 1534.43,-203.718 1541.34,-202.581"/>
</g>
<!-- Node29 -->
<g id="node30" class="node"><title>Node29</title>
<g id="a_node30"><a xlink:href="../../d7/dbe/dynamiclibrary_8hpp.html" target="_top" xlink:title="DynamicLibrary class. ">
<polygon fill="white" stroke="black" points="1601.32,-235.5 1601.32,-254.5 1728.32,-254.5 1728.32,-235.5 1601.32,-235.5"/>
<text text-anchor="middle" x="1664.82" y="-242.5" font-family="Helvetica,sans-Serif" font-size="10.00">dynlib/dynamiclibrary.hpp</text>
</a>
</g>
</g>
<!-- Node0&#45;&gt;Node29 -->
<g id="edge56" class="edge"><title>Node0&#45;&gt;Node29</title>
<path fill="none" stroke="midnightblue" d="M1571.65,-291.324C1589.53,-282.625 1617.29,-269.12 1637.86,-259.113"/>
<polygon fill="midnightblue" stroke="midnightblue" points="1639.56,-262.177 1647.03,-254.655 1636.5,-255.882 1639.56,-262.177"/>
</g>
<!-- Node31 -->
<g id="node32" class="node"><title>Node31</title>
<polygon fill="white" stroke="#bfbfbf" points="1746.32,-235.5 1746.32,-254.5 1775.32,-254.5 1775.32,-235.5 1746.32,-235.5"/>
<text text-anchor="middle" x="1760.82" y="-242.5" font-family="Helvetica,sans-Serif" font-size="10.00">list</text>
</g>
<!-- Node0&#45;&gt;Node31 -->
<g id="edge59" class="edge"><title>Node0&#45;&gt;Node31</title>
<path fill="none" stroke="midnightblue" d="M1594.53,-291.431C1629.75,-283.698 1682.17,-271.425 1736.4,-254.833"/>
<polygon fill="midnightblue" stroke="midnightblue" points="1737.67,-258.103 1746.19,-251.798 1735.6,-251.418 1737.67,-258.103"/>
</g>
<!-- Node32 -->
<g id="node33" class="node"><title>Node32</title>
<polygon fill="white" stroke="#bfbfbf" points="1793.82,-235.5 1793.82,-254.5 1823.82,-254.5 1823.82,-235.5 1793.82,-235.5"/>
<text text-anchor="middle" x="1808.82" y="-242.5" font-family="Helvetica,sans-Serif" font-size="10.00">set</text>
</g>
<!-- Node0&#45;&gt;Node32 -->
<g id="edge61" class="edge"><title>Node0&#45;&gt;Node32</title>
<path fill="none" stroke="midnightblue" d="M1610.14,-291.443C1657.05,-283.732 1725.38,-271.134 1783.82,-255 1783.92,-254.972 1784.02,-254.945 1784.12,-254.917"/>
<polygon fill="midnightblue" stroke="midnightblue" points="1785.13,-258.266 1793.6,-251.895 1783.01,-251.597 1785.13,-258.266"/>
</g>
<!-- Node33 -->
<g id="node34" class="node"><title>Node33</title>
<polygon fill="white" stroke="#bfbfbf" points="1842.32,-235.5 1842.32,-254.5 1931.32,-254.5 1931.32,-235.5 1842.32,-235.5"/>
<text text-anchor="middle" x="1886.82" y="-242.5" font-family="Helvetica,sans-Serif" font-size="10.00">zmqpp/actor.hpp</text>
</g>
<!-- Node0&#45;&gt;Node33 -->
<g id="edge64" class="edge"><title>Node0&#45;&gt;Node33</title>
<path fill="none" stroke="midnightblue" d="M1607.06,-291.498C1661.07,-282.853 1747.37,-268.988 1831.99,-255.129"/>
<polygon fill="midnightblue" stroke="midnightblue" points="1832.73,-258.554 1842.03,-253.483 1831.59,-251.647 1832.73,-258.554"/>
</g>
<!-- Node2 -->
<g id="node3" class="node"><title>Node2</title>
<polygon fill="white" stroke="#bfbfbf" points="45.8152,-174 45.8152,-193 97.8152,-193 97.8152,-174 45.8152,-174"/>
<text text-anchor="middle" x="71.8152" y="-181" font-family="Helvetica,sans-Serif" font-size="10.00">memory</text>
</g>
<!-- Node1&#45;&gt;Node2 -->
<g id="edge2" class="edge"><title>Node1&#45;&gt;Node2</title>
<path fill="none" stroke="midnightblue" d="M71.8152,-235.475C71.8152,-227.08 71.8152,-213.981 71.8152,-203.163"/>
<polygon fill="midnightblue" stroke="midnightblue" points="75.3153,-203.009 71.8152,-193.009 68.3153,-203.009 75.3153,-203.009"/>
</g>
<!-- Node1&#45;&gt;Node3 -->
<g id="edge3" class="edge"><title>Node1&#45;&gt;Node3</title>
<path fill="none" stroke="midnightblue" d="M62.2595,-235.45C53.7267,-227.12 41.826,-213.604 36.8152,-199 23.4167,-159.95 37.4541,-111.181 47.1812,-85.2313"/>
<polygon fill="midnightblue" stroke="midnightblue" points="50.5665,-86.1884 50.9935,-75.6022 44.0581,-83.6116 50.5665,-86.1884"/>
</g>
<!-- Node5&#45;&gt;Node2 -->
<g id="edge52" class="edge"><title>Node5&#45;&gt;Node2</title>
<path fill="none" stroke="midnightblue" d="M785.731,-242.208C621.613,-237.892 238.918,-225.275 111.815,-199 108.384,-198.291 104.85,-197.346 101.371,-196.278"/>
<polygon fill="midnightblue" stroke="midnightblue" points="102.431,-192.942 91.8366,-193.034 100.176,-199.569 102.431,-192.942"/>
</g>
<!-- Node5&#45;&gt;Node3 -->
<g id="edge54" class="edge"><title>Node5&#45;&gt;Node3</title>
<path fill="none" stroke="midnightblue" d="M785.587,-242.976C612.275,-240.114 199.417,-230.084 144.815,-199 99.9473,-173.457 72.7451,-115.272 61.24,-85.4181"/>
<polygon fill="midnightblue" stroke="midnightblue" points="64.4445,-83.9913 57.7079,-75.8141 57.8748,-86.4076 64.4445,-83.9913"/>
</g>
<!-- Node5&#45;&gt;Node4 -->
<g id="edge50" class="edge"><title>Node5&#45;&gt;Node4</title>
<path fill="none" stroke="midnightblue" d="M937.833,-240.632C1039.79,-235.389 1226.26,-223.253 1383.82,-199 1385.28,-198.775 1386.76,-198.535 1388.25,-198.284"/>
<polygon fill="midnightblue" stroke="midnightblue" points="1388.98,-201.709 1398.2,-196.477 1387.73,-194.822 1388.98,-201.709"/>
</g>
<!-- Node6 -->
<g id="node7" class="node"><title>Node6</title>
<g id="a_node7"><a xlink:href="../../d1/ddd/leosacexception_8hpp.html" target="_top" xlink:title="Exception class for LEOSAC Project related errors. ">
<polygon fill="white" stroke="black" points="786.315,-174 786.315,-193 937.315,-193 937.315,-174 786.315,-174"/>
<text text-anchor="middle" x="861.815" y="-181" font-family="Helvetica,sans-Serif" font-size="10.00">exception/leosacexception.hpp</text>
</a>
</g>
</g>
<!-- Node5&#45;&gt;Node6 -->
<g id="edge6" class="edge"><title>Node5&#45;&gt;Node6</title>
<path fill="none" stroke="midnightblue" d="M861.815,-235.475C861.815,-227.08 861.815,-213.981 861.815,-203.163"/>
<polygon fill="midnightblue" stroke="midnightblue" points="865.315,-203.009 861.815,-193.009 858.315,-203.009 865.315,-203.009"/>
</g>
<!-- Node5&#45;&gt;Node8 -->
<g id="edge53" class="edge"><title>Node5&#45;&gt;Node8</title>
<path fill="none" stroke="midnightblue" d="M925.397,-235.472C1087.25,-213.466 1503.47,-154.895 1522.82,-132 1605.57,-34.0478 1046,-14.8448 906.697,-11.5978"/>
<polygon fill="midnightblue" stroke="midnightblue" points="906.4,-8.0905 896.325,-11.3679 906.245,-15.0888 906.4,-8.0905"/>
</g>
<!-- Node22 -->
<g id="node23" class="node"><title>Node22</title>
<g id="a_node23"><a xlink:href="../../d4/d3d/log_8hpp.html" target="_top" xlink:title="tools/log.hpp">
<polygon fill="white" stroke="black" points="213.815,-56.5 213.815,-75.5 285.815,-75.5 285.815,-56.5 213.815,-56.5"/>
<text text-anchor="middle" x="249.815" y="-63.5" font-family="Helvetica,sans-Serif" font-size="10.00">tools/log.hpp</text>
</a>
</g>
</g>
<!-- Node5&#45;&gt;Node22 -->
<g id="edge43" class="edge"><title>Node5&#45;&gt;Node22</title>
<path fill="none" stroke="midnightblue" d="M791.549,-235.464C615.626,-213.764 168.753,-156.478 147.815,-132 126.855,-107.496 167.743,-89.0009 203.821,-78.1231"/>
<polygon fill="midnightblue" stroke="midnightblue" points="205.166,-81.3786 213.814,-75.2583 203.237,-74.6497 205.166,-81.3786"/>
</g>
<!-- Node5&#45;&gt;Node27 -->
<g id="edge51" class="edge"><title>Node5&#45;&gt;Node27</title>
<path fill="none" stroke="midnightblue" d="M937.846,-242.704C1084.86,-239.54 1402.84,-229.32 1507.82,-199 1509.28,-198.576 1510.76,-198.063 1512.23,-197.489"/>
<polygon fill="midnightblue" stroke="midnightblue" points="1514.03,-200.51 1521.56,-193.056 1511.03,-194.188 1514.03,-200.51"/>
</g>
<!-- Node28 -->
<g id="node29" class="node"><title>Node28</title>
<polygon fill="white" stroke="#bfbfbf" points="154.315,-174 154.315,-193 251.315,-193 251.315,-174 154.315,-174"/>
<text text-anchor="middle" x="202.815" y="-181" font-family="Helvetica,sans-Serif" font-size="10.00">zmqpp/zmqpp.hpp</text>
</g>
<!-- Node5&#45;&gt;Node28 -->
<g id="edge55" class="edge"><title>Node5&#45;&gt;Node28</title>
<path fill="none" stroke="midnightblue" d="M785.665,-241.925C671.942,-237.997 451.245,-227.175 265.815,-199 259.334,-198.015 252.531,-196.725 245.891,-195.32"/>
<polygon fill="midnightblue" stroke="midnightblue" points="246.18,-191.799 235.658,-193.045 244.661,-198.632 246.18,-191.799"/>
</g>
<!-- Node7 -->
<g id="node8" class="node"><title>Node7</title>
<g id="a_node8"><a xlink:href="../../d6/d2f/Stacktrace_8hpp.html" target="_top" xlink:title="tools/Stacktrace.hpp">
<polygon fill="white" stroke="black" points="157.315,-112.5 157.315,-131.5 264.315,-131.5 264.315,-112.5 157.315,-112.5"/>
<text text-anchor="middle" x="210.815" y="-119.5" font-family="Helvetica,sans-Serif" font-size="10.00">tools/Stacktrace.hpp</text>
</a>
</g>
</g>
<!-- Node6&#45;&gt;Node7 -->
<g id="edge7" class="edge"><title>Node6&#45;&gt;Node7</title>
<path fill="none" stroke="midnightblue" d="M786.03,-177.36C675.88,-169.584 464.886,-153.545 274.599,-132.025"/>
<polygon fill="midnightblue" stroke="midnightblue" points="274.737,-128.518 264.405,-130.865 273.945,-135.473 274.737,-128.518"/>
</g>
<!-- Node6&#45;&gt;Node8 -->
<g id="edge12" class="edge"><title>Node6&#45;&gt;Node8</title>
<path fill="none" stroke="midnightblue" d="M937.598,-177.883C1004.38,-172.045 1094.44,-159.246 1116.82,-132 1178.12,-57.3657 984.117,-24.4429 906.474,-14.4722"/>
<polygon fill="midnightblue" stroke="midnightblue" points="906.683,-10.9715 896.329,-13.2157 905.823,-17.9184 906.683,-10.9715"/>
</g>
<!-- Node9 -->
<g id="node10" class="node"><title>Node9</title>
<polygon fill="white" stroke="#bfbfbf" points="982.315,-112.5 982.315,-131.5 1031.32,-131.5 1031.32,-112.5 982.315,-112.5"/>
<text text-anchor="middle" x="1006.82" y="-119.5" font-family="Helvetica,sans-Serif" font-size="10.00">cstddef</text>
</g>
<!-- Node6&#45;&gt;Node9 -->
<g id="edge10" class="edge"><title>Node6&#45;&gt;Node9</title>
<path fill="none" stroke="midnightblue" d="M882.59,-173.975C907.247,-163.857 948.56,-146.905 976.717,-135.351"/>
<polygon fill="midnightblue" stroke="midnightblue" points="978.156,-138.543 986.079,-131.509 975.499,-132.067 978.156,-138.543"/>
</g>
<!-- Node10 -->
<g id="node11" class="node"><title>Node10</title>
<polygon fill="white" stroke="#bfbfbf" points="1049.32,-112.5 1049.32,-131.5 1108.32,-131.5 1108.32,-112.5 1049.32,-112.5"/>
<text text-anchor="middle" x="1078.82" y="-119.5" font-family="Helvetica,sans-Serif" font-size="10.00">exception</text>
</g>
<!-- Node6&#45;&gt;Node10 -->
<g id="edge11" class="edge"><title>Node6&#45;&gt;Node10</title>
<path fill="none" stroke="midnightblue" d="M892.906,-173.975C931.448,-163.407 997.184,-145.383 1039.27,-133.842"/>
<polygon fill="midnightblue" stroke="midnightblue" points="1040.46,-137.147 1049.18,-131.127 1038.61,-130.396 1040.46,-137.147"/>
</g>
<!-- Node11 -->
<g id="node12" class="node"><title>Node11</title>
<g id="a_node12"><a xlink:href="../../d7/d7a/configexception_8hpp.html" target="_top" xlink:title="configexception.hpp">
<polygon fill="white" stroke="black" points="282.815,-112.5 282.815,-131.5 386.815,-131.5 386.815,-112.5 282.815,-112.5"/>
<text text-anchor="middle" x="334.815" y="-119.5" font-family="Helvetica,sans-Serif" font-size="10.00">configexception.hpp</text>
</a>
</g>
</g>
<!-- Node6&#45;&gt;Node11 -->
<g id="edge13" class="edge"><title>Node6&#45;&gt;Node11</title>
<path fill="none" stroke="midnightblue" d="M786.066,-175.805C694.275,-167.048 534.952,-150.751 393.436,-132.834"/>
<polygon fill="midnightblue" stroke="midnightblue" points="393.64,-129.332 383.278,-131.541 392.756,-136.276 393.64,-129.332"/>
</g>
<!-- Node14 -->
<g id="node15" class="node"><title>Node14</title>
<g id="a_node15"><a xlink:href="../../d8/db0/coreexception_8hpp.html" target="_top" xlink:title="Exception class for Core related errors. ">
<polygon fill="white" stroke="black" points="404.815,-112.5 404.815,-131.5 500.815,-131.5 500.815,-112.5 404.815,-112.5"/>
<text text-anchor="middle" x="452.815" y="-119.5" font-family="Helvetica,sans-Serif" font-size="10.00">coreexception.hpp</text>
</a>
</g>
</g>
<!-- Node6&#45;&gt;Node14 -->
<g id="edge19" class="edge"><title>Node6&#45;&gt;Node14</title>
<path fill="none" stroke="midnightblue" d="M793.901,-173.959C723.415,-164.428 609.976,-148.38 507.405,-132.988"/>
<polygon fill="midnightblue" stroke="midnightblue" points="507.924,-129.526 497.515,-131.5 506.883,-136.449 507.924,-129.526"/>
</g>
<!-- Node15 -->
<g id="node16" class="node"><title>Node15</title>
<g id="a_node16"><a xlink:href="../../d8/d77/deviceexception_8hpp.html" target="_top" xlink:title="Exception class for Device related errors. ">
<polygon fill="white" stroke="black" points="518.815,-112.5 518.815,-131.5 624.815,-131.5 624.815,-112.5 518.815,-112.5"/>
<text text-anchor="middle" x="571.815" y="-119.5" font-family="Helvetica,sans-Serif" font-size="10.00">deviceexception.hpp</text>
</a>
</g>
</g>
<!-- Node6&#45;&gt;Node15 -->
<g id="edge22" class="edge"><title>Node6&#45;&gt;Node15</title>
<path fill="none" stroke="midnightblue" d="M815.365,-173.975C761.256,-163.349 672.585,-145.185 618.416,-133.652"/>
<polygon fill="midnightblue" stroke="midnightblue" points="618.902,-130.177 608.391,-131.509 617.438,-137.023 618.902,-130.177"/>
</g>
<!-- Node16 -->
<g id="node17" class="node"><title>Node16</title>
<g id="a_node17"><a xlink:href="../../db/d35/dynlibexception_8hpp.html" target="_top" xlink:title="Exception class for DynLib related errors. ">
<polygon fill="white" stroke="black" points="643.315,-112.5 643.315,-131.5 746.315,-131.5 746.315,-112.5 643.315,-112.5"/>
<text text-anchor="middle" x="694.815" y="-119.5" font-family="Helvetica,sans-Serif" font-size="10.00">dynlibexception.hpp</text>
</a>
</g>
</g>
<!-- Node6&#45;&gt;Node16 -->
<g id="edge25" class="edge"><title>Node6&#45;&gt;Node16</title>
<path fill="none" stroke="midnightblue" d="M832.988,-173.975C802.249,-163.813 754.152,-146.756 723.483,-135.2"/>
<polygon fill="midnightblue" stroke="midnightblue" points="724.392,-131.8 713.801,-131.509 721.898,-138.341 724.392,-131.8"/>
</g>
<!-- Node17 -->
<g id="node18" class="node"><title>Node17</title>
<g id="a_node18"><a xlink:href="../../d0/d4e/fsexception_8hpp.html" target="_top" xlink:title="Exception class for filesystem related errors. ">
<polygon fill="white" stroke="black" points="764.815,-112.5 764.815,-131.5 850.815,-131.5 850.815,-112.5 764.815,-112.5"/>
<text text-anchor="middle" x="807.815" y="-119.5" font-family="Helvetica,sans-Serif" font-size="10.00">fsexception.hpp</text>
</a>
</g>
</g>
<!-- Node6&#45;&gt;Node17 -->
<g id="edge28" class="edge"><title>Node6&#45;&gt;Node17</title>
<path fill="none" stroke="midnightblue" d="M849.178,-173.975C839.131,-165.05 825.795,-150.807 816.789,-139.643"/>
<polygon fill="midnightblue" stroke="midnightblue" points="819.463,-137.376 810.641,-131.509 813.879,-141.597 819.463,-137.376"/>
</g>
<!-- Node18 -->
<g id="node19" class="node"><title>Node18</title>
<g id="a_node19"><a xlink:href="../../d1/d8e/gpioexception_8hpp.html" target="_top" xlink:title="Exception class for Gpio related errors. ">
<polygon fill="white" stroke="black" points="869.315,-112.5 869.315,-131.5 964.315,-131.5 964.315,-112.5 869.315,-112.5"/>
<text text-anchor="middle" x="916.815" y="-119.5" font-family="Helvetica,sans-Serif" font-size="10.00">gpioexception.hpp</text>
</a>
</g>
</g>
<!-- Node6&#45;&gt;Node18 -->
<g id="edge31" class="edge"><title>Node6&#45;&gt;Node18</title>
<path fill="none" stroke="midnightblue" d="M864.795,-173.975C871.348,-164.697 884.874,-149.671 896.654,-138.331"/>
<polygon fill="midnightblue" stroke="midnightblue" points="899.074,-140.861 904.052,-131.509 894.328,-135.715 899.074,-140.861"/>
</g>
<!-- Node19 -->
<g id="node20" class="node"><title>Node19</title>
<g id="a_node20"><a xlink:href="../../d7/d8c/moduleexception_8hpp.html" target="_top" xlink:title="Exception class for modules. ">
<polygon fill="white" stroke="black" points="1165.32,-112.5 1165.32,-131.5 1274.32,-131.5 1274.32,-112.5 1165.32,-112.5"/>
<text text-anchor="middle" x="1219.82" y="-119.5" font-family="Helvetica,sans-Serif" font-size="10.00">moduleexception.hpp</text>
</a>
</g>
</g>
<!-- Node6&#45;&gt;Node19 -->
<g id="edge34" class="edge"><title>Node6&#45;&gt;Node19</title>
<path fill="none" stroke="midnightblue" d="M908.207,-173.975C971.166,-163.118 1083.75,-144.391 1155.01,-132.909"/>
<polygon fill="midnightblue" stroke="midnightblue" points="1155.9,-136.312 1165.21,-131.27 1154.79,-129.401 1155.9,-136.312"/>
</g>
<!-- Node20 -->
<g id="node21" class="node"><title>Node20</title>
<g id="a_node21"><a xlink:href="../../df/d8d/scriptexception_8hpp.html" target="_top" xlink:title="Exception class for Script related errors. ">
<polygon fill="white" stroke="black" points="1292.32,-112.5 1292.32,-131.5 1393.32,-131.5 1393.32,-112.5 1292.32,-112.5"/>
<text text-anchor="middle" x="1342.82" y="-119.5" font-family="Helvetica,sans-Serif" font-size="10.00">scriptexception.hpp</text>
</a>
</g>
</g>
<!-- Node6&#45;&gt;Node20 -->
<g id="edge37" class="edge"><title>Node6&#45;&gt;Node20</title>
<path fill="none" stroke="midnightblue" d="M932.112,-173.964C1014.19,-164.428 1153.81,-148.195 1273.82,-132 1276.6,-131.624 1279.46,-131.228 1282.36,-130.821"/>
<polygon fill="midnightblue" stroke="midnightblue" points="1282.89,-134.28 1292.3,-129.405 1281.91,-127.35 1282.89,-134.28"/>
</g>
<!-- Node21 -->
<g id="node22" class="node"><title>Node21</title>
<g id="a_node22"><a xlink:href="../../dc/dce/signalexception_8hpp.html" target="_top" xlink:title="Exception class for Signal related errors. ">
<polygon fill="white" stroke="black" points="1411.32,-112.5 1411.32,-131.5 1514.32,-131.5 1514.32,-112.5 1411.32,-112.5"/>
<text text-anchor="middle" x="1462.82" y="-119.5" font-family="Helvetica,sans-Serif" font-size="10.00">signalexception.hpp</text>
</a>
</g>
</g>
<!-- Node6&#45;&gt;Node21 -->
<g id="edge40" class="edge"><title>Node6&#45;&gt;Node21</title>
<path fill="none" stroke="midnightblue" d="M937.628,-176.196C1040.79,-167.74 1230.86,-151.507 1392.82,-132 1395.61,-131.664 1398.46,-131.302 1401.36,-130.924"/>
<polygon fill="midnightblue" stroke="midnightblue" points="1401.85,-134.39 1411.29,-129.584 1400.91,-127.453 1401.85,-134.39"/>
</g>
<!-- Node7&#45;&gt;Node3 -->
<g id="edge9" class="edge"><title>Node7&#45;&gt;Node3</title>
<path fill="none" stroke="midnightblue" d="M186.097,-112.444C159.198,-103.133 116.107,-88.2163 86.684,-78.0315"/>
<polygon fill="midnightblue" stroke="midnightblue" points="87.4907,-74.607 76.8959,-74.6433 85.2009,-81.222 87.4907,-74.607"/>
</g>
<!-- Node7&#45;&gt;Node8 -->
<g id="edge8" class="edge"><title>Node7&#45;&gt;Node8</title>
<path fill="none" stroke="midnightblue" d="M227.043,-112.3C259.916,-94.6838 331.398,-56.417 332.815,-56 430.114,-27.3766 745.403,-15.1315 845.217,-11.9099"/>
<polygon fill="midnightblue" stroke="midnightblue" points="845.364,-15.4071 855.249,-11.5933 845.143,-8.41057 845.364,-15.4071"/>
</g>
<!-- Node11&#45;&gt;Node6 -->
<g id="edge14" class="edge"><title>Node11&#45;&gt;Node6</title>
<path fill="none" stroke="midnightblue" d="M387.023,-129.598C393.052,-130.442 399.081,-131.267 404.815,-132 534.161,-148.544 684.164,-164.163 776.076,-173.533"/>
<polygon fill="midnightblue" stroke="midnightblue" points="775.861,-177.029 786.164,-174.56 776.57,-170.065 775.861,-177.029"/>
</g>
<!-- Node11&#45;&gt;Node8 -->
<g id="edge18" class="edge"><title>Node11&#45;&gt;Node8</title>
<path fill="none" stroke="midnightblue" d="M368.978,-112.491C421.89,-99.4571 526.938,-74.152 616.815,-56 698.956,-39.4105 796.505,-23.4688 845.104,-15.7799"/>
<polygon fill="midnightblue" stroke="midnightblue" points="845.929,-19.1932 855.263,-14.1802 844.84,-12.2784 845.929,-19.1932"/>
</g>
<!-- Node12 -->
<g id="node13" class="node"><title>Node12</title>
<g id="a_node13"><a xlink:href="../../dd/d35/Colorize_8hpp.html" target="_top" xlink:title="tools/Colorize.hpp">
<polygon fill="white" stroke="black" points="342.315,-56.5 342.315,-75.5 437.315,-75.5 437.315,-56.5 342.315,-56.5"/>
<text text-anchor="middle" x="389.815" y="-63.5" font-family="Helvetica,sans-Serif" font-size="10.00">tools/Colorize.hpp</text>
</a>
</g>
</g>
<!-- Node11&#45;&gt;Node12 -->
<g id="edge15" class="edge"><title>Node11&#45;&gt;Node12</title>
<path fill="none" stroke="midnightblue" d="M343.897,-112.083C351.986,-104.141 364.011,-92.3354 373.725,-82.7973"/>
<polygon fill="midnightblue" stroke="midnightblue" points="376.218,-85.2545 380.902,-75.7511 371.314,-80.2595 376.218,-85.2545"/>
</g>
<!-- Node12&#45;&gt;Node8 -->
<g id="edge17" class="edge"><title>Node12&#45;&gt;Node8</title>
<path fill="none" stroke="midnightblue" d="M437.745,-59.6745C537.083,-48.637 763.008,-23.5341 845.195,-14.4022"/>
<polygon fill="midnightblue" stroke="midnightblue" points="845.599,-17.879 855.151,-13.296 844.826,-10.9218 845.599,-17.879"/>
</g>
<!-- Node13 -->
<g id="node14" class="node"><title>Node13</title>
<polygon fill="white" stroke="#bfbfbf" points="360.815,-0.5 360.815,-19.5 412.815,-19.5 412.815,-0.5 360.815,-0.5"/>
<text text-anchor="middle" x="386.815" y="-7.5" font-family="Helvetica,sans-Serif" font-size="10.00">sstream</text>
</g>
<!-- Node12&#45;&gt;Node13 -->
<g id="edge16" class="edge"><title>Node12&#45;&gt;Node13</title>
<path fill="none" stroke="midnightblue" d="M389.32,-56.083C388.927,-49.0059 388.363,-38.8611 387.87,-29.9865"/>
<polygon fill="midnightblue" stroke="midnightblue" points="391.351,-29.5415 387.301,-19.7511 384.362,-29.9299 391.351,-29.5415"/>
</g>
<!-- Node14&#45;&gt;Node6 -->
<g id="edge21" class="edge"><title>Node14&#45;&gt;Node6</title>
<path fill="none" stroke="midnightblue" d="M500.947,-129.27C507.001,-130.199 513.069,-131.134 518.815,-132 615.642,-146.589 727.606,-162.485 796.642,-172.469"/>
<polygon fill="midnightblue" stroke="midnightblue" points="796.528,-175.989 806.927,-173.959 797.532,-169.061 796.528,-175.989"/>
</g>
<!-- Node14&#45;&gt;Node8 -->
<g id="edge20" class="edge"><title>Node14&#45;&gt;Node8</title>
<path fill="none" stroke="midnightblue" d="M483.442,-112.459C529.004,-99.8091 617.374,-75.4887 692.815,-56 746.297,-42.184 808.832,-27.0187 845.216,-18.2932"/>
<polygon fill="midnightblue" stroke="midnightblue" points="846.282,-21.6369 855.193,-15.905 844.652,-14.8293 846.282,-21.6369"/>
</g>
<!-- Node15&#45;&gt;Node6 -->
<g id="edge24" class="edge"><title>Node15&#45;&gt;Node6</title>
<path fill="none" stroke="midnightblue" d="M618.185,-131.509C672.26,-142.128 760.931,-160.292 815.134,-171.83"/>
<polygon fill="midnightblue" stroke="midnightblue" points="814.655,-175.307 825.166,-173.975 816.119,-168.462 814.655,-175.307"/>
</g>
<!-- Node15&#45;&gt;Node8 -->
<g id="edge23" class="edge"><title>Node15&#45;&gt;Node8</title>
<path fill="none" stroke="midnightblue" d="M595.417,-112.46C650.013,-92.7048 784.973,-43.8706 845.542,-21.9541"/>
<polygon fill="midnightblue" stroke="midnightblue" points="847.065,-25.1253 855.277,-18.4315 844.683,-18.5429 847.065,-25.1253"/>
</g>
<!-- Node16&#45;&gt;Node6 -->
<g id="edge27" class="edge"><title>Node16&#45;&gt;Node6</title>
<path fill="none" stroke="midnightblue" d="M723.595,-131.509C754.316,-141.664 802.413,-158.72 833.1,-170.282"/>
<polygon fill="midnightblue" stroke="midnightblue" points="832.198,-173.684 842.789,-173.975 834.691,-167.143 832.198,-173.684"/>
</g>
<!-- Node16&#45;&gt;Node8 -->
<g id="edge26" class="edge"><title>Node16&#45;&gt;Node8</title>
<path fill="none" stroke="midnightblue" d="M709.018,-112.368C740.21,-93.4121 814.932,-48.0006 852.874,-24.9424"/>
<polygon fill="midnightblue" stroke="midnightblue" points="854.95,-27.7759 861.678,-19.5914 851.315,-21.794 854.95,-27.7759"/>
</g>
<!-- Node17&#45;&gt;Node6 -->
<g id="edge30" class="edge"><title>Node17&#45;&gt;Node6</title>
<path fill="none" stroke="midnightblue" d="M820.435,-131.509C830.478,-140.428 843.815,-154.669 852.825,-165.838"/>
<polygon fill="midnightblue" stroke="midnightblue" points="850.156,-168.11 858.979,-173.975 855.739,-163.888 850.156,-168.11"/>
</g>
<!-- Node17&#45;&gt;Node8 -->
<g id="edge29" class="edge"><title>Node17&#45;&gt;Node8</title>
<path fill="none" stroke="midnightblue" d="M813.151,-112.368C824.323,-94.2957 850.361,-52.1764 865.116,-28.3074"/>
<polygon fill="midnightblue" stroke="midnightblue" points="868.223,-29.9378 870.504,-19.5914 862.269,-26.257 868.223,-29.9378"/>
</g>
<!-- Node18&#45;&gt;Node6 -->
<g id="edge32" class="edge"><title>Node18&#45;&gt;Node6</title>
<path fill="none" stroke="midnightblue" d="M913.847,-131.509C907.302,-140.781 893.778,-155.806 881.996,-167.15"/>
<polygon fill="midnightblue" stroke="midnightblue" points="879.574,-164.622 874.596,-173.975 884.32,-169.768 879.574,-164.622"/>
</g>
<!-- Node18&#45;&gt;Node8 -->
<g id="edge33" class="edge"><title>Node18&#45;&gt;Node8</title>
<path fill="none" stroke="midnightblue" d="M913.598,-112.368C906.952,-94.5366 891.58,-53.2953 882.626,-29.2717"/>
<polygon fill="midnightblue" stroke="midnightblue" points="885.79,-27.7393 879.017,-19.5914 879.23,-30.1841 885.79,-27.7393"/>
</g>
<!-- Node19&#45;&gt;Node6 -->
<g id="edge36" class="edge"><title>Node19&#45;&gt;Node6</title>
<path fill="none" stroke="midnightblue" d="M1173.51,-131.509C1111.05,-142.282 999.611,-160.822 928.238,-172.33"/>
<polygon fill="midnightblue" stroke="midnightblue" points="927.326,-168.932 918.008,-173.975 928.437,-175.843 927.326,-168.932"/>
</g>
<!-- Node19&#45;&gt;Node8 -->
<g id="edge35" class="edge"><title>Node19&#45;&gt;Node8</title>
<path fill="none" stroke="midnightblue" d="M1213.32,-112.119C1202.25,-97.728 1178.26,-69.5588 1150.82,-56 1069.25,-15.7045 959.134,-10.3267 906.419,-10.3111"/>
<polygon fill="midnightblue" stroke="midnightblue" points="906.347,-6.81136 896.369,-10.3745 906.391,-13.8112 906.347,-6.81136"/>
</g>
<!-- Node20&#45;&gt;Node6 -->
<g id="edge39" class="edge"><title>Node20&#45;&gt;Node6</title>
<path fill="none" stroke="midnightblue" d="M1295.29,-131.526C1294.12,-131.687 1292.96,-131.845 1291.82,-132 1172.87,-148.051 1034.66,-164.141 947.655,-173.709"/>
<polygon fill="midnightblue" stroke="midnightblue" points="947.124,-170.247 937.565,-174.815 947.886,-177.205 947.124,-170.247"/>
</g>
<!-- Node20&#45;&gt;Node8 -->
<g id="edge38" class="edge"><title>Node20&#45;&gt;Node8</title>
<path fill="none" stroke="midnightblue" d="M1325.08,-112.392C1295.48,-98.394 1233.83,-70.7766 1178.82,-56 1081.31,-29.8115 961.789,-17.7174 906.527,-13.2156"/>
<polygon fill="midnightblue" stroke="midnightblue" points="906.601,-9.71067 896.357,-12.4145 906.051,-16.6891 906.601,-9.71067"/>
</g>
<!-- Node21&#45;&gt;Node6 -->
<g id="edge42" class="edge"><title>Node21&#45;&gt;Node6</title>
<path fill="none" stroke="midnightblue" d="M1414.68,-131.524C1413.38,-131.687 1412.09,-131.846 1410.82,-132 1247.8,-151.634 1056.32,-167.951 947.941,-176.36"/>
<polygon fill="midnightblue" stroke="midnightblue" points="947.416,-172.89 937.715,-177.149 947.955,-179.869 947.416,-172.89"/>
</g>
<!-- Node21&#45;&gt;Node8 -->
<g id="edge41" class="edge"><title>Node21&#45;&gt;Node8</title>
<path fill="none" stroke="midnightblue" d="M1436.1,-112.487C1392.08,-98.7495 1301.35,-71.6516 1222.82,-56 1107.32,-32.9817 967.759,-19.02 906.81,-13.5983"/>
<polygon fill="midnightblue" stroke="midnightblue" points="906.972,-10.0991 896.705,-12.714 906.361,-17.0725 906.972,-10.0991"/>
</g>
<!-- Node22&#45;&gt;Node8 -->
<g id="edge49" class="edge"><title>Node22&#45;&gt;Node8</title>
<path fill="none" stroke="midnightblue" d="M286.07,-58.0341C290.686,-57.277 295.354,-56.5743 299.815,-56 507.079,-29.3181 758.481,-16.261 844.907,-12.324"/>
<polygon fill="midnightblue" stroke="midnightblue" points="845.241,-15.8126 855.074,-11.8685 844.928,-8.81965 845.241,-15.8126"/>
</g>
<!-- Node22&#45;&gt;Node13 -->
<g id="edge48" class="edge"><title>Node22&#45;&gt;Node13</title>
<path fill="none" stroke="midnightblue" d="M271.523,-56.4435C294.17,-47.5171 329.887,-33.4387 355.567,-23.3168"/>
<polygon fill="midnightblue" stroke="midnightblue" points="357.189,-26.4397 365.209,-19.5164 354.622,-19.9273 357.189,-26.4397"/>
</g>
<!-- Node23 -->
<g id="node24" class="node"><title>Node23</title>
<polygon fill="white" stroke="#bfbfbf" points="227.315,-0.5 227.315,-19.5 276.315,-19.5 276.315,-0.5 227.315,-0.5"/>
<text text-anchor="middle" x="251.815" y="-7.5" font-family="Helvetica,sans-Serif" font-size="10.00">cassert</text>
</g>
<!-- Node22&#45;&gt;Node23 -->
<g id="edge44" class="edge"><title>Node22&#45;&gt;Node23</title>
<path fill="none" stroke="midnightblue" d="M250.145,-56.083C250.408,-49.0059 250.783,-38.8611 251.112,-29.9865"/>
<polygon fill="midnightblue" stroke="midnightblue" points="254.618,-29.8738 251.491,-19.7511 247.623,-29.6147 254.618,-29.8738"/>
</g>
<!-- Node24 -->
<g id="node25" class="node"><title>Node24</title>
<polygon fill="white" stroke="#bfbfbf" points="294.315,-0.5 294.315,-19.5 341.315,-19.5 341.315,-0.5 294.315,-0.5"/>
<text text-anchor="middle" x="317.815" y="-7.5" font-family="Helvetica,sans-Serif" font-size="10.00">csignal</text>
</g>
<!-- Node22&#45;&gt;Node24 -->
<g id="edge45" class="edge"><title>Node22&#45;&gt;Node24</title>
<path fill="none" stroke="midnightblue" d="M260.741,-56.324C270.99,-48.1849 286.536,-35.8395 298.816,-26.0874"/>
<polygon fill="midnightblue" stroke="midnightblue" points="301.036,-28.7937 306.691,-19.8339 296.683,-23.3119 301.036,-28.7937"/>
</g>
<!-- Node25 -->
<g id="node26" class="node"><title>Node25</title>
<polygon fill="white" stroke="#bfbfbf" points="51.8152,-0.5 51.8152,-19.5 105.815,-19.5 105.815,-0.5 51.8152,-0.5"/>
<text text-anchor="middle" x="78.8152" y="-7.5" font-family="Helvetica,sans-Serif" font-size="10.00">iostream</text>
</g>
<!-- Node22&#45;&gt;Node25 -->
<g id="edge46" class="edge"><title>Node22&#45;&gt;Node25</title>
<path fill="none" stroke="midnightblue" d="M222.72,-56.4435C193.827,-47.3196 147.89,-32.8133 115.71,-22.6509"/>
<polygon fill="midnightblue" stroke="midnightblue" points="116.374,-19.1903 105.784,-19.5164 114.266,-25.8654 116.374,-19.1903"/>
</g>
<!-- Node26 -->
<g id="node27" class="node"><title>Node26</title>
<polygon fill="white" stroke="#bfbfbf" points="124.315,-0.5 124.315,-19.5 209.315,-19.5 209.315,-0.5 124.315,-0.5"/>
<text text-anchor="middle" x="166.815" y="-7.5" font-family="Helvetica,sans-Serif" font-size="10.00">spdlog/spdlog.h</text>
</g>
<!-- Node22&#45;&gt;Node26 -->
<g id="edge47" class="edge"><title>Node22&#45;&gt;Node26</title>
<path fill="none" stroke="midnightblue" d="M236.48,-56.324C223.653,-47.979 204.03,-35.2122 188.875,-25.3524"/>
<polygon fill="midnightblue" stroke="midnightblue" points="190.408,-22.1742 180.117,-19.6545 186.591,-28.0417 190.408,-22.1742"/>
</g>
<!-- Node29&#45;&gt;Node8 -->
<g id="edge58" class="edge"><title>Node29&#45;&gt;Node8</title>
<path fill="none" stroke="midnightblue" d="M1666.17,-235.347C1668.09,-221.01 1670.66,-191.57 1663.82,-168 1647.51,-111.854 1644.94,-86.0883 1594.82,-56 1535.17,-20.1978 1036.09,-12.6368 906.474,-11.2709"/>
<polygon fill="midnightblue" stroke="midnightblue" points="906.471,-7.77078 896.436,-11.1699 906.401,-14.7704 906.471,-7.77078"/>
</g>
<!-- Node30 -->
<g id="node31" class="node"><title>Node30</title>
<polygon fill="white" stroke="#bfbfbf" points="1608.82,-174 1608.82,-193 1654.82,-193 1654.82,-174 1608.82,-174"/>
<text text-anchor="middle" x="1631.82" y="-181" font-family="Helvetica,sans-Serif" font-size="10.00">dlfcn.h</text>
</g>
<!-- Node29&#45;&gt;Node30 -->
<g id="edge57" class="edge"><title>Node29&#45;&gt;Node30</title>
<path fill="none" stroke="midnightblue" d="M1660.09,-235.475C1655.24,-226.727 1647.55,-212.869 1641.42,-201.809"/>
<polygon fill="midnightblue" stroke="midnightblue" points="1644.45,-200.057 1636.53,-193.009 1638.32,-203.452 1644.45,-200.057"/>
</g>
</g>
</svg>
        <g id="navigator" transform="translate(0 0)" fill="#404254">
                <rect fill="#f2f5e9" fill-opacity="0.5" stroke="#606060" stroke-width=".5" x="0" y="0" width="60" height="60"/>
                <use id="zoomplus" xlink:href="#zoomPlus" x="17" y="9" onmousedown="handleZoom(evt,'in')"/>
                <use id="zoomminus" xlink:href="#zoomMin" x="42" y="9" onmousedown="handleZoom(evt,'out')"/>
                <use id="reset" xlink:href="#resetDef" x="30" y="36" onmousedown="handleReset()"/>
                <g id="arrowUp" xlink:href="#dirArrow" transform="translate(30 24)" onmousedown="handlePan(0,-1)">
                  <use xlink:href="#rim" fill="#404040">
                        <set attributeName="fill" to="#808080" begin="arrowUp.mouseover" end="arrowUp.mouseout"/>
                  </use>
                  <path fill="none" stroke="white" stroke-width="1.5" d="M0,-3.0v7 M-2.5,-0.5L0,-3.0L2.5,-0.5"/>
                </g>
                <g id="arrowRight" xlink:href="#dirArrow" transform="rotate(90) translate(36 -43)" onmousedown="handlePan(1,0)">
                  <use xlink:href="#rim" fill="#404040">
                        <set attributeName="fill" to="#808080" begin="arrowRight.mouseover" end="arrowRight.mouseout"/>
                  </use>
                  <path fill="none" stroke="white" stroke-width="1.5" d="M0,-3.0v7 M-2.5,-0.5L0,-3.0L2.5,-0.5"/>
                </g>
                <g id="arrowDown" xlink:href="#dirArrow" transform="rotate(180) translate(-30 -48)" onmousedown="handlePan(0,1)">
                  <use xlink:href="#rim" fill="#404040">
                        <set attributeName="fill" to="#808080" begin="arrowDown.mouseover" end="arrowDown.mouseout"/>
                  </use>
                  <path fill="none" stroke="white" stroke-width="1.5" d="M0,-3.0v7 M-2.5,-0.5L0,-3.0L2.5,-0.5"/>
                </g>
                <g id="arrowLeft" xlink:href="#dirArrow" transform="rotate(270) translate(-36 17)" onmousedown="handlePan(-1,0)">
                  <use xlink:href="#rim" fill="#404040">
                        <set attributeName="fill" to="#808080" begin="arrowLeft.mouseover" end="arrowLeft.mouseout"/>
                  </use>
                  <path fill="none" stroke="white" stroke-width="1.5" d="M0,-3.0v7 M-2.5,-0.5L0,-3.0L2.5,-0.5"/>
                </g>
        </g>
        <svg viewBox="0 0 15 15" width="100%" height="30px" preserveAspectRatio="xMaxYMin meet">
         <g id="arrow_out" transform="scale(0.3 0.3)">
          <a xlink:href="module__manager_8hpp__incl_org.svg" target="_base">
           <rect id="button" ry="5" rx="5" y="6" x="6" height="38" width="38"
                fill="#f2f5e9" fill-opacity="0.5" stroke="#606060" stroke-width="1.0"/>
           <path id="arrow"
             d="M 11.500037,31.436501 C 11.940474,20.09759 22.043105,11.32322 32.158766,21.979434 L 37.068811,17.246167 C 37.068811,17.246167 37.088388,32 37.088388,32 L 22.160133,31.978069 C 22.160133,31.978069 26.997745,27.140456 26.997745,27.140456 C 18.528582,18.264221 13.291696,25.230495 11.500037,31.436501 z"
             style="fill:#404040;"/>
          </a>
         </g>
        </svg>
</svg>
