<?xml version="1.0" encoding="UTF-8" standalone="no"?>
<!DOCTYPE svg PUBLIC "-//W3C//DTD SVG 1.1//EN"
 "http://www.w3.org/Graphics/SVG/1.1/DTD/svg11.dtd">
<!-- Generated by graphviz version 2.38.0 (20140413.2041)
 -->
<!-- Title: Leosac::Module::SMTP::SMTPConfig Pages: 1 -->
<svg width="158pt" height="385pt"
 viewBox="0.00 0.00 158.00 385.00" xmlns="http://www.w3.org/2000/svg" xmlns:xlink="http://www.w3.org/1999/xlink">
<g id="graph0" class="graph" transform="scale(1 1) rotate(0) translate(4 381)">
<title>Leosac::Module::SMTP::SMTPConfig</title>
<polygon fill="white" stroke="none" points="-4,4 -4,-381 154,-381 154,4 -4,4"/>
<!-- Node1 -->
<g id="node1" class="node"><title>Node1</title>
<polygon fill="#bfbfbf" stroke="black" points="15.5,-0.5 15.5,-30.5 134.5,-30.5 134.5,-0.5 15.5,-0.5"/>
<text text-anchor="start" x="23.5" y="-18.5" font-family="Helvetica,sans-Serif" font-size="10.00">Leosac::Module::SMTP</text>
<text text-anchor="middle" x="75" y="-7.5" font-family="Helvetica,sans-Serif" font-size="10.00">::SMTPConfig</text>
</g>
<!-- Node2 -->
<g id="node2" class="node"><title>Node2</title>
<polygon fill="white" stroke="#bfbfbf" points="-1.42109e-14,-78.5 -1.42109e-14,-119.5 150,-119.5 150,-78.5 -1.42109e-14,-78.5"/>
<text text-anchor="start" x="8" y="-107.5" font-family="Helvetica,sans-Serif" font-size="10.00">std::vector&lt; Leosac</text>
<text text-anchor="start" x="8" y="-96.5" font-family="Helvetica,sans-Serif" font-size="10.00">::Module::SMTP::SMTPServer</text>
<text text-anchor="middle" x="75" y="-85.5" font-family="Helvetica,sans-Serif" font-size="10.00">Info &gt;</text>
</g>
<!-- Node2&#45;&gt;Node1 -->
<g id="edge1" class="edge"><title>Node2&#45;&gt;Node1</title>
<path fill="none" stroke="#9a32cd" stroke-dasharray="5,2" d="M75,-68.0254C75,-55.258 75,-40.9702 75,-30.6846"/>
<polygon fill="#9a32cd" stroke="#9a32cd" points="71.5001,-68.2711 75,-78.2711 78.5001,-68.2712 71.5001,-68.2711"/>
<text text-anchor="middle" x="95.5" y="-52" font-family="Helvetica,sans-Serif" font-size="10.00"> servers_</text>
</g>
<!-- Node3 -->
<g id="node3" class="node"><title>Node3</title>
<g id="a_node3"><a xlink:href="../../d7/d33/structLeosac_1_1Module_1_1SMTP_1_1SMTPServerInfo.html" target="_top" xlink:title="Leosac::Module::SMTP\l::SMTPServerInfo">
<polygon fill="white" stroke="black" points="15.5,-167.5 15.5,-197.5 134.5,-197.5 134.5,-167.5 15.5,-167.5"/>
<text text-anchor="start" x="23.5" y="-185.5" font-family="Helvetica,sans-Serif" font-size="10.00">Leosac::Module::SMTP</text>
<text text-anchor="middle" x="75" y="-174.5" font-family="Helvetica,sans-Serif" font-size="10.00">::SMTPServerInfo</text>
</a>
</g>
</g>
<!-- Node3&#45;&gt;Node2 -->
<g id="edge2" class="edge"><title>Node3&#45;&gt;Node2</title>
<path fill="none" stroke="#9a32cd" stroke-dasharray="5,2" d="M75,-157.066C75,-145.061 75,-130.794 75,-119.528"/>
<polygon fill="#9a32cd" stroke="#9a32cd" points="71.5001,-157.304 75,-167.304 78.5001,-157.304 71.5001,-157.304"/>
<text text-anchor="middle" x="96.5" y="-141" font-family="Helvetica,sans-Serif" font-size="10.00"> elements</text>
</g>
<!-- Node4 -->
<g id="node4" class="node"><title>Node4</title>
<g id="a_node4"><a xlink:title="STL class. ">
<polygon fill="white" stroke="#bfbfbf" points="45,-289.5 45,-308.5 105,-308.5 105,-289.5 45,-289.5"/>
<text text-anchor="middle" x="75" y="-296.5" font-family="Helvetica,sans-Serif" font-size="10.00">std::string</text>
</a>
</g>
</g>
<!-- Node4&#45;&gt;Node3 -->
<g id="edge3" class="edge"><title>Node4&#45;&gt;Node3</title>
<path fill="none" stroke="#9a32cd" stroke-dasharray="5,2" d="M75,-279.294C75,-256.479 75,-218.414 75,-197.806"/>
<polygon fill="#9a32cd" stroke="#9a32cd" points="71.5001,-279.394 75,-289.394 78.5001,-279.394 71.5001,-279.394"/>
<text text-anchor="middle" x="104.5" y="-263" font-family="Helvetica,sans-Serif" font-size="10.00"> password</text>
<text text-anchor="middle" x="104.5" y="-252" font-family="Helvetica,sans-Serif" font-size="10.00">url</text>
<text text-anchor="middle" x="104.5" y="-241" font-family="Helvetica,sans-Serif" font-size="10.00">username</text>
<text text-anchor="middle" x="104.5" y="-230" font-family="Helvetica,sans-Serif" font-size="10.00">from</text>
<text text-anchor="middle" x="104.5" y="-219" font-family="Helvetica,sans-Serif" font-size="10.00">CA_info_file_</text>
</g>
<!-- Node5 -->
<g id="node5" class="node"><title>Node5</title>
<g id="a_node5"><a xlink:title="STL class. ">
<polygon fill="white" stroke="#bfbfbf" points="27.5,-346.5 27.5,-376.5 122.5,-376.5 122.5,-346.5 27.5,-346.5"/>
<text text-anchor="start" x="35.5" y="-364.5" font-family="Helvetica,sans-Serif" font-size="10.00">std::basic_string&lt;</text>
<text text-anchor="middle" x="75" y="-353.5" font-family="Helvetica,sans-Serif" font-size="10.00"> char &gt;</text>
</a>
</g>
</g>
<!-- Node5&#45;&gt;Node4 -->
<g id="edge4" class="edge"><title>Node5&#45;&gt;Node4</title>
<path fill="none" stroke="midnightblue" d="M75,-336.352C75,-326.513 75,-315.775 75,-308.54"/>
<polygon fill="midnightblue" stroke="midnightblue" points="71.5001,-336.468 75,-346.468 78.5001,-336.468 71.5001,-336.468"/>
</g>
</g>
</svg>
