<?xml version="1.0" encoding="UTF-8" standalone="no"?>
<!DOCTYPE svg PUBLIC "-//W3C//DTD SVG 1.1//EN"
 "http://www.w3.org/Graphics/SVG/1.1/DTD/svg11.dtd">
<!-- Generated by graphviz version 2.38.0 (20140413.2041)
 -->
<!-- Title: Leosac::Auth::AccessPoint Pages: 1 -->
<svg width="990pt" height="215pt"
 viewBox="0.00 0.00 990.00 214.50" xmlns="http://www.w3.org/2000/svg" xmlns:xlink="http://www.w3.org/1999/xlink">
<g id="graph0" class="graph" transform="scale(1 1) rotate(0) translate(4 210.5)">
<title>Leosac::Auth::AccessPoint</title>
<polygon fill="white" stroke="none" points="-4,4 -4,-210.5 986,-210.5 986,4 -4,4"/>
<!-- Node3 -->
<g id="node1" class="node"><title>Node3</title>
<polygon fill="#bfbfbf" stroke="black" points="846,-94 846,-113 982,-113 982,-94 846,-94"/>
<text text-anchor="middle" x="914" y="-101" font-family="Helvetica,sans-Serif" font-size="10.00">Leosac::Auth::AccessPoint</text>
</g>
<!-- Node4 -->
<g id="node2" class="node"><title>Node4</title>
<g id="a_node2"><a xlink:href="../../de/dd9/classLeosac_1_1Auth_1_1IAccessPoint.html" target="_top" xlink:title="An interface for access point. ">
<polygon fill="white" stroke="black" points="628,-187 628,-206 767,-206 767,-187 628,-187"/>
<text text-anchor="middle" x="697.5" y="-194" font-family="Helvetica,sans-Serif" font-size="10.00">Leosac::Auth::IAccessPoint</text>
</a>
</g>
</g>
<!-- Node4&#45;&gt;Node3 -->
<g id="edge1" class="edge"><title>Node4&#45;&gt;Node3</title>
<path fill="none" stroke="midnightblue" d="M748.087,-184.009C754.515,-182.023 760.959,-179.842 767,-177.5 816.017,-158.497 870.435,-128.314 896.85,-113.034"/>
<polygon fill="midnightblue" stroke="midnightblue" points="746.661,-180.781 738.059,-186.967 748.641,-187.495 746.661,-180.781"/>
</g>
<!-- Node5 -->
<g id="node3" class="node"><title>Node5</title>
<polygon fill="white" stroke="#bfbfbf" points="629.5,-137.5 629.5,-167.5 765.5,-167.5 765.5,-137.5 629.5,-137.5"/>
<text text-anchor="start" x="637.5" y="-155.5" font-family="Helvetica,sans-Serif" font-size="10.00">std::enable_shared</text>
<text text-anchor="middle" x="697.5" y="-144.5" font-family="Helvetica,sans-Serif" font-size="10.00">_from_this&lt; AccessPoint &gt;</text>
</g>
<!-- Node5&#45;&gt;Node3 -->
<g id="edge2" class="edge"><title>Node5&#45;&gt;Node3</title>
<path fill="none" stroke="midnightblue" d="M774.284,-135.188C806.895,-127.739 843.764,-119.316 871.291,-113.028"/>
<polygon fill="midnightblue" stroke="midnightblue" points="773.284,-131.826 764.315,-137.465 774.843,-138.65 773.284,-131.826"/>
</g>
<!-- Node6 -->
<g id="node4" class="node"><title>Node6</title>
<g id="a_node4"><a xlink:title="STL class. ">
<polygon fill="white" stroke="#bfbfbf" points="179.5,-67 179.5,-86 239.5,-86 239.5,-67 179.5,-67"/>
<text text-anchor="middle" x="209.5" y="-74" font-family="Helvetica,sans-Serif" font-size="10.00">std::string</text>
</a>
</g>
</g>
<!-- Node6&#45;&gt;Node3 -->
<g id="edge3" class="edge"><title>Node6&#45;&gt;Node3</title>
<path fill="none" stroke="#9a32cd" stroke-dasharray="5,2" d="M249.682,-74.3771C340.72,-69.9386 573.516,-61.4335 767,-78.5 801.326,-81.5278 839.719,-88.2355 868.517,-93.9412"/>
<polygon fill="#9a32cd" stroke="#9a32cd" points="249.359,-70.8888 239.546,-74.8834 249.708,-77.8801 249.359,-70.8888"/>
<text text-anchor="middle" x="569" y="-95.5" font-family="Helvetica,sans-Serif" font-size="10.00"> alias_</text>
<text text-anchor="middle" x="569" y="-84.5" font-family="Helvetica,sans-Serif" font-size="10.00">description_</text>
<text text-anchor="middle" x="569" y="-73.5" font-family="Helvetica,sans-Serif" font-size="10.00">controller_module_</text>
</g>
<!-- Node10 -->
<g id="node8" class="node"><title>Node10</title>
<g id="a_node8"><a xlink:href="../../db/d95/classLeosac_1_1Auth_1_1Door.html" target="_top" xlink:title="Represent a door. ">
<polygon fill="white" stroke="black" points="409,-122 409,-141 510,-141 510,-122 409,-122"/>
<text text-anchor="middle" x="459.5" y="-129" font-family="Helvetica,sans-Serif" font-size="10.00">Leosac::Auth::Door</text>
</a>
</g>
</g>
<!-- Node6&#45;&gt;Node10 -->
<g id="edge10" class="edge"><title>Node6&#45;&gt;Node10</title>
<path fill="none" stroke="#9a32cd" stroke-dasharray="5,2" d="M249.9,-81.2836C286.747,-86.2227 343.125,-94.9767 391,-107.5 405.8,-111.371 421.961,-117.063 434.758,-121.932"/>
<polygon fill="#9a32cd" stroke="#9a32cd" points="249.956,-77.7612 239.586,-79.9325 249.047,-84.7019 249.956,-77.7612"/>
<text text-anchor="middle" x="343.5" y="-121.5" font-family="Helvetica,sans-Serif" font-size="10.00"> alias_</text>
<text text-anchor="middle" x="343.5" y="-110.5" font-family="Helvetica,sans-Serif" font-size="10.00">desc_</text>
</g>
<!-- Node7 -->
<g id="node5" class="node"><title>Node7</title>
<g id="a_node5"><a xlink:title="STL class. ">
<polygon fill="white" stroke="#bfbfbf" points="4.5,-61.5 4.5,-91.5 99.5,-91.5 99.5,-61.5 4.5,-61.5"/>
<text text-anchor="start" x="12.5" y="-79.5" font-family="Helvetica,sans-Serif" font-size="10.00">std::basic_string&lt;</text>
<text text-anchor="middle" x="52" y="-68.5" font-family="Helvetica,sans-Serif" font-size="10.00"> char &gt;</text>
</a>
</g>
</g>
<!-- Node7&#45;&gt;Node6 -->
<g id="edge4" class="edge"><title>Node7&#45;&gt;Node6</title>
<path fill="none" stroke="midnightblue" d="M109.932,-76.5C133.562,-76.5 159.962,-76.5 179.488,-76.5"/>
<polygon fill="midnightblue" stroke="midnightblue" points="109.655,-73.0001 99.6551,-76.5 109.655,-80.0001 109.655,-73.0001"/>
</g>
<!-- Node8 -->
<g id="node6" class="node"><title>Node8</title>
<polygon fill="white" stroke="#bfbfbf" points="633.5,-0.5 633.5,-30.5 761.5,-30.5 761.5,-0.5 633.5,-0.5"/>
<text text-anchor="start" x="641.5" y="-18.5" font-family="Helvetica,sans-Serif" font-size="10.00">std::vector&lt; AccessPoint</text>
<text text-anchor="middle" x="697.5" y="-7.5" font-family="Helvetica,sans-Serif" font-size="10.00">UpdateLPtr &gt;</text>
</g>
<!-- Node8&#45;&gt;Node3 -->
<g id="edge5" class="edge"><title>Node8&#45;&gt;Node3</title>
<path fill="none" stroke="#9a32cd" stroke-dasharray="5,2" d="M771.709,-19.3206C790.612,-22.1508 810.54,-26.833 828,-34.5 860.022,-48.5616 889.923,-78.0551 904.21,-93.533"/>
<polygon fill="#9a32cd" stroke="#9a32cd" points="772.014,-15.8302 761.637,-17.9674 771.082,-22.7678 772.014,-15.8302"/>
<text text-anchor="middle" x="806.5" y="-37.5" font-family="Helvetica,sans-Serif" font-size="10.00"> updates_</text>
</g>
<!-- Node9 -->
<g id="node7" class="node"><title>Node9</title>
<polygon fill="white" stroke="#bfbfbf" points="639.5,-88.5 639.5,-118.5 755.5,-118.5 755.5,-88.5 639.5,-88.5"/>
<text text-anchor="start" x="647.5" y="-106.5" font-family="Helvetica,sans-Serif" font-size="10.00">std::weak_ptr&lt; Leosac</text>
<text text-anchor="middle" x="697.5" y="-95.5" font-family="Helvetica,sans-Serif" font-size="10.00">::Auth::Door &gt;</text>
</g>
<!-- Node9&#45;&gt;Node3 -->
<g id="edge6" class="edge"><title>Node9&#45;&gt;Node3</title>
<path fill="none" stroke="#9a32cd" stroke-dasharray="5,2" d="M765.988,-103.5C791.401,-103.5 820.283,-103.5 845.68,-103.5"/>
<polygon fill="#9a32cd" stroke="#9a32cd" points="765.7,-100 755.7,-103.5 765.7,-107 765.7,-100"/>
<text text-anchor="middle" x="806.5" y="-106.5" font-family="Helvetica,sans-Serif" font-size="10.00"> door_</text>
</g>
<!-- Node10&#45;&gt;Node9 -->
<g id="edge7" class="edge"><title>Node10&#45;&gt;Node9</title>
<path fill="none" stroke="#9a32cd" stroke-dasharray="5,2" d="M520.286,-124.407C556.822,-120.072 603.292,-114.559 639.337,-110.282"/>
<polygon fill="#9a32cd" stroke="#9a32cd" points="519.779,-120.942 510.261,-125.596 520.604,-127.893 519.779,-120.942"/>
<text text-anchor="middle" x="569" y="-126.5" font-family="Helvetica,sans-Serif" font-size="10.00"> ptr</text>
</g>
<!-- Node11 -->
<g id="node9" class="node"><title>Node11</title>
<g id="a_node9"><a xlink:href="../../dd/dbf/classLeosac_1_1Auth_1_1IDoor.html" target="_top" xlink:title="A door. ">
<polygon fill="white" stroke="black" points="157.5,-172 157.5,-191 261.5,-191 261.5,-172 157.5,-172"/>
<text text-anchor="middle" x="209.5" y="-179" font-family="Helvetica,sans-Serif" font-size="10.00">Leosac::Auth::IDoor</text>
</a>
</g>
</g>
<!-- Node11&#45;&gt;Node10 -->
<g id="edge8" class="edge"><title>Node11&#45;&gt;Node10</title>
<path fill="none" stroke="midnightblue" d="M271.831,-172.594C306.906,-167.095 351.623,-159.398 391,-150.5 402.875,-147.817 415.772,-144.331 427.081,-141.078"/>
<polygon fill="midnightblue" stroke="midnightblue" points="271.087,-169.167 261.741,-174.157 272.159,-176.085 271.087,-169.167"/>
</g>
<!-- Node12 -->
<g id="node10" class="node"><title>Node12</title>
<polygon fill="white" stroke="#bfbfbf" points="0,-166.5 0,-196.5 104,-196.5 104,-166.5 0,-166.5"/>
<text text-anchor="start" x="8" y="-184.5" font-family="Helvetica,sans-Serif" font-size="10.00">std::enable_shared</text>
<text text-anchor="middle" x="52" y="-173.5" font-family="Helvetica,sans-Serif" font-size="10.00">_from_this&lt; IDoor &gt;</text>
</g>
<!-- Node12&#45;&gt;Node11 -->
<g id="edge9" class="edge"><title>Node12&#45;&gt;Node11</title>
<path fill="none" stroke="midnightblue" d="M114.543,-181.5C128.769,-181.5 143.752,-181.5 157.472,-181.5"/>
<polygon fill="midnightblue" stroke="midnightblue" points="114.348,-178 104.347,-181.5 114.347,-185 114.348,-178"/>
</g>
<!-- Node13 -->
<g id="node11" class="node"><title>Node13</title>
<polygon fill="white" stroke="#bfbfbf" points="141,-122.5 141,-152.5 278,-152.5 278,-122.5 141,-122.5"/>
<text text-anchor="start" x="149" y="-140.5" font-family="Helvetica,sans-Serif" font-size="10.00">std::vector&lt; Tools</text>
<text text-anchor="middle" x="209.5" y="-129.5" font-family="Helvetica,sans-Serif" font-size="10.00">::ScheduleMappingLWPtr &gt;</text>
</g>
<!-- Node13&#45;&gt;Node10 -->
<g id="edge11" class="edge"><title>Node13&#45;&gt;Node10</title>
<path fill="none" stroke="#9a32cd" stroke-dasharray="5,2" d="M288.38,-135.616C327.785,-134.662 374.435,-133.534 408.91,-132.7"/>
<polygon fill="#9a32cd" stroke="#9a32cd" points="288.179,-132.12 278.267,-135.86 288.349,-139.117 288.179,-132.12"/>
<text text-anchor="middle" x="343.5" y="-138.5" font-family="Helvetica,sans-Serif" font-size="10.00"> schedules_mapping_</text>
</g>
</g>
</svg>
