<?xml version="1.0" encoding="UTF-8" standalone="no"?>
<!DOCTYPE svg PUBLIC "-//W3C//DTD SVG 1.1//EN"
 "http://www.w3.org/Graphics/SVG/1.1/DTD/svg11.dtd">
<!-- Generated by graphviz version 2.38.0 (20140413.2041)
 -->
<!-- Title: test/helper/TestHelper.hpp Pages: 1 -->
<!--zoomable 263 -->
<svg id="main" version="1.1" xmlns="http://www.w3.org/2000/svg" xmlns:xlink="http://www.w3.org/1999/xlink" xml:space="preserve" onload="init(evt)">
<style type="text/css"><![CDATA[
.edge:hover path { stroke: red; }
.edge:hover polygon { stroke: red; fill: red; }
]]></style>
<script type="text/javascript"><![CDATA[
var edges = document.getElementsByTagName('g');
if (edges && edges.length) {
  for (var i=0;i<edges.length;i++) {
    if (edges[i].id.substr(0,4)=='edge') {
      edges[i].setAttribute('class','edge');
    }
  }
}
]]></script>
        <defs>
                <circle id="rim" cx="0" cy="0" r="7"/>
                <circle id="rim2" cx="0" cy="0" r="3.5"/>
                <g id="zoomPlus">
                        <use xlink:href="#rim" fill="#404040">
                                <set attributeName="fill" to="#808080" begin="zoomplus.mouseover" end="zoomplus.mouseout"/>
                        </use>
                        <path d="M-4,0h8M0,-4v8" fill="none" stroke="white" stroke-width="1.5" pointer-events="none"/>
                </g>
                <g id="zoomMin">
                        <use xlink:href="#rim" fill="#404040">
                                <set attributeName="fill" to="#808080" begin="zoomminus.mouseover" end="zoomminus.mouseout"/>
                        </use>
                        <path d="M-4,0h8" fill="none" stroke="white" stroke-width="1.5" pointer-events="none"/>
                </g>
                <g id="dirArrow">
                        <path fill="none" stroke="white" stroke-width="1.5" d="M0,-3.0v7 M-2.5,-0.5L0,-3.0L2.5,-0.5"/>
                </g>
               <g id="resetDef">
                       <use xlink:href="#rim2" fill="#404040">
                               <set attributeName="fill" to="#808080" begin="reset.mouseover" end="reset.mouseout"/>
                       </use>
               </g>
        </defs>

<script type="text/javascript">
var viewWidth = 801;
var viewHeight = 263;
var sectionId = 'dynsection-0';
</script>
<script xlink:href="../../svgpan.js"/>
<svg id="graph" class="graph">
<g id="viewport">
<title>test/helper/TestHelper.hpp</title>
<polygon fill="white" stroke="none" points="-4,4 -4,-259 797,-259 797,4 -4,4"/>
<!-- Node0 -->
<g id="node1" class="node"><title>Node0</title>
<polygon fill="#bfbfbf" stroke="black" points="291.5,-235.5 291.5,-254.5 423.5,-254.5 423.5,-235.5 291.5,-235.5"/>
<text text-anchor="middle" x="357.5" y="-242.5" font-family="Helvetica,sans-Serif" font-size="10.00">test/helper/TestHelper.hpp</text>
</g>
<!-- Node1 -->
<g id="node2" class="node"><title>Node1</title>
<g id="a_node2"><a xlink:href="../../d5/d7e/FakeGPIO_8hpp.html" target="_top" xlink:title="FakeGPIO.hpp">
<polygon fill="white" stroke="black" points="9.5,-179.5 9.5,-198.5 91.5,-198.5 91.5,-179.5 9.5,-179.5"/>
<text text-anchor="middle" x="50.5" y="-186.5" font-family="Helvetica,sans-Serif" font-size="10.00">FakeGPIO.hpp</text>
</a>
</g>
</g>
<!-- Node0&#45;&gt;Node1 -->
<g id="edge1" class="edge"><title>Node0&#45;&gt;Node1</title>
<path fill="none" stroke="midnightblue" d="M308.855,-235.444C252.233,-225.484 159.151,-209.111 101.529,-198.976"/>
<polygon fill="midnightblue" stroke="midnightblue" points="102.004,-195.506 91.5488,-197.22 100.791,-202.4 102.004,-195.506"/>
</g>
<!-- Node2 -->
<g id="node3" class="node"><title>Node2</title>
<polygon fill="white" stroke="#bfbfbf" points="0,-123.5 0,-142.5 97,-142.5 97,-123.5 0,-123.5"/>
<text text-anchor="middle" x="48.5" y="-130.5" font-family="Helvetica,sans-Serif" font-size="10.00">zmqpp/zmqpp.hpp</text>
</g>
<!-- Node0&#45;&gt;Node2 -->
<g id="edge26" class="edge"><title>Node0&#45;&gt;Node2</title>
<path fill="none" stroke="midnightblue" d="M344.254,-235.398C322.557,-221.656 277.726,-194.704 236.5,-179 194.502,-163.002 145.001,-151.428 107.338,-144.027"/>
<polygon fill="midnightblue" stroke="midnightblue" points="107.525,-140.499 97.0445,-142.05 106.205,-147.373 107.525,-140.499"/>
</g>
<!-- Node3 -->
<g id="node4" class="node"><title>Node3</title>
<g id="a_node4"><a xlink:href="../../d6/de5/CoreUtils_8hpp.html" target="_top" xlink:title="core/CoreUtils.hpp">
<polygon fill="white" stroke="black" points="308.5,-179.5 308.5,-198.5 406.5,-198.5 406.5,-179.5 308.5,-179.5"/>
<text text-anchor="middle" x="357.5" y="-186.5" font-family="Helvetica,sans-Serif" font-size="10.00">core/CoreUtils.hpp</text>
</a>
</g>
</g>
<!-- Node0&#45;&gt;Node3 -->
<g id="edge3" class="edge"><title>Node0&#45;&gt;Node3</title>
<path fill="none" stroke="midnightblue" d="M357.5,-235.083C357.5,-228.006 357.5,-217.861 357.5,-208.986"/>
<polygon fill="midnightblue" stroke="midnightblue" points="361,-208.751 357.5,-198.751 354,-208.751 361,-208.751"/>
</g>
<!-- Node8 -->
<g id="node9" class="node"><title>Node8</title>
<polygon fill="white" stroke="#bfbfbf" points="663,-56.5 663,-86.5 764,-86.5 764,-56.5 663,-56.5"/>
<text text-anchor="start" x="671" y="-74.5" font-family="Helvetica,sans-Serif" font-size="10.00">boost/property_tree</text>
<text text-anchor="middle" x="713.5" y="-63.5" font-family="Helvetica,sans-Serif" font-size="10.00">/ptree.hpp</text>
</g>
<!-- Node0&#45;&gt;Node8 -->
<g id="edge25" class="edge"><title>Node0&#45;&gt;Node8</title>
<path fill="none" stroke="midnightblue" d="M371.084,-235.214C404.3,-213.979 492.679,-158.972 571.5,-123 599.378,-110.277 631.468,-98.6259 658.082,-89.7287"/>
<polygon fill="midnightblue" stroke="midnightblue" points="659.223,-93.0378 667.621,-86.5785 657.028,-86.3908 659.223,-93.0378"/>
</g>
<!-- Node15 -->
<g id="node16" class="node"><title>Node15</title>
<g id="a_node16"><a xlink:href="../../d4/d0a/MessageBus_8hpp.html" target="_top" xlink:title="core/MessageBus.hpp">
<polygon fill="white" stroke="black" points="113.5,-179.5 113.5,-198.5 227.5,-198.5 227.5,-179.5 113.5,-179.5"/>
<text text-anchor="middle" x="170.5" y="-186.5" font-family="Helvetica,sans-Serif" font-size="10.00">core/MessageBus.hpp</text>
</a>
</g>
</g>
<!-- Node0&#45;&gt;Node15 -->
<g id="edge19" class="edge"><title>Node0&#45;&gt;Node15</title>
<path fill="none" stroke="midnightblue" d="M327.869,-235.444C296,-226.241 245.167,-211.562 209.936,-201.388"/>
<polygon fill="midnightblue" stroke="midnightblue" points="210.571,-197.928 199.992,-198.516 208.628,-204.653 210.571,-197.928"/>
</g>
<!-- Node16 -->
<g id="node17" class="node"><title>Node16</title>
<g id="a_node17"><a xlink:href="../../db/d33/ConfigChecker_8hpp.html" target="_top" xlink:title="core/config/ConfigChecker.hpp">
<polygon fill="white" stroke="black" points="551.5,-179.5 551.5,-198.5 703.5,-198.5 703.5,-179.5 551.5,-179.5"/>
<text text-anchor="middle" x="627.5" y="-186.5" font-family="Helvetica,sans-Serif" font-size="10.00">core/config/ConfigChecker.hpp</text>
</a>
</g>
</g>
<!-- Node0&#45;&gt;Node16 -->
<g id="edge21" class="edge"><title>Node0&#45;&gt;Node16</title>
<path fill="none" stroke="midnightblue" d="M400.282,-235.444C447.679,-225.964 524.126,-210.675 575.083,-200.483"/>
<polygon fill="midnightblue" stroke="midnightblue" points="575.798,-203.91 584.918,-198.516 574.426,-197.046 575.798,-203.91"/>
</g>
<!-- Node19 -->
<g id="node20" class="node"><title>Node19</title>
<polygon fill="white" stroke="#bfbfbf" points="722,-179.5 722,-198.5 793,-198.5 793,-179.5 722,-179.5"/>
<text text-anchor="middle" x="757.5" y="-186.5" font-family="Helvetica,sans-Serif" font-size="10.00">gtest/gtest.h</text>
</g>
<!-- Node0&#45;&gt;Node19 -->
<g id="edge24" class="edge"><title>Node0&#45;&gt;Node19</title>
<path fill="none" stroke="midnightblue" d="M423.786,-237.027C493.086,-229.414 605.209,-216.189 711.723,-199.022"/>
<polygon fill="midnightblue" stroke="midnightblue" points="712.372,-202.463 721.681,-197.403 711.248,-195.554 712.372,-202.463"/>
</g>
<!-- Node1&#45;&gt;Node2 -->
<g id="edge2" class="edge"><title>Node1&#45;&gt;Node2</title>
<path fill="none" stroke="midnightblue" d="M50.1697,-179.083C49.9076,-172.006 49.5319,-161.861 49.2032,-152.986"/>
<polygon fill="midnightblue" stroke="midnightblue" points="52.6919,-152.615 48.8241,-142.751 45.6967,-152.874 52.6919,-152.615"/>
</g>
<!-- Node4 -->
<g id="node5" class="node"><title>Node4</title>
<g id="a_node5"><a xlink:href="../../d6/da2/CoreAPI_8hpp.html" target="_top" xlink:title="CoreAPI.hpp">
<polygon fill="white" stroke="black" points="422,-123.5 422,-142.5 495,-142.5 495,-123.5 422,-123.5"/>
<text text-anchor="middle" x="458.5" y="-130.5" font-family="Helvetica,sans-Serif" font-size="10.00">CoreAPI.hpp</text>
</a>
</g>
</g>
<!-- Node3&#45;&gt;Node4 -->
<g id="edge4" class="edge"><title>Node3&#45;&gt;Node4</title>
<path fill="none" stroke="midnightblue" d="M373.727,-179.324C389.851,-170.703 414.8,-157.364 433.464,-147.386"/>
<polygon fill="midnightblue" stroke="midnightblue" points="435.144,-150.456 442.313,-142.655 431.844,-144.283 435.144,-150.456"/>
</g>
<!-- Node12 -->
<g id="node13" class="node"><title>Node12</title>
<g id="a_node13"><a xlink:href="../../dc/d49/LeosacFwd_8hpp.html" target="_top" xlink:title="LeosacFwd.hpp">
<polygon fill="white" stroke="black" points="317.5,-123.5 317.5,-142.5 403.5,-142.5 403.5,-123.5 317.5,-123.5"/>
<text text-anchor="middle" x="360.5" y="-130.5" font-family="Helvetica,sans-Serif" font-size="10.00">LeosacFwd.hpp</text>
</a>
</g>
</g>
<!-- Node3&#45;&gt;Node12 -->
<g id="edge12" class="edge"><title>Node3&#45;&gt;Node12</title>
<path fill="none" stroke="midnightblue" d="M357.995,-179.083C358.389,-172.006 358.952,-161.861 359.445,-152.986"/>
<polygon fill="midnightblue" stroke="midnightblue" points="362.954,-152.93 360.014,-142.751 355.964,-152.542 362.954,-152.93"/>
</g>
<!-- Node13 -->
<g id="node14" class="node"><title>Node13</title>
<g id="a_node14"><a xlink:href="../../d9/d69/db__fwd_8hpp.html" target="_top" xlink:title="tools/db/db_fwd.hpp">
<polygon fill="white" stroke="black" points="196.5,-62 196.5,-81 300.5,-81 300.5,-62 196.5,-62"/>
<text text-anchor="middle" x="248.5" y="-69" font-family="Helvetica,sans-Serif" font-size="10.00">tools/db/db_fwd.hpp</text>
</a>
</g>
</g>
<!-- Node3&#45;&gt;Node13 -->
<g id="edge15" class="edge"><title>Node3&#45;&gt;Node13</title>
<path fill="none" stroke="midnightblue" d="M347.404,-179.378C337.254,-170.562 321.318,-156.312 308.5,-143 291.513,-125.359 273.491,-103.742 261.684,-89.1313"/>
<polygon fill="midnightblue" stroke="midnightblue" points="264.185,-86.6544 255.201,-81.038 258.721,-91.0309 264.185,-86.6544"/>
</g>
<!-- Node14 -->
<g id="node15" class="node"><title>Node14</title>
<g id="a_node15"><a xlink:href="../../da/df8/ServiceFwd_8hpp.html" target="_top" xlink:title="tools/service/ServiceFwd.hpp">
<polygon fill="white" stroke="black" points="115.5,-123.5 115.5,-142.5 261.5,-142.5 261.5,-123.5 115.5,-123.5"/>
<text text-anchor="middle" x="188.5" y="-130.5" font-family="Helvetica,sans-Serif" font-size="10.00">tools/service/ServiceFwd.hpp</text>
</a>
</g>
</g>
<!-- Node3&#45;&gt;Node14 -->
<g id="edge17" class="edge"><title>Node3&#45;&gt;Node14</title>
<path fill="none" stroke="midnightblue" d="M330.721,-179.444C302.167,-170.32 256.767,-155.813 224.963,-145.651"/>
<polygon fill="midnightblue" stroke="midnightblue" points="225.744,-142.226 215.153,-142.516 223.614,-148.894 225.744,-142.226"/>
</g>
<!-- Node5 -->
<g id="node6" class="node"><title>Node5</title>
<g id="a_node6"><a xlink:href="../../d8/d97/ToolsFwd_8hpp.html" target="_top" xlink:title="tools/ToolsFwd.hpp">
<polygon fill="white" stroke="black" points="478.5,-62 478.5,-81 580.5,-81 580.5,-62 478.5,-62"/>
<text text-anchor="middle" x="529.5" y="-69" font-family="Helvetica,sans-Serif" font-size="10.00">tools/ToolsFwd.hpp</text>
</a>
</g>
</g>
<!-- Node4&#45;&gt;Node5 -->
<g id="edge5" class="edge"><title>Node4&#45;&gt;Node5</title>
<path fill="none" stroke="midnightblue" d="M468.673,-123.475C479.85,-114.108 498.017,-98.8839 511.591,-87.5081"/>
<polygon fill="midnightblue" stroke="midnightblue" points="513.93,-90.1148 519.346,-81.0091 509.434,-84.7496 513.93,-90.1148"/>
</g>
<!-- Node4&#45;&gt;Node8 -->
<g id="edge8" class="edge"><title>Node4&#45;&gt;Node8</title>
<path fill="none" stroke="midnightblue" d="M495.185,-123.653C532.408,-115.157 591.95,-101.496 652.967,-87.1126"/>
<polygon fill="midnightblue" stroke="midnightblue" points="653.841,-90.5026 662.77,-84.7987 652.233,-83.6898 653.841,-90.5026"/>
</g>
<!-- Node9 -->
<g id="node10" class="node"><title>Node9</title>
<polygon fill="white" stroke="#bfbfbf" points="598.5,-62 598.5,-81 644.5,-81 644.5,-62 598.5,-62"/>
<text text-anchor="middle" x="621.5" y="-69" font-family="Helvetica,sans-Serif" font-size="10.00">cstdint</text>
</g>
<!-- Node4&#45;&gt;Node9 -->
<g id="edge9" class="edge"><title>Node4&#45;&gt;Node9</title>
<path fill="none" stroke="midnightblue" d="M485.871,-123.433C512.565,-114.882 554.19,-101.028 589.5,-87 590.917,-86.437 592.363,-85.8457 593.817,-85.237"/>
<polygon fill="midnightblue" stroke="midnightblue" points="595.583,-88.2857 603.352,-81.0824 592.786,-81.8685 595.583,-88.2857"/>
</g>
<!-- Node10 -->
<g id="node11" class="node"><title>Node10</title>
<polygon fill="white" stroke="#bfbfbf" points="419,-62 419,-81 460,-81 460,-62 419,-62"/>
<text text-anchor="middle" x="439.5" y="-69" font-family="Helvetica,sans-Serif" font-size="10.00">string</text>
</g>
<!-- Node4&#45;&gt;Node10 -->
<g id="edge10" class="edge"><title>Node4&#45;&gt;Node10</title>
<path fill="none" stroke="midnightblue" d="M455.778,-123.475C453.069,-114.992 448.826,-101.704 445.351,-90.8222"/>
<polygon fill="midnightblue" stroke="midnightblue" points="448.593,-89.4705 442.217,-81.0091 441.925,-91.5999 448.593,-89.4705"/>
</g>
<!-- Node11 -->
<g id="node12" class="node"><title>Node11</title>
<polygon fill="white" stroke="#bfbfbf" points="356.5,-62 356.5,-81 400.5,-81 400.5,-62 356.5,-62"/>
<text text-anchor="middle" x="378.5" y="-69" font-family="Helvetica,sans-Serif" font-size="10.00">vector</text>
</g>
<!-- Node4&#45;&gt;Node11 -->
<g id="edge11" class="edge"><title>Node4&#45;&gt;Node11</title>
<path fill="none" stroke="midnightblue" d="M447.038,-123.475C434.325,-114.02 413.587,-98.5961 398.247,-87.1871"/>
<polygon fill="midnightblue" stroke="midnightblue" points="400.054,-84.1686 389.941,-81.0091 395.876,-89.7854 400.054,-84.1686"/>
</g>
<!-- Node6 -->
<g id="node7" class="node"><title>Node6</title>
<polygon fill="white" stroke="#bfbfbf" points="262.5,-0.5 262.5,-19.5 314.5,-19.5 314.5,-0.5 262.5,-0.5"/>
<text text-anchor="middle" x="288.5" y="-7.5" font-family="Helvetica,sans-Serif" font-size="10.00">memory</text>
</g>
<!-- Node5&#45;&gt;Node6 -->
<g id="edge6" class="edge"><title>Node5&#45;&gt;Node6</title>
<path fill="none" stroke="midnightblue" d="M494.971,-61.9751C449.716,-50.8022 370.705,-31.2955 324.657,-19.9268"/>
<polygon fill="midnightblue" stroke="midnightblue" points="325.351,-16.4931 314.804,-17.4941 323.674,-23.2891 325.351,-16.4931"/>
</g>
<!-- Node7 -->
<g id="node8" class="node"><title>Node7</title>
<polygon fill="white" stroke="#bfbfbf" points="486.5,-0.5 486.5,-19.5 572.5,-19.5 572.5,-0.5 486.5,-0.5"/>
<text text-anchor="middle" x="529.5" y="-7.5" font-family="Helvetica,sans-Serif" font-size="10.00">odb/lazy&#45;ptr.hxx</text>
</g>
<!-- Node5&#45;&gt;Node7 -->
<g id="edge7" class="edge"><title>Node5&#45;&gt;Node7</title>
<path fill="none" stroke="midnightblue" d="M529.5,-61.9751C529.5,-53.5803 529.5,-40.4806 529.5,-29.6631"/>
<polygon fill="midnightblue" stroke="midnightblue" points="533,-29.5091 529.5,-19.5091 526,-29.5091 533,-29.5091"/>
</g>
<!-- Node12&#45;&gt;Node6 -->
<g id="edge13" class="edge"><title>Node12&#45;&gt;Node6</title>
<path fill="none" stroke="midnightblue" d="M355.322,-123.298C343.542,-103.502 314.552,-54.782 298.909,-28.4932"/>
<polygon fill="midnightblue" stroke="midnightblue" points="301.753,-26.4271 293.631,-19.6232 295.737,-30.0066 301.753,-26.4271"/>
</g>
<!-- Node12&#45;&gt;Node11 -->
<g id="edge14" class="edge"><title>Node12&#45;&gt;Node11</title>
<path fill="none" stroke="midnightblue" d="M363.079,-123.475C365.645,-114.992 369.665,-101.704 372.957,-90.8222"/>
<polygon fill="midnightblue" stroke="midnightblue" points="376.38,-91.5942 375.926,-81.0091 369.68,-89.5672 376.38,-91.5942"/>
</g>
<!-- Node13&#45;&gt;Node6 -->
<g id="edge16" class="edge"><title>Node13&#45;&gt;Node6</title>
<path fill="none" stroke="midnightblue" d="M254.231,-61.9751C260.172,-53.1384 269.617,-39.0886 277.088,-27.975"/>
<polygon fill="midnightblue" stroke="midnightblue" points="280.105,-29.7608 282.78,-19.5091 274.296,-25.8554 280.105,-29.7608"/>
</g>
<!-- Node14&#45;&gt;Node6 -->
<g id="edge18" class="edge"><title>Node14&#45;&gt;Node6</title>
<path fill="none" stroke="midnightblue" d="M185.466,-123.166C180.863,-108.041 173.991,-76.8073 187.5,-56 201.732,-34.079 229.393,-22.7465 252.174,-16.9402"/>
<polygon fill="midnightblue" stroke="midnightblue" points="253.262,-20.2819 262.231,-14.6431 251.703,-13.4576 253.262,-20.2819"/>
</g>
<!-- Node15&#45;&gt;Node2 -->
<g id="edge20" class="edge"><title>Node15&#45;&gt;Node2</title>
<path fill="none" stroke="midnightblue" d="M151.169,-179.444C131.18,-170.596 99.7569,-156.687 76.9361,-146.586"/>
<polygon fill="midnightblue" stroke="midnightblue" points="78.3018,-143.363 67.7408,-142.516 75.4685,-149.764 78.3018,-143.363"/>
</g>
<!-- Node17 -->
<g id="node18" class="node"><title>Node17</title>
<polygon fill="white" stroke="#bfbfbf" points="581,-123.5 581,-142.5 616,-142.5 616,-123.5 581,-123.5"/>
<text text-anchor="middle" x="598.5" y="-130.5" font-family="Helvetica,sans-Serif" font-size="10.00">map</text>
</g>
<!-- Node16&#45;&gt;Node17 -->
<g id="edge22" class="edge"><title>Node16&#45;&gt;Node17</title>
<path fill="none" stroke="midnightblue" d="M622.711,-179.083C618.742,-171.691 612.975,-160.953 608.065,-151.811"/>
<polygon fill="midnightblue" stroke="midnightblue" points="611.014,-149.905 603.2,-142.751 604.847,-153.217 611.014,-149.905"/>
</g>
<!-- Node18 -->
<g id="node19" class="node"><title>Node18</title>
<polygon fill="white" stroke="#bfbfbf" points="634.5,-123.5 634.5,-142.5 678.5,-142.5 678.5,-123.5 634.5,-123.5"/>
<text text-anchor="middle" x="656.5" y="-130.5" font-family="Helvetica,sans-Serif" font-size="10.00">mutex</text>
</g>
<!-- Node16&#45;&gt;Node18 -->
<g id="edge23" class="edge"><title>Node16&#45;&gt;Node18</title>
<path fill="none" stroke="midnightblue" d="M632.289,-179.083C636.258,-171.691 642.025,-160.953 646.935,-151.811"/>
<polygon fill="midnightblue" stroke="midnightblue" points="650.153,-153.217 651.8,-142.751 643.986,-149.905 650.153,-153.217"/>
</g>
</g>
</svg>
        <g id="navigator" transform="translate(0 0)" fill="#404254">
                <rect fill="#f2f5e9" fill-opacity="0.5" stroke="#606060" stroke-width=".5" x="0" y="0" width="60" height="60"/>
                <use id="zoomplus" xlink:href="#zoomPlus" x="17" y="9" onmousedown="handleZoom(evt,'in')"/>
                <use id="zoomminus" xlink:href="#zoomMin" x="42" y="9" onmousedown="handleZoom(evt,'out')"/>
                <use id="reset" xlink:href="#resetDef" x="30" y="36" onmousedown="handleReset()"/>
                <g id="arrowUp" xlink:href="#dirArrow" transform="translate(30 24)" onmousedown="handlePan(0,-1)">
                  <use xlink:href="#rim" fill="#404040">
                        <set attributeName="fill" to="#808080" begin="arrowUp.mouseover" end="arrowUp.mouseout"/>
                  </use>
                  <path fill="none" stroke="white" stroke-width="1.5" d="M0,-3.0v7 M-2.5,-0.5L0,-3.0L2.5,-0.5"/>
                </g>
                <g id="arrowRight" xlink:href="#dirArrow" transform="rotate(90) translate(36 -43)" onmousedown="handlePan(1,0)">
                  <use xlink:href="#rim" fill="#404040">
                        <set attributeName="fill" to="#808080" begin="arrowRight.mouseover" end="arrowRight.mouseout"/>
                  </use>
                  <path fill="none" stroke="white" stroke-width="1.5" d="M0,-3.0v7 M-2.5,-0.5L0,-3.0L2.5,-0.5"/>
                </g>
                <g id="arrowDown" xlink:href="#dirArrow" transform="rotate(180) translate(-30 -48)" onmousedown="handlePan(0,1)">
                  <use xlink:href="#rim" fill="#404040">
                        <set attributeName="fill" to="#808080" begin="arrowDown.mouseover" end="arrowDown.mouseout"/>
                  </use>
                  <path fill="none" stroke="white" stroke-width="1.5" d="M0,-3.0v7 M-2.5,-0.5L0,-3.0L2.5,-0.5"/>
                </g>
                <g id="arrowLeft" xlink:href="#dirArrow" transform="rotate(270) translate(-36 17)" onmousedown="handlePan(-1,0)">
                  <use xlink:href="#rim" fill="#404040">
                        <set attributeName="fill" to="#808080" begin="arrowLeft.mouseover" end="arrowLeft.mouseout"/>
                  </use>
                  <path fill="none" stroke="white" stroke-width="1.5" d="M0,-3.0v7 M-2.5,-0.5L0,-3.0L2.5,-0.5"/>
                </g>
        </g>
        <svg viewBox="0 0 15 15" width="100%" height="30px" preserveAspectRatio="xMaxYMin meet">
         <g id="arrow_out" transform="scale(0.3 0.3)">
          <a xlink:href="TestHelper_8hpp__incl_org.svg" target="_base">
           <rect id="button" ry="5" rx="5" y="6" x="6" height="38" width="38"
                fill="#f2f5e9" fill-opacity="0.5" stroke="#606060" stroke-width="1.0"/>
           <path id="arrow"
             d="M 11.500037,31.436501 C 11.940474,20.09759 22.043105,11.32322 32.158766,21.979434 L 37.068811,17.246167 C 37.068811,17.246167 37.088388,32 37.088388,32 L 22.160133,31.978069 C 22.160133,31.978069 26.997745,27.140456 26.997745,27.140456 C 18.528582,18.264221 13.291696,25.230495 11.500037,31.436501 z"
             style="fill:#404040;"/>
          </a>
         </g>
        </svg>
</svg>
