<?xml version="1.0" encoding="UTF-8" standalone="no"?>
<!DOCTYPE svg PUBLIC "-//W3C//DTD SVG 1.1//EN"
 "http://www.w3.org/Graphics/SVG/1.1/DTD/svg11.dtd">
<!-- Generated by graphviz version 2.38.0 (20140413.2041)
 -->
<!-- Title: src/core/credentials/RFIDCardPin.cpp Pages: 1 -->
<svg width="1202pt" height="453pt"
 viewBox="0.00 0.00 1201.99 453.00" xmlns="http://www.w3.org/2000/svg" xmlns:xlink="http://www.w3.org/1999/xlink">
<g id="graph0" class="graph" transform="scale(1 1) rotate(0) translate(4 449)">
<title>src/core/credentials/RFIDCardPin.cpp</title>
<polygon fill="white" stroke="none" points="-4,4 -4,-449 1197.99,-449 1197.99,4 -4,4"/>
<!-- Node0 -->
<g id="node1" class="node"><title>Node0</title>
<polygon fill="#bfbfbf" stroke="black" points="803.817,-414.5 803.817,-444.5 905.817,-444.5 905.817,-414.5 803.817,-414.5"/>
<text text-anchor="start" x="811.817" y="-432.5" font-family="Helvetica,sans-Serif" font-size="10.00">src/core/credentials</text>
<text text-anchor="middle" x="854.817" y="-421.5" font-family="Helvetica,sans-Serif" font-size="10.00">/RFIDCardPin.cpp</text>
</g>
<!-- Node1 -->
<g id="node2" class="node"><title>Node1</title>
<g id="a_node2"><a xlink:href="../../da/d24/RFIDCardPin_8hpp.html" target="_top" xlink:title="core/credentials/RFIDCard\lPin.hpp">
<polygon fill="white" stroke="black" points="650.817,-347.5 650.817,-377.5 784.817,-377.5 784.817,-347.5 650.817,-347.5"/>
<text text-anchor="start" x="658.817" y="-365.5" font-family="Helvetica,sans-Serif" font-size="10.00">core/credentials/RFIDCard</text>
<text text-anchor="middle" x="717.817" y="-354.5" font-family="Helvetica,sans-Serif" font-size="10.00">Pin.hpp</text>
</a>
</g>
</g>
<!-- Node0&#45;&gt;Node1 -->
<g id="edge1" class="edge"><title>Node0&#45;&gt;Node1</title>
<path fill="none" stroke="midnightblue" d="M825.09,-414.396C805.073,-404.899 778.469,-392.276 756.764,-381.978"/>
<polygon fill="midnightblue" stroke="midnightblue" points="758.021,-378.701 747.486,-377.577 755.021,-385.025 758.021,-378.701"/>
</g>
<!-- Node23 -->
<g id="node24" class="node"><title>Node23</title>
<g id="a_node24"><a xlink:href="../../d4/d3d/log_8hpp.html" target="_top" xlink:title="tools/log.hpp">
<polygon fill="white" stroke="black" points="939.817,-179.5 939.817,-198.5 1011.82,-198.5 1011.82,-179.5 939.817,-179.5"/>
<text text-anchor="middle" x="975.817" y="-186.5" font-family="Helvetica,sans-Serif" font-size="10.00">tools/log.hpp</text>
</a>
</g>
</g>
<!-- Node0&#45;&gt;Node23 -->
<g id="edge39" class="edge"><title>Node0&#45;&gt;Node23</title>
<path fill="none" stroke="midnightblue" d="M862.024,-414.295C882.931,-373.087 943.577,-253.548 966.708,-207.955"/>
<polygon fill="midnightblue" stroke="midnightblue" points="969.876,-209.447 971.279,-198.946 963.633,-206.28 969.876,-209.447"/>
</g>
<!-- Node2 -->
<g id="node3" class="node"><title>Node2</title>
<g id="a_node3"><a xlink:href="../../db/d3d/PinCode_8hpp.html" target="_top" xlink:title="core/credentials/PinCode.hpp">
<polygon fill="white" stroke="black" points="577.317,-291.5 577.317,-310.5 722.317,-310.5 722.317,-291.5 577.317,-291.5"/>
<text text-anchor="middle" x="649.817" y="-298.5" font-family="Helvetica,sans-Serif" font-size="10.00">core/credentials/PinCode.hpp</text>
</a>
</g>
</g>
<!-- Node1&#45;&gt;Node2 -->
<g id="edge2" class="edge"><title>Node1&#45;&gt;Node2</title>
<path fill="none" stroke="midnightblue" d="M701.702,-347.399C691.414,-338.397 678.07,-326.721 667.492,-317.465"/>
<polygon fill="midnightblue" stroke="midnightblue" points="669.543,-314.609 659.712,-310.658 664.933,-319.877 669.543,-314.609"/>
</g>
<!-- Node12 -->
<g id="node13" class="node"><title>Node12</title>
<polygon fill="white" stroke="#bfbfbf" points="824.317,-118 824.317,-137 865.317,-137 865.317,-118 824.317,-118"/>
<text text-anchor="middle" x="844.817" y="-125" font-family="Helvetica,sans-Serif" font-size="10.00">string</text>
</g>
<!-- Node1&#45;&gt;Node12 -->
<g id="edge38" class="edge"><title>Node1&#45;&gt;Node12</title>
<path fill="none" stroke="midnightblue" d="M725.571,-347.276C747.654,-306.76 810.853,-190.812 835.144,-146.246"/>
<polygon fill="midnightblue" stroke="midnightblue" points="838.362,-147.656 840.075,-137.201 832.216,-144.306 838.362,-147.656"/>
</g>
<!-- Node21 -->
<g id="node22" class="node"><title>Node21</title>
<g id="a_node22"><a xlink:href="../../d9/dd6/RFIDCard_8hpp.html" target="_top" xlink:title="core/credentials/RFIDCard.hpp">
<polygon fill="white" stroke="black" points="406.817,-291.5 406.817,-310.5 558.817,-310.5 558.817,-291.5 406.817,-291.5"/>
<text text-anchor="middle" x="482.817" y="-298.5" font-family="Helvetica,sans-Serif" font-size="10.00">core/credentials/RFIDCard.hpp</text>
</a>
</g>
</g>
<!-- Node1&#45;&gt;Node21 -->
<g id="edge33" class="edge"><title>Node1&#45;&gt;Node21</title>
<path fill="none" stroke="midnightblue" d="M662.423,-347.475C620.819,-336.941 564.636,-322.716 526.254,-312.998"/>
<polygon fill="midnightblue" stroke="midnightblue" points="526.967,-309.568 516.414,-310.506 525.249,-316.354 526.967,-309.568"/>
</g>
<!-- Node3 -->
<g id="node4" class="node"><title>Node3</title>
<g id="a_node4"><a xlink:href="../../d1/d40/Credential_8hpp.html" target="_top" xlink:title="core/credentials/Credential.hpp">
<polygon fill="white" stroke="black" points="487.817,-235.5 487.817,-254.5 639.817,-254.5 639.817,-235.5 487.817,-235.5"/>
<text text-anchor="middle" x="563.817" y="-242.5" font-family="Helvetica,sans-Serif" font-size="10.00">core/credentials/Credential.hpp</text>
</a>
</g>
</g>
<!-- Node2&#45;&gt;Node3 -->
<g id="edge3" class="edge"><title>Node2&#45;&gt;Node3</title>
<path fill="none" stroke="midnightblue" d="M636,-291.324C622.584,-282.9 601.993,-269.971 586.232,-260.074"/>
<polygon fill="midnightblue" stroke="midnightblue" points="587.931,-257.008 577.601,-254.655 584.208,-262.936 587.931,-257.008"/>
</g>
<!-- Node20 -->
<g id="node21" class="node"><title>Node20</title>
<g id="a_node21"><a xlink:href="../../d4/df3/IPinCode_8hpp.html" target="_top" xlink:title="core/credentials/IPinCode.hpp">
<polygon fill="white" stroke="black" points="321.817,-235.5 321.817,-254.5 469.817,-254.5 469.817,-235.5 321.817,-235.5"/>
<text text-anchor="middle" x="395.817" y="-242.5" font-family="Helvetica,sans-Serif" font-size="10.00">core/credentials/IPinCode.hpp</text>
</a>
</g>
</g>
<!-- Node2&#45;&gt;Node20 -->
<g id="edge30" class="edge"><title>Node2&#45;&gt;Node20</title>
<path fill="none" stroke="midnightblue" d="M609.57,-291.444C565.168,-282.004 493.664,-266.802 445.729,-256.611"/>
<polygon fill="midnightblue" stroke="midnightblue" points="446.385,-253.173 435.876,-254.516 444.93,-260.02 446.385,-253.173"/>
</g>
<!-- Node4 -->
<g id="node5" class="node"><title>Node4</title>
<g id="a_node5"><a xlink:href="../../dc/d49/LeosacFwd_8hpp.html" target="_top" xlink:title="LeosacFwd.hpp">
<polygon fill="white" stroke="black" points="17.8174,-179.5 17.8174,-198.5 103.817,-198.5 103.817,-179.5 17.8174,-179.5"/>
<text text-anchor="middle" x="60.8174" y="-186.5" font-family="Helvetica,sans-Serif" font-size="10.00">LeosacFwd.hpp</text>
</a>
</g>
</g>
<!-- Node3&#45;&gt;Node4 -->
<g id="edge4" class="edge"><title>Node3&#45;&gt;Node4</title>
<path fill="none" stroke="midnightblue" d="M487.696,-235.828C384.798,-224.781 203.908,-205.362 114.27,-195.738"/>
<polygon fill="midnightblue" stroke="midnightblue" points="114.379,-192.23 104.063,-194.643 113.632,-199.19 114.379,-192.23"/>
</g>
<!-- Node7 -->
<g id="node8" class="node"><title>Node7</title>
<g id="a_node8"><a xlink:href="../../d3/d6f/AuthFwd_8hpp.html" target="_top" xlink:title="core/auth/AuthFwd.hpp">
<polygon fill="white" stroke="black" points="467.817,-118 467.817,-137 585.817,-137 585.817,-118 467.817,-118"/>
<text text-anchor="middle" x="526.817" y="-125" font-family="Helvetica,sans-Serif" font-size="10.00">core/auth/AuthFwd.hpp</text>
</a>
</g>
</g>
<!-- Node3&#45;&gt;Node7 -->
<g id="edge7" class="edge"><title>Node3&#45;&gt;Node7</title>
<path fill="none" stroke="midnightblue" d="M561.036,-235.319C555.063,-216.673 540.894,-172.443 532.786,-147.132"/>
<polygon fill="midnightblue" stroke="midnightblue" points="536.015,-145.738 529.631,-137.282 529.348,-147.873 536.015,-145.738"/>
</g>
<!-- Node8 -->
<g id="node9" class="node"><title>Node8</title>
<polygon fill="white" stroke="#bfbfbf" points="743.317,-56.5 743.317,-75.5 792.317,-75.5 792.317,-56.5 743.317,-56.5"/>
<text text-anchor="middle" x="767.817" y="-63.5" font-family="Helvetica,sans-Serif" font-size="10.00">cstddef</text>
</g>
<!-- Node3&#45;&gt;Node8 -->
<g id="edge29" class="edge"><title>Node3&#45;&gt;Node8</title>
<path fill="none" stroke="midnightblue" d="M640.131,-238.678C674.891,-233.026 714.863,-221.662 744.817,-199 777.674,-174.143 780.877,-152.999 776.817,-112 775.943,-103.17 774.126,-93.5054 772.352,-85.4041"/>
<polygon fill="midnightblue" stroke="midnightblue" points="775.734,-84.4935 770.052,-75.5508 768.917,-86.0846 775.734,-84.4935"/>
</g>
<!-- Node10 -->
<g id="node11" class="node"><title>Node10</title>
<g id="a_node11"><a xlink:href="../../dc/dfe/ValidityInfo_8hpp.html" target="_top" xlink:title="core/auth/ValidityInfo.hpp">
<polygon fill="white" stroke="black" points="607.817,-179.5 607.817,-198.5 735.817,-198.5 735.817,-179.5 607.817,-179.5"/>
<text text-anchor="middle" x="671.817" y="-186.5" font-family="Helvetica,sans-Serif" font-size="10.00">core/auth/ValidityInfo.hpp</text>
</a>
</g>
</g>
<!-- Node3&#45;&gt;Node10 -->
<g id="edge11" class="edge"><title>Node3&#45;&gt;Node10</title>
<path fill="none" stroke="midnightblue" d="M581.169,-235.324C598.489,-226.664 625.333,-213.242 645.319,-203.249"/>
<polygon fill="midnightblue" stroke="midnightblue" points="647.129,-206.257 654.508,-198.655 643.999,-199.996 647.129,-206.257"/>
</g>
<!-- Node13 -->
<g id="node14" class="node"><title>Node13</title>
<g id="a_node14"><a xlink:href="../../d0/db0/ICredential_8hpp.html" target="_top" xlink:title="core/credentials/ICredential.hpp">
<polygon fill="white" stroke="black" points="321.317,-179.5 321.317,-198.5 476.317,-198.5 476.317,-179.5 321.317,-179.5"/>
<text text-anchor="middle" x="398.817" y="-186.5" font-family="Helvetica,sans-Serif" font-size="10.00">core/credentials/ICredential.hpp</text>
</a>
</g>
</g>
<!-- Node3&#45;&gt;Node13 -->
<g id="edge15" class="edge"><title>Node3&#45;&gt;Node13</title>
<path fill="none" stroke="midnightblue" d="M537.673,-235.444C509.794,-226.32 465.469,-211.813 434.417,-201.651"/>
<polygon fill="midnightblue" stroke="midnightblue" points="435.432,-198.3 424.84,-198.516 433.255,-204.953 435.432,-198.3"/>
</g>
<!-- Node19 -->
<g id="node20" class="node"><title>Node19</title>
<g id="a_node20"><a xlink:href="../../d8/d97/ToolsFwd_8hpp.html" target="_top" xlink:title="tools/ToolsFwd.hpp">
<polygon fill="white" stroke="black" points="347.817,-118 347.817,-137 449.817,-137 449.817,-118 347.817,-118"/>
<text text-anchor="middle" x="398.817" y="-125" font-family="Helvetica,sans-Serif" font-size="10.00">tools/ToolsFwd.hpp</text>
</a>
</g>
</g>
<!-- Node3&#45;&gt;Node19 -->
<g id="edge28" class="edge"><title>Node3&#45;&gt;Node19</title>
<path fill="none" stroke="midnightblue" d="M554.473,-235.486C540.067,-222.555 511.318,-197.511 484.817,-179 465.176,-165.28 441.641,-151.638 424.161,-141.997"/>
<polygon fill="midnightblue" stroke="midnightblue" points="425.591,-138.791 415.136,-137.078 422.241,-144.937 425.591,-138.791"/>
</g>
<!-- Node5 -->
<g id="node6" class="node"><title>Node5</title>
<polygon fill="white" stroke="#bfbfbf" points="141.817,-56.5 141.817,-75.5 193.817,-75.5 193.817,-56.5 141.817,-56.5"/>
<text text-anchor="middle" x="167.817" y="-63.5" font-family="Helvetica,sans-Serif" font-size="10.00">memory</text>
</g>
<!-- Node4&#45;&gt;Node5 -->
<g id="edge5" class="edge"><title>Node4&#45;&gt;Node5</title>
<path fill="none" stroke="midnightblue" d="M55.7055,-179.135C47.7052,-163.963 34.5418,-132.661 48.8174,-112 67.2991,-85.2522 103.869,-74.3862 131.617,-69.9814"/>
<polygon fill="midnightblue" stroke="midnightblue" points="132.332,-73.4163 141.763,-68.59 131.381,-66.4812 132.332,-73.4163"/>
</g>
<!-- Node6 -->
<g id="node7" class="node"><title>Node6</title>
<polygon fill="white" stroke="#bfbfbf" points="57.8174,-118 57.8174,-137 101.817,-137 101.817,-118 57.8174,-118"/>
<text text-anchor="middle" x="79.8174" y="-125" font-family="Helvetica,sans-Serif" font-size="10.00">vector</text>
</g>
<!-- Node4&#45;&gt;Node6 -->
<g id="edge6" class="edge"><title>Node4&#45;&gt;Node6</title>
<path fill="none" stroke="midnightblue" d="M63.5397,-179.475C66.2486,-170.992 70.4917,-157.704 73.9666,-146.822"/>
<polygon fill="midnightblue" stroke="midnightblue" points="77.3924,-147.6 77.1002,-137.009 70.7241,-145.47 77.3924,-147.6"/>
</g>
<!-- Node7&#45;&gt;Node5 -->
<g id="edge9" class="edge"><title>Node7&#45;&gt;Node5</title>
<path fill="none" stroke="midnightblue" d="M488.771,-117.99C479.028,-115.92 468.553,-113.789 458.817,-112 367.418,-95.2021 259.091,-79.5699 203.963,-71.9179"/>
<polygon fill="midnightblue" stroke="midnightblue" points="204.371,-68.4411 193.986,-70.5397 203.413,-75.3752 204.371,-68.4411"/>
</g>
<!-- Node7&#45;&gt;Node8 -->
<g id="edge8" class="edge"><title>Node7&#45;&gt;Node8</title>
<path fill="none" stroke="midnightblue" d="M561.347,-117.975C607.207,-106.653 687.731,-86.7724 733.489,-75.4752"/>
<polygon fill="midnightblue" stroke="midnightblue" points="734.375,-78.8617 743.245,-73.0667 732.697,-72.0657 734.375,-78.8617"/>
</g>
<!-- Node9 -->
<g id="node10" class="node"><title>Node9</title>
<polygon fill="white" stroke="#bfbfbf" points="355.817,-56.5 355.817,-75.5 441.817,-75.5 441.817,-56.5 355.817,-56.5"/>
<text text-anchor="middle" x="398.817" y="-63.5" font-family="Helvetica,sans-Serif" font-size="10.00">odb/lazy&#45;ptr.hxx</text>
</g>
<!-- Node7&#45;&gt;Node9 -->
<g id="edge10" class="edge"><title>Node7&#45;&gt;Node9</title>
<path fill="none" stroke="midnightblue" d="M508.478,-117.975C486.997,-107.99 451.195,-91.3476 426.37,-79.8075"/>
<polygon fill="midnightblue" stroke="midnightblue" points="427.666,-76.5506 417.123,-75.5091 424.715,-82.8983 427.666,-76.5506"/>
</g>
<!-- Node10&#45;&gt;Node7 -->
<g id="edge12" class="edge"><title>Node10&#45;&gt;Node7</title>
<path fill="none" stroke="midnightblue" d="M651.042,-179.475C626.385,-169.357 585.072,-152.405 556.916,-140.851"/>
<polygon fill="midnightblue" stroke="midnightblue" points="558.134,-137.567 547.554,-137.009 555.477,-144.043 558.134,-137.567"/>
</g>
<!-- Node11 -->
<g id="node12" class="node"><title>Node11</title>
<polygon fill="white" stroke="#bfbfbf" points="721.817,-118 721.817,-137 767.817,-137 767.817,-118 721.817,-118"/>
<text text-anchor="middle" x="744.817" y="-125" font-family="Helvetica,sans-Serif" font-size="10.00">chrono</text>
</g>
<!-- Node10&#45;&gt;Node11 -->
<g id="edge13" class="edge"><title>Node10&#45;&gt;Node11</title>
<path fill="none" stroke="midnightblue" d="M682.277,-179.475C693.769,-170.108 712.447,-154.884 726.404,-143.508"/>
<polygon fill="midnightblue" stroke="midnightblue" points="728.838,-146.04 734.378,-137.009 724.415,-140.614 728.838,-146.04"/>
</g>
<!-- Node10&#45;&gt;Node12 -->
<g id="edge14" class="edge"><title>Node10&#45;&gt;Node12</title>
<path fill="none" stroke="midnightblue" d="M696.604,-179.475C727.678,-168.788 780.924,-150.475 814.423,-138.954"/>
<polygon fill="midnightblue" stroke="midnightblue" points="815.821,-142.174 824.139,-135.612 813.544,-135.555 815.821,-142.174"/>
</g>
<!-- Node13&#45;&gt;Node5 -->
<g id="edge27" class="edge"><title>Node13&#45;&gt;Node5</title>
<path fill="none" stroke="midnightblue" d="M321.299,-180.175C268.945,-173.324 206.009,-161.516 186.817,-143 171.482,-128.204 167.801,-103.051 167.253,-85.7611"/>
<polygon fill="midnightblue" stroke="midnightblue" points="170.753,-85.7228 167.254,-75.7223 163.753,-85.7218 170.753,-85.7228"/>
</g>
<!-- Node13&#45;&gt;Node7 -->
<g id="edge16" class="edge"><title>Node13&#45;&gt;Node7</title>
<path fill="none" stroke="midnightblue" d="M417.157,-179.475C438.638,-169.49 474.439,-152.848 499.265,-141.307"/>
<polygon fill="midnightblue" stroke="midnightblue" points="500.919,-144.398 508.512,-137.009 497.969,-138.051 500.919,-144.398"/>
</g>
<!-- Node14 -->
<g id="node15" class="node"><title>Node14</title>
<g id="a_node15"><a xlink:href="../../d7/d7f/CredentialFwd_8hpp.html" target="_top" xlink:title="core/credentials/Credential\lFwd.hpp">
<polygon fill="white" stroke="black" points="196.317,-112.5 196.317,-142.5 329.317,-142.5 329.317,-112.5 196.317,-112.5"/>
<text text-anchor="start" x="204.317" y="-130.5" font-family="Helvetica,sans-Serif" font-size="10.00">core/credentials/Credential</text>
<text text-anchor="middle" x="262.817" y="-119.5" font-family="Helvetica,sans-Serif" font-size="10.00">Fwd.hpp</text>
</a>
</g>
</g>
<!-- Node13&#45;&gt;Node14 -->
<g id="edge17" class="edge"><title>Node13&#45;&gt;Node14</title>
<path fill="none" stroke="midnightblue" d="M379.332,-179.475C359.794,-170.927 329.106,-157.501 304.128,-146.573"/>
<polygon fill="midnightblue" stroke="midnightblue" points="305.434,-143.325 294.87,-142.523 302.629,-149.738 305.434,-143.325"/>
</g>
<!-- Node15 -->
<g id="node16" class="node"><title>Node15</title>
<g id="a_node16"><a xlink:href="../../dd/d9d/IVisitable_8hpp.html" target="_top" xlink:title="tools/IVisitable.hpp">
<polygon fill="white" stroke="black" points="603.817,-118 603.817,-137 703.817,-137 703.817,-118 603.817,-118"/>
<text text-anchor="middle" x="653.817" y="-125" font-family="Helvetica,sans-Serif" font-size="10.00">tools/IVisitable.hpp</text>
</a>
</g>
</g>
<!-- Node13&#45;&gt;Node15 -->
<g id="edge20" class="edge"><title>Node13&#45;&gt;Node15</title>
<path fill="none" stroke="midnightblue" d="M436.798,-179.461C476.313,-170.535 539.961,-156.037 594.817,-143 599.57,-141.87 604.534,-140.675 609.477,-139.475"/>
<polygon fill="midnightblue" stroke="midnightblue" points="610.636,-142.795 619.521,-137.023 608.976,-135.994 610.636,-142.795"/>
</g>
<!-- Node13&#45;&gt;Node19 -->
<g id="edge24" class="edge"><title>Node13&#45;&gt;Node19</title>
<path fill="none" stroke="midnightblue" d="M398.817,-179.475C398.817,-171.08 398.817,-157.981 398.817,-147.163"/>
<polygon fill="midnightblue" stroke="midnightblue" points="402.318,-147.009 398.817,-137.009 395.318,-147.009 402.318,-147.009"/>
</g>
<!-- Node14&#45;&gt;Node5 -->
<g id="edge18" class="edge"><title>Node14&#45;&gt;Node5</title>
<path fill="none" stroke="midnightblue" d="M240.304,-112.399C225.218,-102.951 205.432,-90.5589 190.344,-81.1089"/>
<polygon fill="midnightblue" stroke="midnightblue" points="191.974,-77.9996 181.641,-75.6578 188.258,-83.9321 191.974,-77.9996"/>
</g>
<!-- Node14&#45;&gt;Node9 -->
<g id="edge19" class="edge"><title>Node14&#45;&gt;Node9</title>
<path fill="none" stroke="midnightblue" d="M295.048,-112.399C317.662,-102.505 347.656,-89.3832 369.579,-79.7919"/>
<polygon fill="midnightblue" stroke="midnightblue" points="371.27,-82.8726 379.028,-75.6578 368.464,-76.4595 371.27,-82.8726"/>
</g>
<!-- Node16 -->
<g id="node17" class="node"><title>Node16</title>
<g id="a_node17"><a xlink:href="../../d2/d91/Visitor_8hpp.html" target="_top" xlink:title="tools/Visitor.hpp">
<polygon fill="white" stroke="black" points="610.317,-56.5 610.317,-75.5 697.317,-75.5 697.317,-56.5 610.317,-56.5"/>
<text text-anchor="middle" x="653.817" y="-63.5" font-family="Helvetica,sans-Serif" font-size="10.00">tools/Visitor.hpp</text>
</a>
</g>
</g>
<!-- Node15&#45;&gt;Node16 -->
<g id="edge21" class="edge"><title>Node15&#45;&gt;Node16</title>
<path fill="none" stroke="midnightblue" d="M653.817,-117.975C653.817,-109.58 653.817,-96.4806 653.817,-85.6631"/>
<polygon fill="midnightblue" stroke="midnightblue" points="657.318,-85.5091 653.817,-75.5091 650.318,-85.5091 657.318,-85.5091"/>
</g>
<!-- Node18 -->
<g id="node19" class="node"><title>Node18</title>
<polygon fill="white" stroke="#bfbfbf" points="995.317,-56.5 995.317,-75.5 1044.32,-75.5 1044.32,-56.5 995.317,-56.5"/>
<text text-anchor="middle" x="1019.82" y="-63.5" font-family="Helvetica,sans-Serif" font-size="10.00">cassert</text>
</g>
<!-- Node15&#45;&gt;Node18 -->
<g id="edge23" class="edge"><title>Node15&#45;&gt;Node18</title>
<path fill="none" stroke="midnightblue" d="M686.154,-117.964C694.781,-115.848 704.122,-113.702 712.817,-112 810.86,-92.8124 927.969,-77.8087 985.065,-70.9968"/>
<polygon fill="midnightblue" stroke="midnightblue" points="985.489,-74.4711 995.009,-69.8211 984.667,-67.5195 985.489,-74.4711"/>
</g>
<!-- Node17 -->
<g id="node18" class="node"><title>Node17</title>
<polygon fill="white" stroke="#bfbfbf" points="622.817,-0.5 622.817,-19.5 684.817,-19.5 684.817,-0.5 622.817,-0.5"/>
<text text-anchor="middle" x="653.817" y="-7.5" font-family="Helvetica,sans-Serif" font-size="10.00">type_traits</text>
</g>
<!-- Node16&#45;&gt;Node17 -->
<g id="edge22" class="edge"><title>Node16&#45;&gt;Node17</title>
<path fill="none" stroke="midnightblue" d="M653.817,-56.083C653.817,-49.0059 653.817,-38.8611 653.817,-29.9865"/>
<polygon fill="midnightblue" stroke="midnightblue" points="657.318,-29.751 653.817,-19.7511 650.318,-29.7511 657.318,-29.751"/>
</g>
<!-- Node19&#45;&gt;Node5 -->
<g id="edge25" class="edge"><title>Node19&#45;&gt;Node5</title>
<path fill="none" stroke="midnightblue" d="M365.721,-117.975C322.782,-106.915 248.139,-87.6889 203.822,-76.2739"/>
<polygon fill="midnightblue" stroke="midnightblue" points="204.604,-72.8612 194.047,-73.7562 202.858,-79.64 204.604,-72.8612"/>
</g>
<!-- Node19&#45;&gt;Node9 -->
<g id="edge26" class="edge"><title>Node19&#45;&gt;Node9</title>
<path fill="none" stroke="midnightblue" d="M398.817,-117.975C398.817,-109.58 398.817,-96.4806 398.817,-85.6631"/>
<polygon fill="midnightblue" stroke="midnightblue" points="402.318,-85.5091 398.817,-75.5091 395.318,-85.5091 402.318,-85.5091"/>
</g>
<!-- Node20&#45;&gt;Node5 -->
<g id="edge32" class="edge"><title>Node20&#45;&gt;Node5</title>
<path fill="none" stroke="midnightblue" d="M334.182,-235.452C280.036,-224.325 204.359,-199.154 167.817,-143 156.825,-126.107 158.95,-102.316 162.453,-85.8722"/>
<polygon fill="midnightblue" stroke="midnightblue" points="165.932,-86.387 164.954,-75.8374 159.139,-84.6943 165.932,-86.387"/>
</g>
<!-- Node20&#45;&gt;Node13 -->
<g id="edge31" class="edge"><title>Node20&#45;&gt;Node13</title>
<path fill="none" stroke="midnightblue" d="M396.313,-235.083C396.706,-228.006 397.27,-217.861 397.763,-208.986"/>
<polygon fill="midnightblue" stroke="midnightblue" points="401.271,-208.93 398.331,-198.751 394.282,-208.542 401.271,-208.93"/>
</g>
<!-- Node21&#45;&gt;Node3 -->
<g id="edge34" class="edge"><title>Node21&#45;&gt;Node3</title>
<path fill="none" stroke="midnightblue" d="M495.831,-291.324C508.349,-282.979 527.499,-270.212 542.289,-260.352"/>
<polygon fill="midnightblue" stroke="midnightblue" points="544.457,-263.114 550.836,-254.655 540.574,-257.289 544.457,-263.114"/>
</g>
<!-- Node22 -->
<g id="node23" class="node"><title>Node22</title>
<g id="a_node23"><a xlink:href="../../dc/dd6/IRFIDCard_8hpp.html" target="_top" xlink:title="core/credentials/IRFIDCard.hpp">
<polygon fill="white" stroke="black" points="148.317,-235.5 148.317,-254.5 303.317,-254.5 303.317,-235.5 148.317,-235.5"/>
<text text-anchor="middle" x="225.817" y="-242.5" font-family="Helvetica,sans-Serif" font-size="10.00">core/credentials/IRFIDCard.hpp</text>
</a>
</g>
</g>
<!-- Node21&#45;&gt;Node22 -->
<g id="edge35" class="edge"><title>Node21&#45;&gt;Node22</title>
<path fill="none" stroke="midnightblue" d="M442.095,-291.444C397.168,-282.004 324.82,-266.802 276.319,-256.611"/>
<polygon fill="midnightblue" stroke="midnightblue" points="276.855,-253.148 266.349,-254.516 275.416,-259.998 276.855,-253.148"/>
</g>
<!-- Node22&#45;&gt;Node5 -->
<g id="edge37" class="edge"><title>Node22&#45;&gt;Node5</title>
<path fill="none" stroke="midnightblue" d="M148.167,-238.096C93.2408,-232.118 26.365,-220.56 8.81742,-199 -11.5197,-174.013 7.80294,-140.474 38.8174,-112 64.5715,-88.3554 103.434,-77.0205 131.772,-71.6586"/>
<polygon fill="midnightblue" stroke="midnightblue" points="132.436,-75.0958 141.693,-69.9417 131.242,-68.1984 132.436,-75.0958"/>
</g>
<!-- Node22&#45;&gt;Node13 -->
<g id="edge36" class="edge"><title>Node22&#45;&gt;Node13</title>
<path fill="none" stroke="midnightblue" d="M253.23,-235.444C282.587,-226.28 329.337,-211.688 361.913,-201.519"/>
<polygon fill="midnightblue" stroke="midnightblue" points="363.03,-204.837 371.533,-198.516 360.945,-198.155 363.03,-204.837"/>
</g>
<!-- Node23&#45;&gt;Node12 -->
<g id="edge45" class="edge"><title>Node23&#45;&gt;Node12</title>
<path fill="none" stroke="midnightblue" d="M955.995,-179.385C935.57,-170.458 902.849,-156.015 874.817,-143 873.666,-142.466 872.492,-141.916 871.308,-141.359"/>
<polygon fill="midnightblue" stroke="midnightblue" points="872.756,-138.172 862.224,-137.026 869.743,-144.49 872.756,-138.172"/>
</g>
<!-- Node23&#45;&gt;Node18 -->
<g id="edge40" class="edge"><title>Node23&#45;&gt;Node18</title>
<path fill="none" stroke="midnightblue" d="M1012.07,-185.582C1066.27,-181.126 1164.37,-169.531 1185.82,-143 1223.7,-96.1453 1113.8,-76.97 1054.7,-70.2019"/>
<polygon fill="midnightblue" stroke="midnightblue" points="1054.96,-66.7103 1044.64,-69.1137 1054.21,-73.6696 1054.96,-66.7103"/>
</g>
<!-- Node24 -->
<g id="node25" class="node"><title>Node24</title>
<polygon fill="white" stroke="#bfbfbf" points="883.317,-118 883.317,-137 930.317,-137 930.317,-118 883.317,-118"/>
<text text-anchor="middle" x="906.817" y="-125" font-family="Helvetica,sans-Serif" font-size="10.00">csignal</text>
</g>
<!-- Node23&#45;&gt;Node24 -->
<g id="edge41" class="edge"><title>Node23&#45;&gt;Node24</title>
<path fill="none" stroke="midnightblue" d="M965.931,-179.475C955.171,-170.197 937.746,-155.171 924.596,-143.831"/>
<polygon fill="midnightblue" stroke="midnightblue" points="926.544,-140.889 916.685,-137.009 921.973,-146.19 926.544,-140.889"/>
</g>
<!-- Node25 -->
<g id="node26" class="node"><title>Node25</title>
<polygon fill="white" stroke="#bfbfbf" points="948.817,-118 948.817,-137 1002.82,-137 1002.82,-118 948.817,-118"/>
<text text-anchor="middle" x="975.817" y="-125" font-family="Helvetica,sans-Serif" font-size="10.00">iostream</text>
</g>
<!-- Node23&#45;&gt;Node25 -->
<g id="edge42" class="edge"><title>Node23&#45;&gt;Node25</title>
<path fill="none" stroke="midnightblue" d="M975.817,-179.475C975.817,-171.08 975.817,-157.981 975.817,-147.163"/>
<polygon fill="midnightblue" stroke="midnightblue" points="979.318,-147.009 975.817,-137.009 972.318,-147.009 979.318,-147.009"/>
</g>
<!-- Node26 -->
<g id="node27" class="node"><title>Node26</title>
<polygon fill="white" stroke="#bfbfbf" points="1021.32,-118 1021.32,-137 1106.32,-137 1106.32,-118 1021.32,-118"/>
<text text-anchor="middle" x="1063.82" y="-125" font-family="Helvetica,sans-Serif" font-size="10.00">spdlog/spdlog.h</text>
</g>
<!-- Node23&#45;&gt;Node26 -->
<g id="edge43" class="edge"><title>Node23&#45;&gt;Node26</title>
<path fill="none" stroke="midnightblue" d="M988.426,-179.475C1002.54,-169.931 1025.65,-154.307 1042.57,-142.868"/>
<polygon fill="midnightblue" stroke="midnightblue" points="1044.91,-145.51 1051.23,-137.009 1040.99,-139.711 1044.91,-145.51"/>
</g>
<!-- Node27 -->
<g id="node28" class="node"><title>Node27</title>
<polygon fill="white" stroke="#bfbfbf" points="1124.82,-118 1124.82,-137 1176.82,-137 1176.82,-118 1124.82,-118"/>
<text text-anchor="middle" x="1150.82" y="-125" font-family="Helvetica,sans-Serif" font-size="10.00">sstream</text>
</g>
<!-- Node23&#45;&gt;Node27 -->
<g id="edge44" class="edge"><title>Node23&#45;&gt;Node27</title>
<path fill="none" stroke="midnightblue" d="M1004.74,-179.459C1033.22,-170.874 1077.83,-156.947 1115.82,-143 1117.67,-142.32 1119.57,-141.6 1121.48,-140.859"/>
<polygon fill="midnightblue" stroke="midnightblue" points="1122.96,-144.036 1130.94,-137.065 1120.35,-137.539 1122.96,-144.036"/>
</g>
</g>
</svg>
