<?xml version="1.0" encoding="UTF-8" standalone="no"?>
<!DOCTYPE svg PUBLIC "-//W3C//DTD SVG 1.1//EN"
 "http://www.w3.org/Graphics/SVG/1.1/DTD/svg11.dtd">
<!-- Generated by graphviz version 2.38.0 (20140413.2041)
 -->
<!-- Title: src/modules/doorman/DoormanInstance.hpp Pages: 1 -->
<svg width="397pt" height="207pt"
 viewBox="0.00 0.00 397.00 207.00" xmlns="http://www.w3.org/2000/svg" xmlns:xlink="http://www.w3.org/1999/xlink">
<g id="graph0" class="graph" transform="scale(1 1) rotate(0) translate(4 203)">
<title>src/modules/doorman/DoormanInstance.hpp</title>
<polygon fill="white" stroke="none" points="-4,4 -4,-203 393,-203 393,4 -4,4"/>
<!-- Node0 -->
<g id="node1" class="node"><title>Node0</title>
<polygon fill="#bfbfbf" stroke="black" points="155.5,-168.5 155.5,-198.5 271.5,-198.5 271.5,-168.5 155.5,-168.5"/>
<text text-anchor="start" x="163.5" y="-186.5" font-family="Helvetica,sans-Serif" font-size="10.00">src/modules/doorman</text>
<text text-anchor="middle" x="213.5" y="-175.5" font-family="Helvetica,sans-Serif" font-size="10.00">/DoormanInstance.hpp</text>
</g>
<!-- Node1 -->
<g id="node2" class="node"><title>Node1</title>
<g id="a_node2"><a xlink:href="../../dc/d74/Auth_8hpp.html" target="_top" xlink:title="core/auth/Auth.hpp">
<polygon fill="white" stroke="black" points="122,-112.5 122,-131.5 221,-131.5 221,-112.5 122,-112.5"/>
<text text-anchor="middle" x="171.5" y="-119.5" font-family="Helvetica,sans-Serif" font-size="10.00">core/auth/Auth.hpp</text>
</a>
</g>
</g>
<!-- Node0&#45;&gt;Node1 -->
<g id="edge1" class="edge"><title>Node0&#45;&gt;Node1</title>
<path fill="none" stroke="midnightblue" d="M203.547,-168.399C197.506,-159.842 189.762,-148.871 183.399,-139.857"/>
<polygon fill="midnightblue" stroke="midnightblue" points="186.238,-137.809 177.611,-131.658 180.519,-141.846 186.238,-137.809"/>
</g>
<!-- Node2 -->
<g id="node3" class="node"><title>Node2</title>
<g id="a_node3"><a xlink:href="../../d3/d6f/AuthFwd_8hpp.html" target="_top" xlink:title="AuthFwd.hpp">
<polygon fill="white" stroke="black" points="56.5,-56.5 56.5,-75.5 130.5,-75.5 130.5,-56.5 56.5,-56.5"/>
<text text-anchor="middle" x="93.5" y="-63.5" font-family="Helvetica,sans-Serif" font-size="10.00">AuthFwd.hpp</text>
</a>
</g>
</g>
<!-- Node0&#45;&gt;Node2 -->
<g id="edge7" class="edge"><title>Node0&#45;&gt;Node2</title>
<path fill="none" stroke="midnightblue" d="M166.681,-168.432C147.477,-160.521 126.511,-148.778 112.5,-132 101.559,-118.898 96.9167,-99.7503 94.9479,-85.6286"/>
<polygon fill="midnightblue" stroke="midnightblue" points="98.4181,-85.1627 93.8729,-75.5923 91.458,-85.9082 98.4181,-85.1627"/>
</g>
<!-- Node7 -->
<g id="node8" class="node"><title>Node7</title>
<polygon fill="white" stroke="#bfbfbf" points="239,-112.5 239,-131.5 274,-131.5 274,-112.5 239,-112.5"/>
<text text-anchor="middle" x="256.5" y="-119.5" font-family="Helvetica,sans-Serif" font-size="10.00">map</text>
</g>
<!-- Node0&#45;&gt;Node7 -->
<g id="edge8" class="edge"><title>Node0&#45;&gt;Node7</title>
<path fill="none" stroke="midnightblue" d="M223.69,-168.399C229.874,-159.842 237.803,-148.871 244.318,-139.857"/>
<polygon fill="midnightblue" stroke="midnightblue" points="247.222,-141.813 250.243,-131.658 241.549,-137.713 247.222,-141.813"/>
</g>
<!-- Node8 -->
<g id="node9" class="node"><title>Node8</title>
<polygon fill="white" stroke="#bfbfbf" points="292,-112.5 292,-131.5 389,-131.5 389,-112.5 292,-112.5"/>
<text text-anchor="middle" x="340.5" y="-119.5" font-family="Helvetica,sans-Serif" font-size="10.00">zmqpp/zmqpp.hpp</text>
</g>
<!-- Node0&#45;&gt;Node8 -->
<g id="edge9" class="edge"><title>Node0&#45;&gt;Node8</title>
<path fill="none" stroke="midnightblue" d="M243.597,-168.399C264.62,-158.55 292.472,-145.501 312.919,-135.922"/>
<polygon fill="midnightblue" stroke="midnightblue" points="314.45,-139.07 322.02,-131.658 311.48,-132.731 314.45,-139.07"/>
</g>
<!-- Node1&#45;&gt;Node2 -->
<g id="edge2" class="edge"><title>Node1&#45;&gt;Node2</title>
<path fill="none" stroke="midnightblue" d="M158.968,-112.324C146.914,-103.979 128.473,-91.2122 114.231,-81.3524"/>
<polygon fill="midnightblue" stroke="midnightblue" points="116.215,-78.469 106.001,-75.6545 112.231,-84.2243 116.215,-78.469"/>
</g>
<!-- Node6 -->
<g id="node7" class="node"><title>Node6</title>
<polygon fill="white" stroke="#bfbfbf" points="149,-56.5 149,-75.5 256,-75.5 256,-56.5 149,-56.5"/>
<text text-anchor="middle" x="202.5" y="-63.5" font-family="Helvetica,sans-Serif" font-size="10.00">zmqpp/message.hpp</text>
</g>
<!-- Node1&#45;&gt;Node6 -->
<g id="edge6" class="edge"><title>Node1&#45;&gt;Node6</title>
<path fill="none" stroke="midnightblue" d="M176.619,-112.083C180.908,-104.613 187.158,-93.7244 192.442,-84.5199"/>
<polygon fill="midnightblue" stroke="midnightblue" points="195.533,-86.1662 197.476,-75.7511 189.462,-82.6811 195.533,-86.1662"/>
</g>
<!-- Node3 -->
<g id="node4" class="node"><title>Node3</title>
<polygon fill="white" stroke="#bfbfbf" points="0,-0.5 0,-19.5 49,-19.5 49,-0.5 0,-0.5"/>
<text text-anchor="middle" x="24.5" y="-7.5" font-family="Helvetica,sans-Serif" font-size="10.00">cstddef</text>
</g>
<!-- Node2&#45;&gt;Node3 -->
<g id="edge3" class="edge"><title>Node2&#45;&gt;Node3</title>
<path fill="none" stroke="midnightblue" d="M82.414,-56.324C72.014,-48.1849 56.2394,-35.8395 43.7784,-26.0874"/>
<polygon fill="midnightblue" stroke="midnightblue" points="45.8199,-23.2407 35.7878,-19.8339 41.5057,-28.7533 45.8199,-23.2407"/>
</g>
<!-- Node4 -->
<g id="node5" class="node"><title>Node4</title>
<polygon fill="white" stroke="#bfbfbf" points="67.5,-0.5 67.5,-19.5 119.5,-19.5 119.5,-0.5 67.5,-0.5"/>
<text text-anchor="middle" x="93.5" y="-7.5" font-family="Helvetica,sans-Serif" font-size="10.00">memory</text>
</g>
<!-- Node2&#45;&gt;Node4 -->
<g id="edge4" class="edge"><title>Node2&#45;&gt;Node4</title>
<path fill="none" stroke="midnightblue" d="M93.5,-56.083C93.5,-49.0059 93.5,-38.8611 93.5,-29.9865"/>
<polygon fill="midnightblue" stroke="midnightblue" points="97.0001,-29.751 93.5,-19.7511 90.0001,-29.7511 97.0001,-29.751"/>
</g>
<!-- Node5 -->
<g id="node6" class="node"><title>Node5</title>
<polygon fill="white" stroke="#bfbfbf" points="137.5,-0.5 137.5,-19.5 223.5,-19.5 223.5,-0.5 137.5,-0.5"/>
<text text-anchor="middle" x="180.5" y="-7.5" font-family="Helvetica,sans-Serif" font-size="10.00">odb/lazy&#45;ptr.hxx</text>
</g>
<!-- Node2&#45;&gt;Node5 -->
<g id="edge5" class="edge"><title>Node2&#45;&gt;Node5</title>
<path fill="none" stroke="midnightblue" d="M107.478,-56.324C121.05,-47.9002 141.88,-34.9709 157.825,-25.0741"/>
<polygon fill="midnightblue" stroke="midnightblue" points="159.906,-27.9019 166.557,-19.6545 156.214,-21.9544 159.906,-27.9019"/>
</g>
</g>
</svg>
