<?xml version="1.0" encoding="UTF-8" standalone="no"?>
<!DOCTYPE svg PUBLIC "-//W3C//DTD SVG 1.1//EN"
 "http://www.w3.org/Graphics/SVG/1.1/DTD/svg11.dtd">
<!-- Generated by graphviz version 2.38.0 (20140413.2041)
 -->
<!-- Title: src/exception/PermissionDenied.cpp Pages: 1 -->
<svg width="1345pt" height="319pt"
 viewBox="0.00 0.00 1344.56 319.00" xmlns="http://www.w3.org/2000/svg" xmlns:xlink="http://www.w3.org/1999/xlink">
<g id="graph0" class="graph" transform="scale(1 1) rotate(0) translate(4 315)">
<title>src/exception/PermissionDenied.cpp</title>
<polygon fill="white" stroke="none" points="-4,4 -4,-315 1340.56,-315 1340.56,4 -4,4"/>
<!-- Node0 -->
<g id="node1" class="node"><title>Node0</title>
<polygon fill="#bfbfbf" stroke="black" points="673.5,-280.5 673.5,-310.5 800.5,-310.5 800.5,-280.5 673.5,-280.5"/>
<text text-anchor="start" x="681.5" y="-298.5" font-family="Helvetica,sans-Serif" font-size="10.00">src/exception/Permission</text>
<text text-anchor="middle" x="737" y="-287.5" font-family="Helvetica,sans-Serif" font-size="10.00">Denied.cpp</text>
</g>
<!-- Node1 -->
<g id="node2" class="node"><title>Node1</title>
<g id="a_node2"><a xlink:href="../../da/dc7/PermissionDenied_8hpp.html" target="_top" xlink:title="PermissionDenied.hpp">
<polygon fill="white" stroke="black" points="679.5,-224.5 679.5,-243.5 794.5,-243.5 794.5,-224.5 679.5,-224.5"/>
<text text-anchor="middle" x="737" y="-231.5" font-family="Helvetica,sans-Serif" font-size="10.00">PermissionDenied.hpp</text>
</a>
</g>
</g>
<!-- Node0&#45;&gt;Node1 -->
<g id="edge1" class="edge"><title>Node0&#45;&gt;Node1</title>
<path fill="none" stroke="midnightblue" d="M737,-280.399C737,-272.466 737,-262.458 737,-253.858"/>
<polygon fill="midnightblue" stroke="midnightblue" points="740.5,-253.658 737,-243.658 733.5,-253.658 740.5,-253.658"/>
</g>
<!-- Node2 -->
<g id="node3" class="node"><title>Node2</title>
<g id="a_node3"><a xlink:href="../../d1/ddd/leosacexception_8hpp.html" target="_top" xlink:title="Exception class for LEOSAC Project related errors. ">
<polygon fill="white" stroke="black" points="661.5,-168.5 661.5,-187.5 812.5,-187.5 812.5,-168.5 661.5,-168.5"/>
<text text-anchor="middle" x="737" y="-175.5" font-family="Helvetica,sans-Serif" font-size="10.00">exception/leosacexception.hpp</text>
</a>
</g>
</g>
<!-- Node1&#45;&gt;Node2 -->
<g id="edge2" class="edge"><title>Node1&#45;&gt;Node2</title>
<path fill="none" stroke="midnightblue" d="M737,-224.083C737,-217.006 737,-206.861 737,-197.986"/>
<polygon fill="midnightblue" stroke="midnightblue" points="740.5,-197.751 737,-187.751 733.5,-197.751 740.5,-197.751"/>
</g>
<!-- Node3 -->
<g id="node4" class="node"><title>Node3</title>
<g id="a_node4"><a xlink:href="../../d6/d2f/Stacktrace_8hpp.html" target="_top" xlink:title="tools/Stacktrace.hpp">
<polygon fill="white" stroke="black" points="626.5,-112.5 626.5,-131.5 733.5,-131.5 733.5,-112.5 626.5,-112.5"/>
<text text-anchor="middle" x="680" y="-119.5" font-family="Helvetica,sans-Serif" font-size="10.00">tools/Stacktrace.hpp</text>
</a>
</g>
</g>
<!-- Node2&#45;&gt;Node3 -->
<g id="edge3" class="edge"><title>Node2&#45;&gt;Node3</title>
<path fill="none" stroke="midnightblue" d="M727.842,-168.324C719.499,-160.42 706.968,-148.548 696.823,-138.938"/>
<polygon fill="midnightblue" stroke="midnightblue" points="698.991,-136.171 689.325,-131.834 694.177,-141.252 698.991,-136.171"/>
</g>
<!-- Node4 -->
<g id="node5" class="node"><title>Node4</title>
<polygon fill="white" stroke="#bfbfbf" points="738.5,-0.5 738.5,-19.5 779.5,-19.5 779.5,-0.5 738.5,-0.5"/>
<text text-anchor="middle" x="759" y="-7.5" font-family="Helvetica,sans-Serif" font-size="10.00">string</text>
</g>
<!-- Node2&#45;&gt;Node4 -->
<g id="edge8" class="edge"><title>Node2&#45;&gt;Node4</title>
<path fill="none" stroke="midnightblue" d="M812.658,-176.844C964.244,-175.739 1293.66,-169.053 1328,-132 1404.29,-49.6765 919.159,-19.091 790.001,-12.4606"/>
<polygon fill="midnightblue" stroke="midnightblue" points="789.8,-8.94627 779.638,-11.9413 789.45,-15.9375 789.8,-8.94627"/>
</g>
<!-- Node6 -->
<g id="node7" class="node"><title>Node6</title>
<polygon fill="white" stroke="#bfbfbf" points="236.5,-112.5 236.5,-131.5 285.5,-131.5 285.5,-112.5 236.5,-112.5"/>
<text text-anchor="middle" x="261" y="-119.5" font-family="Helvetica,sans-Serif" font-size="10.00">cstddef</text>
</g>
<!-- Node2&#45;&gt;Node6 -->
<g id="edge6" class="edge"><title>Node2&#45;&gt;Node6</title>
<path fill="none" stroke="midnightblue" d="M661.212,-173.115C574.733,-167.826 429.017,-156.309 295.746,-132.069"/>
<polygon fill="midnightblue" stroke="midnightblue" points="296.234,-128.6 285.765,-130.225 294.962,-135.484 296.234,-128.6"/>
</g>
<!-- Node7 -->
<g id="node8" class="node"><title>Node7</title>
<polygon fill="white" stroke="#bfbfbf" points="303.5,-112.5 303.5,-131.5 362.5,-131.5 362.5,-112.5 303.5,-112.5"/>
<text text-anchor="middle" x="333" y="-119.5" font-family="Helvetica,sans-Serif" font-size="10.00">exception</text>
</g>
<!-- Node2&#45;&gt;Node7 -->
<g id="edge7" class="edge"><title>Node2&#45;&gt;Node7</title>
<path fill="none" stroke="midnightblue" d="M661.16,-169.975C589.338,-162.793 478.314,-150.321 372.626,-131.939"/>
<polygon fill="midnightblue" stroke="midnightblue" points="373.2,-128.486 362.745,-130.2 371.987,-135.381 373.2,-128.486"/>
</g>
<!-- Node8 -->
<g id="node9" class="node"><title>Node8</title>
<g id="a_node9"><a xlink:href="../../d7/d7a/configexception_8hpp.html" target="_top" xlink:title="configexception.hpp">
<polygon fill="white" stroke="black" points="0,-112.5 0,-131.5 104,-131.5 104,-112.5 0,-112.5"/>
<text text-anchor="middle" x="52" y="-119.5" font-family="Helvetica,sans-Serif" font-size="10.00">configexception.hpp</text>
</a>
</g>
</g>
<!-- Node2&#45;&gt;Node8 -->
<g id="edge9" class="edge"><title>Node2&#45;&gt;Node8</title>
<path fill="none" stroke="midnightblue" d="M661.084,-173.639C543.925,-167.824 312.138,-154.42 110.016,-132.633"/>
<polygon fill="midnightblue" stroke="midnightblue" points="110.126,-129.125 99.806,-131.523 109.369,-136.084 110.126,-129.125"/>
</g>
<!-- Node11 -->
<g id="node12" class="node"><title>Node11</title>
<g id="a_node12"><a xlink:href="../../d8/db0/coreexception_8hpp.html" target="_top" xlink:title="Exception class for Core related errors. ">
<polygon fill="white" stroke="black" points="122,-112.5 122,-131.5 218,-131.5 218,-112.5 122,-112.5"/>
<text text-anchor="middle" x="170" y="-119.5" font-family="Helvetica,sans-Serif" font-size="10.00">coreexception.hpp</text>
</a>
</g>
</g>
<!-- Node2&#45;&gt;Node11 -->
<g id="edge15" class="edge"><title>Node2&#45;&gt;Node11</title>
<path fill="none" stroke="midnightblue" d="M661.147,-172.36C561.916,-165.626 382.721,-151.882 224.473,-132.77"/>
<polygon fill="midnightblue" stroke="midnightblue" points="224.431,-129.239 214.081,-131.503 223.584,-136.187 224.431,-129.239"/>
</g>
<!-- Node12 -->
<g id="node13" class="node"><title>Node12</title>
<g id="a_node13"><a xlink:href="../../d8/d77/deviceexception_8hpp.html" target="_top" xlink:title="Exception class for Device related errors. ">
<polygon fill="white" stroke="black" points="381,-112.5 381,-131.5 487,-131.5 487,-112.5 381,-112.5"/>
<text text-anchor="middle" x="434" y="-119.5" font-family="Helvetica,sans-Serif" font-size="10.00">deviceexception.hpp</text>
</a>
</g>
</g>
<!-- Node2&#45;&gt;Node12 -->
<g id="edge18" class="edge"><title>Node2&#45;&gt;Node12</title>
<path fill="none" stroke="midnightblue" d="M683.9,-168.444C628.4,-158.925 541.996,-143.547 486.663,-133.356"/>
<polygon fill="midnightblue" stroke="midnightblue" points="487.176,-129.892 476.707,-131.516 485.904,-136.776 487.176,-129.892"/>
</g>
<!-- Node13 -->
<g id="node14" class="node"><title>Node13</title>
<g id="a_node14"><a xlink:href="../../db/d35/dynlibexception_8hpp.html" target="_top" xlink:title="Exception class for DynLib related errors. ">
<polygon fill="white" stroke="black" points="505.5,-112.5 505.5,-131.5 608.5,-131.5 608.5,-112.5 505.5,-112.5"/>
<text text-anchor="middle" x="557" y="-119.5" font-family="Helvetica,sans-Serif" font-size="10.00">dynlibexception.hpp</text>
</a>
</g>
</g>
<!-- Node2&#45;&gt;Node13 -->
<g id="edge21" class="edge"><title>Node2&#45;&gt;Node13</title>
<path fill="none" stroke="midnightblue" d="M703.39,-168.444C670.975,-159.32 622.428,-144.813 590.168,-134.651"/>
<polygon fill="midnightblue" stroke="midnightblue" points="590.899,-131.21 580.308,-131.516 588.778,-137.882 590.899,-131.21"/>
</g>
<!-- Node14 -->
<g id="node15" class="node"><title>Node14</title>
<g id="a_node15"><a xlink:href="../../d0/d4e/fsexception_8hpp.html" target="_top" xlink:title="Exception class for filesystem related errors. ">
<polygon fill="white" stroke="black" points="752,-112.5 752,-131.5 838,-131.5 838,-112.5 752,-112.5"/>
<text text-anchor="middle" x="795" y="-119.5" font-family="Helvetica,sans-Serif" font-size="10.00">fsexception.hpp</text>
</a>
</g>
</g>
<!-- Node2&#45;&gt;Node14 -->
<g id="edge24" class="edge"><title>Node2&#45;&gt;Node14</title>
<path fill="none" stroke="midnightblue" d="M741.411,-168.083C748.402,-159.984 761.091,-147.866 772.494,-138.233"/>
<polygon fill="midnightblue" stroke="midnightblue" points="774.917,-140.774 780.47,-131.751 770.502,-135.342 774.917,-140.774"/>
</g>
<!-- Node15 -->
<g id="node16" class="node"><title>Node15</title>
<g id="a_node16"><a xlink:href="../../d1/d8e/gpioexception_8hpp.html" target="_top" xlink:title="Exception class for Gpio related errors. ">
<polygon fill="white" stroke="black" points="856.5,-112.5 856.5,-131.5 951.5,-131.5 951.5,-112.5 856.5,-112.5"/>
<text text-anchor="middle" x="904" y="-119.5" font-family="Helvetica,sans-Serif" font-size="10.00">gpioexception.hpp</text>
</a>
</g>
</g>
<!-- Node2&#45;&gt;Node15 -->
<g id="edge27" class="edge"><title>Node2&#45;&gt;Node15</title>
<path fill="none" stroke="midnightblue" d="M758.373,-168.444C784.702,-159.28 829.644,-144.688 862.729,-134.519"/>
<polygon fill="midnightblue" stroke="midnightblue" points="864.037,-137.78 872.582,-131.516 861.996,-131.084 864.037,-137.78"/>
</g>
<!-- Node16 -->
<g id="node17" class="node"><title>Node16</title>
<g id="a_node17"><a xlink:href="../../d7/d8c/moduleexception_8hpp.html" target="_top" xlink:title="Exception class for modules. ">
<polygon fill="white" stroke="black" points="969.5,-112.5 969.5,-131.5 1078.5,-131.5 1078.5,-112.5 969.5,-112.5"/>
<text text-anchor="middle" x="1024" y="-119.5" font-family="Helvetica,sans-Serif" font-size="10.00">moduleexception.hpp</text>
</a>
</g>
</g>
<!-- Node2&#45;&gt;Node16 -->
<g id="edge30" class="edge"><title>Node2&#45;&gt;Node16</title>
<path fill="none" stroke="midnightblue" d="M777.387,-168.444C825.891,-158.925 907.499,-143.547 963.51,-133.356"/>
<polygon fill="midnightblue" stroke="midnightblue" points="964.442,-136.745 973.657,-131.516 963.193,-129.857 964.442,-136.745"/>
</g>
<!-- Node17 -->
<g id="node18" class="node"><title>Node17</title>
<g id="a_node18"><a xlink:href="../../df/d8d/scriptexception_8hpp.html" target="_top" xlink:title="Exception class for Script related errors. ">
<polygon fill="white" stroke="black" points="1096.5,-112.5 1096.5,-131.5 1197.5,-131.5 1197.5,-112.5 1096.5,-112.5"/>
<text text-anchor="middle" x="1147" y="-119.5" font-family="Helvetica,sans-Serif" font-size="10.00">scriptexception.hpp</text>
</a>
</g>
</g>
<!-- Node2&#45;&gt;Node17 -->
<g id="edge33" class="edge"><title>Node2&#45;&gt;Node17</title>
<path fill="none" stroke="midnightblue" d="M799.982,-168.466C868.467,-159.719 980.915,-145.521 1078,-132 1080.79,-131.612 1083.65,-131.207 1086.54,-130.792"/>
<polygon fill="midnightblue" stroke="midnightblue" points="1087.08,-134.251 1096.48,-129.359 1086.08,-127.323 1087.08,-134.251"/>
</g>
<!-- Node18 -->
<g id="node19" class="node"><title>Node18</title>
<g id="a_node19"><a xlink:href="../../dc/dce/signalexception_8hpp.html" target="_top" xlink:title="Exception class for Signal related errors. ">
<polygon fill="white" stroke="black" points="1215.5,-112.5 1215.5,-131.5 1318.5,-131.5 1318.5,-112.5 1215.5,-112.5"/>
<text text-anchor="middle" x="1267" y="-119.5" font-family="Helvetica,sans-Serif" font-size="10.00">signalexception.hpp</text>
</a>
</g>
</g>
<!-- Node2&#45;&gt;Node18 -->
<g id="edge36" class="edge"><title>Node2&#45;&gt;Node18</title>
<path fill="none" stroke="midnightblue" d="M812.793,-170.377C904.078,-162.537 1061.8,-148.449 1197,-132 1199.79,-131.661 1202.65,-131.296 1205.54,-130.915"/>
<polygon fill="midnightblue" stroke="midnightblue" points="1206.03,-134.381 1215.47,-129.571 1205.09,-127.445 1206.03,-134.381"/>
</g>
<!-- Node3&#45;&gt;Node4 -->
<g id="edge4" class="edge"><title>Node3&#45;&gt;Node4</title>
<path fill="none" stroke="midnightblue" d="M686.199,-112.368C699.236,-94.2153 729.697,-51.8015 746.798,-27.9902"/>
<polygon fill="midnightblue" stroke="midnightblue" points="749.839,-29.7555 752.83,-19.5914 744.154,-25.6721 749.839,-29.7555"/>
</g>
<!-- Node5 -->
<g id="node6" class="node"><title>Node5</title>
<polygon fill="white" stroke="#bfbfbf" points="658,-56.5 658,-75.5 702,-75.5 702,-56.5 658,-56.5"/>
<text text-anchor="middle" x="680" y="-63.5" font-family="Helvetica,sans-Serif" font-size="10.00">vector</text>
</g>
<!-- Node3&#45;&gt;Node5 -->
<g id="edge5" class="edge"><title>Node3&#45;&gt;Node5</title>
<path fill="none" stroke="midnightblue" d="M680,-112.083C680,-105.006 680,-94.8611 680,-85.9865"/>
<polygon fill="midnightblue" stroke="midnightblue" points="683.5,-85.751 680,-75.7511 676.5,-85.7511 683.5,-85.751"/>
</g>
<!-- Node8&#45;&gt;Node2 -->
<g id="edge10" class="edge"><title>Node8&#45;&gt;Node2</title>
<path fill="none" stroke="midnightblue" d="M104.185,-129.79C110.218,-130.605 116.254,-131.37 122,-132 310.575,-152.682 532.296,-166.089 651.298,-172.522"/>
<polygon fill="midnightblue" stroke="midnightblue" points="651.264,-176.025 661.438,-173.066 651.64,-169.035 651.264,-176.025"/>
</g>
<!-- Node8&#45;&gt;Node4 -->
<g id="edge14" class="edge"><title>Node8&#45;&gt;Node4</title>
<path fill="none" stroke="midnightblue" d="M94.6193,-112.462C161.289,-99.2766 294.388,-73.642 408,-56 525.976,-37.6803 667.102,-21.2428 728.247,-14.3866"/>
<polygon fill="midnightblue" stroke="midnightblue" points="728.823,-17.8441 738.374,-13.2569 728.047,-10.8873 728.823,-17.8441"/>
</g>
<!-- Node9 -->
<g id="node10" class="node"><title>Node9</title>
<g id="a_node10"><a xlink:href="../../dd/d35/Colorize_8hpp.html" target="_top" xlink:title="tools/Colorize.hpp">
<polygon fill="white" stroke="black" points="41.5,-56.5 41.5,-75.5 136.5,-75.5 136.5,-56.5 41.5,-56.5"/>
<text text-anchor="middle" x="89" y="-63.5" font-family="Helvetica,sans-Serif" font-size="10.00">tools/Colorize.hpp</text>
</a>
</g>
</g>
<!-- Node8&#45;&gt;Node9 -->
<g id="edge11" class="edge"><title>Node8&#45;&gt;Node9</title>
<path fill="none" stroke="midnightblue" d="M58.1098,-112.083C63.2822,-104.534 70.8461,-93.4948 77.1944,-84.2298"/>
<polygon fill="midnightblue" stroke="midnightblue" points="80.2388,-85.9787 83.0039,-75.7511 74.4643,-82.0221 80.2388,-85.9787"/>
</g>
<!-- Node9&#45;&gt;Node4 -->
<g id="edge13" class="edge"><title>Node9&#45;&gt;Node4</title>
<path fill="none" stroke="midnightblue" d="M136.576,-60.5582C152.878,-59.0673 171.233,-57.4228 188,-56 394.192,-38.5034 642.472,-19.7169 728.165,-13.2991"/>
<polygon fill="midnightblue" stroke="midnightblue" points="728.541,-16.7809 738.252,-12.5446 728.018,-9.8004 728.541,-16.7809"/>
</g>
<!-- Node10 -->
<g id="node11" class="node"><title>Node10</title>
<polygon fill="white" stroke="#bfbfbf" points="63,-0.5 63,-19.5 115,-19.5 115,-0.5 63,-0.5"/>
<text text-anchor="middle" x="89" y="-7.5" font-family="Helvetica,sans-Serif" font-size="10.00">sstream</text>
</g>
<!-- Node9&#45;&gt;Node10 -->
<g id="edge12" class="edge"><title>Node9&#45;&gt;Node10</title>
<path fill="none" stroke="midnightblue" d="M89,-56.083C89,-49.0059 89,-38.8611 89,-29.9865"/>
<polygon fill="midnightblue" stroke="midnightblue" points="92.5001,-29.751 89,-19.7511 85.5001,-29.7511 92.5001,-29.751"/>
</g>
<!-- Node11&#45;&gt;Node2 -->
<g id="edge17" class="edge"><title>Node11&#45;&gt;Node2</title>
<path fill="none" stroke="midnightblue" d="M218.094,-129.551C224.153,-130.441 230.233,-131.291 236,-132 381.637,-149.901 551.518,-163.428 651.404,-170.778"/>
<polygon fill="midnightblue" stroke="midnightblue" points="651.214,-174.273 661.443,-171.513 651.726,-167.292 651.214,-174.273"/>
</g>
<!-- Node11&#45;&gt;Node4 -->
<g id="edge16" class="edge"><title>Node11&#45;&gt;Node4</title>
<path fill="none" stroke="midnightblue" d="M215.728,-112.46C331.009,-90.9304 631.222,-34.8634 728.262,-16.7406"/>
<polygon fill="midnightblue" stroke="midnightblue" points="729.111,-20.1427 738.298,-14.8662 727.826,-13.2616 729.111,-20.1427"/>
</g>
<!-- Node12&#45;&gt;Node2 -->
<g id="edge20" class="edge"><title>Node12&#45;&gt;Node2</title>
<path fill="none" stroke="midnightblue" d="M486.867,-131.516C542.279,-141.019 628.684,-156.395 684.104,-166.601"/>
<polygon fill="midnightblue" stroke="midnightblue" points="683.608,-170.068 694.078,-168.444 684.88,-163.185 683.608,-170.068"/>
</g>
<!-- Node12&#45;&gt;Node4 -->
<g id="edge19" class="edge"><title>Node12&#45;&gt;Node4</title>
<path fill="none" stroke="midnightblue" d="M456.616,-112.458C490.613,-99.702 556.986,-75.13 614,-56 653.342,-42.7995 699.135,-28.8158 728.565,-20.0048"/>
<polygon fill="midnightblue" stroke="midnightblue" points="729.673,-23.3267 738.255,-17.1137 727.671,-16.6189 729.673,-23.3267"/>
</g>
<!-- Node13&#45;&gt;Node2 -->
<g id="edge23" class="edge"><title>Node13&#45;&gt;Node2</title>
<path fill="none" stroke="midnightblue" d="M590.468,-131.516C622.835,-140.625 671.383,-155.129 703.69,-165.304"/>
<polygon fill="midnightblue" stroke="midnightblue" points="702.977,-168.75 713.567,-168.444 705.097,-162.079 702.977,-168.75"/>
</g>
<!-- Node13&#45;&gt;Node4 -->
<g id="edge22" class="edge"><title>Node13&#45;&gt;Node4</title>
<path fill="none" stroke="midnightblue" d="M567.522,-112.357C584.093,-99.031 617.622,-73.2114 649,-56 674.885,-41.8015 706.199,-29.4168 728.786,-21.254"/>
<polygon fill="midnightblue" stroke="midnightblue" points="730.244,-24.4506 738.499,-17.8093 727.904,-17.8532 730.244,-24.4506"/>
</g>
<!-- Node14&#45;&gt;Node2 -->
<g id="edge26" class="edge"><title>Node14&#45;&gt;Node2</title>
<path fill="none" stroke="midnightblue" d="M790.66,-131.834C783.672,-139.948 770.902,-152.145 759.444,-161.82"/>
<polygon fill="midnightblue" stroke="midnightblue" points="756.99,-159.303 751.434,-168.324 761.403,-164.737 756.99,-159.303"/>
</g>
<!-- Node14&#45;&gt;Node4 -->
<g id="edge25" class="edge"><title>Node14&#45;&gt;Node4</title>
<path fill="none" stroke="midnightblue" d="M792.175,-112.368C786.339,-94.5366 772.842,-53.2953 764.98,-29.2717"/>
<polygon fill="midnightblue" stroke="midnightblue" points="768.249,-28.0067 761.812,-19.5914 761.596,-30.1841 768.249,-28.0067"/>
</g>
<!-- Node15&#45;&gt;Node2 -->
<g id="edge28" class="edge"><title>Node15&#45;&gt;Node2</title>
<path fill="none" stroke="midnightblue" d="M882.742,-131.516C856.468,-140.664 811.535,-155.255 778.416,-165.436"/>
<polygon fill="midnightblue" stroke="midnightblue" points="777.095,-162.18 768.55,-168.444 779.136,-168.876 777.095,-162.18"/>
</g>
<!-- Node15&#45;&gt;Node4 -->
<g id="edge29" class="edge"><title>Node15&#45;&gt;Node4</title>
<path fill="none" stroke="midnightblue" d="M892.622,-112.368C867.952,-93.6531 809.29,-49.1509 778.552,-25.8324"/>
<polygon fill="midnightblue" stroke="midnightblue" points="780.407,-22.8469 770.325,-19.5914 776.177,-28.4237 780.407,-22.8469"/>
</g>
<!-- Node16&#45;&gt;Node2 -->
<g id="edge32" class="edge"><title>Node16&#45;&gt;Node2</title>
<path fill="none" stroke="midnightblue" d="M983.817,-131.516C935.406,-141.019 853.809,-156.395 797.726,-166.601"/>
<polygon fill="midnightblue" stroke="midnightblue" points="796.78,-163.215 787.565,-168.444 798.029,-170.103 796.78,-163.215"/>
</g>
<!-- Node16&#45;&gt;Node4 -->
<g id="edge31" class="edge"><title>Node16&#45;&gt;Node4</title>
<path fill="none" stroke="midnightblue" d="M1003.21,-112.368C956.571,-93.0105 843.474,-46.0645 789.131,-23.5074"/>
<polygon fill="midnightblue" stroke="midnightblue" points="790.275,-20.1927 779.698,-19.5914 787.592,-26.6578 790.275,-20.1927"/>
</g>
<!-- Node17&#45;&gt;Node2 -->
<g id="edge35" class="edge"><title>Node17&#45;&gt;Node2</title>
<path fill="none" stroke="midnightblue" d="M1099.48,-131.512C1098.31,-131.677 1097.15,-131.84 1096,-132 1002.84,-144.974 895.538,-158.572 822.62,-167.378"/>
<polygon fill="midnightblue" stroke="midnightblue" points="822.075,-163.919 812.565,-168.589 822.911,-170.868 822.075,-163.919"/>
</g>
<!-- Node17&#45;&gt;Node4 -->
<g id="edge34" class="edge"><title>Node17&#45;&gt;Node4</title>
<path fill="none" stroke="midnightblue" d="M1116.88,-112.46C1044.75,-92.0123 862.741,-40.4111 789.867,-19.751"/>
<polygon fill="midnightblue" stroke="midnightblue" points="790.509,-16.295 779.933,-16.9346 788.599,-23.0296 790.509,-16.295"/>
</g>
<!-- Node18&#45;&gt;Node2 -->
<g id="edge38" class="edge"><title>Node18&#45;&gt;Node2</title>
<path fill="none" stroke="midnightblue" d="M1218.86,-131.52C1217.56,-131.684 1216.28,-131.845 1215,-132 1078.49,-148.609 918.999,-162.811 823.043,-170.604"/>
<polygon fill="midnightblue" stroke="midnightblue" points="822.496,-167.137 812.811,-171.43 823.06,-174.114 822.496,-167.137"/>
</g>
<!-- Node18&#45;&gt;Node4 -->
<g id="edge37" class="edge"><title>Node18&#45;&gt;Node4</title>
<path fill="none" stroke="midnightblue" d="M1227.69,-112.479C1170.37,-100.054 1060.49,-76.2418 967,-56 903.885,-42.3352 829.994,-26.3529 789.463,-17.5876"/>
<polygon fill="midnightblue" stroke="midnightblue" points="790.18,-14.1617 779.666,-15.4689 788.7,-21.0036 790.18,-14.1617"/>
</g>
</g>
</svg>
