<?xml version="1.0" encoding="UTF-8" standalone="no"?>
<!DOCTYPE svg PUBLIC "-//W3C//DTD SVG 1.1//EN"
 "http://www.w3.org/Graphics/SVG/1.1/DTD/svg11.dtd">
<!-- Generated by graphviz version 2.38.0 (20140413.2041)
 -->
<!-- Title: src/modules/rpleth/network/circularbuffer.hpp Pages: 1 -->
<svg width="232pt" height="151pt"
 viewBox="0.00 0.00 231.50 151.00" xmlns="http://www.w3.org/2000/svg" xmlns:xlink="http://www.w3.org/1999/xlink">
<g id="graph0" class="graph" transform="scale(1 1) rotate(0) translate(4 147)">
<title>src/modules/rpleth/network/circularbuffer.hpp</title>
<polygon fill="white" stroke="none" points="-4,4 -4,-147 227.5,-147 227.5,4 -4,4"/>
<!-- Node0 -->
<g id="node1" class="node"><title>Node0</title>
<polygon fill="#bfbfbf" stroke="black" points="15.5,-112.5 15.5,-142.5 147.5,-142.5 147.5,-112.5 15.5,-112.5"/>
<text text-anchor="start" x="23.5" y="-130.5" font-family="Helvetica,sans-Serif" font-size="10.00">src/modules/rpleth</text>
<text text-anchor="middle" x="81.5" y="-119.5" font-family="Helvetica,sans-Serif" font-size="10.00">/network/circularbuffer.hpp</text>
</g>
<!-- Node1 -->
<g id="node2" class="node"><title>Node1</title>
<polygon fill="white" stroke="#bfbfbf" points="0,-56.5 0,-75.5 41,-75.5 41,-56.5 0,-56.5"/>
<text text-anchor="middle" x="20.5" y="-63.5" font-family="Helvetica,sans-Serif" font-size="10.00">string</text>
</g>
<!-- Node0&#45;&gt;Node1 -->
<g id="edge1" class="edge"><title>Node0&#45;&gt;Node1</title>
<path fill="none" stroke="midnightblue" d="M67.0439,-112.399C57.9057,-103.486 46.0814,-91.9523 36.6376,-82.7408"/>
<polygon fill="midnightblue" stroke="midnightblue" points="38.9785,-80.1348 29.376,-75.6578 34.0907,-85.1458 38.9785,-80.1348"/>
</g>
<!-- Node2 -->
<g id="node3" class="node"><title>Node2</title>
<polygon fill="white" stroke="#bfbfbf" points="59.5,-56.5 59.5,-75.5 103.5,-75.5 103.5,-56.5 59.5,-56.5"/>
<text text-anchor="middle" x="81.5" y="-63.5" font-family="Helvetica,sans-Serif" font-size="10.00">vector</text>
</g>
<!-- Node0&#45;&gt;Node2 -->
<g id="edge2" class="edge"><title>Node0&#45;&gt;Node2</title>
<path fill="none" stroke="midnightblue" d="M81.5,-112.399C81.5,-104.466 81.5,-94.458 81.5,-85.8583"/>
<polygon fill="midnightblue" stroke="midnightblue" points="85.0001,-85.6577 81.5,-75.6578 78.0001,-85.6578 85.0001,-85.6577"/>
</g>
<!-- Node3 -->
<g id="node4" class="node"><title>Node3</title>
<g id="a_node4"><a xlink:href="../../d4/d90/bufferutils_8hpp.html" target="_top" xlink:title="buffer&#45;related helper functions ">
<polygon fill="white" stroke="black" points="121.5,-56.5 121.5,-75.5 223.5,-75.5 223.5,-56.5 121.5,-56.5"/>
<text text-anchor="middle" x="172.5" y="-63.5" font-family="Helvetica,sans-Serif" font-size="10.00">tools/bufferutils.hpp</text>
</a>
</g>
</g>
<!-- Node0&#45;&gt;Node3 -->
<g id="edge3" class="edge"><title>Node0&#45;&gt;Node3</title>
<path fill="none" stroke="midnightblue" d="M103.066,-112.399C117.38,-103.04 136.112,-90.7924 150.511,-81.3771"/>
<polygon fill="midnightblue" stroke="midnightblue" points="152.804,-84.0597 159.259,-75.6578 148.974,-78.2009 152.804,-84.0597"/>
</g>
<!-- Node4 -->
<g id="node5" class="node"><title>Node4</title>
<polygon fill="white" stroke="#bfbfbf" points="149.5,-0.5 149.5,-19.5 195.5,-19.5 195.5,-0.5 149.5,-0.5"/>
<text text-anchor="middle" x="172.5" y="-7.5" font-family="Helvetica,sans-Serif" font-size="10.00">cstdint</text>
</g>
<!-- Node3&#45;&gt;Node4 -->
<g id="edge4" class="edge"><title>Node3&#45;&gt;Node4</title>
<path fill="none" stroke="midnightblue" d="M172.5,-56.083C172.5,-49.0059 172.5,-38.8611 172.5,-29.9865"/>
<polygon fill="midnightblue" stroke="midnightblue" points="176,-29.751 172.5,-19.7511 169,-29.7511 176,-29.751"/>
</g>
</g>
</svg>
