<?xml version="1.0" encoding="UTF-8" standalone="no"?>
<!DOCTYPE svg PUBLIC "-//W3C//DTD SVG 1.1//EN"
 "http://www.w3.org/Graphics/SVG/1.1/DTD/svg11.dtd">
<!-- Generated by graphviz version 2.38.0 (20140413.2041)
 -->
<!-- Title: src/core/tasks/GetLocalConfigVersion.hpp Pages: 1 -->
<svg width="300pt" height="151pt"
 viewBox="0.00 0.00 299.50 151.00" xmlns="http://www.w3.org/2000/svg" xmlns:xlink="http://www.w3.org/1999/xlink">
<g id="graph0" class="graph" transform="scale(1 1) rotate(0) translate(4 147)">
<title>src/core/tasks/GetLocalConfigVersion.hpp</title>
<polygon fill="white" stroke="none" points="-4,4 -4,-147 295.5,-147 295.5,4 -4,4"/>
<!-- Node0 -->
<g id="node1" class="node"><title>Node0</title>
<polygon fill="#bfbfbf" stroke="black" points="35.5,-112.5 35.5,-142.5 184.5,-142.5 184.5,-112.5 35.5,-112.5"/>
<text text-anchor="start" x="43.5" y="-130.5" font-family="Helvetica,sans-Serif" font-size="10.00">src/core/tasks/GetLocalConfig</text>
<text text-anchor="middle" x="110" y="-119.5" font-family="Helvetica,sans-Serif" font-size="10.00">Version.hpp</text>
</g>
<!-- Node1 -->
<g id="node2" class="node"><title>Node1</title>
<g id="a_node2"><a xlink:href="../../dc/d49/LeosacFwd_8hpp.html" target="_top" xlink:title="LeosacFwd.hpp">
<polygon fill="white" stroke="black" points="22,-56.5 22,-75.5 108,-75.5 108,-56.5 22,-56.5"/>
<text text-anchor="middle" x="65" y="-63.5" font-family="Helvetica,sans-Serif" font-size="10.00">LeosacFwd.hpp</text>
</a>
</g>
</g>
<!-- Node0&#45;&gt;Node1 -->
<g id="edge1" class="edge"><title>Node0&#45;&gt;Node1</title>
<path fill="none" stroke="midnightblue" d="M99.3356,-112.399C92.864,-103.842 84.5662,-92.8708 77.749,-83.857"/>
<polygon fill="midnightblue" stroke="midnightblue" points="80.3716,-81.5223 71.5479,-75.6578 74.7885,-85.7449 80.3716,-81.5223"/>
</g>
<!-- Node4 -->
<g id="node5" class="node"><title>Node4</title>
<g id="a_node5"><a xlink:href="../../d8/d91/Task_8hpp.html" target="_top" xlink:title="Task.hpp">
<polygon fill="white" stroke="black" points="126.5,-56.5 126.5,-75.5 183.5,-75.5 183.5,-56.5 126.5,-56.5"/>
<text text-anchor="middle" x="155" y="-63.5" font-family="Helvetica,sans-Serif" font-size="10.00">Task.hpp</text>
</a>
</g>
</g>
<!-- Node0&#45;&gt;Node4 -->
<g id="edge4" class="edge"><title>Node0&#45;&gt;Node4</title>
<path fill="none" stroke="midnightblue" d="M120.664,-112.399C127.136,-103.842 135.434,-92.8708 142.251,-83.857"/>
<polygon fill="midnightblue" stroke="midnightblue" points="145.211,-85.7449 148.452,-75.6578 139.628,-81.5223 145.211,-85.7449"/>
</g>
<!-- Node2 -->
<g id="node3" class="node"><title>Node2</title>
<polygon fill="white" stroke="#bfbfbf" points="62,-0.5 62,-19.5 114,-19.5 114,-0.5 62,-0.5"/>
<text text-anchor="middle" x="88" y="-7.5" font-family="Helvetica,sans-Serif" font-size="10.00">memory</text>
</g>
<!-- Node1&#45;&gt;Node2 -->
<g id="edge2" class="edge"><title>Node1&#45;&gt;Node2</title>
<path fill="none" stroke="midnightblue" d="M68.798,-56.083C71.9128,-48.77 76.4228,-38.1814 80.2893,-29.1034"/>
<polygon fill="midnightblue" stroke="midnightblue" points="83.5741,-30.3229 84.2727,-19.7511 77.1339,-27.5798 83.5741,-30.3229"/>
</g>
<!-- Node3 -->
<g id="node4" class="node"><title>Node3</title>
<polygon fill="white" stroke="#bfbfbf" points="0,-0.5 0,-19.5 44,-19.5 44,-0.5 0,-0.5"/>
<text text-anchor="middle" x="22" y="-7.5" font-family="Helvetica,sans-Serif" font-size="10.00">vector</text>
</g>
<!-- Node1&#45;&gt;Node3 -->
<g id="edge3" class="edge"><title>Node1&#45;&gt;Node3</title>
<path fill="none" stroke="midnightblue" d="M57.8994,-56.083C51.763,-48.3768 42.7303,-37.0333 35.2608,-27.6531"/>
<polygon fill="midnightblue" stroke="midnightblue" points="37.9357,-25.3936 28.9685,-19.7511 32.4598,-29.7542 37.9357,-25.3936"/>
</g>
<!-- Node4&#45;&gt;Node2 -->
<g id="edge7" class="edge"><title>Node4&#45;&gt;Node2</title>
<path fill="none" stroke="midnightblue" d="M144.235,-56.324C134.234,-48.2631 119.113,-36.0765 107.07,-26.3695"/>
<polygon fill="midnightblue" stroke="midnightblue" points="108.943,-23.3841 98.9606,-19.8339 104.55,-28.8343 108.943,-23.3841"/>
</g>
<!-- Node5 -->
<g id="node6" class="node"><title>Node5</title>
<polygon fill="white" stroke="#bfbfbf" points="132,-0.5 132,-19.5 178,-19.5 178,-0.5 132,-0.5"/>
<text text-anchor="middle" x="155" y="-7.5" font-family="Helvetica,sans-Serif" font-size="10.00">atomic</text>
</g>
<!-- Node4&#45;&gt;Node5 -->
<g id="edge5" class="edge"><title>Node4&#45;&gt;Node5</title>
<path fill="none" stroke="midnightblue" d="M155,-56.083C155,-49.0059 155,-38.8611 155,-29.9865"/>
<polygon fill="midnightblue" stroke="midnightblue" points="158.5,-29.751 155,-19.7511 151.5,-29.7511 158.5,-29.751"/>
</g>
<!-- Node6 -->
<g id="node7" class="node"><title>Node6</title>
<polygon fill="white" stroke="#bfbfbf" points="196.5,-0.5 196.5,-19.5 291.5,-19.5 291.5,-0.5 196.5,-0.5"/>
<text text-anchor="middle" x="244" y="-7.5" font-family="Helvetica,sans-Serif" font-size="10.00">condition_variable</text>
</g>
<!-- Node4&#45;&gt;Node6 -->
<g id="edge6" class="edge"><title>Node4&#45;&gt;Node6</title>
<path fill="none" stroke="midnightblue" d="M169.299,-56.324C183.183,-47.9002 204.492,-34.9709 220.804,-25.0741"/>
<polygon fill="midnightblue" stroke="midnightblue" points="223.002,-27.8341 229.736,-19.6545 219.371,-21.8495 223.002,-27.8341"/>
</g>
</g>
</svg>
