<?xml version="1.0" encoding="UTF-8" standalone="no"?>
<!DOCTYPE svg PUBLIC "-//W3C//DTD SVG 1.1//EN"
 "http://www.w3.org/Graphics/SVG/1.1/DTD/svg11.dtd">
<!-- Generated by graphviz version 2.38.0 (20140413.2041)
 -->
<!-- Title: Leosac::db::OptionalTransaction Pages: 1 -->
<svg width="166pt" height="106pt"
 viewBox="0.00 0.00 166.00 106.00" xmlns="http://www.w3.org/2000/svg" xmlns:xlink="http://www.w3.org/1999/xlink">
<g id="graph0" class="graph" transform="scale(1 1) rotate(0) translate(4 102)">
<title>Leosac::db::OptionalTransaction</title>
<polygon fill="white" stroke="none" points="-4,4 -4,-102 162,-102 162,4 -4,4"/>
<!-- Node1 -->
<g id="node1" class="node"><title>Node1</title>
<polygon fill="#bfbfbf" stroke="black" points="-1.42109e-14,-0.5 -1.42109e-14,-19.5 158,-19.5 158,-0.5 -1.42109e-14,-0.5"/>
<text text-anchor="middle" x="79" y="-7.5" font-family="Helvetica,sans-Serif" font-size="10.00">Leosac::db::OptionalTransaction</text>
</g>
<!-- Node2 -->
<g id="node2" class="node"><title>Node2</title>
<polygon fill="white" stroke="#bfbfbf" points="26,-67.5 26,-97.5 132,-97.5 132,-67.5 26,-67.5"/>
<text text-anchor="start" x="34" y="-85.5" font-family="Helvetica,sans-Serif" font-size="10.00">std::unique_ptr&lt; odb</text>
<text text-anchor="middle" x="79" y="-74.5" font-family="Helvetica,sans-Serif" font-size="10.00">::transaction &gt;</text>
</g>
<!-- Node2&#45;&gt;Node1 -->
<g id="edge1" class="edge"><title>Node2&#45;&gt;Node1</title>
<path fill="none" stroke="#9a32cd" stroke-dasharray="5,2" d="M79,-57.0913C79,-44.2136 79,-29.1974 79,-19.8932"/>
<polygon fill="#9a32cd" stroke="#9a32cd" points="75.5001,-57.2332 79,-67.2333 82.5001,-57.2333 75.5001,-57.2332"/>
<text text-anchor="middle" x="107.5" y="-41" font-family="Helvetica,sans-Serif" font-size="10.00"> transaction_</text>
</g>
</g>
</svg>
