<?xml version="1.0" encoding="UTF-8" standalone="no"?>
<!DOCTYPE svg PUBLIC "-//W3C//DTD SVG 1.1//EN"
 "http://www.w3.org/Graphics/SVG/1.1/DTD/svg11.dtd">
<!-- Generated by graphviz version 2.38.0 (20140413.2041)
 -->
<!-- Title: src/exception/ModelException.hpp Pages: 1 -->
<svg width="2845pt" height="95pt"
 viewBox="0.00 0.00 2845.00 95.00" xmlns="http://www.w3.org/2000/svg" xmlns:xlink="http://www.w3.org/1999/xlink">
<g id="graph0" class="graph" transform="scale(1 1) rotate(0) translate(4 91)">
<title>src/exception/ModelException.hpp</title>
<polygon fill="white" stroke="none" points="-4,4 -4,-91 2841,-91 2841,4 -4,4"/>
<!-- Node19 -->
<g id="node1" class="node"><title>Node19</title>
<polygon fill="#bfbfbf" stroke="black" points="1335.5,-67.5 1335.5,-86.5 1502.5,-86.5 1502.5,-67.5 1335.5,-67.5"/>
<text text-anchor="middle" x="1419" y="-74.5" font-family="Helvetica,sans-Serif" font-size="10.00">src/exception/ModelException.hpp</text>
</g>
<!-- Node20 -->
<g id="node2" class="node"><title>Node20</title>
<g id="a_node2"><a xlink:href="../../de/d74/Group_8cpp.html" target="_top" xlink:title="src/core/auth/Group.cpp">
<polygon fill="white" stroke="black" points="0,-6 0,-25 122,-25 122,-6 0,-6"/>
<text text-anchor="middle" x="61" y="-13" font-family="Helvetica,sans-Serif" font-size="10.00">src/core/auth/Group.cpp</text>
</a>
</g>
</g>
<!-- Node19&#45;&gt;Node20 -->
<g id="edge1" class="edge"><title>Node19&#45;&gt;Node20</title>
<path fill="none" stroke="midnightblue" d="M1325.31,-74.7867C1069.4,-71.1436 362.278,-58.7909 131,-31 119.664,-29.6378 107.435,-27.382 96.419,-25.0508"/>
<polygon fill="midnightblue" stroke="midnightblue" points="1325.27,-78.2864 1335.32,-74.928 1325.37,-71.2871 1325.27,-78.2864"/>
</g>
<!-- Node21 -->
<g id="node3" class="node"><title>Node21</title>
<g id="a_node3"><a xlink:href="../../db/d53/Zone_8cpp.html" target="_top" xlink:title="src/core/auth/Zone.cpp">
<polygon fill="white" stroke="black" points="140.5,-6 140.5,-25 257.5,-25 257.5,-6 140.5,-6"/>
<text text-anchor="middle" x="199" y="-13" font-family="Helvetica,sans-Serif" font-size="10.00">src/core/auth/Zone.cpp</text>
</a>
</g>
</g>
<!-- Node19&#45;&gt;Node21 -->
<g id="edge2" class="edge"><title>Node19&#45;&gt;Node21</title>
<path fill="none" stroke="midnightblue" d="M1324.9,-74.4402C1087.73,-70.169 469.903,-56.8431 266,-31 255.138,-29.6233 243.43,-27.3634 232.887,-25.0329"/>
<polygon fill="midnightblue" stroke="midnightblue" points="1325.16,-77.9453 1335.22,-74.6247 1325.28,-70.9464 1325.16,-77.9453"/>
</g>
<!-- Node22 -->
<g id="node4" class="node"><title>Node22</title>
<g id="a_node4"><a xlink:href="../../d6/da9/src_2core_2credentials_2CredentialValidator_8cpp.html" target="_top" xlink:title="src/core/credentials\l/CredentialValidator.cpp">
<polygon fill="white" stroke="black" points="275.5,-0.5 275.5,-30.5 396.5,-30.5 396.5,-0.5 275.5,-0.5"/>
<text text-anchor="start" x="283.5" y="-18.5" font-family="Helvetica,sans-Serif" font-size="10.00">src/core/credentials</text>
<text text-anchor="middle" x="336" y="-7.5" font-family="Helvetica,sans-Serif" font-size="10.00">/CredentialValidator.cpp</text>
</a>
</g>
</g>
<!-- Node19&#45;&gt;Node22 -->
<g id="edge3" class="edge"><title>Node19&#45;&gt;Node22</title>
<path fill="none" stroke="midnightblue" d="M1325.04,-76.8238C1145.66,-77.2921 742.287,-73.0252 406,-31 402.921,-30.6153 399.776,-30.1674 396.607,-29.6724"/>
<polygon fill="midnightblue" stroke="midnightblue" points="1325.25,-80.3233 1335.23,-76.7915 1325.22,-73.3233 1325.25,-80.3233"/>
</g>
<!-- Node23 -->
<g id="node5" class="node"><title>Node23</title>
<g id="a_node5"><a xlink:href="../../d5/d2f/PinCode_8cpp.html" target="_top" xlink:title="src/core/credentials\l/PinCode.cpp">
<polygon fill="white" stroke="black" points="415,-0.5 415,-30.5 517,-30.5 517,-0.5 415,-0.5"/>
<text text-anchor="start" x="423" y="-18.5" font-family="Helvetica,sans-Serif" font-size="10.00">src/core/credentials</text>
<text text-anchor="middle" x="466" y="-7.5" font-family="Helvetica,sans-Serif" font-size="10.00">/PinCode.cpp</text>
</a>
</g>
</g>
<!-- Node19&#45;&gt;Node23 -->
<g id="edge4" class="edge"><title>Node19&#45;&gt;Node23</title>
<path fill="none" stroke="midnightblue" d="M1325.11,-73.4907C1128.25,-67.8655 677.949,-52.992 526,-31 523.136,-30.5855 520.209,-30.0972 517.264,-29.5552"/>
<polygon fill="midnightblue" stroke="midnightblue" points="1325.05,-76.9904 1335.15,-73.7758 1325.25,-69.9932 1325.05,-76.9904"/>
</g>
<!-- Node24 -->
<g id="node6" class="node"><title>Node24</title>
<g id="a_node6"><a xlink:href="../../d7/d68/src_2core_2credentials_2RFIDCard_8cpp.html" target="_top" xlink:title="src/core/credentials\l/RFIDCard.cpp">
<polygon fill="white" stroke="black" points="535,-0.5 535,-30.5 637,-30.5 637,-0.5 535,-0.5"/>
<text text-anchor="start" x="543" y="-18.5" font-family="Helvetica,sans-Serif" font-size="10.00">src/core/credentials</text>
<text text-anchor="middle" x="586" y="-7.5" font-family="Helvetica,sans-Serif" font-size="10.00">/RFIDCard.cpp</text>
</a>
</g>
</g>
<!-- Node19&#45;&gt;Node24 -->
<g id="edge5" class="edge"><title>Node19&#45;&gt;Node24</title>
<path fill="none" stroke="midnightblue" d="M1325.01,-75.9314C1178.95,-74.6117 888.982,-67.1354 646,-31 643.138,-30.5744 640.212,-30.0772 637.268,-29.5284"/>
<polygon fill="midnightblue" stroke="midnightblue" points="1325.25,-79.4333 1335.28,-76.0161 1325.31,-72.4336 1325.25,-79.4333"/>
</g>
<!-- Node25 -->
<g id="node7" class="node"><title>Node25</title>
<g id="a_node7"><a xlink:href="../../d3/d27/ModelException_8cpp.html" target="_top" xlink:title="src/exception/ModelException.cpp">
<polygon fill="white" stroke="black" points="655.5,-6 655.5,-25 822.5,-25 822.5,-6 655.5,-6"/>
<text text-anchor="middle" x="739" y="-13" font-family="Helvetica,sans-Serif" font-size="10.00">src/exception/ModelException.cpp</text>
</a>
</g>
</g>
<!-- Node19&#45;&gt;Node25 -->
<g id="edge6" class="edge"><title>Node19&#45;&gt;Node25</title>
<path fill="none" stroke="midnightblue" d="M1324.77,-71.1153C1208.46,-64.5505 1004.73,-51.3056 831,-31 817.188,-29.3857 802.274,-27.2196 788.556,-25.0547"/>
<polygon fill="midnightblue" stroke="midnightblue" points="1324.88,-74.6268 1335.06,-71.6914 1325.27,-67.6377 1324.88,-74.6268"/>
</g>
<!-- Node26 -->
<g id="node8" class="node"><title>Node26</title>
<g id="a_node8"><a xlink:href="../../d2/dc0/Device_8cpp.html" target="_top" xlink:title="src/hardware/Device.cpp">
<polygon fill="white" stroke="black" points="840.5,-6 840.5,-25 965.5,-25 965.5,-6 840.5,-6"/>
<text text-anchor="middle" x="903" y="-13" font-family="Helvetica,sans-Serif" font-size="10.00">src/hardware/Device.cpp</text>
</a>
</g>
</g>
<!-- Node19&#45;&gt;Node26 -->
<g id="edge7" class="edge"><title>Node19&#45;&gt;Node26</title>
<path fill="none" stroke="midnightblue" d="M1325.23,-69.2759C1234.93,-62.1513 1094.67,-49.3755 974,-31 963.304,-29.3712 951.781,-27.2004 941.195,-25.0355"/>
<polygon fill="midnightblue" stroke="midnightblue" points="1325.2,-72.7843 1335.44,-70.0745 1325.74,-65.8056 1325.2,-72.7843"/>
</g>
<!-- Node27 -->
<g id="node9" class="node"><title>Node27</title>
<g id="a_node9"><a xlink:href="../../d8/dc2/GPIO_8cpp.html" target="_top" xlink:title="src/hardware/GPIO.cpp">
<polygon fill="white" stroke="black" points="983.5,-6 983.5,-25 1102.5,-25 1102.5,-6 983.5,-6"/>
<text text-anchor="middle" x="1043" y="-13" font-family="Helvetica,sans-Serif" font-size="10.00">src/hardware/GPIO.cpp</text>
</a>
</g>
</g>
<!-- Node19&#45;&gt;Node27 -->
<g id="edge8" class="edge"><title>Node19&#45;&gt;Node27</title>
<path fill="none" stroke="midnightblue" d="M1341.64,-66.1157C1279.22,-57.7986 1189.22,-45.039 1111,-31 1101.26,-29.2515 1090.78,-27.1354 1081.04,-25.0666"/>
<polygon fill="midnightblue" stroke="midnightblue" points="1341.43,-69.6184 1351.8,-67.4629 1342.35,-62.6791 1341.43,-69.6184"/>
</g>
<!-- Node28 -->
<g id="node10" class="node"><title>Node28</title>
<g id="a_node10"><a xlink:href="../../d6/d95/PFDigitalModule_8cpp.html" target="_top" xlink:title="src/modules/pifacedigital\l/PFDigitalModule.cpp">
<polygon fill="white" stroke="black" points="1120.5,-0.5 1120.5,-30.5 1245.5,-30.5 1245.5,-0.5 1120.5,-0.5"/>
<text text-anchor="start" x="1128.5" y="-18.5" font-family="Helvetica,sans-Serif" font-size="10.00">src/modules/pifacedigital</text>
<text text-anchor="middle" x="1183" y="-7.5" font-family="Helvetica,sans-Serif" font-size="10.00">/PFDigitalModule.cpp</text>
</a>
</g>
</g>
<!-- Node19&#45;&gt;Node28 -->
<g id="edge9" class="edge"><title>Node19&#45;&gt;Node28</title>
<path fill="none" stroke="midnightblue" d="M1375.3,-64.9834C1336.76,-55.2651 1280.38,-41.0503 1238.62,-30.523"/>
<polygon fill="midnightblue" stroke="midnightblue" points="1374.63,-68.4241 1385.19,-67.4751 1376.35,-61.6365 1374.63,-68.4241"/>
</g>
<!-- Node29 -->
<g id="node11" class="node"><title>Node29</title>
<g id="a_node11"><a xlink:href="../../d7/d29/AccessPointCRUD_8cpp.html" target="_top" xlink:title="src/modules/websock\l&#45;api/api/AccessPointCRUD.cpp">
<polygon fill="white" stroke="black" points="1263.5,-0.5 1263.5,-30.5 1418.5,-30.5 1418.5,-0.5 1263.5,-0.5"/>
<text text-anchor="start" x="1271.5" y="-18.5" font-family="Helvetica,sans-Serif" font-size="10.00">src/modules/websock</text>
<text text-anchor="middle" x="1341" y="-7.5" font-family="Helvetica,sans-Serif" font-size="10.00">&#45;api/api/AccessPointCRUD.cpp</text>
</a>
</g>
</g>
<!-- Node19&#45;&gt;Node29 -->
<g id="edge10" class="edge"><title>Node19&#45;&gt;Node29</title>
<path fill="none" stroke="midnightblue" d="M1399.59,-61.1955C1387.29,-51.8129 1371.48,-39.7512 1359.38,-30.523"/>
<polygon fill="midnightblue" stroke="midnightblue" points="1397.75,-64.1928 1407.82,-67.4751 1402,-58.6272 1397.75,-64.1928"/>
</g>
<!-- Node30 -->
<g id="node12" class="node"><title>Node30</title>
<g id="a_node12"><a xlink:href="../../d7/dde/DoorCRUD_8cpp.html" target="_top" xlink:title="src/modules/websock\l&#45;api/api/DoorCRUD.cpp">
<polygon fill="white" stroke="black" points="1436.5,-0.5 1436.5,-30.5 1557.5,-30.5 1557.5,-0.5 1436.5,-0.5"/>
<text text-anchor="start" x="1444.5" y="-18.5" font-family="Helvetica,sans-Serif" font-size="10.00">src/modules/websock</text>
<text text-anchor="middle" x="1497" y="-7.5" font-family="Helvetica,sans-Serif" font-size="10.00">&#45;api/api/DoorCRUD.cpp</text>
</a>
</g>
</g>
<!-- Node19&#45;&gt;Node30 -->
<g id="edge11" class="edge"><title>Node19&#45;&gt;Node30</title>
<path fill="none" stroke="midnightblue" d="M1438.41,-61.1955C1450.71,-51.8129 1466.52,-39.7512 1478.62,-30.523"/>
<polygon fill="midnightblue" stroke="midnightblue" points="1436,-58.6272 1430.18,-67.4751 1440.25,-64.1928 1436,-58.6272"/>
</g>
<!-- Node31 -->
<g id="node13" class="node"><title>Node31</title>
<g id="a_node13"><a xlink:href="../../d1/de1/GroupCRUD_8cpp.html" target="_top" xlink:title="src/modules/websock\l&#45;api/api/GroupCRUD.cpp">
<polygon fill="white" stroke="black" points="1576,-0.5 1576,-30.5 1702,-30.5 1702,-0.5 1576,-0.5"/>
<text text-anchor="start" x="1584" y="-18.5" font-family="Helvetica,sans-Serif" font-size="10.00">src/modules/websock</text>
<text text-anchor="middle" x="1639" y="-7.5" font-family="Helvetica,sans-Serif" font-size="10.00">&#45;api/api/GroupCRUD.cpp</text>
</a>
</g>
</g>
<!-- Node19&#45;&gt;Node31 -->
<g id="edge12" class="edge"><title>Node19&#45;&gt;Node31</title>
<path fill="none" stroke="midnightblue" d="M1460.19,-64.859C1496.11,-55.1442 1548.39,-41.0055 1587.15,-30.523"/>
<polygon fill="midnightblue" stroke="midnightblue" points="1459.26,-61.4857 1450.52,-67.4751 1461.09,-68.2429 1459.26,-61.4857"/>
</g>
<!-- Node32 -->
<g id="node14" class="node"><title>Node32</title>
<g id="a_node14"><a xlink:href="../../df/df7/UserCRUD_8cpp.html" target="_top" xlink:title="src/modules/websock\l&#45;api/api/UserCRUD.cpp">
<polygon fill="white" stroke="black" points="1720.5,-0.5 1720.5,-30.5 1841.5,-30.5 1841.5,-0.5 1720.5,-0.5"/>
<text text-anchor="start" x="1728.5" y="-18.5" font-family="Helvetica,sans-Serif" font-size="10.00">src/modules/websock</text>
<text text-anchor="middle" x="1781" y="-7.5" font-family="Helvetica,sans-Serif" font-size="10.00">&#45;api/api/UserCRUD.cpp</text>
</a>
</g>
</g>
<!-- Node19&#45;&gt;Node32 -->
<g id="edge13" class="edge"><title>Node19&#45;&gt;Node32</title>
<path fill="none" stroke="midnightblue" d="M1490.39,-66.0425C1549.62,-57.5317 1635.97,-44.544 1711,-31 1714.05,-30.4489 1717.18,-29.8671 1720.33,-29.2659"/>
<polygon fill="midnightblue" stroke="midnightblue" points="1489.8,-62.592 1480.39,-67.4738 1490.79,-69.5213 1489.8,-62.592"/>
</g>
<!-- Node33 -->
<g id="node15" class="node"><title>Node33</title>
<g id="a_node15"><a xlink:href="../../d7/d0b/ExceptionConverter_8cpp.html" target="_top" xlink:title="src/modules/websock\l&#45;api/ExceptionConverter.cpp">
<polygon fill="white" stroke="black" points="1860,-0.5 1860,-30.5 2000,-30.5 2000,-0.5 1860,-0.5"/>
<text text-anchor="start" x="1868" y="-18.5" font-family="Helvetica,sans-Serif" font-size="10.00">src/modules/websock</text>
<text text-anchor="middle" x="1930" y="-7.5" font-family="Helvetica,sans-Serif" font-size="10.00">&#45;api/ExceptionConverter.cpp</text>
</a>
</g>
</g>
<!-- Node19&#45;&gt;Node33 -->
<g id="edge14" class="edge"><title>Node19&#45;&gt;Node33</title>
<path fill="none" stroke="midnightblue" d="M1513.05,-68.3249C1600.74,-60.6672 1735.05,-47.6547 1851,-31 1853.9,-30.5837 1856.85,-30.1381 1859.84,-29.6708"/>
<polygon fill="midnightblue" stroke="midnightblue" points="1512.52,-64.8579 1502.86,-69.2092 1513.13,-71.8317 1512.52,-64.8579"/>
</g>
<!-- Node34 -->
<g id="node16" class="node"><title>Node34</title>
<g id="a_node16"><a xlink:href="../../d4/d2c/WSServer_8cpp.html" target="_top" xlink:title="src/modules/websock\l&#45;api/WSServer.cpp">
<polygon fill="white" stroke="black" points="2018,-0.5 2018,-30.5 2130,-30.5 2130,-0.5 2018,-0.5"/>
<text text-anchor="start" x="2026" y="-18.5" font-family="Helvetica,sans-Serif" font-size="10.00">src/modules/websock</text>
<text text-anchor="middle" x="2074" y="-7.5" font-family="Helvetica,sans-Serif" font-size="10.00">&#45;api/WSServer.cpp</text>
</a>
</g>
</g>
<!-- Node19&#45;&gt;Node34 -->
<g id="edge15" class="edge"><title>Node19&#45;&gt;Node34</title>
<path fill="none" stroke="midnightblue" d="M1513.3,-72.9744C1630.16,-68.2687 1835.16,-56.8825 2009,-31 2011.86,-30.5743 2014.78,-30.0935 2017.72,-29.5724"/>
<polygon fill="midnightblue" stroke="midnightblue" points="1512.81,-69.4907 1502.96,-73.3825 1513.09,-76.4852 1512.81,-69.4907"/>
</g>
<!-- Node35 -->
<g id="node17" class="node"><title>Node35</title>
<g id="a_node17"><a xlink:href="../../d6/d81/WiegandConfig_8cpp.html" target="_top" xlink:title="src/modules/wiegand\l/WiegandConfig.cpp">
<polygon fill="white" stroke="black" points="2148.5,-0.5 2148.5,-30.5 2257.5,-30.5 2257.5,-0.5 2148.5,-0.5"/>
<text text-anchor="start" x="2156.5" y="-18.5" font-family="Helvetica,sans-Serif" font-size="10.00">src/modules/wiegand</text>
<text text-anchor="middle" x="2203" y="-7.5" font-family="Helvetica,sans-Serif" font-size="10.00">/WiegandConfig.cpp</text>
</a>
</g>
</g>
<!-- Node19&#45;&gt;Node35 -->
<g id="edge16" class="edge"><title>Node19&#45;&gt;Node35</title>
<path fill="none" stroke="midnightblue" d="M1512.7,-74.9282C1650.56,-72.2712 1915.85,-63.0402 2139,-31 2142.04,-30.5628 2145.16,-30.0566 2148.29,-29.5006"/>
<polygon fill="midnightblue" stroke="midnightblue" points="1512.53,-71.4308 1502.59,-75.1156 1512.66,-78.4296 1512.53,-71.4308"/>
</g>
<!-- Node36 -->
<g id="node18" class="node"><title>Node36</title>
<g id="a_node18"><a xlink:href="../../d6/d16/Schedule_8cpp.html" target="_top" xlink:title="src/tools/Schedule.cpp">
<polygon fill="white" stroke="black" points="2276,-6 2276,-25 2392,-25 2392,-6 2276,-6"/>
<text text-anchor="middle" x="2334" y="-13" font-family="Helvetica,sans-Serif" font-size="10.00">src/tools/Schedule.cpp</text>
</a>
</g>
</g>
<!-- Node19&#45;&gt;Node36 -->
<g id="edge17" class="edge"><title>Node19&#45;&gt;Node36</title>
<path fill="none" stroke="midnightblue" d="M1512.85,-75.913C1669.71,-74.6747 1994.79,-67.4394 2267,-31 2277.73,-29.563 2289.3,-27.3155 2299.76,-25.0152"/>
<polygon fill="midnightblue" stroke="midnightblue" points="1512.74,-72.4137 1502.76,-75.9862 1512.79,-79.4135 1512.74,-72.4137"/>
</g>
<!-- Node37 -->
<g id="node19" class="node"><title>Node37</title>
<g id="a_node19"><a xlink:href="../../dc/db5/test_2CredentialValidator_8cpp.html" target="_top" xlink:title="test/CredentialValidator.cpp">
<polygon fill="white" stroke="black" points="2410.5,-6 2410.5,-25 2547.5,-25 2547.5,-6 2410.5,-6"/>
<text text-anchor="middle" x="2479" y="-13" font-family="Helvetica,sans-Serif" font-size="10.00">test/CredentialValidator.cpp</text>
</a>
</g>
</g>
<!-- Node19&#45;&gt;Node37 -->
<g id="edge18" class="edge"><title>Node19&#45;&gt;Node37</title>
<path fill="none" stroke="midnightblue" d="M1512.94,-75.998C1688.15,-75.0405 2076.44,-68.4233 2401,-31 2413.45,-29.5643 2426.91,-27.3171 2439.08,-25.0167"/>
<polygon fill="midnightblue" stroke="midnightblue" points="1512.71,-72.499 1502.73,-76.0486 1512.75,-79.4989 1512.71,-72.499"/>
</g>
<!-- Node38 -->
<g id="node20" class="node"><title>Node38</title>
<g id="a_node20"><a xlink:href="../../d8/df5/GroupValidator_8cpp.html" target="_top" xlink:title="test/GroupValidator.cpp">
<polygon fill="white" stroke="black" points="2565.5,-6 2565.5,-25 2684.5,-25 2684.5,-6 2565.5,-6"/>
<text text-anchor="middle" x="2625" y="-13" font-family="Helvetica,sans-Serif" font-size="10.00">test/GroupValidator.cpp</text>
</a>
</g>
</g>
<!-- Node19&#45;&gt;Node38 -->
<g id="edge19" class="edge"><title>Node19&#45;&gt;Node38</title>
<path fill="none" stroke="midnightblue" d="M1512.72,-74.3544C1747.41,-69.9019 2355.96,-56.2226 2557,-31 2568.02,-29.6176 2579.9,-27.3561 2590.6,-25.0259"/>
<polygon fill="midnightblue" stroke="midnightblue" points="1512.43,-70.8591 1502.5,-74.5469 1512.57,-77.8578 1512.43,-70.8591"/>
</g>
<!-- Node39 -->
<g id="node21" class="node"><title>Node39</title>
<g id="a_node21"><a xlink:href="../../da/d76/ScheduleValidator_8cpp.html" target="_top" xlink:title="test/ScheduleValidator.cpp">
<polygon fill="white" stroke="black" points="2703,-6 2703,-25 2837,-25 2837,-6 2703,-6"/>
<text text-anchor="middle" x="2770" y="-13" font-family="Helvetica,sans-Serif" font-size="10.00">test/ScheduleValidator.cpp</text>
</a>
</g>
</g>
<!-- Node19&#45;&gt;Node39 -->
<g id="edge20" class="edge"><title>Node19&#45;&gt;Node39</title>
<path fill="none" stroke="midnightblue" d="M1513,-74.5522C1767.34,-70.3359 2465.23,-56.7067 2694,-31 2706.28,-29.62 2719.55,-27.3592 2731.51,-25.0289"/>
<polygon fill="midnightblue" stroke="midnightblue" points="1512.62,-71.0578 1502.68,-74.7221 1512.74,-78.0569 1512.62,-71.0578"/>
</g>
</g>
</svg>
