<?xml version="1.0" encoding="UTF-8" standalone="no"?>
<!DOCTYPE svg PUBLIC "-//W3C//DTD SVG 1.1//EN"
 "http://www.w3.org/Graphics/SVG/1.1/DTD/svg11.dtd">
<!-- Generated by graphviz version 2.38.0 (20140413.2041)
 -->
<!-- Title: src/tools/db/MultiplexedTransaction.hpp Pages: 1 -->
<svg width="910pt" height="106pt"
 viewBox="0.00 0.00 910.00 106.00" xmlns="http://www.w3.org/2000/svg" xmlns:xlink="http://www.w3.org/1999/xlink">
<g id="graph0" class="graph" transform="scale(1 1) rotate(0) translate(4 102)">
<title>src/tools/db/MultiplexedTransaction.hpp</title>
<polygon fill="white" stroke="none" points="-4,4 -4,-102 906,-102 906,4 -4,4"/>
<!-- Node23 -->
<g id="node1" class="node"><title>Node23</title>
<polygon fill="#bfbfbf" stroke="black" points="411,-67.5 411,-97.5 531,-97.5 531,-67.5 411,-67.5"/>
<text text-anchor="start" x="419" y="-85.5" font-family="Helvetica,sans-Serif" font-size="10.00">src/tools/db/Multiplexed</text>
<text text-anchor="middle" x="471" y="-74.5" font-family="Helvetica,sans-Serif" font-size="10.00">Transaction.hpp</text>
</g>
<!-- Node24 -->
<g id="node2" class="node"><title>Node24</title>
<g id="a_node2"><a xlink:href="../../d2/de5/WSAPICall_8cpp.html" target="_top" xlink:title="src/core/audit/WSAPICall.cpp">
<polygon fill="white" stroke="black" points="0,-6 0,-25 148,-25 148,-6 0,-6"/>
<text text-anchor="middle" x="74" y="-13" font-family="Helvetica,sans-Serif" font-size="10.00">src/core/audit/WSAPICall.cpp</text>
</a>
</g>
</g>
<!-- Node23&#45;&gt;Node24 -->
<g id="edge1" class="edge"><title>Node23&#45;&gt;Node24</title>
<path fill="none" stroke="midnightblue" d="M400.835,-70.493C337.17,-60.4397 240.735,-45.047 157,-31 145.747,-29.1123 133.647,-27.0288 122.259,-25.0441"/>
<polygon fill="midnightblue" stroke="midnightblue" points="400.341,-73.9583 410.765,-72.0596 401.432,-67.0438 400.341,-73.9583"/>
</g>
<!-- Node25 -->
<g id="node3" class="node"><title>Node25</title>
<g id="a_node3"><a xlink:href="../../dc/da8/UserSecurityContext_8cpp.html" target="_top" xlink:title="src/core/UserSecurityContext.cpp">
<polygon fill="white" stroke="black" points="166.5,-6 166.5,-25 331.5,-25 331.5,-6 166.5,-6"/>
<text text-anchor="middle" x="249" y="-13" font-family="Helvetica,sans-Serif" font-size="10.00">src/core/UserSecurityContext.cpp</text>
</a>
</g>
</g>
<!-- Node23&#45;&gt;Node25 -->
<g id="edge2" class="edge"><title>Node23&#45;&gt;Node25</title>
<path fill="none" stroke="midnightblue" d="M413.247,-64.5904C369.891,-51.896 312.331,-35.0429 278.129,-25.0287"/>
<polygon fill="midnightblue" stroke="midnightblue" points="412.522,-68.0249 423.103,-67.476 414.489,-61.307 412.522,-68.0249"/>
</g>
<!-- Node26 -->
<g id="node4" class="node"><title>Node26</title>
<g id="a_node4"><a xlink:href="../../d7/d86/APIAuth_8cpp.html" target="_top" xlink:title="src/modules/websock\l&#45;api/api/APIAuth.cpp">
<polygon fill="white" stroke="black" points="350,-0.5 350,-30.5 462,-30.5 462,-0.5 350,-0.5"/>
<text text-anchor="start" x="358" y="-18.5" font-family="Helvetica,sans-Serif" font-size="10.00">src/modules/websock</text>
<text text-anchor="middle" x="406" y="-7.5" font-family="Helvetica,sans-Serif" font-size="10.00">&#45;api/api/APIAuth.cpp</text>
</a>
</g>
</g>
<!-- Node23&#45;&gt;Node26 -->
<g id="edge3" class="edge"><title>Node23&#45;&gt;Node26</title>
<path fill="none" stroke="midnightblue" d="M449.811,-60.3115C440.061,-50.5612 428.759,-39.259 420.077,-30.5765"/>
<polygon fill="midnightblue" stroke="midnightblue" points="447.35,-62.7998 456.896,-67.396 452.3,-57.85 447.35,-62.7998"/>
</g>
<!-- Node27 -->
<g id="node5" class="node"><title>Node27</title>
<g id="a_node5"><a xlink:href="../../d4/d2c/WSServer_8cpp.html" target="_top" xlink:title="src/modules/websock\l&#45;api/WSServer.cpp">
<polygon fill="white" stroke="black" points="480,-0.5 480,-30.5 592,-30.5 592,-0.5 480,-0.5"/>
<text text-anchor="start" x="488" y="-18.5" font-family="Helvetica,sans-Serif" font-size="10.00">src/modules/websock</text>
<text text-anchor="middle" x="536" y="-7.5" font-family="Helvetica,sans-Serif" font-size="10.00">&#45;api/WSServer.cpp</text>
</a>
</g>
</g>
<!-- Node23&#45;&gt;Node27 -->
<g id="edge4" class="edge"><title>Node23&#45;&gt;Node27</title>
<path fill="none" stroke="midnightblue" d="M492.189,-60.3115C501.939,-50.5612 513.241,-39.259 521.923,-30.5765"/>
<polygon fill="midnightblue" stroke="midnightblue" points="489.7,-57.85 485.104,-67.396 494.65,-62.7998 489.7,-57.85"/>
</g>
<!-- Node28 -->
<g id="node6" class="node"><title>Node28</title>
<g id="a_node6"><a xlink:href="../../d6/dfd/DatabaseLogSink_8cpp.html" target="_top" xlink:title="src/tools/DatabaseLogSink.cpp">
<polygon fill="white" stroke="black" points="610.5,-6 610.5,-25 763.5,-25 763.5,-6 610.5,-6"/>
<text text-anchor="middle" x="687" y="-13" font-family="Helvetica,sans-Serif" font-size="10.00">src/tools/DatabaseLogSink.cpp</text>
</a>
</g>
</g>
<!-- Node23&#45;&gt;Node28 -->
<g id="edge5" class="edge"><title>Node23&#45;&gt;Node28</title>
<path fill="none" stroke="midnightblue" d="M527.192,-64.5904C569.376,-51.896 625.38,-35.0429 658.659,-25.0287"/>
<polygon fill="midnightblue" stroke="midnightblue" points="526.17,-61.2428 517.603,-67.476 528.187,-67.9458 526.17,-61.2428"/>
</g>
<!-- Node29 -->
<g id="node7" class="node"><title>Node29</title>
<g id="a_node7"><a xlink:href="../../d6/d19/MultiplexedTransaction_8cpp.html" target="_top" xlink:title="src/tools/db/Multiplexed\lTransaction.cpp">
<polygon fill="white" stroke="black" points="782,-0.5 782,-30.5 902,-30.5 902,-0.5 782,-0.5"/>
<text text-anchor="start" x="790" y="-18.5" font-family="Helvetica,sans-Serif" font-size="10.00">src/tools/db/Multiplexed</text>
<text text-anchor="middle" x="842" y="-7.5" font-family="Helvetica,sans-Serif" font-size="10.00">Transaction.cpp</text>
</a>
</g>
</g>
<!-- Node23&#45;&gt;Node29 -->
<g id="edge6" class="edge"><title>Node23&#45;&gt;Node29</title>
<path fill="none" stroke="midnightblue" d="M540.959,-70.6442C602.262,-60.9307 693.704,-45.9551 773,-31 775.887,-30.4555 778.839,-29.8857 781.819,-29.3001"/>
<polygon fill="midnightblue" stroke="midnightblue" points="540.339,-67.1986 531.008,-72.2166 541.432,-74.1128 540.339,-67.1986"/>
</g>
</g>
</svg>
