<?xml version="1.0" encoding="UTF-8" standalone="no"?>
<!DOCTYPE svg PUBLIC "-//W3C//DTD SVG 1.1//EN"
 "http://www.w3.org/Graphics/SVG/1.1/DTD/svg11.dtd">
<!-- Generated by graphviz version 2.38.0 (20140413.2041)
 -->
<!-- Title: src/core/auth/AccessPointUpdate.cpp Pages: 1 -->
<!--zoomable 565 -->
<svg id="main" version="1.1" xmlns="http://www.w3.org/2000/svg" xmlns:xlink="http://www.w3.org/1999/xlink" xml:space="preserve" onload="init(evt)">
<style type="text/css"><![CDATA[
.edge:hover path { stroke: red; }
.edge:hover polygon { stroke: red; fill: red; }
]]></style>
<script type="text/javascript"><![CDATA[
var edges = document.getElementsByTagName('g');
if (edges && edges.length) {
  for (var i=0;i<edges.length;i++) {
    if (edges[i].id.substr(0,4)=='edge') {
      edges[i].setAttribute('class','edge');
    }
  }
}
]]></script>
        <defs>
                <circle id="rim" cx="0" cy="0" r="7"/>
                <circle id="rim2" cx="0" cy="0" r="3.5"/>
                <g id="zoomPlus">
                        <use xlink:href="#rim" fill="#404040">
                                <set attributeName="fill" to="#808080" begin="zoomplus.mouseover" end="zoomplus.mouseout"/>
                        </use>
                        <path d="M-4,0h8M0,-4v8" fill="none" stroke="white" stroke-width="1.5" pointer-events="none"/>
                </g>
                <g id="zoomMin">
                        <use xlink:href="#rim" fill="#404040">
                                <set attributeName="fill" to="#808080" begin="zoomminus.mouseover" end="zoomminus.mouseout"/>
                        </use>
                        <path d="M-4,0h8" fill="none" stroke="white" stroke-width="1.5" pointer-events="none"/>
                </g>
                <g id="dirArrow">
                        <path fill="none" stroke="white" stroke-width="1.5" d="M0,-3.0v7 M-2.5,-0.5L0,-3.0L2.5,-0.5"/>
                </g>
               <g id="resetDef">
                       <use xlink:href="#rim2" fill="#404040">
                               <set attributeName="fill" to="#808080" begin="reset.mouseover" end="reset.mouseout"/>
                       </use>
               </g>
        </defs>

<script type="text/javascript">
var viewWidth = 1115;
var viewHeight = 565;
var sectionId = 'dynsection-0';
</script>
<script xlink:href="../../svgpan.js"/>
<svg id="graph" class="graph">
<g id="viewport">
<title>src/core/auth/AccessPointUpdate.cpp</title>
<polygon fill="white" stroke="none" points="-4,4 -4,-561 1111.28,-561 1111.28,4 -4,4"/>
<!-- Node0 -->
<g id="node1" class="node"><title>Node0</title>
<polygon fill="#bfbfbf" stroke="black" points="786.782,-526.5 786.782,-556.5 918.782,-556.5 918.782,-526.5 786.782,-526.5"/>
<text text-anchor="start" x="794.782" y="-544.5" font-family="Helvetica,sans-Serif" font-size="10.00">src/core/auth/AccessPoint</text>
<text text-anchor="middle" x="852.782" y="-533.5" font-family="Helvetica,sans-Serif" font-size="10.00">Update.cpp</text>
</g>
<!-- Node1 -->
<g id="node2" class="node"><title>Node1</title>
<g id="a_node2"><a xlink:href="../../d0/d2b/AccessPointUpdate_8hpp.html" target="_top" xlink:title="AccessPointUpdate.hpp">
<polygon fill="white" stroke="black" points="723.782,-465 723.782,-484 845.782,-484 845.782,-465 723.782,-465"/>
<text text-anchor="middle" x="784.782" y="-472" font-family="Helvetica,sans-Serif" font-size="10.00">AccessPointUpdate.hpp</text>
</a>
</g>
</g>
<!-- Node0&#45;&gt;Node1 -->
<g id="edge1" class="edge"><title>Node0&#45;&gt;Node1</title>
<path fill="none" stroke="midnightblue" d="M838.027,-526.396C827.215,-516.06 812.53,-502.024 801.321,-491.309"/>
<polygon fill="midnightblue" stroke="midnightblue" points="803.526,-488.574 793.878,-484.195 798.689,-493.634 803.526,-488.574"/>
</g>
<!-- Node31 -->
<g id="node32" class="node"><title>Node31</title>
<polygon fill="white" stroke="#bfbfbf" points="863.782,-459.5 863.782,-489.5 979.782,-489.5 979.782,-459.5 863.782,-459.5"/>
<text text-anchor="start" x="871.782" y="-477.5" font-family="Helvetica,sans-Serif" font-size="10.00">core/auth/AccessPoint</text>
<text text-anchor="middle" x="921.782" y="-466.5" font-family="Helvetica,sans-Serif" font-size="10.00">_odb.h</text>
</g>
<!-- Node0&#45;&gt;Node31 -->
<g id="edge50" class="edge"><title>Node0&#45;&gt;Node31</title>
<path fill="none" stroke="midnightblue" d="M867.754,-526.396C876.977,-517.708 888.976,-506.405 899.323,-496.658"/>
<polygon fill="midnightblue" stroke="midnightblue" points="901.961,-498.981 906.84,-489.577 897.161,-493.886 901.961,-498.981"/>
</g>
<!-- Node2 -->
<g id="node3" class="node"><title>Node2</title>
<g id="a_node3"><a xlink:href="../../d0/d93/Update_8hpp.html" target="_top" xlink:title="core/update/Update.hpp">
<polygon fill="white" stroke="black" points="724.282,-403.5 724.282,-422.5 845.282,-422.5 845.282,-403.5 724.282,-403.5"/>
<text text-anchor="middle" x="784.782" y="-410.5" font-family="Helvetica,sans-Serif" font-size="10.00">core/update/Update.hpp</text>
</a>
</g>
</g>
<!-- Node1&#45;&gt;Node2 -->
<g id="edge2" class="edge"><title>Node1&#45;&gt;Node2</title>
<path fill="none" stroke="midnightblue" d="M784.782,-464.975C784.782,-456.58 784.782,-443.481 784.782,-432.663"/>
<polygon fill="midnightblue" stroke="midnightblue" points="788.283,-432.509 784.782,-422.509 781.283,-432.509 788.283,-432.509"/>
</g>
<!-- Node3 -->
<g id="node4" class="node"><title>Node3</title>
<g id="a_node4"><a xlink:href="../../d7/dee/AuditTracker_8hpp.html" target="_top" xlink:title="core/audit/AuditTracker.hpp">
<polygon fill="white" stroke="black" points="668.282,-347.5 668.282,-366.5 805.282,-366.5 805.282,-347.5 668.282,-347.5"/>
<text text-anchor="middle" x="736.782" y="-354.5" font-family="Helvetica,sans-Serif" font-size="10.00">core/audit/AuditTracker.hpp</text>
</a>
</g>
</g>
<!-- Node2&#45;&gt;Node3 -->
<g id="edge3" class="edge"><title>Node2&#45;&gt;Node3</title>
<path fill="none" stroke="midnightblue" d="M776.856,-403.083C769.936,-395.298 759.717,-383.801 751.331,-374.367"/>
<polygon fill="midnightblue" stroke="midnightblue" points="753.821,-371.9 744.561,-366.751 748.589,-376.55 753.821,-371.9"/>
</g>
<!-- Node27 -->
<g id="node28" class="node"><title>Node27</title>
<polygon fill="white" stroke="#bfbfbf" points="863.282,-291.5 863.282,-310.5 936.282,-310.5 936.282,-291.5 863.282,-291.5"/>
<text text-anchor="middle" x="899.782" y="-298.5" font-family="Helvetica,sans-Serif" font-size="10.00">odb/core.hxx</text>
</g>
<!-- Node2&#45;&gt;Node27 -->
<g id="edge48" class="edge"><title>Node2&#45;&gt;Node27</title>
<path fill="none" stroke="midnightblue" d="M793.806,-403.368C813.121,-384.894 858.704,-341.293 883.323,-317.744"/>
<polygon fill="midnightblue" stroke="midnightblue" points="885.993,-320.033 890.801,-310.591 881.155,-314.974 885.993,-320.033"/>
</g>
<!-- Node28 -->
<g id="node29" class="node"><title>Node28</title>
<g id="a_node29"><a xlink:href="../../d7/d0a/IUpdate_8hpp.html" target="_top" xlink:title="core/update/IUpdate.hpp">
<polygon fill="white" stroke="black" points="29.7825,-179.5 29.7825,-198.5 153.782,-198.5 153.782,-179.5 29.7825,-179.5"/>
<text text-anchor="middle" x="91.7825" y="-186.5" font-family="Helvetica,sans-Serif" font-size="10.00">core/update/IUpdate.hpp</text>
</a>
</g>
</g>
<!-- Node2&#45;&gt;Node28 -->
<g id="edge44" class="edge"><title>Node2&#45;&gt;Node28</title>
<path fill="none" stroke="midnightblue" d="M723.845,-411.072C602.047,-406.433 324.253,-381.613 137.782,-255 120.498,-243.264 107.59,-222.732 99.9148,-207.879"/>
<polygon fill="midnightblue" stroke="midnightblue" points="102.965,-206.148 95.4479,-198.682 96.6683,-209.206 102.965,-206.148"/>
</g>
<!-- Node30 -->
<g id="node31" class="node"><title>Node30</title>
<polygon fill="white" stroke="#bfbfbf" points="862.282,-347.5 862.282,-366.5 903.282,-366.5 903.282,-347.5 862.282,-347.5"/>
<text text-anchor="middle" x="882.782" y="-354.5" font-family="Helvetica,sans-Serif" font-size="10.00">string</text>
</g>
<!-- Node2&#45;&gt;Node30 -->
<g id="edge49" class="edge"><title>Node2&#45;&gt;Node30</title>
<path fill="none" stroke="midnightblue" d="M800.528,-403.324C816.101,-394.743 840.16,-381.486 858.242,-371.522"/>
<polygon fill="midnightblue" stroke="midnightblue" points="860.007,-374.546 867.076,-366.655 856.629,-368.415 860.007,-374.546"/>
</g>
<!-- Node4 -->
<g id="node5" class="node"><title>Node4</title>
<g id="a_node5"><a xlink:href="../../d5/d07/IAuditTracker_8hpp.html" target="_top" xlink:title="core/audit/IAuditTracker.hpp">
<polygon fill="white" stroke="black" points="666.782,-291.5 666.782,-310.5 806.782,-310.5 806.782,-291.5 666.782,-291.5"/>
<text text-anchor="middle" x="736.782" y="-298.5" font-family="Helvetica,sans-Serif" font-size="10.00">core/audit/IAuditTracker.hpp</text>
</a>
</g>
</g>
<!-- Node3&#45;&gt;Node4 -->
<g id="edge4" class="edge"><title>Node3&#45;&gt;Node4</title>
<path fill="none" stroke="midnightblue" d="M736.782,-347.083C736.782,-340.006 736.782,-329.861 736.782,-320.986"/>
<polygon fill="midnightblue" stroke="midnightblue" points="740.283,-320.751 736.782,-310.751 733.283,-320.751 740.283,-320.751"/>
</g>
<!-- Node8 -->
<g id="node9" class="node"><title>Node8</title>
<polygon fill="white" stroke="#bfbfbf" points="373.782,-56.5 373.782,-75.5 425.782,-75.5 425.782,-56.5 373.782,-56.5"/>
<text text-anchor="middle" x="399.782" y="-63.5" font-family="Helvetica,sans-Serif" font-size="10.00">memory</text>
</g>
<!-- Node3&#45;&gt;Node8 -->
<g id="edge42" class="edge"><title>Node3&#45;&gt;Node8</title>
<path fill="none" stroke="midnightblue" d="M667.966,-352.875C485.249,-343.666 1.78248,-312.972 1.78248,-246 1.78248,-246 1.78248,-246 1.78248,-188 1.78248,-153.183 -5.34745,-135.01 20.7825,-112 71.0935,-67.6956 278.653,-65.3149 363.446,-66.2631"/>
<polygon fill="midnightblue" stroke="midnightblue" points="363.584,-69.7652 373.63,-66.4 363.678,-62.7658 363.584,-69.7652"/>
</g>
<!-- Node10 -->
<g id="node11" class="node"><title>Node10</title>
<g id="a_node11"><a xlink:href="../../df/da2/database_8hpp.html" target="_top" xlink:title="tools/db/database.hpp">
<polygon fill="white" stroke="black" points="381.282,-291.5 381.282,-310.5 494.282,-310.5 494.282,-291.5 381.282,-291.5"/>
<text text-anchor="middle" x="437.782" y="-298.5" font-family="Helvetica,sans-Serif" font-size="10.00">tools/db/database.hpp</text>
</a>
</g>
</g>
<!-- Node3&#45;&gt;Node10 -->
<g id="edge10" class="edge"><title>Node3&#45;&gt;Node10</title>
<path fill="none" stroke="midnightblue" d="M689.405,-347.444C636.698,-337.925 551.553,-322.547 495.126,-312.356"/>
<polygon fill="midnightblue" stroke="midnightblue" points="495.401,-308.849 484.938,-310.516 494.157,-315.738 495.401,-308.849"/>
</g>
<!-- Node21 -->
<g id="node22" class="node"><title>Node21</title>
<polygon fill="white" stroke="#bfbfbf" points="994.282,-112.5 994.282,-142.5 1107.28,-142.5 1107.28,-112.5 994.282,-112.5"/>
<text text-anchor="start" x="1002.28" y="-130.5" font-family="Helvetica,sans-Serif" font-size="10.00">boost/date_time/posix</text>
<text text-anchor="middle" x="1050.78" y="-119.5" font-family="Helvetica,sans-Serif" font-size="10.00">_time/posix_time.hpp</text>
</g>
<!-- Node3&#45;&gt;Node21 -->
<g id="edge41" class="edge"><title>Node3&#45;&gt;Node21</title>
<path fill="none" stroke="midnightblue" d="M753.534,-347.357C769.814,-338.749 795.046,-324.855 815.782,-311 896.316,-257.19 984.944,-184.303 1026.61,-149.149"/>
<polygon fill="midnightblue" stroke="midnightblue" points="1028.93,-151.771 1034.3,-142.638 1024.4,-146.429 1028.93,-151.771"/>
</g>
<!-- Node3&#45;&gt;Node27 -->
<g id="edge43" class="edge"><title>Node3&#45;&gt;Node27</title>
<path fill="none" stroke="midnightblue" d="M762.61,-347.444C790.032,-338.359 833.56,-323.939 864.215,-313.783"/>
<polygon fill="midnightblue" stroke="midnightblue" points="865.684,-316.984 874.075,-310.516 863.482,-310.339 865.684,-316.984"/>
</g>
<!-- Node5 -->
<g id="node6" class="node"><title>Node5</title>
<g id="a_node6"><a xlink:href="../../d7/dcf/AuditFwd_8hpp.html" target="_top" xlink:title="core/audit/AuditFwd.hpp">
<polygon fill="white" stroke="black" points="735.782,-118 735.782,-137 857.782,-137 857.782,-118 735.782,-118"/>
<text text-anchor="middle" x="796.782" y="-125" font-family="Helvetica,sans-Serif" font-size="10.00">core/audit/AuditFwd.hpp</text>
</a>
</g>
</g>
<!-- Node4&#45;&gt;Node5 -->
<g id="edge5" class="edge"><title>Node4&#45;&gt;Node5</title>
<path fill="none" stroke="midnightblue" d="M747.495,-291.192C756.824,-282.881 769.901,-269.552 776.782,-255 793.515,-219.615 796.693,-173.078 797.045,-147.458"/>
<polygon fill="midnightblue" stroke="midnightblue" points="800.545,-147.275 797.047,-137.274 793.545,-147.274 800.545,-147.275"/>
</g>
<!-- Node6 -->
<g id="node7" class="node"><title>Node6</title>
<polygon fill="white" stroke="#bfbfbf" points="665.282,-56.5 665.282,-75.5 714.282,-75.5 714.282,-56.5 665.282,-56.5"/>
<text text-anchor="middle" x="689.782" y="-63.5" font-family="Helvetica,sans-Serif" font-size="10.00">cstddef</text>
</g>
<!-- Node5&#45;&gt;Node6 -->
<g id="edge6" class="edge"><title>Node5&#45;&gt;Node6</title>
<path fill="none" stroke="midnightblue" d="M781.452,-117.975C763.813,-108.166 734.623,-91.9346 713.925,-80.425"/>
<polygon fill="midnightblue" stroke="midnightblue" points="715.525,-77.3102 705.085,-75.5091 712.123,-83.4279 715.525,-77.3102"/>
</g>
<!-- Node7 -->
<g id="node8" class="node"><title>Node7</title>
<polygon fill="white" stroke="#bfbfbf" points="764.282,-56.5 764.282,-75.5 829.282,-75.5 829.282,-56.5 764.282,-56.5"/>
<text text-anchor="middle" x="796.782" y="-63.5" font-family="Helvetica,sans-Serif" font-size="10.00">flagset.hpp</text>
</g>
<!-- Node5&#45;&gt;Node7 -->
<g id="edge7" class="edge"><title>Node5&#45;&gt;Node7</title>
<path fill="none" stroke="midnightblue" d="M796.782,-117.975C796.782,-109.58 796.782,-96.4806 796.782,-85.6631"/>
<polygon fill="midnightblue" stroke="midnightblue" points="800.283,-85.5091 796.782,-75.5091 793.283,-85.5091 800.283,-85.5091"/>
</g>
<!-- Node5&#45;&gt;Node8 -->
<g id="edge8" class="edge"><title>Node5&#45;&gt;Node8</title>
<path fill="none" stroke="midnightblue" d="M757.994,-117.979C747.861,-115.887 736.934,-113.748 726.782,-112 621.829,-93.9294 496.929,-78.3805 436.352,-71.2152"/>
<polygon fill="midnightblue" stroke="midnightblue" points="436.495,-67.708 426.155,-70.0165 435.678,-74.6601 436.495,-67.708"/>
</g>
<!-- Node9 -->
<g id="node10" class="node"><title>Node9</title>
<polygon fill="white" stroke="#bfbfbf" points="487.782,-56.5 487.782,-75.5 573.782,-75.5 573.782,-56.5 487.782,-56.5"/>
<text text-anchor="middle" x="530.782" y="-63.5" font-family="Helvetica,sans-Serif" font-size="10.00">odb/lazy&#45;ptr.hxx</text>
</g>
<!-- Node5&#45;&gt;Node9 -->
<g id="edge9" class="edge"><title>Node5&#45;&gt;Node9</title>
<path fill="none" stroke="midnightblue" d="M758.671,-117.975C711.265,-107.371 630.299,-89.2602 578.727,-77.7244"/>
<polygon fill="midnightblue" stroke="midnightblue" points="579.346,-74.2765 568.823,-75.5091 577.818,-81.1077 579.346,-74.2765"/>
</g>
<!-- Node11 -->
<g id="node12" class="node"><title>Node11</title>
<g id="a_node12"><a xlink:href="../../d9/d69/db__fwd_8hpp.html" target="_top" xlink:title="db_fwd.hpp">
<polygon fill="white" stroke="black" points="172.282,-179.5 172.282,-198.5 239.282,-198.5 239.282,-179.5 172.282,-179.5"/>
<text text-anchor="middle" x="205.782" y="-186.5" font-family="Helvetica,sans-Serif" font-size="10.00">db_fwd.hpp</text>
</a>
</g>
</g>
<!-- Node10&#45;&gt;Node11 -->
<g id="edge11" class="edge"><title>Node10&#45;&gt;Node11</title>
<path fill="none" stroke="midnightblue" d="M381.255,-299.663C305.063,-297.871 175.503,-289.651 145.782,-255 130.141,-236.763 156.024,-216.541 178.522,-203.571"/>
<polygon fill="midnightblue" stroke="midnightblue" points="180.421,-206.521 187.51,-198.647 177.058,-200.382 180.421,-206.521"/>
</g>
<!-- Node12 -->
<g id="node13" class="node"><title>Node12</title>
<polygon fill="white" stroke="#bfbfbf" points="154.782,-235.5 154.782,-254.5 248.782,-254.5 248.782,-235.5 154.782,-235.5"/>
<text text-anchor="middle" x="201.782" y="-242.5" font-family="Helvetica,sans-Serif" font-size="10.00">odb/database.hxx</text>
</g>
<!-- Node10&#45;&gt;Node12 -->
<g id="edge13" class="edge"><title>Node10&#45;&gt;Node12</title>
<path fill="none" stroke="midnightblue" d="M400.388,-291.444C359.391,-282.063 293.528,-266.993 248.998,-256.804"/>
<polygon fill="midnightblue" stroke="midnightblue" points="249.531,-253.335 239.002,-254.516 247.97,-260.159 249.531,-253.335"/>
</g>
<!-- Node13 -->
<g id="node14" class="node"><title>Node13</title>
<polygon fill="white" stroke="#bfbfbf" points="266.782,-235.5 266.782,-254.5 368.782,-254.5 368.782,-235.5 266.782,-235.5"/>
<text text-anchor="middle" x="317.782" y="-242.5" font-family="Helvetica,sans-Serif" font-size="10.00">odb/transaction.hxx</text>
</g>
<!-- Node10&#45;&gt;Node13 -->
<g id="edge14" class="edge"><title>Node10&#45;&gt;Node13</title>
<path fill="none" stroke="midnightblue" d="M418.768,-291.444C399.195,-282.636 368.475,-268.812 346.054,-258.722"/>
<polygon fill="midnightblue" stroke="midnightblue" points="347.263,-255.428 336.708,-254.516 344.391,-261.812 347.263,-255.428"/>
</g>
<!-- Node14 -->
<g id="node15" class="node"><title>Node14</title>
<g id="a_node15"><a xlink:href="../../d0/dee/DBService_8hpp.html" target="_top" xlink:title="tools/db/DBService.hpp">
<polygon fill="white" stroke="black" points="506.782,-235.5 506.782,-254.5 626.782,-254.5 626.782,-235.5 506.782,-235.5"/>
<text text-anchor="middle" x="566.782" y="-242.5" font-family="Helvetica,sans-Serif" font-size="10.00">tools/db/DBService.hpp</text>
</a>
</g>
</g>
<!-- Node10&#45;&gt;Node14 -->
<g id="edge15" class="edge"><title>Node10&#45;&gt;Node14</title>
<path fill="none" stroke="midnightblue" d="M458.223,-291.444C479.453,-282.557 512.881,-268.563 537.037,-258.451"/>
<polygon fill="midnightblue" stroke="midnightblue" points="538.565,-261.606 546.438,-254.516 535.862,-255.149 538.565,-261.606"/>
</g>
<!-- Node25 -->
<g id="node26" class="node"><title>Node25</title>
<polygon fill="white" stroke="#bfbfbf" points="387.282,-235.5 387.282,-254.5 488.282,-254.5 488.282,-235.5 387.282,-235.5"/>
<text text-anchor="middle" x="437.782" y="-242.5" font-family="Helvetica,sans-Serif" font-size="10.00">odb/connection.hxx</text>
</g>
<!-- Node10&#45;&gt;Node25 -->
<g id="edge39" class="edge"><title>Node10&#45;&gt;Node25</title>
<path fill="none" stroke="midnightblue" d="M437.782,-291.083C437.782,-284.006 437.782,-273.861 437.782,-264.986"/>
<polygon fill="midnightblue" stroke="midnightblue" points="441.283,-264.751 437.782,-254.751 434.283,-264.751 441.283,-264.751"/>
</g>
<!-- Node26 -->
<g id="node27" class="node"><title>Node26</title>
<polygon fill="white" stroke="#bfbfbf" points="645.282,-235.5 645.282,-254.5 768.282,-254.5 768.282,-235.5 645.282,-235.5"/>
<text text-anchor="middle" x="706.782" y="-242.5" font-family="Helvetica,sans-Serif" font-size="10.00">odb/schema&#45;catalog.hxx</text>
</g>
<!-- Node10&#45;&gt;Node26 -->
<g id="edge40" class="edge"><title>Node10&#45;&gt;Node26</title>
<path fill="none" stroke="midnightblue" d="M480.406,-291.444C527.529,-281.984 603.475,-266.738 654.242,-256.547"/>
<polygon fill="midnightblue" stroke="midnightblue" points="655.243,-259.916 664.358,-254.516 653.865,-253.053 655.243,-259.916"/>
</g>
<!-- Node11&#45;&gt;Node8 -->
<g id="edge12" class="edge"><title>Node11&#45;&gt;Node8</title>
<path fill="none" stroke="midnightblue" d="M173.598,-179.488C155.244,-172.801 133.767,-161.45 122.782,-143 115.734,-131.161 113.855,-122.494 122.782,-112 153.272,-76.1578 295.46,-68.7845 363.422,-67.3243"/>
<polygon fill="midnightblue" stroke="midnightblue" points="363.73,-70.8194 373.664,-67.1373 363.602,-63.8205 363.73,-70.8194"/>
</g>
<!-- Node14&#45;&gt;Node11 -->
<g id="edge38" class="edge"><title>Node14&#45;&gt;Node11</title>
<path fill="none" stroke="midnightblue" d="M509.581,-235.444C437.302,-224.632 314.497,-206.262 249.361,-196.519"/>
<polygon fill="midnightblue" stroke="midnightblue" points="249.827,-193.049 239.419,-195.032 248.791,-199.972 249.827,-193.049"/>
</g>
<!-- Node15 -->
<g id="node16" class="node"><title>Node15</title>
<g id="a_node16"><a xlink:href="../../d3/dd8/IAuditEntry_8hpp.html" target="_top" xlink:title="core/audit/IAuditEntry.hpp">
<polygon fill="white" stroke="black" points="632.782,-179.5 632.782,-198.5 762.782,-198.5 762.782,-179.5 632.782,-179.5"/>
<text text-anchor="middle" x="697.782" y="-186.5" font-family="Helvetica,sans-Serif" font-size="10.00">core/audit/IAuditEntry.hpp</text>
</a>
</g>
</g>
<!-- Node14&#45;&gt;Node15 -->
<g id="edge16" class="edge"><title>Node14&#45;&gt;Node15</title>
<path fill="none" stroke="midnightblue" d="M587.54,-235.444C609.099,-226.557 643.046,-212.563 667.576,-202.451"/>
<polygon fill="midnightblue" stroke="midnightblue" points="669.211,-205.563 677.122,-198.516 666.543,-199.092 669.211,-205.563"/>
</g>
<!-- Node16 -->
<g id="node17" class="node"><title>Node16</title>
<g id="a_node17"><a xlink:href="../../d3/d6f/AuthFwd_8hpp.html" target="_top" xlink:title="core/auth/AuthFwd.hpp">
<polygon fill="white" stroke="black" points="599.782,-118 599.782,-137 717.782,-137 717.782,-118 599.782,-118"/>
<text text-anchor="middle" x="658.782" y="-125" font-family="Helvetica,sans-Serif" font-size="10.00">core/auth/AuthFwd.hpp</text>
</a>
</g>
</g>
<!-- Node14&#45;&gt;Node16 -->
<g id="edge28" class="edge"><title>Node14&#45;&gt;Node16</title>
<path fill="none" stroke="midnightblue" d="M573.697,-235.319C588.949,-216.172 625.691,-170.044 645.536,-145.131"/>
<polygon fill="midnightblue" stroke="midnightblue" points="648.294,-147.285 651.787,-137.282 642.819,-142.923 648.294,-147.285"/>
</g>
<!-- Node22 -->
<g id="node23" class="node"><title>Node22</title>
<g id="a_node23"><a xlink:href="../../d7/d7f/CredentialFwd_8hpp.html" target="_top" xlink:title="core/credentials/Credential\lFwd.hpp">
<polygon fill="white" stroke="black" points="290.282,-112.5 290.282,-142.5 423.282,-142.5 423.282,-112.5 290.282,-112.5"/>
<text text-anchor="start" x="298.282" y="-130.5" font-family="Helvetica,sans-Serif" font-size="10.00">core/credentials/Credential</text>
<text text-anchor="middle" x="356.782" y="-119.5" font-family="Helvetica,sans-Serif" font-size="10.00">Fwd.hpp</text>
</a>
</g>
</g>
<!-- Node14&#45;&gt;Node22 -->
<g id="edge29" class="edge"><title>Node14&#45;&gt;Node22</title>
<path fill="none" stroke="midnightblue" d="M550.998,-235.319C517.266,-216.766 437.478,-172.883 391.348,-147.511"/>
<polygon fill="midnightblue" stroke="midnightblue" points="392.768,-144.298 382.319,-142.545 389.395,-150.431 392.768,-144.298"/>
</g>
<!-- Node23 -->
<g id="node24" class="node"><title>Node23</title>
<g id="a_node24"><a xlink:href="../../d2/d0e/UpdateFwd_8hpp.html" target="_top" xlink:title="core/update/UpdateFwd.hpp">
<polygon fill="white" stroke="black" points="131.782,-118 131.782,-137 271.782,-137 271.782,-118 131.782,-118"/>
<text text-anchor="middle" x="201.782" y="-125" font-family="Helvetica,sans-Serif" font-size="10.00">core/update/UpdateFwd.hpp</text>
</a>
</g>
</g>
<!-- Node14&#45;&gt;Node23 -->
<g id="edge32" class="edge"><title>Node14&#45;&gt;Node23</title>
<path fill="none" stroke="midnightblue" d="M539.646,-235.413C475.109,-214.991 312.384,-163.499 238.86,-140.233"/>
<polygon fill="midnightblue" stroke="midnightblue" points="239.687,-136.824 229.097,-137.143 237.575,-143.497 239.687,-136.824"/>
</g>
<!-- Node24 -->
<g id="node25" class="node"><title>Node24</title>
<g id="a_node25"><a xlink:href="../../d8/d97/ToolsFwd_8hpp.html" target="_top" xlink:title="tools/ToolsFwd.hpp">
<polygon fill="white" stroke="black" points="479.782,-118 479.782,-137 581.782,-137 581.782,-118 479.782,-118"/>
<text text-anchor="middle" x="530.782" y="-125" font-family="Helvetica,sans-Serif" font-size="10.00">tools/ToolsFwd.hpp</text>
</a>
</g>
</g>
<!-- Node14&#45;&gt;Node24 -->
<g id="edge35" class="edge"><title>Node14&#45;&gt;Node24</title>
<path fill="none" stroke="midnightblue" d="M564.077,-235.319C558.265,-216.673 544.479,-172.443 536.59,-147.132"/>
<polygon fill="midnightblue" stroke="midnightblue" points="539.837,-145.788 533.52,-137.282 533.154,-147.871 539.837,-145.788"/>
</g>
<!-- Node15&#45;&gt;Node5 -->
<g id="edge17" class="edge"><title>Node15&#45;&gt;Node5</title>
<path fill="none" stroke="midnightblue" d="M711.967,-179.475C728.14,-169.755 754.809,-153.727 773.926,-142.237"/>
<polygon fill="midnightblue" stroke="midnightblue" points="775.856,-145.16 782.625,-137.009 772.25,-139.161 775.856,-145.16"/>
</g>
<!-- Node15&#45;&gt;Node8 -->
<g id="edge27" class="edge"><title>Node15&#45;&gt;Node8</title>
<path fill="none" stroke="midnightblue" d="M632.491,-185.673C585.031,-181.541 520.641,-170.729 470.782,-143 445.219,-128.783 423.577,-102.125 411.131,-84.4649"/>
<polygon fill="midnightblue" stroke="midnightblue" points="413.706,-82.0263 405.195,-75.7156 407.913,-85.956 413.706,-82.0263"/>
</g>
<!-- Node15&#45;&gt;Node16 -->
<g id="edge18" class="edge"><title>Node15&#45;&gt;Node16</title>
<path fill="none" stroke="midnightblue" d="M692.195,-179.475C686.403,-170.638 677.194,-156.589 669.909,-145.475"/>
<polygon fill="midnightblue" stroke="midnightblue" points="672.769,-143.454 664.36,-137.009 666.915,-147.291 672.769,-143.454"/>
</g>
<!-- Node17 -->
<g id="node18" class="node"><title>Node17</title>
<g id="a_node18"><a xlink:href="../../dd/d9d/IVisitable_8hpp.html" target="_top" xlink:title="tools/IVisitable.hpp">
<polygon fill="white" stroke="black" points="875.782,-118 875.782,-137 975.782,-137 975.782,-118 875.782,-118"/>
<text text-anchor="middle" x="925.782" y="-125" font-family="Helvetica,sans-Serif" font-size="10.00">tools/IVisitable.hpp</text>
</a>
</g>
</g>
<!-- Node15&#45;&gt;Node17 -->
<g id="edge22" class="edge"><title>Node15&#45;&gt;Node17</title>
<path fill="none" stroke="midnightblue" d="M730.449,-179.475C770.66,-168.982 839.04,-151.137 883.298,-139.587"/>
<polygon fill="midnightblue" stroke="midnightblue" points="884.384,-142.921 893.176,-137.009 882.616,-136.148 884.384,-142.921"/>
</g>
<!-- Node15&#45;&gt;Node21 -->
<g id="edge26" class="edge"><title>Node15&#45;&gt;Node21</title>
<path fill="none" stroke="midnightblue" d="M759.272,-179.462C815.294,-171.432 900.539,-158.59 984.038,-143.072"/>
<polygon fill="midnightblue" stroke="midnightblue" points="984.761,-146.498 993.946,-141.216 983.472,-139.617 984.761,-146.498"/>
</g>
<!-- Node16&#45;&gt;Node6 -->
<g id="edge19" class="edge"><title>Node16&#45;&gt;Node6</title>
<path fill="none" stroke="midnightblue" d="M663.224,-117.975C667.736,-109.315 674.856,-95.6486 680.589,-84.6453"/>
<polygon fill="midnightblue" stroke="midnightblue" points="683.833,-85.9948 685.349,-75.5091 677.625,-82.7604 683.833,-85.9948"/>
</g>
<!-- Node16&#45;&gt;Node8 -->
<g id="edge20" class="edge"><title>Node16&#45;&gt;Node8</title>
<path fill="none" stroke="midnightblue" d="M621.674,-117.975C572.051,-106.575 484.663,-86.4996 435.669,-75.2443"/>
<polygon fill="midnightblue" stroke="midnightblue" points="436.354,-71.8106 425.825,-72.9827 434.787,-78.6329 436.354,-71.8106"/>
</g>
<!-- Node16&#45;&gt;Node9 -->
<g id="edge21" class="edge"><title>Node16&#45;&gt;Node9</title>
<path fill="none" stroke="midnightblue" d="M640.443,-117.975C618.962,-107.99 583.161,-91.3476 558.335,-79.8075"/>
<polygon fill="midnightblue" stroke="midnightblue" points="559.631,-76.5506 549.088,-75.5091 556.681,-82.8983 559.631,-76.5506"/>
</g>
<!-- Node18 -->
<g id="node19" class="node"><title>Node18</title>
<g id="a_node19"><a xlink:href="../../d2/d91/Visitor_8hpp.html" target="_top" xlink:title="tools/Visitor.hpp">
<polygon fill="white" stroke="black" points="864.282,-56.5 864.282,-75.5 951.282,-75.5 951.282,-56.5 864.282,-56.5"/>
<text text-anchor="middle" x="907.782" y="-63.5" font-family="Helvetica,sans-Serif" font-size="10.00">tools/Visitor.hpp</text>
</a>
</g>
</g>
<!-- Node17&#45;&gt;Node18 -->
<g id="edge23" class="edge"><title>Node17&#45;&gt;Node18</title>
<path fill="none" stroke="midnightblue" d="M923.204,-117.975C920.637,-109.492 916.617,-96.2043 913.325,-85.3222"/>
<polygon fill="midnightblue" stroke="midnightblue" points="916.602,-84.0672 910.357,-75.5091 909.902,-86.0942 916.602,-84.0672"/>
</g>
<!-- Node20 -->
<g id="node21" class="node"><title>Node20</title>
<polygon fill="white" stroke="#bfbfbf" points="969.282,-56.5 969.282,-75.5 1018.28,-75.5 1018.28,-56.5 969.282,-56.5"/>
<text text-anchor="middle" x="993.782" y="-63.5" font-family="Helvetica,sans-Serif" font-size="10.00">cassert</text>
</g>
<!-- Node17&#45;&gt;Node20 -->
<g id="edge25" class="edge"><title>Node17&#45;&gt;Node20</title>
<path fill="none" stroke="midnightblue" d="M935.525,-117.975C946.129,-108.697 963.302,-93.6706 976.261,-82.331"/>
<polygon fill="midnightblue" stroke="midnightblue" points="978.837,-84.7282 984.058,-75.5091 974.227,-79.4601 978.837,-84.7282"/>
</g>
<!-- Node19 -->
<g id="node20" class="node"><title>Node19</title>
<polygon fill="white" stroke="#bfbfbf" points="876.782,-0.5 876.782,-19.5 938.782,-19.5 938.782,-0.5 876.782,-0.5"/>
<text text-anchor="middle" x="907.782" y="-7.5" font-family="Helvetica,sans-Serif" font-size="10.00">type_traits</text>
</g>
<!-- Node18&#45;&gt;Node19 -->
<g id="edge24" class="edge"><title>Node18&#45;&gt;Node19</title>
<path fill="none" stroke="midnightblue" d="M907.782,-56.083C907.782,-49.0059 907.782,-38.8611 907.782,-29.9865"/>
<polygon fill="midnightblue" stroke="midnightblue" points="911.283,-29.751 907.782,-19.7511 904.283,-29.7511 911.283,-29.751"/>
</g>
<!-- Node22&#45;&gt;Node8 -->
<g id="edge30" class="edge"><title>Node22&#45;&gt;Node8</title>
<path fill="none" stroke="midnightblue" d="M366.973,-112.399C373.157,-103.842 381.086,-92.8708 387.6,-83.857"/>
<polygon fill="midnightblue" stroke="midnightblue" points="390.505,-85.8129 393.526,-75.6578 384.831,-81.7127 390.505,-85.8129"/>
</g>
<!-- Node22&#45;&gt;Node9 -->
<g id="edge31" class="edge"><title>Node22&#45;&gt;Node9</title>
<path fill="none" stroke="midnightblue" d="M398.018,-112.399C427.954,-102.163 467.995,-88.4703 496.251,-78.8082"/>
<polygon fill="midnightblue" stroke="midnightblue" points="497.388,-82.1183 505.718,-75.5709 495.123,-75.4949 497.388,-82.1183"/>
</g>
<!-- Node23&#45;&gt;Node8 -->
<g id="edge33" class="edge"><title>Node23&#45;&gt;Node8</title>
<path fill="none" stroke="midnightblue" d="M230.151,-117.975C265.39,-107.386 325.542,-89.3095 363.938,-77.7716"/>
<polygon fill="midnightblue" stroke="midnightblue" points="365.107,-81.075 373.676,-74.845 363.092,-74.3711 365.107,-81.075"/>
</g>
<!-- Node23&#45;&gt;Node9 -->
<g id="edge34" class="edge"><title>Node23&#45;&gt;Node9</title>
<path fill="none" stroke="midnightblue" d="M248.146,-117.963C258.862,-115.997 270.218,-113.92 280.782,-112 348.572,-99.6777 426.734,-85.6351 477.359,-76.5616"/>
<polygon fill="midnightblue" stroke="midnightblue" points="478.191,-79.9682 487.417,-74.7592 476.957,-73.0779 478.191,-79.9682"/>
</g>
<!-- Node24&#45;&gt;Node8 -->
<g id="edge36" class="edge"><title>Node24&#45;&gt;Node8</title>
<path fill="none" stroke="midnightblue" d="M512.013,-117.975C489.931,-107.945 453.064,-91.2002 427.644,-79.6546"/>
<polygon fill="midnightblue" stroke="midnightblue" points="429.069,-76.4579 418.517,-75.5091 426.174,-82.8313 429.069,-76.4579"/>
</g>
<!-- Node24&#45;&gt;Node9 -->
<g id="edge37" class="edge"><title>Node24&#45;&gt;Node9</title>
<path fill="none" stroke="midnightblue" d="M530.782,-117.975C530.782,-109.58 530.782,-96.4806 530.782,-85.6631"/>
<polygon fill="midnightblue" stroke="midnightblue" points="534.283,-85.5091 530.782,-75.5091 527.283,-85.5091 534.283,-85.5091"/>
</g>
<!-- Node28&#45;&gt;Node5 -->
<g id="edge45" class="edge"><title>Node28&#45;&gt;Node5</title>
<path fill="none" stroke="midnightblue" d="M154.096,-179.878C157.031,-179.566 159.938,-179.271 162.782,-179 412.829,-155.195 477.857,-176.557 726.782,-143 734.566,-141.951 742.778,-140.534 750.733,-138.996"/>
<polygon fill="midnightblue" stroke="midnightblue" points="751.508,-142.41 760.618,-137.001 750.123,-135.549 751.508,-142.41"/>
</g>
<!-- Node28&#45;&gt;Node23 -->
<g id="edge46" class="edge"><title>Node28&#45;&gt;Node23</title>
<path fill="none" stroke="midnightblue" d="M107.543,-179.475C125.758,-169.622 155.955,-153.288 177.25,-141.77"/>
<polygon fill="midnightblue" stroke="midnightblue" points="178.921,-144.845 186.051,-137.009 175.59,-138.688 178.921,-144.845"/>
</g>
<!-- Node29 -->
<g id="node30" class="node"><title>Node29</title>
<polygon fill="white" stroke="#bfbfbf" points="29.7825,-118 29.7825,-137 75.7825,-137 75.7825,-118 29.7825,-118"/>
<text text-anchor="middle" x="52.7825" y="-125" font-family="Helvetica,sans-Serif" font-size="10.00">chrono</text>
</g>
<!-- Node28&#45;&gt;Node29 -->
<g id="edge47" class="edge"><title>Node28&#45;&gt;Node29</title>
<path fill="none" stroke="midnightblue" d="M86.1947,-179.475C80.4026,-170.638 71.1935,-156.589 63.909,-145.475"/>
<polygon fill="midnightblue" stroke="midnightblue" points="66.7691,-143.454 58.3599,-137.009 60.9146,-147.291 66.7691,-143.454"/>
</g>
</g>
</svg>
        <g id="navigator" transform="translate(0 0)" fill="#404254">
                <rect fill="#f2f5e9" fill-opacity="0.5" stroke="#606060" stroke-width=".5" x="0" y="0" width="60" height="60"/>
                <use id="zoomplus" xlink:href="#zoomPlus" x="17" y="9" onmousedown="handleZoom(evt,'in')"/>
                <use id="zoomminus" xlink:href="#zoomMin" x="42" y="9" onmousedown="handleZoom(evt,'out')"/>
                <use id="reset" xlink:href="#resetDef" x="30" y="36" onmousedown="handleReset()"/>
                <g id="arrowUp" xlink:href="#dirArrow" transform="translate(30 24)" onmousedown="handlePan(0,-1)">
                  <use xlink:href="#rim" fill="#404040">
                        <set attributeName="fill" to="#808080" begin="arrowUp.mouseover" end="arrowUp.mouseout"/>
                  </use>
                  <path fill="none" stroke="white" stroke-width="1.5" d="M0,-3.0v7 M-2.5,-0.5L0,-3.0L2.5,-0.5"/>
                </g>
                <g id="arrowRight" xlink:href="#dirArrow" transform="rotate(90) translate(36 -43)" onmousedown="handlePan(1,0)">
                  <use xlink:href="#rim" fill="#404040">
                        <set attributeName="fill" to="#808080" begin="arrowRight.mouseover" end="arrowRight.mouseout"/>
                  </use>
                  <path fill="none" stroke="white" stroke-width="1.5" d="M0,-3.0v7 M-2.5,-0.5L0,-3.0L2.5,-0.5"/>
                </g>
                <g id="arrowDown" xlink:href="#dirArrow" transform="rotate(180) translate(-30 -48)" onmousedown="handlePan(0,1)">
                  <use xlink:href="#rim" fill="#404040">
                        <set attributeName="fill" to="#808080" begin="arrowDown.mouseover" end="arrowDown.mouseout"/>
                  </use>
                  <path fill="none" stroke="white" stroke-width="1.5" d="M0,-3.0v7 M-2.5,-0.5L0,-3.0L2.5,-0.5"/>
                </g>
                <g id="arrowLeft" xlink:href="#dirArrow" transform="rotate(270) translate(-36 17)" onmousedown="handlePan(-1,0)">
                  <use xlink:href="#rim" fill="#404040">
                        <set attributeName="fill" to="#808080" begin="arrowLeft.mouseover" end="arrowLeft.mouseout"/>
                  </use>
                  <path fill="none" stroke="white" stroke-width="1.5" d="M0,-3.0v7 M-2.5,-0.5L0,-3.0L2.5,-0.5"/>
                </g>
        </g>
        <svg viewBox="0 0 15 15" width="100%" height="30px" preserveAspectRatio="xMaxYMin meet">
         <g id="arrow_out" transform="scale(0.3 0.3)">
          <a xlink:href="AccessPointUpdate_8cpp__incl_org.svg" target="_base">
           <rect id="button" ry="5" rx="5" y="6" x="6" height="38" width="38"
                fill="#f2f5e9" fill-opacity="0.5" stroke="#606060" stroke-width="1.0"/>
           <path id="arrow"
             d="M 11.500037,31.436501 C 11.940474,20.09759 22.043105,11.32322 32.158766,21.979434 L 37.068811,17.246167 C 37.068811,17.246167 37.088388,32 37.088388,32 L 22.160133,31.978069 C 22.160133,31.978069 26.997745,27.140456 26.997745,27.140456 C 18.528582,18.264221 13.291696,25.230495 11.500037,31.436501 z"
             style="fill:#404040;"/>
          </a>
         </g>
        </svg>
</svg>
