<?xml version="1.0" encoding="UTF-8" standalone="no"?>
<!DOCTYPE svg PUBLIC "-//W3C//DTD SVG 1.1//EN"
 "http://www.w3.org/Graphics/SVG/1.1/DTD/svg11.dtd">
<!-- Generated by graphviz version 2.38.0 (20140413.2041)
 -->
<!-- Title: src/core/auth/AccessPoint.hpp Pages: 1 -->
<svg width="1098pt" height="106pt"
 viewBox="0.00 0.00 1097.50 106.00" xmlns="http://www.w3.org/2000/svg" xmlns:xlink="http://www.w3.org/1999/xlink">
<g id="graph0" class="graph" transform="scale(1 1) rotate(0) translate(4 102)">
<title>src/core/auth/AccessPoint.hpp</title>
<polygon fill="white" stroke="none" points="-4,4 -4,-102 1093.5,-102 1093.5,4 -4,4"/>
<!-- Node9 -->
<g id="node1" class="node"><title>Node9</title>
<polygon fill="#bfbfbf" stroke="black" points="483.5,-78.5 483.5,-97.5 634.5,-97.5 634.5,-78.5 483.5,-78.5"/>
<text text-anchor="middle" x="559" y="-85.5" font-family="Helvetica,sans-Serif" font-size="10.00">src/core/auth/AccessPoint.hpp</text>
</g>
<!-- Node10 -->
<g id="node2" class="node"><title>Node10</title>
<g id="a_node2"><a xlink:href="../../d0/d15/AccessPointEvent_8cpp.html" target="_top" xlink:title="src/core/audit/AccessPoint\lEvent.cpp">
<polygon fill="white" stroke="black" points="0,-6 0,-36 134,-36 134,-6 0,-6"/>
<text text-anchor="start" x="8" y="-24" font-family="Helvetica,sans-Serif" font-size="10.00">src/core/audit/AccessPoint</text>
<text text-anchor="middle" x="67" y="-13" font-family="Helvetica,sans-Serif" font-size="10.00">Event.cpp</text>
</a>
</g>
</g>
<!-- Node9&#45;&gt;Node10 -->
<g id="edge1" class="edge"><title>Node9&#45;&gt;Node10</title>
<path fill="none" stroke="midnightblue" d="M473.296,-81.4916C388.806,-75.1792 256.266,-62.9082 143,-42 134.279,-40.3901 125.087,-38.3084 116.225,-36.0983"/>
<polygon fill="midnightblue" stroke="midnightblue" points="473.127,-84.9886 483.357,-82.2321 473.641,-78.0075 473.127,-84.9886"/>
</g>
<!-- Node11 -->
<g id="node3" class="node"><title>Node11</title>
<g id="a_node3"><a xlink:href="../../d4/dbe/AuditFactory_8cpp.html" target="_top" xlink:title="src/core/audit/AuditFactory.cpp">
<polygon fill="white" stroke="black" points="152.5,-11.5 152.5,-30.5 305.5,-30.5 305.5,-11.5 152.5,-11.5"/>
<text text-anchor="middle" x="229" y="-18.5" font-family="Helvetica,sans-Serif" font-size="10.00">src/core/audit/AuditFactory.cpp</text>
</a>
</g>
</g>
<!-- Node9&#45;&gt;Node11 -->
<g id="edge2" class="edge"><title>Node9&#45;&gt;Node11</title>
<path fill="none" stroke="midnightblue" d="M498.241,-76.701C448.565,-68.0739 376.569,-55.0988 314,-42 297.381,-38.5208 279.034,-34.2578 263.652,-30.5628"/>
<polygon fill="midnightblue" stroke="midnightblue" points="497.73,-80.1644 508.18,-78.4207 498.924,-73.2669 497.73,-80.1644"/>
</g>
<!-- Node12 -->
<g id="node4" class="node"><title>Node12</title>
<g id="a_node4"><a xlink:href="../../d1/d88/AccessPoint_8cpp.html" target="_top" xlink:title="src/core/auth/AccessPoint.cpp">
<polygon fill="white" stroke="black" points="323.5,-11.5 323.5,-30.5 474.5,-30.5 474.5,-11.5 323.5,-11.5"/>
<text text-anchor="middle" x="399" y="-18.5" font-family="Helvetica,sans-Serif" font-size="10.00">src/core/auth/AccessPoint.cpp</text>
</a>
</g>
</g>
<!-- Node9&#45;&gt;Node12 -->
<g id="edge3" class="edge"><title>Node9&#45;&gt;Node12</title>
<path fill="none" stroke="midnightblue" d="M528.487,-74.6041C496.719,-61.6984 447.805,-41.8272 420.08,-30.5637"/>
<polygon fill="midnightblue" stroke="midnightblue" points="527.171,-77.8473 537.753,-78.3685 529.806,-71.362 527.171,-77.8473"/>
</g>
<!-- Node13 -->
<g id="node5" class="node"><title>Node13</title>
<g id="a_node5"><a xlink:href="../../dc/d02/AccessPointService_8cpp.html" target="_top" xlink:title="src/core/auth/AccessPoint\lService.cpp">
<polygon fill="white" stroke="black" points="493,-6 493,-36 625,-36 625,-6 493,-6"/>
<text text-anchor="start" x="501" y="-24" font-family="Helvetica,sans-Serif" font-size="10.00">src/core/auth/AccessPoint</text>
<text text-anchor="middle" x="559" y="-13" font-family="Helvetica,sans-Serif" font-size="10.00">Service.cpp</text>
</a>
</g>
</g>
<!-- Node9&#45;&gt;Node13 -->
<g id="edge4" class="edge"><title>Node9&#45;&gt;Node13</title>
<path fill="none" stroke="midnightblue" d="M559,-67.9107C559,-57.722 559,-45.401 559,-36.089"/>
<polygon fill="midnightblue" stroke="midnightblue" points="555.5,-68.2338 559,-78.2338 562.5,-68.2338 555.5,-68.2338"/>
</g>
<!-- Node14 -->
<g id="node6" class="node"><title>Node14</title>
<g id="a_node6"><a xlink:href="../../d0/dc5/Door_8cpp.html" target="_top" xlink:title="src/core/auth/Door.cpp">
<polygon fill="white" stroke="black" points="643,-11.5 643,-30.5 759,-30.5 759,-11.5 643,-11.5"/>
<text text-anchor="middle" x="701" y="-18.5" font-family="Helvetica,sans-Serif" font-size="10.00">src/core/auth/Door.cpp</text>
</a>
</g>
</g>
<!-- Node9&#45;&gt;Node14 -->
<g id="edge5" class="edge"><title>Node9&#45;&gt;Node14</title>
<path fill="none" stroke="midnightblue" d="M587.154,-74.1127C615.279,-61.2387 657.732,-41.8059 682.066,-30.6672"/>
<polygon fill="midnightblue" stroke="midnightblue" points="585.492,-71.0239 577.857,-78.3685 588.406,-77.3887 585.492,-71.0239"/>
</g>
<!-- Node15 -->
<g id="node7" class="node"><title>Node15</title>
<g id="a_node7"><a xlink:href="../../d7/d29/AccessPointCRUD_8cpp.html" target="_top" xlink:title="src/modules/websock\l&#45;api/api/AccessPointCRUD.cpp">
<polygon fill="white" stroke="black" points="777.5,-6 777.5,-36 932.5,-36 932.5,-6 777.5,-6"/>
<text text-anchor="start" x="785.5" y="-24" font-family="Helvetica,sans-Serif" font-size="10.00">src/modules/websock</text>
<text text-anchor="middle" x="855" y="-13" font-family="Helvetica,sans-Serif" font-size="10.00">&#45;api/api/AccessPointCRUD.cpp</text>
</a>
</g>
</g>
<!-- Node9&#45;&gt;Node15 -->
<g id="edge6" class="edge"><title>Node9&#45;&gt;Node15</title>
<path fill="none" stroke="midnightblue" d="M609.285,-76.3777C651.646,-67.3801 713.832,-54.0571 768,-42 776.472,-40.1143 785.4,-38.0966 794.18,-36.0948"/>
<polygon fill="midnightblue" stroke="midnightblue" points="608.549,-72.9558 599.493,-78.4554 610.002,-79.8034 608.549,-72.9558"/>
</g>
<!-- Node16 -->
<g id="node8" class="node"><title>Node16</title>
<g id="a_node8"><a xlink:href="../../d1/d54/AccessPointSearch_8cpp.html" target="_top" xlink:title="src/modules/websock\l&#45;api/api/search/AccessPoint\lSearch.cpp">
<polygon fill="white" stroke="black" points="950.5,-0.5 950.5,-41.5 1089.5,-41.5 1089.5,-0.5 950.5,-0.5"/>
<text text-anchor="start" x="958.5" y="-29.5" font-family="Helvetica,sans-Serif" font-size="10.00">src/modules/websock</text>
<text text-anchor="start" x="958.5" y="-18.5" font-family="Helvetica,sans-Serif" font-size="10.00">&#45;api/api/search/AccessPoint</text>
<text text-anchor="middle" x="1020" y="-7.5" font-family="Helvetica,sans-Serif" font-size="10.00">Search.cpp</text>
</a>
</g>
</g>
<!-- Node9&#45;&gt;Node16 -->
<g id="edge7" class="edge"><title>Node9&#45;&gt;Node16</title>
<path fill="none" stroke="midnightblue" d="M644.919,-80.2232C722.868,-73.2899 840.74,-60.8429 942,-42 944.749,-41.4885 947.544,-40.9348 950.362,-40.3488"/>
<polygon fill="midnightblue" stroke="midnightblue" points="644.321,-76.7621 634.666,-81.1238 644.934,-83.7353 644.321,-76.7621"/>
</g>
</g>
</svg>
