<?xml version="1.0" encoding="UTF-8" standalone="no"?>
<!DOCTYPE svg PUBLIC "-//W3C//DTD SVG 1.1//EN"
 "http://www.w3.org/Graphics/SVG/1.1/DTD/svg11.dtd">
<!-- Generated by graphviz version 2.38.0 (20140413.2041)
 -->
<!-- Title: src/core/tasks/GetLocalConfigVersion.hpp Pages: 1 -->
<svg width="423pt" height="106pt"
 viewBox="0.00 0.00 423.00 106.00" xmlns="http://www.w3.org/2000/svg" xmlns:xlink="http://www.w3.org/1999/xlink">
<g id="graph0" class="graph" transform="scale(1 1) rotate(0) translate(4 102)">
<title>src/core/tasks/GetLocalConfigVersion.hpp</title>
<polygon fill="white" stroke="none" points="-4,4 -4,-102 419,-102 419,4 -4,4"/>
<!-- Node7 -->
<g id="node1" class="node"><title>Node7</title>
<polygon fill="#bfbfbf" stroke="black" points="129,-67.5 129,-97.5 278,-97.5 278,-67.5 129,-67.5"/>
<text text-anchor="start" x="137" y="-85.5" font-family="Helvetica,sans-Serif" font-size="10.00">src/core/tasks/GetLocalConfig</text>
<text text-anchor="middle" x="203.5" y="-74.5" font-family="Helvetica,sans-Serif" font-size="10.00">Version.hpp</text>
</g>
<!-- Node8 -->
<g id="node2" class="node"><title>Node8</title>
<g id="a_node2"><a xlink:href="../../d3/d1e/CoreAPI_8cpp.html" target="_top" xlink:title="src/core/CoreAPI.cpp">
<polygon fill="white" stroke="black" points="0,-6 0,-25 111,-25 111,-6 0,-6"/>
<text text-anchor="middle" x="55.5" y="-13" font-family="Helvetica,sans-Serif" font-size="10.00">src/core/CoreAPI.cpp</text>
</a>
</g>
</g>
<!-- Node7&#45;&gt;Node8 -->
<g id="edge1" class="edge"><title>Node7&#45;&gt;Node8</title>
<path fill="none" stroke="midnightblue" d="M162.049,-63.2952C133.508,-50.7602 96.899,-34.682 74.8698,-25.007"/>
<polygon fill="midnightblue" stroke="midnightblue" points="160.823,-66.5793 171.386,-67.396 163.638,-60.1702 160.823,-66.5793"/>
</g>
<!-- Node9 -->
<g id="node3" class="node"><title>Node9</title>
<g id="a_node3"><a xlink:href="../../df/dca/GetLocalConfigVersion_8cpp.html" target="_top" xlink:title="src/core/tasks/GetLocalConfig\lVersion.cpp">
<polygon fill="white" stroke="black" points="129,-0.5 129,-30.5 278,-30.5 278,-0.5 129,-0.5"/>
<text text-anchor="start" x="137" y="-18.5" font-family="Helvetica,sans-Serif" font-size="10.00">src/core/tasks/GetLocalConfig</text>
<text text-anchor="middle" x="203.5" y="-7.5" font-family="Helvetica,sans-Serif" font-size="10.00">Version.cpp</text>
</a>
</g>
</g>
<!-- Node7&#45;&gt;Node9 -->
<g id="edge2" class="edge"><title>Node7&#45;&gt;Node9</title>
<path fill="none" stroke="midnightblue" d="M203.5,-57.1081C203.5,-48.1539 203.5,-38.3227 203.5,-30.5765"/>
<polygon fill="midnightblue" stroke="midnightblue" points="200,-57.3959 203.5,-67.396 207,-57.396 200,-57.3959"/>
</g>
<!-- Node10 -->
<g id="node4" class="node"><title>Node10</title>
<g id="a_node4"><a xlink:href="../../d2/dac/ReplicationModule_8cpp.html" target="_top" xlink:title="src/modules/replication\l/ReplicationModule.cpp">
<polygon fill="white" stroke="black" points="296,-0.5 296,-30.5 415,-30.5 415,-0.5 296,-0.5"/>
<text text-anchor="start" x="304" y="-18.5" font-family="Helvetica,sans-Serif" font-size="10.00">src/modules/replication</text>
<text text-anchor="middle" x="355.5" y="-7.5" font-family="Helvetica,sans-Serif" font-size="10.00">/ReplicationModule.cpp</text>
</a>
</g>
</g>
<!-- Node7&#45;&gt;Node10 -->
<g id="edge3" class="edge"><title>Node7&#45;&gt;Node10</title>
<path fill="none" stroke="midnightblue" d="M245.811,-63.4066C270.077,-53.0294 300.089,-40.1954 322.583,-30.5765"/>
<polygon fill="midnightblue" stroke="midnightblue" points="244.3,-60.2459 236.482,-67.396 247.053,-66.6821 244.3,-60.2459"/>
</g>
</g>
</svg>
