<?xml version="1.0" encoding="UTF-8" standalone="no"?>
<!DOCTYPE svg PUBLIC "-//W3C//DTD SVG 1.1//EN"
 "http://www.w3.org/Graphics/SVG/1.1/DTD/svg11.dtd">
<!-- Generated by graphviz version 2.38.0 (20140413.2041)
 -->
<!-- Title: src/tools/XmlPropertyTree.cpp Pages: 1 -->
<!--zoomable 274 -->
<svg id="main" version="1.1" xmlns="http://www.w3.org/2000/svg" xmlns:xlink="http://www.w3.org/1999/xlink" xml:space="preserve" onload="init(evt)">
<style type="text/css"><![CDATA[
.edge:hover path { stroke: red; }
.edge:hover polygon { stroke: red; fill: red; }
]]></style>
<script type="text/javascript"><![CDATA[
var edges = document.getElementsByTagName('g');
if (edges && edges.length) {
  for (var i=0;i<edges.length;i++) {
    if (edges[i].id.substr(0,4)=='edge') {
      edges[i].setAttribute('class','edge');
    }
  }
}
]]></script>
        <defs>
                <circle id="rim" cx="0" cy="0" r="7"/>
                <circle id="rim2" cx="0" cy="0" r="3.5"/>
                <g id="zoomPlus">
                        <use xlink:href="#rim" fill="#404040">
                                <set attributeName="fill" to="#808080" begin="zoomplus.mouseover" end="zoomplus.mouseout"/>
                        </use>
                        <path d="M-4,0h8M0,-4v8" fill="none" stroke="white" stroke-width="1.5" pointer-events="none"/>
                </g>
                <g id="zoomMin">
                        <use xlink:href="#rim" fill="#404040">
                                <set attributeName="fill" to="#808080" begin="zoomminus.mouseover" end="zoomminus.mouseout"/>
                        </use>
                        <path d="M-4,0h8" fill="none" stroke="white" stroke-width="1.5" pointer-events="none"/>
                </g>
                <g id="dirArrow">
                        <path fill="none" stroke="white" stroke-width="1.5" d="M0,-3.0v7 M-2.5,-0.5L0,-3.0L2.5,-0.5"/>
                </g>
               <g id="resetDef">
                       <use xlink:href="#rim2" fill="#404040">
                               <set attributeName="fill" to="#808080" begin="reset.mouseover" end="reset.mouseout"/>
                       </use>
               </g>
        </defs>

<script type="text/javascript">
var viewWidth = 1845;
var viewHeight = 274;
var sectionId = 'dynsection-0';
</script>
<script xlink:href="../../svgpan.js"/>
<svg id="graph" class="graph">
<g id="viewport">
<title>src/tools/XmlPropertyTree.cpp</title>
<polygon fill="white" stroke="none" points="-4,4 -4,-270 1840.5,-270 1840.5,4 -4,4"/>
<!-- Node0 -->
<g id="node1" class="node"><title>Node0</title>
<polygon fill="#bfbfbf" stroke="black" points="1297,-246.5 1297,-265.5 1446,-265.5 1446,-246.5 1297,-246.5"/>
<text text-anchor="middle" x="1371.5" y="-253.5" font-family="Helvetica,sans-Serif" font-size="10.00">src/tools/XmlPropertyTree.cpp</text>
</g>
<!-- Node1 -->
<g id="node2" class="node"><title>Node1</title>
<g id="a_node2"><a xlink:href="../../de/d35/XmlPropertyTree_8hpp.html" target="_top" xlink:title="XmlPropertyTree.hpp">
<polygon fill="white" stroke="black" points="667,-185 667,-204 776,-204 776,-185 667,-185"/>
<text text-anchor="middle" x="721.5" y="-192" font-family="Helvetica,sans-Serif" font-size="10.00">XmlPropertyTree.hpp</text>
</a>
</g>
</g>
<!-- Node0&#45;&gt;Node1 -->
<g id="edge1" class="edge"><title>Node0&#45;&gt;Node1</title>
<path fill="none" stroke="midnightblue" d="M1296.94,-248.175C1168.62,-236.429 908.166,-212.587 786.657,-201.464"/>
<polygon fill="midnightblue" stroke="midnightblue" points="786.671,-197.951 776.393,-200.525 786.033,-204.922 786.671,-197.951"/>
</g>
<!-- Node3 -->
<g id="node4" class="node"><title>Node3</title>
<g id="a_node4"><a xlink:href="../../d7/d7a/configexception_8hpp.html" target="_top" xlink:title="exception/configexception.hpp">
<polygon fill="white" stroke="black" points="1057,-185 1057,-204 1206,-204 1206,-185 1057,-185"/>
<text text-anchor="middle" x="1131.5" y="-192" font-family="Helvetica,sans-Serif" font-size="10.00">exception/configexception.hpp</text>
</a>
</g>
</g>
<!-- Node0&#45;&gt;Node3 -->
<g id="edge3" class="edge"><title>Node0&#45;&gt;Node3</title>
<path fill="none" stroke="midnightblue" d="M1337.11,-246.475C1294.61,-235.937 1222.2,-217.986 1175.63,-206.441"/>
<polygon fill="midnightblue" stroke="midnightblue" points="1176.37,-203.018 1165.82,-204.009 1174.69,-209.813 1176.37,-203.018"/>
</g>
<!-- Node20 -->
<g id="node21" class="node"><title>Node20</title>
<g id="a_node21"><a xlink:href="../../d4/d3d/log_8hpp.html" target="_top" xlink:title="log.hpp">
<polygon fill="white" stroke="black" points="1438.5,-118 1438.5,-137 1486.5,-137 1486.5,-118 1438.5,-118"/>
<text text-anchor="middle" x="1462.5" y="-125" font-family="Helvetica,sans-Serif" font-size="10.00">log.hpp</text>
</a>
</g>
</g>
<!-- Node0&#45;&gt;Node20 -->
<g id="edge40" class="edge"><title>Node0&#45;&gt;Node20</title>
<path fill="none" stroke="midnightblue" d="M1309.9,-246.416C1288.07,-240.079 1265.68,-229.08 1252.5,-210 1244.67,-198.665 1243.97,-189.822 1252.5,-179 1255.26,-175.501 1369.7,-149.355 1428.45,-136.123"/>
<polygon fill="midnightblue" stroke="midnightblue" points="1429.41,-139.496 1438.4,-133.888 1427.87,-132.667 1429.41,-139.496"/>
</g>
<!-- Node25 -->
<g id="node26" class="node"><title>Node25</title>
<polygon fill="white" stroke="#bfbfbf" points="1262,-179.5 1262,-209.5 1357,-209.5 1357,-179.5 1262,-179.5"/>
<text text-anchor="start" x="1270" y="-197.5" font-family="Helvetica,sans-Serif" font-size="10.00">boost/archive/text</text>
<text text-anchor="middle" x="1309.5" y="-186.5" font-family="Helvetica,sans-Serif" font-size="10.00">_iarchive.hpp</text>
</g>
<!-- Node0&#45;&gt;Node25 -->
<g id="edge47" class="edge"><title>Node0&#45;&gt;Node25</title>
<path fill="none" stroke="midnightblue" d="M1362.62,-246.475C1354.53,-238.718 1342.26,-226.943 1331.55,-216.665"/>
<polygon fill="midnightblue" stroke="midnightblue" points="1333.75,-213.922 1324.11,-209.523 1328.9,-218.972 1333.75,-213.922"/>
</g>
<!-- Node26 -->
<g id="node27" class="node"><title>Node26</title>
<polygon fill="white" stroke="#bfbfbf" points="1375,-179.5 1375,-209.5 1492,-209.5 1492,-179.5 1375,-179.5"/>
<text text-anchor="start" x="1383" y="-197.5" font-family="Helvetica,sans-Serif" font-size="10.00">boost/property_tree</text>
<text text-anchor="middle" x="1433.5" y="-186.5" font-family="Helvetica,sans-Serif" font-size="10.00">/ptree_serialization.hpp</text>
</g>
<!-- Node0&#45;&gt;Node26 -->
<g id="edge48" class="edge"><title>Node0&#45;&gt;Node26</title>
<path fill="none" stroke="midnightblue" d="M1380.38,-246.475C1388.47,-238.718 1400.74,-226.943 1411.45,-216.665"/>
<polygon fill="midnightblue" stroke="midnightblue" points="1414.1,-218.972 1418.89,-209.523 1409.25,-213.922 1414.1,-218.972"/>
</g>
<!-- Node27 -->
<g id="node28" class="node"><title>Node27</title>
<polygon fill="white" stroke="#bfbfbf" points="1510,-179.5 1510,-209.5 1611,-209.5 1611,-179.5 1510,-179.5"/>
<text text-anchor="start" x="1518" y="-197.5" font-family="Helvetica,sans-Serif" font-size="10.00">boost/property_tree</text>
<text text-anchor="middle" x="1560.5" y="-186.5" font-family="Helvetica,sans-Serif" font-size="10.00">/xml_parser.hpp</text>
</g>
<!-- Node0&#45;&gt;Node27 -->
<g id="edge49" class="edge"><title>Node0&#45;&gt;Node27</title>
<path fill="none" stroke="midnightblue" d="M1398.58,-246.475C1426.57,-237.664 1471.02,-223.668 1506.28,-212.57"/>
<polygon fill="midnightblue" stroke="midnightblue" points="1507.47,-215.864 1515.96,-209.523 1505.37,-209.187 1507.47,-215.864"/>
</g>
<!-- Node28 -->
<g id="node29" class="node"><title>Node28</title>
<polygon fill="white" stroke="#bfbfbf" points="1629,-179.5 1629,-209.5 1724,-209.5 1724,-179.5 1629,-179.5"/>
<text text-anchor="start" x="1637" y="-197.5" font-family="Helvetica,sans-Serif" font-size="10.00">boost/serialization</text>
<text text-anchor="middle" x="1676.5" y="-186.5" font-family="Helvetica,sans-Serif" font-size="10.00">/string.hpp</text>
</g>
<!-- Node0&#45;&gt;Node28 -->
<g id="edge50" class="edge"><title>Node0&#45;&gt;Node28</title>
<path fill="none" stroke="midnightblue" d="M1425.16,-246.491C1473.47,-238.562 1546.63,-225.895 1618.73,-210.302"/>
<polygon fill="midnightblue" stroke="midnightblue" points="1619.88,-213.636 1628.9,-208.083 1618.38,-206.797 1619.88,-213.636"/>
</g>
<!-- Node29 -->
<g id="node30" class="node"><title>Node29</title>
<polygon fill="white" stroke="#bfbfbf" points="1742.5,-185 1742.5,-204 1836.5,-204 1836.5,-185 1742.5,-185"/>
<text text-anchor="middle" x="1789.5" y="-192" font-family="Helvetica,sans-Serif" font-size="10.00">boost/version.hpp</text>
</g>
<!-- Node0&#45;&gt;Node29 -->
<g id="edge51" class="edge"><title>Node0&#45;&gt;Node29</title>
<path fill="none" stroke="midnightblue" d="M1446.12,-248.576C1519.63,-241.579 1634.9,-228.812 1733.5,-210 1738.67,-209.014 1744.07,-207.824 1749.39,-206.554"/>
<polygon fill="midnightblue" stroke="midnightblue" points="1750.58,-209.864 1759.44,-204.049 1748.89,-203.072 1750.58,-209.864"/>
</g>
<!-- Node2 -->
<g id="node3" class="node"><title>Node2</title>
<polygon fill="white" stroke="#bfbfbf" points="539,-112.5 539,-142.5 640,-142.5 640,-112.5 539,-112.5"/>
<text text-anchor="start" x="547" y="-130.5" font-family="Helvetica,sans-Serif" font-size="10.00">boost/property_tree</text>
<text text-anchor="middle" x="589.5" y="-119.5" font-family="Helvetica,sans-Serif" font-size="10.00">/ptree_fwd.hpp</text>
</g>
<!-- Node1&#45;&gt;Node2 -->
<g id="edge2" class="edge"><title>Node1&#45;&gt;Node2</title>
<path fill="none" stroke="midnightblue" d="M703.971,-184.869C684.57,-175.315 652.713,-159.627 627.525,-147.225"/>
<polygon fill="midnightblue" stroke="midnightblue" points="628.756,-143.929 618.239,-142.652 625.664,-150.209 628.756,-143.929"/>
</g>
<!-- Node4 -->
<g id="node5" class="node"><title>Node4</title>
<g id="a_node5"><a xlink:href="../../d1/ddd/leosacexception_8hpp.html" target="_top" xlink:title="Exception class for LEOSAC Project related errors. ">
<polygon fill="white" stroke="black" points="658.5,-118 658.5,-137 764.5,-137 764.5,-118 658.5,-118"/>
<text text-anchor="middle" x="711.5" y="-125" font-family="Helvetica,sans-Serif" font-size="10.00">leosacexception.hpp</text>
</a>
</g>
</g>
<!-- Node3&#45;&gt;Node4 -->
<g id="edge4" class="edge"><title>Node3&#45;&gt;Node4</title>
<path fill="none" stroke="midnightblue" d="M1071.41,-184.936C991.628,-172.985 851.695,-151.344 771.802,-138.615"/>
<polygon fill="midnightblue" stroke="midnightblue" points="772.316,-135.153 761.889,-137.032 771.212,-142.065 772.316,-135.153"/>
</g>
<!-- Node6 -->
<g id="node7" class="node"><title>Node6</title>
<polygon fill="white" stroke="#bfbfbf" points="800,-0.5 800,-19.5 841,-19.5 841,-0.5 800,-0.5"/>
<text text-anchor="middle" x="820.5" y="-7.5" font-family="Helvetica,sans-Serif" font-size="10.00">string</text>
</g>
<!-- Node3&#45;&gt;Node6 -->
<g id="edge39" class="edge"><title>Node3&#45;&gt;Node6</title>
<path fill="none" stroke="midnightblue" d="M1148.09,-184.891C1188.5,-162.871 1285.7,-102.931 1243.5,-56 1217.32,-26.8816 944.151,-15.1235 851.238,-11.9472"/>
<polygon fill="midnightblue" stroke="midnightblue" points="851.187,-8.44363 841.076,-11.6097 850.955,-15.4398 851.187,-8.44363"/>
</g>
<!-- Node18 -->
<g id="node19" class="node"><title>Node18</title>
<g id="a_node19"><a xlink:href="../../dd/d35/Colorize_8hpp.html" target="_top" xlink:title="tools/Colorize.hpp">
<polygon fill="white" stroke="black" points="1292,-118 1292,-137 1387,-137 1387,-118 1292,-118"/>
<text text-anchor="middle" x="1339.5" y="-125" font-family="Helvetica,sans-Serif" font-size="10.00">tools/Colorize.hpp</text>
</a>
</g>
</g>
<!-- Node3&#45;&gt;Node18 -->
<g id="edge36" class="edge"><title>Node3&#45;&gt;Node18</title>
<path fill="none" stroke="midnightblue" d="M1159.12,-184.869C1195.98,-173.351 1261.35,-152.922 1302.45,-140.077"/>
<polygon fill="midnightblue" stroke="midnightblue" points="1303.6,-143.387 1312.1,-137.064 1301.51,-136.706 1303.6,-143.387"/>
</g>
<!-- Node4&#45;&gt;Node3 -->
<g id="edge11" class="edge"><title>Node4&#45;&gt;Node3</title>
<path fill="none" stroke="midnightblue" d="M764.625,-136.024C842.91,-147.708 988.63,-170.231 1070.95,-183.345"/>
<polygon fill="midnightblue" stroke="midnightblue" points="1070.48,-186.815 1080.91,-184.936 1071.58,-179.902 1070.48,-186.815"/>
</g>
<!-- Node5 -->
<g id="node6" class="node"><title>Node5</title>
<g id="a_node6"><a xlink:href="../../d6/d2f/Stacktrace_8hpp.html" target="_top" xlink:title="tools/Stacktrace.hpp">
<polygon fill="white" stroke="black" points="0,-56.5 0,-75.5 107,-75.5 107,-56.5 0,-56.5"/>
<text text-anchor="middle" x="53.5" y="-63.5" font-family="Helvetica,sans-Serif" font-size="10.00">tools/Stacktrace.hpp</text>
</a>
</g>
</g>
<!-- Node4&#45;&gt;Node5 -->
<g id="edge5" class="edge"><title>Node4&#45;&gt;Node5</title>
<path fill="none" stroke="midnightblue" d="M678.989,-117.985C669.245,-115.714 658.492,-113.482 648.5,-112 416.271,-77.564 355.098,-99.4136 121.5,-76 120.2,-75.8697 118.887,-75.7341 117.564,-75.5938"/>
<polygon fill="midnightblue" stroke="midnightblue" points="117.613,-72.0774 107.285,-74.4386 116.832,-79.0336 117.613,-72.0774"/>
</g>
<!-- Node4&#45;&gt;Node6 -->
<g id="edge10" class="edge"><title>Node4&#45;&gt;Node6</title>
<path fill="none" stroke="midnightblue" d="M678.659,-117.938C669.002,-115.693 658.377,-113.488 648.5,-112 539.251,-95.5465 79.0574,-136.712 154.5,-56 198.33,-9.10892 665.08,-9.67568 789.933,-10.6778"/>
<polygon fill="midnightblue" stroke="midnightblue" points="789.93,-14.1778 799.96,-10.7653 789.991,-7.17803 789.93,-14.1778"/>
</g>
<!-- Node8 -->
<g id="node9" class="node"><title>Node8</title>
<polygon fill="white" stroke="#bfbfbf" points="164,-56.5 164,-75.5 213,-75.5 213,-56.5 164,-56.5"/>
<text text-anchor="middle" x="188.5" y="-63.5" font-family="Helvetica,sans-Serif" font-size="10.00">cstddef</text>
</g>
<!-- Node4&#45;&gt;Node8 -->
<g id="edge8" class="edge"><title>Node4&#45;&gt;Node8</title>
<path fill="none" stroke="midnightblue" d="M678.322,-117.934C668.752,-115.717 658.258,-113.526 648.5,-112 463.553,-83.0702 410.83,-108.299 223.169,-76.0086"/>
<polygon fill="midnightblue" stroke="midnightblue" points="223.71,-72.5503 213.256,-74.2716 222.502,-79.4452 223.71,-72.5503"/>
</g>
<!-- Node9 -->
<g id="node10" class="node"><title>Node9</title>
<polygon fill="white" stroke="#bfbfbf" points="231,-56.5 231,-75.5 290,-75.5 290,-56.5 231,-56.5"/>
<text text-anchor="middle" x="260.5" y="-63.5" font-family="Helvetica,sans-Serif" font-size="10.00">exception</text>
</g>
<!-- Node4&#45;&gt;Node9 -->
<g id="edge9" class="edge"><title>Node4&#45;&gt;Node9</title>
<path fill="none" stroke="midnightblue" d="M677.977,-117.976C668.494,-115.786 658.133,-113.599 648.5,-112 497.826,-86.9875 455.065,-100.978 300.117,-75.8898"/>
<polygon fill="midnightblue" stroke="midnightblue" points="300.671,-72.4339 290.235,-74.2619 299.533,-79.3408 300.671,-72.4339"/>
</g>
<!-- Node10 -->
<g id="node11" class="node"><title>Node10</title>
<g id="a_node11"><a xlink:href="../../d8/db0/coreexception_8hpp.html" target="_top" xlink:title="Exception class for Core related errors. ">
<polygon fill="white" stroke="black" points="308.5,-56.5 308.5,-75.5 404.5,-75.5 404.5,-56.5 308.5,-56.5"/>
<text text-anchor="middle" x="356.5" y="-63.5" font-family="Helvetica,sans-Serif" font-size="10.00">coreexception.hpp</text>
</a>
</g>
</g>
<!-- Node4&#45;&gt;Node10 -->
<g id="edge12" class="edge"><title>Node4&#45;&gt;Node10</title>
<path fill="none" stroke="midnightblue" d="M667.915,-117.983C658.488,-115.891 648.649,-113.751 639.5,-112 539.065,-92.7767 510.716,-92.2539 411.642,-77.0974"/>
<polygon fill="midnightblue" stroke="midnightblue" points="411.921,-73.599 401.504,-75.5333 410.853,-80.5172 411.921,-73.599"/>
</g>
<!-- Node11 -->
<g id="node12" class="node"><title>Node11</title>
<g id="a_node12"><a xlink:href="../../d8/d77/deviceexception_8hpp.html" target="_top" xlink:title="Exception class for Device related errors. ">
<polygon fill="white" stroke="black" points="422.5,-56.5 422.5,-75.5 528.5,-75.5 528.5,-56.5 422.5,-56.5"/>
<text text-anchor="middle" x="475.5" y="-63.5" font-family="Helvetica,sans-Serif" font-size="10.00">deviceexception.hpp</text>
</a>
</g>
</g>
<!-- Node4&#45;&gt;Node11 -->
<g id="edge15" class="edge"><title>Node4&#45;&gt;Node11</title>
<path fill="none" stroke="midnightblue" d="M672.786,-117.975C628.876,-107.482 557.932,-89.6367 514.082,-78.087"/>
<polygon fill="midnightblue" stroke="midnightblue" points="514.916,-74.6874 504.353,-75.5091 513.123,-81.4539 514.916,-74.6874"/>
</g>
<!-- Node12 -->
<g id="node13" class="node"><title>Node12</title>
<g id="a_node13"><a xlink:href="../../db/d35/dynlibexception_8hpp.html" target="_top" xlink:title="Exception class for DynLib related errors. ">
<polygon fill="white" stroke="black" points="547,-56.5 547,-75.5 650,-75.5 650,-56.5 547,-56.5"/>
<text text-anchor="middle" x="598.5" y="-63.5" font-family="Helvetica,sans-Serif" font-size="10.00">dynlibexception.hpp</text>
</a>
</g>
</g>
<!-- Node4&#45;&gt;Node12 -->
<g id="edge18" class="edge"><title>Node4&#45;&gt;Node12</title>
<path fill="none" stroke="midnightblue" d="M690.409,-117.975C669.735,-108.211 638.812,-92.0807 618.521,-80.5808"/>
<polygon fill="midnightblue" stroke="midnightblue" points="620.171,-77.4919 609.763,-75.5091 616.663,-83.5494 620.171,-77.4919"/>
</g>
<!-- Node13 -->
<g id="node14" class="node"><title>Node13</title>
<g id="a_node14"><a xlink:href="../../d0/d4e/fsexception_8hpp.html" target="_top" xlink:title="Exception class for filesystem related errors. ">
<polygon fill="white" stroke="black" points="668.5,-56.5 668.5,-75.5 754.5,-75.5 754.5,-56.5 668.5,-56.5"/>
<text text-anchor="middle" x="711.5" y="-63.5" font-family="Helvetica,sans-Serif" font-size="10.00">fsexception.hpp</text>
</a>
</g>
</g>
<!-- Node4&#45;&gt;Node13 -->
<g id="edge21" class="edge"><title>Node4&#45;&gt;Node13</title>
<path fill="none" stroke="midnightblue" d="M706.599,-117.975C704.768,-109.58 704.297,-96.4806 705.185,-85.6631"/>
<polygon fill="midnightblue" stroke="midnightblue" points="708.686,-85.897 706.603,-75.5091 701.754,-84.929 708.686,-85.897"/>
</g>
<!-- Node14 -->
<g id="node15" class="node"><title>Node14</title>
<g id="a_node15"><a xlink:href="../../d1/d8e/gpioexception_8hpp.html" target="_top" xlink:title="Exception class for Gpio related errors. ">
<polygon fill="white" stroke="black" points="773,-56.5 773,-75.5 868,-75.5 868,-56.5 773,-56.5"/>
<text text-anchor="middle" x="820.5" y="-63.5" font-family="Helvetica,sans-Serif" font-size="10.00">gpioexception.hpp</text>
</a>
</g>
</g>
<!-- Node4&#45;&gt;Node14 -->
<g id="edge24" class="edge"><title>Node4&#45;&gt;Node14</title>
<path fill="none" stroke="midnightblue" d="M722.216,-117.975C738.189,-108.078 768.03,-91.6416 790.767,-80.1151"/>
<polygon fill="midnightblue" stroke="midnightblue" points="792.624,-83.1002 800.015,-75.5091 789.503,-76.8343 792.624,-83.1002"/>
</g>
<!-- Node15 -->
<g id="node16" class="node"><title>Node15</title>
<g id="a_node16"><a xlink:href="../../d7/d8c/moduleexception_8hpp.html" target="_top" xlink:title="Exception class for modules. ">
<polygon fill="white" stroke="black" points="886,-56.5 886,-75.5 995,-75.5 995,-56.5 886,-56.5"/>
<text text-anchor="middle" x="940.5" y="-63.5" font-family="Helvetica,sans-Serif" font-size="10.00">moduleexception.hpp</text>
</a>
</g>
</g>
<!-- Node4&#45;&gt;Node15 -->
<g id="edge27" class="edge"><title>Node4&#45;&gt;Node15</title>
<path fill="none" stroke="midnightblue" d="M739.41,-117.975C777.668,-107.437 846.601,-89.4863 893.02,-77.9415"/>
<polygon fill="midnightblue" stroke="midnightblue" points="893.987,-81.308 902.854,-75.5091 892.306,-74.5128 893.987,-81.308"/>
</g>
<!-- Node16 -->
<g id="node17" class="node"><title>Node16</title>
<g id="a_node17"><a xlink:href="../../df/d8d/scriptexception_8hpp.html" target="_top" xlink:title="Exception class for Script related errors. ">
<polygon fill="white" stroke="black" points="1013,-56.5 1013,-75.5 1114,-75.5 1114,-56.5 1013,-56.5"/>
<text text-anchor="middle" x="1063.5" y="-63.5" font-family="Helvetica,sans-Serif" font-size="10.00">scriptexception.hpp</text>
</a>
</g>
</g>
<!-- Node4&#45;&gt;Node16 -->
<g id="edge30" class="edge"><title>Node4&#45;&gt;Node16</title>
<path fill="none" stroke="midnightblue" d="M757.032,-117.975C819.856,-106.949 933.037,-87.8077 1002.93,-76.3801"/>
<polygon fill="midnightblue" stroke="midnightblue" points="1003.61,-79.8155 1012.92,-74.7519 1002.48,-72.9067 1003.61,-79.8155"/>
</g>
<!-- Node17 -->
<g id="node18" class="node"><title>Node17</title>
<g id="a_node18"><a xlink:href="../../dc/dce/signalexception_8hpp.html" target="_top" xlink:title="Exception class for Signal related errors. ">
<polygon fill="white" stroke="black" points="1132,-56.5 1132,-75.5 1235,-75.5 1235,-56.5 1132,-56.5"/>
<text text-anchor="middle" x="1183.5" y="-63.5" font-family="Helvetica,sans-Serif" font-size="10.00">signalexception.hpp</text>
</a>
</g>
</g>
<!-- Node4&#45;&gt;Node17 -->
<g id="edge33" class="edge"><title>Node4&#45;&gt;Node17</title>
<path fill="none" stroke="midnightblue" d="M764.671,-119.674C841.708,-110.364 988.469,-92.9024 1113.5,-76 1116.28,-75.6235 1119.14,-75.2297 1122.03,-74.8259"/>
<polygon fill="midnightblue" stroke="midnightblue" points="1122.54,-78.289 1131.95,-73.4259 1121.56,-71.3577 1122.54,-78.289"/>
</g>
<!-- Node5&#45;&gt;Node6 -->
<g id="edge6" class="edge"><title>Node5&#45;&gt;Node6</title>
<path fill="none" stroke="midnightblue" d="M107.283,-57.5419C112.086,-56.9788 116.878,-56.4541 121.5,-56 379.296,-30.6708 692.041,-16.3372 789.8,-12.2377"/>
<polygon fill="midnightblue" stroke="midnightblue" points="790.027,-15.7314 799.874,-11.8198 789.737,-8.73743 790.027,-15.7314"/>
</g>
<!-- Node7 -->
<g id="node8" class="node"><title>Node7</title>
<polygon fill="white" stroke="#bfbfbf" points="31.5,-0.5 31.5,-19.5 75.5,-19.5 75.5,-0.5 31.5,-0.5"/>
<text text-anchor="middle" x="53.5" y="-7.5" font-family="Helvetica,sans-Serif" font-size="10.00">vector</text>
</g>
<!-- Node5&#45;&gt;Node7 -->
<g id="edge7" class="edge"><title>Node5&#45;&gt;Node7</title>
<path fill="none" stroke="midnightblue" d="M53.5,-56.083C53.5,-49.0059 53.5,-38.8611 53.5,-29.9865"/>
<polygon fill="midnightblue" stroke="midnightblue" points="57.0001,-29.751 53.5,-19.7511 50.0001,-29.7511 57.0001,-29.751"/>
</g>
<!-- Node10&#45;&gt;Node4 -->
<g id="edge14" class="edge"><title>Node10&#45;&gt;Node4</title>
<path fill="none" stroke="midnightblue" d="M404.64,-73.2207C410.693,-74.1566 416.758,-75.1069 422.5,-76 526.907,-92.2398 553.721,-92.1365 657.5,-112 663.361,-113.122 669.506,-114.403 675.482,-115.729"/>
<polygon fill="midnightblue" stroke="midnightblue" points="674.772,-119.157 685.301,-117.983 676.338,-112.335 674.772,-119.157"/>
</g>
<!-- Node10&#45;&gt;Node6 -->
<g id="edge13" class="edge"><title>Node10&#45;&gt;Node6</title>
<path fill="none" stroke="midnightblue" d="M404.679,-57.2315C407.662,-56.8006 410.62,-56.3863 413.5,-56 553.616,-37.2026 721.64,-20.455 789.665,-13.9153"/>
<polygon fill="midnightblue" stroke="midnightblue" points="790.083,-17.3914 799.704,-12.9546 789.416,-10.4232 790.083,-17.3914"/>
</g>
<!-- Node11&#45;&gt;Node4 -->
<g id="edge17" class="edge"><title>Node11&#45;&gt;Node4</title>
<path fill="none" stroke="midnightblue" d="M514.147,-75.5091C558.031,-85.9952 628.974,-103.84 672.852,-115.396"/>
<polygon fill="midnightblue" stroke="midnightblue" points="672.025,-118.797 682.588,-117.975 673.818,-112.03 672.025,-118.797"/>
</g>
<!-- Node11&#45;&gt;Node6 -->
<g id="edge16" class="edge"><title>Node11&#45;&gt;Node6</title>
<path fill="none" stroke="midnightblue" d="M528.65,-56.6808C601.783,-45.2339 731.053,-25.0004 789.85,-15.7974"/>
<polygon fill="midnightblue" stroke="midnightblue" points="790.64,-19.2164 799.979,-14.212 789.558,-12.3006 790.64,-19.2164"/>
</g>
<!-- Node12&#45;&gt;Node4 -->
<g id="edge20" class="edge"><title>Node12&#45;&gt;Node4</title>
<path fill="none" stroke="midnightblue" d="M619.557,-75.5091C640.22,-85.2667 671.144,-101.396 691.447,-112.901"/>
<polygon fill="midnightblue" stroke="midnightblue" points="689.803,-115.993 700.21,-117.975 693.31,-109.935 689.803,-115.993"/>
</g>
<!-- Node12&#45;&gt;Node6 -->
<g id="edge19" class="edge"><title>Node12&#45;&gt;Node6</title>
<path fill="none" stroke="midnightblue" d="M633.677,-56.4435C676.753,-45.9655 749.013,-28.3888 789.893,-18.445"/>
<polygon fill="midnightblue" stroke="midnightblue" points="790.925,-21.7959 799.815,-16.0315 789.271,-14.9943 790.925,-21.7959"/>
</g>
<!-- Node13&#45;&gt;Node4 -->
<g id="edge23" class="edge"><title>Node13&#45;&gt;Node4</title>
<path fill="none" stroke="midnightblue" d="M716.397,-75.5091C718.23,-83.898 718.703,-96.9962 717.817,-107.817"/>
<polygon fill="midnightblue" stroke="midnightblue" points="714.315,-107.588 716.401,-117.975 721.248,-108.554 714.315,-107.588"/>
</g>
<!-- Node13&#45;&gt;Node6 -->
<g id="edge22" class="edge"><title>Node13&#45;&gt;Node6</title>
<path fill="none" stroke="midnightblue" d="M729.013,-56.324C746.572,-47.6247 773.831,-34.1202 794.031,-24.113"/>
<polygon fill="midnightblue" stroke="midnightblue" points="795.624,-27.23 803.031,-19.6545 792.516,-20.9575 795.624,-27.23"/>
</g>
<!-- Node14&#45;&gt;Node4 -->
<g id="edge25" class="edge"><title>Node14&#45;&gt;Node4</title>
<path fill="none" stroke="midnightblue" d="M809.809,-75.5091C793.852,-85.3992 764.014,-101.835 741.27,-113.367"/>
<polygon fill="midnightblue" stroke="midnightblue" points="739.408,-110.384 732.018,-117.975 742.529,-116.649 739.408,-110.384"/>
</g>
<!-- Node14&#45;&gt;Node6 -->
<g id="edge26" class="edge"><title>Node14&#45;&gt;Node6</title>
<path fill="none" stroke="midnightblue" d="M820.5,-56.083C820.5,-49.0059 820.5,-38.8611 820.5,-29.9865"/>
<polygon fill="midnightblue" stroke="midnightblue" points="824,-29.751 820.5,-19.7511 817,-29.7511 824,-29.751"/>
</g>
<!-- Node15&#45;&gt;Node4 -->
<g id="edge29" class="edge"><title>Node15&#45;&gt;Node4</title>
<path fill="none" stroke="midnightblue" d="M912.648,-75.5091C874.42,-86.0394 805.491,-103.99 759.05,-115.541"/>
<polygon fill="midnightblue" stroke="midnightblue" points="758.078,-112.176 749.211,-117.975 759.759,-118.971 758.078,-112.176"/>
</g>
<!-- Node15&#45;&gt;Node6 -->
<g id="edge28" class="edge"><title>Node15&#45;&gt;Node6</title>
<path fill="none" stroke="midnightblue" d="M921.486,-56.4435C901.912,-47.6356 871.192,-33.8116 848.771,-23.722"/>
<polygon fill="midnightblue" stroke="midnightblue" points="849.981,-20.4284 839.425,-19.5164 847.108,-26.8119 849.981,-20.4284"/>
</g>
<!-- Node16&#45;&gt;Node4 -->
<g id="edge32" class="edge"><title>Node16&#45;&gt;Node4</title>
<path fill="none" stroke="midnightblue" d="M1017.94,-75.5306C955.843,-86.4279 844.599,-105.246 774.549,-116.715"/>
<polygon fill="midnightblue" stroke="midnightblue" points="773.828,-113.286 764.523,-118.352 774.956,-120.194 773.828,-113.286"/>
</g>
<!-- Node16&#45;&gt;Node6 -->
<g id="edge31" class="edge"><title>Node16&#45;&gt;Node6</title>
<path fill="none" stroke="midnightblue" d="M1025,-56.4435C976.801,-45.7335 895.232,-27.6072 851.083,-17.7961"/>
<polygon fill="midnightblue" stroke="midnightblue" points="851.743,-14.3576 841.222,-15.6049 850.225,-21.191 851.743,-14.3576"/>
</g>
<!-- Node17&#45;&gt;Node4 -->
<g id="edge35" class="edge"><title>Node17&#45;&gt;Node4</title>
<path fill="none" stroke="midnightblue" d="M1135.03,-75.5181C1133.85,-75.6814 1132.67,-75.8422 1131.5,-76 1005.32,-93.0577 857.008,-110.685 774.605,-119.929"/>
<polygon fill="midnightblue" stroke="midnightblue" points="774.194,-116.453 764.644,-121.041 774.971,-123.409 774.194,-116.453"/>
</g>
<!-- Node17&#45;&gt;Node6 -->
<g id="edge34" class="edge"><title>Node17&#45;&gt;Node6</title>
<path fill="none" stroke="midnightblue" d="M1131.88,-57.3205C1055.09,-45.8973 913.166,-24.785 851.006,-15.5381"/>
<polygon fill="midnightblue" stroke="midnightblue" points="851.453,-12.0661 841.047,-14.0565 850.423,-18.9899 851.453,-12.0661"/>
</g>
<!-- Node18&#45;&gt;Node6 -->
<g id="edge38" class="edge"><title>Node18&#45;&gt;Node6</title>
<path fill="none" stroke="midnightblue" d="M1334.76,-117.676C1325.86,-102.12 1305.06,-70.1303 1277.5,-56 1202.77,-17.6803 941.511,-11.955 851.363,-11.1288"/>
<polygon fill="midnightblue" stroke="midnightblue" points="851.268,-7.62804 841.242,-11.0504 851.214,-14.6278 851.268,-7.62804"/>
</g>
<!-- Node19 -->
<g id="node20" class="node"><title>Node19</title>
<polygon fill="white" stroke="#bfbfbf" points="1329.5,-56.5 1329.5,-75.5 1381.5,-75.5 1381.5,-56.5 1329.5,-56.5"/>
<text text-anchor="middle" x="1355.5" y="-63.5" font-family="Helvetica,sans-Serif" font-size="10.00">sstream</text>
</g>
<!-- Node18&#45;&gt;Node19 -->
<g id="edge37" class="edge"><title>Node18&#45;&gt;Node19</title>
<path fill="none" stroke="midnightblue" d="M1341.79,-117.975C1344.07,-109.492 1347.65,-96.2043 1350.57,-85.3222"/>
<polygon fill="midnightblue" stroke="midnightblue" points="1353.99,-86.0749 1353.21,-75.5091 1347.24,-84.2571 1353.99,-86.0749"/>
</g>
<!-- Node20&#45;&gt;Node6 -->
<g id="edge46" class="edge"><title>Node20&#45;&gt;Node6</title>
<path fill="none" stroke="midnightblue" d="M1456.81,-117.848C1446.03,-102.269 1420.92,-69.8331 1390.5,-56 1293.08,-11.6958 955.405,-10.0999 851.301,-10.6987"/>
<polygon fill="midnightblue" stroke="midnightblue" points="851.122,-7.19977 841.147,-10.7688 851.171,-14.1996 851.122,-7.19977"/>
</g>
<!-- Node20&#45;&gt;Node19 -->
<g id="edge45" class="edge"><title>Node20&#45;&gt;Node19</title>
<path fill="none" stroke="midnightblue" d="M1447.17,-117.975C1429.53,-108.166 1400.34,-91.9346 1379.64,-80.425"/>
<polygon fill="midnightblue" stroke="midnightblue" points="1381.24,-77.3102 1370.8,-75.5091 1377.84,-83.4279 1381.24,-77.3102"/>
</g>
<!-- Node21 -->
<g id="node22" class="node"><title>Node21</title>
<polygon fill="white" stroke="#bfbfbf" points="1438,-56.5 1438,-75.5 1487,-75.5 1487,-56.5 1438,-56.5"/>
<text text-anchor="middle" x="1462.5" y="-63.5" font-family="Helvetica,sans-Serif" font-size="10.00">cassert</text>
</g>
<!-- Node20&#45;&gt;Node21 -->
<g id="edge41" class="edge"><title>Node20&#45;&gt;Node21</title>
<path fill="none" stroke="midnightblue" d="M1462.5,-117.975C1462.5,-109.58 1462.5,-96.4806 1462.5,-85.6631"/>
<polygon fill="midnightblue" stroke="midnightblue" points="1466,-85.5091 1462.5,-75.5091 1459,-85.5091 1466,-85.5091"/>
</g>
<!-- Node22 -->
<g id="node23" class="node"><title>Node22</title>
<polygon fill="white" stroke="#bfbfbf" points="1505,-56.5 1505,-75.5 1552,-75.5 1552,-56.5 1505,-56.5"/>
<text text-anchor="middle" x="1528.5" y="-63.5" font-family="Helvetica,sans-Serif" font-size="10.00">csignal</text>
</g>
<!-- Node20&#45;&gt;Node22 -->
<g id="edge42" class="edge"><title>Node20&#45;&gt;Node22</title>
<path fill="none" stroke="midnightblue" d="M1471.96,-117.975C1482.25,-108.697 1498.92,-93.6706 1511.49,-82.331"/>
<polygon fill="midnightblue" stroke="midnightblue" points="1513.98,-84.8046 1519.06,-75.5091 1509.29,-79.6054 1513.98,-84.8046"/>
</g>
<!-- Node23 -->
<g id="node24" class="node"><title>Node23</title>
<polygon fill="white" stroke="#bfbfbf" points="1570.5,-56.5 1570.5,-75.5 1624.5,-75.5 1624.5,-56.5 1570.5,-56.5"/>
<text text-anchor="middle" x="1597.5" y="-63.5" font-family="Helvetica,sans-Serif" font-size="10.00">iostream</text>
</g>
<!-- Node20&#45;&gt;Node23 -->
<g id="edge43" class="edge"><title>Node20&#45;&gt;Node23</title>
<path fill="none" stroke="midnightblue" d="M1481.84,-117.975C1504.6,-107.945 1542.59,-91.2002 1568.79,-79.6546"/>
<polygon fill="midnightblue" stroke="midnightblue" points="1570.45,-82.7449 1578.19,-75.5091 1567.63,-76.3395 1570.45,-82.7449"/>
</g>
<!-- Node24 -->
<g id="node25" class="node"><title>Node24</title>
<polygon fill="white" stroke="#bfbfbf" points="1643,-56.5 1643,-75.5 1728,-75.5 1728,-56.5 1643,-56.5"/>
<text text-anchor="middle" x="1685.5" y="-63.5" font-family="Helvetica,sans-Serif" font-size="10.00">spdlog/spdlog.h</text>
</g>
<!-- Node20&#45;&gt;Node24 -->
<g id="edge44" class="edge"><title>Node20&#45;&gt;Node24</title>
<path fill="none" stroke="midnightblue" d="M1486.79,-120.019C1524.44,-109.974 1597.36,-90.5172 1643.62,-78.1736"/>
<polygon fill="midnightblue" stroke="midnightblue" points="1644.59,-81.5376 1653.35,-75.5779 1642.79,-74.7742 1644.59,-81.5376"/>
</g>
</g>
</svg>
        <g id="navigator" transform="translate(0 0)" fill="#404254">
                <rect fill="#f2f5e9" fill-opacity="0.5" stroke="#606060" stroke-width=".5" x="0" y="0" width="60" height="60"/>
                <use id="zoomplus" xlink:href="#zoomPlus" x="17" y="9" onmousedown="handleZoom(evt,'in')"/>
                <use id="zoomminus" xlink:href="#zoomMin" x="42" y="9" onmousedown="handleZoom(evt,'out')"/>
                <use id="reset" xlink:href="#resetDef" x="30" y="36" onmousedown="handleReset()"/>
                <g id="arrowUp" xlink:href="#dirArrow" transform="translate(30 24)" onmousedown="handlePan(0,-1)">
                  <use xlink:href="#rim" fill="#404040">
                        <set attributeName="fill" to="#808080" begin="arrowUp.mouseover" end="arrowUp.mouseout"/>
                  </use>
                  <path fill="none" stroke="white" stroke-width="1.5" d="M0,-3.0v7 M-2.5,-0.5L0,-3.0L2.5,-0.5"/>
                </g>
                <g id="arrowRight" xlink:href="#dirArrow" transform="rotate(90) translate(36 -43)" onmousedown="handlePan(1,0)">
                  <use xlink:href="#rim" fill="#404040">
                        <set attributeName="fill" to="#808080" begin="arrowRight.mouseover" end="arrowRight.mouseout"/>
                  </use>
                  <path fill="none" stroke="white" stroke-width="1.5" d="M0,-3.0v7 M-2.5,-0.5L0,-3.0L2.5,-0.5"/>
                </g>
                <g id="arrowDown" xlink:href="#dirArrow" transform="rotate(180) translate(-30 -48)" onmousedown="handlePan(0,1)">
                  <use xlink:href="#rim" fill="#404040">
                        <set attributeName="fill" to="#808080" begin="arrowDown.mouseover" end="arrowDown.mouseout"/>
                  </use>
                  <path fill="none" stroke="white" stroke-width="1.5" d="M0,-3.0v7 M-2.5,-0.5L0,-3.0L2.5,-0.5"/>
                </g>
                <g id="arrowLeft" xlink:href="#dirArrow" transform="rotate(270) translate(-36 17)" onmousedown="handlePan(-1,0)">
                  <use xlink:href="#rim" fill="#404040">
                        <set attributeName="fill" to="#808080" begin="arrowLeft.mouseover" end="arrowLeft.mouseout"/>
                  </use>
                  <path fill="none" stroke="white" stroke-width="1.5" d="M0,-3.0v7 M-2.5,-0.5L0,-3.0L2.5,-0.5"/>
                </g>
        </g>
        <svg viewBox="0 0 15 15" width="100%" height="30px" preserveAspectRatio="xMaxYMin meet">
         <g id="arrow_out" transform="scale(0.3 0.3)">
          <a xlink:href="XmlPropertyTree_8cpp__incl_org.svg" target="_base">
           <rect id="button" ry="5" rx="5" y="6" x="6" height="38" width="38"
                fill="#f2f5e9" fill-opacity="0.5" stroke="#606060" stroke-width="1.0"/>
           <path id="arrow"
             d="M 11.500037,31.436501 C 11.940474,20.09759 22.043105,11.32322 32.158766,21.979434 L 37.068811,17.246167 C 37.068811,17.246167 37.088388,32 37.088388,32 L 22.160133,31.978069 C 22.160133,31.978069 26.997745,27.140456 26.997745,27.140456 C 18.528582,18.264221 13.291696,25.230495 11.500037,31.436501 z"
             style="fill:#404040;"/>
          </a>
         </g>
        </svg>
</svg>
