<?xml version="1.0" encoding="UTF-8" standalone="no"?>
<!DOCTYPE svg PUBLIC "-//W3C//DTD SVG 1.1//EN"
 "http://www.w3.org/Graphics/SVG/1.1/DTD/svg11.dtd">
<!-- Generated by graphviz version 2.38.0 (20140413.2041)
 -->
<!-- Title: src/core/audit/WSAPICall.hpp Pages: 1 -->
<svg width="458pt" height="95pt"
 viewBox="0.00 0.00 457.50 95.00" xmlns="http://www.w3.org/2000/svg" xmlns:xlink="http://www.w3.org/1999/xlink">
<g id="graph0" class="graph" transform="scale(1 1) rotate(0) translate(4 91)">
<title>src/core/audit/WSAPICall.hpp</title>
<polygon fill="white" stroke="none" points="-4,4 -4,-91 453.5,-91 453.5,4 -4,4"/>
<!-- Node30 -->
<g id="node1" class="node"><title>Node30</title>
<polygon fill="#bfbfbf" stroke="black" points="171.5,-67.5 171.5,-86.5 319.5,-86.5 319.5,-67.5 171.5,-67.5"/>
<text text-anchor="middle" x="245.5" y="-74.5" font-family="Helvetica,sans-Serif" font-size="10.00">src/core/audit/WSAPICall.hpp</text>
</g>
<!-- Node31 -->
<g id="node2" class="node"><title>Node31</title>
<g id="a_node2"><a xlink:href="../../d4/dbe/AuditFactory_8cpp.html" target="_top" xlink:title="src/core/audit/AuditFactory.cpp">
<polygon fill="white" stroke="black" points="0,-6 0,-25 153,-25 153,-6 0,-6"/>
<text text-anchor="middle" x="76.5" y="-13" font-family="Helvetica,sans-Serif" font-size="10.00">src/core/audit/AuditFactory.cpp</text>
</a>
</g>
</g>
<!-- Node30&#45;&gt;Node31 -->
<g id="edge1" class="edge"><title>Node30&#45;&gt;Node31</title>
<path fill="none" stroke="midnightblue" d="M211.651,-64.0828C178.8,-52.517 129.763,-35.2524 100.669,-25.0091"/>
<polygon fill="midnightblue" stroke="midnightblue" points="210.692,-67.4555 221.286,-67.4751 213.016,-60.8528 210.692,-67.4555"/>
</g>
<!-- Node32 -->
<g id="node3" class="node"><title>Node32</title>
<g id="a_node3"><a xlink:href="../../d2/de5/WSAPICall_8cpp.html" target="_top" xlink:title="src/core/audit/WSAPICall.cpp">
<polygon fill="white" stroke="black" points="171.5,-6 171.5,-25 319.5,-25 319.5,-6 171.5,-6"/>
<text text-anchor="middle" x="245.5" y="-13" font-family="Helvetica,sans-Serif" font-size="10.00">src/core/audit/WSAPICall.cpp</text>
</a>
</g>
</g>
<!-- Node30&#45;&gt;Node32 -->
<g id="edge2" class="edge"><title>Node30&#45;&gt;Node32</title>
<path fill="none" stroke="midnightblue" d="M245.5,-57.3165C245.5,-46.4962 245.5,-33.398 245.5,-25.0091"/>
<polygon fill="midnightblue" stroke="midnightblue" points="242,-57.4751 245.5,-67.4751 249,-57.4751 242,-57.4751"/>
</g>
<!-- Node33 -->
<g id="node4" class="node"><title>Node33</title>
<g id="a_node4"><a xlink:href="../../d4/d2c/WSServer_8cpp.html" target="_top" xlink:title="src/modules/websock\l&#45;api/WSServer.cpp">
<polygon fill="white" stroke="black" points="337.5,-0.5 337.5,-30.5 449.5,-30.5 449.5,-0.5 337.5,-0.5"/>
<text text-anchor="start" x="345.5" y="-18.5" font-family="Helvetica,sans-Serif" font-size="10.00">src/modules/websock</text>
<text text-anchor="middle" x="393.5" y="-7.5" font-family="Helvetica,sans-Serif" font-size="10.00">&#45;api/WSServer.cpp</text>
</a>
</g>
</g>
<!-- Node30&#45;&gt;Node33 -->
<g id="edge3" class="edge"><title>Node30&#45;&gt;Node33</title>
<path fill="none" stroke="midnightblue" d="M276.048,-63.7189C300.068,-54.062 333.548,-40.6023 358.619,-30.523"/>
<polygon fill="midnightblue" stroke="midnightblue" points="274.678,-60.4975 266.705,-67.4751 277.289,-66.9923 274.678,-60.4975"/>
</g>
</g>
</svg>
