<?xml version="1.0" encoding="UTF-8" standalone="no"?>
<!DOCTYPE svg PUBLIC "-//W3C//DTD SVG 1.1//EN"
 "http://www.w3.org/Graphics/SVG/1.1/DTD/svg11.dtd">
<!-- Generated by graphviz version 2.38.0 (20140413.2041)
 -->
<!-- Title: src/tools/SingleTimeFrame.cpp Pages: 1 -->
<svg width="204pt" height="140pt"
 viewBox="0.00 0.00 204.00 140.00" xmlns="http://www.w3.org/2000/svg" xmlns:xlink="http://www.w3.org/1999/xlink">
<g id="graph0" class="graph" transform="scale(1 1) rotate(0) translate(4 136)">
<title>src/tools/SingleTimeFrame.cpp</title>
<polygon fill="white" stroke="none" points="-4,4 -4,-136 200,-136 200,4 -4,4"/>
<!-- Node0 -->
<g id="node1" class="node"><title>Node0</title>
<polygon fill="#bfbfbf" stroke="black" points="44,-112.5 44,-131.5 196,-131.5 196,-112.5 44,-112.5"/>
<text text-anchor="middle" x="120" y="-119.5" font-family="Helvetica,sans-Serif" font-size="10.00">src/tools/SingleTimeFrame.cpp</text>
</g>
<!-- Node1 -->
<g id="node2" class="node"><title>Node1</title>
<g id="a_node2"><a xlink:href="../../df/dfe/SingleTimeFrame_8hpp.html" target="_top" xlink:title="tools/SingleTimeFrame.hpp">
<polygon fill="white" stroke="black" points="0,-56.5 0,-75.5 136,-75.5 136,-56.5 0,-56.5"/>
<text text-anchor="middle" x="68" y="-63.5" font-family="Helvetica,sans-Serif" font-size="10.00">tools/SingleTimeFrame.hpp</text>
</a>
</g>
</g>
<!-- Node0&#45;&gt;Node1 -->
<g id="edge1" class="edge"><title>Node0&#45;&gt;Node1</title>
<path fill="none" stroke="midnightblue" d="M111.413,-112.083C103.841,-104.22 92.6218,-92.5688 83.4856,-83.0813"/>
<polygon fill="midnightblue" stroke="midnightblue" points="85.8845,-80.5266 76.427,-75.7511 80.8423,-85.3821 85.8845,-80.5266"/>
</g>
<!-- Node3 -->
<g id="node4" class="node"><title>Node3</title>
<polygon fill="white" stroke="#bfbfbf" points="154,-56.5 154,-75.5 192,-75.5 192,-56.5 154,-56.5"/>
<text text-anchor="middle" x="173" y="-63.5" font-family="Helvetica,sans-Serif" font-size="10.00">tuple</text>
</g>
<!-- Node0&#45;&gt;Node3 -->
<g id="edge3" class="edge"><title>Node0&#45;&gt;Node3</title>
<path fill="none" stroke="midnightblue" d="M128.752,-112.083C136.47,-104.22 147.905,-92.5688 157.217,-83.0813"/>
<polygon fill="midnightblue" stroke="midnightblue" points="159.904,-85.3396 164.411,-75.7511 154.908,-80.4363 159.904,-85.3396"/>
</g>
<!-- Node2 -->
<g id="node3" class="node"><title>Node2</title>
<polygon fill="white" stroke="#bfbfbf" points="45,-0.5 45,-19.5 91,-19.5 91,-0.5 45,-0.5"/>
<text text-anchor="middle" x="68" y="-7.5" font-family="Helvetica,sans-Serif" font-size="10.00">chrono</text>
</g>
<!-- Node1&#45;&gt;Node2 -->
<g id="edge2" class="edge"><title>Node1&#45;&gt;Node2</title>
<path fill="none" stroke="midnightblue" d="M68,-56.083C68,-49.0059 68,-38.8611 68,-29.9865"/>
<polygon fill="midnightblue" stroke="midnightblue" points="71.5001,-29.751 68,-19.7511 64.5001,-29.7511 71.5001,-29.751"/>
</g>
</g>
</svg>
