<?xml version="1.0" encoding="UTF-8" standalone="no"?>
<!DOCTYPE svg PUBLIC "-//W3C//DTD SVG 1.1//EN"
 "http://www.w3.org/Graphics/SVG/1.1/DTD/svg11.dtd">
<!-- Generated by graphviz version 2.38.0 (20140413.2041)
 -->
<!-- Title: Leosac::Audit::CredentialEvent Pages: 1 -->
<!--zoomable 241 -->
<svg id="main" version="1.1" xmlns="http://www.w3.org/2000/svg" xmlns:xlink="http://www.w3.org/1999/xlink" xml:space="preserve" onload="init(evt)">
<style type="text/css"><![CDATA[
.edge:hover path { stroke: red; }
.edge:hover polygon { stroke: red; fill: red; }
]]></style>
<script type="text/javascript"><![CDATA[
var edges = document.getElementsByTagName('g');
if (edges && edges.length) {
  for (var i=0;i<edges.length;i++) {
    if (edges[i].id.substr(0,4)=='edge') {
      edges[i].setAttribute('class','edge');
    }
  }
}
]]></script>
        <defs>
                <circle id="rim" cx="0" cy="0" r="7"/>
                <circle id="rim2" cx="0" cy="0" r="3.5"/>
                <g id="zoomPlus">
                        <use xlink:href="#rim" fill="#404040">
                                <set attributeName="fill" to="#808080" begin="zoomplus.mouseover" end="zoomplus.mouseout"/>
                        </use>
                        <path d="M-4,0h8M0,-4v8" fill="none" stroke="white" stroke-width="1.5" pointer-events="none"/>
                </g>
                <g id="zoomMin">
                        <use xlink:href="#rim" fill="#404040">
                                <set attributeName="fill" to="#808080" begin="zoomminus.mouseover" end="zoomminus.mouseout"/>
                        </use>
                        <path d="M-4,0h8" fill="none" stroke="white" stroke-width="1.5" pointer-events="none"/>
                </g>
                <g id="dirArrow">
                        <path fill="none" stroke="white" stroke-width="1.5" d="M0,-3.0v7 M-2.5,-0.5L0,-3.0L2.5,-0.5"/>
                </g>
               <g id="resetDef">
                       <use xlink:href="#rim2" fill="#404040">
                               <set attributeName="fill" to="#808080" begin="reset.mouseover" end="reset.mouseout"/>
                       </use>
               </g>
        </defs>

<script type="text/javascript">
var viewWidth = 732;
var viewHeight = 241;
var sectionId = 'dynsection-1';
</script>
<script xlink:href="../../svgpan.js"/>
<svg id="graph" class="graph">
<g id="viewport">
<title>Leosac::Audit::CredentialEvent</title>
<polygon fill="white" stroke="none" points="-4,4 -4,-237 728,-237 728,4 -4,4"/>
<!-- Node6 -->
<g id="node1" class="node"><title>Node6</title>
<polygon fill="#bfbfbf" stroke="black" points="590.5,-52.5 590.5,-82.5 717.5,-82.5 717.5,-52.5 590.5,-52.5"/>
<text text-anchor="start" x="598.5" y="-70.5" font-family="Helvetica,sans-Serif" font-size="10.00">Leosac::Audit::Credential</text>
<text text-anchor="middle" x="654" y="-59.5" font-family="Helvetica,sans-Serif" font-size="10.00">Event</text>
</g>
<!-- Node7 -->
<g id="node2" class="node"><title>Node7</title>
<g id="a_node2"><a xlink:href="../../d0/d87/classLeosac_1_1Audit_1_1ICredentialEvent.html" target="_top" xlink:title="Audit interface to Credential related events. ">
<polygon fill="white" stroke="black" points="382,-0.5 382,-30.5 512,-30.5 512,-0.5 382,-0.5"/>
<text text-anchor="start" x="390" y="-18.5" font-family="Helvetica,sans-Serif" font-size="10.00">Leosac::Audit::ICredential</text>
<text text-anchor="middle" x="447" y="-7.5" font-family="Helvetica,sans-Serif" font-size="10.00">Event</text>
</a>
</g>
</g>
<!-- Node7&#45;&gt;Node6 -->
<g id="edge1" class="edge"><title>Node7&#45;&gt;Node6</title>
<path fill="none" stroke="midnightblue" d="M517.045,-33.0138C541.962,-39.3344 569.843,-46.4064 593.839,-52.4932"/>
<polygon fill="midnightblue" stroke="midnightblue" points="517.848,-29.6068 507.294,-30.5406 516.127,-36.3919 517.848,-29.6068"/>
</g>
<!-- Node8 -->
<g id="node3" class="node"><title>Node8</title>
<g id="a_node3"><a xlink:href="../../d1/d44/classLeosac_1_1Audit_1_1IAuditEntry.html" target="_top" xlink:title="Base interface to Audit object. ">
<polygon fill="white" stroke="black" points="167,-16 167,-35 298,-35 298,-16 167,-16"/>
<text text-anchor="middle" x="232.5" y="-23" font-family="Helvetica,sans-Serif" font-size="10.00">Leosac::Audit::IAuditEntry</text>
</a>
</g>
</g>
<!-- Node8&#45;&gt;Node7 -->
<g id="edge2" class="edge"><title>Node8&#45;&gt;Node7</title>
<path fill="none" stroke="midnightblue" d="M308.235,-21.9831C332.205,-20.8551 358.528,-19.6163 381.685,-18.5266"/>
<polygon fill="midnightblue" stroke="midnightblue" points="307.947,-18.4926 298.123,-22.4589 308.276,-25.4849 307.947,-18.4926"/>
</g>
<!-- Node10 -->
<g id="node5" class="node"><title>Node10</title>
<g id="a_node5"><a xlink:href="../../d0/d20/classLeosac_1_1Audit_1_1AuditEntry.html" target="_top" xlink:title="Implementation of IAuditEntry, backed by ODB. ">
<polygon fill="white" stroke="black" points="383,-123 383,-142 511,-142 511,-123 383,-123"/>
<text text-anchor="middle" x="447" y="-130" font-family="Helvetica,sans-Serif" font-size="10.00">Leosac::Audit::AuditEntry</text>
</a>
</g>
</g>
<!-- Node8&#45;&gt;Node10 -->
<g id="edge5" class="edge"><title>Node8&#45;&gt;Node10</title>
<path fill="none" stroke="midnightblue" d="M267.782,-38.9757C279.106,-43.6461 291.695,-49.0762 303,-54.5 349.914,-77.0076 403.263,-107.455 429.561,-122.802"/>
<polygon fill="midnightblue" stroke="midnightblue" points="268.802,-35.6121 258.22,-35.0862 266.164,-42.0962 268.802,-35.6121"/>
</g>
<!-- Node9 -->
<g id="node4" class="node"><title>Node9</title>
<g id="a_node4"><a xlink:href="../../d0/d33/classLeosac_1_1Tools_1_1IVisitable.html" target="_top" xlink:title="Base class to make an object visitable. ">
<polygon fill="white" stroke="black" points="0,-16 0,-35 125,-35 125,-16 0,-16"/>
<text text-anchor="middle" x="62.5" y="-23" font-family="Helvetica,sans-Serif" font-size="10.00">Leosac::Tools::IVisitable</text>
</a>
</g>
</g>
<!-- Node9&#45;&gt;Node8 -->
<g id="edge3" class="edge"><title>Node9&#45;&gt;Node8</title>
<path fill="none" stroke="midnightblue" d="M135.421,-25.5C145.847,-25.5 156.527,-25.5 166.8,-25.5"/>
<polygon fill="midnightblue" stroke="midnightblue" points="135.103,-22.0001 125.103,-25.5 135.103,-29.0001 135.103,-22.0001"/>
</g>
<!-- Node10&#45;&gt;Node6 -->
<g id="edge4" class="edge"><title>Node10&#45;&gt;Node6</title>
<path fill="none" stroke="midnightblue" d="M488.2,-119.754C521.858,-109.082 569.954,-93.8316 605.506,-82.5591"/>
<polygon fill="midnightblue" stroke="midnightblue" points="486.723,-116.55 478.248,-122.909 488.839,-123.223 486.723,-116.55"/>
</g>
<!-- Node14 -->
<g id="node9" class="node"><title>Node14</title>
<polygon fill="white" stroke="#bfbfbf" points="584,-136 584,-155 724,-155 724,-136 584,-136"/>
<text text-anchor="middle" x="654" y="-143" font-family="Helvetica,sans-Serif" font-size="10.00">std::weak_ptr&lt; AuditEntry &gt;</text>
</g>
<!-- Node10&#45;&gt;Node14 -->
<g id="edge10" class="edge"><title>Node10&#45;&gt;Node14</title>
<path fill="none" stroke="#9a32cd" stroke-dasharray="5,2" d="M521.232,-139.853C524.192,-140.084 527.124,-140.301 530,-140.5 547.377,-141.7 566.156,-142.643 583.683,-143.37"/>
<polygon fill="#9a32cd" stroke="#9a32cd" points="521.347,-136.351 511.093,-139.019 520.772,-143.327 521.347,-136.351"/>
<text text-anchor="middle" x="548" y="-145.5" font-family="Helvetica,sans-Serif" font-size="10.00"> ptr</text>
</g>
<!-- Node11 -->
<g id="node6" class="node"><title>Node11</title>
<polygon fill="white" stroke="#bfbfbf" points="169.5,-202.5 169.5,-232.5 295.5,-232.5 295.5,-202.5 169.5,-202.5"/>
<text text-anchor="start" x="177.5" y="-220.5" font-family="Helvetica,sans-Serif" font-size="10.00">std::enable_shared</text>
<text text-anchor="middle" x="232.5" y="-209.5" font-family="Helvetica,sans-Serif" font-size="10.00">_from_this&lt; AuditEntry &gt;</text>
</g>
<!-- Node11&#45;&gt;Node10 -->
<g id="edge6" class="edge"><title>Node11&#45;&gt;Node10</title>
<path fill="none" stroke="midnightblue" d="M284.906,-199.014C291.004,-196.819 297.141,-194.61 303,-192.5 330.115,-182.734 337.344,-181.458 364,-170.5 385.768,-161.551 410.179,-150.043 426.662,-142.047"/>
<polygon fill="midnightblue" stroke="midnightblue" points="283.623,-195.756 275.399,-202.435 285.993,-202.342 283.623,-195.756"/>
</g>
<!-- Node12 -->
<g id="node7" class="node"><title>Node12</title>
<polygon fill="white" stroke="#bfbfbf" points="162.5,-164 162.5,-183 302.5,-183 302.5,-164 162.5,-164"/>
<text text-anchor="middle" x="232.5" y="-171" font-family="Helvetica,sans-Serif" font-size="10.00">std::vector&lt; AuditEntryPtr &gt;</text>
</g>
<!-- Node12&#45;&gt;Node10 -->
<g id="edge7" class="edge"><title>Node12&#45;&gt;Node10</title>
<path fill="none" stroke="#9a32cd" stroke-dasharray="5,2" d="M292.683,-162.081C325.406,-155.768 365.594,-148.014 396.614,-142.029"/>
<polygon fill="#9a32cd" stroke="#9a32cd" points="291.942,-158.66 282.786,-163.991 293.268,-165.533 291.942,-158.66"/>
<text text-anchor="middle" x="342.5" y="-158.5" font-family="Helvetica,sans-Serif" font-size="10.00"> children_</text>
</g>
<!-- Node13 -->
<g id="node8" class="node"><title>Node13</title>
<g id="a_node8"><a xlink:href="../../dd/d95/classLeosac_1_1Tools_1_1ElapsedTimeCounter.html" target="_top" xlink:title="This class provide a simple to get the elapsed time since it&#39;s creation. ">
<polygon fill="white" stroke="black" points="162,-114.5 162,-144.5 303,-144.5 303,-114.5 162,-114.5"/>
<text text-anchor="start" x="170" y="-132.5" font-family="Helvetica,sans-Serif" font-size="10.00">Leosac::Tools::ElapsedTime</text>
<text text-anchor="middle" x="232.5" y="-121.5" font-family="Helvetica,sans-Serif" font-size="10.00">Counter</text>
</a>
</g>
</g>
<!-- Node13&#45;&gt;Node10 -->
<g id="edge8" class="edge"><title>Node13&#45;&gt;Node10</title>
<path fill="none" stroke="#9a32cd" stroke-dasharray="5,2" d="M313.151,-130.624C336.132,-130.949 360.887,-131.298 382.729,-131.607"/>
<polygon fill="#9a32cd" stroke="#9a32cd" points="313.129,-127.124 303.08,-130.482 313.03,-134.123 313.129,-127.124"/>
<text text-anchor="middle" x="342.5" y="-134.5" font-family="Helvetica,sans-Serif" font-size="10.00"> etc_</text>
</g>
<!-- Node14&#45;&gt;Node10 -->
<g id="edge9" class="edge"><title>Node14&#45;&gt;Node10</title>
<path fill="none" stroke="#9a32cd" stroke-dasharray="5,2" d="M599.826,-134.139C588.701,-132.208 577.007,-130.504 566,-129.5 550.066,-128.047 545.997,-129.207 530,-129.5 523.875,-129.612 517.495,-129.771 511.117,-129.958"/>
<polygon fill="#9a32cd" stroke="#9a32cd" points="599.382,-137.615 609.847,-135.962 600.635,-130.728 599.382,-137.615"/>
<text text-anchor="middle" x="548" y="-132.5" font-family="Helvetica,sans-Serif" font-size="10.00"> parent_</text>
</g>
<!-- Node15 -->
<g id="node10" class="node"><title>Node15</title>
<g id="a_node10"><a xlink:title="STL class. ">
<polygon fill="white" stroke="#bfbfbf" points="202.5,-64 202.5,-83 262.5,-83 262.5,-64 202.5,-64"/>
<text text-anchor="middle" x="232.5" y="-71" font-family="Helvetica,sans-Serif" font-size="10.00">std::string</text>
</a>
</g>
</g>
<!-- Node15&#45;&gt;Node6 -->
<g id="edge13" class="edge"><title>Node15&#45;&gt;Node6</title>
<path fill="none" stroke="#9a32cd" stroke-dasharray="5,2" d="M272.795,-72.938C345.698,-71.8953 502.443,-69.6534 590.205,-68.3981"/>
<polygon fill="#9a32cd" stroke="#9a32cd" points="272.614,-69.4401 262.665,-73.0829 272.714,-76.4394 272.614,-69.4401"/>
<text text-anchor="middle" x="447" y="-85.5" font-family="Helvetica,sans-Serif" font-size="10.00"> after_</text>
<text text-anchor="middle" x="447" y="-74.5" font-family="Helvetica,sans-Serif" font-size="10.00">before_</text>
</g>
<!-- Node15&#45;&gt;Node10 -->
<g id="edge11" class="edge"><title>Node15&#45;&gt;Node10</title>
<path fill="none" stroke="#9a32cd" stroke-dasharray="5,2" d="M272.486,-84.3245C312.315,-95.3826 373.56,-112.387 411.628,-122.957"/>
<polygon fill="#9a32cd" stroke="#9a32cd" points="273.174,-80.8829 262.602,-81.58 271.301,-87.6278 273.174,-80.8829"/>
<text text-anchor="middle" x="342.5" y="-111.5" font-family="Helvetica,sans-Serif" font-size="10.00"> msg_</text>
</g>
<!-- Node16 -->
<g id="node11" class="node"><title>Node16</title>
<g id="a_node11"><a xlink:title="STL class. ">
<polygon fill="white" stroke="#bfbfbf" points="15,-58.5 15,-88.5 110,-88.5 110,-58.5 15,-58.5"/>
<text text-anchor="start" x="23" y="-76.5" font-family="Helvetica,sans-Serif" font-size="10.00">std::basic_string&lt;</text>
<text text-anchor="middle" x="62.5" y="-65.5" font-family="Helvetica,sans-Serif" font-size="10.00"> char &gt;</text>
</a>
</g>
</g>
<!-- Node16&#45;&gt;Node15 -->
<g id="edge12" class="edge"><title>Node16&#45;&gt;Node15</title>
<path fill="none" stroke="midnightblue" d="M120.595,-73.5C148.087,-73.5 179.879,-73.5 202.357,-73.5"/>
<polygon fill="midnightblue" stroke="midnightblue" points="120.297,-70.0001 110.297,-73.5 120.297,-77.0001 120.297,-70.0001"/>
</g>
</g>
</svg>
        <g id="navigator" transform="translate(0 0)" fill="#404254">
                <rect fill="#f2f5e9" fill-opacity="0.5" stroke="#606060" stroke-width=".5" x="0" y="0" width="60" height="60"/>
                <use id="zoomplus" xlink:href="#zoomPlus" x="17" y="9" onmousedown="handleZoom(evt,'in')"/>
                <use id="zoomminus" xlink:href="#zoomMin" x="42" y="9" onmousedown="handleZoom(evt,'out')"/>
                <use id="reset" xlink:href="#resetDef" x="30" y="36" onmousedown="handleReset()"/>
                <g id="arrowUp" xlink:href="#dirArrow" transform="translate(30 24)" onmousedown="handlePan(0,-1)">
                  <use xlink:href="#rim" fill="#404040">
                        <set attributeName="fill" to="#808080" begin="arrowUp.mouseover" end="arrowUp.mouseout"/>
                  </use>
                  <path fill="none" stroke="white" stroke-width="1.5" d="M0,-3.0v7 M-2.5,-0.5L0,-3.0L2.5,-0.5"/>
                </g>
                <g id="arrowRight" xlink:href="#dirArrow" transform="rotate(90) translate(36 -43)" onmousedown="handlePan(1,0)">
                  <use xlink:href="#rim" fill="#404040">
                        <set attributeName="fill" to="#808080" begin="arrowRight.mouseover" end="arrowRight.mouseout"/>
                  </use>
                  <path fill="none" stroke="white" stroke-width="1.5" d="M0,-3.0v7 M-2.5,-0.5L0,-3.0L2.5,-0.5"/>
                </g>
                <g id="arrowDown" xlink:href="#dirArrow" transform="rotate(180) translate(-30 -48)" onmousedown="handlePan(0,1)">
                  <use xlink:href="#rim" fill="#404040">
                        <set attributeName="fill" to="#808080" begin="arrowDown.mouseover" end="arrowDown.mouseout"/>
                  </use>
                  <path fill="none" stroke="white" stroke-width="1.5" d="M0,-3.0v7 M-2.5,-0.5L0,-3.0L2.5,-0.5"/>
                </g>
                <g id="arrowLeft" xlink:href="#dirArrow" transform="rotate(270) translate(-36 17)" onmousedown="handlePan(-1,0)">
                  <use xlink:href="#rim" fill="#404040">
                        <set attributeName="fill" to="#808080" begin="arrowLeft.mouseover" end="arrowLeft.mouseout"/>
                  </use>
                  <path fill="none" stroke="white" stroke-width="1.5" d="M0,-3.0v7 M-2.5,-0.5L0,-3.0L2.5,-0.5"/>
                </g>
        </g>
        <svg viewBox="0 0 15 15" width="100%" height="30px" preserveAspectRatio="xMaxYMin meet">
         <g id="arrow_out" transform="scale(0.3 0.3)">
          <a xlink:href="classLeosac_1_1Audit_1_1CredentialEvent__coll__graph_org.svg" target="_base">
           <rect id="button" ry="5" rx="5" y="6" x="6" height="38" width="38"
                fill="#f2f5e9" fill-opacity="0.5" stroke="#606060" stroke-width="1.0"/>
           <path id="arrow"
             d="M 11.500037,31.436501 C 11.940474,20.09759 22.043105,11.32322 32.158766,21.979434 L 37.068811,17.246167 C 37.068811,17.246167 37.088388,32 37.088388,32 L 22.160133,31.978069 C 22.160133,31.978069 26.997745,27.140456 26.997745,27.140456 C 18.528582,18.264221 13.291696,25.230495 11.500037,31.436501 z"
             style="fill:#404040;"/>
          </a>
         </g>
        </svg>
</svg>
