<?xml version="1.0" encoding="UTF-8" standalone="no"?>
<!DOCTYPE svg PUBLIC "-//W3C//DTD SVG 1.1//EN"
 "http://www.w3.org/Graphics/SVG/1.1/DTD/svg11.dtd">
<!-- Generated by graphviz version 2.38.0 (20140413.2041)
 -->
<!-- Title: Leosac::SecurityContext::ActionParam Pages: 1 -->
<svg width="543pt" height="431pt"
 viewBox="0.00 0.00 543.00 431.00" xmlns="http://www.w3.org/2000/svg" xmlns:xlink="http://www.w3.org/1999/xlink">
<g id="graph0" class="graph" transform="scale(1 1) rotate(0) translate(4 427)">
<title>Leosac::SecurityContext::ActionParam</title>
<polygon fill="white" stroke="none" points="-4,4 -4,-427 539,-427 539,4 -4,4"/>
<!-- Node1 -->
<g id="node1" class="node"><title>Node1</title>
<polygon fill="#bfbfbf" stroke="black" points="410,-196.5 410,-226.5 535,-226.5 535,-196.5 410,-196.5"/>
<text text-anchor="start" x="418" y="-214.5" font-family="Helvetica,sans-Serif" font-size="10.00">Leosac::SecurityContext</text>
<text text-anchor="middle" x="472.5" y="-203.5" font-family="Helvetica,sans-Serif" font-size="10.00">::ActionParam</text>
</g>
<!-- Node2 -->
<g id="node2" class="node"><title>Node2</title>
<g id="a_node2"><a xlink:href="../../d7/de9/structLeosac_1_1SecurityContext_1_1DoorActionParam.html" target="_top" xlink:title="Leosac::SecurityContext\l::DoorActionParam">
<polygon fill="white" stroke="black" points="174.5,-392.5 174.5,-422.5 299.5,-422.5 299.5,-392.5 174.5,-392.5"/>
<text text-anchor="start" x="182.5" y="-410.5" font-family="Helvetica,sans-Serif" font-size="10.00">Leosac::SecurityContext</text>
<text text-anchor="middle" x="237" y="-399.5" font-family="Helvetica,sans-Serif" font-size="10.00">::DoorActionParam</text>
</a>
</g>
</g>
<!-- Node2&#45;&gt;Node1 -->
<g id="edge1" class="edge"><title>Node2&#45;&gt;Node1</title>
<path fill="none" stroke="#9a32cd" stroke-dasharray="5,2" d="M308.008,-389.129C336.702,-378.845 368.596,-363.535 392,-341.5 428.404,-307.225 454.387,-252.701 465.495,-226.51"/>
<polygon fill="#9a32cd" stroke="#9a32cd" points="306.735,-385.866 298.416,-392.427 309.011,-392.485 306.735,-385.866"/>
<text text-anchor="middle" x="361.5" y="-380.5" font-family="Helvetica,sans-Serif" font-size="10.00"> door</text>
</g>
<!-- Node3 -->
<g id="node3" class="node"><title>Node3</title>
<g id="a_node3"><a xlink:href="../../de/df1/structLeosac_1_1SecurityContext_1_1MembershipActionParam.html" target="_top" xlink:title="Leosac::SecurityContext\l::MembershipActionParam">
<polygon fill="white" stroke="black" points="171,-343.5 171,-373.5 303,-373.5 303,-343.5 171,-343.5"/>
<text text-anchor="start" x="179" y="-361.5" font-family="Helvetica,sans-Serif" font-size="10.00">Leosac::SecurityContext</text>
<text text-anchor="middle" x="237" y="-350.5" font-family="Helvetica,sans-Serif" font-size="10.00">::MembershipActionParam</text>
</a>
</g>
</g>
<!-- Node3&#45;&gt;Node1 -->
<g id="edge2" class="edge"><title>Node3&#45;&gt;Node1</title>
<path fill="none" stroke="#9a32cd" stroke-dasharray="5,2" d="M299.05,-339.924C303.805,-338.185 308.503,-336.371 313,-334.5 349.524,-319.306 360.266,-317.118 392,-293.5 418.882,-273.493 444.918,-244.166 459.51,-226.543"/>
<polygon fill="#9a32cd" stroke="#9a32cd" points="297.52,-336.752 289.253,-343.377 299.848,-343.353 297.52,-336.752"/>
<text text-anchor="middle" x="361.5" y="-329.5" font-family="Helvetica,sans-Serif" font-size="10.00"> membership</text>
</g>
<!-- Node4 -->
<g id="node4" class="node"><title>Node4</title>
<g id="a_node4"><a xlink:href="../../d4/d54/structLeosac_1_1SecurityContext_1_1HardwareDeviceActionParam.html" target="_top" xlink:title="Leosac::SecurityContext\l::HardwareDeviceActionParam">
<polygon fill="white" stroke="black" points="161,-294.5 161,-324.5 313,-324.5 313,-294.5 161,-294.5"/>
<text text-anchor="start" x="169" y="-312.5" font-family="Helvetica,sans-Serif" font-size="10.00">Leosac::SecurityContext</text>
<text text-anchor="middle" x="237" y="-301.5" font-family="Helvetica,sans-Serif" font-size="10.00">::HardwareDeviceActionParam</text>
</a>
</g>
</g>
<!-- Node4&#45;&gt;Node1 -->
<g id="edge3" class="edge"><title>Node4&#45;&gt;Node1</title>
<path fill="none" stroke="#9a32cd" stroke-dasharray="5,2" d="M293.612,-291.17C300.157,-288.952 306.733,-286.694 313,-284.5 348.301,-272.14 357.982,-271.046 392,-255.5 410.796,-246.911 431.173,-235.59 446.591,-226.583"/>
<polygon fill="#9a32cd" stroke="#9a32cd" points="292.443,-287.871 284.084,-294.381 294.678,-294.504 292.443,-287.871"/>
<text text-anchor="middle" x="361.5" y="-281.5" font-family="Helvetica,sans-Serif" font-size="10.00"> device</text>
</g>
<!-- Node5 -->
<g id="node5" class="node"><title>Node5</title>
<g id="a_node5"><a xlink:href="../../d7/d46/classLeosac_1_1UUID.html" target="_top" xlink:title="Thin wrapper around boost::uuids::uuid. ">
<polygon fill="white" stroke="black" points="0,-300 0,-319 80,-319 80,-300 0,-300"/>
<text text-anchor="middle" x="40" y="-307" font-family="Helvetica,sans-Serif" font-size="10.00">Leosac::UUID</text>
</a>
</g>
</g>
<!-- Node5&#45;&gt;Node4 -->
<g id="edge4" class="edge"><title>Node5&#45;&gt;Node4</title>
<path fill="none" stroke="#9a32cd" stroke-dasharray="5,2" d="M90.5572,-309.5C111.84,-309.5 137.18,-309.5 160.699,-309.5"/>
<polygon fill="#9a32cd" stroke="#9a32cd" points="90.4612,-306 80.4612,-309.5 90.4611,-313 90.4612,-306"/>
<text text-anchor="middle" x="120.5" y="-312.5" font-family="Helvetica,sans-Serif" font-size="10.00"> device_id</text>
</g>
<!-- Node6 -->
<g id="node6" class="node"><title>Node6</title>
<g id="a_node6"><a xlink:href="../../d9/dbb/structLeosac_1_1SecurityContext_1_1UserActionParam.html" target="_top" xlink:title="Leosac::SecurityContext\l::UserActionParam">
<polygon fill="white" stroke="black" points="174.5,-245.5 174.5,-275.5 299.5,-275.5 299.5,-245.5 174.5,-245.5"/>
<text text-anchor="start" x="182.5" y="-263.5" font-family="Helvetica,sans-Serif" font-size="10.00">Leosac::SecurityContext</text>
<text text-anchor="middle" x="237" y="-252.5" font-family="Helvetica,sans-Serif" font-size="10.00">::UserActionParam</text>
</a>
</g>
</g>
<!-- Node6&#45;&gt;Node1 -->
<g id="edge5" class="edge"><title>Node6&#45;&gt;Node1</title>
<path fill="none" stroke="#9a32cd" stroke-dasharray="5,2" d="M309.847,-245.423C341.861,-238.705 379.189,-230.871 409.905,-224.426"/>
<polygon fill="#9a32cd" stroke="#9a32cd" points="308.723,-242.082 299.655,-247.562 310.16,-248.933 308.723,-242.082"/>
<text text-anchor="middle" x="361.5" y="-243.5" font-family="Helvetica,sans-Serif" font-size="10.00"> user</text>
</g>
<!-- Node7 -->
<g id="node7" class="node"><title>Node7</title>
<g id="a_node7"><a xlink:href="../../d4/d69/structLeosac_1_1SecurityContext_1_1CredentialActionParam.html" target="_top" xlink:title="Leosac::SecurityContext\l::CredentialActionParam">
<polygon fill="white" stroke="black" points="174.5,-196.5 174.5,-226.5 299.5,-226.5 299.5,-196.5 174.5,-196.5"/>
<text text-anchor="start" x="182.5" y="-214.5" font-family="Helvetica,sans-Serif" font-size="10.00">Leosac::SecurityContext</text>
<text text-anchor="middle" x="237" y="-203.5" font-family="Helvetica,sans-Serif" font-size="10.00">::CredentialActionParam</text>
</a>
</g>
</g>
<!-- Node7&#45;&gt;Node1 -->
<g id="edge6" class="edge"><title>Node7&#45;&gt;Node1</title>
<path fill="none" stroke="#9a32cd" stroke-dasharray="5,2" d="M309.847,-211.5C341.861,-211.5 379.189,-211.5 409.905,-211.5"/>
<polygon fill="#9a32cd" stroke="#9a32cd" points="309.655,-208 299.655,-211.5 309.655,-215 309.655,-208"/>
<text text-anchor="middle" x="361.5" y="-214.5" font-family="Helvetica,sans-Serif" font-size="10.00"> cred</text>
</g>
<!-- Node8 -->
<g id="node8" class="node"><title>Node8</title>
<g id="a_node8"><a xlink:href="../../d0/dd0/structLeosac_1_1SecurityContext_1_1ScheduleActionParam.html" target="_top" xlink:title="Leosac::SecurityContext\l::ScheduleActionParam">
<polygon fill="white" stroke="black" points="174.5,-147.5 174.5,-177.5 299.5,-177.5 299.5,-147.5 174.5,-147.5"/>
<text text-anchor="start" x="182.5" y="-165.5" font-family="Helvetica,sans-Serif" font-size="10.00">Leosac::SecurityContext</text>
<text text-anchor="middle" x="237" y="-154.5" font-family="Helvetica,sans-Serif" font-size="10.00">::ScheduleActionParam</text>
</a>
</g>
</g>
<!-- Node8&#45;&gt;Node1 -->
<g id="edge7" class="edge"><title>Node8&#45;&gt;Node1</title>
<path fill="none" stroke="#9a32cd" stroke-dasharray="5,2" d="M309.847,-177.577C341.861,-184.295 379.189,-192.129 409.905,-198.574"/>
<polygon fill="#9a32cd" stroke="#9a32cd" points="310.16,-174.067 299.655,-175.438 308.723,-180.918 310.16,-174.067"/>
<text text-anchor="middle" x="361.5" y="-197.5" font-family="Helvetica,sans-Serif" font-size="10.00"> sched</text>
</g>
<!-- Node9 -->
<g id="node9" class="node"><title>Node9</title>
<g id="a_node9"><a xlink:href="../../d2/d50/structLeosac_1_1SecurityContext_1_1GroupActionParam.html" target="_top" xlink:title="Leosac::SecurityContext\l::GroupActionParam">
<polygon fill="white" stroke="black" points="174.5,-98.5 174.5,-128.5 299.5,-128.5 299.5,-98.5 174.5,-98.5"/>
<text text-anchor="start" x="182.5" y="-116.5" font-family="Helvetica,sans-Serif" font-size="10.00">Leosac::SecurityContext</text>
<text text-anchor="middle" x="237" y="-105.5" font-family="Helvetica,sans-Serif" font-size="10.00">::GroupActionParam</text>
</a>
</g>
</g>
<!-- Node9&#45;&gt;Node1 -->
<g id="edge8" class="edge"><title>Node9&#45;&gt;Node1</title>
<path fill="none" stroke="#9a32cd" stroke-dasharray="5,2" d="M296.151,-131.701C301.861,-133.61 307.554,-135.562 313,-137.5 348.535,-150.143 357.793,-152.61 392,-168.5 410.216,-176.962 430.091,-187.712 445.412,-196.346"/>
<polygon fill="#9a32cd" stroke="#9a32cd" points="297.16,-128.348 286.567,-128.539 294.967,-134.996 297.16,-128.348"/>
<text text-anchor="middle" x="361.5" y="-171.5" font-family="Helvetica,sans-Serif" font-size="10.00"> group</text>
</g>
<!-- Node10 -->
<g id="node10" class="node"><title>Node10</title>
<g id="a_node10"><a xlink:href="../../d0/d5c/structLeosac_1_1SecurityContext_1_1AccessPointActionParam.html" target="_top" xlink:title="Leosac::SecurityContext\l::AccessPointActionParam">
<polygon fill="white" stroke="black" points="170,-49.5 170,-79.5 304,-79.5 304,-49.5 170,-49.5"/>
<text text-anchor="start" x="178" y="-67.5" font-family="Helvetica,sans-Serif" font-size="10.00">Leosac::SecurityContext</text>
<text text-anchor="middle" x="237" y="-56.5" font-family="Helvetica,sans-Serif" font-size="10.00">::AccessPointActionParam</text>
</a>
</g>
</g>
<!-- Node10&#45;&gt;Node1 -->
<g id="edge9" class="edge"><title>Node10&#45;&gt;Node1</title>
<path fill="none" stroke="#9a32cd" stroke-dasharray="5,2" d="M299.05,-83.0764C303.805,-84.8146 308.503,-86.6294 313,-88.5 349.524,-103.694 360.266,-105.882 392,-129.5 418.882,-149.507 444.918,-178.834 459.51,-196.457"/>
<polygon fill="#9a32cd" stroke="#9a32cd" points="299.848,-79.6466 289.253,-79.6226 297.52,-86.2484 299.848,-79.6466"/>
<text text-anchor="middle" x="361.5" y="-132.5" font-family="Helvetica,sans-Serif" font-size="10.00"> access_point</text>
</g>
<!-- Node11 -->
<g id="node11" class="node"><title>Node11</title>
<g id="a_node11"><a xlink:href="../../da/dd4/structLeosac_1_1SecurityContext_1_1ZoneActionParam.html" target="_top" xlink:title="Leosac::SecurityContext\l::ZoneActionParam">
<polygon fill="white" stroke="black" points="174.5,-0.5 174.5,-30.5 299.5,-30.5 299.5,-0.5 174.5,-0.5"/>
<text text-anchor="start" x="182.5" y="-18.5" font-family="Helvetica,sans-Serif" font-size="10.00">Leosac::SecurityContext</text>
<text text-anchor="middle" x="237" y="-7.5" font-family="Helvetica,sans-Serif" font-size="10.00">::ZoneActionParam</text>
</a>
</g>
</g>
<!-- Node11&#45;&gt;Node1 -->
<g id="edge10" class="edge"><title>Node11&#45;&gt;Node1</title>
<path fill="none" stroke="#9a32cd" stroke-dasharray="5,2" d="M308.008,-33.8706C336.702,-44.1552 368.596,-59.4649 392,-81.5 428.404,-115.775 454.387,-170.299 465.495,-196.49"/>
<polygon fill="#9a32cd" stroke="#9a32cd" points="309.011,-30.5145 298.416,-30.573 306.735,-37.1342 309.011,-30.5145"/>
<text text-anchor="middle" x="361.5" y="-84.5" font-family="Helvetica,sans-Serif" font-size="10.00"> zone</text>
</g>
</g>
</svg>
