<?xml version="1.0" encoding="UTF-8" standalone="no"?>
<!DOCTYPE svg PUBLIC "-//W3C//DTD SVG 1.1//EN"
 "http://www.w3.org/Graphics/SVG/1.1/DTD/svg11.dtd">
<!-- Generated by graphviz version 2.38.0 (20140413.2041)
 -->
<!-- Title: src/tools/db/Savepoint.cpp Pages: 1 -->
<svg width="481pt" height="140pt"
 viewBox="0.00 0.00 481.00 140.00" xmlns="http://www.w3.org/2000/svg" xmlns:xlink="http://www.w3.org/1999/xlink">
<g id="graph0" class="graph" transform="scale(1 1) rotate(0) translate(4 136)">
<title>src/tools/db/Savepoint.cpp</title>
<polygon fill="white" stroke="none" points="-4,4 -4,-136 477,-136 477,4 -4,4"/>
<!-- Node0 -->
<g id="node1" class="node"><title>Node0</title>
<polygon fill="#bfbfbf" stroke="black" points="144.5,-112.5 144.5,-131.5 277.5,-131.5 277.5,-112.5 144.5,-112.5"/>
<text text-anchor="middle" x="211" y="-119.5" font-family="Helvetica,sans-Serif" font-size="10.00">src/tools/db/Savepoint.cpp</text>
</g>
<!-- Node1 -->
<g id="node2" class="node"><title>Node1</title>
<g id="a_node2"><a xlink:href="../../da/dda/Savepoint_8hpp.html" target="_top" xlink:title="Savepoint.hpp">
<polygon fill="white" stroke="black" points="7.5,-56.5 7.5,-75.5 86.5,-75.5 86.5,-56.5 7.5,-56.5"/>
<text text-anchor="middle" x="47" y="-63.5" font-family="Helvetica,sans-Serif" font-size="10.00">Savepoint.hpp</text>
</a>
</g>
</g>
<!-- Node0&#45;&gt;Node1 -->
<g id="edge1" class="edge"><title>Node0&#45;&gt;Node1</title>
<path fill="none" stroke="midnightblue" d="M185.014,-112.444C157.304,-103.32 113.248,-88.8133 82.3843,-78.6509"/>
<polygon fill="midnightblue" stroke="midnightblue" points="83.4577,-75.3196 72.8647,-75.5164 81.2684,-81.9684 83.4577,-75.3196"/>
</g>
<!-- Node3 -->
<g id="node4" class="node"><title>Node3</title>
<g id="a_node4"><a xlink:href="../../d8/d1f/GenGuid_8h.html" target="_top" xlink:title="tools/GenGuid.h">
<polygon fill="white" stroke="black" points="104.5,-56.5 104.5,-75.5 191.5,-75.5 191.5,-56.5 104.5,-56.5"/>
<text text-anchor="middle" x="148" y="-63.5" font-family="Helvetica,sans-Serif" font-size="10.00">tools/GenGuid.h</text>
</a>
</g>
</g>
<!-- Node0&#45;&gt;Node3 -->
<g id="edge3" class="edge"><title>Node0&#45;&gt;Node3</title>
<path fill="none" stroke="midnightblue" d="M200.878,-112.324C191.474,-104.263 177.256,-92.0765 165.931,-82.3695"/>
<polygon fill="midnightblue" stroke="midnightblue" points="168.177,-79.6844 158.306,-75.8339 163.621,-84.9993 168.177,-79.6844"/>
</g>
<!-- Node5 -->
<g id="node6" class="node"><title>Node5</title>
<polygon fill="white" stroke="#bfbfbf" points="209.5,-56.5 209.5,-75.5 338.5,-75.5 338.5,-56.5 209.5,-56.5"/>
<text text-anchor="middle" x="274" y="-63.5" font-family="Helvetica,sans-Serif" font-size="10.00">boost/algorithm/string.hpp</text>
</g>
<!-- Node0&#45;&gt;Node5 -->
<g id="edge5" class="edge"><title>Node0&#45;&gt;Node5</title>
<path fill="none" stroke="midnightblue" d="M221.122,-112.324C230.526,-104.263 244.744,-92.0765 256.069,-82.3695"/>
<polygon fill="midnightblue" stroke="midnightblue" points="258.379,-84.9993 263.694,-75.8339 253.823,-79.6844 258.379,-84.9993"/>
</g>
<!-- Node6 -->
<g id="node7" class="node"><title>Node6</title>
<polygon fill="white" stroke="#bfbfbf" points="357,-56.5 357,-75.5 473,-75.5 473,-56.5 357,-56.5"/>
<text text-anchor="middle" x="415" y="-63.5" font-family="Helvetica,sans-Serif" font-size="10.00">spdlog/details/format.h</text>
</g>
<!-- Node0&#45;&gt;Node6 -->
<g id="edge6" class="edge"><title>Node0&#45;&gt;Node6</title>
<path fill="none" stroke="midnightblue" d="M243.324,-112.444C278.389,-103.162 334.498,-88.3093 372.965,-78.127"/>
<polygon fill="midnightblue" stroke="midnightblue" points="374.055,-81.4589 382.827,-75.5164 372.264,-74.692 374.055,-81.4589"/>
</g>
<!-- Node2 -->
<g id="node3" class="node"><title>Node2</title>
<polygon fill="white" stroke="#bfbfbf" points="0,-0.5 0,-19.5 94,-19.5 94,-0.5 0,-0.5"/>
<text text-anchor="middle" x="47" y="-7.5" font-family="Helvetica,sans-Serif" font-size="10.00">odb/database.hxx</text>
</g>
<!-- Node1&#45;&gt;Node2 -->
<g id="edge2" class="edge"><title>Node1&#45;&gt;Node2</title>
<path fill="none" stroke="midnightblue" d="M47,-56.083C47,-49.0059 47,-38.8611 47,-29.9865"/>
<polygon fill="midnightblue" stroke="midnightblue" points="50.5001,-29.751 47,-19.7511 43.5001,-29.7511 50.5001,-29.751"/>
</g>
<!-- Node4 -->
<g id="node5" class="node"><title>Node4</title>
<polygon fill="white" stroke="#bfbfbf" points="127.5,-0.5 127.5,-19.5 168.5,-19.5 168.5,-0.5 127.5,-0.5"/>
<text text-anchor="middle" x="148" y="-7.5" font-family="Helvetica,sans-Serif" font-size="10.00">string</text>
</g>
<!-- Node3&#45;&gt;Node4 -->
<g id="edge4" class="edge"><title>Node3&#45;&gt;Node4</title>
<path fill="none" stroke="midnightblue" d="M148,-56.083C148,-49.0059 148,-38.8611 148,-29.9865"/>
<polygon fill="midnightblue" stroke="midnightblue" points="151.5,-29.751 148,-19.7511 144.5,-29.7511 151.5,-29.751"/>
</g>
</g>
</svg>
