<?xml version="1.0" encoding="UTF-8" standalone="no"?>
<!DOCTYPE svg PUBLIC "-//W3C//DTD SVG 1.1//EN"
 "http://www.w3.org/Graphics/SVG/1.1/DTD/svg11.dtd">
<!-- Generated by graphviz version 2.38.0 (20140413.2041)
 -->
<!-- Title: src/hardware/facades/FLED.hpp Pages: 1 -->
<!--zoomable 318 -->
<svg id="main" version="1.1" xmlns="http://www.w3.org/2000/svg" xmlns:xlink="http://www.w3.org/1999/xlink" xml:space="preserve" onload="init(evt)">
<style type="text/css"><![CDATA[
.edge:hover path { stroke: red; }
.edge:hover polygon { stroke: red; fill: red; }
]]></style>
<script type="text/javascript"><![CDATA[
var edges = document.getElementsByTagName('g');
if (edges && edges.length) {
  for (var i=0;i<edges.length;i++) {
    if (edges[i].id.substr(0,4)=='edge') {
      edges[i].setAttribute('class','edge');
    }
  }
}
]]></script>
        <defs>
                <circle id="rim" cx="0" cy="0" r="7"/>
                <circle id="rim2" cx="0" cy="0" r="3.5"/>
                <g id="zoomPlus">
                        <use xlink:href="#rim" fill="#404040">
                                <set attributeName="fill" to="#808080" begin="zoomplus.mouseover" end="zoomplus.mouseout"/>
                        </use>
                        <path d="M-4,0h8M0,-4v8" fill="none" stroke="white" stroke-width="1.5" pointer-events="none"/>
                </g>
                <g id="zoomMin">
                        <use xlink:href="#rim" fill="#404040">
                                <set attributeName="fill" to="#808080" begin="zoomminus.mouseover" end="zoomminus.mouseout"/>
                        </use>
                        <path d="M-4,0h8" fill="none" stroke="white" stroke-width="1.5" pointer-events="none"/>
                </g>
                <g id="dirArrow">
                        <path fill="none" stroke="white" stroke-width="1.5" d="M0,-3.0v7 M-2.5,-0.5L0,-3.0L2.5,-0.5"/>
                </g>
               <g id="resetDef">
                       <use xlink:href="#rim2" fill="#404040">
                               <set attributeName="fill" to="#808080" begin="reset.mouseover" end="reset.mouseout"/>
                       </use>
               </g>
        </defs>

<script type="text/javascript">
var viewWidth = 1993;
var viewHeight = 318;
var sectionId = 'dynsection-1';
</script>
<script xlink:href="../../svgpan.js"/>
<svg id="graph" class="graph">
<g id="viewport">
<title>src/hardware/facades/FLED.hpp</title>
<polygon fill="white" stroke="none" points="-4,4 -4,-314 1988.5,-314 1988.5,4 -4,4"/>
<!-- Node5 -->
<g id="node1" class="node"><title>Node5</title>
<polygon fill="#bfbfbf" stroke="black" points="1283.5,-279.5 1283.5,-309.5 1393.5,-309.5 1393.5,-279.5 1283.5,-279.5"/>
<text text-anchor="start" x="1291.5" y="-297.5" font-family="Helvetica,sans-Serif" font-size="10.00">src/hardware/facades</text>
<text text-anchor="middle" x="1338.5" y="-286.5" font-family="Helvetica,sans-Serif" font-size="10.00">/FLED.hpp</text>
</g>
<!-- Node6 -->
<g id="node2" class="node"><title>Node6</title>
<g id="a_node2"><a xlink:href="../../dd/d5a/FBuzzer_8hpp.html" target="_top" xlink:title="src/hardware/facades\l/FBuzzer.hpp">
<polygon fill="white" stroke="black" points="789.5,-212.5 789.5,-242.5 899.5,-242.5 899.5,-212.5 789.5,-212.5"/>
<text text-anchor="start" x="797.5" y="-230.5" font-family="Helvetica,sans-Serif" font-size="10.00">src/hardware/facades</text>
<text text-anchor="middle" x="844.5" y="-219.5" font-family="Helvetica,sans-Serif" font-size="10.00">/FBuzzer.hpp</text>
</a>
</g>
</g>
<!-- Node5&#45;&gt;Node6 -->
<g id="edge1" class="edge"><title>Node5&#45;&gt;Node6</title>
<path fill="none" stroke="midnightblue" d="M1273.19,-284.906C1175.12,-272.002 991.562,-247.85 899.752,-235.77"/>
<polygon fill="midnightblue" stroke="midnightblue" points="1272.9,-288.398 1283.27,-286.233 1273.81,-281.458 1272.9,-288.398"/>
</g>
<!-- Node7 -->
<g id="node3" class="node"><title>Node7</title>
<g id="a_node3"><a xlink:href="../../de/d9a/WiegandReaderImpl_8hpp.html" target="_top" xlink:title="src/modules/wiegand\l/WiegandReaderImpl.hpp">
<polygon fill="white" stroke="black" points="716,-145.5 716,-175.5 843,-175.5 843,-145.5 716,-145.5"/>
<text text-anchor="start" x="724" y="-163.5" font-family="Helvetica,sans-Serif" font-size="10.00">src/modules/wiegand</text>
<text text-anchor="middle" x="779.5" y="-152.5" font-family="Helvetica,sans-Serif" font-size="10.00">/WiegandReaderImpl.hpp</text>
</a>
</g>
</g>
<!-- Node5&#45;&gt;Node7 -->
<g id="edge26" class="edge"><title>Node5&#45;&gt;Node7</title>
<path fill="none" stroke="midnightblue" d="M1273.44,-278.138C1163.92,-252.275 944.364,-200.43 838.823,-175.508"/>
<polygon fill="midnightblue" stroke="midnightblue" points="1272.83,-281.59 1283.37,-280.482 1274.44,-274.778 1272.83,-281.59"/>
</g>
<!-- Node17 -->
<g id="node13" class="node"><title>Node17</title>
<g id="a_node13"><a xlink:href="../../d1/d45/FLED_8cpp.html" target="_top" xlink:title="src/hardware/facades\l/FLED.cpp">
<polygon fill="white" stroke="black" points="1151.5,-212.5 1151.5,-242.5 1261.5,-242.5 1261.5,-212.5 1151.5,-212.5"/>
<text text-anchor="start" x="1159.5" y="-230.5" font-family="Helvetica,sans-Serif" font-size="10.00">src/hardware/facades</text>
<text text-anchor="middle" x="1206.5" y="-219.5" font-family="Helvetica,sans-Serif" font-size="10.00">/FLED.cpp</text>
</a>
</g>
</g>
<!-- Node5&#45;&gt;Node17 -->
<g id="edge12" class="edge"><title>Node5&#45;&gt;Node17</title>
<path fill="none" stroke="midnightblue" d="M1300.63,-274.853C1279.76,-264.576 1254.27,-252.025 1235.09,-242.577"/>
<polygon fill="midnightblue" stroke="midnightblue" points="1299.34,-278.118 1309.86,-279.396 1302.43,-271.838 1299.34,-278.118"/>
</g>
<!-- Node18 -->
<g id="node14" class="node"><title>Node18</title>
<g id="a_node14"><a xlink:href="../../d7/d6e/LedBuzzerSM_8hpp.html" target="_top" xlink:title="src/modules/led&#45;buzzer\l/LedBuzzerSM.hpp">
<polygon fill="white" stroke="black" points="1279.5,-212.5 1279.5,-242.5 1397.5,-242.5 1397.5,-212.5 1279.5,-212.5"/>
<text text-anchor="start" x="1287.5" y="-230.5" font-family="Helvetica,sans-Serif" font-size="10.00">src/modules/led&#45;buzzer</text>
<text text-anchor="middle" x="1338.5" y="-219.5" font-family="Helvetica,sans-Serif" font-size="10.00">/LedBuzzerSM.hpp</text>
</a>
</g>
</g>
<!-- Node5&#45;&gt;Node18 -->
<g id="edge13" class="edge"><title>Node5&#45;&gt;Node18</title>
<path fill="none" stroke="midnightblue" d="M1338.5,-269.108C1338.5,-260.154 1338.5,-250.323 1338.5,-242.577"/>
<polygon fill="midnightblue" stroke="midnightblue" points="1335,-269.396 1338.5,-279.396 1342,-269.396 1335,-269.396"/>
</g>
<!-- Node23 -->
<g id="node19" class="node"><title>Node23</title>
<g id="a_node19"><a xlink:href="../../d9/d21/Led_8cpp.html" target="_top" xlink:title="test/Led.cpp">
<polygon fill="white" stroke="black" points="1335,-6 1335,-25 1406,-25 1406,-6 1335,-6"/>
<text text-anchor="middle" x="1370.5" y="-13" font-family="Helvetica,sans-Serif" font-size="10.00">test/Led.cpp</text>
</a>
</g>
</g>
<!-- Node5&#45;&gt;Node23 -->
<g id="edge27" class="edge"><title>Node5&#45;&gt;Node23</title>
<path fill="none" stroke="midnightblue" d="M1377.4,-273.862C1388.91,-265.956 1400.13,-255.667 1406.5,-243 1441.65,-173.119 1430.34,-141.502 1406.5,-67 1401.18,-50.387 1388.18,-34.577 1379.35,-25.2064"/>
<polygon fill="midnightblue" stroke="midnightblue" points="1375.18,-271.125 1368.62,-279.442 1378.93,-277.034 1375.18,-271.125"/>
</g>
<!-- Node25 -->
<g id="node21" class="node"><title>Node25</title>
<g id="a_node21"><a xlink:href="../../d2/dc2/MonitorModule_8hpp.html" target="_top" xlink:title="src/modules/monitor\l/MonitorModule.hpp">
<polygon fill="white" stroke="black" points="1454,-212.5 1454,-242.5 1559,-242.5 1559,-212.5 1454,-212.5"/>
<text text-anchor="start" x="1462" y="-230.5" font-family="Helvetica,sans-Serif" font-size="10.00">src/modules/monitor</text>
<text text-anchor="middle" x="1506.5" y="-219.5" font-family="Helvetica,sans-Serif" font-size="10.00">/MonitorModule.hpp</text>
</a>
</g>
</g>
<!-- Node5&#45;&gt;Node25 -->
<g id="edge20" class="edge"><title>Node5&#45;&gt;Node25</title>
<path fill="none" stroke="midnightblue" d="M1384.55,-275.682C1411.5,-265.257 1445.04,-252.281 1470.12,-242.577"/>
<polygon fill="midnightblue" stroke="midnightblue" points="1383.02,-272.523 1374.95,-279.396 1385.54,-279.052 1383.02,-272.523"/>
</g>
<!-- Node28 -->
<g id="node24" class="node"><title>Node28</title>
<g id="a_node24"><a xlink:href="../../dc/d15/TestAndResetModule_8hpp.html" target="_top" xlink:title="src/modules/test&#45;and\l&#45;reset/TestAndResetModule.hpp">
<polygon fill="white" stroke="black" points="1675.5,-212.5 1675.5,-242.5 1833.5,-242.5 1833.5,-212.5 1675.5,-212.5"/>
<text text-anchor="start" x="1683.5" y="-230.5" font-family="Helvetica,sans-Serif" font-size="10.00">src/modules/test&#45;and</text>
<text text-anchor="middle" x="1754.5" y="-219.5" font-family="Helvetica,sans-Serif" font-size="10.00">&#45;reset/TestAndResetModule.hpp</text>
</a>
</g>
</g>
<!-- Node5&#45;&gt;Node28 -->
<g id="edge23" class="edge"><title>Node5&#45;&gt;Node28</title>
<path fill="none" stroke="midnightblue" d="M1403.79,-283.299C1477.21,-271.827 1596.44,-253.197 1675.17,-240.896"/>
<polygon fill="midnightblue" stroke="midnightblue" points="1403.08,-279.867 1393.74,-284.869 1404.16,-286.783 1403.08,-279.867"/>
</g>
<!-- Node6&#45;&gt;Node7 -->
<g id="edge2" class="edge"><title>Node6&#45;&gt;Node7</title>
<path fill="none" stroke="midnightblue" d="M823.311,-205.311C813.561,-195.561 802.259,-184.259 793.577,-175.577"/>
<polygon fill="midnightblue" stroke="midnightblue" points="820.85,-207.8 830.396,-212.396 825.8,-202.85 820.85,-207.8"/>
</g>
<!-- Node8 -->
<g id="node4" class="node"><title>Node8</title>
<g id="a_node4"><a xlink:href="../../d3/d15/Autodetect_8cpp.html" target="_top" xlink:title="src/modules/wiegand\l/strategies/Autodetect.cpp">
<polygon fill="white" stroke="black" points="0,-73 0,-103 131,-103 131,-73 0,-73"/>
<text text-anchor="start" x="8" y="-91" font-family="Helvetica,sans-Serif" font-size="10.00">src/modules/wiegand</text>
<text text-anchor="middle" x="65.5" y="-80" font-family="Helvetica,sans-Serif" font-size="10.00">/strategies/Autodetect.cpp</text>
</a>
</g>
</g>
<!-- Node7&#45;&gt;Node8 -->
<g id="edge3" class="edge"><title>Node7&#45;&gt;Node8</title>
<path fill="none" stroke="midnightblue" d="M705.738,-158.107C586.064,-154.859 342.523,-144.133 139.5,-109 130.583,-107.457 121.182,-105.322 112.183,-103.02"/>
<polygon fill="midnightblue" stroke="midnightblue" points="705.794,-161.61 715.882,-158.373 705.977,-154.612 705.794,-161.61"/>
</g>
<!-- Node9 -->
<g id="node5" class="node"><title>Node9</title>
<g id="a_node5"><a xlink:href="../../d2/d32/SimpleWiegandStrategy_8cpp.html" target="_top" xlink:title="src/modules/wiegand\l/strategies/SimpleWiegandStrategy.cpp">
<polygon fill="white" stroke="black" points="149,-73 149,-103 338,-103 338,-73 149,-73"/>
<text text-anchor="start" x="157" y="-91" font-family="Helvetica,sans-Serif" font-size="10.00">src/modules/wiegand</text>
<text text-anchor="middle" x="243.5" y="-80" font-family="Helvetica,sans-Serif" font-size="10.00">/strategies/SimpleWiegandStrategy.cpp</text>
</a>
</g>
</g>
<!-- Node7&#45;&gt;Node9 -->
<g id="edge4" class="edge"><title>Node7&#45;&gt;Node9</title>
<path fill="none" stroke="midnightblue" d="M705.78,-152.551C619.607,-144.042 472.816,-128.347 347.5,-109 336.143,-107.247 324.133,-105.157 312.465,-103.001"/>
<polygon fill="midnightblue" stroke="midnightblue" points="705.689,-156.058 715.983,-153.552 706.373,-149.092 705.689,-156.058"/>
</g>
<!-- Node10 -->
<g id="node6" class="node"><title>Node10</title>
<g id="a_node6"><a xlink:href="../../d5/d4a/WiegandCardAndPin_8cpp.html" target="_top" xlink:title="src/modules/wiegand\l/strategies/WiegandCardAnd\lPin.cpp">
<polygon fill="white" stroke="black" points="356.5,-67.5 356.5,-108.5 498.5,-108.5 498.5,-67.5 356.5,-67.5"/>
<text text-anchor="start" x="364.5" y="-96.5" font-family="Helvetica,sans-Serif" font-size="10.00">src/modules/wiegand</text>
<text text-anchor="start" x="364.5" y="-85.5" font-family="Helvetica,sans-Serif" font-size="10.00">/strategies/WiegandCardAnd</text>
<text text-anchor="middle" x="427.5" y="-74.5" font-family="Helvetica,sans-Serif" font-size="10.00">Pin.cpp</text>
</a>
</g>
</g>
<!-- Node7&#45;&gt;Node10 -->
<g id="edge5" class="edge"><title>Node7&#45;&gt;Node10</title>
<path fill="none" stroke="midnightblue" d="M705.818,-147.082C650.959,-137.53 574.324,-123.542 507.5,-109 504.562,-108.361 501.568,-107.692 498.547,-107.002"/>
<polygon fill="midnightblue" stroke="midnightblue" points="705.35,-150.553 715.801,-148.813 706.546,-143.656 705.35,-150.553"/>
</g>
<!-- Node11 -->
<g id="node7" class="node"><title>Node11</title>
<g id="a_node7"><a xlink:href="../../d7/da6/WiegandPinBuffered_8cpp.html" target="_top" xlink:title="src/modules/wiegand\l/strategies/WiegandPinBuffered.cpp">
<polygon fill="white" stroke="black" points="517,-73 517,-103 690,-103 690,-73 517,-73"/>
<text text-anchor="start" x="525" y="-91" font-family="Helvetica,sans-Serif" font-size="10.00">src/modules/wiegand</text>
<text text-anchor="middle" x="603.5" y="-80" font-family="Helvetica,sans-Serif" font-size="10.00">/strategies/WiegandPinBuffered.cpp</text>
</a>
</g>
</g>
<!-- Node7&#45;&gt;Node11 -->
<g id="edge6" class="edge"><title>Node7&#45;&gt;Node11</title>
<path fill="none" stroke="midnightblue" d="M734.95,-141.655C705.088,-129.693 666.315,-114.162 638.632,-103.073"/>
<polygon fill="midnightblue" stroke="midnightblue" points="733.722,-144.933 744.307,-145.403 736.325,-138.435 733.722,-144.933"/>
</g>
<!-- Node12 -->
<g id="node8" class="node"><title>Node12</title>
<g id="a_node8"><a xlink:href="../../dc/d9a/WiegandPinNBitsOnly_8cpp.html" target="_top" xlink:title="src/modules/wiegand\l/strategies/WiegandPinNBits\lOnly.cpp">
<polygon fill="white" stroke="black" points="708,-67.5 708,-108.5 851,-108.5 851,-67.5 708,-67.5"/>
<text text-anchor="start" x="716" y="-96.5" font-family="Helvetica,sans-Serif" font-size="10.00">src/modules/wiegand</text>
<text text-anchor="start" x="716" y="-85.5" font-family="Helvetica,sans-Serif" font-size="10.00">/strategies/WiegandPinNBits</text>
<text text-anchor="middle" x="779.5" y="-74.5" font-family="Helvetica,sans-Serif" font-size="10.00">Only.cpp</text>
</a>
</g>
</g>
<!-- Node7&#45;&gt;Node12 -->
<g id="edge7" class="edge"><title>Node7&#45;&gt;Node12</title>
<path fill="none" stroke="midnightblue" d="M779.5,-134.982C779.5,-126.347 779.5,-116.762 779.5,-108.588"/>
<polygon fill="midnightblue" stroke="midnightblue" points="776,-135.233 779.5,-145.233 783,-135.233 776,-135.233"/>
</g>
<!-- Node13 -->
<g id="node9" class="node"><title>Node13</title>
<g id="a_node9"><a xlink:href="../../d0/d6f/wiegand_8hpp.html" target="_top" xlink:title="src/modules/wiegand\l/wiegand.hpp">
<polygon fill="white" stroke="black" points="869,-73 869,-103 978,-103 978,-73 869,-73"/>
<text text-anchor="start" x="877" y="-91" font-family="Helvetica,sans-Serif" font-size="10.00">src/modules/wiegand</text>
<text text-anchor="middle" x="923.5" y="-80" font-family="Helvetica,sans-Serif" font-size="10.00">/wiegand.hpp</text>
</a>
</g>
</g>
<!-- Node7&#45;&gt;Node13 -->
<g id="edge8" class="edge"><title>Node7&#45;&gt;Node13</title>
<path fill="none" stroke="midnightblue" d="M817.547,-140.873C841.752,-129.023 872.596,-113.922 894.755,-103.073"/>
<polygon fill="midnightblue" stroke="midnightblue" points="815.737,-137.862 808.294,-145.403 818.815,-144.149 815.737,-137.862"/>
</g>
<!-- Node16 -->
<g id="node12" class="node"><title>Node16</title>
<g id="a_node12"><a xlink:href="../../d8/df0/WiegandReaderImpl_8cpp.html" target="_top" xlink:title="src/modules/wiegand\l/WiegandReaderImpl.cpp">
<polygon fill="white" stroke="black" points="996,-73 996,-103 1123,-103 1123,-73 996,-73"/>
<text text-anchor="start" x="1004" y="-91" font-family="Helvetica,sans-Serif" font-size="10.00">src/modules/wiegand</text>
<text text-anchor="middle" x="1059.5" y="-80" font-family="Helvetica,sans-Serif" font-size="10.00">/WiegandReaderImpl.cpp</text>
</a>
</g>
</g>
<!-- Node7&#45;&gt;Node16 -->
<g id="edge11" class="edge"><title>Node7&#45;&gt;Node16</title>
<path fill="none" stroke="midnightblue" d="M848.924,-143.078C889.171,-133.43 940.777,-120.838 986.5,-109 993.751,-107.123 1001.39,-105.09 1008.89,-103.064"/>
<polygon fill="midnightblue" stroke="midnightblue" points="847.858,-139.735 838.947,-145.466 849.487,-146.542 847.858,-139.735"/>
</g>
<!-- Node14 -->
<g id="node10" class="node"><title>Node14</title>
<g id="a_node10"><a xlink:href="../../d3/de8/wiegand_8cpp.html" target="_top" xlink:title="src/modules/wiegand\l/wiegand.cpp">
<polygon fill="white" stroke="black" points="748,-0.5 748,-30.5 857,-30.5 857,-0.5 748,-0.5"/>
<text text-anchor="start" x="756" y="-18.5" font-family="Helvetica,sans-Serif" font-size="10.00">src/modules/wiegand</text>
<text text-anchor="middle" x="802.5" y="-7.5" font-family="Helvetica,sans-Serif" font-size="10.00">/wiegand.cpp</text>
</a>
</g>
</g>
<!-- Node13&#45;&gt;Node14 -->
<g id="edge9" class="edge"><title>Node13&#45;&gt;Node14</title>
<path fill="none" stroke="midnightblue" d="M890.445,-67.7407C870.276,-55.9894 844.944,-41.2295 826.653,-30.5729"/>
<polygon fill="midnightblue" stroke="midnightblue" points="888.902,-70.8925 899.305,-72.9027 892.426,-64.8443 888.902,-70.8925"/>
</g>
<!-- Node15 -->
<g id="node11" class="node"><title>Node15</title>
<g id="a_node11"><a xlink:href="../../d4/d9b/WiegandReader_8cpp.html" target="_top" xlink:title="test/WiegandReader.cpp">
<polygon fill="white" stroke="black" points="875,-6 875,-25 1000,-25 1000,-6 875,-6"/>
<text text-anchor="middle" x="937.5" y="-13" font-family="Helvetica,sans-Serif" font-size="10.00">test/WiegandReader.cpp</text>
</a>
</g>
</g>
<!-- Node13&#45;&gt;Node15 -->
<g id="edge10" class="edge"><title>Node13&#45;&gt;Node15</title>
<path fill="none" stroke="midnightblue" d="M928.347,-62.5913C930.904,-49.7136 933.886,-34.6974 935.734,-25.3932"/>
<polygon fill="midnightblue" stroke="midnightblue" points="924.848,-62.243 926.333,-72.7333 931.714,-63.6065 924.848,-62.243"/>
</g>
<!-- Node19 -->
<g id="node15" class="node"><title>Node19</title>
<g id="a_node15"><a xlink:href="../../d1/d1e/LedBuzzerImpl_8hpp.html" target="_top" xlink:title="src/modules/led&#45;buzzer\l/LedBuzzerImpl.hpp">
<polygon fill="white" stroke="black" points="1279.5,-145.5 1279.5,-175.5 1397.5,-175.5 1397.5,-145.5 1279.5,-145.5"/>
<text text-anchor="start" x="1287.5" y="-163.5" font-family="Helvetica,sans-Serif" font-size="10.00">src/modules/led&#45;buzzer</text>
<text text-anchor="middle" x="1338.5" y="-152.5" font-family="Helvetica,sans-Serif" font-size="10.00">/LedBuzzerImpl.hpp</text>
</a>
</g>
</g>
<!-- Node18&#45;&gt;Node19 -->
<g id="edge14" class="edge"><title>Node18&#45;&gt;Node19</title>
<path fill="none" stroke="midnightblue" d="M1338.5,-202.108C1338.5,-193.154 1338.5,-183.323 1338.5,-175.577"/>
<polygon fill="midnightblue" stroke="midnightblue" points="1335,-202.396 1338.5,-212.396 1342,-202.396 1335,-202.396"/>
</g>
<!-- Node20 -->
<g id="node16" class="node"><title>Node20</title>
<g id="a_node16"><a xlink:href="../../dd/d33/LEDBuzzerModule_8hpp.html" target="_top" xlink:title="src/modules/led&#45;buzzer\l/LEDBuzzerModule.hpp">
<polygon fill="white" stroke="black" points="1141.5,-73 1141.5,-103 1261.5,-103 1261.5,-73 1141.5,-73"/>
<text text-anchor="start" x="1149.5" y="-91" font-family="Helvetica,sans-Serif" font-size="10.00">src/modules/led&#45;buzzer</text>
<text text-anchor="middle" x="1201.5" y="-80" font-family="Helvetica,sans-Serif" font-size="10.00">/LEDBuzzerModule.hpp</text>
</a>
</g>
</g>
<!-- Node19&#45;&gt;Node20 -->
<g id="edge15" class="edge"><title>Node19&#45;&gt;Node20</title>
<path fill="none" stroke="midnightblue" d="M1302,-140.715C1279.01,-128.889 1249.84,-113.874 1228.85,-103.073"/>
<polygon fill="midnightblue" stroke="midnightblue" points="1300.61,-143.939 1311.11,-145.403 1303.82,-137.715 1300.61,-143.939"/>
</g>
<!-- Node24 -->
<g id="node20" class="node"><title>Node24</title>
<g id="a_node20"><a xlink:href="../../df/d42/LedBuzzerImpl_8cpp.html" target="_top" xlink:title="src/modules/led&#45;buzzer\l/LedBuzzerImpl.cpp">
<polygon fill="white" stroke="black" points="1279.5,-73 1279.5,-103 1397.5,-103 1397.5,-73 1279.5,-73"/>
<text text-anchor="start" x="1287.5" y="-91" font-family="Helvetica,sans-Serif" font-size="10.00">src/modules/led&#45;buzzer</text>
<text text-anchor="middle" x="1338.5" y="-80" font-family="Helvetica,sans-Serif" font-size="10.00">/LedBuzzerImpl.cpp</text>
</a>
</g>
</g>
<!-- Node19&#45;&gt;Node24 -->
<g id="edge19" class="edge"><title>Node19&#45;&gt;Node24</title>
<path fill="none" stroke="midnightblue" d="M1338.5,-135.232C1338.5,-124.568 1338.5,-112.414 1338.5,-103.246"/>
<polygon fill="midnightblue" stroke="midnightblue" points="1335,-135.233 1338.5,-145.233 1342,-135.233 1335,-135.233"/>
</g>
<!-- Node21 -->
<g id="node17" class="node"><title>Node21</title>
<g id="a_node17"><a xlink:href="../../d4/db4/led-buzzer_2init_8cpp.html" target="_top" xlink:title="src/modules/led&#45;buzzer\l/init.cpp">
<polygon fill="white" stroke="black" points="1046.5,-0.5 1046.5,-30.5 1164.5,-30.5 1164.5,-0.5 1046.5,-0.5"/>
<text text-anchor="start" x="1054.5" y="-18.5" font-family="Helvetica,sans-Serif" font-size="10.00">src/modules/led&#45;buzzer</text>
<text text-anchor="middle" x="1105.5" y="-7.5" font-family="Helvetica,sans-Serif" font-size="10.00">/init.cpp</text>
</a>
</g>
</g>
<!-- Node20&#45;&gt;Node21 -->
<g id="edge16" class="edge"><title>Node20&#45;&gt;Node21</title>
<path fill="none" stroke="midnightblue" d="M1173.73,-66.6101C1157.96,-55.0289 1138.63,-40.8282 1124.57,-30.5049"/>
<polygon fill="midnightblue" stroke="midnightblue" points="1171.94,-69.6352 1182.07,-72.7333 1176.08,-63.9931 1171.94,-69.6352"/>
</g>
<!-- Node22 -->
<g id="node18" class="node"><title>Node22</title>
<g id="a_node18"><a xlink:href="../../d7/d36/LEDBuzzerModule_8cpp.html" target="_top" xlink:title="src/modules/led&#45;buzzer\l/LEDBuzzerModule.cpp">
<polygon fill="white" stroke="black" points="1182.5,-0.5 1182.5,-30.5 1302.5,-30.5 1302.5,-0.5 1182.5,-0.5"/>
<text text-anchor="start" x="1190.5" y="-18.5" font-family="Helvetica,sans-Serif" font-size="10.00">src/modules/led&#45;buzzer</text>
<text text-anchor="middle" x="1242.5" y="-7.5" font-family="Helvetica,sans-Serif" font-size="10.00">/LEDBuzzerModule.cpp</text>
</a>
</g>
</g>
<!-- Node20&#45;&gt;Node22 -->
<g id="edge17" class="edge"><title>Node20&#45;&gt;Node22</title>
<path fill="none" stroke="midnightblue" d="M1214.84,-64.0566C1221.22,-53.0859 1228.66,-40.2965 1234.22,-30.7455"/>
<polygon fill="midnightblue" stroke="midnightblue" points="1211.8,-62.3292 1209.8,-72.7333 1217.85,-65.8484 1211.8,-62.3292"/>
</g>
<!-- Node20&#45;&gt;Node23 -->
<g id="edge18" class="edge"><title>Node20&#45;&gt;Node23</title>
<path fill="none" stroke="midnightblue" d="M1244.93,-68.8809C1278.73,-54.7809 1324.12,-35.8494 1350.04,-25.0336"/>
<polygon fill="midnightblue" stroke="midnightblue" points="1243.18,-65.8224 1235.29,-72.9027 1245.87,-72.2828 1243.18,-65.8224"/>
</g>
<!-- Node26 -->
<g id="node22" class="node"><title>Node26</title>
<g id="a_node22"><a xlink:href="../../d9/da6/monitor_2init_8cpp.html" target="_top" xlink:title="src/modules/monitor\l/init.cpp">
<polygon fill="white" stroke="black" points="1454,-145.5 1454,-175.5 1559,-175.5 1559,-145.5 1454,-145.5"/>
<text text-anchor="start" x="1462" y="-163.5" font-family="Helvetica,sans-Serif" font-size="10.00">src/modules/monitor</text>
<text text-anchor="middle" x="1506.5" y="-152.5" font-family="Helvetica,sans-Serif" font-size="10.00">/init.cpp</text>
</a>
</g>
</g>
<!-- Node25&#45;&gt;Node26 -->
<g id="edge21" class="edge"><title>Node25&#45;&gt;Node26</title>
<path fill="none" stroke="midnightblue" d="M1506.5,-202.108C1506.5,-193.154 1506.5,-183.323 1506.5,-175.577"/>
<polygon fill="midnightblue" stroke="midnightblue" points="1503,-202.396 1506.5,-212.396 1510,-202.396 1503,-202.396"/>
</g>
<!-- Node27 -->
<g id="node23" class="node"><title>Node27</title>
<g id="a_node23"><a xlink:href="../../df/d30/MonitorModule_8cpp.html" target="_top" xlink:title="src/modules/monitor\l/MonitorModule.cpp">
<polygon fill="white" stroke="black" points="1577,-145.5 1577,-175.5 1682,-175.5 1682,-145.5 1577,-145.5"/>
<text text-anchor="start" x="1585" y="-163.5" font-family="Helvetica,sans-Serif" font-size="10.00">src/modules/monitor</text>
<text text-anchor="middle" x="1629.5" y="-152.5" font-family="Helvetica,sans-Serif" font-size="10.00">/MonitorModule.cpp</text>
</a>
</g>
</g>
<!-- Node25&#45;&gt;Node27 -->
<g id="edge22" class="edge"><title>Node25&#45;&gt;Node27</title>
<path fill="none" stroke="midnightblue" d="M1542.05,-207.714C1561.45,-197.463 1585.06,-184.983 1602.86,-175.577"/>
<polygon fill="midnightblue" stroke="midnightblue" points="1540.4,-204.629 1533.19,-212.396 1543.67,-210.818 1540.4,-204.629"/>
</g>
<!-- Node29 -->
<g id="node25" class="node"><title>Node29</title>
<g id="a_node25"><a xlink:href="../../da/d7c/test-and-reset_2init_8cpp.html" target="_top" xlink:title="src/modules/test&#45;and\l&#45;reset/init.cpp">
<polygon fill="white" stroke="black" points="1700.5,-145.5 1700.5,-175.5 1808.5,-175.5 1808.5,-145.5 1700.5,-145.5"/>
<text text-anchor="start" x="1708.5" y="-163.5" font-family="Helvetica,sans-Serif" font-size="10.00">src/modules/test&#45;and</text>
<text text-anchor="middle" x="1754.5" y="-152.5" font-family="Helvetica,sans-Serif" font-size="10.00">&#45;reset/init.cpp</text>
</a>
</g>
</g>
<!-- Node28&#45;&gt;Node29 -->
<g id="edge24" class="edge"><title>Node28&#45;&gt;Node29</title>
<path fill="none" stroke="midnightblue" d="M1754.5,-202.108C1754.5,-193.154 1754.5,-183.323 1754.5,-175.577"/>
<polygon fill="midnightblue" stroke="midnightblue" points="1751,-202.396 1754.5,-212.396 1758,-202.396 1751,-202.396"/>
</g>
<!-- Node30 -->
<g id="node26" class="node"><title>Node30</title>
<g id="a_node26"><a xlink:href="../../d9/dfd/TestAndResetModule_8cpp.html" target="_top" xlink:title="src/modules/test&#45;and\l&#45;reset/TestAndResetModule.cpp">
<polygon fill="white" stroke="black" points="1826.5,-145.5 1826.5,-175.5 1984.5,-175.5 1984.5,-145.5 1826.5,-145.5"/>
<text text-anchor="start" x="1834.5" y="-163.5" font-family="Helvetica,sans-Serif" font-size="10.00">src/modules/test&#45;and</text>
<text text-anchor="middle" x="1905.5" y="-152.5" font-family="Helvetica,sans-Serif" font-size="10.00">&#45;reset/TestAndResetModule.cpp</text>
</a>
</g>
</g>
<!-- Node28&#45;&gt;Node30 -->
<g id="edge25" class="edge"><title>Node28&#45;&gt;Node30</title>
<path fill="none" stroke="midnightblue" d="M1796.53,-208.407C1820.64,-198.029 1850.45,-185.195 1872.8,-175.577"/>
<polygon fill="midnightblue" stroke="midnightblue" points="1795.07,-205.227 1787.26,-212.396 1797.83,-211.657 1795.07,-205.227"/>
</g>
</g>
</svg>
        <g id="navigator" transform="translate(0 0)" fill="#404254">
                <rect fill="#f2f5e9" fill-opacity="0.5" stroke="#606060" stroke-width=".5" x="0" y="0" width="60" height="60"/>
                <use id="zoomplus" xlink:href="#zoomPlus" x="17" y="9" onmousedown="handleZoom(evt,'in')"/>
                <use id="zoomminus" xlink:href="#zoomMin" x="42" y="9" onmousedown="handleZoom(evt,'out')"/>
                <use id="reset" xlink:href="#resetDef" x="30" y="36" onmousedown="handleReset()"/>
                <g id="arrowUp" xlink:href="#dirArrow" transform="translate(30 24)" onmousedown="handlePan(0,-1)">
                  <use xlink:href="#rim" fill="#404040">
                        <set attributeName="fill" to="#808080" begin="arrowUp.mouseover" end="arrowUp.mouseout"/>
                  </use>
                  <path fill="none" stroke="white" stroke-width="1.5" d="M0,-3.0v7 M-2.5,-0.5L0,-3.0L2.5,-0.5"/>
                </g>
                <g id="arrowRight" xlink:href="#dirArrow" transform="rotate(90) translate(36 -43)" onmousedown="handlePan(1,0)">
                  <use xlink:href="#rim" fill="#404040">
                        <set attributeName="fill" to="#808080" begin="arrowRight.mouseover" end="arrowRight.mouseout"/>
                  </use>
                  <path fill="none" stroke="white" stroke-width="1.5" d="M0,-3.0v7 M-2.5,-0.5L0,-3.0L2.5,-0.5"/>
                </g>
                <g id="arrowDown" xlink:href="#dirArrow" transform="rotate(180) translate(-30 -48)" onmousedown="handlePan(0,1)">
                  <use xlink:href="#rim" fill="#404040">
                        <set attributeName="fill" to="#808080" begin="arrowDown.mouseover" end="arrowDown.mouseout"/>
                  </use>
                  <path fill="none" stroke="white" stroke-width="1.5" d="M0,-3.0v7 M-2.5,-0.5L0,-3.0L2.5,-0.5"/>
                </g>
                <g id="arrowLeft" xlink:href="#dirArrow" transform="rotate(270) translate(-36 17)" onmousedown="handlePan(-1,0)">
                  <use xlink:href="#rim" fill="#404040">
                        <set attributeName="fill" to="#808080" begin="arrowLeft.mouseover" end="arrowLeft.mouseout"/>
                  </use>
                  <path fill="none" stroke="white" stroke-width="1.5" d="M0,-3.0v7 M-2.5,-0.5L0,-3.0L2.5,-0.5"/>
                </g>
        </g>
        <svg viewBox="0 0 15 15" width="100%" height="30px" preserveAspectRatio="xMaxYMin meet">
         <g id="arrow_out" transform="scale(0.3 0.3)">
          <a xlink:href="FLED_8hpp__dep__incl_org.svg" target="_base">
           <rect id="button" ry="5" rx="5" y="6" x="6" height="38" width="38"
                fill="#f2f5e9" fill-opacity="0.5" stroke="#606060" stroke-width="1.0"/>
           <path id="arrow"
             d="M 11.500037,31.436501 C 11.940474,20.09759 22.043105,11.32322 32.158766,21.979434 L 37.068811,17.246167 C 37.068811,17.246167 37.088388,32 37.088388,32 L 22.160133,31.978069 C 22.160133,31.978069 26.997745,27.140456 26.997745,27.140456 C 18.528582,18.264221 13.291696,25.230495 11.500037,31.436501 z"
             style="fill:#404040;"/>
          </a>
         </g>
        </svg>
</svg>
