<?xml version="1.0" encoding="UTF-8" standalone="no"?>
<!DOCTYPE svg PUBLIC "-//W3C//DTD SVG 1.1//EN"
 "http://www.w3.org/Graphics/SVG/1.1/DTD/svg11.dtd">
<!-- Generated by graphviz version 2.38.0 (20140413.2041)
 -->
<!-- Title: src/modules/smtp/SMTPConfig.cpp Pages: 1 -->
<svg width="1066pt" height="431pt"
 viewBox="0.00 0.00 1066.11 431.00" xmlns="http://www.w3.org/2000/svg" xmlns:xlink="http://www.w3.org/1999/xlink">
<g id="graph0" class="graph" transform="scale(1 1) rotate(0) translate(4 427)">
<title>src/modules/smtp/SMTPConfig.cpp</title>
<polygon fill="white" stroke="none" points="-4,4 -4,-427 1062.11,-427 1062.11,4 -4,4"/>
<!-- Node0 -->
<g id="node1" class="node"><title>Node0</title>
<polygon fill="#bfbfbf" stroke="black" points="703,-403.5 703,-422.5 876,-422.5 876,-403.5 703,-403.5"/>
<text text-anchor="middle" x="789.5" y="-410.5" font-family="Helvetica,sans-Serif" font-size="10.00">src/modules/smtp/SMTPConfig.cpp</text>
</g>
<!-- Node1 -->
<g id="node2" class="node"><title>Node1</title>
<g id="a_node2"><a xlink:href="../../d4/d56/SMTPConfig_8hpp.html" target="_top" xlink:title="SMTPConfig.hpp">
<polygon fill="white" stroke="black" points="743.5,-347.5 743.5,-366.5 835.5,-366.5 835.5,-347.5 743.5,-347.5"/>
<text text-anchor="middle" x="789.5" y="-354.5" font-family="Helvetica,sans-Serif" font-size="10.00">SMTPConfig.hpp</text>
</a>
</g>
</g>
<!-- Node0&#45;&gt;Node1 -->
<g id="edge1" class="edge"><title>Node0&#45;&gt;Node1</title>
<path fill="none" stroke="midnightblue" d="M789.5,-403.083C789.5,-396.006 789.5,-385.861 789.5,-376.986"/>
<polygon fill="midnightblue" stroke="midnightblue" points="793,-376.751 789.5,-366.751 786,-376.751 793,-376.751"/>
</g>
<!-- Node2 -->
<g id="node3" class="node"><title>Node2</title>
<g id="a_node3"><a xlink:href="../../da/d3b/SMTPFwd_8hpp.html" target="_top" xlink:title="SMTPFwd.hpp">
<polygon fill="white" stroke="black" points="885.5,-291.5 885.5,-310.5 967.5,-310.5 967.5,-291.5 885.5,-291.5"/>
<text text-anchor="middle" x="926.5" y="-298.5" font-family="Helvetica,sans-Serif" font-size="10.00">SMTPFwd.hpp</text>
</a>
</g>
</g>
<!-- Node1&#45;&gt;Node2 -->
<g id="edge2" class="edge"><title>Node1&#45;&gt;Node2</title>
<path fill="none" stroke="midnightblue" d="M811.208,-347.444C833.855,-338.517 869.572,-324.439 895.252,-314.317"/>
<polygon fill="midnightblue" stroke="midnightblue" points="896.874,-317.44 904.894,-310.516 894.307,-310.927 896.874,-317.44"/>
</g>
<!-- Node4 -->
<g id="node5" class="node"><title>Node4</title>
<g id="a_node5"><a xlink:href="../../df/da2/database_8hpp.html" target="_top" xlink:title="tools/db/database.hpp">
<polygon fill="white" stroke="black" points="597,-291.5 597,-310.5 710,-310.5 710,-291.5 597,-291.5"/>
<text text-anchor="middle" x="653.5" y="-298.5" font-family="Helvetica,sans-Serif" font-size="10.00">tools/db/database.hpp</text>
</a>
</g>
</g>
<!-- Node1&#45;&gt;Node4 -->
<g id="edge4" class="edge"><title>Node1&#45;&gt;Node4</title>
<path fill="none" stroke="midnightblue" d="M767.95,-347.444C745.469,-338.517 710.012,-324.439 684.52,-314.317"/>
<polygon fill="midnightblue" stroke="midnightblue" points="685.535,-310.954 674.949,-310.516 682.951,-317.46 685.535,-310.954"/>
</g>
<!-- Node3 -->
<g id="node4" class="node"><title>Node3</title>
<polygon fill="white" stroke="#bfbfbf" points="813.5,-56.5 813.5,-75.5 865.5,-75.5 865.5,-56.5 813.5,-56.5"/>
<text text-anchor="middle" x="839.5" y="-63.5" font-family="Helvetica,sans-Serif" font-size="10.00">memory</text>
</g>
<!-- Node2&#45;&gt;Node3 -->
<g id="edge3" class="edge"><title>Node2&#45;&gt;Node3</title>
<path fill="none" stroke="midnightblue" d="M939.44,-291.477C979.548,-264.046 1096.06,-176.11 1044.5,-112 1023.73,-86.1797 929.002,-74.3342 875.885,-69.6392"/>
<polygon fill="midnightblue" stroke="midnightblue" points="876.109,-66.1458 865.851,-68.7936 875.521,-73.1211 876.109,-66.1458"/>
</g>
<!-- Node5 -->
<g id="node6" class="node"><title>Node5</title>
<g id="a_node6"><a xlink:href="../../d9/d69/db__fwd_8hpp.html" target="_top" xlink:title="db_fwd.hpp">
<polygon fill="white" stroke="black" points="857,-179.5 857,-198.5 924,-198.5 924,-179.5 857,-179.5"/>
<text text-anchor="middle" x="890.5" y="-186.5" font-family="Helvetica,sans-Serif" font-size="10.00">db_fwd.hpp</text>
</a>
</g>
</g>
<!-- Node4&#45;&gt;Node5 -->
<g id="edge5" class="edge"><title>Node4&#45;&gt;Node5</title>
<path fill="none" stroke="midnightblue" d="M710.204,-293.684C763.894,-286.68 839.599,-273.827 862.5,-255 876.568,-243.435 883.732,-223.472 887.271,-208.713"/>
<polygon fill="midnightblue" stroke="midnightblue" points="890.751,-209.165 889.324,-198.667 883.893,-207.763 890.751,-209.165"/>
</g>
<!-- Node6 -->
<g id="node7" class="node"><title>Node6</title>
<polygon fill="white" stroke="#bfbfbf" points="240.5,-235.5 240.5,-254.5 334.5,-254.5 334.5,-235.5 240.5,-235.5"/>
<text text-anchor="middle" x="287.5" y="-242.5" font-family="Helvetica,sans-Serif" font-size="10.00">odb/database.hxx</text>
</g>
<!-- Node4&#45;&gt;Node6 -->
<g id="edge7" class="edge"><title>Node4&#45;&gt;Node6</title>
<path fill="none" stroke="midnightblue" d="M596.894,-292.046C536.842,-283.549 438.912,-269.524 344.549,-255.142"/>
<polygon fill="midnightblue" stroke="midnightblue" points="344.959,-251.664 334.546,-253.614 343.902,-258.584 344.959,-251.664"/>
</g>
<!-- Node7 -->
<g id="node8" class="node"><title>Node7</title>
<polygon fill="white" stroke="#bfbfbf" points="352.5,-235.5 352.5,-254.5 454.5,-254.5 454.5,-235.5 352.5,-235.5"/>
<text text-anchor="middle" x="403.5" y="-242.5" font-family="Helvetica,sans-Serif" font-size="10.00">odb/transaction.hxx</text>
</g>
<!-- Node4&#45;&gt;Node7 -->
<g id="edge8" class="edge"><title>Node4&#45;&gt;Node7</title>
<path fill="none" stroke="midnightblue" d="M613.887,-291.444C570.275,-282.023 500.1,-266.866 452.922,-256.675"/>
<polygon fill="midnightblue" stroke="midnightblue" points="453.441,-253.207 442.928,-254.516 451.964,-260.049 453.441,-253.207"/>
</g>
<!-- Node8 -->
<g id="node9" class="node"><title>Node8</title>
<g id="a_node9"><a xlink:href="../../d0/dee/DBService_8hpp.html" target="_top" xlink:title="tools/db/DBService.hpp">
<polygon fill="white" stroke="black" points="733.5,-235.5 733.5,-254.5 853.5,-254.5 853.5,-235.5 733.5,-235.5"/>
<text text-anchor="middle" x="793.5" y="-242.5" font-family="Helvetica,sans-Serif" font-size="10.00">tools/db/DBService.hpp</text>
</a>
</g>
</g>
<!-- Node4&#45;&gt;Node8 -->
<g id="edge9" class="edge"><title>Node4&#45;&gt;Node8</title>
<path fill="none" stroke="midnightblue" d="M675.683,-291.444C698.928,-282.478 735.649,-268.314 761.915,-258.183"/>
<polygon fill="midnightblue" stroke="midnightblue" points="763.35,-261.381 771.42,-254.516 760.831,-254.85 763.35,-261.381"/>
</g>
<!-- Node23 -->
<g id="node24" class="node"><title>Node23</title>
<polygon fill="white" stroke="#bfbfbf" points="473,-235.5 473,-254.5 574,-254.5 574,-235.5 473,-235.5"/>
<text text-anchor="middle" x="523.5" y="-242.5" font-family="Helvetica,sans-Serif" font-size="10.00">odb/connection.hxx</text>
</g>
<!-- Node4&#45;&gt;Node23 -->
<g id="edge37" class="edge"><title>Node4&#45;&gt;Node23</title>
<path fill="none" stroke="midnightblue" d="M632.901,-291.444C611.507,-282.557 577.819,-268.563 553.476,-258.451"/>
<polygon fill="midnightblue" stroke="midnightblue" points="554.58,-255.12 544.003,-254.516 551.895,-261.585 554.58,-255.12"/>
</g>
<!-- Node24 -->
<g id="node25" class="node"><title>Node24</title>
<polygon fill="white" stroke="#bfbfbf" points="592,-235.5 592,-254.5 715,-254.5 715,-235.5 592,-235.5"/>
<text text-anchor="middle" x="653.5" y="-242.5" font-family="Helvetica,sans-Serif" font-size="10.00">odb/schema&#45;catalog.hxx</text>
</g>
<!-- Node4&#45;&gt;Node24 -->
<g id="edge38" class="edge"><title>Node4&#45;&gt;Node24</title>
<path fill="none" stroke="midnightblue" d="M653.5,-291.083C653.5,-284.006 653.5,-273.861 653.5,-264.986"/>
<polygon fill="midnightblue" stroke="midnightblue" points="657,-264.751 653.5,-254.751 650,-264.751 657,-264.751"/>
</g>
<!-- Node5&#45;&gt;Node3 -->
<g id="edge6" class="edge"><title>Node5&#45;&gt;Node3</title>
<path fill="none" stroke="midnightblue" d="M924.271,-182.671C974.161,-173.364 1058.5,-151.292 1027.5,-112 1009.01,-88.557 925.39,-75.9622 876.118,-70.4612"/>
<polygon fill="midnightblue" stroke="midnightblue" points="876.182,-66.9481 865.866,-69.3633 875.437,-73.9083 876.182,-66.9481"/>
</g>
<!-- Node8&#45;&gt;Node5 -->
<g id="edge36" class="edge"><title>Node8&#45;&gt;Node5</title>
<path fill="none" stroke="midnightblue" d="M809.085,-235.324C824.499,-226.743 848.312,-213.486 866.21,-203.522"/>
<polygon fill="midnightblue" stroke="midnightblue" points="867.919,-206.577 874.954,-198.655 864.514,-200.461 867.919,-206.577"/>
</g>
<!-- Node9 -->
<g id="node10" class="node"><title>Node9</title>
<g id="a_node10"><a xlink:href="../../d3/dd8/IAuditEntry_8hpp.html" target="_top" xlink:title="core/audit/IAuditEntry.hpp">
<polygon fill="white" stroke="black" points="353.5,-179.5 353.5,-198.5 483.5,-198.5 483.5,-179.5 353.5,-179.5"/>
<text text-anchor="middle" x="418.5" y="-186.5" font-family="Helvetica,sans-Serif" font-size="10.00">core/audit/IAuditEntry.hpp</text>
</a>
</g>
</g>
<!-- Node8&#45;&gt;Node9 -->
<g id="edge10" class="edge"><title>Node8&#45;&gt;Node9</title>
<path fill="none" stroke="midnightblue" d="M734.08,-235.444C667.154,-225.806 558.524,-210.163 487.793,-199.978"/>
<polygon fill="midnightblue" stroke="midnightblue" points="488.039,-196.478 477.642,-198.516 487.041,-203.406 488.039,-196.478"/>
</g>
<!-- Node14 -->
<g id="node15" class="node"><title>Node14</title>
<g id="a_node15"><a xlink:href="../../d3/d6f/AuthFwd_8hpp.html" target="_top" xlink:title="core/auth/AuthFwd.hpp">
<polygon fill="white" stroke="black" points="432.5,-118 432.5,-137 550.5,-137 550.5,-118 432.5,-118"/>
<text text-anchor="middle" x="491.5" y="-125" font-family="Helvetica,sans-Serif" font-size="10.00">core/auth/AuthFwd.hpp</text>
</a>
</g>
</g>
<!-- Node8&#45;&gt;Node14 -->
<g id="edge26" class="edge"><title>Node8&#45;&gt;Node14</title>
<path fill="none" stroke="midnightblue" d="M770.801,-235.319C717.655,-214.993 585.013,-164.264 523.616,-140.783"/>
<polygon fill="midnightblue" stroke="midnightblue" points="524.641,-137.428 514.051,-137.124 522.14,-143.966 524.641,-137.428"/>
</g>
<!-- Node20 -->
<g id="node21" class="node"><title>Node20</title>
<g id="a_node21"><a xlink:href="../../d7/d7f/CredentialFwd_8hpp.html" target="_top" xlink:title="core/credentials/Credential\lFwd.hpp">
<polygon fill="white" stroke="black" points="569,-112.5 569,-142.5 702,-142.5 702,-112.5 569,-112.5"/>
<text text-anchor="start" x="577" y="-130.5" font-family="Helvetica,sans-Serif" font-size="10.00">core/credentials/Credential</text>
<text text-anchor="middle" x="635.5" y="-119.5" font-family="Helvetica,sans-Serif" font-size="10.00">Fwd.hpp</text>
</a>
</g>
</g>
<!-- Node8&#45;&gt;Node20 -->
<g id="edge27" class="edge"><title>Node8&#45;&gt;Node20</title>
<path fill="none" stroke="midnightblue" d="M781.624,-235.319C756.616,-217.037 697.961,-174.16 663.044,-148.635"/>
<polygon fill="midnightblue" stroke="midnightblue" points="664.852,-145.621 654.713,-142.545 660.721,-151.272 664.852,-145.621"/>
</g>
<!-- Node21 -->
<g id="node22" class="node"><title>Node21</title>
<g id="a_node22"><a xlink:href="../../d2/d0e/UpdateFwd_8hpp.html" target="_top" xlink:title="core/update/UpdateFwd.hpp">
<polygon fill="white" stroke="black" points="720.5,-118 720.5,-137 860.5,-137 860.5,-118 720.5,-118"/>
<text text-anchor="middle" x="790.5" y="-125" font-family="Helvetica,sans-Serif" font-size="10.00">core/update/UpdateFwd.hpp</text>
</a>
</g>
</g>
<!-- Node8&#45;&gt;Node21 -->
<g id="edge30" class="edge"><title>Node8&#45;&gt;Node21</title>
<path fill="none" stroke="midnightblue" d="M793.275,-235.319C792.792,-216.757 791.652,-172.839 790.993,-147.473"/>
<polygon fill="midnightblue" stroke="midnightblue" points="794.487,-147.188 790.728,-137.282 787.489,-147.37 794.487,-147.188"/>
</g>
<!-- Node22 -->
<g id="node23" class="node"><title>Node22</title>
<g id="a_node23"><a xlink:href="../../d8/d97/ToolsFwd_8hpp.html" target="_top" xlink:title="tools/ToolsFwd.hpp">
<polygon fill="white" stroke="black" points="916.5,-118 916.5,-137 1018.5,-137 1018.5,-118 916.5,-118"/>
<text text-anchor="middle" x="967.5" y="-125" font-family="Helvetica,sans-Serif" font-size="10.00">tools/ToolsFwd.hpp</text>
</a>
</g>
</g>
<!-- Node8&#45;&gt;Node22 -->
<g id="edge33" class="edge"><title>Node8&#45;&gt;Node22</title>
<path fill="none" stroke="midnightblue" d="M798.908,-235.296C807.769,-221.654 826.601,-195.133 848.5,-179 872.322,-161.451 903.167,-148.583 927.485,-140.23"/>
<polygon fill="midnightblue" stroke="midnightblue" points="928.738,-143.502 937.129,-137.034 926.536,-136.858 928.738,-143.502"/>
</g>
<!-- Node9&#45;&gt;Node3 -->
<g id="edge25" class="edge"><title>Node9&#45;&gt;Node3</title>
<path fill="none" stroke="midnightblue" d="M483.752,-186.234C602.511,-182.343 844.12,-171.038 869.5,-143 884.902,-125.984 868.852,-100.119 854.954,-83.3873"/>
<polygon fill="midnightblue" stroke="midnightblue" points="857.298,-80.7536 848.06,-75.5655 852.047,-85.3819 857.298,-80.7536"/>
</g>
<!-- Node10 -->
<g id="node11" class="node"><title>Node10</title>
<g id="a_node11"><a xlink:href="../../d7/dcf/AuditFwd_8hpp.html" target="_top" xlink:title="core/audit/AuditFwd.hpp">
<polygon fill="white" stroke="black" points="160.5,-118 160.5,-137 282.5,-137 282.5,-118 160.5,-118"/>
<text text-anchor="middle" x="221.5" y="-125" font-family="Helvetica,sans-Serif" font-size="10.00">core/audit/AuditFwd.hpp</text>
</a>
</g>
</g>
<!-- Node9&#45;&gt;Node10 -->
<g id="edge11" class="edge"><title>Node9&#45;&gt;Node10</title>
<path fill="none" stroke="midnightblue" d="M390.275,-179.475C355.897,-169.092 297.69,-151.512 259.423,-139.954"/>
<polygon fill="midnightblue" stroke="midnightblue" points="260.258,-136.55 249.673,-137.009 258.234,-143.251 260.258,-136.55"/>
</g>
<!-- Node9&#45;&gt;Node14 -->
<g id="edge16" class="edge"><title>Node9&#45;&gt;Node14</title>
<path fill="none" stroke="midnightblue" d="M428.959,-179.475C440.451,-170.108 459.13,-154.884 473.087,-143.508"/>
<polygon fill="midnightblue" stroke="midnightblue" points="475.52,-146.04 481.06,-137.009 471.098,-140.614 475.52,-146.04"/>
</g>
<!-- Node15 -->
<g id="node16" class="node"><title>Node15</title>
<g id="a_node16"><a xlink:href="../../dd/d9d/IVisitable_8hpp.html" target="_top" xlink:title="tools/IVisitable.hpp">
<polygon fill="white" stroke="black" points="42.5,-118 42.5,-137 142.5,-137 142.5,-118 42.5,-118"/>
<text text-anchor="middle" x="92.5" y="-125" font-family="Helvetica,sans-Serif" font-size="10.00">tools/IVisitable.hpp</text>
</a>
</g>
</g>
<!-- Node9&#45;&gt;Node15 -->
<g id="edge20" class="edge"><title>Node9&#45;&gt;Node15</title>
<path fill="none" stroke="midnightblue" d="M360.457,-179.486C306.216,-171.229 223.082,-157.807 151.5,-143 146.339,-141.932 140.944,-140.729 135.605,-139.484"/>
<polygon fill="midnightblue" stroke="midnightblue" points="136.019,-135.984 125.479,-137.062 134.39,-142.792 136.019,-135.984"/>
</g>
<!-- Node19 -->
<g id="node20" class="node"><title>Node19</title>
<polygon fill="white" stroke="#bfbfbf" points="301,-112.5 301,-142.5 414,-142.5 414,-112.5 301,-112.5"/>
<text text-anchor="start" x="309" y="-130.5" font-family="Helvetica,sans-Serif" font-size="10.00">boost/date_time/posix</text>
<text text-anchor="middle" x="357.5" y="-119.5" font-family="Helvetica,sans-Serif" font-size="10.00">_time/posix_time.hpp</text>
</g>
<!-- Node9&#45;&gt;Node19 -->
<g id="edge24" class="edge"><title>Node9&#45;&gt;Node19</title>
<path fill="none" stroke="midnightblue" d="M409.76,-179.475C401.807,-171.718 389.736,-159.943 379.198,-149.665"/>
<polygon fill="midnightblue" stroke="midnightblue" points="381.479,-147 371.876,-142.523 376.591,-152.011 381.479,-147"/>
</g>
<!-- Node10&#45;&gt;Node3 -->
<g id="edge14" class="edge"><title>Node10&#45;&gt;Node3</title>
<path fill="none" stroke="midnightblue" d="M258.939,-117.983C269.725,-115.767 281.54,-113.564 292.5,-112 391.792,-97.8285 697.688,-76.5335 803.243,-69.4144"/>
<polygon fill="midnightblue" stroke="midnightblue" points="803.65,-72.895 813.393,-68.7319 803.181,-65.9107 803.65,-72.895"/>
</g>
<!-- Node11 -->
<g id="node12" class="node"><title>Node11</title>
<polygon fill="white" stroke="#bfbfbf" points="370,-56.5 370,-75.5 419,-75.5 419,-56.5 370,-56.5"/>
<text text-anchor="middle" x="394.5" y="-63.5" font-family="Helvetica,sans-Serif" font-size="10.00">cstddef</text>
</g>
<!-- Node10&#45;&gt;Node11 -->
<g id="edge12" class="edge"><title>Node10&#45;&gt;Node11</title>
<path fill="none" stroke="midnightblue" d="M246.287,-117.975C276.091,-107.725 326.291,-90.4593 359.902,-78.8994"/>
<polygon fill="midnightblue" stroke="midnightblue" points="361.441,-82.0712 369.759,-75.5091 359.165,-75.4518 361.441,-82.0712"/>
</g>
<!-- Node12 -->
<g id="node13" class="node"><title>Node12</title>
<polygon fill="white" stroke="#bfbfbf" points="189,-56.5 189,-75.5 254,-75.5 254,-56.5 189,-56.5"/>
<text text-anchor="middle" x="221.5" y="-63.5" font-family="Helvetica,sans-Serif" font-size="10.00">flagset.hpp</text>
</g>
<!-- Node10&#45;&gt;Node12 -->
<g id="edge13" class="edge"><title>Node10&#45;&gt;Node12</title>
<path fill="none" stroke="midnightblue" d="M221.5,-117.975C221.5,-109.58 221.5,-96.4806 221.5,-85.6631"/>
<polygon fill="midnightblue" stroke="midnightblue" points="225,-85.5091 221.5,-75.5091 218,-85.5091 225,-85.5091"/>
</g>
<!-- Node13 -->
<g id="node14" class="node"><title>Node13</title>
<polygon fill="white" stroke="#bfbfbf" points="592.5,-56.5 592.5,-75.5 678.5,-75.5 678.5,-56.5 592.5,-56.5"/>
<text text-anchor="middle" x="635.5" y="-63.5" font-family="Helvetica,sans-Serif" font-size="10.00">odb/lazy&#45;ptr.hxx</text>
</g>
<!-- Node10&#45;&gt;Node13 -->
<g id="edge15" class="edge"><title>Node10&#45;&gt;Node13</title>
<path fill="none" stroke="midnightblue" d="M260.84,-117.948C271.117,-115.856 282.201,-113.725 292.5,-112 394.619,-94.8958 514.753,-80.4205 582.325,-72.7904"/>
<polygon fill="midnightblue" stroke="midnightblue" points="582.76,-76.2637 592.307,-71.67 581.979,-69.3074 582.76,-76.2637"/>
</g>
<!-- Node14&#45;&gt;Node3 -->
<g id="edge18" class="edge"><title>Node14&#45;&gt;Node3</title>
<path fill="none" stroke="midnightblue" d="M530.481,-117.973C540.264,-115.925 550.751,-113.809 560.5,-112 647.331,-95.8832 749.989,-80.1833 803.29,-72.282"/>
<polygon fill="midnightblue" stroke="midnightblue" points="803.891,-75.7312 813.272,-70.8079 802.868,-68.8063 803.891,-75.7312"/>
</g>
<!-- Node14&#45;&gt;Node11 -->
<g id="edge17" class="edge"><title>Node14&#45;&gt;Node11</title>
<path fill="none" stroke="midnightblue" d="M477.602,-117.975C461.828,-108.299 435.863,-92.3721 417.151,-80.8941"/>
<polygon fill="midnightblue" stroke="midnightblue" points="418.726,-77.7544 408.372,-75.5091 415.066,-83.7213 418.726,-77.7544"/>
</g>
<!-- Node14&#45;&gt;Node13 -->
<g id="edge19" class="edge"><title>Node14&#45;&gt;Node13</title>
<path fill="none" stroke="midnightblue" d="M512.132,-117.975C536.619,-107.857 577.647,-90.9046 605.609,-79.3507"/>
<polygon fill="midnightblue" stroke="midnightblue" points="607.001,-82.5627 614.907,-75.5091 604.328,-76.0932 607.001,-82.5627"/>
</g>
<!-- Node16 -->
<g id="node17" class="node"><title>Node16</title>
<g id="a_node17"><a xlink:href="../../d2/d91/Visitor_8hpp.html" target="_top" xlink:title="tools/Visitor.hpp">
<polygon fill="white" stroke="black" points="67,-56.5 67,-75.5 154,-75.5 154,-56.5 67,-56.5"/>
<text text-anchor="middle" x="110.5" y="-63.5" font-family="Helvetica,sans-Serif" font-size="10.00">tools/Visitor.hpp</text>
</a>
</g>
</g>
<!-- Node15&#45;&gt;Node16 -->
<g id="edge21" class="edge"><title>Node15&#45;&gt;Node16</title>
<path fill="none" stroke="midnightblue" d="M95.079,-117.975C97.6453,-109.492 101.665,-96.2043 104.957,-85.3222"/>
<polygon fill="midnightblue" stroke="midnightblue" points="108.38,-86.0942 107.926,-75.5091 101.68,-84.0672 108.38,-86.0942"/>
</g>
<!-- Node18 -->
<g id="node19" class="node"><title>Node18</title>
<polygon fill="white" stroke="#bfbfbf" points="0,-56.5 0,-75.5 49,-75.5 49,-56.5 0,-56.5"/>
<text text-anchor="middle" x="24.5" y="-63.5" font-family="Helvetica,sans-Serif" font-size="10.00">cassert</text>
</g>
<!-- Node15&#45;&gt;Node18 -->
<g id="edge23" class="edge"><title>Node15&#45;&gt;Node18</title>
<path fill="none" stroke="midnightblue" d="M82.7573,-117.975C72.1532,-108.697 54.9807,-93.6706 42.0212,-82.331"/>
<polygon fill="midnightblue" stroke="midnightblue" points="44.0552,-79.4601 34.2247,-75.5091 39.4457,-84.7282 44.0552,-79.4601"/>
</g>
<!-- Node17 -->
<g id="node18" class="node"><title>Node17</title>
<polygon fill="white" stroke="#bfbfbf" points="79.5,-0.5 79.5,-19.5 141.5,-19.5 141.5,-0.5 79.5,-0.5"/>
<text text-anchor="middle" x="110.5" y="-7.5" font-family="Helvetica,sans-Serif" font-size="10.00">type_traits</text>
</g>
<!-- Node16&#45;&gt;Node17 -->
<g id="edge22" class="edge"><title>Node16&#45;&gt;Node17</title>
<path fill="none" stroke="midnightblue" d="M110.5,-56.083C110.5,-49.0059 110.5,-38.8611 110.5,-29.9865"/>
<polygon fill="midnightblue" stroke="midnightblue" points="114,-29.751 110.5,-19.7511 107,-29.7511 114,-29.751"/>
</g>
<!-- Node20&#45;&gt;Node3 -->
<g id="edge28" class="edge"><title>Node20&#45;&gt;Node3</title>
<path fill="none" stroke="midnightblue" d="M683.587,-112.475C720.31,-101.764 770.116,-87.237 803.459,-77.5121"/>
<polygon fill="midnightblue" stroke="midnightblue" points="804.625,-80.8178 813.245,-74.6577 802.665,-74.0978 804.625,-80.8178"/>
</g>
<!-- Node20&#45;&gt;Node13 -->
<g id="edge29" class="edge"><title>Node20&#45;&gt;Node13</title>
<path fill="none" stroke="midnightblue" d="M635.5,-112.399C635.5,-104.466 635.5,-94.458 635.5,-85.8583"/>
<polygon fill="midnightblue" stroke="midnightblue" points="639,-85.6577 635.5,-75.6578 632,-85.6578 639,-85.6577"/>
</g>
<!-- Node21&#45;&gt;Node3 -->
<g id="edge31" class="edge"><title>Node21&#45;&gt;Node3</title>
<path fill="none" stroke="midnightblue" d="M797.521,-117.975C804.943,-108.962 816.833,-94.5246 826.067,-83.3118"/>
<polygon fill="midnightblue" stroke="midnightblue" points="828.837,-85.4534 832.493,-75.5091 823.434,-81.0034 828.837,-85.4534"/>
</g>
<!-- Node21&#45;&gt;Node13 -->
<g id="edge32" class="edge"><title>Node21&#45;&gt;Node13</title>
<path fill="none" stroke="midnightblue" d="M768.292,-117.975C741.819,-107.813 697.386,-90.7564 667.28,-79.1996"/>
<polygon fill="midnightblue" stroke="midnightblue" points="668.257,-75.8254 657.667,-75.5091 665.748,-82.3604 668.257,-75.8254"/>
</g>
<!-- Node22&#45;&gt;Node3 -->
<g id="edge34" class="edge"><title>Node22&#45;&gt;Node3</title>
<path fill="none" stroke="midnightblue" d="M949.161,-117.975C927.679,-107.99 891.878,-91.3476 867.052,-79.8075"/>
<polygon fill="midnightblue" stroke="midnightblue" points="868.349,-76.5506 857.805,-75.5091 865.398,-82.8983 868.349,-76.5506"/>
</g>
<!-- Node22&#45;&gt;Node13 -->
<g id="edge35" class="edge"><title>Node22&#45;&gt;Node13</title>
<path fill="none" stroke="midnightblue" d="M919.932,-117.975C858.663,-106.995 752.478,-87.9645 688.625,-76.521"/>
<polygon fill="midnightblue" stroke="midnightblue" points="689.215,-73.0709 678.754,-74.7519 687.98,-79.9611 689.215,-73.0709"/>
</g>
</g>
</svg>
