<?xml version="1.0" encoding="UTF-8" standalone="no"?>
<!DOCTYPE svg PUBLIC "-//W3C//DTD SVG 1.1//EN"
 "http://www.w3.org/Graphics/SVG/1.1/DTD/svg11.dtd">
<!-- Generated by graphviz version 2.38.0 (20140413.2041)
 -->
<!-- Title: Leosac::Audit::IUpdateEvent Pages: 1 -->
<svg width="151pt" height="140pt"
 viewBox="0.00 0.00 151.00 140.00" xmlns="http://www.w3.org/2000/svg" xmlns:xlink="http://www.w3.org/1999/xlink">
<g id="graph0" class="graph" transform="scale(1 1) rotate(0) translate(4 136)">
<title>Leosac::Audit::IUpdateEvent</title>
<polygon fill="white" stroke="none" points="-4,4 -4,-136 147,-136 147,4 -4,4"/>
<!-- Node4 -->
<g id="node1" class="node"><title>Node4</title>
<polygon fill="#bfbfbf" stroke="black" points="0,-0.5 0,-19.5 143,-19.5 143,-0.5 0,-0.5"/>
<text text-anchor="middle" x="71.5" y="-7.5" font-family="Helvetica,sans-Serif" font-size="10.00">Leosac::Audit::IUpdateEvent</text>
</g>
<!-- Node5 -->
<g id="node2" class="node"><title>Node5</title>
<g id="a_node2"><a xlink:href="../../d1/d44/classLeosac_1_1Audit_1_1IAuditEntry.html" target="_top" xlink:title="Base interface to Audit object. ">
<polygon fill="white" stroke="black" points="6,-56.5 6,-75.5 137,-75.5 137,-56.5 6,-56.5"/>
<text text-anchor="middle" x="71.5" y="-63.5" font-family="Helvetica,sans-Serif" font-size="10.00">Leosac::Audit::IAuditEntry</text>
</a>
</g>
</g>
<!-- Node5&#45;&gt;Node4 -->
<g id="edge1" class="edge"><title>Node5&#45;&gt;Node4</title>
<path fill="none" stroke="midnightblue" d="M71.5,-45.8045C71.5,-36.9102 71.5,-26.7798 71.5,-19.7511"/>
<polygon fill="midnightblue" stroke="midnightblue" points="68.0001,-46.083 71.5,-56.083 75.0001,-46.083 68.0001,-46.083"/>
</g>
<!-- Node6 -->
<g id="node3" class="node"><title>Node6</title>
<g id="a_node3"><a xlink:href="../../d0/d33/classLeosac_1_1Tools_1_1IVisitable.html" target="_top" xlink:title="Base class to make an object visitable. ">
<polygon fill="white" stroke="black" points="9,-112.5 9,-131.5 134,-131.5 134,-112.5 9,-112.5"/>
<text text-anchor="middle" x="71.5" y="-119.5" font-family="Helvetica,sans-Serif" font-size="10.00">Leosac::Tools::IVisitable</text>
</a>
</g>
</g>
<!-- Node6&#45;&gt;Node5 -->
<g id="edge2" class="edge"><title>Node6&#45;&gt;Node5</title>
<path fill="none" stroke="midnightblue" d="M71.5,-101.805C71.5,-92.9102 71.5,-82.7798 71.5,-75.7511"/>
<polygon fill="midnightblue" stroke="midnightblue" points="68.0001,-102.083 71.5,-112.083 75.0001,-102.083 68.0001,-102.083"/>
</g>
</g>
</svg>
