<?xml version="1.0" encoding="UTF-8" standalone="no"?>
<!DOCTYPE svg PUBLIC "-//W3C//DTD SVG 1.1//EN"
 "http://www.w3.org/Graphics/SVG/1.1/DTD/svg11.dtd">
<!-- Generated by graphviz version 2.38.0 (20140413.2041)
 -->
<!-- Title: LEOSACException Pages: 1 -->
<svg width="286pt" height="408pt"
 viewBox="0.00 0.00 285.50 408.00" xmlns="http://www.w3.org/2000/svg" xmlns:xlink="http://www.w3.org/1999/xlink">
<g id="graph0" class="graph" transform="scale(1 1) rotate(0) translate(4 404)">
<title>LEOSACException</title>
<polygon fill="white" stroke="none" points="-4,4 -4,-404 281.5,-404 281.5,4 -4,4"/>
<!-- Node20 -->
<g id="node1" class="node"><title>Node20</title>
<polygon fill="#bfbfbf" stroke="black" points="55.5,-0.5 55.5,-19.5 156.5,-19.5 156.5,-0.5 55.5,-0.5"/>
<text text-anchor="middle" x="106" y="-7.5" font-family="Helvetica,sans-Serif" font-size="10.00">LEOSACException</text>
</g>
<!-- Node21 -->
<g id="node2" class="node"><title>Node21</title>
<g id="a_node2"><a xlink:title="STL class. ">
<polygon fill="white" stroke="#bfbfbf" points="0,-67.5 0,-86.5 78,-86.5 78,-67.5 0,-67.5"/>
<text text-anchor="middle" x="39" y="-74.5" font-family="Helvetica,sans-Serif" font-size="10.00">std::exception</text>
</a>
</g>
</g>
<!-- Node21&#45;&gt;Node20 -->
<g id="edge1" class="edge"><title>Node21&#45;&gt;Node20</title>
<path fill="none" stroke="midnightblue" d="M55.4956,-59.9968C68.635,-47.2496 86.5239,-29.8947 97.1072,-19.6273"/>
<polygon fill="midnightblue" stroke="midnightblue" points="52.7762,-57.7586 48.0359,-67.2338 57.6504,-62.7827 52.7762,-57.7586"/>
</g>
<!-- Node22 -->
<g id="node3" class="node"><title>Node22</title>
<g id="a_node3"><a xlink:href="../../d2/de3/classLeosac_1_1Tools_1_1Stacktrace.html" target="_top" xlink:title="Store information about a stacktrace at a given point in the program execution. ">
<polygon fill="white" stroke="black" points="140.5,-67.5 140.5,-86.5 271.5,-86.5 271.5,-67.5 140.5,-67.5"/>
<text text-anchor="middle" x="206" y="-74.5" font-family="Helvetica,sans-Serif" font-size="10.00">Leosac::Tools::Stacktrace</text>
</a>
</g>
</g>
<!-- Node22&#45;&gt;Node20 -->
<g id="edge2" class="edge"><title>Node22&#45;&gt;Node20</title>
<path fill="none" stroke="#9a32cd" stroke-dasharray="5,2" d="M184.106,-61.7687C164.312,-48.9026 135.814,-30.379 119.273,-19.6273"/>
<polygon fill="#9a32cd" stroke="#9a32cd" points="182.222,-64.7184 192.514,-67.2338 186.037,-58.8493 182.222,-64.7184"/>
<text text-anchor="middle" x="176.5" y="-41" font-family="Helvetica,sans-Serif" font-size="10.00"> trace_</text>
</g>
<!-- Node23 -->
<g id="node4" class="node"><title>Node23</title>
<polygon fill="white" stroke="#bfbfbf" points="173,-134.5 173,-175.5 277,-175.5 277,-134.5 173,-134.5"/>
<text text-anchor="start" x="181" y="-163.5" font-family="Helvetica,sans-Serif" font-size="10.00">std::vector&lt; Leosac</text>
<text text-anchor="start" x="181" y="-152.5" font-family="Helvetica,sans-Serif" font-size="10.00">::Tools::Stacktrace</text>
<text text-anchor="middle" x="225" y="-141.5" font-family="Helvetica,sans-Serif" font-size="10.00">::Frame &gt;</text>
</g>
<!-- Node23&#45;&gt;Node22 -->
<g id="edge3" class="edge"><title>Node23&#45;&gt;Node22</title>
<path fill="none" stroke="#9a32cd" stroke-dasharray="5,2" d="M217.613,-124.451C214.214,-110.855 210.435,-95.7393 208.138,-86.552"/>
<polygon fill="#9a32cd" stroke="#9a32cd" points="214.286,-125.576 220.107,-134.428 221.077,-123.878 214.286,-125.576"/>
<text text-anchor="middle" x="231.5" y="-108" font-family="Helvetica,sans-Serif" font-size="10.00"> stack_</text>
</g>
<!-- Node24 -->
<g id="node5" class="node"><title>Node24</title>
<g id="a_node5"><a xlink:href="../../d8/d1d/structLeosac_1_1Tools_1_1Stacktrace_1_1Frame.html" target="_top" xlink:title="Leosac::Tools::Stacktrace\l::Frame">
<polygon fill="white" stroke="black" points="146.5,-223.5 146.5,-253.5 277.5,-253.5 277.5,-223.5 146.5,-223.5"/>
<text text-anchor="start" x="154.5" y="-241.5" font-family="Helvetica,sans-Serif" font-size="10.00">Leosac::Tools::Stacktrace</text>
<text text-anchor="middle" x="212" y="-230.5" font-family="Helvetica,sans-Serif" font-size="10.00">::Frame</text>
</a>
</g>
</g>
<!-- Node24&#45;&gt;Node23 -->
<g id="edge4" class="edge"><title>Node24&#45;&gt;Node23</title>
<path fill="none" stroke="#9a32cd" stroke-dasharray="5,2" d="M215.897,-213.066C217.812,-201.061 220.088,-186.794 221.885,-175.528"/>
<polygon fill="#9a32cd" stroke="#9a32cd" points="212.383,-212.877 214.264,-223.304 219.296,-213.98 212.383,-212.877"/>
<text text-anchor="middle" x="239.5" y="-197" font-family="Helvetica,sans-Serif" font-size="10.00"> elements</text>
</g>
<!-- Node25 -->
<g id="node6" class="node"><title>Node25</title>
<g id="a_node6"><a xlink:title="STL class. ">
<polygon fill="white" stroke="#bfbfbf" points="92,-312.5 92,-331.5 152,-331.5 152,-312.5 92,-312.5"/>
<text text-anchor="middle" x="122" y="-319.5" font-family="Helvetica,sans-Serif" font-size="10.00">std::string</text>
</a>
</g>
</g>
<!-- Node25&#45;&gt;Node20 -->
<g id="edge7" class="edge"><title>Node25&#45;&gt;Node20</title>
<path fill="none" stroke="#9a32cd" stroke-dasharray="5,2" d="M116.144,-302.145C111.576,-285.756 106,-261.291 106,-239.5 106,-239.5 106,-239.5 106,-76 106,-55.9132 106,-32.3347 106,-19.8314"/>
<polygon fill="#9a32cd" stroke="#9a32cd" points="112.884,-303.463 119.065,-312.067 119.599,-301.486 112.884,-303.463"/>
<text text-anchor="middle" x="130.5" y="-152.5" font-family="Helvetica,sans-Serif" font-size="10.00"> message_</text>
</g>
<!-- Node25&#45;&gt;Node24 -->
<g id="edge5" class="edge"><title>Node25&#45;&gt;Node24</title>
<path fill="none" stroke="#9a32cd" stroke-dasharray="5,2" d="M139.45,-305.198C155.975,-290.234 180.557,-267.974 196.432,-253.597"/>
<polygon fill="#9a32cd" stroke="#9a32cd" points="136.695,-302.971 131.632,-312.278 141.393,-308.16 136.695,-302.971"/>
<text text-anchor="middle" x="196.5" y="-286" font-family="Helvetica,sans-Serif" font-size="10.00"> function_</text>
<text text-anchor="middle" x="196.5" y="-275" font-family="Helvetica,sans-Serif" font-size="10.00">file_</text>
</g>
<!-- Node26 -->
<g id="node7" class="node"><title>Node26</title>
<g id="a_node7"><a xlink:title="STL class. ">
<polygon fill="white" stroke="#bfbfbf" points="74.5,-369.5 74.5,-399.5 169.5,-399.5 169.5,-369.5 74.5,-369.5"/>
<text text-anchor="start" x="82.5" y="-387.5" font-family="Helvetica,sans-Serif" font-size="10.00">std::basic_string&lt;</text>
<text text-anchor="middle" x="122" y="-376.5" font-family="Helvetica,sans-Serif" font-size="10.00"> char &gt;</text>
</a>
</g>
</g>
<!-- Node26&#45;&gt;Node25 -->
<g id="edge6" class="edge"><title>Node26&#45;&gt;Node25</title>
<path fill="none" stroke="midnightblue" d="M122,-359.352C122,-349.513 122,-338.775 122,-331.54"/>
<polygon fill="midnightblue" stroke="midnightblue" points="118.5,-359.468 122,-369.468 125.5,-359.468 118.5,-359.468"/>
</g>
</g>
</svg>
