<?xml version="1.0" encoding="UTF-8" standalone="no"?>
<!DOCTYPE svg PUBLIC "-//W3C//DTD SVG 1.1//EN"
 "http://www.w3.org/Graphics/SVG/1.1/DTD/svg11.dtd">
<!-- Generated by graphviz version 2.38.0 (20140413.2041)
 -->
<!-- Title: src/core/audit/serializers/ScheduleEventSerializer.hpp Pages: 1 -->
<svg width="383pt" height="151pt"
 viewBox="0.00 0.00 382.50 151.00" xmlns="http://www.w3.org/2000/svg" xmlns:xlink="http://www.w3.org/1999/xlink">
<g id="graph0" class="graph" transform="scale(1 1) rotate(0) translate(4 147)">
<title>src/core/audit/serializers/ScheduleEventSerializer.hpp</title>
<polygon fill="white" stroke="none" points="-4,4 -4,-147 378.5,-147 378.5,4 -4,4"/>
<!-- Node0 -->
<g id="node1" class="node"><title>Node0</title>
<polygon fill="#bfbfbf" stroke="black" points="163.5,-112.5 163.5,-142.5 308.5,-142.5 308.5,-112.5 163.5,-112.5"/>
<text text-anchor="start" x="171.5" y="-130.5" font-family="Helvetica,sans-Serif" font-size="10.00">src/core/audit/serializers</text>
<text text-anchor="middle" x="236" y="-119.5" font-family="Helvetica,sans-Serif" font-size="10.00">/ScheduleEventSerializer.hpp</text>
</g>
<!-- Node1 -->
<g id="node2" class="node"><title>Node1</title>
<g id="a_node2"><a xlink:href="../../dc/d49/LeosacFwd_8hpp.html" target="_top" xlink:title="LeosacFwd.hpp">
<polygon fill="white" stroke="black" points="18,-56.5 18,-75.5 104,-75.5 104,-56.5 18,-56.5"/>
<text text-anchor="middle" x="61" y="-63.5" font-family="Helvetica,sans-Serif" font-size="10.00">LeosacFwd.hpp</text>
</a>
</g>
</g>
<!-- Node0&#45;&gt;Node1 -->
<g id="edge1" class="edge"><title>Node0&#45;&gt;Node1</title>
<path fill="none" stroke="midnightblue" d="M194.527,-112.399C164.42,-102.163 124.148,-88.4703 95.7299,-78.8082"/>
<polygon fill="midnightblue" stroke="midnightblue" points="96.803,-75.4763 86.2086,-75.5709 94.5496,-82.1037 96.803,-75.4763"/>
</g>
<!-- Node4 -->
<g id="node5" class="node"><title>Node4</title>
<g id="a_node5"><a xlink:href="../../d7/dcf/AuditFwd_8hpp.html" target="_top" xlink:title="core/audit/AuditFwd.hpp">
<polygon fill="white" stroke="black" points="122,-56.5 122,-75.5 244,-75.5 244,-56.5 122,-56.5"/>
<text text-anchor="middle" x="183" y="-63.5" font-family="Helvetica,sans-Serif" font-size="10.00">core/audit/AuditFwd.hpp</text>
</a>
</g>
</g>
<!-- Node0&#45;&gt;Node4 -->
<g id="edge4" class="edge"><title>Node0&#45;&gt;Node4</title>
<path fill="none" stroke="midnightblue" d="M223.44,-112.399C215.659,-103.664 205.636,-92.4126 197.516,-83.2962"/>
<polygon fill="midnightblue" stroke="midnightblue" points="199.977,-80.797 190.712,-75.6578 194.75,-85.453 199.977,-80.797"/>
</g>
<!-- Node8 -->
<g id="node9" class="node"><title>Node8</title>
<polygon fill="white" stroke="#bfbfbf" points="262.5,-56.5 262.5,-75.5 315.5,-75.5 315.5,-56.5 262.5,-56.5"/>
<text text-anchor="middle" x="289" y="-63.5" font-family="Helvetica,sans-Serif" font-size="10.00">json.hpp</text>
</g>
<!-- Node0&#45;&gt;Node8 -->
<g id="edge9" class="edge"><title>Node0&#45;&gt;Node8</title>
<path fill="none" stroke="midnightblue" d="M248.56,-112.399C256.341,-103.664 266.364,-92.4126 274.484,-83.2962"/>
<polygon fill="midnightblue" stroke="midnightblue" points="277.25,-85.453 281.288,-75.6578 272.023,-80.797 277.25,-85.453"/>
</g>
<!-- Node9 -->
<g id="node10" class="node"><title>Node9</title>
<polygon fill="white" stroke="#bfbfbf" points="333.5,-56.5 333.5,-75.5 374.5,-75.5 374.5,-56.5 333.5,-56.5"/>
<text text-anchor="middle" x="354" y="-63.5" font-family="Helvetica,sans-Serif" font-size="10.00">string</text>
</g>
<!-- Node0&#45;&gt;Node9 -->
<g id="edge10" class="edge"><title>Node0&#45;&gt;Node9</title>
<path fill="none" stroke="midnightblue" d="M263.964,-112.399C283.321,-102.639 308.908,-89.7373 327.856,-80.1826"/>
<polygon fill="midnightblue" stroke="midnightblue" points="329.477,-83.2854 336.83,-75.6578 326.325,-77.035 329.477,-83.2854"/>
</g>
<!-- Node2 -->
<g id="node3" class="node"><title>Node2</title>
<polygon fill="white" stroke="#bfbfbf" points="62,-0.5 62,-19.5 114,-19.5 114,-0.5 62,-0.5"/>
<text text-anchor="middle" x="88" y="-7.5" font-family="Helvetica,sans-Serif" font-size="10.00">memory</text>
</g>
<!-- Node1&#45;&gt;Node2 -->
<g id="edge2" class="edge"><title>Node1&#45;&gt;Node2</title>
<path fill="none" stroke="midnightblue" d="M65.4585,-56.083C69.1543,-48.6913 74.5234,-37.9533 79.0945,-28.8111"/>
<polygon fill="midnightblue" stroke="midnightblue" points="82.2828,-30.2606 83.6245,-19.7511 76.0218,-27.1301 82.2828,-30.2606"/>
</g>
<!-- Node3 -->
<g id="node4" class="node"><title>Node3</title>
<polygon fill="white" stroke="#bfbfbf" points="0,-0.5 0,-19.5 44,-19.5 44,-0.5 0,-0.5"/>
<text text-anchor="middle" x="22" y="-7.5" font-family="Helvetica,sans-Serif" font-size="10.00">vector</text>
</g>
<!-- Node1&#45;&gt;Node3 -->
<g id="edge3" class="edge"><title>Node1&#45;&gt;Node3</title>
<path fill="none" stroke="midnightblue" d="M54.5599,-56.083C49.0511,-48.4554 40.9688,-37.2645 34.235,-27.9408"/>
<polygon fill="midnightblue" stroke="midnightblue" points="37.0126,-25.8087 28.3202,-19.7511 31.3378,-29.9071 37.0126,-25.8087"/>
</g>
<!-- Node4&#45;&gt;Node2 -->
<g id="edge7" class="edge"><title>Node4&#45;&gt;Node2</title>
<path fill="none" stroke="midnightblue" d="M167.737,-56.324C152.779,-47.8215 129.745,-34.7288 112.273,-24.7975"/>
<polygon fill="midnightblue" stroke="midnightblue" points="113.649,-21.5534 103.226,-19.6545 110.19,-27.639 113.649,-21.5534"/>
</g>
<!-- Node5 -->
<g id="node6" class="node"><title>Node5</title>
<polygon fill="white" stroke="#bfbfbf" points="132.5,-0.5 132.5,-19.5 181.5,-19.5 181.5,-0.5 132.5,-0.5"/>
<text text-anchor="middle" x="157" y="-7.5" font-family="Helvetica,sans-Serif" font-size="10.00">cstddef</text>
</g>
<!-- Node4&#45;&gt;Node5 -->
<g id="edge5" class="edge"><title>Node4&#45;&gt;Node5</title>
<path fill="none" stroke="midnightblue" d="M178.707,-56.083C175.148,-48.6913 169.978,-37.9533 165.576,-28.8111"/>
<polygon fill="midnightblue" stroke="midnightblue" points="168.705,-27.2427 161.213,-19.7511 162.398,-30.2795 168.705,-27.2427"/>
</g>
<!-- Node6 -->
<g id="node7" class="node"><title>Node6</title>
<polygon fill="white" stroke="#bfbfbf" points="199.5,-0.5 199.5,-19.5 264.5,-19.5 264.5,-0.5 199.5,-0.5"/>
<text text-anchor="middle" x="232" y="-7.5" font-family="Helvetica,sans-Serif" font-size="10.00">flagset.hpp</text>
</g>
<!-- Node4&#45;&gt;Node6 -->
<g id="edge6" class="edge"><title>Node4&#45;&gt;Node6</title>
<path fill="none" stroke="midnightblue" d="M191.091,-56.083C198.155,-48.2982 208.588,-36.8015 217.149,-27.3665"/>
<polygon fill="midnightblue" stroke="midnightblue" points="219.931,-29.5087 224.059,-19.7511 214.747,-24.8047 219.931,-29.5087"/>
</g>
<!-- Node7 -->
<g id="node8" class="node"><title>Node7</title>
<polygon fill="white" stroke="#bfbfbf" points="283,-0.5 283,-19.5 369,-19.5 369,-0.5 283,-0.5"/>
<text text-anchor="middle" x="326" y="-7.5" font-family="Helvetica,sans-Serif" font-size="10.00">odb/lazy&#45;ptr.hxx</text>
</g>
<!-- Node4&#45;&gt;Node7 -->
<g id="edge8" class="edge"><title>Node4&#45;&gt;Node7</title>
<path fill="none" stroke="midnightblue" d="M205.659,-56.4435C229.402,-47.4776 266.909,-33.314 293.738,-23.1827"/>
<polygon fill="midnightblue" stroke="midnightblue" points="295.329,-26.3235 303.447,-19.5164 292.856,-19.7749 295.329,-26.3235"/>
</g>
</g>
</svg>
