<?xml version="1.0" encoding="UTF-8" standalone="no"?>
<!DOCTYPE svg PUBLIC "-//W3C//DTD SVG 1.1//EN"
 "http://www.w3.org/Graphics/SVG/1.1/DTD/svg11.dtd">
<!-- Generated by graphviz version 2.38.0 (20140413.2041)
 -->
<!-- Title: src/core/auth/Zone.hpp Pages: 1 -->
<svg width="568pt" height="95pt"
 viewBox="0.00 0.00 567.50 95.00" xmlns="http://www.w3.org/2000/svg" xmlns:xlink="http://www.w3.org/1999/xlink">
<g id="graph0" class="graph" transform="scale(1 1) rotate(0) translate(4 91)">
<title>src/core/auth/Zone.hpp</title>
<polygon fill="white" stroke="none" points="-4,4 -4,-91 563.5,-91 563.5,4 -4,4"/>
<!-- Node9 -->
<g id="node1" class="node"><title>Node9</title>
<polygon fill="#bfbfbf" stroke="black" points="233,-67.5 233,-86.5 350,-86.5 350,-67.5 233,-67.5"/>
<text text-anchor="middle" x="291.5" y="-74.5" font-family="Helvetica,sans-Serif" font-size="10.00">src/core/auth/Zone.hpp</text>
</g>
<!-- Node10 -->
<g id="node2" class="node"><title>Node10</title>
<g id="a_node2"><a xlink:href="../../d5/db2/ZoneEvent_8cpp.html" target="_top" xlink:title="src/core/audit/ZoneEvent.cpp">
<polygon fill="white" stroke="black" points="0,-6 0,-25 145,-25 145,-6 0,-6"/>
<text text-anchor="middle" x="72.5" y="-13" font-family="Helvetica,sans-Serif" font-size="10.00">src/core/audit/ZoneEvent.cpp</text>
</a>
</g>
</g>
<!-- Node9&#45;&gt;Node10 -->
<g id="edge1" class="edge"><title>Node9&#45;&gt;Node10</title>
<path fill="none" stroke="midnightblue" d="M250.359,-64.8225C207.818,-53.2645 142.334,-35.4732 103.819,-25.0091"/>
<polygon fill="midnightblue" stroke="midnightblue" points="249.555,-68.2307 260.123,-67.4751 251.39,-61.4756 249.555,-68.2307"/>
</g>
<!-- Node11 -->
<g id="node3" class="node"><title>Node11</title>
<g id="a_node3"><a xlink:href="../../da/dbe/ZoneSerializer_8cpp.html" target="_top" xlink:title="src/core/auth/serializers\l/ZoneSerializer.cpp">
<polygon fill="white" stroke="black" points="163,-0.5 163,-30.5 284,-30.5 284,-0.5 163,-0.5"/>
<text text-anchor="start" x="171" y="-18.5" font-family="Helvetica,sans-Serif" font-size="10.00">src/core/auth/serializers</text>
<text text-anchor="middle" x="223.5" y="-7.5" font-family="Helvetica,sans-Serif" font-size="10.00">/ZoneSerializer.cpp</text>
</a>
</g>
</g>
<!-- Node9&#45;&gt;Node11 -->
<g id="edge2" class="edge"><title>Node9&#45;&gt;Node11</title>
<path fill="none" stroke="midnightblue" d="M273.953,-60.6459C263.324,-51.3456 249.868,-39.572 239.526,-30.523"/>
<polygon fill="midnightblue" stroke="midnightblue" points="271.927,-63.524 281.757,-67.4751 276.536,-58.256 271.927,-63.524"/>
</g>
<!-- Node12 -->
<g id="node4" class="node"><title>Node12</title>
<g id="a_node4"><a xlink:href="../../db/d53/Zone_8cpp.html" target="_top" xlink:title="src/core/auth/Zone.cpp">
<polygon fill="white" stroke="black" points="302,-6 302,-25 419,-25 419,-6 302,-6"/>
<text text-anchor="middle" x="360.5" y="-13" font-family="Helvetica,sans-Serif" font-size="10.00">src/core/auth/Zone.cpp</text>
</a>
</g>
</g>
<!-- Node9&#45;&gt;Node12 -->
<g id="edge3" class="edge"><title>Node9&#45;&gt;Node12</title>
<path fill="none" stroke="midnightblue" d="M309.301,-60.6496C322.456,-49.3058 339.88,-34.2811 350.632,-25.0091"/>
<polygon fill="midnightblue" stroke="midnightblue" points="306.674,-58.294 301.386,-67.4751 311.245,-63.5952 306.674,-58.294"/>
</g>
<!-- Node13 -->
<g id="node5" class="node"><title>Node13</title>
<g id="a_node5"><a xlink:href="../../de/dd7/ZoneCRUD_8cpp.html" target="_top" xlink:title="src/modules/websock\l&#45;api/api/ZoneCRUD.cpp">
<polygon fill="white" stroke="black" points="437.5,-0.5 437.5,-30.5 559.5,-30.5 559.5,-0.5 437.5,-0.5"/>
<text text-anchor="start" x="445.5" y="-18.5" font-family="Helvetica,sans-Serif" font-size="10.00">src/modules/websock</text>
<text text-anchor="middle" x="498.5" y="-7.5" font-family="Helvetica,sans-Serif" font-size="10.00">&#45;api/api/ZoneCRUD.cpp</text>
</a>
</g>
</g>
<!-- Node9&#45;&gt;Node13 -->
<g id="edge4" class="edge"><title>Node9&#45;&gt;Node13</title>
<path fill="none" stroke="midnightblue" d="M331.129,-64.609C364.897,-54.9028 413.557,-40.9159 449.714,-30.523"/>
<polygon fill="midnightblue" stroke="midnightblue" points="329.802,-61.3487 321.158,-67.4751 331.736,-68.0763 329.802,-61.3487"/>
</g>
</g>
</svg>
