<?xml version="1.0" encoding="UTF-8" standalone="no"?>
<!DOCTYPE svg PUBLIC "-//W3C//DTD SVG 1.1//EN"
 "http://www.w3.org/Graphics/SVG/1.1/DTD/svg11.dtd">
<!-- Generated by graphviz version 2.38.0 (20140413.2041)
 -->
<!-- Title: src/core/auth/serializers/UserSerializer.hpp Pages: 1 -->
<svg width="361pt" height="151pt"
 viewBox="0.00 0.00 360.50 151.00" xmlns="http://www.w3.org/2000/svg" xmlns:xlink="http://www.w3.org/1999/xlink">
<g id="graph0" class="graph" transform="scale(1 1) rotate(0) translate(4 147)">
<title>src/core/auth/serializers/UserSerializer.hpp</title>
<polygon fill="white" stroke="none" points="-4,4 -4,-147 356.5,-147 356.5,4 -4,4"/>
<!-- Node0 -->
<g id="node1" class="node"><title>Node0</title>
<polygon fill="#bfbfbf" stroke="black" points="154.5,-112.5 154.5,-142.5 275.5,-142.5 275.5,-112.5 154.5,-112.5"/>
<text text-anchor="start" x="162.5" y="-130.5" font-family="Helvetica,sans-Serif" font-size="10.00">src/core/auth/serializers</text>
<text text-anchor="middle" x="215" y="-119.5" font-family="Helvetica,sans-Serif" font-size="10.00">/UserSerializer.hpp</text>
</g>
<!-- Node1 -->
<g id="node2" class="node"><title>Node1</title>
<g id="a_node2"><a xlink:href="../../dc/d49/LeosacFwd_8hpp.html" target="_top" xlink:title="LeosacFwd.hpp">
<polygon fill="white" stroke="black" points="0,-56.5 0,-75.5 86,-75.5 86,-56.5 0,-56.5"/>
<text text-anchor="middle" x="43" y="-63.5" font-family="Helvetica,sans-Serif" font-size="10.00">LeosacFwd.hpp</text>
</a>
</g>
</g>
<!-- Node0&#45;&gt;Node1 -->
<g id="edge1" class="edge"><title>Node0&#45;&gt;Node1</title>
<path fill="none" stroke="midnightblue" d="M174.238,-112.399C144.776,-102.207 105.411,-88.5898 77.5011,-78.935"/>
<polygon fill="midnightblue" stroke="midnightblue" points="78.3712,-75.5325 67.7764,-75.5709 76.0827,-82.1479 78.3712,-75.5325"/>
</g>
<!-- Node4 -->
<g id="node5" class="node"><title>Node4</title>
<g id="a_node5"><a xlink:href="../../d3/d6f/AuthFwd_8hpp.html" target="_top" xlink:title="core/auth/AuthFwd.hpp">
<polygon fill="white" stroke="black" points="104,-56.5 104,-75.5 222,-75.5 222,-56.5 104,-56.5"/>
<text text-anchor="middle" x="163" y="-63.5" font-family="Helvetica,sans-Serif" font-size="10.00">core/auth/AuthFwd.hpp</text>
</a>
</g>
</g>
<!-- Node0&#45;&gt;Node4 -->
<g id="edge4" class="edge"><title>Node0&#45;&gt;Node4</title>
<path fill="none" stroke="midnightblue" d="M202.677,-112.399C195.043,-103.664 185.209,-92.4126 177.242,-83.2962"/>
<polygon fill="midnightblue" stroke="midnightblue" points="179.782,-80.8843 170.566,-75.6578 174.512,-85.4907 179.782,-80.8843"/>
</g>
<!-- Node7 -->
<g id="node8" class="node"><title>Node7</title>
<polygon fill="white" stroke="#bfbfbf" points="240.5,-56.5 240.5,-75.5 293.5,-75.5 293.5,-56.5 240.5,-56.5"/>
<text text-anchor="middle" x="267" y="-63.5" font-family="Helvetica,sans-Serif" font-size="10.00">json.hpp</text>
</g>
<!-- Node0&#45;&gt;Node7 -->
<g id="edge8" class="edge"><title>Node0&#45;&gt;Node7</title>
<path fill="none" stroke="midnightblue" d="M227.323,-112.399C234.957,-103.664 244.791,-92.4126 252.758,-83.2962"/>
<polygon fill="midnightblue" stroke="midnightblue" points="255.488,-85.4907 259.434,-75.6578 250.218,-80.8843 255.488,-85.4907"/>
</g>
<!-- Node8 -->
<g id="node9" class="node"><title>Node8</title>
<polygon fill="white" stroke="#bfbfbf" points="311.5,-56.5 311.5,-75.5 352.5,-75.5 352.5,-56.5 311.5,-56.5"/>
<text text-anchor="middle" x="332" y="-63.5" font-family="Helvetica,sans-Serif" font-size="10.00">string</text>
</g>
<!-- Node0&#45;&gt;Node8 -->
<g id="edge9" class="edge"><title>Node0&#45;&gt;Node8</title>
<path fill="none" stroke="midnightblue" d="M242.727,-112.399C261.832,-102.684 287.058,-89.8551 305.82,-80.3137"/>
<polygon fill="midnightblue" stroke="midnightblue" points="307.648,-83.3106 314.975,-75.6578 304.475,-77.071 307.648,-83.3106"/>
</g>
<!-- Node2 -->
<g id="node3" class="node"><title>Node2</title>
<polygon fill="white" stroke="#bfbfbf" points="68,-0.5 68,-19.5 120,-19.5 120,-0.5 68,-0.5"/>
<text text-anchor="middle" x="94" y="-7.5" font-family="Helvetica,sans-Serif" font-size="10.00">memory</text>
</g>
<!-- Node1&#45;&gt;Node2 -->
<g id="edge2" class="edge"><title>Node1&#45;&gt;Node2</title>
<path fill="none" stroke="midnightblue" d="M51.4216,-56.083C58.8482,-48.2195 69.8517,-36.5688 78.8122,-27.0813"/>
<polygon fill="midnightblue" stroke="midnightblue" points="81.4134,-29.4244 85.7351,-19.7511 76.3243,-24.618 81.4134,-29.4244"/>
</g>
<!-- Node3 -->
<g id="node4" class="node"><title>Node3</title>
<polygon fill="white" stroke="#bfbfbf" points="6,-0.5 6,-19.5 50,-19.5 50,-0.5 6,-0.5"/>
<text text-anchor="middle" x="28" y="-7.5" font-family="Helvetica,sans-Serif" font-size="10.00">vector</text>
</g>
<!-- Node1&#45;&gt;Node3 -->
<g id="edge3" class="edge"><title>Node1&#45;&gt;Node3</title>
<path fill="none" stroke="midnightblue" d="M40.5231,-56.083C38.5135,-48.8486 35.6135,-38.4087 33.1102,-29.3968"/>
<polygon fill="midnightblue" stroke="midnightblue" points="36.4797,-28.4495 30.4309,-19.7511 29.7351,-30.323 36.4797,-28.4495"/>
</g>
<!-- Node4&#45;&gt;Node2 -->
<g id="edge6" class="edge"><title>Node4&#45;&gt;Node2</title>
<path fill="none" stroke="midnightblue" d="M151.914,-56.324C141.514,-48.1849 125.739,-35.8395 113.278,-26.0874"/>
<polygon fill="midnightblue" stroke="midnightblue" points="115.32,-23.2407 105.288,-19.8339 111.006,-28.7533 115.32,-23.2407"/>
</g>
<!-- Node5 -->
<g id="node6" class="node"><title>Node5</title>
<polygon fill="white" stroke="#bfbfbf" points="138.5,-0.5 138.5,-19.5 187.5,-19.5 187.5,-0.5 138.5,-0.5"/>
<text text-anchor="middle" x="163" y="-7.5" font-family="Helvetica,sans-Serif" font-size="10.00">cstddef</text>
</g>
<!-- Node4&#45;&gt;Node5 -->
<g id="edge5" class="edge"><title>Node4&#45;&gt;Node5</title>
<path fill="none" stroke="midnightblue" d="M163,-56.083C163,-49.0059 163,-38.8611 163,-29.9865"/>
<polygon fill="midnightblue" stroke="midnightblue" points="166.5,-29.751 163,-19.7511 159.5,-29.7511 166.5,-29.751"/>
</g>
<!-- Node6 -->
<g id="node7" class="node"><title>Node6</title>
<polygon fill="white" stroke="#bfbfbf" points="206,-0.5 206,-19.5 292,-19.5 292,-0.5 206,-0.5"/>
<text text-anchor="middle" x="249" y="-7.5" font-family="Helvetica,sans-Serif" font-size="10.00">odb/lazy&#45;ptr.hxx</text>
</g>
<!-- Node4&#45;&gt;Node6 -->
<g id="edge7" class="edge"><title>Node4&#45;&gt;Node6</title>
<path fill="none" stroke="midnightblue" d="M176.817,-56.324C190.233,-47.9002 210.824,-34.9709 226.586,-25.0741"/>
<polygon fill="midnightblue" stroke="midnightblue" points="228.609,-27.9364 235.217,-19.6545 224.887,-22.0081 228.609,-27.9364"/>
</g>
</g>
</svg>
