<?xml version="1.0" encoding="UTF-8" standalone="no"?>
<!DOCTYPE svg PUBLIC "-//W3C//DTD SVG 1.1//EN"
 "http://www.w3.org/Graphics/SVG/1.1/DTD/svg11.dtd">
<!-- Generated by graphviz version 2.38.0 (20140413.2041)
 -->
<!-- Title: Leosac::Tools::ScheduleMapping Pages: 1 -->
<svg width="533pt" height="274pt"
 viewBox="0.00 0.00 533.00 274.00" xmlns="http://www.w3.org/2000/svg" xmlns:xlink="http://www.w3.org/1999/xlink">
<g id="graph0" class="graph" transform="scale(1 1) rotate(0) translate(4 270)">
<title>Leosac::Tools::ScheduleMapping</title>
<polygon fill="white" stroke="none" points="-4,4 -4,-270 529,-270 529,4 -4,4"/>
<!-- Node2 -->
<g id="node1" class="node"><title>Node2</title>
<polygon fill="#bfbfbf" stroke="black" points="364,-118 364,-137 525,-137 525,-118 364,-118"/>
<text text-anchor="middle" x="444.5" y="-125" font-family="Helvetica,sans-Serif" font-size="10.00">Leosac::Tools::ScheduleMapping</text>
</g>
<!-- Node3 -->
<g id="node2" class="node"><title>Node3</title>
<polygon fill="white" stroke="#bfbfbf" points="132,-235.5 132,-265.5 290,-265.5 290,-235.5 132,-235.5"/>
<text text-anchor="start" x="140" y="-253.5" font-family="Helvetica,sans-Serif" font-size="10.00">std::enable_shared</text>
<text text-anchor="middle" x="211" y="-242.5" font-family="Helvetica,sans-Serif" font-size="10.00">_from_this&lt; ScheduleMapping &gt;</text>
</g>
<!-- Node3&#45;&gt;Node2 -->
<g id="edge1" class="edge"><title>Node3&#45;&gt;Node2</title>
<path fill="none" stroke="midnightblue" d="M277.291,-231.893C281.643,-230.2 285.916,-228.401 290,-226.5 346.061,-200.404 405.779,-156.623 431.056,-137.239"/>
<polygon fill="midnightblue" stroke="midnightblue" points="275.857,-228.692 267.681,-235.429 278.274,-235.261 275.857,-228.692"/>
</g>
<!-- Node4 -->
<g id="node3" class="node"><title>Node4</title>
<polygon fill="white" stroke="#bfbfbf" points="162,-186.5 162,-216.5 260,-216.5 260,-186.5 162,-186.5"/>
<text text-anchor="start" x="170" y="-204.5" font-family="Helvetica,sans-Serif" font-size="10.00">std::vector&lt; Auth::</text>
<text text-anchor="middle" x="211" y="-193.5" font-family="Helvetica,sans-Serif" font-size="10.00">GroupLWPtr &gt;</text>
</g>
<!-- Node4&#45;&gt;Node2 -->
<g id="edge2" class="edge"><title>Node4&#45;&gt;Node2</title>
<path fill="none" stroke="#9a32cd" stroke-dasharray="5,2" d="M268.92,-183.305C314.713,-168.667 377.24,-148.68 413.703,-137.025"/>
<polygon fill="#9a32cd" stroke="#9a32cd" points="267.586,-180.057 259.127,-186.436 269.717,-186.725 267.586,-180.057"/>
<text text-anchor="middle" x="327" y="-172.5" font-family="Helvetica,sans-Serif" font-size="10.00"> groups_</text>
</g>
<!-- Node5 -->
<g id="node4" class="node"><title>Node5</title>
<polygon fill="white" stroke="#bfbfbf" points="162,-137.5 162,-167.5 260,-167.5 260,-137.5 162,-137.5"/>
<text text-anchor="start" x="170" y="-155.5" font-family="Helvetica,sans-Serif" font-size="10.00">std::vector&lt; Auth::</text>
<text text-anchor="middle" x="211" y="-144.5" font-family="Helvetica,sans-Serif" font-size="10.00">UserLWPtr &gt;</text>
</g>
<!-- Node5&#45;&gt;Node2 -->
<g id="edge3" class="edge"><title>Node5&#45;&gt;Node2</title>
<path fill="none" stroke="#9a32cd" stroke-dasharray="5,2" d="M270.389,-146.194C298.717,-143.135 333.18,-139.414 363.875,-136.099"/>
<polygon fill="#9a32cd" stroke="#9a32cd" points="269.815,-142.736 260.248,-147.29 270.566,-149.696 269.815,-142.736"/>
<text text-anchor="middle" x="327" y="-144.5" font-family="Helvetica,sans-Serif" font-size="10.00"> users_</text>
</g>
<!-- Node6 -->
<g id="node5" class="node"><title>Node6</title>
<polygon fill="white" stroke="#bfbfbf" points="161.5,-88.5 161.5,-118.5 260.5,-118.5 260.5,-88.5 161.5,-88.5"/>
<text text-anchor="start" x="169.5" y="-106.5" font-family="Helvetica,sans-Serif" font-size="10.00">std::vector&lt; Cred::</text>
<text text-anchor="middle" x="211" y="-95.5" font-family="Helvetica,sans-Serif" font-size="10.00">CredentialLWPtr &gt;</text>
</g>
<!-- Node6&#45;&gt;Node2 -->
<g id="edge4" class="edge"><title>Node6&#45;&gt;Node2</title>
<path fill="none" stroke="#9a32cd" stroke-dasharray="5,2" d="M270.628,-109.578C298.826,-112.501 333.059,-116.05 363.599,-119.217"/>
<polygon fill="#9a32cd" stroke="#9a32cd" points="270.838,-106.081 260.53,-108.531 270.116,-113.044 270.838,-106.081"/>
<text text-anchor="middle" x="327" y="-120.5" font-family="Helvetica,sans-Serif" font-size="10.00"> creds_</text>
</g>
<!-- Node7 -->
<g id="node6" class="node"><title>Node7</title>
<g id="a_node6"><a xlink:title="STL class. ">
<polygon fill="white" stroke="#bfbfbf" points="181,-50 181,-69 241,-69 241,-50 181,-50"/>
<text text-anchor="middle" x="211" y="-57" font-family="Helvetica,sans-Serif" font-size="10.00">std::string</text>
</a>
</g>
</g>
<!-- Node7&#45;&gt;Node2 -->
<g id="edge5" class="edge"><title>Node7&#45;&gt;Node2</title>
<path fill="none" stroke="#9a32cd" stroke-dasharray="5,2" d="M251.121,-68.4619C263.594,-71.4708 277.421,-74.9648 290,-78.5 334.301,-90.9501 385.05,-107.632 415.667,-117.967"/>
<polygon fill="#9a32cd" stroke="#9a32cd" points="251.557,-64.9681 241.019,-66.0582 249.937,-71.778 251.557,-64.9681"/>
<text text-anchor="middle" x="327" y="-98.5" font-family="Helvetica,sans-Serif" font-size="10.00"> alias_</text>
</g>
<!-- Node8 -->
<g id="node7" class="node"><title>Node8</title>
<g id="a_node7"><a xlink:title="STL class. ">
<polygon fill="white" stroke="#bfbfbf" points="0,-44.5 0,-74.5 95,-74.5 95,-44.5 0,-44.5"/>
<text text-anchor="start" x="8" y="-62.5" font-family="Helvetica,sans-Serif" font-size="10.00">std::basic_string&lt;</text>
<text text-anchor="middle" x="47.5" y="-51.5" font-family="Helvetica,sans-Serif" font-size="10.00"> char &gt;</text>
</a>
</g>
</g>
<!-- Node8&#45;&gt;Node7 -->
<g id="edge6" class="edge"><title>Node8&#45;&gt;Node7</title>
<path fill="none" stroke="midnightblue" d="M105.485,-59.5C130.885,-59.5 159.729,-59.5 180.672,-59.5"/>
<polygon fill="midnightblue" stroke="midnightblue" points="105.213,-56.0001 95.2125,-59.5 105.212,-63.0001 105.213,-56.0001"/>
</g>
<!-- Node9 -->
<g id="node8" class="node"><title>Node9</title>
<polygon fill="white" stroke="#bfbfbf" points="162,-0.5 162,-30.5 260,-30.5 260,-0.5 162,-0.5"/>
<text text-anchor="start" x="170" y="-18.5" font-family="Helvetica,sans-Serif" font-size="10.00">std::vector&lt; Auth::</text>
<text text-anchor="middle" x="211" y="-7.5" font-family="Helvetica,sans-Serif" font-size="10.00">DoorLWPtr &gt;</text>
</g>
<!-- Node9&#45;&gt;Node2 -->
<g id="edge7" class="edge"><title>Node9&#45;&gt;Node2</title>
<path fill="none" stroke="#9a32cd" stroke-dasharray="5,2" d="M270.199,-32.8607C276.942,-35.2519 283.667,-37.8149 290,-40.5 343.866,-63.337 402.801,-100.526 429.256,-117.939"/>
<polygon fill="#9a32cd" stroke="#9a32cd" points="270.946,-29.417 260.352,-29.4861 268.677,-36.039 270.946,-29.417"/>
<text text-anchor="middle" x="327" y="-69.5" font-family="Helvetica,sans-Serif" font-size="10.00"> doors_</text>
</g>
</g>
</svg>
