<?xml version="1.0" encoding="UTF-8" standalone="no"?>
<!DOCTYPE svg PUBLIC "-//W3C//DTD SVG 1.1//EN"
 "http://www.w3.org/Graphics/SVG/1.1/DTD/svg11.dtd">
<!-- Generated by graphviz version 2.38.0 (20140413.2041)
 -->
<!-- Title: src/modules/pifacedigital/PFDigitalPin.hpp Pages: 1 -->
<svg width="872pt" height="319pt"
 viewBox="0.00 0.00 872.00 319.00" xmlns="http://www.w3.org/2000/svg" xmlns:xlink="http://www.w3.org/1999/xlink">
<g id="graph0" class="graph" transform="scale(1 1) rotate(0) translate(4 315)">
<title>src/modules/pifacedigital/PFDigitalPin.hpp</title>
<polygon fill="white" stroke="none" points="-4,4 -4,-315 868,-315 868,4 -4,4"/>
<!-- Node0 -->
<g id="node1" class="node"><title>Node0</title>
<polygon fill="#bfbfbf" stroke="black" points="637,-280.5 637,-310.5 762,-310.5 762,-280.5 637,-280.5"/>
<text text-anchor="start" x="645" y="-298.5" font-family="Helvetica,sans-Serif" font-size="10.00">src/modules/pifacedigital</text>
<text text-anchor="middle" x="699.5" y="-287.5" font-family="Helvetica,sans-Serif" font-size="10.00">/PFDigitalPin.hpp</text>
</g>
<!-- Node1 -->
<g id="node2" class="node"><title>Node1</title>
<g id="a_node2"><a xlink:href="../../d9/d02/GPIO_8hpp.html" target="_top" xlink:title="hardware/GPIO.hpp">
<polygon fill="white" stroke="black" points="442,-224.5 442,-243.5 545,-243.5 545,-224.5 442,-224.5"/>
<text text-anchor="middle" x="493.5" y="-231.5" font-family="Helvetica,sans-Serif" font-size="10.00">hardware/GPIO.hpp</text>
</a>
</g>
</g>
<!-- Node0&#45;&gt;Node1 -->
<g id="edge1" class="edge"><title>Node0&#45;&gt;Node1</title>
<path fill="none" stroke="midnightblue" d="M650.942,-280.475C614.937,-270.075 566.477,-256.078 532.872,-246.372"/>
<polygon fill="midnightblue" stroke="midnightblue" points="533.529,-242.919 522.951,-243.506 531.587,-249.644 533.529,-242.919"/>
</g>
<!-- Node10 -->
<g id="node11" class="node"><title>Node10</title>
<polygon fill="white" stroke="#bfbfbf" points="654,-0.5 654,-19.5 695,-19.5 695,-0.5 654,-0.5"/>
<text text-anchor="middle" x="674.5" y="-7.5" font-family="Helvetica,sans-Serif" font-size="10.00">string</text>
</g>
<!-- Node0&#45;&gt;Node10 -->
<g id="edge22" class="edge"><title>Node0&#45;&gt;Node10</title>
<path fill="none" stroke="midnightblue" d="M694.441,-280.487C687.136,-258.965 674.5,-216.34 674.5,-179 674.5,-179 674.5,-179 674.5,-121 674.5,-88.948 674.5,-51.6426 674.5,-29.7489"/>
<polygon fill="midnightblue" stroke="midnightblue" points="678,-29.5577 674.5,-19.5578 671,-29.5578 678,-29.5577"/>
</g>
<!-- Node13 -->
<g id="node14" class="node"><title>Node13</title>
<polygon fill="white" stroke="#bfbfbf" points="702.5,-224.5 702.5,-243.5 748.5,-243.5 748.5,-224.5 702.5,-224.5"/>
<text text-anchor="middle" x="725.5" y="-231.5" font-family="Helvetica,sans-Serif" font-size="10.00">chrono</text>
</g>
<!-- Node0&#45;&gt;Node13 -->
<g id="edge21" class="edge"><title>Node0&#45;&gt;Node13</title>
<path fill="none" stroke="midnightblue" d="M705.662,-280.399C709.245,-272.199 713.797,-261.781 717.637,-252.994"/>
<polygon fill="midnightblue" stroke="midnightblue" points="720.92,-254.223 721.717,-243.658 714.505,-251.42 720.92,-254.223"/>
</g>
<!-- Node14 -->
<g id="node15" class="node"><title>Node14</title>
<polygon fill="white" stroke="#bfbfbf" points="767,-224.5 767,-243.5 864,-243.5 864,-224.5 767,-224.5"/>
<text text-anchor="middle" x="815.5" y="-231.5" font-family="Helvetica,sans-Serif" font-size="10.00">zmqpp/zmqpp.hpp</text>
</g>
<!-- Node0&#45;&gt;Node14 -->
<g id="edge23" class="edge"><title>Node0&#45;&gt;Node14</title>
<path fill="none" stroke="midnightblue" d="M726.99,-280.399C745.932,-270.684 770.942,-257.855 789.544,-248.314"/>
<polygon fill="midnightblue" stroke="midnightblue" points="791.321,-251.336 798.621,-243.658 788.126,-245.108 791.321,-251.336"/>
</g>
<!-- Node2 -->
<g id="node3" class="node"><title>Node2</title>
<g id="a_node3"><a xlink:href="../../da/d14/Device_8hpp.html" target="_top" xlink:title="hardware/Device.hpp">
<polygon fill="white" stroke="black" points="356,-168.5 356,-187.5 465,-187.5 465,-168.5 356,-168.5"/>
<text text-anchor="middle" x="410.5" y="-175.5" font-family="Helvetica,sans-Serif" font-size="10.00">hardware/Device.hpp</text>
</a>
</g>
</g>
<!-- Node1&#45;&gt;Node2 -->
<g id="edge2" class="edge"><title>Node1&#45;&gt;Node2</title>
<path fill="none" stroke="midnightblue" d="M480.165,-224.324C467.338,-215.979 447.715,-203.212 432.56,-193.352"/>
<polygon fill="midnightblue" stroke="midnightblue" points="434.093,-190.174 423.802,-187.655 430.276,-196.042 434.093,-190.174"/>
</g>
<!-- Node3 -->
<g id="node4" class="node"><title>Node3</title>
<g id="a_node4"><a xlink:href="../../d9/dc8/HardwareFwd_8hpp.html" target="_top" xlink:title="hardware/HardwareFwd.hpp">
<polygon fill="white" stroke="black" points="160,-112.5 160,-131.5 299,-131.5 299,-112.5 160,-112.5"/>
<text text-anchor="middle" x="229.5" y="-119.5" font-family="Helvetica,sans-Serif" font-size="10.00">hardware/HardwareFwd.hpp</text>
</a>
</g>
</g>
<!-- Node1&#45;&gt;Node3 -->
<g id="edge16" class="edge"><title>Node1&#45;&gt;Node3</title>
<path fill="none" stroke="midnightblue" d="M458.315,-224.459C428.067,-216.594 383.588,-203.771 346.5,-188 311.919,-173.294 274.338,-151.229 251.348,-136.971"/>
<polygon fill="midnightblue" stroke="midnightblue" points="253.053,-133.91 242.722,-131.562 249.335,-139.84 253.053,-133.91"/>
</g>
<!-- Node9 -->
<g id="node10" class="node"><title>Node9</title>
<polygon fill="white" stroke="#bfbfbf" points="0,-0.5 0,-19.5 73,-19.5 73,-0.5 0,-0.5"/>
<text text-anchor="middle" x="36.5" y="-7.5" font-family="Helvetica,sans-Serif" font-size="10.00">odb/core.hxx</text>
</g>
<!-- Node1&#45;&gt;Node9 -->
<g id="edge19" class="edge"><title>Node1&#45;&gt;Node9</title>
<path fill="none" stroke="midnightblue" d="M441.873,-227.364C371.08,-217.617 242.224,-192.492 150.5,-132 106.51,-102.989 67.281,-53.8124 48.3975,-27.9909"/>
<polygon fill="midnightblue" stroke="midnightblue" points="51.0622,-25.7009 42.3897,-19.615 45.3741,-29.7808 51.0622,-25.7009"/>
</g>
<!-- Node1&#45;&gt;Node10 -->
<g id="edge20" class="edge"><title>Node1&#45;&gt;Node10</title>
<path fill="none" stroke="midnightblue" d="M507.892,-224.361C532.99,-208.687 585.17,-173.335 617.5,-132 642.798,-99.6558 660.343,-54.2617 668.776,-29.2787"/>
<polygon fill="midnightblue" stroke="midnightblue" points="672.147,-30.2293 671.917,-19.637 665.491,-28.0613 672.147,-30.2293"/>
</g>
<!-- Node11 -->
<g id="node12" class="node"><title>Node11</title>
<polygon fill="white" stroke="#bfbfbf" points="454.5,-112.5 454.5,-131.5 500.5,-131.5 500.5,-112.5 454.5,-112.5"/>
<text text-anchor="middle" x="477.5" y="-119.5" font-family="Helvetica,sans-Serif" font-size="10.00">cstdint</text>
</g>
<!-- Node1&#45;&gt;Node11 -->
<g id="edge17" class="edge"><title>Node1&#45;&gt;Node11</title>
<path fill="none" stroke="midnightblue" d="M492.245,-224.368C489.662,-206.617 483.706,-165.666 480.205,-141.597"/>
<polygon fill="midnightblue" stroke="midnightblue" points="483.653,-140.983 478.75,-131.591 476.726,-141.991 483.653,-140.983"/>
</g>
<!-- Node12 -->
<g id="node13" class="node"><title>Node12</title>
<polygon fill="white" stroke="#bfbfbf" points="518.5,-112.5 518.5,-131.5 608.5,-131.5 608.5,-112.5 518.5,-112.5"/>
<text text-anchor="middle" x="563.5" y="-119.5" font-family="Helvetica,sans-Serif" font-size="10.00">odb/callback.hxx</text>
</g>
<!-- Node1&#45;&gt;Node12 -->
<g id="edge18" class="edge"><title>Node1&#45;&gt;Node12</title>
<path fill="none" stroke="midnightblue" d="M498.993,-224.368C510.494,-206.296 537.297,-164.176 552.486,-140.307"/>
<polygon fill="midnightblue" stroke="midnightblue" points="555.617,-141.907 558.033,-131.591 549.711,-138.149 555.617,-141.907"/>
</g>
<!-- Node2&#45;&gt;Node3 -->
<g id="edge3" class="edge"><title>Node2&#45;&gt;Node3</title>
<path fill="none" stroke="midnightblue" d="M381.82,-168.444C350.973,-159.241 301.772,-144.562 267.671,-134.388"/>
<polygon fill="midnightblue" stroke="midnightblue" points="268.629,-131.021 258.046,-131.516 266.628,-137.729 268.629,-131.021"/>
</g>
<!-- Node4 -->
<g id="node5" class="node"><title>Node4</title>
<g id="a_node5"><a xlink:href="../../dc/dea/Uuid_8hpp.html" target="_top" xlink:title="tools/Uuid.hpp">
<polygon fill="white" stroke="black" points="333.5,-56.5 333.5,-75.5 413.5,-75.5 413.5,-56.5 333.5,-56.5"/>
<text text-anchor="middle" x="373.5" y="-63.5" font-family="Helvetica,sans-Serif" font-size="10.00">tools/Uuid.hpp</text>
</a>
</g>
</g>
<!-- Node2&#45;&gt;Node4 -->
<g id="edge11" class="edge"><title>Node2&#45;&gt;Node4</title>
<path fill="none" stroke="midnightblue" d="M407.597,-168.368C401.599,-150.537 387.727,-109.295 379.646,-85.2717"/>
<polygon fill="midnightblue" stroke="midnightblue" points="382.895,-83.9537 376.39,-75.5914 376.261,-86.1855 382.895,-83.9537"/>
</g>
<!-- Node2&#45;&gt;Node9 -->
<g id="edge14" class="edge"><title>Node2&#45;&gt;Node9</title>
<path fill="none" stroke="midnightblue" d="M398.609,-168.347C379.909,-155.009 342.176,-129.173 307.5,-112 227.821,-72.5383 128.701,-39.3418 75.163,-22.6255"/>
<polygon fill="midnightblue" stroke="midnightblue" points="75.9849,-19.2161 65.397,-19.6016 73.9143,-25.9029 75.9849,-19.2161"/>
</g>
<!-- Node2&#45;&gt;Node10 -->
<g id="edge15" class="edge"><title>Node2&#45;&gt;Node10</title>
<path fill="none" stroke="midnightblue" d="M413.139,-168.266C417.678,-154.583 428.183,-128.008 445.5,-112 476.064,-83.7473 589.128,-41.2181 644.098,-21.602"/>
<polygon fill="midnightblue" stroke="midnightblue" points="645.398,-24.8548 653.653,-18.2145 643.059,-18.2572 645.398,-24.8548"/>
</g>
<!-- Node2&#45;&gt;Node11 -->
<g id="edge12" class="edge"><title>Node2&#45;&gt;Node11</title>
<path fill="none" stroke="midnightblue" d="M421.265,-168.324C431.266,-160.263 446.387,-148.077 458.43,-138.369"/>
<polygon fill="midnightblue" stroke="midnightblue" points="460.95,-140.834 466.539,-131.834 456.557,-135.384 460.95,-140.834"/>
</g>
<!-- Node2&#45;&gt;Node12 -->
<g id="edge13" class="edge"><title>Node2&#45;&gt;Node12</title>
<path fill="none" stroke="midnightblue" d="M434.743,-168.444C460.371,-159.399 500.985,-145.064 529.738,-134.916"/>
<polygon fill="midnightblue" stroke="midnightblue" points="531.105,-138.145 539.37,-131.516 528.775,-131.544 531.105,-138.145"/>
</g>
<!-- Node3&#45;&gt;Node4 -->
<g id="edge4" class="edge"><title>Node3&#45;&gt;Node4</title>
<path fill="none" stroke="midnightblue" d="M252.317,-112.444C276.332,-103.438 314.329,-89.1891 341.369,-79.049"/>
<polygon fill="midnightblue" stroke="midnightblue" points="342.655,-82.3049 350.79,-75.5164 340.197,-75.7506 342.655,-82.3049"/>
</g>
<!-- Node5 -->
<g id="node6" class="node"><title>Node5</title>
<polygon fill="white" stroke="#bfbfbf" points="521.5,-0.5 521.5,-19.5 635.5,-19.5 635.5,-0.5 521.5,-0.5"/>
<text text-anchor="middle" x="578.5" y="-7.5" font-family="Helvetica,sans-Serif" font-size="10.00">boost/lexical_cast.hpp</text>
</g>
<!-- Node4&#45;&gt;Node5 -->
<g id="edge5" class="edge"><title>Node4&#45;&gt;Node5</title>
<path fill="none" stroke="midnightblue" d="M405.983,-56.4435C441.22,-47.1616 497.604,-32.3093 536.259,-22.127"/>
<polygon fill="midnightblue" stroke="midnightblue" points="537.391,-25.4483 546.169,-19.5164 535.607,-18.6792 537.391,-25.4483"/>
</g>
<!-- Node6 -->
<g id="node7" class="node"><title>Node6</title>
<polygon fill="white" stroke="#bfbfbf" points="91,-0.5 91,-19.5 252,-19.5 252,-0.5 91,-0.5"/>
<text text-anchor="middle" x="171.5" y="-7.5" font-family="Helvetica,sans-Serif" font-size="10.00">boost/uuid/random_generator.hpp</text>
</g>
<!-- Node4&#45;&gt;Node6 -->
<g id="edge6" class="edge"><title>Node4&#45;&gt;Node6</title>
<path fill="none" stroke="midnightblue" d="M341.492,-56.4435C306.771,-47.1616 251.212,-32.3093 213.123,-22.127"/>
<polygon fill="midnightblue" stroke="midnightblue" points="213.922,-18.7178 203.358,-19.5164 212.115,-25.4803 213.922,-18.7178"/>
</g>
<!-- Node7 -->
<g id="node8" class="node"><title>Node7</title>
<polygon fill="white" stroke="#bfbfbf" points="270,-0.5 270,-19.5 371,-19.5 371,-0.5 270,-0.5"/>
<text text-anchor="middle" x="320.5" y="-7.5" font-family="Helvetica,sans-Serif" font-size="10.00">boost/uuid/uuid.hpp</text>
</g>
<!-- Node4&#45;&gt;Node7 -->
<g id="edge7" class="edge"><title>Node4&#45;&gt;Node7</title>
<path fill="none" stroke="midnightblue" d="M364.748,-56.083C357.03,-48.2195 345.595,-36.5688 336.283,-27.0813"/>
<polygon fill="midnightblue" stroke="midnightblue" points="338.592,-24.4363 329.089,-19.7511 333.596,-29.3396 338.592,-24.4363"/>
</g>
<!-- Node8 -->
<g id="node9" class="node"><title>Node8</title>
<polygon fill="white" stroke="#bfbfbf" points="389.5,-0.5 389.5,-19.5 503.5,-19.5 503.5,-0.5 389.5,-0.5"/>
<text text-anchor="middle" x="446.5" y="-7.5" font-family="Helvetica,sans-Serif" font-size="10.00">boost/uuid/uuid_io.hpp</text>
</g>
<!-- Node4&#45;&gt;Node8 -->
<g id="edge8" class="edge"><title>Node4&#45;&gt;Node8</title>
<path fill="none" stroke="midnightblue" d="M385.229,-56.324C396.337,-48.1066 413.242,-35.6017 426.483,-25.8069"/>
<polygon fill="midnightblue" stroke="midnightblue" points="428.6,-28.5948 434.558,-19.8339 424.437,-22.9671 428.6,-28.5948"/>
</g>
<!-- Node4&#45;&gt;Node9 -->
<g id="edge9" class="edge"><title>Node4&#45;&gt;Node9</title>
<path fill="none" stroke="midnightblue" d="M333.406,-58.2489C328.72,-57.4802 324.006,-56.7162 319.5,-56 217.044,-39.7142 188.575,-38.5533 83.3904,-20.2725"/>
<polygon fill="midnightblue" stroke="midnightblue" points="83.7638,-16.7847 73.3103,-18.5094 82.5577,-23.6801 83.7638,-16.7847"/>
</g>
<!-- Node4&#45;&gt;Node10 -->
<g id="edge10" class="edge"><title>Node4&#45;&gt;Node10</title>
<path fill="none" stroke="midnightblue" d="M413.604,-58.3126C418.289,-57.5324 423,-56.7483 427.5,-56 520.831,-40.4807 547.56,-41.9723 644.058,-19.836"/>
<polygon fill="midnightblue" stroke="midnightblue" points="644.985,-23.214 653.936,-17.5445 643.403,-16.3951 644.985,-23.214"/>
</g>
</g>
</svg>
