<?xml version="1.0" encoding="UTF-8" standalone="no"?>
<!DOCTYPE svg PUBLIC "-//W3C//DTD SVG 1.1//EN"
 "http://www.w3.org/Graphics/SVG/1.1/DTD/svg11.dtd">
<!-- Generated by graphviz version 2.38.0 (20140413.2041)
 -->
<!-- Title: src/tools/DatabaseLogSink.cpp Pages: 1 -->
<!--zoomable 431 -->
<svg id="main" version="1.1" xmlns="http://www.w3.org/2000/svg" xmlns:xlink="http://www.w3.org/1999/xlink" xml:space="preserve" onload="init(evt)">
<style type="text/css"><![CDATA[
.edge:hover path { stroke: red; }
.edge:hover polygon { stroke: red; fill: red; }
]]></style>
<script type="text/javascript"><![CDATA[
var edges = document.getElementsByTagName('g');
if (edges && edges.length) {
  for (var i=0;i<edges.length;i++) {
    if (edges[i].id.substr(0,4)=='edge') {
      edges[i].setAttribute('class','edge');
    }
  }
}
]]></script>
        <defs>
                <circle id="rim" cx="0" cy="0" r="7"/>
                <circle id="rim2" cx="0" cy="0" r="3.5"/>
                <g id="zoomPlus">
                        <use xlink:href="#rim" fill="#404040">
                                <set attributeName="fill" to="#808080" begin="zoomplus.mouseover" end="zoomplus.mouseout"/>
                        </use>
                        <path d="M-4,0h8M0,-4v8" fill="none" stroke="white" stroke-width="1.5" pointer-events="none"/>
                </g>
                <g id="zoomMin">
                        <use xlink:href="#rim" fill="#404040">
                                <set attributeName="fill" to="#808080" begin="zoomminus.mouseover" end="zoomminus.mouseout"/>
                        </use>
                        <path d="M-4,0h8" fill="none" stroke="white" stroke-width="1.5" pointer-events="none"/>
                </g>
                <g id="dirArrow">
                        <path fill="none" stroke="white" stroke-width="1.5" d="M0,-3.0v7 M-2.5,-0.5L0,-3.0L2.5,-0.5"/>
                </g>
               <g id="resetDef">
                       <use xlink:href="#rim2" fill="#404040">
                               <set attributeName="fill" to="#808080" begin="reset.mouseover" end="reset.mouseout"/>
                       </use>
               </g>
        </defs>

<script type="text/javascript">
var viewWidth = 1280;
var viewHeight = 431;
var sectionId = 'dynsection-0';
</script>
<script xlink:href="../../svgpan.js"/>
<svg id="graph" class="graph">
<g id="viewport">
<title>src/tools/DatabaseLogSink.cpp</title>
<polygon fill="white" stroke="none" points="-4,4 -4,-427 1276.26,-427 1276.26,4 -4,4"/>
<!-- Node0 -->
<g id="node1" class="node"><title>Node0</title>
<polygon fill="#bfbfbf" stroke="black" points="703.261,-403.5 703.261,-422.5 856.261,-422.5 856.261,-403.5 703.261,-403.5"/>
<text text-anchor="middle" x="779.761" y="-410.5" font-family="Helvetica,sans-Serif" font-size="10.00">src/tools/DatabaseLogSink.cpp</text>
</g>
<!-- Node1 -->
<g id="node2" class="node"><title>Node1</title>
<g id="a_node2"><a xlink:href="../../d2/da0/DatabaseLogSink_8hpp.html" target="_top" xlink:title="DatabaseLogSink.hpp">
<polygon fill="white" stroke="black" points="10.2611,-347.5 10.2611,-366.5 123.261,-366.5 123.261,-347.5 10.2611,-347.5"/>
<text text-anchor="middle" x="66.7611" y="-354.5" font-family="Helvetica,sans-Serif" font-size="10.00">DatabaseLogSink.hpp</text>
</a>
</g>
</g>
<!-- Node0&#45;&gt;Node1 -->
<g id="edge1" class="edge"><title>Node0&#45;&gt;Node1</title>
<path fill="none" stroke="midnightblue" d="M703.119,-406.195C562.729,-395.563 266.544,-373.131 133.704,-363.07"/>
<polygon fill="midnightblue" stroke="midnightblue" points="133.896,-359.575 123.66,-362.309 133.368,-366.555 133.896,-359.575"/>
</g>
<!-- Node5 -->
<g id="node6" class="node"><title>Node5</title>
<g id="a_node6"><a xlink:href="../../d8/d1f/GenGuid_8h.html" target="_top" xlink:title="GenGuid.h">
<polygon fill="white" stroke="black" points="870.261,-347.5 870.261,-366.5 933.261,-366.5 933.261,-347.5 870.261,-347.5"/>
<text text-anchor="middle" x="901.761" y="-354.5" font-family="Helvetica,sans-Serif" font-size="10.00">GenGuid.h</text>
</a>
</g>
</g>
<!-- Node0&#45;&gt;Node5 -->
<g id="edge5" class="edge"><title>Node0&#45;&gt;Node5</title>
<path fill="none" stroke="midnightblue" d="M799.092,-403.444C819.081,-394.596 850.504,-380.687 873.325,-370.586"/>
<polygon fill="midnightblue" stroke="midnightblue" points="874.793,-373.764 882.52,-366.516 871.959,-367.363 874.793,-373.764"/>
</g>
<!-- Node7 -->
<g id="node8" class="node"><title>Node7</title>
<g id="a_node8"><a xlink:href="../../d4/d3d/log_8hpp.html" target="_top" xlink:title="log.hpp">
<polygon fill="white" stroke="black" points="973.761,-347.5 973.761,-366.5 1021.76,-366.5 1021.76,-347.5 973.761,-347.5"/>
<text text-anchor="middle" x="997.761" y="-354.5" font-family="Helvetica,sans-Serif" font-size="10.00">log.hpp</text>
</a>
</g>
</g>
<!-- Node0&#45;&gt;Node7 -->
<g id="edge7" class="edge"><title>Node0&#45;&gt;Node7</title>
<path fill="none" stroke="midnightblue" d="M814.304,-403.444C855.255,-393.3 923.065,-376.503 963.772,-366.419"/>
<polygon fill="midnightblue" stroke="midnightblue" points="964.64,-369.81 973.505,-364.008 962.957,-363.016 964.64,-369.81"/>
</g>
<!-- Node13 -->
<g id="node14" class="node"><title>Node13</title>
<g id="a_node14"><a xlink:href="../../df/dd4/DateTimeConverter_8hpp.html" target="_top" xlink:title="tools/DateTimeConverter.hpp">
<polygon fill="white" stroke="black" points="707.261,-347.5 707.261,-366.5 852.261,-366.5 852.261,-347.5 707.261,-347.5"/>
<text text-anchor="middle" x="779.761" y="-354.5" font-family="Helvetica,sans-Serif" font-size="10.00">tools/DateTimeConverter.hpp</text>
</a>
</g>
</g>
<!-- Node0&#45;&gt;Node13 -->
<g id="edge14" class="edge"><title>Node0&#45;&gt;Node13</title>
<path fill="none" stroke="midnightblue" d="M779.761,-403.083C779.761,-396.006 779.761,-385.861 779.761,-376.986"/>
<polygon fill="midnightblue" stroke="midnightblue" points="783.261,-376.751 779.761,-366.751 776.261,-376.751 783.261,-376.751"/>
</g>
<!-- Node16 -->
<g id="node17" class="node"><title>Node16</title>
<polygon fill="white" stroke="#bfbfbf" points="1040.26,-347.5 1040.26,-366.5 1149.26,-366.5 1149.26,-347.5 1040.26,-347.5"/>
<text text-anchor="middle" x="1094.76" y="-354.5" font-family="Helvetica,sans-Serif" font-size="10.00">tools/LogEntry_odb.h</text>
</g>
<!-- Node0&#45;&gt;Node16 -->
<g id="edge17" class="edge"><title>Node0&#45;&gt;Node16</title>
<path fill="none" stroke="midnightblue" d="M829.674,-403.444C885.431,-393.885 975.647,-378.419 1035.09,-368.23"/>
<polygon fill="midnightblue" stroke="midnightblue" points="1035.82,-371.656 1045.08,-366.516 1034.63,-364.756 1035.82,-371.656"/>
</g>
<!-- Node17 -->
<g id="node18" class="node"><title>Node17</title>
<g id="a_node18"><a xlink:href="../../db/d6a/MultiplexedTransaction_8hpp.html" target="_top" xlink:title="tools/db/MultiplexedTransaction.hpp">
<polygon fill="white" stroke="black" points="294.261,-347.5 294.261,-366.5 467.261,-366.5 467.261,-347.5 294.261,-347.5"/>
<text text-anchor="middle" x="380.761" y="-354.5" font-family="Helvetica,sans-Serif" font-size="10.00">tools/db/MultiplexedTransaction.hpp</text>
</a>
</g>
</g>
<!-- Node0&#45;&gt;Node17 -->
<g id="edge18" class="edge"><title>Node0&#45;&gt;Node17</title>
<path fill="none" stroke="midnightblue" d="M716.538,-403.444C645.183,-393.786 529.273,-378.099 454.027,-367.916"/>
<polygon fill="midnightblue" stroke="midnightblue" points="454.067,-364.389 443.688,-366.516 453.128,-371.326 454.067,-364.389"/>
</g>
<!-- Node18 -->
<g id="node19" class="node"><title>Node18</title>
<g id="a_node19"><a xlink:href="../../df/da2/database_8hpp.html" target="_top" xlink:title="database.hpp">
<polygon fill="white" stroke="black" points="417.261,-291.5 417.261,-310.5 492.261,-310.5 492.261,-291.5 417.261,-291.5"/>
<text text-anchor="middle" x="454.761" y="-298.5" font-family="Helvetica,sans-Serif" font-size="10.00">database.hpp</text>
</a>
</g>
</g>
<!-- Node0&#45;&gt;Node18 -->
<g id="edge55" class="edge"><title>Node0&#45;&gt;Node18</title>
<path fill="none" stroke="midnightblue" d="M754.529,-403.46C696.935,-383.966 555.686,-336.159 489.74,-313.839"/>
<polygon fill="midnightblue" stroke="midnightblue" points="490.795,-310.501 480.201,-310.61 488.551,-317.132 490.795,-310.501"/>
</g>
<!-- Node2 -->
<g id="node3" class="node"><title>Node2</title>
<g id="a_node3"><a xlink:href="../../d9/d69/db__fwd_8hpp.html" target="_top" xlink:title="tools/db/db_fwd.hpp">
<polygon fill="white" stroke="black" points="93.7611,-179.5 93.7611,-198.5 197.761,-198.5 197.761,-179.5 93.7611,-179.5"/>
<text text-anchor="middle" x="145.761" y="-186.5" font-family="Helvetica,sans-Serif" font-size="10.00">tools/db/db_fwd.hpp</text>
</a>
</g>
</g>
<!-- Node1&#45;&gt;Node2 -->
<g id="edge2" class="edge"><title>Node1&#45;&gt;Node2</title>
<path fill="none" stroke="midnightblue" d="M48.1261,-347.398C26.341,-336.035 -5.30011,-314.673 6.76111,-291 29.0696,-247.214 80.2271,-217.957 113.866,-202.662"/>
<polygon fill="midnightblue" stroke="midnightblue" points="115.517,-205.76 123.272,-198.54 112.708,-199.348 115.517,-205.76"/>
</g>
<!-- Node4 -->
<g id="node5" class="node"><title>Node4</title>
<polygon fill="white" stroke="#bfbfbf" points="16.2611,-291.5 16.2611,-310.5 117.261,-310.5 117.261,-291.5 16.2611,-291.5"/>
<text text-anchor="middle" x="66.7611" y="-298.5" font-family="Helvetica,sans-Serif" font-size="10.00">spdlog/sinks/sink.h</text>
</g>
<!-- Node1&#45;&gt;Node4 -->
<g id="edge4" class="edge"><title>Node1&#45;&gt;Node4</title>
<path fill="none" stroke="midnightblue" d="M66.7611,-347.083C66.7611,-340.006 66.7611,-329.861 66.7611,-320.986"/>
<polygon fill="midnightblue" stroke="midnightblue" points="70.2612,-320.751 66.7611,-310.751 63.2612,-320.751 70.2612,-320.751"/>
</g>
<!-- Node3 -->
<g id="node4" class="node"><title>Node3</title>
<polygon fill="white" stroke="#bfbfbf" points="291.761,-56.5 291.761,-75.5 343.761,-75.5 343.761,-56.5 291.761,-56.5"/>
<text text-anchor="middle" x="317.761" y="-63.5" font-family="Helvetica,sans-Serif" font-size="10.00">memory</text>
</g>
<!-- Node2&#45;&gt;Node3 -->
<g id="edge3" class="edge"><title>Node2&#45;&gt;Node3</title>
<path fill="none" stroke="midnightblue" d="M96.9386,-179.452C46.1126,-168.489 -22.2169,-146.644 7.76111,-112 42.7811,-71.5294 207.193,-66.6893 281.336,-66.6143"/>
<polygon fill="midnightblue" stroke="midnightblue" points="281.587,-70.1147 291.594,-66.6341 281.601,-63.1147 281.587,-70.1147"/>
</g>
<!-- Node6 -->
<g id="node7" class="node"><title>Node6</title>
<polygon fill="white" stroke="#bfbfbf" points="881.261,-291.5 881.261,-310.5 922.261,-310.5 922.261,-291.5 881.261,-291.5"/>
<text text-anchor="middle" x="901.761" y="-298.5" font-family="Helvetica,sans-Serif" font-size="10.00">string</text>
</g>
<!-- Node5&#45;&gt;Node6 -->
<g id="edge6" class="edge"><title>Node5&#45;&gt;Node6</title>
<path fill="none" stroke="midnightblue" d="M901.761,-347.083C901.761,-340.006 901.761,-329.861 901.761,-320.986"/>
<polygon fill="midnightblue" stroke="midnightblue" points="905.261,-320.751 901.761,-310.751 898.261,-320.751 905.261,-320.751"/>
</g>
<!-- Node7&#45;&gt;Node6 -->
<g id="edge13" class="edge"><title>Node7&#45;&gt;Node6</title>
<path fill="none" stroke="midnightblue" d="M982.337,-347.324C967.222,-338.822 943.946,-325.729 926.29,-315.797"/>
<polygon fill="midnightblue" stroke="midnightblue" points="927.579,-312.507 917.147,-310.655 924.147,-318.608 927.579,-312.507"/>
</g>
<!-- Node8 -->
<g id="node9" class="node"><title>Node8</title>
<polygon fill="white" stroke="#bfbfbf" points="934.261,-56.5 934.261,-75.5 983.261,-75.5 983.261,-56.5 934.261,-56.5"/>
<text text-anchor="middle" x="958.761" y="-63.5" font-family="Helvetica,sans-Serif" font-size="10.00">cassert</text>
</g>
<!-- Node7&#45;&gt;Node8 -->
<g id="edge8" class="edge"><title>Node7&#45;&gt;Node8</title>
<path fill="none" stroke="midnightblue" d="M1000.86,-347.289C1007.14,-328.856 1020.76,-284.435 1020.76,-246 1020.76,-246 1020.76,-246 1020.76,-188 1020.76,-153.072 1017.63,-142.583 1000.76,-112 994.659,-100.938 985.236,-90.4964 976.86,-82.4612"/>
<polygon fill="midnightblue" stroke="midnightblue" points="979.039,-79.7109 969.294,-75.5529 974.319,-84.8803 979.039,-79.7109"/>
</g>
<!-- Node9 -->
<g id="node10" class="node"><title>Node9</title>
<polygon fill="white" stroke="#bfbfbf" points="1049.26,-291.5 1049.26,-310.5 1096.26,-310.5 1096.26,-291.5 1049.26,-291.5"/>
<text text-anchor="middle" x="1072.76" y="-298.5" font-family="Helvetica,sans-Serif" font-size="10.00">csignal</text>
</g>
<!-- Node7&#45;&gt;Node9 -->
<g id="edge9" class="edge"><title>Node7&#45;&gt;Node9</title>
<path fill="none" stroke="midnightblue" d="M1009.81,-347.324C1021.22,-339.107 1038.59,-326.602 1052.2,-316.807"/>
<polygon fill="midnightblue" stroke="midnightblue" points="1054.42,-319.517 1060.49,-310.834 1050.33,-313.837 1054.42,-319.517"/>
</g>
<!-- Node10 -->
<g id="node11" class="node"><title>Node10</title>
<polygon fill="white" stroke="#bfbfbf" points="1114.76,-291.5 1114.76,-310.5 1168.76,-310.5 1168.76,-291.5 1114.76,-291.5"/>
<text text-anchor="middle" x="1141.76" y="-298.5" font-family="Helvetica,sans-Serif" font-size="10.00">iostream</text>
</g>
<!-- Node7&#45;&gt;Node10 -->
<g id="edge10" class="edge"><title>Node7&#45;&gt;Node10</title>
<path fill="none" stroke="midnightblue" d="M1020.58,-347.444C1044.59,-338.438 1082.59,-324.189 1109.63,-314.049"/>
<polygon fill="midnightblue" stroke="midnightblue" points="1110.92,-317.305 1119.05,-310.516 1108.46,-310.751 1110.92,-317.305"/>
</g>
<!-- Node11 -->
<g id="node12" class="node"><title>Node11</title>
<polygon fill="white" stroke="#bfbfbf" points="1187.26,-291.5 1187.26,-310.5 1272.26,-310.5 1272.26,-291.5 1187.26,-291.5"/>
<text text-anchor="middle" x="1229.76" y="-298.5" font-family="Helvetica,sans-Serif" font-size="10.00">spdlog/spdlog.h</text>
</g>
<!-- Node7&#45;&gt;Node11 -->
<g id="edge11" class="edge"><title>Node7&#45;&gt;Node11</title>
<path fill="none" stroke="midnightblue" d="M1021.88,-349.291C1024.87,-348.499 1027.88,-347.718 1030.76,-347 1081.3,-334.401 1139.43,-321.43 1179.76,-312.67"/>
<polygon fill="midnightblue" stroke="midnightblue" points="1180.58,-316.073 1189.62,-310.536 1179.1,-309.232 1180.58,-316.073"/>
</g>
<!-- Node12 -->
<g id="node13" class="node"><title>Node12</title>
<polygon fill="white" stroke="#bfbfbf" points="940.761,-291.5 940.761,-310.5 992.761,-310.5 992.761,-291.5 940.761,-291.5"/>
<text text-anchor="middle" x="966.761" y="-298.5" font-family="Helvetica,sans-Serif" font-size="10.00">sstream</text>
</g>
<!-- Node7&#45;&gt;Node12 -->
<g id="edge12" class="edge"><title>Node7&#45;&gt;Node12</title>
<path fill="none" stroke="midnightblue" d="M992.642,-347.083C988.354,-339.613 982.103,-328.724 976.819,-319.52"/>
<polygon fill="midnightblue" stroke="midnightblue" points="979.799,-317.681 971.785,-310.751 973.728,-321.166 979.799,-317.681"/>
</g>
<!-- Node14 -->
<g id="node15" class="node"><title>Node14</title>
<polygon fill="white" stroke="#bfbfbf" points="879.261,-112.5 879.261,-142.5 992.261,-142.5 992.261,-112.5 879.261,-112.5"/>
<text text-anchor="start" x="887.261" y="-130.5" font-family="Helvetica,sans-Serif" font-size="10.00">boost/date_time/posix</text>
<text text-anchor="middle" x="935.761" y="-119.5" font-family="Helvetica,sans-Serif" font-size="10.00">_time/posix_time.hpp</text>
</g>
<!-- Node13&#45;&gt;Node14 -->
<g id="edge15" class="edge"><title>Node13&#45;&gt;Node14</title>
<path fill="none" stroke="midnightblue" d="M785.951,-347.412C792.437,-338.385 802.897,-323.752 811.761,-311 851.502,-253.833 897.318,-185.846 920.55,-151.221"/>
<polygon fill="midnightblue" stroke="midnightblue" points="923.555,-153.024 926.217,-142.769 917.741,-149.126 923.555,-153.024"/>
</g>
<!-- Node15 -->
<g id="node16" class="node"><title>Node15</title>
<polygon fill="white" stroke="#bfbfbf" points="756.761,-291.5 756.761,-310.5 802.761,-310.5 802.761,-291.5 756.761,-291.5"/>
<text text-anchor="middle" x="779.761" y="-298.5" font-family="Helvetica,sans-Serif" font-size="10.00">chrono</text>
</g>
<!-- Node13&#45;&gt;Node15 -->
<g id="edge16" class="edge"><title>Node13&#45;&gt;Node15</title>
<path fill="none" stroke="midnightblue" d="M779.761,-347.083C779.761,-340.006 779.761,-329.861 779.761,-320.986"/>
<polygon fill="midnightblue" stroke="midnightblue" points="783.261,-320.751 779.761,-310.751 776.261,-320.751 783.261,-320.751"/>
</g>
<!-- Node17&#45;&gt;Node2 -->
<g id="edge53" class="edge"><title>Node17&#45;&gt;Node2</title>
<path fill="none" stroke="midnightblue" d="M339.09,-347.442C290.322,-335.272 210.44,-308.263 164.761,-255 153.649,-242.043 149.03,-222.876 147.113,-208.71"/>
<polygon fill="midnightblue" stroke="midnightblue" points="150.582,-208.228 146.083,-198.636 143.618,-208.94 150.582,-208.228"/>
</g>
<!-- Node17&#45;&gt;Node18 -->
<g id="edge19" class="edge"><title>Node17&#45;&gt;Node18</title>
<path fill="none" stroke="midnightblue" d="M392.65,-347.324C403.911,-339.107 421.048,-326.602 434.47,-316.807"/>
<polygon fill="midnightblue" stroke="midnightblue" points="436.641,-319.556 442.655,-310.834 432.514,-313.901 436.641,-319.556"/>
</g>
<!-- Node20 -->
<g id="node21" class="node"><title>Node20</title>
<polygon fill="white" stroke="#bfbfbf" points="173.761,-235.5 173.761,-254.5 275.761,-254.5 275.761,-235.5 173.761,-235.5"/>
<text text-anchor="middle" x="224.761" y="-242.5" font-family="Helvetica,sans-Serif" font-size="10.00">odb/transaction.hxx</text>
</g>
<!-- Node17&#45;&gt;Node20 -->
<g id="edge54" class="edge"><title>Node17&#45;&gt;Node20</title>
<path fill="none" stroke="midnightblue" d="M368.52,-347.368C341.864,-328.573 278.324,-283.768 245.372,-260.533"/>
<polygon fill="midnightblue" stroke="midnightblue" points="247.135,-257.494 236.945,-254.591 243.101,-263.215 247.135,-257.494"/>
</g>
<!-- Node18&#45;&gt;Node2 -->
<g id="edge20" class="edge"><title>Node18&#45;&gt;Node2</title>
<path fill="none" stroke="midnightblue" d="M425.43,-291.443C398.35,-283.206 357.231,-269.839 322.761,-255 305.231,-247.453 302.349,-242.411 284.761,-235 252.701,-221.491 215.095,-209.54 187.089,-201.356"/>
<polygon fill="midnightblue" stroke="midnightblue" points="187.811,-197.922 177.233,-198.515 185.872,-204.648 187.811,-197.922"/>
</g>
<!-- Node19 -->
<g id="node20" class="node"><title>Node19</title>
<polygon fill="white" stroke="#bfbfbf" points="469.761,-235.5 469.761,-254.5 563.761,-254.5 563.761,-235.5 469.761,-235.5"/>
<text text-anchor="middle" x="516.761" y="-242.5" font-family="Helvetica,sans-Serif" font-size="10.00">odb/database.hxx</text>
</g>
<!-- Node18&#45;&gt;Node19 -->
<g id="edge21" class="edge"><title>Node18&#45;&gt;Node19</title>
<path fill="none" stroke="midnightblue" d="M464.722,-291.324C473.888,-283.341 487.698,-271.313 498.789,-261.653"/>
<polygon fill="midnightblue" stroke="midnightblue" points="501.376,-264.041 506.618,-254.834 496.779,-258.762 501.376,-264.041"/>
</g>
<!-- Node18&#45;&gt;Node20 -->
<g id="edge22" class="edge"><title>Node18&#45;&gt;Node20</title>
<path fill="none" stroke="midnightblue" d="M418.317,-291.444C378.362,-282.063 314.174,-266.993 270.776,-256.804"/>
<polygon fill="midnightblue" stroke="midnightblue" points="271.57,-253.395 261.035,-254.516 269.97,-260.21 271.57,-253.395"/>
</g>
<!-- Node21 -->
<g id="node22" class="node"><title>Node21</title>
<g id="a_node22"><a xlink:href="../../d0/dee/DBService_8hpp.html" target="_top" xlink:title="tools/db/DBService.hpp">
<polygon fill="white" stroke="black" points="331.761,-235.5 331.761,-254.5 451.761,-254.5 451.761,-235.5 331.761,-235.5"/>
<text text-anchor="middle" x="391.761" y="-242.5" font-family="Helvetica,sans-Serif" font-size="10.00">tools/db/DBService.hpp</text>
</a>
</g>
</g>
<!-- Node18&#45;&gt;Node21 -->
<g id="edge23" class="edge"><title>Node18&#45;&gt;Node21</title>
<path fill="none" stroke="midnightblue" d="M444.639,-291.324C435.235,-283.263 421.017,-271.077 409.692,-261.369"/>
<polygon fill="midnightblue" stroke="midnightblue" points="411.938,-258.684 402.067,-254.834 407.382,-263.999 411.938,-258.684"/>
</g>
<!-- Node34 -->
<g id="node35" class="node"><title>Node34</title>
<polygon fill="white" stroke="#bfbfbf" points="582.261,-235.5 582.261,-254.5 683.261,-254.5 683.261,-235.5 582.261,-235.5"/>
<text text-anchor="middle" x="632.761" y="-242.5" font-family="Helvetica,sans-Serif" font-size="10.00">odb/connection.hxx</text>
</g>
<!-- Node18&#45;&gt;Node34 -->
<g id="edge51" class="edge"><title>Node18&#45;&gt;Node34</title>
<path fill="none" stroke="midnightblue" d="M482.966,-291.444C513.171,-282.28 561.272,-267.688 594.79,-257.519"/>
<polygon fill="midnightblue" stroke="midnightblue" points="596.135,-260.769 604.688,-254.516 594.103,-254.07 596.135,-260.769"/>
</g>
<!-- Node35 -->
<g id="node36" class="node"><title>Node35</title>
<polygon fill="white" stroke="#bfbfbf" points="701.261,-235.5 701.261,-254.5 824.261,-254.5 824.261,-235.5 701.261,-235.5"/>
<text text-anchor="middle" x="762.761" y="-242.5" font-family="Helvetica,sans-Serif" font-size="10.00">odb/schema&#45;catalog.hxx</text>
</g>
<!-- Node18&#45;&gt;Node35 -->
<g id="edge52" class="edge"><title>Node18&#45;&gt;Node35</title>
<path fill="none" stroke="midnightblue" d="M492.528,-293.379C545.329,-284.121 641.712,-267.223 703.957,-256.31"/>
<polygon fill="midnightblue" stroke="midnightblue" points="704.776,-259.72 714.021,-254.545 703.567,-252.825 704.776,-259.72"/>
</g>
<!-- Node21&#45;&gt;Node2 -->
<g id="edge50" class="edge"><title>Node21&#45;&gt;Node2</title>
<path fill="none" stroke="midnightblue" d="M352.782,-235.444C309.868,-226.023 240.816,-210.866 194.392,-200.675"/>
<polygon fill="midnightblue" stroke="midnightblue" points="195.076,-197.242 184.558,-198.516 193.575,-204.079 195.076,-197.242"/>
</g>
<!-- Node22 -->
<g id="node23" class="node"><title>Node22</title>
<g id="a_node23"><a xlink:href="../../d3/dd8/IAuditEntry_8hpp.html" target="_top" xlink:title="core/audit/IAuditEntry.hpp">
<polygon fill="white" stroke="black" points="537.761,-179.5 537.761,-198.5 667.761,-198.5 667.761,-179.5 537.761,-179.5"/>
<text text-anchor="middle" x="602.761" y="-186.5" font-family="Helvetica,sans-Serif" font-size="10.00">core/audit/IAuditEntry.hpp</text>
</a>
</g>
</g>
<!-- Node21&#45;&gt;Node22 -->
<g id="edge24" class="edge"><title>Node21&#45;&gt;Node22</title>
<path fill="none" stroke="midnightblue" d="M425.195,-235.444C461.617,-226.122 519.991,-211.183 559.79,-200.997"/>
<polygon fill="midnightblue" stroke="midnightblue" points="560.664,-204.387 569.484,-198.516 558.928,-197.605 560.664,-204.387"/>
</g>
<!-- Node27 -->
<g id="node28" class="node"><title>Node27</title>
<g id="a_node28"><a xlink:href="../../d3/d6f/AuthFwd_8hpp.html" target="_top" xlink:title="core/auth/AuthFwd.hpp">
<polygon fill="white" stroke="black" points="484.761,-118 484.761,-137 602.761,-137 602.761,-118 484.761,-118"/>
<text text-anchor="middle" x="543.761" y="-125" font-family="Helvetica,sans-Serif" font-size="10.00">core/auth/AuthFwd.hpp</text>
</a>
</g>
</g>
<!-- Node21&#45;&gt;Node27 -->
<g id="edge40" class="edge"><title>Node21&#45;&gt;Node27</title>
<path fill="none" stroke="midnightblue" d="M403.186,-235.319C428.934,-215.753 491.756,-168.017 523.982,-143.53"/>
<polygon fill="midnightblue" stroke="midnightblue" points="526.359,-146.119 532.204,-137.282 522.124,-140.545 526.359,-146.119"/>
</g>
<!-- Node31 -->
<g id="node32" class="node"><title>Node31</title>
<g id="a_node32"><a xlink:href="../../d7/d7f/CredentialFwd_8hpp.html" target="_top" xlink:title="core/credentials/Credential\lFwd.hpp">
<polygon fill="white" stroke="black" points="295.261,-112.5 295.261,-142.5 428.261,-142.5 428.261,-112.5 295.261,-112.5"/>
<text text-anchor="start" x="303.261" y="-130.5" font-family="Helvetica,sans-Serif" font-size="10.00">core/credentials/Credential</text>
<text text-anchor="middle" x="361.761" y="-119.5" font-family="Helvetica,sans-Serif" font-size="10.00">Fwd.hpp</text>
</a>
</g>
</g>
<!-- Node21&#45;&gt;Node31 -->
<g id="edge41" class="edge"><title>Node21&#45;&gt;Node31</title>
<path fill="none" stroke="midnightblue" d="M389.506,-235.319C384.979,-217.889 374.645,-178.104 367.946,-152.313"/>
<polygon fill="midnightblue" stroke="midnightblue" points="371.311,-151.344 365.409,-142.545 364.536,-153.104 371.311,-151.344"/>
</g>
<!-- Node32 -->
<g id="node33" class="node"><title>Node32</title>
<g id="a_node33"><a xlink:href="../../d2/d0e/UpdateFwd_8hpp.html" target="_top" xlink:title="core/update/UpdateFwd.hpp">
<polygon fill="white" stroke="black" points="16.7611,-118 16.7611,-137 156.761,-137 156.761,-118 16.7611,-118"/>
<text text-anchor="middle" x="86.7611" y="-125" font-family="Helvetica,sans-Serif" font-size="10.00">core/update/UpdateFwd.hpp</text>
</a>
</g>
</g>
<!-- Node21&#45;&gt;Node32 -->
<g id="edge44" class="edge"><title>Node21&#45;&gt;Node32</title>
<path fill="none" stroke="midnightblue" d="M368.837,-235.319C315.163,-214.993 181.203,-164.264 119.196,-140.783"/>
<polygon fill="midnightblue" stroke="midnightblue" points="120.127,-137.393 109.536,-137.124 117.648,-143.939 120.127,-137.393"/>
</g>
<!-- Node33 -->
<g id="node34" class="node"><title>Node33</title>
<g id="a_node34"><a xlink:href="../../d8/d97/ToolsFwd_8hpp.html" target="_top" xlink:title="tools/ToolsFwd.hpp">
<polygon fill="white" stroke="black" points="174.761,-118 174.761,-137 276.761,-137 276.761,-118 174.761,-118"/>
<text text-anchor="middle" x="225.761" y="-125" font-family="Helvetica,sans-Serif" font-size="10.00">tools/ToolsFwd.hpp</text>
</a>
</g>
</g>
<!-- Node21&#45;&gt;Node33 -->
<g id="edge47" class="edge"><title>Node21&#45;&gt;Node33</title>
<path fill="none" stroke="midnightblue" d="M379.284,-235.319C351.044,-215.67 281.969,-167.609 246.913,-143.217"/>
<polygon fill="midnightblue" stroke="midnightblue" points="248.59,-140.12 238.383,-137.282 244.592,-145.866 248.59,-140.12"/>
</g>
<!-- Node22&#45;&gt;Node3 -->
<g id="edge39" class="edge"><title>Node22&#45;&gt;Node3</title>
<path fill="none" stroke="midnightblue" d="M569.383,-179.462C542.994,-171.948 505.735,-159.612 475.761,-143 456.394,-132.267 456.014,-122.936 436.761,-112 410.26,-96.9468 377.754,-85.0472 353.416,-77.2751"/>
<polygon fill="midnightblue" stroke="midnightblue" points="354.447,-73.9304 343.858,-74.3002 352.366,-80.6141 354.447,-73.9304"/>
</g>
<!-- Node22&#45;&gt;Node14 -->
<g id="edge38" class="edge"><title>Node22&#45;&gt;Node14</title>
<path fill="none" stroke="midnightblue" d="M658.132,-179.484C710.012,-171.32 789.958,-158.27 868.807,-143.129"/>
<polygon fill="midnightblue" stroke="midnightblue" points="869.762,-146.509 878.916,-141.175 868.434,-139.637 869.762,-146.509"/>
</g>
<!-- Node23 -->
<g id="node24" class="node"><title>Node23</title>
<g id="a_node24"><a xlink:href="../../d7/dcf/AuditFwd_8hpp.html" target="_top" xlink:title="core/audit/AuditFwd.hpp">
<polygon fill="white" stroke="black" points="620.761,-118 620.761,-137 742.761,-137 742.761,-118 620.761,-118"/>
<text text-anchor="middle" x="681.761" y="-125" font-family="Helvetica,sans-Serif" font-size="10.00">core/audit/AuditFwd.hpp</text>
</a>
</g>
</g>
<!-- Node22&#45;&gt;Node23 -->
<g id="edge25" class="edge"><title>Node22&#45;&gt;Node23</title>
<path fill="none" stroke="midnightblue" d="M614.08,-179.475C626.634,-170.02 647.112,-154.596 662.261,-143.187"/>
<polygon fill="midnightblue" stroke="midnightblue" points="664.581,-145.821 670.463,-137.009 660.37,-140.23 664.581,-145.821"/>
</g>
<!-- Node22&#45;&gt;Node27 -->
<g id="edge30" class="edge"><title>Node22&#45;&gt;Node27</title>
<path fill="none" stroke="midnightblue" d="M594.308,-179.475C585.195,-170.285 570.491,-155.456 559.286,-144.156"/>
<polygon fill="midnightblue" stroke="midnightblue" points="561.725,-141.646 552.199,-137.009 556.755,-146.574 561.725,-141.646"/>
</g>
<!-- Node28 -->
<g id="node29" class="node"><title>Node28</title>
<g id="a_node29"><a xlink:href="../../dd/d9d/IVisitable_8hpp.html" target="_top" xlink:title="tools/IVisitable.hpp">
<polygon fill="white" stroke="black" points="760.761,-118 760.761,-137 860.761,-137 860.761,-118 760.761,-118"/>
<text text-anchor="middle" x="810.761" y="-125" font-family="Helvetica,sans-Serif" font-size="10.00">tools/IVisitable.hpp</text>
</a>
</g>
</g>
<!-- Node22&#45;&gt;Node28 -->
<g id="edge34" class="edge"><title>Node22&#45;&gt;Node28</title>
<path fill="none" stroke="midnightblue" d="M632.562,-179.475C669.014,-169.048 730.841,-151.362 771.235,-139.807"/>
<polygon fill="midnightblue" stroke="midnightblue" points="772.363,-143.124 781.015,-137.009 770.438,-136.394 772.363,-143.124"/>
</g>
<!-- Node23&#45;&gt;Node3 -->
<g id="edge28" class="edge"><title>Node23&#45;&gt;Node3</title>
<path fill="none" stroke="midnightblue" d="M642.971,-117.988C632.838,-115.896 621.911,-113.755 611.761,-112 500.373,-92.7439 468.507,-98.1825 353.924,-76.0384"/>
<polygon fill="midnightblue" stroke="midnightblue" points="354.548,-72.5941 344.061,-74.1043 353.201,-79.4633 354.548,-72.5941"/>
</g>
<!-- Node24 -->
<g id="node25" class="node"><title>Node24</title>
<polygon fill="white" stroke="#bfbfbf" points="550.261,-56.5 550.261,-75.5 599.261,-75.5 599.261,-56.5 550.261,-56.5"/>
<text text-anchor="middle" x="574.761" y="-63.5" font-family="Helvetica,sans-Serif" font-size="10.00">cstddef</text>
</g>
<!-- Node23&#45;&gt;Node24 -->
<g id="edge26" class="edge"><title>Node23&#45;&gt;Node24</title>
<path fill="none" stroke="midnightblue" d="M666.431,-117.975C648.791,-108.166 619.602,-91.9346 598.904,-80.425"/>
<polygon fill="midnightblue" stroke="midnightblue" points="600.504,-77.3102 590.063,-75.5091 597.102,-83.4279 600.504,-77.3102"/>
</g>
<!-- Node25 -->
<g id="node26" class="node"><title>Node25</title>
<polygon fill="white" stroke="#bfbfbf" points="649.261,-56.5 649.261,-75.5 714.261,-75.5 714.261,-56.5 649.261,-56.5"/>
<text text-anchor="middle" x="681.761" y="-63.5" font-family="Helvetica,sans-Serif" font-size="10.00">flagset.hpp</text>
</g>
<!-- Node23&#45;&gt;Node25 -->
<g id="edge27" class="edge"><title>Node23&#45;&gt;Node25</title>
<path fill="none" stroke="midnightblue" d="M681.761,-117.975C681.761,-109.58 681.761,-96.4806 681.761,-85.6631"/>
<polygon fill="midnightblue" stroke="midnightblue" points="685.261,-85.5091 681.761,-75.5091 678.261,-85.5091 685.261,-85.5091"/>
</g>
<!-- Node26 -->
<g id="node27" class="node"><title>Node26</title>
<polygon fill="white" stroke="#bfbfbf" points="361.761,-56.5 361.761,-75.5 447.761,-75.5 447.761,-56.5 361.761,-56.5"/>
<text text-anchor="middle" x="404.761" y="-63.5" font-family="Helvetica,sans-Serif" font-size="10.00">odb/lazy&#45;ptr.hxx</text>
</g>
<!-- Node23&#45;&gt;Node26 -->
<g id="edge29" class="edge"><title>Node23&#45;&gt;Node26</title>
<path fill="none" stroke="midnightblue" d="M642.074,-117.975C592.604,-107.349 508.041,-89.1847 454.353,-77.6524"/>
<polygon fill="midnightblue" stroke="midnightblue" points="454.887,-74.1873 444.375,-75.5091 453.417,-81.0312 454.887,-74.1873"/>
</g>
<!-- Node27&#45;&gt;Node3 -->
<g id="edge32" class="edge"><title>Node27&#45;&gt;Node3</title>
<path fill="none" stroke="midnightblue" d="M511.381,-117.975C469.686,-106.998 397.435,-87.9762 353.965,-76.5316"/>
<polygon fill="midnightblue" stroke="midnightblue" points="354.657,-73.0946 344.096,-73.9332 352.875,-79.8639 354.657,-73.0946"/>
</g>
<!-- Node27&#45;&gt;Node24 -->
<g id="edge31" class="edge"><title>Node27&#45;&gt;Node24</title>
<path fill="none" stroke="midnightblue" d="M548.203,-117.975C552.715,-109.315 559.835,-95.6486 565.568,-84.6453"/>
<polygon fill="midnightblue" stroke="midnightblue" points="568.811,-85.9948 570.328,-75.5091 562.603,-82.7604 568.811,-85.9948"/>
</g>
<!-- Node27&#45;&gt;Node26 -->
<g id="edge33" class="edge"><title>Node27&#45;&gt;Node26</title>
<path fill="none" stroke="midnightblue" d="M523.846,-117.975C500.312,-107.901 460.951,-91.0525 433.968,-79.5023"/>
<polygon fill="midnightblue" stroke="midnightblue" points="435.21,-76.2267 424.639,-75.5091 432.455,-82.662 435.21,-76.2267"/>
</g>
<!-- Node28&#45;&gt;Node8 -->
<g id="edge37" class="edge"><title>Node28&#45;&gt;Node8</title>
<path fill="none" stroke="midnightblue" d="M831.966,-117.975C857.133,-107.857 899.301,-90.9046 928.04,-79.3507"/>
<polygon fill="midnightblue" stroke="midnightblue" points="929.623,-82.4867 937.596,-75.5091 927.012,-75.9919 929.623,-82.4867"/>
</g>
<!-- Node29 -->
<g id="node30" class="node"><title>Node29</title>
<g id="a_node30"><a xlink:href="../../d2/d91/Visitor_8hpp.html" target="_top" xlink:title="tools/Visitor.hpp">
<polygon fill="white" stroke="black" points="767.261,-56.5 767.261,-75.5 854.261,-75.5 854.261,-56.5 767.261,-56.5"/>
<text text-anchor="middle" x="810.761" y="-63.5" font-family="Helvetica,sans-Serif" font-size="10.00">tools/Visitor.hpp</text>
</a>
</g>
</g>
<!-- Node28&#45;&gt;Node29 -->
<g id="edge35" class="edge"><title>Node28&#45;&gt;Node29</title>
<path fill="none" stroke="midnightblue" d="M810.761,-117.975C810.761,-109.58 810.761,-96.4806 810.761,-85.6631"/>
<polygon fill="midnightblue" stroke="midnightblue" points="814.261,-85.5091 810.761,-75.5091 807.261,-85.5091 814.261,-85.5091"/>
</g>
<!-- Node30 -->
<g id="node31" class="node"><title>Node30</title>
<polygon fill="white" stroke="#bfbfbf" points="779.761,-0.5 779.761,-19.5 841.761,-19.5 841.761,-0.5 779.761,-0.5"/>
<text text-anchor="middle" x="810.761" y="-7.5" font-family="Helvetica,sans-Serif" font-size="10.00">type_traits</text>
</g>
<!-- Node29&#45;&gt;Node30 -->
<g id="edge36" class="edge"><title>Node29&#45;&gt;Node30</title>
<path fill="none" stroke="midnightblue" d="M810.761,-56.083C810.761,-49.0059 810.761,-38.8611 810.761,-29.9865"/>
<polygon fill="midnightblue" stroke="midnightblue" points="814.261,-29.751 810.761,-19.7511 807.261,-29.7511 814.261,-29.751"/>
</g>
<!-- Node31&#45;&gt;Node3 -->
<g id="edge42" class="edge"><title>Node31&#45;&gt;Node3</title>
<path fill="none" stroke="midnightblue" d="M351.334,-112.399C345.006,-103.842 336.892,-92.8708 330.227,-83.857"/>
<polygon fill="midnightblue" stroke="midnightblue" points="332.923,-81.6171 324.164,-75.6578 327.295,-85.7792 332.923,-81.6171"/>
</g>
<!-- Node31&#45;&gt;Node26 -->
<g id="edge43" class="edge"><title>Node31&#45;&gt;Node26</title>
<path fill="none" stroke="midnightblue" d="M371.952,-112.399C378.136,-103.842 386.065,-92.8708 392.579,-83.857"/>
<polygon fill="midnightblue" stroke="midnightblue" points="395.484,-85.8129 398.504,-75.6578 389.81,-81.7127 395.484,-85.8129"/>
</g>
<!-- Node32&#45;&gt;Node3 -->
<g id="edge45" class="edge"><title>Node32&#45;&gt;Node3</title>
<path fill="none" stroke="midnightblue" d="M119.858,-117.975C162.796,-106.915 237.44,-87.6889 281.756,-76.2739"/>
<polygon fill="midnightblue" stroke="midnightblue" points="282.72,-79.64 291.531,-73.7562 280.974,-72.8612 282.72,-79.64"/>
</g>
<!-- Node32&#45;&gt;Node26 -->
<g id="edge46" class="edge"><title>Node32&#45;&gt;Node26</title>
<path fill="none" stroke="midnightblue" d="M132.323,-117.975C190.319,-107.124 290.33,-88.4109 351.702,-76.9278"/>
<polygon fill="midnightblue" stroke="midnightblue" points="352.393,-80.3593 361.578,-75.0798 351.105,-73.4788 352.393,-80.3593"/>
</g>
<!-- Node33&#45;&gt;Node3 -->
<g id="edge48" class="edge"><title>Node33&#45;&gt;Node3</title>
<path fill="none" stroke="midnightblue" d="M238.942,-117.975C253.836,-108.343 278.306,-92.5175 296.034,-81.0517"/>
<polygon fill="midnightblue" stroke="midnightblue" points="298.108,-83.8787 304.604,-75.5091 294.307,-78.0008 298.108,-83.8787"/>
</g>
<!-- Node33&#45;&gt;Node26 -->
<g id="edge49" class="edge"><title>Node33&#45;&gt;Node26</title>
<path fill="none" stroke="midnightblue" d="M251.407,-117.975C282.378,-107.68 334.634,-90.3103 369.412,-78.7502"/>
<polygon fill="midnightblue" stroke="midnightblue" points="370.777,-81.9848 379.162,-75.5091 368.569,-75.3422 370.777,-81.9848"/>
</g>
</g>
</svg>
        <g id="navigator" transform="translate(0 0)" fill="#404254">
                <rect fill="#f2f5e9" fill-opacity="0.5" stroke="#606060" stroke-width=".5" x="0" y="0" width="60" height="60"/>
                <use id="zoomplus" xlink:href="#zoomPlus" x="17" y="9" onmousedown="handleZoom(evt,'in')"/>
                <use id="zoomminus" xlink:href="#zoomMin" x="42" y="9" onmousedown="handleZoom(evt,'out')"/>
                <use id="reset" xlink:href="#resetDef" x="30" y="36" onmousedown="handleReset()"/>
                <g id="arrowUp" xlink:href="#dirArrow" transform="translate(30 24)" onmousedown="handlePan(0,-1)">
                  <use xlink:href="#rim" fill="#404040">
                        <set attributeName="fill" to="#808080" begin="arrowUp.mouseover" end="arrowUp.mouseout"/>
                  </use>
                  <path fill="none" stroke="white" stroke-width="1.5" d="M0,-3.0v7 M-2.5,-0.5L0,-3.0L2.5,-0.5"/>
                </g>
                <g id="arrowRight" xlink:href="#dirArrow" transform="rotate(90) translate(36 -43)" onmousedown="handlePan(1,0)">
                  <use xlink:href="#rim" fill="#404040">
                        <set attributeName="fill" to="#808080" begin="arrowRight.mouseover" end="arrowRight.mouseout"/>
                  </use>
                  <path fill="none" stroke="white" stroke-width="1.5" d="M0,-3.0v7 M-2.5,-0.5L0,-3.0L2.5,-0.5"/>
                </g>
                <g id="arrowDown" xlink:href="#dirArrow" transform="rotate(180) translate(-30 -48)" onmousedown="handlePan(0,1)">
                  <use xlink:href="#rim" fill="#404040">
                        <set attributeName="fill" to="#808080" begin="arrowDown.mouseover" end="arrowDown.mouseout"/>
                  </use>
                  <path fill="none" stroke="white" stroke-width="1.5" d="M0,-3.0v7 M-2.5,-0.5L0,-3.0L2.5,-0.5"/>
                </g>
                <g id="arrowLeft" xlink:href="#dirArrow" transform="rotate(270) translate(-36 17)" onmousedown="handlePan(-1,0)">
                  <use xlink:href="#rim" fill="#404040">
                        <set attributeName="fill" to="#808080" begin="arrowLeft.mouseover" end="arrowLeft.mouseout"/>
                  </use>
                  <path fill="none" stroke="white" stroke-width="1.5" d="M0,-3.0v7 M-2.5,-0.5L0,-3.0L2.5,-0.5"/>
                </g>
        </g>
        <svg viewBox="0 0 15 15" width="100%" height="30px" preserveAspectRatio="xMaxYMin meet">
         <g id="arrow_out" transform="scale(0.3 0.3)">
          <a xlink:href="DatabaseLogSink_8cpp__incl_org.svg" target="_base">
           <rect id="button" ry="5" rx="5" y="6" x="6" height="38" width="38"
                fill="#f2f5e9" fill-opacity="0.5" stroke="#606060" stroke-width="1.0"/>
           <path id="arrow"
             d="M 11.500037,31.436501 C 11.940474,20.09759 22.043105,11.32322 32.158766,21.979434 L 37.068811,17.246167 C 37.068811,17.246167 37.088388,32 37.088388,32 L 22.160133,31.978069 C 22.160133,31.978069 26.997745,27.140456 26.997745,27.140456 C 18.528582,18.264221 13.291696,25.230495 11.500037,31.436501 z"
             style="fill:#404040;"/>
          </a>
         </g>
        </svg>
</svg>
