<?xml version="1.0" encoding="UTF-8" standalone="no"?>
<!DOCTYPE svg PUBLIC "-//W3C//DTD SVG 1.1//EN"
 "http://www.w3.org/Graphics/SVG/1.1/DTD/svg11.dtd">
<!-- Generated by graphviz version 2.38.0 (20140413.2041)
 -->
<!-- Title: src/core/RemoteControlSecurity.cpp Pages: 1 -->
<svg width="711pt" height="162pt"
 viewBox="0.00 0.00 711.00 162.00" xmlns="http://www.w3.org/2000/svg" xmlns:xlink="http://www.w3.org/1999/xlink">
<g id="graph0" class="graph" transform="scale(1 1) rotate(0) translate(4 158)">
<title>src/core/RemoteControlSecurity.cpp</title>
<polygon fill="white" stroke="none" points="-4,4 -4,-158 707,-158 707,4 -4,4"/>
<!-- Node0 -->
<g id="node1" class="node"><title>Node0</title>
<polygon fill="#bfbfbf" stroke="black" points="354.5,-134.5 354.5,-153.5 530.5,-153.5 530.5,-134.5 354.5,-134.5"/>
<text text-anchor="middle" x="442.5" y="-141.5" font-family="Helvetica,sans-Serif" font-size="10.00">src/core/RemoteControlSecurity.cpp</text>
</g>
<!-- Node1 -->
<g id="node2" class="node"><title>Node1</title>
<g id="a_node2"><a xlink:href="../../d8/dbc/RemoteControlSecurity_8hpp.html" target="_top" xlink:title="core/RemoteControlSecurity.hpp">
<polygon fill="white" stroke="black" points="122,-73 122,-92 281,-92 281,-73 122,-73"/>
<text text-anchor="middle" x="201.5" y="-80" font-family="Helvetica,sans-Serif" font-size="10.00">core/RemoteControlSecurity.hpp</text>
</a>
</g>
</g>
<!-- Node0&#45;&gt;Node1 -->
<g id="edge1" class="edge"><title>Node0&#45;&gt;Node1</title>
<path fill="none" stroke="midnightblue" d="M407.971,-134.475C365.288,-123.937 292.579,-105.986 245.818,-94.4415"/>
<polygon fill="midnightblue" stroke="midnightblue" points="246.513,-91.0081 235.965,-92.0091 244.835,-97.804 246.513,-91.0081"/>
</g>
<!-- Node5 -->
<g id="node6" class="node"><title>Node5</title>
<g id="a_node6"><a xlink:href="../../d4/d3d/log_8hpp.html" target="_top" xlink:title="tools/log.hpp">
<polygon fill="white" stroke="black" points="406.5,-73 406.5,-92 478.5,-92 478.5,-73 406.5,-73"/>
<text text-anchor="middle" x="442.5" y="-80" font-family="Helvetica,sans-Serif" font-size="10.00">tools/log.hpp</text>
</a>
</g>
</g>
<!-- Node0&#45;&gt;Node5 -->
<g id="edge5" class="edge"><title>Node0&#45;&gt;Node5</title>
<path fill="none" stroke="midnightblue" d="M442.5,-134.475C442.5,-126.08 442.5,-112.981 442.5,-102.163"/>
<polygon fill="midnightblue" stroke="midnightblue" points="446,-102.009 442.5,-92.0091 439,-102.009 446,-102.009"/>
</g>
<!-- Node12 -->
<g id="node13" class="node"><title>Node12</title>
<polygon fill="white" stroke="#bfbfbf" points="496.5,-67.5 496.5,-97.5 606.5,-97.5 606.5,-67.5 496.5,-67.5"/>
<text text-anchor="start" x="504.5" y="-85.5" font-family="Helvetica,sans-Serif" font-size="10.00">boost/algorithm/string</text>
<text text-anchor="middle" x="551.5" y="-74.5" font-family="Helvetica,sans-Serif" font-size="10.00">/join.hpp</text>
</g>
<!-- Node0&#45;&gt;Node12 -->
<g id="edge12" class="edge"><title>Node0&#45;&gt;Node12</title>
<path fill="none" stroke="midnightblue" d="M458.117,-134.475C473.362,-126.153 497.078,-113.207 516.794,-102.445"/>
<polygon fill="midnightblue" stroke="midnightblue" points="518.71,-105.386 525.811,-97.523 515.356,-99.2423 518.71,-105.386"/>
</g>
<!-- Node2 -->
<g id="node3" class="node"><title>Node2</title>
<polygon fill="white" stroke="#bfbfbf" points="0,-0.5 0,-30.5 101,-30.5 101,-0.5 0,-0.5"/>
<text text-anchor="start" x="8" y="-18.5" font-family="Helvetica,sans-Serif" font-size="10.00">boost/property_tree</text>
<text text-anchor="middle" x="50.5" y="-7.5" font-family="Helvetica,sans-Serif" font-size="10.00">/ptree.hpp</text>
</g>
<!-- Node1&#45;&gt;Node2 -->
<g id="edge2" class="edge"><title>Node1&#45;&gt;Node2</title>
<path fill="none" stroke="midnightblue" d="M181.448,-72.8685C158.888,-63.1572 121.608,-47.1092 92.582,-34.6148"/>
<polygon fill="midnightblue" stroke="midnightblue" points="93.6573,-31.2672 83.0883,-30.5281 90.8896,-37.6968 93.6573,-31.2672"/>
</g>
<!-- Node3 -->
<g id="node4" class="node"><title>Node3</title>
<polygon fill="white" stroke="#bfbfbf" points="119,-6 119,-25 202,-25 202,-6 119,-6"/>
<text text-anchor="middle" x="160.5" y="-13" font-family="Helvetica,sans-Serif" font-size="10.00">unordered_map</text>
</g>
<!-- Node1&#45;&gt;Node3 -->
<g id="edge3" class="edge"><title>Node1&#45;&gt;Node3</title>
<path fill="none" stroke="midnightblue" d="M195.971,-72.7338C189.7,-62.7928 179.321,-46.3377 171.405,-33.7892"/>
<polygon fill="midnightblue" stroke="midnightblue" points="174.237,-31.718 165.942,-25.1273 168.317,-35.4526 174.237,-31.718"/>
</g>
<!-- Node4 -->
<g id="node5" class="node"><title>Node4</title>
<polygon fill="white" stroke="#bfbfbf" points="220.5,-6 220.5,-25 264.5,-25 264.5,-6 220.5,-6"/>
<text text-anchor="middle" x="242.5" y="-13" font-family="Helvetica,sans-Serif" font-size="10.00">vector</text>
</g>
<!-- Node1&#45;&gt;Node4 -->
<g id="edge4" class="edge"><title>Node1&#45;&gt;Node4</title>
<path fill="none" stroke="midnightblue" d="M207.029,-72.7338C213.3,-62.7928 223.679,-46.3377 231.595,-33.7892"/>
<polygon fill="midnightblue" stroke="midnightblue" points="234.683,-35.4526 237.058,-25.1273 228.763,-31.718 234.683,-35.4526"/>
</g>
<!-- Node6 -->
<g id="node7" class="node"><title>Node6</title>
<polygon fill="white" stroke="#bfbfbf" points="283,-6 283,-25 332,-25 332,-6 283,-6"/>
<text text-anchor="middle" x="307.5" y="-13" font-family="Helvetica,sans-Serif" font-size="10.00">cassert</text>
</g>
<!-- Node5&#45;&gt;Node6 -->
<g id="edge6" class="edge"><title>Node5&#45;&gt;Node6</title>
<path fill="none" stroke="midnightblue" d="M424.573,-72.8685C401.577,-61.7961 361.471,-42.4862 334.703,-29.5978"/>
<polygon fill="midnightblue" stroke="midnightblue" points="336.03,-26.3519 325.501,-25.1672 332.993,-32.6589 336.03,-26.3519"/>
</g>
<!-- Node7 -->
<g id="node8" class="node"><title>Node7</title>
<polygon fill="white" stroke="#bfbfbf" points="350,-6 350,-25 397,-25 397,-6 350,-6"/>
<text text-anchor="middle" x="373.5" y="-13" font-family="Helvetica,sans-Serif" font-size="10.00">csignal</text>
</g>
<!-- Node5&#45;&gt;Node7 -->
<g id="edge7" class="edge"><title>Node5&#45;&gt;Node7</title>
<path fill="none" stroke="midnightblue" d="M433.194,-72.7338C422.228,-62.403 403.793,-45.0371 390.306,-32.3315"/>
<polygon fill="midnightblue" stroke="midnightblue" points="392.337,-29.4366 382.658,-25.1273 387.537,-34.5319 392.337,-29.4366"/>
</g>
<!-- Node8 -->
<g id="node9" class="node"><title>Node8</title>
<polygon fill="white" stroke="#bfbfbf" points="415.5,-6 415.5,-25 469.5,-25 469.5,-6 415.5,-6"/>
<text text-anchor="middle" x="442.5" y="-13" font-family="Helvetica,sans-Serif" font-size="10.00">iostream</text>
</g>
<!-- Node5&#45;&gt;Node8 -->
<g id="edge8" class="edge"><title>Node5&#45;&gt;Node8</title>
<path fill="none" stroke="midnightblue" d="M442.5,-72.7338C442.5,-63.1826 442.5,-47.6183 442.5,-35.2829"/>
<polygon fill="midnightblue" stroke="midnightblue" points="446,-35.1273 442.5,-25.1273 439,-35.1273 446,-35.1273"/>
</g>
<!-- Node9 -->
<g id="node10" class="node"><title>Node9</title>
<polygon fill="white" stroke="#bfbfbf" points="488,-6 488,-25 573,-25 573,-6 488,-6"/>
<text text-anchor="middle" x="530.5" y="-13" font-family="Helvetica,sans-Serif" font-size="10.00">spdlog/spdlog.h</text>
</g>
<!-- Node5&#45;&gt;Node9 -->
<g id="edge9" class="edge"><title>Node5&#45;&gt;Node9</title>
<path fill="none" stroke="midnightblue" d="M454.368,-72.7338C468.75,-62.1106 493.204,-44.0485 510.512,-31.2642"/>
<polygon fill="midnightblue" stroke="midnightblue" points="512.856,-33.884 518.82,-25.1273 508.697,-28.2534 512.856,-33.884"/>
</g>
<!-- Node10 -->
<g id="node11" class="node"><title>Node10</title>
<polygon fill="white" stroke="#bfbfbf" points="591.5,-6 591.5,-25 643.5,-25 643.5,-6 591.5,-6"/>
<text text-anchor="middle" x="617.5" y="-13" font-family="Helvetica,sans-Serif" font-size="10.00">sstream</text>
</g>
<!-- Node5&#45;&gt;Node10 -->
<g id="edge10" class="edge"><title>Node5&#45;&gt;Node10</title>
<path fill="none" stroke="midnightblue" d="M467.16,-72.9953C495.228,-63.225 542.382,-46.536 582.5,-31 584.145,-30.3632 585.828,-29.7006 587.526,-29.0248"/>
<polygon fill="midnightblue" stroke="midnightblue" points="589.257,-32.0994 597.206,-25.0949 586.624,-25.6134 589.257,-32.0994"/>
</g>
<!-- Node11 -->
<g id="node12" class="node"><title>Node11</title>
<polygon fill="white" stroke="#bfbfbf" points="662,-6 662,-25 703,-25 703,-6 662,-6"/>
<text text-anchor="middle" x="682.5" y="-13" font-family="Helvetica,sans-Serif" font-size="10.00">string</text>
</g>
<!-- Node5&#45;&gt;Node11 -->
<g id="edge11" class="edge"><title>Node5&#45;&gt;Node11</title>
<path fill="none" stroke="midnightblue" d="M467.6,-72.9376C474.049,-70.8687 481.001,-68.7515 487.5,-67 559.972,-47.4671 581.553,-55.5011 652.5,-31 654.116,-30.4418 655.76,-29.8191 657.402,-29.1543"/>
<polygon fill="midnightblue" stroke="midnightblue" points="658.902,-32.3177 666.603,-25.0419 656.045,-25.927 658.902,-32.3177"/>
</g>
</g>
</svg>
