<?xml version="1.0" encoding="UTF-8" standalone="no"?>
<!DOCTYPE svg PUBLIC "-//W3C//DTD SVG 1.1//EN"
 "http://www.w3.org/Graphics/SVG/1.1/DTD/svg11.dtd">
<!-- Generated by graphviz version 2.38.0 (20140413.2041)
 -->
<!-- Title: Leosac::Tasks::FetchRemoteConfig Pages: 1 -->
<!--zoomable 270 -->
<svg id="main" version="1.1" xmlns="http://www.w3.org/2000/svg" xmlns:xlink="http://www.w3.org/1999/xlink" xml:space="preserve" onload="init(evt)">
<style type="text/css"><![CDATA[
.edge:hover path { stroke: red; }
.edge:hover polygon { stroke: red; fill: red; }
]]></style>
<script type="text/javascript"><![CDATA[
var edges = document.getElementsByTagName('g');
if (edges && edges.length) {
  for (var i=0;i<edges.length;i++) {
    if (edges[i].id.substr(0,4)=='edge') {
      edges[i].setAttribute('class','edge');
    }
  }
}
]]></script>
        <defs>
                <circle id="rim" cx="0" cy="0" r="7"/>
                <circle id="rim2" cx="0" cy="0" r="3.5"/>
                <g id="zoomPlus">
                        <use xlink:href="#rim" fill="#404040">
                                <set attributeName="fill" to="#808080" begin="zoomplus.mouseover" end="zoomplus.mouseout"/>
                        </use>
                        <path d="M-4,0h8M0,-4v8" fill="none" stroke="white" stroke-width="1.5" pointer-events="none"/>
                </g>
                <g id="zoomMin">
                        <use xlink:href="#rim" fill="#404040">
                                <set attributeName="fill" to="#808080" begin="zoomminus.mouseover" end="zoomminus.mouseout"/>
                        </use>
                        <path d="M-4,0h8" fill="none" stroke="white" stroke-width="1.5" pointer-events="none"/>
                </g>
                <g id="dirArrow">
                        <path fill="none" stroke="white" stroke-width="1.5" d="M0,-3.0v7 M-2.5,-0.5L0,-3.0L2.5,-0.5"/>
                </g>
               <g id="resetDef">
                       <use xlink:href="#rim2" fill="#404040">
                               <set attributeName="fill" to="#808080" begin="reset.mouseover" end="reset.mouseout"/>
                       </use>
               </g>
        </defs>

<script type="text/javascript">
var viewWidth = 984;
var viewHeight = 270;
var sectionId = 'dynsection-1';
</script>
<script xlink:href="../../svgpan.js"/>
<svg id="graph" class="graph">
<g id="viewport">
<title>Leosac::Tasks::FetchRemoteConfig</title>
<polygon fill="white" stroke="none" points="-4,4 -4,-265.5 980,-265.5 980,4 -4,4"/>
<!-- Node2 -->
<g id="node1" class="node"><title>Node2</title>
<polygon fill="#bfbfbf" stroke="black" points="830,-145.5 830,-175.5 976,-175.5 976,-145.5 830,-145.5"/>
<text text-anchor="start" x="838" y="-163.5" font-family="Helvetica,sans-Serif" font-size="10.00">Leosac::Tasks::FetchRemote</text>
<text text-anchor="middle" x="903" y="-152.5" font-family="Helvetica,sans-Serif" font-size="10.00">Config</text>
</g>
<!-- Node3 -->
<g id="node2" class="node"><title>Node3</title>
<g id="a_node2"><a xlink:href="../../d5/d9f/classLeosac_1_1Tasks_1_1Task.html" target="_top" xlink:title="A base class for a tasks. ">
<polygon fill="white" stroke="black" points="465,-188 465,-207 574,-207 574,-188 465,-188"/>
<text text-anchor="middle" x="519.5" y="-195" font-family="Helvetica,sans-Serif" font-size="10.00">Leosac::Tasks::Task</text>
</a>
</g>
</g>
<!-- Node3&#45;&gt;Node2 -->
<g id="edge1" class="edge"><title>Node3&#45;&gt;Node2</title>
<path fill="none" stroke="midnightblue" d="M584.473,-191.296C652.27,-184.72 759.113,-174.358 829.862,-167.496"/>
<polygon fill="midnightblue" stroke="midnightblue" points="583.966,-187.828 574.35,-192.277 584.642,-194.796 583.966,-187.828"/>
</g>
<!-- Node4 -->
<g id="node3" class="node"><title>Node4</title>
<g id="a_node3"><a xlink:title="STL class. ">
<polygon fill="white" stroke="#bfbfbf" points="180.5,-96 180.5,-115 240.5,-115 240.5,-96 180.5,-96"/>
<text text-anchor="middle" x="210.5" y="-103" font-family="Helvetica,sans-Serif" font-size="10.00">std::string</text>
</a>
</g>
</g>
<!-- Node4&#45;&gt;Node3 -->
<g id="edge2" class="edge"><title>Node4&#45;&gt;Node3</title>
<path fill="none" stroke="#9a32cd" stroke-dasharray="5,2" d="M217.224,-124.833C224.562,-145.804 239.487,-178.316 265,-193.5 333.651,-234.357 432.381,-219.291 484.031,-207.062"/>
<polygon fill="#9a32cd" stroke="#9a32cd" points="220.473,-123.506 214.062,-115.071 213.814,-125.663 220.473,-123.506"/>
<text text-anchor="middle" x="286.5" y="-214.5" font-family="Helvetica,sans-Serif" font-size="10.00"> guid_</text>
</g>
<!-- Node6 -->
<g id="node5" class="node"><title>Node6</title>
<g id="a_node5"><a xlink:href="../../d2/d93/classLeosac_1_1RemoteConfigCollector.html" target="_top" xlink:title="This class provides an API to collect the configuration of a remote Leosac unit. ">
<polygon fill="white" stroke="black" points="592,-109 592,-128 748,-128 748,-109 592,-109"/>
<text text-anchor="middle" x="670" y="-116" font-family="Helvetica,sans-Serif" font-size="10.00">Leosac::RemoteConfigCollector</text>
</a>
</g>
</g>
<!-- Node4&#45;&gt;Node6 -->
<g id="edge12" class="edge"><title>Node4&#45;&gt;Node6</title>
<path fill="none" stroke="#9a32cd" stroke-dasharray="5,2" d="M250.861,-106.618C326.468,-108.767 493.23,-113.505 591.784,-116.306"/>
<polygon fill="#9a32cd" stroke="#9a32cd" points="250.91,-103.119 240.815,-106.333 250.711,-110.116 250.91,-103.119"/>
<text text-anchor="middle" x="386.5" y="-126.5" font-family="Helvetica,sans-Serif" font-size="10.00"> remote_pk_</text>
<text text-anchor="middle" x="386.5" y="-115.5" font-family="Helvetica,sans-Serif" font-size="10.00">remote_endpoint_</text>
</g>
<!-- Node7 -->
<g id="node6" class="node"><title>Node7</title>
<polygon fill="white" stroke="#bfbfbf" points="326,-0.5 326,-30.5 447,-30.5 447,-0.5 326,-0.5"/>
<text text-anchor="start" x="334" y="-18.5" font-family="Helvetica,sans-Serif" font-size="10.00">std::map&lt; std::string,</text>
<text text-anchor="middle" x="386.5" y="-7.5" font-family="Helvetica,sans-Serif" font-size="10.00"> FileNameContentList &gt;</text>
</g>
<!-- Node4&#45;&gt;Node7 -->
<g id="edge8" class="edge"><title>Node4&#45;&gt;Node7</title>
<path fill="none" stroke="#9a32cd" stroke-dasharray="5,2" d="M226.42,-88.1548C236.408,-77.4675 250.368,-64.1927 265,-55.5 283.667,-44.4107 305.808,-35.9332 325.987,-29.6993"/>
<polygon fill="#9a32cd" stroke="#9a32cd" points="223.709,-85.9345 219.61,-95.7042 228.907,-90.623 223.709,-85.9345"/>
<text text-anchor="middle" x="286.5" y="-58.5" font-family="Helvetica,sans-Serif" font-size="10.00"> keys</text>
</g>
<!-- Node10 -->
<g id="node9" class="node"><title>Node10</title>
<polygon fill="white" stroke="#bfbfbf" points="331.5,-146 331.5,-187 441.5,-187 441.5,-146 331.5,-146"/>
<text text-anchor="start" x="339.5" y="-175" font-family="Helvetica,sans-Serif" font-size="10.00">std::map&lt; std::string,</text>
<text text-anchor="start" x="339.5" y="-164" font-family="Helvetica,sans-Serif" font-size="10.00"> boost::property_tree</text>
<text text-anchor="middle" x="386.5" y="-153" font-family="Helvetica,sans-Serif" font-size="10.00">::ptree &gt;</text>
</g>
<!-- Node4&#45;&gt;Node10 -->
<g id="edge10" class="edge"><title>Node4&#45;&gt;Node10</title>
<path fill="none" stroke="#9a32cd" stroke-dasharray="5,2" d="M248.159,-118.352C272.236,-126.792 304.155,-137.982 331.161,-147.45"/>
<polygon fill="#9a32cd" stroke="#9a32cd" points="249.282,-115.037 238.688,-115.031 246.966,-121.643 249.282,-115.037"/>
<text text-anchor="middle" x="286.5" y="-141.5" font-family="Helvetica,sans-Serif" font-size="10.00"> keys</text>
</g>
<!-- Node12 -->
<g id="node11" class="node"><title>Node12</title>
<polygon fill="white" stroke="#bfbfbf" points="331.5,-50 331.5,-69 441.5,-69 441.5,-50 331.5,-50"/>
<text text-anchor="middle" x="386.5" y="-57" font-family="Helvetica,sans-Serif" font-size="10.00">std::list&lt; std::string &gt;</text>
</g>
<!-- Node4&#45;&gt;Node12 -->
<g id="edge15" class="edge"><title>Node4&#45;&gt;Node12</title>
<path fill="none" stroke="#9a32cd" stroke-dasharray="5,2" d="M237.887,-91.4813C246.358,-87.4435 255.905,-83.3617 265,-80.5 286.269,-73.8077 310.363,-69.0724 331.385,-65.8146"/>
<polygon fill="#9a32cd" stroke="#9a32cd" points="236.267,-88.3775 228.862,-95.954 239.376,-94.6495 236.267,-88.3775"/>
<text text-anchor="middle" x="286.5" y="-83.5" font-family="Helvetica,sans-Serif" font-size="10.00"> elements</text>
</g>
<!-- Node5 -->
<g id="node4" class="node"><title>Node5</title>
<g id="a_node4"><a xlink:title="STL class. ">
<polygon fill="white" stroke="#bfbfbf" points="0,-90.5 0,-120.5 95,-120.5 95,-90.5 0,-90.5"/>
<text text-anchor="start" x="8" y="-108.5" font-family="Helvetica,sans-Serif" font-size="10.00">std::basic_string&lt;</text>
<text text-anchor="middle" x="47.5" y="-97.5" font-family="Helvetica,sans-Serif" font-size="10.00"> char &gt;</text>
</a>
</g>
</g>
<!-- Node5&#45;&gt;Node4 -->
<g id="edge3" class="edge"><title>Node5&#45;&gt;Node4</title>
<path fill="none" stroke="midnightblue" d="M105.309,-105.5C130.63,-105.5 159.385,-105.5 180.262,-105.5"/>
<polygon fill="midnightblue" stroke="midnightblue" points="105.068,-102 95.0679,-105.5 105.068,-109 105.068,-102"/>
</g>
<!-- Node6&#45;&gt;Node2 -->
<g id="edge4" class="edge"><title>Node6&#45;&gt;Node2</title>
<path fill="none" stroke="#9a32cd" stroke-dasharray="5,2" d="M733.64,-129.889C763.287,-135.279 798.86,-141.747 829.653,-147.346"/>
<polygon fill="#9a32cd" stroke="#9a32cd" points="733.882,-126.376 723.417,-128.03 732.63,-133.263 733.882,-126.376"/>
<text text-anchor="middle" x="789" y="-146.5" font-family="Helvetica,sans-Serif" font-size="10.00"> collector_</text>
</g>
<!-- Node7&#45;&gt;Node6 -->
<g id="edge5" class="edge"><title>Node7&#45;&gt;Node6</title>
<path fill="none" stroke="#9a32cd" stroke-dasharray="5,2" d="M457.801,-20.8196C493.682,-25.3768 537.371,-33.8297 574,-49.5 608.671,-64.3328 642.844,-93.7616 659.132,-108.944"/>
<polygon fill="#9a32cd" stroke="#9a32cd" points="457.762,-17.2901 447.417,-19.5807 456.932,-24.2408 457.762,-17.2901"/>
<text text-anchor="middle" x="519.5" y="-52.5" font-family="Helvetica,sans-Serif" font-size="10.00"> additional_files_</text>
</g>
<!-- Node8 -->
<g id="node7" class="node"><title>Node8</title>
<g id="a_node7"><a xlink:title="STL class. ">
<polygon fill="white" stroke="#bfbfbf" points="174,-2 174,-21 247,-21 247,-2 174,-2"/>
<text text-anchor="middle" x="210.5" y="-9" font-family="Helvetica,sans-Serif" font-size="10.00">std::list&lt; T &gt;</text>
</a>
</g>
</g>
<!-- Node8&#45;&gt;Node7 -->
<g id="edge6" class="edge"><title>Node8&#45;&gt;Node7</title>
<path fill="none" stroke="#9a32cd" stroke-dasharray="5,2" d="M257.431,-11.7105C273.436,-11.8543 291.512,-12.0955 308,-12.5 313.788,-12.642 319.818,-12.8209 325.846,-13.0204"/>
<polygon fill="#9a32cd" stroke="#9a32cd" points="257.278,-8.20925 247.25,-11.6294 257.222,-15.209 257.278,-8.20925"/>
<text text-anchor="middle" x="286.5" y="-15.5" font-family="Helvetica,sans-Serif" font-size="10.00"> elements</text>
</g>
<!-- Node9 -->
<g id="node8" class="node"><title>Node9</title>
<polygon fill="white" stroke="#bfbfbf" points="33,-2 33,-21 62,-21 62,-2 33,-2"/>
<text text-anchor="middle" x="47.5" y="-9" font-family="Helvetica,sans-Serif" font-size="10.00">T</text>
</g>
<!-- Node9&#45;&gt;Node8 -->
<g id="edge7" class="edge"><title>Node9&#45;&gt;Node8</title>
<path fill="none" stroke="#9a32cd" stroke-dasharray="5,2" d="M72.2512,-11.5C99.0455,-11.5 142.909,-11.5 173.825,-11.5"/>
<polygon fill="#9a32cd" stroke="#9a32cd" points="72.2268,-8.0001 62.2268,-11.5 72.2267,-15.0001 72.2268,-8.0001"/>
<text text-anchor="middle" x="134.5" y="-14.5" font-family="Helvetica,sans-Serif" font-size="10.00"> elements</text>
</g>
<!-- Node10&#45;&gt;Node6 -->
<g id="edge9" class="edge"><title>Node10&#45;&gt;Node6</title>
<path fill="none" stroke="#9a32cd" stroke-dasharray="5,2" d="M451.87,-155.524C500.478,-147.235 566.52,-135.974 612.964,-128.055"/>
<polygon fill="#9a32cd" stroke="#9a32cd" points="451.045,-152.114 441.776,-157.245 452.222,-159.014 451.045,-152.114"/>
<text text-anchor="middle" x="519.5" y="-155.5" font-family="Helvetica,sans-Serif" font-size="10.00"> config_map_</text>
</g>
<!-- Node11 -->
<g id="node10" class="node"><title>Node11</title>
<polygon fill="white" stroke="#bfbfbf" points="191.5,-213 191.5,-232 229.5,-232 229.5,-213 191.5,-213"/>
<text text-anchor="middle" x="210.5" y="-220" font-family="Helvetica,sans-Serif" font-size="10.00">ptree</text>
</g>
<!-- Node11&#45;&gt;Node6 -->
<g id="edge13" class="edge"><title>Node11&#45;&gt;Node6</title>
<path fill="none" stroke="#9a32cd" stroke-dasharray="5,2" d="M239.814,-229.79C303.484,-244.594 461.196,-272.284 574,-216.5 616.056,-195.702 649.886,-148.452 663.057,-128.109"/>
<polygon fill="#9a32cd" stroke="#9a32cd" points="240.276,-226.301 229.735,-227.368 238.641,-233.108 240.276,-226.301"/>
<text text-anchor="middle" x="386.5" y="-253.5" font-family="Helvetica,sans-Serif" font-size="10.00"> general_config_</text>
</g>
<!-- Node11&#45;&gt;Node10 -->
<g id="edge11" class="edge"><title>Node11&#45;&gt;Node10</title>
<path fill="none" stroke="#9a32cd" stroke-dasharray="5,2" d="M228.644,-206.095C238.506,-197.636 251.576,-187.971 265,-182.5 285.716,-174.057 309.936,-169.863 331.206,-167.846"/>
<polygon fill="#9a32cd" stroke="#9a32cd" points="226.281,-203.513 221.179,-212.798 230.958,-208.722 226.281,-203.513"/>
<text text-anchor="middle" x="286.5" y="-185.5" font-family="Helvetica,sans-Serif" font-size="10.00"> elements</text>
</g>
<!-- Node12&#45;&gt;Node6 -->
<g id="edge14" class="edge"><title>Node12&#45;&gt;Node6</title>
<path fill="none" stroke="#9a32cd" stroke-dasharray="5,2" d="M451.618,-62.4628C487.948,-65.1962 533.996,-70.442 574,-80.5 601.047,-87.3002 630.65,-100.052 649.501,-108.898"/>
<polygon fill="#9a32cd" stroke="#9a32cd" points="451.864,-58.9716 441.642,-61.7566 451.37,-65.9541 451.864,-58.9716"/>
<text text-anchor="middle" x="519.5" y="-83.5" font-family="Helvetica,sans-Serif" font-size="10.00"> module_list_</text>
</g>
</g>
</svg>
        <g id="navigator" transform="translate(0 0)" fill="#404254">
                <rect fill="#f2f5e9" fill-opacity="0.5" stroke="#606060" stroke-width=".5" x="0" y="0" width="60" height="60"/>
                <use id="zoomplus" xlink:href="#zoomPlus" x="17" y="9" onmousedown="handleZoom(evt,'in')"/>
                <use id="zoomminus" xlink:href="#zoomMin" x="42" y="9" onmousedown="handleZoom(evt,'out')"/>
                <use id="reset" xlink:href="#resetDef" x="30" y="36" onmousedown="handleReset()"/>
                <g id="arrowUp" xlink:href="#dirArrow" transform="translate(30 24)" onmousedown="handlePan(0,-1)">
                  <use xlink:href="#rim" fill="#404040">
                        <set attributeName="fill" to="#808080" begin="arrowUp.mouseover" end="arrowUp.mouseout"/>
                  </use>
                  <path fill="none" stroke="white" stroke-width="1.5" d="M0,-3.0v7 M-2.5,-0.5L0,-3.0L2.5,-0.5"/>
                </g>
                <g id="arrowRight" xlink:href="#dirArrow" transform="rotate(90) translate(36 -43)" onmousedown="handlePan(1,0)">
                  <use xlink:href="#rim" fill="#404040">
                        <set attributeName="fill" to="#808080" begin="arrowRight.mouseover" end="arrowRight.mouseout"/>
                  </use>
                  <path fill="none" stroke="white" stroke-width="1.5" d="M0,-3.0v7 M-2.5,-0.5L0,-3.0L2.5,-0.5"/>
                </g>
                <g id="arrowDown" xlink:href="#dirArrow" transform="rotate(180) translate(-30 -48)" onmousedown="handlePan(0,1)">
                  <use xlink:href="#rim" fill="#404040">
                        <set attributeName="fill" to="#808080" begin="arrowDown.mouseover" end="arrowDown.mouseout"/>
                  </use>
                  <path fill="none" stroke="white" stroke-width="1.5" d="M0,-3.0v7 M-2.5,-0.5L0,-3.0L2.5,-0.5"/>
                </g>
                <g id="arrowLeft" xlink:href="#dirArrow" transform="rotate(270) translate(-36 17)" onmousedown="handlePan(-1,0)">
                  <use xlink:href="#rim" fill="#404040">
                        <set attributeName="fill" to="#808080" begin="arrowLeft.mouseover" end="arrowLeft.mouseout"/>
                  </use>
                  <path fill="none" stroke="white" stroke-width="1.5" d="M0,-3.0v7 M-2.5,-0.5L0,-3.0L2.5,-0.5"/>
                </g>
        </g>
        <svg viewBox="0 0 15 15" width="100%" height="30px" preserveAspectRatio="xMaxYMin meet">
         <g id="arrow_out" transform="scale(0.3 0.3)">
          <a xlink:href="classLeosac_1_1Tasks_1_1FetchRemoteConfig__coll__graph_org.svg" target="_base">
           <rect id="button" ry="5" rx="5" y="6" x="6" height="38" width="38"
                fill="#f2f5e9" fill-opacity="0.5" stroke="#606060" stroke-width="1.0"/>
           <path id="arrow"
             d="M 11.500037,31.436501 C 11.940474,20.09759 22.043105,11.32322 32.158766,21.979434 L 37.068811,17.246167 C 37.068811,17.246167 37.088388,32 37.088388,32 L 22.160133,31.978069 C 22.160133,31.978069 26.997745,27.140456 26.997745,27.140456 C 18.528582,18.264221 13.291696,25.230495 11.500037,31.436501 z"
             style="fill:#404040;"/>
          </a>
         </g>
        </svg>
</svg>
