<?xml version="1.0" encoding="UTF-8" standalone="no"?>
<!DOCTYPE svg PUBLIC "-//W3C//DTD SVG 1.1//EN"
 "http://www.w3.org/Graphics/SVG/1.1/DTD/svg11.dtd">
<!-- Generated by graphviz version 2.38.0 (20140413.2041)
 -->
<!-- Title: src/tools/timeout.hpp Pages: 1 -->
<svg width="428pt" height="140pt"
 viewBox="0.00 0.00 428.00 140.00" xmlns="http://www.w3.org/2000/svg" xmlns:xlink="http://www.w3.org/1999/xlink">
<g id="graph0" class="graph" transform="scale(1 1) rotate(0) translate(4 136)">
<title>src/tools/timeout.hpp</title>
<polygon fill="white" stroke="none" points="-4,4 -4,-136 424,-136 424,4 -4,4"/>
<!-- Node0 -->
<g id="node1" class="node"><title>Node0</title>
<polygon fill="#bfbfbf" stroke="black" points="181.5,-112.5 181.5,-131.5 289.5,-131.5 289.5,-112.5 181.5,-112.5"/>
<text text-anchor="middle" x="235.5" y="-119.5" font-family="Helvetica,sans-Serif" font-size="10.00">src/tools/timeout.hpp</text>
</g>
<!-- Node1 -->
<g id="node2" class="node"><title>Node1</title>
<g id="a_node2"><a xlink:href="../../d4/d3d/log_8hpp.html" target="_top" xlink:title="log.hpp">
<polygon fill="white" stroke="black" points="179.5,-56.5 179.5,-75.5 227.5,-75.5 227.5,-56.5 179.5,-56.5"/>
<text text-anchor="middle" x="203.5" y="-63.5" font-family="Helvetica,sans-Serif" font-size="10.00">log.hpp</text>
</a>
</g>
</g>
<!-- Node0&#45;&gt;Node1 -->
<g id="edge1" class="edge"><title>Node0&#45;&gt;Node1</title>
<path fill="none" stroke="midnightblue" d="M230.216,-112.083C225.789,-104.613 219.337,-93.7244 213.882,-84.5199"/>
<polygon fill="midnightblue" stroke="midnightblue" points="216.795,-82.5697 208.686,-75.7511 210.773,-86.1383 216.795,-82.5697"/>
</g>
<!-- Node8 -->
<g id="node9" class="node"><title>Node8</title>
<polygon fill="white" stroke="#bfbfbf" points="245.5,-56.5 245.5,-75.5 291.5,-75.5 291.5,-56.5 245.5,-56.5"/>
<text text-anchor="middle" x="268.5" y="-63.5" font-family="Helvetica,sans-Serif" font-size="10.00">chrono</text>
</g>
<!-- Node0&#45;&gt;Node8 -->
<g id="edge8" class="edge"><title>Node0&#45;&gt;Node8</title>
<path fill="none" stroke="midnightblue" d="M240.949,-112.083C245.514,-104.613 252.168,-93.7244 257.793,-84.5199"/>
<polygon fill="midnightblue" stroke="midnightblue" points="260.924,-86.109 263.152,-75.7511 254.951,-82.4588 260.924,-86.109"/>
</g>
<!-- Node2 -->
<g id="node3" class="node"><title>Node2</title>
<polygon fill="white" stroke="#bfbfbf" points="0,-0.5 0,-19.5 49,-19.5 49,-0.5 0,-0.5"/>
<text text-anchor="middle" x="24.5" y="-7.5" font-family="Helvetica,sans-Serif" font-size="10.00">cassert</text>
</g>
<!-- Node1&#45;&gt;Node2 -->
<g id="edge2" class="edge"><title>Node1&#45;&gt;Node2</title>
<path fill="none" stroke="midnightblue" d="M179.359,-57.7173C148.352,-48.3632 94.332,-32.0666 58.9958,-21.4066"/>
<polygon fill="midnightblue" stroke="midnightblue" points="59.7025,-17.964 49.1177,-18.4266 57.6807,-24.6657 59.7025,-17.964"/>
</g>
<!-- Node3 -->
<g id="node4" class="node"><title>Node3</title>
<polygon fill="white" stroke="#bfbfbf" points="67,-0.5 67,-19.5 114,-19.5 114,-0.5 67,-0.5"/>
<text text-anchor="middle" x="90.5" y="-7.5" font-family="Helvetica,sans-Serif" font-size="10.00">csignal</text>
</g>
<!-- Node1&#45;&gt;Node3 -->
<g id="edge3" class="edge"><title>Node1&#45;&gt;Node3</title>
<path fill="none" stroke="midnightblue" d="M185.595,-56.4435C167.246,-47.6751 138.495,-33.9355 117.406,-23.8579"/>
<polygon fill="midnightblue" stroke="midnightblue" points="118.853,-20.6703 108.321,-19.5164 115.835,-26.9862 118.853,-20.6703"/>
</g>
<!-- Node4 -->
<g id="node5" class="node"><title>Node4</title>
<polygon fill="white" stroke="#bfbfbf" points="132.5,-0.5 132.5,-19.5 186.5,-19.5 186.5,-0.5 132.5,-0.5"/>
<text text-anchor="middle" x="159.5" y="-7.5" font-family="Helvetica,sans-Serif" font-size="10.00">iostream</text>
</g>
<!-- Node1&#45;&gt;Node4 -->
<g id="edge4" class="edge"><title>Node1&#45;&gt;Node4</title>
<path fill="none" stroke="midnightblue" d="M196.234,-56.083C189.955,-48.3768 180.712,-37.0333 173.069,-27.6531"/>
<polygon fill="midnightblue" stroke="midnightblue" points="175.661,-25.2926 166.631,-19.7511 170.234,-29.7143 175.661,-25.2926"/>
</g>
<!-- Node5 -->
<g id="node6" class="node"><title>Node5</title>
<polygon fill="white" stroke="#bfbfbf" points="205,-0.5 205,-19.5 290,-19.5 290,-0.5 205,-0.5"/>
<text text-anchor="middle" x="247.5" y="-7.5" font-family="Helvetica,sans-Serif" font-size="10.00">spdlog/spdlog.h</text>
</g>
<!-- Node1&#45;&gt;Node5 -->
<g id="edge5" class="edge"><title>Node1&#45;&gt;Node5</title>
<path fill="none" stroke="midnightblue" d="M210.766,-56.083C217.045,-48.3768 226.288,-37.0333 233.931,-27.6531"/>
<polygon fill="midnightblue" stroke="midnightblue" points="236.766,-29.7143 240.369,-19.7511 231.339,-25.2926 236.766,-29.7143"/>
</g>
<!-- Node6 -->
<g id="node7" class="node"><title>Node6</title>
<polygon fill="white" stroke="#bfbfbf" points="308.5,-0.5 308.5,-19.5 360.5,-19.5 360.5,-0.5 308.5,-0.5"/>
<text text-anchor="middle" x="334.5" y="-7.5" font-family="Helvetica,sans-Serif" font-size="10.00">sstream</text>
</g>
<!-- Node1&#45;&gt;Node6 -->
<g id="edge6" class="edge"><title>Node1&#45;&gt;Node6</title>
<path fill="none" stroke="midnightblue" d="M224.257,-56.4435C245.816,-47.5566 279.763,-33.5632 304.294,-23.4514"/>
<polygon fill="midnightblue" stroke="midnightblue" points="305.928,-26.5634 313.84,-19.5164 303.261,-20.0917 305.928,-26.5634"/>
</g>
<!-- Node7 -->
<g id="node8" class="node"><title>Node7</title>
<polygon fill="white" stroke="#bfbfbf" points="379,-0.5 379,-19.5 420,-19.5 420,-0.5 379,-0.5"/>
<text text-anchor="middle" x="399.5" y="-7.5" font-family="Helvetica,sans-Serif" font-size="10.00">string</text>
</g>
<!-- Node1&#45;&gt;Node7 -->
<g id="edge7" class="edge"><title>Node1&#45;&gt;Node7</title>
<path fill="none" stroke="midnightblue" d="M227.649,-58.4082C230.63,-57.5962 233.635,-56.7785 236.5,-56 292.71,-40.7276 309.04,-37.1377 369.236,-20.0176"/>
<polygon fill="midnightblue" stroke="midnightblue" points="370.209,-23.3799 378.865,-17.2707 368.288,-16.6485 370.209,-23.3799"/>
</g>
</g>
</svg>
