<?xml version="1.0" encoding="UTF-8" standalone="no"?>
<!DOCTYPE svg PUBLIC "-//W3C//DTD SVG 1.1//EN"
 "http://www.w3.org/Graphics/SVG/1.1/DTD/svg11.dtd">
<!-- Generated by graphviz version 2.38.0 (20140413.2041)
 -->
<!-- Title: src/core/auth/Zone.hpp Pages: 1 -->
<svg width="336pt" height="196pt"
 viewBox="0.00 0.00 336.00 196.00" xmlns="http://www.w3.org/2000/svg" xmlns:xlink="http://www.w3.org/1999/xlink">
<g id="graph0" class="graph" transform="scale(1 1) rotate(0) translate(4 192)">
<title>src/core/auth/Zone.hpp</title>
<polygon fill="white" stroke="none" points="-4,4 -4,-192 332,-192 332,4 -4,4"/>
<!-- Node0 -->
<g id="node1" class="node"><title>Node0</title>
<polygon fill="#bfbfbf" stroke="black" points="109.5,-168.5 109.5,-187.5 226.5,-187.5 226.5,-168.5 109.5,-168.5"/>
<text text-anchor="middle" x="168" y="-175.5" font-family="Helvetica,sans-Serif" font-size="10.00">src/core/auth/Zone.hpp</text>
</g>
<!-- Node1 -->
<g id="node2" class="node"><title>Node1</title>
<g id="a_node2"><a xlink:href="../../dc/d49/LeosacFwd_8hpp.html" target="_top" xlink:title="LeosacFwd.hpp">
<polygon fill="white" stroke="black" points="0,-112.5 0,-131.5 86,-131.5 86,-112.5 0,-112.5"/>
<text text-anchor="middle" x="43" y="-119.5" font-family="Helvetica,sans-Serif" font-size="10.00">LeosacFwd.hpp</text>
</a>
</g>
</g>
<!-- Node0&#45;&gt;Node1 -->
<g id="edge1" class="edge"><title>Node0&#45;&gt;Node1</title>
<path fill="none" stroke="midnightblue" d="M148.193,-168.444C127.713,-159.596 95.5173,-145.687 72.1353,-135.586"/>
<polygon fill="midnightblue" stroke="midnightblue" points="73.282,-132.269 62.714,-131.516 70.5059,-138.695 73.282,-132.269"/>
</g>
<!-- Node4 -->
<g id="node5" class="node"><title>Node4</title>
<g id="a_node5"><a xlink:href="../../d2/d72/IZone_8hpp.html" target="_top" xlink:title="core/auth/IZone.hpp">
<polygon fill="white" stroke="black" points="116,-112.5 116,-131.5 220,-131.5 220,-112.5 116,-112.5"/>
<text text-anchor="middle" x="168" y="-119.5" font-family="Helvetica,sans-Serif" font-size="10.00">core/auth/IZone.hpp</text>
</a>
</g>
</g>
<!-- Node0&#45;&gt;Node4 -->
<g id="edge4" class="edge"><title>Node0&#45;&gt;Node4</title>
<path fill="none" stroke="midnightblue" d="M168,-168.083C168,-161.006 168,-150.861 168,-141.986"/>
<polygon fill="midnightblue" stroke="midnightblue" points="171.5,-141.751 168,-131.751 164.5,-141.751 171.5,-141.751"/>
</g>
<!-- Node9 -->
<g id="node10" class="node"><title>Node9</title>
<polygon fill="white" stroke="#bfbfbf" points="238,-112.5 238,-131.5 328,-131.5 328,-112.5 238,-112.5"/>
<text text-anchor="middle" x="283" y="-119.5" font-family="Helvetica,sans-Serif" font-size="10.00">odb/callback.hxx</text>
</g>
<!-- Node0&#45;&gt;Node9 -->
<g id="edge11" class="edge"><title>Node0&#45;&gt;Node9</title>
<path fill="none" stroke="midnightblue" d="M186.222,-168.444C204.896,-159.675 234.156,-145.935 255.617,-135.858"/>
<polygon fill="midnightblue" stroke="midnightblue" points="257.299,-138.935 264.863,-131.516 254.324,-132.599 257.299,-138.935"/>
</g>
<!-- Node2 -->
<g id="node3" class="node"><title>Node2</title>
<polygon fill="white" stroke="#bfbfbf" points="67,-0.5 67,-19.5 119,-19.5 119,-0.5 67,-0.5"/>
<text text-anchor="middle" x="93" y="-7.5" font-family="Helvetica,sans-Serif" font-size="10.00">memory</text>
</g>
<!-- Node1&#45;&gt;Node2 -->
<g id="edge2" class="edge"><title>Node1&#45;&gt;Node2</title>
<path fill="none" stroke="midnightblue" d="M33.4082,-112.344C20.5497,-99.6513 0.587425,-75.3958 12,-56 21.8203,-39.3102 40.3146,-28.3664 57.1543,-21.455"/>
<polygon fill="midnightblue" stroke="midnightblue" points="58.6651,-24.6266 66.7999,-17.8387 56.2077,-18.0721 58.6651,-24.6266"/>
</g>
<!-- Node3 -->
<g id="node4" class="node"><title>Node3</title>
<polygon fill="white" stroke="#bfbfbf" points="21,-56.5 21,-75.5 65,-75.5 65,-56.5 21,-56.5"/>
<text text-anchor="middle" x="43" y="-63.5" font-family="Helvetica,sans-Serif" font-size="10.00">vector</text>
</g>
<!-- Node1&#45;&gt;Node3 -->
<g id="edge3" class="edge"><title>Node1&#45;&gt;Node3</title>
<path fill="none" stroke="midnightblue" d="M43,-112.083C43,-105.006 43,-94.8611 43,-85.9865"/>
<polygon fill="midnightblue" stroke="midnightblue" points="46.5001,-85.751 43,-75.7511 39.5001,-85.7511 46.5001,-85.751"/>
</g>
<!-- Node4&#45;&gt;Node2 -->
<g id="edge9" class="edge"><title>Node4&#45;&gt;Node2</title>
<path fill="none" stroke="midnightblue" d="M152.747,-112.402C140.067,-104.501 122.464,-91.6583 112,-76 102.711,-62.1012 97.8796,-43.5898 95.4193,-29.8773"/>
<polygon fill="midnightblue" stroke="midnightblue" points="98.8338,-29.0513 93.8646,-19.6942 91.914,-30.1079 98.8338,-29.0513"/>
</g>
<!-- Node5 -->
<g id="node6" class="node"><title>Node5</title>
<g id="a_node6"><a xlink:href="../../d3/d6f/AuthFwd_8hpp.html" target="_top" xlink:title="core/auth/AuthFwd.hpp">
<polygon fill="white" stroke="black" points="121,-56.5 121,-75.5 239,-75.5 239,-56.5 121,-56.5"/>
<text text-anchor="middle" x="180" y="-63.5" font-family="Helvetica,sans-Serif" font-size="10.00">core/auth/AuthFwd.hpp</text>
</a>
</g>
</g>
<!-- Node4&#45;&gt;Node5 -->
<g id="edge5" class="edge"><title>Node4&#45;&gt;Node5</title>
<path fill="none" stroke="midnightblue" d="M169.982,-112.083C171.572,-104.927 173.859,-94.6353 175.846,-85.6911"/>
<polygon fill="midnightblue" stroke="midnightblue" points="179.303,-86.2722 178.055,-75.7511 172.469,-84.7537 179.303,-86.2722"/>
</g>
<!-- Node8 -->
<g id="node9" class="node"><title>Node8</title>
<polygon fill="white" stroke="#bfbfbf" points="257.5,-56.5 257.5,-75.5 298.5,-75.5 298.5,-56.5 257.5,-56.5"/>
<text text-anchor="middle" x="278" y="-63.5" font-family="Helvetica,sans-Serif" font-size="10.00">string</text>
</g>
<!-- Node4&#45;&gt;Node8 -->
<g id="edge10" class="edge"><title>Node4&#45;&gt;Node8</title>
<path fill="none" stroke="midnightblue" d="M185.673,-112.324C203.394,-103.625 230.903,-90.1202 251.288,-80.113"/>
<polygon fill="midnightblue" stroke="midnightblue" points="252.936,-83.2031 260.37,-75.6545 249.851,-76.9195 252.936,-83.2031"/>
</g>
<!-- Node5&#45;&gt;Node2 -->
<g id="edge7" class="edge"><title>Node5&#45;&gt;Node2</title>
<path fill="none" stroke="midnightblue" d="M166.022,-56.324C152.45,-47.9002 131.62,-34.9709 115.675,-25.0741"/>
<polygon fill="midnightblue" stroke="midnightblue" points="117.286,-21.9544 106.943,-19.6545 113.594,-27.9019 117.286,-21.9544"/>
</g>
<!-- Node6 -->
<g id="node7" class="node"><title>Node6</title>
<polygon fill="white" stroke="#bfbfbf" points="146.5,-0.5 146.5,-19.5 195.5,-19.5 195.5,-0.5 146.5,-0.5"/>
<text text-anchor="middle" x="171" y="-7.5" font-family="Helvetica,sans-Serif" font-size="10.00">cstddef</text>
</g>
<!-- Node5&#45;&gt;Node6 -->
<g id="edge6" class="edge"><title>Node5&#45;&gt;Node6</title>
<path fill="none" stroke="midnightblue" d="M178.514,-56.083C177.321,-48.9272 175.606,-38.6353 174.115,-29.6911"/>
<polygon fill="midnightblue" stroke="midnightblue" points="177.555,-29.0396 172.459,-19.7511 170.65,-30.1904 177.555,-29.0396"/>
</g>
<!-- Node7 -->
<g id="node8" class="node"><title>Node7</title>
<polygon fill="white" stroke="#bfbfbf" points="214,-0.5 214,-19.5 300,-19.5 300,-0.5 214,-0.5"/>
<text text-anchor="middle" x="257" y="-7.5" font-family="Helvetica,sans-Serif" font-size="10.00">odb/lazy&#45;ptr.hxx</text>
</g>
<!-- Node5&#45;&gt;Node7 -->
<g id="edge8" class="edge"><title>Node5&#45;&gt;Node7</title>
<path fill="none" stroke="midnightblue" d="M192.371,-56.324C204.158,-48.0577 222.132,-35.4527 236.136,-25.6322"/>
<polygon fill="midnightblue" stroke="midnightblue" points="238.482,-28.2619 244.659,-19.6545 234.462,-22.5307 238.482,-28.2619"/>
</g>
</g>
</svg>
