<?xml version="1.0" encoding="UTF-8" standalone="no"?>
<!DOCTYPE svg PUBLIC "-//W3C//DTD SVG 1.1//EN"
 "http://www.w3.org/Graphics/SVG/1.1/DTD/svg11.dtd">
<!-- Generated by graphviz version 2.38.0 (20140413.2041)
 -->
<!-- Title: Leosac::Tasks::GetLocalConfigVersion Pages: 1 -->
<svg width="2218pt" height="661pt"
 viewBox="0.00 0.00 2218.00 661.00" xmlns="http://www.w3.org/2000/svg" xmlns:xlink="http://www.w3.org/1999/xlink">
<g id="graph0" class="graph" transform="scale(1 1) rotate(0) translate(4 657)">
<title>Leosac::Tasks::GetLocalConfigVersion</title>
<polygon fill="white" stroke="none" points="-4,4 -4,-657 2214,-657 2214,4 -4,4"/>
<!-- Node2 -->
<g id="node1" class="node"><title>Node2</title>
<polygon fill="#bfbfbf" stroke="black" points="1882,-387 1882,-417 2037,-417 2037,-387 1882,-387"/>
<text text-anchor="start" x="1890" y="-405" font-family="Helvetica,sans-Serif" font-size="10.00">Leosac::Tasks::GetLocalConfig</text>
<text text-anchor="middle" x="1959.5" y="-394" font-family="Helvetica,sans-Serif" font-size="10.00">Version</text>
</g>
<!-- Node3 -->
<g id="node2" class="node"><title>Node3</title>
<g id="a_node2"><a xlink:href="../../d5/d9f/classLeosac_1_1Tasks_1_1Task.html" target="_top" xlink:title="A base class for a tasks. ">
<polygon fill="white" stroke="black" points="414,-437.5 414,-456.5 523,-456.5 523,-437.5 414,-437.5"/>
<text text-anchor="middle" x="468.5" y="-444.5" font-family="Helvetica,sans-Serif" font-size="10.00">Leosac::Tasks::Task</text>
</a>
</g>
</g>
<!-- Node3&#45;&gt;Node2 -->
<g id="edge1" class="edge"><title>Node3&#45;&gt;Node2</title>
<path fill="none" stroke="midnightblue" d="M533.093,-439.6C590.585,-433.553 677.594,-426 753.5,-426 753.5,-426 753.5,-426 1771,-426 1807.59,-426 1847.88,-421.447 1881.7,-416.307"/>
<polygon fill="midnightblue" stroke="midnightblue" points="532.638,-436.129 523.066,-440.671 533.381,-443.089 532.638,-436.129"/>
</g>
<!-- Node4 -->
<g id="node3" class="node"><title>Node4</title>
<g id="a_node3"><a xlink:title="STL class. ">
<polygon fill="white" stroke="#bfbfbf" points="132,-362.5 132,-381.5 192,-381.5 192,-362.5 132,-362.5"/>
<text text-anchor="middle" x="162" y="-369.5" font-family="Helvetica,sans-Serif" font-size="10.00">std::string</text>
</a>
</g>
</g>
<!-- Node4&#45;&gt;Node3 -->
<g id="edge2" class="edge"><title>Node4&#45;&gt;Node3</title>
<path fill="none" stroke="#9a32cd" stroke-dasharray="5,2" d="M182.219,-387.868C190.338,-393.805 200.177,-400.058 210,-404 277.091,-430.923 360.539,-440.989 413.917,-444.753"/>
<polygon fill="#9a32cd" stroke="#9a32cd" points="184.227,-384.997 174.167,-381.674 179.959,-390.546 184.227,-384.997"/>
<text text-anchor="middle" x="231.5" y="-421" font-family="Helvetica,sans-Serif" font-size="10.00"> guid_</text>
</g>
<!-- Node7 -->
<g id="node6" class="node"><title>Node7</title>
<g id="a_node6"><a xlink:href="../../dc/db8/classLeosac_1_1Tools_1_1XmlNodeNameEnforcer.html" target="_top" xlink:title="This class is a simple wrapper that throws a ConfigException message formated to report the user that...">
<polygon fill="white" stroke="black" points="679,-373 679,-403 830,-403 830,-373 679,-373"/>
<text text-anchor="start" x="687" y="-391" font-family="Helvetica,sans-Serif" font-size="10.00">Leosac::Tools::XmlNodeName</text>
<text text-anchor="middle" x="754.5" y="-380" font-family="Helvetica,sans-Serif" font-size="10.00">Enforcer</text>
</a>
</g>
</g>
<!-- Node4&#45;&gt;Node7 -->
<g id="edge7" class="edge"><title>Node4&#45;&gt;Node7</title>
<path fill="none" stroke="#9a32cd" stroke-dasharray="5,2" d="M202.209,-375.523C204.844,-375.702 207.46,-375.864 210,-376 377.286,-384.956 573.88,-387.262 678.717,-387.833"/>
<polygon fill="#9a32cd" stroke="#9a32cd" points="202.297,-372.02 192.063,-374.761 201.773,-379 202.297,-372.02"/>
<text text-anchor="middle" x="333.5" y="-387" font-family="Helvetica,sans-Serif" font-size="10.00"> path_</text>
</g>
<!-- Node8 -->
<g id="node7" class="node"><title>Node8</title>
<polygon fill="white" stroke="#bfbfbf" points="1354,-283 1354,-313 1469,-313 1469,-283 1354,-283"/>
<text text-anchor="start" x="1362" y="-301" font-family="Helvetica,sans-Serif" font-size="10.00">std::map&lt; EnvironVar,</text>
<text text-anchor="middle" x="1411.5" y="-290" font-family="Helvetica,sans-Serif" font-size="10.00"> std::string &gt;</text>
</g>
<!-- Node4&#45;&gt;Node8 -->
<g id="edge9" class="edge"><title>Node4&#45;&gt;Node8</title>
<path fill="none" stroke="#9a32cd" stroke-dasharray="5,2" d="M188.542,-357.509C209.844,-346.266 241.389,-331.531 271,-325 480.667,-278.757 1153.64,-291.51 1353.82,-296.469"/>
<polygon fill="#9a32cd" stroke="#9a32cd" points="186.652,-354.552 179.519,-362.387 189.981,-360.71 186.652,-354.552"/>
<text text-anchor="middle" x="601" y="-302" font-family="Helvetica,sans-Serif" font-size="10.00"> elements</text>
</g>
<!-- Node9 -->
<g id="node8" class="node"><title>Node9</title>
<g id="a_node8"><a xlink:href="../../d4/d7a/classLeosac_1_1ConfigManager.html" target="_top" xlink:title="That class helps manage the configuration for the application and its module. ">
<polygon fill="white" stroke="black" points="541,-129.5 541,-148.5 661,-148.5 661,-129.5 541,-129.5"/>
<text text-anchor="middle" x="601" y="-136.5" font-family="Helvetica,sans-Serif" font-size="10.00">Leosac::ConfigManager</text>
</a>
</g>
</g>
<!-- Node4&#45;&gt;Node9 -->
<g id="edge14" class="edge"><title>Node4&#45;&gt;Node9</title>
<path fill="none" stroke="#9a32cd" stroke-dasharray="5,2" d="M165.273,-352.435C169.397,-326.098 180.608,-279.597 210,-254 318.034,-159.917 394.074,-239.458 523,-177 532.121,-172.581 532.223,-168.068 541,-163 550.672,-157.415 561.896,-152.501 571.941,-148.598"/>
<polygon fill="#9a32cd" stroke="#9a32cd" points="161.803,-351.985 163.908,-362.369 168.737,-352.939 161.803,-351.985"/>
<text text-anchor="middle" x="333.5" y="-219" font-family="Helvetica,sans-Serif" font-size="10.00"> instance_name_</text>
</g>
<!-- Node10 -->
<g id="node9" class="node"><title>Node10</title>
<polygon fill="white" stroke="#bfbfbf" points="278.5,-151.5 278.5,-192.5 388.5,-192.5 388.5,-151.5 278.5,-151.5"/>
<text text-anchor="start" x="286.5" y="-180.5" font-family="Helvetica,sans-Serif" font-size="10.00">std::map&lt; std::string,</text>
<text text-anchor="start" x="286.5" y="-169.5" font-family="Helvetica,sans-Serif" font-size="10.00"> boost::property_tree</text>
<text text-anchor="middle" x="333.5" y="-158.5" font-family="Helvetica,sans-Serif" font-size="10.00">::ptree &gt;</text>
</g>
<!-- Node4&#45;&gt;Node10 -->
<g id="edge12" class="edge"><title>Node4&#45;&gt;Node10</title>
<path fill="none" stroke="#9a32cd" stroke-dasharray="5,2" d="M162.58,-352.064C162.977,-317.01 169.053,-244.246 210,-204 228.028,-186.281 254.579,-178.024 278.358,-174.303"/>
<polygon fill="#9a32cd" stroke="#9a32cd" points="159.082,-352.418 162.621,-362.404 166.081,-352.39 159.082,-352.418"/>
<text text-anchor="middle" x="231.5" y="-207" font-family="Helvetica,sans-Serif" font-size="10.00"> keys</text>
</g>
<!-- Node14 -->
<g id="node13" class="node"><title>Node14</title>
<polygon fill="white" stroke="#bfbfbf" points="271,-334.5 271,-353.5 396,-353.5 396,-334.5 271,-334.5"/>
<text text-anchor="middle" x="333.5" y="-341.5" font-family="Helvetica,sans-Serif" font-size="10.00">std::vector&lt; std::string &gt;</text>
</g>
<!-- Node4&#45;&gt;Node14 -->
<g id="edge20" class="edge"><title>Node4&#45;&gt;Node14</title>
<path fill="none" stroke="#9a32cd" stroke-dasharray="5,2" d="M202.249,-365.516C223.841,-361.95 251.035,-357.457 274.982,-353.501"/>
<polygon fill="#9a32cd" stroke="#9a32cd" points="201.434,-362.104 192.138,-367.187 202.575,-369.01 201.434,-362.104"/>
<text text-anchor="middle" x="231.5" y="-367" font-family="Helvetica,sans-Serif" font-size="10.00"> elements</text>
</g>
<!-- Node16 -->
<g id="node15" class="node"><title>Node16</title>
<g id="a_node15"><a xlink:href="../../d4/d18/structModuleManager_1_1ModuleInfo.html" target="_top" xlink:title="Internal helper struct that store informations related to module that are useful to the module manage...">
<polygon fill="white" stroke="black" points="861.5,-196.5 861.5,-215.5 1001.5,-215.5 1001.5,-196.5 861.5,-196.5"/>
<text text-anchor="middle" x="931.5" y="-203.5" font-family="Helvetica,sans-Serif" font-size="10.00">ModuleManager::ModuleInfo</text>
</a>
</g>
</g>
<!-- Node4&#45;&gt;Node16 -->
<g id="edge24" class="edge"><title>Node4&#45;&gt;Node16</title>
<path fill="none" stroke="#9a32cd" stroke-dasharray="5,2" d="M168.801,-352.906C175.542,-334.191 188.569,-306.436 210,-292 326.618,-213.449 414.164,-335.02 523,-246 541.282,-231.047 521.677,-209.581 541,-196 584.634,-165.333 607.676,-195.011 661,-196 729.112,-197.263 806.857,-200.321 861.283,-202.725"/>
<polygon fill="#9a32cd" stroke="#9a32cd" points="165.455,-351.877 165.616,-362.471 172.096,-354.089 165.455,-351.877"/>
<text text-anchor="middle" x="468.5" y="-284" font-family="Helvetica,sans-Serif" font-size="10.00"> name_</text>
</g>
<!-- Node22 -->
<g id="node21" class="node"><title>Node22</title>
<g id="a_node21"><a xlink:href="../../d7/d42/classLeosac_1_1RemoteControl.html" target="_top" xlink:title="This class handle the remote control of leosac. ">
<polygon fill="white" stroke="black" points="1899.5,-475.5 1899.5,-494.5 2019.5,-494.5 2019.5,-475.5 1899.5,-475.5"/>
<text text-anchor="middle" x="1959.5" y="-482.5" font-family="Helvetica,sans-Serif" font-size="10.00">Leosac::RemoteControl</text>
</a>
</g>
</g>
<!-- Node4&#45;&gt;Node22 -->
<g id="edge34" class="edge"><title>Node4&#45;&gt;Node22</title>
<path fill="none" stroke="#9a32cd" stroke-dasharray="5,2" d="M162.452,-392.039C162.51,-429.421 167.881,-510.397 210,-559 248.511,-603.44 273.695,-609 332.5,-609 332.5,-609 332.5,-609 1771,-609 1853.74,-609 1928.03,-523.962 1951.12,-494.73"/>
<polygon fill="#9a32cd" stroke="#9a32cd" points="165.953,-391.961 162.569,-381.921 158.953,-391.879 165.953,-391.961"/>
<text text-anchor="middle" x="1111.5" y="-645" font-family="Helvetica,sans-Serif" font-size="10.00"> public_key_</text>
<text text-anchor="start" x="1074" y="-634" font-family="Helvetica,sans-Serif" font-size="10.00">current_client_idt</text>
<text text-anchor="middle" x="1111.5" y="-623" font-family="Helvetica,sans-Serif" font-size="10.00">_</text>
<text text-anchor="middle" x="1111.5" y="-612" font-family="Helvetica,sans-Serif" font-size="10.00">secret_key_</text>
</g>
<!-- Node23 -->
<g id="node22" class="node"><title>Node23</title>
<polygon fill="white" stroke="#bfbfbf" points="1033,-520 1033,-572 1190,-572 1190,-520 1033,-520"/>
<text text-anchor="start" x="1041" y="-560" font-family="Helvetica,sans-Serif" font-size="10.00">std::map&lt; std::string,</text>
<text text-anchor="start" x="1041" y="-549" font-family="Helvetica,sans-Serif" font-size="10.00"> std::function&lt; bool</text>
<text text-anchor="start" x="1041" y="-538" font-family="Helvetica,sans-Serif" font-size="10.00">(zmqpp::message *msg_in,</text>
<text text-anchor="middle" x="1111.5" y="-527" font-family="Helvetica,sans-Serif" font-size="10.00"> zmqpp::message *msg_out)&gt; &gt;</text>
</g>
<!-- Node4&#45;&gt;Node23 -->
<g id="edge33" class="edge"><title>Node4&#45;&gt;Node23</title>
<path fill="none" stroke="#9a32cd" stroke-dasharray="5,2" d="M163.368,-391.732C165.048,-424.581 173.135,-490.653 210,-529 249.888,-570.492 274.944,-571 332.5,-571 332.5,-571 332.5,-571 755.5,-571 851.112,-571 960.851,-561.865 1032.7,-554.639"/>
<polygon fill="#9a32cd" stroke="#9a32cd" points="166.86,-391.466 163.004,-381.598 159.865,-391.717 166.86,-391.466"/>
<text text-anchor="middle" x="468.5" y="-574" font-family="Helvetica,sans-Serif" font-size="10.00"> keys</text>
</g>
<!-- Node25 -->
<g id="node24" class="node"><title>Node25</title>
<polygon fill="white" stroke="#bfbfbf" points="544,-454.5 544,-495.5 658,-495.5 658,-454.5 544,-454.5"/>
<text text-anchor="start" x="552" y="-483.5" font-family="Helvetica,sans-Serif" font-size="10.00">std::unordered_map</text>
<text text-anchor="start" x="552" y="-472.5" font-family="Helvetica,sans-Serif" font-size="10.00">&lt; std::string, std::</text>
<text text-anchor="middle" x="601" y="-461.5" font-family="Helvetica,sans-Serif" font-size="10.00">vector&lt; std::string &gt; &gt;</text>
</g>
<!-- Node4&#45;&gt;Node25 -->
<g id="edge37" class="edge"><title>Node4&#45;&gt;Node25</title>
<path fill="none" stroke="#9a32cd" stroke-dasharray="5,2" d="M172.987,-390.993C181.154,-404.691 193.958,-422.542 210,-433 233.388,-448.247 243.465,-443.39 271,-448 365.959,-463.899 477.973,-470.558 543.762,-473.258"/>
<polygon fill="#9a32cd" stroke="#9a32cd" points="175.834,-388.916 167.879,-381.918 169.734,-392.35 175.834,-388.916"/>
<text text-anchor="middle" x="333.5" y="-467" font-family="Helvetica,sans-Serif" font-size="10.00"> keys</text>
</g>
<!-- Node26 -->
<g id="node25" class="node"><title>Node26</title>
<polygon fill="white" stroke="#bfbfbf" points="417,-508 417,-538 520,-538 520,-508 417,-508"/>
<text text-anchor="start" x="425" y="-526" font-family="Helvetica,sans-Serif" font-size="10.00">std::unordered_map</text>
<text text-anchor="middle" x="468.5" y="-515" font-family="Helvetica,sans-Serif" font-size="10.00">&lt; std::string, bool &gt;</text>
</g>
<!-- Node4&#45;&gt;Node26 -->
<g id="edge40" class="edge"><title>Node4&#45;&gt;Node26</title>
<path fill="none" stroke="#9a32cd" stroke-dasharray="5,2" d="M164.937,-391.875C168.672,-418.539 179.436,-465.277 210,-489 269.31,-535.035 360.395,-535.571 416.834,-530.319"/>
<polygon fill="#9a32cd" stroke="#9a32cd" points="168.395,-391.314 163.729,-381.802 161.444,-392.148 168.395,-391.314"/>
<text text-anchor="middle" x="231.5" y="-517" font-family="Helvetica,sans-Serif" font-size="10.00"> keys</text>
</g>
<!-- Node28 -->
<g id="node27" class="node"><title>Node28</title>
<g id="a_node27"><a xlink:href="../../d2/d91/classLeosac_1_1NetworkConfig.html" target="_top" xlink:title="Class that helps configuring the network. ">
<polygon fill="white" stroke="black" points="1900,-124.5 1900,-143.5 2019,-143.5 2019,-124.5 1900,-124.5"/>
<text text-anchor="middle" x="1959.5" y="-131.5" font-family="Helvetica,sans-Serif" font-size="10.00">Leosac::NetworkConfig</text>
</a>
</g>
</g>
<!-- Node4&#45;&gt;Node28 -->
<g id="edge45" class="edge"><title>Node4&#45;&gt;Node28</title>
<path fill="none" stroke="#9a32cd" stroke-dasharray="5,2" d="M164.267,-352.44C167.946,-301.768 180.314,-168.02 210,-137 240.855,-104.758 555.373,-41 600,-41 600,-41 600,-41 1771,-41 1845.49,-41 1920.91,-100.636 1948.01,-124.398"/>
<polygon fill="#9a32cd" stroke="#9a32cd" points="160.774,-352.214 163.577,-362.431 167.757,-352.696 160.774,-352.214"/>
<text text-anchor="middle" x="1111.5" y="-88" font-family="Helvetica,sans-Serif" font-size="10.00"> _ip</text>
<text text-anchor="middle" x="1111.5" y="-77" font-family="Helvetica,sans-Serif" font-size="10.00">_interface</text>
<text text-anchor="middle" x="1111.5" y="-66" font-family="Helvetica,sans-Serif" font-size="10.00">_defaultIp</text>
<text text-anchor="middle" x="1111.5" y="-55" font-family="Helvetica,sans-Serif" font-size="10.00">_gateway</text>
<text text-anchor="middle" x="1111.5" y="-44" font-family="Helvetica,sans-Serif" font-size="10.00">_netmask</text>
</g>
<!-- Node5 -->
<g id="node4" class="node"><title>Node5</title>
<g id="a_node4"><a xlink:title="STL class. ">
<polygon fill="white" stroke="#bfbfbf" points="0,-357 0,-387 95,-387 95,-357 0,-357"/>
<text text-anchor="start" x="8" y="-375" font-family="Helvetica,sans-Serif" font-size="10.00">std::basic_string&lt;</text>
<text text-anchor="middle" x="47.5" y="-364" font-family="Helvetica,sans-Serif" font-size="10.00"> char &gt;</text>
</a>
</g>
</g>
<!-- Node5&#45;&gt;Node4 -->
<g id="edge3" class="edge"><title>Node5&#45;&gt;Node4</title>
<path fill="none" stroke="midnightblue" d="M105.526,-372C114.678,-372 123.803,-372 131.931,-372"/>
<polygon fill="midnightblue" stroke="midnightblue" points="105.233,-368.5 95.2328,-372 105.233,-375.5 105.233,-368.5"/>
</g>
<!-- Node6 -->
<g id="node5" class="node"><title>Node6</title>
<g id="a_node5"><a xlink:href="../../d1/d50/classLeosac_1_1Kernel.html" target="_top" xlink:title="Core of Leosac. ">
<polygon fill="white" stroke="black" points="1729,-286.5 1729,-305.5 1811,-305.5 1811,-286.5 1729,-286.5"/>
<text text-anchor="middle" x="1770" y="-293.5" font-family="Helvetica,sans-Serif" font-size="10.00">Leosac::Kernel</text>
</a>
</g>
</g>
<!-- Node6&#45;&gt;Node2 -->
<g id="edge4" class="edge"><title>Node6&#45;&gt;Node2</title>
<path fill="none" stroke="#9a32cd" stroke-dasharray="5,2" d="M1792.87,-311.573C1803.58,-318.969 1816.77,-327.754 1829,-335 1861.56,-354.285 1900.26,-373.895 1926.82,-386.874"/>
<polygon fill="#9a32cd" stroke="#9a32cd" points="1794.74,-308.61 1784.54,-305.752 1790.73,-314.348 1794.74,-308.61"/>
<text text-anchor="middle" x="1846.5" y="-358" font-family="Helvetica,sans-Serif" font-size="10.00"> kernel_</text>
</g>
<!-- Node6&#45;&gt;Node6 -->
<g id="edge5" class="edge"><title>Node6&#45;&gt;Node6</title>
<path fill="none" stroke="#9a32cd" stroke-dasharray="5,2" d="M1756,-315.766C1757.1,-320.497 1761.77,-324 1770,-324 1783.51,-324 1787.41,-314.565 1781.71,-305.757"/>
<polygon fill="#9a32cd" stroke="#9a32cd" points="1759.48,-316.285 1758.29,-305.757 1752.65,-314.729 1759.48,-316.285"/>
<text text-anchor="middle" x="1770" y="-327" font-family="Helvetica,sans-Serif" font-size="10.00"> instance_</text>
</g>
<!-- Node6&#45;&gt;Node22 -->
<g id="edge31" class="edge"><title>Node6&#45;&gt;Node22</title>
<path fill="none" stroke="#9a32cd" stroke-dasharray="5,2" d="M1783.84,-313.794C1803.29,-340.078 1842.22,-390.042 1882,-426 1902.78,-444.782 1929,-464.167 1944.73,-475.375"/>
<polygon fill="#9a32cd" stroke="#9a32cd" points="1786.53,-311.547 1777.8,-305.547 1780.88,-315.683 1786.53,-311.547"/>
<text text-anchor="middle" x="1846.5" y="-410" font-family="Helvetica,sans-Serif" font-size="10.00"> kernel_</text>
</g>
<!-- Node6&#45;&gt;Node28 -->
<g id="edge44" class="edge"><title>Node6&#45;&gt;Node28</title>
<path fill="none" stroke="#9a32cd" stroke-dasharray="5,2" d="M1790.1,-279.495C1828.93,-245.949 1916.01,-170.713 1947.15,-143.803"/>
<polygon fill="#9a32cd" stroke="#9a32cd" points="1787.45,-277.165 1782.17,-286.351 1792.02,-282.462 1787.45,-277.165"/>
<text text-anchor="middle" x="1846.5" y="-247" font-family="Helvetica,sans-Serif" font-size="10.00"> kernel_</text>
</g>
<!-- Node7&#45;&gt;Node6 -->
<g id="edge6" class="edge"><title>Node7&#45;&gt;Node6</title>
<path fill="none" stroke="#9a32cd" stroke-dasharray="5,2" d="M840.5,-391.225C994.594,-395.848 1330.05,-400.293 1610,-365 1655.68,-359.242 1669.49,-361.909 1711,-342 1730.24,-332.774 1748.91,-316.171 1759.67,-305.638"/>
<polygon fill="#9a32cd" stroke="#9a32cd" points="840.272,-387.716 830.169,-390.906 840.056,-394.713 840.272,-387.716"/>
<text text-anchor="middle" x="1272" y="-396" font-family="Helvetica,sans-Serif" font-size="10.00"> xmlnne_</text>
</g>
<!-- Node8&#45;&gt;Node6 -->
<g id="edge8" class="edge"><title>Node8&#45;&gt;Node6</title>
<path fill="none" stroke="#9a32cd" stroke-dasharray="5,2" d="M1479.46,-297.624C1552.9,-297.212 1668.37,-296.565 1728.91,-296.225"/>
<polygon fill="#9a32cd" stroke="#9a32cd" points="1479.36,-294.125 1469.38,-297.681 1479.4,-301.125 1479.36,-294.125"/>
<text text-anchor="middle" x="1548.5" y="-301" font-family="Helvetica,sans-Serif" font-size="10.00"> environ_</text>
</g>
<!-- Node9&#45;&gt;Node6 -->
<g id="edge10" class="edge"><title>Node9&#45;&gt;Node6</title>
<path fill="none" stroke="#9a32cd" stroke-dasharray="5,2" d="M671.336,-137.115C673.923,-137.071 676.484,-137.033 679,-137 746.105,-136.129 762.901,-135.731 830,-137 912.266,-138.556 932.798,-140.396 1015,-144 1157.71,-150.256 1194.35,-141.596 1336,-160 1459.44,-176.038 1489.21,-187.916 1610,-218 1655.32,-229.287 1669.8,-224.998 1711,-247 1730.53,-257.433 1749.41,-275.275 1760.08,-286.309"/>
<polygon fill="#9a32cd" stroke="#9a32cd" points="671.203,-133.617 661.271,-137.305 671.336,-140.615 671.203,-133.617"/>
<text text-anchor="middle" x="1272" y="-163" font-family="Helvetica,sans-Serif" font-size="10.00"> config_manager_</text>
</g>
<!-- Node13 -->
<g id="node12" class="node"><title>Node13</title>
<g id="a_node12"><a xlink:href="../../d0/dc3/classModuleManager.html" target="_top" xlink:title="A second module manager that loads &quot;ZMQ aware&quot; module – modules that talks to the application throug...">
<polygon fill="white" stroke="black" points="1505.5,-227.5 1505.5,-246.5 1591.5,-246.5 1591.5,-227.5 1505.5,-227.5"/>
<text text-anchor="middle" x="1548.5" y="-234.5" font-family="Helvetica,sans-Serif" font-size="10.00">ModuleManager</text>
</a>
</g>
</g>
<!-- Node9&#45;&gt;Node13 -->
<g id="edge18" class="edge"><title>Node9&#45;&gt;Node13</title>
<path fill="none" stroke="#9a32cd" stroke-dasharray="5,2" d="M671.548,-140.44C802.285,-143.877 1093.39,-154.993 1336,-189 1399.58,-197.911 1472.28,-216.244 1513.76,-227.496"/>
<polygon fill="#9a32cd" stroke="#9a32cd" points="671.37,-136.935 661.284,-140.178 671.191,-143.932 671.37,-136.935"/>
<text text-anchor="middle" x="1111.5" y="-174" font-family="Helvetica,sans-Serif" font-size="10.00"> config_manager_</text>
</g>
<!-- Node9&#45;&gt;Node16 -->
<g id="edge23" class="edge"><title>Node9&#45;&gt;Node16</title>
<path fill="none" stroke="#9a32cd" stroke-dasharray="5,2" d="M671.209,-149.031C735.416,-158.382 822.226,-171.158 830,-173 856.09,-179.182 885.109,-189.046 905.231,-196.382"/>
<polygon fill="#9a32cd" stroke="#9a32cd" points="671.514,-145.538 661.114,-147.562 670.506,-152.465 671.514,-145.538"/>
<text text-anchor="middle" x="754.5" y="-176" font-family="Helvetica,sans-Serif" font-size="10.00"> cfg_</text>
</g>
<!-- Node10&#45;&gt;Node9 -->
<g id="edge11" class="edge"><title>Node10&#45;&gt;Node9</title>
<path fill="none" stroke="#9a32cd" stroke-dasharray="5,2" d="M398.693,-164.021C442.012,-158.637 498.754,-151.584 540.951,-146.339"/>
<polygon fill="#9a32cd" stroke="#9a32cd" points="398.04,-160.575 388.548,-165.282 398.903,-167.522 398.04,-160.575"/>
<text text-anchor="middle" x="468.5" y="-165" font-family="Helvetica,sans-Serif" font-size="10.00"> modules_configs_</text>
</g>
<!-- Node11 -->
<g id="node10" class="node"><title>Node11</title>
<polygon fill="white" stroke="#bfbfbf" points="143,-55.5 143,-74.5 181,-74.5 181,-55.5 143,-55.5"/>
<text text-anchor="middle" x="162" y="-62.5" font-family="Helvetica,sans-Serif" font-size="10.00">ptree</text>
</g>
<!-- Node11&#45;&gt;Node9 -->
<g id="edge15" class="edge"><title>Node11&#45;&gt;Node9</title>
<path fill="none" stroke="#9a32cd" stroke-dasharray="5,2" d="M191.539,-63.3183C213.304,-62.1232 244.031,-60.6239 271,-60 326.541,-58.715 341.39,-49.7952 396,-60 468.053,-73.4643 547.412,-111.529 582.108,-129.448"/>
<polygon fill="#9a32cd" stroke="#9a32cd" points="191.124,-59.836 181.336,-63.8923 191.517,-66.825 191.124,-59.836"/>
<text text-anchor="middle" x="333.5" y="-63" font-family="Helvetica,sans-Serif" font-size="10.00"> kernel_config_</text>
</g>
<!-- Node11&#45;&gt;Node10 -->
<g id="edge13" class="edge"><title>Node11&#45;&gt;Node10</title>
<path fill="none" stroke="#9a32cd" stroke-dasharray="5,2" d="M183.712,-80.5896C191.801,-86.5173 201.226,-93.2285 210,-99 238.336,-117.64 271.427,-137.236 296.068,-151.426"/>
<polygon fill="#9a32cd" stroke="#9a32cd" points="185.671,-77.6855 175.552,-74.5466 181.505,-83.3108 185.671,-77.6855"/>
<text text-anchor="middle" x="231.5" y="-128" font-family="Helvetica,sans-Serif" font-size="10.00"> elements</text>
</g>
<!-- Node24 -->
<g id="node23" class="node"><title>Node24</title>
<g id="a_node23"><a xlink:href="../../d5/df3/classLeosac_1_1RemoteControlSecurity.html" target="_top" xlink:title="Provide some kind of security framework to the Remote Control service. ">
<polygon fill="white" stroke="black" points="853.5,-475.5 853.5,-494.5 1009.5,-494.5 1009.5,-475.5 853.5,-475.5"/>
<text text-anchor="middle" x="931.5" y="-482.5" font-family="Helvetica,sans-Serif" font-size="10.00">Leosac::RemoteControlSecurity</text>
</a>
</g>
</g>
<!-- Node11&#45;&gt;Node24 -->
<g id="edge41" class="edge"><title>Node11&#45;&gt;Node24</title>
<path fill="none" stroke="#9a32cd" stroke-dasharray="5,2" d="M191.059,-71.4466C245.842,-84.4778 364.441,-115.012 396,-142 409.294,-153.369 401.629,-164.634 414,-177 452.52,-215.504 476.182,-205.172 523,-233 524.994,-234.185 659.708,-325.074 661,-327 682.508,-359.071 652.721,-383.706 679,-412 705.338,-440.358 807.877,-463.284 873.615,-475.461"/>
<polygon fill="#9a32cd" stroke="#9a32cd" points="191.839,-68.0344 181.303,-69.1507 190.235,-74.8483 191.839,-68.0344"/>
<text text-anchor="middle" x="468.5" y="-236" font-family="Helvetica,sans-Serif" font-size="10.00"> cfg_</text>
</g>
<!-- Node11&#45;&gt;Node28 -->
<g id="edge46" class="edge"><title>Node11&#45;&gt;Node28</title>
<path fill="none" stroke="#9a32cd" stroke-dasharray="5,2" d="M185.755,-50.1106C217.332,-30.9221 276.851,-0 332.5,-0 332.5,-0 332.5,-0 1771,-0 1814.04,-0 1827.65,-3.95735 1864,-27 1905.66,-53.4049 1939.65,-103.415 1952.73,-124.376"/>
<polygon fill="#9a32cd" stroke="#9a32cd" points="183.888,-47.1502 177.251,-55.409 187.59,-53.0913 183.888,-47.1502"/>
<text text-anchor="middle" x="1111.5" y="-3" font-family="Helvetica,sans-Serif" font-size="10.00"> config_</text>
</g>
<!-- Node12 -->
<g id="node11" class="node"><title>Node12</title>
<g id="a_node11"><a xlink:href="../../dd/dc8/classMessageBus.html" target="_top" xlink:title="Implements a message bus (running in its own thread) that use 2 sockets. ">
<polygon fill="white" stroke="black" points="1511.5,-69.5 1511.5,-88.5 1585.5,-88.5 1585.5,-69.5 1511.5,-69.5"/>
<text text-anchor="middle" x="1548.5" y="-76.5" font-family="Helvetica,sans-Serif" font-size="10.00">MessageBus</text>
</a>
</g>
</g>
<!-- Node12&#45;&gt;Node6 -->
<g id="edge16" class="edge"><title>Node12&#45;&gt;Node6</title>
<path fill="none" stroke="#9a32cd" stroke-dasharray="5,2" d="M1595.68,-69.7172C1631.13,-65.386 1679.23,-65.9376 1711,-92 1742.24,-117.631 1762.55,-249.284 1767.7,-286.305"/>
<polygon fill="#9a32cd" stroke="#9a32cd" points="1595.01,-66.2777 1585.58,-71.1227 1595.97,-73.2109 1595.01,-66.2777"/>
<text text-anchor="middle" x="1669.5" y="-95" font-family="Helvetica,sans-Serif" font-size="10.00"> bus_</text>
</g>
<!-- Node13&#45;&gt;Node6 -->
<g id="edge17" class="edge"><title>Node13&#45;&gt;Node6</title>
<path fill="none" stroke="#9a32cd" stroke-dasharray="5,2" d="M1601.61,-245.245C1633.59,-250.973 1675.14,-259.623 1711,-271 1724.17,-275.178 1738.43,-281.3 1749.51,-286.439"/>
<polygon fill="#9a32cd" stroke="#9a32cd" points="1602.04,-241.767 1591.58,-243.488 1600.83,-248.662 1602.04,-241.767"/>
<text text-anchor="middle" x="1669.5" y="-274" font-family="Helvetica,sans-Serif" font-size="10.00"> module_manager_</text>
</g>
<!-- Node14&#45;&gt;Node13 -->
<g id="edge19" class="edge"><title>Node14&#45;&gt;Node13</title>
<path fill="none" stroke="#9a32cd" stroke-dasharray="5,2" d="M402.932,-332.877C501.157,-317.351 687.931,-289.464 848,-275 1123.18,-250.134 1193.59,-268.193 1469,-246 1480.76,-245.052 1493.48,-243.726 1505.18,-242.382"/>
<polygon fill="#9a32cd" stroke="#9a32cd" points="402.169,-329.454 392.841,-334.478 403.266,-336.367 402.169,-329.454"/>
<text text-anchor="middle" x="931.5" y="-278" font-family="Helvetica,sans-Serif" font-size="10.00"> path_</text>
</g>
<!-- Node14&#45;&gt;Node25 -->
<g id="edge38" class="edge"><title>Node14&#45;&gt;Node25</title>
<path fill="none" stroke="#9a32cd" stroke-dasharray="5,2" d="M368.701,-357.231C377.6,-360.705 387.169,-364.469 396,-368 452.634,-390.643 469.604,-390.521 523,-420 540.977,-429.925 559.757,-443.271 574.269,-454.33"/>
<polygon fill="#9a32cd" stroke="#9a32cd" points="369.962,-353.966 359.373,-353.599 367.422,-360.489 369.962,-353.966"/>
<text text-anchor="middle" x="468.5" y="-423" font-family="Helvetica,sans-Serif" font-size="10.00"> elements</text>
</g>
<!-- Node15 -->
<g id="node14" class="node"><title>Node15</title>
<polygon fill="white" stroke="#bfbfbf" points="1208,-199 1208,-229 1336,-229 1336,-199 1208,-199"/>
<text text-anchor="start" x="1216" y="-217" font-family="Helvetica,sans-Serif" font-size="10.00">std::set&lt; ModuleManager</text>
<text text-anchor="middle" x="1272" y="-206" font-family="Helvetica,sans-Serif" font-size="10.00">::ModuleInfo &gt;</text>
</g>
<!-- Node15&#45;&gt;Node13 -->
<g id="edge21" class="edge"><title>Node15&#45;&gt;Node13</title>
<path fill="none" stroke="#9a32cd" stroke-dasharray="5,2" d="M1346.6,-220.167C1397.43,-224.426 1463.22,-229.938 1505.4,-233.473"/>
<polygon fill="#9a32cd" stroke="#9a32cd" points="1346.58,-216.653 1336.32,-219.306 1345.99,-223.628 1346.58,-216.653"/>
<text text-anchor="middle" x="1411.5" y="-234" font-family="Helvetica,sans-Serif" font-size="10.00"> modules_</text>
</g>
<!-- Node16&#45;&gt;Node15 -->
<g id="edge22" class="edge"><title>Node16&#45;&gt;Node15</title>
<path fill="none" stroke="#9a32cd" stroke-dasharray="5,2" d="M1011.96,-207.878C1071.69,-209.289 1152.4,-211.197 1207.77,-212.506"/>
<polygon fill="#9a32cd" stroke="#9a32cd" points="1011.9,-204.376 1001.82,-207.638 1011.73,-211.374 1011.9,-204.376"/>
<text text-anchor="middle" x="1111.5" y="-216" font-family="Helvetica,sans-Serif" font-size="10.00"> keys</text>
</g>
<!-- Node17 -->
<g id="node16" class="node"><title>Node17</title>
<polygon fill="white" stroke="#bfbfbf" points="541.5,-206 541.5,-236 660.5,-236 660.5,-206 541.5,-206"/>
<text text-anchor="start" x="549.5" y="-224" font-family="Helvetica,sans-Serif" font-size="10.00">std::unique_ptr&lt; zmqpp</text>
<text text-anchor="middle" x="601" y="-213" font-family="Helvetica,sans-Serif" font-size="10.00">::actor &gt;</text>
</g>
<!-- Node17&#45;&gt;Node16 -->
<g id="edge25" class="edge"><title>Node17&#45;&gt;Node16</title>
<path fill="none" stroke="#9a32cd" stroke-dasharray="5,2" d="M670.908,-217.854C726.885,-215.298 805.46,-211.71 861.47,-209.152"/>
<polygon fill="#9a32cd" stroke="#9a32cd" points="670.559,-214.366 660.729,-218.318 670.878,-221.358 670.559,-214.366"/>
<text text-anchor="middle" x="754.5" y="-221" font-family="Helvetica,sans-Serif" font-size="10.00"> actor_</text>
</g>
<!-- Node18 -->
<g id="node17" class="node"><title>Node18</title>
<polygon fill="white" stroke="#bfbfbf" points="1487,-326 1487,-356 1610,-356 1610,-326 1487,-326"/>
<text text-anchor="start" x="1495" y="-344" font-family="Helvetica,sans-Serif" font-size="10.00">std::unique_ptr&lt; Service</text>
<text text-anchor="middle" x="1548.5" y="-333" font-family="Helvetica,sans-Serif" font-size="10.00">Registry &gt;</text>
</g>
<!-- Node18&#45;&gt;Node6 -->
<g id="edge26" class="edge"><title>Node18&#45;&gt;Node6</title>
<path fill="none" stroke="#9a32cd" stroke-dasharray="5,2" d="M1620.41,-328.138C1648.66,-322.818 1681.43,-316.404 1711,-310 1717.38,-308.619 1724.13,-307.07 1730.68,-305.519"/>
<polygon fill="#9a32cd" stroke="#9a32cd" points="1619.41,-324.765 1610.22,-330.046 1620.7,-331.645 1619.41,-324.765"/>
<text text-anchor="middle" x="1669.5" y="-330" font-family="Helvetica,sans-Serif" font-size="10.00"> service_registry_</text>
</g>
<!-- Node19 -->
<g id="node18" class="node"><title>Node19</title>
<g id="a_node18"><a xlink:href="../../df/d75/classLeosac_1_1ServiceRegistry.html" target="_top" xlink:title="A class that manages services. ">
<polygon fill="white" stroke="black" points="1210,-331.5 1210,-350.5 1334,-350.5 1334,-331.5 1210,-331.5"/>
<text text-anchor="middle" x="1272" y="-338.5" font-family="Helvetica,sans-Serif" font-size="10.00">Leosac::ServiceRegistry</text>
</a>
</g>
</g>
<!-- Node19&#45;&gt;Node18 -->
<g id="edge27" class="edge"><title>Node19&#45;&gt;Node18</title>
<path fill="none" stroke="#9a32cd" stroke-dasharray="5,2" d="M1344.37,-341C1388.61,-341 1444.83,-341 1486.9,-341"/>
<polygon fill="#9a32cd" stroke="#9a32cd" points="1344.26,-337.5 1334.26,-341 1344.26,-344.5 1344.26,-337.5"/>
<text text-anchor="middle" x="1411.5" y="-344" font-family="Helvetica,sans-Serif" font-size="10.00"> ptr</text>
</g>
<!-- Node20 -->
<g id="node19" class="node"><title>Node20</title>
<polygon fill="white" stroke="#bfbfbf" points="848,-329 848,-359 1015,-359 1015,-329 848,-329"/>
<text text-anchor="start" x="856" y="-347" font-family="Helvetica,sans-Serif" font-size="10.00">std::map&lt; boost::typeindex</text>
<text text-anchor="middle" x="931.5" y="-336" font-family="Helvetica,sans-Serif" font-size="10.00">::type_index, RegistrationInfoPtr &gt;</text>
</g>
<!-- Node20&#45;&gt;Node19 -->
<g id="edge28" class="edge"><title>Node20&#45;&gt;Node19</title>
<path fill="none" stroke="#9a32cd" stroke-dasharray="5,2" d="M1025.34,-343.177C1084.06,-342.657 1158.33,-341.999 1209.75,-341.543"/>
<polygon fill="#9a32cd" stroke="#9a32cd" points="1025.27,-339.678 1015.31,-343.266 1025.34,-346.677 1025.27,-339.678"/>
<text text-anchor="middle" x="1111.5" y="-347" font-family="Helvetica,sans-Serif" font-size="10.00"> services_</text>
</g>
<!-- Node21 -->
<g id="node20" class="node"><title>Node21</title>
<polygon fill="white" stroke="#bfbfbf" points="2088,-326 2088,-356 2210,-356 2210,-326 2088,-326"/>
<text text-anchor="start" x="2096" y="-344" font-family="Helvetica,sans-Serif" font-size="10.00">std::unique_ptr&lt; Leosac</text>
<text text-anchor="middle" x="2149" y="-333" font-family="Helvetica,sans-Serif" font-size="10.00">::RemoteControl &gt;</text>
</g>
<!-- Node21&#45;&gt;Node6 -->
<g id="edge29" class="edge"><title>Node21&#45;&gt;Node6</title>
<path fill="none" stroke="#9a32cd" stroke-dasharray="5,2" d="M2077.57,-332.593C1999.08,-323.225 1874.88,-308.4 1811.35,-300.816"/>
<polygon fill="#9a32cd" stroke="#9a32cd" points="2077.51,-336.111 2087.85,-333.821 2078.34,-329.16 2077.51,-336.111"/>
<text text-anchor="middle" x="1959.5" y="-331" font-family="Helvetica,sans-Serif" font-size="10.00"> remote_controller_</text>
</g>
<!-- Node22&#45;&gt;Node21 -->
<g id="edge30" class="edge"><title>Node22&#45;&gt;Node21</title>
<path fill="none" stroke="#9a32cd" stroke-dasharray="5,2" d="M1981.05,-469.215C2017.44,-441.272 2092.7,-383.471 2128.39,-356.057"/>
<polygon fill="#9a32cd" stroke="#9a32cd" points="1978.89,-466.461 1973.09,-475.328 1983.16,-472.013 1978.89,-466.461"/>
<text text-anchor="middle" x="2062.5" y="-412" font-family="Helvetica,sans-Serif" font-size="10.00"> ptr</text>
</g>
<!-- Node23&#45;&gt;Node22 -->
<g id="edge32" class="edge"><title>Node23&#45;&gt;Node22</title>
<path fill="none" stroke="#9a32cd" stroke-dasharray="5,2" d="M1200.38,-542.852C1259.71,-540.993 1339.81,-539 1410.5,-539 1410.5,-539 1410.5,-539 1771,-539 1834.52,-539 1905.57,-510.032 1939.05,-494.53"/>
<polygon fill="#9a32cd" stroke="#9a32cd" points="1200.18,-539.357 1190.29,-543.173 1200.4,-546.353 1200.18,-539.357"/>
<text text-anchor="middle" x="1548.5" y="-542" font-family="Helvetica,sans-Serif" font-size="10.00"> command_handlers_</text>
</g>
<!-- Node24&#45;&gt;Node22 -->
<g id="edge35" class="edge"><title>Node24&#45;&gt;Node22</title>
<path fill="none" stroke="#9a32cd" stroke-dasharray="5,2" d="M1020.09,-485C1088.44,-485 1185.76,-485 1271,-485 1271,-485 1271,-485 1771,-485 1813.97,-485 1862.48,-485 1899.39,-485"/>
<polygon fill="#9a32cd" stroke="#9a32cd" points="1019.8,-481.5 1009.8,-485 1019.8,-488.5 1019.8,-481.5"/>
<text text-anchor="middle" x="1548.5" y="-488" font-family="Helvetica,sans-Serif" font-size="10.00"> security_</text>
</g>
<!-- Node25&#45;&gt;Node24 -->
<g id="edge36" class="edge"><title>Node25&#45;&gt;Node24</title>
<path fill="none" stroke="#9a32cd" stroke-dasharray="5,2" d="M668.162,-477.014C721.687,-478.643 797.142,-480.94 853.397,-482.653"/>
<polygon fill="#9a32cd" stroke="#9a32cd" points="668.2,-473.514 658.098,-476.708 667.987,-480.51 668.2,-473.514"/>
<text text-anchor="middle" x="754.5" y="-485" font-family="Helvetica,sans-Serif" font-size="10.00"> permissions_</text>
</g>
<!-- Node26&#45;&gt;Node24 -->
<g id="edge39" class="edge"><title>Node26&#45;&gt;Node24</title>
<path fill="none" stroke="#9a32cd" stroke-dasharray="5,2" d="M530.213,-519.492C601.922,-515.147 724.77,-507.071 830,-497 837.784,-496.255 845.898,-495.406 853.993,-494.513"/>
<polygon fill="#9a32cd" stroke="#9a32cd" points="529.784,-516.011 520.013,-520.106 530.205,-522.999 529.784,-516.011"/>
<text text-anchor="middle" x="601" y="-522" font-family="Helvetica,sans-Serif" font-size="10.00"> default_permissions_</text>
</g>
<!-- Node27 -->
<g id="node26" class="node"><title>Node27</title>
<polygon fill="white" stroke="#bfbfbf" points="2088,-237 2088,-267 2210,-267 2210,-237 2088,-237"/>
<text text-anchor="start" x="2096" y="-255" font-family="Helvetica,sans-Serif" font-size="10.00">std::unique_ptr&lt; Leosac</text>
<text text-anchor="middle" x="2149" y="-244" font-family="Helvetica,sans-Serif" font-size="10.00">::NetworkConfig &gt;</text>
</g>
<!-- Node27&#45;&gt;Node6 -->
<g id="edge42" class="edge"><title>Node27&#45;&gt;Node6</title>
<path fill="none" stroke="#9a32cd" stroke-dasharray="5,2" d="M2077.57,-260.22C1999.08,-269.38 1874.88,-283.876 1811.35,-291.291"/>
<polygon fill="#9a32cd" stroke="#9a32cd" points="2078.33,-263.656 2087.85,-259.02 2077.51,-256.703 2078.33,-263.656"/>
<text text-anchor="middle" x="1959.5" y="-286" font-family="Helvetica,sans-Serif" font-size="10.00"> network_config_</text>
</g>
<!-- Node28&#45;&gt;Node27 -->
<g id="edge43" class="edge"><title>Node28&#45;&gt;Node27</title>
<path fill="none" stroke="#9a32cd" stroke-dasharray="5,2" d="M1984.71,-149.238C2020.76,-171.924 2088.13,-214.325 2124.04,-236.919"/>
<polygon fill="#9a32cd" stroke="#9a32cd" points="1986.17,-146.021 1975.84,-143.656 1982.44,-151.945 1986.17,-146.021"/>
<text text-anchor="middle" x="2062.5" y="-204" font-family="Helvetica,sans-Serif" font-size="10.00"> ptr</text>
</g>
</g>
</svg>
