<?xml version="1.0" encoding="UTF-8" standalone="no"?>
<!DOCTYPE svg PUBLIC "-//W3C//DTD SVG 1.1//EN"
 "http://www.w3.org/Graphics/SVG/1.1/DTD/svg11.dtd">
<!-- Generated by graphviz version 2.38.0 (20140413.2041)
 -->
<!-- Title: src/core/auth/Interfaces/IAuthSourceMapper.hpp Pages: 1 -->
<!--zoomable 509 -->
<svg id="main" version="1.1" xmlns="http://www.w3.org/2000/svg" xmlns:xlink="http://www.w3.org/1999/xlink" xml:space="preserve" onload="init(evt)">
<style type="text/css"><![CDATA[
.edge:hover path { stroke: red; }
.edge:hover polygon { stroke: red; fill: red; }
]]></style>
<script type="text/javascript"><![CDATA[
var edges = document.getElementsByTagName('g');
if (edges && edges.length) {
  for (var i=0;i<edges.length;i++) {
    if (edges[i].id.substr(0,4)=='edge') {
      edges[i].setAttribute('class','edge');
    }
  }
}
]]></script>
        <defs>
                <circle id="rim" cx="0" cy="0" r="7"/>
                <circle id="rim2" cx="0" cy="0" r="3.5"/>
                <g id="zoomPlus">
                        <use xlink:href="#rim" fill="#404040">
                                <set attributeName="fill" to="#808080" begin="zoomplus.mouseover" end="zoomplus.mouseout"/>
                        </use>
                        <path d="M-4,0h8M0,-4v8" fill="none" stroke="white" stroke-width="1.5" pointer-events="none"/>
                </g>
                <g id="zoomMin">
                        <use xlink:href="#rim" fill="#404040">
                                <set attributeName="fill" to="#808080" begin="zoomminus.mouseover" end="zoomminus.mouseout"/>
                        </use>
                        <path d="M-4,0h8" fill="none" stroke="white" stroke-width="1.5" pointer-events="none"/>
                </g>
                <g id="dirArrow">
                        <path fill="none" stroke="white" stroke-width="1.5" d="M0,-3.0v7 M-2.5,-0.5L0,-3.0L2.5,-0.5"/>
                </g>
               <g id="resetDef">
                       <use xlink:href="#rim2" fill="#404040">
                               <set attributeName="fill" to="#808080" begin="reset.mouseover" end="reset.mouseout"/>
                       </use>
               </g>
        </defs>

<script type="text/javascript">
var viewWidth = 1294;
var viewHeight = 509;
var sectionId = 'dynsection-0';
</script>
<script xlink:href="../../svgpan.js"/>
<svg id="graph" class="graph">
<g id="viewport">
<title>src/core/auth/Interfaces/IAuthSourceMapper.hpp</title>
<polygon fill="white" stroke="none" points="-4,4 -4,-505 1290.43,-505 1290.43,4 -4,4"/>
<!-- Node0 -->
<g id="node1" class="node"><title>Node0</title>
<polygon fill="#bfbfbf" stroke="black" points="1081.43,-470.5 1081.43,-500.5 1206.43,-500.5 1206.43,-470.5 1081.43,-470.5"/>
<text text-anchor="start" x="1089.43" y="-488.5" font-family="Helvetica,sans-Serif" font-size="10.00">src/core/auth/Interfaces</text>
<text text-anchor="middle" x="1143.93" y="-477.5" font-family="Helvetica,sans-Serif" font-size="10.00">/IAuthSourceMapper.hpp</text>
</g>
<!-- Node1 -->
<g id="node2" class="node"><title>Node1</title>
<g id="a_node2"><a xlink:href="../../d1/d6f/Group_8hpp.html" target="_top" xlink:title="core/auth/Group.hpp">
<polygon fill="white" stroke="black" points="758.434,-414.5 758.434,-433.5 863.434,-433.5 863.434,-414.5 758.434,-414.5"/>
<text text-anchor="middle" x="810.934" y="-421.5" font-family="Helvetica,sans-Serif" font-size="10.00">core/auth/Group.hpp</text>
</a>
</g>
</g>
<!-- Node0&#45;&gt;Node1 -->
<g id="edge1" class="edge"><title>Node0&#45;&gt;Node1</title>
<path fill="none" stroke="midnightblue" d="M1081.3,-473.309C1020.21,-462.393 928.066,-445.929 868.699,-435.321"/>
<polygon fill="midnightblue" stroke="midnightblue" points="869.196,-431.855 858.737,-433.541 867.965,-438.746 869.196,-431.855"/>
</g>
<!-- Node18 -->
<g id="node19" class="node"><title>Node18</title>
<g id="a_node19"><a xlink:href="../../d2/d91/Visitor_8hpp.html" target="_top" xlink:title="tools/Visitor.hpp">
<polygon fill="white" stroke="black" points="1199.43,-56.5 1199.43,-75.5 1286.43,-75.5 1286.43,-56.5 1199.43,-56.5"/>
<text text-anchor="middle" x="1242.93" y="-63.5" font-family="Helvetica,sans-Serif" font-size="10.00">tools/Visitor.hpp</text>
</a>
</g>
</g>
<!-- Node0&#45;&gt;Node18 -->
<g id="edge54" class="edge"><title>Node0&#45;&gt;Node18</title>
<path fill="none" stroke="midnightblue" d="M1168.41,-470.358C1197.72,-451.373 1242.93,-414.69 1242.93,-369 1242.93,-369 1242.93,-369 1242.93,-193.5 1242.93,-155.202 1242.93,-110.383 1242.93,-85.6971"/>
<polygon fill="midnightblue" stroke="midnightblue" points="1246.43,-85.5894 1242.93,-75.5894 1239.43,-85.5895 1246.43,-85.5894"/>
</g>
<!-- Node30 -->
<g id="node31" class="node"><title>Node30</title>
<g id="a_node31"><a xlink:href="../../db/d47/IAuthenticationSource_8hpp.html" target="_top" xlink:title="core/auth/Interfaces\l/IAuthenticationSource.hpp">
<polygon fill="white" stroke="black" points="1076.93,-179.5 1076.93,-209.5 1210.93,-209.5 1210.93,-179.5 1076.93,-179.5"/>
<text text-anchor="start" x="1084.93" y="-197.5" font-family="Helvetica,sans-Serif" font-size="10.00">core/auth/Interfaces</text>
<text text-anchor="middle" x="1143.93" y="-186.5" font-family="Helvetica,sans-Serif" font-size="10.00">/IAuthenticationSource.hpp</text>
</a>
</g>
</g>
<!-- Node0&#45;&gt;Node30 -->
<g id="edge50" class="edge"><title>Node0&#45;&gt;Node30</title>
<path fill="none" stroke="midnightblue" d="M1143.93,-470.275C1143.93,-448.476 1143.93,-405.495 1143.93,-369 1143.93,-369 1143.93,-369 1143.93,-311 1143.93,-279.495 1143.93,-243.155 1143.93,-219.783"/>
<polygon fill="midnightblue" stroke="midnightblue" points="1147.43,-219.725 1143.93,-209.725 1140.43,-219.725 1147.43,-219.725"/>
</g>
<!-- Node2 -->
<g id="node3" class="node"><title>Node2</title>
<g id="a_node3"><a xlink:href="../../dc/d49/LeosacFwd_8hpp.html" target="_top" xlink:title="LeosacFwd.hpp">
<polygon fill="white" stroke="black" points="1006.93,-358.5 1006.93,-377.5 1092.93,-377.5 1092.93,-358.5 1006.93,-358.5"/>
<text text-anchor="middle" x="1049.93" y="-365.5" font-family="Helvetica,sans-Serif" font-size="10.00">LeosacFwd.hpp</text>
</a>
</g>
</g>
<!-- Node1&#45;&gt;Node2 -->
<g id="edge2" class="edge"><title>Node1&#45;&gt;Node2</title>
<path fill="none" stroke="midnightblue" d="M848.805,-414.444C890.41,-405.043 957.304,-389.929 1002.4,-379.739"/>
<polygon fill="midnightblue" stroke="midnightblue" points="1003.26,-383.134 1012.24,-377.516 1001.72,-376.306 1003.26,-383.134"/>
</g>
<!-- Node4 -->
<g id="node5" class="node"><title>Node4</title>
<polygon fill="white" stroke="#bfbfbf" points="888.934,-302.5 888.934,-321.5 932.934,-321.5 932.934,-302.5 888.934,-302.5"/>
<text text-anchor="middle" x="910.934" y="-309.5" font-family="Helvetica,sans-Serif" font-size="10.00">vector</text>
</g>
<!-- Node1&#45;&gt;Node4 -->
<g id="edge49" class="edge"><title>Node1&#45;&gt;Node4</title>
<path fill="none" stroke="midnightblue" d="M811.394,-414.478C812.524,-401.086 816.432,-374.902 829.934,-358 842.608,-342.135 862.477,-330.975 879.363,-323.737"/>
<polygon fill="midnightblue" stroke="midnightblue" points="880.903,-326.89 888.885,-319.922 878.3,-320.392 880.903,-326.89"/>
</g>
<!-- Node5 -->
<g id="node6" class="node"><title>Node5</title>
<g id="a_node6"><a xlink:href="../../d3/d6f/AuthFwd_8hpp.html" target="_top" xlink:title="core/auth/AuthFwd.hpp">
<polygon fill="white" stroke="black" points="592.934,-118 592.934,-137 710.934,-137 710.934,-118 592.934,-118"/>
<text text-anchor="middle" x="651.934" y="-125" font-family="Helvetica,sans-Serif" font-size="10.00">core/auth/AuthFwd.hpp</text>
</a>
</g>
</g>
<!-- Node1&#45;&gt;Node5 -->
<g id="edge5" class="edge"><title>Node1&#45;&gt;Node5</title>
<path fill="none" stroke="midnightblue" d="M807.058,-414.347C792.616,-382.345 740.026,-267.948 686.934,-179 680.057,-167.477 671.487,-155.085 664.549,-145.46"/>
<polygon fill="midnightblue" stroke="midnightblue" points="667.234,-143.203 658.505,-137.198 661.585,-147.336 667.234,-143.203"/>
</g>
<!-- Node8 -->
<g id="node9" class="node"><title>Node8</title>
<g id="a_node9"><a xlink:href="../../df/dbb/UserGroupMembership_8hpp.html" target="_top" xlink:title="core/auth/UserGroupMembership.hpp">
<polygon fill="white" stroke="black" points="565.434,-358.5 565.434,-377.5 744.434,-377.5 744.434,-358.5 565.434,-358.5"/>
<text text-anchor="middle" x="654.934" y="-365.5" font-family="Helvetica,sans-Serif" font-size="10.00">core/auth/UserGroupMembership.hpp</text>
</a>
</g>
</g>
<!-- Node1&#45;&gt;Node8 -->
<g id="edge9" class="edge"><title>Node1&#45;&gt;Node8</title>
<path fill="none" stroke="midnightblue" d="M786.216,-414.444C760.086,-405.399 718.675,-391.064 689.358,-380.916"/>
<polygon fill="midnightblue" stroke="midnightblue" points="690.132,-377.48 679.537,-377.516 687.842,-384.095 690.132,-377.48"/>
</g>
<!-- Node9 -->
<g id="node10" class="node"><title>Node9</title>
<g id="a_node10"><a xlink:href="../../df/da2/database_8hpp.html" target="_top" xlink:title="tools/db/database.hpp">
<polygon fill="white" stroke="black" points="443.434,-302.5 443.434,-321.5 556.434,-321.5 556.434,-302.5 443.434,-302.5"/>
<text text-anchor="middle" x="499.934" y="-309.5" font-family="Helvetica,sans-Serif" font-size="10.00">tools/db/database.hpp</text>
</a>
</g>
</g>
<!-- Node1&#45;&gt;Node9 -->
<g id="edge46" class="edge"><title>Node1&#45;&gt;Node9</title>
<path fill="none" stroke="midnightblue" d="M758.281,-417.909C694.004,-410.977 589.686,-397.198 555.934,-378 536.18,-366.764 520.08,-345.832 510.296,-330.753"/>
<polygon fill="midnightblue" stroke="midnightblue" points="513.033,-328.523 504.804,-321.85 507.076,-332.198 513.033,-328.523"/>
</g>
<!-- Node24 -->
<g id="node25" class="node"><title>Node24</title>
<g id="a_node25"><a xlink:href="../../d8/d97/ToolsFwd_8hpp.html" target="_top" xlink:title="tools/ToolsFwd.hpp">
<polygon fill="white" stroke="black" points="146.934,-185 146.934,-204 248.934,-204 248.934,-185 146.934,-185"/>
<text text-anchor="middle" x="197.934" y="-192" font-family="Helvetica,sans-Serif" font-size="10.00">tools/ToolsFwd.hpp</text>
</a>
</g>
</g>
<!-- Node1&#45;&gt;Node24 -->
<g id="edge45" class="edge"><title>Node1&#45;&gt;Node24</title>
<path fill="none" stroke="midnightblue" d="M758.402,-421.137C595.454,-414.143 103.811,-383.487 8.93443,-266 -28.6318,-219.481 67.9781,-203.654 136.5,-198.271"/>
<polygon fill="midnightblue" stroke="midnightblue" points="137.089,-201.738 146.809,-197.522 136.581,-194.756 137.089,-201.738"/>
</g>
<!-- Node28 -->
<g id="node29" class="node"><title>Node28</title>
<polygon fill="white" stroke="#bfbfbf" points="838.934,-358.5 838.934,-377.5 928.934,-377.5 928.934,-358.5 838.934,-358.5"/>
<text text-anchor="middle" x="883.934" y="-365.5" font-family="Helvetica,sans-Serif" font-size="10.00">odb/callback.hxx</text>
</g>
<!-- Node1&#45;&gt;Node28 -->
<g id="edge47" class="edge"><title>Node1&#45;&gt;Node28</title>
<path fill="none" stroke="midnightblue" d="M822.663,-414.324C833.772,-406.107 850.677,-393.602 863.918,-383.807"/>
<polygon fill="midnightblue" stroke="midnightblue" points="866.034,-386.595 871.992,-377.834 861.871,-380.967 866.034,-386.595"/>
</g>
<!-- Node29 -->
<g id="node30" class="node"><title>Node29</title>
<polygon fill="white" stroke="#bfbfbf" points="947.434,-358.5 947.434,-377.5 988.434,-377.5 988.434,-358.5 947.434,-358.5"/>
<text text-anchor="middle" x="967.934" y="-365.5" font-family="Helvetica,sans-Serif" font-size="10.00">string</text>
</g>
<!-- Node1&#45;&gt;Node29 -->
<g id="edge48" class="edge"><title>Node1&#45;&gt;Node29</title>
<path fill="none" stroke="midnightblue" d="M835.812,-414.444C863.346,-404.973 907.742,-389.703 937.372,-379.512"/>
<polygon fill="midnightblue" stroke="midnightblue" points="938.867,-382.699 947.185,-376.137 936.59,-376.08 938.867,-382.699"/>
</g>
<!-- Node3 -->
<g id="node4" class="node"><title>Node3</title>
<polygon fill="white" stroke="#bfbfbf" points="625.934,-56.5 625.934,-75.5 677.934,-75.5 677.934,-56.5 625.934,-56.5"/>
<text text-anchor="middle" x="651.934" y="-63.5" font-family="Helvetica,sans-Serif" font-size="10.00">memory</text>
</g>
<!-- Node2&#45;&gt;Node3 -->
<g id="edge3" class="edge"><title>Node2&#45;&gt;Node3</title>
<path fill="none" stroke="midnightblue" d="M1049.8,-358.442C1049.53,-339.937 1048.93,-294.814 1048.93,-257 1048.93,-257 1048.93,-257 1048.93,-193.5 1048.93,-156.203 1056.97,-136.595 1028.93,-112 974.142,-63.9371 775.082,-86.3386 702.934,-76 698.126,-75.3109 693.075,-74.5118 688.098,-73.6798"/>
<polygon fill="midnightblue" stroke="midnightblue" points="688.539,-70.2042 678.09,-71.9505 687.348,-77.102 688.539,-70.2042"/>
</g>
<!-- Node2&#45;&gt;Node4 -->
<g id="edge4" class="edge"><title>Node2&#45;&gt;Node4</title>
<path fill="none" stroke="midnightblue" d="M1027.91,-358.444C1004.83,-349.478 968.372,-335.314 942.294,-325.183"/>
<polygon fill="midnightblue" stroke="midnightblue" points="943.445,-321.875 932.856,-321.516 940.91,-328.4 943.445,-321.875"/>
</g>
<!-- Node5&#45;&gt;Node3 -->
<g id="edge7" class="edge"><title>Node5&#45;&gt;Node3</title>
<path fill="none" stroke="midnightblue" d="M651.934,-117.975C651.934,-109.58 651.934,-96.4806 651.934,-85.6631"/>
<polygon fill="midnightblue" stroke="midnightblue" points="655.435,-85.5091 651.934,-75.5091 648.435,-85.5091 655.435,-85.5091"/>
</g>
<!-- Node6 -->
<g id="node7" class="node"><title>Node6</title>
<polygon fill="white" stroke="#bfbfbf" points="712.434,-56.5 712.434,-75.5 761.434,-75.5 761.434,-56.5 712.434,-56.5"/>
<text text-anchor="middle" x="736.934" y="-63.5" font-family="Helvetica,sans-Serif" font-size="10.00">cstddef</text>
</g>
<!-- Node5&#45;&gt;Node6 -->
<g id="edge6" class="edge"><title>Node5&#45;&gt;Node6</title>
<path fill="none" stroke="midnightblue" d="M664.113,-117.975C677.747,-108.431 700.067,-92.8073 716.408,-81.3683"/>
<polygon fill="midnightblue" stroke="midnightblue" points="718.593,-84.1111 724.779,-75.5091 714.579,-78.3764 718.593,-84.1111"/>
</g>
<!-- Node7 -->
<g id="node8" class="node"><title>Node7</title>
<polygon fill="white" stroke="#bfbfbf" points="423.934,-56.5 423.934,-75.5 509.934,-75.5 509.934,-56.5 423.934,-56.5"/>
<text text-anchor="middle" x="466.934" y="-63.5" font-family="Helvetica,sans-Serif" font-size="10.00">odb/lazy&#45;ptr.hxx</text>
</g>
<!-- Node5&#45;&gt;Node7 -->
<g id="edge8" class="edge"><title>Node5&#45;&gt;Node7</title>
<path fill="none" stroke="midnightblue" d="M625.428,-117.975C593.282,-107.636 538.948,-90.1611 503.007,-78.6017"/>
<polygon fill="midnightblue" stroke="midnightblue" points="503.983,-75.239 493.391,-75.5091 501.839,-81.9028 503.983,-75.239"/>
</g>
<!-- Node8&#45;&gt;Node5 -->
<g id="edge10" class="edge"><title>Node8&#45;&gt;Node5</title>
<path fill="none" stroke="midnightblue" d="M661.039,-358.191C666.689,-349.46 674.69,-335.478 677.934,-322 693.183,-258.662 670.879,-181.36 658.815,-146.763"/>
<polygon fill="midnightblue" stroke="midnightblue" points="662.013,-145.315 655.319,-137.103 655.431,-147.697 662.013,-145.315"/>
</g>
<!-- Node8&#45;&gt;Node9 -->
<g id="edge11" class="edge"><title>Node8&#45;&gt;Node9</title>
<path fill="none" stroke="midnightblue" d="M630.374,-358.444C604.412,-349.399 563.266,-335.064 534.137,-324.916"/>
<polygon fill="midnightblue" stroke="midnightblue" points="534.975,-321.501 524.38,-321.516 532.672,-328.112 534.975,-321.501"/>
</g>
<!-- Node21 -->
<g id="node22" class="node"><title>Node21</title>
<polygon fill="white" stroke="#bfbfbf" points="907.434,-112.5 907.434,-142.5 1020.43,-142.5 1020.43,-112.5 907.434,-112.5"/>
<text text-anchor="start" x="915.434" y="-130.5" font-family="Helvetica,sans-Serif" font-size="10.00">boost/date_time/posix</text>
<text text-anchor="middle" x="963.934" y="-119.5" font-family="Helvetica,sans-Serif" font-size="10.00">_time/posix_time.hpp</text>
</g>
<!-- Node8&#45;&gt;Node21 -->
<g id="edge43" class="edge"><title>Node8&#45;&gt;Node21</title>
<path fill="none" stroke="midnightblue" d="M672.863,-358.419C715.723,-337.34 826.183,-279.632 901.934,-210 920.994,-192.48 938.431,-168.522 949.924,-151.119"/>
<polygon fill="midnightblue" stroke="midnightblue" points="952.886,-152.983 955.37,-142.684 947.006,-149.187 952.886,-152.983"/>
</g>
<!-- Node27 -->
<g id="node28" class="node"><title>Node27</title>
<polygon fill="white" stroke="#bfbfbf" points="638.934,-302.5 638.934,-321.5 668.934,-321.5 668.934,-302.5 638.934,-302.5"/>
<text text-anchor="middle" x="653.934" y="-309.5" font-family="Helvetica,sans-Serif" font-size="10.00">set</text>
</g>
<!-- Node8&#45;&gt;Node27 -->
<g id="edge44" class="edge"><title>Node8&#45;&gt;Node27</title>
<path fill="none" stroke="midnightblue" d="M654.769,-358.083C654.638,-351.006 654.45,-340.861 654.286,-331.986"/>
<polygon fill="midnightblue" stroke="midnightblue" points="657.781,-331.685 654.096,-321.751 650.782,-331.814 657.781,-331.685"/>
</g>
<!-- Node10 -->
<g id="node11" class="node"><title>Node10</title>
<g id="a_node11"><a xlink:href="../../d9/d69/db__fwd_8hpp.html" target="_top" xlink:title="db_fwd.hpp">
<polygon fill="white" stroke="black" points="531.434,-185 531.434,-204 598.434,-204 598.434,-185 531.434,-185"/>
<text text-anchor="middle" x="564.934" y="-192" font-family="Helvetica,sans-Serif" font-size="10.00">db_fwd.hpp</text>
</a>
</g>
</g>
<!-- Node9&#45;&gt;Node10 -->
<g id="edge12" class="edge"><title>Node9&#45;&gt;Node10</title>
<path fill="none" stroke="midnightblue" d="M556.56,-308.139C586.503,-303.392 620.91,-292.098 639.934,-266 656.602,-243.136 623.963,-221.586 596.632,-208.471"/>
<polygon fill="midnightblue" stroke="midnightblue" points="597.826,-205.168 587.276,-204.195 594.917,-211.535 597.826,-205.168"/>
</g>
<!-- Node11 -->
<g id="node12" class="node"><title>Node11</title>
<polygon fill="white" stroke="#bfbfbf" points="416.934,-246.5 416.934,-265.5 510.934,-265.5 510.934,-246.5 416.934,-246.5"/>
<text text-anchor="middle" x="463.934" y="-253.5" font-family="Helvetica,sans-Serif" font-size="10.00">odb/database.hxx</text>
</g>
<!-- Node9&#45;&gt;Node11 -->
<g id="edge14" class="edge"><title>Node9&#45;&gt;Node11</title>
<path fill="none" stroke="midnightblue" d="M493.99,-302.083C488.957,-294.534 481.598,-283.495 475.421,-274.23"/>
<polygon fill="midnightblue" stroke="midnightblue" points="478.228,-272.13 469.768,-265.751 472.403,-276.013 478.228,-272.13"/>
</g>
<!-- Node12 -->
<g id="node13" class="node"><title>Node12</title>
<polygon fill="white" stroke="#bfbfbf" points="528.934,-246.5 528.934,-265.5 630.934,-265.5 630.934,-246.5 528.934,-246.5"/>
<text text-anchor="middle" x="579.934" y="-253.5" font-family="Helvetica,sans-Serif" font-size="10.00">odb/transaction.hxx</text>
</g>
<!-- Node9&#45;&gt;Node12 -->
<g id="edge15" class="edge"><title>Node9&#45;&gt;Node12</title>
<path fill="none" stroke="midnightblue" d="M512.788,-302.324C525.151,-293.979 544.065,-281.212 558.672,-271.352"/>
<polygon fill="midnightblue" stroke="midnightblue" points="560.783,-274.15 567.113,-265.655 556.866,-268.348 560.783,-274.15"/>
</g>
<!-- Node13 -->
<g id="node14" class="node"><title>Node13</title>
<g id="a_node14"><a xlink:href="../../d0/dee/DBService_8hpp.html" target="_top" xlink:title="tools/db/DBService.hpp">
<polygon fill="white" stroke="black" points="278.934,-246.5 278.934,-265.5 398.934,-265.5 398.934,-246.5 278.934,-246.5"/>
<text text-anchor="middle" x="338.934" y="-253.5" font-family="Helvetica,sans-Serif" font-size="10.00">tools/db/DBService.hpp</text>
</a>
</g>
</g>
<!-- Node9&#45;&gt;Node13 -->
<g id="edge16" class="edge"><title>Node9&#45;&gt;Node13</title>
<path fill="none" stroke="midnightblue" d="M474.424,-302.444C447.338,-293.359 404.344,-278.939 374.066,-268.783"/>
<polygon fill="midnightblue" stroke="midnightblue" points="374.92,-265.378 364.326,-265.516 372.694,-272.015 374.92,-265.378"/>
</g>
<!-- Node25 -->
<g id="node26" class="node"><title>Node25</title>
<polygon fill="white" stroke="#bfbfbf" points="18.4344,-246.5 18.4344,-265.5 119.434,-265.5 119.434,-246.5 18.4344,-246.5"/>
<text text-anchor="middle" x="68.9344" y="-253.5" font-family="Helvetica,sans-Serif" font-size="10.00">odb/connection.hxx</text>
</g>
<!-- Node9&#45;&gt;Node25 -->
<g id="edge41" class="edge"><title>Node9&#45;&gt;Node25</title>
<path fill="none" stroke="midnightblue" d="M443.143,-304.684C372.192,-296.67 246.797,-282.1 129.669,-266.204"/>
<polygon fill="midnightblue" stroke="midnightblue" points="129.831,-262.694 119.45,-264.811 128.886,-269.63 129.831,-262.694"/>
</g>
<!-- Node26 -->
<g id="node27" class="node"><title>Node26</title>
<polygon fill="white" stroke="#bfbfbf" points="137.434,-246.5 137.434,-265.5 260.434,-265.5 260.434,-246.5 137.434,-246.5"/>
<text text-anchor="middle" x="198.934" y="-253.5" font-family="Helvetica,sans-Serif" font-size="10.00">odb/schema&#45;catalog.hxx</text>
</g>
<!-- Node9&#45;&gt;Node26 -->
<g id="edge42" class="edge"><title>Node9&#45;&gt;Node26</title>
<path fill="none" stroke="midnightblue" d="M452.24,-302.444C399.071,-292.905 313.11,-277.483 256.308,-267.293"/>
<polygon fill="midnightblue" stroke="midnightblue" points="256.867,-263.837 246.406,-265.516 255.63,-270.727 256.867,-263.837"/>
</g>
<!-- Node10&#45;&gt;Node3 -->
<g id="edge13" class="edge"><title>Node10&#45;&gt;Node3</title>
<path fill="none" stroke="midnightblue" d="M564.923,-184.812C565.313,-168.937 568.092,-134.783 583.934,-112 593.456,-98.3071 608.616,-87.6868 622.207,-80.211"/>
<polygon fill="midnightblue" stroke="midnightblue" points="623.991,-83.2295 631.278,-75.5388 620.785,-77.0066 623.991,-83.2295"/>
</g>
<!-- Node13&#45;&gt;Node5 -->
<g id="edge30" class="edge"><title>Node13&#45;&gt;Node5</title>
<path fill="none" stroke="midnightblue" d="M397.638,-246.465C473.914,-235.182 598.429,-216.025 606.934,-210 628.433,-194.77 640.799,-165.892 646.945,-146.921"/>
<polygon fill="midnightblue" stroke="midnightblue" points="650.378,-147.656 649.868,-137.074 643.667,-145.665 650.378,-147.656"/>
</g>
<!-- Node13&#45;&gt;Node10 -->
<g id="edge40" class="edge"><title>Node13&#45;&gt;Node10</title>
<path fill="none" stroke="midnightblue" d="M371.315,-246.475C411.173,-235.982 478.953,-218.137 522.822,-206.587"/>
<polygon fill="midnightblue" stroke="midnightblue" points="523.835,-209.94 532.614,-204.009 522.053,-203.17 523.835,-209.94"/>
</g>
<!-- Node14 -->
<g id="node15" class="node"><title>Node14</title>
<g id="a_node15"><a xlink:href="../../d3/dd8/IAuditEntry_8hpp.html" target="_top" xlink:title="core/audit/IAuditEntry.hpp">
<polygon fill="white" stroke="black" points="762.934,-185 762.934,-204 892.934,-204 892.934,-185 762.934,-185"/>
<text text-anchor="middle" x="827.934" y="-192" font-family="Helvetica,sans-Serif" font-size="10.00">core/audit/IAuditEntry.hpp</text>
</a>
</g>
</g>
<!-- Node13&#45;&gt;Node14 -->
<g id="edge17" class="edge"><title>Node13&#45;&gt;Node14</title>
<path fill="none" stroke="midnightblue" d="M399.141,-247.111C402.114,-246.733 405.058,-246.361 407.934,-246 528.553,-230.883 668.776,-214.202 752.828,-204.3"/>
<polygon fill="midnightblue" stroke="midnightblue" points="753.273,-207.772 762.795,-203.127 752.454,-200.82 753.273,-207.772"/>
</g>
<!-- Node22 -->
<g id="node23" class="node"><title>Node22</title>
<g id="a_node23"><a xlink:href="../../d7/d7f/CredentialFwd_8hpp.html" target="_top" xlink:title="core/credentials/Credential\lFwd.hpp">
<polygon fill="white" stroke="black" points="245.434,-112.5 245.434,-142.5 378.434,-142.5 378.434,-112.5 245.434,-112.5"/>
<text text-anchor="start" x="253.434" y="-130.5" font-family="Helvetica,sans-Serif" font-size="10.00">core/credentials/Credential</text>
<text text-anchor="middle" x="311.934" y="-119.5" font-family="Helvetica,sans-Serif" font-size="10.00">Fwd.hpp</text>
</a>
</g>
</g>
<!-- Node13&#45;&gt;Node22 -->
<g id="edge31" class="edge"><title>Node13&#45;&gt;Node22</title>
<path fill="none" stroke="midnightblue" d="M337.079,-246.305C333.022,-227.298 323.24,-181.47 317.142,-152.9"/>
<polygon fill="midnightblue" stroke="midnightblue" points="320.516,-151.937 315.005,-142.888 313.67,-153.398 320.516,-151.937"/>
</g>
<!-- Node23 -->
<g id="node24" class="node"><title>Node23</title>
<g id="a_node24"><a xlink:href="../../d2/d0e/UpdateFwd_8hpp.html" target="_top" xlink:title="core/update/UpdateFwd.hpp">
<polygon fill="white" stroke="black" points="396.934,-118 396.934,-137 536.934,-137 536.934,-118 396.934,-118"/>
<text text-anchor="middle" x="466.934" y="-125" font-family="Helvetica,sans-Serif" font-size="10.00">core/update/UpdateFwd.hpp</text>
</a>
</g>
</g>
<!-- Node13&#45;&gt;Node23 -->
<g id="edge34" class="edge"><title>Node13&#45;&gt;Node23</title>
<path fill="none" stroke="midnightblue" d="M347.732,-246.305C369.015,-225.272 423.534,-171.392 450.842,-144.404"/>
<polygon fill="midnightblue" stroke="midnightblue" points="453.423,-146.774 458.075,-137.256 448.502,-141.796 453.423,-146.774"/>
</g>
<!-- Node13&#45;&gt;Node24 -->
<g id="edge37" class="edge"><title>Node13&#45;&gt;Node24</title>
<path fill="none" stroke="midnightblue" d="M318.733,-246.475C294.86,-236.401 254.933,-219.553 227.562,-208.002"/>
<polygon fill="midnightblue" stroke="midnightblue" points="228.673,-204.672 218.099,-204.009 225.951,-211.122 228.673,-204.672"/>
</g>
<!-- Node14&#45;&gt;Node3 -->
<g id="edge29" class="edge"><title>Node14&#45;&gt;Node3</title>
<path fill="none" stroke="midnightblue" d="M815.634,-184.958C801.526,-175.085 777.786,-158.237 757.934,-143 740.644,-129.729 737.489,-124.919 719.934,-112 705.112,-101.092 687.809,-89.6578 674.366,-81.0451"/>
<polygon fill="midnightblue" stroke="midnightblue" points="676.072,-77.9823 665.754,-75.5743 672.318,-83.8908 676.072,-77.9823"/>
</g>
<!-- Node14&#45;&gt;Node5 -->
<g id="edge23" class="edge"><title>Node14&#45;&gt;Node5</title>
<path fill="none" stroke="midnightblue" d="M804.563,-184.869C773.84,-173.522 719.693,-153.525 684.839,-140.652"/>
<polygon fill="midnightblue" stroke="midnightblue" points="685.716,-137.245 675.122,-137.064 683.29,-143.811 685.716,-137.245"/>
</g>
<!-- Node15 -->
<g id="node16" class="node"><title>Node15</title>
<g id="a_node16"><a xlink:href="../../d7/dcf/AuditFwd_8hpp.html" target="_top" xlink:title="core/audit/AuditFwd.hpp">
<polygon fill="white" stroke="black" points="766.934,-118 766.934,-137 888.934,-137 888.934,-118 766.934,-118"/>
<text text-anchor="middle" x="827.934" y="-125" font-family="Helvetica,sans-Serif" font-size="10.00">core/audit/AuditFwd.hpp</text>
</a>
</g>
</g>
<!-- Node14&#45;&gt;Node15 -->
<g id="edge18" class="edge"><title>Node14&#45;&gt;Node15</title>
<path fill="none" stroke="midnightblue" d="M827.934,-184.734C827.934,-175.183 827.934,-159.618 827.934,-147.283"/>
<polygon fill="midnightblue" stroke="midnightblue" points="831.435,-147.127 827.934,-137.127 824.435,-147.127 831.435,-147.127"/>
</g>
<!-- Node17 -->
<g id="node18" class="node"><title>Node17</title>
<g id="a_node18"><a xlink:href="../../dd/d9d/IVisitable_8hpp.html" target="_top" xlink:title="tools/IVisitable.hpp">
<polygon fill="white" stroke="black" points="1114.93,-118 1114.93,-137 1214.93,-137 1214.93,-118 1114.93,-118"/>
<text text-anchor="middle" x="1164.93" y="-125" font-family="Helvetica,sans-Serif" font-size="10.00">tools/IVisitable.hpp</text>
</a>
</g>
</g>
<!-- Node14&#45;&gt;Node17 -->
<g id="edge24" class="edge"><title>Node14&#45;&gt;Node17</title>
<path fill="none" stroke="midnightblue" d="M872.338,-184.936C933.794,-173.082 1044.67,-151.696 1110.87,-138.928"/>
<polygon fill="midnightblue" stroke="midnightblue" points="1111.54,-142.362 1120.7,-137.032 1110.22,-135.489 1111.54,-142.362"/>
</g>
<!-- Node14&#45;&gt;Node21 -->
<g id="edge28" class="edge"><title>Node14&#45;&gt;Node21</title>
<path fill="none" stroke="midnightblue" d="M845.994,-184.869C866.136,-175.242 899.308,-159.388 925.349,-146.942"/>
<polygon fill="midnightblue" stroke="midnightblue" points="927.07,-149.998 934.583,-142.528 924.052,-143.682 927.07,-149.998"/>
</g>
<!-- Node15&#45;&gt;Node3 -->
<g id="edge21" class="edge"><title>Node15&#45;&gt;Node3</title>
<path fill="none" stroke="midnightblue" d="M802.718,-117.975C772.266,-107.68 720.886,-90.3103 686.691,-78.7502"/>
<polygon fill="midnightblue" stroke="midnightblue" points="687.698,-75.3961 677.104,-75.5091 685.457,-82.0274 687.698,-75.3961"/>
</g>
<!-- Node15&#45;&gt;Node6 -->
<g id="edge19" class="edge"><title>Node15&#45;&gt;Node6</title>
<path fill="none" stroke="midnightblue" d="M814.896,-117.975C800.165,-108.343 775.961,-92.5175 758.425,-81.0517"/>
<polygon fill="midnightblue" stroke="midnightblue" points="760.233,-78.0522 749.948,-75.5091 756.403,-83.911 760.233,-78.0522"/>
</g>
<!-- Node15&#45;&gt;Node7 -->
<g id="edge22" class="edge"><title>Node15&#45;&gt;Node7</title>
<path fill="none" stroke="midnightblue" d="M776.212,-117.975C708.155,-106.758 589.133,-87.1408 520.278,-75.7921"/>
<polygon fill="midnightblue" stroke="midnightblue" points="520.521,-72.2849 510.085,-74.112 519.382,-79.1917 520.521,-72.2849"/>
</g>
<!-- Node16 -->
<g id="node17" class="node"><title>Node16</title>
<polygon fill="white" stroke="#bfbfbf" points="795.434,-56.5 795.434,-75.5 860.434,-75.5 860.434,-56.5 795.434,-56.5"/>
<text text-anchor="middle" x="827.934" y="-63.5" font-family="Helvetica,sans-Serif" font-size="10.00">flagset.hpp</text>
</g>
<!-- Node15&#45;&gt;Node16 -->
<g id="edge20" class="edge"><title>Node15&#45;&gt;Node16</title>
<path fill="none" stroke="midnightblue" d="M827.934,-117.975C827.934,-109.58 827.934,-96.4806 827.934,-85.6631"/>
<polygon fill="midnightblue" stroke="midnightblue" points="831.435,-85.5091 827.934,-75.5091 824.435,-85.5091 831.435,-85.5091"/>
</g>
<!-- Node17&#45;&gt;Node18 -->
<g id="edge25" class="edge"><title>Node17&#45;&gt;Node18</title>
<path fill="none" stroke="midnightblue" d="M1176.11,-117.975C1188.51,-108.52 1208.72,-93.0961 1223.68,-81.6871"/>
<polygon fill="midnightblue" stroke="midnightblue" points="1225.95,-84.357 1231.78,-75.5091 1221.71,-78.7914 1225.95,-84.357"/>
</g>
<!-- Node20 -->
<g id="node21" class="node"><title>Node20</title>
<polygon fill="white" stroke="#bfbfbf" points="1132.43,-56.5 1132.43,-75.5 1181.43,-75.5 1181.43,-56.5 1132.43,-56.5"/>
<text text-anchor="middle" x="1156.93" y="-63.5" font-family="Helvetica,sans-Serif" font-size="10.00">cassert</text>
</g>
<!-- Node17&#45;&gt;Node20 -->
<g id="edge27" class="edge"><title>Node17&#45;&gt;Node20</title>
<path fill="none" stroke="midnightblue" d="M1163.79,-117.975C1162.66,-109.58 1160.9,-96.4806 1159.44,-85.6631"/>
<polygon fill="midnightblue" stroke="midnightblue" points="1162.88,-84.9535 1158.08,-75.5091 1155.94,-85.8863 1162.88,-84.9535"/>
</g>
<!-- Node19 -->
<g id="node20" class="node"><title>Node19</title>
<polygon fill="white" stroke="#bfbfbf" points="1211.93,-0.5 1211.93,-19.5 1273.93,-19.5 1273.93,-0.5 1211.93,-0.5"/>
<text text-anchor="middle" x="1242.93" y="-7.5" font-family="Helvetica,sans-Serif" font-size="10.00">type_traits</text>
</g>
<!-- Node18&#45;&gt;Node19 -->
<g id="edge26" class="edge"><title>Node18&#45;&gt;Node19</title>
<path fill="none" stroke="midnightblue" d="M1242.93,-56.083C1242.93,-49.0059 1242.93,-38.8611 1242.93,-29.9865"/>
<polygon fill="midnightblue" stroke="midnightblue" points="1246.43,-29.751 1242.93,-19.7511 1239.43,-29.7511 1246.43,-29.751"/>
</g>
<!-- Node22&#45;&gt;Node3 -->
<g id="edge32" class="edge"><title>Node22&#45;&gt;Node3</title>
<path fill="none" stroke="midnightblue" d="M378.649,-113.695C381.787,-113.117 384.894,-112.549 387.934,-112 469.095,-97.3422 564.532,-81.3921 615.496,-72.9781"/>
<polygon fill="midnightblue" stroke="midnightblue" points="616.377,-76.3801 625.675,-71.3001 615.239,-69.4733 616.377,-76.3801"/>
</g>
<!-- Node22&#45;&gt;Node7 -->
<g id="edge33" class="edge"><title>Node22&#45;&gt;Node7</title>
<path fill="none" stroke="midnightblue" d="M348.667,-112.399C374.906,-102.327 409.86,-88.9093 434.953,-79.2769"/>
<polygon fill="midnightblue" stroke="midnightblue" points="436.299,-82.5091 444.381,-75.6578 433.79,-75.9741 436.299,-82.5091"/>
</g>
<!-- Node23&#45;&gt;Node3 -->
<g id="edge35" class="edge"><title>Node23&#45;&gt;Node3</title>
<path fill="none" stroke="midnightblue" d="M493.44,-117.975C525.678,-107.607 580.23,-90.0617 616.168,-78.5033"/>
<polygon fill="midnightblue" stroke="midnightblue" points="617.328,-81.8067 625.776,-75.413 615.185,-75.1429 617.328,-81.8067"/>
</g>
<!-- Node23&#45;&gt;Node7 -->
<g id="edge36" class="edge"><title>Node23&#45;&gt;Node7</title>
<path fill="none" stroke="midnightblue" d="M466.934,-117.975C466.934,-109.58 466.934,-96.4806 466.934,-85.6631"/>
<polygon fill="midnightblue" stroke="midnightblue" points="470.435,-85.5091 466.934,-75.5091 463.435,-85.5091 470.435,-85.5091"/>
</g>
<!-- Node24&#45;&gt;Node3 -->
<g id="edge38" class="edge"><title>Node24&#45;&gt;Node3</title>
<path fill="none" stroke="midnightblue" d="M199.162,-184.841C202.088,-167.731 211.178,-129.716 235.934,-112 251.324,-100.987 517.355,-78.0819 615.741,-69.9458"/>
<polygon fill="midnightblue" stroke="midnightblue" points="616.129,-73.4258 625.808,-69.1166 615.554,-66.4494 616.129,-73.4258"/>
</g>
<!-- Node24&#45;&gt;Node7 -->
<g id="edge39" class="edge"><title>Node24&#45;&gt;Node7</title>
<path fill="none" stroke="midnightblue" d="M195.306,-184.563C191.03,-167.97 184.751,-132.253 202.934,-112 230.264,-81.5611 344.756,-71.7063 413.673,-68.5195"/>
<polygon fill="midnightblue" stroke="midnightblue" points="414.068,-72.0058 423.908,-68.0795 413.767,-65.0123 414.068,-72.0058"/>
</g>
<!-- Node30&#45;&gt;Node3 -->
<g id="edge53" class="edge"><title>Node30&#45;&gt;Node3</title>
<path fill="none" stroke="midnightblue" d="M1134.66,-179.34C1121.33,-160.323 1094.82,-127.17 1062.93,-112 990.333,-77.459 782.578,-86.9938 702.934,-76 698.122,-75.3357 693.069,-74.5509 688.092,-73.7261"/>
<polygon fill="midnightblue" stroke="midnightblue" points="688.531,-70.2503 678.082,-72.0025 687.343,-77.1488 688.531,-70.2503"/>
</g>
<!-- Node30&#45;&gt;Node5 -->
<g id="edge51" class="edge"><title>Node30&#45;&gt;Node5</title>
<path fill="none" stroke="midnightblue" d="M1076.63,-184.816C999.592,-174.848 869.637,-157.947 757.934,-143 746.069,-141.412 733.458,-139.705 721.231,-138.039"/>
<polygon fill="midnightblue" stroke="midnightblue" points="721.456,-134.537 711.075,-136.652 720.51,-141.473 721.456,-134.537"/>
</g>
<!-- Node30&#45;&gt;Node17 -->
<g id="edge52" class="edge"><title>Node30&#45;&gt;Node17</title>
<path fill="none" stroke="midnightblue" d="M1148.49,-179.396C1151.57,-169.863 1155.67,-157.182 1159,-146.862"/>
<polygon fill="midnightblue" stroke="midnightblue" points="1162.38,-147.786 1162.13,-137.195 1155.72,-145.634 1162.38,-147.786"/>
</g>
</g>
</svg>
        <g id="navigator" transform="translate(0 0)" fill="#404254">
                <rect fill="#f2f5e9" fill-opacity="0.5" stroke="#606060" stroke-width=".5" x="0" y="0" width="60" height="60"/>
                <use id="zoomplus" xlink:href="#zoomPlus" x="17" y="9" onmousedown="handleZoom(evt,'in')"/>
                <use id="zoomminus" xlink:href="#zoomMin" x="42" y="9" onmousedown="handleZoom(evt,'out')"/>
                <use id="reset" xlink:href="#resetDef" x="30" y="36" onmousedown="handleReset()"/>
                <g id="arrowUp" xlink:href="#dirArrow" transform="translate(30 24)" onmousedown="handlePan(0,-1)">
                  <use xlink:href="#rim" fill="#404040">
                        <set attributeName="fill" to="#808080" begin="arrowUp.mouseover" end="arrowUp.mouseout"/>
                  </use>
                  <path fill="none" stroke="white" stroke-width="1.5" d="M0,-3.0v7 M-2.5,-0.5L0,-3.0L2.5,-0.5"/>
                </g>
                <g id="arrowRight" xlink:href="#dirArrow" transform="rotate(90) translate(36 -43)" onmousedown="handlePan(1,0)">
                  <use xlink:href="#rim" fill="#404040">
                        <set attributeName="fill" to="#808080" begin="arrowRight.mouseover" end="arrowRight.mouseout"/>
                  </use>
                  <path fill="none" stroke="white" stroke-width="1.5" d="M0,-3.0v7 M-2.5,-0.5L0,-3.0L2.5,-0.5"/>
                </g>
                <g id="arrowDown" xlink:href="#dirArrow" transform="rotate(180) translate(-30 -48)" onmousedown="handlePan(0,1)">
                  <use xlink:href="#rim" fill="#404040">
                        <set attributeName="fill" to="#808080" begin="arrowDown.mouseover" end="arrowDown.mouseout"/>
                  </use>
                  <path fill="none" stroke="white" stroke-width="1.5" d="M0,-3.0v7 M-2.5,-0.5L0,-3.0L2.5,-0.5"/>
                </g>
                <g id="arrowLeft" xlink:href="#dirArrow" transform="rotate(270) translate(-36 17)" onmousedown="handlePan(-1,0)">
                  <use xlink:href="#rim" fill="#404040">
                        <set attributeName="fill" to="#808080" begin="arrowLeft.mouseover" end="arrowLeft.mouseout"/>
                  </use>
                  <path fill="none" stroke="white" stroke-width="1.5" d="M0,-3.0v7 M-2.5,-0.5L0,-3.0L2.5,-0.5"/>
                </g>
        </g>
        <svg viewBox="0 0 15 15" width="100%" height="30px" preserveAspectRatio="xMaxYMin meet">
         <g id="arrow_out" transform="scale(0.3 0.3)">
          <a xlink:href="IAuthSourceMapper_8hpp__incl_org.svg" target="_base">
           <rect id="button" ry="5" rx="5" y="6" x="6" height="38" width="38"
                fill="#f2f5e9" fill-opacity="0.5" stroke="#606060" stroke-width="1.0"/>
           <path id="arrow"
             d="M 11.500037,31.436501 C 11.940474,20.09759 22.043105,11.32322 32.158766,21.979434 L 37.068811,17.246167 C 37.068811,17.246167 37.088388,32 37.088388,32 L 22.160133,31.978069 C 22.160133,31.978069 26.997745,27.140456 26.997745,27.140456 C 18.528582,18.264221 13.291696,25.230495 11.500037,31.436501 z"
             style="fill:#404040;"/>
          </a>
         </g>
        </svg>
</svg>
