<?xml version="1.0" encoding="UTF-8" standalone="no"?>
<!DOCTYPE svg PUBLIC "-//W3C//DTD SVG 1.1//EN"
 "http://www.w3.org/Graphics/SVG/1.1/DTD/svg11.dtd">
<!-- Generated by graphviz version 2.38.0 (20140413.2041)
 -->
<!-- Title: Leosac::Module::Replication::ReplicationModule Pages: 1 -->
<svg width="246pt" height="233pt"
 viewBox="0.00 0.00 246.00 233.00" xmlns="http://www.w3.org/2000/svg" xmlns:xlink="http://www.w3.org/1999/xlink">
<g id="graph0" class="graph" transform="scale(1 1) rotate(0) translate(4 229)">
<title>Leosac::Module::Replication::ReplicationModule</title>
<polygon fill="white" stroke="none" points="-4,4 -4,-229 242,-229 242,4 -4,4"/>
<!-- Node2 -->
<g id="node1" class="node"><title>Node2</title>
<polygon fill="#bfbfbf" stroke="black" points="0,-0.5 0,-30.5 140,-30.5 140,-0.5 0,-0.5"/>
<text text-anchor="start" x="8" y="-18.5" font-family="Helvetica,sans-Serif" font-size="10.00">Leosac::Module::Replication</text>
<text text-anchor="middle" x="70" y="-7.5" font-family="Helvetica,sans-Serif" font-size="10.00">::ReplicationModule</text>
</g>
<!-- Node3 -->
<g id="node2" class="node"><title>Node3</title>
<g id="a_node2"><a xlink:href="../../df/d9f/classLeosac_1_1Module_1_1BaseModule.html" target="_top" xlink:title="Base class for module implementation. ">
<polygon fill="white" stroke="black" points="92,-69.5 92,-88.5 238,-88.5 238,-69.5 92,-69.5"/>
<text text-anchor="middle" x="165" y="-76.5" font-family="Helvetica,sans-Serif" font-size="10.00">Leosac::Module::BaseModule</text>
</a>
</g>
</g>
<!-- Node3&#45;&gt;Node2 -->
<g id="edge1" class="edge"><title>Node3&#45;&gt;Node2</title>
<path fill="none" stroke="midnightblue" d="M142.965,-63.7355C127.598,-53.7872 107.182,-40.5706 91.8545,-30.6479"/>
<polygon fill="midnightblue" stroke="midnightblue" points="141.494,-66.9524 151.791,-69.4487 145.298,-61.0762 141.494,-66.9524"/>
</g>
<!-- Node4 -->
<g id="node3" class="node"><title>Node4</title>
<g id="a_node3"><a xlink:title="STL class. ">
<polygon fill="white" stroke="#bfbfbf" points="34,-137.5 34,-156.5 94,-156.5 94,-137.5 34,-137.5"/>
<text text-anchor="middle" x="64" y="-144.5" font-family="Helvetica,sans-Serif" font-size="10.00">std::string</text>
</a>
</g>
</g>
<!-- Node4&#45;&gt;Node2 -->
<g id="edge5" class="edge"><title>Node4&#45;&gt;Node2</title>
<path fill="none" stroke="#9a32cd" stroke-dasharray="5,2" d="M52.9024,-128.761C44.1565,-113.022 34.3109,-89.0689 40,-68 43.6685,-54.4142 51.906,-40.7286 58.8226,-30.8836"/>
<polygon fill="#9a32cd" stroke="#9a32cd" points="49.9275,-130.606 58.0571,-137.4 55.9387,-127.019 49.9275,-130.606"/>
<text text-anchor="middle" x="61.5" y="-82" font-family="Helvetica,sans-Serif" font-size="10.00"> pubkey_</text>
<text text-anchor="middle" x="61.5" y="-71" font-family="Helvetica,sans-Serif" font-size="10.00">endpoint_</text>
</g>
<!-- Node4&#45;&gt;Node3 -->
<g id="edge2" class="edge"><title>Node4&#45;&gt;Node3</title>
<path fill="none" stroke="#9a32cd" stroke-dasharray="5,2" d="M85.713,-131.811C105.798,-118.686 135.005,-99.6004 151.793,-88.6305"/>
<polygon fill="#9a32cd" stroke="#9a32cd" points="83.6606,-128.971 77.204,-137.372 87.4898,-134.831 83.6606,-128.971"/>
<text text-anchor="middle" x="136.5" y="-111" font-family="Helvetica,sans-Serif" font-size="10.00"> name_</text>
</g>
<!-- Node5 -->
<g id="node4" class="node"><title>Node5</title>
<g id="a_node4"><a xlink:title="STL class. ">
<polygon fill="white" stroke="#bfbfbf" points="16.5,-194.5 16.5,-224.5 111.5,-224.5 111.5,-194.5 16.5,-194.5"/>
<text text-anchor="start" x="24.5" y="-212.5" font-family="Helvetica,sans-Serif" font-size="10.00">std::basic_string&lt;</text>
<text text-anchor="middle" x="64" y="-201.5" font-family="Helvetica,sans-Serif" font-size="10.00"> char &gt;</text>
</a>
</g>
</g>
<!-- Node5&#45;&gt;Node4 -->
<g id="edge3" class="edge"><title>Node5&#45;&gt;Node4</title>
<path fill="none" stroke="midnightblue" d="M64,-184.352C64,-174.513 64,-163.775 64,-156.54"/>
<polygon fill="midnightblue" stroke="midnightblue" points="60.5001,-184.468 64,-194.468 67.5001,-184.468 60.5001,-184.468"/>
</g>
<!-- Node6 -->
<g id="node5" class="node"><title>Node6</title>
<polygon fill="white" stroke="#bfbfbf" points="146,-137.5 146,-156.5 184,-156.5 184,-137.5 146,-137.5"/>
<text text-anchor="middle" x="165" y="-144.5" font-family="Helvetica,sans-Serif" font-size="10.00">ptree</text>
</g>
<!-- Node6&#45;&gt;Node3 -->
<g id="edge4" class="edge"><title>Node6&#45;&gt;Node3</title>
<path fill="none" stroke="#9a32cd" stroke-dasharray="5,2" d="M165,-127.041C165,-114.472 165,-98.5631 165,-88.8411"/>
<polygon fill="#9a32cd" stroke="#9a32cd" points="161.5,-127.372 165,-137.372 168.5,-127.372 161.5,-127.372"/>
<text text-anchor="middle" x="182.5" y="-111" font-family="Helvetica,sans-Serif" font-size="10.00"> config_</text>
</g>
</g>
</svg>
