<?xml version="1.0" encoding="UTF-8" standalone="no"?>
<!DOCTYPE svg PUBLIC "-//W3C//DTD SVG 1.1//EN"
 "http://www.w3.org/Graphics/SVG/1.1/DTD/svg11.dtd">
<!-- Generated by graphviz version 2.38.0 (20140413.2041)
 -->
<!-- Title: Leosac::RemoteControl Pages: 1 -->
<!--zoomable 656 -->
<svg id="main" version="1.1" xmlns="http://www.w3.org/2000/svg" xmlns:xlink="http://www.w3.org/1999/xlink" xml:space="preserve" onload="init(evt)">
<style type="text/css"><![CDATA[
.edge:hover path { stroke: red; }
.edge:hover polygon { stroke: red; fill: red; }
]]></style>
<script type="text/javascript"><![CDATA[
var edges = document.getElementsByTagName('g');
if (edges && edges.length) {
  for (var i=0;i<edges.length;i++) {
    if (edges[i].id.substr(0,4)=='edge') {
      edges[i].setAttribute('class','edge');
    }
  }
}
]]></script>
        <defs>
                <circle id="rim" cx="0" cy="0" r="7"/>
                <circle id="rim2" cx="0" cy="0" r="3.5"/>
                <g id="zoomPlus">
                        <use xlink:href="#rim" fill="#404040">
                                <set attributeName="fill" to="#808080" begin="zoomplus.mouseover" end="zoomplus.mouseout"/>
                        </use>
                        <path d="M-4,0h8M0,-4v8" fill="none" stroke="white" stroke-width="1.5" pointer-events="none"/>
                </g>
                <g id="zoomMin">
                        <use xlink:href="#rim" fill="#404040">
                                <set attributeName="fill" to="#808080" begin="zoomminus.mouseover" end="zoomminus.mouseout"/>
                        </use>
                        <path d="M-4,0h8" fill="none" stroke="white" stroke-width="1.5" pointer-events="none"/>
                </g>
                <g id="dirArrow">
                        <path fill="none" stroke="white" stroke-width="1.5" d="M0,-3.0v7 M-2.5,-0.5L0,-3.0L2.5,-0.5"/>
                </g>
               <g id="resetDef">
                       <use xlink:href="#rim2" fill="#404040">
                               <set attributeName="fill" to="#808080" begin="reset.mouseover" end="reset.mouseout"/>
                       </use>
               </g>
        </defs>

<script type="text/javascript">
var viewWidth = 2083;
var viewHeight = 656;
var sectionId = 'dynsection-0';
</script>
<script xlink:href="../../svgpan.js"/>
<svg id="graph" class="graph">
<g id="viewport">
<title>Leosac::RemoteControl</title>
<polygon fill="white" stroke="none" points="-4,4 -4,-651.608 2079,-651.608 2079,4 -4,4"/>
<!-- Node1 -->
<g id="node1" class="node"><title>Node1</title>
<polygon fill="#bfbfbf" stroke="black" points="1181,-234.108 1181,-253.108 1301,-253.108 1301,-234.108 1181,-234.108"/>
<text text-anchor="middle" x="1241" y="-241.108" font-family="Helvetica,sans-Serif" font-size="10.00">Leosac::RemoteControl</text>
</g>
<!-- Node19 -->
<g id="node19" class="node"><title>Node19</title>
<polygon fill="white" stroke="#bfbfbf" points="1387.5,-195.608 1387.5,-225.608 1509.5,-225.608 1509.5,-195.608 1387.5,-195.608"/>
<text text-anchor="start" x="1395.5" y="-213.608" font-family="Helvetica,sans-Serif" font-size="10.00">std::unique_ptr&lt; Leosac</text>
<text text-anchor="middle" x="1448.5" y="-202.608" font-family="Helvetica,sans-Serif" font-size="10.00">::RemoteControl &gt;</text>
</g>
<!-- Node1&#45;&gt;Node19 -->
<g id="edge28" class="edge"><title>Node1&#45;&gt;Node19</title>
<path fill="none" stroke="#9a32cd" stroke-dasharray="5,2" d="M1311.18,-232.498C1335.87,-228.533 1363.46,-224.103 1387.33,-220.27"/>
<polygon fill="#9a32cd" stroke="#9a32cd" points="1310.48,-229.066 1301.16,-234.107 1311.59,-235.977 1310.48,-229.066"/>
<text text-anchor="middle" x="1346" y="-233.608" font-family="Helvetica,sans-Serif" font-size="10.00"> ptr</text>
</g>
<!-- Node2 -->
<g id="node2" class="node"><title>Node2</title>
<g id="a_node2"><a xlink:href="../../d1/d50/classLeosac_1_1Kernel.html" target="_top" xlink:title="Core of Leosac. ">
<polygon fill="white" stroke="black" points="1630,-312.108 1630,-331.108 1712,-331.108 1712,-312.108 1630,-312.108"/>
<text text-anchor="middle" x="1671" y="-319.108" font-family="Helvetica,sans-Serif" font-size="10.00">Leosac::Kernel</text>
</a>
</g>
</g>
<!-- Node2&#45;&gt;Node1 -->
<g id="edge1" class="edge"><title>Node2&#45;&gt;Node1</title>
<path fill="none" stroke="#9a32cd" stroke-dasharray="5,2" d="M1619.48,-313.603C1562.8,-304.489 1468.14,-288.878 1387,-273.608 1353.02,-267.213 1314.72,-259.257 1286.02,-253.145"/>
<polygon fill="#9a32cd" stroke="#9a32cd" points="1619.19,-317.099 1629.61,-315.227 1620.3,-310.188 1619.19,-317.099"/>
<text text-anchor="middle" x="1448.5" y="-298.608" font-family="Helvetica,sans-Serif" font-size="10.00"> kernel_</text>
</g>
<!-- Node2&#45;&gt;Node2 -->
<g id="edge2" class="edge"><title>Node2&#45;&gt;Node2</title>
<path fill="none" stroke="#9a32cd" stroke-dasharray="5,2" d="M1657,-341.374C1658.1,-346.104 1662.77,-349.608 1671,-349.608 1684.51,-349.608 1688.41,-340.173 1682.71,-331.365"/>
<polygon fill="#9a32cd" stroke="#9a32cd" points="1660.48,-341.893 1659.29,-331.365 1653.65,-340.337 1660.48,-341.893"/>
<text text-anchor="middle" x="1671" y="-352.608" font-family="Helvetica,sans-Serif" font-size="10.00"> instance_</text>
</g>
<!-- Node21 -->
<g id="node21" class="node"><title>Node21</title>
<g id="a_node21"><a xlink:href="../../d2/d91/classLeosac_1_1NetworkConfig.html" target="_top" xlink:title="Class that helps configuring the network. ">
<polygon fill="white" stroke="black" points="1783,-488.108 1783,-507.108 1902,-507.108 1902,-488.108 1783,-488.108"/>
<text text-anchor="middle" x="1842.5" y="-495.108" font-family="Helvetica,sans-Serif" font-size="10.00">Leosac::NetworkConfig</text>
</a>
</g>
</g>
<!-- Node2&#45;&gt;Node21 -->
<g id="edge31" class="edge"><title>Node2&#45;&gt;Node21</title>
<path fill="none" stroke="#9a32cd" stroke-dasharray="5,2" d="M1681.51,-340.203C1691.86,-359.358 1709.65,-389.461 1730,-411.608 1759.77,-444.01 1802.8,-473.364 1825.73,-487.937"/>
<polygon fill="#9a32cd" stroke="#9a32cd" points="1684.57,-338.497 1676.81,-331.284 1678.38,-341.762 1684.57,-338.497"/>
<text text-anchor="middle" x="1747.5" y="-446.608" font-family="Helvetica,sans-Serif" font-size="10.00"> kernel_</text>
</g>
<!-- Node3 -->
<g id="node3" class="node"><title>Node3</title>
<g id="a_node3"><a xlink:href="../../dc/db8/classLeosac_1_1Tools_1_1XmlNodeNameEnforcer.html" target="_top" xlink:title="This class is a simple wrapper that throws a ConfigException message formated to report the user that...">
<polygon fill="white" stroke="black" points="414,-8.60768 414,-38.6077 565,-38.6077 565,-8.60768 414,-8.60768"/>
<text text-anchor="start" x="422" y="-26.6077" font-family="Helvetica,sans-Serif" font-size="10.00">Leosac::Tools::XmlNodeName</text>
<text text-anchor="middle" x="489.5" y="-15.6077" font-family="Helvetica,sans-Serif" font-size="10.00">Enforcer</text>
</a>
</g>
</g>
<!-- Node3&#45;&gt;Node2 -->
<g id="edge3" class="edge"><title>Node3&#45;&gt;Node2</title>
<path fill="none" stroke="#9a32cd" stroke-dasharray="5,2" d="M575.287,-24.4542C637.152,-24.9997 723.026,-25.6077 798.5,-25.6077 798.5,-25.6077 798.5,-25.6077 1449.5,-25.6077 1528.49,-25.6077 1560.9,-37.3702 1612,-97.6077 1668.13,-163.775 1670.83,-277.754 1670.31,-311.757"/>
<polygon fill="#9a32cd" stroke="#9a32cd" points="575.215,-20.9535 565.184,-24.3638 575.153,-27.9532 575.215,-20.9535"/>
<text text-anchor="middle" x="1120" y="-28.6077" font-family="Helvetica,sans-Serif" font-size="10.00"> xmlnne_</text>
</g>
<!-- Node4 -->
<g id="node4" class="node"><title>Node4</title>
<g id="a_node4"><a xlink:title="STL class. ">
<polygon fill="white" stroke="#bfbfbf" points="132,-269.108 132,-288.108 192,-288.108 192,-269.108 132,-269.108"/>
<text text-anchor="middle" x="162" y="-276.108" font-family="Helvetica,sans-Serif" font-size="10.00">std::string</text>
</a>
</g>
</g>
<!-- Node4&#45;&gt;Node1 -->
<g id="edge36" class="edge"><title>Node4&#45;&gt;Node1</title>
<path fill="none" stroke="#9a32cd" stroke-dasharray="5,2" d="M169.296,-259.594C176.602,-239.783 190.23,-208.741 210,-187.608 253.453,-141.157 268.893,-113.608 332.5,-113.608 332.5,-113.608 332.5,-113.608 980.5,-113.608 1087.83,-113.608 1196.2,-203.604 1229.58,-233.837"/>
<polygon fill="#9a32cd" stroke="#9a32cd" points="165.981,-258.469 165.971,-269.064 172.586,-260.788 165.981,-258.469"/>
<text text-anchor="middle" x="643" y="-149.608" font-family="Helvetica,sans-Serif" font-size="10.00"> public_key_</text>
<text text-anchor="start" x="605.5" y="-138.608" font-family="Helvetica,sans-Serif" font-size="10.00">current_client_idt</text>
<text text-anchor="middle" x="643" y="-127.608" font-family="Helvetica,sans-Serif" font-size="10.00">_</text>
<text text-anchor="middle" x="643" y="-116.608" font-family="Helvetica,sans-Serif" font-size="10.00">secret_key_</text>
</g>
<!-- Node4&#45;&gt;Node3 -->
<g id="edge4" class="edge"><title>Node4&#45;&gt;Node3</title>
<path fill="none" stroke="#9a32cd" stroke-dasharray="5,2" d="M163.963,-258.662C166.902,-207.035 177.622,-71.0727 210,-42.6077 269.237,9.46953 365.716,3.01058 428.142,-8.60467"/>
<polygon fill="#9a32cd" stroke="#9a32cd" points="160.458,-258.674 163.424,-268.845 167.448,-259.044 160.458,-258.674"/>
<text text-anchor="middle" x="231.5" y="-45.6077" font-family="Helvetica,sans-Serif" font-size="10.00"> path_</text>
</g>
<!-- Node6 -->
<g id="node6" class="node"><title>Node6</title>
<polygon fill="white" stroke="#bfbfbf" points="742,-56.6077 742,-86.6077 857,-86.6077 857,-56.6077 742,-56.6077"/>
<text text-anchor="start" x="750" y="-74.6077" font-family="Helvetica,sans-Serif" font-size="10.00">std::map&lt; EnvironVar,</text>
<text text-anchor="middle" x="799.5" y="-63.6077" font-family="Helvetica,sans-Serif" font-size="10.00"> std::string &gt;</text>
</g>
<!-- Node4&#45;&gt;Node6 -->
<g id="edge7" class="edge"><title>Node4&#45;&gt;Node6</title>
<path fill="none" stroke="#9a32cd" stroke-dasharray="5,2" d="M165.481,-259.023C171.181,-217.218 186.553,-121.286 210,-99.6077 285.949,-29.3883 609.212,-52.6445 741.609,-65.5058"/>
<polygon fill="#9a32cd" stroke="#9a32cd" points="161.995,-258.686 164.158,-269.058 168.935,-259.601 161.995,-258.686"/>
<text text-anchor="middle" x="333.5" y="-73.6077" font-family="Helvetica,sans-Serif" font-size="10.00"> elements</text>
</g>
<!-- Node7 -->
<g id="node7" class="node"><title>Node7</title>
<g id="a_node7"><a xlink:href="../../d4/d7a/classLeosac_1_1ConfigManager.html" target="_top" xlink:title="That class helps manage the configuration for the application and its module. ">
<polygon fill="white" stroke="black" points="583,-487.108 583,-506.108 703,-506.108 703,-487.108 583,-487.108"/>
<text text-anchor="middle" x="643" y="-494.108" font-family="Helvetica,sans-Serif" font-size="10.00">Leosac::ConfigManager</text>
</a>
</g>
</g>
<!-- Node4&#45;&gt;Node7 -->
<g id="edge12" class="edge"><title>Node4&#45;&gt;Node7</title>
<path fill="none" stroke="#9a32cd" stroke-dasharray="5,2" d="M166.555,-298.182C171.863,-321.705 184.144,-360.733 210,-382.608 266.405,-430.327 478.082,-470.154 582.708,-487.41"/>
<polygon fill="#9a32cd" stroke="#9a32cd" points="169.967,-297.397 164.532,-288.302 163.11,-298.801 169.967,-297.397"/>
<text text-anchor="middle" x="333.5" y="-453.608" font-family="Helvetica,sans-Serif" font-size="10.00"> instance_name_</text>
</g>
<!-- Node8 -->
<g id="node8" class="node"><title>Node8</title>
<polygon fill="white" stroke="#bfbfbf" points="278.5,-482.108 278.5,-523.108 388.5,-523.108 388.5,-482.108 278.5,-482.108"/>
<text text-anchor="start" x="286.5" y="-511.108" font-family="Helvetica,sans-Serif" font-size="10.00">std::map&lt; std::string,</text>
<text text-anchor="start" x="286.5" y="-500.108" font-family="Helvetica,sans-Serif" font-size="10.00"> boost::property_tree</text>
<text text-anchor="middle" x="333.5" y="-489.108" font-family="Helvetica,sans-Serif" font-size="10.00">::ptree &gt;</text>
</g>
<!-- Node4&#45;&gt;Node8 -->
<g id="edge10" class="edge"><title>Node4&#45;&gt;Node8</title>
<path fill="none" stroke="#9a32cd" stroke-dasharray="5,2" d="M164.783,-298.83C168.436,-329.773 179.22,-389.396 210,-428.608 228.41,-452.061 256.477,-469.786 281.103,-482.001"/>
<polygon fill="#9a32cd" stroke="#9a32cd" points="168.222,-298.062 163.706,-288.478 161.26,-298.787 168.222,-298.062"/>
<text text-anchor="middle" x="231.5" y="-467.608" font-family="Helvetica,sans-Serif" font-size="10.00"> keys</text>
</g>
<!-- Node12 -->
<g id="node12" class="node"><title>Node12</title>
<polygon fill="white" stroke="#bfbfbf" points="271,-269.108 271,-288.108 396,-288.108 396,-269.108 271,-269.108"/>
<text text-anchor="middle" x="333.5" y="-276.108" font-family="Helvetica,sans-Serif" font-size="10.00">std::vector&lt; std::string &gt;</text>
</g>
<!-- Node4&#45;&gt;Node12 -->
<g id="edge18" class="edge"><title>Node4&#45;&gt;Node12</title>
<path fill="none" stroke="#9a32cd" stroke-dasharray="5,2" d="M202.279,-278.608C222.61,-278.608 247.9,-278.608 270.771,-278.608"/>
<polygon fill="#9a32cd" stroke="#9a32cd" points="202.138,-275.108 192.138,-278.608 202.138,-282.108 202.138,-275.108"/>
<text text-anchor="middle" x="231.5" y="-281.608" font-family="Helvetica,sans-Serif" font-size="10.00"> elements</text>
</g>
<!-- Node14 -->
<g id="node14" class="node"><title>Node14</title>
<g id="a_node14"><a xlink:href="../../d4/d18/structModuleManager_1_1ModuleInfo.html" target="_top" xlink:title="Internal helper struct that store informations related to module that are useful to the module manage...">
<polygon fill="white" stroke="black" points="909.5,-384.108 909.5,-403.108 1049.5,-403.108 1049.5,-384.108 909.5,-384.108"/>
<text text-anchor="middle" x="979.5" y="-391.108" font-family="Helvetica,sans-Serif" font-size="10.00">ModuleManager::ModuleInfo</text>
</a>
</g>
</g>
<!-- Node4&#45;&gt;Node14 -->
<g id="edge22" class="edge"><title>Node4&#45;&gt;Node14</title>
<path fill="none" stroke="#9a32cd" stroke-dasharray="5,2" d="M182.934,-294.274C191.039,-300.192 200.679,-306.68 210,-311.608 235.614,-325.151 242.736,-328.231 271,-334.608 391.31,-361.749 755.882,-382.511 909.295,-390.282"/>
<polygon fill="#9a32cd" stroke="#9a32cd" points="184.924,-291.391 174.829,-288.177 180.716,-296.985 184.924,-291.391"/>
<text text-anchor="middle" x="489.5" y="-372.608" font-family="Helvetica,sans-Serif" font-size="10.00"> name_</text>
</g>
<!-- Node4&#45;&gt;Node21 -->
<g id="edge32" class="edge"><title>Node4&#45;&gt;Node21</title>
<path fill="none" stroke="#9a32cd" stroke-dasharray="5,2" d="M163.649,-298.355C165.706,-336.184 174.281,-420.366 210,-479.608 228.545,-510.364 237.818,-518.865 271,-532.608 347.357,-564.232 559.353,-558.608 642,-558.608 642,-558.608 642,-558.608 1672,-558.608 1732.05,-558.608 1797.37,-524.295 1826.27,-507.139"/>
<polygon fill="#9a32cd" stroke="#9a32cd" points="167.137,-298.017 163.197,-288.182 160.144,-298.328 167.137,-298.017"/>
<text text-anchor="middle" x="1120" y="-605.608" font-family="Helvetica,sans-Serif" font-size="10.00"> _ip</text>
<text text-anchor="middle" x="1120" y="-594.608" font-family="Helvetica,sans-Serif" font-size="10.00">_interface</text>
<text text-anchor="middle" x="1120" y="-583.608" font-family="Helvetica,sans-Serif" font-size="10.00">_defaultIp</text>
<text text-anchor="middle" x="1120" y="-572.608" font-family="Helvetica,sans-Serif" font-size="10.00">_gateway</text>
<text text-anchor="middle" x="1120" y="-561.608" font-family="Helvetica,sans-Serif" font-size="10.00">_netmask</text>
</g>
<!-- Node22 -->
<g id="node22" class="node"><title>Node22</title>
<polygon fill="white" stroke="#bfbfbf" points="721,-308.608 721,-360.608 878,-360.608 878,-308.608 721,-308.608"/>
<text text-anchor="start" x="729" y="-348.608" font-family="Helvetica,sans-Serif" font-size="10.00">std::map&lt; std::string,</text>
<text text-anchor="start" x="729" y="-337.608" font-family="Helvetica,sans-Serif" font-size="10.00"> std::function&lt; bool</text>
<text text-anchor="start" x="729" y="-326.608" font-family="Helvetica,sans-Serif" font-size="10.00">(zmqpp::message *msg_in,</text>
<text text-anchor="middle" x="799.5" y="-315.608" font-family="Helvetica,sans-Serif" font-size="10.00"> zmqpp::message *msg_out)&gt; &gt;</text>
</g>
<!-- Node4&#45;&gt;Node22 -->
<g id="edge35" class="edge"><title>Node4&#45;&gt;Node22</title>
<path fill="none" stroke="#9a32cd" stroke-dasharray="5,2" d="M198.81,-291.002C202.557,-292.008 206.335,-292.906 210,-293.608 390.558,-328.191 607.243,-334.434 720.622,-335.077"/>
<polygon fill="#9a32cd" stroke="#9a32cd" points="199.643,-287.6 189.062,-288.145 197.674,-294.317 199.643,-287.6"/>
<text text-anchor="middle" x="333.5" y="-322.608" font-family="Helvetica,sans-Serif" font-size="10.00"> keys</text>
</g>
<!-- Node24 -->
<g id="node24" class="node"><title>Node24</title>
<polygon fill="white" stroke="#bfbfbf" points="586,-223.108 586,-264.108 700,-264.108 700,-223.108 586,-223.108"/>
<text text-anchor="start" x="594" y="-252.108" font-family="Helvetica,sans-Serif" font-size="10.00">std::unordered_map</text>
<text text-anchor="start" x="594" y="-241.108" font-family="Helvetica,sans-Serif" font-size="10.00">&lt; std::string, std::</text>
<text text-anchor="middle" x="643" y="-230.108" font-family="Helvetica,sans-Serif" font-size="10.00">vector&lt; std::string &gt; &gt;</text>
</g>
<!-- Node4&#45;&gt;Node24 -->
<g id="edge39" class="edge"><title>Node4&#45;&gt;Node24</title>
<path fill="none" stroke="#9a32cd" stroke-dasharray="5,2" d="M199.75,-265.862C220.41,-259.343 246.83,-252.068 271,-248.608 381.633,-232.767 512.715,-236.102 585.713,-239.896"/>
<polygon fill="#9a32cd" stroke="#9a32cd" points="198.544,-262.574 190.106,-268.981 200.698,-269.234 198.544,-262.574"/>
<text text-anchor="middle" x="333.5" y="-251.608" font-family="Helvetica,sans-Serif" font-size="10.00"> keys</text>
</g>
<!-- Node25 -->
<g id="node25" class="node"><title>Node25</title>
<polygon fill="white" stroke="#bfbfbf" points="438,-175.608 438,-205.608 541,-205.608 541,-175.608 438,-175.608"/>
<text text-anchor="start" x="446" y="-193.608" font-family="Helvetica,sans-Serif" font-size="10.00">std::unordered_map</text>
<text text-anchor="middle" x="489.5" y="-182.608" font-family="Helvetica,sans-Serif" font-size="10.00">&lt; std::string, bool &gt;</text>
</g>
<!-- Node4&#45;&gt;Node25 -->
<g id="edge42" class="edge"><title>Node4&#45;&gt;Node25</title>
<path fill="none" stroke="#9a32cd" stroke-dasharray="5,2" d="M170.011,-259.755C177.275,-243.154 190.351,-219.911 210,-208.608 280.767,-167.899 379.031,-172.981 437.936,-181.211"/>
<polygon fill="#9a32cd" stroke="#9a32cd" points="166.749,-258.486 166.231,-269.068 173.235,-261.118 166.749,-258.486"/>
<text text-anchor="middle" x="231.5" y="-211.608" font-family="Helvetica,sans-Serif" font-size="10.00"> keys</text>
</g>
<!-- Node5 -->
<g id="node5" class="node"><title>Node5</title>
<g id="a_node5"><a xlink:title="STL class. ">
<polygon fill="white" stroke="#bfbfbf" points="0,-263.608 0,-293.608 95,-293.608 95,-263.608 0,-263.608"/>
<text text-anchor="start" x="8" y="-281.608" font-family="Helvetica,sans-Serif" font-size="10.00">std::basic_string&lt;</text>
<text text-anchor="middle" x="47.5" y="-270.608" font-family="Helvetica,sans-Serif" font-size="10.00"> char &gt;</text>
</a>
</g>
</g>
<!-- Node5&#45;&gt;Node4 -->
<g id="edge5" class="edge"><title>Node5&#45;&gt;Node4</title>
<path fill="none" stroke="midnightblue" d="M105.526,-278.608C114.678,-278.608 123.803,-278.608 131.931,-278.608"/>
<polygon fill="midnightblue" stroke="midnightblue" points="105.233,-275.108 95.2328,-278.608 105.233,-282.108 105.233,-275.108"/>
</g>
<!-- Node6&#45;&gt;Node2 -->
<g id="edge6" class="edge"><title>Node6&#45;&gt;Node2</title>
<path fill="none" stroke="#9a32cd" stroke-dasharray="5,2" d="M867.194,-72.9322C931.633,-74.0968 1032,-75.6077 1119,-75.6077 1119,-75.6077 1119,-75.6077 1449.5,-75.6077 1578.83,-75.6077 1651.41,-266.482 1666.86,-311.964"/>
<polygon fill="#9a32cd" stroke="#9a32cd" points="867.23,-69.4324 857.168,-72.7486 867.102,-76.4312 867.23,-69.4324"/>
<text text-anchor="middle" x="1241" y="-78.6077" font-family="Helvetica,sans-Serif" font-size="10.00"> environ_</text>
</g>
<!-- Node7&#45;&gt;Node2 -->
<g id="edge8" class="edge"><title>Node7&#45;&gt;Node2</title>
<path fill="none" stroke="#9a32cd" stroke-dasharray="5,2" d="M713.229,-504.152C780.807,-510.858 886.59,-519.608 978.5,-519.608 978.5,-519.608 978.5,-519.608 1449.5,-519.608 1563.72,-519.608 1645.66,-370.709 1665.41,-331.158"/>
<polygon fill="#9a32cd" stroke="#9a32cd" points="713.431,-500.655 703.131,-503.137 712.73,-507.62 713.431,-500.655"/>
<text text-anchor="middle" x="1241" y="-522.608" font-family="Helvetica,sans-Serif" font-size="10.00"> config_manager_</text>
</g>
<!-- Node11 -->
<g id="node11" class="node"><title>Node11</title>
<g id="a_node11"><a xlink:href="../../d0/dc3/classModuleManager.html" target="_top" xlink:title="A second module manager that loads &quot;ZMQ aware&quot; module – modules that talks to the application throug...">
<polygon fill="white" stroke="black" points="1405.5,-342.108 1405.5,-361.108 1491.5,-361.108 1491.5,-342.108 1405.5,-342.108"/>
<text text-anchor="middle" x="1448.5" y="-349.108" font-family="Helvetica,sans-Serif" font-size="10.00">ModuleManager</text>
</a>
</g>
</g>
<!-- Node7&#45;&gt;Node11 -->
<g id="edge16" class="edge"><title>Node7&#45;&gt;Node11</title>
<path fill="none" stroke="#9a32cd" stroke-dasharray="5,2" d="M713.007,-498.807C771.923,-499.446 851.244,-496.987 878,-480.608 891.262,-472.489 883.083,-459.264 896,-450.608 934.183,-425.02 1259.8,-396.968 1305,-388.608 1333.63,-383.312 1340.79,-381.817 1369,-374.608 1384.82,-370.564 1402.27,-365.512 1416.69,-361.174"/>
<polygon fill="#9a32cd" stroke="#9a32cd" points="713.049,-495.307 703.002,-498.667 712.952,-502.307 713.049,-495.307"/>
<text text-anchor="middle" x="1120" y="-418.608" font-family="Helvetica,sans-Serif" font-size="10.00"> config_manager_</text>
</g>
<!-- Node7&#45;&gt;Node14 -->
<g id="edge21" class="edge"><title>Node7&#45;&gt;Node14</title>
<path fill="none" stroke="#9a32cd" stroke-dasharray="5,2" d="M677.316,-483.356C690.716,-478.441 706.421,-473.196 721,-469.608 789.478,-452.751 819.025,-485.278 878,-446.608 890.686,-438.289 883.916,-426.779 896,-417.608 904.318,-411.295 914.255,-406.64 924.304,-403.209"/>
<polygon fill="#9a32cd" stroke="#9a32cd" points="675.705,-480.223 667.575,-487.017 678.167,-486.775 675.705,-480.223"/>
<text text-anchor="middle" x="799.5" y="-472.608" font-family="Helvetica,sans-Serif" font-size="10.00"> cfg_</text>
</g>
<!-- Node8&#45;&gt;Node7 -->
<g id="edge9" class="edge"><title>Node8&#45;&gt;Node7</title>
<path fill="none" stroke="#9a32cd" stroke-dasharray="5,2" d="M398.955,-501.35C453.177,-500.292 530.074,-498.792 582.769,-497.763"/>
<polygon fill="#9a32cd" stroke="#9a32cd" points="398.697,-497.854 388.767,-501.549 398.833,-504.853 398.697,-497.854"/>
<text text-anchor="middle" x="489.5" y="-504.608" font-family="Helvetica,sans-Serif" font-size="10.00"> modules_configs_</text>
</g>
<!-- Node9 -->
<g id="node9" class="node"><title>Node9</title>
<polygon fill="white" stroke="#bfbfbf" points="143,-575.108 143,-594.108 181,-594.108 181,-575.108 143,-575.108"/>
<text text-anchor="middle" x="162" y="-582.108" font-family="Helvetica,sans-Serif" font-size="10.00">ptree</text>
</g>
<!-- Node9&#45;&gt;Node7 -->
<g id="edge13" class="edge"><title>Node9&#45;&gt;Node7</title>
<path fill="none" stroke="#9a32cd" stroke-dasharray="5,2" d="M191.333,-582.412C209.094,-580.878 232.439,-578.574 253,-575.608 392.678,-555.456 427.293,-547.475 565,-516.608 578.882,-513.496 594.058,-509.651 607.239,-506.166"/>
<polygon fill="#9a32cd" stroke="#9a32cd" points="191.003,-578.927 181.328,-583.246 191.585,-585.903 191.003,-578.927"/>
<text text-anchor="middle" x="333.5" y="-576.608" font-family="Helvetica,sans-Serif" font-size="10.00"> kernel_config_</text>
</g>
<!-- Node9&#45;&gt;Node8 -->
<g id="edge11" class="edge"><title>Node9&#45;&gt;Node8</title>
<path fill="none" stroke="#9a32cd" stroke-dasharray="5,2" d="M190.354,-571.374C217.282,-558.347 258.792,-538.266 290.015,-523.161"/>
<polygon fill="#9a32cd" stroke="#9a32cd" points="188.617,-568.327 181.139,-575.832 191.666,-574.628 188.617,-568.327"/>
<text text-anchor="middle" x="231.5" y="-563.608" font-family="Helvetica,sans-Serif" font-size="10.00"> elements</text>
</g>
<!-- Node9&#45;&gt;Node21 -->
<g id="edge33" class="edge"><title>Node9&#45;&gt;Node21</title>
<path fill="none" stroke="#9a32cd" stroke-dasharray="5,2" d="M190.655,-598.663C223.57,-614.063 280.615,-636.608 332.5,-636.608 332.5,-636.608 332.5,-636.608 1672,-636.608 1753.82,-636.608 1817.76,-538.566 1836.15,-507.162"/>
<polygon fill="#9a32cd" stroke="#9a32cd" points="191.777,-595.319 181.247,-594.145 188.747,-601.629 191.777,-595.319"/>
<text text-anchor="middle" x="1120" y="-639.608" font-family="Helvetica,sans-Serif" font-size="10.00"> config_</text>
</g>
<!-- Node23 -->
<g id="node23" class="node"><title>Node23</title>
<g id="a_node23"><a xlink:href="../../d5/df3/classLeosac_1_1RemoteControlSecurity.html" target="_top" xlink:title="Provide some kind of security framework to the Remote Control service. ">
<polygon fill="white" stroke="black" points="901.5,-234.108 901.5,-253.108 1057.5,-253.108 1057.5,-234.108 901.5,-234.108"/>
<text text-anchor="middle" x="979.5" y="-241.108" font-family="Helvetica,sans-Serif" font-size="10.00">Leosac::RemoteControlSecurity</text>
</a>
</g>
</g>
<!-- Node9&#45;&gt;Node23 -->
<g id="edge43" class="edge"><title>Node9&#45;&gt;Node23</title>
<path fill="none" stroke="#9a32cd" stroke-dasharray="5,2" d="M164.999,-564.812C168.806,-538.24 179.652,-491.607 210,-467.608 242.786,-441.68 354.695,-446.016 396,-439.608 449.593,-431.293 838.989,-400.284 878,-362.608 907.969,-333.664 868.407,-301.825 896,-270.608 902.987,-262.704 912.321,-257.103 922.196,-253.138"/>
<polygon fill="#9a32cd" stroke="#9a32cd" points="161.512,-564.494 163.762,-574.848 168.459,-565.351 161.512,-564.494"/>
<text text-anchor="middle" x="489.5" y="-440.608" font-family="Helvetica,sans-Serif" font-size="10.00"> cfg_</text>
</g>
<!-- Node10 -->
<g id="node10" class="node"><title>Node10</title>
<g id="a_node10"><a xlink:href="../../dd/dc8/classMessageBus.html" target="_top" xlink:title="Implements a message bus (running in its own thread) that use 2 sockets. ">
<polygon fill="white" stroke="black" points="1411.5,-245.108 1411.5,-264.108 1485.5,-264.108 1485.5,-245.108 1411.5,-245.108"/>
<text text-anchor="middle" x="1448.5" y="-252.108" font-family="Helvetica,sans-Serif" font-size="10.00">MessageBus</text>
</a>
</g>
</g>
<!-- Node10&#45;&gt;Node2 -->
<g id="edge14" class="edge"><title>Node10&#45;&gt;Node2</title>
<path fill="none" stroke="#9a32cd" stroke-dasharray="5,2" d="M1496.21,-254.074C1529.66,-255.236 1575.11,-260.032 1612,-275.608 1631.89,-284.006 1650.65,-301.192 1661.2,-312.015"/>
<polygon fill="#9a32cd" stroke="#9a32cd" points="1495.88,-250.565 1485.8,-253.816 1495.71,-257.563 1495.88,-250.565"/>
<text text-anchor="middle" x="1570" y="-278.608" font-family="Helvetica,sans-Serif" font-size="10.00"> bus_</text>
</g>
<!-- Node11&#45;&gt;Node2 -->
<g id="edge15" class="edge"><title>Node11&#45;&gt;Node2</title>
<path fill="none" stroke="#9a32cd" stroke-dasharray="5,2" d="M1501.91,-344.477C1541.09,-339.147 1593.86,-331.967 1629.75,-327.084"/>
<polygon fill="#9a32cd" stroke="#9a32cd" points="1501.19,-341.043 1491.75,-345.859 1502.13,-347.979 1501.19,-341.043"/>
<text text-anchor="middle" x="1570" y="-343.608" font-family="Helvetica,sans-Serif" font-size="10.00"> module_manager_</text>
</g>
<!-- Node12&#45;&gt;Node11 -->
<g id="edge17" class="edge"><title>Node12&#45;&gt;Node11</title>
<path fill="none" stroke="#9a32cd" stroke-dasharray="5,2" d="M406.352,-278.772C564.192,-279.33 937.13,-281.789 1063,-292.608 1188.32,-303.379 1334.81,-329.707 1405.33,-343.254"/>
<polygon fill="#9a32cd" stroke="#9a32cd" points="406.283,-275.271 396.271,-278.737 406.259,-282.271 406.283,-275.271"/>
<text text-anchor="middle" x="979.5" y="-295.608" font-family="Helvetica,sans-Serif" font-size="10.00"> path_</text>
</g>
<!-- Node12&#45;&gt;Node24 -->
<g id="edge40" class="edge"><title>Node12&#45;&gt;Node24</title>
<path fill="none" stroke="#9a32cd" stroke-dasharray="5,2" d="M406.261,-268.57C408.872,-268.239 411.458,-267.917 414,-267.608 472.475,-260.487 539.542,-253.578 585.723,-249.016"/>
<polygon fill="#9a32cd" stroke="#9a32cd" points="405.573,-265.129 396.104,-269.882 406.47,-272.072 405.573,-265.129"/>
<text text-anchor="middle" x="489.5" y="-270.608" font-family="Helvetica,sans-Serif" font-size="10.00"> elements</text>
</g>
<!-- Node13 -->
<g id="node13" class="node"><title>Node13</title>
<polygon fill="white" stroke="#bfbfbf" points="1177,-349.608 1177,-379.608 1305,-379.608 1305,-349.608 1177,-349.608"/>
<text text-anchor="start" x="1185" y="-367.608" font-family="Helvetica,sans-Serif" font-size="10.00">std::set&lt; ModuleManager</text>
<text text-anchor="middle" x="1241" y="-356.608" font-family="Helvetica,sans-Serif" font-size="10.00">::ModuleInfo &gt;</text>
</g>
<!-- Node13&#45;&gt;Node11 -->
<g id="edge19" class="edge"><title>Node13&#45;&gt;Node11</title>
<path fill="none" stroke="#9a32cd" stroke-dasharray="5,2" d="M1315.15,-359.98C1345.41,-358.066 1379.4,-355.916 1405.36,-354.273"/>
<polygon fill="#9a32cd" stroke="#9a32cd" points="1314.81,-356.494 1305.05,-360.619 1315.25,-363.48 1314.81,-356.494"/>
<text text-anchor="middle" x="1346" y="-362.608" font-family="Helvetica,sans-Serif" font-size="10.00"> modules_</text>
</g>
<!-- Node14&#45;&gt;Node13 -->
<g id="edge20" class="edge"><title>Node14&#45;&gt;Node13</title>
<path fill="none" stroke="#9a32cd" stroke-dasharray="5,2" d="M1060.08,-384.714C1097.55,-380.527 1141.62,-375.601 1176.77,-371.674"/>
<polygon fill="#9a32cd" stroke="#9a32cd" points="1059.25,-381.285 1049.7,-385.874 1060.03,-388.242 1059.25,-381.285"/>
<text text-anchor="middle" x="1120" y="-385.608" font-family="Helvetica,sans-Serif" font-size="10.00"> keys</text>
</g>
<!-- Node15 -->
<g id="node15" class="node"><title>Node15</title>
<polygon fill="white" stroke="#bfbfbf" points="583.5,-435.608 583.5,-465.608 702.5,-465.608 702.5,-435.608 583.5,-435.608"/>
<text text-anchor="start" x="591.5" y="-453.608" font-family="Helvetica,sans-Serif" font-size="10.00">std::unique_ptr&lt; zmqpp</text>
<text text-anchor="middle" x="643" y="-442.608" font-family="Helvetica,sans-Serif" font-size="10.00">::actor &gt;</text>
</g>
<!-- Node15&#45;&gt;Node14 -->
<g id="edge23" class="edge"><title>Node15&#45;&gt;Node14</title>
<path fill="none" stroke="#9a32cd" stroke-dasharray="5,2" d="M712.844,-437.031C715.596,-436.541 718.323,-436.064 721,-435.608 790.519,-423.751 808.449,-424.272 878,-412.608 895.075,-409.744 913.721,-406.306 930.265,-403.146"/>
<polygon fill="#9a32cd" stroke="#9a32cd" points="712.017,-433.624 702.805,-438.858 713.27,-440.511 712.017,-433.624"/>
<text text-anchor="middle" x="799.5" y="-438.608" font-family="Helvetica,sans-Serif" font-size="10.00"> actor_</text>
</g>
<!-- Node16 -->
<g id="node16" class="node"><title>Node16</title>
<polygon fill="white" stroke="#bfbfbf" points="1387,-412.608 1387,-442.608 1510,-442.608 1510,-412.608 1387,-412.608"/>
<text text-anchor="start" x="1395" y="-430.608" font-family="Helvetica,sans-Serif" font-size="10.00">std::unique_ptr&lt; Service</text>
<text text-anchor="middle" x="1448.5" y="-419.608" font-family="Helvetica,sans-Serif" font-size="10.00">Registry &gt;</text>
</g>
<!-- Node16&#45;&gt;Node2 -->
<g id="edge24" class="edge"><title>Node16&#45;&gt;Node2</title>
<path fill="none" stroke="#9a32cd" stroke-dasharray="5,2" d="M1496.2,-408.572C1529.04,-394.789 1573.76,-375.208 1612,-355.608 1626.75,-348.048 1642.98,-338.413 1654.51,-331.332"/>
<polygon fill="#9a32cd" stroke="#9a32cd" points="1494.73,-405.397 1486.85,-412.479 1497.42,-411.856 1494.73,-405.397"/>
<text text-anchor="middle" x="1570" y="-398.608" font-family="Helvetica,sans-Serif" font-size="10.00"> service_registry_</text>
</g>
<!-- Node17 -->
<g id="node17" class="node"><title>Node17</title>
<g id="a_node17"><a xlink:href="../../df/d75/classLeosac_1_1ServiceRegistry.html" target="_top" xlink:title="A class that manages services. ">
<polygon fill="white" stroke="black" points="1179,-462.108 1179,-481.108 1303,-481.108 1303,-462.108 1179,-462.108"/>
<text text-anchor="middle" x="1241" y="-469.108" font-family="Helvetica,sans-Serif" font-size="10.00">Leosac::ServiceRegistry</text>
</a>
</g>
</g>
<!-- Node17&#45;&gt;Node16 -->
<g id="edge25" class="edge"><title>Node17&#45;&gt;Node16</title>
<path fill="none" stroke="#9a32cd" stroke-dasharray="5,2" d="M1300.04,-460.024C1321.7,-455.622 1346.5,-450.49 1369,-445.608 1374.74,-444.362 1380.71,-443.041 1386.68,-441.703"/>
<polygon fill="#9a32cd" stroke="#9a32cd" points="1299.11,-456.642 1290,-462.057 1300.5,-463.502 1299.11,-456.642"/>
<text text-anchor="middle" x="1346" y="-458.608" font-family="Helvetica,sans-Serif" font-size="10.00"> ptr</text>
</g>
<!-- Node18 -->
<g id="node18" class="node"><title>Node18</title>
<polygon fill="white" stroke="#bfbfbf" points="896,-460.608 896,-490.608 1063,-490.608 1063,-460.608 896,-460.608"/>
<text text-anchor="start" x="904" y="-478.608" font-family="Helvetica,sans-Serif" font-size="10.00">std::map&lt; boost::typeindex</text>
<text text-anchor="middle" x="979.5" y="-467.608" font-family="Helvetica,sans-Serif" font-size="10.00">::type_index, RegistrationInfoPtr &gt;</text>
</g>
<!-- Node18&#45;&gt;Node17 -->
<g id="edge26" class="edge"><title>Node18&#45;&gt;Node17</title>
<path fill="none" stroke="#9a32cd" stroke-dasharray="5,2" d="M1073.57,-474.173C1108.61,-473.633 1147.53,-473.033 1178.92,-472.549"/>
<polygon fill="#9a32cd" stroke="#9a32cd" points="1073.27,-470.677 1063.32,-474.331 1073.37,-477.676 1073.27,-470.677"/>
<text text-anchor="middle" x="1120" y="-477.608" font-family="Helvetica,sans-Serif" font-size="10.00"> services_</text>
</g>
<!-- Node19&#45;&gt;Node2 -->
<g id="edge27" class="edge"><title>Node19&#45;&gt;Node2</title>
<path fill="none" stroke="#9a32cd" stroke-dasharray="5,2" d="M1519.89,-212.595C1550.16,-216.224 1584.78,-224.311 1612,-241.608 1639.51,-259.087 1658.13,-294.688 1665.91,-311.883"/>
<polygon fill="#9a32cd" stroke="#9a32cd" points="1520.11,-209.1 1509.8,-211.529 1519.38,-216.061 1520.11,-209.1"/>
<text text-anchor="middle" x="1570" y="-244.608" font-family="Helvetica,sans-Serif" font-size="10.00"> remote_controller_</text>
</g>
<!-- Node20 -->
<g id="node20" class="node"><title>Node20</title>
<polygon fill="white" stroke="#bfbfbf" points="1953,-415.608 1953,-445.608 2075,-445.608 2075,-415.608 1953,-415.608"/>
<text text-anchor="start" x="1961" y="-433.608" font-family="Helvetica,sans-Serif" font-size="10.00">std::unique_ptr&lt; Leosac</text>
<text text-anchor="middle" x="2014" y="-422.608" font-family="Helvetica,sans-Serif" font-size="10.00">::NetworkConfig &gt;</text>
</g>
<!-- Node20&#45;&gt;Node2 -->
<g id="edge29" class="edge"><title>Node20&#45;&gt;Node2</title>
<path fill="none" stroke="#9a32cd" stroke-dasharray="5,2" d="M1956.1,-412.418C1882.99,-389.051 1758.77,-349.344 1701.96,-331.185"/>
<polygon fill="#9a32cd" stroke="#9a32cd" points="1955.47,-415.892 1966.06,-415.603 1957.6,-409.225 1955.47,-415.892"/>
<text text-anchor="middle" x="1842.5" y="-397.608" font-family="Helvetica,sans-Serif" font-size="10.00"> network_config_</text>
</g>
<!-- Node21&#45;&gt;Node20 -->
<g id="edge30" class="edge"><title>Node21&#45;&gt;Node20</title>
<path fill="none" stroke="#9a32cd" stroke-dasharray="5,2" d="M1877.22,-484.277C1905.43,-473.127 1945.65,-457.228 1975,-445.629"/>
<polygon fill="#9a32cd" stroke="#9a32cd" points="1875.8,-481.077 1867.79,-488.008 1878.37,-487.587 1875.8,-481.077"/>
<text text-anchor="middle" x="1927.5" y="-469.608" font-family="Helvetica,sans-Serif" font-size="10.00"> ptr</text>
</g>
<!-- Node22&#45;&gt;Node1 -->
<g id="edge34" class="edge"><title>Node22&#45;&gt;Node1</title>
<path fill="none" stroke="#9a32cd" stroke-dasharray="5,2" d="M888.349,-330.944C939.76,-327.471 1005.64,-320.72 1063,-307.608 1121.13,-294.319 1186.34,-267.451 1218.98,-253.119"/>
<polygon fill="#9a32cd" stroke="#9a32cd" points="888.02,-327.458 878.267,-331.596 888.472,-334.443 888.02,-327.458"/>
<text text-anchor="middle" x="979.5" y="-333.608" font-family="Helvetica,sans-Serif" font-size="10.00"> command_handlers_</text>
</g>
<!-- Node23&#45;&gt;Node1 -->
<g id="edge37" class="edge"><title>Node23&#45;&gt;Node1</title>
<path fill="none" stroke="#9a32cd" stroke-dasharray="5,2" d="M1067.99,-243.608C1105.14,-243.608 1147.48,-243.608 1180.86,-243.608"/>
<polygon fill="#9a32cd" stroke="#9a32cd" points="1067.66,-240.108 1057.66,-243.608 1067.66,-247.108 1067.66,-240.108"/>
<text text-anchor="middle" x="1120" y="-246.608" font-family="Helvetica,sans-Serif" font-size="10.00"> security_</text>
</g>
<!-- Node24&#45;&gt;Node23 -->
<g id="edge38" class="edge"><title>Node24&#45;&gt;Node23</title>
<path fill="none" stroke="#9a32cd" stroke-dasharray="5,2" d="M710.704,-243.608C765.723,-243.608 843.829,-243.608 901.499,-243.608"/>
<polygon fill="#9a32cd" stroke="#9a32cd" points="710.365,-240.108 700.365,-243.608 710.365,-247.108 710.365,-240.108"/>
<text text-anchor="middle" x="799.5" y="-246.608" font-family="Helvetica,sans-Serif" font-size="10.00"> permissions_</text>
</g>
<!-- Node25&#45;&gt;Node23 -->
<g id="edge41" class="edge"><title>Node25&#45;&gt;Node23</title>
<path fill="none" stroke="#9a32cd" stroke-dasharray="5,2" d="M551.462,-192.573C594.005,-194.305 652.062,-197.39 703,-202.608 780.329,-210.528 869.172,-224.668 924.579,-234.093"/>
<polygon fill="#9a32cd" stroke="#9a32cd" points="551.397,-189.067 541.267,-192.171 551.122,-196.062 551.397,-189.067"/>
<text text-anchor="middle" x="643" y="-205.608" font-family="Helvetica,sans-Serif" font-size="10.00"> default_permissions_</text>
</g>
</g>
</svg>
        <g id="navigator" transform="translate(0 0)" fill="#404254">
                <rect fill="#f2f5e9" fill-opacity="0.5" stroke="#606060" stroke-width=".5" x="0" y="0" width="60" height="60"/>
                <use id="zoomplus" xlink:href="#zoomPlus" x="17" y="9" onmousedown="handleZoom(evt,'in')"/>
                <use id="zoomminus" xlink:href="#zoomMin" x="42" y="9" onmousedown="handleZoom(evt,'out')"/>
                <use id="reset" xlink:href="#resetDef" x="30" y="36" onmousedown="handleReset()"/>
                <g id="arrowUp" xlink:href="#dirArrow" transform="translate(30 24)" onmousedown="handlePan(0,-1)">
                  <use xlink:href="#rim" fill="#404040">
                        <set attributeName="fill" to="#808080" begin="arrowUp.mouseover" end="arrowUp.mouseout"/>
                  </use>
                  <path fill="none" stroke="white" stroke-width="1.5" d="M0,-3.0v7 M-2.5,-0.5L0,-3.0L2.5,-0.5"/>
                </g>
                <g id="arrowRight" xlink:href="#dirArrow" transform="rotate(90) translate(36 -43)" onmousedown="handlePan(1,0)">
                  <use xlink:href="#rim" fill="#404040">
                        <set attributeName="fill" to="#808080" begin="arrowRight.mouseover" end="arrowRight.mouseout"/>
                  </use>
                  <path fill="none" stroke="white" stroke-width="1.5" d="M0,-3.0v7 M-2.5,-0.5L0,-3.0L2.5,-0.5"/>
                </g>
                <g id="arrowDown" xlink:href="#dirArrow" transform="rotate(180) translate(-30 -48)" onmousedown="handlePan(0,1)">
                  <use xlink:href="#rim" fill="#404040">
                        <set attributeName="fill" to="#808080" begin="arrowDown.mouseover" end="arrowDown.mouseout"/>
                  </use>
                  <path fill="none" stroke="white" stroke-width="1.5" d="M0,-3.0v7 M-2.5,-0.5L0,-3.0L2.5,-0.5"/>
                </g>
                <g id="arrowLeft" xlink:href="#dirArrow" transform="rotate(270) translate(-36 17)" onmousedown="handlePan(-1,0)">
                  <use xlink:href="#rim" fill="#404040">
                        <set attributeName="fill" to="#808080" begin="arrowLeft.mouseover" end="arrowLeft.mouseout"/>
                  </use>
                  <path fill="none" stroke="white" stroke-width="1.5" d="M0,-3.0v7 M-2.5,-0.5L0,-3.0L2.5,-0.5"/>
                </g>
        </g>
        <svg viewBox="0 0 15 15" width="100%" height="30px" preserveAspectRatio="xMaxYMin meet">
         <g id="arrow_out" transform="scale(0.3 0.3)">
          <a xlink:href="classLeosac_1_1RemoteControl__coll__graph_org.svg" target="_base">
           <rect id="button" ry="5" rx="5" y="6" x="6" height="38" width="38"
                fill="#f2f5e9" fill-opacity="0.5" stroke="#606060" stroke-width="1.0"/>
           <path id="arrow"
             d="M 11.500037,31.436501 C 11.940474,20.09759 22.043105,11.32322 32.158766,21.979434 L 37.068811,17.246167 C 37.068811,17.246167 37.088388,32 37.088388,32 L 22.160133,31.978069 C 22.160133,31.978069 26.997745,27.140456 26.997745,27.140456 C 18.528582,18.264221 13.291696,25.230495 11.500037,31.436501 z"
             style="fill:#404040;"/>
          </a>
         </g>
        </svg>
</svg>
