<?xml version="1.0" encoding="UTF-8" standalone="no"?>
<!DOCTYPE svg PUBLIC "-//W3C//DTD SVG 1.1//EN"
 "http://www.w3.org/Graphics/SVG/1.1/DTD/svg11.dtd">
<!-- Generated by graphviz version 2.38.0 (20140413.2041)
 -->
<!-- Title: src/modules/smtp/SMTPServerInfoSerializer.hpp Pages: 1 -->
<svg width="461pt" height="151pt"
 viewBox="0.00 0.00 460.50 151.00" xmlns="http://www.w3.org/2000/svg" xmlns:xlink="http://www.w3.org/1999/xlink">
<g id="graph0" class="graph" transform="scale(1 1) rotate(0) translate(4 147)">
<title>src/modules/smtp/SMTPServerInfoSerializer.hpp</title>
<polygon fill="white" stroke="none" points="-4,4 -4,-147 456.5,-147 456.5,4 -4,4"/>
<!-- Node0 -->
<g id="node1" class="node"><title>Node0</title>
<polygon fill="#bfbfbf" stroke="black" points="186,-112.5 186,-142.5 340,-142.5 340,-112.5 186,-112.5"/>
<text text-anchor="start" x="194" y="-130.5" font-family="Helvetica,sans-Serif" font-size="10.00">src/modules/smtp/SMTPServer</text>
<text text-anchor="middle" x="263" y="-119.5" font-family="Helvetica,sans-Serif" font-size="10.00">InfoSerializer.hpp</text>
</g>
<!-- Node1 -->
<g id="node2" class="node"><title>Node1</title>
<g id="a_node2"><a xlink:href="../../dc/d49/LeosacFwd_8hpp.html" target="_top" xlink:title="LeosacFwd.hpp">
<polygon fill="white" stroke="black" points="0,-56.5 0,-75.5 86,-75.5 86,-56.5 0,-56.5"/>
<text text-anchor="middle" x="43" y="-63.5" font-family="Helvetica,sans-Serif" font-size="10.00">LeosacFwd.hpp</text>
</a>
</g>
</g>
<!-- Node0&#45;&gt;Node1 -->
<g id="edge1" class="edge"><title>Node0&#45;&gt;Node1</title>
<path fill="none" stroke="midnightblue" d="M211.142,-112.475C172.358,-101.986 120.043,-87.8367 84.1237,-78.1221"/>
<polygon fill="midnightblue" stroke="midnightblue" points="85.0191,-74.7386 74.4521,-75.5064 83.1915,-81.4958 85.0191,-74.7386"/>
</g>
<!-- Node4 -->
<g id="node5" class="node"><title>Node4</title>
<g id="a_node5"><a xlink:href="../../da/d3b/SMTPFwd_8hpp.html" target="_top" xlink:title="SMTPFwd.hpp">
<polygon fill="white" stroke="black" points="104,-56.5 104,-75.5 186,-75.5 186,-56.5 104,-56.5"/>
<text text-anchor="middle" x="145" y="-63.5" font-family="Helvetica,sans-Serif" font-size="10.00">SMTPFwd.hpp</text>
</a>
</g>
</g>
<!-- Node0&#45;&gt;Node4 -->
<g id="edge4" class="edge"><title>Node0&#45;&gt;Node4</title>
<path fill="none" stroke="midnightblue" d="M235.036,-112.399C215.679,-102.639 190.092,-89.7373 171.144,-80.1826"/>
<polygon fill="midnightblue" stroke="midnightblue" points="172.675,-77.035 162.17,-75.6578 169.523,-83.2854 172.675,-77.035"/>
</g>
<!-- Node5 -->
<g id="node6" class="node"><title>Node5</title>
<g id="a_node6"><a xlink:href="../../d3/d6f/AuthFwd_8hpp.html" target="_top" xlink:title="core/auth/AuthFwd.hpp">
<polygon fill="white" stroke="black" points="204,-56.5 204,-75.5 322,-75.5 322,-56.5 204,-56.5"/>
<text text-anchor="middle" x="263" y="-63.5" font-family="Helvetica,sans-Serif" font-size="10.00">core/auth/AuthFwd.hpp</text>
</a>
</g>
</g>
<!-- Node0&#45;&gt;Node5 -->
<g id="edge6" class="edge"><title>Node0&#45;&gt;Node5</title>
<path fill="none" stroke="midnightblue" d="M263,-112.399C263,-104.466 263,-94.458 263,-85.8583"/>
<polygon fill="midnightblue" stroke="midnightblue" points="266.5,-85.6577 263,-75.6578 259.5,-85.6578 266.5,-85.6577"/>
</g>
<!-- Node8 -->
<g id="node9" class="node"><title>Node8</title>
<polygon fill="white" stroke="#bfbfbf" points="340.5,-56.5 340.5,-75.5 393.5,-75.5 393.5,-56.5 340.5,-56.5"/>
<text text-anchor="middle" x="367" y="-63.5" font-family="Helvetica,sans-Serif" font-size="10.00">json.hpp</text>
</g>
<!-- Node0&#45;&gt;Node8 -->
<g id="edge10" class="edge"><title>Node0&#45;&gt;Node8</title>
<path fill="none" stroke="midnightblue" d="M287.647,-112.399C304.317,-102.862 326.231,-90.3248 342.805,-80.8422"/>
<polygon fill="midnightblue" stroke="midnightblue" points="344.925,-83.6617 351.867,-75.6578 341.449,-77.5858 344.925,-83.6617"/>
</g>
<!-- Node9 -->
<g id="node10" class="node"><title>Node9</title>
<polygon fill="white" stroke="#bfbfbf" points="411.5,-56.5 411.5,-75.5 452.5,-75.5 452.5,-56.5 411.5,-56.5"/>
<text text-anchor="middle" x="432" y="-63.5" font-family="Helvetica,sans-Serif" font-size="10.00">string</text>
</g>
<!-- Node0&#45;&gt;Node9 -->
<g id="edge11" class="edge"><title>Node0&#45;&gt;Node9</title>
<path fill="none" stroke="midnightblue" d="M303.051,-112.399C333.303,-101.748 374.182,-87.356 401.736,-77.6551"/>
<polygon fill="midnightblue" stroke="midnightblue" points="402.97,-80.9312 411.24,-74.3089 400.645,-74.3285 402.97,-80.9312"/>
</g>
<!-- Node2 -->
<g id="node3" class="node"><title>Node2</title>
<polygon fill="white" stroke="#bfbfbf" points="119,-0.5 119,-19.5 171,-19.5 171,-0.5 119,-0.5"/>
<text text-anchor="middle" x="145" y="-7.5" font-family="Helvetica,sans-Serif" font-size="10.00">memory</text>
</g>
<!-- Node1&#45;&gt;Node2 -->
<g id="edge2" class="edge"><title>Node1&#45;&gt;Node2</title>
<path fill="none" stroke="midnightblue" d="M59.3881,-56.324C75.6713,-47.7034 100.867,-34.3643 119.716,-24.3855"/>
<polygon fill="midnightblue" stroke="midnightblue" points="121.452,-27.4267 128.653,-19.6545 118.177,-21.2402 121.452,-27.4267"/>
</g>
<!-- Node3 -->
<g id="node4" class="node"><title>Node3</title>
<polygon fill="white" stroke="#bfbfbf" points="21,-0.5 21,-19.5 65,-19.5 65,-0.5 21,-0.5"/>
<text text-anchor="middle" x="43" y="-7.5" font-family="Helvetica,sans-Serif" font-size="10.00">vector</text>
</g>
<!-- Node1&#45;&gt;Node3 -->
<g id="edge3" class="edge"><title>Node1&#45;&gt;Node3</title>
<path fill="none" stroke="midnightblue" d="M43,-56.083C43,-49.0059 43,-38.8611 43,-29.9865"/>
<polygon fill="midnightblue" stroke="midnightblue" points="46.5001,-29.751 43,-19.7511 39.5001,-29.7511 46.5001,-29.751"/>
</g>
<!-- Node4&#45;&gt;Node2 -->
<g id="edge5" class="edge"><title>Node4&#45;&gt;Node2</title>
<path fill="none" stroke="midnightblue" d="M145,-56.083C145,-49.0059 145,-38.8611 145,-29.9865"/>
<polygon fill="midnightblue" stroke="midnightblue" points="148.5,-29.751 145,-19.7511 141.5,-29.7511 148.5,-29.751"/>
</g>
<!-- Node5&#45;&gt;Node2 -->
<g id="edge8" class="edge"><title>Node5&#45;&gt;Node2</title>
<path fill="none" stroke="midnightblue" d="M244.303,-56.4435C225.056,-47.6356 194.848,-33.8116 172.8,-23.722"/>
<polygon fill="midnightblue" stroke="midnightblue" points="174.16,-20.4951 163.61,-19.5164 171.247,-26.8603 174.16,-20.4951"/>
</g>
<!-- Node6 -->
<g id="node7" class="node"><title>Node6</title>
<polygon fill="white" stroke="#bfbfbf" points="213.5,-0.5 213.5,-19.5 262.5,-19.5 262.5,-0.5 213.5,-0.5"/>
<text text-anchor="middle" x="238" y="-7.5" font-family="Helvetica,sans-Serif" font-size="10.00">cstddef</text>
</g>
<!-- Node5&#45;&gt;Node6 -->
<g id="edge7" class="edge"><title>Node5&#45;&gt;Node6</title>
<path fill="none" stroke="midnightblue" d="M258.872,-56.083C255.486,-48.77 250.584,-38.1814 246.381,-29.1034"/>
<polygon fill="midnightblue" stroke="midnightblue" points="249.429,-27.3553 242.051,-19.7511 243.077,-30.2962 249.429,-27.3553"/>
</g>
<!-- Node7 -->
<g id="node8" class="node"><title>Node7</title>
<polygon fill="white" stroke="#bfbfbf" points="281,-0.5 281,-19.5 367,-19.5 367,-0.5 281,-0.5"/>
<text text-anchor="middle" x="324" y="-7.5" font-family="Helvetica,sans-Serif" font-size="10.00">odb/lazy&#45;ptr.hxx</text>
</g>
<!-- Node5&#45;&gt;Node7 -->
<g id="edge9" class="edge"><title>Node5&#45;&gt;Node7</title>
<path fill="none" stroke="midnightblue" d="M272.801,-56.324C281.818,-48.3414 295.406,-36.3128 306.318,-26.6529"/>
<polygon fill="midnightblue" stroke="midnightblue" points="308.853,-29.083 314.021,-19.8339 304.213,-23.8416 308.853,-29.083"/>
</g>
</g>
</svg>
