<?xml version="1.0" encoding="UTF-8" standalone="no"?>
<!DOCTYPE svg PUBLIC "-//W3C//DTD SVG 1.1//EN"
 "http://www.w3.org/Graphics/SVG/1.1/DTD/svg11.dtd">
<!-- Generated by graphviz version 2.38.0 (20140413.2041)
 -->
<!-- Title: src/modules/wiegand/strategies/PinReading.hpp Pages: 1 -->
<svg width="581pt" height="351pt"
 viewBox="0.00 0.00 581.00 351.00" xmlns="http://www.w3.org/2000/svg" xmlns:xlink="http://www.w3.org/1999/xlink">
<g id="graph0" class="graph" transform="scale(1 1) rotate(0) translate(4 347)">
<title>src/modules/wiegand/strategies/PinReading.hpp</title>
<polygon fill="white" stroke="none" points="-4,4 -4,-347 577,-347 577,4 -4,4"/>
<!-- Node13 -->
<g id="node1" class="node"><title>Node13</title>
<polygon fill="#bfbfbf" stroke="black" points="280.5,-312.5 280.5,-342.5 414.5,-342.5 414.5,-312.5 280.5,-312.5"/>
<text text-anchor="start" x="288.5" y="-330.5" font-family="Helvetica,sans-Serif" font-size="10.00">src/modules/wiegand</text>
<text text-anchor="middle" x="347.5" y="-319.5" font-family="Helvetica,sans-Serif" font-size="10.00">/strategies/PinReading.hpp</text>
</g>
<!-- Node14 -->
<g id="node2" class="node"><title>Node14</title>
<g id="a_node2"><a xlink:href="../../d6/da6/WiegandPinBuffered_8hpp.html" target="_top" xlink:title="src/modules/wiegand\l/strategies/WiegandPinBuffered.hpp">
<polygon fill="white" stroke="black" points="146,-240 146,-270 319,-270 319,-240 146,-240"/>
<text text-anchor="start" x="154" y="-258" font-family="Helvetica,sans-Serif" font-size="10.00">src/modules/wiegand</text>
<text text-anchor="middle" x="232.5" y="-247" font-family="Helvetica,sans-Serif" font-size="10.00">/strategies/WiegandPinBuffered.hpp</text>
</a>
</g>
</g>
<!-- Node13&#45;&gt;Node14 -->
<g id="edge1" class="edge"><title>Node13&#45;&gt;Node14</title>
<path fill="none" stroke="midnightblue" d="M315.825,-307.082C296.699,-295.357 272.761,-280.682 255.456,-270.073"/>
<polygon fill="midnightblue" stroke="midnightblue" points="314.15,-310.16 324.504,-312.403 317.808,-304.192 314.15,-310.16"/>
</g>
<!-- Node15 -->
<g id="node3" class="node"><title>Node15</title>
<g id="a_node3"><a xlink:href="../../dc/d0d/Strategies_8hpp.html" target="_top" xlink:title="src/modules/wiegand\l/strategies/Strategies.hpp">
<polygon fill="white" stroke="black" points="283.5,-162 283.5,-192 411.5,-192 411.5,-162 283.5,-162"/>
<text text-anchor="start" x="291.5" y="-180" font-family="Helvetica,sans-Serif" font-size="10.00">src/modules/wiegand</text>
<text text-anchor="middle" x="347.5" y="-169" font-family="Helvetica,sans-Serif" font-size="10.00">/strategies/Strategies.hpp</text>
</a>
</g>
</g>
<!-- Node13&#45;&gt;Node15 -->
<g id="edge13" class="edge"><title>Node13&#45;&gt;Node15</title>
<path fill="none" stroke="midnightblue" d="M347.5,-302.224C347.5,-271.028 347.5,-217.867 347.5,-192.414"/>
<polygon fill="midnightblue" stroke="midnightblue" points="344,-302.261 347.5,-312.261 351,-302.261 344,-302.261"/>
</g>
<!-- Node22 -->
<g id="node10" class="node"><title>Node22</title>
<g id="a_node10"><a xlink:href="../../d4/d9d/WiegandPinNBitsOnly_8hpp.html" target="_top" xlink:title="src/modules/wiegand\l/strategies/WiegandPinNBits\lOnly.hpp">
<polygon fill="white" stroke="black" points="376,-234.5 376,-275.5 519,-275.5 519,-234.5 376,-234.5"/>
<text text-anchor="start" x="384" y="-263.5" font-family="Helvetica,sans-Serif" font-size="10.00">src/modules/wiegand</text>
<text text-anchor="start" x="384" y="-252.5" font-family="Helvetica,sans-Serif" font-size="10.00">/strategies/WiegandPinNBits</text>
<text text-anchor="middle" x="447.5" y="-241.5" font-family="Helvetica,sans-Serif" font-size="10.00">Only.hpp</text>
</a>
</g>
</g>
<!-- Node13&#45;&gt;Node22 -->
<g id="edge10" class="edge"><title>Node13&#45;&gt;Node22</title>
<path fill="none" stroke="midnightblue" d="M376.282,-306.209C389.939,-296.581 406.188,-285.125 419.715,-275.588"/>
<polygon fill="midnightblue" stroke="midnightblue" points="373.893,-303.611 367.736,-312.233 377.926,-309.332 373.893,-303.611"/>
</g>
<!-- Node14&#45;&gt;Node15 -->
<g id="edge2" class="edge"><title>Node14&#45;&gt;Node15</title>
<path fill="none" stroke="midnightblue" d="M262.326,-234.289C282.365,-221.046 308.294,-203.91 326.253,-192.041"/>
<polygon fill="midnightblue" stroke="midnightblue" points="260.274,-231.45 253.861,-239.883 264.134,-237.29 260.274,-231.45"/>
</g>
<!-- Node21 -->
<g id="node9" class="node"><title>Node21</title>
<g id="a_node9"><a xlink:href="../../d7/da6/WiegandPinBuffered_8cpp.html" target="_top" xlink:title="src/modules/wiegand\l/strategies/WiegandPinBuffered.cpp">
<polygon fill="white" stroke="black" points="92,-162 92,-192 265,-192 265,-162 92,-162"/>
<text text-anchor="start" x="100" y="-180" font-family="Helvetica,sans-Serif" font-size="10.00">src/modules/wiegand</text>
<text text-anchor="middle" x="178.5" y="-169" font-family="Helvetica,sans-Serif" font-size="10.00">/strategies/WiegandPinBuffered.cpp</text>
</a>
</g>
</g>
<!-- Node14&#45;&gt;Node21 -->
<g id="edge9" class="edge"><title>Node14&#45;&gt;Node21</title>
<path fill="none" stroke="midnightblue" d="M216.471,-231.441C207.443,-218.735 196.443,-203.254 188.611,-192.231"/>
<polygon fill="midnightblue" stroke="midnightblue" points="213.698,-233.58 222.343,-239.705 219.404,-229.526 213.698,-233.58"/>
</g>
<!-- Node16 -->
<g id="node4" class="node"><title>Node16</title>
<g id="a_node4"><a xlink:href="../../db/de0/Autodetect_8hpp.html" target="_top" xlink:title="src/modules/wiegand\l/strategies/Autodetect.hpp">
<polygon fill="white" stroke="black" points="127,-84 127,-114 258,-114 258,-84 127,-84"/>
<text text-anchor="start" x="135" y="-102" font-family="Helvetica,sans-Serif" font-size="10.00">src/modules/wiegand</text>
<text text-anchor="middle" x="192.5" y="-91" font-family="Helvetica,sans-Serif" font-size="10.00">/strategies/Autodetect.hpp</text>
</a>
</g>
</g>
<!-- Node15&#45;&gt;Node16 -->
<g id="edge3" class="edge"><title>Node15&#45;&gt;Node16</title>
<path fill="none" stroke="midnightblue" d="M309.463,-157.349C282.179,-143.971 245.994,-126.229 221.137,-114.041"/>
<polygon fill="midnightblue" stroke="midnightblue" points="308.189,-160.623 318.709,-161.883 311.271,-154.338 308.189,-160.623"/>
</g>
<!-- Node19 -->
<g id="node7" class="node"><title>Node19</title>
<g id="a_node7"><a xlink:href="../../db/da6/WiegandCardAndPin_8hpp.html" target="_top" xlink:title="src/modules/wiegand\l/strategies/WiegandCardAnd\lPin.hpp">
<polygon fill="white" stroke="black" points="276.5,-78.5 276.5,-119.5 418.5,-119.5 418.5,-78.5 276.5,-78.5"/>
<text text-anchor="start" x="284.5" y="-107.5" font-family="Helvetica,sans-Serif" font-size="10.00">src/modules/wiegand</text>
<text text-anchor="start" x="284.5" y="-96.5" font-family="Helvetica,sans-Serif" font-size="10.00">/strategies/WiegandCardAnd</text>
<text text-anchor="middle" x="347.5" y="-85.5" font-family="Helvetica,sans-Serif" font-size="10.00">Pin.hpp</text>
</a>
</g>
</g>
<!-- Node15&#45;&gt;Node19 -->
<g id="edge6" class="edge"><title>Node15&#45;&gt;Node19</title>
<path fill="none" stroke="midnightblue" d="M341.153,-151.656C340.517,-141.326 340.634,-129.443 341.502,-119.68"/>
<polygon fill="midnightblue" stroke="midnightblue" points="337.677,-152.072 342.089,-161.705 344.647,-151.424 337.677,-152.072"/>
</g>
<!-- Node17 -->
<g id="node5" class="node"><title>Node17</title>
<g id="a_node5"><a xlink:href="../../d3/d15/Autodetect_8cpp.html" target="_top" xlink:title="src/modules/wiegand\l/strategies/Autodetect.cpp">
<polygon fill="white" stroke="black" points="127,-6 127,-36 258,-36 258,-6 127,-6"/>
<text text-anchor="start" x="135" y="-24" font-family="Helvetica,sans-Serif" font-size="10.00">src/modules/wiegand</text>
<text text-anchor="middle" x="192.5" y="-13" font-family="Helvetica,sans-Serif" font-size="10.00">/strategies/Autodetect.cpp</text>
</a>
</g>
</g>
<!-- Node16&#45;&gt;Node17 -->
<g id="edge4" class="edge"><title>Node16&#45;&gt;Node17</title>
<path fill="none" stroke="midnightblue" d="M192.5,-73.5898C192.5,-61.2565 192.5,-46.7237 192.5,-36.2309"/>
<polygon fill="midnightblue" stroke="midnightblue" points="189,-73.7049 192.5,-83.705 196,-73.705 189,-73.7049"/>
</g>
<!-- Node18 -->
<g id="node6" class="node"><title>Node18</title>
<g id="a_node6"><a xlink:href="../../d3/de8/wiegand_8cpp.html" target="_top" xlink:title="src/modules/wiegand\l/wiegand.cpp">
<polygon fill="white" stroke="black" points="0,-6 0,-36 109,-36 109,-6 0,-6"/>
<text text-anchor="start" x="8" y="-24" font-family="Helvetica,sans-Serif" font-size="10.00">src/modules/wiegand</text>
<text text-anchor="middle" x="54.5" y="-13" font-family="Helvetica,sans-Serif" font-size="10.00">/wiegand.cpp</text>
</a>
</g>
</g>
<!-- Node16&#45;&gt;Node18 -->
<g id="edge5" class="edge"><title>Node16&#45;&gt;Node18</title>
<path fill="none" stroke="midnightblue" d="M157.996,-78.9979C133.781,-65.6619 101.934,-48.123 79.9961,-36.0413"/>
<polygon fill="midnightblue" stroke="midnightblue" points="156.419,-82.1248 166.867,-83.8831 159.796,-75.9932 156.419,-82.1248"/>
</g>
<!-- Node19&#45;&gt;Node15 -->
<g id="edge7" class="edge"><title>Node19&#45;&gt;Node15</title>
<path fill="none" stroke="midnightblue" d="M354.108,-129.787C354.493,-140.769 354.095,-152.712 352.911,-161.705"/>
<polygon fill="midnightblue" stroke="midnightblue" points="357.594,-129.451 353.498,-119.68 350.607,-129.873 357.594,-129.451"/>
</g>
<!-- Node20 -->
<g id="node8" class="node"><title>Node20</title>
<g id="a_node8"><a xlink:href="../../d5/d4a/WiegandCardAndPin_8cpp.html" target="_top" xlink:title="src/modules/wiegand\l/strategies/WiegandCardAnd\lPin.cpp">
<polygon fill="white" stroke="black" points="276.5,-0.5 276.5,-41.5 418.5,-41.5 418.5,-0.5 276.5,-0.5"/>
<text text-anchor="start" x="284.5" y="-29.5" font-family="Helvetica,sans-Serif" font-size="10.00">src/modules/wiegand</text>
<text text-anchor="start" x="284.5" y="-18.5" font-family="Helvetica,sans-Serif" font-size="10.00">/strategies/WiegandCardAnd</text>
<text text-anchor="middle" x="347.5" y="-7.5" font-family="Helvetica,sans-Serif" font-size="10.00">Pin.cpp</text>
</a>
</g>
</g>
<!-- Node19&#45;&gt;Node20 -->
<g id="edge8" class="edge"><title>Node19&#45;&gt;Node20</title>
<path fill="none" stroke="midnightblue" d="M347.5,-68.2965C347.5,-59.3009 347.5,-49.6532 347.5,-41.5056"/>
<polygon fill="midnightblue" stroke="midnightblue" points="344,-68.4281 347.5,-78.4281 351,-68.4281 344,-68.4281"/>
</g>
<!-- Node22&#45;&gt;Node15 -->
<g id="edge11" class="edge"><title>Node22&#45;&gt;Node15</title>
<path fill="none" stroke="midnightblue" d="M413.716,-228.324C397.856,-216.27 379.555,-202.362 366.218,-192.225"/>
<polygon fill="midnightblue" stroke="midnightblue" points="411.668,-231.164 421.748,-234.428 415.904,-225.591 411.668,-231.164"/>
</g>
<!-- Node23 -->
<g id="node11" class="node"><title>Node23</title>
<g id="a_node11"><a xlink:href="../../dc/d9a/WiegandPinNBitsOnly_8cpp.html" target="_top" xlink:title="src/modules/wiegand\l/strategies/WiegandPinNBits\lOnly.cpp">
<polygon fill="white" stroke="black" points="430,-156.5 430,-197.5 573,-197.5 573,-156.5 430,-156.5"/>
<text text-anchor="start" x="438" y="-185.5" font-family="Helvetica,sans-Serif" font-size="10.00">src/modules/wiegand</text>
<text text-anchor="start" x="438" y="-174.5" font-family="Helvetica,sans-Serif" font-size="10.00">/strategies/WiegandPinNBits</text>
<text text-anchor="middle" x="501.5" y="-163.5" font-family="Helvetica,sans-Serif" font-size="10.00">Only.cpp</text>
</a>
</g>
</g>
<!-- Node22&#45;&gt;Node23 -->
<g id="edge12" class="edge"><title>Node22&#45;&gt;Node23</title>
<path fill="none" stroke="midnightblue" d="M467.361,-226.048C474.098,-216.566 481.474,-206.185 487.641,-197.506"/>
<polygon fill="midnightblue" stroke="midnightblue" points="464.345,-224.249 461.406,-234.428 470.052,-228.304 464.345,-224.249"/>
</g>
</g>
</svg>
