<?xml version="1.0" encoding="UTF-8" standalone="no"?>
<!DOCTYPE svg PUBLIC "-//W3C//DTD SVG 1.1//EN"
 "http://www.w3.org/Graphics/SVG/1.1/DTD/svg11.dtd">
<!-- Generated by graphviz version 2.38.0 (20140413.2041)
 -->
<!-- Title: src/core/credentials/serializers/PolymorphicCredentialSerializer.hpp Pages: 1 -->
<!--zoomable 341 -->
<svg id="main" version="1.1" xmlns="http://www.w3.org/2000/svg" xmlns:xlink="http://www.w3.org/1999/xlink" xml:space="preserve" onload="init(evt)">
<style type="text/css"><![CDATA[
.edge:hover path { stroke: red; }
.edge:hover polygon { stroke: red; fill: red; }
]]></style>
<script type="text/javascript"><![CDATA[
var edges = document.getElementsByTagName('g');
if (edges && edges.length) {
  for (var i=0;i<edges.length;i++) {
    if (edges[i].id.substr(0,4)=='edge') {
      edges[i].setAttribute('class','edge');
    }
  }
}
]]></script>
        <defs>
                <circle id="rim" cx="0" cy="0" r="7"/>
                <circle id="rim2" cx="0" cy="0" r="3.5"/>
                <g id="zoomPlus">
                        <use xlink:href="#rim" fill="#404040">
                                <set attributeName="fill" to="#808080" begin="zoomplus.mouseover" end="zoomplus.mouseout"/>
                        </use>
                        <path d="M-4,0h8M0,-4v8" fill="none" stroke="white" stroke-width="1.5" pointer-events="none"/>
                </g>
                <g id="zoomMin">
                        <use xlink:href="#rim" fill="#404040">
                                <set attributeName="fill" to="#808080" begin="zoomminus.mouseover" end="zoomminus.mouseout"/>
                        </use>
                        <path d="M-4,0h8" fill="none" stroke="white" stroke-width="1.5" pointer-events="none"/>
                </g>
                <g id="dirArrow">
                        <path fill="none" stroke="white" stroke-width="1.5" d="M0,-3.0v7 M-2.5,-0.5L0,-3.0L2.5,-0.5"/>
                </g>
               <g id="resetDef">
                       <use xlink:href="#rim2" fill="#404040">
                               <set attributeName="fill" to="#808080" begin="reset.mouseover" end="reset.mouseout"/>
                       </use>
               </g>
        </defs>

<script type="text/javascript">
var viewWidth = 844;
var viewHeight = 341;
var sectionId = 'dynsection-0';
</script>
<script xlink:href="../../svgpan.js"/>
<svg id="graph" class="graph">
<g id="viewport">
<title>src/core/credentials/serializers/PolymorphicCredentialSerializer.hpp</title>
<polygon fill="white" stroke="none" points="-4,4 -4,-337 839.5,-337 839.5,4 -4,4"/>
<!-- Node0 -->
<g id="node1" class="node"><title>Node0</title>
<polygon fill="#bfbfbf" stroke="black" points="612.5,-291.5 612.5,-332.5 777.5,-332.5 777.5,-291.5 612.5,-291.5"/>
<text text-anchor="start" x="620.5" y="-320.5" font-family="Helvetica,sans-Serif" font-size="10.00">src/core/credentials</text>
<text text-anchor="start" x="620.5" y="-309.5" font-family="Helvetica,sans-Serif" font-size="10.00">/serializers/PolymorphicCredential</text>
<text text-anchor="middle" x="695" y="-298.5" font-family="Helvetica,sans-Serif" font-size="10.00">Serializer.hpp</text>
</g>
<!-- Node1 -->
<g id="node2" class="node"><title>Node1</title>
<g id="a_node2"><a xlink:href="../../dc/d49/LeosacFwd_8hpp.html" target="_top" xlink:title="LeosacFwd.hpp">
<polygon fill="white" stroke="black" points="0,-235.5 0,-254.5 86,-254.5 86,-235.5 0,-235.5"/>
<text text-anchor="middle" x="43" y="-242.5" font-family="Helvetica,sans-Serif" font-size="10.00">LeosacFwd.hpp</text>
</a>
</g>
</g>
<!-- Node0&#45;&gt;Node1 -->
<g id="edge1" class="edge"><title>Node0&#45;&gt;Node1</title>
<path fill="none" stroke="midnightblue" d="M612.424,-302.768C476.683,-289.235 210.125,-262.661 96.4315,-251.327"/>
<polygon fill="midnightblue" stroke="midnightblue" points="96.5369,-247.82 86.239,-250.311 95.8424,-254.785 96.5369,-247.82"/>
</g>
<!-- Node4 -->
<g id="node5" class="node"><title>Node4</title>
<g id="a_node5"><a xlink:href="../../dc/dd6/IRFIDCard_8hpp.html" target="_top" xlink:title="core/credentials/IRFIDCard.hpp">
<polygon fill="white" stroke="black" points="284.5,-235.5 284.5,-254.5 439.5,-254.5 439.5,-235.5 284.5,-235.5"/>
<text text-anchor="middle" x="362" y="-242.5" font-family="Helvetica,sans-Serif" font-size="10.00">core/credentials/IRFIDCard.hpp</text>
</a>
</g>
</g>
<!-- Node0&#45;&gt;Node4 -->
<g id="edge4" class="edge"><title>Node0&#45;&gt;Node4</title>
<path fill="none" stroke="midnightblue" d="M612.258,-294.849C550.732,-282.839 468.573,-266.803 415.471,-256.437"/>
<polygon fill="midnightblue" stroke="midnightblue" points="416.065,-252.987 405.579,-254.506 414.724,-259.858 416.065,-252.987"/>
</g>
<!-- Node11 -->
<g id="node12" class="node"><title>Node11</title>
<g id="a_node12"><a xlink:href="../../d2/d91/Visitor_8hpp.html" target="_top" xlink:title="tools/Visitor.hpp">
<polygon fill="white" stroke="black" points="651.5,-56.5 651.5,-75.5 738.5,-75.5 738.5,-56.5 651.5,-56.5"/>
<text text-anchor="middle" x="695" y="-63.5" font-family="Helvetica,sans-Serif" font-size="10.00">tools/Visitor.hpp</text>
</a>
</g>
</g>
<!-- Node0&#45;&gt;Node11 -->
<g id="edge22" class="edge"><title>Node0&#45;&gt;Node11</title>
<path fill="none" stroke="midnightblue" d="M695,-291.445C695,-245.463 695,-130.962 695,-85.771"/>
<polygon fill="midnightblue" stroke="midnightblue" points="698.5,-85.6359 695,-75.6359 691.5,-85.6359 698.5,-85.6359"/>
</g>
<!-- Node15 -->
<g id="node16" class="node"><title>Node15</title>
<polygon fill="white" stroke="#bfbfbf" points="723.5,-235.5 723.5,-254.5 776.5,-254.5 776.5,-235.5 723.5,-235.5"/>
<text text-anchor="middle" x="750" y="-242.5" font-family="Helvetica,sans-Serif" font-size="10.00">json.hpp</text>
</g>
<!-- Node0&#45;&gt;Node15 -->
<g id="edge23" class="edge"><title>Node0&#45;&gt;Node15</title>
<path fill="none" stroke="midnightblue" d="M711.502,-291.498C719.367,-282.203 728.669,-271.21 736.159,-262.358"/>
<polygon fill="midnightblue" stroke="midnightblue" points="738.891,-264.547 742.679,-254.652 733.547,-260.026 738.891,-264.547"/>
</g>
<!-- Node16 -->
<g id="node17" class="node"><title>Node16</title>
<polygon fill="white" stroke="#bfbfbf" points="794.5,-235.5 794.5,-254.5 835.5,-254.5 835.5,-235.5 794.5,-235.5"/>
<text text-anchor="middle" x="815" y="-242.5" font-family="Helvetica,sans-Serif" font-size="10.00">string</text>
</g>
<!-- Node0&#45;&gt;Node16 -->
<g id="edge24" class="edge"><title>Node0&#45;&gt;Node16</title>
<path fill="none" stroke="midnightblue" d="M731.004,-291.498C750.11,-281.149 773.102,-268.695 790.198,-259.435"/>
<polygon fill="midnightblue" stroke="midnightblue" points="791.9,-262.493 799.026,-254.652 788.566,-256.338 791.9,-262.493"/>
</g>
<!-- Node2 -->
<g id="node3" class="node"><title>Node2</title>
<polygon fill="white" stroke="#bfbfbf" points="152,-56.5 152,-75.5 204,-75.5 204,-56.5 152,-56.5"/>
<text text-anchor="middle" x="178" y="-63.5" font-family="Helvetica,sans-Serif" font-size="10.00">memory</text>
</g>
<!-- Node1&#45;&gt;Node2 -->
<g id="edge2" class="edge"><title>Node1&#45;&gt;Node2</title>
<path fill="none" stroke="midnightblue" d="M33.7483,-235.301C21.7976,-222.954 3.48365,-199.56 12,-179 34.6629,-124.287 100.665,-92.797 142.295,-77.8496"/>
<polygon fill="midnightblue" stroke="midnightblue" points="143.491,-81.1397 151.803,-74.5702 141.208,-74.5223 143.491,-81.1397"/>
</g>
<!-- Node3 -->
<g id="node4" class="node"><title>Node3</title>
<polygon fill="white" stroke="#bfbfbf" points="21,-179.5 21,-198.5 65,-198.5 65,-179.5 21,-179.5"/>
<text text-anchor="middle" x="43" y="-186.5" font-family="Helvetica,sans-Serif" font-size="10.00">vector</text>
</g>
<!-- Node1&#45;&gt;Node3 -->
<g id="edge3" class="edge"><title>Node1&#45;&gt;Node3</title>
<path fill="none" stroke="midnightblue" d="M43,-235.083C43,-228.006 43,-217.861 43,-208.986"/>
<polygon fill="midnightblue" stroke="midnightblue" points="46.5001,-208.751 43,-198.751 39.5001,-208.751 46.5001,-208.751"/>
</g>
<!-- Node4&#45;&gt;Node2 -->
<g id="edge21" class="edge"><title>Node4&#45;&gt;Node2</title>
<path fill="none" stroke="midnightblue" d="M304.974,-235.476C252.288,-224.246 176.913,-198.899 141,-143 128.436,-123.444 145.583,-98.9941 160.485,-83.192"/>
<polygon fill="midnightblue" stroke="midnightblue" points="163.298,-85.3297 167.904,-75.7885 158.353,-80.3747 163.298,-85.3297"/>
</g>
<!-- Node5 -->
<g id="node6" class="node"><title>Node5</title>
<g id="a_node6"><a xlink:href="../../d0/db0/ICredential_8hpp.html" target="_top" xlink:title="core/credentials/ICredential.hpp">
<polygon fill="white" stroke="black" points="284.5,-179.5 284.5,-198.5 439.5,-198.5 439.5,-179.5 284.5,-179.5"/>
<text text-anchor="middle" x="362" y="-186.5" font-family="Helvetica,sans-Serif" font-size="10.00">core/credentials/ICredential.hpp</text>
</a>
</g>
</g>
<!-- Node4&#45;&gt;Node5 -->
<g id="edge5" class="edge"><title>Node4&#45;&gt;Node5</title>
<path fill="none" stroke="midnightblue" d="M362,-235.083C362,-228.006 362,-217.861 362,-208.986"/>
<polygon fill="midnightblue" stroke="midnightblue" points="365.5,-208.751 362,-198.751 358.5,-208.751 365.5,-208.751"/>
</g>
<!-- Node5&#45;&gt;Node2 -->
<g id="edge20" class="edge"><title>Node5&#45;&gt;Node2</title>
<path fill="none" stroke="midnightblue" d="M284.445,-181.656C231.098,-175.496 166.933,-163.905 150,-143 135.831,-125.507 150.334,-100.171 163.189,-83.6424"/>
<polygon fill="midnightblue" stroke="midnightblue" points="165.924,-85.8267 169.601,-75.8901 160.53,-81.3653 165.924,-85.8267"/>
</g>
<!-- Node6 -->
<g id="node7" class="node"><title>Node6</title>
<g id="a_node7"><a xlink:href="../../d3/d6f/AuthFwd_8hpp.html" target="_top" xlink:title="core/auth/AuthFwd.hpp">
<polygon fill="white" stroke="black" points="431,-118 431,-137 549,-137 549,-118 431,-118"/>
<text text-anchor="middle" x="490" y="-125" font-family="Helvetica,sans-Serif" font-size="10.00">core/auth/AuthFwd.hpp</text>
</a>
</g>
</g>
<!-- Node5&#45;&gt;Node6 -->
<g id="edge6" class="edge"><title>Node5&#45;&gt;Node6</title>
<path fill="none" stroke="midnightblue" d="M380.339,-179.475C401.821,-169.49 437.622,-152.848 462.448,-141.307"/>
<polygon fill="midnightblue" stroke="midnightblue" points="464.102,-144.398 471.695,-137.009 461.151,-138.051 464.102,-144.398"/>
</g>
<!-- Node9 -->
<g id="node10" class="node"><title>Node9</title>
<g id="a_node10"><a xlink:href="../../d7/d7f/CredentialFwd_8hpp.html" target="_top" xlink:title="core/credentials/Credential\lFwd.hpp">
<polygon fill="white" stroke="black" points="159.5,-112.5 159.5,-142.5 292.5,-142.5 292.5,-112.5 159.5,-112.5"/>
<text text-anchor="start" x="167.5" y="-130.5" font-family="Helvetica,sans-Serif" font-size="10.00">core/credentials/Credential</text>
<text text-anchor="middle" x="226" y="-119.5" font-family="Helvetica,sans-Serif" font-size="10.00">Fwd.hpp</text>
</a>
</g>
</g>
<!-- Node5&#45;&gt;Node9 -->
<g id="edge10" class="edge"><title>Node5&#45;&gt;Node9</title>
<path fill="none" stroke="midnightblue" d="M342.515,-179.475C322.976,-170.927 292.288,-157.501 267.311,-146.573"/>
<polygon fill="midnightblue" stroke="midnightblue" points="268.617,-143.325 258.053,-142.523 265.811,-149.738 268.617,-143.325"/>
</g>
<!-- Node10 -->
<g id="node11" class="node"><title>Node10</title>
<g id="a_node11"><a xlink:href="../../dd/d9d/IVisitable_8hpp.html" target="_top" xlink:title="tools/IVisitable.hpp">
<polygon fill="white" stroke="black" points="567,-118 567,-137 667,-137 667,-118 567,-118"/>
<text text-anchor="middle" x="617" y="-125" font-family="Helvetica,sans-Serif" font-size="10.00">tools/IVisitable.hpp</text>
</a>
</g>
</g>
<!-- Node5&#45;&gt;Node10 -->
<g id="edge13" class="edge"><title>Node5&#45;&gt;Node10</title>
<path fill="none" stroke="midnightblue" d="M399.981,-179.461C439.496,-170.535 503.143,-156.037 558,-143 562.753,-141.87 567.717,-140.675 572.66,-139.475"/>
<polygon fill="midnightblue" stroke="midnightblue" points="573.819,-142.795 582.703,-137.023 572.159,-135.994 573.819,-142.795"/>
</g>
<!-- Node14 -->
<g id="node15" class="node"><title>Node14</title>
<g id="a_node15"><a xlink:href="../../d8/d97/ToolsFwd_8hpp.html" target="_top" xlink:title="tools/ToolsFwd.hpp">
<polygon fill="white" stroke="black" points="311,-118 311,-137 413,-137 413,-118 311,-118"/>
<text text-anchor="middle" x="362" y="-125" font-family="Helvetica,sans-Serif" font-size="10.00">tools/ToolsFwd.hpp</text>
</a>
</g>
</g>
<!-- Node5&#45;&gt;Node14 -->
<g id="edge17" class="edge"><title>Node5&#45;&gt;Node14</title>
<path fill="none" stroke="midnightblue" d="M362,-179.475C362,-171.08 362,-157.981 362,-147.163"/>
<polygon fill="midnightblue" stroke="midnightblue" points="365.5,-147.009 362,-137.009 358.5,-147.009 365.5,-147.009"/>
</g>
<!-- Node6&#45;&gt;Node2 -->
<g id="edge8" class="edge"><title>Node6&#45;&gt;Node2</title>
<path fill="none" stroke="midnightblue" d="M450.844,-117.957C441.409,-115.952 431.353,-113.859 422,-112 348.353,-97.3597 261.87,-81.7927 214.178,-73.3491"/>
<polygon fill="midnightblue" stroke="midnightblue" points="214.502,-69.8521 204.045,-71.559 213.284,-76.7454 214.502,-69.8521"/>
</g>
<!-- Node7 -->
<g id="node8" class="node"><title>Node7</title>
<polygon fill="white" stroke="#bfbfbf" points="465.5,-56.5 465.5,-75.5 514.5,-75.5 514.5,-56.5 465.5,-56.5"/>
<text text-anchor="middle" x="490" y="-63.5" font-family="Helvetica,sans-Serif" font-size="10.00">cstddef</text>
</g>
<!-- Node6&#45;&gt;Node7 -->
<g id="edge7" class="edge"><title>Node6&#45;&gt;Node7</title>
<path fill="none" stroke="midnightblue" d="M490,-117.975C490,-109.58 490,-96.4806 490,-85.6631"/>
<polygon fill="midnightblue" stroke="midnightblue" points="493.5,-85.5091 490,-75.5091 486.5,-85.5091 493.5,-85.5091"/>
</g>
<!-- Node8 -->
<g id="node9" class="node"><title>Node8</title>
<polygon fill="white" stroke="#bfbfbf" points="319,-56.5 319,-75.5 405,-75.5 405,-56.5 319,-56.5"/>
<text text-anchor="middle" x="362" y="-63.5" font-family="Helvetica,sans-Serif" font-size="10.00">odb/lazy&#45;ptr.hxx</text>
</g>
<!-- Node6&#45;&gt;Node8 -->
<g id="edge9" class="edge"><title>Node6&#45;&gt;Node8</title>
<path fill="none" stroke="midnightblue" d="M471.661,-117.975C450.179,-107.99 414.378,-91.3476 389.552,-79.8075"/>
<polygon fill="midnightblue" stroke="midnightblue" points="390.849,-76.5506 380.305,-75.5091 387.898,-82.8983 390.849,-76.5506"/>
</g>
<!-- Node9&#45;&gt;Node2 -->
<g id="edge11" class="edge"><title>Node9&#45;&gt;Node2</title>
<path fill="none" stroke="midnightblue" d="M214.625,-112.399C207.65,-103.753 198.686,-92.642 191.372,-83.576"/>
<polygon fill="midnightblue" stroke="midnightblue" points="193.987,-81.2433 184.984,-75.6578 188.539,-85.6385 193.987,-81.2433"/>
</g>
<!-- Node9&#45;&gt;Node8 -->
<g id="edge12" class="edge"><title>Node9&#45;&gt;Node8</title>
<path fill="none" stroke="midnightblue" d="M258.23,-112.399C280.845,-102.505 310.838,-89.3832 332.761,-79.7919"/>
<polygon fill="midnightblue" stroke="midnightblue" points="334.452,-82.8726 342.211,-75.6578 331.646,-76.4595 334.452,-82.8726"/>
</g>
<!-- Node10&#45;&gt;Node11 -->
<g id="edge14" class="edge"><title>Node10&#45;&gt;Node11</title>
<path fill="none" stroke="midnightblue" d="M628.175,-117.975C640.571,-108.52 660.79,-93.0961 675.746,-81.6871"/>
<polygon fill="midnightblue" stroke="midnightblue" points="678.017,-84.357 683.845,-75.5091 673.772,-78.7914 678.017,-84.357"/>
</g>
<!-- Node13 -->
<g id="node14" class="node"><title>Node13</title>
<polygon fill="white" stroke="#bfbfbf" points="584.5,-56.5 584.5,-75.5 633.5,-75.5 633.5,-56.5 584.5,-56.5"/>
<text text-anchor="middle" x="609" y="-63.5" font-family="Helvetica,sans-Serif" font-size="10.00">cassert</text>
</g>
<!-- Node10&#45;&gt;Node13 -->
<g id="edge16" class="edge"><title>Node10&#45;&gt;Node13</title>
<path fill="none" stroke="midnightblue" d="M615.854,-117.975C614.725,-109.58 612.964,-96.4806 611.509,-85.6631"/>
<polygon fill="midnightblue" stroke="midnightblue" points="614.945,-84.9535 610.144,-75.5091 608.008,-85.8863 614.945,-84.9535"/>
</g>
<!-- Node12 -->
<g id="node13" class="node"><title>Node12</title>
<polygon fill="white" stroke="#bfbfbf" points="664,-0.5 664,-19.5 726,-19.5 726,-0.5 664,-0.5"/>
<text text-anchor="middle" x="695" y="-7.5" font-family="Helvetica,sans-Serif" font-size="10.00">type_traits</text>
</g>
<!-- Node11&#45;&gt;Node12 -->
<g id="edge15" class="edge"><title>Node11&#45;&gt;Node12</title>
<path fill="none" stroke="midnightblue" d="M695,-56.083C695,-49.0059 695,-38.8611 695,-29.9865"/>
<polygon fill="midnightblue" stroke="midnightblue" points="698.5,-29.751 695,-19.7511 691.5,-29.7511 698.5,-29.751"/>
</g>
<!-- Node14&#45;&gt;Node2 -->
<g id="edge18" class="edge"><title>Node14&#45;&gt;Node2</title>
<path fill="none" stroke="midnightblue" d="M335.637,-117.975C303.574,-107.607 249.317,-90.0617 213.573,-78.5033"/>
<polygon fill="midnightblue" stroke="midnightblue" points="214.608,-75.1596 204.017,-75.413 212.455,-81.8201 214.608,-75.1596"/>
</g>
<!-- Node14&#45;&gt;Node8 -->
<g id="edge19" class="edge"><title>Node14&#45;&gt;Node8</title>
<path fill="none" stroke="midnightblue" d="M362,-117.975C362,-109.58 362,-96.4806 362,-85.6631"/>
<polygon fill="midnightblue" stroke="midnightblue" points="365.5,-85.5091 362,-75.5091 358.5,-85.5091 365.5,-85.5091"/>
</g>
</g>
</svg>
        <g id="navigator" transform="translate(0 0)" fill="#404254">
                <rect fill="#f2f5e9" fill-opacity="0.5" stroke="#606060" stroke-width=".5" x="0" y="0" width="60" height="60"/>
                <use id="zoomplus" xlink:href="#zoomPlus" x="17" y="9" onmousedown="handleZoom(evt,'in')"/>
                <use id="zoomminus" xlink:href="#zoomMin" x="42" y="9" onmousedown="handleZoom(evt,'out')"/>
                <use id="reset" xlink:href="#resetDef" x="30" y="36" onmousedown="handleReset()"/>
                <g id="arrowUp" xlink:href="#dirArrow" transform="translate(30 24)" onmousedown="handlePan(0,-1)">
                  <use xlink:href="#rim" fill="#404040">
                        <set attributeName="fill" to="#808080" begin="arrowUp.mouseover" end="arrowUp.mouseout"/>
                  </use>
                  <path fill="none" stroke="white" stroke-width="1.5" d="M0,-3.0v7 M-2.5,-0.5L0,-3.0L2.5,-0.5"/>
                </g>
                <g id="arrowRight" xlink:href="#dirArrow" transform="rotate(90) translate(36 -43)" onmousedown="handlePan(1,0)">
                  <use xlink:href="#rim" fill="#404040">
                        <set attributeName="fill" to="#808080" begin="arrowRight.mouseover" end="arrowRight.mouseout"/>
                  </use>
                  <path fill="none" stroke="white" stroke-width="1.5" d="M0,-3.0v7 M-2.5,-0.5L0,-3.0L2.5,-0.5"/>
                </g>
                <g id="arrowDown" xlink:href="#dirArrow" transform="rotate(180) translate(-30 -48)" onmousedown="handlePan(0,1)">
                  <use xlink:href="#rim" fill="#404040">
                        <set attributeName="fill" to="#808080" begin="arrowDown.mouseover" end="arrowDown.mouseout"/>
                  </use>
                  <path fill="none" stroke="white" stroke-width="1.5" d="M0,-3.0v7 M-2.5,-0.5L0,-3.0L2.5,-0.5"/>
                </g>
                <g id="arrowLeft" xlink:href="#dirArrow" transform="rotate(270) translate(-36 17)" onmousedown="handlePan(-1,0)">
                  <use xlink:href="#rim" fill="#404040">
                        <set attributeName="fill" to="#808080" begin="arrowLeft.mouseover" end="arrowLeft.mouseout"/>
                  </use>
                  <path fill="none" stroke="white" stroke-width="1.5" d="M0,-3.0v7 M-2.5,-0.5L0,-3.0L2.5,-0.5"/>
                </g>
        </g>
        <svg viewBox="0 0 15 15" width="100%" height="30px" preserveAspectRatio="xMaxYMin meet">
         <g id="arrow_out" transform="scale(0.3 0.3)">
          <a xlink:href="PolymorphicCredentialSerializer_8hpp__incl_org.svg" target="_base">
           <rect id="button" ry="5" rx="5" y="6" x="6" height="38" width="38"
                fill="#f2f5e9" fill-opacity="0.5" stroke="#606060" stroke-width="1.0"/>
           <path id="arrow"
             d="M 11.500037,31.436501 C 11.940474,20.09759 22.043105,11.32322 32.158766,21.979434 L 37.068811,17.246167 C 37.068811,17.246167 37.088388,32 37.088388,32 L 22.160133,31.978069 C 22.160133,31.978069 26.997745,27.140456 26.997745,27.140456 C 18.528582,18.264221 13.291696,25.230495 11.500037,31.436501 z"
             style="fill:#404040;"/>
          </a>
         </g>
        </svg>
</svg>
