<?xml version="1.0" encoding="UTF-8" standalone="no"?>
<!DOCTYPE svg PUBLIC "-//W3C//DTD SVG 1.1//EN"
 "http://www.w3.org/Graphics/SVG/1.1/DTD/svg11.dtd">
<!-- Generated by graphviz version 2.38.0 (20140413.2041)
 -->
<!-- Title: Leosac::Audit::UserGroupMembershipEvent Pages: 1 -->
<!--zoomable 216 -->
<svg id="main" version="1.1" xmlns="http://www.w3.org/2000/svg" xmlns:xlink="http://www.w3.org/1999/xlink" xml:space="preserve" onload="init(evt)">
<style type="text/css"><![CDATA[
.edge:hover path { stroke: red; }
.edge:hover polygon { stroke: red; fill: red; }
]]></style>
<script type="text/javascript"><![CDATA[
var edges = document.getElementsByTagName('g');
if (edges && edges.length) {
  for (var i=0;i<edges.length;i++) {
    if (edges[i].id.substr(0,4)=='edge') {
      edges[i].setAttribute('class','edge');
    }
  }
}
]]></script>
        <defs>
                <circle id="rim" cx="0" cy="0" r="7"/>
                <circle id="rim2" cx="0" cy="0" r="3.5"/>
                <g id="zoomPlus">
                        <use xlink:href="#rim" fill="#404040">
                                <set attributeName="fill" to="#808080" begin="zoomplus.mouseover" end="zoomplus.mouseout"/>
                        </use>
                        <path d="M-4,0h8M0,-4v8" fill="none" stroke="white" stroke-width="1.5" pointer-events="none"/>
                </g>
                <g id="zoomMin">
                        <use xlink:href="#rim" fill="#404040">
                                <set attributeName="fill" to="#808080" begin="zoomminus.mouseover" end="zoomminus.mouseout"/>
                        </use>
                        <path d="M-4,0h8" fill="none" stroke="white" stroke-width="1.5" pointer-events="none"/>
                </g>
                <g id="dirArrow">
                        <path fill="none" stroke="white" stroke-width="1.5" d="M0,-3.0v7 M-2.5,-0.5L0,-3.0L2.5,-0.5"/>
                </g>
               <g id="resetDef">
                       <use xlink:href="#rim2" fill="#404040">
                               <set attributeName="fill" to="#808080" begin="reset.mouseover" end="reset.mouseout"/>
                       </use>
               </g>
        </defs>

<script type="text/javascript">
var viewWidth = 735;
var viewHeight = 216;
var sectionId = 'dynsection-1';
</script>
<script xlink:href="../../svgpan.js"/>
<svg id="graph" class="graph">
<g id="viewport">
<title>Leosac::Audit::UserGroupMembershipEvent</title>
<polygon fill="white" stroke="none" points="-4,4 -4,-212 731,-212 731,4 -4,4"/>
<!-- Node6 -->
<g id="node1" class="node"><title>Node6</title>
<polygon fill="#bfbfbf" stroke="black" points="592,-27.5 592,-57.5 722,-57.5 722,-27.5 592,-27.5"/>
<text text-anchor="start" x="600" y="-45.5" font-family="Helvetica,sans-Serif" font-size="10.00">Leosac::Audit::UserGroup</text>
<text text-anchor="middle" x="657" y="-34.5" font-family="Helvetica,sans-Serif" font-size="10.00">MembershipEvent</text>
</g>
<!-- Node7 -->
<g id="node2" class="node"><title>Node7</title>
<g id="a_node2"><a xlink:href="../../d3/d84/classLeosac_1_1Audit_1_1IUserGroupMembershipEvent.html" target="_top" xlink:title="Interface to audit object that take care of tracking user/group membership change. ">
<polygon fill="white" stroke="black" points="382,-0.5 382,-30.5 515,-30.5 515,-0.5 382,-0.5"/>
<text text-anchor="start" x="390" y="-18.5" font-family="Helvetica,sans-Serif" font-size="10.00">Leosac::Audit::IUserGroup</text>
<text text-anchor="middle" x="448.5" y="-7.5" font-family="Helvetica,sans-Serif" font-size="10.00">MembershipEvent</text>
</a>
</g>
</g>
<!-- Node7&#45;&gt;Node6 -->
<g id="edge1" class="edge"><title>Node7&#45;&gt;Node6</title>
<path fill="none" stroke="midnightblue" d="M525.067,-25.3805C547.025,-28.2514 570.785,-31.3581 591.962,-34.1269"/>
<polygon fill="midnightblue" stroke="midnightblue" points="525.491,-21.9062 515.122,-24.0801 524.583,-28.8471 525.491,-21.9062"/>
</g>
<!-- Node8 -->
<g id="node3" class="node"><title>Node8</title>
<g id="a_node3"><a xlink:href="../../d1/d44/classLeosac_1_1Audit_1_1IAuditEntry.html" target="_top" xlink:title="Base interface to Audit object. ">
<polygon fill="white" stroke="black" points="167,-5 167,-24 298,-24 298,-5 167,-5"/>
<text text-anchor="middle" x="232.5" y="-12" font-family="Helvetica,sans-Serif" font-size="10.00">Leosac::Audit::IAuditEntry</text>
</a>
</g>
</g>
<!-- Node8&#45;&gt;Node7 -->
<g id="edge2" class="edge"><title>Node8&#45;&gt;Node7</title>
<path fill="none" stroke="midnightblue" d="M308.382,-14.8499C332.311,-14.9617 358.602,-15.0846 381.824,-15.1931"/>
<polygon fill="midnightblue" stroke="midnightblue" points="308.304,-11.3496 298.288,-14.8027 308.271,-18.3495 308.304,-11.3496"/>
</g>
<!-- Node10 -->
<g id="node5" class="node"><title>Node10</title>
<g id="a_node5"><a xlink:href="../../d0/d20/classLeosac_1_1Audit_1_1AuditEntry.html" target="_top" xlink:title="Implementation of IAuditEntry, backed by ODB. ">
<polygon fill="white" stroke="black" points="384.5,-78 384.5,-97 512.5,-97 512.5,-78 384.5,-78"/>
<text text-anchor="middle" x="448.5" y="-85" font-family="Helvetica,sans-Serif" font-size="10.00">Leosac::Audit::AuditEntry</text>
</a>
</g>
</g>
<!-- Node8&#45;&gt;Node10 -->
<g id="edge5" class="edge"><title>Node8&#45;&gt;Node10</title>
<path fill="none" stroke="midnightblue" d="M271.158,-27.346C313.58,-41.8169 381.544,-65.0009 419.516,-77.9542"/>
<polygon fill="midnightblue" stroke="midnightblue" points="272.071,-23.9595 261.477,-24.0435 269.811,-30.5847 272.071,-23.9595"/>
</g>
<!-- Node9 -->
<g id="node4" class="node"><title>Node9</title>
<g id="a_node4"><a xlink:href="../../d0/d33/classLeosac_1_1Tools_1_1IVisitable.html" target="_top" xlink:title="Base class to make an object visitable. ">
<polygon fill="white" stroke="black" points="0,-5 0,-24 125,-24 125,-5 0,-5"/>
<text text-anchor="middle" x="62.5" y="-12" font-family="Helvetica,sans-Serif" font-size="10.00">Leosac::Tools::IVisitable</text>
</a>
</g>
</g>
<!-- Node9&#45;&gt;Node8 -->
<g id="edge3" class="edge"><title>Node9&#45;&gt;Node8</title>
<path fill="none" stroke="midnightblue" d="M135.421,-14.5C145.847,-14.5 156.527,-14.5 166.8,-14.5"/>
<polygon fill="midnightblue" stroke="midnightblue" points="135.103,-11.0001 125.103,-14.5 135.103,-18.0001 135.103,-11.0001"/>
</g>
<!-- Node10&#45;&gt;Node6 -->
<g id="edge4" class="edge"><title>Node10&#45;&gt;Node6</title>
<path fill="none" stroke="midnightblue" d="M503.365,-75.7619C530.459,-69.8577 563.488,-62.6601 591.882,-56.4724"/>
<polygon fill="midnightblue" stroke="midnightblue" points="502.319,-72.4076 493.293,-77.9567 503.809,-79.2471 502.319,-72.4076"/>
</g>
<!-- Node14 -->
<g id="node9" class="node"><title>Node14</title>
<polygon fill="white" stroke="#bfbfbf" points="587,-87 587,-106 727,-106 727,-87 587,-87"/>
<text text-anchor="middle" x="657" y="-94" font-family="Helvetica,sans-Serif" font-size="10.00">std::weak_ptr&lt; AuditEntry &gt;</text>
</g>
<!-- Node10&#45;&gt;Node14 -->
<g id="edge10" class="edge"><title>Node10&#45;&gt;Node14</title>
<path fill="none" stroke="#9a32cd" stroke-dasharray="5,2" d="M523.037,-86.5706C526.405,-86.5434 529.738,-86.5195 533,-86.5 549,-86.4042 553.026,-85.585 569,-86.5 574.768,-86.8304 580.74,-87.2831 586.73,-87.8144"/>
<polygon fill="#9a32cd" stroke="#9a32cd" points="522.84,-83.0721 512.871,-86.6614 522.902,-90.0718 522.84,-83.0721"/>
<text text-anchor="middle" x="551" y="-89.5" font-family="Helvetica,sans-Serif" font-size="10.00"> ptr</text>
</g>
<!-- Node11 -->
<g id="node6" class="node"><title>Node11</title>
<polygon fill="white" stroke="#bfbfbf" points="169.5,-177.5 169.5,-207.5 295.5,-207.5 295.5,-177.5 169.5,-177.5"/>
<text text-anchor="start" x="177.5" y="-195.5" font-family="Helvetica,sans-Serif" font-size="10.00">std::enable_shared</text>
<text text-anchor="middle" x="232.5" y="-184.5" font-family="Helvetica,sans-Serif" font-size="10.00">_from_this&lt; AuditEntry &gt;</text>
</g>
<!-- Node11&#45;&gt;Node10 -->
<g id="edge6" class="edge"><title>Node11&#45;&gt;Node10</title>
<path fill="none" stroke="midnightblue" d="M286.184,-173.911C291.877,-171.795 297.571,-169.631 303,-167.5 330.433,-156.73 337.976,-155.33 364,-141.5 389.916,-127.727 418.234,-108.433 434.336,-97.0249"/>
<polygon fill="midnightblue" stroke="midnightblue" points="284.829,-170.68 276.651,-177.415 287.244,-177.25 284.829,-170.68"/>
</g>
<!-- Node12 -->
<g id="node7" class="node"><title>Node12</title>
<polygon fill="white" stroke="#bfbfbf" points="162.5,-139 162.5,-158 302.5,-158 302.5,-139 162.5,-139"/>
<text text-anchor="middle" x="232.5" y="-146" font-family="Helvetica,sans-Serif" font-size="10.00">std::vector&lt; AuditEntryPtr &gt;</text>
</g>
<!-- Node12&#45;&gt;Node10 -->
<g id="edge7" class="edge"><title>Node12&#45;&gt;Node10</title>
<path fill="none" stroke="#9a32cd" stroke-dasharray="5,2" d="M280.638,-136.342C305.501,-129.807 336.475,-121.473 364,-113.5 381.938,-108.304 401.914,-102.099 417.83,-97.054"/>
<polygon fill="#9a32cd" stroke="#9a32cd" points="279.522,-133.016 270.735,-138.935 281.295,-139.788 279.522,-133.016"/>
<text text-anchor="middle" x="342.5" y="-129.5" font-family="Helvetica,sans-Serif" font-size="10.00"> children_</text>
</g>
<!-- Node13 -->
<g id="node8" class="node"><title>Node13</title>
<g id="a_node8"><a xlink:href="../../dd/d95/classLeosac_1_1Tools_1_1ElapsedTimeCounter.html" target="_top" xlink:title="This class provide a simple to get the elapsed time since it&#39;s creation. ">
<polygon fill="white" stroke="black" points="162,-89.5 162,-119.5 303,-119.5 303,-89.5 162,-89.5"/>
<text text-anchor="start" x="170" y="-107.5" font-family="Helvetica,sans-Serif" font-size="10.00">Leosac::Tools::ElapsedTime</text>
<text text-anchor="middle" x="232.5" y="-96.5" font-family="Helvetica,sans-Serif" font-size="10.00">Counter</text>
</a>
</g>
</g>
<!-- Node13&#45;&gt;Node10 -->
<g id="edge8" class="edge"><title>Node13&#45;&gt;Node10</title>
<path fill="none" stroke="#9a32cd" stroke-dasharray="5,2" d="M313.522,-98.1431C336.911,-96.2851 362.139,-94.281 384.327,-92.5184"/>
<polygon fill="#9a32cd" stroke="#9a32cd" points="312.967,-94.6761 303.275,-98.9571 313.521,-101.654 312.967,-94.6761"/>
<text text-anchor="middle" x="342.5" y="-101.5" font-family="Helvetica,sans-Serif" font-size="10.00"> etc_</text>
</g>
<!-- Node14&#45;&gt;Node10 -->
<g id="edge9" class="edge"><title>Node14&#45;&gt;Node10</title>
<path fill="none" stroke="#9a32cd" stroke-dasharray="5,2" d="M576.961,-100.662C562.333,-100.798 547.195,-100.515 533,-99.5 524.965,-98.9256 516.529,-98.0442 508.234,-97.0141"/>
<polygon fill="#9a32cd" stroke="#9a32cd" points="577.045,-104.161 586.988,-100.505 576.935,-97.1622 577.045,-104.161"/>
<text text-anchor="middle" x="551" y="-104.5" font-family="Helvetica,sans-Serif" font-size="10.00"> parent_</text>
</g>
<!-- Node15 -->
<g id="node10" class="node"><title>Node15</title>
<g id="a_node10"><a xlink:title="STL class. ">
<polygon fill="white" stroke="#bfbfbf" points="202.5,-51 202.5,-70 262.5,-70 262.5,-51 202.5,-51"/>
<text text-anchor="middle" x="232.5" y="-58" font-family="Helvetica,sans-Serif" font-size="10.00">std::string</text>
</a>
</g>
</g>
<!-- Node15&#45;&gt;Node10 -->
<g id="edge11" class="edge"><title>Node15&#45;&gt;Node10</title>
<path fill="none" stroke="#9a32cd" stroke-dasharray="5,2" d="M272.853,-65.4651C304.033,-69.399 348.205,-74.9722 384.324,-79.5292"/>
<polygon fill="#9a32cd" stroke="#9a32cd" points="273.167,-61.977 262.807,-64.1976 272.29,-68.9219 273.167,-61.977"/>
<text text-anchor="middle" x="342.5" y="-79.5" font-family="Helvetica,sans-Serif" font-size="10.00"> msg_</text>
</g>
<!-- Node16 -->
<g id="node11" class="node"><title>Node16</title>
<g id="a_node11"><a xlink:title="STL class. ">
<polygon fill="white" stroke="#bfbfbf" points="15,-45.5 15,-75.5 110,-75.5 110,-45.5 15,-45.5"/>
<text text-anchor="start" x="23" y="-63.5" font-family="Helvetica,sans-Serif" font-size="10.00">std::basic_string&lt;</text>
<text text-anchor="middle" x="62.5" y="-52.5" font-family="Helvetica,sans-Serif" font-size="10.00"> char &gt;</text>
</a>
</g>
</g>
<!-- Node16&#45;&gt;Node15 -->
<g id="edge12" class="edge"><title>Node16&#45;&gt;Node15</title>
<path fill="none" stroke="midnightblue" d="M120.595,-60.5C148.087,-60.5 179.879,-60.5 202.357,-60.5"/>
<polygon fill="midnightblue" stroke="midnightblue" points="120.297,-57.0001 110.297,-60.5 120.297,-64.0001 120.297,-57.0001"/>
</g>
</g>
</svg>
        <g id="navigator" transform="translate(0 0)" fill="#404254">
                <rect fill="#f2f5e9" fill-opacity="0.5" stroke="#606060" stroke-width=".5" x="0" y="0" width="60" height="60"/>
                <use id="zoomplus" xlink:href="#zoomPlus" x="17" y="9" onmousedown="handleZoom(evt,'in')"/>
                <use id="zoomminus" xlink:href="#zoomMin" x="42" y="9" onmousedown="handleZoom(evt,'out')"/>
                <use id="reset" xlink:href="#resetDef" x="30" y="36" onmousedown="handleReset()"/>
                <g id="arrowUp" xlink:href="#dirArrow" transform="translate(30 24)" onmousedown="handlePan(0,-1)">
                  <use xlink:href="#rim" fill="#404040">
                        <set attributeName="fill" to="#808080" begin="arrowUp.mouseover" end="arrowUp.mouseout"/>
                  </use>
                  <path fill="none" stroke="white" stroke-width="1.5" d="M0,-3.0v7 M-2.5,-0.5L0,-3.0L2.5,-0.5"/>
                </g>
                <g id="arrowRight" xlink:href="#dirArrow" transform="rotate(90) translate(36 -43)" onmousedown="handlePan(1,0)">
                  <use xlink:href="#rim" fill="#404040">
                        <set attributeName="fill" to="#808080" begin="arrowRight.mouseover" end="arrowRight.mouseout"/>
                  </use>
                  <path fill="none" stroke="white" stroke-width="1.5" d="M0,-3.0v7 M-2.5,-0.5L0,-3.0L2.5,-0.5"/>
                </g>
                <g id="arrowDown" xlink:href="#dirArrow" transform="rotate(180) translate(-30 -48)" onmousedown="handlePan(0,1)">
                  <use xlink:href="#rim" fill="#404040">
                        <set attributeName="fill" to="#808080" begin="arrowDown.mouseover" end="arrowDown.mouseout"/>
                  </use>
                  <path fill="none" stroke="white" stroke-width="1.5" d="M0,-3.0v7 M-2.5,-0.5L0,-3.0L2.5,-0.5"/>
                </g>
                <g id="arrowLeft" xlink:href="#dirArrow" transform="rotate(270) translate(-36 17)" onmousedown="handlePan(-1,0)">
                  <use xlink:href="#rim" fill="#404040">
                        <set attributeName="fill" to="#808080" begin="arrowLeft.mouseover" end="arrowLeft.mouseout"/>
                  </use>
                  <path fill="none" stroke="white" stroke-width="1.5" d="M0,-3.0v7 M-2.5,-0.5L0,-3.0L2.5,-0.5"/>
                </g>
        </g>
        <svg viewBox="0 0 15 15" width="100%" height="30px" preserveAspectRatio="xMaxYMin meet">
         <g id="arrow_out" transform="scale(0.3 0.3)">
          <a xlink:href="classLeosac_1_1Audit_1_1UserGroupMembershipEvent__coll__graph_org.svg" target="_base">
           <rect id="button" ry="5" rx="5" y="6" x="6" height="38" width="38"
                fill="#f2f5e9" fill-opacity="0.5" stroke="#606060" stroke-width="1.0"/>
           <path id="arrow"
             d="M 11.500037,31.436501 C 11.940474,20.09759 22.043105,11.32322 32.158766,21.979434 L 37.068811,17.246167 C 37.068811,17.246167 37.088388,32 37.088388,32 L 22.160133,31.978069 C 22.160133,31.978069 26.997745,27.140456 26.997745,27.140456 C 18.528582,18.264221 13.291696,25.230495 11.500037,31.436501 z"
             style="fill:#404040;"/>
          </a>
         </g>
        </svg>
</svg>
