<?xml version="1.0" encoding="UTF-8" standalone="no"?>
<!DOCTYPE svg PUBLIC "-//W3C//DTD SVG 1.1//EN"
 "http://www.w3.org/Graphics/SVG/1.1/DTD/svg11.dtd">
<!-- Generated by graphviz version 2.38.0 (20140413.2041)
 -->
<!-- Title: src/core/APIStatusCode.hpp Pages: 1 -->
<!--zoomable 296 -->
<svg id="main" version="1.1" xmlns="http://www.w3.org/2000/svg" xmlns:xlink="http://www.w3.org/1999/xlink" xml:space="preserve" onload="init(evt)">
<style type="text/css"><![CDATA[
.edge:hover path { stroke: red; }
.edge:hover polygon { stroke: red; fill: red; }
]]></style>
<script type="text/javascript"><![CDATA[
var edges = document.getElementsByTagName('g');
if (edges && edges.length) {
  for (var i=0;i<edges.length;i++) {
    if (edges[i].id.substr(0,4)=='edge') {
      edges[i].setAttribute('class','edge');
    }
  }
}
]]></script>
        <defs>
                <circle id="rim" cx="0" cy="0" r="7"/>
                <circle id="rim2" cx="0" cy="0" r="3.5"/>
                <g id="zoomPlus">
                        <use xlink:href="#rim" fill="#404040">
                                <set attributeName="fill" to="#808080" begin="zoomplus.mouseover" end="zoomplus.mouseout"/>
                        </use>
                        <path d="M-4,0h8M0,-4v8" fill="none" stroke="white" stroke-width="1.5" pointer-events="none"/>
                </g>
                <g id="zoomMin">
                        <use xlink:href="#rim" fill="#404040">
                                <set attributeName="fill" to="#808080" begin="zoomminus.mouseover" end="zoomminus.mouseout"/>
                        </use>
                        <path d="M-4,0h8" fill="none" stroke="white" stroke-width="1.5" pointer-events="none"/>
                </g>
                <g id="dirArrow">
                        <path fill="none" stroke="white" stroke-width="1.5" d="M0,-3.0v7 M-2.5,-0.5L0,-3.0L2.5,-0.5"/>
                </g>
               <g id="resetDef">
                       <use xlink:href="#rim2" fill="#404040">
                               <set attributeName="fill" to="#808080" begin="reset.mouseover" end="reset.mouseout"/>
                       </use>
               </g>
        </defs>

<script type="text/javascript">
var viewWidth = 2388;
var viewHeight = 296;
var sectionId = 'dynsection-0';
</script>
<script xlink:href="../../svgpan.js"/>
<svg id="graph" class="graph">
<g id="viewport">
<title>src/core/APIStatusCode.hpp</title>
<polygon fill="white" stroke="none" points="-4,4 -4,-292 2384,-292 2384,4 -4,4"/>
<!-- Node1 -->
<g id="node1" class="node"><title>Node1</title>
<polygon fill="#bfbfbf" stroke="black" points="639,-268.5 639,-287.5 781,-287.5 781,-268.5 639,-268.5"/>
<text text-anchor="middle" x="710" y="-275.5" font-family="Helvetica,sans-Serif" font-size="10.00">src/core/APIStatusCode.hpp</text>
</g>
<!-- Node2 -->
<g id="node2" class="node"><title>Node2</title>
<g id="a_node2"><a xlink:href="../../dd/dd8/IWSAPICall_8hpp.html" target="_top" xlink:title="src/core/audit/IWSAPICall.hpp">
<polygon fill="white" stroke="black" points="284.5,-140 284.5,-159 435.5,-159 435.5,-140 284.5,-140"/>
<text text-anchor="middle" x="360" y="-147" font-family="Helvetica,sans-Serif" font-size="10.00">src/core/audit/IWSAPICall.hpp</text>
</a>
</g>
</g>
<!-- Node1&#45;&gt;Node2 -->
<g id="edge1" class="edge"><title>Node1&#45;&gt;Node2</title>
<path fill="none" stroke="midnightblue" d="M676.532,-264.904C606.236,-239.497 444.709,-181.116 383.814,-159.107"/>
<polygon fill="midnightblue" stroke="midnightblue" points="675.624,-268.297 686.218,-268.405 678.003,-261.714 675.624,-268.297"/>
</g>
<!-- Node10 -->
<g id="node10" class="node"><title>Node10</title>
<g id="a_node10"><a xlink:href="../../d5/d0f/Messages_8hpp.html" target="_top" xlink:title="src/modules/websock\l&#45;api/Messages.hpp">
<polygon fill="white" stroke="black" points="654,-201.5 654,-231.5 766,-231.5 766,-201.5 654,-201.5"/>
<text text-anchor="start" x="662" y="-219.5" font-family="Helvetica,sans-Serif" font-size="10.00">src/modules/websock</text>
<text text-anchor="middle" x="710" y="-208.5" font-family="Helvetica,sans-Serif" font-size="10.00">&#45;api/Messages.hpp</text>
</a>
</g>
</g>
<!-- Node1&#45;&gt;Node10 -->
<g id="edge9" class="edge"><title>Node1&#45;&gt;Node10</title>
<path fill="none" stroke="midnightblue" d="M710,-258.235C710,-249.586 710,-239.497 710,-231.523"/>
<polygon fill="midnightblue" stroke="midnightblue" points="706.5,-258.475 710,-268.475 713.5,-258.475 706.5,-258.475"/>
</g>
<!-- Node14 -->
<g id="node14" class="node"><title>Node14</title>
<g id="a_node14"><a xlink:href="../../d5/dde/WSServer_8hpp.html" target="_top" xlink:title="src/modules/websock\l&#45;api/WSServer.hpp">
<polygon fill="white" stroke="black" points="1405,-134.5 1405,-164.5 1517,-164.5 1517,-134.5 1405,-134.5"/>
<text text-anchor="start" x="1413" y="-152.5" font-family="Helvetica,sans-Serif" font-size="10.00">src/modules/websock</text>
<text text-anchor="middle" x="1461" y="-141.5" font-family="Helvetica,sans-Serif" font-size="10.00">&#45;api/WSServer.hpp</text>
</a>
</g>
</g>
<!-- Node1&#45;&gt;Node14 -->
<g id="edge31" class="edge"><title>Node1&#45;&gt;Node14</title>
<path fill="none" stroke="midnightblue" d="M770.611,-266.791C912.947,-242.815 1266.92,-183.192 1404.78,-159.969"/>
<polygon fill="midnightblue" stroke="midnightblue" points="770.014,-263.342 760.735,-268.454 771.177,-270.244 770.014,-263.342"/>
</g>
<!-- Node3 -->
<g id="node3" class="node"><title>Node3</title>
<g id="a_node3"><a xlink:href="../../d9/db8/Audit_8hpp.html" target="_top" xlink:title="src/core/audit/Audit.hpp">
<polygon fill="white" stroke="black" points="0,-73 0,-92 120,-92 120,-73 0,-73"/>
<text text-anchor="middle" x="60" y="-80" font-family="Helvetica,sans-Serif" font-size="10.00">src/core/audit/Audit.hpp</text>
</a>
</g>
</g>
<!-- Node2&#45;&gt;Node3 -->
<g id="edge2" class="edge"><title>Node2&#45;&gt;Node3</title>
<path fill="none" stroke="midnightblue" d="M310.629,-137.803C251.593,-125.012 153.959,-103.858 99.6158,-92.0834"/>
<polygon fill="midnightblue" stroke="midnightblue" points="309.957,-141.239 320.472,-139.936 311.44,-134.397 309.957,-141.239"/>
</g>
<!-- Node4 -->
<g id="node4" class="node"><title>Node4</title>
<g id="a_node4"><a xlink:href="../../d1/d4d/WSAPICallSerializer_8cpp.html" target="_top" xlink:title="src/core/audit/serializers\l/WSAPICallSerializer.cpp">
<polygon fill="white" stroke="black" points="138.5,-67.5 138.5,-97.5 267.5,-97.5 267.5,-67.5 138.5,-67.5"/>
<text text-anchor="start" x="146.5" y="-85.5" font-family="Helvetica,sans-Serif" font-size="10.00">src/core/audit/serializers</text>
<text text-anchor="middle" x="203" y="-74.5" font-family="Helvetica,sans-Serif" font-size="10.00">/WSAPICallSerializer.cpp</text>
</a>
</g>
</g>
<!-- Node2&#45;&gt;Node4 -->
<g id="edge3" class="edge"><title>Node2&#45;&gt;Node4</title>
<path fill="none" stroke="midnightblue" d="M329.597,-135.913C303.012,-124.906 264.452,-108.942 236.883,-97.5281"/>
<polygon fill="midnightblue" stroke="midnightblue" points="328.573,-139.277 339.152,-139.869 331.251,-132.809 328.573,-139.277"/>
</g>
<!-- Node5 -->
<g id="node5" class="node"><title>Node5</title>
<g id="a_node5"><a xlink:href="../../de/d34/WSAPICall_8hpp.html" target="_top" xlink:title="src/core/audit/WSAPICall.hpp">
<polygon fill="white" stroke="black" points="286,-73 286,-92 434,-92 434,-73 286,-73"/>
<text text-anchor="middle" x="360" y="-80" font-family="Helvetica,sans-Serif" font-size="10.00">src/core/audit/WSAPICall.hpp</text>
</a>
</g>
</g>
<!-- Node2&#45;&gt;Node5 -->
<g id="edge4" class="edge"><title>Node2&#45;&gt;Node5</title>
<path fill="none" stroke="midnightblue" d="M360,-129.537C360,-117.17 360,-101.62 360,-92.1273"/>
<polygon fill="midnightblue" stroke="midnightblue" points="356.5,-129.734 360,-139.734 363.5,-129.734 356.5,-129.734"/>
</g>
<!-- Node9 -->
<g id="node9" class="node"><title>Node9</title>
<g id="a_node9"><a xlink:href="../../da/d6f/SMTPModule_8cpp.html" target="_top" xlink:title="src/modules/smtp/SMTPModule.cpp">
<polygon fill="white" stroke="black" points="452,-73 452,-92 628,-92 628,-73 452,-73"/>
<text text-anchor="middle" x="540" y="-80" font-family="Helvetica,sans-Serif" font-size="10.00">src/modules/smtp/SMTPModule.cpp</text>
</a>
</g>
</g>
<!-- Node2&#45;&gt;Node9 -->
<g id="edge8" class="edge"><title>Node2&#45;&gt;Node9</title>
<path fill="none" stroke="midnightblue" d="M393.407,-136.436C429.115,-123.542 484.825,-103.424 516.285,-92.0637"/>
<polygon fill="midnightblue" stroke="midnightblue" points="392.119,-133.18 383.903,-139.869 394.497,-139.764 392.119,-133.18"/>
</g>
<!-- Node6 -->
<g id="node6" class="node"><title>Node6</title>
<g id="a_node6"><a xlink:href="../../d4/dbe/AuditFactory_8cpp.html" target="_top" xlink:title="src/core/audit/AuditFactory.cpp">
<polygon fill="white" stroke="black" points="188.5,-6 188.5,-25 341.5,-25 341.5,-6 188.5,-6"/>
<text text-anchor="middle" x="265" y="-13" font-family="Helvetica,sans-Serif" font-size="10.00">src/core/audit/AuditFactory.cpp</text>
</a>
</g>
</g>
<!-- Node5&#45;&gt;Node6 -->
<g id="edge5" class="edge"><title>Node5&#45;&gt;Node6</title>
<path fill="none" stroke="midnightblue" d="M338.69,-66.9196C319.909,-54.0695 293.182,-35.7821 277.609,-25.1273"/>
<polygon fill="midnightblue" stroke="midnightblue" points="336.958,-69.9755 347.188,-72.7338 340.911,-64.1983 336.958,-69.9755"/>
</g>
<!-- Node7 -->
<g id="node7" class="node"><title>Node7</title>
<g id="a_node7"><a xlink:href="../../d2/de5/WSAPICall_8cpp.html" target="_top" xlink:title="src/core/audit/WSAPICall.cpp">
<polygon fill="white" stroke="black" points="360,-6 360,-25 508,-25 508,-6 360,-6"/>
<text text-anchor="middle" x="434" y="-13" font-family="Helvetica,sans-Serif" font-size="10.00">src/core/audit/WSAPICall.cpp</text>
</a>
</g>
</g>
<!-- Node5&#45;&gt;Node7 -->
<g id="edge6" class="edge"><title>Node5&#45;&gt;Node7</title>
<path fill="none" stroke="midnightblue" d="M377.81,-65.8564C392.358,-53.0777 412.379,-35.4915 424.178,-25.1273"/>
<polygon fill="midnightblue" stroke="midnightblue" points="375.183,-63.5047 369.98,-72.7338 379.803,-68.764 375.183,-63.5047"/>
</g>
<!-- Node8 -->
<g id="node8" class="node"><title>Node8</title>
<g id="a_node8"><a xlink:href="../../d4/d2c/WSServer_8cpp.html" target="_top" xlink:title="src/modules/websock\l&#45;api/WSServer.cpp">
<polygon fill="white" stroke="black" points="698,-0.5 698,-30.5 810,-30.5 810,-0.5 698,-0.5"/>
<text text-anchor="start" x="706" y="-18.5" font-family="Helvetica,sans-Serif" font-size="10.00">src/modules/websock</text>
<text text-anchor="middle" x="754" y="-7.5" font-family="Helvetica,sans-Serif" font-size="10.00">&#45;api/WSServer.cpp</text>
</a>
</g>
</g>
<!-- Node5&#45;&gt;Node8 -->
<g id="edge7" class="edge"><title>Node5&#45;&gt;Node8</title>
<path fill="none" stroke="midnightblue" d="M418.277,-71.2282C426.573,-69.7925 435.001,-68.3481 443,-67 532,-52.0005 635.469,-35.3576 697.784,-25.4208"/>
<polygon fill="midnightblue" stroke="midnightblue" points="417.515,-67.8082 408.261,-72.9682 418.713,-74.7049 417.515,-67.8082"/>
</g>
<!-- Node11 -->
<g id="node11" class="node"><title>Node11</title>
<g id="a_node11"><a xlink:href="../../d6/d95/PFDigitalModule_8cpp.html" target="_top" xlink:title="src/modules/pifacedigital\l/PFDigitalModule.cpp">
<polygon fill="white" stroke="black" points="496.5,-134.5 496.5,-164.5 621.5,-164.5 621.5,-134.5 496.5,-134.5"/>
<text text-anchor="start" x="504.5" y="-152.5" font-family="Helvetica,sans-Serif" font-size="10.00">src/modules/pifacedigital</text>
<text text-anchor="middle" x="559" y="-141.5" font-family="Helvetica,sans-Serif" font-size="10.00">/PFDigitalModule.cpp</text>
</a>
</g>
</g>
<!-- Node10&#45;&gt;Node11 -->
<g id="edge10" class="edge"><title>Node10&#45;&gt;Node11</title>
<path fill="none" stroke="midnightblue" d="M667.968,-197.407C643.861,-187.029 614.046,-174.195 591.701,-164.577"/>
<polygon fill="midnightblue" stroke="midnightblue" points="666.666,-200.657 677.235,-201.396 669.434,-194.227 666.666,-200.657"/>
</g>
<!-- Node12 -->
<g id="node12" class="node"><title>Node12</title>
<g id="a_node12"><a xlink:href="../../d7/d6d/ExceptionConverter_8hpp.html" target="_top" xlink:title="src/modules/websock\l&#45;api/ExceptionConverter.hpp">
<polygon fill="white" stroke="black" points="640,-134.5 640,-164.5 780,-164.5 780,-134.5 640,-134.5"/>
<text text-anchor="start" x="648" y="-152.5" font-family="Helvetica,sans-Serif" font-size="10.00">src/modules/websock</text>
<text text-anchor="middle" x="710" y="-141.5" font-family="Helvetica,sans-Serif" font-size="10.00">&#45;api/ExceptionConverter.hpp</text>
</a>
</g>
</g>
<!-- Node10&#45;&gt;Node12 -->
<g id="edge11" class="edge"><title>Node10&#45;&gt;Node12</title>
<path fill="none" stroke="midnightblue" d="M710,-191.108C710,-182.154 710,-172.323 710,-164.577"/>
<polygon fill="midnightblue" stroke="midnightblue" points="706.5,-191.396 710,-201.396 713.5,-191.396 706.5,-191.396"/>
</g>
<!-- Node10&#45;&gt;Node14 -->
<g id="edge15" class="edge"><title>Node10&#45;&gt;Node14</title>
<path fill="none" stroke="midnightblue" d="M776.291,-209.762C922.178,-197.136 1268.85,-167.131 1404.86,-155.359"/>
<polygon fill="midnightblue" stroke="midnightblue" points="775.801,-206.292 766.14,-210.641 776.405,-213.266 775.801,-206.292"/>
</g>
<!-- Node12&#45;&gt;Node8 -->
<g id="edge14" class="edge"><title>Node12&#45;&gt;Node8</title>
<path fill="none" stroke="midnightblue" d="M689.397,-126.192C676.594,-109.501 664.419,-86.3225 675,-67 683.991,-50.5809 700.847,-38.7226 716.686,-30.6408"/>
<polygon fill="midnightblue" stroke="midnightblue" points="686.981,-128.765 696.031,-134.273 692.391,-124.323 686.981,-128.765"/>
</g>
<!-- Node12&#45;&gt;Node9 -->
<g id="edge12" class="edge"><title>Node12&#45;&gt;Node9</title>
<path fill="none" stroke="midnightblue" d="M663.665,-130.784C630.703,-118.181 587.883,-101.808 562.249,-92.007"/>
<polygon fill="midnightblue" stroke="midnightblue" points="662.522,-134.094 673.113,-134.396 665.022,-127.555 662.522,-134.094"/>
</g>
<!-- Node13 -->
<g id="node13" class="node"><title>Node13</title>
<g id="a_node13"><a xlink:href="../../d7/d0b/ExceptionConverter_8cpp.html" target="_top" xlink:title="src/modules/websock\l&#45;api/ExceptionConverter.cpp">
<polygon fill="white" stroke="black" points="684,-67.5 684,-97.5 824,-97.5 824,-67.5 684,-67.5"/>
<text text-anchor="start" x="692" y="-85.5" font-family="Helvetica,sans-Serif" font-size="10.00">src/modules/websock</text>
<text text-anchor="middle" x="754" y="-74.5" font-family="Helvetica,sans-Serif" font-size="10.00">&#45;api/ExceptionConverter.cpp</text>
</a>
</g>
</g>
<!-- Node12&#45;&gt;Node13 -->
<g id="edge13" class="edge"><title>Node12&#45;&gt;Node13</title>
<path fill="none" stroke="midnightblue" d="M725.321,-125.867C731.689,-116.459 738.882,-105.833 744.471,-97.5765"/>
<polygon fill="midnightblue" stroke="midnightblue" points="722.255,-124.153 719.547,-134.396 728.051,-128.077 722.255,-124.153"/>
</g>
<!-- Node14&#45;&gt;Node8 -->
<g id="edge30" class="edge"><title>Node14&#45;&gt;Node8</title>
<path fill="none" stroke="midnightblue" d="M1394.64,-147.716C1261.04,-145.345 964.447,-135.849 871,-98 850.798,-89.8176 850.656,-79.7798 833,-67 814.935,-53.924 793.58,-40.3806 777.63,-30.615"/>
<polygon fill="midnightblue" stroke="midnightblue" points="1394.68,-151.217 1404.74,-147.887 1394.8,-144.218 1394.68,-151.217"/>
</g>
<!-- Node15 -->
<g id="node15" class="node"><title>Node15</title>
<g id="a_node15"><a xlink:href="../../d7/d29/AccessPointCRUD_8cpp.html" target="_top" xlink:title="src/modules/websock\l&#45;api/api/AccessPointCRUD.cpp">
<polygon fill="white" stroke="black" points="880.5,-67.5 880.5,-97.5 1035.5,-97.5 1035.5,-67.5 880.5,-67.5"/>
<text text-anchor="start" x="888.5" y="-85.5" font-family="Helvetica,sans-Serif" font-size="10.00">src/modules/websock</text>
<text text-anchor="middle" x="958" y="-74.5" font-family="Helvetica,sans-Serif" font-size="10.00">&#45;api/api/AccessPointCRUD.cpp</text>
</a>
</g>
</g>
<!-- Node14&#45;&gt;Node15 -->
<g id="edge16" class="edge"><title>Node14&#45;&gt;Node15</title>
<path fill="none" stroke="midnightblue" d="M1394.76,-141.376C1312.57,-132.326 1168.22,-115.738 1045,-98 1041.97,-97.5636 1038.88,-97.1069 1035.76,-96.6358"/>
<polygon fill="midnightblue" stroke="midnightblue" points="1394.39,-144.856 1404.71,-142.468 1395.15,-137.898 1394.39,-144.856"/>
</g>
<!-- Node16 -->
<g id="node16" class="node"><title>Node16</title>
<g id="a_node16"><a xlink:href="../../d7/d86/APIAuth_8cpp.html" target="_top" xlink:title="src/modules/websock\l&#45;api/api/APIAuth.cpp">
<polygon fill="white" stroke="black" points="1054,-67.5 1054,-97.5 1166,-97.5 1166,-67.5 1054,-67.5"/>
<text text-anchor="start" x="1062" y="-85.5" font-family="Helvetica,sans-Serif" font-size="10.00">src/modules/websock</text>
<text text-anchor="middle" x="1110" y="-74.5" font-family="Helvetica,sans-Serif" font-size="10.00">&#45;api/api/APIAuth.cpp</text>
</a>
</g>
</g>
<!-- Node14&#45;&gt;Node16 -->
<g id="edge17" class="edge"><title>Node14&#45;&gt;Node16</title>
<path fill="none" stroke="midnightblue" d="M1394.82,-137.677C1336.75,-127.975 1250.1,-112.998 1175,-98 1172.17,-97.4339 1169.26,-96.84 1166.34,-96.2293"/>
<polygon fill="midnightblue" stroke="midnightblue" points="1394.52,-141.176 1404.96,-139.367 1395.67,-134.271 1394.52,-141.176"/>
</g>
<!-- Node17 -->
<g id="node17" class="node"><title>Node17</title>
<g id="a_node17"><a xlink:href="../../d9/d8d/APISession_8cpp.html" target="_top" xlink:title="src/modules/websock\l&#45;api/api/APISession.cpp">
<polygon fill="white" stroke="black" points="1184,-67.5 1184,-97.5 1306,-97.5 1306,-67.5 1184,-67.5"/>
<text text-anchor="start" x="1192" y="-85.5" font-family="Helvetica,sans-Serif" font-size="10.00">src/modules/websock</text>
<text text-anchor="middle" x="1245" y="-74.5" font-family="Helvetica,sans-Serif" font-size="10.00">&#45;api/api/APISession.cpp</text>
</a>
</g>
</g>
<!-- Node14&#45;&gt;Node17 -->
<g id="edge18" class="edge"><title>Node14&#45;&gt;Node17</title>
<path fill="none" stroke="midnightblue" d="M1404.77,-131.58C1369.69,-121.022 1325.06,-107.592 1291.89,-97.6109"/>
<polygon fill="midnightblue" stroke="midnightblue" points="1403.81,-134.946 1414.4,-134.476 1405.83,-128.243 1403.81,-134.946"/>
</g>
<!-- Node18 -->
<g id="node18" class="node"><title>Node18</title>
<g id="a_node18"><a xlink:href="../../da/d62/AuditGet_8cpp.html" target="_top" xlink:title="src/modules/websock\l&#45;api/api/AuditGet.cpp">
<polygon fill="white" stroke="black" points="1324,-67.5 1324,-97.5 1436,-97.5 1436,-67.5 1324,-67.5"/>
<text text-anchor="start" x="1332" y="-85.5" font-family="Helvetica,sans-Serif" font-size="10.00">src/modules/websock</text>
<text text-anchor="middle" x="1380" y="-74.5" font-family="Helvetica,sans-Serif" font-size="10.00">&#45;api/api/AuditGet.cpp</text>
</a>
</g>
</g>
<!-- Node14&#45;&gt;Node18 -->
<g id="edge19" class="edge"><title>Node14&#45;&gt;Node18</title>
<path fill="none" stroke="midnightblue" d="M1435.31,-127.883C1423,-118.005 1408.57,-106.429 1397.54,-97.5765"/>
<polygon fill="midnightblue" stroke="midnightblue" points="1433.43,-130.867 1443.42,-134.396 1437.82,-125.407 1433.43,-130.867"/>
</g>
<!-- Node19 -->
<g id="node19" class="node"><title>Node19</title>
<g id="a_node19"><a xlink:href="../../d5/dcb/CRUDResourceHandler_8cpp.html" target="_top" xlink:title="src/modules/websock\l&#45;api/api/CRUDResourceHandler.cpp">
<polygon fill="white" stroke="black" points="1454,-67.5 1454,-97.5 1630,-97.5 1630,-67.5 1454,-67.5"/>
<text text-anchor="start" x="1462" y="-85.5" font-family="Helvetica,sans-Serif" font-size="10.00">src/modules/websock</text>
<text text-anchor="middle" x="1542" y="-74.5" font-family="Helvetica,sans-Serif" font-size="10.00">&#45;api/api/CRUDResourceHandler.cpp</text>
</a>
</g>
</g>
<!-- Node14&#45;&gt;Node19 -->
<g id="edge20" class="edge"><title>Node14&#45;&gt;Node19</title>
<path fill="none" stroke="midnightblue" d="M1486.69,-127.883C1499,-118.005 1513.43,-106.429 1524.46,-97.5765"/>
<polygon fill="midnightblue" stroke="midnightblue" points="1484.18,-125.407 1478.58,-134.396 1488.57,-130.867 1484.18,-125.407"/>
</g>
<!-- Node20 -->
<g id="node20" class="node"><title>Node20</title>
<g id="a_node20"><a xlink:href="../../d9/d7c/MethodHandler_8cpp.html" target="_top" xlink:title="src/modules/websock\l&#45;api/api/MethodHandler.cpp">
<polygon fill="white" stroke="black" points="1648,-67.5 1648,-97.5 1784,-97.5 1784,-67.5 1648,-67.5"/>
<text text-anchor="start" x="1656" y="-85.5" font-family="Helvetica,sans-Serif" font-size="10.00">src/modules/websock</text>
<text text-anchor="middle" x="1716" y="-74.5" font-family="Helvetica,sans-Serif" font-size="10.00">&#45;api/api/MethodHandler.cpp</text>
</a>
</g>
</g>
<!-- Node14&#45;&gt;Node20 -->
<g id="edge21" class="edge"><title>Node14&#45;&gt;Node20</title>
<path fill="none" stroke="midnightblue" d="M1525.79,-131.984C1567.44,-121.367 1620.98,-107.72 1660.64,-97.6109"/>
<polygon fill="midnightblue" stroke="midnightblue" points="1524.84,-128.614 1516.02,-134.476 1526.57,-135.397 1524.84,-128.614"/>
</g>
<!-- Node21 -->
<g id="node21" class="node"><title>Node21</title>
<g id="a_node21"><a xlink:href="../../d7/da0/PasswordChange_8cpp.html" target="_top" xlink:title="src/modules/websock\l&#45;api/api/PasswordChange.cpp">
<polygon fill="white" stroke="black" points="1802.5,-67.5 1802.5,-97.5 1949.5,-97.5 1949.5,-67.5 1802.5,-67.5"/>
<text text-anchor="start" x="1810.5" y="-85.5" font-family="Helvetica,sans-Serif" font-size="10.00">src/modules/websock</text>
<text text-anchor="middle" x="1876" y="-74.5" font-family="Helvetica,sans-Serif" font-size="10.00">&#45;api/api/PasswordChange.cpp</text>
</a>
</g>
</g>
<!-- Node14&#45;&gt;Node21 -->
<g id="edge22" class="edge"><title>Node14&#45;&gt;Node21</title>
<path fill="none" stroke="midnightblue" d="M1527.16,-138.874C1594.22,-129.015 1700.92,-113.045 1793,-98 1796.03,-97.5047 1799.12,-96.993 1802.25,-96.4711"/>
<polygon fill="midnightblue" stroke="midnightblue" points="1526.54,-135.427 1517.16,-140.343 1527.56,-142.353 1526.54,-135.427"/>
</g>
<!-- Node22 -->
<g id="node22" class="node"><title>Node22</title>
<g id="a_node22"><a xlink:href="../../d1/d43/Restart_8cpp.html" target="_top" xlink:title="src/modules/websock\l&#45;api/api/Restart.cpp">
<polygon fill="white" stroke="black" points="1968,-67.5 1968,-97.5 2080,-97.5 2080,-67.5 1968,-67.5"/>
<text text-anchor="start" x="1976" y="-85.5" font-family="Helvetica,sans-Serif" font-size="10.00">src/modules/websock</text>
<text text-anchor="middle" x="2024" y="-74.5" font-family="Helvetica,sans-Serif" font-size="10.00">&#45;api/api/Restart.cpp</text>
</a>
</g>
</g>
<!-- Node14&#45;&gt;Node22 -->
<g id="edge23" class="edge"><title>Node14&#45;&gt;Node22</title>
<path fill="none" stroke="midnightblue" d="M1527.42,-144.277C1623.19,-137.62 1805.46,-122.821 1959,-98 1961.85,-97.5387 1964.77,-97.0292 1967.71,-96.4854"/>
<polygon fill="midnightblue" stroke="midnightblue" points="1527.03,-140.795 1517.3,-144.973 1527.51,-147.779 1527.03,-140.795"/>
</g>
<!-- Node23 -->
<g id="node23" class="node"><title>Node23</title>
<g id="a_node23"><a xlink:href="../../d9/d90/WebSockAPI_8hpp.html" target="_top" xlink:title="src/modules/websock\l&#45;api/WebSockAPI.hpp">
<polygon fill="white" stroke="black" points="2098.5,-67.5 2098.5,-97.5 2211.5,-97.5 2211.5,-67.5 2098.5,-67.5"/>
<text text-anchor="start" x="2106.5" y="-85.5" font-family="Helvetica,sans-Serif" font-size="10.00">src/modules/websock</text>
<text text-anchor="middle" x="2155" y="-74.5" font-family="Helvetica,sans-Serif" font-size="10.00">&#45;api/WebSockAPI.hpp</text>
</a>
</g>
</g>
<!-- Node14&#45;&gt;Node23 -->
<g id="edge24" class="edge"><title>Node14&#45;&gt;Node23</title>
<path fill="none" stroke="midnightblue" d="M1527.21,-146.138C1642.08,-141.381 1885.54,-128.386 2089,-98 2092.02,-97.5495 2095.1,-97.0409 2098.21,-96.4907"/>
<polygon fill="midnightblue" stroke="midnightblue" points="1527.01,-142.643 1517.16,-146.547 1527.29,-149.638 1527.01,-142.643"/>
</g>
<!-- Node25 -->
<g id="node25" class="node"><title>Node25</title>
<g id="a_node25"><a xlink:href="../../d9/d6b/WebSockAPI_8cpp.html" target="_top" xlink:title="src/modules/websock\l&#45;api/WebSockAPI.cpp">
<polygon fill="white" stroke="black" points="2183.5,-0.5 2183.5,-30.5 2296.5,-30.5 2296.5,-0.5 2183.5,-0.5"/>
<text text-anchor="start" x="2191.5" y="-18.5" font-family="Helvetica,sans-Serif" font-size="10.00">src/modules/websock</text>
<text text-anchor="middle" x="2240" y="-7.5" font-family="Helvetica,sans-Serif" font-size="10.00">&#45;api/WebSockAPI.cpp</text>
</a>
</g>
</g>
<!-- Node14&#45;&gt;Node25 -->
<g id="edge29" class="edge"><title>Node14&#45;&gt;Node25</title>
<path fill="none" stroke="midnightblue" d="M1527.2,-148.529C1702.47,-147.996 2168.75,-142.376 2221,-98 2240.49,-81.4479 2242.16,-49.1334 2241.3,-30.5533"/>
<polygon fill="midnightblue" stroke="midnightblue" points="1527.07,-145.03 1517.08,-148.555 1527.09,-152.03 1527.07,-145.03"/>
</g>
<!-- Node26 -->
<g id="node26" class="node"><title>Node26</title>
<g id="a_node26"><a xlink:href="../../d2/dc4/Service_8cpp.html" target="_top" xlink:title="src/modules/websock\l&#45;api/Service.cpp">
<polygon fill="white" stroke="black" points="2268,-67.5 2268,-97.5 2380,-97.5 2380,-67.5 2268,-67.5"/>
<text text-anchor="start" x="2276" y="-85.5" font-family="Helvetica,sans-Serif" font-size="10.00">src/modules/websock</text>
<text text-anchor="middle" x="2324" y="-74.5" font-family="Helvetica,sans-Serif" font-size="10.00">&#45;api/Service.cpp</text>
</a>
</g>
</g>
<!-- Node14&#45;&gt;Node26 -->
<g id="edge28" class="edge"><title>Node14&#45;&gt;Node26</title>
<path fill="none" stroke="midnightblue" d="M1527.32,-147.423C1663.89,-144.515 1986.18,-134.084 2254,-98 2258.55,-97.3869 2263.25,-96.6481 2267.96,-95.8327"/>
<polygon fill="midnightblue" stroke="midnightblue" points="1526.95,-143.93 1517.03,-147.636 1527.1,-150.928 1526.95,-143.93"/>
</g>
<!-- Node23&#45;&gt;Node8 -->
<g id="edge27" class="edge"><title>Node23&#45;&gt;Node8</title>
<path fill="none" stroke="midnightblue" d="M2087.97,-67.0796C1815.28,-34.2846 1027.27,-20.5397 810.01,-17.2862"/>
<polygon fill="midnightblue" stroke="midnightblue" points="2087.88,-70.5947 2098.23,-68.3541 2088.74,-63.6481 2087.88,-70.5947"/>
</g>
<!-- Node24 -->
<g id="node24" class="node"><title>Node24</title>
<g id="a_node24"><a xlink:href="../../de/d22/websock-api_2init_8cpp.html" target="_top" xlink:title="src/modules/websock\l&#45;api/init.cpp">
<polygon fill="white" stroke="black" points="2053,-0.5 2053,-30.5 2165,-30.5 2165,-0.5 2053,-0.5"/>
<text text-anchor="start" x="2061" y="-18.5" font-family="Helvetica,sans-Serif" font-size="10.00">src/modules/websock</text>
<text text-anchor="middle" x="2109" y="-7.5" font-family="Helvetica,sans-Serif" font-size="10.00">&#45;api/init.cpp</text>
</a>
</g>
</g>
<!-- Node23&#45;&gt;Node24 -->
<g id="edge25" class="edge"><title>Node23&#45;&gt;Node24</title>
<path fill="none" stroke="midnightblue" d="M2139.19,-59.1575C2132.48,-49.6788 2124.87,-38.9186 2118.96,-30.5765"/>
<polygon fill="midnightblue" stroke="midnightblue" points="2136.38,-61.2551 2145.02,-67.396 2142.1,-57.2114 2136.38,-61.2551"/>
</g>
<!-- Node23&#45;&gt;Node25 -->
<g id="edge26" class="edge"><title>Node23&#45;&gt;Node25</title>
<path fill="none" stroke="midnightblue" d="M2181.59,-61.1677C2194.59,-51.2283 2209.9,-39.5144 2221.59,-30.5765"/>
<polygon fill="midnightblue" stroke="midnightblue" points="2179.26,-58.5412 2173.44,-67.396 2183.51,-64.1017 2179.26,-58.5412"/>
</g>
</g>
</svg>
        <g id="navigator" transform="translate(0 0)" fill="#404254">
                <rect fill="#f2f5e9" fill-opacity="0.5" stroke="#606060" stroke-width=".5" x="0" y="0" width="60" height="60"/>
                <use id="zoomplus" xlink:href="#zoomPlus" x="17" y="9" onmousedown="handleZoom(evt,'in')"/>
                <use id="zoomminus" xlink:href="#zoomMin" x="42" y="9" onmousedown="handleZoom(evt,'out')"/>
                <use id="reset" xlink:href="#resetDef" x="30" y="36" onmousedown="handleReset()"/>
                <g id="arrowUp" xlink:href="#dirArrow" transform="translate(30 24)" onmousedown="handlePan(0,-1)">
                  <use xlink:href="#rim" fill="#404040">
                        <set attributeName="fill" to="#808080" begin="arrowUp.mouseover" end="arrowUp.mouseout"/>
                  </use>
                  <path fill="none" stroke="white" stroke-width="1.5" d="M0,-3.0v7 M-2.5,-0.5L0,-3.0L2.5,-0.5"/>
                </g>
                <g id="arrowRight" xlink:href="#dirArrow" transform="rotate(90) translate(36 -43)" onmousedown="handlePan(1,0)">
                  <use xlink:href="#rim" fill="#404040">
                        <set attributeName="fill" to="#808080" begin="arrowRight.mouseover" end="arrowRight.mouseout"/>
                  </use>
                  <path fill="none" stroke="white" stroke-width="1.5" d="M0,-3.0v7 M-2.5,-0.5L0,-3.0L2.5,-0.5"/>
                </g>
                <g id="arrowDown" xlink:href="#dirArrow" transform="rotate(180) translate(-30 -48)" onmousedown="handlePan(0,1)">
                  <use xlink:href="#rim" fill="#404040">
                        <set attributeName="fill" to="#808080" begin="arrowDown.mouseover" end="arrowDown.mouseout"/>
                  </use>
                  <path fill="none" stroke="white" stroke-width="1.5" d="M0,-3.0v7 M-2.5,-0.5L0,-3.0L2.5,-0.5"/>
                </g>
                <g id="arrowLeft" xlink:href="#dirArrow" transform="rotate(270) translate(-36 17)" onmousedown="handlePan(-1,0)">
                  <use xlink:href="#rim" fill="#404040">
                        <set attributeName="fill" to="#808080" begin="arrowLeft.mouseover" end="arrowLeft.mouseout"/>
                  </use>
                  <path fill="none" stroke="white" stroke-width="1.5" d="M0,-3.0v7 M-2.5,-0.5L0,-3.0L2.5,-0.5"/>
                </g>
        </g>
        <svg viewBox="0 0 15 15" width="100%" height="30px" preserveAspectRatio="xMaxYMin meet">
         <g id="arrow_out" transform="scale(0.3 0.3)">
          <a xlink:href="APIStatusCode_8hpp__dep__incl_org.svg" target="_base">
           <rect id="button" ry="5" rx="5" y="6" x="6" height="38" width="38"
                fill="#f2f5e9" fill-opacity="0.5" stroke="#606060" stroke-width="1.0"/>
           <path id="arrow"
             d="M 11.500037,31.436501 C 11.940474,20.09759 22.043105,11.32322 32.158766,21.979434 L 37.068811,17.246167 C 37.068811,17.246167 37.088388,32 37.088388,32 L 22.160133,31.978069 C 22.160133,31.978069 26.997745,27.140456 26.997745,27.140456 C 18.528582,18.264221 13.291696,25.230495 11.500037,31.436501 z"
             style="fill:#404040;"/>
          </a>
         </g>
        </svg>
</svg>
