<?xml version="1.0" encoding="UTF-8" standalone="no"?>
<!DOCTYPE svg PUBLIC "-//W3C//DTD SVG 1.1//EN"
 "http://www.w3.org/Graphics/SVG/1.1/DTD/svg11.dtd">
<!-- Generated by graphviz version 2.38.0 (20140413.2041)
 -->
<!-- Title: Leosac::Audit::UserEvent Pages: 1 -->
<svg width="734pt" height="232pt"
 viewBox="0.00 0.00 734.00 231.50" xmlns="http://www.w3.org/2000/svg" xmlns:xlink="http://www.w3.org/1999/xlink">
<g id="graph0" class="graph" transform="scale(1 1) rotate(0) translate(4 227.5)">
<title>Leosac::Audit::UserEvent</title>
<polygon fill="white" stroke="none" points="-4,4 -4,-227.5 730,-227.5 730,4 -4,4"/>
<!-- Node6 -->
<g id="node1" class="node"><title>Node6</title>
<polygon fill="#bfbfbf" stroke="black" points="591.5,-48.5 591.5,-67.5 720.5,-67.5 720.5,-48.5 591.5,-48.5"/>
<text text-anchor="middle" x="656" y="-55.5" font-family="Helvetica,sans-Serif" font-size="10.00">Leosac::Audit::UserEvent</text>
</g>
<!-- Node7 -->
<g id="node2" class="node"><title>Node7</title>
<g id="a_node2"><a xlink:href="../../df/df5/classLeosac_1_1Audit_1_1IUserEvent.html" target="_top" xlink:title="Interface that describes an Audit object when a user&#45;related event happens. ">
<polygon fill="white" stroke="black" points="382,-0.5 382,-19.5 514,-19.5 514,-0.5 382,-0.5"/>
<text text-anchor="middle" x="448" y="-7.5" font-family="Helvetica,sans-Serif" font-size="10.00">Leosac::Audit::IUserEvent</text>
</a>
</g>
</g>
<!-- Node7&#45;&gt;Node6 -->
<g id="edge1" class="edge"><title>Node7&#45;&gt;Node6</title>
<path fill="none" stroke="midnightblue" d="M500.238,-21.9391C535.309,-30.1109 581.198,-40.8034 613.879,-48.4185"/>
<polygon fill="midnightblue" stroke="midnightblue" points="500.725,-18.4588 490.192,-19.5982 499.137,-25.2762 500.725,-18.4588"/>
</g>
<!-- Node8 -->
<g id="node3" class="node"><title>Node8</title>
<g id="a_node3"><a xlink:href="../../d1/d44/classLeosac_1_1Audit_1_1IAuditEntry.html" target="_top" xlink:title="Base interface to Audit object. ">
<polygon fill="white" stroke="black" points="167,-7.5 167,-26.5 298,-26.5 298,-7.5 167,-7.5"/>
<text text-anchor="middle" x="232.5" y="-14.5" font-family="Helvetica,sans-Serif" font-size="10.00">Leosac::Audit::IAuditEntry</text>
</a>
</g>
</g>
<!-- Node8&#45;&gt;Node7 -->
<g id="edge2" class="edge"><title>Node8&#45;&gt;Node7</title>
<path fill="none" stroke="midnightblue" d="M308.255,-14.549C332.242,-13.7626 358.604,-12.8982 381.846,-12.1362"/>
<polygon fill="midnightblue" stroke="midnightblue" points="308.016,-11.0549 298.136,-14.8808 308.246,-18.0511 308.016,-11.0549"/>
</g>
<!-- Node10 -->
<g id="node5" class="node"><title>Node10</title>
<g id="a_node5"><a xlink:href="../../d0/d20/classLeosac_1_1Audit_1_1AuditEntry.html" target="_top" xlink:title="Implementation of IAuditEntry, backed by ODB. ">
<polygon fill="white" stroke="black" points="384,-113.5 384,-132.5 512,-132.5 512,-113.5 384,-113.5"/>
<text text-anchor="middle" x="448" y="-120.5" font-family="Helvetica,sans-Serif" font-size="10.00">Leosac::Audit::AuditEntry</text>
</a>
</g>
</g>
<!-- Node8&#45;&gt;Node10 -->
<g id="edge5" class="edge"><title>Node8&#45;&gt;Node10</title>
<path fill="none" stroke="midnightblue" d="M268.625,-30.2526C279.734,-34.6826 291.984,-39.8179 303,-45 350.596,-67.3899 404.602,-98.1535 430.898,-113.495"/>
<polygon fill="midnightblue" stroke="midnightblue" points="269.803,-26.955 259.215,-26.5575 267.244,-33.4706 269.803,-26.955"/>
</g>
<!-- Node9 -->
<g id="node4" class="node"><title>Node9</title>
<g id="a_node4"><a xlink:href="../../d0/d33/classLeosac_1_1Tools_1_1IVisitable.html" target="_top" xlink:title="Base class to make an object visitable. ">
<polygon fill="white" stroke="black" points="0,-7.5 0,-26.5 125,-26.5 125,-7.5 0,-7.5"/>
<text text-anchor="middle" x="62.5" y="-14.5" font-family="Helvetica,sans-Serif" font-size="10.00">Leosac::Tools::IVisitable</text>
</a>
</g>
</g>
<!-- Node9&#45;&gt;Node8 -->
<g id="edge3" class="edge"><title>Node9&#45;&gt;Node8</title>
<path fill="none" stroke="midnightblue" d="M135.421,-17C145.847,-17 156.527,-17 166.8,-17"/>
<polygon fill="midnightblue" stroke="midnightblue" points="135.103,-13.5001 125.103,-17 135.103,-20.5001 135.103,-13.5001"/>
</g>
<!-- Node10&#45;&gt;Node6 -->
<g id="edge4" class="edge"><title>Node10&#45;&gt;Node6</title>
<path fill="none" stroke="midnightblue" d="M489.042,-110.365C528.814,-97.8161 588.901,-78.8564 624.815,-67.5244"/>
<polygon fill="midnightblue" stroke="midnightblue" points="487.879,-107.062 479.396,-113.409 489.986,-113.738 487.879,-107.062"/>
</g>
<!-- Node14 -->
<g id="node9" class="node"><title>Node14</title>
<polygon fill="white" stroke="#bfbfbf" points="586,-126.5 586,-145.5 726,-145.5 726,-126.5 586,-126.5"/>
<text text-anchor="middle" x="656" y="-133.5" font-family="Helvetica,sans-Serif" font-size="10.00">std::weak_ptr&lt; AuditEntry &gt;</text>
</g>
<!-- Node10&#45;&gt;Node14 -->
<g id="edge10" class="edge"><title>Node10&#45;&gt;Node14</title>
<path fill="none" stroke="#9a32cd" stroke-dasharray="5,2" d="M522.609,-130.312C525.781,-130.558 528.922,-130.789 532,-131 549.377,-132.19 568.157,-133.129 585.684,-133.856"/>
<polygon fill="#9a32cd" stroke="#9a32cd" points="522.665,-126.805 512.413,-129.477 522.094,-133.781 522.665,-126.805"/>
<text text-anchor="middle" x="550" y="-136" font-family="Helvetica,sans-Serif" font-size="10.00"> ptr</text>
</g>
<!-- Node11 -->
<g id="node6" class="node"><title>Node11</title>
<polygon fill="white" stroke="#bfbfbf" points="169.5,-193 169.5,-223 295.5,-223 295.5,-193 169.5,-193"/>
<text text-anchor="start" x="177.5" y="-211" font-family="Helvetica,sans-Serif" font-size="10.00">std::enable_shared</text>
<text text-anchor="middle" x="232.5" y="-200" font-family="Helvetica,sans-Serif" font-size="10.00">_from_this&lt; AuditEntry &gt;</text>
</g>
<!-- Node11&#45;&gt;Node10 -->
<g id="edge6" class="edge"><title>Node11&#45;&gt;Node10</title>
<path fill="none" stroke="midnightblue" d="M291.01,-189.785C313.943,-182.104 340.441,-172.7 364,-163 386.778,-153.622 412.187,-141.051 428.819,-132.524"/>
<polygon fill="midnightblue" stroke="midnightblue" points="289.808,-186.497 281.419,-192.968 292.013,-193.14 289.808,-186.497"/>
</g>
<!-- Node12 -->
<g id="node7" class="node"><title>Node12</title>
<polygon fill="white" stroke="#bfbfbf" points="162.5,-154.5 162.5,-173.5 302.5,-173.5 302.5,-154.5 162.5,-154.5"/>
<text text-anchor="middle" x="232.5" y="-161.5" font-family="Helvetica,sans-Serif" font-size="10.00">std::vector&lt; AuditEntryPtr &gt;</text>
</g>
<!-- Node12&#45;&gt;Node10 -->
<g id="edge7" class="edge"><title>Node12&#45;&gt;Node10</title>
<path fill="none" stroke="#9a32cd" stroke-dasharray="5,2" d="M292.962,-152.581C325.838,-146.268 366.215,-138.514 397.381,-132.529"/>
<polygon fill="#9a32cd" stroke="#9a32cd" points="292.178,-149.168 283.018,-154.491 293.498,-156.042 292.178,-149.168"/>
<text text-anchor="middle" x="342.5" y="-151" font-family="Helvetica,sans-Serif" font-size="10.00"> children_</text>
</g>
<!-- Node13 -->
<g id="node8" class="node"><title>Node13</title>
<g id="a_node8"><a xlink:href="../../dd/d95/classLeosac_1_1Tools_1_1ElapsedTimeCounter.html" target="_top" xlink:title="This class provide a simple to get the elapsed time since it&#39;s creation. ">
<polygon fill="white" stroke="black" points="162,-105 162,-135 303,-135 303,-105 162,-105"/>
<text text-anchor="start" x="170" y="-123" font-family="Helvetica,sans-Serif" font-size="10.00">Leosac::Tools::ElapsedTime</text>
<text text-anchor="middle" x="232.5" y="-112" font-family="Helvetica,sans-Serif" font-size="10.00">Counter</text>
</a>
</g>
</g>
<!-- Node13&#45;&gt;Node10 -->
<g id="edge8" class="edge"><title>Node13&#45;&gt;Node10</title>
<path fill="none" stroke="#9a32cd" stroke-dasharray="5,2" d="M313.335,-121.122C336.669,-121.45 361.838,-121.803 383.975,-122.114"/>
<polygon fill="#9a32cd" stroke="#9a32cd" points="313.161,-117.619 303.112,-120.978 313.062,-124.618 313.161,-117.619"/>
<text text-anchor="middle" x="342.5" y="-125" font-family="Helvetica,sans-Serif" font-size="10.00"> etc_</text>
</g>
<!-- Node14&#45;&gt;Node10 -->
<g id="edge9" class="edge"><title>Node14&#45;&gt;Node10</title>
<path fill="none" stroke="#9a32cd" stroke-dasharray="5,2" d="M601.826,-124.639C590.701,-122.708 579.007,-121.004 568,-120 552.066,-118.547 547.997,-119.711 532,-120 525.657,-120.115 519.042,-120.278 512.436,-120.471"/>
<polygon fill="#9a32cd" stroke="#9a32cd" points="601.382,-128.115 611.847,-126.462 602.635,-121.228 601.382,-128.115"/>
<text text-anchor="middle" x="550" y="-123" font-family="Helvetica,sans-Serif" font-size="10.00"> parent_</text>
</g>
<!-- Node15 -->
<g id="node10" class="node"><title>Node15</title>
<g id="a_node10"><a xlink:title="STL class. ">
<polygon fill="white" stroke="#bfbfbf" points="202.5,-54.5 202.5,-73.5 262.5,-73.5 262.5,-54.5 202.5,-54.5"/>
<text text-anchor="middle" x="232.5" y="-61.5" font-family="Helvetica,sans-Serif" font-size="10.00">std::string</text>
</a>
</g>
</g>
<!-- Node15&#45;&gt;Node6 -->
<g id="edge13" class="edge"><title>Node15&#45;&gt;Node6</title>
<path fill="none" stroke="#9a32cd" stroke-dasharray="5,2" d="M272.953,-63.4384C345.978,-62.3989 502.804,-60.1665 591.139,-58.9091"/>
<polygon fill="#9a32cd" stroke="#9a32cd" points="272.754,-59.9408 262.804,-63.5829 272.853,-66.9401 272.754,-59.9408"/>
<text text-anchor="middle" x="448" y="-76" font-family="Helvetica,sans-Serif" font-size="10.00"> after_</text>
<text text-anchor="middle" x="448" y="-65" font-family="Helvetica,sans-Serif" font-size="10.00">before_</text>
</g>
<!-- Node15&#45;&gt;Node10 -->
<g id="edge11" class="edge"><title>Node15&#45;&gt;Node10</title>
<path fill="none" stroke="#9a32cd" stroke-dasharray="5,2" d="M272.415,-74.7541C312.424,-85.8104 374.138,-102.865 412.466,-113.457"/>
<polygon fill="#9a32cd" stroke="#9a32cd" points="273.31,-71.3701 262.739,-72.08 271.445,-78.1172 273.31,-71.3701"/>
<text text-anchor="middle" x="342.5" y="-102" font-family="Helvetica,sans-Serif" font-size="10.00"> msg_</text>
</g>
<!-- Node16 -->
<g id="node11" class="node"><title>Node16</title>
<g id="a_node11"><a xlink:title="STL class. ">
<polygon fill="white" stroke="#bfbfbf" points="15,-49 15,-79 110,-79 110,-49 15,-49"/>
<text text-anchor="start" x="23" y="-67" font-family="Helvetica,sans-Serif" font-size="10.00">std::basic_string&lt;</text>
<text text-anchor="middle" x="62.5" y="-56" font-family="Helvetica,sans-Serif" font-size="10.00"> char &gt;</text>
</a>
</g>
</g>
<!-- Node16&#45;&gt;Node15 -->
<g id="edge12" class="edge"><title>Node16&#45;&gt;Node15</title>
<path fill="none" stroke="midnightblue" d="M120.595,-64C148.087,-64 179.879,-64 202.357,-64"/>
<polygon fill="midnightblue" stroke="midnightblue" points="120.297,-60.5001 110.297,-64 120.297,-67.5001 120.297,-60.5001"/>
</g>
</g>
</svg>
