<?xml version="1.0" encoding="UTF-8" standalone="no"?>
<!DOCTYPE svg PUBLIC "-//W3C//DTD SVG 1.1//EN"
 "http://www.w3.org/Graphics/SVG/1.1/DTD/svg11.dtd">
<!-- Generated by graphviz version 2.38.0 (20140413.2041)
 -->
<!-- Title: src/core/audit/IUpdateEvent.hpp Pages: 1 -->
<svg width="404pt" height="151pt"
 viewBox="0.00 0.00 403.50 151.00" xmlns="http://www.w3.org/2000/svg" xmlns:xlink="http://www.w3.org/1999/xlink">
<g id="graph0" class="graph" transform="scale(1 1) rotate(0) translate(4 147)">
<title>src/core/audit/IUpdateEvent.hpp</title>
<polygon fill="white" stroke="none" points="-4,4 -4,-147 399.5,-147 399.5,4 -4,4"/>
<!-- Node14 -->
<g id="node1" class="node"><title>Node14</title>
<polygon fill="#bfbfbf" stroke="black" points="71,-123.5 71,-142.5 229,-142.5 229,-123.5 71,-123.5"/>
<text text-anchor="middle" x="150" y="-130.5" font-family="Helvetica,sans-Serif" font-size="10.00">src/core/audit/IUpdateEvent.hpp</text>
</g>
<!-- Node15 -->
<g id="node2" class="node"><title>Node15</title>
<g id="a_node2"><a xlink:href="../../da/d2d/UpdateEventSerializer_8cpp.html" target="_top" xlink:title="src/core/audit/serializers\l/UpdateEventSerializer.cpp">
<polygon fill="white" stroke="black" points="0,-56.5 0,-86.5 136,-86.5 136,-56.5 0,-56.5"/>
<text text-anchor="start" x="8" y="-74.5" font-family="Helvetica,sans-Serif" font-size="10.00">src/core/audit/serializers</text>
<text text-anchor="middle" x="68" y="-63.5" font-family="Helvetica,sans-Serif" font-size="10.00">/UpdateEventSerializer.cpp</text>
</a>
</g>
</g>
<!-- Node14&#45;&gt;Node15 -->
<g id="edge1" class="edge"><title>Node14&#45;&gt;Node15</title>
<path fill="none" stroke="midnightblue" d="M129.973,-117.468C116.99,-108.047 100.167,-95.8408 87.3258,-86.523"/>
<polygon fill="midnightblue" stroke="midnightblue" points="128.102,-120.435 138.251,-123.475 132.213,-114.769 128.102,-120.435"/>
</g>
<!-- Node16 -->
<g id="node3" class="node"><title>Node16</title>
<g id="a_node3"><a xlink:href="../../d0/d85/UpdateEvent_8hpp.html" target="_top" xlink:title="src/core/audit/UpdateEvent.hpp">
<polygon fill="white" stroke="black" points="154.5,-62 154.5,-81 309.5,-81 309.5,-62 154.5,-62"/>
<text text-anchor="middle" x="232" y="-69" font-family="Helvetica,sans-Serif" font-size="10.00">src/core/audit/UpdateEvent.hpp</text>
</a>
</g>
</g>
<!-- Node14&#45;&gt;Node16 -->
<g id="edge2" class="edge"><title>Node14&#45;&gt;Node16</title>
<path fill="none" stroke="midnightblue" d="M170.267,-117.294C185.997,-105.88 207.252,-90.4577 220.273,-81.0091"/>
<polygon fill="midnightblue" stroke="midnightblue" points="167.787,-114.769 161.749,-123.475 171.898,-120.435 167.787,-114.769"/>
</g>
<!-- Node17 -->
<g id="node4" class="node"><title>Node17</title>
<g id="a_node4"><a xlink:href="../../d4/dbe/AuditFactory_8cpp.html" target="_top" xlink:title="src/core/audit/AuditFactory.cpp">
<polygon fill="white" stroke="black" points="69.5,-0.5 69.5,-19.5 222.5,-19.5 222.5,-0.5 69.5,-0.5"/>
<text text-anchor="middle" x="146" y="-7.5" font-family="Helvetica,sans-Serif" font-size="10.00">src/core/audit/AuditFactory.cpp</text>
</a>
</g>
</g>
<!-- Node16&#45;&gt;Node17 -->
<g id="edge3" class="edge"><title>Node16&#45;&gt;Node17</title>
<path fill="none" stroke="midnightblue" d="M211.205,-56.1127C194.665,-44.6691 172.083,-29.046 158.299,-19.5091"/>
<polygon fill="midnightblue" stroke="midnightblue" points="209.463,-59.1637 219.678,-61.9751 213.446,-53.4072 209.463,-59.1637"/>
</g>
<!-- Node18 -->
<g id="node5" class="node"><title>Node18</title>
<g id="a_node5"><a xlink:href="../../d9/d05/UpdateEvent_8cpp.html" target="_top" xlink:title="src/core/audit/UpdateEvent.cpp">
<polygon fill="white" stroke="black" points="240.5,-0.5 240.5,-19.5 395.5,-19.5 395.5,-0.5 240.5,-0.5"/>
<text text-anchor="middle" x="318" y="-7.5" font-family="Helvetica,sans-Serif" font-size="10.00">src/core/audit/UpdateEvent.cpp</text>
</a>
</g>
</g>
<!-- Node16&#45;&gt;Node18 -->
<g id="edge4" class="edge"><title>Node16&#45;&gt;Node18</title>
<path fill="none" stroke="midnightblue" d="M252.795,-56.1127C269.335,-44.6691 291.917,-29.046 305.701,-19.5091"/>
<polygon fill="midnightblue" stroke="midnightblue" points="250.554,-53.4072 244.322,-61.9751 254.537,-59.1637 250.554,-53.4072"/>
</g>
</g>
</svg>
