<?xml version="1.0" encoding="UTF-8" standalone="no"?>
<!DOCTYPE svg PUBLIC "-//W3C//DTD SVG 1.1//EN"
 "http://www.w3.org/Graphics/SVG/1.1/DTD/svg11.dtd">
<!-- Generated by graphviz version 2.38.0 (20140413.2041)
 -->
<!-- Title: src/tools/unixsyscall.hpp Pages: 1 -->
<svg width="720pt" height="84pt"
 viewBox="0.00 0.00 720.00 84.00" xmlns="http://www.w3.org/2000/svg" xmlns:xlink="http://www.w3.org/1999/xlink">
<g id="graph0" class="graph" transform="scale(1 1) rotate(0) translate(4 80)">
<title>src/tools/unixsyscall.hpp</title>
<polygon fill="white" stroke="none" points="-4,4 -4,-80 716,-80 716,4 -4,4"/>
<!-- Node2 -->
<g id="node1" class="node"><title>Node2</title>
<polygon fill="#bfbfbf" stroke="black" points="299,-56.5 299,-75.5 424,-75.5 424,-56.5 299,-56.5"/>
<text text-anchor="middle" x="361.5" y="-63.5" font-family="Helvetica,sans-Serif" font-size="10.00">src/tools/unixsyscall.hpp</text>
</g>
<!-- Node3 -->
<g id="node2" class="node"><title>Node3</title>
<g id="a_node2"><a xlink:href="../../de/d2d/signalhandler_8cpp.html" target="_top" xlink:title="signal handler to provide a C++ interface for UNIX sigaction() ">
<polygon fill="white" stroke="black" points="0,-0.5 0,-19.5 133,-19.5 133,-0.5 0,-0.5"/>
<text text-anchor="middle" x="66.5" y="-7.5" font-family="Helvetica,sans-Serif" font-size="10.00">src/tools/signalhandler.cpp</text>
</a>
</g>
</g>
<!-- Node2&#45;&gt;Node3 -->
<g id="edge1" class="edge"><title>Node2&#45;&gt;Node3</title>
<path fill="none" stroke="midnightblue" d="M304.689,-54.6007C248.937,-44.3953 164.936,-29.0189 113.025,-19.5164"/>
<polygon fill="midnightblue" stroke="midnightblue" points="304.29,-58.0857 314.756,-56.4435 305.55,-51.2001 304.29,-58.0857"/>
</g>
<!-- Node4 -->
<g id="node3" class="node"><title>Node4</title>
<g id="a_node3"><a xlink:href="../../d4/da8/unixfilewatcher_8cpp.html" target="_top" xlink:title="UnixFileWatcher class implementation. ">
<polygon fill="white" stroke="black" points="151,-0.5 151,-19.5 292,-19.5 292,-0.5 151,-0.5"/>
<text text-anchor="middle" x="221.5" y="-7.5" font-family="Helvetica,sans-Serif" font-size="10.00">src/tools/unixfilewatcher.cpp</text>
</a>
</g>
</g>
<!-- Node2&#45;&gt;Node4 -->
<g id="edge2" class="edge"><title>Node2&#45;&gt;Node4</title>
<path fill="none" stroke="midnightblue" d="M329.798,-52.772C303.5,-42.6287 266.784,-28.4669 243.58,-19.5164"/>
<polygon fill="midnightblue" stroke="midnightblue" points="328.727,-56.1103 339.317,-56.4435 331.246,-49.5792 328.727,-56.1103"/>
</g>
<!-- Node5 -->
<g id="node4" class="node"><title>Node5</title>
<g id="a_node4"><a xlink:href="../../d2/deb/unixfs_8cpp.html" target="_top" xlink:title="unix filesystem helper functions ">
<polygon fill="white" stroke="black" points="310.5,-0.5 310.5,-19.5 412.5,-19.5 412.5,-0.5 310.5,-0.5"/>
<text text-anchor="middle" x="361.5" y="-7.5" font-family="Helvetica,sans-Serif" font-size="10.00">src/tools/unixfs.cpp</text>
</a>
</g>
</g>
<!-- Node2&#45;&gt;Node5 -->
<g id="edge3" class="edge"><title>Node2&#45;&gt;Node5</title>
<path fill="none" stroke="midnightblue" d="M361.5,-45.8045C361.5,-36.9102 361.5,-26.7798 361.5,-19.7511"/>
<polygon fill="midnightblue" stroke="midnightblue" points="358,-46.083 361.5,-56.083 365,-46.083 358,-46.083"/>
</g>
<!-- Node6 -->
<g id="node5" class="node"><title>Node6</title>
<g id="a_node5"><a xlink:href="../../d3/d4f/unixshellscript_8cpp.html" target="_top" xlink:title="UnixShellScript class implementation. ">
<polygon fill="white" stroke="black" points="430.5,-0.5 430.5,-19.5 568.5,-19.5 568.5,-0.5 430.5,-0.5"/>
<text text-anchor="middle" x="499.5" y="-7.5" font-family="Helvetica,sans-Serif" font-size="10.00">src/tools/unixshellscript.cpp</text>
</a>
</g>
</g>
<!-- Node2&#45;&gt;Node6 -->
<g id="edge4" class="edge"><title>Node2&#45;&gt;Node6</title>
<path fill="none" stroke="midnightblue" d="M392.749,-52.772C418.671,-42.6287 454.862,-28.4669 477.736,-19.5164"/>
<polygon fill="midnightblue" stroke="midnightblue" points="391.404,-49.5401 383.367,-56.4435 393.954,-56.0588 391.404,-49.5401"/>
</g>
<!-- Node7 -->
<g id="node6" class="node"><title>Node7</title>
<g id="a_node6"><a xlink:href="../../dc/db3/unixsyscall_8cpp.html" target="_top" xlink:title="unix syscall helper functions ">
<polygon fill="white" stroke="black" points="587,-0.5 587,-19.5 712,-19.5 712,-0.5 587,-0.5"/>
<text text-anchor="middle" x="649.5" y="-7.5" font-family="Helvetica,sans-Serif" font-size="10.00">src/tools/unixsyscall.cpp</text>
</a>
</g>
</g>
<!-- Node2&#45;&gt;Node7 -->
<g id="edge5" class="edge"><title>Node2&#45;&gt;Node7</title>
<path fill="none" stroke="midnightblue" d="M417.302,-54.5371C471.732,-44.3316 553.504,-28.9992 604.079,-19.5164"/>
<polygon fill="midnightblue" stroke="midnightblue" points="416.318,-51.1605 407.134,-56.4435 417.608,-58.0406 416.318,-51.1605"/>
</g>
</g>
</svg>
