<?xml version="1.0" encoding="UTF-8" standalone="no"?>
<!DOCTYPE svg PUBLIC "-//W3C//DTD SVG 1.1//EN"
 "http://www.w3.org/Graphics/SVG/1.1/DTD/svg11.dtd">
<!-- Generated by graphviz version 2.38.0 (20140413.2041)
 -->
<!-- Title: src/hardware/Buzzer.hpp Pages: 1 -->
<svg width="460pt" height="95pt"
 viewBox="0.00 0.00 459.50 95.00" xmlns="http://www.w3.org/2000/svg" xmlns:xlink="http://www.w3.org/1999/xlink">
<g id="graph0" class="graph" transform="scale(1 1) rotate(0) translate(4 91)">
<title>src/hardware/Buzzer.hpp</title>
<polygon fill="white" stroke="none" points="-4,4 -4,-91 455.5,-91 455.5,4 -4,4"/>
<!-- Node12 -->
<g id="node1" class="node"><title>Node12</title>
<polygon fill="#bfbfbf" stroke="black" points="166,-67.5 166,-86.5 291,-86.5 291,-67.5 166,-67.5"/>
<text text-anchor="middle" x="228.5" y="-74.5" font-family="Helvetica,sans-Serif" font-size="10.00">src/hardware/Buzzer.hpp</text>
</g>
<!-- Node13 -->
<g id="node2" class="node"><title>Node13</title>
<g id="a_node2"><a xlink:href="../../d3/dcb/Buzzer_8cpp.html" target="_top" xlink:title="src/hardware/Buzzer.cpp">
<polygon fill="white" stroke="black" points="0,-6 0,-25 125,-25 125,-6 0,-6"/>
<text text-anchor="middle" x="62.5" y="-13" font-family="Helvetica,sans-Serif" font-size="10.00">src/hardware/Buzzer.cpp</text>
</a>
</g>
</g>
<!-- Node12&#45;&gt;Node13 -->
<g id="edge1" class="edge"><title>Node12&#45;&gt;Node13</title>
<path fill="none" stroke="midnightblue" d="M195.252,-64.0828C162.984,-52.517 114.818,-35.2524 86.2396,-25.0091"/>
<polygon fill="midnightblue" stroke="midnightblue" points="194.122,-67.3956 204.716,-67.4751 196.484,-60.8061 194.122,-67.3956"/>
</g>
<!-- Node14 -->
<g id="node3" class="node"><title>Node14</title>
<g id="a_node3"><a xlink:href="../../d9/dab/HardwareService_8cpp.html" target="_top" xlink:title="src/hardware/HardwareService.cpp">
<polygon fill="white" stroke="black" points="143.5,-6 143.5,-25 313.5,-25 313.5,-6 143.5,-6"/>
<text text-anchor="middle" x="228.5" y="-13" font-family="Helvetica,sans-Serif" font-size="10.00">src/hardware/HardwareService.cpp</text>
</a>
</g>
</g>
<!-- Node12&#45;&gt;Node14 -->
<g id="edge2" class="edge"><title>Node12&#45;&gt;Node14</title>
<path fill="none" stroke="midnightblue" d="M228.5,-57.3165C228.5,-46.4962 228.5,-33.398 228.5,-25.0091"/>
<polygon fill="midnightblue" stroke="midnightblue" points="225,-57.4751 228.5,-67.4751 232,-57.4751 225,-57.4751"/>
</g>
<!-- Node15 -->
<g id="node4" class="node"><title>Node15</title>
<g id="a_node4"><a xlink:href="../../d6/d24/BuzzerSerializer_8cpp.html" target="_top" xlink:title="src/hardware/serializers\l/BuzzerSerializer.cpp">
<polygon fill="white" stroke="black" points="331.5,-0.5 331.5,-30.5 451.5,-30.5 451.5,-0.5 331.5,-0.5"/>
<text text-anchor="start" x="339.5" y="-18.5" font-family="Helvetica,sans-Serif" font-size="10.00">src/hardware/serializers</text>
<text text-anchor="middle" x="391.5" y="-7.5" font-family="Helvetica,sans-Serif" font-size="10.00">/BuzzerSerializer.cpp</text>
</a>
</g>
</g>
<!-- Node12&#45;&gt;Node15 -->
<g id="edge3" class="edge"><title>Node12&#45;&gt;Node15</title>
<path fill="none" stroke="midnightblue" d="M261.441,-63.9755C287.943,-54.3016 325.226,-40.6919 353.084,-30.523"/>
<polygon fill="midnightblue" stroke="midnightblue" points="260.047,-60.7582 251.854,-67.4751 262.448,-67.3338 260.047,-60.7582"/>
</g>
</g>
</svg>
