<?xml version="1.0" encoding="UTF-8" standalone="no"?>
<!DOCTYPE svg PUBLIC "-//W3C//DTD SVG 1.1//EN"
 "http://www.w3.org/Graphics/SVG/1.1/DTD/svg11.dtd">
<!-- Generated by graphviz version 2.38.0 (20140413.2041)
 -->
<!-- Title: src/modules/rpleth/rplethprotocol.cpp Pages: 1 -->
<svg width="739pt" height="263pt"
 viewBox="0.00 0.00 739.40 263.00" xmlns="http://www.w3.org/2000/svg" xmlns:xlink="http://www.w3.org/1999/xlink">
<g id="graph0" class="graph" transform="scale(1 1) rotate(0) translate(4 259)">
<title>src/modules/rpleth/rplethprotocol.cpp</title>
<polygon fill="white" stroke="none" points="-4,4 -4,-259 735.395,-259 735.395,4 -4,4"/>
<!-- Node0 -->
<g id="node1" class="node"><title>Node0</title>
<polygon fill="#bfbfbf" stroke="black" points="357.395,-224.5 357.395,-254.5 454.395,-254.5 454.395,-224.5 357.395,-224.5"/>
<text text-anchor="start" x="365.395" y="-242.5" font-family="Helvetica,sans-Serif" font-size="10.00">src/modules/rpleth</text>
<text text-anchor="middle" x="405.895" y="-231.5" font-family="Helvetica,sans-Serif" font-size="10.00">/rplethprotocol.cpp</text>
</g>
<!-- Node1 -->
<g id="node2" class="node"><title>Node1</title>
<g id="a_node2"><a xlink:href="../../d9/dda/rplethprotocol_8hpp.html" target="_top" xlink:title="Rpleth protocol implementation. ">
<polygon fill="white" stroke="black" points="514.895,-168.5 514.895,-187.5 608.895,-187.5 608.895,-168.5 514.895,-168.5"/>
<text text-anchor="middle" x="561.895" y="-175.5" font-family="Helvetica,sans-Serif" font-size="10.00">rplethprotocol.hpp</text>
</a>
</g>
</g>
<!-- Node0&#45;&gt;Node1 -->
<g id="edge1" class="edge"><title>Node0&#45;&gt;Node1</title>
<path fill="none" stroke="midnightblue" d="M442.865,-224.399C469.273,-214.327 504.452,-200.909 529.707,-191.277"/>
<polygon fill="midnightblue" stroke="midnightblue" points="531.1,-194.492 539.196,-187.658 528.605,-187.951 531.1,-194.492"/>
</g>
<!-- Node4 -->
<g id="node5" class="node"><title>Node4</title>
<polygon fill="white" stroke="#bfbfbf" points="476.895,-56.5 476.895,-75.5 520.895,-75.5 520.895,-56.5 476.895,-56.5"/>
<text text-anchor="middle" x="498.895" y="-63.5" font-family="Helvetica,sans-Serif" font-size="10.00">vector</text>
</g>
<!-- Node0&#45;&gt;Node4 -->
<g id="edge18" class="edge"><title>Node0&#45;&gt;Node4</title>
<path fill="none" stroke="midnightblue" d="M404.343,-224.223C402.375,-199.246 401.656,-146.953 424.895,-112 435.03,-96.7574 452.259,-85.8357 467.544,-78.5722"/>
<polygon fill="midnightblue" stroke="midnightblue" points="468.995,-81.7577 476.729,-74.5165 466.167,-75.3541 468.995,-81.7577"/>
</g>
<!-- Node9 -->
<g id="node10" class="node"><title>Node9</title>
<g id="a_node10"><a xlink:href="../../d4/d3d/log_8hpp.html" target="_top" xlink:title="tools/log.hpp">
<polygon fill="white" stroke="black" points="140.895,-168.5 140.895,-187.5 212.895,-187.5 212.895,-168.5 140.895,-168.5"/>
<text text-anchor="middle" x="176.895" y="-175.5" font-family="Helvetica,sans-Serif" font-size="10.00">tools/log.hpp</text>
</a>
</g>
</g>
<!-- Node0&#45;&gt;Node9 -->
<g id="edge11" class="edge"><title>Node0&#45;&gt;Node9</title>
<path fill="none" stroke="midnightblue" d="M357.33,-225.882C316.594,-215.297 258.968,-200.324 219.882,-190.169"/>
<polygon fill="midnightblue" stroke="midnightblue" points="220.432,-186.696 209.873,-187.568 218.672,-193.471 220.432,-186.696"/>
</g>
<!-- Node2 -->
<g id="node3" class="node"><title>Node2</title>
<g id="a_node3"><a xlink:href="../../d4/d66/circularbuffer_8hpp.html" target="_top" xlink:title="simple circular buffer class ">
<polygon fill="white" stroke="black" points="434.395,-112.5 434.395,-131.5 563.395,-131.5 563.395,-112.5 434.395,-112.5"/>
<text text-anchor="middle" x="498.895" y="-119.5" font-family="Helvetica,sans-Serif" font-size="10.00">network/circularbuffer.hpp</text>
</a>
</g>
</g>
<!-- Node1&#45;&gt;Node2 -->
<g id="edge2" class="edge"><title>Node1&#45;&gt;Node2</title>
<path fill="none" stroke="midnightblue" d="M551.773,-168.324C542.369,-160.263 528.151,-148.077 516.826,-138.369"/>
<polygon fill="midnightblue" stroke="midnightblue" points="519.072,-135.684 509.202,-131.834 514.516,-140.999 519.072,-135.684"/>
</g>
<!-- Node7 -->
<g id="node8" class="node"><title>Node7</title>
<g id="a_node8"><a xlink:href="../../dd/d17/rplethpacket_8hpp.html" target="_top" xlink:title="Rpleth packet class. ">
<polygon fill="white" stroke="black" points="581.395,-112.5 581.395,-131.5 670.395,-131.5 670.395,-112.5 581.395,-112.5"/>
<text text-anchor="middle" x="625.895" y="-119.5" font-family="Helvetica,sans-Serif" font-size="10.00">rplethpacket.hpp</text>
</a>
</g>
</g>
<!-- Node1&#45;&gt;Node7 -->
<g id="edge7" class="edge"><title>Node1&#45;&gt;Node7</title>
<path fill="none" stroke="midnightblue" d="M572.178,-168.324C581.732,-160.263 596.175,-148.077 607.68,-138.369"/>
<polygon fill="midnightblue" stroke="midnightblue" points="610.04,-140.958 615.426,-131.834 605.526,-135.608 610.04,-140.958"/>
</g>
<!-- Node8 -->
<g id="node9" class="node"><title>Node8</title>
<polygon fill="white" stroke="#bfbfbf" points="688.395,-112.5 688.395,-131.5 731.395,-131.5 731.395,-112.5 688.395,-112.5"/>
<text text-anchor="middle" x="709.895" y="-119.5" font-family="Helvetica,sans-Serif" font-size="10.00">queue</text>
</g>
<!-- Node1&#45;&gt;Node8 -->
<g id="edge10" class="edge"><title>Node1&#45;&gt;Node8</title>
<path fill="none" stroke="midnightblue" d="M585.346,-168.444C610.464,-159.279 650.464,-144.685 678.333,-134.516"/>
<polygon fill="midnightblue" stroke="midnightblue" points="679.807,-137.704 688.001,-130.988 677.408,-131.128 679.807,-137.704"/>
</g>
<!-- Node3 -->
<g id="node4" class="node"><title>Node3</title>
<polygon fill="white" stroke="#bfbfbf" points="192.395,-56.5 192.395,-75.5 233.395,-75.5 233.395,-56.5 192.395,-56.5"/>
<text text-anchor="middle" x="212.895" y="-63.5" font-family="Helvetica,sans-Serif" font-size="10.00">string</text>
</g>
<!-- Node2&#45;&gt;Node3 -->
<g id="edge3" class="edge"><title>Node2&#45;&gt;Node3</title>
<path fill="none" stroke="midnightblue" d="M453.578,-112.444C394.905,-101.366 294.208,-82.3527 243.692,-72.8148"/>
<polygon fill="midnightblue" stroke="midnightblue" points="244.183,-69.3458 233.708,-70.9296 242.885,-76.2242 244.183,-69.3458"/>
</g>
<!-- Node2&#45;&gt;Node4 -->
<g id="edge4" class="edge"><title>Node2&#45;&gt;Node4</title>
<path fill="none" stroke="midnightblue" d="M498.895,-112.083C498.895,-105.006 498.895,-94.8611 498.895,-85.9865"/>
<polygon fill="midnightblue" stroke="midnightblue" points="502.395,-85.751 498.895,-75.7511 495.395,-85.7511 502.395,-85.751"/>
</g>
<!-- Node5 -->
<g id="node6" class="node"><title>Node5</title>
<g id="a_node6"><a xlink:href="../../d4/d90/bufferutils_8hpp.html" target="_top" xlink:title="buffer&#45;related helper functions ">
<polygon fill="white" stroke="black" points="556.895,-56.5 556.895,-75.5 658.895,-75.5 658.895,-56.5 556.895,-56.5"/>
<text text-anchor="middle" x="607.895" y="-63.5" font-family="Helvetica,sans-Serif" font-size="10.00">tools/bufferutils.hpp</text>
</a>
</g>
</g>
<!-- Node2&#45;&gt;Node5 -->
<g id="edge5" class="edge"><title>Node2&#45;&gt;Node5</title>
<path fill="none" stroke="midnightblue" d="M516.408,-112.324C533.968,-103.625 561.227,-90.1202 581.427,-80.113"/>
<polygon fill="midnightblue" stroke="midnightblue" points="583.019,-83.23 590.426,-75.6545 579.912,-76.9575 583.019,-83.23"/>
</g>
<!-- Node6 -->
<g id="node7" class="node"><title>Node6</title>
<polygon fill="white" stroke="#bfbfbf" points="584.895,-0.5 584.895,-19.5 630.895,-19.5 630.895,-0.5 584.895,-0.5"/>
<text text-anchor="middle" x="607.895" y="-7.5" font-family="Helvetica,sans-Serif" font-size="10.00">cstdint</text>
</g>
<!-- Node5&#45;&gt;Node6 -->
<g id="edge6" class="edge"><title>Node5&#45;&gt;Node6</title>
<path fill="none" stroke="midnightblue" d="M607.895,-56.083C607.895,-49.0059 607.895,-38.8611 607.895,-29.9865"/>
<polygon fill="midnightblue" stroke="midnightblue" points="611.395,-29.751 607.895,-19.7511 604.395,-29.7511 611.395,-29.751"/>
</g>
<!-- Node7&#45;&gt;Node4 -->
<g id="edge9" class="edge"><title>Node7&#45;&gt;Node4</title>
<path fill="none" stroke="midnightblue" d="M605.772,-112.444C584.871,-103.557 551.961,-89.5632 528.179,-79.4514"/>
<polygon fill="midnightblue" stroke="midnightblue" points="529.497,-76.2085 518.925,-75.5164 526.758,-82.6504 529.497,-76.2085"/>
</g>
<!-- Node7&#45;&gt;Node5 -->
<g id="edge8" class="edge"><title>Node7&#45;&gt;Node5</title>
<path fill="none" stroke="midnightblue" d="M622.923,-112.083C620.512,-104.849 617.032,-94.4087 614.028,-85.3968"/>
<polygon fill="midnightblue" stroke="midnightblue" points="617.295,-84.1311 610.812,-75.7511 610.654,-86.3447 617.295,-84.1311"/>
</g>
<!-- Node9&#45;&gt;Node3 -->
<g id="edge17" class="edge"><title>Node9&#45;&gt;Node3</title>
<path fill="none" stroke="midnightblue" d="M140.575,-175.487C80.5195,-171.662 -29.341,-158.297 7.89539,-112 29.3755,-85.2933 129.985,-73.5373 181.829,-69.1807"/>
<polygon fill="midnightblue" stroke="midnightblue" points="182.417,-72.6451 192.106,-68.3606 181.86,-65.6672 182.417,-72.6451"/>
</g>
<!-- Node10 -->
<g id="node11" class="node"><title>Node10</title>
<polygon fill="white" stroke="#bfbfbf" points="17.3954,-112.5 17.3954,-131.5 66.3954,-131.5 66.3954,-112.5 17.3954,-112.5"/>
<text text-anchor="middle" x="41.8954" y="-119.5" font-family="Helvetica,sans-Serif" font-size="10.00">cassert</text>
</g>
<!-- Node9&#45;&gt;Node10 -->
<g id="edge12" class="edge"><title>Node9&#45;&gt;Node10</title>
<path fill="none" stroke="midnightblue" d="M155.504,-168.444C133.188,-159.517 97.9922,-145.439 72.6874,-135.317"/>
<polygon fill="midnightblue" stroke="midnightblue" points="73.7711,-131.981 63.1865,-131.516 71.1713,-138.48 73.7711,-131.981"/>
</g>
<!-- Node11 -->
<g id="node12" class="node"><title>Node11</title>
<polygon fill="white" stroke="#bfbfbf" points="84.3954,-112.5 84.3954,-131.5 131.395,-131.5 131.395,-112.5 84.3954,-112.5"/>
<text text-anchor="middle" x="107.895" y="-119.5" font-family="Helvetica,sans-Serif" font-size="10.00">csignal</text>
</g>
<!-- Node9&#45;&gt;Node11 -->
<g id="edge13" class="edge"><title>Node9&#45;&gt;Node11</title>
<path fill="none" stroke="midnightblue" d="M165.809,-168.324C155.409,-160.185 139.635,-147.839 127.174,-138.087"/>
<polygon fill="midnightblue" stroke="midnightblue" points="129.215,-135.241 119.183,-131.834 124.901,-140.753 129.215,-135.241"/>
</g>
<!-- Node12 -->
<g id="node13" class="node"><title>Node12</title>
<polygon fill="white" stroke="#bfbfbf" points="149.895,-112.5 149.895,-131.5 203.895,-131.5 203.895,-112.5 149.895,-112.5"/>
<text text-anchor="middle" x="176.895" y="-119.5" font-family="Helvetica,sans-Serif" font-size="10.00">iostream</text>
</g>
<!-- Node9&#45;&gt;Node12 -->
<g id="edge14" class="edge"><title>Node9&#45;&gt;Node12</title>
<path fill="none" stroke="midnightblue" d="M176.895,-168.083C176.895,-161.006 176.895,-150.861 176.895,-141.986"/>
<polygon fill="midnightblue" stroke="midnightblue" points="180.395,-141.751 176.895,-131.751 173.395,-141.751 180.395,-141.751"/>
</g>
<!-- Node13 -->
<g id="node14" class="node"><title>Node13</title>
<polygon fill="white" stroke="#bfbfbf" points="222.395,-112.5 222.395,-131.5 307.395,-131.5 307.395,-112.5 222.395,-112.5"/>
<text text-anchor="middle" x="264.895" y="-119.5" font-family="Helvetica,sans-Serif" font-size="10.00">spdlog/spdlog.h</text>
</g>
<!-- Node9&#45;&gt;Node13 -->
<g id="edge15" class="edge"><title>Node9&#45;&gt;Node13</title>
<path fill="none" stroke="midnightblue" d="M191.034,-168.324C204.762,-159.9 225.832,-146.971 241.96,-137.074"/>
<polygon fill="midnightblue" stroke="midnightblue" points="244.099,-139.868 250.792,-131.655 240.438,-133.902 244.099,-139.868"/>
</g>
<!-- Node14 -->
<g id="node15" class="node"><title>Node14</title>
<polygon fill="white" stroke="#bfbfbf" points="325.895,-112.5 325.895,-131.5 377.895,-131.5 377.895,-112.5 325.895,-112.5"/>
<text text-anchor="middle" x="351.895" y="-119.5" font-family="Helvetica,sans-Serif" font-size="10.00">sstream</text>
</g>
<!-- Node9&#45;&gt;Node14 -->
<g id="edge16" class="edge"><title>Node9&#45;&gt;Node14</title>
<path fill="none" stroke="midnightblue" d="M204.625,-168.444C234.758,-159.145 283.006,-144.257 316.009,-134.073"/>
<polygon fill="midnightblue" stroke="midnightblue" points="317.202,-137.368 325.725,-131.075 315.138,-130.68 317.202,-137.368"/>
</g>
</g>
</svg>
