<?xml version="1.0" encoding="UTF-8" standalone="no"?>
<!DOCTYPE svg PUBLIC "-//W3C//DTD SVG 1.1//EN"
 "http://www.w3.org/Graphics/SVG/1.1/DTD/svg11.dtd">
<!-- Generated by graphviz version 2.38.0 (20140413.2041)
 -->
<!-- Title: src/modules/websock&#45;api/api/search/DoorSearch.hpp Pages: 1 -->
<svg width="1305pt" height="386pt"
 viewBox="0.00 0.00 1304.50 386.00" xmlns="http://www.w3.org/2000/svg" xmlns:xlink="http://www.w3.org/1999/xlink">
<g id="graph0" class="graph" transform="scale(1 1) rotate(0) translate(4 382)">
<title>src/modules/websock&#45;api/api/search/DoorSearch.hpp</title>
<polygon fill="white" stroke="none" points="-4,4 -4,-382 1300.5,-382 1300.5,4 -4,4"/>
<!-- Node0 -->
<g id="node1" class="node"><title>Node0</title>
<polygon fill="#bfbfbf" stroke="black" points="113,-347.5 113,-377.5 267,-377.5 267,-347.5 113,-347.5"/>
<text text-anchor="start" x="121" y="-365.5" font-family="Helvetica,sans-Serif" font-size="10.00">src/modules/websock</text>
<text text-anchor="middle" x="190" y="-354.5" font-family="Helvetica,sans-Serif" font-size="10.00">&#45;api/api/search/DoorSearch.hpp</text>
</g>
<!-- Node1 -->
<g id="node2" class="node"><title>Node1</title>
<g id="a_node2"><a xlink:href="../../d2/da8/MethodHandler_8hpp.html" target="_top" xlink:title="api/MethodHandler.hpp">
<polygon fill="white" stroke="black" points="322.5,-291.5 322.5,-310.5 439.5,-310.5 439.5,-291.5 322.5,-291.5"/>
<text text-anchor="middle" x="381" y="-298.5" font-family="Helvetica,sans-Serif" font-size="10.00">api/MethodHandler.hpp</text>
</a>
</g>
</g>
<!-- Node0&#45;&gt;Node1 -->
<g id="edge1" class="edge"><title>Node0&#45;&gt;Node1</title>
<path fill="none" stroke="midnightblue" d="M235.264,-347.399C268.412,-337.073 312.847,-323.231 343.904,-313.556"/>
<polygon fill="midnightblue" stroke="midnightblue" points="344.98,-316.887 353.487,-310.571 342.898,-310.204 344.98,-316.887"/>
</g>
<!-- Node26 -->
<g id="node27" class="node"><title>Node26</title>
<polygon fill="white" stroke="#bfbfbf" points="3.5,-56.5 3.5,-75.5 56.5,-75.5 56.5,-56.5 3.5,-56.5"/>
<text text-anchor="middle" x="30" y="-63.5" font-family="Helvetica,sans-Serif" font-size="10.00">json.hpp</text>
</g>
<!-- Node0&#45;&gt;Node26 -->
<g id="edge44" class="edge"><title>Node0&#45;&gt;Node26</title>
<path fill="none" stroke="midnightblue" d="M116.269,-347.453C62.8614,-332.507 0,-302.842 0,-246 0,-246 0,-246 0,-188 0,-150.463 13.7698,-108.25 22.6516,-84.9257"/>
<polygon fill="midnightblue" stroke="midnightblue" points="25.9074,-86.2098 26.3214,-75.6231 19.3958,-83.641 25.9074,-86.2098"/>
</g>
<!-- Node2 -->
<g id="node3" class="node"><title>Node2</title>
<g id="a_node3"><a xlink:href="../../de/d95/ActionActionParam_8hpp.html" target="_top" xlink:title="ActionActionParam.hpp">
<polygon fill="white" stroke="black" points="365.5,-235.5 365.5,-254.5 484.5,-254.5 484.5,-235.5 365.5,-235.5"/>
<text text-anchor="middle" x="425" y="-242.5" font-family="Helvetica,sans-Serif" font-size="10.00">ActionActionParam.hpp</text>
</a>
</g>
</g>
<!-- Node1&#45;&gt;Node2 -->
<g id="edge2" class="edge"><title>Node1&#45;&gt;Node2</title>
<path fill="none" stroke="midnightblue" d="M388.266,-291.083C394.545,-283.377 403.788,-272.033 411.431,-262.653"/>
<polygon fill="midnightblue" stroke="midnightblue" points="414.266,-264.714 417.869,-254.751 408.839,-260.293 414.266,-264.714"/>
</g>
<!-- Node3 -->
<g id="node4" class="node"><title>Node3</title>
<g id="a_node4"><a xlink:href="../../d1/d3e/SecurityContext_8hpp.html" target="_top" xlink:title="core/SecurityContext.hpp">
<polygon fill="white" stroke="black" points="551,-179.5 551,-198.5 679,-198.5 679,-179.5 551,-179.5"/>
<text text-anchor="middle" x="615" y="-186.5" font-family="Helvetica,sans-Serif" font-size="10.00">core/SecurityContext.hpp</text>
</a>
</g>
</g>
<!-- Node1&#45;&gt;Node3 -->
<g id="edge39" class="edge"><title>Node1&#45;&gt;Node3</title>
<path fill="none" stroke="midnightblue" d="M404.477,-291.41C427.357,-282.842 462.985,-268.976 493,-255 497.872,-252.731 555.676,-221.804 589.939,-203.441"/>
<polygon fill="midnightblue" stroke="midnightblue" points="591.755,-206.438 598.915,-198.629 588.448,-200.269 591.755,-206.438"/>
</g>
<!-- Node21 -->
<g id="node22" class="node"><title>Node21</title>
<g id="a_node22"><a xlink:href="../../dd/d46/RequestContext_8hpp.html" target="_top" xlink:title="RequestContext.hpp">
<polygon fill="white" stroke="black" points="283.5,-179.5 283.5,-198.5 390.5,-198.5 390.5,-179.5 283.5,-179.5"/>
<text text-anchor="middle" x="337" y="-186.5" font-family="Helvetica,sans-Serif" font-size="10.00">RequestContext.hpp</text>
</a>
</g>
</g>
<!-- Node1&#45;&gt;Node21 -->
<g id="edge29" class="edge"><title>Node1&#45;&gt;Node21</title>
<path fill="none" stroke="midnightblue" d="M375.415,-291.328C369.9,-282.474 361.512,-268.194 356,-255 349.627,-239.745 344.522,-221.636 341.215,-208.411"/>
<polygon fill="midnightblue" stroke="midnightblue" points="344.604,-207.532 338.872,-198.622 337.796,-209.162 344.604,-207.532"/>
</g>
<!-- Node1&#45;&gt;Node26 -->
<g id="edge43" class="edge"><title>Node1&#45;&gt;Node26</title>
<path fill="none" stroke="midnightblue" d="M342.235,-291.449C274.858,-274.635 135.822,-230.996 57,-143 42.5774,-126.899 35.7309,-102.58 32.568,-85.8091"/>
<polygon fill="midnightblue" stroke="midnightblue" points="35.9686,-84.9124 30.9189,-75.5984 29.0581,-86.0285 35.9686,-84.9124"/>
</g>
<!-- Node27 -->
<g id="node28" class="node"><title>Node27</title>
<g id="a_node28"><a xlink:href="../../df/d2f/UserSecurityContext_8hpp.html" target="_top" xlink:title="core/UserSecurityContext.hpp">
<polygon fill="white" stroke="black" points="540.5,-235.5 540.5,-254.5 689.5,-254.5 689.5,-235.5 540.5,-235.5"/>
<text text-anchor="middle" x="615" y="-242.5" font-family="Helvetica,sans-Serif" font-size="10.00">core/UserSecurityContext.hpp</text>
</a>
</g>
</g>
<!-- Node1&#45;&gt;Node27 -->
<g id="edge40" class="edge"><title>Node1&#45;&gt;Node27</title>
<path fill="none" stroke="midnightblue" d="M418.078,-291.444C458.728,-282.063 524.032,-266.993 568.184,-256.804"/>
<polygon fill="midnightblue" stroke="midnightblue" points="569.139,-260.175 578.095,-254.516 567.565,-253.355 569.139,-260.175"/>
</g>
<!-- Node2&#45;&gt;Node3 -->
<g id="edge3" class="edge"><title>Node2&#45;&gt;Node3</title>
<path fill="none" stroke="midnightblue" d="M455.106,-235.444C487.626,-226.201 539.579,-211.436 575.391,-201.257"/>
<polygon fill="midnightblue" stroke="midnightblue" points="576.373,-204.617 585.035,-198.516 574.459,-197.884 576.373,-204.617"/>
</g>
<!-- Node4 -->
<g id="node5" class="node"><title>Node4</title>
<g id="a_node5"><a xlink:href="../../d7/dcf/AuditFwd_8hpp.html" target="_top" xlink:title="core/audit/AuditFwd.hpp">
<polygon fill="white" stroke="black" points="408,-118 408,-137 530,-137 530,-118 408,-118"/>
<text text-anchor="middle" x="469" y="-125" font-family="Helvetica,sans-Serif" font-size="10.00">core/audit/AuditFwd.hpp</text>
</a>
</g>
</g>
<!-- Node3&#45;&gt;Node4 -->
<g id="edge4" class="edge"><title>Node3&#45;&gt;Node4</title>
<path fill="none" stroke="midnightblue" d="M594.082,-179.475C569.254,-169.357 527.657,-152.405 499.306,-140.851"/>
<polygon fill="midnightblue" stroke="midnightblue" points="500.461,-137.542 489.879,-137.009 497.819,-144.024 500.461,-137.542"/>
</g>
<!-- Node9 -->
<g id="node10" class="node"><title>Node9</title>
<g id="a_node10"><a xlink:href="../../d3/d6f/AuthFwd_8hpp.html" target="_top" xlink:title="core/auth/AuthFwd.hpp">
<polygon fill="white" stroke="black" points="820,-118 820,-137 938,-137 938,-118 820,-118"/>
<text text-anchor="middle" x="879" y="-125" font-family="Helvetica,sans-Serif" font-size="10.00">core/auth/AuthFwd.hpp</text>
</a>
</g>
</g>
<!-- Node3&#45;&gt;Node9 -->
<g id="edge9" class="edge"><title>Node3&#45;&gt;Node9</title>
<path fill="none" stroke="midnightblue" d="M652.825,-179.475C699.874,-168.871 780.232,-150.76 831.416,-139.224"/>
<polygon fill="midnightblue" stroke="midnightblue" points="832.26,-142.622 841.245,-137.009 830.721,-135.793 832.26,-142.622"/>
</g>
<!-- Node10 -->
<g id="node11" class="node"><title>Node10</title>
<g id="a_node11"><a xlink:href="../../d7/d7f/CredentialFwd_8hpp.html" target="_top" xlink:title="core/credentials/Credential\lFwd.hpp">
<polygon fill="white" stroke="black" points="548.5,-112.5 548.5,-142.5 681.5,-142.5 681.5,-112.5 548.5,-112.5"/>
<text text-anchor="start" x="556.5" y="-130.5" font-family="Helvetica,sans-Serif" font-size="10.00">core/credentials/Credential</text>
<text text-anchor="middle" x="615" y="-119.5" font-family="Helvetica,sans-Serif" font-size="10.00">Fwd.hpp</text>
</a>
</g>
</g>
<!-- Node3&#45;&gt;Node10 -->
<g id="edge13" class="edge"><title>Node3&#45;&gt;Node10</title>
<path fill="none" stroke="midnightblue" d="M615,-179.475C615,-172.471 615,-162.192 615,-152.696"/>
<polygon fill="midnightblue" stroke="midnightblue" points="618.5,-152.523 615,-142.523 611.5,-152.523 618.5,-152.523"/>
</g>
<!-- Node11 -->
<g id="node12" class="node"><title>Node11</title>
<g id="a_node12"><a xlink:href="../../d9/dc8/HardwareFwd_8hpp.html" target="_top" xlink:title="hardware/HardwareFwd.hpp">
<polygon fill="white" stroke="black" points="956.5,-118 956.5,-137 1095.5,-137 1095.5,-118 956.5,-118"/>
<text text-anchor="middle" x="1026" y="-125" font-family="Helvetica,sans-Serif" font-size="10.00">hardware/HardwareFwd.hpp</text>
</a>
</g>
</g>
<!-- Node3&#45;&gt;Node11 -->
<g id="edge16" class="edge"><title>Node3&#45;&gt;Node11</title>
<path fill="none" stroke="midnightblue" d="M679.087,-180.217C746.048,-171.873 854.09,-157.815 947,-143 954.93,-141.736 963.29,-140.306 971.484,-138.85"/>
<polygon fill="midnightblue" stroke="midnightblue" points="972.138,-142.289 981.359,-137.07 970.896,-135.4 972.138,-142.289"/>
</g>
<!-- Node19 -->
<g id="node20" class="node"><title>Node19</title>
<g id="a_node20"><a xlink:href="../../d8/d97/ToolsFwd_8hpp.html" target="_top" xlink:title="tools/ToolsFwd.hpp">
<polygon fill="white" stroke="black" points="700,-118 700,-137 802,-137 802,-118 700,-118"/>
<text text-anchor="middle" x="751" y="-125" font-family="Helvetica,sans-Serif" font-size="10.00">tools/ToolsFwd.hpp</text>
</a>
</g>
</g>
<!-- Node3&#45;&gt;Node19 -->
<g id="edge24" class="edge"><title>Node3&#45;&gt;Node19</title>
<path fill="none" stroke="midnightblue" d="M634.485,-179.475C657.41,-169.445 695.685,-152.7 722.075,-141.155"/>
<polygon fill="midnightblue" stroke="midnightblue" points="723.792,-144.224 731.551,-137.009 720.986,-137.811 723.792,-144.224"/>
</g>
<!-- Node20 -->
<g id="node21" class="node"><title>Node20</title>
<g id="a_node21"><a xlink:href="../../d9/d69/db__fwd_8hpp.html" target="_top" xlink:title="tools/db/db_fwd.hpp">
<polygon fill="white" stroke="black" points="286,-118 286,-137 390,-137 390,-118 286,-118"/>
<text text-anchor="middle" x="338" y="-125" font-family="Helvetica,sans-Serif" font-size="10.00">tools/db/db_fwd.hpp</text>
</a>
</g>
</g>
<!-- Node3&#45;&gt;Node20 -->
<g id="edge27" class="edge"><title>Node3&#45;&gt;Node20</title>
<path fill="none" stroke="midnightblue" d="M572.301,-179.471C528.673,-170.671 459.006,-156.38 399,-143 393.885,-141.86 388.537,-140.635 383.224,-139.399"/>
<polygon fill="midnightblue" stroke="midnightblue" points="383.656,-135.905 373.121,-137.026 382.056,-142.72 383.656,-135.905"/>
</g>
<!-- Node5 -->
<g id="node6" class="node"><title>Node5</title>
<polygon fill="white" stroke="#bfbfbf" points="765.5,-56.5 765.5,-75.5 814.5,-75.5 814.5,-56.5 765.5,-56.5"/>
<text text-anchor="middle" x="790" y="-63.5" font-family="Helvetica,sans-Serif" font-size="10.00">cstddef</text>
</g>
<!-- Node4&#45;&gt;Node5 -->
<g id="edge5" class="edge"><title>Node4&#45;&gt;Node5</title>
<path fill="none" stroke="midnightblue" d="M509.31,-117.957C519.022,-115.952 529.373,-113.86 539,-112 616.145,-97.0974 706.962,-81.2297 755.417,-72.8977"/>
<polygon fill="midnightblue" stroke="midnightblue" points="756.112,-76.3296 765.376,-71.1887 754.928,-69.4304 756.112,-76.3296"/>
</g>
<!-- Node6 -->
<g id="node7" class="node"><title>Node6</title>
<polygon fill="white" stroke="#bfbfbf" points="397.5,-56.5 397.5,-75.5 462.5,-75.5 462.5,-56.5 397.5,-56.5"/>
<text text-anchor="middle" x="430" y="-63.5" font-family="Helvetica,sans-Serif" font-size="10.00">flagset.hpp</text>
</g>
<!-- Node4&#45;&gt;Node6 -->
<g id="edge6" class="edge"><title>Node4&#45;&gt;Node6</title>
<path fill="none" stroke="midnightblue" d="M463.412,-117.975C457.62,-109.138 448.411,-95.0886 441.126,-83.975"/>
<polygon fill="midnightblue" stroke="midnightblue" points="443.987,-81.9539 435.577,-75.5091 438.132,-85.7913 443.987,-81.9539"/>
</g>
<!-- Node7 -->
<g id="node8" class="node"><title>Node7</title>
<polygon fill="white" stroke="#bfbfbf" points="481,-56.5 481,-75.5 533,-75.5 533,-56.5 481,-56.5"/>
<text text-anchor="middle" x="507" y="-63.5" font-family="Helvetica,sans-Serif" font-size="10.00">memory</text>
</g>
<!-- Node4&#45;&gt;Node7 -->
<g id="edge7" class="edge"><title>Node4&#45;&gt;Node7</title>
<path fill="none" stroke="midnightblue" d="M474.444,-117.975C480.088,-109.138 489.061,-95.0886 496.159,-83.975"/>
<polygon fill="midnightblue" stroke="midnightblue" points="499.133,-85.8208 501.566,-75.5091 493.233,-82.0531 499.133,-85.8208"/>
</g>
<!-- Node8 -->
<g id="node9" class="node"><title>Node8</title>
<polygon fill="white" stroke="#bfbfbf" points="616,-56.5 616,-75.5 702,-75.5 702,-56.5 616,-56.5"/>
<text text-anchor="middle" x="659" y="-63.5" font-family="Helvetica,sans-Serif" font-size="10.00">odb/lazy&#45;ptr.hxx</text>
</g>
<!-- Node4&#45;&gt;Node8 -->
<g id="edge8" class="edge"><title>Node4&#45;&gt;Node8</title>
<path fill="none" stroke="midnightblue" d="M496.222,-117.975C529.237,-107.636 585.04,-90.1611 621.953,-78.6017"/>
<polygon fill="midnightblue" stroke="midnightblue" points="623.331,-81.8377 631.828,-75.5091 621.239,-75.1576 623.331,-81.8377"/>
</g>
<!-- Node9&#45;&gt;Node5 -->
<g id="edge10" class="edge"><title>Node9&#45;&gt;Node5</title>
<path fill="none" stroke="midnightblue" d="M866.248,-117.975C851.973,-108.431 828.603,-92.8073 811.492,-81.3683"/>
<polygon fill="midnightblue" stroke="midnightblue" points="812.986,-78.1572 802.728,-75.5091 809.096,-83.9766 812.986,-78.1572"/>
</g>
<!-- Node9&#45;&gt;Node7 -->
<g id="edge11" class="edge"><title>Node9&#45;&gt;Node7</title>
<path fill="none" stroke="midnightblue" d="M840.961,-117.946C831.218,-115.877 820.741,-113.758 811,-112 714.614,-94.6077 600.142,-79.0194 543.085,-71.5912"/>
<polygon fill="midnightblue" stroke="midnightblue" points="543.483,-68.1136 533.116,-70.3005 542.584,-75.0557 543.483,-68.1136"/>
</g>
<!-- Node9&#45;&gt;Node8 -->
<g id="edge12" class="edge"><title>Node9&#45;&gt;Node8</title>
<path fill="none" stroke="midnightblue" d="M847.479,-117.975C808.761,-107.504 742.976,-89.7118 700.264,-78.1601"/>
<polygon fill="midnightblue" stroke="midnightblue" points="701.029,-74.7413 690.462,-75.5091 699.202,-81.4985 701.029,-74.7413"/>
</g>
<!-- Node10&#45;&gt;Node7 -->
<g id="edge14" class="edge"><title>Node10&#45;&gt;Node7</title>
<path fill="none" stroke="midnightblue" d="M589.406,-112.399C571.932,-102.773 548.912,-90.0902 531.644,-80.5772"/>
<polygon fill="midnightblue" stroke="midnightblue" points="533.163,-77.4177 522.715,-75.6578 529.785,-83.5488 533.163,-77.4177"/>
</g>
<!-- Node10&#45;&gt;Node8 -->
<g id="edge15" class="edge"><title>Node10&#45;&gt;Node8</title>
<path fill="none" stroke="midnightblue" d="M625.427,-112.399C631.755,-103.842 639.869,-92.8708 646.534,-83.857"/>
<polygon fill="midnightblue" stroke="midnightblue" points="649.466,-85.7792 652.598,-75.6578 643.838,-81.6171 649.466,-85.7792"/>
</g>
<!-- Node12 -->
<g id="node13" class="node"><title>Node12</title>
<g id="a_node13"><a xlink:href="../../dc/dea/Uuid_8hpp.html" target="_top" xlink:title="tools/Uuid.hpp">
<polygon fill="white" stroke="black" points="986,-56.5 986,-75.5 1066,-75.5 1066,-56.5 986,-56.5"/>
<text text-anchor="middle" x="1026" y="-63.5" font-family="Helvetica,sans-Serif" font-size="10.00">tools/Uuid.hpp</text>
</a>
</g>
</g>
<!-- Node11&#45;&gt;Node12 -->
<g id="edge17" class="edge"><title>Node11&#45;&gt;Node12</title>
<path fill="none" stroke="midnightblue" d="M1026,-117.975C1026,-109.58 1026,-96.4806 1026,-85.6631"/>
<polygon fill="midnightblue" stroke="midnightblue" points="1029.5,-85.5091 1026,-75.5091 1022.5,-85.5091 1029.5,-85.5091"/>
</g>
<!-- Node13 -->
<g id="node14" class="node"><title>Node13</title>
<polygon fill="white" stroke="#bfbfbf" points="601,-0.5 601,-19.5 715,-19.5 715,-0.5 601,-0.5"/>
<text text-anchor="middle" x="658" y="-7.5" font-family="Helvetica,sans-Serif" font-size="10.00">boost/lexical_cast.hpp</text>
</g>
<!-- Node12&#45;&gt;Node13 -->
<g id="edge18" class="edge"><title>Node12&#45;&gt;Node13</title>
<path fill="none" stroke="midnightblue" d="M985.917,-59.1183C923.252,-49.9228 801.376,-32.0389 725.147,-20.8531"/>
<polygon fill="midnightblue" stroke="midnightblue" points="725.567,-17.3773 715.165,-19.3883 724.551,-24.3032 725.567,-17.3773"/>
</g>
<!-- Node14 -->
<g id="node15" class="node"><title>Node14</title>
<polygon fill="white" stroke="#bfbfbf" points="733.5,-0.5 733.5,-19.5 894.5,-19.5 894.5,-0.5 733.5,-0.5"/>
<text text-anchor="middle" x="814" y="-7.5" font-family="Helvetica,sans-Serif" font-size="10.00">boost/uuid/random_generator.hpp</text>
</g>
<!-- Node12&#45;&gt;Node14 -->
<g id="edge19" class="edge"><title>Node12&#45;&gt;Node14</title>
<path fill="none" stroke="midnightblue" d="M992.408,-56.4435C955.813,-47.1221 897.162,-32.1828 857.174,-21.9972"/>
<polygon fill="midnightblue" stroke="midnightblue" points="857.989,-18.5932 847.435,-19.5164 856.261,-25.3766 857.989,-18.5932"/>
</g>
<!-- Node15 -->
<g id="node16" class="node"><title>Node15</title>
<polygon fill="white" stroke="#bfbfbf" points="912.5,-0.5 912.5,-19.5 1013.5,-19.5 1013.5,-0.5 912.5,-0.5"/>
<text text-anchor="middle" x="963" y="-7.5" font-family="Helvetica,sans-Serif" font-size="10.00">boost/uuid/uuid.hpp</text>
</g>
<!-- Node12&#45;&gt;Node15 -->
<g id="edge20" class="edge"><title>Node12&#45;&gt;Node15</title>
<path fill="none" stroke="midnightblue" d="M1015.88,-56.324C1006.47,-48.2631 992.256,-36.0765 980.931,-26.3695"/>
<polygon fill="midnightblue" stroke="midnightblue" points="983.177,-23.6844 973.306,-19.8339 978.621,-28.9993 983.177,-23.6844"/>
</g>
<!-- Node16 -->
<g id="node17" class="node"><title>Node16</title>
<polygon fill="white" stroke="#bfbfbf" points="1032,-0.5 1032,-19.5 1146,-19.5 1146,-0.5 1032,-0.5"/>
<text text-anchor="middle" x="1089" y="-7.5" font-family="Helvetica,sans-Serif" font-size="10.00">boost/uuid/uuid_io.hpp</text>
</g>
<!-- Node12&#45;&gt;Node16 -->
<g id="edge21" class="edge"><title>Node12&#45;&gt;Node16</title>
<path fill="none" stroke="midnightblue" d="M1036.12,-56.324C1045.53,-48.2631 1059.74,-36.0765 1071.07,-26.3695"/>
<polygon fill="midnightblue" stroke="midnightblue" points="1073.38,-28.9993 1078.69,-19.8339 1068.82,-23.6844 1073.38,-28.9993"/>
</g>
<!-- Node17 -->
<g id="node18" class="node"><title>Node17</title>
<polygon fill="white" stroke="#bfbfbf" points="1164.5,-0.5 1164.5,-19.5 1237.5,-19.5 1237.5,-0.5 1164.5,-0.5"/>
<text text-anchor="middle" x="1201" y="-7.5" font-family="Helvetica,sans-Serif" font-size="10.00">odb/core.hxx</text>
</g>
<!-- Node12&#45;&gt;Node17 -->
<g id="edge22" class="edge"><title>Node12&#45;&gt;Node17</title>
<path fill="none" stroke="midnightblue" d="M1053.73,-56.4435C1083.43,-47.2801 1130.72,-32.6876 1163.67,-22.5192"/>
<polygon fill="midnightblue" stroke="midnightblue" points="1164.88,-25.8094 1173.4,-19.5164 1162.81,-19.1206 1164.88,-25.8094"/>
</g>
<!-- Node18 -->
<g id="node19" class="node"><title>Node18</title>
<polygon fill="white" stroke="#bfbfbf" points="1255.5,-0.5 1255.5,-19.5 1296.5,-19.5 1296.5,-0.5 1255.5,-0.5"/>
<text text-anchor="middle" x="1276" y="-7.5" font-family="Helvetica,sans-Serif" font-size="10.00">string</text>
</g>
<!-- Node12&#45;&gt;Node18 -->
<g id="edge23" class="edge"><title>Node12&#45;&gt;Node18</title>
<path fill="none" stroke="midnightblue" d="M1066.2,-58.0645C1108.61,-50.4708 1177.57,-37.3445 1245.47,-20.2052"/>
<polygon fill="midnightblue" stroke="midnightblue" points="1246.66,-23.5148 1255.48,-17.6475 1244.92,-16.7328 1246.66,-23.5148"/>
</g>
<!-- Node19&#45;&gt;Node7 -->
<g id="edge25" class="edge"><title>Node19&#45;&gt;Node7</title>
<path fill="none" stroke="midnightblue" d="M716.041,-117.975C670.1,-106.772 589.8,-87.1911 543.234,-75.8358"/>
<polygon fill="midnightblue" stroke="midnightblue" points="543.822,-72.3765 533.277,-73.4077 542.163,-79.1773 543.822,-72.3765"/>
</g>
<!-- Node19&#45;&gt;Node8 -->
<g id="edge26" class="edge"><title>Node19&#45;&gt;Node8</title>
<path fill="none" stroke="midnightblue" d="M737.819,-117.975C722.926,-108.343 698.456,-92.5175 680.727,-81.0517"/>
<polygon fill="midnightblue" stroke="midnightblue" points="682.455,-78.0008 672.157,-75.5091 678.653,-83.8787 682.455,-78.0008"/>
</g>
<!-- Node20&#45;&gt;Node7 -->
<g id="edge28" class="edge"><title>Node20&#45;&gt;Node7</title>
<path fill="none" stroke="midnightblue" d="M362.214,-117.975C391.329,-107.725 440.368,-90.4593 473.202,-78.8994"/>
<polygon fill="midnightblue" stroke="midnightblue" points="474.561,-82.1314 482.831,-75.5091 472.237,-75.5287 474.561,-82.1314"/>
</g>
<!-- Node21&#45;&gt;Node4 -->
<g id="edge37" class="edge"><title>Node21&#45;&gt;Node4</title>
<path fill="none" stroke="midnightblue" d="M355.912,-179.475C378.163,-169.445 415.312,-152.7 440.926,-141.155"/>
<polygon fill="midnightblue" stroke="midnightblue" points="442.444,-144.309 450.123,-137.009 439.568,-137.928 442.444,-144.309"/>
</g>
<!-- Node21&#45;&gt;Node20 -->
<g id="edge38" class="edge"><title>Node21&#45;&gt;Node20</title>
<path fill="none" stroke="midnightblue" d="M337.143,-179.475C337.284,-171.08 337.505,-157.981 337.686,-147.163"/>
<polygon fill="midnightblue" stroke="midnightblue" points="341.188,-147.067 337.857,-137.009 334.189,-146.949 341.188,-147.067"/>
</g>
<!-- Node22 -->
<g id="node23" class="node"><title>Node22</title>
<g id="a_node23"><a xlink:href="../../dc/d49/LeosacFwd_8hpp.html" target="_top" xlink:title="LeosacFwd.hpp">
<polygon fill="white" stroke="black" points="182,-118 182,-137 268,-137 268,-118 182,-118"/>
<text text-anchor="middle" x="225" y="-125" font-family="Helvetica,sans-Serif" font-size="10.00">LeosacFwd.hpp</text>
</a>
</g>
</g>
<!-- Node21&#45;&gt;Node22 -->
<g id="edge30" class="edge"><title>Node21&#45;&gt;Node22</title>
<path fill="none" stroke="midnightblue" d="M320.953,-179.475C302.407,-169.622 271.66,-153.288 249.978,-141.77"/>
<polygon fill="midnightblue" stroke="midnightblue" points="251.49,-138.61 241.017,-137.009 248.206,-144.792 251.49,-138.61"/>
</g>
<!-- Node24 -->
<g id="node25" class="node"><title>Node24</title>
<g id="a_node25"><a xlink:href="../../d8/d8b/WebSockFwd_8hpp.html" target="_top" xlink:title="WebSockFwd.hpp">
<polygon fill="white" stroke="black" points="66.5,-118 66.5,-137 163.5,-137 163.5,-118 66.5,-118"/>
<text text-anchor="middle" x="115" y="-125" font-family="Helvetica,sans-Serif" font-size="10.00">WebSockFwd.hpp</text>
</a>
</g>
</g>
<!-- Node21&#45;&gt;Node24 -->
<g id="edge33" class="edge"><title>Node21&#45;&gt;Node24</title>
<path fill="none" stroke="midnightblue" d="M305.193,-179.475C266.123,-169.004 199.74,-151.212 156.639,-139.66"/>
<polygon fill="midnightblue" stroke="midnightblue" points="157.313,-136.217 146.748,-137.009 155.501,-142.979 157.313,-136.217"/>
</g>
<!-- Node22&#45;&gt;Node7 -->
<g id="edge31" class="edge"><title>Node22&#45;&gt;Node7</title>
<path fill="none" stroke="midnightblue" d="M253.764,-117.99C261.292,-115.898 269.422,-113.756 277,-112 359.427,-92.8993 383.624,-94.4992 470.9,-75.8905"/>
<polygon fill="midnightblue" stroke="midnightblue" points="471.662,-79.3067 480.698,-73.7739 470.184,-72.4645 471.662,-79.3067"/>
</g>
<!-- Node23 -->
<g id="node24" class="node"><title>Node23</title>
<polygon fill="white" stroke="#bfbfbf" points="203,-56.5 203,-75.5 247,-75.5 247,-56.5 203,-56.5"/>
<text text-anchor="middle" x="225" y="-63.5" font-family="Helvetica,sans-Serif" font-size="10.00">vector</text>
</g>
<!-- Node22&#45;&gt;Node23 -->
<g id="edge32" class="edge"><title>Node22&#45;&gt;Node23</title>
<path fill="none" stroke="midnightblue" d="M225,-117.975C225,-109.58 225,-96.4806 225,-85.6631"/>
<polygon fill="midnightblue" stroke="midnightblue" points="228.5,-85.5091 225,-75.5091 221.5,-85.5091 228.5,-85.5091"/>
</g>
<!-- Node24&#45;&gt;Node7 -->
<g id="edge36" class="edge"><title>Node24&#45;&gt;Node7</title>
<path fill="none" stroke="midnightblue" d="M146.149,-117.954C154.796,-115.789 164.222,-113.621 173,-112 300.987,-88.3663 338.014,-99.6391 470.6,-75.8229"/>
<polygon fill="midnightblue" stroke="midnightblue" points="471.53,-79.211 480.737,-73.9679 470.27,-72.3253 471.53,-79.211"/>
</g>
<!-- Node25 -->
<g id="node26" class="node"><title>Node25</title>
<polygon fill="white" stroke="#bfbfbf" points="75,-56.5 75,-75.5 171,-75.5 171,-56.5 75,-56.5"/>
<text text-anchor="middle" x="123" y="-63.5" font-family="Helvetica,sans-Serif" font-size="10.00">boost/optional.hpp</text>
</g>
<!-- Node24&#45;&gt;Node25 -->
<g id="edge34" class="edge"><title>Node24&#45;&gt;Node25</title>
<path fill="none" stroke="midnightblue" d="M116.146,-117.975C117.275,-109.58 119.036,-96.4806 120.491,-85.6631"/>
<polygon fill="midnightblue" stroke="midnightblue" points="123.992,-85.8863 121.856,-75.5091 117.055,-84.9535 123.992,-85.8863"/>
</g>
<!-- Node24&#45;&gt;Node26 -->
<g id="edge35" class="edge"><title>Node24&#45;&gt;Node26</title>
<path fill="none" stroke="midnightblue" d="M102.822,-117.975C89.1878,-108.431 66.8676,-92.8073 50.5262,-81.3683"/>
<polygon fill="midnightblue" stroke="midnightblue" points="52.3553,-78.3764 42.1558,-75.5091 48.341,-84.1111 52.3553,-78.3764"/>
</g>
<!-- Node27&#45;&gt;Node3 -->
<g id="edge41" class="edge"><title>Node27&#45;&gt;Node3</title>
<path fill="none" stroke="midnightblue" d="M615,-235.083C615,-228.006 615,-217.861 615,-208.986"/>
<polygon fill="midnightblue" stroke="midnightblue" points="618.5,-208.751 615,-198.751 611.5,-208.751 618.5,-208.751"/>
</g>
<!-- Node27&#45;&gt;Node9 -->
<g id="edge42" class="edge"><title>Node27&#45;&gt;Node9</title>
<path fill="none" stroke="midnightblue" d="M634.843,-235.319C681.014,-215.119 795.822,-164.891 849.922,-141.222"/>
<polygon fill="midnightblue" stroke="midnightblue" points="851.528,-144.339 859.287,-137.124 848.722,-137.926 851.528,-144.339"/>
</g>
</g>
</svg>
