<?xml version="1.0" encoding="UTF-8" standalone="no"?>
<!DOCTYPE svg PUBLIC "-//W3C//DTD SVG 1.1//EN"
 "http://www.w3.org/Graphics/SVG/1.1/DTD/svg11.dtd">
<!-- Generated by graphviz version 2.38.0 (20140413.2041)
 -->
<!-- Title: src/modules/led&#45;buzzer/LedBuzzerImpl.cpp Pages: 1 -->
<!--zoomable 274 -->
<svg id="main" version="1.1" xmlns="http://www.w3.org/2000/svg" xmlns:xlink="http://www.w3.org/1999/xlink" xml:space="preserve" onload="init(evt)">
<style type="text/css"><![CDATA[
.edge:hover path { stroke: red; }
.edge:hover polygon { stroke: red; fill: red; }
]]></style>
<script type="text/javascript"><![CDATA[
var edges = document.getElementsByTagName('g');
if (edges && edges.length) {
  for (var i=0;i<edges.length;i++) {
    if (edges[i].id.substr(0,4)=='edge') {
      edges[i].setAttribute('class','edge');
    }
  }
}
]]></script>
        <defs>
                <circle id="rim" cx="0" cy="0" r="7"/>
                <circle id="rim2" cx="0" cy="0" r="3.5"/>
                <g id="zoomPlus">
                        <use xlink:href="#rim" fill="#404040">
                                <set attributeName="fill" to="#808080" begin="zoomplus.mouseover" end="zoomplus.mouseout"/>
                        </use>
                        <path d="M-4,0h8M0,-4v8" fill="none" stroke="white" stroke-width="1.5" pointer-events="none"/>
                </g>
                <g id="zoomMin">
                        <use xlink:href="#rim" fill="#404040">
                                <set attributeName="fill" to="#808080" begin="zoomminus.mouseover" end="zoomminus.mouseout"/>
                        </use>
                        <path d="M-4,0h8" fill="none" stroke="white" stroke-width="1.5" pointer-events="none"/>
                </g>
                <g id="dirArrow">
                        <path fill="none" stroke="white" stroke-width="1.5" d="M0,-3.0v7 M-2.5,-0.5L0,-3.0L2.5,-0.5"/>
                </g>
               <g id="resetDef">
                       <use xlink:href="#rim2" fill="#404040">
                               <set attributeName="fill" to="#808080" begin="reset.mouseover" end="reset.mouseout"/>
                       </use>
               </g>
        </defs>

<script type="text/javascript">
var viewWidth = 966;
var viewHeight = 274;
var sectionId = 'dynsection-0';
</script>
<script xlink:href="../../svgpan.js"/>
<svg id="graph" class="graph">
<g id="viewport">
<title>src/modules/led&#45;buzzer/LedBuzzerImpl.cpp</title>
<polygon fill="white" stroke="none" points="-4,4 -4,-270 962.347,-270 962.347,4 -4,4"/>
<!-- Node0 -->
<g id="node1" class="node"><title>Node0</title>
<polygon fill="#bfbfbf" stroke="black" points="512.847,-235.5 512.847,-265.5 630.847,-265.5 630.847,-235.5 512.847,-235.5"/>
<text text-anchor="start" x="520.847" y="-253.5" font-family="Helvetica,sans-Serif" font-size="10.00">src/modules/led&#45;buzzer</text>
<text text-anchor="middle" x="571.847" y="-242.5" font-family="Helvetica,sans-Serif" font-size="10.00">/LedBuzzerImpl.cpp</text>
</g>
<!-- Node1 -->
<g id="node2" class="node"><title>Node1</title>
<g id="a_node2"><a xlink:href="../../d1/d1e/LedBuzzerImpl_8hpp.html" target="_top" xlink:title="LedBuzzerImpl.hpp">
<polygon fill="white" stroke="black" points="296.347,-179.5 296.347,-198.5 397.347,-198.5 397.347,-179.5 296.347,-179.5"/>
<text text-anchor="middle" x="346.847" y="-186.5" font-family="Helvetica,sans-Serif" font-size="10.00">LedBuzzerImpl.hpp</text>
</a>
</g>
</g>
<!-- Node0&#45;&gt;Node1 -->
<g id="edge1" class="edge"><title>Node0&#45;&gt;Node1</title>
<path fill="none" stroke="midnightblue" d="M518.81,-235.475C479.146,-224.986 425.642,-210.837 388.905,-201.122"/>
<polygon fill="midnightblue" stroke="midnightblue" points="389.577,-197.679 379.014,-198.506 387.787,-204.447 389.577,-197.679"/>
</g>
<!-- Node9 -->
<g id="node10" class="node"><title>Node9</title>
<g id="a_node10"><a xlink:href="../../d4/d3d/log_8hpp.html" target="_top" xlink:title="tools/log.hpp">
<polygon fill="white" stroke="black" points="741.847,-62 741.847,-81 813.847,-81 813.847,-62 741.847,-62"/>
<text text-anchor="middle" x="777.847" y="-69" font-family="Helvetica,sans-Serif" font-size="10.00">tools/log.hpp</text>
</a>
</g>
</g>
<!-- Node0&#45;&gt;Node9 -->
<g id="edge27" class="edge"><title>Node0&#45;&gt;Node9</title>
<path fill="none" stroke="midnightblue" d="M588.357,-235.315C626.347,-202.673 719.736,-122.43 759.471,-88.2888"/>
<polygon fill="midnightblue" stroke="midnightblue" points="762.215,-90.5458 767.519,-81.3741 757.653,-85.2364 762.215,-90.5458"/>
</g>
<!-- Node2 -->
<g id="node3" class="node"><title>Node2</title>
<g id="a_node3"><a xlink:href="../../d7/d6e/LedBuzzerSM_8hpp.html" target="_top" xlink:title="LedBuzzerSM.hpp">
<polygon fill="white" stroke="black" points="356.347,-123.5 356.347,-142.5 453.347,-142.5 453.347,-123.5 356.347,-123.5"/>
<text text-anchor="middle" x="404.847" y="-130.5" font-family="Helvetica,sans-Serif" font-size="10.00">LedBuzzerSM.hpp</text>
</a>
</g>
</g>
<!-- Node1&#45;&gt;Node2 -->
<g id="edge2" class="edge"><title>Node1&#45;&gt;Node2</title>
<path fill="none" stroke="midnightblue" d="M356.166,-179.324C364.74,-171.341 377.659,-159.313 388.035,-149.653"/>
<polygon fill="midnightblue" stroke="midnightblue" points="390.425,-152.21 395.359,-142.834 385.655,-147.086 390.425,-152.21"/>
</g>
<!-- Node3 -->
<g id="node4" class="node"><title>Node3</title>
<g id="a_node4"><a xlink:href="../../de/df0/FGPIO_8hpp.html" target="_top" xlink:title="hardware/facades/FGPIO.hpp">
<polygon fill="white" stroke="black" points="14.8472,-62 14.8472,-81 160.847,-81 160.847,-62 14.8472,-62"/>
<text text-anchor="middle" x="87.8472" y="-69" font-family="Helvetica,sans-Serif" font-size="10.00">hardware/facades/FGPIO.hpp</text>
</a>
</g>
</g>
<!-- Node1&#45;&gt;Node3 -->
<g id="edge23" class="edge"><title>Node1&#45;&gt;Node3</title>
<path fill="none" stroke="midnightblue" d="M323.269,-179.422C299.858,-170.754 263.054,-156.717 231.847,-143 189.722,-124.484 141.954,-100.483 113.397,-85.8023"/>
<polygon fill="midnightblue" stroke="midnightblue" points="114.977,-82.6788 104.485,-81.2024 111.766,-88.8991 114.977,-82.6788"/>
</g>
<!-- Node4 -->
<g id="node5" class="node"><title>Node4</title>
<polygon fill="white" stroke="#bfbfbf" points="64.8472,-0.5 64.8472,-19.5 110.847,-19.5 110.847,-0.5 64.8472,-0.5"/>
<text text-anchor="middle" x="87.8472" y="-7.5" font-family="Helvetica,sans-Serif" font-size="10.00">chrono</text>
</g>
<!-- Node1&#45;&gt;Node4 -->
<g id="edge25" class="edge"><title>Node1&#45;&gt;Node4</title>
<path fill="none" stroke="midnightblue" d="M296.124,-180.511C209.857,-166.618 40.5117,-133.934 5.84718,-87 -2.33823,-75.9173 -1.17072,-67.8565 5.84718,-56 16.4554,-38.0778 37.0148,-26.8188 54.8924,-20.0449"/>
<polygon fill="midnightblue" stroke="midnightblue" points="56.1639,-23.3086 64.4682,-16.7292 53.8735,-16.6939 56.1639,-23.3086"/>
</g>
<!-- Node1&#45;&gt;Node9 -->
<g id="edge24" class="edge"><title>Node1&#45;&gt;Node9</title>
<path fill="none" stroke="midnightblue" d="M381.776,-179.444C449.557,-162.707 603.544,-124.027 731.847,-87 735.166,-86.0423 738.609,-85.0167 742.051,-83.97"/>
<polygon fill="midnightblue" stroke="midnightblue" points="743.123,-87.3021 751.642,-81.0032 741.055,-80.6148 743.123,-87.3021"/>
</g>
<!-- Node18 -->
<g id="node19" class="node"><title>Node18</title>
<polygon fill="white" stroke="#bfbfbf" points="241.347,-123.5 241.347,-142.5 338.347,-142.5 338.347,-123.5 241.347,-123.5"/>
<text text-anchor="middle" x="289.847" y="-130.5" font-family="Helvetica,sans-Serif" font-size="10.00">zmqpp/zmqpp.hpp</text>
</g>
<!-- Node1&#45;&gt;Node18 -->
<g id="edge26" class="edge"><title>Node1&#45;&gt;Node18</title>
<path fill="none" stroke="midnightblue" d="M337.689,-179.324C329.346,-171.42 316.815,-159.548 306.67,-149.938"/>
<polygon fill="midnightblue" stroke="midnightblue" points="308.839,-147.171 299.172,-142.834 304.024,-152.252 308.839,-147.171"/>
</g>
<!-- Node2&#45;&gt;Node3 -->
<g id="edge3" class="edge"><title>Node2&#45;&gt;Node3</title>
<path fill="none" stroke="midnightblue" d="M359.429,-123.475C302.345,-112.761 204.429,-94.3821 143.075,-82.8661"/>
<polygon fill="midnightblue" stroke="midnightblue" points="143.655,-79.414 133.181,-81.0091 142.364,-86.2939 143.655,-79.414"/>
</g>
<!-- Node8 -->
<g id="node9" class="node"><title>Node8</title>
<g id="a_node9"><a xlink:href="../../d3/dbd/FLED_8hpp.html" target="_top" xlink:title="hardware/facades/FLED.hpp">
<polygon fill="white" stroke="black" points="443.347,-62 443.347,-81 584.347,-81 584.347,-62 443.347,-62"/>
<text text-anchor="middle" x="513.847" y="-69" font-family="Helvetica,sans-Serif" font-size="10.00">hardware/facades/FLED.hpp</text>
</a>
</g>
</g>
<!-- Node2&#45;&gt;Node8 -->
<g id="edge8" class="edge"><title>Node2&#45;&gt;Node8</title>
<path fill="none" stroke="midnightblue" d="M420.464,-123.475C438.433,-113.666 468.169,-97.4346 489.254,-85.925"/>
<polygon fill="midnightblue" stroke="midnightblue" points="491.159,-88.8726 498.259,-81.0091 487.805,-82.7284 491.159,-88.8726"/>
</g>
<!-- Node2&#45;&gt;Node9 -->
<g id="edge13" class="edge"><title>Node2&#45;&gt;Node9</title>
<path fill="none" stroke="midnightblue" d="M453.506,-127.888C517.79,-121.869 634.282,-108.926 731.847,-87 735.689,-86.1365 739.673,-85.1009 743.615,-83.9856"/>
<polygon fill="midnightblue" stroke="midnightblue" points="744.656,-87.3276 753.228,-81.1015 742.644,-80.6228 744.656,-87.3276"/>
</g>
<!-- Node15 -->
<g id="node16" class="node"><title>Node15</title>
<polygon fill="white" stroke="#bfbfbf" points="310.847,-56.5 310.847,-86.5 424.847,-86.5 424.847,-56.5 310.847,-56.5"/>
<text text-anchor="start" x="318.847" y="-74.5" font-family="Helvetica,sans-Serif" font-size="10.00">boost/msm/back/state</text>
<text text-anchor="middle" x="367.847" y="-63.5" font-family="Helvetica,sans-Serif" font-size="10.00">_machine.hpp</text>
</g>
<!-- Node2&#45;&gt;Node15 -->
<g id="edge20" class="edge"><title>Node2&#45;&gt;Node15</title>
<path fill="none" stroke="midnightblue" d="M399.546,-123.475C394.956,-116.094 388.105,-105.077 381.945,-95.1714"/>
<polygon fill="midnightblue" stroke="midnightblue" points="384.82,-93.1667 376.567,-86.523 378.876,-96.8632 384.82,-93.1667"/>
</g>
<!-- Node16 -->
<g id="node17" class="node"><title>Node16</title>
<polygon fill="white" stroke="#bfbfbf" points="602.347,-56.5 602.347,-86.5 723.347,-86.5 723.347,-56.5 602.347,-56.5"/>
<text text-anchor="start" x="610.347" y="-74.5" font-family="Helvetica,sans-Serif" font-size="10.00">boost/msm/front/functor</text>
<text text-anchor="middle" x="662.847" y="-63.5" font-family="Helvetica,sans-Serif" font-size="10.00">_row.hpp</text>
</g>
<!-- Node2&#45;&gt;Node16 -->
<g id="edge21" class="edge"><title>Node2&#45;&gt;Node16</title>
<path fill="none" stroke="midnightblue" d="M441.812,-123.475C480.918,-114.456 543.57,-100.008 592.202,-88.7921"/>
<polygon fill="midnightblue" stroke="midnightblue" points="593.084,-92.1807 602.042,-86.523 591.511,-85.3598 593.084,-92.1807"/>
</g>
<!-- Node17 -->
<g id="node18" class="node"><title>Node17</title>
<polygon fill="white" stroke="#bfbfbf" points="179.347,-56.5 179.347,-86.5 292.347,-86.5 292.347,-56.5 179.347,-56.5"/>
<text text-anchor="start" x="187.347" y="-74.5" font-family="Helvetica,sans-Serif" font-size="10.00">boost/msm/front/state</text>
<text text-anchor="middle" x="235.847" y="-63.5" font-family="Helvetica,sans-Serif" font-size="10.00">_machine_def.hpp</text>
</g>
<!-- Node2&#45;&gt;Node17 -->
<g id="edge22" class="edge"><title>Node2&#45;&gt;Node17</title>
<path fill="none" stroke="midnightblue" d="M380.634,-123.475C355.82,-114.739 316.533,-100.907 285.141,-89.855"/>
<polygon fill="midnightblue" stroke="midnightblue" points="286.272,-86.5426 275.677,-86.523 283.947,-93.1453 286.272,-86.5426"/>
</g>
<!-- Node3&#45;&gt;Node4 -->
<g id="edge4" class="edge"><title>Node3&#45;&gt;Node4</title>
<path fill="none" stroke="midnightblue" d="M87.8472,-61.9751C87.8472,-53.5803 87.8472,-40.4806 87.8472,-29.6631"/>
<polygon fill="midnightblue" stroke="midnightblue" points="91.3473,-29.5091 87.8472,-19.5091 84.3473,-29.5091 91.3473,-29.5091"/>
</g>
<!-- Node5 -->
<g id="node6" class="node"><title>Node5</title>
<polygon fill="white" stroke="#bfbfbf" points="493.347,-0.5 493.347,-19.5 534.347,-19.5 534.347,-0.5 493.347,-0.5"/>
<text text-anchor="middle" x="513.847" y="-7.5" font-family="Helvetica,sans-Serif" font-size="10.00">string</text>
</g>
<!-- Node3&#45;&gt;Node5 -->
<g id="edge5" class="edge"><title>Node3&#45;&gt;Node5</title>
<path fill="none" stroke="midnightblue" d="M133.756,-61.9924C145.504,-59.9225 158.129,-57.7911 169.847,-56 293.44,-37.1094 324.923,-36.5742 448.847,-20 459.941,-18.5162 472.094,-16.8457 482.859,-15.3503"/>
<polygon fill="midnightblue" stroke="midnightblue" points="483.649,-18.7741 493.07,-13.9268 482.682,-11.8412 483.649,-18.7741"/>
</g>
<!-- Node6 -->
<g id="node7" class="node"><title>Node6</title>
<polygon fill="white" stroke="#bfbfbf" points="349.347,-0.5 349.347,-19.5 440.347,-19.5 440.347,-0.5 349.347,-0.5"/>
<text text-anchor="middle" x="394.847" y="-7.5" font-family="Helvetica,sans-Serif" font-size="10.00">zmqpp/poller.hpp</text>
</g>
<!-- Node3&#45;&gt;Node6 -->
<g id="edge6" class="edge"><title>Node3&#45;&gt;Node6</title>
<path fill="none" stroke="midnightblue" d="M131.833,-61.9751C187.002,-51.2827 281.552,-32.9578 340.994,-21.4374"/>
<polygon fill="midnightblue" stroke="midnightblue" points="341.792,-24.8479 350.943,-19.5091 340.46,-17.9758 341.792,-24.8479"/>
</g>
<!-- Node7 -->
<g id="node8" class="node"><title>Node7</title>
<polygon fill="white" stroke="#bfbfbf" points="164.347,-0.5 164.347,-19.5 261.347,-19.5 261.347,-0.5 164.347,-0.5"/>
<text text-anchor="middle" x="212.847" y="-7.5" font-family="Helvetica,sans-Serif" font-size="10.00">zmqpp/socket.hpp</text>
</g>
<!-- Node3&#45;&gt;Node7 -->
<g id="edge7" class="edge"><title>Node3&#45;&gt;Node7</title>
<path fill="none" stroke="midnightblue" d="M105.757,-61.9751C126.734,-51.9897 161.697,-35.3476 185.941,-23.8075"/>
<polygon fill="midnightblue" stroke="midnightblue" points="187.446,-26.9673 194.971,-19.5091 184.437,-20.6468 187.446,-26.9673"/>
</g>
<!-- Node8&#45;&gt;Node4 -->
<g id="edge9" class="edge"><title>Node8&#45;&gt;Node4</title>
<path fill="none" stroke="midnightblue" d="M469.065,-61.9677C457.603,-59.8983 445.285,-57.7733 433.847,-56 310.295,-36.8448 278.805,-36.3227 154.847,-20 143.938,-18.5635 132.034,-16.9722 121.326,-15.532"/>
<polygon fill="midnightblue" stroke="midnightblue" points="121.477,-12.0207 111.099,-14.1536 120.542,-18.958 121.477,-12.0207"/>
</g>
<!-- Node8&#45;&gt;Node5 -->
<g id="edge10" class="edge"><title>Node8&#45;&gt;Node5</title>
<path fill="none" stroke="midnightblue" d="M513.847,-61.9751C513.847,-53.5803 513.847,-40.4806 513.847,-29.6631"/>
<polygon fill="midnightblue" stroke="midnightblue" points="517.347,-29.5091 513.847,-19.5091 510.347,-29.5091 517.347,-29.5091"/>
</g>
<!-- Node8&#45;&gt;Node6 -->
<g id="edge11" class="edge"><title>Node8&#45;&gt;Node6</title>
<path fill="none" stroke="midnightblue" d="M496.797,-61.9751C477.003,-52.078 444.13,-35.6416 421.077,-24.1151"/>
<polygon fill="midnightblue" stroke="midnightblue" points="422.375,-20.8508 411.865,-19.5091 419.244,-27.1118 422.375,-20.8508"/>
</g>
<!-- Node8&#45;&gt;Node7 -->
<g id="edge12" class="edge"><title>Node8&#45;&gt;Node7</title>
<path fill="none" stroke="midnightblue" d="M470.721,-61.9751C416.742,-51.3048 324.311,-33.0335 266.01,-21.5089"/>
<polygon fill="midnightblue" stroke="midnightblue" points="266.382,-18.0148 255.893,-19.5091 265.025,-24.8819 266.382,-18.0148"/>
</g>
<!-- Node9&#45;&gt;Node5 -->
<g id="edge19" class="edge"><title>Node9&#45;&gt;Node5</title>
<path fill="none" stroke="midnightblue" d="M752.192,-61.9055C745.6,-59.8372 738.492,-57.7284 731.847,-56 665.648,-38.7816 586.777,-23.8611 544.402,-16.2921"/>
<polygon fill="midnightblue" stroke="midnightblue" points="544.902,-12.8263 534.445,-14.5292 543.682,-19.7191 544.902,-12.8263"/>
</g>
<!-- Node10 -->
<g id="node11" class="node"><title>Node10</title>
<polygon fill="white" stroke="#bfbfbf" points="909.347,-0.5 909.347,-19.5 958.347,-19.5 958.347,-0.5 909.347,-0.5"/>
<text text-anchor="middle" x="933.847" y="-7.5" font-family="Helvetica,sans-Serif" font-size="10.00">cassert</text>
</g>
<!-- Node9&#45;&gt;Node10 -->
<g id="edge14" class="edge"><title>Node9&#45;&gt;Node10</title>
<path fill="none" stroke="midnightblue" d="M800.198,-61.9751C826.842,-51.8129 871.561,-34.7564 901.862,-23.1996"/>
<polygon fill="midnightblue" stroke="midnightblue" points="903.441,-26.343 911.538,-19.5091 900.947,-19.8026 903.441,-26.343"/>
</g>
<!-- Node11 -->
<g id="node12" class="node"><title>Node11</title>
<polygon fill="white" stroke="#bfbfbf" points="597.347,-0.5 597.347,-19.5 644.347,-19.5 644.347,-0.5 597.347,-0.5"/>
<text text-anchor="middle" x="620.847" y="-7.5" font-family="Helvetica,sans-Serif" font-size="10.00">csignal</text>
</g>
<!-- Node9&#45;&gt;Node11 -->
<g id="edge15" class="edge"><title>Node9&#45;&gt;Node11</title>
<path fill="none" stroke="midnightblue" d="M755.353,-61.9751C728.538,-51.8129 683.532,-34.7564 653.038,-23.1996"/>
<polygon fill="midnightblue" stroke="midnightblue" points="653.891,-19.7801 643.3,-19.5091 651.41,-26.3258 653.891,-19.7801"/>
</g>
<!-- Node12 -->
<g id="node13" class="node"><title>Node12</title>
<polygon fill="white" stroke="#bfbfbf" points="662.847,-0.5 662.847,-19.5 716.847,-19.5 716.847,-0.5 662.847,-0.5"/>
<text text-anchor="middle" x="689.847" y="-7.5" font-family="Helvetica,sans-Serif" font-size="10.00">iostream</text>
</g>
<!-- Node9&#45;&gt;Node12 -->
<g id="edge16" class="edge"><title>Node9&#45;&gt;Node12</title>
<path fill="none" stroke="midnightblue" d="M765.239,-61.9751C751.124,-52.4315 728.016,-36.8073 711.098,-25.3683"/>
<polygon fill="midnightblue" stroke="midnightblue" points="712.677,-22.2109 702.432,-19.5091 708.756,-28.0098 712.677,-22.2109"/>
</g>
<!-- Node13 -->
<g id="node14" class="node"><title>Node13</title>
<polygon fill="white" stroke="#bfbfbf" points="735.347,-0.5 735.347,-19.5 820.347,-19.5 820.347,-0.5 735.347,-0.5"/>
<text text-anchor="middle" x="777.847" y="-7.5" font-family="Helvetica,sans-Serif" font-size="10.00">spdlog/spdlog.h</text>
</g>
<!-- Node9&#45;&gt;Node13 -->
<g id="edge17" class="edge"><title>Node9&#45;&gt;Node13</title>
<path fill="none" stroke="midnightblue" d="M777.847,-61.9751C777.847,-53.5803 777.847,-40.4806 777.847,-29.6631"/>
<polygon fill="midnightblue" stroke="midnightblue" points="781.347,-29.5091 777.847,-19.5091 774.347,-29.5091 781.347,-29.5091"/>
</g>
<!-- Node14 -->
<g id="node15" class="node"><title>Node14</title>
<polygon fill="white" stroke="#bfbfbf" points="838.847,-0.5 838.847,-19.5 890.847,-19.5 890.847,-0.5 838.847,-0.5"/>
<text text-anchor="middle" x="864.847" y="-7.5" font-family="Helvetica,sans-Serif" font-size="10.00">sstream</text>
</g>
<!-- Node9&#45;&gt;Node14 -->
<g id="edge18" class="edge"><title>Node9&#45;&gt;Node14</title>
<path fill="none" stroke="midnightblue" d="M790.312,-61.9751C804.267,-52.4315 827.112,-36.8073 843.838,-25.3683"/>
<polygon fill="midnightblue" stroke="midnightblue" points="846.127,-28.0433 852.405,-19.5091 842.175,-22.2653 846.127,-28.0433"/>
</g>
</g>
</svg>
        <g id="navigator" transform="translate(0 0)" fill="#404254">
                <rect fill="#f2f5e9" fill-opacity="0.5" stroke="#606060" stroke-width=".5" x="0" y="0" width="60" height="60"/>
                <use id="zoomplus" xlink:href="#zoomPlus" x="17" y="9" onmousedown="handleZoom(evt,'in')"/>
                <use id="zoomminus" xlink:href="#zoomMin" x="42" y="9" onmousedown="handleZoom(evt,'out')"/>
                <use id="reset" xlink:href="#resetDef" x="30" y="36" onmousedown="handleReset()"/>
                <g id="arrowUp" xlink:href="#dirArrow" transform="translate(30 24)" onmousedown="handlePan(0,-1)">
                  <use xlink:href="#rim" fill="#404040">
                        <set attributeName="fill" to="#808080" begin="arrowUp.mouseover" end="arrowUp.mouseout"/>
                  </use>
                  <path fill="none" stroke="white" stroke-width="1.5" d="M0,-3.0v7 M-2.5,-0.5L0,-3.0L2.5,-0.5"/>
                </g>
                <g id="arrowRight" xlink:href="#dirArrow" transform="rotate(90) translate(36 -43)" onmousedown="handlePan(1,0)">
                  <use xlink:href="#rim" fill="#404040">
                        <set attributeName="fill" to="#808080" begin="arrowRight.mouseover" end="arrowRight.mouseout"/>
                  </use>
                  <path fill="none" stroke="white" stroke-width="1.5" d="M0,-3.0v7 M-2.5,-0.5L0,-3.0L2.5,-0.5"/>
                </g>
                <g id="arrowDown" xlink:href="#dirArrow" transform="rotate(180) translate(-30 -48)" onmousedown="handlePan(0,1)">
                  <use xlink:href="#rim" fill="#404040">
                        <set attributeName="fill" to="#808080" begin="arrowDown.mouseover" end="arrowDown.mouseout"/>
                  </use>
                  <path fill="none" stroke="white" stroke-width="1.5" d="M0,-3.0v7 M-2.5,-0.5L0,-3.0L2.5,-0.5"/>
                </g>
                <g id="arrowLeft" xlink:href="#dirArrow" transform="rotate(270) translate(-36 17)" onmousedown="handlePan(-1,0)">
                  <use xlink:href="#rim" fill="#404040">
                        <set attributeName="fill" to="#808080" begin="arrowLeft.mouseover" end="arrowLeft.mouseout"/>
                  </use>
                  <path fill="none" stroke="white" stroke-width="1.5" d="M0,-3.0v7 M-2.5,-0.5L0,-3.0L2.5,-0.5"/>
                </g>
        </g>
        <svg viewBox="0 0 15 15" width="100%" height="30px" preserveAspectRatio="xMaxYMin meet">
         <g id="arrow_out" transform="scale(0.3 0.3)">
          <a xlink:href="LedBuzzerImpl_8cpp__incl_org.svg" target="_base">
           <rect id="button" ry="5" rx="5" y="6" x="6" height="38" width="38"
                fill="#f2f5e9" fill-opacity="0.5" stroke="#606060" stroke-width="1.0"/>
           <path id="arrow"
             d="M 11.500037,31.436501 C 11.940474,20.09759 22.043105,11.32322 32.158766,21.979434 L 37.068811,17.246167 C 37.068811,17.246167 37.088388,32 37.088388,32 L 22.160133,31.978069 C 22.160133,31.978069 26.997745,27.140456 26.997745,27.140456 C 18.528582,18.264221 13.291696,25.230495 11.500037,31.436501 z"
             style="fill:#404040;"/>
          </a>
         </g>
        </svg>
</svg>
