<?xml version="1.0" encoding="UTF-8" standalone="no"?>
<!DOCTYPE svg PUBLIC "-//W3C//DTD SVG 1.1//EN"
 "http://www.w3.org/Graphics/SVG/1.1/DTD/svg11.dtd">
<!-- Generated by graphviz version 2.38.0 (20140413.2041)
 -->
<!-- Title: src/core/tasks/Task.cpp Pages: 1 -->
<svg width="767pt" height="140pt"
 viewBox="0.00 0.00 767.00 140.00" xmlns="http://www.w3.org/2000/svg" xmlns:xlink="http://www.w3.org/1999/xlink">
<g id="graph0" class="graph" transform="scale(1 1) rotate(0) translate(4 136)">
<title>src/core/tasks/Task.cpp</title>
<polygon fill="white" stroke="none" points="-4,4 -4,-136 763,-136 763,4 -4,4"/>
<!-- Node0 -->
<g id="node1" class="node"><title>Node0</title>
<polygon fill="#bfbfbf" stroke="black" points="253,-112.5 253,-131.5 375,-131.5 375,-112.5 253,-112.5"/>
<text text-anchor="middle" x="314" y="-119.5" font-family="Helvetica,sans-Serif" font-size="10.00">src/core/tasks/Task.cpp</text>
</g>
<!-- Node1 -->
<g id="node2" class="node"><title>Node1</title>
<g id="a_node2"><a xlink:href="../../d8/d91/Task_8hpp.html" target="_top" xlink:title="Task.hpp">
<polygon fill="white" stroke="black" points="91.5,-56.5 91.5,-75.5 148.5,-75.5 148.5,-56.5 91.5,-56.5"/>
<text text-anchor="middle" x="120" y="-63.5" font-family="Helvetica,sans-Serif" font-size="10.00">Task.hpp</text>
</a>
</g>
</g>
<!-- Node0&#45;&gt;Node1 -->
<g id="edge1" class="edge"><title>Node0&#45;&gt;Node1</title>
<path fill="none" stroke="midnightblue" d="M283.26,-112.444C249.47,-103.038 195.131,-87.9127 158.522,-77.7227"/>
<polygon fill="midnightblue" stroke="midnightblue" points="159.271,-74.2981 148.699,-74.9883 157.394,-81.0418 159.271,-74.2981"/>
</g>
<!-- Node5 -->
<g id="node6" class="node"><title>Node5</title>
<g id="a_node6"><a xlink:href="../../dc/dbd/ExceptionsTools_8hpp.html" target="_top" xlink:title="exception/ExceptionsTools.hpp">
<polygon fill="white" stroke="black" points="168.5,-56.5 168.5,-75.5 321.5,-75.5 321.5,-56.5 168.5,-56.5"/>
<text text-anchor="middle" x="245" y="-63.5" font-family="Helvetica,sans-Serif" font-size="10.00">exception/ExceptionsTools.hpp</text>
</a>
</g>
</g>
<!-- Node0&#45;&gt;Node5 -->
<g id="edge5" class="edge"><title>Node0&#45;&gt;Node5</title>
<path fill="none" stroke="midnightblue" d="M302.914,-112.324C292.514,-104.185 276.739,-91.8395 264.278,-82.0874"/>
<polygon fill="midnightblue" stroke="midnightblue" points="266.32,-79.2407 256.288,-75.8339 262.006,-84.7533 266.32,-79.2407"/>
</g>
<!-- Node7 -->
<g id="node8" class="node"><title>Node7</title>
<g id="a_node8"><a xlink:href="../../d8/d1f/GenGuid_8h.html" target="_top" xlink:title="tools/GenGuid.h">
<polygon fill="white" stroke="black" points="339.5,-56.5 339.5,-75.5 426.5,-75.5 426.5,-56.5 339.5,-56.5"/>
<text text-anchor="middle" x="383" y="-63.5" font-family="Helvetica,sans-Serif" font-size="10.00">tools/GenGuid.h</text>
</a>
</g>
</g>
<!-- Node0&#45;&gt;Node7 -->
<g id="edge7" class="edge"><title>Node0&#45;&gt;Node7</title>
<path fill="none" stroke="midnightblue" d="M325.086,-112.324C335.486,-104.185 351.261,-91.8395 363.722,-82.0874"/>
<polygon fill="midnightblue" stroke="midnightblue" points="365.994,-84.7533 371.712,-75.8339 361.68,-79.2407 365.994,-84.7533"/>
</g>
<!-- Node9 -->
<g id="node10" class="node"><title>Node9</title>
<g id="a_node10"><a xlink:href="../../d4/d3d/log_8hpp.html" target="_top" xlink:title="tools/log.hpp">
<polygon fill="white" stroke="black" points="453,-56.5 453,-75.5 525,-75.5 525,-56.5 453,-56.5"/>
<text text-anchor="middle" x="489" y="-63.5" font-family="Helvetica,sans-Serif" font-size="10.00">tools/log.hpp</text>
</a>
</g>
</g>
<!-- Node0&#45;&gt;Node9 -->
<g id="edge9" class="edge"><title>Node0&#45;&gt;Node9</title>
<path fill="none" stroke="midnightblue" d="M341.729,-112.444C371.426,-103.28 418.716,-88.6876 451.669,-78.5192"/>
<polygon fill="midnightblue" stroke="midnightblue" points="452.877,-81.8094 461.4,-75.5164 450.813,-75.1206 452.877,-81.8094"/>
</g>
<!-- Node2 -->
<g id="node3" class="node"><title>Node2</title>
<polygon fill="white" stroke="#bfbfbf" points="0,-0.5 0,-19.5 46,-19.5 46,-0.5 0,-0.5"/>
<text text-anchor="middle" x="23" y="-7.5" font-family="Helvetica,sans-Serif" font-size="10.00">atomic</text>
</g>
<!-- Node1&#45;&gt;Node2 -->
<g id="edge2" class="edge"><title>Node1&#45;&gt;Node2</title>
<path fill="none" stroke="midnightblue" d="M104.415,-56.324C89.0009,-47.7428 65.1878,-34.486 47.2903,-24.5224"/>
<polygon fill="midnightblue" stroke="midnightblue" points="48.9858,-21.4606 38.5461,-19.6545 45.5809,-27.5767 48.9858,-21.4606"/>
</g>
<!-- Node3 -->
<g id="node4" class="node"><title>Node3</title>
<polygon fill="white" stroke="#bfbfbf" points="64.5,-0.5 64.5,-19.5 159.5,-19.5 159.5,-0.5 64.5,-0.5"/>
<text text-anchor="middle" x="112" y="-7.5" font-family="Helvetica,sans-Serif" font-size="10.00">condition_variable</text>
</g>
<!-- Node1&#45;&gt;Node3 -->
<g id="edge3" class="edge"><title>Node1&#45;&gt;Node3</title>
<path fill="none" stroke="midnightblue" d="M118.679,-56.083C117.619,-48.9272 116.094,-38.6353 114.769,-29.6911"/>
<polygon fill="midnightblue" stroke="midnightblue" points="118.224,-29.1302 113.296,-19.7511 111.3,-30.1561 118.224,-29.1302"/>
</g>
<!-- Node4 -->
<g id="node5" class="node"><title>Node4</title>
<polygon fill="white" stroke="#bfbfbf" points="178,-0.5 178,-19.5 230,-19.5 230,-0.5 178,-0.5"/>
<text text-anchor="middle" x="204" y="-7.5" font-family="Helvetica,sans-Serif" font-size="10.00">memory</text>
</g>
<!-- Node1&#45;&gt;Node4 -->
<g id="edge4" class="edge"><title>Node1&#45;&gt;Node4</title>
<path fill="none" stroke="midnightblue" d="M133.496,-56.324C146.6,-47.9002 166.712,-34.9709 182.107,-25.0741"/>
<polygon fill="midnightblue" stroke="midnightblue" points="184.018,-28.0063 190.537,-19.6545 180.233,-22.118 184.018,-28.0063"/>
</g>
<!-- Node6 -->
<g id="node7" class="node"><title>Node6</title>
<polygon fill="white" stroke="#bfbfbf" points="248.5,-0.5 248.5,-19.5 307.5,-19.5 307.5,-0.5 248.5,-0.5"/>
<text text-anchor="middle" x="278" y="-7.5" font-family="Helvetica,sans-Serif" font-size="10.00">exception</text>
</g>
<!-- Node5&#45;&gt;Node6 -->
<g id="edge6" class="edge"><title>Node5&#45;&gt;Node6</title>
<path fill="none" stroke="midnightblue" d="M250.449,-56.083C255.014,-48.6127 261.668,-37.7244 267.293,-28.5199"/>
<polygon fill="midnightblue" stroke="midnightblue" points="270.424,-30.109 272.652,-19.7511 264.451,-26.4588 270.424,-30.109"/>
</g>
<!-- Node8 -->
<g id="node9" class="node"><title>Node8</title>
<polygon fill="white" stroke="#bfbfbf" points="339.5,-0.5 339.5,-19.5 380.5,-19.5 380.5,-0.5 339.5,-0.5"/>
<text text-anchor="middle" x="360" y="-7.5" font-family="Helvetica,sans-Serif" font-size="10.00">string</text>
</g>
<!-- Node7&#45;&gt;Node8 -->
<g id="edge8" class="edge"><title>Node7&#45;&gt;Node8</title>
<path fill="none" stroke="midnightblue" d="M379.202,-56.083C376.087,-48.77 371.577,-38.1814 367.711,-29.1034"/>
<polygon fill="midnightblue" stroke="midnightblue" points="370.866,-27.5798 363.727,-19.7511 364.426,-30.3229 370.866,-27.5798"/>
</g>
<!-- Node9&#45;&gt;Node8 -->
<g id="edge15" class="edge"><title>Node9&#45;&gt;Node8</title>
<path fill="none" stroke="midnightblue" d="M468.56,-56.4435C447.33,-47.5566 413.901,-33.5632 389.745,-23.4514"/>
<polygon fill="midnightblue" stroke="midnightblue" points="390.921,-20.1493 380.345,-19.5164 388.218,-26.6064 390.921,-20.1493"/>
</g>
<!-- Node10 -->
<g id="node11" class="node"><title>Node10</title>
<polygon fill="white" stroke="#bfbfbf" points="398.5,-0.5 398.5,-19.5 447.5,-19.5 447.5,-0.5 398.5,-0.5"/>
<text text-anchor="middle" x="423" y="-7.5" font-family="Helvetica,sans-Serif" font-size="10.00">cassert</text>
</g>
<!-- Node9&#45;&gt;Node10 -->
<g id="edge10" class="edge"><title>Node9&#45;&gt;Node10</title>
<path fill="none" stroke="midnightblue" d="M478.396,-56.324C468.544,-48.2631 453.649,-36.0765 441.785,-26.3695"/>
<polygon fill="midnightblue" stroke="midnightblue" points="443.753,-23.4575 433.797,-19.8339 439.32,-28.8752 443.753,-23.4575"/>
</g>
<!-- Node11 -->
<g id="node12" class="node"><title>Node11</title>
<polygon fill="white" stroke="#bfbfbf" points="465.5,-0.5 465.5,-19.5 512.5,-19.5 512.5,-0.5 465.5,-0.5"/>
<text text-anchor="middle" x="489" y="-7.5" font-family="Helvetica,sans-Serif" font-size="10.00">csignal</text>
</g>
<!-- Node9&#45;&gt;Node11 -->
<g id="edge11" class="edge"><title>Node9&#45;&gt;Node11</title>
<path fill="none" stroke="midnightblue" d="M489,-56.083C489,-49.0059 489,-38.8611 489,-29.9865"/>
<polygon fill="midnightblue" stroke="midnightblue" points="492.5,-29.751 489,-19.7511 485.5,-29.7511 492.5,-29.751"/>
</g>
<!-- Node12 -->
<g id="node13" class="node"><title>Node12</title>
<polygon fill="white" stroke="#bfbfbf" points="531,-0.5 531,-19.5 585,-19.5 585,-0.5 531,-0.5"/>
<text text-anchor="middle" x="558" y="-7.5" font-family="Helvetica,sans-Serif" font-size="10.00">iostream</text>
</g>
<!-- Node9&#45;&gt;Node12 -->
<g id="edge12" class="edge"><title>Node9&#45;&gt;Node12</title>
<path fill="none" stroke="midnightblue" d="M500.086,-56.324C510.486,-48.1849 526.261,-35.8395 538.722,-26.0874"/>
<polygon fill="midnightblue" stroke="midnightblue" points="540.994,-28.7533 546.712,-19.8339 536.68,-23.2407 540.994,-28.7533"/>
</g>
<!-- Node13 -->
<g id="node14" class="node"><title>Node13</title>
<polygon fill="white" stroke="#bfbfbf" points="603.5,-0.5 603.5,-19.5 688.5,-19.5 688.5,-0.5 603.5,-0.5"/>
<text text-anchor="middle" x="646" y="-7.5" font-family="Helvetica,sans-Serif" font-size="10.00">spdlog/spdlog.h</text>
</g>
<!-- Node9&#45;&gt;Node13 -->
<g id="edge13" class="edge"><title>Node9&#45;&gt;Node13</title>
<path fill="none" stroke="midnightblue" d="M513.877,-56.4435C540.289,-47.3591 582.215,-32.9388 611.742,-22.7831"/>
<polygon fill="midnightblue" stroke="midnightblue" points="612.921,-26.0787 621.239,-19.5164 610.645,-19.4593 612.921,-26.0787"/>
</g>
<!-- Node14 -->
<g id="node15" class="node"><title>Node14</title>
<polygon fill="white" stroke="#bfbfbf" points="707,-0.5 707,-19.5 759,-19.5 759,-0.5 707,-0.5"/>
<text text-anchor="middle" x="733" y="-7.5" font-family="Helvetica,sans-Serif" font-size="10.00">sstream</text>
</g>
<!-- Node9&#45;&gt;Node14 -->
<g id="edge14" class="edge"><title>Node9&#45;&gt;Node14</title>
<path fill="none" stroke="midnightblue" d="M525.345,-57.63C565.075,-49.473 630.853,-35.6759 696.542,-20.2773"/>
<polygon fill="midnightblue" stroke="midnightblue" points="697.724,-23.5947 706.654,-17.8937 696.118,-16.7814 697.724,-23.5947"/>
</g>
</g>
</svg>
