<?xml version="1.0" encoding="UTF-8" standalone="no"?>
<!DOCTYPE svg PUBLIC "-//W3C//DTD SVG 1.1//EN"
 "http://www.w3.org/Graphics/SVG/1.1/DTD/svg11.dtd">
<!-- Generated by graphviz version 2.38.0 (20140413.2041)
 -->
<!-- Title: src/modules/rpleth/rplethprotocol.hpp Pages: 1 -->
<svg width="315pt" height="207pt"
 viewBox="0.00 0.00 315.00 207.00" xmlns="http://www.w3.org/2000/svg" xmlns:xlink="http://www.w3.org/1999/xlink">
<g id="graph0" class="graph" transform="scale(1 1) rotate(0) translate(4 203)">
<title>src/modules/rpleth/rplethprotocol.hpp</title>
<polygon fill="white" stroke="none" points="-4,4 -4,-203 311,-203 311,4 -4,4"/>
<!-- Node0 -->
<g id="node1" class="node"><title>Node0</title>
<polygon fill="#bfbfbf" stroke="black" points="153,-168.5 153,-198.5 250,-198.5 250,-168.5 153,-168.5"/>
<text text-anchor="start" x="161" y="-186.5" font-family="Helvetica,sans-Serif" font-size="10.00">src/modules/rpleth</text>
<text text-anchor="middle" x="201.5" y="-175.5" font-family="Helvetica,sans-Serif" font-size="10.00">/rplethprotocol.hpp</text>
</g>
<!-- Node1 -->
<g id="node2" class="node"><title>Node1</title>
<g id="a_node2"><a xlink:href="../../d4/d66/circularbuffer_8hpp.html" target="_top" xlink:title="simple circular buffer class ">
<polygon fill="white" stroke="black" points="10,-112.5 10,-131.5 139,-131.5 139,-112.5 10,-112.5"/>
<text text-anchor="middle" x="74.5" y="-119.5" font-family="Helvetica,sans-Serif" font-size="10.00">network/circularbuffer.hpp</text>
</a>
</g>
</g>
<!-- Node0&#45;&gt;Node1 -->
<g id="edge1" class="edge"><title>Node0&#45;&gt;Node1</title>
<path fill="none" stroke="midnightblue" d="M171.403,-168.399C150.38,-158.55 122.528,-145.501 102.081,-135.922"/>
<polygon fill="midnightblue" stroke="midnightblue" points="103.52,-132.731 92.9796,-131.658 100.55,-139.07 103.52,-132.731"/>
</g>
<!-- Node6 -->
<g id="node7" class="node"><title>Node6</title>
<g id="a_node7"><a xlink:href="../../dd/d17/rplethpacket_8hpp.html" target="_top" xlink:title="Rpleth packet class. ">
<polygon fill="white" stroke="black" points="157,-112.5 157,-131.5 246,-131.5 246,-112.5 157,-112.5"/>
<text text-anchor="middle" x="201.5" y="-119.5" font-family="Helvetica,sans-Serif" font-size="10.00">rplethpacket.hpp</text>
</a>
</g>
</g>
<!-- Node0&#45;&gt;Node6 -->
<g id="edge6" class="edge"><title>Node0&#45;&gt;Node6</title>
<path fill="none" stroke="midnightblue" d="M201.5,-168.399C201.5,-160.466 201.5,-150.458 201.5,-141.858"/>
<polygon fill="midnightblue" stroke="midnightblue" points="205,-141.658 201.5,-131.658 198,-141.658 205,-141.658"/>
</g>
<!-- Node7 -->
<g id="node8" class="node"><title>Node7</title>
<polygon fill="white" stroke="#bfbfbf" points="264,-112.5 264,-131.5 307,-131.5 307,-112.5 264,-112.5"/>
<text text-anchor="middle" x="285.5" y="-119.5" font-family="Helvetica,sans-Serif" font-size="10.00">queue</text>
</g>
<!-- Node0&#45;&gt;Node7 -->
<g id="edge9" class="edge"><title>Node0&#45;&gt;Node7</title>
<path fill="none" stroke="midnightblue" d="M221.407,-168.399C234.494,-159.129 251.582,-147.025 264.822,-137.647"/>
<polygon fill="midnightblue" stroke="midnightblue" points="267.14,-140.294 273.277,-131.658 263.094,-134.582 267.14,-140.294"/>
</g>
<!-- Node2 -->
<g id="node3" class="node"><title>Node2</title>
<polygon fill="white" stroke="#bfbfbf" points="0,-56.5 0,-75.5 41,-75.5 41,-56.5 0,-56.5"/>
<text text-anchor="middle" x="20.5" y="-63.5" font-family="Helvetica,sans-Serif" font-size="10.00">string</text>
</g>
<!-- Node1&#45;&gt;Node2 -->
<g id="edge2" class="edge"><title>Node1&#45;&gt;Node2</title>
<path fill="none" stroke="midnightblue" d="M65.583,-112.083C57.7195,-104.22 46.0688,-92.5688 36.5813,-83.0813"/>
<polygon fill="midnightblue" stroke="midnightblue" points="38.7971,-80.3473 29.2511,-75.7511 33.8473,-85.2971 38.7971,-80.3473"/>
</g>
<!-- Node3 -->
<g id="node4" class="node"><title>Node3</title>
<polygon fill="white" stroke="#bfbfbf" points="179.5,-56.5 179.5,-75.5 223.5,-75.5 223.5,-56.5 179.5,-56.5"/>
<text text-anchor="middle" x="201.5" y="-63.5" font-family="Helvetica,sans-Serif" font-size="10.00">vector</text>
</g>
<!-- Node1&#45;&gt;Node3 -->
<g id="edge3" class="edge"><title>Node1&#45;&gt;Node3</title>
<path fill="none" stroke="midnightblue" d="M94.6235,-112.444C115.524,-103.557 148.435,-89.5632 172.216,-79.4514"/>
<polygon fill="midnightblue" stroke="midnightblue" points="173.638,-82.6504 181.471,-75.5164 170.898,-76.2085 173.638,-82.6504"/>
</g>
<!-- Node4 -->
<g id="node5" class="node"><title>Node4</title>
<g id="a_node5"><a xlink:href="../../d4/d90/bufferutils_8hpp.html" target="_top" xlink:title="buffer&#45;related helper functions ">
<polygon fill="white" stroke="black" points="59.5,-56.5 59.5,-75.5 161.5,-75.5 161.5,-56.5 59.5,-56.5"/>
<text text-anchor="middle" x="110.5" y="-63.5" font-family="Helvetica,sans-Serif" font-size="10.00">tools/bufferutils.hpp</text>
</a>
</g>
</g>
<!-- Node1&#45;&gt;Node4 -->
<g id="edge4" class="edge"><title>Node1&#45;&gt;Node4</title>
<path fill="none" stroke="midnightblue" d="M80.4447,-112.083C85.4773,-104.534 92.8368,-93.4948 99.0135,-84.2298"/>
<polygon fill="midnightblue" stroke="midnightblue" points="102.031,-86.0131 104.666,-75.7511 96.2067,-82.1301 102.031,-86.0131"/>
</g>
<!-- Node5 -->
<g id="node6" class="node"><title>Node5</title>
<polygon fill="white" stroke="#bfbfbf" points="87.5,-0.5 87.5,-19.5 133.5,-19.5 133.5,-0.5 87.5,-0.5"/>
<text text-anchor="middle" x="110.5" y="-7.5" font-family="Helvetica,sans-Serif" font-size="10.00">cstdint</text>
</g>
<!-- Node4&#45;&gt;Node5 -->
<g id="edge5" class="edge"><title>Node4&#45;&gt;Node5</title>
<path fill="none" stroke="midnightblue" d="M110.5,-56.083C110.5,-49.0059 110.5,-38.8611 110.5,-29.9865"/>
<polygon fill="midnightblue" stroke="midnightblue" points="114,-29.751 110.5,-19.7511 107,-29.7511 114,-29.751"/>
</g>
<!-- Node6&#45;&gt;Node3 -->
<g id="edge8" class="edge"><title>Node6&#45;&gt;Node3</title>
<path fill="none" stroke="midnightblue" d="M201.5,-112.083C201.5,-105.006 201.5,-94.8611 201.5,-85.9865"/>
<polygon fill="midnightblue" stroke="midnightblue" points="205,-85.751 201.5,-75.7511 198,-85.7511 205,-85.751"/>
</g>
<!-- Node6&#45;&gt;Node4 -->
<g id="edge7" class="edge"><title>Node6&#45;&gt;Node4</title>
<path fill="none" stroke="midnightblue" d="M186.879,-112.324C172.551,-103.822 150.487,-90.7288 133.751,-80.7975"/>
<polygon fill="midnightblue" stroke="midnightblue" points="135.47,-77.7478 125.084,-75.6545 131.898,-83.7677 135.47,-77.7478"/>
</g>
</g>
</svg>
