<?xml version="1.0" encoding="UTF-8" standalone="no"?>
<!DOCTYPE svg PUBLIC "-//W3C//DTD SVG 1.1//EN"
 "http://www.w3.org/Graphics/SVG/1.1/DTD/svg11.dtd">
<!-- Generated by graphviz version 2.38.0 (20140413.2041)
 -->
<!-- Title: src/modules/wiegand/WiegandReaderImpl.hpp Pages: 1 -->
<svg width="751pt" height="274pt"
 viewBox="0.00 0.00 751.00 274.00" xmlns="http://www.w3.org/2000/svg" xmlns:xlink="http://www.w3.org/1999/xlink">
<g id="graph0" class="graph" transform="scale(1 1) rotate(0) translate(4 270)">
<title>src/modules/wiegand/WiegandReaderImpl.hpp</title>
<polygon fill="white" stroke="none" points="-4,4 -4,-270 747,-270 747,4 -4,4"/>
<!-- Node0 -->
<g id="node1" class="node"><title>Node0</title>
<polygon fill="#bfbfbf" stroke="black" points="320,-235.5 320,-265.5 447,-265.5 447,-235.5 320,-235.5"/>
<text text-anchor="start" x="328" y="-253.5" font-family="Helvetica,sans-Serif" font-size="10.00">src/modules/wiegand</text>
<text text-anchor="middle" x="383.5" y="-242.5" font-family="Helvetica,sans-Serif" font-size="10.00">/WiegandReaderImpl.hpp</text>
</g>
<!-- Node1 -->
<g id="node2" class="node"><title>Node1</title>
<g id="a_node2"><a xlink:href="../../dc/d74/Auth_8hpp.html" target="_top" xlink:title="core/auth/Auth.hpp">
<polygon fill="white" stroke="black" points="586,-112.5 586,-131.5 685,-131.5 685,-112.5 586,-112.5"/>
<text text-anchor="middle" x="635.5" y="-119.5" font-family="Helvetica,sans-Serif" font-size="10.00">core/auth/Auth.hpp</text>
</a>
</g>
</g>
<!-- Node0&#45;&gt;Node1 -->
<g id="edge1" class="edge"><title>Node0&#45;&gt;Node1</title>
<path fill="none" stroke="midnightblue" d="M447.041,-242.213C485.425,-235.53 534.005,-222.857 571.5,-199 595.077,-183.999 614.443,-157.549 625.486,-140.148"/>
<polygon fill="midnightblue" stroke="midnightblue" points="628.517,-141.901 630.739,-131.541 622.542,-138.254 628.517,-141.901"/>
</g>
<!-- Node7 -->
<g id="node8" class="node"><title>Node7</title>
<g id="a_node8"><a xlink:href="../../dd/d5a/FBuzzer_8hpp.html" target="_top" xlink:title="hardware/facades/FBuzzer.hpp">
<polygon fill="white" stroke="black" points="81.5,-174 81.5,-193 233.5,-193 233.5,-174 81.5,-174"/>
<text text-anchor="middle" x="157.5" y="-181" font-family="Helvetica,sans-Serif" font-size="10.00">hardware/facades/FBuzzer.hpp</text>
</a>
</g>
</g>
<!-- Node0&#45;&gt;Node7 -->
<g id="edge7" class="edge"><title>Node0&#45;&gt;Node7</title>
<path fill="none" stroke="midnightblue" d="M334.74,-235.476C293.525,-223.622 235.238,-206.858 196.921,-195.838"/>
<polygon fill="midnightblue" stroke="midnightblue" points="197.731,-192.429 187.153,-193.029 195.796,-199.156 197.731,-192.429"/>
</g>
<!-- Node8 -->
<g id="node9" class="node"><title>Node8</title>
<g id="a_node9"><a xlink:href="../../d3/dbd/FLED_8hpp.html" target="_top" xlink:title="FLED.hpp">
<polygon fill="white" stroke="black" points="127,-112.5 127,-131.5 188,-131.5 188,-112.5 127,-112.5"/>
<text text-anchor="middle" x="157.5" y="-119.5" font-family="Helvetica,sans-Serif" font-size="10.00">FLED.hpp</text>
</a>
</g>
</g>
<!-- Node0&#45;&gt;Node8 -->
<g id="edge13" class="edge"><title>Node0&#45;&gt;Node8</title>
<path fill="none" stroke="midnightblue" d="M319.81,-248.505C238.222,-245.726 103.602,-235.56 72.5,-199 63.5725,-188.506 65.3933,-179.803 72.5,-168 82.2915,-151.737 100.15,-141.044 116.979,-134.181"/>
<polygon fill="midnightblue" stroke="midnightblue" points="118.545,-137.333 126.7,-130.569 116.107,-130.771 118.545,-137.333"/>
</g>
<!-- Node9 -->
<g id="node10" class="node"><title>Node9</title>
<polygon fill="white" stroke="#bfbfbf" points="224.5,-56.5 224.5,-75.5 270.5,-75.5 270.5,-56.5 224.5,-56.5"/>
<text text-anchor="middle" x="247.5" y="-63.5" font-family="Helvetica,sans-Serif" font-size="10.00">chrono</text>
</g>
<!-- Node0&#45;&gt;Node9 -->
<g id="edge21" class="edge"><title>Node0&#45;&gt;Node9</title>
<path fill="none" stroke="midnightblue" d="M354.686,-235.369C338.777,-226.531 319.471,-213.985 305.5,-199 274.595,-165.852 258.393,-113.566 251.556,-85.7925"/>
<polygon fill="midnightblue" stroke="midnightblue" points="254.914,-84.7766 249.249,-75.8231 248.094,-86.3547 254.914,-84.7766"/>
</g>
<!-- Node10 -->
<g id="node11" class="node"><title>Node10</title>
<polygon fill="white" stroke="#bfbfbf" points="383,-56.5 383,-75.5 424,-75.5 424,-56.5 383,-56.5"/>
<text text-anchor="middle" x="403.5" y="-63.5" font-family="Helvetica,sans-Serif" font-size="10.00">string</text>
</g>
<!-- Node0&#45;&gt;Node10 -->
<g id="edge22" class="edge"><title>Node0&#45;&gt;Node10</title>
<path fill="none" stroke="midnightblue" d="M420.599,-235.476C459.877,-218.158 518.746,-184.402 537.5,-132 553.389,-87.601 478.629,-73.4732 434.315,-69.0194"/>
<polygon fill="midnightblue" stroke="midnightblue" points="434.579,-65.5291 424.307,-68.1241 433.955,-72.5013 434.579,-65.5291"/>
</g>
<!-- Node13 -->
<g id="node14" class="node"><title>Node13</title>
<g id="a_node14"><a xlink:href="../../dd/d5c/WiegandStrategy_8hpp.html" target="_top" xlink:title="modules/wiegand/strategies\l/WiegandStrategy.hpp">
<polygon fill="white" stroke="black" points="314.5,-168.5 314.5,-198.5 452.5,-198.5 452.5,-168.5 314.5,-168.5"/>
<text text-anchor="start" x="322.5" y="-186.5" font-family="Helvetica,sans-Serif" font-size="10.00">modules/wiegand/strategies</text>
<text text-anchor="middle" x="383.5" y="-175.5" font-family="Helvetica,sans-Serif" font-size="10.00">/WiegandStrategy.hpp</text>
</a>
</g>
</g>
<!-- Node0&#45;&gt;Node13 -->
<g id="edge14" class="edge"><title>Node0&#45;&gt;Node13</title>
<path fill="none" stroke="midnightblue" d="M383.5,-235.396C383.5,-227.645 383.5,-217.812 383.5,-208.86"/>
<polygon fill="midnightblue" stroke="midnightblue" points="387,-208.576 383.5,-198.577 380,-208.577 387,-208.576"/>
</g>
<!-- Node14 -->
<g id="node15" class="node"><title>Node14</title>
<polygon fill="white" stroke="#bfbfbf" points="432,-112.5 432,-131.5 529,-131.5 529,-112.5 432,-112.5"/>
<text text-anchor="middle" x="480.5" y="-119.5" font-family="Helvetica,sans-Serif" font-size="10.00">zmqpp/zmqpp.hpp</text>
</g>
<!-- Node0&#45;&gt;Node14 -->
<g id="edge20" class="edge"><title>Node0&#45;&gt;Node14</title>
<path fill="none" stroke="midnightblue" d="M416.226,-235.429C432.102,-227.03 450.149,-214.88 461.5,-199 473.581,-182.099 478.01,-158.309 479.617,-141.868"/>
<polygon fill="midnightblue" stroke="midnightblue" points="483.112,-142.06 480.338,-131.835 476.13,-141.559 483.112,-142.06"/>
</g>
<!-- Node2 -->
<g id="node3" class="node"><title>Node2</title>
<g id="a_node3"><a xlink:href="../../d3/d6f/AuthFwd_8hpp.html" target="_top" xlink:title="AuthFwd.hpp">
<polygon fill="white" stroke="black" points="543.5,-56.5 543.5,-75.5 617.5,-75.5 617.5,-56.5 543.5,-56.5"/>
<text text-anchor="middle" x="580.5" y="-63.5" font-family="Helvetica,sans-Serif" font-size="10.00">AuthFwd.hpp</text>
</a>
</g>
</g>
<!-- Node1&#45;&gt;Node2 -->
<g id="edge2" class="edge"><title>Node1&#45;&gt;Node2</title>
<path fill="none" stroke="midnightblue" d="M626.418,-112.083C618.329,-104.141 606.305,-92.3354 596.59,-82.7973"/>
<polygon fill="midnightblue" stroke="midnightblue" points="599.001,-80.2595 589.413,-75.7511 594.097,-85.2545 599.001,-80.2595"/>
</g>
<!-- Node6 -->
<g id="node7" class="node"><title>Node6</title>
<polygon fill="white" stroke="#bfbfbf" points="636,-56.5 636,-75.5 743,-75.5 743,-56.5 636,-56.5"/>
<text text-anchor="middle" x="689.5" y="-63.5" font-family="Helvetica,sans-Serif" font-size="10.00">zmqpp/message.hpp</text>
</g>
<!-- Node1&#45;&gt;Node6 -->
<g id="edge6" class="edge"><title>Node1&#45;&gt;Node6</title>
<path fill="none" stroke="midnightblue" d="M644.417,-112.083C652.28,-104.22 663.931,-92.5688 673.419,-83.0813"/>
<polygon fill="midnightblue" stroke="midnightblue" points="676.153,-85.2971 680.749,-75.7511 671.203,-80.3473 676.153,-85.2971"/>
</g>
<!-- Node3 -->
<g id="node4" class="node"><title>Node3</title>
<polygon fill="white" stroke="#bfbfbf" points="487,-0.5 487,-19.5 536,-19.5 536,-0.5 487,-0.5"/>
<text text-anchor="middle" x="511.5" y="-7.5" font-family="Helvetica,sans-Serif" font-size="10.00">cstddef</text>
</g>
<!-- Node2&#45;&gt;Node3 -->
<g id="edge3" class="edge"><title>Node2&#45;&gt;Node3</title>
<path fill="none" stroke="midnightblue" d="M569.414,-56.324C559.014,-48.1849 543.239,-35.8395 530.778,-26.0874"/>
<polygon fill="midnightblue" stroke="midnightblue" points="532.82,-23.2407 522.788,-19.8339 528.506,-28.7533 532.82,-23.2407"/>
</g>
<!-- Node4 -->
<g id="node5" class="node"><title>Node4</title>
<polygon fill="white" stroke="#bfbfbf" points="554.5,-0.5 554.5,-19.5 606.5,-19.5 606.5,-0.5 554.5,-0.5"/>
<text text-anchor="middle" x="580.5" y="-7.5" font-family="Helvetica,sans-Serif" font-size="10.00">memory</text>
</g>
<!-- Node2&#45;&gt;Node4 -->
<g id="edge4" class="edge"><title>Node2&#45;&gt;Node4</title>
<path fill="none" stroke="midnightblue" d="M580.5,-56.083C580.5,-49.0059 580.5,-38.8611 580.5,-29.9865"/>
<polygon fill="midnightblue" stroke="midnightblue" points="584,-29.751 580.5,-19.7511 577,-29.7511 584,-29.751"/>
</g>
<!-- Node5 -->
<g id="node6" class="node"><title>Node5</title>
<polygon fill="white" stroke="#bfbfbf" points="624.5,-0.5 624.5,-19.5 710.5,-19.5 710.5,-0.5 624.5,-0.5"/>
<text text-anchor="middle" x="667.5" y="-7.5" font-family="Helvetica,sans-Serif" font-size="10.00">odb/lazy&#45;ptr.hxx</text>
</g>
<!-- Node2&#45;&gt;Node5 -->
<g id="edge5" class="edge"><title>Node2&#45;&gt;Node5</title>
<path fill="none" stroke="midnightblue" d="M594.478,-56.324C608.05,-47.9002 628.88,-34.9709 644.825,-25.0741"/>
<polygon fill="midnightblue" stroke="midnightblue" points="646.906,-27.9019 653.557,-19.6545 643.214,-21.9544 646.906,-27.9019"/>
</g>
<!-- Node7&#45;&gt;Node8 -->
<g id="edge8" class="edge"><title>Node7&#45;&gt;Node8</title>
<path fill="none" stroke="midnightblue" d="M157.5,-173.975C157.5,-165.58 157.5,-152.481 157.5,-141.663"/>
<polygon fill="midnightblue" stroke="midnightblue" points="161,-141.509 157.5,-131.509 154,-141.509 161,-141.509"/>
</g>
<!-- Node8&#45;&gt;Node9 -->
<g id="edge9" class="edge"><title>Node8&#45;&gt;Node9</title>
<path fill="none" stroke="midnightblue" d="M171.96,-112.324C186,-103.9 207.548,-90.9709 224.043,-81.0741"/>
<polygon fill="midnightblue" stroke="midnightblue" points="226.302,-83.8007 233.076,-75.6545 222.7,-77.7983 226.302,-83.8007"/>
</g>
<!-- Node8&#45;&gt;Node10 -->
<g id="edge10" class="edge"><title>Node8&#45;&gt;Node10</title>
<path fill="none" stroke="midnightblue" d="M188.159,-114.27C235.457,-103.888 325.685,-84.0813 372.93,-73.7105"/>
<polygon fill="midnightblue" stroke="midnightblue" points="373.857,-77.0903 382.874,-71.5276 372.356,-70.2531 373.857,-77.0903"/>
</g>
<!-- Node11 -->
<g id="node12" class="node"><title>Node11</title>
<polygon fill="white" stroke="#bfbfbf" points="0,-56.5 0,-75.5 91,-75.5 91,-56.5 0,-56.5"/>
<text text-anchor="middle" x="45.5" y="-63.5" font-family="Helvetica,sans-Serif" font-size="10.00">zmqpp/poller.hpp</text>
</g>
<!-- Node8&#45;&gt;Node11 -->
<g id="edge11" class="edge"><title>Node8&#45;&gt;Node11</title>
<path fill="none" stroke="midnightblue" d="M139.505,-112.324C121.462,-103.625 93.4531,-90.1202 72.6973,-80.113"/>
<polygon fill="midnightblue" stroke="midnightblue" points="73.9778,-76.8449 63.4501,-75.6545 70.9377,-83.1502 73.9778,-76.8449"/>
</g>
<!-- Node12 -->
<g id="node13" class="node"><title>Node12</title>
<polygon fill="white" stroke="#bfbfbf" points="109,-56.5 109,-75.5 206,-75.5 206,-56.5 109,-56.5"/>
<text text-anchor="middle" x="157.5" y="-63.5" font-family="Helvetica,sans-Serif" font-size="10.00">zmqpp/socket.hpp</text>
</g>
<!-- Node8&#45;&gt;Node12 -->
<g id="edge12" class="edge"><title>Node8&#45;&gt;Node12</title>
<path fill="none" stroke="midnightblue" d="M157.5,-112.083C157.5,-105.006 157.5,-94.8611 157.5,-85.9865"/>
<polygon fill="midnightblue" stroke="midnightblue" points="161,-85.751 157.5,-75.7511 154,-85.7511 161,-85.751"/>
</g>
<!-- Node13&#45;&gt;Node1 -->
<g id="edge15" class="edge"><title>Node13&#45;&gt;Node1</title>
<path fill="none" stroke="midnightblue" d="M442.901,-168.475C487.8,-157.874 548.532,-143.534 589.707,-133.812"/>
<polygon fill="midnightblue" stroke="midnightblue" points="590.545,-137.211 599.473,-131.506 588.936,-130.398 590.545,-137.211"/>
</g>
<!-- Node13&#45;&gt;Node9 -->
<g id="edge18" class="edge"><title>Node13&#45;&gt;Node9</title>
<path fill="none" stroke="midnightblue" d="M346.851,-168.429C327.925,-159.901 305.336,-147.632 288.5,-132 274.023,-118.559 262.577,-98.9223 255.499,-84.7531"/>
<polygon fill="midnightblue" stroke="midnightblue" points="258.588,-83.0995 251.136,-75.5688 252.266,-86.1032 258.588,-83.0995"/>
</g>
<!-- Node13&#45;&gt;Node10 -->
<g id="edge19" class="edge"><title>Node13&#45;&gt;Node10</title>
<path fill="none" stroke="midnightblue" d="M385.952,-168.337C389.556,-147.527 396.286,-108.663 400.282,-85.5834"/>
<polygon fill="midnightblue" stroke="midnightblue" points="403.741,-86.12 401.999,-75.6695 396.844,-84.9256 403.741,-86.12"/>
</g>
<!-- Node13&#45;&gt;Node14 -->
<g id="edge16" class="edge"><title>Node13&#45;&gt;Node14</title>
<path fill="none" stroke="midnightblue" d="M406.488,-168.399C421.891,-158.951 442.093,-146.559 457.499,-137.109"/>
<polygon fill="midnightblue" stroke="midnightblue" points="459.692,-139.87 466.386,-131.658 456.031,-133.903 459.692,-139.87"/>
</g>
<!-- Node15 -->
<g id="node16" class="node"><title>Node15</title>
<polygon fill="white" stroke="#bfbfbf" points="297.5,-112.5 297.5,-131.5 375.5,-131.5 375.5,-112.5 297.5,-112.5"/>
<text text-anchor="middle" x="336.5" y="-119.5" font-family="Helvetica,sans-Serif" font-size="10.00">boost/any.hpp</text>
</g>
<!-- Node13&#45;&gt;Node15 -->
<g id="edge17" class="edge"><title>Node13&#45;&gt;Node15</title>
<path fill="none" stroke="midnightblue" d="M372.362,-168.399C365.532,-159.753 356.755,-148.642 349.594,-139.576"/>
<polygon fill="midnightblue" stroke="midnightblue" points="352.284,-137.335 343.339,-131.658 346.791,-141.674 352.284,-137.335"/>
</g>
</g>
</svg>
