<?xml version="1.0" encoding="UTF-8" standalone="no"?>
<!DOCTYPE svg PUBLIC "-//W3C//DTD SVG 1.1//EN"
 "http://www.w3.org/Graphics/SVG/1.1/DTD/svg11.dtd">
<!-- Generated by graphviz version 2.38.0 (20140413.2041)
 -->
<!-- Title: src/modules/test&#45;and&#45;reset/TestAndResetModule.hpp Pages: 1 -->
<svg width="292pt" height="106pt"
 viewBox="0.00 0.00 292.00 106.00" xmlns="http://www.w3.org/2000/svg" xmlns:xlink="http://www.w3.org/1999/xlink">
<g id="graph0" class="graph" transform="scale(1 1) rotate(0) translate(4 102)">
<title>src/modules/test&#45;and&#45;reset/TestAndResetModule.hpp</title>
<polygon fill="white" stroke="none" points="-4,4 -4,-102 288,-102 288,4 -4,4"/>
<!-- Node38 -->
<g id="node1" class="node"><title>Node38</title>
<polygon fill="#bfbfbf" stroke="black" points="50,-67.5 50,-97.5 208,-97.5 208,-67.5 50,-67.5"/>
<text text-anchor="start" x="58" y="-85.5" font-family="Helvetica,sans-Serif" font-size="10.00">src/modules/test&#45;and</text>
<text text-anchor="middle" x="129" y="-74.5" font-family="Helvetica,sans-Serif" font-size="10.00">&#45;reset/TestAndResetModule.hpp</text>
</g>
<!-- Node39 -->
<g id="node2" class="node"><title>Node39</title>
<g id="a_node2"><a xlink:href="../../da/d7c/test-and-reset_2init_8cpp.html" target="_top" xlink:title="src/modules/test&#45;and\l&#45;reset/init.cpp">
<polygon fill="white" stroke="black" points="0,-0.5 0,-30.5 108,-30.5 108,-0.5 0,-0.5"/>
<text text-anchor="start" x="8" y="-18.5" font-family="Helvetica,sans-Serif" font-size="10.00">src/modules/test&#45;and</text>
<text text-anchor="middle" x="54" y="-7.5" font-family="Helvetica,sans-Serif" font-size="10.00">&#45;reset/init.cpp</text>
</a>
</g>
</g>
<!-- Node38&#45;&gt;Node39 -->
<g id="edge1" class="edge"><title>Node38&#45;&gt;Node39</title>
<path fill="none" stroke="midnightblue" d="M104.882,-60.5978C93.5574,-50.7831 80.3587,-39.3442 70.2421,-30.5765"/>
<polygon fill="midnightblue" stroke="midnightblue" points="102.877,-63.4915 112.726,-67.396 107.461,-58.2017 102.877,-63.4915"/>
</g>
<!-- Node40 -->
<g id="node3" class="node"><title>Node40</title>
<g id="a_node3"><a xlink:href="../../d9/dfd/TestAndResetModule_8cpp.html" target="_top" xlink:title="src/modules/test&#45;and\l&#45;reset/TestAndResetModule.cpp">
<polygon fill="white" stroke="black" points="126,-0.5 126,-30.5 284,-30.5 284,-0.5 126,-0.5"/>
<text text-anchor="start" x="134" y="-18.5" font-family="Helvetica,sans-Serif" font-size="10.00">src/modules/test&#45;and</text>
<text text-anchor="middle" x="205" y="-7.5" font-family="Helvetica,sans-Serif" font-size="10.00">&#45;reset/TestAndResetModule.cpp</text>
</a>
</g>
</g>
<!-- Node38&#45;&gt;Node40 -->
<g id="edge2" class="edge"><title>Node38&#45;&gt;Node40</title>
<path fill="none" stroke="midnightblue" d="M153.106,-60.8832C164.655,-51.0054 178.19,-39.4293 188.541,-30.5765"/>
<polygon fill="midnightblue" stroke="midnightblue" points="150.816,-58.2364 145.491,-67.396 155.365,-63.5561 150.816,-58.2364"/>
</g>
</g>
</svg>
