<?xml version="1.0" encoding="UTF-8" standalone="no"?>
<!DOCTYPE svg PUBLIC "-//W3C//DTD SVG 1.1//EN"
 "http://www.w3.org/Graphics/SVG/1.1/DTD/svg11.dtd">
<!-- Generated by graphviz version 2.38.0 (20140413.2041)
 -->
<!-- Title: src/core/auth/AccessPointService.hpp Pages: 1 -->
<svg width="432pt" height="106pt"
 viewBox="0.00 0.00 431.50 106.00" xmlns="http://www.w3.org/2000/svg" xmlns:xlink="http://www.w3.org/1999/xlink">
<g id="graph0" class="graph" transform="scale(1 1) rotate(0) translate(4 102)">
<title>src/core/auth/AccessPointService.hpp</title>
<polygon fill="white" stroke="none" points="-4,4 -4,-102 427.5,-102 427.5,4 -4,4"/>
<!-- Node44 -->
<g id="node1" class="node"><title>Node44</title>
<polygon fill="#bfbfbf" stroke="black" points="134,-67.5 134,-97.5 266,-97.5 266,-67.5 134,-67.5"/>
<text text-anchor="start" x="142" y="-85.5" font-family="Helvetica,sans-Serif" font-size="10.00">src/core/auth/AccessPoint</text>
<text text-anchor="middle" x="200" y="-74.5" font-family="Helvetica,sans-Serif" font-size="10.00">Service.hpp</text>
</g>
<!-- Node45 -->
<g id="node2" class="node"><title>Node45</title>
<g id="a_node2"><a xlink:href="../../dc/d02/AccessPointService_8cpp.html" target="_top" xlink:title="src/core/auth/AccessPoint\lService.cpp">
<polygon fill="white" stroke="black" points="0,-0.5 0,-30.5 132,-30.5 132,-0.5 0,-0.5"/>
<text text-anchor="start" x="8" y="-18.5" font-family="Helvetica,sans-Serif" font-size="10.00">src/core/auth/AccessPoint</text>
<text text-anchor="middle" x="66" y="-7.5" font-family="Helvetica,sans-Serif" font-size="10.00">Service.cpp</text>
</a>
</g>
</g>
<!-- Node44&#45;&gt;Node45 -->
<g id="edge1" class="edge"><title>Node44&#45;&gt;Node45</title>
<path fill="none" stroke="midnightblue" d="M161.845,-62.9921C140.605,-52.6892 114.586,-40.0677 95.0193,-30.5765"/>
<polygon fill="midnightblue" stroke="midnightblue" points="160.399,-66.1806 170.924,-67.396 163.454,-59.8825 160.399,-66.1806"/>
</g>
<!-- Node46 -->
<g id="node3" class="node"><title>Node46</title>
<g id="a_node3"><a xlink:href="../../dd/d24/kernel_8cpp.html" target="_top" xlink:title="src/core/kernel.cpp">
<polygon fill="white" stroke="black" points="150,-6 150,-25 250,-25 250,-6 150,-6"/>
<text text-anchor="middle" x="200" y="-13" font-family="Helvetica,sans-Serif" font-size="10.00">src/core/kernel.cpp</text>
</a>
</g>
</g>
<!-- Node44&#45;&gt;Node46 -->
<g id="edge2" class="edge"><title>Node44&#45;&gt;Node46</title>
<path fill="none" stroke="midnightblue" d="M200,-57.2495C200,-46.017 200,-33.3767 200,-25.1945"/>
<polygon fill="midnightblue" stroke="midnightblue" points="196.5,-57.3959 200,-67.396 203.5,-57.396 196.5,-57.3959"/>
</g>
<!-- Node47 -->
<g id="node4" class="node"><title>Node47</title>
<g id="a_node4"><a xlink:href="../../d7/d29/AccessPointCRUD_8cpp.html" target="_top" xlink:title="src/modules/websock\l&#45;api/api/AccessPointCRUD.cpp">
<polygon fill="white" stroke="black" points="268.5,-0.5 268.5,-30.5 423.5,-30.5 423.5,-0.5 268.5,-0.5"/>
<text text-anchor="start" x="276.5" y="-18.5" font-family="Helvetica,sans-Serif" font-size="10.00">src/modules/websock</text>
<text text-anchor="middle" x="346" y="-7.5" font-family="Helvetica,sans-Serif" font-size="10.00">&#45;api/api/AccessPointCRUD.cpp</text>
</a>
</g>
</g>
<!-- Node44&#45;&gt;Node47 -->
<g id="edge3" class="edge"><title>Node44&#45;&gt;Node47</title>
<path fill="none" stroke="midnightblue" d="M240.95,-63.2687C264.204,-52.9159 292.872,-40.1528 314.382,-30.5765"/>
<polygon fill="midnightblue" stroke="midnightblue" points="239.392,-60.1313 231.68,-67.396 242.239,-66.5262 239.392,-60.1313"/>
</g>
</g>
</svg>
