<?xml version="1.0" encoding="UTF-8" standalone="no"?>
<!DOCTYPE svg PUBLIC "-//W3C//DTD SVG 1.1//EN"
 "http://www.w3.org/Graphics/SVG/1.1/DTD/svg11.dtd">
<!-- Generated by graphviz version 2.38.0 (20140413.2041)
 -->
<!-- Title: src/modules/stdin&#45;controller/StdinControllerModule.hpp Pages: 1 -->
<svg width="2096pt" height="386pt"
 viewBox="0.00 0.00 2096.00 386.00" xmlns="http://www.w3.org/2000/svg" xmlns:xlink="http://www.w3.org/1999/xlink">
<g id="graph0" class="graph" transform="scale(1 1) rotate(0) translate(4 382)">
<title>src/modules/stdin&#45;controller/StdinControllerModule.hpp</title>
<polygon fill="white" stroke="none" points="-4,4 -4,-382 2092,-382 2092,4 -4,4"/>
<!-- Node0 -->
<g id="node1" class="node"><title>Node0</title>
<polygon fill="#bfbfbf" stroke="black" points="1510.5,-347.5 1510.5,-377.5 1647.5,-377.5 1647.5,-347.5 1510.5,-347.5"/>
<text text-anchor="start" x="1518.5" y="-365.5" font-family="Helvetica,sans-Serif" font-size="10.00">src/modules/stdin&#45;controller</text>
<text text-anchor="middle" x="1579" y="-354.5" font-family="Helvetica,sans-Serif" font-size="10.00">/StdinControllerModule.hpp</text>
</g>
<!-- Node1 -->
<g id="node2" class="node"><title>Node1</title>
<g id="a_node2"><a xlink:href="../../d0/dc7/BaseModule_8hpp.html" target="_top" xlink:title="modules/BaseModule.hpp">
<polygon fill="white" stroke="black" points="1514.5,-291.5 1514.5,-310.5 1643.5,-310.5 1643.5,-291.5 1514.5,-291.5"/>
<text text-anchor="middle" x="1579" y="-298.5" font-family="Helvetica,sans-Serif" font-size="10.00">modules/BaseModule.hpp</text>
</a>
</g>
</g>
<!-- Node0&#45;&gt;Node1 -->
<g id="edge1" class="edge"><title>Node0&#45;&gt;Node1</title>
<path fill="none" stroke="midnightblue" d="M1579,-347.399C1579,-339.466 1579,-329.458 1579,-320.858"/>
<polygon fill="midnightblue" stroke="midnightblue" points="1582.5,-320.658 1579,-310.658 1575.5,-320.658 1582.5,-320.658"/>
</g>
<!-- Node2 -->
<g id="node3" class="node"><title>Node2</title>
<g id="a_node3"><a xlink:href="../../dc/d49/LeosacFwd_8hpp.html" target="_top" xlink:title="LeosacFwd.hpp">
<polygon fill="white" stroke="black" points="170,-235.5 170,-254.5 256,-254.5 256,-235.5 170,-235.5"/>
<text text-anchor="middle" x="213" y="-242.5" font-family="Helvetica,sans-Serif" font-size="10.00">LeosacFwd.hpp</text>
</a>
</g>
</g>
<!-- Node1&#45;&gt;Node2 -->
<g id="edge2" class="edge"><title>Node1&#45;&gt;Node2</title>
<path fill="none" stroke="midnightblue" d="M1514.49,-297.45C1280.74,-288.209 480.593,-256.578 266.207,-248.103"/>
<polygon fill="midnightblue" stroke="midnightblue" points="266.28,-244.604 256.15,-247.706 266.004,-251.598 266.28,-244.604"/>
</g>
<!-- Node5 -->
<g id="node6" class="node"><title>Node5</title>
<g id="a_node6"><a xlink:href="../../db/d33/ConfigChecker_8hpp.html" target="_top" xlink:title="core/config/ConfigChecker.hpp">
<polygon fill="white" stroke="black" points="0,-235.5 0,-254.5 152,-254.5 152,-235.5 0,-235.5"/>
<text text-anchor="middle" x="76" y="-242.5" font-family="Helvetica,sans-Serif" font-size="10.00">core/config/ConfigChecker.hpp</text>
</a>
</g>
</g>
<!-- Node1&#45;&gt;Node5 -->
<g id="edge5" class="edge"><title>Node1&#45;&gt;Node5</title>
<path fill="none" stroke="midnightblue" d="M1514.25,-299.644C1314.54,-298.183 690.238,-290.91 162.534,-255.052"/>
<polygon fill="midnightblue" stroke="midnightblue" points="162.648,-251.552 152.432,-254.362 162.17,-258.536 162.648,-251.552"/>
</g>
<!-- Node8 -->
<g id="node9" class="node"><title>Node8</title>
<g id="a_node9"><a xlink:href="../../db/d79/ConfigManager_8hpp.html" target="_top" xlink:title="core/config/ConfigManager.hpp">
<polygon fill="white" stroke="black" points="1399,-235.5 1399,-254.5 1551,-254.5 1551,-235.5 1399,-235.5"/>
<text text-anchor="middle" x="1475" y="-242.5" font-family="Helvetica,sans-Serif" font-size="10.00">core/config/ConfigManager.hpp</text>
</a>
</g>
</g>
<!-- Node1&#45;&gt;Node8 -->
<g id="edge8" class="edge"><title>Node1&#45;&gt;Node8</title>
<path fill="none" stroke="midnightblue" d="M1562.29,-291.324C1545.69,-282.703 1520,-269.364 1500.78,-259.386"/>
<polygon fill="midnightblue" stroke="midnightblue" points="1502.16,-256.156 1491.67,-254.655 1498.93,-262.369 1502.16,-256.156"/>
</g>
<!-- Node25 -->
<g id="node26" class="node"><title>Node25</title>
<g id="a_node26"><a xlink:href="../../d4/d3d/log_8hpp.html" target="_top" xlink:title="tools/log.hpp">
<polygon fill="white" stroke="black" points="1750,-174 1750,-193 1822,-193 1822,-174 1750,-174"/>
<text text-anchor="middle" x="1786" y="-181" font-family="Helvetica,sans-Serif" font-size="10.00">tools/log.hpp</text>
</a>
</g>
</g>
<!-- Node1&#45;&gt;Node25 -->
<g id="edge62" class="edge"><title>Node1&#45;&gt;Node25</title>
<path fill="none" stroke="midnightblue" d="M1594.56,-291.319C1630.31,-271.37 1718.55,-222.136 1761.59,-198.118"/>
<polygon fill="midnightblue" stroke="midnightblue" points="1763.52,-201.053 1770.54,-193.124 1760.11,-194.941 1763.52,-201.053"/>
</g>
<!-- Node30 -->
<g id="node31" class="node"><title>Node30</title>
<polygon fill="white" stroke="#bfbfbf" points="1515.5,-168.5 1515.5,-198.5 1616.5,-198.5 1616.5,-168.5 1515.5,-168.5"/>
<text text-anchor="start" x="1523.5" y="-186.5" font-family="Helvetica,sans-Serif" font-size="10.00">boost/property_tree</text>
<text text-anchor="middle" x="1566" y="-175.5" font-family="Helvetica,sans-Serif" font-size="10.00">/ptree.hpp</text>
</g>
<!-- Node1&#45;&gt;Node30 -->
<g id="edge63" class="edge"><title>Node1&#45;&gt;Node30</title>
<path fill="none" stroke="midnightblue" d="M1578.02,-291.319C1576.07,-273.967 1571.62,-234.457 1568.72,-208.658"/>
<polygon fill="midnightblue" stroke="midnightblue" points="1572.18,-208.091 1567.58,-198.545 1565.22,-208.874 1572.18,-208.091"/>
</g>
<!-- Node31 -->
<g id="node32" class="node"><title>Node31</title>
<polygon fill="white" stroke="#bfbfbf" points="1634.5,-174 1634.5,-193 1731.5,-193 1731.5,-174 1634.5,-174"/>
<text text-anchor="middle" x="1683" y="-181" font-family="Helvetica,sans-Serif" font-size="10.00">zmqpp/zmqpp.hpp</text>
</g>
<!-- Node1&#45;&gt;Node31 -->
<g id="edge64" class="edge"><title>Node1&#45;&gt;Node31</title>
<path fill="none" stroke="midnightblue" d="M1586.82,-291.319C1604.13,-272.088 1645.96,-225.641 1668.32,-200.805"/>
<polygon fill="midnightblue" stroke="midnightblue" points="1671,-203.055 1675.09,-193.282 1665.8,-198.371 1671,-203.055"/>
</g>
<!-- Node32 -->
<g id="node33" class="node"><title>Node32</title>
<g id="a_node33"><a xlink:href="../../d1/d91/ThreadUtils_8hpp.html" target="_top" xlink:title="tools/ThreadUtils.hpp">
<polygon fill="white" stroke="black" points="1959,-235.5 1959,-254.5 2069,-254.5 2069,-235.5 1959,-235.5"/>
<text text-anchor="middle" x="2014" y="-242.5" font-family="Helvetica,sans-Serif" font-size="10.00">tools/ThreadUtils.hpp</text>
</a>
</g>
</g>
<!-- Node1&#45;&gt;Node32 -->
<g id="edge59" class="edge"><title>Node1&#45;&gt;Node32</title>
<path fill="none" stroke="midnightblue" d="M1643.65,-291.974C1725.79,-281.778 1866.72,-264.283 1949.01,-254.068"/>
<polygon fill="midnightblue" stroke="midnightblue" points="1949.5,-257.534 1958.99,-252.829 1948.64,-250.587 1949.5,-257.534"/>
</g>
<!-- Node3 -->
<g id="node4" class="node"><title>Node3</title>
<polygon fill="white" stroke="#bfbfbf" points="168,-174 168,-193 220,-193 220,-174 168,-174"/>
<text text-anchor="middle" x="194" y="-181" font-family="Helvetica,sans-Serif" font-size="10.00">memory</text>
</g>
<!-- Node2&#45;&gt;Node3 -->
<g id="edge3" class="edge"><title>Node2&#45;&gt;Node3</title>
<path fill="none" stroke="midnightblue" d="M210.278,-235.475C207.569,-226.992 203.326,-213.704 199.851,-202.822"/>
<polygon fill="midnightblue" stroke="midnightblue" points="203.093,-201.47 196.717,-193.009 196.425,-203.6 203.093,-201.47"/>
</g>
<!-- Node4 -->
<g id="node5" class="node"><title>Node4</title>
<polygon fill="white" stroke="#bfbfbf" points="156,-56.5 156,-75.5 200,-75.5 200,-56.5 156,-56.5"/>
<text text-anchor="middle" x="178" y="-63.5" font-family="Helvetica,sans-Serif" font-size="10.00">vector</text>
</g>
<!-- Node2&#45;&gt;Node4 -->
<g id="edge4" class="edge"><title>Node2&#45;&gt;Node4</title>
<path fill="none" stroke="midnightblue" d="M196.367,-235.464C183.512,-227.841 166.661,-215.356 159,-199 141.306,-161.223 157.93,-111.235 169.33,-84.938"/>
<polygon fill="midnightblue" stroke="midnightblue" points="172.665,-86.0613 173.641,-75.5115 166.299,-83.1499 172.665,-86.0613"/>
</g>
<!-- Node6 -->
<g id="node7" class="node"><title>Node6</title>
<polygon fill="white" stroke="#bfbfbf" points="76.5,-174 76.5,-193 111.5,-193 111.5,-174 76.5,-174"/>
<text text-anchor="middle" x="94" y="-181" font-family="Helvetica,sans-Serif" font-size="10.00">map</text>
</g>
<!-- Node5&#45;&gt;Node6 -->
<g id="edge6" class="edge"><title>Node5&#45;&gt;Node6</title>
<path fill="none" stroke="midnightblue" d="M78.579,-235.475C81.1453,-226.992 85.1651,-213.704 88.4571,-202.822"/>
<polygon fill="midnightblue" stroke="midnightblue" points="91.8802,-203.594 91.4258,-193.009 85.1801,-201.567 91.8802,-203.594"/>
</g>
<!-- Node7 -->
<g id="node8" class="node"><title>Node7</title>
<polygon fill="white" stroke="#bfbfbf" points="14,-174 14,-193 58,-193 58,-174 14,-174"/>
<text text-anchor="middle" x="36" y="-181" font-family="Helvetica,sans-Serif" font-size="10.00">mutex</text>
</g>
<!-- Node5&#45;&gt;Node7 -->
<g id="edge7" class="edge"><title>Node5&#45;&gt;Node7</title>
<path fill="none" stroke="midnightblue" d="M70.269,-235.475C64.3284,-226.638 54.8831,-212.589 47.4118,-201.475"/>
<polygon fill="midnightblue" stroke="midnightblue" points="50.2042,-199.355 41.7204,-193.009 44.3949,-203.261 50.2042,-199.355"/>
</g>
<!-- Node8&#45;&gt;Node3 -->
<g id="edge55" class="edge"><title>Node8&#45;&gt;Node3</title>
<path fill="none" stroke="midnightblue" d="M1398.75,-244.331C1164.67,-244.859 458.726,-242.687 234,-199 230.56,-198.331 227.022,-197.413 223.54,-196.359"/>
<polygon fill="midnightblue" stroke="midnightblue" points="224.596,-193.022 214.002,-193.131 222.352,-199.653 224.596,-193.022"/>
</g>
<!-- Node8&#45;&gt;Node4 -->
<g id="edge57" class="edge"><title>Node8&#45;&gt;Node4</title>
<path fill="none" stroke="midnightblue" d="M1398.81,-242.331C1137.59,-235.936 289.292,-209.337 197,-132 183.643,-120.808 179.384,-100.787 178.165,-85.9118"/>
<polygon fill="midnightblue" stroke="midnightblue" points="181.655,-85.6105 177.725,-75.7716 174.662,-85.9139 181.655,-85.6105"/>
</g>
<!-- Node8&#45;&gt;Node6 -->
<g id="edge54" class="edge"><title>Node8&#45;&gt;Node6</title>
<path fill="none" stroke="midnightblue" d="M1398.67,-243.248C1155.58,-240.561 401.218,-229.887 159,-199 146.531,-197.41 132.929,-194.555 121.406,-191.797"/>
<polygon fill="midnightblue" stroke="midnightblue" points="122.05,-188.35 111.5,-189.33 120.358,-195.143 122.05,-188.35"/>
</g>
<!-- Node9 -->
<g id="node10" class="node"><title>Node9</title>
<g id="a_node10"><a xlink:href="../../d1/ddd/leosacexception_8hpp.html" target="_top" xlink:title="Exception class for LEOSAC Project related errors. ">
<polygon fill="white" stroke="black" points="821.5,-174 821.5,-193 972.5,-193 972.5,-174 821.5,-174"/>
<text text-anchor="middle" x="897" y="-181" font-family="Helvetica,sans-Serif" font-size="10.00">exception/leosacexception.hpp</text>
</a>
</g>
</g>
<!-- Node8&#45;&gt;Node9 -->
<g id="edge9" class="edge"><title>Node8&#45;&gt;Node9</title>
<path fill="none" stroke="midnightblue" d="M1398.84,-236.16C1291.27,-225.087 1095.42,-204.926 982.829,-193.335"/>
<polygon fill="midnightblue" stroke="midnightblue" points="983.173,-189.852 972.867,-192.31 982.456,-196.816 983.173,-189.852"/>
</g>
<!-- Node11 -->
<g id="node12" class="node"><title>Node11</title>
<polygon fill="white" stroke="#bfbfbf" points="999.5,-0.5 999.5,-19.5 1040.5,-19.5 1040.5,-0.5 999.5,-0.5"/>
<text text-anchor="middle" x="1020" y="-7.5" font-family="Helvetica,sans-Serif" font-size="10.00">string</text>
</g>
<!-- Node8&#45;&gt;Node11 -->
<g id="edge56" class="edge"><title>Node8&#45;&gt;Node11</title>
<path fill="none" stroke="midnightblue" d="M1476.51,-235.464C1479.59,-220.243 1487.89,-188.13 1506,-168 1531.95,-139.145 1597.73,-141.908 1573,-112 1539.1,-71.0126 1161.96,-26.594 1050.71,-14.3076"/>
<polygon fill="midnightblue" stroke="midnightblue" points="1050.83,-10.7994 1040.5,-13.1885 1050.06,-17.7577 1050.83,-10.7994"/>
</g>
<!-- Node8&#45;&gt;Node25 -->
<g id="edge46" class="edge"><title>Node8&#45;&gt;Node25</title>
<path fill="none" stroke="midnightblue" d="M1540.03,-235.497C1593.99,-227.837 1672.52,-215.283 1740,-199 1743.63,-198.123 1747.4,-197.112 1751.14,-196.039"/>
<polygon fill="midnightblue" stroke="midnightblue" points="1752.3,-199.343 1760.87,-193.107 1750.28,-192.641 1752.3,-199.343"/>
</g>
<!-- Node8&#45;&gt;Node30 -->
<g id="edge53" class="edge"><title>Node8&#45;&gt;Node30</title>
<path fill="none" stroke="midnightblue" d="M1488.04,-235.475C1500.48,-227.341 1519.67,-214.791 1535.9,-204.179"/>
<polygon fill="midnightblue" stroke="midnightblue" points="1538.1,-206.925 1544.55,-198.523 1534.27,-201.066 1538.1,-206.925"/>
</g>
<!-- Node8&#45;&gt;Node31 -->
<g id="edge58" class="edge"><title>Node8&#45;&gt;Node31</title>
<path fill="none" stroke="midnightblue" d="M1504.8,-235.475C1541.25,-225.048 1603.08,-207.362 1643.47,-195.807"/>
<polygon fill="midnightblue" stroke="midnightblue" points="1644.6,-199.124 1653.25,-193.009 1642.68,-192.394 1644.6,-199.124"/>
</g>
<!-- Node10 -->
<g id="node11" class="node"><title>Node10</title>
<g id="a_node11"><a xlink:href="../../d6/d2f/Stacktrace_8hpp.html" target="_top" xlink:title="tools/Stacktrace.hpp">
<polygon fill="white" stroke="black" points="206.5,-112.5 206.5,-131.5 313.5,-131.5 313.5,-112.5 206.5,-112.5"/>
<text text-anchor="middle" x="260" y="-119.5" font-family="Helvetica,sans-Serif" font-size="10.00">tools/Stacktrace.hpp</text>
</a>
</g>
</g>
<!-- Node9&#45;&gt;Node10 -->
<g id="edge10" class="edge"><title>Node9&#45;&gt;Node10</title>
<path fill="none" stroke="midnightblue" d="M821.053,-177.205C712.882,-169.356 507.995,-153.36 323.885,-132.166"/>
<polygon fill="midnightblue" stroke="midnightblue" points="324.081,-128.666 313.744,-130.991 323.275,-135.619 324.081,-128.666"/>
</g>
<!-- Node9&#45;&gt;Node11 -->
<g id="edge15" class="edge"><title>Node9&#45;&gt;Node11</title>
<path fill="none" stroke="midnightblue" d="M821.345,-180.724C741.011,-177.052 621.712,-165.875 593,-132 587.253,-125.219 587.589,-119.052 593,-112 641.852,-48.3355 899.507,-21.0529 989.192,-13.3891"/>
<polygon fill="midnightblue" stroke="midnightblue" points="989.595,-16.8677 999.271,-12.5506 989.015,-9.89181 989.595,-16.8677"/>
</g>
<!-- Node12 -->
<g id="node13" class="node"><title>Node12</title>
<polygon fill="white" stroke="#bfbfbf" points="1315.5,-112.5 1315.5,-131.5 1364.5,-131.5 1364.5,-112.5 1315.5,-112.5"/>
<text text-anchor="middle" x="1340" y="-119.5" font-family="Helvetica,sans-Serif" font-size="10.00">cstddef</text>
</g>
<!-- Node9&#45;&gt;Node12 -->
<g id="edge13" class="edge"><title>Node9&#45;&gt;Node12</title>
<path fill="none" stroke="midnightblue" d="M972.865,-176.244C1053.17,-168.918 1183.69,-155.011 1305.34,-131.879"/>
<polygon fill="midnightblue" stroke="midnightblue" points="1306.05,-135.308 1315.21,-129.979 1304.73,-128.434 1306.05,-135.308"/>
</g>
<!-- Node13 -->
<g id="node14" class="node"><title>Node13</title>
<polygon fill="white" stroke="#bfbfbf" points="1382.5,-112.5 1382.5,-131.5 1441.5,-131.5 1441.5,-112.5 1382.5,-112.5"/>
<text text-anchor="middle" x="1412" y="-119.5" font-family="Helvetica,sans-Serif" font-size="10.00">exception</text>
</g>
<!-- Node9&#45;&gt;Node13 -->
<g id="edge14" class="edge"><title>Node9&#45;&gt;Node13</title>
<path fill="none" stroke="midnightblue" d="M972.817,-177.304C1064.95,-170.351 1225.25,-156.204 1372.16,-131.941"/>
<polygon fill="midnightblue" stroke="midnightblue" points="1372.98,-135.353 1382.26,-130.253 1371.82,-128.449 1372.98,-135.353"/>
</g>
<!-- Node14 -->
<g id="node15" class="node"><title>Node14</title>
<g id="a_node15"><a xlink:href="../../d7/d7a/configexception_8hpp.html" target="_top" xlink:title="configexception.hpp">
<polygon fill="white" stroke="black" points="1460,-112.5 1460,-131.5 1564,-131.5 1564,-112.5 1460,-112.5"/>
<text text-anchor="middle" x="1512" y="-119.5" font-family="Helvetica,sans-Serif" font-size="10.00">configexception.hpp</text>
</a>
</g>
</g>
<!-- Node9&#45;&gt;Node14 -->
<g id="edge16" class="edge"><title>Node9&#45;&gt;Node14</title>
<path fill="none" stroke="midnightblue" d="M972.51,-176.406C1077.68,-168.033 1273.93,-151.74 1441,-132 1443.84,-131.665 1446.74,-131.304 1449.68,-130.926"/>
<polygon fill="midnightblue" stroke="midnightblue" points="1450.32,-134.372 1459.77,-129.588 1449.4,-127.433 1450.32,-134.372"/>
</g>
<!-- Node17 -->
<g id="node18" class="node"><title>Node17</title>
<g id="a_node18"><a xlink:href="../../d8/db0/coreexception_8hpp.html" target="_top" xlink:title="Exception class for Core related errors. ">
<polygon fill="white" stroke="black" points="730,-112.5 730,-131.5 826,-131.5 826,-112.5 730,-112.5"/>
<text text-anchor="middle" x="778" y="-119.5" font-family="Helvetica,sans-Serif" font-size="10.00">coreexception.hpp</text>
</a>
</g>
</g>
<!-- Node9&#45;&gt;Node17 -->
<g id="edge22" class="edge"><title>Node9&#45;&gt;Node17</title>
<path fill="none" stroke="midnightblue" d="M875.05,-173.975C853.293,-164.166 820.546,-147.935 799.1,-136.425"/>
<polygon fill="midnightblue" stroke="midnightblue" points="800.573,-133.242 790.121,-131.509 797.212,-139.382 800.573,-133.242"/>
</g>
<!-- Node18 -->
<g id="node19" class="node"><title>Node18</title>
<g id="a_node19"><a xlink:href="../../d8/d77/deviceexception_8hpp.html" target="_top" xlink:title="Exception class for Device related errors. ">
<polygon fill="white" stroke="black" points="844,-112.5 844,-131.5 950,-131.5 950,-112.5 844,-112.5"/>
<text text-anchor="middle" x="897" y="-119.5" font-family="Helvetica,sans-Serif" font-size="10.00">deviceexception.hpp</text>
</a>
</g>
</g>
<!-- Node9&#45;&gt;Node18 -->
<g id="edge25" class="edge"><title>Node9&#45;&gt;Node18</title>
<path fill="none" stroke="midnightblue" d="M892.099,-173.975C890.268,-165.58 889.797,-152.481 890.685,-141.663"/>
<polygon fill="midnightblue" stroke="midnightblue" points="894.186,-141.897 892.103,-131.509 887.254,-140.929 894.186,-141.897"/>
</g>
<!-- Node19 -->
<g id="node20" class="node"><title>Node19</title>
<g id="a_node20"><a xlink:href="../../db/d35/dynlibexception_8hpp.html" target="_top" xlink:title="Exception class for DynLib related errors. ">
<polygon fill="white" stroke="black" points="968.5,-112.5 968.5,-131.5 1071.5,-131.5 1071.5,-112.5 968.5,-112.5"/>
<text text-anchor="middle" x="1020" y="-119.5" font-family="Helvetica,sans-Serif" font-size="10.00">dynlibexception.hpp</text>
</a>
</g>
</g>
<!-- Node9&#45;&gt;Node19 -->
<g id="edge28" class="edge"><title>Node9&#45;&gt;Node19</title>
<path fill="none" stroke="midnightblue" d="M909.722,-173.975C928.268,-163.945 962.638,-147.2 988.199,-135.655"/>
<polygon fill="midnightblue" stroke="midnightblue" points="989.8,-138.773 997.513,-131.509 986.953,-132.378 989.8,-138.773"/>
</g>
<!-- Node20 -->
<g id="node21" class="node"><title>Node20</title>
<g id="a_node21"><a xlink:href="../../d0/d4e/fsexception_8hpp.html" target="_top" xlink:title="Exception class for filesystem related errors. ">
<polygon fill="white" stroke="black" points="1090,-112.5 1090,-131.5 1176,-131.5 1176,-112.5 1090,-112.5"/>
<text text-anchor="middle" x="1133" y="-119.5" font-family="Helvetica,sans-Serif" font-size="10.00">fsexception.hpp</text>
</a>
</g>
</g>
<!-- Node9&#45;&gt;Node20 -->
<g id="edge31" class="edge"><title>Node9&#45;&gt;Node20</title>
<path fill="none" stroke="midnightblue" d="M925.912,-173.975C965.494,-163.415 1036.75,-145.411 1084.53,-133.869"/>
<polygon fill="midnightblue" stroke="midnightblue" points="1085.45,-137.249 1094.35,-131.509 1083.81,-130.443 1085.45,-137.249"/>
</g>
<!-- Node21 -->
<g id="node22" class="node"><title>Node21</title>
<g id="a_node22"><a xlink:href="../../d1/d8e/gpioexception_8hpp.html" target="_top" xlink:title="Exception class for Gpio related errors. ">
<polygon fill="white" stroke="black" points="331.5,-112.5 331.5,-131.5 426.5,-131.5 426.5,-112.5 331.5,-112.5"/>
<text text-anchor="middle" x="379" y="-119.5" font-family="Helvetica,sans-Serif" font-size="10.00">gpioexception.hpp</text>
</a>
</g>
</g>
<!-- Node9&#45;&gt;Node21 -->
<g id="edge34" class="edge"><title>Node9&#45;&gt;Node21</title>
<path fill="none" stroke="midnightblue" d="M821.412,-176.016C730.282,-167.512 572.543,-151.517 432.503,-132.86"/>
<polygon fill="midnightblue" stroke="midnightblue" points="432.828,-129.372 422.452,-131.512 431.898,-136.31 432.828,-129.372"/>
</g>
<!-- Node22 -->
<g id="node23" class="node"><title>Node22</title>
<g id="a_node23"><a xlink:href="../../d7/d8c/moduleexception_8hpp.html" target="_top" xlink:title="Exception class for modules. ">
<polygon fill="white" stroke="black" points="602.5,-112.5 602.5,-131.5 711.5,-131.5 711.5,-112.5 602.5,-112.5"/>
<text text-anchor="middle" x="657" y="-119.5" font-family="Helvetica,sans-Serif" font-size="10.00">moduleexception.hpp</text>
</a>
</g>
</g>
<!-- Node9&#45;&gt;Node22 -->
<g id="edge37" class="edge"><title>Node9&#45;&gt;Node22</title>
<path fill="none" stroke="midnightblue" d="M857.713,-173.975C813.098,-163.482 740.954,-145.637 696.327,-134.087"/>
<polygon fill="midnightblue" stroke="midnightblue" points="696.984,-130.642 686.425,-131.509 695.221,-137.416 696.984,-130.642"/>
</g>
<!-- Node23 -->
<g id="node24" class="node"><title>Node23</title>
<g id="a_node24"><a xlink:href="../../df/d8d/scriptexception_8hpp.html" target="_top" xlink:title="Exception class for Script related errors. ">
<polygon fill="white" stroke="black" points="444.5,-112.5 444.5,-131.5 545.5,-131.5 545.5,-112.5 444.5,-112.5"/>
<text text-anchor="middle" x="495" y="-119.5" font-family="Helvetica,sans-Serif" font-size="10.00">scriptexception.hpp</text>
</a>
</g>
</g>
<!-- Node9&#45;&gt;Node23 -->
<g id="edge40" class="edge"><title>Node9&#45;&gt;Node23</title>
<path fill="none" stroke="midnightblue" d="M834.503,-173.975C758.517,-163.08 631.282,-144.261 555.986,-132.79"/>
<polygon fill="midnightblue" stroke="midnightblue" points="556.13,-129.272 545.717,-131.222 555.074,-136.192 556.13,-129.272"/>
</g>
<!-- Node24 -->
<g id="node25" class="node"><title>Node24</title>
<g id="a_node25"><a xlink:href="../../dc/dce/signalexception_8hpp.html" target="_top" xlink:title="Exception class for Signal related errors. ">
<polygon fill="white" stroke="black" points="1194.5,-112.5 1194.5,-131.5 1297.5,-131.5 1297.5,-112.5 1194.5,-112.5"/>
<text text-anchor="middle" x="1246" y="-119.5" font-family="Helvetica,sans-Serif" font-size="10.00">signalexception.hpp</text>
</a>
</g>
</g>
<!-- Node9&#45;&gt;Node24 -->
<g id="edge43" class="edge"><title>Node9&#45;&gt;Node24</title>
<path fill="none" stroke="midnightblue" d="M942.103,-173.975C1003.94,-163.026 1115.03,-144.073 1184.45,-132.619"/>
<polygon fill="midnightblue" stroke="midnightblue" points="1185.08,-136.063 1194.38,-130.986 1183.95,-129.156 1185.08,-136.063"/>
</g>
<!-- Node10&#45;&gt;Node4 -->
<g id="edge12" class="edge"><title>Node10&#45;&gt;Node4</title>
<path fill="none" stroke="midnightblue" d="M246.825,-112.324C234.153,-103.979 214.767,-91.2122 199.794,-81.3524"/>
<polygon fill="midnightblue" stroke="midnightblue" points="201.419,-78.2313 191.142,-75.6545 197.569,-84.0776 201.419,-78.2313"/>
</g>
<!-- Node10&#45;&gt;Node11 -->
<g id="edge11" class="edge"><title>Node10&#45;&gt;Node11</title>
<path fill="none" stroke="midnightblue" d="M282.078,-112.449C320.043,-98.1442 400.427,-69.5951 471,-56 665.768,-18.4799 905.306,-12.2183 989.222,-11.193"/>
<polygon fill="midnightblue" stroke="midnightblue" points="989.381,-14.6916 999.343,-11.0862 989.307,-7.69201 989.381,-14.6916"/>
</g>
<!-- Node14&#45;&gt;Node9 -->
<g id="edge17" class="edge"><title>Node14&#45;&gt;Node9</title>
<path fill="none" stroke="midnightblue" d="M1462.93,-131.525C1461.61,-131.688 1460.3,-131.847 1459,-132 1290.96,-151.855 1093.39,-168.223 982.872,-176.552"/>
<polygon fill="midnightblue" stroke="midnightblue" points="982.491,-173.071 972.78,-177.309 983.014,-180.051 982.491,-173.071"/>
</g>
<!-- Node14&#45;&gt;Node11 -->
<g id="edge21" class="edge"><title>Node14&#45;&gt;Node11</title>
<path fill="none" stroke="midnightblue" d="M1473.8,-112.46C1379.31,-91.3326 1136.05,-36.9463 1050.39,-17.7956"/>
<polygon fill="midnightblue" stroke="midnightblue" points="1051.04,-14.3545 1040.52,-15.5881 1049.52,-21.1858 1051.04,-14.3545"/>
</g>
<!-- Node15 -->
<g id="node16" class="node"><title>Node15</title>
<g id="a_node16"><a xlink:href="../../dd/d35/Colorize_8hpp.html" target="_top" xlink:title="tools/Colorize.hpp">
<polygon fill="white" stroke="black" points="1506.5,-56.5 1506.5,-75.5 1601.5,-75.5 1601.5,-56.5 1506.5,-56.5"/>
<text text-anchor="middle" x="1554" y="-63.5" font-family="Helvetica,sans-Serif" font-size="10.00">tools/Colorize.hpp</text>
</a>
</g>
</g>
<!-- Node14&#45;&gt;Node15 -->
<g id="edge18" class="edge"><title>Node14&#45;&gt;Node15</title>
<path fill="none" stroke="midnightblue" d="M1518.94,-112.083C1524.93,-104.377 1533.75,-93.0333 1541.05,-83.6531"/>
<polygon fill="midnightblue" stroke="midnightblue" points="1543.82,-85.7934 1547.19,-75.7511 1538.29,-81.4958 1543.82,-85.7934"/>
</g>
<!-- Node15&#45;&gt;Node11 -->
<g id="edge20" class="edge"><title>Node15&#45;&gt;Node11</title>
<path fill="none" stroke="midnightblue" d="M1506.3,-57.8354C1501.48,-57.1825 1496.64,-56.558 1492,-56 1326.08,-36.0602 1126.48,-19.4458 1050.96,-13.4226"/>
<polygon fill="midnightblue" stroke="midnightblue" points="1050.99,-9.91348 1040.74,-12.6116 1050.43,-16.8916 1050.99,-9.91348"/>
</g>
<!-- Node16 -->
<g id="node17" class="node"><title>Node16</title>
<polygon fill="white" stroke="#bfbfbf" points="1739,-0.5 1739,-19.5 1791,-19.5 1791,-0.5 1739,-0.5"/>
<text text-anchor="middle" x="1765" y="-7.5" font-family="Helvetica,sans-Serif" font-size="10.00">sstream</text>
</g>
<!-- Node15&#45;&gt;Node16 -->
<g id="edge19" class="edge"><title>Node15&#45;&gt;Node16</title>
<path fill="none" stroke="midnightblue" d="M1587.43,-56.4435C1626.02,-46.5674 1689.26,-30.3846 1728.93,-20.2314"/>
<polygon fill="midnightblue" stroke="midnightblue" points="1729.9,-23.5952 1738.72,-17.7251 1728.17,-16.8138 1729.9,-23.5952"/>
</g>
<!-- Node17&#45;&gt;Node9 -->
<g id="edge24" class="edge"><title>Node17&#45;&gt;Node9</title>
<path fill="none" stroke="midnightblue" d="M799.915,-131.509C821.66,-141.311 854.407,-157.542 875.866,-169.056"/>
<polygon fill="midnightblue" stroke="midnightblue" points="874.398,-172.243 884.851,-173.975 877.76,-166.103 874.398,-172.243"/>
</g>
<!-- Node17&#45;&gt;Node11 -->
<g id="edge23" class="edge"><title>Node17&#45;&gt;Node11</title>
<path fill="none" stroke="midnightblue" d="M796.989,-112.368C839.4,-93.0908 942.002,-46.4536 991.863,-23.7894"/>
<polygon fill="midnightblue" stroke="midnightblue" points="993.444,-26.9158 1001.1,-19.5914 990.547,-20.5432 993.444,-26.9158"/>
</g>
<!-- Node18&#45;&gt;Node9 -->
<g id="edge27" class="edge"><title>Node18&#45;&gt;Node9</title>
<path fill="none" stroke="midnightblue" d="M901.897,-131.509C903.73,-139.898 904.203,-152.996 903.317,-163.817"/>
<polygon fill="midnightblue" stroke="midnightblue" points="899.815,-163.588 901.901,-173.975 906.748,-164.554 899.815,-163.588"/>
</g>
<!-- Node18&#45;&gt;Node11 -->
<g id="edge26" class="edge"><title>Node18&#45;&gt;Node11</title>
<path fill="none" stroke="midnightblue" d="M906.652,-112.368C927.399,-93.8137 976.488,-49.9129 1002.74,-26.4376"/>
<polygon fill="midnightblue" stroke="midnightblue" points="1005.27,-28.8665 1010.39,-19.5914 1000.61,-23.6487 1005.27,-28.8665"/>
</g>
<!-- Node19&#45;&gt;Node9 -->
<g id="edge30" class="edge"><title>Node19&#45;&gt;Node9</title>
<path fill="none" stroke="midnightblue" d="M1007.31,-131.509C988.778,-141.532 954.412,-158.276 928.842,-169.827"/>
<polygon fill="midnightblue" stroke="midnightblue" points="927.236,-166.711 919.523,-173.975 930.083,-173.106 927.236,-166.711"/>
</g>
<!-- Node19&#45;&gt;Node11 -->
<g id="edge29" class="edge"><title>Node19&#45;&gt;Node11</title>
<path fill="none" stroke="midnightblue" d="M1020,-112.368C1020,-94.617 1020,-53.6664 1020,-29.5974"/>
<polygon fill="midnightblue" stroke="midnightblue" points="1023.5,-29.5914 1020,-19.5914 1016.5,-29.5915 1023.5,-29.5914"/>
</g>
<!-- Node20&#45;&gt;Node9 -->
<g id="edge33" class="edge"><title>Node20&#45;&gt;Node9</title>
<path fill="none" stroke="midnightblue" d="M1104.15,-131.509C1064.6,-142.061 993.341,-160.065 945.538,-171.614"/>
<polygon fill="midnightblue" stroke="midnightblue" points="944.619,-168.235 935.714,-173.975 946.255,-175.041 944.619,-168.235"/>
</g>
<!-- Node20&#45;&gt;Node11 -->
<g id="edge32" class="edge"><title>Node20&#45;&gt;Node11</title>
<path fill="none" stroke="midnightblue" d="M1124.13,-112.368C1105.15,-93.8941 1060.36,-50.2926 1036.17,-26.7436"/>
<polygon fill="midnightblue" stroke="midnightblue" points="1038.43,-24.0588 1028.83,-19.5914 1033.55,-29.0747 1038.43,-24.0588"/>
</g>
<!-- Node21&#45;&gt;Node9 -->
<g id="edge35" class="edge"><title>Node21&#45;&gt;Node9</title>
<path fill="none" stroke="midnightblue" d="M426.725,-129.5C432.576,-130.387 438.438,-131.25 444,-132 571.747,-149.236 719.979,-164.627 811.188,-173.763"/>
<polygon fill="midnightblue" stroke="midnightblue" points="810.903,-177.252 821.201,-174.764 811.599,-170.286 810.903,-177.252"/>
</g>
<!-- Node21&#45;&gt;Node11 -->
<g id="edge36" class="edge"><title>Node21&#45;&gt;Node11</title>
<path fill="none" stroke="midnightblue" d="M394.295,-112.477C420.939,-98.0806 477.998,-69.2248 530,-56 699.216,-12.966 910.568,-9.96359 988.913,-10.5022"/>
<polygon fill="midnightblue" stroke="midnightblue" points="989.035,-14.0034 999.067,-10.5979 989.101,-7.00369 989.035,-14.0034"/>
</g>
<!-- Node22&#45;&gt;Node9 -->
<g id="edge39" class="edge"><title>Node22&#45;&gt;Node9</title>
<path fill="none" stroke="midnightblue" d="M696.219,-131.509C740.807,-141.995 812.951,-159.84 857.606,-171.396"/>
<polygon fill="midnightblue" stroke="midnightblue" points="856.955,-174.843 867.514,-173.975 858.719,-168.069 856.955,-174.843"/>
</g>
<!-- Node22&#45;&gt;Node11 -->
<g id="edge38" class="edge"><title>Node22&#45;&gt;Node11</title>
<path fill="none" stroke="midnightblue" d="M685.182,-112.46C752.046,-92.1982 919.855,-41.347 989.237,-20.3222"/>
<polygon fill="midnightblue" stroke="midnightblue" points="990.562,-23.578 999.117,-17.3283 988.531,-16.8788 990.562,-23.578"/>
</g>
<!-- Node23&#45;&gt;Node9 -->
<g id="edge42" class="edge"><title>Node23&#45;&gt;Node9</title>
<path fill="none" stroke="midnightblue" d="M545.742,-129.844C619.206,-140.312 754.852,-160.354 834.412,-172.466"/>
<polygon fill="midnightblue" stroke="midnightblue" points="833.89,-175.927 844.304,-173.975 834.946,-169.007 833.89,-175.927"/>
</g>
<!-- Node23&#45;&gt;Node11 -->
<g id="edge41" class="edge"><title>Node23&#45;&gt;Node11</title>
<path fill="none" stroke="midnightblue" d="M500.58,-112.391C510.534,-97.865 532.873,-68.819 560,-56 636.513,-19.843 899.218,-12.7189 989.356,-11.3312"/>
<polygon fill="midnightblue" stroke="midnightblue" points="989.519,-14.8293 999.469,-11.1888 989.421,-7.83001 989.519,-14.8293"/>
</g>
<!-- Node24&#45;&gt;Node9 -->
<g id="edge45" class="edge"><title>Node24&#45;&gt;Node9</title>
<path fill="none" stroke="midnightblue" d="M1200.99,-131.509C1140.15,-142.282 1031.52,-160.822 961.884,-172.33"/>
<polygon fill="midnightblue" stroke="midnightblue" points="961.201,-168.895 951.904,-173.975 962.34,-175.802 961.201,-168.895"/>
</g>
<!-- Node24&#45;&gt;Node11 -->
<g id="edge44" class="edge"><title>Node24&#45;&gt;Node11</title>
<path fill="none" stroke="midnightblue" d="M1228.27,-112.368C1188.82,-93.1711 1093.64,-46.8418 1046.86,-24.074"/>
<polygon fill="midnightblue" stroke="midnightblue" points="1048.17,-20.8208 1037.65,-19.5914 1045.11,-27.1149 1048.17,-20.8208"/>
</g>
<!-- Node25&#45;&gt;Node11 -->
<g id="edge52" class="edge"><title>Node25&#45;&gt;Node11</title>
<path fill="none" stroke="midnightblue" d="M1759.82,-173.995C1722.52,-161.701 1657.59,-139.606 1649,-132 1620.58,-106.826 1641.62,-77.0089 1610,-56 1563.22,-24.92 1165.79,-14.1013 1050.95,-11.6083"/>
<polygon fill="midnightblue" stroke="midnightblue" points="1050.82,-8.10467 1040.74,-11.3926 1050.67,-15.1031 1050.82,-8.10467"/>
</g>
<!-- Node25&#45;&gt;Node16 -->
<g id="edge51" class="edge"><title>Node25&#45;&gt;Node16</title>
<path fill="none" stroke="midnightblue" d="M1822.39,-181.159C1881.36,-177.475 1988.21,-163.678 1957,-112 1923.06,-55.7981 1846.32,-29.3052 1800.8,-18.1207"/>
<polygon fill="midnightblue" stroke="midnightblue" points="1801.58,-14.7074 1791.04,-15.8394 1799.98,-21.5237 1801.58,-14.7074"/>
</g>
<!-- Node26 -->
<g id="node27" class="node"><title>Node26</title>
<polygon fill="white" stroke="#bfbfbf" points="1761.5,-112.5 1761.5,-131.5 1810.5,-131.5 1810.5,-112.5 1761.5,-112.5"/>
<text text-anchor="middle" x="1786" y="-119.5" font-family="Helvetica,sans-Serif" font-size="10.00">cassert</text>
</g>
<!-- Node25&#45;&gt;Node26 -->
<g id="edge47" class="edge"><title>Node25&#45;&gt;Node26</title>
<path fill="none" stroke="midnightblue" d="M1786,-173.975C1786,-165.58 1786,-152.481 1786,-141.663"/>
<polygon fill="midnightblue" stroke="midnightblue" points="1789.5,-141.509 1786,-131.509 1782.5,-141.509 1789.5,-141.509"/>
</g>
<!-- Node27 -->
<g id="node28" class="node"><title>Node27</title>
<polygon fill="white" stroke="#bfbfbf" points="1828.5,-112.5 1828.5,-131.5 1875.5,-131.5 1875.5,-112.5 1828.5,-112.5"/>
<text text-anchor="middle" x="1852" y="-119.5" font-family="Helvetica,sans-Serif" font-size="10.00">csignal</text>
</g>
<!-- Node25&#45;&gt;Node27 -->
<g id="edge48" class="edge"><title>Node25&#45;&gt;Node27</title>
<path fill="none" stroke="midnightblue" d="M1795.46,-173.975C1805.75,-164.697 1822.42,-149.671 1834.99,-138.331"/>
<polygon fill="midnightblue" stroke="midnightblue" points="1837.48,-140.805 1842.56,-131.509 1832.79,-135.605 1837.48,-140.805"/>
</g>
<!-- Node28 -->
<g id="node29" class="node"><title>Node28</title>
<polygon fill="white" stroke="#bfbfbf" points="1894,-112.5 1894,-131.5 1948,-131.5 1948,-112.5 1894,-112.5"/>
<text text-anchor="middle" x="1921" y="-119.5" font-family="Helvetica,sans-Serif" font-size="10.00">iostream</text>
</g>
<!-- Node25&#45;&gt;Node28 -->
<g id="edge49" class="edge"><title>Node25&#45;&gt;Node28</title>
<path fill="none" stroke="midnightblue" d="M1805.34,-173.975C1828.1,-163.945 1866.09,-147.2 1892.29,-135.655"/>
<polygon fill="midnightblue" stroke="midnightblue" points="1893.95,-138.745 1901.69,-131.509 1891.13,-132.339 1893.95,-138.745"/>
</g>
<!-- Node29 -->
<g id="node30" class="node"><title>Node29</title>
<polygon fill="white" stroke="#bfbfbf" points="1658.5,-112.5 1658.5,-131.5 1743.5,-131.5 1743.5,-112.5 1658.5,-112.5"/>
<text text-anchor="middle" x="1701" y="-119.5" font-family="Helvetica,sans-Serif" font-size="10.00">spdlog/spdlog.h</text>
</g>
<!-- Node25&#45;&gt;Node29 -->
<g id="edge50" class="edge"><title>Node25&#45;&gt;Node29</title>
<path fill="none" stroke="midnightblue" d="M1773.82,-173.975C1760.19,-164.431 1737.87,-148.807 1721.53,-137.368"/>
<polygon fill="midnightblue" stroke="midnightblue" points="1723.36,-134.376 1713.16,-131.509 1719.34,-140.111 1723.36,-134.376"/>
</g>
<!-- Node32&#45;&gt;Node11 -->
<g id="edge61" class="edge"><title>Node32&#45;&gt;Node11</title>
<path fill="none" stroke="midnightblue" d="M2013.04,-235.207C2009.92,-211.188 1997.79,-144.126 1957,-112 1884.12,-54.5963 1204.9,-19.6297 1050.93,-12.4013"/>
<polygon fill="midnightblue" stroke="midnightblue" points="1050.92,-8.89709 1040.77,-11.9288 1050.6,-15.8895 1050.92,-8.89709"/>
</g>
<!-- Node33 -->
<g id="node34" class="node"><title>Node33</title>
<polygon fill="white" stroke="#bfbfbf" points="2042,-174 2042,-193 2088,-193 2088,-174 2042,-174"/>
<text text-anchor="middle" x="2065" y="-181" font-family="Helvetica,sans-Serif" font-size="10.00">cstdint</text>
</g>
<!-- Node32&#45;&gt;Node33 -->
<g id="edge60" class="edge"><title>Node32&#45;&gt;Node33</title>
<path fill="none" stroke="midnightblue" d="M2021.31,-235.475C2029.03,-226.462 2041.41,-212.025 2051.02,-200.812"/>
<polygon fill="midnightblue" stroke="midnightblue" points="2053.86,-202.879 2057.71,-193.009 2048.54,-198.324 2053.86,-202.879"/>
</g>
</g>
</svg>
