<?xml version="1.0" encoding="UTF-8" standalone="no"?>
<!DOCTYPE svg PUBLIC "-//W3C//DTD SVG 1.1//EN"
 "http://www.w3.org/Graphics/SVG/1.1/DTD/svg11.dtd">
<!-- Generated by graphviz version 2.38.0 (20140413.2041)
 -->
<!-- Title: Leosac::Module::StdinControllerModule Pages: 1 -->
<svg width="660pt" height="107pt"
 viewBox="0.00 0.00 660.00 107.00" xmlns="http://www.w3.org/2000/svg" xmlns:xlink="http://www.w3.org/1999/xlink">
<g id="graph0" class="graph" transform="scale(1 1) rotate(0) translate(4 103)">
<title>Leosac::Module::StdinControllerModule</title>
<polygon fill="white" stroke="none" points="-4,4 -4,-103 656,-103 656,4 -4,4"/>
<!-- Node2 -->
<g id="node1" class="node"><title>Node2</title>
<polygon fill="#bfbfbf" stroke="black" points="496,-40 496,-70 652,-70 652,-40 496,-40"/>
<text text-anchor="start" x="504" y="-58" font-family="Helvetica,sans-Serif" font-size="10.00">Leosac::Module::StdinController</text>
<text text-anchor="middle" x="574" y="-47" font-family="Helvetica,sans-Serif" font-size="10.00">Module</text>
</g>
<!-- Node3 -->
<g id="node2" class="node"><title>Node3</title>
<g id="a_node2"><a xlink:href="../../df/d9f/classLeosac_1_1Module_1_1BaseModule.html" target="_top" xlink:title="Base class for module implementation. ">
<polygon fill="white" stroke="black" points="263,-19.5 263,-38.5 409,-38.5 409,-19.5 263,-19.5"/>
<text text-anchor="middle" x="336" y="-26.5" font-family="Helvetica,sans-Serif" font-size="10.00">Leosac::Module::BaseModule</text>
</a>
</g>
</g>
<!-- Node3&#45;&gt;Node2 -->
<g id="edge1" class="edge"><title>Node3&#45;&gt;Node2</title>
<path fill="none" stroke="midnightblue" d="M419.196,-38.0555C443.999,-40.7881 471.134,-43.7774 495.612,-46.4743"/>
<polygon fill="midnightblue" stroke="midnightblue" points="419.413,-34.5583 409.09,-36.9421 418.647,-41.5162 419.413,-34.5583"/>
</g>
<!-- Node4 -->
<g id="node3" class="node"><title>Node4</title>
<g id="a_node3"><a xlink:title="STL class. ">
<polygon fill="white" stroke="#bfbfbf" points="132,-53.5 132,-72.5 192,-72.5 192,-53.5 132,-53.5"/>
<text text-anchor="middle" x="162" y="-60.5" font-family="Helvetica,sans-Serif" font-size="10.00">std::string</text>
</a>
</g>
</g>
<!-- Node4&#45;&gt;Node3 -->
<g id="edge2" class="edge"><title>Node4&#45;&gt;Node3</title>
<path fill="none" stroke="#9a32cd" stroke-dasharray="5,2" d="M201.907,-53.7418C204.643,-53.1378 207.361,-52.5513 210,-52 232.895,-47.2172 258.262,-42.4519 280.127,-38.5096"/>
<polygon fill="#9a32cd" stroke="#9a32cd" points="201.016,-50.3549 192.035,-55.9752 202.561,-57.1824 201.016,-50.3549"/>
<text text-anchor="middle" x="227.5" y="-55" font-family="Helvetica,sans-Serif" font-size="10.00"> name_</text>
</g>
<!-- Node7 -->
<g id="node6" class="node"><title>Node7</title>
<polygon fill="white" stroke="#bfbfbf" points="274.5,-57.5 274.5,-98.5 397.5,-98.5 397.5,-57.5 274.5,-57.5"/>
<text text-anchor="start" x="282.5" y="-86.5" font-family="Helvetica,sans-Serif" font-size="10.00">std::map&lt; std::string,</text>
<text text-anchor="start" x="282.5" y="-75.5" font-family="Helvetica,sans-Serif" font-size="10.00"> std::shared_ptr&lt; zmqpp</text>
<text text-anchor="middle" x="336" y="-64.5" font-family="Helvetica,sans-Serif" font-size="10.00">::socket &gt; &gt;</text>
</g>
<!-- Node4&#45;&gt;Node7 -->
<g id="edge6" class="edge"><title>Node4&#45;&gt;Node7</title>
<path fill="none" stroke="#9a32cd" stroke-dasharray="5,2" d="M202.156,-66.4148C223.461,-68.2727 250.285,-70.6121 274.242,-72.7013"/>
<polygon fill="#9a32cd" stroke="#9a32cd" points="202.444,-62.9267 192.177,-65.5445 201.836,-69.9002 202.444,-62.9267"/>
<text text-anchor="middle" x="227.5" y="-73" font-family="Helvetica,sans-Serif" font-size="10.00"> keys</text>
</g>
<!-- Node5 -->
<g id="node4" class="node"><title>Node5</title>
<g id="a_node4"><a xlink:title="STL class. ">
<polygon fill="white" stroke="#bfbfbf" points="0,-48 0,-78 95,-78 95,-48 0,-48"/>
<text text-anchor="start" x="8" y="-66" font-family="Helvetica,sans-Serif" font-size="10.00">std::basic_string&lt;</text>
<text text-anchor="middle" x="47.5" y="-55" font-family="Helvetica,sans-Serif" font-size="10.00"> char &gt;</text>
</a>
</g>
</g>
<!-- Node5&#45;&gt;Node4 -->
<g id="edge3" class="edge"><title>Node5&#45;&gt;Node4</title>
<path fill="none" stroke="midnightblue" d="M105.526,-63C114.678,-63 123.803,-63 131.931,-63"/>
<polygon fill="midnightblue" stroke="midnightblue" points="105.233,-59.5001 95.2328,-63 105.233,-66.5001 105.233,-59.5001"/>
</g>
<!-- Node6 -->
<g id="node5" class="node"><title>Node6</title>
<polygon fill="white" stroke="#bfbfbf" points="143,-0.5 143,-19.5 181,-19.5 181,-0.5 143,-0.5"/>
<text text-anchor="middle" x="162" y="-7.5" font-family="Helvetica,sans-Serif" font-size="10.00">ptree</text>
</g>
<!-- Node6&#45;&gt;Node3 -->
<g id="edge4" class="edge"><title>Node6&#45;&gt;Node3</title>
<path fill="none" stroke="#9a32cd" stroke-dasharray="5,2" d="M191.49,-9.05578C207.296,-8.85582 227.283,-9.13657 245,-11 261.639,-12.7501 279.77,-16.0927 295.369,-19.427"/>
<polygon fill="#9a32cd" stroke="#9a32cd" points="191.224,-5.56027 181.295,-9.25748 191.362,-12.5589 191.224,-5.56027"/>
<text text-anchor="middle" x="227.5" y="-14" font-family="Helvetica,sans-Serif" font-size="10.00"> config_</text>
</g>
<!-- Node7&#45;&gt;Node2 -->
<g id="edge5" class="edge"><title>Node7&#45;&gt;Node2</title>
<path fill="none" stroke="#9a32cd" stroke-dasharray="5,2" d="M407.808,-71.0992C435.589,-68.3917 467.55,-65.277 495.911,-62.5129"/>
<polygon fill="#9a32cd" stroke="#9a32cd" points="407.389,-67.6234 397.776,-72.0769 408.068,-74.5904 407.389,-67.6234"/>
<text text-anchor="middle" x="452.5" y="-71" font-family="Helvetica,sans-Serif" font-size="10.00"> endpoints_</text>
</g>
</g>
</svg>
