<?xml version="1.0" encoding="UTF-8" standalone="no"?>
<!DOCTYPE svg PUBLIC "-//W3C//DTD SVG 1.1//EN"
 "http://www.w3.org/Graphics/SVG/1.1/DTD/svg11.dtd">
<!-- Generated by graphviz version 2.38.0 (20140413.2041)
 -->
<!-- Title: src/core/audit/Audit.hpp Pages: 1 -->
<!--zoomable 319 -->
<svg id="main" version="1.1" xmlns="http://www.w3.org/2000/svg" xmlns:xlink="http://www.w3.org/1999/xlink" xml:space="preserve" onload="init(evt)">
<style type="text/css"><![CDATA[
.edge:hover path { stroke: red; }
.edge:hover polygon { stroke: red; fill: red; }
]]></style>
<script type="text/javascript"><![CDATA[
var edges = document.getElementsByTagName('g');
if (edges && edges.length) {
  for (var i=0;i<edges.length;i++) {
    if (edges[i].id.substr(0,4)=='edge') {
      edges[i].setAttribute('class','edge');
    }
  }
}
]]></script>
        <defs>
                <circle id="rim" cx="0" cy="0" r="7"/>
                <circle id="rim2" cx="0" cy="0" r="3.5"/>
                <g id="zoomPlus">
                        <use xlink:href="#rim" fill="#404040">
                                <set attributeName="fill" to="#808080" begin="zoomplus.mouseover" end="zoomplus.mouseout"/>
                        </use>
                        <path d="M-4,0h8M0,-4v8" fill="none" stroke="white" stroke-width="1.5" pointer-events="none"/>
                </g>
                <g id="zoomMin">
                        <use xlink:href="#rim" fill="#404040">
                                <set attributeName="fill" to="#808080" begin="zoomminus.mouseover" end="zoomminus.mouseout"/>
                        </use>
                        <path d="M-4,0h8" fill="none" stroke="white" stroke-width="1.5" pointer-events="none"/>
                </g>
                <g id="dirArrow">
                        <path fill="none" stroke="white" stroke-width="1.5" d="M0,-3.0v7 M-2.5,-0.5L0,-3.0L2.5,-0.5"/>
                </g>
               <g id="resetDef">
                       <use xlink:href="#rim2" fill="#404040">
                               <set attributeName="fill" to="#808080" begin="reset.mouseover" end="reset.mouseout"/>
                       </use>
               </g>
        </defs>

<script type="text/javascript">
var viewWidth = 1124;
var viewHeight = 319;
var sectionId = 'dynsection-0';
</script>
<script xlink:href="../../svgpan.js"/>
<svg id="graph" class="graph">
<g id="viewport">
<title>src/core/audit/Audit.hpp</title>
<polygon fill="white" stroke="none" points="-4,4 -4,-315 1119.5,-315 1119.5,4 -4,4"/>
<!-- Node0 -->
<g id="node1" class="node"><title>Node0</title>
<polygon fill="#bfbfbf" stroke="black" points="250,-291.5 250,-310.5 370,-310.5 370,-291.5 250,-291.5"/>
<text text-anchor="middle" x="310" y="-298.5" font-family="Helvetica,sans-Serif" font-size="10.00">src/core/audit/Audit.hpp</text>
</g>
<!-- Node1 -->
<g id="node2" class="node"><title>Node1</title>
<g id="a_node2"><a xlink:href="../../dd/d64/AuditFactory_8hpp.html" target="_top" xlink:title="core/audit/AuditFactory.hpp">
<polygon fill="white" stroke="black" points="288.5,-179.5 288.5,-198.5 425.5,-198.5 425.5,-179.5 288.5,-179.5"/>
<text text-anchor="middle" x="357" y="-186.5" font-family="Helvetica,sans-Serif" font-size="10.00">core/audit/AuditFactory.hpp</text>
</a>
</g>
</g>
<!-- Node0&#45;&gt;Node1 -->
<g id="edge1" class="edge"><title>Node0&#45;&gt;Node1</title>
<path fill="none" stroke="midnightblue" d="M316.038,-291.378C322,-282.563 331.063,-268.314 337,-255 343.762,-239.836 349.13,-221.718 352.595,-208.467"/>
<polygon fill="midnightblue" stroke="midnightblue" points="356.019,-209.203 355.047,-198.653 349.228,-207.506 356.019,-209.203"/>
</g>
<!-- Node2 -->
<g id="node3" class="node"><title>Node2</title>
<g id="a_node3"><a xlink:href="../../d7/dcf/AuditFwd_8hpp.html" target="_top" xlink:title="core/audit/AuditFwd.hpp">
<polygon fill="white" stroke="black" points="0,-118 0,-137 122,-137 122,-118 0,-118"/>
<text text-anchor="middle" x="61" y="-125" font-family="Helvetica,sans-Serif" font-size="10.00">core/audit/AuditFwd.hpp</text>
</a>
</g>
</g>
<!-- Node0&#45;&gt;Node2 -->
<g id="edge22" class="edge"><title>Node0&#45;&gt;Node2</title>
<path fill="none" stroke="midnightblue" d="M275.04,-291.442C249.598,-284.214 215.017,-272.256 188,-255 139.46,-223.997 94.7254,-171.704 73.6647,-145.109"/>
<polygon fill="midnightblue" stroke="midnightblue" points="76.3654,-142.88 67.4586,-137.143 70.8433,-147.182 76.3654,-142.88"/>
</g>
<!-- Node12 -->
<g id="node13" class="node"><title>Node12</title>
<g id="a_node13"><a xlink:href="../../d7/d76/IUserEvent_8hpp.html" target="_top" xlink:title="core/audit/IUserEvent.hpp">
<polygon fill="white" stroke="black" points="197.5,-235.5 197.5,-254.5 328.5,-254.5 328.5,-235.5 197.5,-235.5"/>
<text text-anchor="middle" x="263" y="-242.5" font-family="Helvetica,sans-Serif" font-size="10.00">core/audit/IUserEvent.hpp</text>
</a>
</g>
</g>
<!-- Node0&#45;&gt;Node12 -->
<g id="edge23" class="edge"><title>Node0&#45;&gt;Node12</title>
<path fill="none" stroke="midnightblue" d="M302.239,-291.083C295.463,-283.298 285.457,-271.801 277.245,-262.367"/>
<polygon fill="midnightblue" stroke="midnightblue" points="279.822,-259.996 270.617,-254.751 274.542,-264.592 279.822,-259.996"/>
</g>
<!-- Node19 -->
<g id="node20" class="node"><title>Node19</title>
<g id="a_node20"><a xlink:href="../../dd/dd8/IWSAPICall_8hpp.html" target="_top" xlink:title="core/audit/IWSAPICall.hpp">
<polygon fill="white" stroke="black" points="570,-235.5 570,-254.5 704,-254.5 704,-235.5 570,-235.5"/>
<text text-anchor="middle" x="637" y="-242.5" font-family="Helvetica,sans-Serif" font-size="10.00">core/audit/IWSAPICall.hpp</text>
</a>
</g>
</g>
<!-- Node0&#45;&gt;Node19 -->
<g id="edge34" class="edge"><title>Node0&#45;&gt;Node19</title>
<path fill="none" stroke="midnightblue" d="M361.814,-291.444C419.815,-281.865 513.736,-266.356 575.435,-256.167"/>
<polygon fill="midnightblue" stroke="midnightblue" points="576.132,-259.599 585.428,-254.516 574.992,-252.693 576.132,-259.599"/>
</g>
<!-- Node1&#45;&gt;Node2 -->
<g id="edge2" class="edge"><title>Node1&#45;&gt;Node2</title>
<path fill="none" stroke="midnightblue" d="M313.654,-179.472C268.145,-170.495 194.513,-155.901 131,-143 124.854,-141.752 118.407,-140.431 112.018,-139.116"/>
<polygon fill="midnightblue" stroke="midnightblue" points="112.576,-135.657 102.075,-137.064 111.161,-142.513 112.576,-135.657"/>
</g>
<!-- Node7 -->
<g id="node8" class="node"><title>Node7</title>
<g id="a_node8"><a xlink:href="../../d3/d6f/AuthFwd_8hpp.html" target="_top" xlink:title="core/auth/AuthFwd.hpp">
<polygon fill="white" stroke="black" points="140,-118 140,-137 258,-137 258,-118 140,-118"/>
<text text-anchor="middle" x="199" y="-125" font-family="Helvetica,sans-Serif" font-size="10.00">core/auth/AuthFwd.hpp</text>
</a>
</g>
</g>
<!-- Node1&#45;&gt;Node7 -->
<g id="edge7" class="edge"><title>Node1&#45;&gt;Node7</title>
<path fill="none" stroke="midnightblue" d="M334.362,-179.475C307.26,-169.269 261.69,-152.108 230.996,-140.549"/>
<polygon fill="midnightblue" stroke="midnightblue" points="232.187,-137.258 221.596,-137.009 229.72,-143.809 232.187,-137.258"/>
</g>
<!-- Node8 -->
<g id="node9" class="node"><title>Node8</title>
<g id="a_node9"><a xlink:href="../../d7/d7f/CredentialFwd_8hpp.html" target="_top" xlink:title="core/credentials/Credential\lFwd.hpp">
<polygon fill="white" stroke="black" points="554.5,-112.5 554.5,-142.5 687.5,-142.5 687.5,-112.5 554.5,-112.5"/>
<text text-anchor="start" x="562.5" y="-130.5" font-family="Helvetica,sans-Serif" font-size="10.00">core/credentials/Credential</text>
<text text-anchor="middle" x="621" y="-119.5" font-family="Helvetica,sans-Serif" font-size="10.00">Fwd.hpp</text>
</a>
</g>
</g>
<!-- Node1&#45;&gt;Node8 -->
<g id="edge11" class="edge"><title>Node1&#45;&gt;Node8</title>
<path fill="none" stroke="midnightblue" d="M394.825,-179.475C434.924,-170.438 499.217,-155.947 549.024,-144.722"/>
<polygon fill="midnightblue" stroke="midnightblue" points="549.795,-148.136 558.78,-142.523 548.256,-141.307 549.795,-148.136"/>
</g>
<!-- Node9 -->
<g id="node10" class="node"><title>Node9</title>
<g id="a_node10"><a xlink:href="../../d8/d97/ToolsFwd_8hpp.html" target="_top" xlink:title="tools/ToolsFwd.hpp">
<polygon fill="white" stroke="black" points="276,-118 276,-137 378,-137 378,-118 276,-118"/>
<text text-anchor="middle" x="327" y="-125" font-family="Helvetica,sans-Serif" font-size="10.00">tools/ToolsFwd.hpp</text>
</a>
</g>
</g>
<!-- Node1&#45;&gt;Node9 -->
<g id="edge14" class="edge"><title>Node1&#45;&gt;Node9</title>
<path fill="none" stroke="midnightblue" d="M352.702,-179.475C348.335,-170.815 341.445,-157.149 335.897,-146.145"/>
<polygon fill="midnightblue" stroke="midnightblue" points="338.918,-144.363 331.29,-137.009 332.667,-147.514 338.918,-144.363"/>
</g>
<!-- Node10 -->
<g id="node11" class="node"><title>Node10</title>
<g id="a_node11"><a xlink:href="../../d9/d69/db__fwd_8hpp.html" target="_top" xlink:title="tools/db/db_fwd.hpp">
<polygon fill="white" stroke="black" points="706,-118 706,-137 810,-137 810,-118 706,-118"/>
<text text-anchor="middle" x="758" y="-125" font-family="Helvetica,sans-Serif" font-size="10.00">tools/db/db_fwd.hpp</text>
</a>
</g>
</g>
<!-- Node1&#45;&gt;Node10 -->
<g id="edge17" class="edge"><title>Node1&#45;&gt;Node10</title>
<path fill="none" stroke="midnightblue" d="M425.701,-180.985C494.606,-173.461 603.606,-160.234 697,-143 702.829,-141.924 708.938,-140.65 714.945,-139.311"/>
<polygon fill="midnightblue" stroke="midnightblue" points="715.93,-142.675 724.888,-137.018 714.358,-135.854 715.93,-142.675"/>
</g>
<!-- Node11 -->
<g id="node12" class="node"><title>Node11</title>
<g id="a_node12"><a xlink:href="../../d2/d0e/UpdateFwd_8hpp.html" target="_top" xlink:title="core/update/UpdateFwd.hpp">
<polygon fill="white" stroke="black" points="396,-118 396,-137 536,-137 536,-118 396,-118"/>
<text text-anchor="middle" x="466" y="-125" font-family="Helvetica,sans-Serif" font-size="10.00">core/update/UpdateFwd.hpp</text>
</a>
</g>
</g>
<!-- Node1&#45;&gt;Node11 -->
<g id="edge19" class="edge"><title>Node1&#45;&gt;Node11</title>
<path fill="none" stroke="midnightblue" d="M372.617,-179.475C390.586,-169.666 420.321,-153.435 441.406,-141.925"/>
<polygon fill="midnightblue" stroke="midnightblue" points="443.311,-144.873 450.412,-137.009 439.958,-138.728 443.311,-144.873"/>
</g>
<!-- Node3 -->
<g id="node4" class="node"><title>Node3</title>
<polygon fill="white" stroke="#bfbfbf" points="143.5,-56.5 143.5,-75.5 192.5,-75.5 192.5,-56.5 143.5,-56.5"/>
<text text-anchor="middle" x="168" y="-63.5" font-family="Helvetica,sans-Serif" font-size="10.00">cstddef</text>
</g>
<!-- Node2&#45;&gt;Node3 -->
<g id="edge3" class="edge"><title>Node2&#45;&gt;Node3</title>
<path fill="none" stroke="midnightblue" d="M76.3305,-117.975C93.9697,-108.166 123.16,-91.9346 143.858,-80.425"/>
<polygon fill="midnightblue" stroke="midnightblue" points="145.659,-83.4279 152.698,-75.5091 142.257,-77.3102 145.659,-83.4279"/>
</g>
<!-- Node4 -->
<g id="node5" class="node"><title>Node4</title>
<polygon fill="white" stroke="#bfbfbf" points="28.5,-56.5 28.5,-75.5 93.5,-75.5 93.5,-56.5 28.5,-56.5"/>
<text text-anchor="middle" x="61" y="-63.5" font-family="Helvetica,sans-Serif" font-size="10.00">flagset.hpp</text>
</g>
<!-- Node2&#45;&gt;Node4 -->
<g id="edge4" class="edge"><title>Node2&#45;&gt;Node4</title>
<path fill="none" stroke="midnightblue" d="M61,-117.975C61,-109.58 61,-96.4806 61,-85.6631"/>
<polygon fill="midnightblue" stroke="midnightblue" points="64.5001,-85.5091 61,-75.5091 57.5001,-85.5091 64.5001,-85.5091"/>
</g>
<!-- Node5 -->
<g id="node6" class="node"><title>Node5</title>
<polygon fill="white" stroke="#bfbfbf" points="440,-56.5 440,-75.5 492,-75.5 492,-56.5 440,-56.5"/>
<text text-anchor="middle" x="466" y="-63.5" font-family="Helvetica,sans-Serif" font-size="10.00">memory</text>
</g>
<!-- Node2&#45;&gt;Node5 -->
<g id="edge5" class="edge"><title>Node2&#45;&gt;Node5</title>
<path fill="none" stroke="midnightblue" d="M99.7847,-117.956C109.917,-115.864 120.846,-113.731 131,-112 239.274,-93.5376 368.3,-78.0169 429.854,-71.0057"/>
<polygon fill="midnightblue" stroke="midnightblue" points="430.299,-74.4778 439.842,-69.8754 429.512,-67.5222 430.299,-74.4778"/>
</g>
<!-- Node6 -->
<g id="node7" class="node"><title>Node6</title>
<polygon fill="white" stroke="#bfbfbf" points="284,-56.5 284,-75.5 370,-75.5 370,-56.5 284,-56.5"/>
<text text-anchor="middle" x="327" y="-63.5" font-family="Helvetica,sans-Serif" font-size="10.00">odb/lazy&#45;ptr.hxx</text>
</g>
<!-- Node2&#45;&gt;Node6 -->
<g id="edge6" class="edge"><title>Node2&#45;&gt;Node6</title>
<path fill="none" stroke="midnightblue" d="M99.1113,-117.975C146.517,-107.371 227.484,-89.2602 279.056,-77.7244"/>
<polygon fill="midnightblue" stroke="midnightblue" points="279.965,-81.1077 288.959,-75.5091 278.436,-74.2765 279.965,-81.1077"/>
</g>
<!-- Node7&#45;&gt;Node3 -->
<g id="edge8" class="edge"><title>Node7&#45;&gt;Node3</title>
<path fill="none" stroke="midnightblue" d="M194.558,-117.975C190.047,-109.315 182.926,-95.6486 177.193,-84.6453"/>
<polygon fill="midnightblue" stroke="midnightblue" points="180.158,-82.7604 172.433,-75.5091 173.95,-85.9948 180.158,-82.7604"/>
</g>
<!-- Node7&#45;&gt;Node5 -->
<g id="edge9" class="edge"><title>Node7&#45;&gt;Node5</title>
<path fill="none" stroke="midnightblue" d="M237.255,-117.975C288.787,-106.491 379.827,-86.2033 430.114,-74.997"/>
<polygon fill="midnightblue" stroke="midnightblue" points="430.902,-78.4074 439.901,-72.816 429.379,-71.575 430.902,-78.4074"/>
</g>
<!-- Node7&#45;&gt;Node6 -->
<g id="edge10" class="edge"><title>Node7&#45;&gt;Node6</title>
<path fill="none" stroke="midnightblue" d="M217.339,-117.975C238.821,-107.99 274.622,-91.3476 299.448,-79.8075"/>
<polygon fill="midnightblue" stroke="midnightblue" points="301.102,-82.8983 308.695,-75.5091 298.151,-76.5506 301.102,-82.8983"/>
</g>
<!-- Node8&#45;&gt;Node5 -->
<g id="edge12" class="edge"><title>Node8&#45;&gt;Node5</title>
<path fill="none" stroke="midnightblue" d="M584.267,-112.399C558.029,-102.327 523.075,-88.9093 497.982,-79.2769"/>
<polygon fill="midnightblue" stroke="midnightblue" points="499.144,-75.9741 488.554,-75.6578 496.635,-82.5091 499.144,-75.9741"/>
</g>
<!-- Node8&#45;&gt;Node6 -->
<g id="edge13" class="edge"><title>Node8&#45;&gt;Node6</title>
<path fill="none" stroke="midnightblue" d="M554.287,-112.999C501.301,-102.275 428.239,-87.4888 379.399,-77.6045"/>
<polygon fill="midnightblue" stroke="midnightblue" points="379.856,-74.1261 369.36,-75.5729 378.467,-80.987 379.856,-74.1261"/>
</g>
<!-- Node9&#45;&gt;Node5 -->
<g id="edge15" class="edge"><title>Node9&#45;&gt;Node5</title>
<path fill="none" stroke="midnightblue" d="M346.915,-117.975C370.449,-107.901 409.81,-91.0525 436.793,-79.5023"/>
<polygon fill="midnightblue" stroke="midnightblue" points="438.306,-82.662 446.122,-75.5091 435.551,-76.2267 438.306,-82.662"/>
</g>
<!-- Node9&#45;&gt;Node6 -->
<g id="edge16" class="edge"><title>Node9&#45;&gt;Node6</title>
<path fill="none" stroke="midnightblue" d="M327,-117.975C327,-109.58 327,-96.4806 327,-85.6631"/>
<polygon fill="midnightblue" stroke="midnightblue" points="330.5,-85.5091 327,-75.5091 323.5,-85.5091 330.5,-85.5091"/>
</g>
<!-- Node10&#45;&gt;Node5 -->
<g id="edge18" class="edge"><title>Node10&#45;&gt;Node5</title>
<path fill="none" stroke="midnightblue" d="M723.217,-117.972C714.661,-115.946 705.512,-113.84 697,-112 628.273,-97.1439 547.557,-81.9256 502.029,-73.5457"/>
<polygon fill="midnightblue" stroke="midnightblue" points="502.521,-70.0775 492.053,-71.7154 501.257,-76.9626 502.521,-70.0775"/>
</g>
<!-- Node11&#45;&gt;Node5 -->
<g id="edge20" class="edge"><title>Node11&#45;&gt;Node5</title>
<path fill="none" stroke="midnightblue" d="M466,-117.975C466,-109.58 466,-96.4806 466,-85.6631"/>
<polygon fill="midnightblue" stroke="midnightblue" points="469.5,-85.5091 466,-75.5091 462.5,-85.5091 469.5,-85.5091"/>
</g>
<!-- Node11&#45;&gt;Node6 -->
<g id="edge21" class="edge"><title>Node11&#45;&gt;Node6</title>
<path fill="none" stroke="midnightblue" d="M446.085,-117.975C422.551,-107.901 383.19,-91.0525 356.207,-79.5023"/>
<polygon fill="midnightblue" stroke="midnightblue" points="357.449,-76.2267 346.878,-75.5091 354.694,-82.662 357.449,-76.2267"/>
</g>
<!-- Node12&#45;&gt;Node7 -->
<g id="edge33" class="edge"><title>Node12&#45;&gt;Node7</title>
<path fill="none" stroke="midnightblue" d="M258.19,-235.319C247.719,-216.422 222.687,-171.248 208.764,-146.121"/>
<polygon fill="midnightblue" stroke="midnightblue" points="211.774,-144.333 203.866,-137.282 205.652,-147.725 211.774,-144.333"/>
</g>
<!-- Node13 -->
<g id="node14" class="node"><title>Node13</title>
<g id="a_node14"><a xlink:href="../../d3/dd8/IAuditEntry_8hpp.html" target="_top" xlink:title="IAuditEntry.hpp">
<polygon fill="white" stroke="black" points="560,-179.5 560,-198.5 644,-198.5 644,-179.5 560,-179.5"/>
<text text-anchor="middle" x="602" y="-186.5" font-family="Helvetica,sans-Serif" font-size="10.00">IAuditEntry.hpp</text>
</a>
</g>
</g>
<!-- Node12&#45;&gt;Node13 -->
<g id="edge24" class="edge"><title>Node12&#45;&gt;Node13</title>
<path fill="none" stroke="midnightblue" d="M316.716,-235.444C380.559,-225.274 486.382,-208.417 549.629,-198.342"/>
<polygon fill="midnightblue" stroke="midnightblue" points="550.457,-201.755 559.782,-196.725 549.355,-194.842 550.457,-201.755"/>
</g>
<!-- Node13&#45;&gt;Node2 -->
<g id="edge25" class="edge"><title>Node13&#45;&gt;Node2</title>
<path fill="none" stroke="midnightblue" d="M559.911,-185.524C477.323,-180.324 288.371,-166.745 131,-143 123.576,-141.88 115.753,-140.48 108.132,-138.994"/>
<polygon fill="midnightblue" stroke="midnightblue" points="108.777,-135.554 98.2826,-137.008 107.394,-142.415 108.777,-135.554"/>
</g>
<!-- Node13&#45;&gt;Node5 -->
<g id="edge32" class="edge"><title>Node13&#45;&gt;Node5</title>
<path fill="none" stroke="midnightblue" d="M644.07,-183.305C735.781,-172.975 945.957,-148.735 951,-143 960.098,-132.653 960.281,-122.182 951,-112 920.885,-78.9616 609.609,-69.8001 502.203,-67.6123"/>
<polygon fill="midnightblue" stroke="midnightblue" points="502.235,-64.1124 492.169,-67.4163 502.099,-71.111 502.235,-64.1124"/>
</g>
<!-- Node13&#45;&gt;Node7 -->
<g id="edge26" class="edge"><title>Node13&#45;&gt;Node7</title>
<path fill="none" stroke="midnightblue" d="M559.798,-183.382C496.126,-176.177 371.795,-161.184 267,-143 260.368,-141.849 253.398,-140.512 246.553,-139.123"/>
<polygon fill="midnightblue" stroke="midnightblue" points="247.17,-135.677 236.667,-137.069 245.745,-142.53 247.17,-135.677"/>
</g>
<!-- Node14 -->
<g id="node15" class="node"><title>Node14</title>
<g id="a_node15"><a xlink:href="../../dd/d9d/IVisitable_8hpp.html" target="_top" xlink:title="tools/IVisitable.hpp">
<polygon fill="white" stroke="black" points="998,-118 998,-137 1098,-137 1098,-118 998,-118"/>
<text text-anchor="middle" x="1048" y="-125" font-family="Helvetica,sans-Serif" font-size="10.00">tools/IVisitable.hpp</text>
</a>
</g>
</g>
<!-- Node13&#45;&gt;Node14 -->
<g id="edge27" class="edge"><title>Node13&#45;&gt;Node14</title>
<path fill="none" stroke="midnightblue" d="M644.16,-183.602C729.361,-174.621 919.419,-154.088 984,-143 990.263,-141.925 996.836,-140.629 1003.29,-139.261"/>
<polygon fill="midnightblue" stroke="midnightblue" points="1004.24,-142.635 1013.26,-137.073 1002.74,-135.798 1004.24,-142.635"/>
</g>
<!-- Node18 -->
<g id="node19" class="node"><title>Node18</title>
<polygon fill="white" stroke="#bfbfbf" points="828.5,-112.5 828.5,-142.5 941.5,-142.5 941.5,-112.5 828.5,-112.5"/>
<text text-anchor="start" x="836.5" y="-130.5" font-family="Helvetica,sans-Serif" font-size="10.00">boost/date_time/posix</text>
<text text-anchor="middle" x="885" y="-119.5" font-family="Helvetica,sans-Serif" font-size="10.00">_time/posix_time.hpp</text>
</g>
<!-- Node13&#45;&gt;Node18 -->
<g id="edge31" class="edge"><title>Node13&#45;&gt;Node18</title>
<path fill="none" stroke="midnightblue" d="M644.036,-179.436C685.724,-170.908 751.686,-157.324 818.606,-143.07"/>
<polygon fill="midnightblue" stroke="midnightblue" points="819.434,-146.472 828.484,-140.962 817.974,-139.626 819.434,-146.472"/>
</g>
<!-- Node15 -->
<g id="node16" class="node"><title>Node15</title>
<g id="a_node16"><a xlink:href="../../d2/d91/Visitor_8hpp.html" target="_top" xlink:title="tools/Visitor.hpp">
<polygon fill="white" stroke="black" points="961.5,-56.5 961.5,-75.5 1048.5,-75.5 1048.5,-56.5 961.5,-56.5"/>
<text text-anchor="middle" x="1005" y="-63.5" font-family="Helvetica,sans-Serif" font-size="10.00">tools/Visitor.hpp</text>
</a>
</g>
</g>
<!-- Node14&#45;&gt;Node15 -->
<g id="edge28" class="edge"><title>Node14&#45;&gt;Node15</title>
<path fill="none" stroke="midnightblue" d="M1041.84,-117.975C1035.39,-109.05 1025.1,-94.8071 1017.03,-83.6425"/>
<polygon fill="midnightblue" stroke="midnightblue" points="1019.84,-81.564 1011.15,-75.5091 1014.17,-85.6642 1019.84,-81.564"/>
</g>
<!-- Node17 -->
<g id="node18" class="node"><title>Node17</title>
<polygon fill="white" stroke="#bfbfbf" points="1066.5,-56.5 1066.5,-75.5 1115.5,-75.5 1115.5,-56.5 1066.5,-56.5"/>
<text text-anchor="middle" x="1091" y="-63.5" font-family="Helvetica,sans-Serif" font-size="10.00">cassert</text>
</g>
<!-- Node14&#45;&gt;Node17 -->
<g id="edge30" class="edge"><title>Node14&#45;&gt;Node17</title>
<path fill="none" stroke="midnightblue" d="M1054.16,-117.975C1060.61,-109.05 1070.9,-94.8071 1078.97,-83.6425"/>
<polygon fill="midnightblue" stroke="midnightblue" points="1081.83,-85.6642 1084.85,-75.5091 1076.16,-81.564 1081.83,-85.6642"/>
</g>
<!-- Node16 -->
<g id="node17" class="node"><title>Node16</title>
<polygon fill="white" stroke="#bfbfbf" points="974,-0.5 974,-19.5 1036,-19.5 1036,-0.5 974,-0.5"/>
<text text-anchor="middle" x="1005" y="-7.5" font-family="Helvetica,sans-Serif" font-size="10.00">type_traits</text>
</g>
<!-- Node15&#45;&gt;Node16 -->
<g id="edge29" class="edge"><title>Node15&#45;&gt;Node16</title>
<path fill="none" stroke="midnightblue" d="M1005,-56.083C1005,-49.0059 1005,-38.8611 1005,-29.9865"/>
<polygon fill="midnightblue" stroke="midnightblue" points="1008.5,-29.751 1005,-19.7511 1001.5,-29.7511 1008.5,-29.751"/>
</g>
<!-- Node19&#45;&gt;Node10 -->
<g id="edge37" class="edge"><title>Node19&#45;&gt;Node10</title>
<path fill="none" stroke="midnightblue" d="M643.246,-235.496C652.936,-222.578 672.514,-197.551 692,-179 705.924,-165.744 723.234,-152.606 736.633,-143.054"/>
<polygon fill="midnightblue" stroke="midnightblue" points="739.012,-145.661 745.195,-137.057 734.996,-139.928 739.012,-145.661"/>
</g>
<!-- Node19&#45;&gt;Node13 -->
<g id="edge35" class="edge"><title>Node19&#45;&gt;Node13</title>
<path fill="none" stroke="midnightblue" d="M631.22,-235.083C626.328,-227.534 619.173,-216.495 613.167,-207.23"/>
<polygon fill="midnightblue" stroke="midnightblue" points="616.048,-205.239 607.672,-198.751 610.174,-209.046 616.048,-205.239"/>
</g>
<!-- Node20 -->
<g id="node21" class="node"><title>Node20</title>
<g id="a_node21"><a xlink:href="../../d4/dc3/APIStatusCode_8hpp.html" target="_top" xlink:title="core/APIStatusCode.hpp">
<polygon fill="white" stroke="black" points="700.5,-179.5 700.5,-198.5 825.5,-198.5 825.5,-179.5 700.5,-179.5"/>
<text text-anchor="middle" x="763" y="-186.5" font-family="Helvetica,sans-Serif" font-size="10.00">core/APIStatusCode.hpp</text>
</a>
</g>
</g>
<!-- Node19&#45;&gt;Node20 -->
<g id="edge36" class="edge"><title>Node19&#45;&gt;Node20</title>
<path fill="none" stroke="midnightblue" d="M656.965,-235.444C677.609,-226.596 710.063,-212.687 733.632,-202.586"/>
<polygon fill="midnightblue" stroke="midnightblue" points="735.316,-205.673 743.128,-198.516 732.558,-199.239 735.316,-205.673"/>
</g>
</g>
</svg>
        <g id="navigator" transform="translate(0 0)" fill="#404254">
                <rect fill="#f2f5e9" fill-opacity="0.5" stroke="#606060" stroke-width=".5" x="0" y="0" width="60" height="60"/>
                <use id="zoomplus" xlink:href="#zoomPlus" x="17" y="9" onmousedown="handleZoom(evt,'in')"/>
                <use id="zoomminus" xlink:href="#zoomMin" x="42" y="9" onmousedown="handleZoom(evt,'out')"/>
                <use id="reset" xlink:href="#resetDef" x="30" y="36" onmousedown="handleReset()"/>
                <g id="arrowUp" xlink:href="#dirArrow" transform="translate(30 24)" onmousedown="handlePan(0,-1)">
                  <use xlink:href="#rim" fill="#404040">
                        <set attributeName="fill" to="#808080" begin="arrowUp.mouseover" end="arrowUp.mouseout"/>
                  </use>
                  <path fill="none" stroke="white" stroke-width="1.5" d="M0,-3.0v7 M-2.5,-0.5L0,-3.0L2.5,-0.5"/>
                </g>
                <g id="arrowRight" xlink:href="#dirArrow" transform="rotate(90) translate(36 -43)" onmousedown="handlePan(1,0)">
                  <use xlink:href="#rim" fill="#404040">
                        <set attributeName="fill" to="#808080" begin="arrowRight.mouseover" end="arrowRight.mouseout"/>
                  </use>
                  <path fill="none" stroke="white" stroke-width="1.5" d="M0,-3.0v7 M-2.5,-0.5L0,-3.0L2.5,-0.5"/>
                </g>
                <g id="arrowDown" xlink:href="#dirArrow" transform="rotate(180) translate(-30 -48)" onmousedown="handlePan(0,1)">
                  <use xlink:href="#rim" fill="#404040">
                        <set attributeName="fill" to="#808080" begin="arrowDown.mouseover" end="arrowDown.mouseout"/>
                  </use>
                  <path fill="none" stroke="white" stroke-width="1.5" d="M0,-3.0v7 M-2.5,-0.5L0,-3.0L2.5,-0.5"/>
                </g>
                <g id="arrowLeft" xlink:href="#dirArrow" transform="rotate(270) translate(-36 17)" onmousedown="handlePan(-1,0)">
                  <use xlink:href="#rim" fill="#404040">
                        <set attributeName="fill" to="#808080" begin="arrowLeft.mouseover" end="arrowLeft.mouseout"/>
                  </use>
                  <path fill="none" stroke="white" stroke-width="1.5" d="M0,-3.0v7 M-2.5,-0.5L0,-3.0L2.5,-0.5"/>
                </g>
        </g>
        <svg viewBox="0 0 15 15" width="100%" height="30px" preserveAspectRatio="xMaxYMin meet">
         <g id="arrow_out" transform="scale(0.3 0.3)">
          <a xlink:href="Audit_8hpp__incl_org.svg" target="_base">
           <rect id="button" ry="5" rx="5" y="6" x="6" height="38" width="38"
                fill="#f2f5e9" fill-opacity="0.5" stroke="#606060" stroke-width="1.0"/>
           <path id="arrow"
             d="M 11.500037,31.436501 C 11.940474,20.09759 22.043105,11.32322 32.158766,21.979434 L 37.068811,17.246167 C 37.068811,17.246167 37.088388,32 37.088388,32 L 22.160133,31.978069 C 22.160133,31.978069 26.997745,27.140456 26.997745,27.140456 C 18.528582,18.264221 13.291696,25.230495 11.500037,31.436501 z"
             style="fill:#404040;"/>
          </a>
         </g>
        </svg>
</svg>
