<?xml version="1.0" encoding="UTF-8" standalone="no"?>
<!DOCTYPE svg PUBLIC "-//W3C//DTD SVG 1.1//EN"
 "http://www.w3.org/Graphics/SVG/1.1/DTD/svg11.dtd">
<!-- Generated by graphviz version 2.38.0 (20140413.2041)
 -->
<!-- Title: src/tools/JSONUtils.cpp Pages: 1 -->
<!--zoomable 308 -->
<svg id="main" version="1.1" xmlns="http://www.w3.org/2000/svg" xmlns:xlink="http://www.w3.org/1999/xlink" xml:space="preserve" onload="init(evt)">
<style type="text/css"><![CDATA[
.edge:hover path { stroke: red; }
.edge:hover polygon { stroke: red; fill: red; }
]]></style>
<script type="text/javascript"><![CDATA[
var edges = document.getElementsByTagName('g');
if (edges && edges.length) {
  for (var i=0;i<edges.length;i++) {
    if (edges[i].id.substr(0,4)=='edge') {
      edges[i].setAttribute('class','edge');
    }
  }
}
]]></script>
        <defs>
                <circle id="rim" cx="0" cy="0" r="7"/>
                <circle id="rim2" cx="0" cy="0" r="3.5"/>
                <g id="zoomPlus">
                        <use xlink:href="#rim" fill="#404040">
                                <set attributeName="fill" to="#808080" begin="zoomplus.mouseover" end="zoomplus.mouseout"/>
                        </use>
                        <path d="M-4,0h8M0,-4v8" fill="none" stroke="white" stroke-width="1.5" pointer-events="none"/>
                </g>
                <g id="zoomMin">
                        <use xlink:href="#rim" fill="#404040">
                                <set attributeName="fill" to="#808080" begin="zoomminus.mouseover" end="zoomminus.mouseout"/>
                        </use>
                        <path d="M-4,0h8" fill="none" stroke="white" stroke-width="1.5" pointer-events="none"/>
                </g>
                <g id="dirArrow">
                        <path fill="none" stroke="white" stroke-width="1.5" d="M0,-3.0v7 M-2.5,-0.5L0,-3.0L2.5,-0.5"/>
                </g>
               <g id="resetDef">
                       <use xlink:href="#rim2" fill="#404040">
                               <set attributeName="fill" to="#808080" begin="reset.mouseover" end="reset.mouseout"/>
                       </use>
               </g>
        </defs>

<script type="text/javascript">
var viewWidth = 2497;
var viewHeight = 308;
var sectionId = 'dynsection-0';
</script>
<script xlink:href="../../svgpan.js"/>
<svg id="graph" class="graph">
<g id="viewport">
<title>src/tools/JSONUtils.cpp</title>
<polygon fill="white" stroke="none" points="-4,4 -4,-304 2493,-304 2493,4 -4,4"/>
<!-- Node0 -->
<g id="node1" class="node"><title>Node0</title>
<polygon fill="#bfbfbf" stroke="black" points="2204,-280.5 2204,-299.5 2327,-299.5 2327,-280.5 2204,-280.5"/>
<text text-anchor="middle" x="2265.5" y="-287.5" font-family="Helvetica,sans-Serif" font-size="10.00">src/tools/JSONUtils.cpp</text>
</g>
<!-- Node1 -->
<g id="node2" class="node"><title>Node1</title>
<g id="a_node2"><a xlink:href="../../de/d8c/JSONUtils_8hpp.html" target="_top" xlink:title="tools/JSONUtils.hpp">
<polygon fill="white" stroke="black" points="1225,-224.5 1225,-243.5 1332,-243.5 1332,-224.5 1225,-224.5"/>
<text text-anchor="middle" x="1278.5" y="-231.5" font-family="Helvetica,sans-Serif" font-size="10.00">tools/JSONUtils.hpp</text>
</a>
</g>
</g>
<!-- Node0&#45;&gt;Node1 -->
<g id="edge1" class="edge"><title>Node0&#45;&gt;Node1</title>
<path fill="none" stroke="midnightblue" d="M2203.76,-285.622C2027.19,-275.962 1521.37,-248.288 1342.29,-238.49"/>
<polygon fill="midnightblue" stroke="midnightblue" points="1342.41,-234.991 1332.23,-237.94 1342.02,-241.981 1342.41,-234.991"/>
</g>
<!-- Node31 -->
<g id="node32" class="node"><title>Node31</title>
<g id="a_node32"><a xlink:href="../../dc/dfe/ValidityInfo_8hpp.html" target="_top" xlink:title="core/auth/ValidityInfo.hpp">
<polygon fill="white" stroke="black" points="2136.5,-224.5 2136.5,-243.5 2264.5,-243.5 2264.5,-224.5 2136.5,-224.5"/>
<text text-anchor="middle" x="2200.5" y="-231.5" font-family="Helvetica,sans-Serif" font-size="10.00">core/auth/ValidityInfo.hpp</text>
</a>
</g>
</g>
<!-- Node0&#45;&gt;Node31 -->
<g id="edge54" class="edge"><title>Node0&#45;&gt;Node31</title>
<path fill="none" stroke="midnightblue" d="M2255.06,-280.324C2245.35,-272.263 2230.68,-260.077 2219,-250.369"/>
<polygon fill="midnightblue" stroke="midnightblue" points="2221.06,-247.532 2211.13,-243.834 2216.59,-252.916 2221.06,-247.532"/>
</g>
<!-- Node32 -->
<g id="node33" class="node"><title>Node32</title>
<g id="a_node33"><a xlink:href="../../d6/d41/MyTime_8hpp.html" target="_top" xlink:title="tools/MyTime.hpp">
<polygon fill="white" stroke="black" points="2283,-224.5 2283,-243.5 2378,-243.5 2378,-224.5 2283,-224.5"/>
<text text-anchor="middle" x="2330.5" y="-231.5" font-family="Helvetica,sans-Serif" font-size="10.00">tools/MyTime.hpp</text>
</a>
</g>
</g>
<!-- Node0&#45;&gt;Node32 -->
<g id="edge58" class="edge"><title>Node0&#45;&gt;Node32</title>
<path fill="none" stroke="midnightblue" d="M2275.94,-280.324C2285.65,-272.263 2300.32,-260.077 2312,-250.369"/>
<polygon fill="midnightblue" stroke="midnightblue" points="2314.41,-252.916 2319.87,-243.834 2309.94,-247.532 2314.41,-252.916"/>
</g>
<!-- Node36 -->
<g id="node37" class="node"><title>Node36</title>
<polygon fill="white" stroke="#bfbfbf" points="2396,-224.5 2396,-243.5 2461,-243.5 2461,-224.5 2396,-224.5"/>
<text text-anchor="middle" x="2428.5" y="-231.5" font-family="Helvetica,sans-Serif" font-size="10.00">date/date.h</text>
</g>
<!-- Node0&#45;&gt;Node36 -->
<g id="edge64" class="edge"><title>Node0&#45;&gt;Node36</title>
<path fill="none" stroke="midnightblue" d="M2291.33,-280.444C2318.75,-271.359 2362.28,-256.939 2392.93,-246.783"/>
<polygon fill="midnightblue" stroke="midnightblue" points="2394.4,-249.984 2402.79,-243.516 2392.2,-243.339 2394.4,-249.984"/>
</g>
<!-- Node2 -->
<g id="node3" class="node"><title>Node2</title>
<g id="a_node3"><a xlink:href="../../d3/d6f/AuthFwd_8hpp.html" target="_top" xlink:title="core/auth/AuthFwd.hpp">
<polygon fill="white" stroke="black" points="2041.5,-168.5 2041.5,-187.5 2159.5,-187.5 2159.5,-168.5 2041.5,-168.5"/>
<text text-anchor="middle" x="2100.5" y="-175.5" font-family="Helvetica,sans-Serif" font-size="10.00">core/auth/AuthFwd.hpp</text>
</a>
</g>
</g>
<!-- Node1&#45;&gt;Node2 -->
<g id="edge2" class="edge"><title>Node1&#45;&gt;Node2</title>
<path fill="none" stroke="midnightblue" d="M1332.12,-229.478C1476,-220.025 1870.57,-194.105 2031.15,-183.556"/>
<polygon fill="midnightblue" stroke="midnightblue" points="2031.63,-187.032 2041.38,-182.884 2031.17,-180.047 2031.63,-187.032"/>
</g>
<!-- Node6 -->
<g id="node7" class="node"><title>Node6</title>
<g id="a_node7"><a xlink:href="../../d1/ddd/leosacexception_8hpp.html" target="_top" xlink:title="Exception class for LEOSAC Project related errors. ">
<polygon fill="white" stroke="black" points="1255,-168.5 1255,-187.5 1406,-187.5 1406,-168.5 1255,-168.5"/>
<text text-anchor="middle" x="1330.5" y="-175.5" font-family="Helvetica,sans-Serif" font-size="10.00">exception/leosacexception.hpp</text>
</a>
</g>
</g>
<!-- Node1&#45;&gt;Node6 -->
<g id="edge6" class="edge"><title>Node1&#45;&gt;Node6</title>
<path fill="none" stroke="midnightblue" d="M1287.09,-224.083C1294.66,-216.22 1305.88,-204.569 1315.01,-195.081"/>
<polygon fill="midnightblue" stroke="midnightblue" points="1317.66,-197.382 1322.07,-187.751 1312.62,-192.527 1317.66,-197.382"/>
</g>
<!-- Node22 -->
<g id="node23" class="node"><title>Node22</title>
<g id="a_node23"><a xlink:href="../../dc/dea/Uuid_8hpp.html" target="_top" xlink:title="tools/Uuid.hpp">
<polygon fill="white" stroke="black" points="402.5,-168.5 402.5,-187.5 482.5,-187.5 482.5,-168.5 402.5,-168.5"/>
<text text-anchor="middle" x="442.5" y="-175.5" font-family="Helvetica,sans-Serif" font-size="10.00">tools/Uuid.hpp</text>
</a>
</g>
</g>
<!-- Node1&#45;&gt;Node22 -->
<g id="edge43" class="edge"><title>Node1&#45;&gt;Node22</title>
<path fill="none" stroke="midnightblue" d="M1224.93,-229.54C1073.07,-219.731 641.19,-191.834 493.077,-182.267"/>
<polygon fill="midnightblue" stroke="midnightblue" points="493.116,-178.762 482.911,-181.61 492.665,-185.748 493.116,-178.762"/>
</g>
<!-- Node23 -->
<g id="node24" class="node"><title>Node23</title>
<polygon fill="white" stroke="#bfbfbf" points="559.5,-112.5 559.5,-131.5 673.5,-131.5 673.5,-112.5 559.5,-112.5"/>
<text text-anchor="middle" x="616.5" y="-119.5" font-family="Helvetica,sans-Serif" font-size="10.00">boost/lexical_cast.hpp</text>
</g>
<!-- Node1&#45;&gt;Node23 -->
<g id="edge50" class="edge"><title>Node1&#45;&gt;Node23</title>
<path fill="none" stroke="midnightblue" d="M1272.25,-224.298C1261.13,-209.63 1236.38,-180.376 1207.5,-168 1102.85,-123.15 814.581,-142.795 683.967,-131.987"/>
<polygon fill="midnightblue" stroke="midnightblue" points="683.989,-128.474 673.709,-131.04 683.345,-135.445 683.989,-128.474"/>
</g>
<!-- Node28 -->
<g id="node29" class="node"><title>Node28</title>
<polygon fill="white" stroke="#bfbfbf" points="2177.5,-168.5 2177.5,-187.5 2223.5,-187.5 2223.5,-168.5 2177.5,-168.5"/>
<text text-anchor="middle" x="2200.5" y="-175.5" font-family="Helvetica,sans-Serif" font-size="10.00">chrono</text>
</g>
<!-- Node1&#45;&gt;Node28 -->
<g id="edge51" class="edge"><title>Node1&#45;&gt;Node28</title>
<path fill="none" stroke="midnightblue" d="M1332.22,-231.858C1495.77,-228.14 1986.9,-215.11 2167.08,-187.805"/>
<polygon fill="midnightblue" stroke="midnightblue" points="2167.89,-191.22 2177.22,-186.198 2166.79,-184.306 2167.89,-191.22"/>
</g>
<!-- Node29 -->
<g id="node30" class="node"><title>Node29</title>
<polygon fill="white" stroke="#bfbfbf" points="331,-168.5 331,-187.5 384,-187.5 384,-168.5 331,-168.5"/>
<text text-anchor="middle" x="357.5" y="-175.5" font-family="Helvetica,sans-Serif" font-size="10.00">json.hpp</text>
</g>
<!-- Node1&#45;&gt;Node29 -->
<g id="edge52" class="edge"><title>Node1&#45;&gt;Node29</title>
<path fill="none" stroke="midnightblue" d="M1224.82,-231.638C1061.99,-227.294 574.326,-212.672 394.255,-187.731"/>
<polygon fill="midnightblue" stroke="midnightblue" points="394.518,-184.233 384.12,-186.267 393.517,-191.161 394.518,-184.233"/>
</g>
<!-- Node30 -->
<g id="node31" class="node"><title>Node30</title>
<polygon fill="white" stroke="#bfbfbf" points="1136.5,-168.5 1136.5,-187.5 1198.5,-187.5 1198.5,-168.5 1136.5,-168.5"/>
<text text-anchor="middle" x="1167.5" y="-175.5" font-family="Helvetica,sans-Serif" font-size="10.00">type_traits</text>
</g>
<!-- Node1&#45;&gt;Node30 -->
<g id="edge53" class="edge"><title>Node1&#45;&gt;Node30</title>
<path fill="none" stroke="midnightblue" d="M1260.67,-224.324C1242.78,-215.625 1215.02,-202.12 1194.45,-192.113"/>
<polygon fill="midnightblue" stroke="midnightblue" points="1195.81,-188.882 1185.29,-187.655 1192.75,-195.177 1195.81,-188.882"/>
</g>
<!-- Node3 -->
<g id="node4" class="node"><title>Node3</title>
<polygon fill="white" stroke="#bfbfbf" points="2000,-112.5 2000,-131.5 2049,-131.5 2049,-112.5 2000,-112.5"/>
<text text-anchor="middle" x="2024.5" y="-119.5" font-family="Helvetica,sans-Serif" font-size="10.00">cstddef</text>
</g>
<!-- Node2&#45;&gt;Node3 -->
<g id="edge3" class="edge"><title>Node2&#45;&gt;Node3</title>
<path fill="none" stroke="midnightblue" d="M2088.29,-168.324C2076.72,-160.107 2059.12,-147.602 2045.34,-137.807"/>
<polygon fill="midnightblue" stroke="midnightblue" points="2047.11,-134.773 2036.93,-131.834 2043.06,-140.479 2047.11,-134.773"/>
</g>
<!-- Node4 -->
<g id="node5" class="node"><title>Node4</title>
<polygon fill="white" stroke="#bfbfbf" points="2171.5,-112.5 2171.5,-131.5 2223.5,-131.5 2223.5,-112.5 2171.5,-112.5"/>
<text text-anchor="middle" x="2197.5" y="-119.5" font-family="Helvetica,sans-Serif" font-size="10.00">memory</text>
</g>
<!-- Node2&#45;&gt;Node4 -->
<g id="edge4" class="edge"><title>Node2&#45;&gt;Node4</title>
<path fill="none" stroke="midnightblue" d="M2116.08,-168.324C2131.5,-159.743 2155.31,-146.486 2173.21,-136.522"/>
<polygon fill="midnightblue" stroke="midnightblue" points="2174.92,-139.577 2181.95,-131.655 2171.51,-133.461 2174.92,-139.577"/>
</g>
<!-- Node5 -->
<g id="node6" class="node"><title>Node5</title>
<polygon fill="white" stroke="#bfbfbf" points="2067.5,-112.5 2067.5,-131.5 2153.5,-131.5 2153.5,-112.5 2067.5,-112.5"/>
<text text-anchor="middle" x="2110.5" y="-119.5" font-family="Helvetica,sans-Serif" font-size="10.00">odb/lazy&#45;ptr.hxx</text>
</g>
<!-- Node2&#45;&gt;Node5 -->
<g id="edge5" class="edge"><title>Node2&#45;&gt;Node5</title>
<path fill="none" stroke="midnightblue" d="M2102.15,-168.083C2103.48,-160.927 2105.38,-150.635 2107.04,-141.691"/>
<polygon fill="midnightblue" stroke="midnightblue" points="2110.5,-142.221 2108.88,-131.751 2103.62,-140.947 2110.5,-142.221"/>
</g>
<!-- Node6&#45;&gt;Node3 -->
<g id="edge10" class="edge"><title>Node6&#45;&gt;Node3</title>
<path fill="none" stroke="midnightblue" d="M1406.26,-176.513C1527.68,-174.703 1773.28,-166.812 1989.78,-131.774"/>
<polygon fill="midnightblue" stroke="midnightblue" points="1990.43,-135.213 1999.74,-130.139 1989.3,-128.305 1990.43,-135.213"/>
</g>
<!-- Node7 -->
<g id="node8" class="node"><title>Node7</title>
<g id="a_node8"><a xlink:href="../../d6/d2f/Stacktrace_8hpp.html" target="_top" xlink:title="tools/Stacktrace.hpp">
<polygon fill="white" stroke="black" points="1673,-112.5 1673,-131.5 1780,-131.5 1780,-112.5 1673,-112.5"/>
<text text-anchor="middle" x="1726.5" y="-119.5" font-family="Helvetica,sans-Serif" font-size="10.00">tools/Stacktrace.hpp</text>
</a>
</g>
</g>
<!-- Node6&#45;&gt;Node7 -->
<g id="edge7" class="edge"><title>Node6&#45;&gt;Node7</title>
<path fill="none" stroke="midnightblue" d="M1393.25,-168.444C1466.98,-158.389 1588.65,-141.797 1662.8,-131.686"/>
<polygon fill="midnightblue" stroke="midnightblue" points="1663.5,-135.123 1672.94,-130.304 1662.55,-128.187 1663.5,-135.123"/>
</g>
<!-- Node8 -->
<g id="node9" class="node"><title>Node8</title>
<polygon fill="white" stroke="#bfbfbf" points="1310,-0.5 1310,-19.5 1351,-19.5 1351,-0.5 1310,-0.5"/>
<text text-anchor="middle" x="1330.5" y="-7.5" font-family="Helvetica,sans-Serif" font-size="10.00">string</text>
</g>
<!-- Node6&#45;&gt;Node8 -->
<g id="edge12" class="edge"><title>Node6&#45;&gt;Node8</title>
<path fill="none" stroke="midnightblue" d="M1406.33,-176.239C1484.19,-173.658 1597.78,-164.274 1625.5,-132 1701.76,-43.2297 1450.89,-18.5569 1361.18,-12.6548"/>
<polygon fill="midnightblue" stroke="midnightblue" points="1361.27,-9.15364 1351.07,-12.025 1360.83,-16.1401 1361.27,-9.15364"/>
</g>
<!-- Node10 -->
<g id="node11" class="node"><title>Node10</title>
<polygon fill="white" stroke="#bfbfbf" points="1798,-112.5 1798,-131.5 1857,-131.5 1857,-112.5 1798,-112.5"/>
<text text-anchor="middle" x="1827.5" y="-119.5" font-family="Helvetica,sans-Serif" font-size="10.00">exception</text>
</g>
<!-- Node6&#45;&gt;Node10 -->
<g id="edge11" class="edge"><title>Node6&#45;&gt;Node10</title>
<path fill="none" stroke="midnightblue" d="M1406.26,-172.557C1495.27,-166.663 1647.51,-154.481 1787.7,-131.919"/>
<polygon fill="midnightblue" stroke="midnightblue" points="1788.46,-135.341 1797.77,-130.277 1787.33,-128.432 1788.46,-135.341"/>
</g>
<!-- Node11 -->
<g id="node12" class="node"><title>Node11</title>
<g id="a_node12"><a xlink:href="../../d7/d7a/configexception_8hpp.html" target="_top" xlink:title="configexception.hpp">
<polygon fill="white" stroke="black" points="691.5,-112.5 691.5,-131.5 795.5,-131.5 795.5,-112.5 691.5,-112.5"/>
<text text-anchor="middle" x="743.5" y="-119.5" font-family="Helvetica,sans-Serif" font-size="10.00">configexception.hpp</text>
</a>
</g>
</g>
<!-- Node6&#45;&gt;Node11 -->
<g id="edge13" class="edge"><title>Node6&#45;&gt;Node11</title>
<path fill="none" stroke="midnightblue" d="M1254.73,-170.187C1246.86,-169.43 1239.01,-168.685 1231.5,-168 1041.18,-150.628 990.389,-154.075 801.298,-132.644"/>
<polygon fill="midnightblue" stroke="midnightblue" points="801.641,-129.16 791.308,-131.503 800.847,-136.115 801.641,-129.16"/>
</g>
<!-- Node14 -->
<g id="node15" class="node"><title>Node14</title>
<g id="a_node15"><a xlink:href="../../d8/db0/coreexception_8hpp.html" target="_top" xlink:title="Exception class for Core related errors. ">
<polygon fill="white" stroke="black" points="1520.5,-112.5 1520.5,-131.5 1616.5,-131.5 1616.5,-112.5 1520.5,-112.5"/>
<text text-anchor="middle" x="1568.5" y="-119.5" font-family="Helvetica,sans-Serif" font-size="10.00">coreexception.hpp</text>
</a>
</g>
</g>
<!-- Node6&#45;&gt;Node14 -->
<g id="edge19" class="edge"><title>Node6&#45;&gt;Node14</title>
<path fill="none" stroke="midnightblue" d="M1363.12,-168.444C1402.58,-159.023 1469.24,-143.866 1515.95,-133.675"/>
<polygon fill="midnightblue" stroke="midnightblue" points="1516.86,-137.059 1525.88,-131.516 1515.37,-130.219 1516.86,-137.059"/>
</g>
<!-- Node15 -->
<g id="node16" class="node"><title>Node15</title>
<g id="a_node16"><a xlink:href="../../d8/d77/deviceexception_8hpp.html" target="_top" xlink:title="Exception class for Device related errors. ">
<polygon fill="white" stroke="black" points="1875.5,-112.5 1875.5,-131.5 1981.5,-131.5 1981.5,-112.5 1875.5,-112.5"/>
<text text-anchor="middle" x="1928.5" y="-119.5" font-family="Helvetica,sans-Serif" font-size="10.00">deviceexception.hpp</text>
</a>
</g>
</g>
<!-- Node6&#45;&gt;Node15 -->
<g id="edge22" class="edge"><title>Node6&#45;&gt;Node15</title>
<path fill="none" stroke="midnightblue" d="M1406.16,-171.669C1508.64,-164.463 1697,-150.37 1857.5,-132 1860.01,-131.713 1862.57,-131.405 1865.16,-131.08"/>
<polygon fill="midnightblue" stroke="midnightblue" points="1865.79,-134.527 1875.26,-129.766 1864.89,-127.586 1865.79,-134.527"/>
</g>
<!-- Node16 -->
<g id="node17" class="node"><title>Node16</title>
<g id="a_node17"><a xlink:href="../../db/d35/dynlibexception_8hpp.html" target="_top" xlink:title="Exception class for DynLib related errors. ">
<polygon fill="white" stroke="black" points="814,-112.5 814,-131.5 917,-131.5 917,-112.5 814,-112.5"/>
<text text-anchor="middle" x="865.5" y="-119.5" font-family="Helvetica,sans-Serif" font-size="10.00">dynlibexception.hpp</text>
</a>
</g>
</g>
<!-- Node6&#45;&gt;Node16 -->
<g id="edge25" class="edge"><title>Node6&#45;&gt;Node16</title>
<path fill="none" stroke="midnightblue" d="M1254.96,-170.061C1174.19,-162.024 1042.36,-147.989 923.919,-132.818"/>
<polygon fill="midnightblue" stroke="midnightblue" points="924.329,-129.342 913.964,-131.536 923.435,-136.285 924.329,-129.342"/>
</g>
<!-- Node17 -->
<g id="node18" class="node"><title>Node17</title>
<g id="a_node18"><a xlink:href="../../d0/d4e/fsexception_8hpp.html" target="_top" xlink:title="Exception class for filesystem related errors. ">
<polygon fill="white" stroke="black" points="935.5,-112.5 935.5,-131.5 1021.5,-131.5 1021.5,-112.5 935.5,-112.5"/>
<text text-anchor="middle" x="978.5" y="-119.5" font-family="Helvetica,sans-Serif" font-size="10.00">fsexception.hpp</text>
</a>
</g>
</g>
<!-- Node6&#45;&gt;Node17 -->
<g id="edge28" class="edge"><title>Node6&#45;&gt;Node17</title>
<path fill="none" stroke="midnightblue" d="M1264.16,-168.471C1203.77,-160.034 1112.12,-146.534 1028.39,-133.105"/>
<polygon fill="midnightblue" stroke="midnightblue" points="1028.92,-129.644 1018.49,-131.51 1027.8,-136.555 1028.92,-129.644"/>
</g>
<!-- Node18 -->
<g id="node19" class="node"><title>Node18</title>
<g id="a_node19"><a xlink:href="../../d1/d8e/gpioexception_8hpp.html" target="_top" xlink:title="Exception class for Gpio related errors. ">
<polygon fill="white" stroke="black" points="1040,-112.5 1040,-131.5 1135,-131.5 1135,-112.5 1040,-112.5"/>
<text text-anchor="middle" x="1087.5" y="-119.5" font-family="Helvetica,sans-Serif" font-size="10.00">gpioexception.hpp</text>
</a>
</g>
</g>
<!-- Node6&#45;&gt;Node18 -->
<g id="edge31" class="edge"><title>Node6&#45;&gt;Node18</title>
<path fill="none" stroke="midnightblue" d="M1286.91,-168.444C1242.64,-159.063 1174.67,-143.993 1130.59,-133.804"/>
<polygon fill="midnightblue" stroke="midnightblue" points="1131.28,-130.37 1120.74,-131.516 1129.69,-137.189 1131.28,-130.37"/>
</g>
<!-- Node19 -->
<g id="node20" class="node"><title>Node19</title>
<g id="a_node20"><a xlink:href="../../d7/d8c/moduleexception_8hpp.html" target="_top" xlink:title="Exception class for modules. ">
<polygon fill="white" stroke="black" points="1153,-112.5 1153,-131.5 1262,-131.5 1262,-112.5 1153,-112.5"/>
<text text-anchor="middle" x="1207.5" y="-119.5" font-family="Helvetica,sans-Serif" font-size="10.00">moduleexception.hpp</text>
</a>
</g>
</g>
<!-- Node6&#45;&gt;Node19 -->
<g id="edge34" class="edge"><title>Node6&#45;&gt;Node19</title>
<path fill="none" stroke="midnightblue" d="M1305.92,-168.444C1284.03,-159.675 1252.48,-145.935 1230.94,-135.858"/>
<polygon fill="midnightblue" stroke="midnightblue" points="1232.35,-132.654 1221.82,-131.516 1229.34,-138.975 1232.35,-132.654"/>
</g>
<!-- Node20 -->
<g id="node21" class="node"><title>Node20</title>
<g id="a_node21"><a xlink:href="../../df/d8d/scriptexception_8hpp.html" target="_top" xlink:title="Exception class for Script related errors. ">
<polygon fill="white" stroke="black" points="1280,-112.5 1280,-131.5 1381,-131.5 1381,-112.5 1280,-112.5"/>
<text text-anchor="middle" x="1330.5" y="-119.5" font-family="Helvetica,sans-Serif" font-size="10.00">scriptexception.hpp</text>
</a>
</g>
</g>
<!-- Node6&#45;&gt;Node20 -->
<g id="edge37" class="edge"><title>Node6&#45;&gt;Node20</title>
<path fill="none" stroke="midnightblue" d="M1325.33,-168.083C1323.82,-160.927 1323.39,-150.635 1324.04,-141.691"/>
<polygon fill="midnightblue" stroke="midnightblue" points="1327.52,-142.126 1325.37,-131.751 1320.58,-141.2 1327.52,-142.126"/>
</g>
<!-- Node21 -->
<g id="node22" class="node"><title>Node21</title>
<g id="a_node22"><a xlink:href="../../dc/dce/signalexception_8hpp.html" target="_top" xlink:title="Exception class for Signal related errors. ">
<polygon fill="white" stroke="black" points="1399,-112.5 1399,-131.5 1502,-131.5 1502,-112.5 1399,-112.5"/>
<text text-anchor="middle" x="1450.5" y="-119.5" font-family="Helvetica,sans-Serif" font-size="10.00">signalexception.hpp</text>
</a>
</g>
</g>
<!-- Node6&#45;&gt;Node21 -->
<g id="edge40" class="edge"><title>Node6&#45;&gt;Node21</title>
<path fill="none" stroke="midnightblue" d="M1344.67,-168.324C1362.43,-159.467 1392.95,-145.63 1416.75,-135.573"/>
<polygon fill="midnightblue" stroke="midnightblue" points="1418.27,-138.731 1426.16,-131.655 1415.58,-132.27 1418.27,-138.731"/>
</g>
<!-- Node7&#45;&gt;Node8 -->
<g id="edge8" class="edge"><title>Node7&#45;&gt;Node8</title>
<path fill="none" stroke="midnightblue" d="M1720.16,-112.039C1709.36,-97.5327 1685.86,-69.2016 1658.5,-56 1606.31,-30.8142 1432.83,-17.3851 1361.52,-12.8181"/>
<polygon fill="midnightblue" stroke="midnightblue" points="1361.57,-9.3148 1351.37,-12.1845 1361.14,-16.3012 1361.57,-9.3148"/>
</g>
<!-- Node9 -->
<g id="node10" class="node"><title>Node9</title>
<polygon fill="white" stroke="#bfbfbf" points="1710.5,-56.5 1710.5,-75.5 1754.5,-75.5 1754.5,-56.5 1710.5,-56.5"/>
<text text-anchor="middle" x="1732.5" y="-63.5" font-family="Helvetica,sans-Serif" font-size="10.00">vector</text>
</g>
<!-- Node7&#45;&gt;Node9 -->
<g id="edge9" class="edge"><title>Node7&#45;&gt;Node9</title>
<path fill="none" stroke="midnightblue" d="M1727.49,-112.083C1728.29,-104.927 1729.43,-94.6353 1730.42,-85.6911"/>
<polygon fill="midnightblue" stroke="midnightblue" points="1733.9,-86.0765 1731.53,-75.7511 1726.94,-85.3034 1733.9,-86.0765"/>
</g>
<!-- Node11&#45;&gt;Node6 -->
<g id="edge14" class="edge"><title>Node11&#45;&gt;Node6</title>
<path fill="none" stroke="midnightblue" d="M795.691,-129.735C801.723,-130.558 807.757,-131.34 813.5,-132 1003.36,-153.822 1054.14,-150.451 1244.65,-167.568"/>
<polygon fill="midnightblue" stroke="midnightblue" points="1244.44,-171.063 1254.71,-168.48 1245.07,-164.092 1244.44,-171.063"/>
</g>
<!-- Node11&#45;&gt;Node8 -->
<g id="edge18" class="edge"><title>Node11&#45;&gt;Node8</title>
<path fill="none" stroke="midnightblue" d="M778.77,-112.462C833.953,-99.2773 944.164,-73.6434 1038.5,-56 1133.31,-38.2681 1246.39,-22.3057 1299.74,-15.0808"/>
<polygon fill="midnightblue" stroke="midnightblue" points="1300.45,-18.5172 1309.89,-13.7142 1299.51,-11.5798 1300.45,-18.5172"/>
</g>
<!-- Node12 -->
<g id="node13" class="node"><title>Node12</title>
<g id="a_node13"><a xlink:href="../../dd/d35/Colorize_8hpp.html" target="_top" xlink:title="tools/Colorize.hpp">
<polygon fill="white" stroke="black" points="702,-56.5 702,-75.5 797,-75.5 797,-56.5 702,-56.5"/>
<text text-anchor="middle" x="749.5" y="-63.5" font-family="Helvetica,sans-Serif" font-size="10.00">tools/Colorize.hpp</text>
</a>
</g>
</g>
<!-- Node11&#45;&gt;Node12 -->
<g id="edge15" class="edge"><title>Node11&#45;&gt;Node12</title>
<path fill="none" stroke="midnightblue" d="M744.491,-112.083C745.286,-104.927 746.429,-94.6353 747.423,-85.6911"/>
<polygon fill="midnightblue" stroke="midnightblue" points="750.902,-86.0765 748.528,-75.7511 743.945,-85.3034 750.902,-86.0765"/>
</g>
<!-- Node12&#45;&gt;Node8 -->
<g id="edge17" class="edge"><title>Node12&#45;&gt;Node8</title>
<path fill="none" stroke="midnightblue" d="M797.046,-60.581C912.259,-49.8727 1203.91,-22.7652 1299.58,-13.8736"/>
<polygon fill="midnightblue" stroke="midnightblue" points="1300.12,-17.3392 1309.75,-12.9287 1299.47,-10.3693 1300.12,-17.3392"/>
</g>
<!-- Node13 -->
<g id="node14" class="node"><title>Node13</title>
<polygon fill="white" stroke="#bfbfbf" points="723.5,-0.5 723.5,-19.5 775.5,-19.5 775.5,-0.5 723.5,-0.5"/>
<text text-anchor="middle" x="749.5" y="-7.5" font-family="Helvetica,sans-Serif" font-size="10.00">sstream</text>
</g>
<!-- Node12&#45;&gt;Node13 -->
<g id="edge16" class="edge"><title>Node12&#45;&gt;Node13</title>
<path fill="none" stroke="midnightblue" d="M749.5,-56.083C749.5,-49.0059 749.5,-38.8611 749.5,-29.9865"/>
<polygon fill="midnightblue" stroke="midnightblue" points="753,-29.751 749.5,-19.7511 746,-29.7511 753,-29.751"/>
</g>
<!-- Node14&#45;&gt;Node6 -->
<g id="edge21" class="edge"><title>Node14&#45;&gt;Node6</title>
<path fill="none" stroke="midnightblue" d="M1536.04,-131.516C1496.67,-140.92 1430.01,-156.077 1383.25,-166.281"/>
<polygon fill="midnightblue" stroke="midnightblue" points="1382.33,-162.9 1373.3,-168.444 1383.82,-169.741 1382.33,-162.9"/>
</g>
<!-- Node14&#45;&gt;Node8 -->
<g id="edge20" class="edge"><title>Node14&#45;&gt;Node8</title>
<path fill="none" stroke="midnightblue" d="M1549.82,-112.368C1508.11,-93.0908 1407.21,-46.4536 1358.17,-23.7894"/>
<polygon fill="midnightblue" stroke="midnightblue" points="1359.63,-20.6098 1349.09,-19.5914 1356.7,-26.964 1359.63,-20.6098"/>
</g>
<!-- Node15&#45;&gt;Node6 -->
<g id="edge24" class="edge"><title>Node15&#45;&gt;Node6</title>
<path fill="none" stroke="midnightblue" d="M1879.43,-131.538C1878.11,-131.697 1876.8,-131.852 1875.5,-132 1713.94,-150.49 1524.17,-164.647 1416.49,-171.81"/>
<polygon fill="midnightblue" stroke="midnightblue" points="1416.08,-168.33 1406.33,-172.481 1416.54,-175.315 1416.08,-168.33"/>
</g>
<!-- Node15&#45;&gt;Node8 -->
<g id="edge23" class="edge"><title>Node15&#45;&gt;Node8</title>
<path fill="none" stroke="midnightblue" d="M1911.19,-112.355C1881.69,-98.0427 1819.43,-69.6527 1763.5,-56 1615.79,-19.9456 1432.84,-12.7677 1361.25,-11.3468"/>
<polygon fill="midnightblue" stroke="midnightblue" points="1361.19,-7.84527 1351.13,-11.1704 1361.06,-14.8442 1361.19,-7.84527"/>
</g>
<!-- Node16&#45;&gt;Node6 -->
<g id="edge27" class="edge"><title>Node16&#45;&gt;Node6</title>
<path fill="none" stroke="midnightblue" d="M917.04,-129.488C923.292,-130.367 929.555,-131.231 935.5,-132 1042.05,-145.79 1164.75,-159.093 1244.81,-167.611"/>
<polygon fill="midnightblue" stroke="midnightblue" points="1244.53,-171.101 1254.85,-168.677 1245.27,-164.14 1244.53,-171.101"/>
</g>
<!-- Node16&#45;&gt;Node8 -->
<g id="edge26" class="edge"><title>Node16&#45;&gt;Node8</title>
<path fill="none" stroke="midnightblue" d="M897.078,-112.481C945.01,-99.6503 1039.07,-74.8607 1119.5,-56 1183.41,-41.0149 1258.69,-25.4585 1299.84,-17.1351"/>
<polygon fill="midnightblue" stroke="midnightblue" points="1300.66,-20.5389 1309.77,-15.131 1299.28,-13.6771 1300.66,-20.5389"/>
</g>
<!-- Node17&#45;&gt;Node6 -->
<g id="edge30" class="edge"><title>Node17&#45;&gt;Node6</title>
<path fill="none" stroke="midnightblue" d="M1021.75,-129.064C1027.76,-130.067 1033.8,-131.08 1039.5,-132 1118.26,-144.721 1208.86,-158.144 1267.84,-166.984"/>
<polygon fill="midnightblue" stroke="midnightblue" points="1267.34,-170.448 1277.75,-168.471 1268.38,-163.526 1267.34,-170.448"/>
</g>
<!-- Node17&#45;&gt;Node8 -->
<g id="edge29" class="edge"><title>Node17&#45;&gt;Node8</title>
<path fill="none" stroke="midnightblue" d="M1005.83,-112.46C1070.51,-92.2462 1232.62,-41.5879 1300.19,-20.4722"/>
<polygon fill="midnightblue" stroke="midnightblue" points="1301.32,-23.7854 1309.82,-17.4619 1299.23,-17.1041 1301.32,-23.7854"/>
</g>
<!-- Node18&#45;&gt;Node6 -->
<g id="edge32" class="edge"><title>Node18&#45;&gt;Node6</title>
<path fill="none" stroke="midnightblue" d="M1130.9,-131.516C1175.11,-140.881 1243.07,-155.95 1287.22,-166.153"/>
<polygon fill="midnightblue" stroke="midnightblue" points="1286.55,-169.59 1297.08,-168.444 1288.14,-162.772 1286.55,-169.59"/>
</g>
<!-- Node18&#45;&gt;Node8 -->
<g id="edge33" class="edge"><title>Node18&#45;&gt;Node8</title>
<path fill="none" stroke="midnightblue" d="M1109.16,-112.374C1131.07,-103.556 1165.85,-89.3043 1195.5,-76 1233.76,-58.834 1277.36,-37.5129 1304.41,-24.0764"/>
<polygon fill="midnightblue" stroke="midnightblue" points="1306.2,-27.0972 1313.59,-19.5051 1303.08,-20.8317 1306.2,-27.0972"/>
</g>
<!-- Node19&#45;&gt;Node6 -->
<g id="edge36" class="edge"><title>Node19&#45;&gt;Node6</title>
<path fill="none" stroke="midnightblue" d="M1232.32,-131.655C1254.1,-140.385 1285.3,-153.972 1306.75,-163.998"/>
<polygon fill="midnightblue" stroke="midnightblue" points="1305.32,-167.191 1315.85,-168.324 1308.32,-160.869 1305.32,-167.191"/>
</g>
<!-- Node19&#45;&gt;Node8 -->
<g id="edge35" class="edge"><title>Node19&#45;&gt;Node8</title>
<path fill="none" stroke="midnightblue" d="M1217.15,-112.368C1237.9,-93.8137 1286.99,-49.9129 1313.24,-26.4376"/>
<polygon fill="midnightblue" stroke="midnightblue" points="1315.77,-28.8665 1320.89,-19.5914 1311.11,-23.6487 1315.77,-28.8665"/>
</g>
<!-- Node20&#45;&gt;Node6 -->
<g id="edge39" class="edge"><title>Node20&#45;&gt;Node6</title>
<path fill="none" stroke="midnightblue" d="M1335.63,-131.751C1337.16,-138.858 1337.6,-149.136 1336.97,-158.101"/>
<polygon fill="midnightblue" stroke="midnightblue" points="1333.49,-157.713 1335.67,-168.083 1340.43,-158.622 1333.49,-157.713"/>
</g>
<!-- Node20&#45;&gt;Node8 -->
<g id="edge38" class="edge"><title>Node20&#45;&gt;Node8</title>
<path fill="none" stroke="midnightblue" d="M1330.5,-112.368C1330.5,-94.617 1330.5,-53.6664 1330.5,-29.5974"/>
<polygon fill="midnightblue" stroke="midnightblue" points="1334,-29.5914 1330.5,-19.5914 1327,-29.5915 1334,-29.5914"/>
</g>
<!-- Node21&#45;&gt;Node6 -->
<g id="edge42" class="edge"><title>Node21&#45;&gt;Node6</title>
<path fill="none" stroke="midnightblue" d="M1436.65,-131.516C1418.89,-140.388 1388.04,-154.38 1364.07,-164.503"/>
<polygon fill="midnightblue" stroke="midnightblue" points="1362.49,-161.369 1354.6,-168.444 1365.18,-167.831 1362.49,-161.369"/>
</g>
<!-- Node21&#45;&gt;Node8 -->
<g id="edge41" class="edge"><title>Node21&#45;&gt;Node8</title>
<path fill="none" stroke="midnightblue" d="M1441.08,-112.368C1420.84,-93.8137 1372.95,-49.9129 1347.34,-26.4376"/>
<polygon fill="midnightblue" stroke="midnightblue" points="1349.61,-23.7686 1339.87,-19.5914 1344.88,-28.9287 1349.61,-23.7686"/>
</g>
<!-- Node22&#45;&gt;Node8 -->
<g id="edge49" class="edge"><title>Node22&#45;&gt;Node8</title>
<path fill="none" stroke="midnightblue" d="M434.173,-168.098C422.626,-154.658 404.655,-128.96 418.5,-112 497.099,-15.7118 569.353,-72.8533 692.5,-56 924.518,-24.2472 1207.26,-14.2709 1299.68,-11.7414"/>
<polygon fill="midnightblue" stroke="midnightblue" points="1299.84,-15.2383 1309.74,-11.475 1299.65,-8.24079 1299.84,-15.2383"/>
</g>
<!-- Node22&#45;&gt;Node23 -->
<g id="edge44" class="edge"><title>Node22&#45;&gt;Node23</title>
<path fill="none" stroke="midnightblue" d="M470.071,-168.444C499.597,-159.28 546.618,-144.688 579.383,-134.519"/>
<polygon fill="midnightblue" stroke="midnightblue" points="580.545,-137.823 589.058,-131.516 578.47,-131.138 580.545,-137.823"/>
</g>
<!-- Node24 -->
<g id="node25" class="node"><title>Node24</title>
<polygon fill="white" stroke="#bfbfbf" points="91,-112.5 91,-131.5 252,-131.5 252,-112.5 91,-112.5"/>
<text text-anchor="middle" x="171.5" y="-119.5" font-family="Helvetica,sans-Serif" font-size="10.00">boost/uuid/random_generator.hpp</text>
</g>
<!-- Node22&#45;&gt;Node24 -->
<g id="edge45" class="edge"><title>Node22&#45;&gt;Node24</title>
<path fill="none" stroke="midnightblue" d="M402.221,-168.974C354.946,-159.554 276.403,-143.903 224.291,-133.519"/>
<polygon fill="midnightblue" stroke="midnightblue" points="224.73,-130.038 214.239,-131.516 223.362,-136.903 224.73,-130.038"/>
</g>
<!-- Node25 -->
<g id="node26" class="node"><title>Node25</title>
<polygon fill="white" stroke="#bfbfbf" points="270,-112.5 270,-131.5 371,-131.5 371,-112.5 270,-112.5"/>
<text text-anchor="middle" x="320.5" y="-119.5" font-family="Helvetica,sans-Serif" font-size="10.00">boost/uuid/uuid.hpp</text>
</g>
<!-- Node22&#45;&gt;Node25 -->
<g id="edge46" class="edge"><title>Node22&#45;&gt;Node25</title>
<path fill="none" stroke="midnightblue" d="M423.169,-168.444C403.18,-159.596 371.757,-145.687 348.936,-135.586"/>
<polygon fill="midnightblue" stroke="midnightblue" points="350.302,-132.363 339.741,-131.516 347.468,-138.764 350.302,-132.363"/>
</g>
<!-- Node26 -->
<g id="node27" class="node"><title>Node26</title>
<polygon fill="white" stroke="#bfbfbf" points="427.5,-112.5 427.5,-131.5 541.5,-131.5 541.5,-112.5 427.5,-112.5"/>
<text text-anchor="middle" x="484.5" y="-119.5" font-family="Helvetica,sans-Serif" font-size="10.00">boost/uuid/uuid_io.hpp</text>
</g>
<!-- Node22&#45;&gt;Node26 -->
<g id="edge47" class="edge"><title>Node22&#45;&gt;Node26</title>
<path fill="none" stroke="midnightblue" d="M449.435,-168.083C455.429,-160.377 464.252,-149.033 471.548,-139.653"/>
<polygon fill="midnightblue" stroke="midnightblue" points="474.317,-141.793 477.694,-131.751 468.791,-137.496 474.317,-141.793"/>
</g>
<!-- Node27 -->
<g id="node28" class="node"><title>Node27</title>
<polygon fill="white" stroke="#bfbfbf" points="0,-112.5 0,-131.5 73,-131.5 73,-112.5 0,-112.5"/>
<text text-anchor="middle" x="36.5" y="-119.5" font-family="Helvetica,sans-Serif" font-size="10.00">odb/core.hxx</text>
</g>
<!-- Node22&#45;&gt;Node27 -->
<g id="edge48" class="edge"><title>Node22&#45;&gt;Node27</title>
<path fill="none" stroke="midnightblue" d="M402.419,-169.557C399.068,-169.004 395.728,-168.477 392.5,-168 258.075,-148.142 220.687,-153.396 83.3561,-132.188"/>
<polygon fill="midnightblue" stroke="midnightblue" points="83.7134,-128.701 73.2928,-130.614 82.6321,-135.617 83.7134,-128.701"/>
</g>
<!-- Node31&#45;&gt;Node2 -->
<g id="edge55" class="edge"><title>Node31&#45;&gt;Node2</title>
<path fill="none" stroke="midnightblue" d="M2184.43,-224.324C2168.54,-215.743 2143.99,-202.486 2125.54,-192.522"/>
<polygon fill="midnightblue" stroke="midnightblue" points="2126.99,-189.326 2116.53,-187.655 2123.66,-195.486 2126.99,-189.326"/>
</g>
<!-- Node31&#45;&gt;Node8 -->
<g id="edge57" class="edge"><title>Node31&#45;&gt;Node8</title>
<path fill="none" stroke="midnightblue" d="M2209.25,-224.286C2217.06,-215.84 2227.95,-202.246 2232.5,-188 2242.77,-155.823 2254.77,-137.4 2232.5,-112 2173.67,-44.8846 1512.48,-17.4573 1361.2,-12.037"/>
<polygon fill="midnightblue" stroke="midnightblue" points="1361.33,-8.53921 1351.21,-11.6845 1361.08,-15.5349 1361.33,-8.53921"/>
</g>
<!-- Node31&#45;&gt;Node28 -->
<g id="edge56" class="edge"><title>Node31&#45;&gt;Node28</title>
<path fill="none" stroke="midnightblue" d="M2200.5,-224.083C2200.5,-217.006 2200.5,-206.861 2200.5,-197.986"/>
<polygon fill="midnightblue" stroke="midnightblue" points="2204,-197.751 2200.5,-187.751 2197,-197.751 2204,-197.751"/>
</g>
<!-- Node32&#45;&gt;Node8 -->
<g id="edge63" class="edge"><title>Node32&#45;&gt;Node8</title>
<path fill="none" stroke="midnightblue" d="M2325.79,-224.235C2312.18,-199.178 2272.41,-128.017 2251.5,-112 2187.67,-63.1182 2158.49,-70.9765 2079.5,-56 1938.33,-29.2338 1484.31,-15.183 1361.42,-11.8083"/>
<polygon fill="midnightblue" stroke="midnightblue" points="1361.31,-8.30405 1351.22,-11.5319 1361.12,-15.3015 1361.31,-8.30405"/>
</g>
<!-- Node32&#45;&gt;Node28 -->
<g id="edge59" class="edge"><title>Node32&#45;&gt;Node28</title>
<path fill="none" stroke="midnightblue" d="M2309.9,-224.444C2288.51,-215.557 2254.82,-201.563 2230.48,-191.451"/>
<polygon fill="midnightblue" stroke="midnightblue" points="2231.58,-188.12 2221,-187.516 2228.89,-194.585 2231.58,-188.12"/>
</g>
<!-- Node33 -->
<g id="node34" class="node"><title>Node33</title>
<polygon fill="white" stroke="#bfbfbf" points="2318,-168.5 2318,-187.5 2363,-187.5 2363,-168.5 2318,-168.5"/>
<text text-anchor="middle" x="2340.5" y="-175.5" font-family="Helvetica,sans-Serif" font-size="10.00">cstdlib</text>
</g>
<!-- Node32&#45;&gt;Node33 -->
<g id="edge60" class="edge"><title>Node32&#45;&gt;Node33</title>
<path fill="none" stroke="midnightblue" d="M2332.15,-224.083C2333.48,-216.927 2335.38,-206.635 2337.04,-197.691"/>
<polygon fill="midnightblue" stroke="midnightblue" points="2340.5,-198.221 2338.88,-187.751 2333.62,-196.947 2340.5,-198.221"/>
</g>
<!-- Node34 -->
<g id="node35" class="node"><title>Node34</title>
<polygon fill="white" stroke="#bfbfbf" points="2381,-168.5 2381,-187.5 2422,-187.5 2422,-168.5 2381,-168.5"/>
<text text-anchor="middle" x="2401.5" y="-175.5" font-family="Helvetica,sans-Serif" font-size="10.00">ctime</text>
</g>
<!-- Node32&#45;&gt;Node34 -->
<g id="edge61" class="edge"><title>Node32&#45;&gt;Node34</title>
<path fill="none" stroke="midnightblue" d="M2341.91,-224.324C2352.61,-216.185 2368.84,-203.839 2381.66,-194.087"/>
<polygon fill="midnightblue" stroke="midnightblue" points="2384.04,-196.673 2389.89,-187.834 2379.81,-191.102 2384.04,-196.673"/>
</g>
<!-- Node35 -->
<g id="node36" class="node"><title>Node35</title>
<polygon fill="white" stroke="#bfbfbf" points="2440,-168.5 2440,-187.5 2489,-187.5 2489,-168.5 2440,-168.5"/>
<text text-anchor="middle" x="2464.5" y="-175.5" font-family="Helvetica,sans-Serif" font-size="10.00">string.h</text>
</g>
<!-- Node32&#45;&gt;Node35 -->
<g id="edge62" class="edge"><title>Node32&#45;&gt;Node35</title>
<path fill="none" stroke="midnightblue" d="M2351.73,-224.444C2373.88,-215.517 2408.82,-201.439 2433.94,-191.317"/>
<polygon fill="midnightblue" stroke="midnightblue" points="2435.4,-194.501 2443.37,-187.516 2432.78,-188.008 2435.4,-194.501"/>
</g>
</g>
</svg>
        <g id="navigator" transform="translate(0 0)" fill="#404254">
                <rect fill="#f2f5e9" fill-opacity="0.5" stroke="#606060" stroke-width=".5" x="0" y="0" width="60" height="60"/>
                <use id="zoomplus" xlink:href="#zoomPlus" x="17" y="9" onmousedown="handleZoom(evt,'in')"/>
                <use id="zoomminus" xlink:href="#zoomMin" x="42" y="9" onmousedown="handleZoom(evt,'out')"/>
                <use id="reset" xlink:href="#resetDef" x="30" y="36" onmousedown="handleReset()"/>
                <g id="arrowUp" xlink:href="#dirArrow" transform="translate(30 24)" onmousedown="handlePan(0,-1)">
                  <use xlink:href="#rim" fill="#404040">
                        <set attributeName="fill" to="#808080" begin="arrowUp.mouseover" end="arrowUp.mouseout"/>
                  </use>
                  <path fill="none" stroke="white" stroke-width="1.5" d="M0,-3.0v7 M-2.5,-0.5L0,-3.0L2.5,-0.5"/>
                </g>
                <g id="arrowRight" xlink:href="#dirArrow" transform="rotate(90) translate(36 -43)" onmousedown="handlePan(1,0)">
                  <use xlink:href="#rim" fill="#404040">
                        <set attributeName="fill" to="#808080" begin="arrowRight.mouseover" end="arrowRight.mouseout"/>
                  </use>
                  <path fill="none" stroke="white" stroke-width="1.5" d="M0,-3.0v7 M-2.5,-0.5L0,-3.0L2.5,-0.5"/>
                </g>
                <g id="arrowDown" xlink:href="#dirArrow" transform="rotate(180) translate(-30 -48)" onmousedown="handlePan(0,1)">
                  <use xlink:href="#rim" fill="#404040">
                        <set attributeName="fill" to="#808080" begin="arrowDown.mouseover" end="arrowDown.mouseout"/>
                  </use>
                  <path fill="none" stroke="white" stroke-width="1.5" d="M0,-3.0v7 M-2.5,-0.5L0,-3.0L2.5,-0.5"/>
                </g>
                <g id="arrowLeft" xlink:href="#dirArrow" transform="rotate(270) translate(-36 17)" onmousedown="handlePan(-1,0)">
                  <use xlink:href="#rim" fill="#404040">
                        <set attributeName="fill" to="#808080" begin="arrowLeft.mouseover" end="arrowLeft.mouseout"/>
                  </use>
                  <path fill="none" stroke="white" stroke-width="1.5" d="M0,-3.0v7 M-2.5,-0.5L0,-3.0L2.5,-0.5"/>
                </g>
        </g>
        <svg viewBox="0 0 15 15" width="100%" height="30px" preserveAspectRatio="xMaxYMin meet">
         <g id="arrow_out" transform="scale(0.3 0.3)">
          <a xlink:href="JSONUtils_8cpp__incl_org.svg" target="_base">
           <rect id="button" ry="5" rx="5" y="6" x="6" height="38" width="38"
                fill="#f2f5e9" fill-opacity="0.5" stroke="#606060" stroke-width="1.0"/>
           <path id="arrow"
             d="M 11.500037,31.436501 C 11.940474,20.09759 22.043105,11.32322 32.158766,21.979434 L 37.068811,17.246167 C 37.068811,17.246167 37.088388,32 37.088388,32 L 22.160133,31.978069 C 22.160133,31.978069 26.997745,27.140456 26.997745,27.140456 C 18.528582,18.264221 13.291696,25.230495 11.500037,31.436501 z"
             style="fill:#404040;"/>
          </a>
         </g>
        </svg>
</svg>
