<?xml version="1.0" encoding="UTF-8" standalone="no"?>
<!DOCTYPE svg PUBLIC "-//W3C//DTD SVG 1.1//EN"
 "http://www.w3.org/Graphics/SVG/1.1/DTD/svg11.dtd">
<!-- Generated by graphviz version 2.38.0 (20140413.2041)
 -->
<!-- Title: src/tools/enforce.hpp Pages: 1 -->
<svg width="1345pt" height="308pt"
 viewBox="0.00 0.00 1344.52 308.00" xmlns="http://www.w3.org/2000/svg" xmlns:xlink="http://www.w3.org/1999/xlink">
<g id="graph0" class="graph" transform="scale(1 1) rotate(0) translate(4 304)">
<title>src/tools/enforce.hpp</title>
<polygon fill="white" stroke="none" points="-4,4 -4,-304 1340.52,-304 1340.52,4 -4,4"/>
<!-- Node0 -->
<g id="node1" class="node"><title>Node0</title>
<polygon fill="#bfbfbf" stroke="black" points="787,-280.5 787,-299.5 895,-299.5 895,-280.5 787,-280.5"/>
<text text-anchor="middle" x="841" y="-287.5" font-family="Helvetica,sans-Serif" font-size="10.00">src/tools/enforce.hpp</text>
</g>
<!-- Node1 -->
<g id="node2" class="node"><title>Node1</title>
<g id="a_node2"><a xlink:href="../../de/d99/InvalidArgument_8hpp.html" target="_top" xlink:title="exception/InvalidArgument.hpp">
<polygon fill="white" stroke="black" points="765.5,-224.5 765.5,-243.5 916.5,-243.5 916.5,-224.5 765.5,-224.5"/>
<text text-anchor="middle" x="841" y="-231.5" font-family="Helvetica,sans-Serif" font-size="10.00">exception/InvalidArgument.hpp</text>
</a>
</g>
</g>
<!-- Node0&#45;&gt;Node1 -->
<g id="edge1" class="edge"><title>Node0&#45;&gt;Node1</title>
<path fill="none" stroke="midnightblue" d="M841,-280.083C841,-273.006 841,-262.861 841,-253.986"/>
<polygon fill="midnightblue" stroke="midnightblue" points="844.5,-253.751 841,-243.751 837.5,-253.751 844.5,-253.751"/>
</g>
<!-- Node2 -->
<g id="node3" class="node"><title>Node2</title>
<g id="a_node3"><a xlink:href="../../d1/ddd/leosacexception_8hpp.html" target="_top" xlink:title="Exception class for LEOSAC Project related errors. ">
<polygon fill="white" stroke="black" points="661.5,-168.5 661.5,-187.5 812.5,-187.5 812.5,-168.5 661.5,-168.5"/>
<text text-anchor="middle" x="737" y="-175.5" font-family="Helvetica,sans-Serif" font-size="10.00">exception/leosacexception.hpp</text>
</a>
</g>
</g>
<!-- Node0&#45;&gt;Node2 -->
<g id="edge40" class="edge"><title>Node0&#45;&gt;Node2</title>
<path fill="none" stroke="midnightblue" d="M812.347,-280.361C793.784,-273.369 770.457,-261.728 756,-244 745.212,-230.772 740.549,-211.641 738.534,-197.558"/>
<polygon fill="midnightblue" stroke="midnightblue" points="742.005,-197.105 737.419,-187.554 735.048,-197.881 742.005,-197.105"/>
</g>
<!-- Node20 -->
<g id="node21" class="node"><title>Node20</title>
<polygon fill="white" stroke="#bfbfbf" points="935,-224.5 935,-243.5 975,-243.5 975,-224.5 935,-224.5"/>
<text text-anchor="middle" x="955" y="-231.5" font-family="Helvetica,sans-Serif" font-size="10.00">utility</text>
</g>
<!-- Node0&#45;&gt;Node20 -->
<g id="edge41" class="edge"><title>Node0&#45;&gt;Node20</title>
<path fill="none" stroke="midnightblue" d="M859.064,-280.444C877.575,-271.675 906.581,-257.935 927.855,-247.858"/>
<polygon fill="midnightblue" stroke="midnightblue" points="929.482,-250.96 937.021,-243.516 926.485,-244.634 929.482,-250.96"/>
</g>
<!-- Node1&#45;&gt;Node2 -->
<g id="edge2" class="edge"><title>Node1&#45;&gt;Node2</title>
<path fill="none" stroke="midnightblue" d="M824.291,-224.324C807.688,-215.703 781.998,-202.364 762.78,-192.386"/>
<polygon fill="midnightblue" stroke="midnightblue" points="764.156,-189.156 753.668,-187.655 760.93,-195.369 764.156,-189.156"/>
</g>
<!-- Node19 -->
<g id="node20" class="node"><title>Node19</title>
<polygon fill="white" stroke="#bfbfbf" points="831,-168.5 831,-187.5 947,-187.5 947,-168.5 831,-168.5"/>
<text text-anchor="middle" x="889" y="-175.5" font-family="Helvetica,sans-Serif" font-size="10.00">spdlog/details/format.h</text>
</g>
<!-- Node1&#45;&gt;Node19 -->
<g id="edge39" class="edge"><title>Node1&#45;&gt;Node19</title>
<path fill="none" stroke="midnightblue" d="M848.926,-224.083C855.846,-216.298 866.065,-204.801 874.452,-195.367"/>
<polygon fill="midnightblue" stroke="midnightblue" points="877.194,-197.55 881.221,-187.751 871.962,-192.9 877.194,-197.55"/>
</g>
<!-- Node3 -->
<g id="node4" class="node"><title>Node3</title>
<g id="a_node4"><a xlink:href="../../d6/d2f/Stacktrace_8hpp.html" target="_top" xlink:title="tools/Stacktrace.hpp">
<polygon fill="white" stroke="black" points="626.5,-112.5 626.5,-131.5 733.5,-131.5 733.5,-112.5 626.5,-112.5"/>
<text text-anchor="middle" x="680" y="-119.5" font-family="Helvetica,sans-Serif" font-size="10.00">tools/Stacktrace.hpp</text>
</a>
</g>
</g>
<!-- Node2&#45;&gt;Node3 -->
<g id="edge3" class="edge"><title>Node2&#45;&gt;Node3</title>
<path fill="none" stroke="midnightblue" d="M727.842,-168.324C719.499,-160.42 706.968,-148.548 696.823,-138.938"/>
<polygon fill="midnightblue" stroke="midnightblue" points="698.991,-136.171 689.325,-131.834 694.177,-141.252 698.991,-136.171"/>
</g>
<!-- Node4 -->
<g id="node5" class="node"><title>Node4</title>
<polygon fill="white" stroke="#bfbfbf" points="744.5,-0.5 744.5,-19.5 785.5,-19.5 785.5,-0.5 744.5,-0.5"/>
<text text-anchor="middle" x="765" y="-7.5" font-family="Helvetica,sans-Serif" font-size="10.00">string</text>
</g>
<!-- Node2&#45;&gt;Node4 -->
<g id="edge8" class="edge"><title>Node2&#45;&gt;Node4</title>
<path fill="none" stroke="midnightblue" d="M812.531,-168.866C815.729,-168.565 818.896,-168.275 822,-168 878.145,-163.032 1289.58,-173.246 1328,-132 1403.64,-50.7836 924.582,-19.4278 796.107,-12.5362"/>
<polygon fill="midnightblue" stroke="midnightblue" points="795.959,-9.02371 785.789,-11.9953 795.592,-16.0141 795.959,-9.02371"/>
</g>
<!-- Node6 -->
<g id="node7" class="node"><title>Node6</title>
<polygon fill="white" stroke="#bfbfbf" points="236.5,-112.5 236.5,-131.5 285.5,-131.5 285.5,-112.5 236.5,-112.5"/>
<text text-anchor="middle" x="261" y="-119.5" font-family="Helvetica,sans-Serif" font-size="10.00">cstddef</text>
</g>
<!-- Node2&#45;&gt;Node6 -->
<g id="edge6" class="edge"><title>Node2&#45;&gt;Node6</title>
<path fill="none" stroke="midnightblue" d="M661.212,-173.115C574.733,-167.826 429.017,-156.309 295.746,-132.069"/>
<polygon fill="midnightblue" stroke="midnightblue" points="296.234,-128.6 285.765,-130.225 294.962,-135.484 296.234,-128.6"/>
</g>
<!-- Node7 -->
<g id="node8" class="node"><title>Node7</title>
<polygon fill="white" stroke="#bfbfbf" points="303.5,-112.5 303.5,-131.5 362.5,-131.5 362.5,-112.5 303.5,-112.5"/>
<text text-anchor="middle" x="333" y="-119.5" font-family="Helvetica,sans-Serif" font-size="10.00">exception</text>
</g>
<!-- Node2&#45;&gt;Node7 -->
<g id="edge7" class="edge"><title>Node2&#45;&gt;Node7</title>
<path fill="none" stroke="midnightblue" d="M661.16,-169.975C589.338,-162.793 478.314,-150.321 372.626,-131.939"/>
<polygon fill="midnightblue" stroke="midnightblue" points="373.2,-128.486 362.745,-130.2 371.987,-135.381 373.2,-128.486"/>
</g>
<!-- Node8 -->
<g id="node9" class="node"><title>Node8</title>
<g id="a_node9"><a xlink:href="../../d7/d7a/configexception_8hpp.html" target="_top" xlink:title="configexception.hpp">
<polygon fill="white" stroke="black" points="0,-112.5 0,-131.5 104,-131.5 104,-112.5 0,-112.5"/>
<text text-anchor="middle" x="52" y="-119.5" font-family="Helvetica,sans-Serif" font-size="10.00">configexception.hpp</text>
</a>
</g>
</g>
<!-- Node2&#45;&gt;Node8 -->
<g id="edge9" class="edge"><title>Node2&#45;&gt;Node8</title>
<path fill="none" stroke="midnightblue" d="M661.084,-173.639C543.925,-167.824 312.138,-154.42 110.016,-132.633"/>
<polygon fill="midnightblue" stroke="midnightblue" points="110.126,-129.125 99.806,-131.523 109.369,-136.084 110.126,-129.125"/>
</g>
<!-- Node11 -->
<g id="node12" class="node"><title>Node11</title>
<g id="a_node12"><a xlink:href="../../d8/db0/coreexception_8hpp.html" target="_top" xlink:title="Exception class for Core related errors. ">
<polygon fill="white" stroke="black" points="122,-112.5 122,-131.5 218,-131.5 218,-112.5 122,-112.5"/>
<text text-anchor="middle" x="170" y="-119.5" font-family="Helvetica,sans-Serif" font-size="10.00">coreexception.hpp</text>
</a>
</g>
</g>
<!-- Node2&#45;&gt;Node11 -->
<g id="edge15" class="edge"><title>Node2&#45;&gt;Node11</title>
<path fill="none" stroke="midnightblue" d="M661.147,-172.36C561.916,-165.626 382.721,-151.882 224.473,-132.77"/>
<polygon fill="midnightblue" stroke="midnightblue" points="224.431,-129.239 214.081,-131.503 223.584,-136.187 224.431,-129.239"/>
</g>
<!-- Node12 -->
<g id="node13" class="node"><title>Node12</title>
<g id="a_node13"><a xlink:href="../../d8/d77/deviceexception_8hpp.html" target="_top" xlink:title="Exception class for Device related errors. ">
<polygon fill="white" stroke="black" points="381,-112.5 381,-131.5 487,-131.5 487,-112.5 381,-112.5"/>
<text text-anchor="middle" x="434" y="-119.5" font-family="Helvetica,sans-Serif" font-size="10.00">deviceexception.hpp</text>
</a>
</g>
</g>
<!-- Node2&#45;&gt;Node12 -->
<g id="edge18" class="edge"><title>Node2&#45;&gt;Node12</title>
<path fill="none" stroke="midnightblue" d="M683.9,-168.444C628.4,-158.925 541.996,-143.547 486.663,-133.356"/>
<polygon fill="midnightblue" stroke="midnightblue" points="487.176,-129.892 476.707,-131.516 485.904,-136.776 487.176,-129.892"/>
</g>
<!-- Node13 -->
<g id="node14" class="node"><title>Node13</title>
<g id="a_node14"><a xlink:href="../../db/d35/dynlibexception_8hpp.html" target="_top" xlink:title="Exception class for DynLib related errors. ">
<polygon fill="white" stroke="black" points="505.5,-112.5 505.5,-131.5 608.5,-131.5 608.5,-112.5 505.5,-112.5"/>
<text text-anchor="middle" x="557" y="-119.5" font-family="Helvetica,sans-Serif" font-size="10.00">dynlibexception.hpp</text>
</a>
</g>
</g>
<!-- Node2&#45;&gt;Node13 -->
<g id="edge21" class="edge"><title>Node2&#45;&gt;Node13</title>
<path fill="none" stroke="midnightblue" d="M703.39,-168.444C670.975,-159.32 622.428,-144.813 590.168,-134.651"/>
<polygon fill="midnightblue" stroke="midnightblue" points="590.899,-131.21 580.308,-131.516 588.778,-137.882 590.899,-131.21"/>
</g>
<!-- Node14 -->
<g id="node15" class="node"><title>Node14</title>
<g id="a_node15"><a xlink:href="../../d0/d4e/fsexception_8hpp.html" target="_top" xlink:title="Exception class for filesystem related errors. ">
<polygon fill="white" stroke="black" points="752,-112.5 752,-131.5 838,-131.5 838,-112.5 752,-112.5"/>
<text text-anchor="middle" x="795" y="-119.5" font-family="Helvetica,sans-Serif" font-size="10.00">fsexception.hpp</text>
</a>
</g>
</g>
<!-- Node2&#45;&gt;Node14 -->
<g id="edge24" class="edge"><title>Node2&#45;&gt;Node14</title>
<path fill="none" stroke="midnightblue" d="M741.411,-168.083C748.402,-159.984 761.091,-147.866 772.494,-138.233"/>
<polygon fill="midnightblue" stroke="midnightblue" points="774.917,-140.774 780.47,-131.751 770.502,-135.342 774.917,-140.774"/>
</g>
<!-- Node15 -->
<g id="node16" class="node"><title>Node15</title>
<g id="a_node16"><a xlink:href="../../d1/d8e/gpioexception_8hpp.html" target="_top" xlink:title="Exception class for Gpio related errors. ">
<polygon fill="white" stroke="black" points="856.5,-112.5 856.5,-131.5 951.5,-131.5 951.5,-112.5 856.5,-112.5"/>
<text text-anchor="middle" x="904" y="-119.5" font-family="Helvetica,sans-Serif" font-size="10.00">gpioexception.hpp</text>
</a>
</g>
</g>
<!-- Node2&#45;&gt;Node15 -->
<g id="edge27" class="edge"><title>Node2&#45;&gt;Node15</title>
<path fill="none" stroke="midnightblue" d="M758.373,-168.444C784.702,-159.28 829.644,-144.688 862.729,-134.519"/>
<polygon fill="midnightblue" stroke="midnightblue" points="864.037,-137.78 872.582,-131.516 861.996,-131.084 864.037,-137.78"/>
</g>
<!-- Node16 -->
<g id="node17" class="node"><title>Node16</title>
<g id="a_node17"><a xlink:href="../../d7/d8c/moduleexception_8hpp.html" target="_top" xlink:title="Exception class for modules. ">
<polygon fill="white" stroke="black" points="969.5,-112.5 969.5,-131.5 1078.5,-131.5 1078.5,-112.5 969.5,-112.5"/>
<text text-anchor="middle" x="1024" y="-119.5" font-family="Helvetica,sans-Serif" font-size="10.00">moduleexception.hpp</text>
</a>
</g>
</g>
<!-- Node2&#45;&gt;Node16 -->
<g id="edge30" class="edge"><title>Node2&#45;&gt;Node16</title>
<path fill="none" stroke="midnightblue" d="M777.387,-168.444C825.891,-158.925 907.499,-143.547 963.51,-133.356"/>
<polygon fill="midnightblue" stroke="midnightblue" points="964.442,-136.745 973.657,-131.516 963.193,-129.857 964.442,-136.745"/>
</g>
<!-- Node17 -->
<g id="node18" class="node"><title>Node17</title>
<g id="a_node18"><a xlink:href="../../df/d8d/scriptexception_8hpp.html" target="_top" xlink:title="Exception class for Script related errors. ">
<polygon fill="white" stroke="black" points="1096.5,-112.5 1096.5,-131.5 1197.5,-131.5 1197.5,-112.5 1096.5,-112.5"/>
<text text-anchor="middle" x="1147" y="-119.5" font-family="Helvetica,sans-Serif" font-size="10.00">scriptexception.hpp</text>
</a>
</g>
</g>
<!-- Node2&#45;&gt;Node17 -->
<g id="edge33" class="edge"><title>Node2&#45;&gt;Node17</title>
<path fill="none" stroke="midnightblue" d="M799.982,-168.466C868.467,-159.719 980.915,-145.521 1078,-132 1080.79,-131.612 1083.65,-131.207 1086.54,-130.792"/>
<polygon fill="midnightblue" stroke="midnightblue" points="1087.08,-134.251 1096.48,-129.359 1086.08,-127.323 1087.08,-134.251"/>
</g>
<!-- Node18 -->
<g id="node19" class="node"><title>Node18</title>
<g id="a_node19"><a xlink:href="../../dc/dce/signalexception_8hpp.html" target="_top" xlink:title="Exception class for Signal related errors. ">
<polygon fill="white" stroke="black" points="1215.5,-112.5 1215.5,-131.5 1318.5,-131.5 1318.5,-112.5 1215.5,-112.5"/>
<text text-anchor="middle" x="1267" y="-119.5" font-family="Helvetica,sans-Serif" font-size="10.00">signalexception.hpp</text>
</a>
</g>
</g>
<!-- Node2&#45;&gt;Node18 -->
<g id="edge36" class="edge"><title>Node2&#45;&gt;Node18</title>
<path fill="none" stroke="midnightblue" d="M808.08,-168.494C809.734,-168.327 811.376,-168.162 813,-168 983.567,-150.975 1026.82,-152.517 1197,-132 1199.79,-131.664 1202.65,-131.302 1205.54,-130.923"/>
<polygon fill="midnightblue" stroke="midnightblue" points="1206.03,-134.389 1215.47,-129.583 1205.09,-127.452 1206.03,-134.389"/>
</g>
<!-- Node3&#45;&gt;Node4 -->
<g id="edge4" class="edge"><title>Node3&#45;&gt;Node4</title>
<path fill="none" stroke="midnightblue" d="M686.67,-112.368C700.759,-94.135 733.762,-51.4257 752.115,-27.6752"/>
<polygon fill="midnightblue" stroke="midnightblue" points="755.016,-29.6444 758.361,-19.5914 749.477,-25.3642 755.016,-29.6444"/>
</g>
<!-- Node5 -->
<g id="node6" class="node"><title>Node5</title>
<polygon fill="white" stroke="#bfbfbf" points="658,-56.5 658,-75.5 702,-75.5 702,-56.5 658,-56.5"/>
<text text-anchor="middle" x="680" y="-63.5" font-family="Helvetica,sans-Serif" font-size="10.00">vector</text>
</g>
<!-- Node3&#45;&gt;Node5 -->
<g id="edge5" class="edge"><title>Node3&#45;&gt;Node5</title>
<path fill="none" stroke="midnightblue" d="M680,-112.083C680,-105.006 680,-94.8611 680,-85.9865"/>
<polygon fill="midnightblue" stroke="midnightblue" points="683.5,-85.751 680,-75.7511 676.5,-85.7511 683.5,-85.751"/>
</g>
<!-- Node8&#45;&gt;Node2 -->
<g id="edge10" class="edge"><title>Node8&#45;&gt;Node2</title>
<path fill="none" stroke="midnightblue" d="M104.185,-129.79C110.218,-130.605 116.254,-131.37 122,-132 310.575,-152.682 532.296,-166.089 651.298,-172.522"/>
<polygon fill="midnightblue" stroke="midnightblue" points="651.264,-176.025 661.438,-173.066 651.64,-169.035 651.264,-176.025"/>
</g>
<!-- Node8&#45;&gt;Node4 -->
<g id="edge14" class="edge"><title>Node8&#45;&gt;Node4</title>
<path fill="none" stroke="midnightblue" d="M94.9804,-112.461C162.215,-99.2755 296.438,-73.6401 411,-56 529.992,-37.6777 672.32,-21.2415 733.985,-14.3861"/>
<polygon fill="midnightblue" stroke="midnightblue" points="734.643,-17.8348 744.198,-13.2566 733.874,-10.8772 734.643,-17.8348"/>
</g>
<!-- Node9 -->
<g id="node10" class="node"><title>Node9</title>
<g id="a_node10"><a xlink:href="../../dd/d35/Colorize_8hpp.html" target="_top" xlink:title="tools/Colorize.hpp">
<polygon fill="white" stroke="black" points="17.5,-56.5 17.5,-75.5 112.5,-75.5 112.5,-56.5 17.5,-56.5"/>
<text text-anchor="middle" x="65" y="-63.5" font-family="Helvetica,sans-Serif" font-size="10.00">tools/Colorize.hpp</text>
</a>
</g>
</g>
<!-- Node8&#45;&gt;Node9 -->
<g id="edge11" class="edge"><title>Node8&#45;&gt;Node9</title>
<path fill="none" stroke="midnightblue" d="M54.1467,-112.083C55.8694,-104.927 58.3471,-94.6353 60.5003,-85.6911"/>
<polygon fill="midnightblue" stroke="midnightblue" points="63.9554,-86.2925 62.8933,-75.7511 57.1499,-84.6541 63.9554,-86.2925"/>
</g>
<!-- Node9&#45;&gt;Node4 -->
<g id="edge13" class="edge"><title>Node9&#45;&gt;Node4</title>
<path fill="none" stroke="midnightblue" d="M112.564,-61.3308C246.425,-51.0044 623.802,-21.8924 734.263,-13.3712"/>
<polygon fill="midnightblue" stroke="midnightblue" points="734.69,-16.8487 744.391,-12.5899 734.151,-9.86946 734.69,-16.8487"/>
</g>
<!-- Node10 -->
<g id="node11" class="node"><title>Node10</title>
<polygon fill="white" stroke="#bfbfbf" points="39,-0.5 39,-19.5 91,-19.5 91,-0.5 39,-0.5"/>
<text text-anchor="middle" x="65" y="-7.5" font-family="Helvetica,sans-Serif" font-size="10.00">sstream</text>
</g>
<!-- Node9&#45;&gt;Node10 -->
<g id="edge12" class="edge"><title>Node9&#45;&gt;Node10</title>
<path fill="none" stroke="midnightblue" d="M65,-56.083C65,-49.0059 65,-38.8611 65,-29.9865"/>
<polygon fill="midnightblue" stroke="midnightblue" points="68.5001,-29.751 65,-19.7511 61.5001,-29.7511 68.5001,-29.751"/>
</g>
<!-- Node11&#45;&gt;Node2 -->
<g id="edge17" class="edge"><title>Node11&#45;&gt;Node2</title>
<path fill="none" stroke="midnightblue" d="M218.094,-129.551C224.153,-130.441 230.233,-131.291 236,-132 381.637,-149.901 551.518,-163.428 651.404,-170.778"/>
<polygon fill="midnightblue" stroke="midnightblue" points="651.214,-174.273 661.443,-171.513 651.726,-167.292 651.214,-174.273"/>
</g>
<!-- Node11&#45;&gt;Node4 -->
<g id="edge16" class="edge"><title>Node11&#45;&gt;Node4</title>
<path fill="none" stroke="midnightblue" d="M216.194,-112.46C332.781,-90.9061 636.606,-34.7366 734.28,-16.6793"/>
<polygon fill="midnightblue" stroke="midnightblue" points="735.178,-20.0727 744.375,-14.813 733.905,-13.1894 735.178,-20.0727"/>
</g>
<!-- Node12&#45;&gt;Node2 -->
<g id="edge20" class="edge"><title>Node12&#45;&gt;Node2</title>
<path fill="none" stroke="midnightblue" d="M486.867,-131.516C542.279,-141.019 628.684,-156.395 684.104,-166.601"/>
<polygon fill="midnightblue" stroke="midnightblue" points="683.608,-170.068 694.078,-168.444 684.88,-163.185 683.608,-170.068"/>
</g>
<!-- Node12&#45;&gt;Node4 -->
<g id="edge19" class="edge"><title>Node12&#45;&gt;Node4</title>
<path fill="none" stroke="midnightblue" d="M456.307,-112.481C490.184,-99.6499 556.722,-74.8599 614,-56 655.552,-42.3185 704.116,-28.1695 734.716,-19.4763"/>
<polygon fill="midnightblue" stroke="midnightblue" points="735.699,-22.8357 744.369,-16.7459 733.793,-16.1 735.699,-22.8357"/>
</g>
<!-- Node13&#45;&gt;Node2 -->
<g id="edge23" class="edge"><title>Node13&#45;&gt;Node2</title>
<path fill="none" stroke="midnightblue" d="M590.468,-131.516C622.835,-140.625 671.383,-155.129 703.69,-165.304"/>
<polygon fill="midnightblue" stroke="midnightblue" points="702.977,-168.75 713.567,-168.444 705.097,-162.079 702.977,-168.75"/>
</g>
<!-- Node13&#45;&gt;Node4 -->
<g id="edge22" class="edge"><title>Node13&#45;&gt;Node4</title>
<path fill="none" stroke="midnightblue" d="M567.484,-112.287C584.004,-98.8672 617.466,-72.9242 649,-56 676.812,-41.0732 710.668,-28.5252 734.607,-20.5038"/>
<polygon fill="midnightblue" stroke="midnightblue" points="735.804,-23.7947 744.213,-17.3494 733.62,-17.1441 735.804,-23.7947"/>
</g>
<!-- Node14&#45;&gt;Node2 -->
<g id="edge26" class="edge"><title>Node14&#45;&gt;Node2</title>
<path fill="none" stroke="midnightblue" d="M790.66,-131.834C783.672,-139.948 770.902,-152.145 759.444,-161.82"/>
<polygon fill="midnightblue" stroke="midnightblue" points="756.99,-159.303 751.434,-168.324 761.403,-164.737 756.99,-159.303"/>
</g>
<!-- Node14&#45;&gt;Node4 -->
<g id="edge25" class="edge"><title>Node14&#45;&gt;Node4</title>
<path fill="none" stroke="midnightblue" d="M792.646,-112.368C787.783,-94.5366 776.535,-53.2953 769.983,-29.2717"/>
<polygon fill="midnightblue" stroke="midnightblue" points="773.351,-28.3181 767.343,-19.5914 766.598,-30.16 773.351,-28.3181"/>
</g>
<!-- Node15&#45;&gt;Node2 -->
<g id="edge28" class="edge"><title>Node15&#45;&gt;Node2</title>
<path fill="none" stroke="midnightblue" d="M882.742,-131.516C856.468,-140.664 811.535,-155.255 778.416,-165.436"/>
<polygon fill="midnightblue" stroke="midnightblue" points="777.095,-162.18 768.55,-168.444 779.136,-168.876 777.095,-162.18"/>
</g>
<!-- Node15&#45;&gt;Node4 -->
<g id="edge29" class="edge"><title>Node15&#45;&gt;Node4</title>
<path fill="none" stroke="midnightblue" d="M893.093,-112.368C869.443,-93.6531 813.209,-49.1509 783.743,-25.8324"/>
<polygon fill="midnightblue" stroke="midnightblue" points="785.87,-23.0525 775.856,-19.5914 781.526,-28.5416 785.87,-23.0525"/>
</g>
<!-- Node16&#45;&gt;Node2 -->
<g id="edge32" class="edge"><title>Node16&#45;&gt;Node2</title>
<path fill="none" stroke="midnightblue" d="M983.817,-131.516C935.406,-141.019 853.809,-156.395 797.726,-166.601"/>
<polygon fill="midnightblue" stroke="midnightblue" points="796.78,-163.215 787.565,-168.444 798.029,-170.103 796.78,-163.215"/>
</g>
<!-- Node16&#45;&gt;Node4 -->
<g id="edge31" class="edge"><title>Node16&#45;&gt;Node4</title>
<path fill="none" stroke="midnightblue" d="M1003.68,-112.368C958.097,-93.0105 847.561,-46.0645 794.449,-23.5074"/>
<polygon fill="midnightblue" stroke="midnightblue" points="795.801,-20.2791 785.229,-19.5914 793.065,-26.7221 795.801,-20.2791"/>
</g>
<!-- Node17&#45;&gt;Node2 -->
<g id="edge35" class="edge"><title>Node17&#45;&gt;Node2</title>
<path fill="none" stroke="midnightblue" d="M1099.48,-131.512C1098.31,-131.677 1097.15,-131.84 1096,-132 1002.84,-144.974 895.538,-158.572 822.62,-167.378"/>
<polygon fill="midnightblue" stroke="midnightblue" points="822.075,-163.919 812.565,-168.589 822.911,-170.868 822.075,-163.919"/>
</g>
<!-- Node17&#45;&gt;Node4 -->
<g id="edge34" class="edge"><title>Node17&#45;&gt;Node4</title>
<path fill="none" stroke="midnightblue" d="M1117.34,-112.46C1046.33,-92.0123 867.137,-40.4111 795.39,-19.751"/>
<polygon fill="midnightblue" stroke="midnightblue" points="796.187,-16.3385 785.609,-16.9346 794.25,-23.0652 796.187,-16.3385"/>
</g>
<!-- Node18&#45;&gt;Node2 -->
<g id="edge38" class="edge"><title>Node18&#45;&gt;Node2</title>
<path fill="none" stroke="midnightblue" d="M1218.86,-131.523C1217.57,-131.687 1216.28,-131.846 1215,-132 1044.82,-152.517 1001.57,-150.975 831,-168 828.324,-168.267 825.6,-168.542 822.847,-168.821"/>
<polygon fill="midnightblue" stroke="midnightblue" points="822.367,-165.352 812.774,-169.85 823.078,-172.315 822.367,-165.352"/>
</g>
<!-- Node18&#45;&gt;Node4 -->
<g id="edge37" class="edge"><title>Node18&#45;&gt;Node4</title>
<path fill="none" stroke="midnightblue" d="M1228.03,-112.46C1131.4,-91.2869 882.334,-36.7106 795.447,-17.6717"/>
<polygon fill="midnightblue" stroke="midnightblue" points="796.194,-14.2523 785.676,-15.5306 794.695,-21.0901 796.194,-14.2523"/>
</g>
</g>
</svg>
