<?xml version="1.0" encoding="UTF-8" standalone="no"?>
<!DOCTYPE svg PUBLIC "-//W3C//DTD SVG 1.1//EN"
 "http://www.w3.org/Graphics/SVG/1.1/DTD/svg11.dtd">
<!-- Generated by graphviz version 2.38.0 (20140413.2041)
 -->
<!-- Title: Leosac::Module::WebSockAPI::WebSockAPIModule Pages: 1 -->
<!--zoomable 350 -->
<svg id="main" version="1.1" xmlns="http://www.w3.org/2000/svg" xmlns:xlink="http://www.w3.org/1999/xlink" xml:space="preserve" onload="init(evt)">
<style type="text/css"><![CDATA[
.edge:hover path { stroke: red; }
.edge:hover polygon { stroke: red; fill: red; }
]]></style>
<script type="text/javascript"><![CDATA[
var edges = document.getElementsByTagName('g');
if (edges && edges.length) {
  for (var i=0;i<edges.length;i++) {
    if (edges[i].id.substr(0,4)=='edge') {
      edges[i].setAttribute('class','edge');
    }
  }
}
]]></script>
        <defs>
                <circle id="rim" cx="0" cy="0" r="7"/>
                <circle id="rim2" cx="0" cy="0" r="3.5"/>
                <g id="zoomPlus">
                        <use xlink:href="#rim" fill="#404040">
                                <set attributeName="fill" to="#808080" begin="zoomplus.mouseover" end="zoomplus.mouseout"/>
                        </use>
                        <path d="M-4,0h8M0,-4v8" fill="none" stroke="white" stroke-width="1.5" pointer-events="none"/>
                </g>
                <g id="zoomMin">
                        <use xlink:href="#rim" fill="#404040">
                                <set attributeName="fill" to="#808080" begin="zoomminus.mouseover" end="zoomminus.mouseout"/>
                        </use>
                        <path d="M-4,0h8" fill="none" stroke="white" stroke-width="1.5" pointer-events="none"/>
                </g>
                <g id="dirArrow">
                        <path fill="none" stroke="white" stroke-width="1.5" d="M0,-3.0v7 M-2.5,-0.5L0,-3.0L2.5,-0.5"/>
                </g>
               <g id="resetDef">
                       <use xlink:href="#rim2" fill="#404040">
                               <set attributeName="fill" to="#808080" begin="reset.mouseover" end="reset.mouseout"/>
                       </use>
               </g>
        </defs>

<script type="text/javascript">
var viewWidth = 1247;
var viewHeight = 350;
var sectionId = 'dynsection-1';
</script>
<script xlink:href="../../svgpan.js"/>
<svg id="graph" class="graph">
<g id="viewport">
<title>Leosac::Module::WebSockAPI::WebSockAPIModule</title>
<polygon fill="white" stroke="none" points="-4,4 -4,-345.5 1243,-345.5 1243,4 -4,4"/>
<!-- Node2 -->
<g id="node1" class="node"><title>Node2</title>
<polygon fill="#bfbfbf" stroke="black" points="581,-311 581,-341 732,-341 732,-311 581,-311"/>
<text text-anchor="start" x="589" y="-329" font-family="Helvetica,sans-Serif" font-size="10.00">Leosac::Module::WebSockAPI</text>
<text text-anchor="middle" x="656.5" y="-318" font-family="Helvetica,sans-Serif" font-size="10.00">::WebSockAPIModule</text>
</g>
<!-- Node8 -->
<g id="node7" class="node"><title>Node8</title>
<g id="a_node7"><a xlink:href="../../d5/dad/classLeosac_1_1Module_1_1WebSockAPI_1_1WSServer.html" target="_top" xlink:title="The implementation class that runs the websocket server. ">
<polygon fill="white" stroke="black" points="865,-185 865,-215 1016,-215 1016,-185 865,-185"/>
<text text-anchor="start" x="873" y="-203" font-family="Helvetica,sans-Serif" font-size="10.00">Leosac::Module::WebSockAPI</text>
<text text-anchor="middle" x="940.5" y="-192" font-family="Helvetica,sans-Serif" font-size="10.00">::WSServer</text>
</a>
</g>
</g>
<!-- Node2&#45;&gt;Node8 -->
<g id="edge8" class="edge"><title>Node2&#45;&gt;Node8</title>
<path fill="none" stroke="#9a32cd" stroke-dasharray="5,2" d="M723.336,-308.393C732.942,-305.879 742.721,-303.35 752,-301 794.112,-290.333 808.25,-297.637 847,-278 878.854,-261.857 909.193,-232.758 925.981,-215.028"/>
<polygon fill="#9a32cd" stroke="#9a32cd" points="722.198,-305.073 713.415,-310.999 723.976,-311.843 722.198,-305.073"/>
<text text-anchor="middle" x="799.5" y="-304" font-family="Helvetica,sans-Serif" font-size="10.00"> module_</text>
</g>
<!-- Node3 -->
<g id="node2" class="node"><title>Node3</title>
<g id="a_node2"><a xlink:href="../../df/d9f/classLeosac_1_1Module_1_1BaseModule.html" target="_top" xlink:title="Base class for module implementation. ">
<polygon fill="white" stroke="black" points="263,-315.5 263,-334.5 409,-334.5 409,-315.5 263,-315.5"/>
<text text-anchor="middle" x="336" y="-322.5" font-family="Helvetica,sans-Serif" font-size="10.00">Leosac::Module::BaseModule</text>
</a>
</g>
</g>
<!-- Node3&#45;&gt;Node2 -->
<g id="edge1" class="edge"><title>Node3&#45;&gt;Node2</title>
<path fill="none" stroke="midnightblue" d="M419.38,-325.259C469.242,-325.415 532.329,-325.613 580.747,-325.765"/>
<polygon fill="midnightblue" stroke="midnightblue" points="419.284,-321.758 409.273,-325.227 419.262,-328.758 419.284,-321.758"/>
</g>
<!-- Node4 -->
<g id="node3" class="node"><title>Node4</title>
<g id="a_node3"><a xlink:title="STL class. ">
<polygon fill="white" stroke="#bfbfbf" points="132,-161.5 132,-180.5 192,-180.5 192,-161.5 132,-161.5"/>
<text text-anchor="middle" x="162" y="-168.5" font-family="Helvetica,sans-Serif" font-size="10.00">std::string</text>
</a>
</g>
</g>
<!-- Node4&#45;&gt;Node2 -->
<g id="edge20" class="edge"><title>Node4&#45;&gt;Node2</title>
<path fill="none" stroke="#9a32cd" stroke-dasharray="5,2" d="M185.521,-186.196C193.165,-191.132 201.838,-196.494 210,-201 232.801,-213.588 238.491,-217.189 263,-226 371.028,-264.836 500.89,-294.806 580.809,-311.425"/>
<polygon fill="#9a32cd" stroke="#9a32cd" points="187.392,-183.238 177.112,-180.675 183.549,-189.089 187.392,-183.238"/>
<text text-anchor="middle" x="336" y="-273" font-family="Helvetica,sans-Serif" font-size="10.00"> interface_</text>
</g>
<!-- Node4&#45;&gt;Node3 -->
<g id="edge2" class="edge"><title>Node4&#45;&gt;Node3</title>
<path fill="none" stroke="#9a32cd" stroke-dasharray="5,2" d="M167.929,-190.396C174.335,-212.082 187.455,-247.033 210,-269 234.015,-292.399 269.496,-307.01 296.527,-315.416"/>
<polygon fill="#9a32cd" stroke="#9a32cd" points="171.279,-189.376 165.245,-180.667 164.531,-191.238 171.279,-189.376"/>
<text text-anchor="middle" x="227.5" y="-295" font-family="Helvetica,sans-Serif" font-size="10.00"> name_</text>
</g>
<!-- Node10 -->
<g id="node9" class="node"><title>Node10</title>
<polygon fill="white" stroke="#bfbfbf" points="439,-127.5 439,-168.5 549,-168.5 549,-127.5 439,-127.5"/>
<text text-anchor="start" x="447" y="-156.5" font-family="Helvetica,sans-Serif" font-size="10.00">std::map&lt; std::string,</text>
<text text-anchor="start" x="447" y="-145.5" font-family="Helvetica,sans-Serif" font-size="10.00"> json(APISession::*)</text>
<text text-anchor="middle" x="494" y="-134.5" font-family="Helvetica,sans-Serif" font-size="10.00">(const json &amp;)&gt;</text>
</g>
<!-- Node4&#45;&gt;Node10 -->
<g id="edge10" class="edge"><title>Node4&#45;&gt;Node10</title>
<path fill="none" stroke="#9a32cd" stroke-dasharray="5,2" d="M202.21,-166.703C204.845,-166.453 207.46,-166.216 210,-166 289.591,-159.238 381.972,-153.817 438.96,-150.753"/>
<polygon fill="#9a32cd" stroke="#9a32cd" points="201.669,-163.239 192.065,-167.713 202.362,-170.205 201.669,-163.239"/>
<text text-anchor="middle" x="227.5" y="-169" font-family="Helvetica,sans-Serif" font-size="10.00"> keys</text>
</g>
<!-- Node11 -->
<g id="node10" class="node"><title>Node11</title>
<polygon fill="white" stroke="#bfbfbf" points="427,-76 427,-106 561,-106 561,-76 427,-76"/>
<text text-anchor="start" x="435" y="-94" font-family="Helvetica,sans-Serif" font-size="10.00">std::map&lt; std::string,</text>
<text text-anchor="middle" x="494" y="-83" font-family="Helvetica,sans-Serif" font-size="10.00"> MethodHandler::Factory &gt;</text>
</g>
<!-- Node4&#45;&gt;Node11 -->
<g id="edge12" class="edge"><title>Node4&#45;&gt;Node11</title>
<path fill="none" stroke="#9a32cd" stroke-dasharray="5,2" d="M190.361,-156.874C196.695,-153.977 203.49,-151.157 210,-149 282.483,-124.982 368.848,-109.018 426.945,-100.023"/>
<polygon fill="#9a32cd" stroke="#9a32cd" points="188.402,-153.932 180.894,-161.407 191.425,-160.245 188.402,-153.932"/>
<text text-anchor="middle" x="227.5" y="-152" font-family="Helvetica,sans-Serif" font-size="10.00"> keys</text>
</g>
<!-- Node12 -->
<g id="node11" class="node"><title>Node12</title>
<polygon fill="white" stroke="#bfbfbf" points="431.5,-0.5 431.5,-41.5 556.5,-41.5 556.5,-0.5 431.5,-0.5"/>
<text text-anchor="start" x="439.5" y="-29.5" font-family="Helvetica,sans-Serif" font-size="10.00">std::map&lt; std::string,</text>
<text text-anchor="start" x="439.5" y="-18.5" font-family="Helvetica,sans-Serif" font-size="10.00"> CRUDResourceHandler</text>
<text text-anchor="middle" x="494" y="-7.5" font-family="Helvetica,sans-Serif" font-size="10.00">::Factory &gt;</text>
</g>
<!-- Node4&#45;&gt;Node12 -->
<g id="edge14" class="edge"><title>Node4&#45;&gt;Node12</title>
<path fill="none" stroke="#9a32cd" stroke-dasharray="5,2" d="M178.06,-153.659C186.748,-144.36 198.255,-133.168 210,-125 278.327,-77.4786 370.948,-48.8689 431.328,-34.0108"/>
<polygon fill="#9a32cd" stroke="#9a32cd" points="175.332,-151.458 171.215,-161.22 180.521,-156.156 175.332,-151.458"/>
<text text-anchor="middle" x="227.5" y="-128" font-family="Helvetica,sans-Serif" font-size="10.00"> keys</text>
</g>
<!-- Node13 -->
<g id="node12" class="node"><title>Node13</title>
<polygon fill="white" stroke="#bfbfbf" points="277,-187 277,-217 395,-217 395,-187 277,-187"/>
<text text-anchor="start" x="285" y="-205" font-family="Helvetica,sans-Serif" font-size="10.00">std::map&lt; std::string,</text>
<text text-anchor="middle" x="336" y="-194" font-family="Helvetica,sans-Serif" font-size="10.00"> Service::WSHandler &gt;</text>
</g>
<!-- Node4&#45;&gt;Node13 -->
<g id="edge16" class="edge"><title>Node4&#45;&gt;Node13</title>
<path fill="none" stroke="#9a32cd" stroke-dasharray="5,2" d="M202.17,-178.06C224.214,-182.033 252.164,-187.07 276.733,-191.498"/>
<polygon fill="#9a32cd" stroke="#9a32cd" points="202.64,-174.588 192.177,-176.259 201.398,-181.477 202.64,-174.588"/>
<text text-anchor="middle" x="227.5" y="-189" font-family="Helvetica,sans-Serif" font-size="10.00"> keys</text>
</g>
<!-- Node5 -->
<g id="node4" class="node"><title>Node5</title>
<g id="a_node4"><a xlink:title="STL class. ">
<polygon fill="white" stroke="#bfbfbf" points="0,-156 0,-186 95,-186 95,-156 0,-156"/>
<text text-anchor="start" x="8" y="-174" font-family="Helvetica,sans-Serif" font-size="10.00">std::basic_string&lt;</text>
<text text-anchor="middle" x="47.5" y="-163" font-family="Helvetica,sans-Serif" font-size="10.00"> char &gt;</text>
</a>
</g>
</g>
<!-- Node5&#45;&gt;Node4 -->
<g id="edge3" class="edge"><title>Node5&#45;&gt;Node4</title>
<path fill="none" stroke="midnightblue" d="M105.526,-171C114.678,-171 123.803,-171 131.931,-171"/>
<polygon fill="midnightblue" stroke="midnightblue" points="105.233,-167.5 95.2328,-171 105.233,-174.5 105.233,-167.5"/>
</g>
<!-- Node6 -->
<g id="node5" class="node"><title>Node6</title>
<polygon fill="white" stroke="#bfbfbf" points="143,-315.5 143,-334.5 181,-334.5 181,-315.5 143,-315.5"/>
<text text-anchor="middle" x="162" y="-322.5" font-family="Helvetica,sans-Serif" font-size="10.00">ptree</text>
</g>
<!-- Node6&#45;&gt;Node3 -->
<g id="edge4" class="edge"><title>Node6&#45;&gt;Node3</title>
<path fill="none" stroke="#9a32cd" stroke-dasharray="5,2" d="M191.098,-325C210.604,-325 237.532,-325 262.822,-325"/>
<polygon fill="#9a32cd" stroke="#9a32cd" points="191.082,-321.5 181.082,-325 191.082,-328.5 191.082,-321.5"/>
<text text-anchor="middle" x="227.5" y="-328" font-family="Helvetica,sans-Serif" font-size="10.00"> config_</text>
</g>
<!-- Node7 -->
<g id="node6" class="node"><title>Node7</title>
<polygon fill="white" stroke="#bfbfbf" points="1101,-251.5 1101,-292.5 1226,-292.5 1226,-251.5 1101,-251.5"/>
<text text-anchor="start" x="1109" y="-280.5" font-family="Helvetica,sans-Serif" font-size="10.00">std::unique_ptr&lt; Leosac</text>
<text text-anchor="start" x="1109" y="-269.5" font-family="Helvetica,sans-Serif" font-size="10.00">::Module::WebSockAPI::</text>
<text text-anchor="middle" x="1163.5" y="-258.5" font-family="Helvetica,sans-Serif" font-size="10.00">WSServer &gt;</text>
</g>
<!-- Node7&#45;&gt;Node2 -->
<g id="edge5" class="edge"><title>Node7&#45;&gt;Node2</title>
<path fill="none" stroke="#9a32cd" stroke-dasharray="5,2" d="M1090.98,-282.153C1027.11,-290.96 930.958,-303.582 847,-312 809.252,-315.785 767.178,-318.994 732.281,-321.382"/>
<polygon fill="#9a32cd" stroke="#9a32cd" points="1091.52,-285.611 1100.94,-280.773 1090.56,-278.678 1091.52,-285.611"/>
<text text-anchor="middle" x="940.5" y="-313" font-family="Helvetica,sans-Serif" font-size="10.00"> wssrv_</text>
</g>
<!-- Node8&#45;&gt;Node7 -->
<g id="edge6" class="edge"><title>Node8&#45;&gt;Node7</title>
<path fill="none" stroke="#9a32cd" stroke-dasharray="5,2" d="M997.102,-218.115C1028.74,-228.421 1068.42,-241.349 1100.98,-251.958"/>
<polygon fill="#9a32cd" stroke="#9a32cd" points="998.152,-214.776 987.56,-215.006 995.984,-221.432 998.152,-214.776"/>
<text text-anchor="middle" x="1052" y="-244" font-family="Helvetica,sans-Serif" font-size="10.00"> ptr</text>
</g>
<!-- Node14 -->
<g id="node13" class="node"><title>Node14</title>
<g id="a_node13"><a xlink:href="../../dc/da7/classLeosac_1_1Module_1_1WebSockAPI_1_1APIAuth.html" target="_top" xlink:title="This class is responsible for providing an API to manage authentication for Websocket client...">
<polygon fill="white" stroke="black" points="1088,-191 1088,-221 1239,-221 1239,-191 1088,-191"/>
<text text-anchor="start" x="1096" y="-209" font-family="Helvetica,sans-Serif" font-size="10.00">Leosac::Module::WebSockAPI</text>
<text text-anchor="middle" x="1163.5" y="-198" font-family="Helvetica,sans-Serif" font-size="10.00">::APIAuth</text>
</a>
</g>
</g>
<!-- Node8&#45;&gt;Node14 -->
<g id="edge18" class="edge"><title>Node8&#45;&gt;Node14</title>
<path fill="none" stroke="#9a32cd" stroke-dasharray="5,2" d="M1026.2,-202.3C1046.53,-202.852 1068.1,-203.437 1087.94,-203.976"/>
<polygon fill="#9a32cd" stroke="#9a32cd" points="1026.1,-198.796 1016.01,-202.023 1025.91,-205.793 1026.1,-198.796"/>
<text text-anchor="middle" x="1052" y="-207" font-family="Helvetica,sans-Serif" font-size="10.00"> server_</text>
</g>
<!-- Node9 -->
<g id="node8" class="node"><title>Node9</title>
<polygon fill="white" stroke="#bfbfbf" points="593,-262 593,-292 720,-292 720,-262 593,-262"/>
<text text-anchor="start" x="601" y="-280" font-family="Helvetica,sans-Serif" font-size="10.00">std::unique_ptr&lt; boost</text>
<text text-anchor="middle" x="656.5" y="-269" font-family="Helvetica,sans-Serif" font-size="10.00">::asio::io_service::work &gt;</text>
</g>
<!-- Node9&#45;&gt;Node8 -->
<g id="edge7" class="edge"><title>Node9&#45;&gt;Node8</title>
<path fill="none" stroke="#9a32cd" stroke-dasharray="5,2" d="M730.72,-268.974C766.355,-263.881 809.494,-255.94 847,-244 870.046,-236.663 894.711,-224.704 912.772,-215.104"/>
<polygon fill="#9a32cd" stroke="#9a32cd" points="729.825,-265.564 720.399,-270.4 730.784,-272.498 729.825,-265.564"/>
<text text-anchor="middle" x="799.5" y="-269" font-family="Helvetica,sans-Serif" font-size="10.00"> work_</text>
</g>
<!-- Node10&#45;&gt;Node8 -->
<g id="edge9" class="edge"><title>Node10&#45;&gt;Node8</title>
<path fill="none" stroke="#9a32cd" stroke-dasharray="5,2" d="M558.896,-126.069C565.621,-124.41 572.408,-122.997 579,-122 647.114,-111.7 666.241,-109.573 734,-122 799.498,-134.012 871.186,-165.89 910.193,-184.969"/>
<polygon fill="#9a32cd" stroke="#9a32cd" points="557.892,-122.714 549.119,-128.655 559.682,-129.482 557.892,-122.714"/>
<text text-anchor="middle" x="656.5" y="-125" font-family="Helvetica,sans-Serif" font-size="10.00"> handlers_</text>
</g>
<!-- Node11&#45;&gt;Node8 -->
<g id="edge11" class="edge"><title>Node11&#45;&gt;Node8</title>
<path fill="none" stroke="#9a32cd" stroke-dasharray="5,2" d="M571.481,-82.8969C645.694,-78.3979 759.604,-80.5949 847,-123 878.77,-138.415 908.906,-167.035 925.719,-184.706"/>
<polygon fill="#9a32cd" stroke="#9a32cd" points="571.026,-79.4192 561.28,-83.5726 571.489,-86.4039 571.026,-79.4192"/>
<text text-anchor="middle" x="656.5" y="-92" font-family="Helvetica,sans-Serif" font-size="10.00"> individual_handlers_</text>
</g>
<!-- Node12&#45;&gt;Node8 -->
<g id="edge13" class="edge"><title>Node12&#45;&gt;Node8</title>
<path fill="none" stroke="#9a32cd" stroke-dasharray="5,2" d="M566.942,-21.2087C641.823,-24.4576 760.08,-38.3454 847,-90 886.683,-113.582 917.318,-160.526 931.259,-184.752"/>
<polygon fill="#9a32cd" stroke="#9a32cd" points="566.798,-17.7008 556.672,-20.8181 566.532,-24.6957 566.798,-17.7008"/>
<text text-anchor="middle" x="656.5" y="-47" font-family="Helvetica,sans-Serif" font-size="10.00"> crud_handlers_</text>
</g>
<!-- Node13&#45;&gt;Node8 -->
<g id="edge15" class="edge"><title>Node13&#45;&gt;Node8</title>
<path fill="none" stroke="#9a32cd" stroke-dasharray="5,2" d="M405.192,-203.825C503.022,-206.119 688.852,-209.271 847,-205 852.788,-204.844 858.777,-204.632 864.796,-204.385"/>
<polygon fill="#9a32cd" stroke="#9a32cd" points="405.222,-200.325 395.141,-203.585 405.055,-207.323 405.222,-200.325"/>
<text text-anchor="middle" x="656.5" y="-211" font-family="Helvetica,sans-Serif" font-size="10.00"> asio_handlers_</text>
</g>
<!-- Node14&#45;&gt;Node8 -->
<g id="edge17" class="edge"><title>Node14&#45;&gt;Node8</title>
<path fill="none" stroke="#9a32cd" stroke-dasharray="5,2" d="M1098.73,-188.789C1089.17,-186.803 1079.37,-185.099 1070,-184 1051.47,-181.826 1031.44,-182.744 1012.85,-184.977"/>
<polygon fill="#9a32cd" stroke="#9a32cd" points="1098.07,-192.227 1108.59,-190.945 1099.57,-185.389 1098.07,-192.227"/>
<text text-anchor="middle" x="1052" y="-187" font-family="Helvetica,sans-Serif" font-size="10.00"> auth_</text>
</g>
<!-- Node15 -->
<g id="node14" class="node"><title>Node15</title>
<polygon fill="white" stroke="#bfbfbf" points="579,-143 579,-195 734,-195 734,-143 579,-143"/>
<text text-anchor="start" x="587" y="-183" font-family="Helvetica,sans-Serif" font-size="10.00">std::map&lt; websocketpp</text>
<text text-anchor="start" x="587" y="-172" font-family="Helvetica,sans-Serif" font-size="10.00">::connection_hdl, APIPtr,</text>
<text text-anchor="start" x="587" y="-161" font-family="Helvetica,sans-Serif" font-size="10.00"> std::owner_less&lt; websocketpp</text>
<text text-anchor="middle" x="656.5" y="-150" font-family="Helvetica,sans-Serif" font-size="10.00">::connection_hdl &gt; &gt;</text>
</g>
<!-- Node15&#45;&gt;Node8 -->
<g id="edge19" class="edge"><title>Node15&#45;&gt;Node8</title>
<path fill="none" stroke="#9a32cd" stroke-dasharray="5,2" d="M744.352,-178.548C782.883,-182.783 827.774,-187.718 864.78,-191.786"/>
<polygon fill="#9a32cd" stroke="#9a32cd" points="744.508,-175.044 734.185,-177.43 743.743,-182.002 744.508,-175.044"/>
<text text-anchor="middle" x="799.5" y="-193" font-family="Helvetica,sans-Serif" font-size="10.00"> connection_session_</text>
</g>
</g>
</svg>
        <g id="navigator" transform="translate(0 0)" fill="#404254">
                <rect fill="#f2f5e9" fill-opacity="0.5" stroke="#606060" stroke-width=".5" x="0" y="0" width="60" height="60"/>
                <use id="zoomplus" xlink:href="#zoomPlus" x="17" y="9" onmousedown="handleZoom(evt,'in')"/>
                <use id="zoomminus" xlink:href="#zoomMin" x="42" y="9" onmousedown="handleZoom(evt,'out')"/>
                <use id="reset" xlink:href="#resetDef" x="30" y="36" onmousedown="handleReset()"/>
                <g id="arrowUp" xlink:href="#dirArrow" transform="translate(30 24)" onmousedown="handlePan(0,-1)">
                  <use xlink:href="#rim" fill="#404040">
                        <set attributeName="fill" to="#808080" begin="arrowUp.mouseover" end="arrowUp.mouseout"/>
                  </use>
                  <path fill="none" stroke="white" stroke-width="1.5" d="M0,-3.0v7 M-2.5,-0.5L0,-3.0L2.5,-0.5"/>
                </g>
                <g id="arrowRight" xlink:href="#dirArrow" transform="rotate(90) translate(36 -43)" onmousedown="handlePan(1,0)">
                  <use xlink:href="#rim" fill="#404040">
                        <set attributeName="fill" to="#808080" begin="arrowRight.mouseover" end="arrowRight.mouseout"/>
                  </use>
                  <path fill="none" stroke="white" stroke-width="1.5" d="M0,-3.0v7 M-2.5,-0.5L0,-3.0L2.5,-0.5"/>
                </g>
                <g id="arrowDown" xlink:href="#dirArrow" transform="rotate(180) translate(-30 -48)" onmousedown="handlePan(0,1)">
                  <use xlink:href="#rim" fill="#404040">
                        <set attributeName="fill" to="#808080" begin="arrowDown.mouseover" end="arrowDown.mouseout"/>
                  </use>
                  <path fill="none" stroke="white" stroke-width="1.5" d="M0,-3.0v7 M-2.5,-0.5L0,-3.0L2.5,-0.5"/>
                </g>
                <g id="arrowLeft" xlink:href="#dirArrow" transform="rotate(270) translate(-36 17)" onmousedown="handlePan(-1,0)">
                  <use xlink:href="#rim" fill="#404040">
                        <set attributeName="fill" to="#808080" begin="arrowLeft.mouseover" end="arrowLeft.mouseout"/>
                  </use>
                  <path fill="none" stroke="white" stroke-width="1.5" d="M0,-3.0v7 M-2.5,-0.5L0,-3.0L2.5,-0.5"/>
                </g>
        </g>
        <svg viewBox="0 0 15 15" width="100%" height="30px" preserveAspectRatio="xMaxYMin meet">
         <g id="arrow_out" transform="scale(0.3 0.3)">
          <a xlink:href="classLeosac_1_1Module_1_1WebSockAPI_1_1WebSockAPIModule__coll__graph_org.svg" target="_base">
           <rect id="button" ry="5" rx="5" y="6" x="6" height="38" width="38"
                fill="#f2f5e9" fill-opacity="0.5" stroke="#606060" stroke-width="1.0"/>
           <path id="arrow"
             d="M 11.500037,31.436501 C 11.940474,20.09759 22.043105,11.32322 32.158766,21.979434 L 37.068811,17.246167 C 37.068811,17.246167 37.088388,32 37.088388,32 L 22.160133,31.978069 C 22.160133,31.978069 26.997745,27.140456 26.997745,27.140456 C 18.528582,18.264221 13.291696,25.230495 11.500037,31.436501 z"
             style="fill:#404040;"/>
          </a>
         </g>
        </svg>
</svg>
