<?xml version="1.0" encoding="UTF-8" standalone="no"?>
<!DOCTYPE svg PUBLIC "-//W3C//DTD SVG 1.1//EN"
 "http://www.w3.org/Graphics/SVG/1.1/DTD/svg11.dtd">
<!-- Generated by graphviz version 2.38.0 (20140413.2041)
 -->
<!-- Title: src/hardware/serializers/LEDSerializer.hpp Pages: 1 -->
<svg width="704pt" height="207pt"
 viewBox="0.00 0.00 703.50 207.00" xmlns="http://www.w3.org/2000/svg" xmlns:xlink="http://www.w3.org/1999/xlink">
<g id="graph0" class="graph" transform="scale(1 1) rotate(0) translate(4 203)">
<title>src/hardware/serializers/LEDSerializer.hpp</title>
<polygon fill="white" stroke="none" points="-4,4 -4,-203 699.5,-203 699.5,4 -4,4"/>
<!-- Node0 -->
<g id="node1" class="node"><title>Node0</title>
<polygon fill="#bfbfbf" stroke="black" points="365,-168.5 365,-198.5 485,-198.5 485,-168.5 365,-168.5"/>
<text text-anchor="start" x="373" y="-186.5" font-family="Helvetica,sans-Serif" font-size="10.00">src/hardware/serializers</text>
<text text-anchor="middle" x="425" y="-175.5" font-family="Helvetica,sans-Serif" font-size="10.00">/LEDSerializer.hpp</text>
</g>
<!-- Node1 -->
<g id="node2" class="node"><title>Node1</title>
<g id="a_node2"><a xlink:href="../../dc/d49/LeosacFwd_8hpp.html" target="_top" xlink:title="LeosacFwd.hpp">
<polygon fill="white" stroke="black" points="251,-112.5 251,-131.5 337,-131.5 337,-112.5 251,-112.5"/>
<text text-anchor="middle" x="294" y="-119.5" font-family="Helvetica,sans-Serif" font-size="10.00">LeosacFwd.hpp</text>
</a>
</g>
</g>
<!-- Node0&#45;&gt;Node1 -->
<g id="edge1" class="edge"><title>Node0&#45;&gt;Node1</title>
<path fill="none" stroke="midnightblue" d="M393.955,-168.399C372.27,-158.55 343.541,-145.501 322.449,-135.922"/>
<polygon fill="midnightblue" stroke="midnightblue" points="323.614,-132.607 313.062,-131.658 320.719,-138.98 323.614,-132.607"/>
</g>
<!-- Node4 -->
<g id="node5" class="node"><title>Node4</title>
<g id="a_node5"><a xlink:href="../../d9/dc8/HardwareFwd_8hpp.html" target="_top" xlink:title="hardware/HardwareFwd.hpp">
<polygon fill="white" stroke="black" points="355.5,-112.5 355.5,-131.5 494.5,-131.5 494.5,-112.5 355.5,-112.5"/>
<text text-anchor="middle" x="425" y="-119.5" font-family="Helvetica,sans-Serif" font-size="10.00">hardware/HardwareFwd.hpp</text>
</a>
</g>
</g>
<!-- Node0&#45;&gt;Node4 -->
<g id="edge4" class="edge"><title>Node0&#45;&gt;Node4</title>
<path fill="none" stroke="midnightblue" d="M425,-168.399C425,-160.466 425,-150.458 425,-141.858"/>
<polygon fill="midnightblue" stroke="midnightblue" points="428.5,-141.658 425,-131.658 421.5,-141.658 428.5,-141.658"/>
</g>
<!-- Node12 -->
<g id="node13" class="node"><title>Node12</title>
<polygon fill="white" stroke="#bfbfbf" points="512.5,-112.5 512.5,-131.5 565.5,-131.5 565.5,-112.5 512.5,-112.5"/>
<text text-anchor="middle" x="539" y="-119.5" font-family="Helvetica,sans-Serif" font-size="10.00">json.hpp</text>
</g>
<!-- Node0&#45;&gt;Node12 -->
<g id="edge12" class="edge"><title>Node0&#45;&gt;Node12</title>
<path fill="none" stroke="midnightblue" d="M452.016,-168.399C470.631,-158.684 495.21,-145.855 513.491,-136.314"/>
<polygon fill="midnightblue" stroke="midnightblue" points="515.166,-139.388 522.412,-131.658 511.927,-133.182 515.166,-139.388"/>
</g>
<!-- Node2 -->
<g id="node3" class="node"><title>Node2</title>
<polygon fill="white" stroke="#bfbfbf" points="228,-56.5 228,-75.5 280,-75.5 280,-56.5 228,-56.5"/>
<text text-anchor="middle" x="254" y="-63.5" font-family="Helvetica,sans-Serif" font-size="10.00">memory</text>
</g>
<!-- Node1&#45;&gt;Node2 -->
<g id="edge2" class="edge"><title>Node1&#45;&gt;Node2</title>
<path fill="none" stroke="midnightblue" d="M287.395,-112.083C281.745,-104.455 273.455,-93.2645 266.549,-83.9408"/>
<polygon fill="midnightblue" stroke="midnightblue" points="269.247,-81.7034 260.482,-75.7511 263.622,-85.87 269.247,-81.7034"/>
</g>
<!-- Node3 -->
<g id="node4" class="node"><title>Node3</title>
<polygon fill="white" stroke="#bfbfbf" points="298,-56.5 298,-75.5 342,-75.5 342,-56.5 298,-56.5"/>
<text text-anchor="middle" x="320" y="-63.5" font-family="Helvetica,sans-Serif" font-size="10.00">vector</text>
</g>
<!-- Node1&#45;&gt;Node3 -->
<g id="edge3" class="edge"><title>Node1&#45;&gt;Node3</title>
<path fill="none" stroke="midnightblue" d="M298.293,-112.083C301.852,-104.691 307.022,-93.9533 311.424,-84.8111"/>
<polygon fill="midnightblue" stroke="midnightblue" points="314.602,-86.2795 315.787,-75.7511 308.295,-83.2427 314.602,-86.2795"/>
</g>
<!-- Node5 -->
<g id="node6" class="node"><title>Node5</title>
<g id="a_node6"><a xlink:href="../../dc/dea/Uuid_8hpp.html" target="_top" xlink:title="tools/Uuid.hpp">
<polygon fill="white" stroke="black" points="385,-56.5 385,-75.5 465,-75.5 465,-56.5 385,-56.5"/>
<text text-anchor="middle" x="425" y="-63.5" font-family="Helvetica,sans-Serif" font-size="10.00">tools/Uuid.hpp</text>
</a>
</g>
</g>
<!-- Node4&#45;&gt;Node5 -->
<g id="edge5" class="edge"><title>Node4&#45;&gt;Node5</title>
<path fill="none" stroke="midnightblue" d="M425,-112.083C425,-105.006 425,-94.8611 425,-85.9865"/>
<polygon fill="midnightblue" stroke="midnightblue" points="428.5,-85.751 425,-75.7511 421.5,-85.7511 428.5,-85.751"/>
</g>
<!-- Node6 -->
<g id="node7" class="node"><title>Node6</title>
<polygon fill="white" stroke="#bfbfbf" points="0,-0.5 0,-19.5 114,-19.5 114,-0.5 0,-0.5"/>
<text text-anchor="middle" x="57" y="-7.5" font-family="Helvetica,sans-Serif" font-size="10.00">boost/lexical_cast.hpp</text>
</g>
<!-- Node5&#45;&gt;Node6 -->
<g id="edge6" class="edge"><title>Node5&#45;&gt;Node6</title>
<path fill="none" stroke="midnightblue" d="M384.917,-59.1183C322.252,-49.9228 200.376,-32.0389 124.147,-20.8531"/>
<polygon fill="midnightblue" stroke="midnightblue" points="124.567,-17.3773 114.165,-19.3883 123.551,-24.3032 124.567,-17.3773"/>
</g>
<!-- Node7 -->
<g id="node8" class="node"><title>Node7</title>
<polygon fill="white" stroke="#bfbfbf" points="132.5,-0.5 132.5,-19.5 293.5,-19.5 293.5,-0.5 132.5,-0.5"/>
<text text-anchor="middle" x="213" y="-7.5" font-family="Helvetica,sans-Serif" font-size="10.00">boost/uuid/random_generator.hpp</text>
</g>
<!-- Node5&#45;&gt;Node7 -->
<g id="edge7" class="edge"><title>Node5&#45;&gt;Node7</title>
<path fill="none" stroke="midnightblue" d="M391.408,-56.4435C354.813,-47.1221 296.162,-32.1828 256.174,-21.9972"/>
<polygon fill="midnightblue" stroke="midnightblue" points="256.989,-18.5932 246.435,-19.5164 255.261,-25.3766 256.989,-18.5932"/>
</g>
<!-- Node8 -->
<g id="node9" class="node"><title>Node8</title>
<polygon fill="white" stroke="#bfbfbf" points="311.5,-0.5 311.5,-19.5 412.5,-19.5 412.5,-0.5 311.5,-0.5"/>
<text text-anchor="middle" x="362" y="-7.5" font-family="Helvetica,sans-Serif" font-size="10.00">boost/uuid/uuid.hpp</text>
</g>
<!-- Node5&#45;&gt;Node8 -->
<g id="edge8" class="edge"><title>Node5&#45;&gt;Node8</title>
<path fill="none" stroke="midnightblue" d="M414.878,-56.324C405.474,-48.2631 391.256,-36.0765 379.931,-26.3695"/>
<polygon fill="midnightblue" stroke="midnightblue" points="382.177,-23.6844 372.306,-19.8339 377.621,-28.9993 382.177,-23.6844"/>
</g>
<!-- Node9 -->
<g id="node10" class="node"><title>Node9</title>
<polygon fill="white" stroke="#bfbfbf" points="431,-0.5 431,-19.5 545,-19.5 545,-0.5 431,-0.5"/>
<text text-anchor="middle" x="488" y="-7.5" font-family="Helvetica,sans-Serif" font-size="10.00">boost/uuid/uuid_io.hpp</text>
</g>
<!-- Node5&#45;&gt;Node9 -->
<g id="edge9" class="edge"><title>Node5&#45;&gt;Node9</title>
<path fill="none" stroke="midnightblue" d="M435.122,-56.324C444.526,-48.2631 458.744,-36.0765 470.069,-26.3695"/>
<polygon fill="midnightblue" stroke="midnightblue" points="472.379,-28.9993 477.694,-19.8339 467.823,-23.6844 472.379,-28.9993"/>
</g>
<!-- Node10 -->
<g id="node11" class="node"><title>Node10</title>
<polygon fill="white" stroke="#bfbfbf" points="563.5,-0.5 563.5,-19.5 636.5,-19.5 636.5,-0.5 563.5,-0.5"/>
<text text-anchor="middle" x="600" y="-7.5" font-family="Helvetica,sans-Serif" font-size="10.00">odb/core.hxx</text>
</g>
<!-- Node5&#45;&gt;Node10 -->
<g id="edge10" class="edge"><title>Node5&#45;&gt;Node10</title>
<path fill="none" stroke="midnightblue" d="M452.729,-56.4435C482.426,-47.2801 529.716,-32.6876 562.669,-22.5192"/>
<polygon fill="midnightblue" stroke="midnightblue" points="563.877,-25.8094 572.4,-19.5164 561.813,-19.1206 563.877,-25.8094"/>
</g>
<!-- Node11 -->
<g id="node12" class="node"><title>Node11</title>
<polygon fill="white" stroke="#bfbfbf" points="654.5,-0.5 654.5,-19.5 695.5,-19.5 695.5,-0.5 654.5,-0.5"/>
<text text-anchor="middle" x="675" y="-7.5" font-family="Helvetica,sans-Serif" font-size="10.00">string</text>
</g>
<!-- Node5&#45;&gt;Node11 -->
<g id="edge11" class="edge"><title>Node5&#45;&gt;Node11</title>
<path fill="none" stroke="midnightblue" d="M465.199,-58.0645C507.613,-50.4708 576.57,-37.3445 644.47,-20.2052"/>
<polygon fill="midnightblue" stroke="midnightblue" points="645.656,-23.5148 654.477,-17.6475 643.922,-16.7328 645.656,-23.5148"/>
</g>
</g>
</svg>
