<?xml version="1.0" encoding="UTF-8" standalone="no"?>
<!DOCTYPE svg PUBLIC "-//W3C//DTD SVG 1.1//EN"
 "http://www.w3.org/Graphics/SVG/1.1/DTD/svg11.dtd">
<!-- Generated by graphviz version 2.38.0 (20140413.2041)
 -->
<!-- Title: src/core/RemoteControl.hpp Pages: 1 -->
<svg width="1870pt" height="330pt"
 viewBox="0.00 0.00 1870.00 330.00" xmlns="http://www.w3.org/2000/svg" xmlns:xlink="http://www.w3.org/1999/xlink">
<g id="graph0" class="graph" transform="scale(1 1) rotate(0) translate(4 326)">
<title>src/core/RemoteControl.hpp</title>
<polygon fill="white" stroke="none" points="-4,4 -4,-326 1866,-326 1866,4 -4,4"/>
<!-- Node0 -->
<g id="node1" class="node"><title>Node0</title>
<polygon fill="#bfbfbf" stroke="black" points="880.5,-302.5 880.5,-321.5 1020.5,-321.5 1020.5,-302.5 880.5,-302.5"/>
<text text-anchor="middle" x="950.5" y="-309.5" font-family="Helvetica,sans-Serif" font-size="10.00">src/core/RemoteControl.hpp</text>
</g>
<!-- Node1 -->
<g id="node2" class="node"><title>Node1</title>
<g id="a_node2"><a xlink:href="../../d8/dbc/RemoteControlSecurity_8hpp.html" target="_top" xlink:title="RemoteControlSecurity.hpp">
<polygon fill="white" stroke="black" points="83,-241 83,-260 220,-260 220,-241 83,-241"/>
<text text-anchor="middle" x="151.5" y="-248" font-family="Helvetica,sans-Serif" font-size="10.00">RemoteControlSecurity.hpp</text>
</a>
</g>
</g>
<!-- Node0&#45;&gt;Node1 -->
<g id="edge1" class="edge"><title>Node0&#45;&gt;Node1</title>
<path fill="none" stroke="midnightblue" d="M880.294,-305.772C731.619,-294.7 385.904,-268.956 230.109,-257.354"/>
<polygon fill="midnightblue" stroke="midnightblue" points="230.358,-253.863 220.126,-256.61 229.838,-260.843 230.358,-253.863"/>
</g>
<!-- Node5 -->
<g id="node6" class="node"><title>Node5</title>
<g id="a_node6"><a xlink:href="../../db/d79/ConfigManager_8hpp.html" target="_top" xlink:title="core/config/ConfigManager.hpp">
<polygon fill="white" stroke="black" points="822.5,-241 822.5,-260 974.5,-260 974.5,-241 822.5,-241"/>
<text text-anchor="middle" x="898.5" y="-248" font-family="Helvetica,sans-Serif" font-size="10.00">core/config/ConfigManager.hpp</text>
</a>
</g>
</g>
<!-- Node0&#45;&gt;Node5 -->
<g id="edge5" class="edge"><title>Node0&#45;&gt;Node5</title>
<path fill="none" stroke="midnightblue" d="M943.05,-302.475C935.172,-293.462 922.555,-279.025 912.756,-267.812"/>
<polygon fill="midnightblue" stroke="midnightblue" points="915.153,-265.236 905.937,-260.009 909.882,-269.842 915.153,-265.236"/>
</g>
<!-- Node29 -->
<g id="node30" class="node"><title>Node29</title>
<polygon fill="white" stroke="#bfbfbf" points="1690,-174 1690,-193 1787,-193 1787,-174 1690,-174"/>
<text text-anchor="middle" x="1738.5" y="-181" font-family="Helvetica,sans-Serif" font-size="10.00">zmqpp/zmqpp.hpp</text>
</g>
<!-- Node0&#45;&gt;Node29 -->
<g id="edge57" class="edge"><title>Node0&#45;&gt;Node29</title>
<path fill="none" stroke="midnightblue" d="M957.398,-302.229C972.031,-283.89 1006.17,-242.562 1022.5,-235 1154.37,-173.921 1531.6,-219.373 1675.5,-199 1682.29,-198.038 1689.44,-196.709 1696.37,-195.242"/>
<polygon fill="midnightblue" stroke="midnightblue" points="1697.33,-198.615 1706.33,-193.022 1695.8,-191.783 1697.33,-198.615"/>
</g>
<!-- Node30 -->
<g id="node31" class="node"><title>Node30</title>
<polygon fill="white" stroke="#bfbfbf" points="1031,-235.5 1031,-265.5 1132,-265.5 1132,-235.5 1031,-235.5"/>
<text text-anchor="start" x="1039" y="-253.5" font-family="Helvetica,sans-Serif" font-size="10.00">boost/property_tree</text>
<text text-anchor="middle" x="1081.5" y="-242.5" font-family="Helvetica,sans-Serif" font-size="10.00">/ptree_fwd.hpp</text>
</g>
<!-- Node0&#45;&gt;Node30 -->
<g id="edge56" class="edge"><title>Node0&#45;&gt;Node30</title>
<path fill="none" stroke="midnightblue" d="M969.269,-302.475C988.006,-293.965 1017.39,-280.619 1041.39,-269.718"/>
<polygon fill="midnightblue" stroke="midnightblue" points="1042.97,-272.845 1050.63,-265.523 1040.07,-266.472 1042.97,-272.845"/>
</g>
<!-- Node2 -->
<g id="node3" class="node"><title>Node2</title>
<polygon fill="white" stroke="#bfbfbf" points="140,-168.5 140,-198.5 241,-198.5 241,-168.5 140,-168.5"/>
<text text-anchor="start" x="148" y="-186.5" font-family="Helvetica,sans-Serif" font-size="10.00">boost/property_tree</text>
<text text-anchor="middle" x="190.5" y="-175.5" font-family="Helvetica,sans-Serif" font-size="10.00">/ptree.hpp</text>
</g>
<!-- Node1&#45;&gt;Node2 -->
<g id="edge2" class="edge"><title>Node1&#45;&gt;Node2</title>
<path fill="none" stroke="midnightblue" d="M156.76,-240.734C161.878,-232.203 169.875,-218.874 176.799,-207.334"/>
<polygon fill="midnightblue" stroke="midnightblue" points="179.903,-208.965 182.047,-198.589 173.9,-205.363 179.903,-208.965"/>
</g>
<!-- Node3 -->
<g id="node4" class="node"><title>Node3</title>
<polygon fill="white" stroke="#bfbfbf" points="0,-174 0,-193 83,-193 83,-174 0,-174"/>
<text text-anchor="middle" x="41.5" y="-181" font-family="Helvetica,sans-Serif" font-size="10.00">unordered_map</text>
</g>
<!-- Node1&#45;&gt;Node3 -->
<g id="edge3" class="edge"><title>Node1&#45;&gt;Node3</title>
<path fill="none" stroke="midnightblue" d="M136.665,-240.734C118.192,-229.818 86.4285,-211.049 64.72,-198.221"/>
<polygon fill="midnightblue" stroke="midnightblue" points="66.4899,-195.201 56.1,-193.127 62.9288,-201.228 66.4899,-195.201"/>
</g>
<!-- Node4 -->
<g id="node5" class="node"><title>Node4</title>
<polygon fill="white" stroke="#bfbfbf" points="187.5,-56.5 187.5,-75.5 231.5,-75.5 231.5,-56.5 187.5,-56.5"/>
<text text-anchor="middle" x="209.5" y="-63.5" font-family="Helvetica,sans-Serif" font-size="10.00">vector</text>
</g>
<!-- Node1&#45;&gt;Node4 -->
<g id="edge4" class="edge"><title>Node1&#45;&gt;Node4</title>
<path fill="none" stroke="midnightblue" d="M145.948,-240.801C137.071,-225.75 121.55,-193.97 130.5,-168 142.559,-133.01 172.273,-100.87 191.625,-82.6356"/>
<polygon fill="midnightblue" stroke="midnightblue" points="194.186,-85.0362 199.203,-75.7043 189.462,-79.871 194.186,-85.0362"/>
</g>
<!-- Node5&#45;&gt;Node2 -->
<g id="edge50" class="edge"><title>Node5&#45;&gt;Node2</title>
<path fill="none" stroke="midnightblue" d="M822.383,-246.999C701.626,-242.25 458.978,-229.53 255.5,-199 254.035,-198.78 252.554,-198.546 251.062,-198.3"/>
<polygon fill="midnightblue" stroke="midnightblue" points="251.573,-194.836 241.112,-196.515 250.337,-201.726 251.573,-194.836"/>
</g>
<!-- Node5&#45;&gt;Node4 -->
<g id="edge54" class="edge"><title>Node5&#45;&gt;Node4</title>
<path fill="none" stroke="midnightblue" d="M822.251,-246.031C665.658,-237.373 315.235,-209.622 228.5,-132 215.515,-120.379 211.197,-100.426 209.863,-85.6838"/>
<polygon fill="midnightblue" stroke="midnightblue" points="213.355,-85.4512 209.33,-75.6509 206.365,-85.8225 213.355,-85.4512"/>
</g>
<!-- Node6 -->
<g id="node7" class="node"><title>Node6</title>
<g id="a_node7"><a xlink:href="../../d1/ddd/leosacexception_8hpp.html" target="_top" xlink:title="Exception class for LEOSAC Project related errors. ">
<polygon fill="white" stroke="black" points="883,-174 883,-193 1034,-193 1034,-174 883,-174"/>
<text text-anchor="middle" x="958.5" y="-181" font-family="Helvetica,sans-Serif" font-size="10.00">exception/leosacexception.hpp</text>
</a>
</g>
</g>
<!-- Node5&#45;&gt;Node6 -->
<g id="edge6" class="edge"><title>Node5&#45;&gt;Node6</title>
<path fill="none" stroke="midnightblue" d="M906.592,-240.734C916.038,-230.5 931.856,-213.364 943.553,-200.692"/>
<polygon fill="midnightblue" stroke="midnightblue" points="946.325,-202.849 950.536,-193.127 941.182,-198.101 946.325,-202.849"/>
</g>
<!-- Node8 -->
<g id="node9" class="node"><title>Node8</title>
<polygon fill="white" stroke="#bfbfbf" points="1003,-0.5 1003,-19.5 1044,-19.5 1044,-0.5 1003,-0.5"/>
<text text-anchor="middle" x="1023.5" y="-7.5" font-family="Helvetica,sans-Serif" font-size="10.00">string</text>
</g>
<!-- Node5&#45;&gt;Node8 -->
<g id="edge53" class="edge"><title>Node5&#45;&gt;Node8</title>
<path fill="none" stroke="midnightblue" d="M948.974,-240.969C960.639,-239.003 973.001,-236.925 984.5,-235 1122.25,-211.945 1514.2,-238.544 1604.5,-132 1620.98,-112.56 1606.03,-71.993 1585.5,-56 1543.46,-23.2549 1166.34,-13.6575 1054.58,-11.5206"/>
<polygon fill="midnightblue" stroke="midnightblue" points="1054.38,-8.01644 1044.32,-11.3313 1054.25,-15.0152 1054.38,-8.01644"/>
</g>
<!-- Node22 -->
<g id="node23" class="node"><title>Node22</title>
<g id="a_node23"><a xlink:href="../../d4/d3d/log_8hpp.html" target="_top" xlink:title="tools/log.hpp">
<polygon fill="white" stroke="black" points="1651.5,-56.5 1651.5,-75.5 1723.5,-75.5 1723.5,-56.5 1651.5,-56.5"/>
<text text-anchor="middle" x="1687.5" y="-63.5" font-family="Helvetica,sans-Serif" font-size="10.00">tools/log.hpp</text>
</a>
</g>
</g>
<!-- Node5&#45;&gt;Node22 -->
<g id="edge43" class="edge"><title>Node5&#45;&gt;Node22</title>
<path fill="none" stroke="midnightblue" d="M943.446,-240.946C956.632,-238.701 971.107,-236.493 984.5,-235 1056.72,-226.947 1578.87,-241.922 1637.5,-199 1673.98,-172.293 1683.85,-115.515 1686.52,-85.8854"/>
<polygon fill="midnightblue" stroke="midnightblue" points="1690.03,-85.8777 1687.24,-75.655 1683.04,-85.3821 1690.03,-85.8777"/>
</g>
<!-- Node27 -->
<g id="node28" class="node"><title>Node27</title>
<polygon fill="white" stroke="#bfbfbf" points="759,-174 759,-193 794,-193 794,-174 759,-174"/>
<text text-anchor="middle" x="776.5" y="-181" font-family="Helvetica,sans-Serif" font-size="10.00">map</text>
</g>
<!-- Node5&#45;&gt;Node27 -->
<g id="edge51" class="edge"><title>Node5&#45;&gt;Node27</title>
<path fill="none" stroke="midnightblue" d="M882.352,-240.943C863.441,-230.915 831.177,-213.788 803.5,-199 802.831,-198.643 802.153,-198.28 801.469,-197.914"/>
<polygon fill="midnightblue" stroke="midnightblue" points="802.952,-194.738 792.484,-193.099 799.645,-200.907 802.952,-194.738"/>
</g>
<!-- Node28 -->
<g id="node29" class="node"><title>Node28</title>
<polygon fill="white" stroke="#bfbfbf" points="812.5,-174 812.5,-193 864.5,-193 864.5,-174 812.5,-174"/>
<text text-anchor="middle" x="838.5" y="-181" font-family="Helvetica,sans-Serif" font-size="10.00">memory</text>
</g>
<!-- Node5&#45;&gt;Node28 -->
<g id="edge52" class="edge"><title>Node5&#45;&gt;Node28</title>
<path fill="none" stroke="midnightblue" d="M890.408,-240.734C880.962,-230.5 865.144,-213.364 853.447,-200.692"/>
<polygon fill="midnightblue" stroke="midnightblue" points="855.818,-198.101 846.464,-193.127 850.675,-202.849 855.818,-198.101"/>
</g>
<!-- Node5&#45;&gt;Node29 -->
<g id="edge55" class="edge"><title>Node5&#45;&gt;Node29</title>
<path fill="none" stroke="midnightblue" d="M945.549,-240.942C959.348,-238.698 974.494,-236.491 988.5,-235 1292.53,-202.637 1372.71,-241.45 1675.5,-199 1682.3,-198.047 1689.44,-196.723 1696.38,-195.258"/>
<polygon fill="midnightblue" stroke="midnightblue" points="1697.33,-198.631 1706.33,-193.039 1695.81,-191.799 1697.33,-198.631"/>
</g>
<!-- Node7 -->
<g id="node8" class="node"><title>Node7</title>
<g id="a_node8"><a xlink:href="../../d6/d2f/Stacktrace_8hpp.html" target="_top" xlink:title="tools/Stacktrace.hpp">
<polygon fill="white" stroke="black" points="238,-112.5 238,-131.5 345,-131.5 345,-112.5 238,-112.5"/>
<text text-anchor="middle" x="291.5" y="-119.5" font-family="Helvetica,sans-Serif" font-size="10.00">tools/Stacktrace.hpp</text>
</a>
</g>
</g>
<!-- Node6&#45;&gt;Node7 -->
<g id="edge7" class="edge"><title>Node6&#45;&gt;Node7</title>
<path fill="none" stroke="midnightblue" d="M913.626,-173.985C900.712,-171.768 886.58,-169.565 873.5,-168 647.168,-140.914 586.152,-155.926 355.144,-131.981"/>
<polygon fill="midnightblue" stroke="midnightblue" points="355.394,-128.488 345.083,-130.925 354.663,-135.45 355.394,-128.488"/>
</g>
<!-- Node6&#45;&gt;Node8 -->
<g id="edge12" class="edge"><title>Node6&#45;&gt;Node8</title>
<path fill="none" stroke="midnightblue" d="M960.569,-173.69C963.829,-160.218 970.608,-133.769 978.5,-112 989.308,-82.1856 1004.91,-48.7903 1014.61,-28.8518"/>
<polygon fill="midnightblue" stroke="midnightblue" points="1017.82,-30.2601 1019.09,-19.7421 1011.54,-27.1702 1017.82,-30.2601"/>
</g>
<!-- Node9 -->
<g id="node10" class="node"><title>Node9</title>
<polygon fill="white" stroke="#bfbfbf" points="987,-112.5 987,-131.5 1036,-131.5 1036,-112.5 987,-112.5"/>
<text text-anchor="middle" x="1011.5" y="-119.5" font-family="Helvetica,sans-Serif" font-size="10.00">cstddef</text>
</g>
<!-- Node6&#45;&gt;Node9 -->
<g id="edge10" class="edge"><title>Node6&#45;&gt;Node9</title>
<path fill="none" stroke="midnightblue" d="M966.094,-173.975C974.201,-164.873 987.235,-150.241 997.263,-138.983"/>
<polygon fill="midnightblue" stroke="midnightblue" points="999.883,-141.304 1003.92,-131.509 994.656,-136.648 999.883,-141.304"/>
</g>
<!-- Node10 -->
<g id="node11" class="node"><title>Node10</title>
<polygon fill="white" stroke="#bfbfbf" points="1054,-112.5 1054,-131.5 1113,-131.5 1113,-112.5 1054,-112.5"/>
<text text-anchor="middle" x="1083.5" y="-119.5" font-family="Helvetica,sans-Serif" font-size="10.00">exception</text>
</g>
<!-- Node6&#45;&gt;Node10 -->
<g id="edge11" class="edge"><title>Node6&#45;&gt;Node10</title>
<path fill="none" stroke="midnightblue" d="M976.409,-173.975C997.387,-163.99 1032.35,-147.348 1056.59,-135.807"/>
<polygon fill="midnightblue" stroke="midnightblue" points="1058.1,-138.967 1065.62,-131.509 1055.09,-132.647 1058.1,-138.967"/>
</g>
<!-- Node11 -->
<g id="node12" class="node"><title>Node11</title>
<g id="a_node12"><a xlink:href="../../d7/d7a/configexception_8hpp.html" target="_top" xlink:title="configexception.hpp">
<polygon fill="white" stroke="black" points="1491.5,-112.5 1491.5,-131.5 1595.5,-131.5 1595.5,-112.5 1491.5,-112.5"/>
<text text-anchor="middle" x="1543.5" y="-119.5" font-family="Helvetica,sans-Serif" font-size="10.00">configexception.hpp</text>
</a>
</g>
</g>
<!-- Node6&#45;&gt;Node11 -->
<g id="edge13" class="edge"><title>Node6&#45;&gt;Node11</title>
<path fill="none" stroke="midnightblue" d="M1034.06,-175.9C1134.56,-167.277 1317.46,-151.018 1473.5,-132 1476.01,-131.694 1478.58,-131.368 1481.18,-131.028"/>
<polygon fill="midnightblue" stroke="midnightblue" points="1481.86,-134.468 1491.3,-129.661 1480.92,-127.53 1481.86,-134.468"/>
</g>
<!-- Node14 -->
<g id="node15" class="node"><title>Node14</title>
<g id="a_node15"><a xlink:href="../../d8/db0/coreexception_8hpp.html" target="_top" xlink:title="Exception class for Core related errors. ">
<polygon fill="white" stroke="black" points="1131.5,-112.5 1131.5,-131.5 1227.5,-131.5 1227.5,-112.5 1131.5,-112.5"/>
<text text-anchor="middle" x="1179.5" y="-119.5" font-family="Helvetica,sans-Serif" font-size="10.00">coreexception.hpp</text>
</a>
</g>
</g>
<!-- Node6&#45;&gt;Node14 -->
<g id="edge19" class="edge"><title>Node6&#45;&gt;Node14</title>
<path fill="none" stroke="midnightblue" d="M985.263,-173.975C1022.03,-163.459 1088.35,-145.562 1133.21,-134.014"/>
<polygon fill="midnightblue" stroke="midnightblue" points="1134.18,-137.379 1143,-131.509 1132.44,-130.598 1134.18,-137.379"/>
</g>
<!-- Node15 -->
<g id="node16" class="node"><title>Node15</title>
<g id="a_node16"><a xlink:href="../../d8/d77/deviceexception_8hpp.html" target="_top" xlink:title="Exception class for Device related errors. ">
<polygon fill="white" stroke="black" points="1245.5,-112.5 1245.5,-131.5 1351.5,-131.5 1351.5,-112.5 1245.5,-112.5"/>
<text text-anchor="middle" x="1298.5" y="-119.5" font-family="Helvetica,sans-Serif" font-size="10.00">deviceexception.hpp</text>
</a>
</g>
</g>
<!-- Node6&#45;&gt;Node15 -->
<g id="edge22" class="edge"><title>Node6&#45;&gt;Node15</title>
<path fill="none" stroke="midnightblue" d="M1002.31,-173.975C1061.53,-163.201 1167.27,-144.678 1235.13,-133.175"/>
<polygon fill="midnightblue" stroke="midnightblue" points="1235.99,-136.579 1245.26,-131.461 1234.82,-129.677 1235.99,-136.579"/>
</g>
<!-- Node16 -->
<g id="node17" class="node"><title>Node16</title>
<g id="a_node17"><a xlink:href="../../db/d35/dynlibexception_8hpp.html" target="_top" xlink:title="Exception class for DynLib related errors. ">
<polygon fill="white" stroke="black" points="1370,-112.5 1370,-131.5 1473,-131.5 1473,-112.5 1370,-112.5"/>
<text text-anchor="middle" x="1421.5" y="-119.5" font-family="Helvetica,sans-Serif" font-size="10.00">dynlibexception.hpp</text>
</a>
</g>
</g>
<!-- Node6&#45;&gt;Node16 -->
<g id="edge25" class="edge"><title>Node6&#45;&gt;Node16</title>
<path fill="none" stroke="midnightblue" d="M1023.53,-173.978C1101.53,-164.293 1235.98,-147.776 1351.5,-132 1354.28,-131.62 1357.14,-131.223 1360.03,-130.817"/>
<polygon fill="midnightblue" stroke="midnightblue" points="1360.54,-134.28 1369.95,-129.411 1359.56,-127.349 1360.54,-134.28"/>
</g>
<!-- Node17 -->
<g id="node18" class="node"><title>Node17</title>
<g id="a_node18"><a xlink:href="../../d0/d4e/fsexception_8hpp.html" target="_top" xlink:title="Exception class for filesystem related errors. ">
<polygon fill="white" stroke="black" points="363.5,-112.5 363.5,-131.5 449.5,-131.5 449.5,-112.5 363.5,-112.5"/>
<text text-anchor="middle" x="406.5" y="-119.5" font-family="Helvetica,sans-Serif" font-size="10.00">fsexception.hpp</text>
</a>
</g>
</g>
<!-- Node6&#45;&gt;Node17 -->
<g id="edge28" class="edge"><title>Node6&#45;&gt;Node17</title>
<path fill="none" stroke="midnightblue" d="M904.067,-173.98C891.052,-171.815 877.269,-169.64 864.5,-168 684.189,-144.84 634.87,-155.408 455.93,-132.801"/>
<polygon fill="midnightblue" stroke="midnightblue" points="456.283,-129.317 445.92,-131.519 455.394,-136.261 456.283,-129.317"/>
</g>
<!-- Node18 -->
<g id="node19" class="node"><title>Node18</title>
<g id="a_node19"><a xlink:href="../../d1/d8e/gpioexception_8hpp.html" target="_top" xlink:title="Exception class for Gpio related errors. ">
<polygon fill="white" stroke="black" points="468,-112.5 468,-131.5 563,-131.5 563,-112.5 468,-112.5"/>
<text text-anchor="middle" x="515.5" y="-119.5" font-family="Helvetica,sans-Serif" font-size="10.00">gpioexception.hpp</text>
</a>
</g>
</g>
<!-- Node6&#45;&gt;Node18 -->
<g id="edge31" class="edge"><title>Node6&#45;&gt;Node18</title>
<path fill="none" stroke="midnightblue" d="M902.209,-173.948C889.736,-171.879 876.649,-169.759 864.5,-168 734.119,-149.12 698.177,-150.636 569.501,-132.96"/>
<polygon fill="midnightblue" stroke="midnightblue" points="569.638,-129.446 559.252,-131.539 568.676,-136.38 569.638,-129.446"/>
</g>
<!-- Node19 -->
<g id="node20" class="node"><title>Node19</title>
<g id="a_node20"><a xlink:href="../../d7/d8c/moduleexception_8hpp.html" target="_top" xlink:title="Exception class for modules. ">
<polygon fill="white" stroke="black" points="581,-112.5 581,-131.5 690,-131.5 690,-112.5 581,-112.5"/>
<text text-anchor="middle" x="635.5" y="-119.5" font-family="Helvetica,sans-Serif" font-size="10.00">moduleexception.hpp</text>
</a>
</g>
</g>
<!-- Node6&#45;&gt;Node19 -->
<g id="edge34" class="edge"><title>Node6&#45;&gt;Node19</title>
<path fill="none" stroke="midnightblue" d="M907.321,-173.975C846.945,-163.283 747.34,-144.958 686.88,-133.437"/>
<polygon fill="midnightblue" stroke="midnightblue" points="687.274,-129.949 676.795,-131.509 685.96,-136.825 687.274,-129.949"/>
</g>
<!-- Node20 -->
<g id="node21" class="node"><title>Node20</title>
<g id="a_node21"><a xlink:href="../../df/d8d/scriptexception_8hpp.html" target="_top" xlink:title="Exception class for Script related errors. ">
<polygon fill="white" stroke="black" points="708,-112.5 708,-131.5 809,-131.5 809,-112.5 708,-112.5"/>
<text text-anchor="middle" x="758.5" y="-119.5" font-family="Helvetica,sans-Serif" font-size="10.00">scriptexception.hpp</text>
</a>
</g>
</g>
<!-- Node6&#45;&gt;Node20 -->
<g id="edge37" class="edge"><title>Node6&#45;&gt;Node20</title>
<path fill="none" stroke="midnightblue" d="M924.944,-173.975C887.937,-163.636 829.004,-146.161 792.018,-134.602"/>
<polygon fill="midnightblue" stroke="midnightblue" points="792.794,-131.177 782.205,-131.509 790.69,-137.853 792.794,-131.177"/>
</g>
<!-- Node21 -->
<g id="node22" class="node"><title>Node21</title>
<g id="a_node22"><a xlink:href="../../dc/dce/signalexception_8hpp.html" target="_top" xlink:title="Exception class for Signal related errors. ">
<polygon fill="white" stroke="black" points="827,-112.5 827,-131.5 930,-131.5 930,-112.5 827,-112.5"/>
<text text-anchor="middle" x="878.5" y="-119.5" font-family="Helvetica,sans-Serif" font-size="10.00">signalexception.hpp</text>
</a>
</g>
</g>
<!-- Node6&#45;&gt;Node21 -->
<g id="edge40" class="edge"><title>Node6&#45;&gt;Node21</title>
<path fill="none" stroke="midnightblue" d="M942.137,-173.975C927.5,-164.608 906.68,-149.384 892.727,-138.008"/>
<polygon fill="midnightblue" stroke="midnightblue" points="894.939,-135.295 885.044,-131.509 890.418,-140.639 894.939,-135.295"/>
</g>
<!-- Node7&#45;&gt;Node4 -->
<g id="edge9" class="edge"><title>Node7&#45;&gt;Node4</title>
<path fill="none" stroke="midnightblue" d="M278.325,-112.324C265.653,-103.979 246.267,-91.2122 231.294,-81.3524"/>
<polygon fill="midnightblue" stroke="midnightblue" points="232.919,-78.2313 222.642,-75.6545 229.069,-84.0776 232.919,-78.2313"/>
</g>
<!-- Node7&#45;&gt;Node8 -->
<g id="edge8" class="edge"><title>Node7&#45;&gt;Node8</title>
<path fill="none" stroke="midnightblue" d="M326.736,-112.439C384.172,-98.754 501.698,-71.8809 602.5,-56 747.584,-33.1427 922.661,-18.5523 992.526,-13.2486"/>
<polygon fill="midnightblue" stroke="midnightblue" points="993.105,-16.7151 1002.81,-12.4772 992.581,-9.73468 993.105,-16.7151"/>
</g>
<!-- Node11&#45;&gt;Node6 -->
<g id="edge14" class="edge"><title>Node11&#45;&gt;Node6</title>
<path fill="none" stroke="midnightblue" d="M1495.36,-131.519C1494.06,-131.684 1492.78,-131.845 1491.5,-132 1334.34,-151.154 1149.93,-167.51 1044.33,-176.084"/>
<polygon fill="midnightblue" stroke="midnightblue" points="1043.73,-172.62 1034.05,-176.914 1044.3,-179.598 1043.73,-172.62"/>
</g>
<!-- Node11&#45;&gt;Node8 -->
<g id="edge18" class="edge"><title>Node11&#45;&gt;Node8</title>
<path fill="none" stroke="midnightblue" d="M1503.13,-112.46C1402.69,-91.2141 1143.27,-36.3351 1054.12,-17.4766"/>
<polygon fill="midnightblue" stroke="midnightblue" points="1054.62,-14.0055 1044.11,-15.3601 1053.17,-20.854 1054.62,-14.0055"/>
</g>
<!-- Node12 -->
<g id="node13" class="node"><title>Node12</title>
<g id="a_node13"><a xlink:href="../../dd/d35/Colorize_8hpp.html" target="_top" xlink:title="tools/Colorize.hpp">
<polygon fill="white" stroke="black" points="1481,-56.5 1481,-75.5 1576,-75.5 1576,-56.5 1481,-56.5"/>
<text text-anchor="middle" x="1528.5" y="-63.5" font-family="Helvetica,sans-Serif" font-size="10.00">tools/Colorize.hpp</text>
</a>
</g>
</g>
<!-- Node11&#45;&gt;Node12 -->
<g id="edge15" class="edge"><title>Node11&#45;&gt;Node12</title>
<path fill="none" stroke="midnightblue" d="M1541.02,-112.083C1539.01,-104.849 1536.11,-94.4087 1533.61,-85.3968"/>
<polygon fill="midnightblue" stroke="midnightblue" points="1536.98,-84.4495 1530.93,-75.7511 1530.24,-86.323 1536.98,-84.4495"/>
</g>
<!-- Node12&#45;&gt;Node8 -->
<g id="edge17" class="edge"><title>Node12&#45;&gt;Node8</title>
<path fill="none" stroke="midnightblue" d="M1480.96,-59.6784C1469.97,-58.4595 1458.33,-57.1765 1447.5,-56 1300.46,-40.028 1124.65,-21.5748 1054.56,-14.2437"/>
<polygon fill="midnightblue" stroke="midnightblue" points="1054.55,-10.7235 1044.24,-13.1647 1053.82,-17.6856 1054.55,-10.7235"/>
</g>
<!-- Node13 -->
<g id="node14" class="node"><title>Node13</title>
<polygon fill="white" stroke="#bfbfbf" points="1502.5,-0.5 1502.5,-19.5 1554.5,-19.5 1554.5,-0.5 1502.5,-0.5"/>
<text text-anchor="middle" x="1528.5" y="-7.5" font-family="Helvetica,sans-Serif" font-size="10.00">sstream</text>
</g>
<!-- Node12&#45;&gt;Node13 -->
<g id="edge16" class="edge"><title>Node12&#45;&gt;Node13</title>
<path fill="none" stroke="midnightblue" d="M1528.5,-56.083C1528.5,-49.0059 1528.5,-38.8611 1528.5,-29.9865"/>
<polygon fill="midnightblue" stroke="midnightblue" points="1532,-29.751 1528.5,-19.7511 1525,-29.7511 1532,-29.751"/>
</g>
<!-- Node14&#45;&gt;Node6 -->
<g id="edge21" class="edge"><title>Node14&#45;&gt;Node6</title>
<path fill="none" stroke="midnightblue" d="M1152.79,-131.509C1116.06,-142.017 1049.74,-159.915 1004.86,-171.468"/>
<polygon fill="midnightblue" stroke="midnightblue" points="1003.88,-168.105 995.065,-173.975 1005.62,-174.886 1003.88,-168.105"/>
</g>
<!-- Node14&#45;&gt;Node8 -->
<g id="edge20" class="edge"><title>Node14&#45;&gt;Node8</title>
<path fill="none" stroke="midnightblue" d="M1167.26,-112.368C1140.6,-93.5728 1077.06,-48.7684 1044.11,-25.5334"/>
<polygon fill="midnightblue" stroke="midnightblue" points="1045.87,-22.4938 1035.68,-19.5914 1041.84,-28.2146 1045.87,-22.4938"/>
</g>
<!-- Node15&#45;&gt;Node6 -->
<g id="edge24" class="edge"><title>Node15&#45;&gt;Node6</title>
<path fill="none" stroke="midnightblue" d="M1254.77,-131.509C1195.69,-142.26 1090.17,-160.746 1022.26,-172.259"/>
<polygon fill="midnightblue" stroke="midnightblue" points="1021.39,-168.857 1012.11,-173.975 1022.56,-175.759 1021.39,-168.857"/>
</g>
<!-- Node15&#45;&gt;Node8 -->
<g id="edge23" class="edge"><title>Node15&#45;&gt;Node8</title>
<path fill="none" stroke="midnightblue" d="M1276.92,-112.368C1228.19,-92.8748 1109.51,-45.4049 1053.59,-23.0365"/>
<polygon fill="midnightblue" stroke="midnightblue" points="1054.81,-19.7547 1044.23,-19.2904 1052.21,-26.2541 1054.81,-19.7547"/>
</g>
<!-- Node16&#45;&gt;Node6 -->
<g id="edge27" class="edge"><title>Node16&#45;&gt;Node6</title>
<path fill="none" stroke="midnightblue" d="M1373.03,-131.514C1371.85,-131.678 1370.67,-131.841 1369.5,-132 1257.44,-147.304 1127.56,-163.306 1044.22,-173.091"/>
<polygon fill="midnightblue" stroke="midnightblue" points="1043.56,-169.644 1034.04,-174.283 1044.38,-176.596 1043.56,-169.644"/>
</g>
<!-- Node16&#45;&gt;Node8 -->
<g id="edge26" class="edge"><title>Node16&#45;&gt;Node8</title>
<path fill="none" stroke="midnightblue" d="M1390.6,-112.46C1316.27,-91.9161 1128.16,-39.9248 1054.11,-19.4613"/>
<polygon fill="midnightblue" stroke="midnightblue" points="1054.62,-15.9689 1044.05,-16.6784 1052.75,-22.716 1054.62,-15.9689"/>
</g>
<!-- Node17&#45;&gt;Node6 -->
<g id="edge30" class="edge"><title>Node17&#45;&gt;Node6</title>
<path fill="none" stroke="midnightblue" d="M449.708,-129.367C455.72,-130.336 461.776,-131.258 467.5,-132 651.1,-155.808 698.871,-144.414 882.5,-168 891.878,-169.205 901.801,-170.697 911.296,-172.263"/>
<polygon fill="midnightblue" stroke="midnightblue" points="910.939,-175.752 921.385,-173.98 912.114,-168.851 910.939,-175.752"/>
</g>
<!-- Node17&#45;&gt;Node8 -->
<g id="edge29" class="edge"><title>Node17&#45;&gt;Node8</title>
<path fill="none" stroke="midnightblue" d="M441.652,-112.44C497.216,-99.1119 608.858,-73.152 704.5,-56 809.748,-37.1254 935.705,-21.3452 992.744,-14.5639"/>
<polygon fill="midnightblue" stroke="midnightblue" points="993.368,-18.0146 1002.89,-13.3665 992.548,-11.0628 993.368,-18.0146"/>
</g>
<!-- Node18&#45;&gt;Node6 -->
<g id="edge32" class="edge"><title>Node18&#45;&gt;Node6</title>
<path fill="none" stroke="midnightblue" d="M563.232,-129.45C569.082,-130.345 574.941,-131.222 580.5,-132 714.369,-150.728 748.723,-148.629 882.5,-168 891.327,-169.278 900.649,-170.747 909.644,-172.248"/>
<polygon fill="midnightblue" stroke="midnightblue" points="909.172,-175.718 919.618,-173.948 910.348,-168.817 909.172,-175.718"/>
</g>
<!-- Node18&#45;&gt;Node8 -->
<g id="edge33" class="edge"><title>Node18&#45;&gt;Node8</title>
<path fill="none" stroke="midnightblue" d="M549.824,-112.454C601.921,-99.5866 704.142,-74.7513 791.5,-56 863.547,-40.5353 948.692,-24.6208 993.096,-16.4993"/>
<polygon fill="midnightblue" stroke="midnightblue" points="993.752,-19.9375 1002.96,-14.7005 992.496,-13.051 993.752,-19.9375"/>
</g>
<!-- Node19&#45;&gt;Node6 -->
<g id="edge36" class="edge"><title>Node19&#45;&gt;Node6</title>
<path fill="none" stroke="midnightblue" d="M686.589,-131.509C746.927,-142.194 846.531,-160.518 907.031,-172.046"/>
<polygon fill="midnightblue" stroke="midnightblue" points="906.643,-175.535 917.123,-173.975 907.958,-168.659 906.643,-175.535"/>
</g>
<!-- Node19&#45;&gt;Node8 -->
<g id="edge35" class="edge"><title>Node19&#45;&gt;Node8</title>
<path fill="none" stroke="midnightblue" d="M665.368,-112.449C708.919,-99.9874 792.412,-76.1298 863.5,-56 908.595,-43.2307 960.874,-28.5503 993.069,-19.524"/>
<polygon fill="midnightblue" stroke="midnightblue" points="994.097,-22.8708 1002.78,-16.8017 992.208,-16.1305 994.097,-22.8708"/>
</g>
<!-- Node20&#45;&gt;Node6 -->
<g id="edge39" class="edge"><title>Node20&#45;&gt;Node6</title>
<path fill="none" stroke="midnightblue" d="M791.999,-131.509C828.984,-141.841 887.917,-159.315 924.925,-170.881"/>
<polygon fill="midnightblue" stroke="midnightblue" points="924.156,-174.308 934.745,-173.975 926.26,-167.631 924.156,-174.308"/>
</g>
<!-- Node20&#45;&gt;Node8 -->
<g id="edge38" class="edge"><title>Node20&#45;&gt;Node8</title>
<path fill="none" stroke="midnightblue" d="M779.294,-112.368C825.929,-93.0105 939.026,-46.0645 993.369,-23.5074"/>
<polygon fill="midnightblue" stroke="midnightblue" points="994.908,-26.6578 1002.8,-19.5914 992.225,-20.1927 994.908,-26.6578"/>
</g>
<!-- Node21&#45;&gt;Node6 -->
<g id="edge42" class="edge"><title>Node21&#45;&gt;Node6</title>
<path fill="none" stroke="midnightblue" d="M894.838,-131.509C909.468,-140.869 930.288,-156.093 944.249,-167.473"/>
<polygon fill="midnightblue" stroke="midnightblue" points="942.043,-170.191 951.939,-173.975 946.563,-164.845 942.043,-170.191"/>
</g>
<!-- Node21&#45;&gt;Node8 -->
<g id="edge41" class="edge"><title>Node21&#45;&gt;Node8</title>
<path fill="none" stroke="midnightblue" d="M886.005,-112.274C897.648,-99.0637 921.16,-73.6617 944.5,-56 960.656,-43.7745 980.472,-32.4956 996.216,-24.2875"/>
<polygon fill="midnightblue" stroke="midnightblue" points="998.104,-27.2534 1005.42,-19.5927 994.924,-21.0173 998.104,-27.2534"/>
</g>
<!-- Node22&#45;&gt;Node8 -->
<g id="edge49" class="edge"><title>Node22&#45;&gt;Node8</title>
<path fill="none" stroke="midnightblue" d="M1651.25,-58.0135C1646.63,-57.2598 1641.96,-56.5636 1637.5,-56 1414.85,-27.8815 1144.39,-15.6163 1054.32,-12.1143"/>
<polygon fill="midnightblue" stroke="midnightblue" points="1054.38,-8.61386 1044.25,-11.7302 1054.11,-15.6088 1054.38,-8.61386"/>
</g>
<!-- Node22&#45;&gt;Node13 -->
<g id="edge48" class="edge"><title>Node22&#45;&gt;Node13</title>
<path fill="none" stroke="midnightblue" d="M1662.31,-56.4435C1635.56,-47.3591 1593.1,-32.9388 1563.19,-22.7831"/>
<polygon fill="midnightblue" stroke="midnightblue" points="1564.17,-19.4182 1553.58,-19.5164 1561.92,-26.0464 1564.17,-19.4182"/>
</g>
<!-- Node23 -->
<g id="node24" class="node"><title>Node23</title>
<polygon fill="white" stroke="#bfbfbf" points="1748,-0.5 1748,-19.5 1797,-19.5 1797,-0.5 1748,-0.5"/>
<text text-anchor="middle" x="1772.5" y="-7.5" font-family="Helvetica,sans-Serif" font-size="10.00">cassert</text>
</g>
<!-- Node22&#45;&gt;Node23 -->
<g id="edge44" class="edge"><title>Node22&#45;&gt;Node23</title>
<path fill="none" stroke="midnightblue" d="M1701.16,-56.324C1714.42,-47.9002 1734.77,-34.9709 1750.35,-25.0741"/>
<polygon fill="midnightblue" stroke="midnightblue" points="1752.31,-27.9711 1758.88,-19.6545 1748.56,-22.0626 1752.31,-27.9711"/>
</g>
<!-- Node24 -->
<g id="node25" class="node"><title>Node24</title>
<polygon fill="white" stroke="#bfbfbf" points="1815,-0.5 1815,-19.5 1862,-19.5 1862,-0.5 1815,-0.5"/>
<text text-anchor="middle" x="1838.5" y="-7.5" font-family="Helvetica,sans-Serif" font-size="10.00">csignal</text>
</g>
<!-- Node22&#45;&gt;Node24 -->
<g id="edge45" class="edge"><title>Node22&#45;&gt;Node24</title>
<path fill="none" stroke="midnightblue" d="M1711.43,-56.4435C1736.72,-47.3986 1776.8,-33.064 1805.18,-22.9158"/>
<polygon fill="midnightblue" stroke="midnightblue" points="1806.45,-26.1794 1814.69,-19.5164 1804.09,-19.5882 1806.45,-26.1794"/>
</g>
<!-- Node25 -->
<g id="node26" class="node"><title>Node25</title>
<polygon fill="white" stroke="#bfbfbf" points="1572.5,-0.5 1572.5,-19.5 1626.5,-19.5 1626.5,-0.5 1572.5,-0.5"/>
<text text-anchor="middle" x="1599.5" y="-7.5" font-family="Helvetica,sans-Serif" font-size="10.00">iostream</text>
</g>
<!-- Node22&#45;&gt;Node25 -->
<g id="edge46" class="edge"><title>Node22&#45;&gt;Node25</title>
<path fill="none" stroke="midnightblue" d="M1673.36,-56.324C1659.63,-47.9002 1638.56,-34.9709 1622.44,-25.0741"/>
<polygon fill="midnightblue" stroke="midnightblue" points="1623.96,-21.9016 1613.6,-19.6545 1620.3,-27.8678 1623.96,-21.9016"/>
</g>
<!-- Node26 -->
<g id="node27" class="node"><title>Node26</title>
<polygon fill="white" stroke="#bfbfbf" points="1645,-0.5 1645,-19.5 1730,-19.5 1730,-0.5 1645,-0.5"/>
<text text-anchor="middle" x="1687.5" y="-7.5" font-family="Helvetica,sans-Serif" font-size="10.00">spdlog/spdlog.h</text>
</g>
<!-- Node22&#45;&gt;Node26 -->
<g id="edge47" class="edge"><title>Node22&#45;&gt;Node26</title>
<path fill="none" stroke="midnightblue" d="M1687.5,-56.083C1687.5,-49.0059 1687.5,-38.8611 1687.5,-29.9865"/>
<polygon fill="midnightblue" stroke="midnightblue" points="1691,-29.751 1687.5,-19.7511 1684,-29.7511 1691,-29.751"/>
</g>
</g>
</svg>
