<?xml version="1.0" encoding="UTF-8" standalone="no"?>
<!DOCTYPE svg PUBLIC "-//W3C//DTD SVG 1.1//EN"
 "http://www.w3.org/Graphics/SVG/1.1/DTD/svg11.dtd">
<!-- Generated by graphviz version 2.38.0 (20140413.2041)
 -->
<!-- Title: src/core/auth/BaseAuthSource.hpp Pages: 1 -->
<svg width="177pt" height="84pt"
 viewBox="0.00 0.00 177.00 84.00" xmlns="http://www.w3.org/2000/svg" xmlns:xlink="http://www.w3.org/1999/xlink">
<g id="graph0" class="graph" transform="scale(1 1) rotate(0) translate(4 80)">
<title>src/core/auth/BaseAuthSource.hpp</title>
<polygon fill="white" stroke="none" points="-4,4 -4,-80 173,-80 173,4 -4,4"/>
<!-- Node14 -->
<g id="node1" class="node"><title>Node14</title>
<polygon fill="#bfbfbf" stroke="black" points="-1.42109e-14,-56.5 -1.42109e-14,-75.5 169,-75.5 169,-56.5 -1.42109e-14,-56.5"/>
<text text-anchor="middle" x="84.5" y="-63.5" font-family="Helvetica,sans-Serif" font-size="10.00">src/core/auth/BaseAuthSource.hpp</text>
</g>
<!-- Node15 -->
<g id="node2" class="node"><title>Node15</title>
<g id="a_node2"><a xlink:href="../../d6/d5a/BaseAuthSource_8cpp.html" target="_top" xlink:title="src/core/auth/BaseAuthSource.cpp">
<polygon fill="white" stroke="black" points="-1.42109e-14,-0.5 -1.42109e-14,-19.5 169,-19.5 169,-0.5 -1.42109e-14,-0.5"/>
<text text-anchor="middle" x="84.5" y="-7.5" font-family="Helvetica,sans-Serif" font-size="10.00">src/core/auth/BaseAuthSource.cpp</text>
</a>
</g>
</g>
<!-- Node14&#45;&gt;Node15 -->
<g id="edge1" class="edge"><title>Node14&#45;&gt;Node15</title>
<path fill="none" stroke="midnightblue" d="M84.5,-45.8045C84.5,-36.9102 84.5,-26.7798 84.5,-19.7511"/>
<polygon fill="midnightblue" stroke="midnightblue" points="81.0001,-46.083 84.5,-56.083 88.0001,-46.083 81.0001,-46.083"/>
</g>
</g>
</svg>
