<?xml version="1.0" encoding="UTF-8" standalone="no"?>
<!DOCTYPE svg PUBLIC "-//W3C//DTD SVG 1.1//EN"
 "http://www.w3.org/Graphics/SVG/1.1/DTD/svg11.dtd">
<!-- Generated by graphviz version 2.38.0 (20140413.2041)
 -->
<!-- Title: src/hardware/RFIDReader.hpp Pages: 1 -->
<!--zoomable 229 -->
<svg id="main" version="1.1" xmlns="http://www.w3.org/2000/svg" xmlns:xlink="http://www.w3.org/1999/xlink" xml:space="preserve" onload="init(evt)">
<style type="text/css"><![CDATA[
.edge:hover path { stroke: red; }
.edge:hover polygon { stroke: red; fill: red; }
]]></style>
<script type="text/javascript"><![CDATA[
var edges = document.getElementsByTagName('g');
if (edges && edges.length) {
  for (var i=0;i<edges.length;i++) {
    if (edges[i].id.substr(0,4)=='edge') {
      edges[i].setAttribute('class','edge');
    }
  }
}
]]></script>
        <defs>
                <circle id="rim" cx="0" cy="0" r="7"/>
                <circle id="rim2" cx="0" cy="0" r="3.5"/>
                <g id="zoomPlus">
                        <use xlink:href="#rim" fill="#404040">
                                <set attributeName="fill" to="#808080" begin="zoomplus.mouseover" end="zoomplus.mouseout"/>
                        </use>
                        <path d="M-4,0h8M0,-4v8" fill="none" stroke="white" stroke-width="1.5" pointer-events="none"/>
                </g>
                <g id="zoomMin">
                        <use xlink:href="#rim" fill="#404040">
                                <set attributeName="fill" to="#808080" begin="zoomminus.mouseover" end="zoomminus.mouseout"/>
                        </use>
                        <path d="M-4,0h8" fill="none" stroke="white" stroke-width="1.5" pointer-events="none"/>
                </g>
                <g id="dirArrow">
                        <path fill="none" stroke="white" stroke-width="1.5" d="M0,-3.0v7 M-2.5,-0.5L0,-3.0L2.5,-0.5"/>
                </g>
               <g id="resetDef">
                       <use xlink:href="#rim2" fill="#404040">
                               <set attributeName="fill" to="#808080" begin="reset.mouseover" end="reset.mouseout"/>
                       </use>
               </g>
        </defs>

<script type="text/javascript">
var viewWidth = 613;
var viewHeight = 229;
var sectionId = 'dynsection-1';
</script>
<script xlink:href="../../svgpan.js"/>
<svg id="graph" class="graph">
<g id="viewport">
<title>src/hardware/RFIDReader.hpp</title>
<polygon fill="white" stroke="none" points="-4,4 -4,-225 608.5,-225 608.5,4 -4,4"/>
<!-- Node12 -->
<g id="node1" class="node"><title>Node12</title>
<polygon fill="#bfbfbf" stroke="black" points="160,-201.5 160,-220.5 310,-220.5 310,-201.5 160,-201.5"/>
<text text-anchor="middle" x="235" y="-208.5" font-family="Helvetica,sans-Serif" font-size="10.00">src/hardware/RFIDReader.hpp</text>
</g>
<!-- Node13 -->
<g id="node2" class="node"><title>Node13</title>
<g id="a_node2"><a xlink:href="../../d9/d0d/RFIDReader_8cpp.html" target="_top" xlink:title="src/hardware/RFIDReader.cpp">
<polygon fill="white" stroke="black" points="-1.42109e-14,-140 -1.42109e-14,-159 150,-159 150,-140 -1.42109e-14,-140"/>
<text text-anchor="middle" x="75" y="-147" font-family="Helvetica,sans-Serif" font-size="10.00">src/hardware/RFIDReader.cpp</text>
</a>
</g>
</g>
<!-- Node12&#45;&gt;Node13 -->
<g id="edge1" class="edge"><title>Node12&#45;&gt;Node13</title>
<path fill="none" stroke="midnightblue" d="M202.551,-197.933C171.453,-186.368 125.308,-169.208 97.8816,-159.009"/>
<polygon fill="midnightblue" stroke="midnightblue" points="201.483,-201.27 212.076,-201.475 203.923,-194.709 201.483,-201.27"/>
</g>
<!-- Node14 -->
<g id="node3" class="node"><title>Node14</title>
<g id="a_node3"><a xlink:href="../../d7/d0c/RFIDReaderSerializer_8hpp.html" target="_top" xlink:title="src/hardware/serializers\l/RFIDReaderSerializer.hpp">
<polygon fill="white" stroke="black" points="168,-134.5 168,-164.5 302,-164.5 302,-134.5 168,-134.5"/>
<text text-anchor="start" x="176" y="-152.5" font-family="Helvetica,sans-Serif" font-size="10.00">src/hardware/serializers</text>
<text text-anchor="middle" x="235" y="-141.5" font-family="Helvetica,sans-Serif" font-size="10.00">/RFIDReaderSerializer.hpp</text>
</a>
</g>
</g>
<!-- Node12&#45;&gt;Node14 -->
<g id="edge2" class="edge"><title>Node12&#45;&gt;Node14</title>
<path fill="none" stroke="midnightblue" d="M235,-191.235C235,-182.586 235,-172.497 235,-164.523"/>
<polygon fill="midnightblue" stroke="midnightblue" points="231.5,-191.475 235,-201.475 238.5,-191.475 231.5,-191.475"/>
</g>
<!-- Node17 -->
<g id="node6" class="node"><title>Node17</title>
<g id="a_node6"><a xlink:href="../../d8/df5/WiegandConfig_8hpp.html" target="_top" xlink:title="src/modules/wiegand\l/WiegandConfig.hpp">
<polygon fill="white" stroke="black" points="326.5,-134.5 326.5,-164.5 435.5,-164.5 435.5,-134.5 326.5,-134.5"/>
<text text-anchor="start" x="334.5" y="-152.5" font-family="Helvetica,sans-Serif" font-size="10.00">src/modules/wiegand</text>
<text text-anchor="middle" x="381" y="-141.5" font-family="Helvetica,sans-Serif" font-size="10.00">/WiegandConfig.hpp</text>
</a>
</g>
</g>
<!-- Node12&#45;&gt;Node17 -->
<g id="edge5" class="edge"><title>Node12&#45;&gt;Node17</title>
<path fill="none" stroke="midnightblue" d="M265.452,-197.59C289.124,-187.942 321.968,-174.558 346.591,-164.523"/>
<polygon fill="midnightblue" stroke="midnightblue" points="263.858,-194.46 255.918,-201.475 266.5,-200.942 263.858,-194.46"/>
</g>
<!-- Node15 -->
<g id="node4" class="node"><title>Node15</title>
<g id="a_node4"><a xlink:href="../../d3/d50/RFIDReaderSerializer_8cpp.html" target="_top" xlink:title="src/hardware/serializers\l/RFIDReaderSerializer.cpp">
<polygon fill="white" stroke="black" points="73,-67.5 73,-97.5 207,-97.5 207,-67.5 73,-67.5"/>
<text text-anchor="start" x="81" y="-85.5" font-family="Helvetica,sans-Serif" font-size="10.00">src/hardware/serializers</text>
<text text-anchor="middle" x="140" y="-74.5" font-family="Helvetica,sans-Serif" font-size="10.00">/RFIDReaderSerializer.cpp</text>
</a>
</g>
</g>
<!-- Node14&#45;&gt;Node15 -->
<g id="edge3" class="edge"><title>Node14&#45;&gt;Node15</title>
<path fill="none" stroke="midnightblue" d="M206.111,-128.734C191.41,-118.676 173.885,-106.685 160.573,-97.5765"/>
<polygon fill="midnightblue" stroke="midnightblue" points="204.157,-131.638 214.386,-134.396 208.11,-125.861 204.157,-131.638"/>
</g>
<!-- Node16 -->
<g id="node5" class="node"><title>Node16</title>
<g id="a_node5"><a xlink:href="../../d6/d48/WiegandConfigSerializer_8cpp.html" target="_top" xlink:title="src/modules/wiegand\l/ws/WiegandConfigSerializer.cpp">
<polygon fill="white" stroke="black" points="151.5,-0.5 151.5,-30.5 312.5,-30.5 312.5,-0.5 151.5,-0.5"/>
<text text-anchor="start" x="159.5" y="-18.5" font-family="Helvetica,sans-Serif" font-size="10.00">src/modules/wiegand</text>
<text text-anchor="middle" x="232" y="-7.5" font-family="Helvetica,sans-Serif" font-size="10.00">/ws/WiegandConfigSerializer.cpp</text>
</a>
</g>
</g>
<!-- Node14&#45;&gt;Node16 -->
<g id="edge4" class="edge"><title>Node14&#45;&gt;Node16</title>
<path fill="none" stroke="midnightblue" d="M234.444,-124.024C233.818,-96.5121 232.825,-52.7894 232.319,-30.5247"/>
<polygon fill="midnightblue" stroke="midnightblue" points="230.953,-124.456 234.679,-134.374 237.951,-124.297 230.953,-124.456"/>
</g>
<!-- Node18 -->
<g id="node7" class="node"><title>Node18</title>
<g id="a_node7"><a xlink:href="../../de/d9c/WiegandConfigSerializer_8hpp.html" target="_top" xlink:title="src/modules/wiegand\l/ws/WiegandConfigSerializer.hpp">
<polygon fill="white" stroke="black" points="300.5,-67.5 300.5,-97.5 461.5,-97.5 461.5,-67.5 300.5,-67.5"/>
<text text-anchor="start" x="308.5" y="-85.5" font-family="Helvetica,sans-Serif" font-size="10.00">src/modules/wiegand</text>
<text text-anchor="middle" x="381" y="-74.5" font-family="Helvetica,sans-Serif" font-size="10.00">/ws/WiegandConfigSerializer.hpp</text>
</a>
</g>
</g>
<!-- Node17&#45;&gt;Node18 -->
<g id="edge6" class="edge"><title>Node17&#45;&gt;Node18</title>
<path fill="none" stroke="midnightblue" d="M381,-124.108C381,-115.154 381,-105.323 381,-97.5765"/>
<polygon fill="midnightblue" stroke="midnightblue" points="377.5,-124.396 381,-134.396 384.5,-124.396 377.5,-124.396"/>
</g>
<!-- Node21 -->
<g id="node10" class="node"><title>Node21</title>
<g id="a_node10"><a xlink:href="../../d4/d9b/WiegandReader_8cpp.html" target="_top" xlink:title="test/WiegandReader.cpp">
<polygon fill="white" stroke="black" points="479.5,-73 479.5,-92 604.5,-92 604.5,-73 479.5,-73"/>
<text text-anchor="middle" x="542" y="-80" font-family="Helvetica,sans-Serif" font-size="10.00">test/WiegandReader.cpp</text>
</a>
</g>
</g>
<!-- Node17&#45;&gt;Node21 -->
<g id="edge10" class="edge"><title>Node17&#45;&gt;Node21</title>
<path fill="none" stroke="midnightblue" d="M425.284,-130.621C456.446,-118.04 496.756,-101.766 520.929,-92.007"/>
<polygon fill="midnightblue" stroke="midnightblue" points="423.897,-127.407 415.935,-134.396 426.518,-133.898 423.897,-127.407"/>
</g>
<!-- Node18&#45;&gt;Node16 -->
<g id="edge9" class="edge"><title>Node18&#45;&gt;Node16</title>
<path fill="none" stroke="midnightblue" d="M339.208,-63.2687C315.476,-52.9159 286.22,-40.1528 264.268,-30.5765"/>
<polygon fill="midnightblue" stroke="midnightblue" points="338.104,-66.6054 348.669,-67.396 340.903,-60.1894 338.104,-66.6054"/>
</g>
<!-- Node19 -->
<g id="node8" class="node"><title>Node19</title>
<g id="a_node8"><a xlink:href="../../d3/de8/wiegand_8cpp.html" target="_top" xlink:title="src/modules/wiegand\l/wiegand.cpp">
<polygon fill="white" stroke="black" points="330.5,-0.5 330.5,-30.5 439.5,-30.5 439.5,-0.5 330.5,-0.5"/>
<text text-anchor="start" x="338.5" y="-18.5" font-family="Helvetica,sans-Serif" font-size="10.00">src/modules/wiegand</text>
<text text-anchor="middle" x="385" y="-7.5" font-family="Helvetica,sans-Serif" font-size="10.00">/wiegand.cpp</text>
</a>
</g>
</g>
<!-- Node18&#45;&gt;Node19 -->
<g id="edge7" class="edge"><title>Node18&#45;&gt;Node19</title>
<path fill="none" stroke="midnightblue" d="M382.483,-57.4029C383.039,-48.3703 383.652,-38.4078 384.134,-30.5765"/>
<polygon fill="midnightblue" stroke="midnightblue" points="378.989,-57.1998 381.868,-67.396 385.976,-57.6299 378.989,-57.1998"/>
</g>
<!-- Node20 -->
<g id="node9" class="node"><title>Node20</title>
<g id="a_node9"><a xlink:href="../../d9/d74/wiegand_2ws_2CRUDHandler_8cpp.html" target="_top" xlink:title="src/modules/wiegand\l/ws/CRUDHandler.cpp">
<polygon fill="white" stroke="black" points="458,-0.5 458,-30.5 576,-30.5 576,-0.5 458,-0.5"/>
<text text-anchor="start" x="466" y="-18.5" font-family="Helvetica,sans-Serif" font-size="10.00">src/modules/wiegand</text>
<text text-anchor="middle" x="517" y="-7.5" font-family="Helvetica,sans-Serif" font-size="10.00">/ws/CRUDHandler.cpp</text>
</a>
</g>
</g>
<!-- Node18&#45;&gt;Node20 -->
<g id="edge8" class="edge"><title>Node18&#45;&gt;Node20</title>
<path fill="none" stroke="midnightblue" d="M419.724,-62.9921C441.281,-52.6892 467.689,-40.0677 487.548,-30.5765"/>
<polygon fill="midnightblue" stroke="midnightblue" points="418.023,-59.9258 410.51,-67.396 421.042,-66.2416 418.023,-59.9258"/>
</g>
</g>
</svg>
        <g id="navigator" transform="translate(0 0)" fill="#404254">
                <rect fill="#f2f5e9" fill-opacity="0.5" stroke="#606060" stroke-width=".5" x="0" y="0" width="60" height="60"/>
                <use id="zoomplus" xlink:href="#zoomPlus" x="17" y="9" onmousedown="handleZoom(evt,'in')"/>
                <use id="zoomminus" xlink:href="#zoomMin" x="42" y="9" onmousedown="handleZoom(evt,'out')"/>
                <use id="reset" xlink:href="#resetDef" x="30" y="36" onmousedown="handleReset()"/>
                <g id="arrowUp" xlink:href="#dirArrow" transform="translate(30 24)" onmousedown="handlePan(0,-1)">
                  <use xlink:href="#rim" fill="#404040">
                        <set attributeName="fill" to="#808080" begin="arrowUp.mouseover" end="arrowUp.mouseout"/>
                  </use>
                  <path fill="none" stroke="white" stroke-width="1.5" d="M0,-3.0v7 M-2.5,-0.5L0,-3.0L2.5,-0.5"/>
                </g>
                <g id="arrowRight" xlink:href="#dirArrow" transform="rotate(90) translate(36 -43)" onmousedown="handlePan(1,0)">
                  <use xlink:href="#rim" fill="#404040">
                        <set attributeName="fill" to="#808080" begin="arrowRight.mouseover" end="arrowRight.mouseout"/>
                  </use>
                  <path fill="none" stroke="white" stroke-width="1.5" d="M0,-3.0v7 M-2.5,-0.5L0,-3.0L2.5,-0.5"/>
                </g>
                <g id="arrowDown" xlink:href="#dirArrow" transform="rotate(180) translate(-30 -48)" onmousedown="handlePan(0,1)">
                  <use xlink:href="#rim" fill="#404040">
                        <set attributeName="fill" to="#808080" begin="arrowDown.mouseover" end="arrowDown.mouseout"/>
                  </use>
                  <path fill="none" stroke="white" stroke-width="1.5" d="M0,-3.0v7 M-2.5,-0.5L0,-3.0L2.5,-0.5"/>
                </g>
                <g id="arrowLeft" xlink:href="#dirArrow" transform="rotate(270) translate(-36 17)" onmousedown="handlePan(-1,0)">
                  <use xlink:href="#rim" fill="#404040">
                        <set attributeName="fill" to="#808080" begin="arrowLeft.mouseover" end="arrowLeft.mouseout"/>
                  </use>
                  <path fill="none" stroke="white" stroke-width="1.5" d="M0,-3.0v7 M-2.5,-0.5L0,-3.0L2.5,-0.5"/>
                </g>
        </g>
        <svg viewBox="0 0 15 15" width="100%" height="30px" preserveAspectRatio="xMaxYMin meet">
         <g id="arrow_out" transform="scale(0.3 0.3)">
          <a xlink:href="RFIDReader_8hpp__dep__incl_org.svg" target="_base">
           <rect id="button" ry="5" rx="5" y="6" x="6" height="38" width="38"
                fill="#f2f5e9" fill-opacity="0.5" stroke="#606060" stroke-width="1.0"/>
           <path id="arrow"
             d="M 11.500037,31.436501 C 11.940474,20.09759 22.043105,11.32322 32.158766,21.979434 L 37.068811,17.246167 C 37.068811,17.246167 37.088388,32 37.088388,32 L 22.160133,31.978069 C 22.160133,31.978069 26.997745,27.140456 26.997745,27.140456 C 18.528582,18.264221 13.291696,25.230495 11.500037,31.436501 z"
             style="fill:#404040;"/>
          </a>
         </g>
        </svg>
</svg>
