<?xml version="1.0" encoding="UTF-8" standalone="no"?>
<!DOCTYPE svg PUBLIC "-//W3C//DTD SVG 1.1//EN"
 "http://www.w3.org/Graphics/SVG/1.1/DTD/svg11.dtd">
<!-- Generated by graphviz version 2.38.0 (20140413.2041)
 -->
<!-- Title: src/modules/instrumentation/InstrumentationModule.hpp Pages: 1 -->
<svg width="306pt" height="106pt"
 viewBox="0.00 0.00 306.00 106.00" xmlns="http://www.w3.org/2000/svg" xmlns:xlink="http://www.w3.org/1999/xlink">
<g id="graph0" class="graph" transform="scale(1 1) rotate(0) translate(4 102)">
<title>src/modules/instrumentation/InstrumentationModule.hpp</title>
<polygon fill="white" stroke="none" points="-4,4 -4,-102 302,-102 302,4 -4,4"/>
<!-- Node34 -->
<g id="node1" class="node"><title>Node34</title>
<polygon fill="#bfbfbf" stroke="black" points="79,-67.5 79,-97.5 219,-97.5 219,-67.5 79,-67.5"/>
<text text-anchor="start" x="87" y="-85.5" font-family="Helvetica,sans-Serif" font-size="10.00">src/modules/instrumentation</text>
<text text-anchor="middle" x="149" y="-74.5" font-family="Helvetica,sans-Serif" font-size="10.00">/InstrumentationModule.hpp</text>
</g>
<!-- Node35 -->
<g id="node2" class="node"><title>Node35</title>
<g id="a_node2"><a xlink:href="../../d7/ded/instrumentation_2init_8cpp.html" target="_top" xlink:title="src/modules/instrumentation\l/init.cpp">
<polygon fill="white" stroke="black" points="0,-0.5 0,-30.5 140,-30.5 140,-0.5 0,-0.5"/>
<text text-anchor="start" x="8" y="-18.5" font-family="Helvetica,sans-Serif" font-size="10.00">src/modules/instrumentation</text>
<text text-anchor="middle" x="70" y="-7.5" font-family="Helvetica,sans-Serif" font-size="10.00">/init.cpp</text>
</a>
</g>
</g>
<!-- Node34&#45;&gt;Node35 -->
<g id="edge1" class="edge"><title>Node34&#45;&gt;Node35</title>
<path fill="none" stroke="midnightblue" d="M123.943,-60.8832C111.937,-51.0054 97.8679,-39.4293 87.1084,-30.5765"/>
<polygon fill="midnightblue" stroke="midnightblue" points="121.912,-63.745 131.858,-67.396 126.36,-58.3395 121.912,-63.745"/>
</g>
<!-- Node36 -->
<g id="node3" class="node"><title>Node36</title>
<g id="a_node3"><a xlink:href="../../db/d83/InstrumentationModule_8cpp.html" target="_top" xlink:title="src/modules/instrumentation\l/InstrumentationModule.cpp">
<polygon fill="white" stroke="black" points="158,-0.5 158,-30.5 298,-30.5 298,-0.5 158,-0.5"/>
<text text-anchor="start" x="166" y="-18.5" font-family="Helvetica,sans-Serif" font-size="10.00">src/modules/instrumentation</text>
<text text-anchor="middle" x="228" y="-7.5" font-family="Helvetica,sans-Serif" font-size="10.00">/InstrumentationModule.cpp</text>
</a>
</g>
</g>
<!-- Node34&#45;&gt;Node36 -->
<g id="edge2" class="edge"><title>Node34&#45;&gt;Node36</title>
<path fill="none" stroke="midnightblue" d="M174.057,-60.8832C186.063,-51.0054 200.132,-39.4293 210.892,-30.5765"/>
<polygon fill="midnightblue" stroke="midnightblue" points="171.64,-58.3395 166.142,-67.396 176.088,-63.745 171.64,-58.3395"/>
</g>
</g>
</svg>
