<?xml version="1.0" encoding="UTF-8" standalone="no"?>
<!DOCTYPE svg PUBLIC "-//W3C//DTD SVG 1.1//EN"
 "http://www.w3.org/Graphics/SVG/1.1/DTD/svg11.dtd">
<!-- Generated by graphviz version 2.38.0 (20140413.2041)
 -->
<!-- Title: src/core/audit/serializers/JSONService.hpp Pages: 1 -->
<svg width="476pt" height="106pt"
 viewBox="0.00 0.00 475.50 106.00" xmlns="http://www.w3.org/2000/svg" xmlns:xlink="http://www.w3.org/1999/xlink">
<g id="graph0" class="graph" transform="scale(1 1) rotate(0) translate(4 102)">
<title>src/core/audit/serializers/JSONService.hpp</title>
<polygon fill="white" stroke="none" points="-4,4 -4,-102 471.5,-102 471.5,4 -4,4"/>
<!-- Node50 -->
<g id="node1" class="node"><title>Node50</title>
<polygon fill="#bfbfbf" stroke="black" points="162,-67.5 162,-97.5 285,-97.5 285,-67.5 162,-67.5"/>
<text text-anchor="start" x="170" y="-85.5" font-family="Helvetica,sans-Serif" font-size="10.00">src/core/audit/serializers</text>
<text text-anchor="middle" x="223.5" y="-74.5" font-family="Helvetica,sans-Serif" font-size="10.00">/JSONService.hpp</text>
</g>
<!-- Node51 -->
<g id="node2" class="node"><title>Node51</title>
<g id="a_node2"><a xlink:href="../../d5/dce/PolymorphicAuditSerializer_8cpp.html" target="_top" xlink:title="src/core/audit/serializers\l/PolymorphicAuditSerializer.cpp">
<polygon fill="white" stroke="black" points="0,-0.5 0,-30.5 155,-30.5 155,-0.5 0,-0.5"/>
<text text-anchor="start" x="8" y="-18.5" font-family="Helvetica,sans-Serif" font-size="10.00">src/core/audit/serializers</text>
<text text-anchor="middle" x="77.5" y="-7.5" font-family="Helvetica,sans-Serif" font-size="10.00">/PolymorphicAuditSerializer.cpp</text>
</a>
</g>
</g>
<!-- Node50&#45;&gt;Node51 -->
<g id="edge1" class="edge"><title>Node50&#45;&gt;Node51</title>
<path fill="none" stroke="midnightblue" d="M182.55,-63.2687C159.296,-52.9159 130.628,-40.1528 109.118,-30.5765"/>
<polygon fill="midnightblue" stroke="midnightblue" points="181.261,-66.5262 191.82,-67.396 184.108,-60.1313 181.261,-66.5262"/>
</g>
<!-- Node52 -->
<g id="node3" class="node"><title>Node52</title>
<g id="a_node3"><a xlink:href="../../dd/d24/kernel_8cpp.html" target="_top" xlink:title="src/core/kernel.cpp">
<polygon fill="white" stroke="black" points="173.5,-6 173.5,-25 273.5,-25 273.5,-6 173.5,-6"/>
<text text-anchor="middle" x="223.5" y="-13" font-family="Helvetica,sans-Serif" font-size="10.00">src/core/kernel.cpp</text>
</a>
</g>
</g>
<!-- Node50&#45;&gt;Node52 -->
<g id="edge2" class="edge"><title>Node50&#45;&gt;Node52</title>
<path fill="none" stroke="midnightblue" d="M223.5,-57.2495C223.5,-46.017 223.5,-33.3767 223.5,-25.1945"/>
<polygon fill="midnightblue" stroke="midnightblue" points="220,-57.3959 223.5,-67.396 227,-57.396 220,-57.3959"/>
</g>
<!-- Node53 -->
<g id="node4" class="node"><title>Node53</title>
<g id="a_node4"><a xlink:href="../../da/d6f/SMTPModule_8cpp.html" target="_top" xlink:title="src/modules/smtp/SMTPModule.cpp">
<polygon fill="white" stroke="black" points="291.5,-6 291.5,-25 467.5,-25 467.5,-6 291.5,-6"/>
<text text-anchor="middle" x="379.5" y="-13" font-family="Helvetica,sans-Serif" font-size="10.00">src/modules/smtp/SMTPModule.cpp</text>
</a>
</g>
</g>
<!-- Node50&#45;&gt;Node53 -->
<g id="edge3" class="edge"><title>Node50&#45;&gt;Node53</title>
<path fill="none" stroke="midnightblue" d="M266.8,-63.4585C296.94,-50.9001 335.762,-34.724 359.083,-25.007"/>
<polygon fill="midnightblue" stroke="midnightblue" points="265.234,-60.319 257.35,-67.396 267.927,-66.7805 265.234,-60.319"/>
</g>
</g>
</svg>
