<?xml version="1.0" encoding="UTF-8" standalone="no"?>
<!DOCTYPE svg PUBLIC "-//W3C//DTD SVG 1.1//EN"
 "http://www.w3.org/Graphics/SVG/1.1/DTD/svg11.dtd">
<!-- Generated by graphviz version 2.38.0 (20140413.2041)
 -->
<!-- Title: src/tools/XmlScheduleLoader.hpp Pages: 1 -->
<svg width="424pt" height="207pt"
 viewBox="0.00 0.00 423.50 207.00" xmlns="http://www.w3.org/2000/svg" xmlns:xlink="http://www.w3.org/1999/xlink">
<g id="graph0" class="graph" transform="scale(1 1) rotate(0) translate(4 203)">
<title>src/tools/XmlScheduleLoader.hpp</title>
<polygon fill="white" stroke="none" points="-4,4 -4,-203 419.5,-203 419.5,4 -4,4"/>
<!-- Node0 -->
<g id="node1" class="node"><title>Node0</title>
<polygon fill="#bfbfbf" stroke="black" points="230.5,-179.5 230.5,-198.5 393.5,-198.5 393.5,-179.5 230.5,-179.5"/>
<text text-anchor="middle" x="312" y="-186.5" font-family="Helvetica,sans-Serif" font-size="10.00">src/tools/XmlScheduleLoader.hpp</text>
</g>
<!-- Node1 -->
<g id="node2" class="node"><title>Node1</title>
<g id="a_node2"><a xlink:href="../../d6/dab/ISchedule_8hpp.html" target="_top" xlink:title="tools/ISchedule.hpp">
<polygon fill="white" stroke="black" points="140.5,-118 140.5,-137 243.5,-137 243.5,-118 140.5,-118"/>
<text text-anchor="middle" x="192" y="-125" font-family="Helvetica,sans-Serif" font-size="10.00">tools/ISchedule.hpp</text>
</a>
</g>
</g>
<!-- Node0&#45;&gt;Node1 -->
<g id="edge1" class="edge"><title>Node0&#45;&gt;Node1</title>
<path fill="none" stroke="midnightblue" d="M294.807,-179.475C274.757,-169.534 241.401,-152.995 218.14,-141.461"/>
<polygon fill="midnightblue" stroke="midnightblue" points="219.675,-138.316 209.161,-137.009 216.566,-144.587 219.675,-138.316"/>
</g>
<!-- Node8 -->
<g id="node9" class="node"><title>Node8</title>
<polygon fill="white" stroke="#bfbfbf" points="261.5,-112.5 261.5,-142.5 362.5,-142.5 362.5,-112.5 261.5,-112.5"/>
<text text-anchor="start" x="269.5" y="-130.5" font-family="Helvetica,sans-Serif" font-size="10.00">boost/property_tree</text>
<text text-anchor="middle" x="312" y="-119.5" font-family="Helvetica,sans-Serif" font-size="10.00">/ptree_fwd.hpp</text>
</g>
<!-- Node0&#45;&gt;Node8 -->
<g id="edge8" class="edge"><title>Node0&#45;&gt;Node8</title>
<path fill="none" stroke="midnightblue" d="M312,-179.475C312,-172.471 312,-162.192 312,-152.696"/>
<polygon fill="midnightblue" stroke="midnightblue" points="315.5,-152.523 312,-142.523 308.5,-152.523 315.5,-152.523"/>
</g>
<!-- Node9 -->
<g id="node10" class="node"><title>Node9</title>
<polygon fill="white" stroke="#bfbfbf" points="380.5,-118 380.5,-137 415.5,-137 415.5,-118 380.5,-118"/>
<text text-anchor="middle" x="398" y="-125" font-family="Helvetica,sans-Serif" font-size="10.00">map</text>
</g>
<!-- Node0&#45;&gt;Node9 -->
<g id="edge9" class="edge"><title>Node0&#45;&gt;Node9</title>
<path fill="none" stroke="midnightblue" d="M324.322,-179.475C338.116,-169.931 360.699,-154.307 377.232,-142.868"/>
<polygon fill="midnightblue" stroke="midnightblue" points="379.469,-145.577 385.701,-137.009 375.486,-139.82 379.469,-145.577"/>
</g>
<!-- Node2 -->
<g id="node3" class="node"><title>Node2</title>
<g id="a_node3"><a xlink:href="../../d8/d97/ToolsFwd_8hpp.html" target="_top" xlink:title="tools/ToolsFwd.hpp">
<polygon fill="white" stroke="black" points="18,-56.5 18,-75.5 120,-75.5 120,-56.5 18,-56.5"/>
<text text-anchor="middle" x="69" y="-63.5" font-family="Helvetica,sans-Serif" font-size="10.00">tools/ToolsFwd.hpp</text>
</a>
</g>
</g>
<!-- Node1&#45;&gt;Node2 -->
<g id="edge2" class="edge"><title>Node1&#45;&gt;Node2</title>
<path fill="none" stroke="midnightblue" d="M174.377,-117.975C153.826,-108.034 119.636,-91.4947 95.7933,-79.961"/>
<polygon fill="midnightblue" stroke="midnightblue" points="97.1164,-76.7131 86.5902,-75.5091 94.0681,-83.0145 97.1164,-76.7131"/>
</g>
<!-- Node5 -->
<g id="node6" class="node"><title>Node5</title>
<polygon fill="white" stroke="#bfbfbf" points="138,-56.5 138,-75.5 184,-75.5 184,-56.5 138,-56.5"/>
<text text-anchor="middle" x="161" y="-63.5" font-family="Helvetica,sans-Serif" font-size="10.00">chrono</text>
</g>
<!-- Node1&#45;&gt;Node5 -->
<g id="edge5" class="edge"><title>Node1&#45;&gt;Node5</title>
<path fill="none" stroke="midnightblue" d="M187.558,-117.975C183.047,-109.315 175.926,-95.6486 170.193,-84.6453"/>
<polygon fill="midnightblue" stroke="midnightblue" points="173.158,-82.7604 165.433,-75.5091 166.95,-85.9948 173.158,-82.7604"/>
</g>
<!-- Node6 -->
<g id="node7" class="node"><title>Node6</title>
<polygon fill="white" stroke="#bfbfbf" points="202.5,-56.5 202.5,-75.5 243.5,-75.5 243.5,-56.5 202.5,-56.5"/>
<text text-anchor="middle" x="223" y="-63.5" font-family="Helvetica,sans-Serif" font-size="10.00">string</text>
</g>
<!-- Node1&#45;&gt;Node6 -->
<g id="edge6" class="edge"><title>Node1&#45;&gt;Node6</title>
<path fill="none" stroke="midnightblue" d="M196.442,-117.975C200.953,-109.315 208.074,-95.6486 213.807,-84.6453"/>
<polygon fill="midnightblue" stroke="midnightblue" points="217.05,-85.9948 218.567,-75.5091 210.842,-82.7604 217.05,-85.9948"/>
</g>
<!-- Node7 -->
<g id="node8" class="node"><title>Node7</title>
<polygon fill="white" stroke="#bfbfbf" points="262,-56.5 262,-75.5 306,-75.5 306,-56.5 262,-56.5"/>
<text text-anchor="middle" x="284" y="-63.5" font-family="Helvetica,sans-Serif" font-size="10.00">vector</text>
</g>
<!-- Node1&#45;&gt;Node7 -->
<g id="edge7" class="edge"><title>Node1&#45;&gt;Node7</title>
<path fill="none" stroke="midnightblue" d="M205.181,-117.975C220.074,-108.343 244.544,-92.5175 262.273,-81.0517"/>
<polygon fill="midnightblue" stroke="midnightblue" points="264.347,-83.8787 270.843,-75.5091 260.545,-78.0008 264.347,-83.8787"/>
</g>
<!-- Node3 -->
<g id="node4" class="node"><title>Node3</title>
<polygon fill="white" stroke="#bfbfbf" points="0,-0.5 0,-19.5 52,-19.5 52,-0.5 0,-0.5"/>
<text text-anchor="middle" x="26" y="-7.5" font-family="Helvetica,sans-Serif" font-size="10.00">memory</text>
</g>
<!-- Node2&#45;&gt;Node3 -->
<g id="edge3" class="edge"><title>Node2&#45;&gt;Node3</title>
<path fill="none" stroke="midnightblue" d="M61.8994,-56.083C55.763,-48.3768 46.7303,-37.0333 39.2608,-27.6531"/>
<polygon fill="midnightblue" stroke="midnightblue" points="41.9357,-25.3936 32.9685,-19.7511 36.4598,-29.7542 41.9357,-25.3936"/>
</g>
<!-- Node4 -->
<g id="node5" class="node"><title>Node4</title>
<polygon fill="white" stroke="#bfbfbf" points="70,-0.5 70,-19.5 156,-19.5 156,-0.5 70,-0.5"/>
<text text-anchor="middle" x="113" y="-7.5" font-family="Helvetica,sans-Serif" font-size="10.00">odb/lazy&#45;ptr.hxx</text>
</g>
<!-- Node2&#45;&gt;Node4 -->
<g id="edge4" class="edge"><title>Node2&#45;&gt;Node4</title>
<path fill="none" stroke="midnightblue" d="M76.2657,-56.083C82.5448,-48.3768 91.7876,-37.0333 99.4308,-27.6531"/>
<polygon fill="midnightblue" stroke="midnightblue" points="102.266,-29.7143 105.869,-19.7511 96.8394,-25.2926 102.266,-29.7143"/>
</g>
</g>
</svg>
