<?xml version="1.0" encoding="UTF-8" standalone="no"?>
<!DOCTYPE svg PUBLIC "-//W3C//DTD SVG 1.1//EN"
 "http://www.w3.org/Graphics/SVG/1.1/DTD/svg11.dtd">
<!-- Generated by graphviz version 2.38.0 (20140413.2041)
 -->
<!-- Title: src/modules/tcp&#45;notifier/ProtocolHandler.hpp Pages: 1 -->
<svg width="608pt" height="240pt"
 viewBox="0.00 0.00 608.00 240.00" xmlns="http://www.w3.org/2000/svg" xmlns:xlink="http://www.w3.org/1999/xlink">
<g id="graph0" class="graph" transform="scale(1 1) rotate(0) translate(4 236)">
<title>src/modules/tcp&#45;notifier/ProtocolHandler.hpp</title>
<polygon fill="white" stroke="none" points="-4,4 -4,-236 604,-236 604,4 -4,4"/>
<!-- Node7 -->
<g id="node1" class="node"><title>Node7</title>
<polygon fill="#bfbfbf" stroke="black" points="309,-201.5 309,-231.5 428,-231.5 428,-201.5 309,-201.5"/>
<text text-anchor="start" x="317" y="-219.5" font-family="Helvetica,sans-Serif" font-size="10.00">src/modules/tcp&#45;notifier</text>
<text text-anchor="middle" x="368.5" y="-208.5" font-family="Helvetica,sans-Serif" font-size="10.00">/ProtocolHandler.hpp</text>
</g>
<!-- Node8 -->
<g id="node2" class="node"><title>Node8</title>
<g id="a_node2"><a xlink:href="../../df/d83/NotifierInstance_8hpp.html" target="_top" xlink:title="src/modules/tcp&#45;notifier\l/NotifierInstance.hpp">
<polygon fill="white" stroke="black" points="137,-134.5 137,-164.5 256,-164.5 256,-134.5 137,-134.5"/>
<text text-anchor="start" x="145" y="-152.5" font-family="Helvetica,sans-Serif" font-size="10.00">src/modules/tcp&#45;notifier</text>
<text text-anchor="middle" x="196.5" y="-141.5" font-family="Helvetica,sans-Serif" font-size="10.00">/NotifierInstance.hpp</text>
</a>
</g>
</g>
<!-- Node7&#45;&gt;Node8 -->
<g id="edge1" class="edge"><title>Node7&#45;&gt;Node8</title>
<path fill="none" stroke="midnightblue" d="M321.712,-197.819C294.065,-187.371 259.54,-174.323 233.749,-164.577"/>
<polygon fill="midnightblue" stroke="midnightblue" points="320.587,-201.135 331.179,-201.396 323.062,-194.587 320.587,-201.135"/>
</g>
<!-- Node13 -->
<g id="node7" class="node"><title>Node13</title>
<g id="a_node7"><a xlink:href="../../df/d3b/PushSimpleCardNumber_8hpp.html" target="_top" xlink:title="src/modules/tcp&#45;notifier\l/protocols/PushSimpleCardNumber.hpp">
<polygon fill="white" stroke="black" points="274,-134.5 274,-164.5 463,-164.5 463,-134.5 274,-134.5"/>
<text text-anchor="start" x="282" y="-152.5" font-family="Helvetica,sans-Serif" font-size="10.00">src/modules/tcp&#45;notifier</text>
<text text-anchor="middle" x="368.5" y="-141.5" font-family="Helvetica,sans-Serif" font-size="10.00">/protocols/PushSimpleCardNumber.hpp</text>
</a>
</g>
</g>
<!-- Node7&#45;&gt;Node13 -->
<g id="edge6" class="edge"><title>Node7&#45;&gt;Node13</title>
<path fill="none" stroke="midnightblue" d="M368.5,-191.108C368.5,-182.154 368.5,-172.323 368.5,-164.577"/>
<polygon fill="midnightblue" stroke="midnightblue" points="365,-191.396 368.5,-201.396 372,-191.396 365,-191.396"/>
</g>
<!-- Node14 -->
<g id="node8" class="node"><title>Node14</title>
<g id="a_node8"><a xlink:href="../../d1/de6/ProtocolHandler_8cpp.html" target="_top" xlink:title="src/modules/tcp&#45;notifier\l/ProtocolHandler.cpp">
<polygon fill="white" stroke="black" points="481,-67.5 481,-97.5 600,-97.5 600,-67.5 481,-67.5"/>
<text text-anchor="start" x="489" y="-85.5" font-family="Helvetica,sans-Serif" font-size="10.00">src/modules/tcp&#45;notifier</text>
<text text-anchor="middle" x="540.5" y="-74.5" font-family="Helvetica,sans-Serif" font-size="10.00">/ProtocolHandler.cpp</text>
</a>
</g>
</g>
<!-- Node7&#45;&gt;Node14 -->
<g id="edge10" class="edge"><title>Node7&#45;&gt;Node14</title>
<path fill="none" stroke="midnightblue" d="M415.766,-197.275C434.156,-188.958 454.78,-178.032 471.5,-165 496.651,-145.397 519.153,-115.345 531.212,-97.7343"/>
<polygon fill="midnightblue" stroke="midnightblue" points="414.141,-194.166 406.386,-201.385 416.95,-200.578 414.141,-194.166"/>
</g>
<!-- Node9 -->
<g id="node3" class="node"><title>Node9</title>
<g id="a_node3"><a xlink:href="../../d0/dd9/TcpNotifier_8hpp.html" target="_top" xlink:title="src/modules/tcp&#45;notifier\l/TcpNotifier.hpp">
<polygon fill="white" stroke="black" points="137,-67.5 137,-97.5 256,-97.5 256,-67.5 137,-67.5"/>
<text text-anchor="start" x="145" y="-85.5" font-family="Helvetica,sans-Serif" font-size="10.00">src/modules/tcp&#45;notifier</text>
<text text-anchor="middle" x="196.5" y="-74.5" font-family="Helvetica,sans-Serif" font-size="10.00">/TcpNotifier.hpp</text>
</a>
</g>
</g>
<!-- Node8&#45;&gt;Node9 -->
<g id="edge2" class="edge"><title>Node8&#45;&gt;Node9</title>
<path fill="none" stroke="midnightblue" d="M196.5,-124.108C196.5,-115.154 196.5,-105.323 196.5,-97.5765"/>
<polygon fill="midnightblue" stroke="midnightblue" points="193,-124.396 196.5,-134.396 200,-124.396 193,-124.396"/>
</g>
<!-- Node12 -->
<g id="node6" class="node"><title>Node12</title>
<g id="a_node6"><a xlink:href="../../d2/d99/NotifierInstance_8cpp.html" target="_top" xlink:title="src/modules/tcp&#45;notifier\l/NotifierInstance.cpp">
<polygon fill="white" stroke="black" points="0,-67.5 0,-97.5 119,-97.5 119,-67.5 0,-67.5"/>
<text text-anchor="start" x="8" y="-85.5" font-family="Helvetica,sans-Serif" font-size="10.00">src/modules/tcp&#45;notifier</text>
<text text-anchor="middle" x="59.5" y="-74.5" font-family="Helvetica,sans-Serif" font-size="10.00">/NotifierInstance.cpp</text>
</a>
</g>
</g>
<!-- Node8&#45;&gt;Node12 -->
<g id="edge5" class="edge"><title>Node8&#45;&gt;Node12</title>
<path fill="none" stroke="midnightblue" d="M157.491,-129.992C135.776,-119.689 109.173,-107.068 89.1689,-97.5765"/>
<polygon fill="midnightblue" stroke="midnightblue" points="156.238,-133.272 166.773,-134.396 159.239,-126.947 156.238,-133.272"/>
</g>
<!-- Node10 -->
<g id="node4" class="node"><title>Node10</title>
<g id="a_node4"><a xlink:href="../../dc/d63/tcp-notifier_2init_8cpp.html" target="_top" xlink:title="src/modules/tcp&#45;notifier\l/init.cpp">
<polygon fill="white" stroke="black" points="68,-0.5 68,-30.5 187,-30.5 187,-0.5 68,-0.5"/>
<text text-anchor="start" x="76" y="-18.5" font-family="Helvetica,sans-Serif" font-size="10.00">src/modules/tcp&#45;notifier</text>
<text text-anchor="middle" x="127.5" y="-7.5" font-family="Helvetica,sans-Serif" font-size="10.00">/init.cpp</text>
</a>
</g>
</g>
<!-- Node9&#45;&gt;Node10 -->
<g id="edge3" class="edge"><title>Node9&#45;&gt;Node10</title>
<path fill="none" stroke="midnightblue" d="M174.008,-60.3115C163.657,-50.5612 151.66,-39.259 142.443,-30.5765"/>
<polygon fill="midnightblue" stroke="midnightblue" points="171.849,-63.0866 181.528,-67.396 176.649,-57.9914 171.849,-63.0866"/>
</g>
<!-- Node11 -->
<g id="node5" class="node"><title>Node11</title>
<g id="a_node5"><a xlink:href="../../d0/df4/TcpNotifier_8cpp.html" target="_top" xlink:title="src/modules/tcp&#45;notifier\l/TcpNotifier.cpp">
<polygon fill="white" stroke="black" points="205,-0.5 205,-30.5 324,-30.5 324,-0.5 205,-0.5"/>
<text text-anchor="start" x="213" y="-18.5" font-family="Helvetica,sans-Serif" font-size="10.00">src/modules/tcp&#45;notifier</text>
<text text-anchor="middle" x="264.5" y="-7.5" font-family="Helvetica,sans-Serif" font-size="10.00">/TcpNotifier.cpp</text>
</a>
</g>
</g>
<!-- Node9&#45;&gt;Node11 -->
<g id="edge4" class="edge"><title>Node9&#45;&gt;Node11</title>
<path fill="none" stroke="midnightblue" d="M218.666,-60.3115C228.867,-50.5612 240.691,-39.259 249.774,-30.5765"/>
<polygon fill="midnightblue" stroke="midnightblue" points="216.065,-57.9561 211.255,-67.396 220.902,-63.0162 216.065,-57.9561"/>
</g>
<!-- Node13&#45;&gt;Node9 -->
<g id="edge7" class="edge"><title>Node13&#45;&gt;Node9</title>
<path fill="none" stroke="midnightblue" d="M321.712,-130.819C294.065,-120.371 259.54,-107.323 233.749,-97.5765"/>
<polygon fill="midnightblue" stroke="midnightblue" points="320.587,-134.135 331.179,-134.396 323.062,-127.587 320.587,-134.135"/>
</g>
<!-- Node13&#45;&gt;Node14 -->
<g id="edge8" class="edge"><title>Node13&#45;&gt;Node14</title>
<path fill="none" stroke="midnightblue" d="M415.288,-130.819C442.935,-120.371 477.46,-107.323 503.251,-97.5765"/>
<polygon fill="midnightblue" stroke="midnightblue" points="413.938,-127.587 405.821,-134.396 416.413,-134.135 413.938,-127.587"/>
</g>
<!-- Node15 -->
<g id="node9" class="node"><title>Node15</title>
<g id="a_node9"><a xlink:href="../../da/da5/PushSimpleCardNumber_8cpp.html" target="_top" xlink:title="src/modules/tcp&#45;notifier\l/protocols/PushSimpleCardNumber.cpp">
<polygon fill="white" stroke="black" points="274,-67.5 274,-97.5 463,-97.5 463,-67.5 274,-67.5"/>
<text text-anchor="start" x="282" y="-85.5" font-family="Helvetica,sans-Serif" font-size="10.00">src/modules/tcp&#45;notifier</text>
<text text-anchor="middle" x="368.5" y="-74.5" font-family="Helvetica,sans-Serif" font-size="10.00">/protocols/PushSimpleCardNumber.cpp</text>
</a>
</g>
</g>
<!-- Node13&#45;&gt;Node15 -->
<g id="edge9" class="edge"><title>Node13&#45;&gt;Node15</title>
<path fill="none" stroke="midnightblue" d="M368.5,-124.108C368.5,-115.154 368.5,-105.323 368.5,-97.5765"/>
<polygon fill="midnightblue" stroke="midnightblue" points="365,-124.396 368.5,-134.396 372,-124.396 365,-124.396"/>
</g>
</g>
</svg>
