<?xml version="1.0" encoding="UTF-8" standalone="no"?>
<!DOCTYPE svg PUBLIC "-//W3C//DTD SVG 1.1//EN"
 "http://www.w3.org/Graphics/SVG/1.1/DTD/svg11.dtd">
<!-- Generated by graphviz version 2.38.0 (20140413.2041)
 -->
<!-- Title: src/core/auth/BaseAuthSource.cpp Pages: 1 -->
<svg width="499pt" height="319pt"
 viewBox="0.00 0.00 499.00 319.00" xmlns="http://www.w3.org/2000/svg" xmlns:xlink="http://www.w3.org/1999/xlink">
<g id="graph0" class="graph" transform="scale(1 1) rotate(0) translate(4 315)">
<title>src/core/auth/BaseAuthSource.cpp</title>
<polygon fill="white" stroke="none" points="-4,4 -4,-315 495,-315 495,4 -4,4"/>
<!-- Node0 -->
<g id="node1" class="node"><title>Node0</title>
<polygon fill="#bfbfbf" stroke="black" points="183,-291.5 183,-310.5 352,-310.5 352,-291.5 183,-291.5"/>
<text text-anchor="middle" x="267.5" y="-298.5" font-family="Helvetica,sans-Serif" font-size="10.00">src/core/auth/BaseAuthSource.cpp</text>
</g>
<!-- Node1 -->
<g id="node2" class="node"><title>Node1</title>
<g id="a_node2"><a xlink:href="../../dc/d87/BaseAuthSource_8hpp.html" target="_top" xlink:title="BaseAuthSource.hpp">
<polygon fill="white" stroke="black" points="213,-235.5 213,-254.5 322,-254.5 322,-235.5 213,-235.5"/>
<text text-anchor="middle" x="267.5" y="-242.5" font-family="Helvetica,sans-Serif" font-size="10.00">BaseAuthSource.hpp</text>
</a>
</g>
</g>
<!-- Node0&#45;&gt;Node1 -->
<g id="edge1" class="edge"><title>Node0&#45;&gt;Node1</title>
<path fill="none" stroke="midnightblue" d="M267.5,-291.083C267.5,-284.006 267.5,-273.861 267.5,-264.986"/>
<polygon fill="midnightblue" stroke="midnightblue" points="271,-264.751 267.5,-254.751 264,-264.751 271,-264.751"/>
</g>
<!-- Node2 -->
<g id="node3" class="node"><title>Node2</title>
<g id="a_node3"><a xlink:href="../../db/d47/IAuthenticationSource_8hpp.html" target="_top" xlink:title="core/auth/Interfaces\l/IAuthenticationSource.hpp">
<polygon fill="white" stroke="black" points="59.5,-168.5 59.5,-198.5 193.5,-198.5 193.5,-168.5 59.5,-168.5"/>
<text text-anchor="start" x="67.5" y="-186.5" font-family="Helvetica,sans-Serif" font-size="10.00">core/auth/Interfaces</text>
<text text-anchor="middle" x="126.5" y="-175.5" font-family="Helvetica,sans-Serif" font-size="10.00">/IAuthenticationSource.hpp</text>
</a>
</g>
</g>
<!-- Node1&#45;&gt;Node2 -->
<g id="edge2" class="edge"><title>Node1&#45;&gt;Node2</title>
<path fill="none" stroke="midnightblue" d="M247.298,-235.475C226.952,-226.889 194.945,-213.383 168.988,-202.429"/>
<polygon fill="midnightblue" stroke="midnightblue" points="170.305,-199.186 159.731,-198.523 167.583,-205.636 170.305,-199.186"/>
</g>
<!-- Node5 -->
<g id="node6" class="node"><title>Node5</title>
<polygon fill="white" stroke="#bfbfbf" points="195.5,-56.5 195.5,-75.5 247.5,-75.5 247.5,-56.5 195.5,-56.5"/>
<text text-anchor="middle" x="221.5" y="-63.5" font-family="Helvetica,sans-Serif" font-size="10.00">memory</text>
</g>
<!-- Node1&#45;&gt;Node5 -->
<g id="edge16" class="edge"><title>Node1&#45;&gt;Node5</title>
<path fill="none" stroke="midnightblue" d="M260.78,-235.228C254.478,-226.526 245.324,-212.563 240.5,-199 226.776,-160.409 222.946,-112.119 221.89,-85.9635"/>
<polygon fill="midnightblue" stroke="midnightblue" points="225.378,-85.5065 221.574,-75.618 218.381,-85.7201 225.378,-85.5065"/>
</g>
<!-- Node11 -->
<g id="node12" class="node"><title>Node11</title>
<g id="a_node12"><a xlink:href="../../dc/dfe/ValidityInfo_8hpp.html" target="_top" xlink:title="core/auth/ValidityInfo.hpp">
<polygon fill="white" stroke="black" points="249.5,-174 249.5,-193 377.5,-193 377.5,-174 249.5,-174"/>
<text text-anchor="middle" x="313.5" y="-181" font-family="Helvetica,sans-Serif" font-size="10.00">core/auth/ValidityInfo.hpp</text>
</a>
</g>
</g>
<!-- Node1&#45;&gt;Node11 -->
<g id="edge12" class="edge"><title>Node1&#45;&gt;Node11</title>
<path fill="none" stroke="midnightblue" d="M274.091,-235.475C280.991,-226.55 292.002,-212.307 300.634,-201.143"/>
<polygon fill="midnightblue" stroke="midnightblue" points="303.574,-203.061 306.922,-193.009 298.036,-198.78 303.574,-203.061"/>
</g>
<!-- Node14 -->
<g id="node15" class="node"><title>Node14</title>
<polygon fill="white" stroke="#bfbfbf" points="395.5,-174 395.5,-193 439.5,-193 439.5,-174 395.5,-174"/>
<text text-anchor="middle" x="417.5" y="-181" font-family="Helvetica,sans-Serif" font-size="10.00">vector</text>
</g>
<!-- Node1&#45;&gt;Node14 -->
<g id="edge17" class="edge"><title>Node1&#45;&gt;Node14</title>
<path fill="none" stroke="midnightblue" d="M291.872,-235.398C316.077,-226.711 354.147,-212.661 386.5,-199 387.868,-198.422 389.265,-197.819 390.672,-197.201"/>
<polygon fill="midnightblue" stroke="midnightblue" points="392.238,-200.334 399.899,-193.015 389.346,-193.959 392.238,-200.334"/>
</g>
<!-- Node3 -->
<g id="node4" class="node"><title>Node3</title>
<g id="a_node4"><a xlink:href="../../d3/d6f/AuthFwd_8hpp.html" target="_top" xlink:title="core/auth/AuthFwd.hpp">
<polygon fill="white" stroke="black" points="249.5,-112.5 249.5,-131.5 367.5,-131.5 367.5,-112.5 249.5,-112.5"/>
<text text-anchor="middle" x="308.5" y="-119.5" font-family="Helvetica,sans-Serif" font-size="10.00">core/auth/AuthFwd.hpp</text>
</a>
</g>
</g>
<!-- Node2&#45;&gt;Node3 -->
<g id="edge3" class="edge"><title>Node2&#45;&gt;Node3</title>
<path fill="none" stroke="midnightblue" d="M169.631,-168.399C201.08,-158.118 243.192,-144.351 272.767,-134.682"/>
<polygon fill="midnightblue" stroke="midnightblue" points="273.866,-138.005 282.283,-131.571 271.69,-131.352 273.866,-138.005"/>
</g>
<!-- Node2&#45;&gt;Node5 -->
<g id="edge11" class="edge"><title>Node2&#45;&gt;Node5</title>
<path fill="none" stroke="midnightblue" d="M138.149,-168.337C155.81,-146.865 189.281,-106.172 207.987,-83.4293"/>
<polygon fill="midnightblue" stroke="midnightblue" points="210.72,-85.616 214.369,-75.6695 205.314,-81.1693 210.72,-85.616"/>
</g>
<!-- Node7 -->
<g id="node8" class="node"><title>Node7</title>
<g id="a_node8"><a xlink:href="../../dd/d9d/IVisitable_8hpp.html" target="_top" xlink:title="tools/IVisitable.hpp">
<polygon fill="white" stroke="black" points="55.5,-112.5 55.5,-131.5 155.5,-131.5 155.5,-112.5 55.5,-112.5"/>
<text text-anchor="middle" x="105.5" y="-119.5" font-family="Helvetica,sans-Serif" font-size="10.00">tools/IVisitable.hpp</text>
</a>
</g>
</g>
<!-- Node2&#45;&gt;Node7 -->
<g id="edge7" class="edge"><title>Node2&#45;&gt;Node7</title>
<path fill="none" stroke="midnightblue" d="M121.523,-168.399C118.66,-160.288 115.032,-150.007 111.952,-141.281"/>
<polygon fill="midnightblue" stroke="midnightblue" points="115.184,-139.923 108.556,-131.658 108.583,-142.253 115.184,-139.923"/>
</g>
<!-- Node4 -->
<g id="node5" class="node"><title>Node4</title>
<polygon fill="white" stroke="#bfbfbf" points="275,-56.5 275,-75.5 324,-75.5 324,-56.5 275,-56.5"/>
<text text-anchor="middle" x="299.5" y="-63.5" font-family="Helvetica,sans-Serif" font-size="10.00">cstddef</text>
</g>
<!-- Node3&#45;&gt;Node4 -->
<g id="edge4" class="edge"><title>Node3&#45;&gt;Node4</title>
<path fill="none" stroke="midnightblue" d="M307.014,-112.083C305.821,-104.927 304.106,-94.6353 302.615,-85.6911"/>
<polygon fill="midnightblue" stroke="midnightblue" points="306.055,-85.0396 300.959,-75.7511 299.15,-86.1904 306.055,-85.0396"/>
</g>
<!-- Node3&#45;&gt;Node5 -->
<g id="edge5" class="edge"><title>Node3&#45;&gt;Node5</title>
<path fill="none" stroke="midnightblue" d="M294.522,-112.324C280.95,-103.9 260.12,-90.9709 244.175,-81.0741"/>
<polygon fill="midnightblue" stroke="midnightblue" points="245.786,-77.9544 235.443,-75.6545 242.094,-83.9019 245.786,-77.9544"/>
</g>
<!-- Node6 -->
<g id="node7" class="node"><title>Node6</title>
<polygon fill="white" stroke="#bfbfbf" points="342.5,-56.5 342.5,-75.5 428.5,-75.5 428.5,-56.5 342.5,-56.5"/>
<text text-anchor="middle" x="385.5" y="-63.5" font-family="Helvetica,sans-Serif" font-size="10.00">odb/lazy&#45;ptr.hxx</text>
</g>
<!-- Node3&#45;&gt;Node6 -->
<g id="edge6" class="edge"><title>Node3&#45;&gt;Node6</title>
<path fill="none" stroke="midnightblue" d="M320.871,-112.324C332.658,-104.058 350.632,-91.4527 364.636,-81.6322"/>
<polygon fill="midnightblue" stroke="midnightblue" points="366.982,-84.2619 373.159,-75.6545 362.962,-78.5307 366.982,-84.2619"/>
</g>
<!-- Node8 -->
<g id="node9" class="node"><title>Node8</title>
<g id="a_node9"><a xlink:href="../../d2/d91/Visitor_8hpp.html" target="_top" xlink:title="tools/Visitor.hpp">
<polygon fill="white" stroke="black" points="0,-56.5 0,-75.5 87,-75.5 87,-56.5 0,-56.5"/>
<text text-anchor="middle" x="43.5" y="-63.5" font-family="Helvetica,sans-Serif" font-size="10.00">tools/Visitor.hpp</text>
</a>
</g>
</g>
<!-- Node7&#45;&gt;Node8 -->
<g id="edge8" class="edge"><title>Node7&#45;&gt;Node8</title>
<path fill="none" stroke="midnightblue" d="M95.5386,-112.324C86.3734,-104.341 72.5628,-92.3128 61.4718,-82.6529"/>
<polygon fill="midnightblue" stroke="midnightblue" points="63.4822,-79.7624 53.6426,-75.8339 58.8847,-85.041 63.4822,-79.7624"/>
</g>
<!-- Node10 -->
<g id="node11" class="node"><title>Node10</title>
<polygon fill="white" stroke="#bfbfbf" points="105,-56.5 105,-75.5 154,-75.5 154,-56.5 105,-56.5"/>
<text text-anchor="middle" x="129.5" y="-63.5" font-family="Helvetica,sans-Serif" font-size="10.00">cassert</text>
</g>
<!-- Node7&#45;&gt;Node10 -->
<g id="edge10" class="edge"><title>Node7&#45;&gt;Node10</title>
<path fill="none" stroke="midnightblue" d="M109.463,-112.083C112.713,-104.77 117.419,-94.1814 121.454,-85.1034"/>
<polygon fill="midnightblue" stroke="midnightblue" points="124.748,-86.3107 125.611,-75.7511 118.351,-83.4677 124.748,-86.3107"/>
</g>
<!-- Node9 -->
<g id="node10" class="node"><title>Node9</title>
<polygon fill="white" stroke="#bfbfbf" points="12.5,-0.5 12.5,-19.5 74.5,-19.5 74.5,-0.5 12.5,-0.5"/>
<text text-anchor="middle" x="43.5" y="-7.5" font-family="Helvetica,sans-Serif" font-size="10.00">type_traits</text>
</g>
<!-- Node8&#45;&gt;Node9 -->
<g id="edge9" class="edge"><title>Node8&#45;&gt;Node9</title>
<path fill="none" stroke="midnightblue" d="M43.5,-56.083C43.5,-49.0059 43.5,-38.8611 43.5,-29.9865"/>
<polygon fill="midnightblue" stroke="midnightblue" points="47.0001,-29.751 43.5,-19.7511 40.0001,-29.7511 47.0001,-29.751"/>
</g>
<!-- Node11&#45;&gt;Node3 -->
<g id="edge13" class="edge"><title>Node11&#45;&gt;Node3</title>
<path fill="none" stroke="midnightblue" d="M312.784,-173.975C312.078,-165.58 310.977,-152.481 310.068,-141.663"/>
<polygon fill="midnightblue" stroke="midnightblue" points="313.54,-141.181 309.215,-131.509 306.565,-141.767 313.54,-141.181"/>
</g>
<!-- Node12 -->
<g id="node13" class="node"><title>Node12</title>
<polygon fill="white" stroke="#bfbfbf" points="385.5,-112.5 385.5,-131.5 431.5,-131.5 431.5,-112.5 385.5,-112.5"/>
<text text-anchor="middle" x="408.5" y="-119.5" font-family="Helvetica,sans-Serif" font-size="10.00">chrono</text>
</g>
<!-- Node11&#45;&gt;Node12 -->
<g id="edge14" class="edge"><title>Node11&#45;&gt;Node12</title>
<path fill="none" stroke="midnightblue" d="M327.111,-173.975C342.561,-164.299 367.99,-148.372 386.316,-136.894"/>
<polygon fill="midnightblue" stroke="midnightblue" points="388.297,-139.783 394.914,-131.509 384.581,-133.851 388.297,-139.783"/>
</g>
<!-- Node13 -->
<g id="node14" class="node"><title>Node13</title>
<polygon fill="white" stroke="#bfbfbf" points="450,-112.5 450,-131.5 491,-131.5 491,-112.5 450,-112.5"/>
<text text-anchor="middle" x="470.5" y="-119.5" font-family="Helvetica,sans-Serif" font-size="10.00">string</text>
</g>
<!-- Node11&#45;&gt;Node13 -->
<g id="edge15" class="edge"><title>Node11&#45;&gt;Node13</title>
<path fill="none" stroke="midnightblue" d="M335.994,-173.975C363.266,-163.64 409.355,-146.173 439.856,-134.613"/>
<polygon fill="midnightblue" stroke="midnightblue" points="441.442,-137.755 449.553,-130.939 438.961,-131.21 441.442,-137.755"/>
</g>
</g>
</svg>
