<?xml version="1.0" encoding="UTF-8" standalone="no"?>
<!DOCTYPE svg PUBLIC "-//W3C//DTD SVG 1.1//EN"
 "http://www.w3.org/Graphics/SVG/1.1/DTD/svg11.dtd">
<!-- Generated by graphviz version 2.38.0 (20140413.2041)
 -->
<!-- Title: src/modules/smtp/SMTPServiceImpl.hpp Pages: 1 -->
<svg width="354pt" height="207pt"
 viewBox="0.00 0.00 353.50 207.00" xmlns="http://www.w3.org/2000/svg" xmlns:xlink="http://www.w3.org/1999/xlink">
<g id="graph0" class="graph" transform="scale(1 1) rotate(0) translate(4 203)">
<title>src/modules/smtp/SMTPServiceImpl.hpp</title>
<polygon fill="white" stroke="none" points="-4,4 -4,-203 349.5,-203 349.5,4 -4,4"/>
<!-- Node0 -->
<g id="node1" class="node"><title>Node0</title>
<polygon fill="#bfbfbf" stroke="black" points="33,-168.5 33,-198.5 191,-198.5 191,-168.5 33,-168.5"/>
<text text-anchor="start" x="41" y="-186.5" font-family="Helvetica,sans-Serif" font-size="10.00">src/modules/smtp/SMTPService</text>
<text text-anchor="middle" x="112" y="-175.5" font-family="Helvetica,sans-Serif" font-size="10.00">Impl.hpp</text>
</g>
<!-- Node1 -->
<g id="node2" class="node"><title>Node1</title>
<g id="a_node2"><a xlink:href="../../da/d3b/SMTPFwd_8hpp.html" target="_top" xlink:title="SMTPFwd.hpp">
<polygon fill="white" stroke="black" points="0,-112.5 0,-131.5 82,-131.5 82,-112.5 0,-112.5"/>
<text text-anchor="middle" x="41" y="-119.5" font-family="Helvetica,sans-Serif" font-size="10.00">SMTPFwd.hpp</text>
</a>
</g>
</g>
<!-- Node0&#45;&gt;Node1 -->
<g id="edge1" class="edge"><title>Node0&#45;&gt;Node1</title>
<path fill="none" stroke="midnightblue" d="M95.174,-168.399C84.325,-159.308 70.2233,-147.49 59.127,-138.191"/>
<polygon fill="midnightblue" stroke="midnightblue" points="61.2437,-135.398 51.3311,-131.658 56.7476,-140.763 61.2437,-135.398"/>
</g>
<!-- Node3 -->
<g id="node4" class="node"><title>Node3</title>
<g id="a_node4"><a xlink:href="../../d0/d07/Mail_8hpp.html" target="_top" xlink:title="tools/Mail.hpp">
<polygon fill="white" stroke="black" points="122.5,-112.5 122.5,-131.5 199.5,-131.5 199.5,-112.5 122.5,-112.5"/>
<text text-anchor="middle" x="161" y="-119.5" font-family="Helvetica,sans-Serif" font-size="10.00">tools/Mail.hpp</text>
</a>
</g>
</g>
<!-- Node0&#45;&gt;Node3 -->
<g id="edge3" class="edge"><title>Node0&#45;&gt;Node3</title>
<path fill="none" stroke="midnightblue" d="M123.612,-168.399C130.733,-159.753 139.883,-148.642 147.349,-139.576"/>
<polygon fill="midnightblue" stroke="midnightblue" points="150.215,-141.602 153.87,-131.658 144.811,-137.152 150.215,-141.602"/>
</g>
<!-- Node2 -->
<g id="node3" class="node"><title>Node2</title>
<polygon fill="white" stroke="#bfbfbf" points="30,-0.5 30,-19.5 82,-19.5 82,-0.5 30,-0.5"/>
<text text-anchor="middle" x="56" y="-7.5" font-family="Helvetica,sans-Serif" font-size="10.00">memory</text>
</g>
<!-- Node1&#45;&gt;Node2 -->
<g id="edge2" class="edge"><title>Node1&#45;&gt;Node2</title>
<path fill="none" stroke="midnightblue" d="M39.3471,-112.495C37.2,-99.9905 34.1547,-75.9672 38,-56 39.7901,-46.7047 43.483,-36.8887 47.0607,-28.8048"/>
<polygon fill="midnightblue" stroke="midnightblue" points="50.2733,-30.1981 51.3788,-19.6611 43.9436,-27.2089 50.2733,-30.1981"/>
</g>
<!-- Node4 -->
<g id="node5" class="node"><title>Node4</title>
<g id="a_node5"><a xlink:href="../../dc/d49/LeosacFwd_8hpp.html" target="_top" xlink:title="LeosacFwd.hpp">
<polygon fill="white" stroke="black" points="47,-56.5 47,-75.5 133,-75.5 133,-56.5 47,-56.5"/>
<text text-anchor="middle" x="90" y="-63.5" font-family="Helvetica,sans-Serif" font-size="10.00">LeosacFwd.hpp</text>
</a>
</g>
</g>
<!-- Node3&#45;&gt;Node4 -->
<g id="edge4" class="edge"><title>Node3&#45;&gt;Node4</title>
<path fill="none" stroke="midnightblue" d="M149.593,-112.324C138.891,-104.185 122.659,-91.8395 109.837,-82.0874"/>
<polygon fill="midnightblue" stroke="midnightblue" points="111.693,-79.1018 101.615,-75.8339 107.456,-84.6734 111.693,-79.1018"/>
</g>
<!-- Node5 -->
<g id="node6" class="node"><title>Node5</title>
<polygon fill="white" stroke="#bfbfbf" points="102,-0.5 102,-19.5 146,-19.5 146,-0.5 102,-0.5"/>
<text text-anchor="middle" x="124" y="-7.5" font-family="Helvetica,sans-Serif" font-size="10.00">vector</text>
</g>
<!-- Node3&#45;&gt;Node5 -->
<g id="edge8" class="edge"><title>Node3&#45;&gt;Node5</title>
<path fill="none" stroke="midnightblue" d="M158.685,-112.084C155.348,-99.4792 148.83,-75.7815 142,-56 138.872,-46.9403 134.964,-37.0338 131.589,-28.8277"/>
<polygon fill="midnightblue" stroke="midnightblue" points="134.789,-27.4071 127.699,-19.5343 128.332,-30.1102 134.789,-27.4071"/>
</g>
<!-- Node6 -->
<g id="node7" class="node"><title>Node6</title>
<polygon fill="white" stroke="#bfbfbf" points="189.5,-56.5 189.5,-75.5 230.5,-75.5 230.5,-56.5 189.5,-56.5"/>
<text text-anchor="middle" x="210" y="-63.5" font-family="Helvetica,sans-Serif" font-size="10.00">string</text>
</g>
<!-- Node3&#45;&gt;Node6 -->
<g id="edge7" class="edge"><title>Node3&#45;&gt;Node6</title>
<path fill="none" stroke="midnightblue" d="M169.091,-112.083C176.155,-104.298 186.588,-92.8015 195.149,-83.3665"/>
<polygon fill="midnightblue" stroke="midnightblue" points="197.931,-85.5087 202.059,-75.7511 192.747,-80.8047 197.931,-85.5087"/>
</g>
<!-- Node7 -->
<g id="node8" class="node"><title>Node7</title>
<polygon fill="white" stroke="#bfbfbf" points="248.5,-56.5 248.5,-75.5 345.5,-75.5 345.5,-56.5 248.5,-56.5"/>
<text text-anchor="middle" x="297" y="-63.5" font-family="Helvetica,sans-Serif" font-size="10.00">zmqpp/zmqpp.hpp</text>
</g>
<!-- Node3&#45;&gt;Node7 -->
<g id="edge9" class="edge"><title>Node3&#45;&gt;Node7</title>
<path fill="none" stroke="midnightblue" d="M182.55,-112.444C205.031,-103.517 240.488,-89.4387 265.98,-79.3168"/>
<polygon fill="midnightblue" stroke="midnightblue" points="267.549,-82.4598 275.551,-75.5164 264.965,-75.9539 267.549,-82.4598"/>
</g>
<!-- Node4&#45;&gt;Node2 -->
<g id="edge5" class="edge"><title>Node4&#45;&gt;Node2</title>
<path fill="none" stroke="midnightblue" d="M84.3856,-56.083C79.6326,-48.5341 72.6819,-37.4948 66.8484,-28.2298"/>
<polygon fill="midnightblue" stroke="midnightblue" points="69.7999,-26.3486 61.5099,-19.7511 63.8763,-30.0783 69.7999,-26.3486"/>
</g>
<!-- Node4&#45;&gt;Node5 -->
<g id="edge6" class="edge"><title>Node4&#45;&gt;Node5</title>
<path fill="none" stroke="midnightblue" d="M95.6144,-56.083C100.367,-48.5341 107.318,-37.4948 113.152,-28.2298"/>
<polygon fill="midnightblue" stroke="midnightblue" points="116.124,-30.0783 118.49,-19.7511 110.2,-26.3486 116.124,-30.0783"/>
</g>
</g>
</svg>
