<?xml version="1.0" encoding="UTF-8" standalone="no"?>
<!DOCTYPE svg PUBLIC "-//W3C//DTD SVG 1.1//EN"
 "http://www.w3.org/Graphics/SVG/1.1/DTD/svg11.dtd">
<!-- Generated by graphviz version 2.38.0 (20140413.2041)
 -->
<!-- Title: src/modules/AsioModule.hpp Pages: 1 -->
<svg width="1033pt" height="162pt"
 viewBox="0.00 0.00 1032.50 162.00" xmlns="http://www.w3.org/2000/svg" xmlns:xlink="http://www.w3.org/1999/xlink">
<g id="graph0" class="graph" transform="scale(1 1) rotate(0) translate(4 158)">
<title>src/modules/AsioModule.hpp</title>
<polygon fill="white" stroke="none" points="-4,4 -4,-158 1028.5,-158 1028.5,4 -4,4"/>
<!-- Node54 -->
<g id="node1" class="node"><title>Node54</title>
<polygon fill="#bfbfbf" stroke="black" points="212,-134.5 212,-153.5 355,-153.5 355,-134.5 212,-134.5"/>
<text text-anchor="middle" x="283.5" y="-141.5" font-family="Helvetica,sans-Serif" font-size="10.00">src/modules/AsioModule.hpp</text>
</g>
<!-- Node55 -->
<g id="node2" class="node"><title>Node55</title>
<g id="a_node2"><a xlink:href="../../d7/d41/AsioModule_8cpp.html" target="_top" xlink:title="src/modules/AsioModule.cpp">
<polygon fill="white" stroke="black" points="0,-73 0,-92 143,-92 143,-73 0,-73"/>
<text text-anchor="middle" x="71.5" y="-80" font-family="Helvetica,sans-Serif" font-size="10.00">src/modules/AsioModule.cpp</text>
</a>
</g>
</g>
<!-- Node54&#45;&gt;Node55 -->
<g id="edge1" class="edge"><title>Node54&#45;&gt;Node55</title>
<path fill="none" stroke="midnightblue" d="M243.413,-131.749C202.225,-120.189 139.023,-102.451 101.818,-92.0091"/>
<polygon fill="midnightblue" stroke="midnightblue" points="242.552,-135.143 253.126,-134.475 244.443,-128.403 242.552,-135.143"/>
</g>
<!-- Node56 -->
<g id="node3" class="node"><title>Node56</title>
<g id="a_node3"><a xlink:href="../../d7/d6b/AuthDBModule_8hpp.html" target="_top" xlink:title="src/modules/auth/auth\l&#45;db/AuthDBModule.hpp">
<polygon fill="white" stroke="black" points="161.5,-67.5 161.5,-97.5 279.5,-97.5 279.5,-67.5 161.5,-67.5"/>
<text text-anchor="start" x="169.5" y="-85.5" font-family="Helvetica,sans-Serif" font-size="10.00">src/modules/auth/auth</text>
<text text-anchor="middle" x="220.5" y="-74.5" font-family="Helvetica,sans-Serif" font-size="10.00">&#45;db/AuthDBModule.hpp</text>
</a>
</g>
</g>
<!-- Node54&#45;&gt;Node56 -->
<g id="edge2" class="edge"><title>Node54&#45;&gt;Node56</title>
<path fill="none" stroke="midnightblue" d="M266.95,-127.369C257.149,-118.113 244.834,-106.482 235.348,-97.523"/>
<polygon fill="midnightblue" stroke="midnightblue" points="264.8,-130.153 274.474,-134.475 269.607,-125.064 264.8,-130.153"/>
</g>
<!-- Node59 -->
<g id="node6" class="node"><title>Node59</title>
<g id="a_node6"><a xlink:href="../../d0/db8/NotifdModule_8hpp.html" target="_top" xlink:title="src/modules/notifd\l/NotifdModule.hpp">
<polygon fill="white" stroke="black" points="298,-67.5 298,-97.5 395,-97.5 395,-67.5 298,-67.5"/>
<text text-anchor="start" x="306" y="-85.5" font-family="Helvetica,sans-Serif" font-size="10.00">src/modules/notifd</text>
<text text-anchor="middle" x="346.5" y="-74.5" font-family="Helvetica,sans-Serif" font-size="10.00">/NotifdModule.hpp</text>
</a>
</g>
</g>
<!-- Node54&#45;&gt;Node59 -->
<g id="edge5" class="edge"><title>Node54&#45;&gt;Node59</title>
<path fill="none" stroke="midnightblue" d="M300.05,-127.369C309.851,-118.113 322.166,-106.482 331.652,-97.523"/>
<polygon fill="midnightblue" stroke="midnightblue" points="297.393,-125.064 292.526,-134.475 302.2,-130.153 297.393,-125.064"/>
</g>
<!-- Node62 -->
<g id="node9" class="node"><title>Node62</title>
<g id="a_node9"><a xlink:href="../../d1/df6/SMTPModule_8hpp.html" target="_top" xlink:title="src/modules/smtp/SMTPModule.hpp">
<polygon fill="white" stroke="black" points="587.5,-73 587.5,-92 763.5,-92 763.5,-73 587.5,-73"/>
<text text-anchor="middle" x="675.5" y="-80" font-family="Helvetica,sans-Serif" font-size="10.00">src/modules/smtp/SMTPModule.hpp</text>
</a>
</g>
</g>
<!-- Node54&#45;&gt;Node62 -->
<g id="edge8" class="edge"><title>Node54&#45;&gt;Node62</title>
<path fill="none" stroke="midnightblue" d="M349.573,-132.971C425.319,-121.474 548.173,-102.826 619.44,-92.0091"/>
<polygon fill="midnightblue" stroke="midnightblue" points="349.026,-129.514 339.664,-134.475 350.076,-136.435 349.026,-129.514"/>
</g>
<!-- Node57 -->
<g id="node4" class="node"><title>Node57</title>
<g id="a_node4"><a xlink:href="../../df/dac/AuthDBModule_8cpp.html" target="_top" xlink:title="src/modules/auth/auth\l&#45;db/AuthDBModule.cpp">
<polygon fill="white" stroke="black" points="27.5,-0.5 27.5,-30.5 145.5,-30.5 145.5,-0.5 27.5,-0.5"/>
<text text-anchor="start" x="35.5" y="-18.5" font-family="Helvetica,sans-Serif" font-size="10.00">src/modules/auth/auth</text>
<text text-anchor="middle" x="86.5" y="-7.5" font-family="Helvetica,sans-Serif" font-size="10.00">&#45;db/AuthDBModule.cpp</text>
</a>
</g>
</g>
<!-- Node56&#45;&gt;Node57 -->
<g id="edge3" class="edge"><title>Node56&#45;&gt;Node57</title>
<path fill="none" stroke="midnightblue" d="M182.345,-62.9921C161.105,-52.6892 135.086,-40.0677 115.519,-30.5765"/>
<polygon fill="midnightblue" stroke="midnightblue" points="180.899,-66.1806 191.424,-67.396 183.954,-59.8825 180.899,-66.1806"/>
</g>
<!-- Node58 -->
<g id="node5" class="node"><title>Node58</title>
<g id="a_node5"><a xlink:href="../../d9/dd9/auth_2auth-db_2init_8cpp.html" target="_top" xlink:title="src/modules/auth/auth\l&#45;db/init.cpp">
<polygon fill="white" stroke="black" points="164,-0.5 164,-30.5 277,-30.5 277,-0.5 164,-0.5"/>
<text text-anchor="start" x="172" y="-18.5" font-family="Helvetica,sans-Serif" font-size="10.00">src/modules/auth/auth</text>
<text text-anchor="middle" x="220.5" y="-7.5" font-family="Helvetica,sans-Serif" font-size="10.00">&#45;db/init.cpp</text>
</a>
</g>
</g>
<!-- Node56&#45;&gt;Node58 -->
<g id="edge4" class="edge"><title>Node56&#45;&gt;Node58</title>
<path fill="none" stroke="midnightblue" d="M220.5,-57.1081C220.5,-48.1539 220.5,-38.3227 220.5,-30.5765"/>
<polygon fill="midnightblue" stroke="midnightblue" points="217,-57.3959 220.5,-67.396 224,-57.396 217,-57.3959"/>
</g>
<!-- Node60 -->
<g id="node7" class="node"><title>Node60</title>
<g id="a_node7"><a xlink:href="../../d6/da8/notifd_2init_8cpp.html" target="_top" xlink:title="src/modules/notifd\l/init.cpp">
<polygon fill="white" stroke="black" points="295,-0.5 295,-30.5 392,-30.5 392,-0.5 295,-0.5"/>
<text text-anchor="start" x="303" y="-18.5" font-family="Helvetica,sans-Serif" font-size="10.00">src/modules/notifd</text>
<text text-anchor="middle" x="343.5" y="-7.5" font-family="Helvetica,sans-Serif" font-size="10.00">/init.cpp</text>
</a>
</g>
</g>
<!-- Node59&#45;&gt;Node60 -->
<g id="edge6" class="edge"><title>Node59&#45;&gt;Node60</title>
<path fill="none" stroke="midnightblue" d="M345.388,-57.4029C344.971,-48.3703 344.511,-38.4078 344.15,-30.5765"/>
<polygon fill="midnightblue" stroke="midnightblue" points="341.892,-57.568 345.849,-67.396 348.884,-57.2452 341.892,-57.568"/>
</g>
<!-- Node61 -->
<g id="node8" class="node"><title>Node61</title>
<g id="a_node8"><a xlink:href="../../d7/d0d/NotifdModule_8cpp.html" target="_top" xlink:title="src/modules/notifd\l/NotifdModule.cpp">
<polygon fill="white" stroke="black" points="410,-0.5 410,-30.5 507,-30.5 507,-0.5 410,-0.5"/>
<text text-anchor="start" x="418" y="-18.5" font-family="Helvetica,sans-Serif" font-size="10.00">src/modules/notifd</text>
<text text-anchor="middle" x="458.5" y="-7.5" font-family="Helvetica,sans-Serif" font-size="10.00">/NotifdModule.cpp</text>
</a>
</g>
</g>
<!-- Node59&#45;&gt;Node61 -->
<g id="edge7" class="edge"><title>Node59&#45;&gt;Node61</title>
<path fill="none" stroke="midnightblue" d="M379.591,-62.2956C397.116,-52.1248 418.258,-39.8549 434.245,-30.5765"/>
<polygon fill="midnightblue" stroke="midnightblue" points="377.694,-59.3493 370.802,-67.396 381.208,-65.4036 377.694,-59.3493"/>
</g>
<!-- Node63 -->
<g id="node10" class="node"><title>Node63</title>
<g id="a_node10"><a xlink:href="../../d3/dbb/smtp_2init_8cpp.html" target="_top" xlink:title="src/modules/smtp/init.cpp">
<polygon fill="white" stroke="black" points="525,-6 525,-25 654,-25 654,-6 525,-6"/>
<text text-anchor="middle" x="589.5" y="-13" font-family="Helvetica,sans-Serif" font-size="10.00">src/modules/smtp/init.cpp</text>
</a>
</g>
</g>
<!-- Node62&#45;&gt;Node63 -->
<g id="edge9" class="edge"><title>Node62&#45;&gt;Node63</title>
<path fill="none" stroke="midnightblue" d="M655.744,-66.5678C638.768,-53.7376 614.884,-35.6853 600.915,-25.1273"/>
<polygon fill="midnightblue" stroke="midnightblue" points="653.814,-69.4963 663.902,-72.7338 658.034,-63.9119 653.814,-69.4963"/>
</g>
<!-- Node64 -->
<g id="node11" class="node"><title>Node64</title>
<g id="a_node11"><a xlink:href="../../da/d6f/SMTPModule_8cpp.html" target="_top" xlink:title="src/modules/smtp/SMTPModule.cpp">
<polygon fill="white" stroke="black" points="672.5,-6 672.5,-25 848.5,-25 848.5,-6 672.5,-6"/>
<text text-anchor="middle" x="760.5" y="-13" font-family="Helvetica,sans-Serif" font-size="10.00">src/modules/smtp/SMTPModule.cpp</text>
</a>
</g>
</g>
<!-- Node62&#45;&gt;Node64 -->
<g id="edge10" class="edge"><title>Node62&#45;&gt;Node64</title>
<path fill="none" stroke="midnightblue" d="M695.027,-66.5678C711.805,-53.7376 735.412,-35.6853 749.218,-25.1273"/>
<polygon fill="midnightblue" stroke="midnightblue" points="692.781,-63.879 686.963,-72.7338 697.033,-69.4395 692.781,-63.879"/>
</g>
<!-- Node65 -->
<g id="node12" class="node"><title>Node65</title>
<g id="a_node12"><a xlink:href="../../d5/d82/SMTPServiceImpl_8cpp.html" target="_top" xlink:title="src/modules/smtp/SMTPService\lImpl.cpp">
<polygon fill="white" stroke="black" points="866.5,-0.5 866.5,-30.5 1024.5,-30.5 1024.5,-0.5 866.5,-0.5"/>
<text text-anchor="start" x="874.5" y="-18.5" font-family="Helvetica,sans-Serif" font-size="10.00">src/modules/smtp/SMTPService</text>
<text text-anchor="middle" x="945.5" y="-7.5" font-family="Helvetica,sans-Serif" font-size="10.00">Impl.cpp</text>
</a>
</g>
</g>
<!-- Node62&#45;&gt;Node65 -->
<g id="edge11" class="edge"><title>Node62&#45;&gt;Node65</title>
<path fill="none" stroke="midnightblue" d="M720.997,-70.5471C766.694,-59.5459 837.293,-42.5498 887.1,-30.5592"/>
<polygon fill="midnightblue" stroke="midnightblue" points="719.978,-67.1921 711.075,-72.9355 721.617,-73.9977 719.978,-67.1921"/>
</g>
</g>
</svg>
