<?xml version="1.0" encoding="UTF-8" standalone="no"?>
<!DOCTYPE svg PUBLIC "-//W3C//DTD SVG 1.1//EN"
 "http://www.w3.org/Graphics/SVG/1.1/DTD/svg11.dtd">
<!-- Generated by graphviz version 2.38.0 (20140413.2041)
 -->
<!-- Title: src/core/update/serializers/UpdateSerializer.hpp Pages: 1 -->
<svg width="324pt" height="106pt"
 viewBox="0.00 0.00 323.50 106.00" xmlns="http://www.w3.org/2000/svg" xmlns:xlink="http://www.w3.org/1999/xlink">
<g id="graph0" class="graph" transform="scale(1 1) rotate(0) translate(4 102)">
<title>src/core/update/serializers/UpdateSerializer.hpp</title>
<polygon fill="white" stroke="none" points="-4,4 -4,-102 319.5,-102 319.5,4 -4,4"/>
<!-- Node21 -->
<g id="node1" class="node"><title>Node21</title>
<polygon fill="#bfbfbf" stroke="black" points="100.5,-67.5 100.5,-97.5 231.5,-97.5 231.5,-67.5 100.5,-67.5"/>
<text text-anchor="start" x="108.5" y="-85.5" font-family="Helvetica,sans-Serif" font-size="10.00">src/core/update/serializers</text>
<text text-anchor="middle" x="166" y="-74.5" font-family="Helvetica,sans-Serif" font-size="10.00">/UpdateSerializer.hpp</text>
</g>
<!-- Node22 -->
<g id="node2" class="node"><title>Node22</title>
<g id="a_node2"><a xlink:href="../../d0/d05/AccessPointUpdateSerializer_8cpp.html" target="_top" xlink:title="src/core/update/serializers\l/AccessPointUpdateSerializer.cpp">
<polygon fill="white" stroke="black" points="0,-0.5 0,-30.5 166,-30.5 166,-0.5 0,-0.5"/>
<text text-anchor="start" x="8" y="-18.5" font-family="Helvetica,sans-Serif" font-size="10.00">src/core/update/serializers</text>
<text text-anchor="middle" x="83" y="-7.5" font-family="Helvetica,sans-Serif" font-size="10.00">/AccessPointUpdateSerializer.cpp</text>
</a>
</g>
</g>
<!-- Node21&#45;&gt;Node22 -->
<g id="edge1" class="edge"><title>Node21&#45;&gt;Node22</title>
<path fill="none" stroke="midnightblue" d="M140.037,-61.1677C127.345,-51.2283 112.388,-39.5144 100.975,-30.5765"/>
<polygon fill="midnightblue" stroke="midnightblue" points="137.959,-63.9859 147.99,-67.396 142.275,-58.4747 137.959,-63.9859"/>
</g>
<!-- Node23 -->
<g id="node3" class="node"><title>Node23</title>
<g id="a_node3"><a xlink:href="../../df/d48/UpdateSerializer_8cpp.html" target="_top" xlink:title="src/core/update/serializers\l/UpdateSerializer.cpp">
<polygon fill="white" stroke="black" points="184.5,-0.5 184.5,-30.5 315.5,-30.5 315.5,-0.5 184.5,-0.5"/>
<text text-anchor="start" x="192.5" y="-18.5" font-family="Helvetica,sans-Serif" font-size="10.00">src/core/update/serializers</text>
<text text-anchor="middle" x="250" y="-7.5" font-family="Helvetica,sans-Serif" font-size="10.00">/UpdateSerializer.cpp</text>
</a>
</g>
</g>
<!-- Node21&#45;&gt;Node23 -->
<g id="edge2" class="edge"><title>Node21&#45;&gt;Node23</title>
<path fill="none" stroke="midnightblue" d="M192.276,-61.1677C205.12,-51.2283 220.258,-39.5144 231.809,-30.5765"/>
<polygon fill="midnightblue" stroke="midnightblue" points="189.994,-58.508 184.227,-67.396 194.277,-64.0442 189.994,-58.508"/>
</g>
</g>
</svg>
