<?xml version="1.0" encoding="UTF-8" standalone="no"?>
<!DOCTYPE svg PUBLIC "-//W3C//DTD SVG 1.1//EN"
 "http://www.w3.org/Graphics/SVG/1.1/DTD/svg11.dtd">
<!-- Generated by graphviz version 2.38.0 (20140413.2041)
 -->
<!-- Title: src/hardware/serializers/BuzzerSerializer.hpp Pages: 1 -->
<svg width="600pt" height="106pt"
 viewBox="0.00 0.00 599.50 106.00" xmlns="http://www.w3.org/2000/svg" xmlns:xlink="http://www.w3.org/1999/xlink">
<g id="graph0" class="graph" transform="scale(1 1) rotate(0) translate(4 102)">
<title>src/hardware/serializers/BuzzerSerializer.hpp</title>
<polygon fill="white" stroke="none" points="-4,4 -4,-102 595.5,-102 595.5,4 -4,4"/>
<!-- Node13 -->
<g id="node1" class="node"><title>Node13</title>
<polygon fill="#bfbfbf" stroke="black" points="256,-67.5 256,-97.5 376,-97.5 376,-67.5 256,-67.5"/>
<text text-anchor="start" x="264" y="-85.5" font-family="Helvetica,sans-Serif" font-size="10.00">src/hardware/serializers</text>
<text text-anchor="middle" x="316" y="-74.5" font-family="Helvetica,sans-Serif" font-size="10.00">/BuzzerSerializer.hpp</text>
</g>
<!-- Node14 -->
<g id="node2" class="node"><title>Node14</title>
<g id="a_node2"><a xlink:href="../../d9/dab/HardwareService_8cpp.html" target="_top" xlink:title="src/hardware/HardwareService.cpp">
<polygon fill="white" stroke="black" points="0,-6 0,-25 170,-25 170,-6 0,-6"/>
<text text-anchor="middle" x="85" y="-13" font-family="Helvetica,sans-Serif" font-size="10.00">src/hardware/HardwareService.cpp</text>
</a>
</g>
</g>
<!-- Node13&#45;&gt;Node14 -->
<g id="edge1" class="edge"><title>Node13&#45;&gt;Node14</title>
<path fill="none" stroke="midnightblue" d="M256.475,-64.7505C211.297,-52.038 151.049,-35.0851 115.31,-25.0287"/>
<polygon fill="midnightblue" stroke="midnightblue" points="255.587,-68.1364 266.161,-67.476 257.483,-61.3981 255.587,-68.1364"/>
</g>
<!-- Node15 -->
<g id="node3" class="node"><title>Node15</title>
<g id="a_node3"><a xlink:href="../../d6/d24/BuzzerSerializer_8cpp.html" target="_top" xlink:title="src/hardware/serializers\l/BuzzerSerializer.cpp">
<polygon fill="white" stroke="black" points="188,-0.5 188,-30.5 308,-30.5 308,-0.5 188,-0.5"/>
<text text-anchor="start" x="196" y="-18.5" font-family="Helvetica,sans-Serif" font-size="10.00">src/hardware/serializers</text>
<text text-anchor="middle" x="248" y="-7.5" font-family="Helvetica,sans-Serif" font-size="10.00">/BuzzerSerializer.cpp</text>
</a>
</g>
</g>
<!-- Node13&#45;&gt;Node15 -->
<g id="edge2" class="edge"><title>Node13&#45;&gt;Node15</title>
<path fill="none" stroke="midnightblue" d="M293.834,-60.3115C283.633,-50.5612 271.809,-39.259 262.726,-30.5765"/>
<polygon fill="midnightblue" stroke="midnightblue" points="291.598,-63.0162 301.245,-67.396 296.435,-57.9561 291.598,-63.0162"/>
</g>
<!-- Node16 -->
<g id="node4" class="node"><title>Node16</title>
<g id="a_node4"><a xlink:href="../../d2/dc7/led-buzzer_2ws_2CRUDHandler_8cpp.html" target="_top" xlink:title="src/modules/led&#45;buzzer\l/ws/CRUDHandler.cpp">
<polygon fill="white" stroke="black" points="326,-0.5 326,-30.5 444,-30.5 444,-0.5 326,-0.5"/>
<text text-anchor="start" x="334" y="-18.5" font-family="Helvetica,sans-Serif" font-size="10.00">src/modules/led&#45;buzzer</text>
<text text-anchor="middle" x="385" y="-7.5" font-family="Helvetica,sans-Serif" font-size="10.00">/ws/CRUDHandler.cpp</text>
</a>
</g>
</g>
<!-- Node13&#45;&gt;Node16 -->
<g id="edge3" class="edge"><title>Node13&#45;&gt;Node16</title>
<path fill="none" stroke="midnightblue" d="M338.492,-60.3115C348.843,-50.5612 360.84,-39.259 370.057,-30.5765"/>
<polygon fill="midnightblue" stroke="midnightblue" points="335.851,-57.9914 330.972,-67.396 340.651,-63.0866 335.851,-57.9914"/>
</g>
<!-- Node17 -->
<g id="node5" class="node"><title>Node17</title>
<g id="a_node5"><a xlink:href="../../dd/d4b/led-buzzer_2ws_2WSHelperThread_8cpp.html" target="_top" xlink:title="src/modules/led&#45;buzzer\l/ws/WSHelperThread.cpp">
<polygon fill="white" stroke="black" points="462.5,-0.5 462.5,-30.5 591.5,-30.5 591.5,-0.5 462.5,-0.5"/>
<text text-anchor="start" x="470.5" y="-18.5" font-family="Helvetica,sans-Serif" font-size="10.00">src/modules/led&#45;buzzer</text>
<text text-anchor="middle" x="527" y="-7.5" font-family="Helvetica,sans-Serif" font-size="10.00">/ws/WSHelperThread.cpp</text>
</a>
</g>
</g>
<!-- Node13&#45;&gt;Node17 -->
<g id="edge4" class="edge"><title>Node13&#45;&gt;Node17</title>
<path fill="none" stroke="midnightblue" d="M371.366,-64.4442C405.569,-53.9078 448.932,-40.5495 481.194,-30.6109"/>
<polygon fill="midnightblue" stroke="midnightblue" points="370.05,-61.187 361.524,-67.476 372.111,-67.8768 370.05,-61.187"/>
</g>
</g>
</svg>
