<?xml version="1.0" encoding="UTF-8" standalone="no"?>
<!DOCTYPE svg PUBLIC "-//W3C//DTD SVG 1.1//EN"
 "http://www.w3.org/Graphics/SVG/1.1/DTD/svg11.dtd">
<!-- Generated by graphviz version 2.38.0 (20140413.2041)
 -->
<!-- Title: src/core/audit/serializers/CredentialEventSerializer.cpp Pages: 1 -->
<svg width="1655pt" height="330pt"
 viewBox="0.00 0.00 1654.81 330.00" xmlns="http://www.w3.org/2000/svg" xmlns:xlink="http://www.w3.org/1999/xlink">
<g id="graph0" class="graph" transform="scale(1 1) rotate(0) translate(4 326)">
<title>src/core/audit/serializers/CredentialEventSerializer.cpp</title>
<polygon fill="white" stroke="none" points="-4,4 -4,-326 1650.81,-326 1650.81,4 -4,4"/>
<!-- Node0 -->
<g id="node1" class="node"><title>Node0</title>
<polygon fill="#bfbfbf" stroke="black" points="450.813,-291.5 450.813,-321.5 599.813,-321.5 599.813,-291.5 450.813,-291.5"/>
<text text-anchor="start" x="458.813" y="-309.5" font-family="Helvetica,sans-Serif" font-size="10.00">src/core/audit/serializers</text>
<text text-anchor="middle" x="525.313" y="-298.5" font-family="Helvetica,sans-Serif" font-size="10.00">/CredentialEventSerializer.cpp</text>
</g>
<!-- Node1 -->
<g id="node2" class="node"><title>Node1</title>
<g id="a_node2"><a xlink:href="../../d0/de4/CredentialEventSerializer_8hpp.html" target="_top" xlink:title="CredentialEventSerializer.hpp">
<polygon fill="white" stroke="black" points="165.313,-179.5 165.313,-198.5 311.313,-198.5 311.313,-179.5 165.313,-179.5"/>
<text text-anchor="middle" x="238.313" y="-186.5" font-family="Helvetica,sans-Serif" font-size="10.00">CredentialEventSerializer.hpp</text>
</a>
</g>
</g>
<!-- Node0&#45;&gt;Node1 -->
<g id="edge1" class="edge"><title>Node0&#45;&gt;Node1</title>
<path fill="none" stroke="midnightblue" d="M490.408,-291.453C433.733,-268.645 322.633,-223.933 268.882,-202.302"/>
<polygon fill="midnightblue" stroke="midnightblue" points="270.123,-199.029 259.54,-198.542 267.51,-205.523 270.123,-199.029"/>
</g>
<!-- Node11 -->
<g id="node12" class="node"><title>Node11</title>
<g id="a_node12"><a xlink:href="../../df/da3/AuditSerializer_8hpp.html" target="_top" xlink:title="AuditSerializer.hpp">
<polygon fill="white" stroke="black" points="49.3132,-179.5 49.3132,-198.5 147.313,-198.5 147.313,-179.5 49.3132,-179.5"/>
<text text-anchor="middle" x="98.3132" y="-186.5" font-family="Helvetica,sans-Serif" font-size="10.00">AuditSerializer.hpp</text>
</a>
</g>
</g>
<!-- Node0&#45;&gt;Node11 -->
<g id="edge12" class="edge"><title>Node0&#45;&gt;Node11</title>
<path fill="none" stroke="midnightblue" d="M473.382,-291.453C387.66,-268.266 218.255,-222.443 139.884,-201.244"/>
<polygon fill="midnightblue" stroke="midnightblue" points="140.461,-197.775 129.894,-198.542 138.633,-204.532 140.461,-197.775"/>
</g>
<!-- Node12 -->
<g id="node13" class="node"><title>Node12</title>
<g id="a_node13"><a xlink:href="../../d1/d3e/SecurityContext_8hpp.html" target="_top" xlink:title="core/SecurityContext.hpp">
<polygon fill="white" stroke="black" points="665.313,-179.5 665.313,-198.5 793.313,-198.5 793.313,-179.5 665.313,-179.5"/>
<text text-anchor="middle" x="729.313" y="-186.5" font-family="Helvetica,sans-Serif" font-size="10.00">core/SecurityContext.hpp</text>
</a>
</g>
</g>
<!-- Node0&#45;&gt;Node12 -->
<g id="edge17" class="edge"><title>Node0&#45;&gt;Node12</title>
<path fill="none" stroke="midnightblue" d="M550.328,-291.337C589.855,-268.958 666.258,-225.7 705.21,-203.647"/>
<polygon fill="midnightblue" stroke="midnightblue" points="707.283,-206.495 714.261,-198.522 703.834,-200.404 707.283,-206.495"/>
</g>
<!-- Node24 -->
<g id="node25" class="node"><title>Node24</title>
<g id="a_node25"><a xlink:href="../../dd/da1/ICredentialEvent_8hpp.html" target="_top" xlink:title="core/audit/ICredentialEvent.hpp">
<polygon fill="white" stroke="black" points="448.313,-235.5 448.313,-254.5 602.313,-254.5 602.313,-235.5 448.313,-235.5"/>
<text text-anchor="middle" x="525.313" y="-242.5" font-family="Helvetica,sans-Serif" font-size="10.00">core/audit/ICredentialEvent.hpp</text>
</a>
</g>
</g>
<!-- Node0&#45;&gt;Node24 -->
<g id="edge39" class="edge"><title>Node0&#45;&gt;Node24</title>
<path fill="none" stroke="midnightblue" d="M525.313,-291.399C525.313,-283.466 525.313,-273.458 525.313,-264.858"/>
<polygon fill="midnightblue" stroke="midnightblue" points="528.813,-264.658 525.313,-254.658 521.813,-264.658 528.813,-264.658"/>
</g>
<!-- Node31 -->
<g id="node32" class="node"><title>Node31</title>
<g id="a_node32"><a xlink:href="../../d4/d3d/log_8hpp.html" target="_top" xlink:title="tools/log.hpp">
<polygon fill="white" stroke="black" points="1347.31,-118 1347.31,-137 1419.31,-137 1419.31,-118 1347.31,-118"/>
<text text-anchor="middle" x="1383.31" y="-125" font-family="Helvetica,sans-Serif" font-size="10.00">tools/log.hpp</text>
</a>
</g>
</g>
<!-- Node0&#45;&gt;Node31 -->
<g id="edge50" class="edge"><title>Node0&#45;&gt;Node31</title>
<path fill="none" stroke="midnightblue" d="M600.09,-293.315C743.94,-269.264 1068.74,-211.989 1337.31,-143 1340.74,-142.119 1344.29,-141.134 1347.83,-140.102"/>
<polygon fill="midnightblue" stroke="midnightblue" points="1349.11,-143.372 1357.67,-137.122 1347.08,-136.673 1349.11,-143.372"/>
</g>
<!-- Node2 -->
<g id="node3" class="node"><title>Node2</title>
<g id="a_node3"><a xlink:href="../../dc/d49/LeosacFwd_8hpp.html" target="_top" xlink:title="LeosacFwd.hpp">
<polygon fill="white" stroke="black" points="89.3132,-118 89.3132,-137 175.313,-137 175.313,-118 89.3132,-118"/>
<text text-anchor="middle" x="132.313" y="-125" font-family="Helvetica,sans-Serif" font-size="10.00">LeosacFwd.hpp</text>
</a>
</g>
</g>
<!-- Node1&#45;&gt;Node2 -->
<g id="edge2" class="edge"><title>Node1&#45;&gt;Node2</title>
<path fill="none" stroke="midnightblue" d="M223.126,-179.475C205.652,-169.666 176.735,-153.435 156.23,-141.925"/>
<polygon fill="midnightblue" stroke="midnightblue" points="157.906,-138.852 147.472,-137.009 154.479,-144.956 157.906,-138.852"/>
</g>
<!-- Node5 -->
<g id="node6" class="node"><title>Node5</title>
<g id="a_node6"><a xlink:href="../../d7/dcf/AuditFwd_8hpp.html" target="_top" xlink:title="core/audit/AuditFwd.hpp">
<polygon fill="white" stroke="black" points="231.313,-118 231.313,-137 353.313,-137 353.313,-118 231.313,-118"/>
<text text-anchor="middle" x="292.313" y="-125" font-family="Helvetica,sans-Serif" font-size="10.00">core/audit/AuditFwd.hpp</text>
</a>
</g>
</g>
<!-- Node1&#45;&gt;Node5 -->
<g id="edge5" class="edge"><title>Node1&#45;&gt;Node5</title>
<path fill="none" stroke="midnightblue" d="M246.05,-179.475C254.311,-170.373 267.59,-155.741 277.808,-144.483"/>
<polygon fill="midnightblue" stroke="midnightblue" points="280.462,-146.766 284.591,-137.009 275.278,-142.062 280.462,-146.766"/>
</g>
<!-- Node9 -->
<g id="node10" class="node"><title>Node9</title>
<polygon fill="white" stroke="#bfbfbf" points="17.8132,-118 17.8132,-137 70.8132,-137 70.8132,-118 17.8132,-118"/>
<text text-anchor="middle" x="44.3132" y="-125" font-family="Helvetica,sans-Serif" font-size="10.00">json.hpp</text>
</g>
<!-- Node1&#45;&gt;Node9 -->
<g id="edge10" class="edge"><title>Node1&#45;&gt;Node9</title>
<path fill="none" stroke="midnightblue" d="M204.398,-179.449C172.185,-171.067 122.538,-157.472 80.3132,-143 78.1899,-142.272 76.0096,-141.488 73.8231,-140.675"/>
<polygon fill="midnightblue" stroke="midnightblue" points="74.944,-137.356 64.3549,-137.007 72.4152,-143.883 74.944,-137.356"/>
</g>
<!-- Node10 -->
<g id="node11" class="node"><title>Node10</title>
<polygon fill="white" stroke="#bfbfbf" points="950.813,-0.5 950.813,-19.5 991.813,-19.5 991.813,-0.5 950.813,-0.5"/>
<text text-anchor="middle" x="971.313" y="-7.5" font-family="Helvetica,sans-Serif" font-size="10.00">string</text>
</g>
<!-- Node1&#45;&gt;Node10 -->
<g id="edge11" class="edge"><title>Node1&#45;&gt;Node10</title>
<path fill="none" stroke="midnightblue" d="M234.202,-179.277C230.255,-170.383 224.568,-156.074 222.313,-143 215.409,-102.971 216.327,-78.2471 250.313,-56 312.503,-15.2907 829.514,-31.9294 940.815,-19.2678"/>
<polygon fill="midnightblue" stroke="midnightblue" points="941.4,-22.72 950.812,-17.8561 940.421,-15.7888 941.4,-22.72"/>
</g>
<!-- Node3 -->
<g id="node4" class="node"><title>Node3</title>
<polygon fill="white" stroke="#bfbfbf" points="574.313,-56.5 574.313,-75.5 626.313,-75.5 626.313,-56.5 574.313,-56.5"/>
<text text-anchor="middle" x="600.313" y="-63.5" font-family="Helvetica,sans-Serif" font-size="10.00">memory</text>
</g>
<!-- Node2&#45;&gt;Node3 -->
<g id="edge3" class="edge"><title>Node2&#45;&gt;Node3</title>
<path fill="none" stroke="midnightblue" d="M175.747,-119.131C190.506,-116.726 207.11,-114.129 222.313,-112 347.498,-94.4718 496.628,-78.0159 564.042,-70.8145"/>
<polygon fill="midnightblue" stroke="midnightblue" points="564.57,-74.2781 574.144,-69.7394 563.829,-67.3174 564.57,-74.2781"/>
</g>
<!-- Node4 -->
<g id="node5" class="node"><title>Node4</title>
<polygon fill="white" stroke="#bfbfbf" points="110.313,-56.5 110.313,-75.5 154.313,-75.5 154.313,-56.5 110.313,-56.5"/>
<text text-anchor="middle" x="132.313" y="-63.5" font-family="Helvetica,sans-Serif" font-size="10.00">vector</text>
</g>
<!-- Node2&#45;&gt;Node4 -->
<g id="edge4" class="edge"><title>Node2&#45;&gt;Node4</title>
<path fill="none" stroke="midnightblue" d="M132.313,-117.975C132.313,-109.58 132.313,-96.4806 132.313,-85.6631"/>
<polygon fill="midnightblue" stroke="midnightblue" points="135.813,-85.5091 132.313,-75.5091 128.813,-85.5091 135.813,-85.5091"/>
</g>
<!-- Node5&#45;&gt;Node3 -->
<g id="edge8" class="edge"><title>Node5&#45;&gt;Node3</title>
<path fill="none" stroke="midnightblue" d="M336.334,-117.988C346.507,-116.021 357.287,-113.937 367.313,-112 436.927,-98.5484 518.241,-82.8462 564.066,-73.9983"/>
<polygon fill="midnightblue" stroke="midnightblue" points="564.951,-77.3922 574.106,-72.0598 563.624,-70.5191 564.951,-77.3922"/>
</g>
<!-- Node6 -->
<g id="node7" class="node"><title>Node6</title>
<polygon fill="white" stroke="#bfbfbf" points="424.813,-56.5 424.813,-75.5 473.813,-75.5 473.813,-56.5 424.813,-56.5"/>
<text text-anchor="middle" x="449.313" y="-63.5" font-family="Helvetica,sans-Serif" font-size="10.00">cstddef</text>
</g>
<!-- Node5&#45;&gt;Node6 -->
<g id="edge6" class="edge"><title>Node5&#45;&gt;Node6</title>
<path fill="none" stroke="midnightblue" d="M314.808,-117.975C341.622,-107.813 386.628,-90.7564 417.123,-79.1996"/>
<polygon fill="midnightblue" stroke="midnightblue" points="418.75,-82.3258 426.861,-75.5091 416.269,-75.7801 418.75,-82.3258"/>
</g>
<!-- Node7 -->
<g id="node8" class="node"><title>Node7</title>
<polygon fill="white" stroke="#bfbfbf" points="259.813,-56.5 259.813,-75.5 324.813,-75.5 324.813,-56.5 259.813,-56.5"/>
<text text-anchor="middle" x="292.313" y="-63.5" font-family="Helvetica,sans-Serif" font-size="10.00">flagset.hpp</text>
</g>
<!-- Node5&#45;&gt;Node7 -->
<g id="edge7" class="edge"><title>Node5&#45;&gt;Node7</title>
<path fill="none" stroke="midnightblue" d="M292.313,-117.975C292.313,-109.58 292.313,-96.4806 292.313,-85.6631"/>
<polygon fill="midnightblue" stroke="midnightblue" points="295.813,-85.5091 292.313,-75.5091 288.813,-85.5091 295.813,-85.5091"/>
</g>
<!-- Node8 -->
<g id="node9" class="node"><title>Node8</title>
<polygon fill="white" stroke="#bfbfbf" points="726.313,-56.5 726.313,-75.5 812.313,-75.5 812.313,-56.5 726.313,-56.5"/>
<text text-anchor="middle" x="769.313" y="-63.5" font-family="Helvetica,sans-Serif" font-size="10.00">odb/lazy&#45;ptr.hxx</text>
</g>
<!-- Node5&#45;&gt;Node8 -->
<g id="edge9" class="edge"><title>Node5&#45;&gt;Node8</title>
<path fill="none" stroke="midnightblue" d="M353.41,-118.166C368.72,-116.114 385.114,-113.947 400.313,-112 512.578,-97.6189 644.2,-81.8228 715.972,-73.2996"/>
<polygon fill="midnightblue" stroke="midnightblue" points="716.599,-76.7498 726.117,-72.0959 715.775,-69.7986 716.599,-76.7498"/>
</g>
<!-- Node11&#45;&gt;Node2 -->
<g id="edge13" class="edge"><title>Node11&#45;&gt;Node2</title>
<path fill="none" stroke="midnightblue" d="M103.185,-179.475C108.184,-170.727 116.102,-156.869 122.422,-145.809"/>
<polygon fill="midnightblue" stroke="midnightblue" points="125.528,-147.428 127.451,-137.009 119.451,-143.955 125.528,-147.428"/>
</g>
<!-- Node11&#45;&gt;Node5 -->
<g id="edge14" class="edge"><title>Node11&#45;&gt;Node5</title>
<path fill="none" stroke="midnightblue" d="M126.109,-179.475C159.963,-169.092 217.284,-151.512 254.968,-139.954"/>
<polygon fill="midnightblue" stroke="midnightblue" points="256.035,-143.288 264.569,-137.009 253.983,-136.595 256.035,-143.288"/>
</g>
<!-- Node11&#45;&gt;Node9 -->
<g id="edge15" class="edge"><title>Node11&#45;&gt;Node9</title>
<path fill="none" stroke="midnightblue" d="M90.5763,-179.475C82.3159,-170.373 69.0361,-155.741 58.8188,-144.483"/>
<polygon fill="midnightblue" stroke="midnightblue" points="61.3481,-142.062 52.0358,-137.009 56.1646,-146.766 61.3481,-142.062"/>
</g>
<!-- Node11&#45;&gt;Node10 -->
<g id="edge16" class="edge"><title>Node11&#45;&gt;Node10</title>
<path fill="none" stroke="midnightblue" d="M61.211,-179.458C41.8684,-172.918 19.8853,-161.724 8.31323,-143 -32.2817,-77.3161 94.9573,-57.9134 101.313,-56 277.163,-3.06146 740.867,-49.4408 940.328,-19.5956"/>
<polygon fill="midnightblue" stroke="midnightblue" points="941.169,-23.0057 950.49,-17.9688 940.062,-16.0937 941.169,-23.0057"/>
</g>
<!-- Node12&#45;&gt;Node5 -->
<g id="edge18" class="edge"><title>Node12&#45;&gt;Node5</title>
<path fill="none" stroke="midnightblue" d="M666.702,-179.475C586.42,-168.544 447.552,-149.637 363.385,-138.177"/>
<polygon fill="midnightblue" stroke="midnightblue" points="363.78,-134.698 353.4,-136.817 362.836,-141.634 363.78,-134.698"/>
</g>
<!-- Node13 -->
<g id="node14" class="node"><title>Node13</title>
<g id="a_node14"><a xlink:href="../../d3/d6f/AuthFwd_8hpp.html" target="_top" xlink:title="core/auth/AuthFwd.hpp">
<polygon fill="white" stroke="black" points="541.313,-118 541.313,-137 659.313,-137 659.313,-118 541.313,-118"/>
<text text-anchor="middle" x="600.313" y="-125" font-family="Helvetica,sans-Serif" font-size="10.00">core/auth/AuthFwd.hpp</text>
</a>
</g>
</g>
<!-- Node12&#45;&gt;Node13 -->
<g id="edge19" class="edge"><title>Node12&#45;&gt;Node13</title>
<path fill="none" stroke="midnightblue" d="M710.831,-179.475C689.182,-169.49 653.1,-152.848 628.081,-141.307"/>
<polygon fill="midnightblue" stroke="midnightblue" points="629.308,-138.019 618.761,-137.009 626.376,-144.376 629.308,-138.019"/>
</g>
<!-- Node14 -->
<g id="node15" class="node"><title>Node14</title>
<g id="a_node15"><a xlink:href="../../d7/d7f/CredentialFwd_8hpp.html" target="_top" xlink:title="core/credentials/Credential\lFwd.hpp">
<polygon fill="white" stroke="black" points="919.813,-112.5 919.813,-142.5 1052.81,-142.5 1052.81,-112.5 919.813,-112.5"/>
<text text-anchor="start" x="927.813" y="-130.5" font-family="Helvetica,sans-Serif" font-size="10.00">core/credentials/Credential</text>
<text text-anchor="middle" x="986.313" y="-119.5" font-family="Helvetica,sans-Serif" font-size="10.00">Fwd.hpp</text>
</a>
</g>
</g>
<!-- Node12&#45;&gt;Node14 -->
<g id="edge23" class="edge"><title>Node12&#45;&gt;Node14</title>
<path fill="none" stroke="midnightblue" d="M766.135,-179.475C805.09,-170.456 867.499,-156.008 915.942,-144.792"/>
<polygon fill="midnightblue" stroke="midnightblue" points="916.791,-148.188 925.743,-142.523 915.212,-141.369 916.791,-148.188"/>
</g>
<!-- Node15 -->
<g id="node16" class="node"><title>Node15</title>
<g id="a_node16"><a xlink:href="../../d9/dc8/HardwareFwd_8hpp.html" target="_top" xlink:title="hardware/HardwareFwd.hpp">
<polygon fill="white" stroke="black" points="1189.81,-118 1189.81,-137 1328.81,-137 1328.81,-118 1189.81,-118"/>
<text text-anchor="middle" x="1259.31" y="-125" font-family="Helvetica,sans-Serif" font-size="10.00">hardware/HardwareFwd.hpp</text>
</a>
</g>
</g>
<!-- Node12&#45;&gt;Node15 -->
<g id="edge26" class="edge"><title>Node12&#45;&gt;Node15</title>
<path fill="none" stroke="midnightblue" d="M793.369,-183.273C880.982,-176.429 1042.99,-162.42 1180.31,-143 1188.75,-141.807 1197.66,-140.358 1206.33,-138.842"/>
<polygon fill="midnightblue" stroke="midnightblue" points="1207.14,-142.253 1216.37,-137.044 1205.91,-135.363 1207.14,-142.253"/>
</g>
<!-- Node22 -->
<g id="node23" class="node"><title>Node22</title>
<g id="a_node23"><a xlink:href="../../d8/d97/ToolsFwd_8hpp.html" target="_top" xlink:title="tools/ToolsFwd.hpp">
<polygon fill="white" stroke="black" points="799.313,-118 799.313,-137 901.313,-137 901.313,-118 799.313,-118"/>
<text text-anchor="middle" x="850.313" y="-125" font-family="Helvetica,sans-Serif" font-size="10.00">tools/ToolsFwd.hpp</text>
</a>
</g>
</g>
<!-- Node12&#45;&gt;Node22 -->
<g id="edge34" class="edge"><title>Node12&#45;&gt;Node22</title>
<path fill="none" stroke="midnightblue" d="M746.65,-179.475C766.866,-169.534 800.5,-152.995 823.956,-141.461"/>
<polygon fill="midnightblue" stroke="midnightblue" points="825.58,-144.563 833.009,-137.009 822.491,-138.281 825.58,-144.563"/>
</g>
<!-- Node23 -->
<g id="node24" class="node"><title>Node23</title>
<g id="a_node24"><a xlink:href="../../d9/d69/db__fwd_8hpp.html" target="_top" xlink:title="tools/db/db_fwd.hpp">
<polygon fill="white" stroke="black" points="677.313,-118 677.313,-137 781.313,-137 781.313,-118 677.313,-118"/>
<text text-anchor="middle" x="729.313" y="-125" font-family="Helvetica,sans-Serif" font-size="10.00">tools/db/db_fwd.hpp</text>
</a>
</g>
</g>
<!-- Node12&#45;&gt;Node23 -->
<g id="edge37" class="edge"><title>Node12&#45;&gt;Node23</title>
<path fill="none" stroke="midnightblue" d="M729.313,-179.475C729.313,-171.08 729.313,-157.981 729.313,-147.163"/>
<polygon fill="midnightblue" stroke="midnightblue" points="732.813,-147.009 729.313,-137.009 725.813,-147.009 732.813,-147.009"/>
</g>
<!-- Node13&#45;&gt;Node3 -->
<g id="edge21" class="edge"><title>Node13&#45;&gt;Node3</title>
<path fill="none" stroke="midnightblue" d="M600.313,-117.975C600.313,-109.58 600.313,-96.4806 600.313,-85.6631"/>
<polygon fill="midnightblue" stroke="midnightblue" points="603.813,-85.5091 600.313,-75.5091 596.813,-85.5091 603.813,-85.5091"/>
</g>
<!-- Node13&#45;&gt;Node6 -->
<g id="edge20" class="edge"><title>Node13&#45;&gt;Node6</title>
<path fill="none" stroke="midnightblue" d="M578.679,-117.975C552.889,-107.813 509.603,-90.7564 480.274,-79.1996"/>
<polygon fill="midnightblue" stroke="midnightblue" points="481.495,-75.9189 470.908,-75.5091 478.928,-82.4315 481.495,-75.9189"/>
</g>
<!-- Node13&#45;&gt;Node8 -->
<g id="edge22" class="edge"><title>Node13&#45;&gt;Node8</title>
<path fill="none" stroke="midnightblue" d="M624.527,-117.975C653.642,-107.725 702.681,-90.4593 735.515,-78.8994"/>
<polygon fill="midnightblue" stroke="midnightblue" points="736.874,-82.1314 745.145,-75.5091 734.55,-75.5287 736.874,-82.1314"/>
</g>
<!-- Node14&#45;&gt;Node3 -->
<g id="edge24" class="edge"><title>Node14&#45;&gt;Node3</title>
<path fill="none" stroke="midnightblue" d="M919.615,-113.601C916.473,-113.048 913.36,-112.512 910.313,-112 811.605,-95.4278 694.6,-79.4255 636.624,-71.7391"/>
<polygon fill="midnightblue" stroke="midnightblue" points="636.875,-68.242 626.503,-70.4024 635.958,-75.1817 636.875,-68.242"/>
</g>
<!-- Node14&#45;&gt;Node8 -->
<g id="edge25" class="edge"><title>Node14&#45;&gt;Node8</title>
<path fill="none" stroke="midnightblue" d="M935.162,-112.475C897.071,-102.03 845.747,-87.9576 810.331,-78.2469"/>
<polygon fill="midnightblue" stroke="midnightblue" points="810.906,-74.7754 800.336,-75.5064 809.055,-81.5262 810.906,-74.7754"/>
</g>
<!-- Node16 -->
<g id="node17" class="node"><title>Node16</title>
<g id="a_node17"><a xlink:href="../../dc/dea/Uuid_8hpp.html" target="_top" xlink:title="tools/Uuid.hpp">
<polygon fill="white" stroke="black" points="1202.31,-56.5 1202.31,-75.5 1282.31,-75.5 1282.31,-56.5 1202.31,-56.5"/>
<text text-anchor="middle" x="1242.31" y="-63.5" font-family="Helvetica,sans-Serif" font-size="10.00">tools/Uuid.hpp</text>
</a>
</g>
</g>
<!-- Node15&#45;&gt;Node16 -->
<g id="edge27" class="edge"><title>Node15&#45;&gt;Node16</title>
<path fill="none" stroke="midnightblue" d="M1256.88,-117.975C1254.45,-109.492 1250.66,-96.2043 1247.55,-85.3222"/>
<polygon fill="midnightblue" stroke="midnightblue" points="1250.86,-84.1628 1244.74,-75.5091 1244.13,-86.0859 1250.86,-84.1628"/>
</g>
<!-- Node16&#45;&gt;Node10 -->
<g id="edge33" class="edge"><title>Node16&#45;&gt;Node10</title>
<path fill="none" stroke="midnightblue" d="M1201.84,-58.0662C1147.17,-48.607 1051.65,-31.7222 1001.75,-20.0894"/>
<polygon fill="midnightblue" stroke="midnightblue" points="1002.37,-16.6379 991.825,-17.6914 1000.72,-23.4421 1002.37,-16.6379"/>
</g>
<!-- Node17 -->
<g id="node18" class="node"><title>Node17</title>
<polygon fill="white" stroke="#bfbfbf" points="1353.31,-0.5 1353.31,-19.5 1467.31,-19.5 1467.31,-0.5 1353.31,-0.5"/>
<text text-anchor="middle" x="1410.31" y="-7.5" font-family="Helvetica,sans-Serif" font-size="10.00">boost/lexical_cast.hpp</text>
</g>
<!-- Node16&#45;&gt;Node17 -->
<g id="edge28" class="edge"><title>Node16&#45;&gt;Node17</title>
<path fill="none" stroke="midnightblue" d="M1268.93,-56.4435C1297.32,-47.3196 1342.45,-32.8133 1374.07,-22.6509"/>
<polygon fill="midnightblue" stroke="midnightblue" points="1375.37,-25.9087 1383.82,-19.5164 1373.23,-19.2445 1375.37,-25.9087"/>
</g>
<!-- Node18 -->
<g id="node19" class="node"><title>Node18</title>
<polygon fill="white" stroke="#bfbfbf" points="1485.81,-0.5 1485.81,-19.5 1646.81,-19.5 1646.81,-0.5 1485.81,-0.5"/>
<text text-anchor="middle" x="1566.31" y="-7.5" font-family="Helvetica,sans-Serif" font-size="10.00">boost/uuid/random_generator.hpp</text>
</g>
<!-- Node16&#45;&gt;Node18 -->
<g id="edge29" class="edge"><title>Node16&#45;&gt;Node18</title>
<path fill="none" stroke="midnightblue" d="M1282.41,-57.5691C1285.42,-57.0313 1288.42,-56.5031 1291.31,-56 1363.44,-43.4752 1446.39,-30.0332 1502.17,-21.1351"/>
<polygon fill="midnightblue" stroke="midnightblue" points="1502.93,-24.5576 1512.25,-19.5278 1501.83,-17.6448 1502.93,-24.5576"/>
</g>
<!-- Node19 -->
<g id="node20" class="node"><title>Node19</title>
<polygon fill="white" stroke="#bfbfbf" points="1009.81,-0.5 1009.81,-19.5 1110.81,-19.5 1110.81,-0.5 1009.81,-0.5"/>
<text text-anchor="middle" x="1060.31" y="-7.5" font-family="Helvetica,sans-Serif" font-size="10.00">boost/uuid/uuid.hpp</text>
</g>
<!-- Node16&#45;&gt;Node19 -->
<g id="edge30" class="edge"><title>Node16&#45;&gt;Node19</title>
<path fill="none" stroke="midnightblue" d="M1213.47,-56.4435C1182.46,-47.2406 1132.98,-32.5617 1098.69,-22.3879"/>
<polygon fill="midnightblue" stroke="midnightblue" points="1099.6,-19.0055 1089.02,-19.5164 1097.61,-25.7164 1099.6,-19.0055"/>
</g>
<!-- Node20 -->
<g id="node21" class="node"><title>Node20</title>
<polygon fill="white" stroke="#bfbfbf" points="1129.31,-0.5 1129.31,-19.5 1243.31,-19.5 1243.31,-0.5 1129.31,-0.5"/>
<text text-anchor="middle" x="1186.31" y="-7.5" font-family="Helvetica,sans-Serif" font-size="10.00">boost/uuid/uuid_io.hpp</text>
</g>
<!-- Node16&#45;&gt;Node20 -->
<g id="edge31" class="edge"><title>Node16&#45;&gt;Node20</title>
<path fill="none" stroke="midnightblue" d="M1233.32,-56.324C1225.12,-48.4196 1212.81,-36.5482 1202.84,-26.9377"/>
<polygon fill="midnightblue" stroke="midnightblue" points="1205.1,-24.2558 1195.47,-19.8339 1200.24,-29.2947 1205.1,-24.2558"/>
</g>
<!-- Node21 -->
<g id="node22" class="node"><title>Node21</title>
<polygon fill="white" stroke="#bfbfbf" points="1261.81,-0.5 1261.81,-19.5 1334.81,-19.5 1334.81,-0.5 1261.81,-0.5"/>
<text text-anchor="middle" x="1298.31" y="-7.5" font-family="Helvetica,sans-Serif" font-size="10.00">odb/core.hxx</text>
</g>
<!-- Node16&#45;&gt;Node21 -->
<g id="edge32" class="edge"><title>Node16&#45;&gt;Node21</title>
<path fill="none" stroke="midnightblue" d="M1251.31,-56.324C1259.51,-48.4196 1271.82,-36.5482 1281.79,-26.9377"/>
<polygon fill="midnightblue" stroke="midnightblue" points="1284.38,-29.2947 1289.15,-19.8339 1279.52,-24.2558 1284.38,-29.2947"/>
</g>
<!-- Node22&#45;&gt;Node3 -->
<g id="edge35" class="edge"><title>Node22&#45;&gt;Node3</title>
<path fill="none" stroke="midnightblue" d="M815.103,-117.962C806.964,-115.997 798.338,-113.92 790.313,-112 736.824,-99.2024 674.817,-84.5513 636.575,-75.5364"/>
<polygon fill="midnightblue" stroke="midnightblue" points="636.982,-72.0365 626.446,-73.1495 635.376,-78.8499 636.982,-72.0365"/>
</g>
<!-- Node22&#45;&gt;Node8 -->
<g id="edge36" class="edge"><title>Node22&#45;&gt;Node8</title>
<path fill="none" stroke="midnightblue" d="M838.708,-117.975C825.836,-108.52 804.839,-93.0961 789.307,-81.6871"/>
<polygon fill="midnightblue" stroke="midnightblue" points="791.028,-78.6085 780.897,-75.5091 786.884,-84.25 791.028,-78.6085"/>
</g>
<!-- Node23&#45;&gt;Node3 -->
<g id="edge38" class="edge"><title>Node23&#45;&gt;Node3</title>
<path fill="none" stroke="midnightblue" d="M710.831,-117.975C689.182,-107.99 653.1,-91.3476 628.081,-79.8075"/>
<polygon fill="midnightblue" stroke="midnightblue" points="629.308,-76.5193 618.761,-75.5091 626.376,-82.8757 629.308,-76.5193"/>
</g>
<!-- Node24&#45;&gt;Node14 -->
<g id="edge49" class="edge"><title>Node24&#45;&gt;Node14</title>
<path fill="none" stroke="midnightblue" d="M602.335,-235.784C658.419,-228.767 735.87,-216.923 802.313,-199 853.098,-185.301 909.255,-162.625 946.011,-146.698"/>
<polygon fill="midnightblue" stroke="midnightblue" points="947.622,-149.814 955.382,-142.601 944.818,-143.4 947.622,-149.814"/>
</g>
<!-- Node25 -->
<g id="node26" class="node"><title>Node25</title>
<g id="a_node26"><a xlink:href="../../d3/dd8/IAuditEntry_8hpp.html" target="_top" xlink:title="IAuditEntry.hpp">
<polygon fill="white" stroke="black" points="463.313,-179.5 463.313,-198.5 547.313,-198.5 547.313,-179.5 463.313,-179.5"/>
<text text-anchor="middle" x="505.313" y="-186.5" font-family="Helvetica,sans-Serif" font-size="10.00">IAuditEntry.hpp</text>
</a>
</g>
</g>
<!-- Node24&#45;&gt;Node25 -->
<g id="edge40" class="edge"><title>Node24&#45;&gt;Node25</title>
<path fill="none" stroke="midnightblue" d="M522.011,-235.083C519.331,-227.849 515.465,-217.409 512.127,-208.397"/>
<polygon fill="midnightblue" stroke="midnightblue" points="515.31,-206.913 508.554,-198.751 508.745,-209.344 515.31,-206.913"/>
</g>
<!-- Node25&#45;&gt;Node3 -->
<g id="edge48" class="edge"><title>Node25&#45;&gt;Node3</title>
<path fill="none" stroke="midnightblue" d="M463.294,-181.395C440.538,-175.443 414.288,-164.193 400.313,-143 392.729,-131.498 391.706,-122.759 400.313,-112 420.437,-86.8449 512.11,-74.764 564.078,-69.8455"/>
<polygon fill="midnightblue" stroke="midnightblue" points="564.573,-73.3151 574.218,-68.929 563.943,-66.3436 564.573,-73.3151"/>
</g>
<!-- Node25&#45;&gt;Node5 -->
<g id="edge41" class="edge"><title>Node25&#45;&gt;Node5</title>
<path fill="none" stroke="midnightblue" d="M474.796,-179.475C437.389,-169.026 373.886,-151.287 332.526,-139.733"/>
<polygon fill="midnightblue" stroke="midnightblue" points="333.347,-136.329 322.774,-137.009 331.464,-143.071 333.347,-136.329"/>
</g>
<!-- Node25&#45;&gt;Node13 -->
<g id="edge42" class="edge"><title>Node25&#45;&gt;Node13</title>
<path fill="none" stroke="midnightblue" d="M518.924,-179.475C534.374,-169.799 559.803,-153.872 578.129,-142.394"/>
<polygon fill="midnightblue" stroke="midnightblue" points="580.11,-145.283 586.727,-137.009 576.394,-139.351 580.11,-145.283"/>
</g>
<!-- Node26 -->
<g id="node27" class="node"><title>Node26</title>
<g id="a_node27"><a xlink:href="../../dd/d9d/IVisitable_8hpp.html" target="_top" xlink:title="tools/IVisitable.hpp">
<polygon fill="white" stroke="black" points="1071.31,-118 1071.31,-137 1171.31,-137 1171.31,-118 1071.31,-118"/>
<text text-anchor="middle" x="1121.31" y="-125" font-family="Helvetica,sans-Serif" font-size="10.00">tools/IVisitable.hpp</text>
</a>
</g>
</g>
<!-- Node25&#45;&gt;Node26 -->
<g id="edge43" class="edge"><title>Node25&#45;&gt;Node26</title>
<path fill="none" stroke="midnightblue" d="M547.342,-185.454C659.17,-178.542 962.224,-158.883 1061.31,-143 1067.49,-142.009 1073.98,-140.716 1080.3,-139.31"/>
<polygon fill="midnightblue" stroke="midnightblue" points="1081.11,-142.716 1090.05,-137.034 1079.52,-135.899 1081.11,-142.716"/>
</g>
<!-- Node30 -->
<g id="node31" class="node"><title>Node30</title>
<polygon fill="white" stroke="#bfbfbf" points="409.813,-112.5 409.813,-142.5 522.813,-142.5 522.813,-112.5 409.813,-112.5"/>
<text text-anchor="start" x="417.813" y="-130.5" font-family="Helvetica,sans-Serif" font-size="10.00">boost/date_time/posix</text>
<text text-anchor="middle" x="466.313" y="-119.5" font-family="Helvetica,sans-Serif" font-size="10.00">_time/posix_time.hpp</text>
</g>
<!-- Node25&#45;&gt;Node30 -->
<g id="edge47" class="edge"><title>Node25&#45;&gt;Node30</title>
<path fill="none" stroke="midnightblue" d="M499.725,-179.475C494.888,-172.094 487.666,-161.077 481.173,-151.171"/>
<polygon fill="midnightblue" stroke="midnightblue" points="483.914,-148.968 475.505,-142.523 478.06,-152.805 483.914,-148.968"/>
</g>
<!-- Node27 -->
<g id="node28" class="node"><title>Node27</title>
<g id="a_node28"><a xlink:href="../../d2/d91/Visitor_8hpp.html" target="_top" xlink:title="tools/Visitor.hpp">
<polygon fill="white" stroke="black" points="951.813,-56.5 951.813,-75.5 1038.81,-75.5 1038.81,-56.5 951.813,-56.5"/>
<text text-anchor="middle" x="995.313" y="-63.5" font-family="Helvetica,sans-Serif" font-size="10.00">tools/Visitor.hpp</text>
</a>
</g>
</g>
<!-- Node26&#45;&gt;Node27 -->
<g id="edge44" class="edge"><title>Node26&#45;&gt;Node27</title>
<path fill="none" stroke="midnightblue" d="M1103.26,-117.975C1082.11,-107.99 1046.87,-91.3476 1022.43,-79.8075"/>
<polygon fill="midnightblue" stroke="midnightblue" points="1023.87,-76.6143 1013.33,-75.5091 1020.88,-82.9441 1023.87,-76.6143"/>
</g>
<!-- Node29 -->
<g id="node30" class="node"><title>Node29</title>
<polygon fill="white" stroke="#bfbfbf" points="1096.81,-56.5 1096.81,-75.5 1145.81,-75.5 1145.81,-56.5 1096.81,-56.5"/>
<text text-anchor="middle" x="1121.31" y="-63.5" font-family="Helvetica,sans-Serif" font-size="10.00">cassert</text>
</g>
<!-- Node26&#45;&gt;Node29 -->
<g id="edge46" class="edge"><title>Node26&#45;&gt;Node29</title>
<path fill="none" stroke="midnightblue" d="M1121.31,-117.975C1121.31,-109.58 1121.31,-96.4806 1121.31,-85.6631"/>
<polygon fill="midnightblue" stroke="midnightblue" points="1124.81,-85.5091 1121.31,-75.5091 1117.81,-85.5091 1124.81,-85.5091"/>
</g>
<!-- Node28 -->
<g id="node29" class="node"><title>Node28</title>
<polygon fill="white" stroke="#bfbfbf" points="870.313,-0.5 870.313,-19.5 932.313,-19.5 932.313,-0.5 870.313,-0.5"/>
<text text-anchor="middle" x="901.313" y="-7.5" font-family="Helvetica,sans-Serif" font-size="10.00">type_traits</text>
</g>
<!-- Node27&#45;&gt;Node28 -->
<g id="edge45" class="edge"><title>Node27&#45;&gt;Node28</title>
<path fill="none" stroke="midnightblue" d="M980.211,-56.324C965.41,-47.8215 942.619,-34.7288 925.331,-24.7975"/>
<polygon fill="midnightblue" stroke="midnightblue" points="926.793,-21.6009 916.378,-19.6545 923.306,-27.6707 926.793,-21.6009"/>
</g>
<!-- Node31&#45;&gt;Node10 -->
<g id="edge56" class="edge"><title>Node31&#45;&gt;Node10</title>
<path fill="none" stroke="midnightblue" d="M1357.12,-117.944C1350.67,-115.919 1343.76,-113.82 1337.31,-112 1273.83,-94.0754 1255.07,-99.2033 1193.31,-76 1175.08,-69.1485 1172.6,-62.7115 1154.31,-56 1091.29,-32.8704 1070.05,-37.8938 1001.81,-20.2229"/>
<polygon fill="midnightblue" stroke="midnightblue" points="1002.42,-16.7643 991.855,-17.5735 1000.62,-23.5286 1002.42,-16.7643"/>
</g>
<!-- Node31&#45;&gt;Node29 -->
<g id="edge51" class="edge"><title>Node31&#45;&gt;Node29</title>
<path fill="none" stroke="midnightblue" d="M1357.66,-117.892C1351.07,-115.824 1343.96,-113.719 1337.31,-112 1259.59,-91.9054 1238.76,-93.027 1160.31,-76 1158.87,-75.6868 1157.4,-75.3636 1155.91,-75.0342"/>
<polygon fill="midnightblue" stroke="midnightblue" points="1156.57,-71.5957 1146.05,-72.8108 1155.03,-78.4244 1156.57,-71.5957"/>
</g>
<!-- Node32 -->
<g id="node33" class="node"><title>Node32</title>
<polygon fill="white" stroke="#bfbfbf" points="1300.81,-56.5 1300.81,-75.5 1347.81,-75.5 1347.81,-56.5 1300.81,-56.5"/>
<text text-anchor="middle" x="1324.31" y="-63.5" font-family="Helvetica,sans-Serif" font-size="10.00">csignal</text>
</g>
<!-- Node31&#45;&gt;Node32 -->
<g id="edge52" class="edge"><title>Node31&#45;&gt;Node32</title>
<path fill="none" stroke="midnightblue" d="M1374.86,-117.975C1365.75,-108.785 1351.04,-93.9563 1339.84,-82.656"/>
<polygon fill="midnightblue" stroke="midnightblue" points="1342.28,-80.1455 1332.75,-75.5091 1337.31,-85.0744 1342.28,-80.1455"/>
</g>
<!-- Node33 -->
<g id="node34" class="node"><title>Node33</title>
<polygon fill="white" stroke="#bfbfbf" points="1366.31,-56.5 1366.31,-75.5 1420.31,-75.5 1420.31,-56.5 1366.31,-56.5"/>
<text text-anchor="middle" x="1393.31" y="-63.5" font-family="Helvetica,sans-Serif" font-size="10.00">iostream</text>
</g>
<!-- Node31&#45;&gt;Node33 -->
<g id="edge53" class="edge"><title>Node31&#45;&gt;Node33</title>
<path fill="none" stroke="midnightblue" d="M1384.75,-117.975C1386.16,-109.58 1388.36,-96.4806 1390.18,-85.6631"/>
<polygon fill="midnightblue" stroke="midnightblue" points="1393.68,-85.9509 1391.88,-75.5091 1386.77,-84.7906 1393.68,-85.9509"/>
</g>
<!-- Node34 -->
<g id="node35" class="node"><title>Node34</title>
<polygon fill="white" stroke="#bfbfbf" points="1438.81,-56.5 1438.81,-75.5 1523.81,-75.5 1523.81,-56.5 1438.81,-56.5"/>
<text text-anchor="middle" x="1481.31" y="-63.5" font-family="Helvetica,sans-Serif" font-size="10.00">spdlog/spdlog.h</text>
</g>
<!-- Node31&#45;&gt;Node34 -->
<g id="edge54" class="edge"><title>Node31&#45;&gt;Node34</title>
<path fill="none" stroke="midnightblue" d="M1397.35,-117.975C1413.36,-108.255 1439.76,-92.2266 1458.69,-80.7372"/>
<polygon fill="midnightblue" stroke="midnightblue" points="1460.57,-83.6907 1467.3,-75.5091 1456.93,-77.7072 1460.57,-83.6907"/>
</g>
<!-- Node35 -->
<g id="node36" class="node"><title>Node35</title>
<polygon fill="white" stroke="#bfbfbf" points="1542.31,-56.5 1542.31,-75.5 1594.31,-75.5 1594.31,-56.5 1542.31,-56.5"/>
<text text-anchor="middle" x="1568.31" y="-63.5" font-family="Helvetica,sans-Serif" font-size="10.00">sstream</text>
</g>
<!-- Node31&#45;&gt;Node35 -->
<g id="edge55" class="edge"><title>Node31&#45;&gt;Node35</title>
<path fill="none" stroke="midnightblue" d="M1409.82,-117.975C1442.06,-107.607 1496.61,-90.0617 1532.55,-78.5033"/>
<polygon fill="midnightblue" stroke="midnightblue" points="1533.71,-81.8067 1542.16,-75.413 1531.56,-75.1429 1533.71,-81.8067"/>
</g>
</g>
</svg>
