<?xml version="1.0" encoding="UTF-8" standalone="no"?>
<!DOCTYPE svg PUBLIC "-//W3C//DTD SVG 1.1//EN"
 "http://www.w3.org/Graphics/SVG/1.1/DTD/svg11.dtd">
<!-- Generated by graphviz version 2.38.0 (20140413.2041)
 -->
<!-- Title: Leosac::PolymorphicCredentialJSONSerializer::HelperSerialize Pages: 1 -->
<svg width="482pt" height="88pt"
 viewBox="0.00 0.00 482.00 88.00" xmlns="http://www.w3.org/2000/svg" xmlns:xlink="http://www.w3.org/1999/xlink">
<g id="graph0" class="graph" transform="scale(1 1) rotate(0) translate(4 84)">
<title>Leosac::PolymorphicCredentialJSONSerializer::HelperSerialize</title>
<polygon fill="white" stroke="none" points="-4,4 -4,-84 478,-84 478,4 -4,4"/>
<!-- Node0 -->
<g id="node1" class="node"><title>Node0</title>
<polygon fill="#bfbfbf" stroke="black" points="318,-24.5 318,-54.5 474,-54.5 474,-24.5 318,-24.5"/>
<text text-anchor="start" x="326" y="-42.5" font-family="Helvetica,sans-Serif" font-size="10.00">Leosac::PolymorphicCredential</text>
<text text-anchor="middle" x="396" y="-31.5" font-family="Helvetica,sans-Serif" font-size="10.00">JSONSerializer::HelperSerialize</text>
</g>
<!-- Node1 -->
<g id="node2" class="node"><title>Node1</title>
<g id="a_node2"><a xlink:href="../../d3/d19/classLeosac_1_1Tools_1_1Visitor.html" target="_top" xlink:title="Leosac::Tools::Visitor\l\&lt; Cred::IRFIDCard \&gt;">
<polygon fill="white" stroke="black" points="170,-49.5 170,-79.5 282,-79.5 282,-49.5 170,-49.5"/>
<text text-anchor="start" x="178" y="-67.5" font-family="Helvetica,sans-Serif" font-size="10.00">Leosac::Tools::Visitor</text>
<text text-anchor="middle" x="226" y="-56.5" font-family="Helvetica,sans-Serif" font-size="10.00">&lt; Cred::IRFIDCard &gt;</text>
</a>
</g>
</g>
<!-- Node1&#45;&gt;Node0 -->
<g id="edge1" class="edge"><title>Node1&#45;&gt;Node0</title>
<path fill="none" stroke="midnightblue" d="M292.15,-54.8051C300.592,-53.5488 309.302,-52.2527 317.914,-50.9711"/>
<polygon fill="midnightblue" stroke="midnightblue" points="291.385,-51.3802 282.009,-56.3141 292.416,-58.304 291.385,-51.3802"/>
</g>
<!-- Node2 -->
<g id="node3" class="node"><title>Node2</title>
<g id="a_node3"><a xlink:href="../../d6/da1/classLeosac_1_1Tools_1_1BaseVisitor.html" target="_top" xlink:title="Base class for visitor, should not be used directly. ">
<polygon fill="white" stroke="black" points="0,-30 0,-49 134,-49 134,-30 0,-30"/>
<text text-anchor="middle" x="67" y="-37" font-family="Helvetica,sans-Serif" font-size="10.00">Leosac::Tools::BaseVisitor</text>
</a>
</g>
</g>
<!-- Node2&#45;&gt;Node1 -->
<g id="edge2" class="edge"><title>Node2&#45;&gt;Node1</title>
<path fill="none" stroke="midnightblue" d="M137.931,-50.6355C148.591,-52.3329 159.463,-54.0642 169.75,-55.7023"/>
<polygon fill="midnightblue" stroke="midnightblue" points="138.229,-47.1389 127.803,-49.0227 137.128,-54.0518 138.229,-47.1389"/>
</g>
<!-- Node3 -->
<g id="node4" class="node"><title>Node3</title>
<g id="a_node4"><a xlink:href="../../d3/d19/classLeosac_1_1Tools_1_1Visitor.html" target="_top" xlink:title="Leosac::Tools::Visitor\l\&lt; Cred::IPinCode \&gt;">
<polygon fill="white" stroke="black" points="170,-0.5 170,-30.5 282,-30.5 282,-0.5 170,-0.5"/>
<text text-anchor="start" x="178" y="-18.5" font-family="Helvetica,sans-Serif" font-size="10.00">Leosac::Tools::Visitor</text>
<text text-anchor="middle" x="226" y="-7.5" font-family="Helvetica,sans-Serif" font-size="10.00">&lt; Cred::IPinCode &gt;</text>
</a>
</g>
</g>
<!-- Node2&#45;&gt;Node3 -->
<g id="edge4" class="edge"><title>Node2&#45;&gt;Node3</title>
<path fill="none" stroke="midnightblue" d="M140.651,-28.3942C150.457,-26.8951 160.386,-25.3773 169.82,-23.9351"/>
<polygon fill="midnightblue" stroke="midnightblue" points="139.858,-24.9746 130.502,-29.9456 140.916,-31.8942 139.858,-24.9746"/>
</g>
<!-- Node3&#45;&gt;Node0 -->
<g id="edge3" class="edge"><title>Node3&#45;&gt;Node0</title>
<path fill="none" stroke="midnightblue" d="M292.15,-24.8071C300.592,-26.0131 309.302,-27.2574 317.914,-28.4878"/>
<polygon fill="midnightblue" stroke="midnightblue" points="292.404,-21.308 282.009,-23.3585 291.414,-28.2376 292.404,-21.308"/>
</g>
</g>
</svg>
