<?xml version="1.0" encoding="UTF-8" standalone="no"?>
<!DOCTYPE svg PUBLIC "-//W3C//DTD SVG 1.1//EN"
 "http://www.w3.org/Graphics/SVG/1.1/DTD/svg11.dtd">
<!-- Generated by graphviz version 2.38.0 (20140413.2041)
 -->
<!-- Title: Leosac::Module::Wiegand::Strategy::WiegandStrategy Pages: 1 -->
<!--zoomable 235 -->
<svg id="main" version="1.1" xmlns="http://www.w3.org/2000/svg" xmlns:xlink="http://www.w3.org/1999/xlink" xml:space="preserve" onload="init(evt)">
<style type="text/css"><![CDATA[
.edge:hover path { stroke: red; }
.edge:hover polygon { stroke: red; fill: red; }
]]></style>
<script type="text/javascript"><![CDATA[
var edges = document.getElementsByTagName('g');
if (edges && edges.length) {
  for (var i=0;i<edges.length;i++) {
    if (edges[i].id.substr(0,4)=='edge') {
      edges[i].setAttribute('class','edge');
    }
  }
}
]]></script>
        <defs>
                <circle id="rim" cx="0" cy="0" r="7"/>
                <circle id="rim2" cx="0" cy="0" r="3.5"/>
                <g id="zoomPlus">
                        <use xlink:href="#rim" fill="#404040">
                                <set attributeName="fill" to="#808080" begin="zoomplus.mouseover" end="zoomplus.mouseout"/>
                        </use>
                        <path d="M-4,0h8M0,-4v8" fill="none" stroke="white" stroke-width="1.5" pointer-events="none"/>
                </g>
                <g id="zoomMin">
                        <use xlink:href="#rim" fill="#404040">
                                <set attributeName="fill" to="#808080" begin="zoomminus.mouseover" end="zoomminus.mouseout"/>
                        </use>
                        <path d="M-4,0h8" fill="none" stroke="white" stroke-width="1.5" pointer-events="none"/>
                </g>
                <g id="dirArrow">
                        <path fill="none" stroke="white" stroke-width="1.5" d="M0,-3.0v7 M-2.5,-0.5L0,-3.0L2.5,-0.5"/>
                </g>
               <g id="resetDef">
                       <use xlink:href="#rim2" fill="#404040">
                               <set attributeName="fill" to="#808080" begin="reset.mouseover" end="reset.mouseout"/>
                       </use>
               </g>
        </defs>

<script type="text/javascript">
var viewWidth = 556;
var viewHeight = 235;
var sectionId = 'dynsection-1';
</script>
<script xlink:href="../../svgpan.js"/>
<svg id="graph" class="graph">
<g id="viewport">
<title>Leosac::Module::Wiegand::Strategy::WiegandStrategy</title>
<polygon fill="white" stroke="none" points="-4,4 -4,-230.5 552,-230.5 552,4 -4,4"/>
<!-- Node8 -->
<g id="node1" class="node"><title>Node8</title>
<polygon fill="#bfbfbf" stroke="black" points="0,-156.5 0,-186.5 140,-186.5 140,-156.5 0,-156.5"/>
<text text-anchor="start" x="8" y="-174.5" font-family="Helvetica,sans-Serif" font-size="10.00">Leosac::Module::Wiegand</text>
<text text-anchor="middle" x="70" y="-163.5" font-family="Helvetica,sans-Serif" font-size="10.00">::Strategy::WiegandStrategy</text>
</g>
<!-- Node10 -->
<g id="node3" class="node"><title>Node10</title>
<polygon fill="white" stroke="#bfbfbf" points="191,-185 191,-226 332,-226 332,-185 191,-185"/>
<text text-anchor="start" x="199" y="-214" font-family="Helvetica,sans-Serif" font-size="10.00">std::unique_ptr&lt; Leosac</text>
<text text-anchor="start" x="199" y="-203" font-family="Helvetica,sans-Serif" font-size="10.00">::Module::Wiegand::Strategy</text>
<text text-anchor="middle" x="261.5" y="-192" font-family="Helvetica,sans-Serif" font-size="10.00">::WiegandStrategy &gt;</text>
</g>
<!-- Node8&#45;&gt;Node10 -->
<g id="edge3" class="edge"><title>Node8&#45;&gt;Node10</title>
<path fill="none" stroke="#9a32cd" stroke-dasharray="5,2" d="M150.389,-185.744C163.82,-188.154 177.675,-190.64 190.835,-193.001"/>
<polygon fill="#9a32cd" stroke="#9a32cd" points="150.679,-182.24 140.218,-183.919 149.443,-189.13 150.679,-182.24"/>
<text text-anchor="middle" x="165.5" y="-192.5" font-family="Helvetica,sans-Serif" font-size="10.00"> ptr</text>
</g>
<!-- Node9 -->
<g id="node2" class="node"><title>Node9</title>
<g id="a_node2"><a xlink:href="../../d7/d64/classLeosac_1_1Module_1_1Wiegand_1_1WiegandReaderImpl.html" target="_top" xlink:title="An implementation class that represents a Wiegand Reader. ">
<polygon fill="white" stroke="black" points="418,-100.5 418,-130.5 548,-130.5 548,-100.5 418,-100.5"/>
<text text-anchor="start" x="426" y="-118.5" font-family="Helvetica,sans-Serif" font-size="10.00">Leosac::Module::Wiegand</text>
<text text-anchor="middle" x="483" y="-107.5" font-family="Helvetica,sans-Serif" font-size="10.00">::WiegandReaderImpl</text>
</a>
</g>
</g>
<!-- Node9&#45;&gt;Node8 -->
<g id="edge1" class="edge"><title>Node9&#45;&gt;Node8</title>
<path fill="none" stroke="#9a32cd" stroke-dasharray="5,2" d="M420.612,-133.101C413.695,-134.747 406.72,-136.26 400,-137.5 311.063,-153.918 207.029,-163.004 140.139,-167.565"/>
<polygon fill="#9a32cd" stroke="#9a32cd" points="421.804,-136.412 430.67,-130.611 420.122,-129.617 421.804,-136.412"/>
<text text-anchor="middle" x="261.5" y="-166.5" font-family="Helvetica,sans-Serif" font-size="10.00"> reader_</text>
</g>
<!-- Node10&#45;&gt;Node9 -->
<g id="edge2" class="edge"><title>Node10&#45;&gt;Node9</title>
<path fill="none" stroke="#9a32cd" stroke-dasharray="5,2" d="M341.934,-189.407C361.354,-184.201 381.779,-177.62 400,-169.5 423.043,-159.231 446.849,-142.787 462.835,-130.741"/>
<polygon fill="#9a32cd" stroke="#9a32cd" points="340.997,-186.034 332.193,-191.928 342.751,-192.81 340.997,-186.034"/>
<text text-anchor="middle" x="375" y="-189.5" font-family="Helvetica,sans-Serif" font-size="10.00"> strategy_</text>
</g>
<!-- Node11 -->
<g id="node4" class="node"><title>Node11</title>
<polygon fill="white" stroke="#bfbfbf" points="200.5,-88.5 200.5,-118.5 322.5,-118.5 322.5,-88.5 200.5,-88.5"/>
<text text-anchor="start" x="208.5" y="-106.5" font-family="Helvetica,sans-Serif" font-size="10.00">std::unique_ptr&lt; Leosac</text>
<text text-anchor="middle" x="261.5" y="-95.5" font-family="Helvetica,sans-Serif" font-size="10.00">::Hardware::FLED &gt;</text>
</g>
<!-- Node11&#45;&gt;Node9 -->
<g id="edge4" class="edge"><title>Node11&#45;&gt;Node9</title>
<path fill="none" stroke="#9a32cd" stroke-dasharray="5,2" d="M332.991,-107.354C360.176,-108.84 391.063,-110.529 417.64,-111.981"/>
<polygon fill="#9a32cd" stroke="#9a32cd" points="332.946,-103.846 322.77,-106.795 332.564,-110.836 332.946,-103.846"/>
<text text-anchor="middle" x="375" y="-125.5" font-family="Helvetica,sans-Serif" font-size="10.00"> buzzer_</text>
<text text-anchor="middle" x="375" y="-114.5" font-family="Helvetica,sans-Serif" font-size="10.00">green_led_</text>
</g>
<!-- Node12 -->
<g id="node5" class="node"><title>Node12</title>
<g id="a_node5"><a xlink:href="../../db/df5/classLeosac_1_1Hardware_1_1FLED.html" target="_top" xlink:title="A Facade to a LED object. ">
<polygon fill="white" stroke="black" points="6,-94 6,-113 134,-113 134,-94 6,-94"/>
<text text-anchor="middle" x="70" y="-101" font-family="Helvetica,sans-Serif" font-size="10.00">Leosac::Hardware::FLED</text>
</a>
</g>
</g>
<!-- Node12&#45;&gt;Node11 -->
<g id="edge5" class="edge"><title>Node12&#45;&gt;Node11</title>
<path fill="none" stroke="#9a32cd" stroke-dasharray="5,2" d="M144.251,-103.5C162.771,-103.5 182.448,-103.5 200.244,-103.5"/>
<polygon fill="#9a32cd" stroke="#9a32cd" points="144.101,-100 134.101,-103.5 144.101,-107 144.101,-100"/>
<text text-anchor="middle" x="165.5" y="-106.5" font-family="Helvetica,sans-Serif" font-size="10.00"> ptr</text>
</g>
<!-- Node13 -->
<g id="node6" class="node"><title>Node13</title>
<g id="a_node6"><a xlink:title="STL class. ">
<polygon fill="white" stroke="#bfbfbf" points="231.5,-50 231.5,-69 291.5,-69 291.5,-50 231.5,-50"/>
<text text-anchor="middle" x="261.5" y="-57" font-family="Helvetica,sans-Serif" font-size="10.00">std::string</text>
</a>
</g>
</g>
<!-- Node13&#45;&gt;Node9 -->
<g id="edge6" class="edge"><title>Node13&#45;&gt;Node9</title>
<path fill="none" stroke="#9a32cd" stroke-dasharray="5,2" d="M301.747,-58.7534C329.688,-59.2204 367.828,-61.9076 400,-71.5 421.521,-77.9167 443.846,-90.3371 459.758,-100.35"/>
<polygon fill="#9a32cd" stroke="#9a32cd" points="301.599,-55.2522 291.572,-58.6733 301.544,-62.252 301.599,-55.2522"/>
<text text-anchor="middle" x="375" y="-96.5" font-family="Helvetica,sans-Serif" font-size="10.00"> topic_low_</text>
<text text-anchor="middle" x="375" y="-85.5" font-family="Helvetica,sans-Serif" font-size="10.00">topic_high_</text>
<text text-anchor="middle" x="375" y="-74.5" font-family="Helvetica,sans-Serif" font-size="10.00">name_</text>
</g>
<!-- Node14 -->
<g id="node7" class="node"><title>Node14</title>
<g id="a_node7"><a xlink:title="STL class. ">
<polygon fill="white" stroke="#bfbfbf" points="22.5,-44.5 22.5,-74.5 117.5,-74.5 117.5,-44.5 22.5,-44.5"/>
<text text-anchor="start" x="30.5" y="-62.5" font-family="Helvetica,sans-Serif" font-size="10.00">std::basic_string&lt;</text>
<text text-anchor="middle" x="70" y="-51.5" font-family="Helvetica,sans-Serif" font-size="10.00"> char &gt;</text>
</a>
</g>
</g>
<!-- Node14&#45;&gt;Node13 -->
<g id="edge7" class="edge"><title>Node14&#45;&gt;Node13</title>
<path fill="none" stroke="midnightblue" d="M128.127,-59.5C162.143,-59.5 203.883,-59.5 231.287,-59.5"/>
<polygon fill="midnightblue" stroke="midnightblue" points="127.843,-56.0001 117.843,-59.5 127.843,-63.0001 127.843,-56.0001"/>
</g>
<!-- Node15 -->
<g id="node8" class="node"><title>Node15</title>
<polygon fill="white" stroke="#bfbfbf" points="212,-0.5 212,-30.5 311,-30.5 311,-0.5 212,-0.5"/>
<text text-anchor="start" x="220" y="-18.5" font-family="Helvetica,sans-Serif" font-size="10.00">std::array&lt; uint8_t,</text>
<text text-anchor="middle" x="261.5" y="-7.5" font-family="Helvetica,sans-Serif" font-size="10.00"> 16 &gt;</text>
</g>
<!-- Node15&#45;&gt;Node9 -->
<g id="edge8" class="edge"><title>Node15&#45;&gt;Node9</title>
<path fill="none" stroke="#9a32cd" stroke-dasharray="5,2" d="M321.286,-23.0095C346.446,-27.7633 375.589,-35.3903 400,-47.5 427.005,-60.8965 452.865,-84.8013 468.089,-100.402"/>
<polygon fill="#9a32cd" stroke="#9a32cd" points="321.595,-19.5096 311.136,-21.204 320.369,-26.4014 321.595,-19.5096"/>
<text text-anchor="middle" x="375" y="-50.5" font-family="Helvetica,sans-Serif" font-size="10.00"> buffer_</text>
</g>
</g>
</svg>
        <g id="navigator" transform="translate(0 0)" fill="#404254">
                <rect fill="#f2f5e9" fill-opacity="0.5" stroke="#606060" stroke-width=".5" x="0" y="0" width="60" height="60"/>
                <use id="zoomplus" xlink:href="#zoomPlus" x="17" y="9" onmousedown="handleZoom(evt,'in')"/>
                <use id="zoomminus" xlink:href="#zoomMin" x="42" y="9" onmousedown="handleZoom(evt,'out')"/>
                <use id="reset" xlink:href="#resetDef" x="30" y="36" onmousedown="handleReset()"/>
                <g id="arrowUp" xlink:href="#dirArrow" transform="translate(30 24)" onmousedown="handlePan(0,-1)">
                  <use xlink:href="#rim" fill="#404040">
                        <set attributeName="fill" to="#808080" begin="arrowUp.mouseover" end="arrowUp.mouseout"/>
                  </use>
                  <path fill="none" stroke="white" stroke-width="1.5" d="M0,-3.0v7 M-2.5,-0.5L0,-3.0L2.5,-0.5"/>
                </g>
                <g id="arrowRight" xlink:href="#dirArrow" transform="rotate(90) translate(36 -43)" onmousedown="handlePan(1,0)">
                  <use xlink:href="#rim" fill="#404040">
                        <set attributeName="fill" to="#808080" begin="arrowRight.mouseover" end="arrowRight.mouseout"/>
                  </use>
                  <path fill="none" stroke="white" stroke-width="1.5" d="M0,-3.0v7 M-2.5,-0.5L0,-3.0L2.5,-0.5"/>
                </g>
                <g id="arrowDown" xlink:href="#dirArrow" transform="rotate(180) translate(-30 -48)" onmousedown="handlePan(0,1)">
                  <use xlink:href="#rim" fill="#404040">
                        <set attributeName="fill" to="#808080" begin="arrowDown.mouseover" end="arrowDown.mouseout"/>
                  </use>
                  <path fill="none" stroke="white" stroke-width="1.5" d="M0,-3.0v7 M-2.5,-0.5L0,-3.0L2.5,-0.5"/>
                </g>
                <g id="arrowLeft" xlink:href="#dirArrow" transform="rotate(270) translate(-36 17)" onmousedown="handlePan(-1,0)">
                  <use xlink:href="#rim" fill="#404040">
                        <set attributeName="fill" to="#808080" begin="arrowLeft.mouseover" end="arrowLeft.mouseout"/>
                  </use>
                  <path fill="none" stroke="white" stroke-width="1.5" d="M0,-3.0v7 M-2.5,-0.5L0,-3.0L2.5,-0.5"/>
                </g>
        </g>
        <svg viewBox="0 0 15 15" width="100%" height="30px" preserveAspectRatio="xMaxYMin meet">
         <g id="arrow_out" transform="scale(0.3 0.3)">
          <a xlink:href="classLeosac_1_1Module_1_1Wiegand_1_1Strategy_1_1WiegandStrategy__coll__graph_org.svg" target="_base">
           <rect id="button" ry="5" rx="5" y="6" x="6" height="38" width="38"
                fill="#f2f5e9" fill-opacity="0.5" stroke="#606060" stroke-width="1.0"/>
           <path id="arrow"
             d="M 11.500037,31.436501 C 11.940474,20.09759 22.043105,11.32322 32.158766,21.979434 L 37.068811,17.246167 C 37.068811,17.246167 37.088388,32 37.088388,32 L 22.160133,31.978069 C 22.160133,31.978069 26.997745,27.140456 26.997745,27.140456 C 18.528582,18.264221 13.291696,25.230495 11.500037,31.436501 z"
             style="fill:#404040;"/>
          </a>
         </g>
        </svg>
</svg>
