<?xml version="1.0" encoding="UTF-8" standalone="no"?>
<!DOCTYPE svg PUBLIC "-//W3C//DTD SVG 1.1//EN"
 "http://www.w3.org/Graphics/SVG/1.1/DTD/svg11.dtd">
<!-- Generated by graphviz version 2.38.0 (20140413.2041)
 -->
<!-- Title: Leosac::Module::AsioModule::StopWatcher Pages: 1 -->
<svg width="345pt" height="330pt"
 viewBox="0.00 0.00 345.00 330.00" xmlns="http://www.w3.org/2000/svg" xmlns:xlink="http://www.w3.org/1999/xlink">
<g id="graph0" class="graph" transform="scale(1 1) rotate(0) translate(4 326)">
<title>Leosac::Module::AsioModule::StopWatcher</title>
<polygon fill="white" stroke="none" points="-4,4 -4,-326 341,-326 341,4 -4,4"/>
<!-- Node2 -->
<g id="node1" class="node"><title>Node2</title>
<polygon fill="#bfbfbf" stroke="black" points="44,-0.5 44,-30.5 187,-30.5 187,-0.5 44,-0.5"/>
<text text-anchor="start" x="52" y="-18.5" font-family="Helvetica,sans-Serif" font-size="10.00">Leosac::Module::AsioModule</text>
<text text-anchor="middle" x="115.5" y="-7.5" font-family="Helvetica,sans-Serif" font-size="10.00">::StopWatcher</text>
</g>
<!-- Node3 -->
<g id="node2" class="node"><title>Node3</title>
<polygon fill="white" stroke="#bfbfbf" points="0,-78.5 0,-108.5 137,-108.5 137,-78.5 0,-78.5"/>
<text text-anchor="start" x="8" y="-96.5" font-family="Helvetica,sans-Serif" font-size="10.00">std::enable_shared</text>
<text text-anchor="middle" x="68.5" y="-85.5" font-family="Helvetica,sans-Serif" font-size="10.00">_from_this&lt; StopWatcher &gt;</text>
</g>
<!-- Node3&#45;&gt;Node2 -->
<g id="edge1" class="edge"><title>Node3&#45;&gt;Node2</title>
<path fill="none" stroke="midnightblue" d="M82.6782,-69.5735C90.4926,-56.9375 99.9482,-41.6476 106.699,-30.7309"/>
<polygon fill="midnightblue" stroke="midnightblue" points="79.6233,-67.859 77.3403,-78.205 85.5768,-71.5408 79.6233,-67.859"/>
</g>
<!-- Node4 -->
<g id="node3" class="node"><title>Node4</title>
<g id="a_node3"><a xlink:href="../../dd/d75/classLeosac_1_1Module_1_1AsioModule.html" target="_top" xlink:title="This is a base class for boost::asio &#39;aware&#39; module. ">
<polygon fill="white" stroke="black" points="155,-84 155,-103 298,-103 298,-84 155,-84"/>
<text text-anchor="middle" x="226.5" y="-91" font-family="Helvetica,sans-Serif" font-size="10.00">Leosac::Module::AsioModule</text>
</a>
</g>
</g>
<!-- Node4&#45;&gt;Node2 -->
<g id="edge2" class="edge"><title>Node4&#45;&gt;Node2</title>
<path fill="none" stroke="#9a32cd" stroke-dasharray="5,2" d="M205.36,-78.0257C185.413,-64.3682 155.703,-44.0265 135.976,-30.5198"/>
<polygon fill="#9a32cd" stroke="#9a32cd" points="203.538,-81.0202 213.767,-83.7818 207.493,-75.2443 203.538,-81.0202"/>
<text text-anchor="middle" x="190" y="-52" font-family="Helvetica,sans-Serif" font-size="10.00"> self_</text>
</g>
<!-- Node5 -->
<g id="node4" class="node"><title>Node5</title>
<g id="a_node4"><a xlink:href="../../df/d9f/classLeosac_1_1Module_1_1BaseModule.html" target="_top" xlink:title="Base class for module implementation. ">
<polygon fill="white" stroke="black" points="45.5,-162 45.5,-181 191.5,-181 191.5,-162 45.5,-162"/>
<text text-anchor="middle" x="118.5" y="-169" font-family="Helvetica,sans-Serif" font-size="10.00">Leosac::Module::BaseModule</text>
</a>
</g>
</g>
<!-- Node5&#45;&gt;Node4 -->
<g id="edge3" class="edge"><title>Node5&#45;&gt;Node4</title>
<path fill="none" stroke="midnightblue" d="M139.305,-155.86C161.536,-140.215 196.031,-115.941 214.256,-103.116"/>
<polygon fill="midnightblue" stroke="midnightblue" points="137.053,-153.165 130.889,-161.782 141.081,-158.889 137.053,-153.165"/>
</g>
<!-- Node6 -->
<g id="node5" class="node"><title>Node6</title>
<g id="a_node5"><a xlink:title="STL class. ">
<polygon fill="white" stroke="#bfbfbf" points="50.5,-234.5 50.5,-253.5 110.5,-253.5 110.5,-234.5 50.5,-234.5"/>
<text text-anchor="middle" x="80.5" y="-241.5" font-family="Helvetica,sans-Serif" font-size="10.00">std::string</text>
</a>
</g>
</g>
<!-- Node6&#45;&gt;Node5 -->
<g id="edge4" class="edge"><title>Node6&#45;&gt;Node5</title>
<path fill="none" stroke="#9a32cd" stroke-dasharray="5,2" d="M86.7605,-224.556C89.1794,-218.209 92.1704,-211.154 95.5,-205 100.105,-196.488 106.552,-187.567 111.449,-181.229"/>
<polygon fill="#9a32cd" stroke="#9a32cd" points="83.3526,-223.69 83.271,-234.285 89.9416,-226.054 83.3526,-223.69"/>
<text text-anchor="middle" x="112" y="-208" font-family="Helvetica,sans-Serif" font-size="10.00"> name_</text>
</g>
<!-- Node7 -->
<g id="node6" class="node"><title>Node7</title>
<g id="a_node6"><a xlink:title="STL class. ">
<polygon fill="white" stroke="#bfbfbf" points="33,-291.5 33,-321.5 128,-321.5 128,-291.5 33,-291.5"/>
<text text-anchor="start" x="41" y="-309.5" font-family="Helvetica,sans-Serif" font-size="10.00">std::basic_string&lt;</text>
<text text-anchor="middle" x="80.5" y="-298.5" font-family="Helvetica,sans-Serif" font-size="10.00"> char &gt;</text>
</a>
</g>
</g>
<!-- Node7&#45;&gt;Node6 -->
<g id="edge5" class="edge"><title>Node7&#45;&gt;Node6</title>
<path fill="none" stroke="midnightblue" d="M80.5,-281.352C80.5,-271.513 80.5,-260.775 80.5,-253.54"/>
<polygon fill="midnightblue" stroke="midnightblue" points="77.0001,-281.468 80.5,-291.468 84.0001,-281.468 77.0001,-281.468"/>
</g>
<!-- Node8 -->
<g id="node7" class="node"><title>Node8</title>
<polygon fill="white" stroke="#bfbfbf" points="128.5,-234.5 128.5,-253.5 166.5,-253.5 166.5,-234.5 128.5,-234.5"/>
<text text-anchor="middle" x="147.5" y="-241.5" font-family="Helvetica,sans-Serif" font-size="10.00">ptree</text>
</g>
<!-- Node8&#45;&gt;Node5 -->
<g id="edge6" class="edge"><title>Node8&#45;&gt;Node5</title>
<path fill="none" stroke="#9a32cd" stroke-dasharray="5,2" d="M140.002,-224.771C134.239,-210.762 126.535,-192.032 122.085,-181.215"/>
<polygon fill="#9a32cd" stroke="#9a32cd" points="136.903,-226.439 143.944,-234.355 143.377,-223.776 136.903,-226.439"/>
<text text-anchor="middle" x="154" y="-208" font-family="Helvetica,sans-Serif" font-size="10.00"> config_</text>
</g>
<!-- Node9 -->
<g id="node8" class="node"><title>Node9</title>
<polygon fill="white" stroke="#bfbfbf" points="210,-156.5 210,-186.5 337,-186.5 337,-156.5 210,-156.5"/>
<text text-anchor="start" x="218" y="-174.5" font-family="Helvetica,sans-Serif" font-size="10.00">std::unique_ptr&lt; boost</text>
<text text-anchor="middle" x="273.5" y="-163.5" font-family="Helvetica,sans-Serif" font-size="10.00">::asio::io_service::work &gt;</text>
</g>
<!-- Node9&#45;&gt;Node4 -->
<g id="edge7" class="edge"><title>Node9&#45;&gt;Node4</title>
<path fill="none" stroke="#9a32cd" stroke-dasharray="5,2" d="M259.244,-147.448C249.968,-132.447 238.405,-113.751 231.796,-103.064"/>
<polygon fill="#9a32cd" stroke="#9a32cd" points="256.423,-149.541 264.66,-156.205 262.377,-145.859 256.423,-149.541"/>
<text text-anchor="middle" x="267.5" y="-130" font-family="Helvetica,sans-Serif" font-size="10.00"> work_</text>
</g>
</g>
</svg>
