<?xml version="1.0" encoding="UTF-8" standalone="no"?>
<!DOCTYPE svg PUBLIC "-//W3C//DTD SVG 1.1//EN"
 "http://www.w3.org/Graphics/SVG/1.1/DTD/svg11.dtd">
<!-- Generated by graphviz version 2.38.0 (20140413.2041)
 -->
<!-- Title: src/core/credentials/RFIDCard.hpp Pages: 1 -->
<svg width="1819pt" height="173pt"
 viewBox="0.00 0.00 1819.00 173.00" xmlns="http://www.w3.org/2000/svg" xmlns:xlink="http://www.w3.org/1999/xlink">
<g id="graph0" class="graph" transform="scale(1 1) rotate(0) translate(4 169)">
<title>src/core/credentials/RFIDCard.hpp</title>
<polygon fill="white" stroke="none" points="-4,4 -4,-169 1815,-169 1815,4 -4,4"/>
<!-- Node19 -->
<g id="node1" class="node"><title>Node19</title>
<polygon fill="#bfbfbf" stroke="black" points="750,-134.5 750,-164.5 852,-164.5 852,-134.5 750,-134.5"/>
<text text-anchor="start" x="758" y="-152.5" font-family="Helvetica,sans-Serif" font-size="10.00">src/core/credentials</text>
<text text-anchor="middle" x="801" y="-141.5" font-family="Helvetica,sans-Serif" font-size="10.00">/RFIDCard.hpp</text>
</g>
<!-- Node20 -->
<g id="node2" class="node"><title>Node20</title>
<g id="a_node2"><a xlink:href="../../d0/dc0/src_2core_2auth_2AuthSourceBuilder_8cpp.html" target="_top" xlink:title="src/core/auth/AuthSource\lBuilder.cpp">
<polygon fill="white" stroke="black" points="0,-0.5 0,-30.5 128,-30.5 128,-0.5 0,-0.5"/>
<text text-anchor="start" x="8" y="-18.5" font-family="Helvetica,sans-Serif" font-size="10.00">src/core/auth/AuthSource</text>
<text text-anchor="middle" x="64" y="-7.5" font-family="Helvetica,sans-Serif" font-size="10.00">Builder.cpp</text>
</a>
</g>
</g>
<!-- Node19&#45;&gt;Node20 -->
<g id="edge1" class="edge"><title>Node19&#45;&gt;Node20</title>
<path fill="none" stroke="midnightblue" d="M739.719,-148.578C638.836,-147.417 432.102,-139.588 263,-98 199.013,-82.2631 128.664,-49.4853 91.1419,-30.6448"/>
<polygon fill="midnightblue" stroke="midnightblue" points="739.7,-152.078 749.733,-148.675 739.768,-145.078 739.7,-152.078"/>
</g>
<!-- Node21 -->
<g id="node3" class="node"><title>Node21</title>
<g id="a_node3"><a xlink:href="../../d7/d68/src_2core_2credentials_2RFIDCard_8cpp.html" target="_top" xlink:title="src/core/credentials\l/RFIDCard.cpp">
<polygon fill="white" stroke="black" points="514,-67.5 514,-97.5 616,-97.5 616,-67.5 514,-67.5"/>
<text text-anchor="start" x="522" y="-85.5" font-family="Helvetica,sans-Serif" font-size="10.00">src/core/credentials</text>
<text text-anchor="middle" x="565" y="-74.5" font-family="Helvetica,sans-Serif" font-size="10.00">/RFIDCard.cpp</text>
</a>
</g>
</g>
<!-- Node19&#45;&gt;Node21 -->
<g id="edge2" class="edge"><title>Node19&#45;&gt;Node21</title>
<path fill="none" stroke="midnightblue" d="M740.057,-131.715C701.652,-121.137 652.628,-107.635 616.233,-97.6109"/>
<polygon fill="midnightblue" stroke="midnightblue" points="739.512,-135.195 750.082,-134.476 741.37,-128.446 739.512,-135.195"/>
</g>
<!-- Node22 -->
<g id="node4" class="node"><title>Node22</title>
<g id="a_node4"><a xlink:href="../../da/d24/RFIDCardPin_8hpp.html" target="_top" xlink:title="src/core/credentials\l/RFIDCardPin.hpp">
<polygon fill="white" stroke="black" points="318,-67.5 318,-97.5 420,-97.5 420,-67.5 318,-67.5"/>
<text text-anchor="start" x="326" y="-85.5" font-family="Helvetica,sans-Serif" font-size="10.00">src/core/credentials</text>
<text text-anchor="middle" x="369" y="-74.5" font-family="Helvetica,sans-Serif" font-size="10.00">/RFIDCardPin.hpp</text>
</a>
</g>
</g>
<!-- Node19&#45;&gt;Node22 -->
<g id="edge3" class="edge"><title>Node19&#45;&gt;Node22</title>
<path fill="none" stroke="midnightblue" d="M739.779,-141.647C666.722,-133.106 541.005,-117.263 434,-98 429.448,-97.1806 424.732,-96.2633 420.014,-95.2986"/>
<polygon fill="midnightblue" stroke="midnightblue" points="739.393,-145.125 749.73,-142.803 740.201,-138.172 739.393,-145.125"/>
</g>
<!-- Node24 -->
<g id="node6" class="node"><title>Node24</title>
<g id="a_node6"><a xlink:href="../../d3/dc5/FileAuthSourceMapper_8cpp.html" target="_top" xlink:title="src/modules/auth/auth\l&#45;file/FileAuthSourceMapper.cpp">
<polygon fill="white" stroke="black" points="146.5,-0.5 146.5,-30.5 299.5,-30.5 299.5,-0.5 146.5,-0.5"/>
<text text-anchor="start" x="154.5" y="-18.5" font-family="Helvetica,sans-Serif" font-size="10.00">src/modules/auth/auth</text>
<text text-anchor="middle" x="223" y="-7.5" font-family="Helvetica,sans-Serif" font-size="10.00">&#45;file/FileAuthSourceMapper.cpp</text>
</a>
</g>
</g>
<!-- Node19&#45;&gt;Node24 -->
<g id="edge10" class="edge"><title>Node19&#45;&gt;Node24</title>
<path fill="none" stroke="midnightblue" d="M739.483,-147.097C625.036,-143.688 384.199,-132.525 309,-98 275.912,-82.8086 247.467,-49.6636 233.062,-30.6536"/>
<polygon fill="midnightblue" stroke="midnightblue" points="739.726,-150.606 749.823,-147.395 739.927,-143.609 739.726,-150.606"/>
</g>
<!-- Node25 -->
<g id="node7" class="node"><title>Node25</title>
<g id="a_node7"><a xlink:href="../../d5/d58/AuthFile_8cpp.html" target="_top" xlink:title="This file contains unit test suite related to the AuthFile module. ">
<polygon fill="white" stroke="black" points="438.5,-6 438.5,-25 529.5,-25 529.5,-6 438.5,-6"/>
<text text-anchor="middle" x="484" y="-13" font-family="Helvetica,sans-Serif" font-size="10.00">test/AuthFile.cpp</text>
</a>
</g>
</g>
<!-- Node19&#45;&gt;Node25 -->
<g id="edge19" class="edge"><title>Node19&#45;&gt;Node25</title>
<path fill="none" stroke="midnightblue" d="M739.502,-146.737C660.044,-143.097 527.981,-131.965 495,-98 475.704,-78.1284 479.337,-41.5709 482.228,-25.0289"/>
<polygon fill="midnightblue" stroke="midnightblue" points="739.731,-150.25 749.872,-147.184 740.032,-143.257 739.731,-150.25"/>
</g>
<!-- Node26 -->
<g id="node8" class="node"><title>Node26</title>
<g id="a_node8"><a xlink:href="../../d9/d75/test_2AuthSourceBuilder_8cpp.html" target="_top" xlink:title="test/AuthSourceBuilder.cpp">
<polygon fill="white" stroke="black" points="548,-6 548,-25 684,-25 684,-6 548,-6"/>
<text text-anchor="middle" x="616" y="-13" font-family="Helvetica,sans-Serif" font-size="10.00">test/AuthSourceBuilder.cpp</text>
</a>
</g>
</g>
<!-- Node19&#45;&gt;Node26 -->
<g id="edge20" class="edge"><title>Node19&#45;&gt;Node26</title>
<path fill="none" stroke="midnightblue" d="M739.551,-146.997C661.787,-143.647 534.4,-132.841 505,-98 477.247,-65.1114 543.398,-38.18 585.122,-25.0882"/>
<polygon fill="midnightblue" stroke="midnightblue" points="739.579,-150.5 749.711,-147.404 739.86,-143.506 739.579,-150.5"/>
</g>
<!-- Node27 -->
<g id="node9" class="node"><title>Node27</title>
<g id="a_node9"><a xlink:href="../../dd/d24/kernel_8cpp.html" target="_top" xlink:title="src/core/kernel.cpp">
<polygon fill="white" stroke="black" points="634,-73 634,-92 734,-92 734,-73 634,-73"/>
<text text-anchor="middle" x="684" y="-80" font-family="Helvetica,sans-Serif" font-size="10.00">src/core/kernel.cpp</text>
</a>
</g>
</g>
<!-- Node19&#45;&gt;Node27 -->
<g id="edge9" class="edge"><title>Node19&#45;&gt;Node27</title>
<path fill="none" stroke="midnightblue" d="M766.751,-129.473C744.415,-117.064 716.349,-101.472 699.313,-92.007"/>
<polygon fill="midnightblue" stroke="midnightblue" points="765.171,-132.599 775.613,-134.396 768.571,-126.48 765.171,-132.599"/>
</g>
<!-- Node28 -->
<g id="node10" class="node"><title>Node28</title>
<g id="a_node10"><a xlink:href="../../d8/dba/RplethModule_8cpp.html" target="_top" xlink:title="src/modules/rpleth\l/RplethModule.cpp">
<polygon fill="white" stroke="black" points="752,-67.5 752,-97.5 850,-97.5 850,-67.5 752,-67.5"/>
<text text-anchor="start" x="760" y="-85.5" font-family="Helvetica,sans-Serif" font-size="10.00">src/modules/rpleth</text>
<text text-anchor="middle" x="801" y="-74.5" font-family="Helvetica,sans-Serif" font-size="10.00">/RplethModule.cpp</text>
</a>
</g>
</g>
<!-- Node19&#45;&gt;Node28 -->
<g id="edge11" class="edge"><title>Node19&#45;&gt;Node28</title>
<path fill="none" stroke="midnightblue" d="M801,-124.108C801,-115.154 801,-105.323 801,-97.5765"/>
<polygon fill="midnightblue" stroke="midnightblue" points="797.5,-124.396 801,-134.396 804.5,-124.396 797.5,-124.396"/>
</g>
<!-- Node29 -->
<g id="node11" class="node"><title>Node29</title>
<g id="a_node11"><a xlink:href="../../d2/d99/NotifierInstance_8cpp.html" target="_top" xlink:title="src/modules/tcp&#45;notifier\l/NotifierInstance.cpp">
<polygon fill="white" stroke="black" points="868.5,-67.5 868.5,-97.5 987.5,-97.5 987.5,-67.5 868.5,-67.5"/>
<text text-anchor="start" x="876.5" y="-85.5" font-family="Helvetica,sans-Serif" font-size="10.00">src/modules/tcp&#45;notifier</text>
<text text-anchor="middle" x="928" y="-74.5" font-family="Helvetica,sans-Serif" font-size="10.00">/NotifierInstance.cpp</text>
</a>
</g>
</g>
<!-- Node19&#45;&gt;Node29 -->
<g id="edge12" class="edge"><title>Node19&#45;&gt;Node29</title>
<path fill="none" stroke="midnightblue" d="M837.704,-129.714C857.734,-119.463 882.119,-106.983 900.497,-97.5765"/>
<polygon fill="midnightblue" stroke="midnightblue" points="835.864,-126.724 828.557,-134.396 839.054,-132.956 835.864,-126.724"/>
</g>
<!-- Node30 -->
<g id="node12" class="node"><title>Node30</title>
<g id="a_node12"><a xlink:href="../../da/da5/PushSimpleCardNumber_8cpp.html" target="_top" xlink:title="src/modules/tcp&#45;notifier\l/protocols/PushSimpleCardNumber.cpp">
<polygon fill="white" stroke="black" points="1005.5,-67.5 1005.5,-97.5 1194.5,-97.5 1194.5,-67.5 1005.5,-67.5"/>
<text text-anchor="start" x="1013.5" y="-85.5" font-family="Helvetica,sans-Serif" font-size="10.00">src/modules/tcp&#45;notifier</text>
<text text-anchor="middle" x="1100" y="-74.5" font-family="Helvetica,sans-Serif" font-size="10.00">/protocols/PushSimpleCardNumber.cpp</text>
</a>
</g>
</g>
<!-- Node19&#45;&gt;Node30 -->
<g id="edge13" class="edge"><title>Node19&#45;&gt;Node30</title>
<path fill="none" stroke="midnightblue" d="M861.874,-135.267C912.413,-124.28 984.099,-108.696 1035.59,-97.5015"/>
<polygon fill="midnightblue" stroke="midnightblue" points="861.088,-131.855 852.06,-137.4 862.575,-138.696 861.088,-131.855"/>
</g>
<!-- Node31 -->
<g id="node13" class="node"><title>Node31</title>
<g id="a_node13"><a xlink:href="../../d2/df6/CredentialCRUD_8cpp.html" target="_top" xlink:title="src/modules/websock\l&#45;api/api/CredentialCRUD.cpp">
<polygon fill="white" stroke="black" points="1213,-67.5 1213,-97.5 1357,-97.5 1357,-67.5 1213,-67.5"/>
<text text-anchor="start" x="1221" y="-85.5" font-family="Helvetica,sans-Serif" font-size="10.00">src/modules/websock</text>
<text text-anchor="middle" x="1285" y="-74.5" font-family="Helvetica,sans-Serif" font-size="10.00">&#45;api/api/CredentialCRUD.cpp</text>
</a>
</g>
</g>
<!-- Node19&#45;&gt;Node31 -->
<g id="edge14" class="edge"><title>Node19&#45;&gt;Node31</title>
<path fill="none" stroke="midnightblue" d="M862.45,-141.749C941.42,-132.85 1082.69,-116.182 1203,-98 1206.14,-97.5247 1209.35,-97.0241 1212.6,-96.5059"/>
<polygon fill="midnightblue" stroke="midnightblue" points="861.744,-138.306 852.197,-142.9 862.525,-145.262 861.744,-138.306"/>
</g>
<!-- Node32 -->
<g id="node14" class="node"><title>Node32</title>
<g id="a_node14"><a xlink:href="../../dc/dbe/WebServiceNotifier_8hpp.html" target="_top" xlink:title="src/modules/ws&#45;notifier\l/WebServiceNotifier.hpp">
<polygon fill="white" stroke="black" points="1375.5,-67.5 1375.5,-97.5 1498.5,-97.5 1498.5,-67.5 1375.5,-67.5"/>
<text text-anchor="start" x="1383.5" y="-85.5" font-family="Helvetica,sans-Serif" font-size="10.00">src/modules/ws&#45;notifier</text>
<text text-anchor="middle" x="1437" y="-74.5" font-family="Helvetica,sans-Serif" font-size="10.00">/WebServiceNotifier.hpp</text>
</a>
</g>
</g>
<!-- Node19&#45;&gt;Node32 -->
<g id="edge15" class="edge"><title>Node19&#45;&gt;Node32</title>
<path fill="none" stroke="midnightblue" d="M862.26,-145.285C966.245,-139.323 1183.76,-124.667 1366,-98 1368.99,-97.5628 1372.04,-97.0802 1375.12,-96.5644"/>
<polygon fill="midnightblue" stroke="midnightblue" points="862.042,-141.792 852.256,-145.852 862.438,-148.78 862.042,-141.792"/>
</g>
<!-- Node34 -->
<g id="node16" class="node"><title>Node34</title>
<g id="a_node16"><a xlink:href="../../dc/d29/WebServiceNotifier_8cpp.html" target="_top" xlink:title="src/modules/ws&#45;notifier\l/WebServiceNotifier.cpp">
<polygon fill="white" stroke="black" points="1465.5,-0.5 1465.5,-30.5 1588.5,-30.5 1588.5,-0.5 1465.5,-0.5"/>
<text text-anchor="start" x="1473.5" y="-18.5" font-family="Helvetica,sans-Serif" font-size="10.00">src/modules/ws&#45;notifier</text>
<text text-anchor="middle" x="1527" y="-7.5" font-family="Helvetica,sans-Serif" font-size="10.00">/WebServiceNotifier.cpp</text>
</a>
</g>
</g>
<!-- Node19&#45;&gt;Node34 -->
<g id="edge18" class="edge"><title>Node19&#45;&gt;Node34</title>
<path fill="none" stroke="midnightblue" d="M862.589,-148.171C1025.45,-146.739 1458.32,-139.069 1507,-98 1526.6,-81.4659 1528.7,-49.1447 1528.1,-30.5586"/>
<polygon fill="midnightblue" stroke="midnightblue" points="862.23,-144.674 852.259,-148.257 862.288,-151.674 862.23,-144.674"/>
</g>
<!-- Node35 -->
<g id="node17" class="node"><title>Node35</title>
<g id="a_node17"><a xlink:href="../../dc/db5/test_2CredentialValidator_8cpp.html" target="_top" xlink:title="test/CredentialValidator.cpp">
<polygon fill="white" stroke="black" points="1555.5,-73 1555.5,-92 1692.5,-92 1692.5,-73 1555.5,-73"/>
<text text-anchor="middle" x="1624" y="-80" font-family="Helvetica,sans-Serif" font-size="10.00">test/CredentialValidator.cpp</text>
</a>
</g>
</g>
<!-- Node19&#45;&gt;Node35 -->
<g id="edge21" class="edge"><title>Node19&#45;&gt;Node35</title>
<path fill="none" stroke="midnightblue" d="M862.622,-146.479C989.806,-141.828 1290.45,-128.349 1541,-98 1553.78,-96.452 1567.58,-94.2549 1580.19,-92.0378"/>
<polygon fill="midnightblue" stroke="midnightblue" points="862.179,-142.993 852.312,-146.851 862.431,-149.988 862.179,-142.993"/>
</g>
<!-- Node36 -->
<g id="node18" class="node"><title>Node36</title>
<g id="a_node18"><a xlink:href="../../d9/d6d/test_2RFIDCard_8cpp.html" target="_top" xlink:title="test/RFIDCard.cpp">
<polygon fill="white" stroke="black" points="1711,-73 1711,-92 1811,-92 1811,-73 1711,-73"/>
<text text-anchor="middle" x="1761" y="-80" font-family="Helvetica,sans-Serif" font-size="10.00">test/RFIDCard.cpp</text>
</a>
</g>
</g>
<!-- Node19&#45;&gt;Node36 -->
<g id="edge22" class="edge"><title>Node19&#45;&gt;Node36</title>
<path fill="none" stroke="midnightblue" d="M862.255,-148.956C1008.42,-149.201 1388.78,-144.854 1702,-98 1711.49,-96.58 1721.69,-94.3373 1730.9,-92.0363"/>
<polygon fill="midnightblue" stroke="midnightblue" points="862.148,-145.456 852.14,-148.931 862.131,-152.456 862.148,-145.456"/>
</g>
<!-- Node22&#45;&gt;Node20 -->
<g id="edge4" class="edge"><title>Node22&#45;&gt;Node20</title>
<path fill="none" stroke="midnightblue" d="M307.846,-68.4672C255.761,-57.3671 181.164,-41.4693 128.219,-30.186"/>
<polygon fill="midnightblue" stroke="midnightblue" points="307.44,-71.9592 317.95,-70.6205 308.899,-65.1129 307.44,-71.9592"/>
</g>
<!-- Node23 -->
<g id="node5" class="node"><title>Node23</title>
<g id="a_node5"><a xlink:href="../../d5/da8/RFIDCardPin_8cpp.html" target="_top" xlink:title="src/core/credentials\l/RFIDCardPin.cpp">
<polygon fill="white" stroke="black" points="318,-0.5 318,-30.5 420,-30.5 420,-0.5 318,-0.5"/>
<text text-anchor="start" x="326" y="-18.5" font-family="Helvetica,sans-Serif" font-size="10.00">src/core/credentials</text>
<text text-anchor="middle" x="369" y="-7.5" font-family="Helvetica,sans-Serif" font-size="10.00">/RFIDCardPin.cpp</text>
</a>
</g>
</g>
<!-- Node22&#45;&gt;Node23 -->
<g id="edge5" class="edge"><title>Node22&#45;&gt;Node23</title>
<path fill="none" stroke="midnightblue" d="M369,-57.1081C369,-48.1539 369,-38.3227 369,-30.5765"/>
<polygon fill="midnightblue" stroke="midnightblue" points="365.5,-57.3959 369,-67.396 372.5,-57.396 365.5,-57.3959"/>
</g>
<!-- Node22&#45;&gt;Node24 -->
<g id="edge6" class="edge"><title>Node22&#45;&gt;Node24</title>
<path fill="none" stroke="midnightblue" d="M328.05,-63.2687C304.796,-52.9159 276.128,-40.1528 254.618,-30.5765"/>
<polygon fill="midnightblue" stroke="midnightblue" points="326.761,-66.5262 337.32,-67.396 329.608,-60.1313 326.761,-66.5262"/>
</g>
<!-- Node22&#45;&gt;Node25 -->
<g id="edge7" class="edge"><title>Node22&#45;&gt;Node25</title>
<path fill="none" stroke="midnightblue" d="M402.664,-62.4727C424.617,-50.0641 452.204,-34.4716 468.949,-25.007"/>
<polygon fill="midnightblue" stroke="midnightblue" points="400.937,-59.4284 393.953,-67.396 404.381,-65.5223 400.937,-59.4284"/>
</g>
<!-- Node22&#45;&gt;Node26 -->
<g id="edge8" class="edge"><title>Node22&#45;&gt;Node26</title>
<path fill="none" stroke="midnightblue" d="M429.938,-65.4638C478.431,-52.7025 544.411,-35.3391 583.374,-25.0859"/>
<polygon fill="midnightblue" stroke="midnightblue" points="428.959,-62.1022 420.179,-68.032 430.74,-68.8717 428.959,-62.1022"/>
</g>
<!-- Node33 -->
<g id="node15" class="node"><title>Node33</title>
<g id="a_node15"><a xlink:href="../../d3/d34/ws-notifier_2init_8cpp.html" target="_top" xlink:title="src/modules/ws&#45;notifier\l/init.cpp">
<polygon fill="white" stroke="black" points="1329,-0.5 1329,-30.5 1447,-30.5 1447,-0.5 1329,-0.5"/>
<text text-anchor="start" x="1337" y="-18.5" font-family="Helvetica,sans-Serif" font-size="10.00">src/modules/ws&#45;notifier</text>
<text text-anchor="middle" x="1388" y="-7.5" font-family="Helvetica,sans-Serif" font-size="10.00">/init.cpp</text>
</a>
</g>
</g>
<!-- Node32&#45;&gt;Node33 -->
<g id="edge16" class="edge"><title>Node32&#45;&gt;Node33</title>
<path fill="none" stroke="midnightblue" d="M1420.16,-59.1575C1413.01,-49.6788 1404.9,-38.9186 1398.61,-30.5765"/>
<polygon fill="midnightblue" stroke="midnightblue" points="1417.55,-61.5176 1426.37,-67.396 1423.14,-57.3038 1417.55,-61.5176"/>
</g>
<!-- Node32&#45;&gt;Node34 -->
<g id="edge17" class="edge"><title>Node32&#45;&gt;Node34</title>
<path fill="none" stroke="midnightblue" d="M1464.76,-61.4511C1478.61,-51.4517 1495.02,-39.5995 1507.51,-30.5765"/>
<polygon fill="midnightblue" stroke="midnightblue" points="1462.59,-58.7036 1456.53,-67.396 1466.68,-64.3784 1462.59,-58.7036"/>
</g>
</g>
</svg>
