<?xml version="1.0" encoding="UTF-8" standalone="no"?>
<!DOCTYPE svg PUBLIC "-//W3C//DTD SVG 1.1//EN"
 "http://www.w3.org/Graphics/SVG/1.1/DTD/svg11.dtd">
<!-- Generated by graphviz version 2.38.0 (20140413.2041)
 -->
<!-- Title: src/core/audit/AccessPointEvent.hpp Pages: 1 -->
<svg width="314pt" height="106pt"
 viewBox="0.00 0.00 313.50 106.00" xmlns="http://www.w3.org/2000/svg" xmlns:xlink="http://www.w3.org/1999/xlink">
<g id="graph0" class="graph" transform="scale(1 1) rotate(0) translate(4 102)">
<title>src/core/audit/AccessPointEvent.hpp</title>
<polygon fill="white" stroke="none" points="-4,4 -4,-102 309.5,-102 309.5,4 -4,4"/>
<!-- Node29 -->
<g id="node1" class="node"><title>Node29</title>
<polygon fill="#bfbfbf" stroke="black" points="81,-67.5 81,-97.5 215,-97.5 215,-67.5 81,-67.5"/>
<text text-anchor="start" x="89" y="-85.5" font-family="Helvetica,sans-Serif" font-size="10.00">src/core/audit/AccessPoint</text>
<text text-anchor="middle" x="148" y="-74.5" font-family="Helvetica,sans-Serif" font-size="10.00">Event.hpp</text>
</g>
<!-- Node30 -->
<g id="node2" class="node"><title>Node30</title>
<g id="a_node2"><a xlink:href="../../d0/d15/AccessPointEvent_8cpp.html" target="_top" xlink:title="src/core/audit/AccessPoint\lEvent.cpp">
<polygon fill="white" stroke="black" points="0,-0.5 0,-30.5 134,-30.5 134,-0.5 0,-0.5"/>
<text text-anchor="start" x="8" y="-18.5" font-family="Helvetica,sans-Serif" font-size="10.00">src/core/audit/AccessPoint</text>
<text text-anchor="middle" x="67" y="-7.5" font-family="Helvetica,sans-Serif" font-size="10.00">Event.cpp</text>
</a>
</g>
</g>
<!-- Node29&#45;&gt;Node30 -->
<g id="edge1" class="edge"><title>Node29&#45;&gt;Node30</title>
<path fill="none" stroke="midnightblue" d="M122.308,-60.8832C109.999,-51.0054 95.5734,-39.4293 84.5415,-30.5765"/>
<polygon fill="midnightblue" stroke="midnightblue" points="120.434,-63.867 130.424,-67.396 124.815,-58.4075 120.434,-63.867"/>
</g>
<!-- Node31 -->
<g id="node3" class="node"><title>Node31</title>
<g id="a_node3"><a xlink:href="../../d4/dbe/AuditFactory_8cpp.html" target="_top" xlink:title="src/core/audit/AuditFactory.cpp">
<polygon fill="white" stroke="black" points="152.5,-6 152.5,-25 305.5,-25 305.5,-6 152.5,-6"/>
<text text-anchor="middle" x="229" y="-13" font-family="Helvetica,sans-Serif" font-size="10.00">src/core/audit/AuditFactory.cpp</text>
</a>
</g>
</g>
<!-- Node29&#45;&gt;Node31 -->
<g id="edge2" class="edge"><title>Node29&#45;&gt;Node31</title>
<path fill="none" stroke="midnightblue" d="M173.536,-61.008C188.573,-48.9412 206.813,-34.3046 218.165,-25.1945"/>
<polygon fill="midnightblue" stroke="midnightblue" points="171.185,-58.4075 165.576,-67.396 175.566,-63.867 171.185,-58.4075"/>
</g>
</g>
</svg>
