<?xml version="1.0" encoding="UTF-8" standalone="no"?>
<!DOCTYPE svg PUBLIC "-//W3C//DTD SVG 1.1//EN"
 "http://www.w3.org/Graphics/SVG/1.1/DTD/svg11.dtd">
<!-- Generated by graphviz version 2.38.0 (20140413.2041)
 -->
<!-- Title: ModelException Pages: 1 -->
<svg width="432pt" height="485pt"
 viewBox="0.00 0.00 432.00 485.00" xmlns="http://www.w3.org/2000/svg" xmlns:xlink="http://www.w3.org/1999/xlink">
<g id="graph0" class="graph" transform="scale(1 1) rotate(0) translate(4 481)">
<title>ModelException</title>
<polygon fill="white" stroke="none" points="-4,4 -4,-481 428,-481 428,4 -4,4"/>
<!-- Node3 -->
<g id="node1" class="node"><title>Node3</title>
<polygon fill="#bfbfbf" stroke="black" points="216,-0.5 216,-19.5 302,-19.5 302,-0.5 216,-0.5"/>
<text text-anchor="middle" x="259" y="-7.5" font-family="Helvetica,sans-Serif" font-size="10.00">ModelException</text>
</g>
<!-- Node4 -->
<g id="node2" class="node"><title>Node4</title>
<g id="a_node2"><a xlink:href="../../d7/d0e/classLEOSACException.html" target="_top" xlink:title="A base class for Leosac specific exception. ">
<polygon fill="white" stroke="black" points="87.5,-57.5 87.5,-76.5 188.5,-76.5 188.5,-57.5 87.5,-57.5"/>
<text text-anchor="middle" x="138" y="-64.5" font-family="Helvetica,sans-Serif" font-size="10.00">LEOSACException</text>
</a>
</g>
</g>
<!-- Node4&#45;&gt;Node3 -->
<g id="edge1" class="edge"><title>Node4&#45;&gt;Node3</title>
<path fill="none" stroke="midnightblue" d="M166.083,-53.235C188.879,-42.8732 220.388,-28.5509 240.227,-19.5334"/>
<polygon fill="midnightblue" stroke="midnightblue" points="164.562,-50.0819 156.906,-57.4062 167.458,-56.4544 164.562,-50.0819"/>
</g>
<!-- Node5 -->
<g id="node3" class="node"><title>Node5</title>
<g id="a_node3"><a xlink:title="STL class. ">
<polygon fill="white" stroke="#bfbfbf" points="0,-124.5 0,-143.5 78,-143.5 78,-124.5 0,-124.5"/>
<text text-anchor="middle" x="39" y="-131.5" font-family="Helvetica,sans-Serif" font-size="10.00">std::exception</text>
</a>
</g>
</g>
<!-- Node5&#45;&gt;Node4 -->
<g id="edge2" class="edge"><title>Node5&#45;&gt;Node4</title>
<path fill="none" stroke="midnightblue" d="M58.8576,-118.108C68.6822,-110.91 80.8075,-102.276 92,-95 101.938,-88.54 113.438,-81.79 122.453,-76.655"/>
<polygon fill="midnightblue" stroke="midnightblue" points="56.5328,-115.475 50.5745,-124.235 60.6956,-121.102 56.5328,-115.475"/>
</g>
<!-- Node6 -->
<g id="node4" class="node"><title>Node6</title>
<g id="a_node4"><a xlink:href="../../d2/de3/classLeosac_1_1Tools_1_1Stacktrace.html" target="_top" xlink:title="Store information about a stacktrace at a given point in the program execution. ">
<polygon fill="white" stroke="black" points="137.5,-124.5 137.5,-143.5 268.5,-143.5 268.5,-124.5 137.5,-124.5"/>
<text text-anchor="middle" x="203" y="-131.5" font-family="Helvetica,sans-Serif" font-size="10.00">Leosac::Tools::Stacktrace</text>
</a>
</g>
</g>
<!-- Node6&#45;&gt;Node4 -->
<g id="edge3" class="edge"><title>Node6&#45;&gt;Node4</title>
<path fill="none" stroke="#9a32cd" stroke-dasharray="5,2" d="M186.997,-116.997C174.25,-104.25 156.895,-86.8947 146.627,-76.6273"/>
<polygon fill="#9a32cd" stroke="#9a32cd" points="184.688,-119.638 194.234,-124.234 189.638,-114.688 184.688,-119.638"/>
<text text-anchor="middle" x="190.5" y="-98" font-family="Helvetica,sans-Serif" font-size="10.00"> trace_</text>
</g>
<!-- Node7 -->
<g id="node5" class="node"><title>Node7</title>
<polygon fill="white" stroke="#bfbfbf" points="173,-211.5 173,-252.5 277,-252.5 277,-211.5 173,-211.5"/>
<text text-anchor="start" x="181" y="-240.5" font-family="Helvetica,sans-Serif" font-size="10.00">std::vector&lt; Leosac</text>
<text text-anchor="start" x="181" y="-229.5" font-family="Helvetica,sans-Serif" font-size="10.00">::Tools::Stacktrace</text>
<text text-anchor="middle" x="225" y="-218.5" font-family="Helvetica,sans-Serif" font-size="10.00">::Frame &gt;</text>
</g>
<!-- Node7&#45;&gt;Node6 -->
<g id="edge4" class="edge"><title>Node7&#45;&gt;Node6</title>
<path fill="none" stroke="#9a32cd" stroke-dasharray="5,2" d="M218.192,-201.293C213.657,-181.503 208.004,-156.835 205.036,-143.886"/>
<polygon fill="#9a32cd" stroke="#9a32cd" points="214.796,-202.143 220.442,-211.109 221.619,-200.58 214.796,-202.143"/>
<text text-anchor="middle" x="232.5" y="-175" font-family="Helvetica,sans-Serif" font-size="10.00"> stack_</text>
</g>
<!-- Node8 -->
<g id="node6" class="node"><title>Node8</title>
<g id="a_node6"><a xlink:href="../../d8/d1d/structLeosac_1_1Tools_1_1Stacktrace_1_1Frame.html" target="_top" xlink:title="Leosac::Tools::Stacktrace\l::Frame">
<polygon fill="white" stroke="black" points="134.5,-300.5 134.5,-330.5 265.5,-330.5 265.5,-300.5 134.5,-300.5"/>
<text text-anchor="start" x="142.5" y="-318.5" font-family="Helvetica,sans-Serif" font-size="10.00">Leosac::Tools::Stacktrace</text>
<text text-anchor="middle" x="200" y="-307.5" font-family="Helvetica,sans-Serif" font-size="10.00">::Frame</text>
</a>
</g>
</g>
<!-- Node8&#45;&gt;Node7 -->
<g id="edge5" class="edge"><title>Node8&#45;&gt;Node7</title>
<path fill="none" stroke="#9a32cd" stroke-dasharray="5,2" d="M207.383,-290.433C211.088,-278.353 215.519,-263.909 219.01,-252.528"/>
<polygon fill="#9a32cd" stroke="#9a32cd" points="203.941,-289.717 204.355,-300.304 210.633,-291.77 203.941,-289.717"/>
<text text-anchor="middle" x="235.5" y="-274" font-family="Helvetica,sans-Serif" font-size="10.00"> elements</text>
</g>
<!-- Node9 -->
<g id="node7" class="node"><title>Node9</title>
<g id="a_node7"><a xlink:title="STL class. ">
<polygon fill="white" stroke="#bfbfbf" points="170,-389.5 170,-408.5 230,-408.5 230,-389.5 170,-389.5"/>
<text text-anchor="middle" x="200" y="-396.5" font-family="Helvetica,sans-Serif" font-size="10.00">std::string</text>
</a>
</g>
</g>
<!-- Node9&#45;&gt;Node4 -->
<g id="edge8" class="edge"><title>Node9&#45;&gt;Node4</title>
<path fill="none" stroke="#9a32cd" stroke-dasharray="5,2" d="M167.049,-385.302C139.954,-372.458 106,-349.732 106,-316.5 106,-316.5 106,-316.5 106,-133 106,-110.863 121.125,-88.4414 130.578,-76.5901"/>
<polygon fill="#9a32cd" stroke="#9a32cd" points="165.723,-388.543 176.28,-389.434 168.583,-382.153 165.723,-388.543"/>
<text text-anchor="middle" x="130.5" y="-229.5" font-family="Helvetica,sans-Serif" font-size="10.00"> message_</text>
</g>
<!-- Node9&#45;&gt;Node8 -->
<g id="edge6" class="edge"><title>Node9&#45;&gt;Node8</title>
<path fill="none" stroke="#9a32cd" stroke-dasharray="5,2" d="M200,-379.229C200,-364.408 200,-344.051 200,-330.597"/>
<polygon fill="#9a32cd" stroke="#9a32cd" points="196.5,-379.278 200,-389.278 203.5,-379.278 196.5,-379.278"/>
<text text-anchor="middle" x="221.5" y="-363" font-family="Helvetica,sans-Serif" font-size="10.00"> function_</text>
<text text-anchor="middle" x="221.5" y="-352" font-family="Helvetica,sans-Serif" font-size="10.00">file_</text>
</g>
<!-- Node12 -->
<g id="node10" class="node"><title>Node12</title>
<g id="a_node10"><a xlink:href="../../db/db4/structModelException_1_1ModelError.html" target="_top" xlink:title="Describes a model error. ">
<polygon fill="white" stroke="black" points="284,-306 284,-325 424,-325 424,-306 284,-306"/>
<text text-anchor="middle" x="354" y="-313" font-family="Helvetica,sans-Serif" font-size="10.00">ModelException::ModelError</text>
</a>
</g>
</g>
<!-- Node9&#45;&gt;Node12 -->
<g id="edge11" class="edge"><title>Node9&#45;&gt;Node12</title>
<path fill="none" stroke="#9a32cd" stroke-dasharray="5,2" d="M225.295,-384.613C257.065,-367.8 310.665,-339.434 337.564,-325.198"/>
<polygon fill="#9a32cd" stroke="#9a32cd" points="223.391,-381.661 216.19,-389.432 226.665,-387.848 223.391,-381.661"/>
<text text-anchor="middle" x="322" y="-363" font-family="Helvetica,sans-Serif" font-size="10.00"> message</text>
<text text-anchor="middle" x="322" y="-352" font-family="Helvetica,sans-Serif" font-size="10.00">source_pointer</text>
</g>
<!-- Node10 -->
<g id="node8" class="node"><title>Node10</title>
<g id="a_node8"><a xlink:title="STL class. ">
<polygon fill="white" stroke="#bfbfbf" points="152.5,-446.5 152.5,-476.5 247.5,-476.5 247.5,-446.5 152.5,-446.5"/>
<text text-anchor="start" x="160.5" y="-464.5" font-family="Helvetica,sans-Serif" font-size="10.00">std::basic_string&lt;</text>
<text text-anchor="middle" x="200" y="-453.5" font-family="Helvetica,sans-Serif" font-size="10.00"> char &gt;</text>
</a>
</g>
</g>
<!-- Node10&#45;&gt;Node9 -->
<g id="edge7" class="edge"><title>Node10&#45;&gt;Node9</title>
<path fill="none" stroke="midnightblue" d="M200,-436.352C200,-426.513 200,-415.775 200,-408.54"/>
<polygon fill="midnightblue" stroke="midnightblue" points="196.5,-436.468 200,-446.468 203.5,-436.468 196.5,-436.468"/>
</g>
<!-- Node11 -->
<g id="node9" class="node"><title>Node11</title>
<polygon fill="white" stroke="#bfbfbf" points="269,-162.5 269,-192.5 411,-192.5 411,-162.5 269,-162.5"/>
<text text-anchor="start" x="277" y="-180.5" font-family="Helvetica,sans-Serif" font-size="10.00">std::vector&lt; ModelException</text>
<text text-anchor="middle" x="340" y="-169.5" font-family="Helvetica,sans-Serif" font-size="10.00">::ModelError &gt;</text>
</g>
<!-- Node11&#45;&gt;Node3 -->
<g id="edge9" class="edge"><title>Node11&#45;&gt;Node3</title>
<path fill="none" stroke="#9a32cd" stroke-dasharray="5,2" d="M328.624,-153.256C310.34,-115.899 275.248,-44.1978 263.19,-19.5603"/>
<polygon fill="#9a32cd" stroke="#9a32cd" points="325.554,-154.946 333.094,-162.39 331.842,-151.869 325.554,-154.946"/>
<text text-anchor="middle" x="322" y="-98" font-family="Helvetica,sans-Serif" font-size="10.00"> errors_</text>
</g>
<!-- Node12&#45;&gt;Node11 -->
<g id="edge10" class="edge"><title>Node12&#45;&gt;Node11</title>
<path fill="none" stroke="#9a32cd" stroke-dasharray="5,2" d="M352.073,-295.783C349.246,-268.316 344.033,-217.673 341.483,-192.904"/>
<polygon fill="#9a32cd" stroke="#9a32cd" points="348.619,-296.404 353.124,-305.993 355.582,-295.687 348.619,-296.404"/>
<text text-anchor="middle" x="371.5" y="-274" font-family="Helvetica,sans-Serif" font-size="10.00"> elements</text>
</g>
</g>
</svg>
