<?xml version="1.0" encoding="UTF-8" standalone="no"?>
<!DOCTYPE svg PUBLIC "-//W3C//DTD SVG 1.1//EN"
 "http://www.w3.org/Graphics/SVG/1.1/DTD/svg11.dtd">
<!-- Generated by graphviz version 2.38.0 (20140413.2041)
 -->
<!-- Title: Leosac::Module::WebSockAPI::ZoneCRUD Pages: 1 -->
<!--zoomable 413 -->
<svg id="main" version="1.1" xmlns="http://www.w3.org/2000/svg" xmlns:xlink="http://www.w3.org/1999/xlink" xml:space="preserve" onload="init(evt)">
<style type="text/css"><![CDATA[
.edge:hover path { stroke: red; }
.edge:hover polygon { stroke: red; fill: red; }
]]></style>
<script type="text/javascript"><![CDATA[
var edges = document.getElementsByTagName('g');
if (edges && edges.length) {
  for (var i=0;i<edges.length;i++) {
    if (edges[i].id.substr(0,4)=='edge') {
      edges[i].setAttribute('class','edge');
    }
  }
}
]]></script>
        <defs>
                <circle id="rim" cx="0" cy="0" r="7"/>
                <circle id="rim2" cx="0" cy="0" r="3.5"/>
                <g id="zoomPlus">
                        <use xlink:href="#rim" fill="#404040">
                                <set attributeName="fill" to="#808080" begin="zoomplus.mouseover" end="zoomplus.mouseout"/>
                        </use>
                        <path d="M-4,0h8M0,-4v8" fill="none" stroke="white" stroke-width="1.5" pointer-events="none"/>
                </g>
                <g id="zoomMin">
                        <use xlink:href="#rim" fill="#404040">
                                <set attributeName="fill" to="#808080" begin="zoomminus.mouseover" end="zoomminus.mouseout"/>
                        </use>
                        <path d="M-4,0h8" fill="none" stroke="white" stroke-width="1.5" pointer-events="none"/>
                </g>
                <g id="dirArrow">
                        <path fill="none" stroke="white" stroke-width="1.5" d="M0,-3.0v7 M-2.5,-0.5L0,-3.0L2.5,-0.5"/>
                </g>
               <g id="resetDef">
                       <use xlink:href="#rim2" fill="#404040">
                               <set attributeName="fill" to="#808080" begin="reset.mouseover" end="reset.mouseout"/>
                       </use>
               </g>
        </defs>

<script type="text/javascript">
var viewWidth = 1682;
var viewHeight = 413;
var sectionId = 'dynsection-1';
</script>
<script xlink:href="../../svgpan.js"/>
<svg id="graph" class="graph">
<g id="viewport">
<title>Leosac::Module::WebSockAPI::ZoneCRUD</title>
<polygon fill="white" stroke="none" points="-4,4 -4,-408.5 1678,-408.5 1678,4 -4,4"/>
<!-- Node3 -->
<g id="node1" class="node"><title>Node3</title>
<polygon fill="#bfbfbf" stroke="black" points="1523,-277.5 1523,-307.5 1674,-307.5 1674,-277.5 1523,-277.5"/>
<text text-anchor="start" x="1531" y="-295.5" font-family="Helvetica,sans-Serif" font-size="10.00">Leosac::Module::WebSockAPI</text>
<text text-anchor="middle" x="1598.5" y="-284.5" font-family="Helvetica,sans-Serif" font-size="10.00">::ZoneCRUD</text>
</g>
<!-- Node4 -->
<g id="node2" class="node"><title>Node4</title>
<g id="a_node2"><a xlink:href="../../da/dc2/classLeosac_1_1Module_1_1WebSockAPI_1_1CRUDResourceHandler.html" target="_top" xlink:title="Base CRUD handler for use within the websocket module. ">
<polygon fill="white" stroke="black" points="1335,-277.5 1335,-307.5 1486,-307.5 1486,-277.5 1335,-277.5"/>
<text text-anchor="start" x="1343" y="-295.5" font-family="Helvetica,sans-Serif" font-size="10.00">Leosac::Module::WebSockAPI</text>
<text text-anchor="middle" x="1410.5" y="-284.5" font-family="Helvetica,sans-Serif" font-size="10.00">::CRUDResourceHandler</text>
</a>
</g>
</g>
<!-- Node4&#45;&gt;Node3 -->
<g id="edge1" class="edge"><title>Node4&#45;&gt;Node3</title>
<path fill="none" stroke="midnightblue" d="M1496.11,-292.5C1505.05,-292.5 1514.09,-292.5 1522.9,-292.5"/>
<polygon fill="midnightblue" stroke="midnightblue" points="1496.08,-289 1486.08,-292.5 1496.08,-296 1496.08,-289"/>
</g>
<!-- Node5 -->
<g id="node3" class="node"><title>Node5</title>
<g id="a_node3"><a xlink:href="../../d3/dd9/classLeosac_1_1Module_1_1WebSockAPI_1_1ICRUDResourceHandler.html" target="_top" xlink:title="A common interface for CRUD handler. ">
<polygon fill="white" stroke="black" points="1126,-296.5 1126,-326.5 1277,-326.5 1277,-296.5 1126,-296.5"/>
<text text-anchor="start" x="1134" y="-314.5" font-family="Helvetica,sans-Serif" font-size="10.00">Leosac::Module::WebSockAPI</text>
<text text-anchor="middle" x="1201.5" y="-303.5" font-family="Helvetica,sans-Serif" font-size="10.00">::ICRUDResourceHandler</text>
</a>
</g>
</g>
<!-- Node5&#45;&gt;Node4 -->
<g id="edge2" class="edge"><title>Node5&#45;&gt;Node4</title>
<path fill="none" stroke="midnightblue" d="M1287.46,-303.702C1303.18,-302.259 1319.49,-300.762 1334.88,-299.349"/>
<polygon fill="midnightblue" stroke="midnightblue" points="1286.87,-300.241 1277.23,-304.641 1287.51,-307.212 1286.87,-300.241"/>
</g>
<!-- Node6 -->
<g id="node4" class="node"><title>Node6</title>
<g id="a_node4"><a xlink:href="../../da/d98/structLeosac_1_1Module_1_1WebSockAPI_1_1RequestContext.html" target="_top" xlink:title="Holds valuable pointer to provide context to a request. ">
<polygon fill="white" stroke="black" points="1126,-247.5 1126,-277.5 1277,-277.5 1277,-247.5 1126,-247.5"/>
<text text-anchor="start" x="1134" y="-265.5" font-family="Helvetica,sans-Serif" font-size="10.00">Leosac::Module::WebSockAPI</text>
<text text-anchor="middle" x="1201.5" y="-254.5" font-family="Helvetica,sans-Serif" font-size="10.00">::RequestContext</text>
</a>
</g>
</g>
<!-- Node6&#45;&gt;Node4 -->
<g id="edge3" class="edge"><title>Node6&#45;&gt;Node4</title>
<path fill="none" stroke="#9a32cd" stroke-dasharray="5,2" d="M1287.46,-274.813C1303.18,-277.092 1319.49,-279.455 1334.88,-281.685"/>
<polygon fill="#9a32cd" stroke="#9a32cd" points="1287.63,-271.301 1277.23,-273.331 1286.63,-278.229 1287.63,-271.301"/>
<text text-anchor="middle" x="1306" y="-281.5" font-family="Helvetica,sans-Serif" font-size="10.00"> ctx_</text>
</g>
<!-- Node7 -->
<g id="node5" class="node"><title>Node7</title>
<g id="a_node5"><a xlink:href="../../d2/d15/structLeosac_1_1Module_1_1WebSockAPI_1_1ClientMessage.html" target="_top" xlink:title="A message sent by a client to Leosac. ">
<polygon fill="white" stroke="black" points="427,-306.5 427,-336.5 578,-336.5 578,-306.5 427,-306.5"/>
<text text-anchor="start" x="435" y="-324.5" font-family="Helvetica,sans-Serif" font-size="10.00">Leosac::Module::WebSockAPI</text>
<text text-anchor="middle" x="502.5" y="-313.5" font-family="Helvetica,sans-Serif" font-size="10.00">::ClientMessage</text>
</a>
</g>
</g>
<!-- Node7&#45;&gt;Node6 -->
<g id="edge4" class="edge"><title>Node7&#45;&gt;Node6</title>
<path fill="none" stroke="#9a32cd" stroke-dasharray="5,2" d="M588.482,-317.679C705.673,-311.872 923.365,-299.147 1108,-277.5 1113.82,-276.818 1119.83,-276.031 1125.86,-275.183"/>
<polygon fill="#9a32cd" stroke="#9a32cd" points="587.966,-314.2 578.15,-318.186 588.31,-321.192 587.966,-314.2"/>
<text text-anchor="middle" x="816.5" y="-310.5" font-family="Helvetica,sans-Serif" font-size="10.00"> original_msg</text>
</g>
<!-- Node8 -->
<g id="node6" class="node"><title>Node8</title>
<g id="a_node6"><a xlink:title="STL class. ">
<polygon fill="white" stroke="#bfbfbf" points="132,-208 132,-227 192,-227 192,-208 132,-208"/>
<text text-anchor="middle" x="162" y="-215" font-family="Helvetica,sans-Serif" font-size="10.00">std::string</text>
</a>
</g>
</g>
<!-- Node8&#45;&gt;Node7 -->
<g id="edge5" class="edge"><title>Node8&#45;&gt;Node7</title>
<path fill="none" stroke="#9a32cd" stroke-dasharray="5,2" d="M177.203,-234.983C194.889,-255.31 227.17,-287.931 263,-302.5 314.946,-323.621 378.43,-327.75 426.837,-326.934"/>
<polygon fill="#9a32cd" stroke="#9a32cd" points="179.679,-232.49 170.55,-227.112 174.333,-237.009 179.679,-232.49"/>
<text text-anchor="middle" x="227.5" y="-308.5" font-family="Helvetica,sans-Serif" font-size="10.00"> type</text>
<text text-anchor="middle" x="227.5" y="-297.5" font-family="Helvetica,sans-Serif" font-size="10.00">uuid</text>
</g>
<!-- Node13 -->
<g id="node11" class="node"><title>Node13</title>
<g id="a_node11"><a xlink:href="../../d2/dec/classLeosac_1_1Module_1_1WebSockAPI_1_1WebSockAPIModule.html" target="_top" xlink:title="A module that provide a websocket interface to Leosac. ">
<polygon fill="white" stroke="black" points="598,-0.5 598,-30.5 749,-30.5 749,-0.5 598,-0.5"/>
<text text-anchor="start" x="606" y="-18.5" font-family="Helvetica,sans-Serif" font-size="10.00">Leosac::Module::WebSockAPI</text>
<text text-anchor="middle" x="673.5" y="-7.5" font-family="Helvetica,sans-Serif" font-size="10.00">::WebSockAPIModule</text>
</a>
</g>
</g>
<!-- Node8&#45;&gt;Node13 -->
<g id="edge16" class="edge"><title>Node8&#45;&gt;Node13</title>
<path fill="none" stroke="#9a32cd" stroke-dasharray="5,2" d="M185.393,-202.226C205.188,-189.177 235.163,-170.507 263,-157.5 329.468,-126.443 532.274,-60.3088 625.15,-30.5551"/>
<polygon fill="#9a32cd" stroke="#9a32cd" points="183.435,-199.325 177.058,-207.786 187.319,-205.148 183.435,-199.325"/>
<text text-anchor="middle" x="336" y="-160.5" font-family="Helvetica,sans-Serif" font-size="10.00"> interface_</text>
</g>
<!-- Node14 -->
<g id="node12" class="node"><title>Node14</title>
<g id="a_node12"><a xlink:href="../../df/d9f/classLeosac_1_1Module_1_1BaseModule.html" target="_top" xlink:title="Base class for module implementation. ">
<polygon fill="white" stroke="black" points="263,-37 263,-56 409,-56 409,-37 263,-37"/>
<text text-anchor="middle" x="336" y="-44" font-family="Helvetica,sans-Serif" font-size="10.00">Leosac::Module::BaseModule</text>
</a>
</g>
</g>
<!-- Node8&#45;&gt;Node14 -->
<g id="edge12" class="edge"><title>Node8&#45;&gt;Node14</title>
<path fill="none" stroke="#9a32cd" stroke-dasharray="5,2" d="M164.813,-197.553C168.441,-169.227 179.121,-117.467 210,-87.5 226.226,-71.7533 248.596,-62.0541 269.932,-56.08"/>
<polygon fill="#9a32cd" stroke="#9a32cd" points="161.3,-197.484 163.681,-207.808 168.257,-198.253 161.3,-197.484"/>
<text text-anchor="middle" x="227.5" y="-90.5" font-family="Helvetica,sans-Serif" font-size="10.00"> name_</text>
</g>
<!-- Node17 -->
<g id="node15" class="node"><title>Node17</title>
<polygon fill="white" stroke="#bfbfbf" points="447.5,-145 447.5,-186 557.5,-186 557.5,-145 447.5,-145"/>
<text text-anchor="start" x="455.5" y="-174" font-family="Helvetica,sans-Serif" font-size="10.00">std::map&lt; std::string,</text>
<text text-anchor="start" x="455.5" y="-163" font-family="Helvetica,sans-Serif" font-size="10.00"> json(APISession::*)</text>
<text text-anchor="middle" x="502.5" y="-152" font-family="Helvetica,sans-Serif" font-size="10.00">(const json &amp;)&gt;</text>
</g>
<!-- Node8&#45;&gt;Node17 -->
<g id="edge18" class="edge"><title>Node8&#45;&gt;Node17</title>
<path fill="none" stroke="#9a32cd" stroke-dasharray="5,2" d="M200.89,-204.97C203.959,-204.089 207.024,-203.253 210,-202.5 291.232,-181.956 388.224,-172.543 447.313,-168.435"/>
<polygon fill="#9a32cd" stroke="#9a32cd" points="199.74,-201.661 191.172,-207.892 201.756,-208.364 199.74,-201.661"/>
<text text-anchor="middle" x="227.5" y="-205.5" font-family="Helvetica,sans-Serif" font-size="10.00"> keys</text>
</g>
<!-- Node18 -->
<g id="node16" class="node"><title>Node18</title>
<polygon fill="white" stroke="#bfbfbf" points="435.5,-351.5 435.5,-381.5 569.5,-381.5 569.5,-351.5 435.5,-351.5"/>
<text text-anchor="start" x="443.5" y="-369.5" font-family="Helvetica,sans-Serif" font-size="10.00">std::map&lt; std::string,</text>
<text text-anchor="middle" x="502.5" y="-358.5" font-family="Helvetica,sans-Serif" font-size="10.00"> MethodHandler::Factory &gt;</text>
</g>
<!-- Node8&#45;&gt;Node18 -->
<g id="edge20" class="edge"><title>Node8&#45;&gt;Node18</title>
<path fill="none" stroke="#9a32cd" stroke-dasharray="5,2" d="M166.297,-237.279C171.345,-260.971 183.365,-300.022 210,-320.5 274.58,-370.153 371.388,-375.872 435.478,-373.078"/>
<polygon fill="#9a32cd" stroke="#9a32cd" points="169.708,-236.478 164.393,-227.313 162.832,-237.792 169.708,-236.478"/>
<text text-anchor="middle" x="227.5" y="-344.5" font-family="Helvetica,sans-Serif" font-size="10.00"> keys</text>
</g>
<!-- Node19 -->
<g id="node17" class="node"><title>Node19</title>
<polygon fill="white" stroke="#bfbfbf" points="273.5,-252 273.5,-293 398.5,-293 398.5,-252 273.5,-252"/>
<text text-anchor="start" x="281.5" y="-281" font-family="Helvetica,sans-Serif" font-size="10.00">std::map&lt; std::string,</text>
<text text-anchor="start" x="281.5" y="-270" font-family="Helvetica,sans-Serif" font-size="10.00"> CRUDResourceHandler</text>
<text text-anchor="middle" x="336" y="-259" font-family="Helvetica,sans-Serif" font-size="10.00">::Factory &gt;</text>
</g>
<!-- Node8&#45;&gt;Node19 -->
<g id="edge22" class="edge"><title>Node8&#45;&gt;Node19</title>
<path fill="none" stroke="#9a32cd" stroke-dasharray="5,2" d="M201.736,-229.886C222.791,-236.619 249.328,-245.105 273.168,-252.728"/>
<polygon fill="#9a32cd" stroke="#9a32cd" points="202.768,-226.542 192.177,-226.83 200.636,-233.21 202.768,-226.542"/>
<text text-anchor="middle" x="227.5" y="-246.5" font-family="Helvetica,sans-Serif" font-size="10.00"> keys</text>
</g>
<!-- Node20 -->
<g id="node18" class="node"><title>Node20</title>
<polygon fill="white" stroke="#bfbfbf" points="277,-202.5 277,-232.5 395,-232.5 395,-202.5 277,-202.5"/>
<text text-anchor="start" x="285" y="-220.5" font-family="Helvetica,sans-Serif" font-size="10.00">std::map&lt; std::string,</text>
<text text-anchor="middle" x="336" y="-209.5" font-family="Helvetica,sans-Serif" font-size="10.00"> Service::WSHandler &gt;</text>
</g>
<!-- Node8&#45;&gt;Node20 -->
<g id="edge24" class="edge"><title>Node8&#45;&gt;Node20</title>
<path fill="none" stroke="#9a32cd" stroke-dasharray="5,2" d="M202.469,-217.5C224.467,-217.5 252.276,-217.5 276.733,-217.5"/>
<polygon fill="#9a32cd" stroke="#9a32cd" points="202.177,-214 192.177,-217.5 202.177,-221 202.177,-214"/>
<text text-anchor="middle" x="227.5" y="-220.5" font-family="Helvetica,sans-Serif" font-size="10.00"> keys</text>
</g>
<!-- Node9 -->
<g id="node7" class="node"><title>Node9</title>
<g id="a_node7"><a xlink:title="STL class. ">
<polygon fill="white" stroke="#bfbfbf" points="0,-202.5 0,-232.5 95,-232.5 95,-202.5 0,-202.5"/>
<text text-anchor="start" x="8" y="-220.5" font-family="Helvetica,sans-Serif" font-size="10.00">std::basic_string&lt;</text>
<text text-anchor="middle" x="47.5" y="-209.5" font-family="Helvetica,sans-Serif" font-size="10.00"> char &gt;</text>
</a>
</g>
</g>
<!-- Node9&#45;&gt;Node8 -->
<g id="edge6" class="edge"><title>Node9&#45;&gt;Node8</title>
<path fill="none" stroke="midnightblue" d="M105.526,-217.5C114.678,-217.5 123.803,-217.5 131.931,-217.5"/>
<polygon fill="midnightblue" stroke="midnightblue" points="105.233,-214 95.2328,-217.5 105.233,-221 105.233,-214"/>
</g>
<!-- Node10 -->
<g id="node8" class="node"><title>Node10</title>
<g id="a_node8"><a xlink:href="../../db/d24/classLeosac_1_1SecurityContext.html" target="_top" xlink:title="A SecurityContext is used to query permission while doing an operation. ">
<polygon fill="white" stroke="black" points="895,-253 895,-272 1020,-272 1020,-253 895,-253"/>
<text text-anchor="middle" x="957.5" y="-260" font-family="Helvetica,sans-Serif" font-size="10.00">Leosac::SecurityContext</text>
</a>
</g>
</g>
<!-- Node10&#45;&gt;Node6 -->
<g id="edge7" class="edge"><title>Node10&#45;&gt;Node6</title>
<path fill="none" stroke="#9a32cd" stroke-dasharray="5,2" d="M1030.22,-262.5C1060.4,-262.5 1095.5,-262.5 1125.97,-262.5"/>
<polygon fill="#9a32cd" stroke="#9a32cd" points="1030.19,-259 1020.19,-262.5 1030.19,-266 1030.19,-259"/>
<text text-anchor="middle" x="1079.5" y="-265.5" font-family="Helvetica,sans-Serif" font-size="10.00"> security_ctx</text>
</g>
<!-- Node11 -->
<g id="node9" class="node"><title>Node11</title>
<g id="a_node9"><a xlink:href="../../d5/dad/classLeosac_1_1Module_1_1WebSockAPI_1_1WSServer.html" target="_top" xlink:title="The implementation class that runs the websocket server. ">
<polygon fill="white" stroke="black" points="882,-157.5 882,-187.5 1033,-187.5 1033,-157.5 882,-157.5"/>
<text text-anchor="start" x="890" y="-175.5" font-family="Helvetica,sans-Serif" font-size="10.00">Leosac::Module::WebSockAPI</text>
<text text-anchor="middle" x="957.5" y="-164.5" font-family="Helvetica,sans-Serif" font-size="10.00">::WSServer</text>
</a>
</g>
</g>
<!-- Node11&#45;&gt;Node6 -->
<g id="edge8" class="edge"><title>Node11&#45;&gt;Node6</title>
<path fill="none" stroke="#9a32cd" stroke-dasharray="5,2" d="M1008.53,-191.104C1053.32,-207.764 1118.2,-231.891 1159.86,-247.387"/>
<polygon fill="#9a32cd" stroke="#9a32cd" points="1009.6,-187.769 999.005,-187.564 1007.16,-194.33 1009.6,-187.769"/>
<text text-anchor="middle" x="1079.5" y="-229.5" font-family="Helvetica,sans-Serif" font-size="10.00"> server</text>
</g>
<!-- Node16 -->
<g id="node14" class="node"><title>Node16</title>
<polygon fill="white" stroke="#bfbfbf" points="1139,-15 1139,-56 1264,-56 1264,-15 1139,-15"/>
<text text-anchor="start" x="1147" y="-44" font-family="Helvetica,sans-Serif" font-size="10.00">std::unique_ptr&lt; Leosac</text>
<text text-anchor="start" x="1147" y="-33" font-family="Helvetica,sans-Serif" font-size="10.00">::Module::WebSockAPI::</text>
<text text-anchor="middle" x="1201.5" y="-22" font-family="Helvetica,sans-Serif" font-size="10.00">WSServer &gt;</text>
</g>
<!-- Node11&#45;&gt;Node16 -->
<g id="edge15" class="edge"><title>Node11&#45;&gt;Node16</title>
<path fill="none" stroke="#9a32cd" stroke-dasharray="5,2" d="M994.256,-152.258C1039.84,-126.451 1118.23,-82.0716 1164.12,-56.096"/>
<polygon fill="#9a32cd" stroke="#9a32cd" points="992.301,-149.343 985.323,-157.315 995.749,-155.434 992.301,-149.343"/>
<text text-anchor="middle" x="1079.5" y="-119.5" font-family="Helvetica,sans-Serif" font-size="10.00"> ptr</text>
</g>
<!-- Node21 -->
<g id="node19" class="node"><title>Node21</title>
<g id="a_node19"><a xlink:href="../../dc/da7/classLeosac_1_1Module_1_1WebSockAPI_1_1APIAuth.html" target="_top" xlink:title="This class is responsible for providing an API to manage authentication for Websocket client...">
<polygon fill="white" stroke="black" points="1126,-145.5 1126,-175.5 1277,-175.5 1277,-145.5 1126,-145.5"/>
<text text-anchor="start" x="1134" y="-163.5" font-family="Helvetica,sans-Serif" font-size="10.00">Leosac::Module::WebSockAPI</text>
<text text-anchor="middle" x="1201.5" y="-152.5" font-family="Helvetica,sans-Serif" font-size="10.00">::APIAuth</text>
</a>
</g>
</g>
<!-- Node11&#45;&gt;Node21 -->
<g id="edge26" class="edge"><title>Node11&#45;&gt;Node21</title>
<path fill="none" stroke="#9a32cd" stroke-dasharray="5,2" d="M1043.24,-168.298C1070.12,-166.965 1099.63,-165.502 1125.75,-164.207"/>
<polygon fill="#9a32cd" stroke="#9a32cd" points="1042.9,-164.811 1033.08,-168.802 1043.24,-171.802 1042.9,-164.811"/>
<text text-anchor="middle" x="1079.5" y="-171.5" font-family="Helvetica,sans-Serif" font-size="10.00"> server_</text>
</g>
<!-- Node12 -->
<g id="node10" class="node"><title>Node12</title>
<polygon fill="white" stroke="#bfbfbf" points="610,-97.5 610,-127.5 737,-127.5 737,-97.5 610,-97.5"/>
<text text-anchor="start" x="618" y="-115.5" font-family="Helvetica,sans-Serif" font-size="10.00">std::unique_ptr&lt; boost</text>
<text text-anchor="middle" x="673.5" y="-104.5" font-family="Helvetica,sans-Serif" font-size="10.00">::asio::io_service::work &gt;</text>
</g>
<!-- Node12&#45;&gt;Node11 -->
<g id="edge9" class="edge"><title>Node12&#45;&gt;Node11</title>
<path fill="none" stroke="#9a32cd" stroke-dasharray="5,2" d="M747.13,-127.953C789.829,-137.038 843.564,-148.471 885.905,-157.48"/>
<polygon fill="#9a32cd" stroke="#9a32cd" points="747.594,-124.474 737.085,-125.816 746.138,-131.32 747.594,-124.474"/>
<text text-anchor="middle" x="816.5" y="-154.5" font-family="Helvetica,sans-Serif" font-size="10.00"> work_</text>
</g>
<!-- Node13&#45;&gt;Node11 -->
<g id="edge10" class="edge"><title>Node13&#45;&gt;Node11</title>
<path fill="none" stroke="#9a32cd" stroke-dasharray="5,2" d="M759.131,-21.0355C801.016,-25.0592 846.329,-31.7397 864,-42.5 909.425,-70.1598 938.744,-129.455 950.564,-157.374"/>
<polygon fill="#9a32cd" stroke="#9a32cd" points="759.418,-17.5472 749.14,-20.1182 758.778,-24.5179 759.418,-17.5472"/>
<text text-anchor="middle" x="816.5" y="-45.5" font-family="Helvetica,sans-Serif" font-size="10.00"> module_</text>
</g>
<!-- Node14&#45;&gt;Node13 -->
<g id="edge11" class="edge"><title>Node14&#45;&gt;Node13</title>
<path fill="none" stroke="midnightblue" d="M419.379,-38.8882C473.969,-33.8442 545.004,-27.2806 597.922,-22.391"/>
<polygon fill="midnightblue" stroke="midnightblue" points="419.021,-35.4063 409.385,-39.8116 419.665,-42.3766 419.021,-35.4063"/>
</g>
<!-- Node15 -->
<g id="node13" class="node"><title>Node15</title>
<polygon fill="white" stroke="#bfbfbf" points="143,-37 143,-56 181,-56 181,-37 143,-37"/>
<text text-anchor="middle" x="162" y="-44" font-family="Helvetica,sans-Serif" font-size="10.00">ptree</text>
</g>
<!-- Node15&#45;&gt;Node14 -->
<g id="edge13" class="edge"><title>Node15&#45;&gt;Node14</title>
<path fill="none" stroke="#9a32cd" stroke-dasharray="5,2" d="M191.098,-46.5C210.604,-46.5 237.532,-46.5 262.822,-46.5"/>
<polygon fill="#9a32cd" stroke="#9a32cd" points="191.082,-43.0001 181.082,-46.5 191.082,-50.0001 191.082,-43.0001"/>
<text text-anchor="middle" x="227.5" y="-49.5" font-family="Helvetica,sans-Serif" font-size="10.00"> config_</text>
</g>
<!-- Node16&#45;&gt;Node13 -->
<g id="edge14" class="edge"><title>Node16&#45;&gt;Node13</title>
<path fill="none" stroke="#9a32cd" stroke-dasharray="5,2" d="M1128.6,-32.687C1060.47,-30.0298 955.273,-25.9488 864,-22.5 826.167,-21.0704 784.084,-19.5127 749.204,-18.2304"/>
<polygon fill="#9a32cd" stroke="#9a32cd" points="1128.66,-36.192 1138.79,-33.0846 1128.93,-29.1973 1128.66,-36.192"/>
<text text-anchor="middle" x="957.5" y="-32.5" font-family="Helvetica,sans-Serif" font-size="10.00"> wssrv_</text>
</g>
<!-- Node17&#45;&gt;Node11 -->
<g id="edge17" class="edge"><title>Node17&#45;&gt;Node11</title>
<path fill="none" stroke="#9a32cd" stroke-dasharray="5,2" d="M563.719,-139.341C568.963,-135.536 573.845,-131.266 578,-126.5 593.521,-108.698 576.677,-90.0809 596,-76.5 652.361,-36.888 683.749,-61.5664 751,-76.5 821.348,-92.1215 896.131,-134.465 933.061,-157.344"/>
<polygon fill="#9a32cd" stroke="#9a32cd" points="561.652,-136.512 555.234,-144.942 565.508,-142.354 561.652,-136.512"/>
<text text-anchor="middle" x="673.5" y="-79.5" font-family="Helvetica,sans-Serif" font-size="10.00"> handlers_</text>
</g>
<!-- Node18&#45;&gt;Node11 -->
<g id="edge19" class="edge"><title>Node18&#45;&gt;Node11</title>
<path fill="none" stroke="#9a32cd" stroke-dasharray="5,2" d="M574.772,-383.39C655.406,-397.909 785.665,-406.789 864,-336.5 895.335,-308.383 861.804,-280.44 882,-243.5 894.599,-220.455 917.294,-200.465 934.335,-187.62"/>
<polygon fill="#9a32cd" stroke="#9a32cd" points="575.18,-379.906 564.706,-381.502 573.889,-386.786 575.18,-379.906"/>
<text text-anchor="middle" x="673.5" y="-396.5" font-family="Helvetica,sans-Serif" font-size="10.00"> individual_handlers_</text>
</g>
<!-- Node19&#45;&gt;Node11 -->
<g id="edge21" class="edge"><title>Node19&#45;&gt;Node11</title>
<path fill="none" stroke="#9a32cd" stroke-dasharray="5,2" d="M409.168,-272.332C512.214,-270.301 706.47,-259.795 864,-212.5 885.449,-206.06 908.574,-196.06 926.337,-187.67"/>
<polygon fill="#9a32cd" stroke="#9a32cd" points="408.816,-268.837 398.879,-272.512 408.939,-275.836 408.816,-268.837"/>
<text text-anchor="middle" x="673.5" y="-264.5" font-family="Helvetica,sans-Serif" font-size="10.00"> crud_handlers_</text>
</g>
<!-- Node20&#45;&gt;Node11 -->
<g id="edge23" class="edge"><title>Node20&#45;&gt;Node11</title>
<path fill="none" stroke="#9a32cd" stroke-dasharray="5,2" d="M405.311,-218.865C487.536,-219.812 629.702,-219.232 751,-207.5 795.308,-203.214 844.478,-194.967 883.61,-187.555"/>
<polygon fill="#9a32cd" stroke="#9a32cd" points="405.14,-215.363 395.096,-218.736 405.051,-222.362 405.14,-215.363"/>
<text text-anchor="middle" x="673.5" y="-220.5" font-family="Helvetica,sans-Serif" font-size="10.00"> asio_handlers_</text>
</g>
<!-- Node21&#45;&gt;Node11 -->
<g id="edge25" class="edge"><title>Node21&#45;&gt;Node11</title>
<path fill="none" stroke="#9a32cd" stroke-dasharray="5,2" d="M1118.87,-144.27C1096.79,-141.923 1072.94,-141.251 1051,-144.5 1033.57,-147.08 1014.88,-152.254 998.892,-157.46"/>
<polygon fill="#9a32cd" stroke="#9a32cd" points="1118.53,-147.754 1128.87,-145.458 1119.35,-140.803 1118.53,-147.754"/>
<text text-anchor="middle" x="1079.5" y="-147.5" font-family="Helvetica,sans-Serif" font-size="10.00"> auth_</text>
</g>
<!-- Node22 -->
<g id="node20" class="node"><title>Node22</title>
<polygon fill="white" stroke="#bfbfbf" points="596,-146.5 596,-198.5 751,-198.5 751,-146.5 596,-146.5"/>
<text text-anchor="start" x="604" y="-186.5" font-family="Helvetica,sans-Serif" font-size="10.00">std::map&lt; websocketpp</text>
<text text-anchor="start" x="604" y="-175.5" font-family="Helvetica,sans-Serif" font-size="10.00">::connection_hdl, APIPtr,</text>
<text text-anchor="start" x="604" y="-164.5" font-family="Helvetica,sans-Serif" font-size="10.00"> std::owner_less&lt; websocketpp</text>
<text text-anchor="middle" x="673.5" y="-153.5" font-family="Helvetica,sans-Serif" font-size="10.00">::connection_hdl &gt; &gt;</text>
</g>
<!-- Node22&#45;&gt;Node11 -->
<g id="edge27" class="edge"><title>Node22&#45;&gt;Node11</title>
<path fill="none" stroke="#9a32cd" stroke-dasharray="5,2" d="M761.352,-172.5C799.883,-172.5 844.774,-172.5 881.78,-172.5"/>
<polygon fill="#9a32cd" stroke="#9a32cd" points="761.185,-169 751.185,-172.5 761.185,-176 761.185,-169"/>
<text text-anchor="middle" x="816.5" y="-175.5" font-family="Helvetica,sans-Serif" font-size="10.00"> connection_session_</text>
</g>
</g>
</svg>
        <g id="navigator" transform="translate(0 0)" fill="#404254">
                <rect fill="#f2f5e9" fill-opacity="0.5" stroke="#606060" stroke-width=".5" x="0" y="0" width="60" height="60"/>
                <use id="zoomplus" xlink:href="#zoomPlus" x="17" y="9" onmousedown="handleZoom(evt,'in')"/>
                <use id="zoomminus" xlink:href="#zoomMin" x="42" y="9" onmousedown="handleZoom(evt,'out')"/>
                <use id="reset" xlink:href="#resetDef" x="30" y="36" onmousedown="handleReset()"/>
                <g id="arrowUp" xlink:href="#dirArrow" transform="translate(30 24)" onmousedown="handlePan(0,-1)">
                  <use xlink:href="#rim" fill="#404040">
                        <set attributeName="fill" to="#808080" begin="arrowUp.mouseover" end="arrowUp.mouseout"/>
                  </use>
                  <path fill="none" stroke="white" stroke-width="1.5" d="M0,-3.0v7 M-2.5,-0.5L0,-3.0L2.5,-0.5"/>
                </g>
                <g id="arrowRight" xlink:href="#dirArrow" transform="rotate(90) translate(36 -43)" onmousedown="handlePan(1,0)">
                  <use xlink:href="#rim" fill="#404040">
                        <set attributeName="fill" to="#808080" begin="arrowRight.mouseover" end="arrowRight.mouseout"/>
                  </use>
                  <path fill="none" stroke="white" stroke-width="1.5" d="M0,-3.0v7 M-2.5,-0.5L0,-3.0L2.5,-0.5"/>
                </g>
                <g id="arrowDown" xlink:href="#dirArrow" transform="rotate(180) translate(-30 -48)" onmousedown="handlePan(0,1)">
                  <use xlink:href="#rim" fill="#404040">
                        <set attributeName="fill" to="#808080" begin="arrowDown.mouseover" end="arrowDown.mouseout"/>
                  </use>
                  <path fill="none" stroke="white" stroke-width="1.5" d="M0,-3.0v7 M-2.5,-0.5L0,-3.0L2.5,-0.5"/>
                </g>
                <g id="arrowLeft" xlink:href="#dirArrow" transform="rotate(270) translate(-36 17)" onmousedown="handlePan(-1,0)">
                  <use xlink:href="#rim" fill="#404040">
                        <set attributeName="fill" to="#808080" begin="arrowLeft.mouseover" end="arrowLeft.mouseout"/>
                  </use>
                  <path fill="none" stroke="white" stroke-width="1.5" d="M0,-3.0v7 M-2.5,-0.5L0,-3.0L2.5,-0.5"/>
                </g>
        </g>
        <svg viewBox="0 0 15 15" width="100%" height="30px" preserveAspectRatio="xMaxYMin meet">
         <g id="arrow_out" transform="scale(0.3 0.3)">
          <a xlink:href="classLeosac_1_1Module_1_1WebSockAPI_1_1ZoneCRUD__coll__graph_org.svg" target="_base">
           <rect id="button" ry="5" rx="5" y="6" x="6" height="38" width="38"
                fill="#f2f5e9" fill-opacity="0.5" stroke="#606060" stroke-width="1.0"/>
           <path id="arrow"
             d="M 11.500037,31.436501 C 11.940474,20.09759 22.043105,11.32322 32.158766,21.979434 L 37.068811,17.246167 C 37.068811,17.246167 37.088388,32 37.088388,32 L 22.160133,31.978069 C 22.160133,31.978069 26.997745,27.140456 26.997745,27.140456 C 18.528582,18.264221 13.291696,25.230495 11.500037,31.436501 z"
             style="fill:#404040;"/>
          </a>
         </g>
        </svg>
</svg>
