<?xml version="1.0" encoding="UTF-8" standalone="no"?>
<!DOCTYPE svg PUBLIC "-//W3C//DTD SVG 1.1//EN"
 "http://www.w3.org/Graphics/SVG/1.1/DTD/svg11.dtd">
<!-- Generated by graphviz version 2.38.0 (20140413.2041)
 -->
<!-- Title: src/core/audit/serializers/GroupEventSerializer.hpp Pages: 1 -->
<svg width="312pt" height="106pt"
 viewBox="0.00 0.00 312.00 106.00" xmlns="http://www.w3.org/2000/svg" xmlns:xlink="http://www.w3.org/1999/xlink">
<g id="graph0" class="graph" transform="scale(1 1) rotate(0) translate(4 102)">
<title>src/core/audit/serializers/GroupEventSerializer.hpp</title>
<polygon fill="white" stroke="none" points="-4,4 -4,-102 308,-102 308,4 -4,4"/>
<!-- Node10 -->
<g id="node1" class="node"><title>Node10</title>
<polygon fill="#bfbfbf" stroke="black" points="80,-67.5 80,-97.5 211,-97.5 211,-67.5 80,-67.5"/>
<text text-anchor="start" x="88" y="-85.5" font-family="Helvetica,sans-Serif" font-size="10.00">src/core/audit/serializers</text>
<text text-anchor="middle" x="145.5" y="-74.5" font-family="Helvetica,sans-Serif" font-size="10.00">/GroupEventSerializer.hpp</text>
</g>
<!-- Node11 -->
<g id="node2" class="node"><title>Node11</title>
<g id="a_node2"><a xlink:href="../../d9/d44/GroupEventSerializer_8cpp.html" target="_top" xlink:title="src/core/audit/serializers\l/GroupEventSerializer.cpp">
<polygon fill="white" stroke="black" points="0,-0.5 0,-30.5 131,-30.5 131,-0.5 0,-0.5"/>
<text text-anchor="start" x="8" y="-18.5" font-family="Helvetica,sans-Serif" font-size="10.00">src/core/audit/serializers</text>
<text text-anchor="middle" x="65.5" y="-7.5" font-family="Helvetica,sans-Serif" font-size="10.00">/GroupEventSerializer.cpp</text>
</a>
</g>
</g>
<!-- Node10&#45;&gt;Node11 -->
<g id="edge1" class="edge"><title>Node10&#45;&gt;Node11</title>
<path fill="none" stroke="midnightblue" d="M120.125,-60.8832C107.968,-51.0054 93.7207,-39.4293 82.8249,-30.5765"/>
<polygon fill="midnightblue" stroke="midnightblue" points="118.173,-63.8064 128.141,-67.396 122.587,-58.3736 118.173,-63.8064"/>
</g>
<!-- Node12 -->
<g id="node3" class="node"><title>Node12</title>
<g id="a_node3"><a xlink:href="../../d5/dce/PolymorphicAuditSerializer_8cpp.html" target="_top" xlink:title="src/core/audit/serializers\l/PolymorphicAuditSerializer.cpp">
<polygon fill="white" stroke="black" points="149,-0.5 149,-30.5 304,-30.5 304,-0.5 149,-0.5"/>
<text text-anchor="start" x="157" y="-18.5" font-family="Helvetica,sans-Serif" font-size="10.00">src/core/audit/serializers</text>
<text text-anchor="middle" x="226.5" y="-7.5" font-family="Helvetica,sans-Serif" font-size="10.00">/PolymorphicAuditSerializer.cpp</text>
</a>
</g>
</g>
<!-- Node10&#45;&gt;Node12 -->
<g id="edge2" class="edge"><title>Node10&#45;&gt;Node12</title>
<path fill="none" stroke="midnightblue" d="M171.192,-60.8832C183.501,-51.0054 197.927,-39.4293 208.959,-30.5765"/>
<polygon fill="midnightblue" stroke="midnightblue" points="168.685,-58.4075 163.076,-67.396 173.066,-63.867 168.685,-58.4075"/>
</g>
</g>
</svg>
