<?xml version="1.0" encoding="UTF-8" standalone="no"?>
<!DOCTYPE svg PUBLIC "-//W3C//DTD SVG 1.1//EN"
 "http://www.w3.org/Graphics/SVG/1.1/DTD/svg11.dtd">
<!-- Generated by graphviz version 2.38.0 (20140413.2041)
 -->
<!-- Title: src/modules/instrumentation/init.cpp Pages: 1 -->
<!--zoomable 442 -->
<svg id="main" version="1.1" xmlns="http://www.w3.org/2000/svg" xmlns:xlink="http://www.w3.org/1999/xlink" xml:space="preserve" onload="init(evt)">
<style type="text/css"><![CDATA[
.edge:hover path { stroke: red; }
.edge:hover polygon { stroke: red; fill: red; }
]]></style>
<script type="text/javascript"><![CDATA[
var edges = document.getElementsByTagName('g');
if (edges && edges.length) {
  for (var i=0;i<edges.length;i++) {
    if (edges[i].id.substr(0,4)=='edge') {
      edges[i].setAttribute('class','edge');
    }
  }
}
]]></script>
        <defs>
                <circle id="rim" cx="0" cy="0" r="7"/>
                <circle id="rim2" cx="0" cy="0" r="3.5"/>
                <g id="zoomPlus">
                        <use xlink:href="#rim" fill="#404040">
                                <set attributeName="fill" to="#808080" begin="zoomplus.mouseover" end="zoomplus.mouseout"/>
                        </use>
                        <path d="M-4,0h8M0,-4v8" fill="none" stroke="white" stroke-width="1.5" pointer-events="none"/>
                </g>
                <g id="zoomMin">
                        <use xlink:href="#rim" fill="#404040">
                                <set attributeName="fill" to="#808080" begin="zoomminus.mouseover" end="zoomminus.mouseout"/>
                        </use>
                        <path d="M-4,0h8" fill="none" stroke="white" stroke-width="1.5" pointer-events="none"/>
                </g>
                <g id="dirArrow">
                        <path fill="none" stroke="white" stroke-width="1.5" d="M0,-3.0v7 M-2.5,-0.5L0,-3.0L2.5,-0.5"/>
                </g>
               <g id="resetDef">
                       <use xlink:href="#rim2" fill="#404040">
                               <set attributeName="fill" to="#808080" begin="reset.mouseover" end="reset.mouseout"/>
                       </use>
               </g>
        </defs>

<script type="text/javascript">
var viewWidth = 2121;
var viewHeight = 442;
var sectionId = 'dynsection-0';
</script>
<script xlink:href="../../svgpan.js"/>
<svg id="graph" class="graph">
<g id="viewport">
<title>src/modules/instrumentation/init.cpp</title>
<polygon fill="white" stroke="none" points="-4,4 -4,-438 2116.58,-438 2116.58,4 -4,4"/>
<!-- Node0 -->
<g id="node1" class="node"><title>Node0</title>
<polygon fill="#bfbfbf" stroke="black" points="833.579,-403.5 833.579,-433.5 973.579,-433.5 973.579,-403.5 833.579,-403.5"/>
<text text-anchor="start" x="841.579" y="-421.5" font-family="Helvetica,sans-Serif" font-size="10.00">src/modules/instrumentation</text>
<text text-anchor="middle" x="903.579" y="-410.5" font-family="Helvetica,sans-Serif" font-size="10.00">/init.cpp</text>
</g>
<!-- Node1 -->
<g id="node2" class="node"><title>Node1</title>
<g id="a_node2"><a xlink:href="../../d3/d03/InstrumentationModule_8hpp.html" target="_top" xlink:title="InstrumentationModule.hpp">
<polygon fill="white" stroke="black" points="1116.58,-347.5 1116.58,-366.5 1250.58,-366.5 1250.58,-347.5 1116.58,-347.5"/>
<text text-anchor="middle" x="1183.58" y="-354.5" font-family="Helvetica,sans-Serif" font-size="10.00">InstrumentationModule.hpp</text>
</a>
</g>
</g>
<!-- Node0&#45;&gt;Node1 -->
<g id="edge1" class="edge"><title>Node0&#45;&gt;Node1</title>
<path fill="none" stroke="midnightblue" d="M969.581,-403.475C1019.79,-392.806 1087.81,-378.352 1133.57,-368.628"/>
<polygon fill="midnightblue" stroke="midnightblue" points="1134.5,-372.009 1143.55,-366.506 1133.04,-365.161 1134.5,-372.009"/>
</g>
<!-- Node26 -->
<g id="node27" class="node"><title>Node26</title>
<g id="a_node27"><a xlink:href="../../d4/d3d/log_8hpp.html" target="_top" xlink:title="tools/log.hpp">
<polygon fill="white" stroke="black" points="231.579,-174 231.579,-193 303.579,-193 303.579,-174 231.579,-174"/>
<text text-anchor="middle" x="267.579" y="-181" font-family="Helvetica,sans-Serif" font-size="10.00">tools/log.hpp</text>
</a>
</g>
</g>
<!-- Node0&#45;&gt;Node26 -->
<g id="edge66" class="edge"><title>Node0&#45;&gt;Node26</title>
<path fill="none" stroke="midnightblue" d="M865.227,-403.45C750.102,-361.273 408.811,-236.24 300.769,-196.659"/>
<polygon fill="midnightblue" stroke="midnightblue" points="301.651,-193.255 291.057,-193.101 299.243,-199.828 301.651,-193.255"/>
</g>
<!-- Node2 -->
<g id="node3" class="node"><title>Node2</title>
<g id="a_node3"><a xlink:href="../../d0/dc7/BaseModule_8hpp.html" target="_top" xlink:title="modules/BaseModule.hpp">
<polygon fill="white" stroke="black" points="1584.08,-291.5 1584.08,-310.5 1713.08,-310.5 1713.08,-291.5 1584.08,-291.5"/>
<text text-anchor="middle" x="1648.58" y="-298.5" font-family="Helvetica,sans-Serif" font-size="10.00">modules/BaseModule.hpp</text>
</a>
</g>
</g>
<!-- Node1&#45;&gt;Node2 -->
<g id="edge2" class="edge"><title>Node1&#45;&gt;Node2</title>
<path fill="none" stroke="midnightblue" d="M1250.7,-348.206C1336.43,-338.25 1484.36,-321.071 1573.67,-310.699"/>
<polygon fill="midnightblue" stroke="midnightblue" points="1574.2,-314.161 1583.73,-309.531 1573.39,-307.208 1574.2,-314.161"/>
</g>
<!-- Node3 -->
<g id="node4" class="node"><title>Node3</title>
<g id="a_node4"><a xlink:href="../../dc/d49/LeosacFwd_8hpp.html" target="_top" xlink:title="LeosacFwd.hpp">
<polygon fill="white" stroke="black" points="1898.58,-235.5 1898.58,-254.5 1984.58,-254.5 1984.58,-235.5 1898.58,-235.5"/>
<text text-anchor="middle" x="1941.58" y="-242.5" font-family="Helvetica,sans-Serif" font-size="10.00">LeosacFwd.hpp</text>
</a>
</g>
</g>
<!-- Node2&#45;&gt;Node3 -->
<g id="edge3" class="edge"><title>Node2&#45;&gt;Node3</title>
<path fill="none" stroke="midnightblue" d="M1695.01,-291.444C1747.57,-281.757 1833.05,-266.003 1888.29,-255.822"/>
<polygon fill="midnightblue" stroke="midnightblue" points="1889.04,-259.243 1898.24,-253.988 1887.77,-252.359 1889.04,-259.243"/>
</g>
<!-- Node6 -->
<g id="node7" class="node"><title>Node6</title>
<g id="a_node7"><a xlink:href="../../db/d33/ConfigChecker_8hpp.html" target="_top" xlink:title="core/config/ConfigChecker.hpp">
<polygon fill="white" stroke="black" points="1728.58,-235.5 1728.58,-254.5 1880.58,-254.5 1880.58,-235.5 1728.58,-235.5"/>
<text text-anchor="middle" x="1804.58" y="-242.5" font-family="Helvetica,sans-Serif" font-size="10.00">core/config/ConfigChecker.hpp</text>
</a>
</g>
</g>
<!-- Node2&#45;&gt;Node6 -->
<g id="edge6" class="edge"><title>Node2&#45;&gt;Node6</title>
<path fill="none" stroke="midnightblue" d="M1673.3,-291.444C1699.43,-282.399 1740.84,-268.064 1770.16,-257.916"/>
<polygon fill="midnightblue" stroke="midnightblue" points="1771.67,-261.095 1779.98,-254.516 1769.38,-254.48 1771.67,-261.095"/>
</g>
<!-- Node9 -->
<g id="node10" class="node"><title>Node9</title>
<g id="a_node10"><a xlink:href="../../db/d79/ConfigManager_8hpp.html" target="_top" xlink:title="core/config/ConfigManager.hpp">
<polygon fill="white" stroke="black" points="1520.58,-235.5 1520.58,-254.5 1672.58,-254.5 1672.58,-235.5 1520.58,-235.5"/>
<text text-anchor="middle" x="1596.58" y="-242.5" font-family="Helvetica,sans-Serif" font-size="10.00">core/config/ConfigManager.hpp</text>
</a>
</g>
</g>
<!-- Node2&#45;&gt;Node9 -->
<g id="edge9" class="edge"><title>Node2&#45;&gt;Node9</title>
<path fill="none" stroke="midnightblue" d="M1639.99,-291.083C1632.42,-283.22 1621.2,-271.569 1612.07,-262.081"/>
<polygon fill="midnightblue" stroke="midnightblue" points="1614.46,-259.527 1605.01,-254.751 1609.42,-264.382 1614.46,-259.527"/>
</g>
<!-- Node2&#45;&gt;Node26 -->
<g id="edge63" class="edge"><title>Node2&#45;&gt;Node26</title>
<path fill="none" stroke="midnightblue" d="M1583.82,-294.584C1345.34,-274.638 519.217,-205.546 314.001,-188.382"/>
<polygon fill="midnightblue" stroke="midnightblue" points="314.123,-184.881 303.866,-187.535 313.54,-191.856 314.123,-184.881"/>
</g>
<!-- Node31 -->
<g id="node32" class="node"><title>Node31</title>
<polygon fill="white" stroke="#bfbfbf" points="935.079,-168.5 935.079,-198.5 1036.08,-198.5 1036.08,-168.5 935.079,-168.5"/>
<text text-anchor="start" x="943.079" y="-186.5" font-family="Helvetica,sans-Serif" font-size="10.00">boost/property_tree</text>
<text text-anchor="middle" x="985.579" y="-175.5" font-family="Helvetica,sans-Serif" font-size="10.00">/ptree.hpp</text>
</g>
<!-- Node2&#45;&gt;Node31 -->
<g id="edge64" class="edge"><title>Node2&#45;&gt;Node31</title>
<path fill="none" stroke="midnightblue" d="M1588.29,-291.456C1481.06,-275.923 1250.02,-240.943 1046.36,-199.292"/>
<polygon fill="midnightblue" stroke="midnightblue" points="1046.87,-195.825 1036.37,-197.241 1045.46,-202.682 1046.87,-195.825"/>
</g>
<!-- Node32 -->
<g id="node33" class="node"><title>Node32</title>
<polygon fill="white" stroke="#bfbfbf" points="1668.08,-174 1668.08,-193 1765.08,-193 1765.08,-174 1668.08,-174"/>
<text text-anchor="middle" x="1716.58" y="-181" font-family="Helvetica,sans-Serif" font-size="10.00">zmqpp/zmqpp.hpp</text>
</g>
<!-- Node2&#45;&gt;Node32 -->
<g id="edge65" class="edge"><title>Node2&#45;&gt;Node32</title>
<path fill="none" stroke="midnightblue" d="M1655.62,-291.348C1662.64,-282.509 1673.52,-268.241 1681.58,-255 1691.98,-237.905 1701.94,-217.296 1708.55,-202.789"/>
<polygon fill="midnightblue" stroke="midnightblue" points="1711.85,-203.999 1712.74,-193.441 1705.46,-201.139 1711.85,-203.999"/>
</g>
<!-- Node33 -->
<g id="node34" class="node"><title>Node33</title>
<g id="a_node34"><a xlink:href="../../d1/d91/ThreadUtils_8hpp.html" target="_top" xlink:title="tools/ThreadUtils.hpp">
<polygon fill="white" stroke="black" points="2002.58,-235.5 2002.58,-254.5 2112.58,-254.5 2112.58,-235.5 2002.58,-235.5"/>
<text text-anchor="middle" x="2057.58" y="-242.5" font-family="Helvetica,sans-Serif" font-size="10.00">tools/ThreadUtils.hpp</text>
</a>
</g>
</g>
<!-- Node2&#45;&gt;Node33 -->
<g id="edge60" class="edge"><title>Node2&#45;&gt;Node33</title>
<path fill="none" stroke="midnightblue" d="M1713.14,-291.774C1780.31,-283.173 1888.82,-269.153 1992.42,-255.147"/>
<polygon fill="midnightblue" stroke="midnightblue" points="1992.99,-258.602 2002.43,-253.792 1992.05,-251.665 1992.99,-258.602"/>
</g>
<!-- Node4 -->
<g id="node5" class="node"><title>Node4</title>
<polygon fill="white" stroke="#bfbfbf" points="1836.58,-174 1836.58,-193 1888.58,-193 1888.58,-174 1836.58,-174"/>
<text text-anchor="middle" x="1862.58" y="-181" font-family="Helvetica,sans-Serif" font-size="10.00">memory</text>
</g>
<!-- Node3&#45;&gt;Node4 -->
<g id="edge4" class="edge"><title>Node3&#45;&gt;Node4</title>
<path fill="none" stroke="midnightblue" d="M1930.26,-235.475C1917.71,-226.02 1897.23,-210.596 1882.08,-199.187"/>
<polygon fill="midnightblue" stroke="midnightblue" points="1883.97,-196.23 1873.88,-193.009 1879.76,-201.821 1883.97,-196.23"/>
</g>
<!-- Node5 -->
<g id="node6" class="node"><title>Node5</title>
<polygon fill="white" stroke="#bfbfbf" points="1780.58,-56.5 1780.58,-75.5 1824.58,-75.5 1824.58,-56.5 1780.58,-56.5"/>
<text text-anchor="middle" x="1802.58" y="-63.5" font-family="Helvetica,sans-Serif" font-size="10.00">vector</text>
</g>
<!-- Node3&#45;&gt;Node5 -->
<g id="edge5" class="edge"><title>Node3&#45;&gt;Node5</title>
<path fill="none" stroke="midnightblue" d="M1947.3,-235.498C1956.36,-220.875 1971.79,-190.376 1959.58,-168 1933,-119.295 1871.75,-90.5627 1834.1,-76.8721"/>
<polygon fill="midnightblue" stroke="midnightblue" points="1835.2,-73.5512 1824.61,-73.5587 1832.9,-80.1598 1835.2,-73.5512"/>
</g>
<!-- Node7 -->
<g id="node8" class="node"><title>Node7</title>
<polygon fill="white" stroke="#bfbfbf" points="1783.08,-174 1783.08,-193 1818.08,-193 1818.08,-174 1783.08,-174"/>
<text text-anchor="middle" x="1800.58" y="-181" font-family="Helvetica,sans-Serif" font-size="10.00">map</text>
</g>
<!-- Node6&#45;&gt;Node7 -->
<g id="edge7" class="edge"><title>Node6&#45;&gt;Node7</title>
<path fill="none" stroke="midnightblue" d="M1804.01,-235.475C1803.44,-227.08 1802.56,-213.981 1801.83,-203.163"/>
<polygon fill="midnightblue" stroke="midnightblue" points="1805.31,-202.752 1801.15,-193.009 1798.33,-203.221 1805.31,-202.752"/>
</g>
<!-- Node8 -->
<g id="node9" class="node"><title>Node8</title>
<polygon fill="white" stroke="#bfbfbf" points="1906.58,-174 1906.58,-193 1950.58,-193 1950.58,-174 1906.58,-174"/>
<text text-anchor="middle" x="1928.58" y="-181" font-family="Helvetica,sans-Serif" font-size="10.00">mutex</text>
</g>
<!-- Node6&#45;&gt;Node8 -->
<g id="edge8" class="edge"><title>Node6&#45;&gt;Node8</title>
<path fill="none" stroke="midnightblue" d="M1822.35,-235.475C1843.06,-225.534 1877.53,-208.995 1901.57,-197.461"/>
<polygon fill="midnightblue" stroke="midnightblue" points="1903.34,-200.491 1910.85,-193.009 1900.32,-194.18 1903.34,-200.491"/>
</g>
<!-- Node9&#45;&gt;Node4 -->
<g id="edge56" class="edge"><title>Node9&#45;&gt;Node4</title>
<path fill="none" stroke="midnightblue" d="M1656.42,-235.486C1703.28,-228.055 1769.82,-215.818 1826.58,-199 1829.01,-198.28 1831.5,-197.458 1833.99,-196.58"/>
<polygon fill="midnightblue" stroke="midnightblue" points="1835.28,-199.834 1843.39,-193.013 1832.8,-193.289 1835.28,-199.834"/>
</g>
<!-- Node9&#45;&gt;Node5 -->
<g id="edge58" class="edge"><title>Node9&#45;&gt;Node5</title>
<path fill="none" stroke="midnightblue" d="M1601.36,-235.362C1610.47,-219.688 1631.81,-186.475 1658.58,-168 1700.22,-139.259 1727.67,-164.338 1766.58,-132 1781.27,-119.793 1791.01,-99.9627 1796.61,-85.4111"/>
<polygon fill="midnightblue" stroke="midnightblue" points="1799.93,-86.5274 1799.97,-75.9326 1793.33,-84.1889 1799.93,-86.5274"/>
</g>
<!-- Node9&#45;&gt;Node7 -->
<g id="edge55" class="edge"><title>Node9&#45;&gt;Node7</title>
<path fill="none" stroke="midnightblue" d="M1643.01,-235.432C1679.28,-227.972 1730.58,-215.721 1773.58,-199 1774.62,-198.595 1775.67,-198.159 1776.73,-197.699"/>
<polygon fill="midnightblue" stroke="midnightblue" points="1778.59,-200.685 1786.03,-193.147 1775.51,-194.397 1778.59,-200.685"/>
</g>
<!-- Node10 -->
<g id="node11" class="node"><title>Node10</title>
<g id="a_node11"><a xlink:href="../../d1/ddd/leosacexception_8hpp.html" target="_top" xlink:title="Exception class for LEOSAC Project related errors. ">
<polygon fill="white" stroke="black" points="1054.08,-174 1054.08,-193 1205.08,-193 1205.08,-174 1054.08,-174"/>
<text text-anchor="middle" x="1129.58" y="-181" font-family="Helvetica,sans-Serif" font-size="10.00">exception/leosacexception.hpp</text>
</a>
</g>
</g>
<!-- Node9&#45;&gt;Node10 -->
<g id="edge10" class="edge"><title>Node9&#45;&gt;Node10</title>
<path fill="none" stroke="midnightblue" d="M1529.67,-235.475C1444.19,-224.584 1296.55,-205.774 1206.51,-194.302"/>
<polygon fill="midnightblue" stroke="midnightblue" points="1206.73,-190.801 1196.37,-193.009 1205.84,-197.745 1206.73,-190.801"/>
</g>
<!-- Node12 -->
<g id="node13" class="node"><title>Node12</title>
<polygon fill="white" stroke="#bfbfbf" points="986.079,-0.5 986.079,-19.5 1027.08,-19.5 1027.08,-0.5 986.079,-0.5"/>
<text text-anchor="middle" x="1006.58" y="-7.5" font-family="Helvetica,sans-Serif" font-size="10.00">string</text>
</g>
<!-- Node9&#45;&gt;Node12 -->
<g id="edge57" class="edge"><title>Node9&#45;&gt;Node12</title>
<path fill="none" stroke="midnightblue" d="M1597.22,-235.406C1598.84,-219.801 1604.46,-186.699 1623.58,-168 1662.52,-129.921 1768.08,-153.3 1732.58,-112 1686.33,-58.2068 1169.85,-21.4972 1037.39,-12.9225"/>
<polygon fill="midnightblue" stroke="midnightblue" points="1037.35,-9.41295 1027.15,-12.2663 1036.9,-16.3986 1037.35,-9.41295"/>
</g>
<!-- Node9&#45;&gt;Node26 -->
<g id="edge47" class="edge"><title>Node9&#45;&gt;Node26</title>
<path fill="none" stroke="midnightblue" d="M1520.35,-240.587C1275.01,-229.603 510.398,-195.371 313.958,-186.576"/>
<polygon fill="midnightblue" stroke="midnightblue" points="313.845,-183.068 303.699,-186.117 313.532,-190.061 313.845,-183.068"/>
</g>
<!-- Node9&#45;&gt;Node31 -->
<g id="edge54" class="edge"><title>Node9&#45;&gt;Node31</title>
<path fill="none" stroke="midnightblue" d="M1520.22,-241.627C1415.3,-237.509 1220.63,-226.805 1046.44,-199.146"/>
<polygon fill="midnightblue" stroke="midnightblue" points="1046.75,-195.651 1036.32,-197.516 1045.64,-202.562 1046.75,-195.651"/>
</g>
<!-- Node9&#45;&gt;Node32 -->
<g id="edge59" class="edge"><title>Node9&#45;&gt;Node32</title>
<path fill="none" stroke="midnightblue" d="M1613.77,-235.475C1633.82,-225.534 1667.18,-208.995 1690.44,-197.461"/>
<polygon fill="midnightblue" stroke="midnightblue" points="1692.01,-200.587 1699.42,-193.009 1688.9,-194.316 1692.01,-200.587"/>
</g>
<!-- Node11 -->
<g id="node12" class="node"><title>Node11</title>
<g id="a_node12"><a xlink:href="../../d6/d2f/Stacktrace_8hpp.html" target="_top" xlink:title="tools/Stacktrace.hpp">
<polygon fill="white" stroke="black" points="1617.08,-112.5 1617.08,-131.5 1724.08,-131.5 1724.08,-112.5 1617.08,-112.5"/>
<text text-anchor="middle" x="1670.58" y="-119.5" font-family="Helvetica,sans-Serif" font-size="10.00">tools/Stacktrace.hpp</text>
</a>
</g>
</g>
<!-- Node10&#45;&gt;Node11 -->
<g id="edge11" class="edge"><title>Node10&#45;&gt;Node11</title>
<path fill="none" stroke="midnightblue" d="M1205.43,-175.352C1297.66,-166.465 1458.34,-150.359 1606.77,-132.058"/>
<polygon fill="midnightblue" stroke="midnightblue" points="1607.49,-135.496 1616.98,-130.793 1606.63,-128.549 1607.49,-135.496"/>
</g>
<!-- Node10&#45;&gt;Node12 -->
<g id="edge16" class="edge"><title>Node10&#45;&gt;Node12</title>
<path fill="none" stroke="midnightblue" d="M1082.45,-173.945C1070.15,-171.853 1056.88,-169.723 1044.58,-168 971.962,-157.83 765.519,-186.605 716.579,-132 639.693,-46.2131 886.967,-19.6227 975.936,-12.9402"/>
<polygon fill="midnightblue" stroke="midnightblue" points="976.245,-16.4272 985.969,-12.2213 975.744,-9.44506 976.245,-16.4272"/>
</g>
<!-- Node13 -->
<g id="node14" class="node"><title>Node13</title>
<polygon fill="white" stroke="#bfbfbf" points="1431.08,-112.5 1431.08,-131.5 1480.08,-131.5 1480.08,-112.5 1431.08,-112.5"/>
<text text-anchor="middle" x="1455.58" y="-119.5" font-family="Helvetica,sans-Serif" font-size="10.00">cstddef</text>
</g>
<!-- Node10&#45;&gt;Node13 -->
<g id="edge14" class="edge"><title>Node10&#45;&gt;Node13</title>
<path fill="none" stroke="midnightblue" d="M1187.77,-173.973C1244.71,-165.281 1334.1,-150.721 1420.75,-132.019"/>
<polygon fill="midnightblue" stroke="midnightblue" points="1421.73,-135.388 1430.76,-129.839 1420.24,-128.549 1421.73,-135.388"/>
</g>
<!-- Node14 -->
<g id="node15" class="node"><title>Node14</title>
<polygon fill="white" stroke="#bfbfbf" points="489.079,-112.5 489.079,-131.5 548.079,-131.5 548.079,-112.5 489.079,-112.5"/>
<text text-anchor="middle" x="518.579" y="-119.5" font-family="Helvetica,sans-Serif" font-size="10.00">exception</text>
</g>
<!-- Node10&#45;&gt;Node14 -->
<g id="edge15" class="edge"><title>Node10&#45;&gt;Node14</title>
<path fill="none" stroke="midnightblue" d="M1084.26,-173.946C1071.47,-171.755 1057.51,-169.576 1044.58,-168 831.967,-142.083 773.282,-164.466 558.382,-132.06"/>
<polygon fill="midnightblue" stroke="midnightblue" points="558.776,-128.579 548.362,-130.526 557.718,-135.499 558.776,-128.579"/>
</g>
<!-- Node15 -->
<g id="node16" class="node"><title>Node15</title>
<g id="a_node16"><a xlink:href="../../d7/d7a/configexception_8hpp.html" target="_top" xlink:title="configexception.hpp">
<polygon fill="white" stroke="black" points="366.579,-112.5 366.579,-131.5 470.579,-131.5 470.579,-112.5 366.579,-112.5"/>
<text text-anchor="middle" x="418.579" y="-119.5" font-family="Helvetica,sans-Serif" font-size="10.00">configexception.hpp</text>
</a>
</g>
</g>
<!-- Node10&#45;&gt;Node15 -->
<g id="edge17" class="edge"><title>Node10&#45;&gt;Node15</title>
<path fill="none" stroke="midnightblue" d="M1076.08,-173.937C1062.8,-171.72 1048.66,-169.529 1035.58,-168 788.954,-139.188 722.555,-157.878 476.036,-132.54"/>
<polygon fill="midnightblue" stroke="midnightblue" points="476.367,-129.056 466.058,-131.501 475.642,-136.018 476.367,-129.056"/>
</g>
<!-- Node18 -->
<g id="node19" class="node"><title>Node18</title>
<g id="a_node19"><a xlink:href="../../d8/db0/coreexception_8hpp.html" target="_top" xlink:title="Exception class for Core related errors. ">
<polygon fill="white" stroke="black" points="839.579,-112.5 839.579,-131.5 935.579,-131.5 935.579,-112.5 839.579,-112.5"/>
<text text-anchor="middle" x="887.579" y="-119.5" font-family="Helvetica,sans-Serif" font-size="10.00">coreexception.hpp</text>
</a>
</g>
</g>
<!-- Node10&#45;&gt;Node18 -->
<g id="edge23" class="edge"><title>Node10&#45;&gt;Node18</title>
<path fill="none" stroke="midnightblue" d="M1090.01,-173.975C1044.94,-163.459 971.988,-145.562 926.995,-134.014"/>
<polygon fill="midnightblue" stroke="midnightblue" points="927.848,-130.62 917.291,-131.509 926.099,-137.398 927.848,-130.62"/>
</g>
<!-- Node19 -->
<g id="node20" class="node"><title>Node19</title>
<g id="a_node20"><a xlink:href="../../d8/d77/deviceexception_8hpp.html" target="_top" xlink:title="Exception class for Device related errors. ">
<polygon fill="white" stroke="black" points="953.579,-112.5 953.579,-131.5 1059.58,-131.5 1059.58,-112.5 953.579,-112.5"/>
<text text-anchor="middle" x="1006.58" y="-119.5" font-family="Helvetica,sans-Serif" font-size="10.00">deviceexception.hpp</text>
</a>
</g>
</g>
<!-- Node10&#45;&gt;Node19 -->
<g id="edge26" class="edge"><title>Node10&#45;&gt;Node19</title>
<path fill="none" stroke="midnightblue" d="M1107.06,-173.975C1084.54,-164.122 1050.5,-147.788 1028.28,-136.27"/>
<polygon fill="midnightblue" stroke="midnightblue" points="1029.75,-133.087 1019.27,-131.509 1026.48,-139.276 1029.75,-133.087"/>
</g>
<!-- Node20 -->
<g id="node21" class="node"><title>Node20</title>
<g id="a_node21"><a xlink:href="../../db/d35/dynlibexception_8hpp.html" target="_top" xlink:title="Exception class for DynLib related errors. ">
<polygon fill="white" stroke="black" points="1078.08,-112.5 1078.08,-131.5 1181.08,-131.5 1181.08,-112.5 1078.08,-112.5"/>
<text text-anchor="middle" x="1129.58" y="-119.5" font-family="Helvetica,sans-Serif" font-size="10.00">dynlibexception.hpp</text>
</a>
</g>
</g>
<!-- Node10&#45;&gt;Node20 -->
<g id="edge29" class="edge"><title>Node10&#45;&gt;Node20</title>
<path fill="none" stroke="midnightblue" d="M1124.68,-173.975C1122.85,-165.58 1122.38,-152.481 1123.26,-141.663"/>
<polygon fill="midnightblue" stroke="midnightblue" points="1126.77,-141.897 1124.68,-131.509 1119.83,-140.929 1126.77,-141.897"/>
</g>
<!-- Node21 -->
<g id="node22" class="node"><title>Node21</title>
<g id="a_node22"><a xlink:href="../../d0/d4e/fsexception_8hpp.html" target="_top" xlink:title="Exception class for filesystem related errors. ">
<polygon fill="white" stroke="black" points="1199.58,-112.5 1199.58,-131.5 1285.58,-131.5 1285.58,-112.5 1199.58,-112.5"/>
<text text-anchor="middle" x="1242.58" y="-119.5" font-family="Helvetica,sans-Serif" font-size="10.00">fsexception.hpp</text>
</a>
</g>
</g>
<!-- Node10&#45;&gt;Node21 -->
<g id="edge32" class="edge"><title>Node10&#45;&gt;Node21</title>
<path fill="none" stroke="midnightblue" d="M1140.87,-173.975C1157.58,-164.034 1188.73,-147.495 1212.28,-135.961"/>
<polygon fill="midnightblue" stroke="midnightblue" points="1214.03,-139.002 1221.52,-131.509 1210.99,-132.695 1214.03,-139.002"/>
</g>
<!-- Node22 -->
<g id="node23" class="node"><title>Node22</title>
<g id="a_node23"><a xlink:href="../../d1/d8e/gpioexception_8hpp.html" target="_top" xlink:title="Exception class for Gpio related errors. ">
<polygon fill="white" stroke="black" points="726.079,-112.5 726.079,-131.5 821.079,-131.5 821.079,-112.5 726.079,-112.5"/>
<text text-anchor="middle" x="773.579" y="-119.5" font-family="Helvetica,sans-Serif" font-size="10.00">gpioexception.hpp</text>
</a>
</g>
</g>
<!-- Node10&#45;&gt;Node22 -->
<g id="edge35" class="edge"><title>Node10&#45;&gt;Node22</title>
<path fill="none" stroke="midnightblue" d="M1070.94,-173.953C1059.17,-171.987 1046.95,-169.913 1035.58,-168 964.002,-155.952 881.751,-142.325 828.706,-133.254"/>
<polygon fill="midnightblue" stroke="midnightblue" points="829.272,-129.8 818.824,-131.559 828.088,-136.699 829.272,-129.8"/>
</g>
<!-- Node23 -->
<g id="node24" class="node"><title>Node23</title>
<g id="a_node24"><a xlink:href="../../d7/d8c/moduleexception_8hpp.html" target="_top" xlink:title="Exception class for modules. ">
<polygon fill="white" stroke="black" points="1304.08,-112.5 1304.08,-131.5 1413.08,-131.5 1413.08,-112.5 1304.08,-112.5"/>
<text text-anchor="middle" x="1358.58" y="-119.5" font-family="Helvetica,sans-Serif" font-size="10.00">moduleexception.hpp</text>
</a>
</g>
</g>
<!-- Node10&#45;&gt;Node23 -->
<g id="edge38" class="edge"><title>Node10&#45;&gt;Node23</title>
<path fill="none" stroke="midnightblue" d="M1157.49,-173.975C1195.75,-163.437 1264.68,-145.486 1311.1,-133.941"/>
<polygon fill="midnightblue" stroke="midnightblue" points="1312.07,-137.308 1320.93,-131.509 1310.39,-130.513 1312.07,-137.308"/>
</g>
<!-- Node24 -->
<g id="node25" class="node"><title>Node24</title>
<g id="a_node25"><a xlink:href="../../df/d8d/scriptexception_8hpp.html" target="_top" xlink:title="Exception class for Script related errors. ">
<polygon fill="white" stroke="black" points="1498.08,-112.5 1498.08,-131.5 1599.08,-131.5 1599.08,-112.5 1498.08,-112.5"/>
<text text-anchor="middle" x="1548.58" y="-119.5" font-family="Helvetica,sans-Serif" font-size="10.00">scriptexception.hpp</text>
</a>
</g>
</g>
<!-- Node10&#45;&gt;Node24 -->
<g id="edge41" class="edge"><title>Node10&#45;&gt;Node24</title>
<path fill="none" stroke="midnightblue" d="M1185.05,-173.959C1254.12,-164.052 1375.41,-147.14 1479.58,-132 1482.36,-131.595 1485.22,-131.177 1488.12,-130.752"/>
<polygon fill="midnightblue" stroke="midnightblue" points="1488.66,-134.21 1498.05,-129.295 1487.65,-127.284 1488.66,-134.21"/>
</g>
<!-- Node25 -->
<g id="node26" class="node"><title>Node25</title>
<g id="a_node26"><a xlink:href="../../dc/dce/signalexception_8hpp.html" target="_top" xlink:title="Exception class for Signal related errors. ">
<polygon fill="white" stroke="black" points="566.079,-112.5 566.079,-131.5 669.079,-131.5 669.079,-112.5 566.079,-112.5"/>
<text text-anchor="middle" x="617.579" y="-119.5" font-family="Helvetica,sans-Serif" font-size="10.00">signalexception.hpp</text>
</a>
</g>
</g>
<!-- Node10&#45;&gt;Node25 -->
<g id="edge44" class="edge"><title>Node10&#45;&gt;Node25</title>
<path fill="none" stroke="midnightblue" d="M1074.22,-173.937C1061.48,-171.822 1048.04,-169.682 1035.58,-168 879.065,-146.872 836.444,-150.724 679.367,-132.542"/>
<polygon fill="midnightblue" stroke="midnightblue" points="679.687,-129.056 669.348,-131.37 678.874,-136.008 679.687,-129.056"/>
</g>
<!-- Node11&#45;&gt;Node5 -->
<g id="edge13" class="edge"><title>Node11&#45;&gt;Node5</title>
<path fill="none" stroke="midnightblue" d="M1691.5,-112.444C1713.32,-103.517 1747.73,-89.4387 1772.47,-79.3168"/>
<polygon fill="midnightblue" stroke="midnightblue" points="1773.83,-82.5422 1781.76,-75.5164 1771.18,-76.0634 1773.83,-82.5422"/>
</g>
<!-- Node11&#45;&gt;Node12 -->
<g id="edge12" class="edge"><title>Node11&#45;&gt;Node12</title>
<path fill="none" stroke="midnightblue" d="M1622.15,-112.483C1550.13,-99.8639 1410.48,-75.5817 1291.58,-56 1199.1,-40.7691 1089.56,-23.7632 1037.3,-15.7135"/>
<polygon fill="midnightblue" stroke="midnightblue" points="1037.75,-12.2424 1027.34,-14.1808 1036.69,-19.1609 1037.75,-12.2424"/>
</g>
<!-- Node15&#45;&gt;Node10 -->
<g id="edge18" class="edge"><title>Node15&#45;&gt;Node10</title>
<path fill="none" stroke="midnightblue" d="M470.76,-129.835C476.793,-130.643 482.831,-131.394 488.579,-132 738.813,-158.386 803.659,-138.803 1053.58,-168 1063.29,-169.135 1073.58,-170.634 1083.37,-172.238"/>
<polygon fill="midnightblue" stroke="midnightblue" points="1082.9,-175.709 1093.35,-173.937 1084.08,-168.808 1082.9,-175.709"/>
</g>
<!-- Node15&#45;&gt;Node12 -->
<g id="edge22" class="edge"><title>Node15&#45;&gt;Node12</title>
<path fill="none" stroke="midnightblue" d="M444.715,-112.446C487.789,-98.6499 576.596,-71.471 653.579,-56 771.286,-32.3453 913.703,-18.6725 975.487,-13.4578"/>
<polygon fill="midnightblue" stroke="midnightblue" points="976.044,-16.9237 985.721,-12.6097 975.466,-9.94766 976.044,-16.9237"/>
</g>
<!-- Node16 -->
<g id="node17" class="node"><title>Node16</title>
<g id="a_node17"><a xlink:href="../../dd/d35/Colorize_8hpp.html" target="_top" xlink:title="tools/Colorize.hpp">
<polygon fill="white" stroke="black" points="371.079,-56.5 371.079,-75.5 466.079,-75.5 466.079,-56.5 371.079,-56.5"/>
<text text-anchor="middle" x="418.579" y="-63.5" font-family="Helvetica,sans-Serif" font-size="10.00">tools/Colorize.hpp</text>
</a>
</g>
</g>
<!-- Node15&#45;&gt;Node16 -->
<g id="edge19" class="edge"><title>Node15&#45;&gt;Node16</title>
<path fill="none" stroke="midnightblue" d="M418.579,-112.083C418.579,-105.006 418.579,-94.8611 418.579,-85.9865"/>
<polygon fill="midnightblue" stroke="midnightblue" points="422.08,-85.751 418.579,-75.7511 415.08,-85.7511 422.08,-85.751"/>
</g>
<!-- Node16&#45;&gt;Node12 -->
<g id="edge21" class="edge"><title>Node16&#45;&gt;Node12</title>
<path fill="none" stroke="midnightblue" d="M466.2,-60.6267C582.678,-49.9297 879.459,-22.6743 975.841,-13.8229"/>
<polygon fill="midnightblue" stroke="midnightblue" points="976.178,-17.3068 985.816,-12.9069 975.537,-10.3362 976.178,-17.3068"/>
</g>
<!-- Node17 -->
<g id="node18" class="node"><title>Node17</title>
<polygon fill="white" stroke="#bfbfbf" points="179.579,-0.5 179.579,-19.5 231.579,-19.5 231.579,-0.5 179.579,-0.5"/>
<text text-anchor="middle" x="205.579" y="-7.5" font-family="Helvetica,sans-Serif" font-size="10.00">sstream</text>
</g>
<!-- Node16&#45;&gt;Node17 -->
<g id="edge20" class="edge"><title>Node16&#45;&gt;Node17</title>
<path fill="none" stroke="midnightblue" d="M384.829,-56.4435C345.765,-46.54 281.687,-30.2949 241.66,-20.1471"/>
<polygon fill="midnightblue" stroke="midnightblue" points="242.339,-16.7087 231.786,-17.6439 240.619,-23.4941 242.339,-16.7087"/>
</g>
<!-- Node18&#45;&gt;Node10 -->
<g id="edge25" class="edge"><title>Node18&#45;&gt;Node10</title>
<path fill="none" stroke="midnightblue" d="M927.085,-131.509C972.12,-142.017 1045.08,-159.915 1090.1,-171.468"/>
<polygon fill="midnightblue" stroke="midnightblue" points="1089.25,-174.865 1099.81,-173.975 1091,-168.087 1089.25,-174.865"/>
</g>
<!-- Node18&#45;&gt;Node12 -->
<g id="edge24" class="edge"><title>Node18&#45;&gt;Node12</title>
<path fill="none" stroke="midnightblue" d="M896.917,-112.368C916.99,-93.8137 964.483,-49.9129 989.879,-26.4376"/>
<polygon fill="midnightblue" stroke="midnightblue" points="992.318,-28.9495 997.285,-19.5914 987.566,-23.8092 992.318,-28.9495"/>
</g>
<!-- Node19&#45;&gt;Node10 -->
<g id="edge28" class="edge"><title>Node19&#45;&gt;Node10</title>
<path fill="none" stroke="midnightblue" d="M1029.07,-131.509C1051.57,-141.355 1085.61,-157.688 1107.84,-169.212"/>
<polygon fill="midnightblue" stroke="midnightblue" points="1106.38,-172.398 1116.86,-173.975 1109.65,-166.209 1106.38,-172.398"/>
</g>
<!-- Node19&#45;&gt;Node12 -->
<g id="edge27" class="edge"><title>Node19&#45;&gt;Node12</title>
<path fill="none" stroke="midnightblue" d="M1006.58,-112.368C1006.58,-94.617 1006.58,-53.6664 1006.58,-29.5974"/>
<polygon fill="midnightblue" stroke="midnightblue" points="1010.08,-29.5914 1006.58,-19.5914 1003.08,-29.5915 1010.08,-29.5914"/>
</g>
<!-- Node20&#45;&gt;Node10 -->
<g id="edge31" class="edge"><title>Node20&#45;&gt;Node10</title>
<path fill="none" stroke="midnightblue" d="M1134.48,-131.509C1136.31,-139.898 1136.78,-152.996 1135.9,-163.817"/>
<polygon fill="midnightblue" stroke="midnightblue" points="1132.39,-163.588 1134.48,-173.975 1139.33,-164.554 1132.39,-163.588"/>
</g>
<!-- Node20&#45;&gt;Node12 -->
<g id="edge30" class="edge"><title>Node20&#45;&gt;Node12</title>
<path fill="none" stroke="midnightblue" d="M1119.93,-112.368C1099.18,-93.8137 1050.09,-49.9129 1023.84,-26.4376"/>
<polygon fill="midnightblue" stroke="midnightblue" points="1025.97,-23.6487 1016.19,-19.5914 1021.31,-28.8665 1025.97,-23.6487"/>
</g>
<!-- Node21&#45;&gt;Node10 -->
<g id="edge34" class="edge"><title>Node21&#45;&gt;Node10</title>
<path fill="none" stroke="midnightblue" d="M1231.32,-131.509C1214.62,-141.443 1183.48,-157.982 1159.92,-169.521"/>
<polygon fill="midnightblue" stroke="midnightblue" points="1158.16,-166.482 1150.67,-173.975 1161.2,-172.789 1158.16,-166.482"/>
</g>
<!-- Node21&#45;&gt;Node12 -->
<g id="edge33" class="edge"><title>Node21&#45;&gt;Node12</title>
<path fill="none" stroke="midnightblue" d="M1224.06,-112.368C1182.79,-93.131 1083.06,-46.6478 1034.32,-23.9314"/>
<polygon fill="midnightblue" stroke="midnightblue" points="1035.55,-20.6438 1025.01,-19.5914 1032.6,-26.9885 1035.55,-20.6438"/>
</g>
<!-- Node22&#45;&gt;Node10 -->
<g id="edge36" class="edge"><title>Node22&#45;&gt;Node10</title>
<path fill="none" stroke="midnightblue" d="M821.132,-129.805C877.06,-138.569 972.215,-154.305 1053.58,-168 1061.66,-169.36 1070.17,-170.802 1078.47,-172.228"/>
<polygon fill="midnightblue" stroke="midnightblue" points="1078,-175.698 1088.45,-173.953 1079.19,-168.8 1078,-175.698"/>
</g>
<!-- Node22&#45;&gt;Node12 -->
<g id="edge37" class="edge"><title>Node22&#45;&gt;Node12</title>
<path fill="none" stroke="midnightblue" d="M791.863,-112.368C832.611,-93.131 931.071,-46.6478 979.188,-23.9314"/>
<polygon fill="midnightblue" stroke="midnightblue" points="980.833,-27.0257 988.381,-19.5914 977.844,-20.6956 980.833,-27.0257"/>
</g>
<!-- Node23&#45;&gt;Node10 -->
<g id="edge40" class="edge"><title>Node23&#45;&gt;Node10</title>
<path fill="none" stroke="midnightblue" d="M1330.73,-131.509C1292.5,-142.039 1223.57,-159.99 1177.13,-171.541"/>
<polygon fill="midnightblue" stroke="midnightblue" points="1176.16,-168.176 1167.29,-173.975 1177.84,-174.971 1176.16,-168.176"/>
</g>
<!-- Node23&#45;&gt;Node12 -->
<g id="edge39" class="edge"><title>Node23&#45;&gt;Node12</title>
<path fill="none" stroke="midnightblue" d="M1331.25,-112.46C1266.57,-92.2462 1104.46,-41.5879 1036.89,-20.4722"/>
<polygon fill="midnightblue" stroke="midnightblue" points="1037.85,-17.1041 1027.26,-17.4619 1035.76,-23.7854 1037.85,-17.1041"/>
</g>
<!-- Node24&#45;&gt;Node10 -->
<g id="edge43" class="edge"><title>Node24&#45;&gt;Node10</title>
<path fill="none" stroke="midnightblue" d="M1500.73,-131.54C1499.67,-131.695 1498.62,-131.849 1497.58,-132 1398.09,-146.459 1282.98,-162.536 1208.3,-172.582"/>
<polygon fill="midnightblue" stroke="midnightblue" points="1207.48,-169.16 1198.03,-173.959 1208.41,-176.098 1207.48,-169.16"/>
</g>
<!-- Node24&#45;&gt;Node12 -->
<g id="edge42" class="edge"><title>Node24&#45;&gt;Node12</title>
<path fill="none" stroke="midnightblue" d="M1506.5,-112.46C1401.35,-91.1197 1129.01,-35.8466 1037.26,-17.2273"/>
<polygon fill="midnightblue" stroke="midnightblue" points="1037.73,-13.7514 1027.24,-15.1925 1036.34,-20.6116 1037.73,-13.7514"/>
</g>
<!-- Node25&#45;&gt;Node10 -->
<g id="edge46" class="edge"><title>Node25&#45;&gt;Node10</title>
<path fill="none" stroke="midnightblue" d="M669.362,-129.083C677.185,-130.105 685.114,-131.119 692.579,-132 852.709,-150.896 893.789,-146.43 1053.58,-168 1062.73,-169.235 1072.41,-170.717 1081.7,-172.255"/>
<polygon fill="midnightblue" stroke="midnightblue" points="1081.14,-175.711 1091.59,-173.937 1082.32,-168.81 1081.14,-175.711"/>
</g>
<!-- Node25&#45;&gt;Node12 -->
<g id="edge45" class="edge"><title>Node25&#45;&gt;Node12</title>
<path fill="none" stroke="midnightblue" d="M623.667,-112.045C634.067,-97.5475 656.751,-69.2288 683.579,-56 734.778,-30.7548 905.726,-17.3599 976.007,-12.8101"/>
<polygon fill="midnightblue" stroke="midnightblue" points="976.245,-16.3021 986.005,-12.1789 975.804,-9.31602 976.245,-16.3021"/>
</g>
<!-- Node26&#45;&gt;Node12 -->
<g id="edge53" class="edge"><title>Node26&#45;&gt;Node12</title>
<path fill="none" stroke="midnightblue" d="M277.797,-173.912C288.73,-164.395 306.17,-148.236 318.579,-132 342.147,-101.166 328.755,-76.7065 361.579,-56 413.937,-22.9714 854.98,-13.4507 975.981,-11.4489"/>
<polygon fill="midnightblue" stroke="midnightblue" points="976.1,-14.9475 986.043,-11.2878 975.988,-7.94844 976.1,-14.9475"/>
</g>
<!-- Node26&#45;&gt;Node17 -->
<g id="edge52" class="edge"><title>Node26&#45;&gt;Node17</title>
<path fill="none" stroke="midnightblue" d="M231.372,-180.858C167.311,-177.111 38.1309,-165.492 10.5795,-132 -38.7752,-72.0034 100.186,-33.2043 169.223,-18.1187"/>
<polygon fill="midnightblue" stroke="midnightblue" points="170.214,-21.4863 179.267,-15.9832 168.758,-14.6394 170.214,-21.4863"/>
</g>
<!-- Node27 -->
<g id="node28" class="node"><title>Node27</title>
<polygon fill="white" stroke="#bfbfbf" points="20.0795,-112.5 20.0795,-131.5 69.0795,-131.5 69.0795,-112.5 20.0795,-112.5"/>
<text text-anchor="middle" x="44.5795" y="-119.5" font-family="Helvetica,sans-Serif" font-size="10.00">cassert</text>
</g>
<!-- Node26&#45;&gt;Node27 -->
<g id="edge48" class="edge"><title>Node26&#45;&gt;Node27</title>
<path fill="none" stroke="midnightblue" d="M235.289,-173.986C199.392,-164.505 139.433,-148.626 78.814,-132.321"/>
<polygon fill="midnightblue" stroke="midnightblue" points="79.6491,-128.921 69.083,-129.702 77.8295,-135.681 79.6491,-128.921"/>
</g>
<!-- Node28 -->
<g id="node29" class="node"><title>Node28</title>
<polygon fill="white" stroke="#bfbfbf" points="87.0795,-112.5 87.0795,-131.5 134.079,-131.5 134.079,-112.5 87.0795,-112.5"/>
<text text-anchor="middle" x="110.579" y="-119.5" font-family="Helvetica,sans-Serif" font-size="10.00">csignal</text>
</g>
<!-- Node26&#45;&gt;Node28 -->
<g id="edge49" class="edge"><title>Node26&#45;&gt;Node28</title>
<path fill="none" stroke="midnightblue" d="M245.085,-173.975C218.271,-163.813 173.264,-146.756 142.77,-135.2"/>
<polygon fill="midnightblue" stroke="midnightblue" points="143.623,-131.78 133.032,-131.509 141.143,-138.326 143.623,-131.78"/>
</g>
<!-- Node29 -->
<g id="node30" class="node"><title>Node29</title>
<polygon fill="white" stroke="#bfbfbf" points="152.579,-112.5 152.579,-131.5 206.579,-131.5 206.579,-112.5 152.579,-112.5"/>
<text text-anchor="middle" x="179.579" y="-119.5" font-family="Helvetica,sans-Serif" font-size="10.00">iostream</text>
</g>
<!-- Node26&#45;&gt;Node29 -->
<g id="edge50" class="edge"><title>Node26&#45;&gt;Node29</title>
<path fill="none" stroke="midnightblue" d="M254.971,-173.975C240.856,-164.431 217.748,-148.807 200.83,-137.368"/>
<polygon fill="midnightblue" stroke="midnightblue" points="202.409,-134.211 192.164,-131.509 198.488,-140.01 202.409,-134.211"/>
</g>
<!-- Node30 -->
<g id="node31" class="node"><title>Node30</title>
<polygon fill="white" stroke="#bfbfbf" points="225.079,-112.5 225.079,-131.5 310.079,-131.5 310.079,-112.5 225.079,-112.5"/>
<text text-anchor="middle" x="267.579" y="-119.5" font-family="Helvetica,sans-Serif" font-size="10.00">spdlog/spdlog.h</text>
</g>
<!-- Node26&#45;&gt;Node30 -->
<g id="edge51" class="edge"><title>Node26&#45;&gt;Node30</title>
<path fill="none" stroke="midnightblue" d="M267.579,-173.975C267.579,-165.58 267.579,-152.481 267.579,-141.663"/>
<polygon fill="midnightblue" stroke="midnightblue" points="271.08,-141.509 267.579,-131.509 264.08,-141.509 271.08,-141.509"/>
</g>
<!-- Node33&#45;&gt;Node12 -->
<g id="edge62" class="edge"><title>Node33&#45;&gt;Node12</title>
<path fill="none" stroke="midnightblue" d="M2051.58,-235.31C2028.36,-202.607 1940.3,-87.2155 1833.58,-56 1680.05,-11.0913 1168.7,-10.2531 1037.48,-10.8029"/>
<polygon fill="midnightblue" stroke="midnightblue" points="1037.31,-7.30359 1027.33,-10.8516 1037.35,-14.3035 1037.31,-7.30359"/>
</g>
<!-- Node34 -->
<g id="node35" class="node"><title>Node34</title>
<polygon fill="white" stroke="#bfbfbf" points="2044.58,-174 2044.58,-193 2090.58,-193 2090.58,-174 2044.58,-174"/>
<text text-anchor="middle" x="2067.58" y="-181" font-family="Helvetica,sans-Serif" font-size="10.00">cstdint</text>
</g>
<!-- Node33&#45;&gt;Node34 -->
<g id="edge61" class="edge"><title>Node33&#45;&gt;Node34</title>
<path fill="none" stroke="midnightblue" d="M2059.01,-235.475C2060.42,-227.08 2062.62,-213.981 2064.44,-203.163"/>
<polygon fill="midnightblue" stroke="midnightblue" points="2067.94,-203.451 2066.15,-193.009 2061.04,-202.291 2067.94,-203.451"/>
</g>
</g>
</svg>
        <g id="navigator" transform="translate(0 0)" fill="#404254">
                <rect fill="#f2f5e9" fill-opacity="0.5" stroke="#606060" stroke-width=".5" x="0" y="0" width="60" height="60"/>
                <use id="zoomplus" xlink:href="#zoomPlus" x="17" y="9" onmousedown="handleZoom(evt,'in')"/>
                <use id="zoomminus" xlink:href="#zoomMin" x="42" y="9" onmousedown="handleZoom(evt,'out')"/>
                <use id="reset" xlink:href="#resetDef" x="30" y="36" onmousedown="handleReset()"/>
                <g id="arrowUp" xlink:href="#dirArrow" transform="translate(30 24)" onmousedown="handlePan(0,-1)">
                  <use xlink:href="#rim" fill="#404040">
                        <set attributeName="fill" to="#808080" begin="arrowUp.mouseover" end="arrowUp.mouseout"/>
                  </use>
                  <path fill="none" stroke="white" stroke-width="1.5" d="M0,-3.0v7 M-2.5,-0.5L0,-3.0L2.5,-0.5"/>
                </g>
                <g id="arrowRight" xlink:href="#dirArrow" transform="rotate(90) translate(36 -43)" onmousedown="handlePan(1,0)">
                  <use xlink:href="#rim" fill="#404040">
                        <set attributeName="fill" to="#808080" begin="arrowRight.mouseover" end="arrowRight.mouseout"/>
                  </use>
                  <path fill="none" stroke="white" stroke-width="1.5" d="M0,-3.0v7 M-2.5,-0.5L0,-3.0L2.5,-0.5"/>
                </g>
                <g id="arrowDown" xlink:href="#dirArrow" transform="rotate(180) translate(-30 -48)" onmousedown="handlePan(0,1)">
                  <use xlink:href="#rim" fill="#404040">
                        <set attributeName="fill" to="#808080" begin="arrowDown.mouseover" end="arrowDown.mouseout"/>
                  </use>
                  <path fill="none" stroke="white" stroke-width="1.5" d="M0,-3.0v7 M-2.5,-0.5L0,-3.0L2.5,-0.5"/>
                </g>
                <g id="arrowLeft" xlink:href="#dirArrow" transform="rotate(270) translate(-36 17)" onmousedown="handlePan(-1,0)">
                  <use xlink:href="#rim" fill="#404040">
                        <set attributeName="fill" to="#808080" begin="arrowLeft.mouseover" end="arrowLeft.mouseout"/>
                  </use>
                  <path fill="none" stroke="white" stroke-width="1.5" d="M0,-3.0v7 M-2.5,-0.5L0,-3.0L2.5,-0.5"/>
                </g>
        </g>
        <svg viewBox="0 0 15 15" width="100%" height="30px" preserveAspectRatio="xMaxYMin meet">
         <g id="arrow_out" transform="scale(0.3 0.3)">
          <a xlink:href="instrumentation_2init_8cpp__incl_org.svg" target="_base">
           <rect id="button" ry="5" rx="5" y="6" x="6" height="38" width="38"
                fill="#f2f5e9" fill-opacity="0.5" stroke="#606060" stroke-width="1.0"/>
           <path id="arrow"
             d="M 11.500037,31.436501 C 11.940474,20.09759 22.043105,11.32322 32.158766,21.979434 L 37.068811,17.246167 C 37.068811,17.246167 37.088388,32 37.088388,32 L 22.160133,31.978069 C 22.160133,31.978069 26.997745,27.140456 26.997745,27.140456 C 18.528582,18.264221 13.291696,25.230495 11.500037,31.436501 z"
             style="fill:#404040;"/>
          </a>
         </g>
        </svg>
</svg>
