<?xml version="1.0" encoding="UTF-8" standalone="no"?>
<!DOCTYPE svg PUBLIC "-//W3C//DTD SVG 1.1//EN"
 "http://www.w3.org/Graphics/SVG/1.1/DTD/svg11.dtd">
<!-- Generated by graphviz version 2.38.0 (20140413.2041)
 -->
<!-- Title: src/tools/db/AuditEventMaskODB.hpp Pages: 1 -->
<svg width="571pt" height="151pt"
 viewBox="0.00 0.00 570.50 151.00" xmlns="http://www.w3.org/2000/svg" xmlns:xlink="http://www.w3.org/1999/xlink">
<g id="graph0" class="graph" transform="scale(1 1) rotate(0) translate(4 147)">
<title>src/tools/db/AuditEventMaskODB.hpp</title>
<polygon fill="white" stroke="none" points="-4,4 -4,-147 566.5,-147 566.5,4 -4,4"/>
<!-- Node0 -->
<g id="node1" class="node"><title>Node0</title>
<polygon fill="#bfbfbf" stroke="black" points="257,-112.5 257,-142.5 400,-142.5 400,-112.5 257,-112.5"/>
<text text-anchor="start" x="265" y="-130.5" font-family="Helvetica,sans-Serif" font-size="10.00">src/tools/db/AuditEventMask</text>
<text text-anchor="middle" x="328.5" y="-119.5" font-family="Helvetica,sans-Serif" font-size="10.00">ODB.hpp</text>
</g>
<!-- Node1 -->
<g id="node2" class="node"><title>Node1</title>
<g id="a_node2"><a xlink:href="../../d7/dcf/AuditFwd_8hpp.html" target="_top" xlink:title="core/audit/AuditFwd.hpp">
<polygon fill="white" stroke="black" points="76.5,-56.5 76.5,-75.5 198.5,-75.5 198.5,-56.5 76.5,-56.5"/>
<text text-anchor="middle" x="137.5" y="-63.5" font-family="Helvetica,sans-Serif" font-size="10.00">core/audit/AuditFwd.hpp</text>
</a>
</g>
</g>
<!-- Node0&#45;&gt;Node1 -->
<g id="edge1" class="edge"><title>Node0&#45;&gt;Node1</title>
<path fill="none" stroke="midnightblue" d="M283.236,-112.399C250.088,-102.073 205.653,-88.2309 174.596,-78.5559"/>
<polygon fill="midnightblue" stroke="midnightblue" points="175.602,-75.2036 165.013,-75.5709 173.52,-81.8868 175.602,-75.2036"/>
</g>
<!-- Node6 -->
<g id="node7" class="node"><title>Node6</title>
<polygon fill="white" stroke="#bfbfbf" points="216.5,-56.5 216.5,-75.5 318.5,-75.5 318.5,-56.5 216.5,-56.5"/>
<text text-anchor="middle" x="267.5" y="-63.5" font-family="Helvetica,sans-Serif" font-size="10.00">odb/pgsql/traits.hxx</text>
</g>
<!-- Node0&#45;&gt;Node6 -->
<g id="edge6" class="edge"><title>Node0&#45;&gt;Node6</title>
<path fill="none" stroke="midnightblue" d="M314.044,-112.399C304.906,-103.486 293.081,-91.9523 283.638,-82.7408"/>
<polygon fill="midnightblue" stroke="midnightblue" points="285.978,-80.1348 276.376,-75.6578 281.091,-85.1458 285.978,-80.1348"/>
</g>
<!-- Node7 -->
<g id="node8" class="node"><title>Node7</title>
<polygon fill="white" stroke="#bfbfbf" points="337,-56.5 337,-75.5 442,-75.5 442,-56.5 337,-56.5"/>
<text text-anchor="middle" x="389.5" y="-63.5" font-family="Helvetica,sans-Serif" font-size="10.00">odb/mysql/traits.hxx</text>
</g>
<!-- Node0&#45;&gt;Node7 -->
<g id="edge7" class="edge"><title>Node0&#45;&gt;Node7</title>
<path fill="none" stroke="midnightblue" d="M342.956,-112.399C352.094,-103.486 363.919,-91.9523 373.362,-82.7408"/>
<polygon fill="midnightblue" stroke="midnightblue" points="375.909,-85.1458 380.624,-75.6578 371.022,-80.1348 375.909,-85.1458"/>
</g>
<!-- Node8 -->
<g id="node9" class="node"><title>Node8</title>
<polygon fill="white" stroke="#bfbfbf" points="460.5,-56.5 460.5,-75.5 562.5,-75.5 562.5,-56.5 460.5,-56.5"/>
<text text-anchor="middle" x="511.5" y="-63.5" font-family="Helvetica,sans-Serif" font-size="10.00">odb/sqlite/traits.hxx</text>
</g>
<!-- Node0&#45;&gt;Node8 -->
<g id="edge8" class="edge"><title>Node0&#45;&gt;Node8</title>
<path fill="none" stroke="midnightblue" d="M371.868,-112.399C403.49,-102.118 445.833,-88.3506 475.571,-78.6818"/>
<polygon fill="midnightblue" stroke="midnightblue" points="476.711,-81.9915 485.139,-75.5709 474.547,-75.3345 476.711,-81.9915"/>
</g>
<!-- Node2 -->
<g id="node3" class="node"><title>Node2</title>
<polygon fill="white" stroke="#bfbfbf" points="0,-0.5 0,-19.5 49,-19.5 49,-0.5 0,-0.5"/>
<text text-anchor="middle" x="24.5" y="-7.5" font-family="Helvetica,sans-Serif" font-size="10.00">cstddef</text>
</g>
<!-- Node1&#45;&gt;Node2 -->
<g id="edge2" class="edge"><title>Node1&#45;&gt;Node2</title>
<path fill="none" stroke="midnightblue" d="M119.595,-56.4435C101.246,-47.6751 72.4946,-33.9355 51.4064,-23.8579"/>
<polygon fill="midnightblue" stroke="midnightblue" points="52.8532,-20.6703 42.3214,-19.5164 49.835,-26.9862 52.8532,-20.6703"/>
</g>
<!-- Node3 -->
<g id="node4" class="node"><title>Node3</title>
<polygon fill="white" stroke="#bfbfbf" points="67,-0.5 67,-19.5 132,-19.5 132,-0.5 67,-0.5"/>
<text text-anchor="middle" x="99.5" y="-7.5" font-family="Helvetica,sans-Serif" font-size="10.00">flagset.hpp</text>
</g>
<!-- Node1&#45;&gt;Node3 -->
<g id="edge3" class="edge"><title>Node1&#45;&gt;Node3</title>
<path fill="none" stroke="midnightblue" d="M131.225,-56.083C125.858,-48.4554 117.982,-37.2645 111.421,-27.9408"/>
<polygon fill="midnightblue" stroke="midnightblue" points="114.275,-25.9149 105.658,-19.7511 108.551,-29.9434 114.275,-25.9149"/>
</g>
<!-- Node4 -->
<g id="node5" class="node"><title>Node4</title>
<polygon fill="white" stroke="#bfbfbf" points="150.5,-0.5 150.5,-19.5 202.5,-19.5 202.5,-0.5 150.5,-0.5"/>
<text text-anchor="middle" x="176.5" y="-7.5" font-family="Helvetica,sans-Serif" font-size="10.00">memory</text>
</g>
<!-- Node1&#45;&gt;Node4 -->
<g id="edge4" class="edge"><title>Node1&#45;&gt;Node4</title>
<path fill="none" stroke="midnightblue" d="M143.94,-56.083C149.449,-48.4554 157.531,-37.2645 164.265,-27.9408"/>
<polygon fill="midnightblue" stroke="midnightblue" points="167.162,-29.9071 170.18,-19.7511 161.487,-25.8087 167.162,-29.9071"/>
</g>
<!-- Node5 -->
<g id="node6" class="node"><title>Node5</title>
<polygon fill="white" stroke="#bfbfbf" points="220.5,-0.5 220.5,-19.5 306.5,-19.5 306.5,-0.5 220.5,-0.5"/>
<text text-anchor="middle" x="263.5" y="-7.5" font-family="Helvetica,sans-Serif" font-size="10.00">odb/lazy&#45;ptr.hxx</text>
</g>
<!-- Node1&#45;&gt;Node5 -->
<g id="edge5" class="edge"><title>Node1&#45;&gt;Node5</title>
<path fill="none" stroke="midnightblue" d="M157.465,-56.4435C178.109,-47.5961 210.563,-33.6875 234.132,-23.5865"/>
<polygon fill="midnightblue" stroke="midnightblue" points="235.816,-26.6727 243.628,-19.5164 233.058,-20.2387 235.816,-26.6727"/>
</g>
</g>
</svg>
