<?xml version="1.0" encoding="UTF-8" standalone="no"?>
<!DOCTYPE svg PUBLIC "-//W3C//DTD SVG 1.1//EN"
 "http://www.w3.org/Graphics/SVG/1.1/DTD/svg11.dtd">
<!-- Generated by graphviz version 2.38.0 (20140413.2041)
 -->
<!-- Title: src/modules/websock&#45;api/api/MembershipCRUD.hpp Pages: 1 -->
<svg width="1142pt" height="397pt"
 viewBox="0.00 0.00 1141.50 397.00" xmlns="http://www.w3.org/2000/svg" xmlns:xlink="http://www.w3.org/1999/xlink">
<g id="graph0" class="graph" transform="scale(1 1) rotate(0) translate(4 393)">
<title>src/modules/websock&#45;api/api/MembershipCRUD.hpp</title>
<polygon fill="white" stroke="none" points="-4,4 -4,-393 1137.5,-393 1137.5,4 -4,4"/>
<!-- Node0 -->
<g id="node1" class="node"><title>Node0</title>
<polygon fill="#bfbfbf" stroke="black" points="373.5,-358.5 373.5,-388.5 526.5,-388.5 526.5,-358.5 373.5,-358.5"/>
<text text-anchor="start" x="381.5" y="-376.5" font-family="Helvetica,sans-Serif" font-size="10.00">src/modules/websock</text>
<text text-anchor="middle" x="450" y="-365.5" font-family="Helvetica,sans-Serif" font-size="10.00">&#45;api/api/MembershipCRUD.hpp</text>
</g>
<!-- Node1 -->
<g id="node2" class="node"><title>Node1</title>
<g id="a_node2"><a xlink:href="../../dc/df4/CRUDResourceHandler_8hpp.html" target="_top" xlink:title="api/CRUDResourceHandler.hpp">
<polygon fill="white" stroke="black" points="747.5,-302.5 747.5,-321.5 904.5,-321.5 904.5,-302.5 747.5,-302.5"/>
<text text-anchor="middle" x="826" y="-309.5" font-family="Helvetica,sans-Serif" font-size="10.00">api/CRUDResourceHandler.hpp</text>
</a>
</g>
</g>
<!-- Node0&#45;&gt;Node1 -->
<g id="edge1" class="edge"><title>Node0&#45;&gt;Node1</title>
<path fill="none" stroke="midnightblue" d="M526.542,-360.388C595.84,-349.422 696.759,-333.452 761.9,-323.143"/>
<polygon fill="midnightblue" stroke="midnightblue" points="762.708,-326.559 772.038,-321.539 761.614,-319.645 762.708,-326.559"/>
</g>
<!-- Node9 -->
<g id="node10" class="node"><title>Node9</title>
<g id="a_node10"><a xlink:href="../../d3/d6f/AuthFwd_8hpp.html" target="_top" xlink:title="core/auth/AuthFwd.hpp">
<polygon fill="white" stroke="black" points="0,-118 0,-137 118,-137 118,-118 0,-118"/>
<text text-anchor="middle" x="59" y="-125" font-family="Helvetica,sans-Serif" font-size="10.00">core/auth/AuthFwd.hpp</text>
</a>
</g>
</g>
<!-- Node0&#45;&gt;Node9 -->
<g id="edge44" class="edge"><title>Node0&#45;&gt;Node9</title>
<path fill="none" stroke="midnightblue" d="M427.288,-358.327C358.173,-315.196 150.911,-185.856 81.7478,-142.696"/>
<polygon fill="midnightblue" stroke="midnightblue" points="83.2705,-139.52 72.9339,-137.195 79.5646,-145.459 83.2705,-139.52"/>
</g>
<!-- Node2 -->
<g id="node3" class="node"><title>Node2</title>
<g id="a_node3"><a xlink:href="../../df/d2f/UserSecurityContext_8hpp.html" target="_top" xlink:title="core/UserSecurityContext.hpp">
<polygon fill="white" stroke="black" points="388.5,-241 388.5,-260 537.5,-260 537.5,-241 388.5,-241"/>
<text text-anchor="middle" x="463" y="-248" font-family="Helvetica,sans-Serif" font-size="10.00">core/UserSecurityContext.hpp</text>
</a>
</g>
</g>
<!-- Node1&#45;&gt;Node2 -->
<g id="edge2" class="edge"><title>Node1&#45;&gt;Node2</title>
<path fill="none" stroke="midnightblue" d="M773.991,-302.475C708.219,-291.694 595.11,-273.154 524.943,-261.653"/>
<polygon fill="midnightblue" stroke="midnightblue" points="525.347,-258.173 514.913,-260.009 524.215,-265.081 525.347,-258.173"/>
</g>
<!-- Node21 -->
<g id="node22" class="node"><title>Node21</title>
<g id="a_node22"><a xlink:href="../../dd/d46/RequestContext_8hpp.html" target="_top" xlink:title="modules/websock&#45;api\l/RequestContext.hpp">
<polygon fill="white" stroke="black" points="631.5,-235.5 631.5,-265.5 742.5,-265.5 742.5,-235.5 631.5,-235.5"/>
<text text-anchor="start" x="639.5" y="-253.5" font-family="Helvetica,sans-Serif" font-size="10.00">modules/websock&#45;api</text>
<text text-anchor="middle" x="687" y="-242.5" font-family="Helvetica,sans-Serif" font-size="10.00">/RequestContext.hpp</text>
</a>
</g>
</g>
<!-- Node1&#45;&gt;Node21 -->
<g id="edge30" class="edge"><title>Node1&#45;&gt;Node21</title>
<path fill="none" stroke="midnightblue" d="M806.085,-302.475C786.115,-293.927 754.75,-280.501 729.222,-269.573"/>
<polygon fill="midnightblue" stroke="midnightblue" points="730.33,-266.241 719.76,-265.523 727.575,-272.676 730.33,-266.241"/>
</g>
<!-- Node23 -->
<g id="node24" class="node"><title>Node23</title>
<polygon fill="white" stroke="#bfbfbf" points="904,-118 904,-137 948,-137 948,-118 904,-118"/>
<text text-anchor="middle" x="926" y="-125" font-family="Helvetica,sans-Serif" font-size="10.00">vector</text>
</g>
<!-- Node1&#45;&gt;Node23 -->
<g id="edge43" class="edge"><title>Node1&#45;&gt;Node23</title>
<path fill="none" stroke="midnightblue" d="M830.823,-302.198C846.366,-273.831 895.348,-184.44 916.318,-146.169"/>
<polygon fill="midnightblue" stroke="midnightblue" points="919.489,-147.666 921.225,-137.214 913.35,-144.302 919.489,-147.666"/>
</g>
<!-- Node24 -->
<g id="node25" class="node"><title>Node24</title>
<g id="a_node25"><a xlink:href="../../d8/d8b/WebSockFwd_8hpp.html" target="_top" xlink:title="WebSockFwd.hpp">
<polygon fill="white" stroke="black" points="777.5,-179.5 777.5,-198.5 874.5,-198.5 874.5,-179.5 777.5,-179.5"/>
<text text-anchor="middle" x="826" y="-186.5" font-family="Helvetica,sans-Serif" font-size="10.00">WebSockFwd.hpp</text>
</a>
</g>
</g>
<!-- Node1&#45;&gt;Node24 -->
<g id="edge40" class="edge"><title>Node1&#45;&gt;Node24</title>
<path fill="none" stroke="midnightblue" d="M826,-302.298C826,-282.85 826,-235.49 826,-208.904"/>
<polygon fill="midnightblue" stroke="midnightblue" points="829.5,-208.623 826,-198.623 822.5,-208.623 829.5,-208.623"/>
</g>
<!-- Node25 -->
<g id="node26" class="node"><title>Node25</title>
<polygon fill="white" stroke="#bfbfbf" points="966,-118 966,-137 1062,-137 1062,-118 966,-118"/>
<text text-anchor="middle" x="1014" y="-125" font-family="Helvetica,sans-Serif" font-size="10.00">boost/optional.hpp</text>
</g>
<!-- Node1&#45;&gt;Node25 -->
<g id="edge41" class="edge"><title>Node1&#45;&gt;Node25</title>
<path fill="none" stroke="midnightblue" d="M835.262,-302.436C844.973,-293.429 860.648,-278.812 874,-266 919.445,-222.393 972.266,-170.059 998.109,-144.345"/>
<polygon fill="midnightblue" stroke="midnightblue" points="1000.61,-146.795 1005.22,-137.259 995.669,-141.835 1000.61,-146.795"/>
</g>
<!-- Node26 -->
<g id="node27" class="node"><title>Node26</title>
<polygon fill="white" stroke="#bfbfbf" points="1080.5,-118 1080.5,-137 1133.5,-137 1133.5,-118 1080.5,-118"/>
<text text-anchor="middle" x="1107" y="-125" font-family="Helvetica,sans-Serif" font-size="10.00">json.hpp</text>
</g>
<!-- Node1&#45;&gt;Node26 -->
<g id="edge42" class="edge"><title>Node1&#45;&gt;Node26</title>
<path fill="none" stroke="midnightblue" d="M841.735,-302.361C857.63,-293.533 882.798,-279.273 904,-266 972.186,-223.316 1050.33,-168.719 1086.57,-143.059"/>
<polygon fill="midnightblue" stroke="midnightblue" points="1088.72,-145.826 1094.85,-137.184 1084.67,-140.117 1088.72,-145.826"/>
</g>
<!-- Node3 -->
<g id="node4" class="node"><title>Node3</title>
<g id="a_node4"><a xlink:href="../../d1/d3e/SecurityContext_8hpp.html" target="_top" xlink:title="core/SecurityContext.hpp">
<polygon fill="white" stroke="black" points="399,-179.5 399,-198.5 527,-198.5 527,-179.5 399,-179.5"/>
<text text-anchor="middle" x="463" y="-186.5" font-family="Helvetica,sans-Serif" font-size="10.00">core/SecurityContext.hpp</text>
</a>
</g>
</g>
<!-- Node2&#45;&gt;Node3 -->
<g id="edge3" class="edge"><title>Node2&#45;&gt;Node3</title>
<path fill="none" stroke="midnightblue" d="M463,-240.975C463,-232.58 463,-219.481 463,-208.663"/>
<polygon fill="midnightblue" stroke="midnightblue" points="466.5,-208.509 463,-198.509 459.5,-208.509 466.5,-208.509"/>
</g>
<!-- Node2&#45;&gt;Node9 -->
<g id="edge29" class="edge"><title>Node2&#45;&gt;Node9</title>
<path fill="none" stroke="midnightblue" d="M434.592,-240.992C363.542,-219.712 178.075,-164.164 97.4054,-140.003"/>
<polygon fill="midnightblue" stroke="midnightblue" points="98.2307,-136.596 87.6469,-137.08 96.2223,-143.302 98.2307,-136.596"/>
</g>
<!-- Node4 -->
<g id="node5" class="node"><title>Node4</title>
<g id="a_node5"><a xlink:href="../../d7/dcf/AuditFwd_8hpp.html" target="_top" xlink:title="core/audit/AuditFwd.hpp">
<polygon fill="white" stroke="black" points="136,-118 136,-137 258,-137 258,-118 136,-118"/>
<text text-anchor="middle" x="197" y="-125" font-family="Helvetica,sans-Serif" font-size="10.00">core/audit/AuditFwd.hpp</text>
</a>
</g>
</g>
<!-- Node3&#45;&gt;Node4 -->
<g id="edge4" class="edge"><title>Node3&#45;&gt;Node4</title>
<path fill="none" stroke="midnightblue" d="M424.889,-179.475C377.483,-168.871 296.516,-150.76 244.944,-139.224"/>
<polygon fill="midnightblue" stroke="midnightblue" points="245.564,-135.776 235.041,-137.009 244.035,-142.608 245.564,-135.776"/>
</g>
<!-- Node3&#45;&gt;Node9 -->
<g id="edge9" class="edge"><title>Node3&#45;&gt;Node9</title>
<path fill="none" stroke="midnightblue" d="M398.988,-180.912C331.218,-173.062 221.233,-159.332 127,-143 120.367,-141.85 113.398,-140.514 106.553,-139.126"/>
<polygon fill="midnightblue" stroke="midnightblue" points="107.169,-135.679 96.6663,-137.072 105.745,-142.533 107.169,-135.679"/>
</g>
<!-- Node10 -->
<g id="node11" class="node"><title>Node10</title>
<g id="a_node11"><a xlink:href="../../d7/d7f/CredentialFwd_8hpp.html" target="_top" xlink:title="core/credentials/Credential\lFwd.hpp">
<polygon fill="white" stroke="black" points="276.5,-112.5 276.5,-142.5 409.5,-142.5 409.5,-112.5 276.5,-112.5"/>
<text text-anchor="start" x="284.5" y="-130.5" font-family="Helvetica,sans-Serif" font-size="10.00">core/credentials/Credential</text>
<text text-anchor="middle" x="343" y="-119.5" font-family="Helvetica,sans-Serif" font-size="10.00">Fwd.hpp</text>
</a>
</g>
</g>
<!-- Node3&#45;&gt;Node10 -->
<g id="edge13" class="edge"><title>Node3&#45;&gt;Node10</title>
<path fill="none" stroke="midnightblue" d="M445.807,-179.475C428.795,-171.04 402.204,-157.855 380.327,-147.008"/>
<polygon fill="midnightblue" stroke="midnightblue" points="381.796,-143.83 371.282,-142.523 378.686,-150.101 381.796,-143.83"/>
</g>
<!-- Node11 -->
<g id="node12" class="node"><title>Node11</title>
<g id="a_node12"><a xlink:href="../../d9/dc8/HardwareFwd_8hpp.html" target="_top" xlink:title="hardware/HardwareFwd.hpp">
<polygon fill="white" stroke="black" points="746.5,-118 746.5,-137 885.5,-137 885.5,-118 746.5,-118"/>
<text text-anchor="middle" x="816" y="-125" font-family="Helvetica,sans-Serif" font-size="10.00">hardware/HardwareFwd.hpp</text>
</a>
</g>
</g>
<!-- Node3&#45;&gt;Node11 -->
<g id="edge16" class="edge"><title>Node3&#45;&gt;Node11</title>
<path fill="none" stroke="midnightblue" d="M513.576,-179.475C577.405,-168.716 687.079,-150.23 755.344,-138.724"/>
<polygon fill="midnightblue" stroke="midnightblue" points="756.238,-142.123 765.518,-137.009 755.075,-135.22 756.238,-142.123"/>
</g>
<!-- Node19 -->
<g id="node20" class="node"><title>Node19</title>
<g id="a_node20"><a xlink:href="../../d8/d97/ToolsFwd_8hpp.html" target="_top" xlink:title="tools/ToolsFwd.hpp">
<polygon fill="white" stroke="black" points="428,-118 428,-137 530,-137 530,-118 428,-118"/>
<text text-anchor="middle" x="479" y="-125" font-family="Helvetica,sans-Serif" font-size="10.00">tools/ToolsFwd.hpp</text>
</a>
</g>
</g>
<!-- Node3&#45;&gt;Node19 -->
<g id="edge24" class="edge"><title>Node3&#45;&gt;Node19</title>
<path fill="none" stroke="midnightblue" d="M465.292,-179.475C467.574,-170.992 471.147,-157.704 474.073,-146.822"/>
<polygon fill="midnightblue" stroke="midnightblue" points="477.495,-147.575 476.712,-137.009 470.735,-145.757 477.495,-147.575"/>
</g>
<!-- Node20 -->
<g id="node21" class="node"><title>Node20</title>
<g id="a_node21"><a xlink:href="../../d9/d69/db__fwd_8hpp.html" target="_top" xlink:title="tools/db/db_fwd.hpp">
<polygon fill="white" stroke="black" points="548,-118 548,-137 652,-137 652,-118 548,-118"/>
<text text-anchor="middle" x="600" y="-125" font-family="Helvetica,sans-Serif" font-size="10.00">tools/db/db_fwd.hpp</text>
</a>
</g>
</g>
<!-- Node3&#45;&gt;Node20 -->
<g id="edge27" class="edge"><title>Node3&#45;&gt;Node20</title>
<path fill="none" stroke="midnightblue" d="M482.629,-179.475C505.824,-169.401 544.619,-152.553 571.213,-141.002"/>
<polygon fill="midnightblue" stroke="midnightblue" points="572.63,-144.203 580.408,-137.009 569.841,-137.782 572.63,-144.203"/>
</g>
<!-- Node5 -->
<g id="node6" class="node"><title>Node5</title>
<polygon fill="white" stroke="#bfbfbf" points="65.5,-56.5 65.5,-75.5 114.5,-75.5 114.5,-56.5 65.5,-56.5"/>
<text text-anchor="middle" x="90" y="-63.5" font-family="Helvetica,sans-Serif" font-size="10.00">cstddef</text>
</g>
<!-- Node4&#45;&gt;Node5 -->
<g id="edge5" class="edge"><title>Node4&#45;&gt;Node5</title>
<path fill="none" stroke="midnightblue" d="M181.67,-117.975C164.03,-108.166 134.84,-91.9346 114.142,-80.425"/>
<polygon fill="midnightblue" stroke="midnightblue" points="115.743,-77.3102 105.302,-75.5091 112.341,-83.4279 115.743,-77.3102"/>
</g>
<!-- Node6 -->
<g id="node7" class="node"><title>Node6</title>
<polygon fill="white" stroke="#bfbfbf" points="164.5,-56.5 164.5,-75.5 229.5,-75.5 229.5,-56.5 164.5,-56.5"/>
<text text-anchor="middle" x="197" y="-63.5" font-family="Helvetica,sans-Serif" font-size="10.00">flagset.hpp</text>
</g>
<!-- Node4&#45;&gt;Node6 -->
<g id="edge6" class="edge"><title>Node4&#45;&gt;Node6</title>
<path fill="none" stroke="midnightblue" d="M197,-117.975C197,-109.58 197,-96.4806 197,-85.6631"/>
<polygon fill="midnightblue" stroke="midnightblue" points="200.5,-85.5091 197,-75.5091 193.5,-85.5091 200.5,-85.5091"/>
</g>
<!-- Node7 -->
<g id="node8" class="node"><title>Node7</title>
<polygon fill="white" stroke="#bfbfbf" points="453,-56.5 453,-75.5 505,-75.5 505,-56.5 453,-56.5"/>
<text text-anchor="middle" x="479" y="-63.5" font-family="Helvetica,sans-Serif" font-size="10.00">memory</text>
</g>
<!-- Node4&#45;&gt;Node7 -->
<g id="edge7" class="edge"><title>Node4&#45;&gt;Node7</title>
<path fill="none" stroke="midnightblue" d="M237.404,-117.975C292.516,-106.347 390.412,-85.6915 443.082,-74.5784"/>
<polygon fill="midnightblue" stroke="midnightblue" points="443.925,-77.9776 452.987,-72.4885 442.48,-71.1284 443.925,-77.9776"/>
</g>
<!-- Node8 -->
<g id="node9" class="node"><title>Node8</title>
<polygon fill="white" stroke="#bfbfbf" points="274,-56.5 274,-75.5 360,-75.5 360,-56.5 274,-56.5"/>
<text text-anchor="middle" x="317" y="-63.5" font-family="Helvetica,sans-Serif" font-size="10.00">odb/lazy&#45;ptr.hxx</text>
</g>
<!-- Node4&#45;&gt;Node8 -->
<g id="edge8" class="edge"><title>Node4&#45;&gt;Node8</title>
<path fill="none" stroke="midnightblue" d="M214.193,-117.975C234.243,-108.034 267.599,-91.4947 290.86,-79.961"/>
<polygon fill="midnightblue" stroke="midnightblue" points="292.434,-83.0871 299.839,-75.5091 289.325,-76.8157 292.434,-83.0871"/>
</g>
<!-- Node9&#45;&gt;Node5 -->
<g id="edge10" class="edge"><title>Node9&#45;&gt;Node5</title>
<path fill="none" stroke="midnightblue" d="M63.4415,-117.975C67.9534,-109.315 75.0739,-95.6486 80.8066,-84.6453"/>
<polygon fill="midnightblue" stroke="midnightblue" points="84.0501,-85.9948 85.5667,-75.5091 77.8421,-82.7604 84.0501,-85.9948"/>
</g>
<!-- Node9&#45;&gt;Node7 -->
<g id="edge11" class="edge"><title>Node9&#45;&gt;Node7</title>
<path fill="none" stroke="midnightblue" d="M96.3039,-117.963C106.247,-115.848 117.004,-113.702 127,-112 241.776,-92.4609 378.916,-77.247 442.855,-70.6203"/>
<polygon fill="midnightblue" stroke="midnightblue" points="443.247,-74.0985 452.837,-69.5941 442.531,-67.1352 443.247,-74.0985"/>
</g>
<!-- Node9&#45;&gt;Node8 -->
<g id="edge12" class="edge"><title>Node9&#45;&gt;Node8</title>
<path fill="none" stroke="midnightblue" d="M95.9651,-117.975C141.85,-107.393 220.15,-89.3356 270.185,-77.7966"/>
<polygon fill="midnightblue" stroke="midnightblue" points="271.146,-81.1669 280.103,-75.5091 269.573,-74.3459 271.146,-81.1669"/>
</g>
<!-- Node10&#45;&gt;Node7 -->
<g id="edge14" class="edge"><title>Node10&#45;&gt;Node7</title>
<path fill="none" stroke="midnightblue" d="M375.23,-112.399C397.845,-102.505 427.838,-89.3832 449.761,-79.7919"/>
<polygon fill="midnightblue" stroke="midnightblue" points="451.452,-82.8726 459.211,-75.6578 448.646,-76.4595 451.452,-82.8726"/>
</g>
<!-- Node10&#45;&gt;Node8 -->
<g id="edge15" class="edge"><title>Node10&#45;&gt;Node8</title>
<path fill="none" stroke="midnightblue" d="M336.838,-112.399C333.255,-104.199 328.703,-93.7809 324.863,-84.9936"/>
<polygon fill="midnightblue" stroke="midnightblue" points="327.995,-83.4197 320.783,-75.6578 321.58,-86.2226 327.995,-83.4197"/>
</g>
<!-- Node12 -->
<g id="node13" class="node"><title>Node12</title>
<g id="a_node13"><a xlink:href="../../dc/dea/Uuid_8hpp.html" target="_top" xlink:title="tools/Uuid.hpp">
<polygon fill="white" stroke="black" points="776,-56.5 776,-75.5 856,-75.5 856,-56.5 776,-56.5"/>
<text text-anchor="middle" x="816" y="-63.5" font-family="Helvetica,sans-Serif" font-size="10.00">tools/Uuid.hpp</text>
</a>
</g>
</g>
<!-- Node11&#45;&gt;Node12 -->
<g id="edge17" class="edge"><title>Node11&#45;&gt;Node12</title>
<path fill="none" stroke="midnightblue" d="M816,-117.975C816,-109.58 816,-96.4806 816,-85.6631"/>
<polygon fill="midnightblue" stroke="midnightblue" points="819.5,-85.5091 816,-75.5091 812.5,-85.5091 819.5,-85.5091"/>
</g>
<!-- Node13 -->
<g id="node14" class="node"><title>Node13</title>
<polygon fill="white" stroke="#bfbfbf" points="391,-0.5 391,-19.5 505,-19.5 505,-0.5 391,-0.5"/>
<text text-anchor="middle" x="448" y="-7.5" font-family="Helvetica,sans-Serif" font-size="10.00">boost/lexical_cast.hpp</text>
</g>
<!-- Node12&#45;&gt;Node13 -->
<g id="edge18" class="edge"><title>Node12&#45;&gt;Node13</title>
<path fill="none" stroke="midnightblue" d="M775.917,-59.1183C713.252,-49.9228 591.376,-32.0389 515.147,-20.8531"/>
<polygon fill="midnightblue" stroke="midnightblue" points="515.567,-17.3773 505.165,-19.3883 514.551,-24.3032 515.567,-17.3773"/>
</g>
<!-- Node14 -->
<g id="node15" class="node"><title>Node14</title>
<polygon fill="white" stroke="#bfbfbf" points="523.5,-0.5 523.5,-19.5 684.5,-19.5 684.5,-0.5 523.5,-0.5"/>
<text text-anchor="middle" x="604" y="-7.5" font-family="Helvetica,sans-Serif" font-size="10.00">boost/uuid/random_generator.hpp</text>
</g>
<!-- Node12&#45;&gt;Node14 -->
<g id="edge19" class="edge"><title>Node12&#45;&gt;Node14</title>
<path fill="none" stroke="midnightblue" d="M782.408,-56.4435C745.813,-47.1221 687.162,-32.1828 647.174,-21.9972"/>
<polygon fill="midnightblue" stroke="midnightblue" points="647.989,-18.5932 637.435,-19.5164 646.261,-25.3766 647.989,-18.5932"/>
</g>
<!-- Node15 -->
<g id="node16" class="node"><title>Node15</title>
<polygon fill="white" stroke="#bfbfbf" points="702.5,-0.5 702.5,-19.5 803.5,-19.5 803.5,-0.5 702.5,-0.5"/>
<text text-anchor="middle" x="753" y="-7.5" font-family="Helvetica,sans-Serif" font-size="10.00">boost/uuid/uuid.hpp</text>
</g>
<!-- Node12&#45;&gt;Node15 -->
<g id="edge20" class="edge"><title>Node12&#45;&gt;Node15</title>
<path fill="none" stroke="midnightblue" d="M805.878,-56.324C796.474,-48.2631 782.256,-36.0765 770.931,-26.3695"/>
<polygon fill="midnightblue" stroke="midnightblue" points="773.177,-23.6844 763.306,-19.8339 768.621,-28.9993 773.177,-23.6844"/>
</g>
<!-- Node16 -->
<g id="node17" class="node"><title>Node16</title>
<polygon fill="white" stroke="#bfbfbf" points="822,-0.5 822,-19.5 936,-19.5 936,-0.5 822,-0.5"/>
<text text-anchor="middle" x="879" y="-7.5" font-family="Helvetica,sans-Serif" font-size="10.00">boost/uuid/uuid_io.hpp</text>
</g>
<!-- Node12&#45;&gt;Node16 -->
<g id="edge21" class="edge"><title>Node12&#45;&gt;Node16</title>
<path fill="none" stroke="midnightblue" d="M826.122,-56.324C835.526,-48.2631 849.744,-36.0765 861.069,-26.3695"/>
<polygon fill="midnightblue" stroke="midnightblue" points="863.379,-28.9993 868.694,-19.8339 858.823,-23.6844 863.379,-28.9993"/>
</g>
<!-- Node17 -->
<g id="node18" class="node"><title>Node17</title>
<polygon fill="white" stroke="#bfbfbf" points="954.5,-0.5 954.5,-19.5 1027.5,-19.5 1027.5,-0.5 954.5,-0.5"/>
<text text-anchor="middle" x="991" y="-7.5" font-family="Helvetica,sans-Serif" font-size="10.00">odb/core.hxx</text>
</g>
<!-- Node12&#45;&gt;Node17 -->
<g id="edge22" class="edge"><title>Node12&#45;&gt;Node17</title>
<path fill="none" stroke="midnightblue" d="M843.729,-56.4435C873.426,-47.2801 920.716,-32.6876 953.669,-22.5192"/>
<polygon fill="midnightblue" stroke="midnightblue" points="954.877,-25.8094 963.4,-19.5164 952.813,-19.1206 954.877,-25.8094"/>
</g>
<!-- Node18 -->
<g id="node19" class="node"><title>Node18</title>
<polygon fill="white" stroke="#bfbfbf" points="1045.5,-0.5 1045.5,-19.5 1086.5,-19.5 1086.5,-0.5 1045.5,-0.5"/>
<text text-anchor="middle" x="1066" y="-7.5" font-family="Helvetica,sans-Serif" font-size="10.00">string</text>
</g>
<!-- Node12&#45;&gt;Node18 -->
<g id="edge23" class="edge"><title>Node12&#45;&gt;Node18</title>
<path fill="none" stroke="midnightblue" d="M856.39,-57.8631C898.627,-50.1513 967.019,-36.9656 1035.33,-19.9758"/>
<polygon fill="midnightblue" stroke="midnightblue" points="1036.57,-23.2752 1045.41,-17.4417 1034.86,-16.4866 1036.57,-23.2752"/>
</g>
<!-- Node19&#45;&gt;Node7 -->
<g id="edge25" class="edge"><title>Node19&#45;&gt;Node7</title>
<path fill="none" stroke="midnightblue" d="M479,-117.975C479,-109.58 479,-96.4806 479,-85.6631"/>
<polygon fill="midnightblue" stroke="midnightblue" points="482.5,-85.5091 479,-75.5091 475.5,-85.5091 482.5,-85.5091"/>
</g>
<!-- Node19&#45;&gt;Node8 -->
<g id="edge26" class="edge"><title>Node19&#45;&gt;Node8</title>
<path fill="none" stroke="midnightblue" d="M455.789,-117.975C428.001,-107.769 381.277,-90.608 349.806,-79.0492"/>
<polygon fill="midnightblue" stroke="midnightblue" points="350.761,-75.6714 340.168,-75.5091 348.348,-82.2422 350.761,-75.6714"/>
</g>
<!-- Node20&#45;&gt;Node7 -->
<g id="edge28" class="edge"><title>Node20&#45;&gt;Node7</title>
<path fill="none" stroke="midnightblue" d="M582.664,-117.975C562.447,-108.034 528.813,-91.4947 505.358,-79.961"/>
<polygon fill="midnightblue" stroke="midnightblue" points="506.822,-76.781 496.304,-75.5091 503.733,-83.0627 506.822,-76.781"/>
</g>
<!-- Node21&#45;&gt;Node4 -->
<g id="edge38" class="edge"><title>Node21&#45;&gt;Node4</title>
<path fill="none" stroke="midnightblue" d="M631.344,-243.109C571.179,-235.49 472.782,-220.962 390,-199 330.337,-183.172 263.153,-156.531 225.873,-140.926"/>
<polygon fill="midnightblue" stroke="midnightblue" points="227.196,-137.686 216.622,-137.023 224.475,-144.135 227.196,-137.686"/>
</g>
<!-- Node21&#45;&gt;Node20 -->
<g id="edge39" class="edge"><title>Node21&#45;&gt;Node20</title>
<path fill="none" stroke="midnightblue" d="M669.6,-235.305C658.722,-225.82 644.941,-212.622 635,-199 623.073,-182.656 613.235,-161.635 607.059,-146.814"/>
<polygon fill="midnightblue" stroke="midnightblue" points="610.203,-145.251 603.231,-137.273 603.706,-147.858 610.203,-145.251"/>
</g>
<!-- Node22 -->
<g id="node23" class="node"><title>Node22</title>
<g id="a_node23"><a xlink:href="../../dc/d49/LeosacFwd_8hpp.html" target="_top" xlink:title="LeosacFwd.hpp">
<polygon fill="white" stroke="black" points="644,-179.5 644,-198.5 730,-198.5 730,-179.5 644,-179.5"/>
<text text-anchor="middle" x="687" y="-186.5" font-family="Helvetica,sans-Serif" font-size="10.00">LeosacFwd.hpp</text>
</a>
</g>
</g>
<!-- Node21&#45;&gt;Node22 -->
<g id="edge31" class="edge"><title>Node21&#45;&gt;Node22</title>
<path fill="none" stroke="midnightblue" d="M687,-235.399C687,-227.466 687,-217.458 687,-208.858"/>
<polygon fill="midnightblue" stroke="midnightblue" points="690.5,-208.658 687,-198.658 683.5,-208.658 690.5,-208.658"/>
</g>
<!-- Node21&#45;&gt;Node24 -->
<g id="edge34" class="edge"><title>Node21&#45;&gt;Node24</title>
<path fill="none" stroke="midnightblue" d="M719.941,-235.399C743.159,-225.461 773.986,-212.265 796.419,-202.662"/>
<polygon fill="midnightblue" stroke="midnightblue" points="797.958,-205.811 805.774,-198.658 795.204,-199.375 797.958,-205.811"/>
</g>
<!-- Node22&#45;&gt;Node7 -->
<g id="edge32" class="edge"><title>Node22&#45;&gt;Node7</title>
<path fill="none" stroke="midnightblue" d="M686.621,-179.27C685.445,-163.444 680.637,-129.995 661,-112 621.018,-75.3622 555.988,-67.3532 515.449,-66.2271"/>
<polygon fill="midnightblue" stroke="midnightblue" points="515.255,-62.7239 505.204,-66.0746 515.15,-69.7231 515.255,-62.7239"/>
</g>
<!-- Node22&#45;&gt;Node23 -->
<g id="edge33" class="edge"><title>Node22&#45;&gt;Node23</title>
<path fill="none" stroke="midnightblue" d="M730.127,-181.363C772.499,-174.207 838.663,-161.323 894,-143 895.867,-142.382 897.772,-141.689 899.675,-140.951"/>
<polygon fill="midnightblue" stroke="midnightblue" points="901.148,-144.128 908.995,-137.009 898.422,-137.681 901.148,-144.128"/>
</g>
<!-- Node24&#45;&gt;Node7 -->
<g id="edge37" class="edge"><title>Node24&#45;&gt;Node7</title>
<path fill="none" stroke="midnightblue" d="M808.104,-179.351C790.012,-170.515 761.329,-156.249 737,-143 713.034,-129.948 709.416,-121.936 684,-112 627.061,-89.7406 556.701,-77.3292 514.969,-71.4185"/>
<polygon fill="midnightblue" stroke="midnightblue" points="515.385,-67.9427 505.002,-70.0538 514.435,-74.878 515.385,-67.9427"/>
</g>
<!-- Node24&#45;&gt;Node25 -->
<g id="edge35" class="edge"><title>Node24&#45;&gt;Node25</title>
<path fill="none" stroke="midnightblue" d="M852.936,-179.475C885.603,-169.136 940.819,-151.661 977.343,-140.102"/>
<polygon fill="midnightblue" stroke="midnightblue" points="978.636,-143.363 987.114,-137.009 976.524,-136.69 978.636,-143.363"/>
</g>
<!-- Node24&#45;&gt;Node26 -->
<g id="edge36" class="edge"><title>Node24&#45;&gt;Node26</title>
<path fill="none" stroke="midnightblue" d="M874.55,-182.021C924.466,-175.192 1004.13,-162.394 1071,-143 1073.43,-142.294 1075.93,-141.482 1078.42,-140.611"/>
<polygon fill="midnightblue" stroke="midnightblue" points="1079.71,-143.866 1087.82,-137.055 1077.23,-137.319 1079.71,-143.866"/>
</g>
</g>
</svg>
