<?xml version="1.0" encoding="UTF-8" standalone="no"?>
<!DOCTYPE svg PUBLIC "-//W3C//DTD SVG 1.1//EN"
 "http://www.w3.org/Graphics/SVG/1.1/DTD/svg11.dtd">
<!-- Generated by graphviz version 2.38.0 (20140413.2041)
 -->
<!-- Title: Leosac::Module::LedBuzzer::SM::LedBuzzerSM_ Pages: 1 -->
<svg width="648pt" height="132pt"
 viewBox="0.00 0.00 648.00 132.00" xmlns="http://www.w3.org/2000/svg" xmlns:xlink="http://www.w3.org/1999/xlink">
<g id="graph0" class="graph" transform="scale(1 1) rotate(0) translate(4 128)">
<title>Leosac::Module::LedBuzzer::SM::LedBuzzerSM_</title>
<polygon fill="white" stroke="none" points="-4,4 -4,-128 644,-128 644,4 -4,4"/>
<!-- Node2 -->
<g id="node1" class="node"><title>Node2</title>
<polygon fill="#bfbfbf" stroke="black" points="502,-44.5 502,-74.5 640,-74.5 640,-44.5 502,-44.5"/>
<text text-anchor="start" x="510" y="-62.5" font-family="Helvetica,sans-Serif" font-size="10.00">Leosac::Module::LedBuzzer</text>
<text text-anchor="middle" x="571" y="-51.5" font-family="Helvetica,sans-Serif" font-size="10.00">::SM::LedBuzzerSM_</text>
</g>
<!-- Node3 -->
<g id="node2" class="node"><title>Node3</title>
<polygon fill="white" stroke="#bfbfbf" points="290.5,-93.5 290.5,-123.5 410.5,-123.5 410.5,-93.5 290.5,-93.5"/>
<text text-anchor="start" x="298.5" y="-111.5" font-family="Helvetica,sans-Serif" font-size="10.00">msmf::state_machine</text>
<text text-anchor="middle" x="350.5" y="-100.5" font-family="Helvetica,sans-Serif" font-size="10.00">_def&lt; LedBuzzerSM_ &gt;</text>
</g>
<!-- Node3&#45;&gt;Node2 -->
<g id="edge1" class="edge"><title>Node3&#45;&gt;Node2</title>
<path fill="none" stroke="midnightblue" d="M420.545,-93.0161C446.923,-87.1007 476.935,-80.3704 503.109,-74.5007"/>
<polygon fill="midnightblue" stroke="midnightblue" points="419.621,-89.6364 410.629,-95.2399 421.153,-96.4668 419.621,-89.6364"/>
</g>
<!-- Node4 -->
<g id="node3" class="node"><title>Node4</title>
<g id="a_node3"><a xlink:href="../../d8/d84/structLeosac_1_1Hardware_1_1FLED_1_1State.html" target="_top" xlink:title="Leosac::Hardware::FLED\l::State">
<polygon fill="white" stroke="black" points="286.5,-44.5 286.5,-74.5 414.5,-74.5 414.5,-44.5 286.5,-44.5"/>
<text text-anchor="start" x="294.5" y="-62.5" font-family="Helvetica,sans-Serif" font-size="10.00">Leosac::Hardware::FLED</text>
<text text-anchor="middle" x="350.5" y="-51.5" font-family="Helvetica,sans-Serif" font-size="10.00">::State</text>
</a>
</g>
</g>
<!-- Node4&#45;&gt;Node2 -->
<g id="edge2" class="edge"><title>Node4&#45;&gt;Node2</title>
<path fill="none" stroke="#9a32cd" stroke-dasharray="5,2" d="M424.827,-59.5C449.753,-59.5 477.488,-59.5 501.981,-59.5"/>
<polygon fill="#9a32cd" stroke="#9a32cd" points="424.699,-56.0001 414.699,-59.5 424.699,-63.0001 424.699,-56.0001"/>
<text text-anchor="middle" x="459.5" y="-62.5" font-family="Helvetica,sans-Serif" font-size="10.00"> led_state_</text>
</g>
<!-- Node5 -->
<g id="node4" class="node"><title>Node5</title>
<g id="a_node4"><a xlink:href="../../d0/dea/classLeosac_1_1Hardware_1_1FGPIO.html" target="_top" xlink:title="A Facade to a GPIO object. ">
<polygon fill="white" stroke="black" points="284,-6 284,-25 417,-25 417,-6 284,-6"/>
<text text-anchor="middle" x="350.5" y="-13" font-family="Helvetica,sans-Serif" font-size="10.00">Leosac::Hardware::FGPIO</text>
</a>
</g>
</g>
<!-- Node5&#45;&gt;Node2 -->
<g id="edge3" class="edge"><title>Node5&#45;&gt;Node2</title>
<path fill="none" stroke="#9a32cd" stroke-dasharray="5,2" d="M408.736,-27.0259C437.294,-32.7766 472.037,-39.7729 501.951,-45.7967"/>
<polygon fill="#9a32cd" stroke="#9a32cd" points="409.405,-23.5904 398.911,-25.0473 408.023,-30.4527 409.405,-23.5904"/>
<text text-anchor="middle" x="459.5" y="-44.5" font-family="Helvetica,sans-Serif" font-size="10.00"> gpio_</text>
</g>
<!-- Node6 -->
<g id="node5" class="node"><title>Node6</title>
<g id="a_node5"><a xlink:title="STL class. ">
<polygon fill="white" stroke="#bfbfbf" points="132,-6 132,-25 192,-25 192,-6 132,-6"/>
<text text-anchor="middle" x="162" y="-13" font-family="Helvetica,sans-Serif" font-size="10.00">std::string</text>
</a>
</g>
</g>
<!-- Node6&#45;&gt;Node5 -->
<g id="edge4" class="edge"><title>Node6&#45;&gt;Node5</title>
<path fill="none" stroke="#9a32cd" stroke-dasharray="5,2" d="M202.145,-15.5C225.809,-15.5 256.58,-15.5 283.878,-15.5"/>
<polygon fill="#9a32cd" stroke="#9a32cd" points="202.141,-12.0001 192.141,-15.5 202.141,-19.0001 202.141,-12.0001"/>
<text text-anchor="middle" x="238" y="-18.5" font-family="Helvetica,sans-Serif" font-size="10.00"> gpio_name_</text>
</g>
<!-- Node7 -->
<g id="node6" class="node"><title>Node7</title>
<g id="a_node6"><a xlink:title="STL class. ">
<polygon fill="white" stroke="#bfbfbf" points="0,-0.5 0,-30.5 95,-30.5 95,-0.5 0,-0.5"/>
<text text-anchor="start" x="8" y="-18.5" font-family="Helvetica,sans-Serif" font-size="10.00">std::basic_string&lt;</text>
<text text-anchor="middle" x="47.5" y="-7.5" font-family="Helvetica,sans-Serif" font-size="10.00"> char &gt;</text>
</a>
</g>
</g>
<!-- Node7&#45;&gt;Node6 -->
<g id="edge5" class="edge"><title>Node7&#45;&gt;Node6</title>
<path fill="none" stroke="midnightblue" d="M105.526,-15.5C114.678,-15.5 123.803,-15.5 131.931,-15.5"/>
<polygon fill="midnightblue" stroke="midnightblue" points="105.233,-12.0001 95.2328,-15.5 105.233,-19.0001 105.233,-12.0001"/>
</g>
</g>
</svg>
