<?xml version="1.0" encoding="UTF-8" standalone="no"?>
<!DOCTYPE svg PUBLIC "-//W3C//DTD SVG 1.1//EN"
 "http://www.w3.org/Graphics/SVG/1.1/DTD/svg11.dtd">
<!-- Generated by graphviz version 2.38.0 (20140413.2041)
 -->
<!-- Title: Leosac::Hardware::RFIDReader Pages: 1 -->
<svg width="166pt" height="151pt"
 viewBox="0.00 0.00 166.00 151.00" xmlns="http://www.w3.org/2000/svg" xmlns:xlink="http://www.w3.org/1999/xlink">
<g id="graph0" class="graph" transform="scale(1 1) rotate(0) translate(4 147)">
<title>Leosac::Hardware::RFIDReader</title>
<polygon fill="white" stroke="none" points="-4,4 -4,-147 162,-147 162,4 -4,4"/>
<!-- Node0 -->
<g id="node1" class="node"><title>Node0</title>
<polygon fill="#bfbfbf" stroke="black" points="-1.42109e-14,-67.5 -1.42109e-14,-86.5 158,-86.5 158,-67.5 -1.42109e-14,-67.5"/>
<text text-anchor="middle" x="79" y="-74.5" font-family="Helvetica,sans-Serif" font-size="10.00">Leosac::Hardware::RFIDReader</text>
</g>
<!-- Node2 -->
<g id="node3" class="node"><title>Node2</title>
<g id="a_node3"><a xlink:href="../../dc/dfa/structLeosac_1_1Module_1_1Wiegand_1_1WiegandReaderConfig.html" target="_top" xlink:title="An instance of this class represents the configuration of one Wiegand reader. ">
<polygon fill="white" stroke="black" points="14,-0.5 14,-30.5 144,-30.5 144,-0.5 14,-0.5"/>
<text text-anchor="start" x="22" y="-18.5" font-family="Helvetica,sans-Serif" font-size="10.00">Leosac::Module::Wiegand</text>
<text text-anchor="middle" x="79" y="-7.5" font-family="Helvetica,sans-Serif" font-size="10.00">::WiegandReaderConfig</text>
</a>
</g>
</g>
<!-- Node0&#45;&gt;Node2 -->
<g id="edge2" class="edge"><title>Node0&#45;&gt;Node2</title>
<path fill="none" stroke="midnightblue" d="M79,-57.2349C79,-48.5864 79,-38.4969 79,-30.523"/>
<polygon fill="midnightblue" stroke="midnightblue" points="75.5001,-57.4751 79,-67.4751 82.5001,-57.4751 75.5001,-57.4751"/>
</g>
<!-- Node1 -->
<g id="node2" class="node"><title>Node1</title>
<g id="a_node2"><a xlink:href="../../d3/d7f/classLeosac_1_1Hardware_1_1Device.html" target="_top" xlink:title="Base class for hardware devices. ">
<polygon fill="white" stroke="black" points="12.5,-123.5 12.5,-142.5 145.5,-142.5 145.5,-123.5 12.5,-123.5"/>
<text text-anchor="middle" x="79" y="-130.5" font-family="Helvetica,sans-Serif" font-size="10.00">Leosac::Hardware::Device</text>
</a>
</g>
</g>
<!-- Node1&#45;&gt;Node0 -->
<g id="edge1" class="edge"><title>Node1&#45;&gt;Node0</title>
<path fill="none" stroke="midnightblue" d="M79,-112.805C79,-103.91 79,-93.7798 79,-86.7511"/>
<polygon fill="midnightblue" stroke="midnightblue" points="75.5001,-113.083 79,-123.083 82.5001,-113.083 75.5001,-113.083"/>
</g>
</g>
</svg>
