<?xml version="1.0" encoding="UTF-8" standalone="no"?>
<!DOCTYPE svg PUBLIC "-//W3C//DTD SVG 1.1//EN"
 "http://www.w3.org/Graphics/SVG/1.1/DTD/svg11.dtd">
<!-- Generated by graphviz version 2.38.0 (20140413.2041)
 -->
<!-- Title: src/modules/rpleth/network/circularbuffer.hpp Pages: 1 -->
<svg width="484pt" height="173pt"
 viewBox="0.00 0.00 483.50 173.00" xmlns="http://www.w3.org/2000/svg" xmlns:xlink="http://www.w3.org/1999/xlink">
<g id="graph0" class="graph" transform="scale(1 1) rotate(0) translate(4 169)">
<title>src/modules/rpleth/network/circularbuffer.hpp</title>
<polygon fill="white" stroke="none" points="-4,4 -4,-169 479.5,-169 479.5,4 -4,4"/>
<!-- Node5 -->
<g id="node1" class="node"><title>Node5</title>
<polygon fill="#bfbfbf" stroke="black" points="210.5,-134.5 210.5,-164.5 342.5,-164.5 342.5,-134.5 210.5,-134.5"/>
<text text-anchor="start" x="218.5" y="-152.5" font-family="Helvetica,sans-Serif" font-size="10.00">src/modules/rpleth</text>
<text text-anchor="middle" x="276.5" y="-141.5" font-family="Helvetica,sans-Serif" font-size="10.00">/network/circularbuffer.hpp</text>
</g>
<!-- Node6 -->
<g id="node2" class="node"><title>Node6</title>
<g id="a_node2"><a xlink:href="../../d3/d0f/RplethModule_8hpp.html" target="_top" xlink:title="src/modules/rpleth\l/RplethModule.hpp">
<polygon fill="white" stroke="black" points="111.5,-67.5 111.5,-97.5 209.5,-97.5 209.5,-67.5 111.5,-67.5"/>
<text text-anchor="start" x="119.5" y="-85.5" font-family="Helvetica,sans-Serif" font-size="10.00">src/modules/rpleth</text>
<text text-anchor="middle" x="160.5" y="-74.5" font-family="Helvetica,sans-Serif" font-size="10.00">/RplethModule.hpp</text>
</a>
</g>
</g>
<!-- Node5&#45;&gt;Node6 -->
<g id="edge1" class="edge"><title>Node5&#45;&gt;Node6</title>
<path fill="none" stroke="midnightblue" d="M242.228,-129.296C224.077,-119.125 202.18,-106.855 185.621,-97.5765"/>
<polygon fill="midnightblue" stroke="midnightblue" points="240.895,-132.561 251.33,-134.396 244.317,-126.454 240.895,-132.561"/>
</g>
<!-- Node10 -->
<g id="node6" class="node"><title>Node10</title>
<g id="a_node6"><a xlink:href="../../dc/dda/circularbuffer_8cpp.html" target="_top" xlink:title="simple circular buffer class ">
<polygon fill="white" stroke="black" points="343.5,-67.5 343.5,-97.5 475.5,-97.5 475.5,-67.5 343.5,-67.5"/>
<text text-anchor="start" x="351.5" y="-85.5" font-family="Helvetica,sans-Serif" font-size="10.00">src/modules/rpleth</text>
<text text-anchor="middle" x="409.5" y="-74.5" font-family="Helvetica,sans-Serif" font-size="10.00">/network/circularbuffer.cpp</text>
</a>
</g>
</g>
<!-- Node5&#45;&gt;Node10 -->
<g id="edge5" class="edge"><title>Node5&#45;&gt;Node10</title>
<path fill="none" stroke="midnightblue" d="M314.37,-129.992C335.451,-119.689 361.277,-107.068 380.697,-97.5765"/>
<polygon fill="midnightblue" stroke="midnightblue" points="312.807,-126.86 305.359,-134.396 315.88,-133.15 312.807,-126.86"/>
</g>
<!-- Node11 -->
<g id="node7" class="node"><title>Node11</title>
<g id="a_node7"><a xlink:href="../../d9/dda/rplethprotocol_8hpp.html" target="_top" xlink:title="Rpleth protocol implementation. ">
<polygon fill="white" stroke="black" points="228,-67.5 228,-97.5 325,-97.5 325,-67.5 228,-67.5"/>
<text text-anchor="start" x="236" y="-85.5" font-family="Helvetica,sans-Serif" font-size="10.00">src/modules/rpleth</text>
<text text-anchor="middle" x="276.5" y="-74.5" font-family="Helvetica,sans-Serif" font-size="10.00">/rplethprotocol.hpp</text>
</a>
</g>
</g>
<!-- Node5&#45;&gt;Node11 -->
<g id="edge6" class="edge"><title>Node5&#45;&gt;Node11</title>
<path fill="none" stroke="midnightblue" d="M276.5,-124.108C276.5,-115.154 276.5,-105.323 276.5,-97.5765"/>
<polygon fill="midnightblue" stroke="midnightblue" points="273,-124.396 276.5,-134.396 280,-124.396 273,-124.396"/>
</g>
<!-- Node7 -->
<g id="node3" class="node"><title>Node7</title>
<g id="a_node3"><a xlink:href="../../d1/d31/rpleth_2init_8cpp.html" target="_top" xlink:title="src/modules/rpleth\l/init.cpp">
<polygon fill="white" stroke="black" points="0,-0.5 0,-30.5 97,-30.5 97,-0.5 0,-0.5"/>
<text text-anchor="start" x="8" y="-18.5" font-family="Helvetica,sans-Serif" font-size="10.00">src/modules/rpleth</text>
<text text-anchor="middle" x="48.5" y="-7.5" font-family="Helvetica,sans-Serif" font-size="10.00">/init.cpp</text>
</a>
</g>
</g>
<!-- Node6&#45;&gt;Node7 -->
<g id="edge2" class="edge"><title>Node6&#45;&gt;Node7</title>
<path fill="none" stroke="midnightblue" d="M127.409,-62.2956C109.884,-52.1248 88.7423,-39.8549 72.7549,-30.5765"/>
<polygon fill="midnightblue" stroke="midnightblue" points="125.792,-65.4036 136.198,-67.396 129.306,-59.3493 125.792,-65.4036"/>
</g>
<!-- Node8 -->
<g id="node4" class="node"><title>Node8</title>
<g id="a_node4"><a xlink:href="../../d8/dba/RplethModule_8cpp.html" target="_top" xlink:title="src/modules/rpleth\l/RplethModule.cpp">
<polygon fill="white" stroke="black" points="115.5,-0.5 115.5,-30.5 213.5,-30.5 213.5,-0.5 115.5,-0.5"/>
<text text-anchor="start" x="123.5" y="-18.5" font-family="Helvetica,sans-Serif" font-size="10.00">src/modules/rpleth</text>
<text text-anchor="middle" x="164.5" y="-7.5" font-family="Helvetica,sans-Serif" font-size="10.00">/RplethModule.cpp</text>
</a>
</g>
</g>
<!-- Node6&#45;&gt;Node8 -->
<g id="edge3" class="edge"><title>Node6&#45;&gt;Node8</title>
<path fill="none" stroke="midnightblue" d="M161.983,-57.4029C162.539,-48.3703 163.152,-38.4078 163.634,-30.5765"/>
<polygon fill="midnightblue" stroke="midnightblue" points="158.489,-57.1998 161.368,-67.396 165.476,-57.6299 158.489,-57.1998"/>
</g>
<!-- Node9 -->
<g id="node5" class="node"><title>Node9</title>
<g id="a_node5"><a xlink:href="../../db/d44/Rpleth_8cpp.html" target="_top" xlink:title="test/Rpleth.cpp">
<polygon fill="white" stroke="black" points="232,-6 232,-25 315,-25 315,-6 232,-6"/>
<text text-anchor="middle" x="273.5" y="-13" font-family="Helvetica,sans-Serif" font-size="10.00">test/Rpleth.cpp</text>
</a>
</g>
</g>
<!-- Node6&#45;&gt;Node9 -->
<g id="edge4" class="edge"><title>Node6&#45;&gt;Node9</title>
<path fill="none" stroke="midnightblue" d="M193.866,-62.3071C215.391,-49.9256 242.33,-34.4296 258.711,-25.007"/>
<polygon fill="midnightblue" stroke="midnightblue" points="191.942,-59.3759 185.019,-67.396 195.433,-65.4437 191.942,-59.3759"/>
</g>
<!-- Node11&#45;&gt;Node8 -->
<g id="edge7" class="edge"><title>Node11&#45;&gt;Node8</title>
<path fill="none" stroke="midnightblue" d="M243.409,-62.2956C225.884,-52.1248 204.742,-39.8549 188.755,-30.5765"/>
<polygon fill="midnightblue" stroke="midnightblue" points="241.792,-65.4036 252.198,-67.396 245.306,-59.3493 241.792,-65.4036"/>
</g>
<!-- Node11&#45;&gt;Node9 -->
<g id="edge9" class="edge"><title>Node11&#45;&gt;Node9</title>
<path fill="none" stroke="midnightblue" d="M275.381,-57.2495C274.862,-46.017 274.279,-33.3767 273.901,-25.1945"/>
<polygon fill="midnightblue" stroke="midnightblue" points="271.892,-57.568 275.849,-67.396 278.884,-57.2452 271.892,-57.568"/>
</g>
<!-- Node12 -->
<g id="node8" class="node"><title>Node12</title>
<g id="a_node8"><a xlink:href="../../d6/d0b/rplethprotocol_8cpp.html" target="_top" xlink:title="Rpleth protocol implementation. ">
<polygon fill="white" stroke="black" points="333,-0.5 333,-30.5 430,-30.5 430,-0.5 333,-0.5"/>
<text text-anchor="start" x="341" y="-18.5" font-family="Helvetica,sans-Serif" font-size="10.00">src/modules/rpleth</text>
<text text-anchor="middle" x="381.5" y="-7.5" font-family="Helvetica,sans-Serif" font-size="10.00">/rplethprotocol.cpp</text>
</a>
</g>
</g>
<!-- Node11&#45;&gt;Node12 -->
<g id="edge8" class="edge"><title>Node11&#45;&gt;Node12</title>
<path fill="none" stroke="midnightblue" d="M307.976,-62.0151C324.315,-51.8999 343.91,-39.7698 358.761,-30.5765"/>
<polygon fill="midnightblue" stroke="midnightblue" points="305.944,-59.1564 299.283,-67.396 309.628,-65.1083 305.944,-59.1564"/>
</g>
</g>
</svg>
