<?xml version="1.0" encoding="UTF-8" standalone="no"?>
<!DOCTYPE svg PUBLIC "-//W3C//DTD SVG 1.1//EN"
 "http://www.w3.org/Graphics/SVG/1.1/DTD/svg11.dtd">
<!-- Generated by graphviz version 2.38.0 (20140413.2041)
 -->
<!-- Title: src/modules/websock&#45;api/WebSockFwd.hpp Pages: 1 -->
<svg width="246pt" height="95pt"
 viewBox="0.00 0.00 246.00 95.00" xmlns="http://www.w3.org/2000/svg" xmlns:xlink="http://www.w3.org/1999/xlink">
<g id="graph0" class="graph" transform="scale(1 1) rotate(0) translate(4 91)">
<title>src/modules/websock&#45;api/WebSockFwd.hpp</title>
<polygon fill="white" stroke="none" points="-4,4 -4,-91 242,-91 242,4 -4,4"/>
<!-- Node0 -->
<g id="node1" class="node"><title>Node0</title>
<polygon fill="#bfbfbf" stroke="black" points="83,-56.5 83,-86.5 199,-86.5 199,-56.5 83,-56.5"/>
<text text-anchor="start" x="91" y="-74.5" font-family="Helvetica,sans-Serif" font-size="10.00">src/modules/websock</text>
<text text-anchor="middle" x="141" y="-63.5" font-family="Helvetica,sans-Serif" font-size="10.00">&#45;api/WebSockFwd.hpp</text>
</g>
<!-- Node1 -->
<g id="node2" class="node"><title>Node1</title>
<polygon fill="white" stroke="#bfbfbf" points="0,-0.5 0,-19.5 96,-19.5 96,-0.5 0,-0.5"/>
<text text-anchor="middle" x="48" y="-7.5" font-family="Helvetica,sans-Serif" font-size="10.00">boost/optional.hpp</text>
</g>
<!-- Node0&#45;&gt;Node1 -->
<g id="edge1" class="edge"><title>Node0&#45;&gt;Node1</title>
<path fill="none" stroke="midnightblue" d="M118.96,-56.3993C104.192,-46.9511 84.8231,-34.5589 70.0525,-25.1089"/>
<polygon fill="midnightblue" stroke="midnightblue" points="71.8421,-22.0988 61.5323,-19.6578 68.0696,-27.9953 71.8421,-22.0988"/>
</g>
<!-- Node2 -->
<g id="node3" class="node"><title>Node2</title>
<polygon fill="white" stroke="#bfbfbf" points="114.5,-0.5 114.5,-19.5 167.5,-19.5 167.5,-0.5 114.5,-0.5"/>
<text text-anchor="middle" x="141" y="-7.5" font-family="Helvetica,sans-Serif" font-size="10.00">json.hpp</text>
</g>
<!-- Node0&#45;&gt;Node2 -->
<g id="edge2" class="edge"><title>Node0&#45;&gt;Node2</title>
<path fill="none" stroke="midnightblue" d="M141,-56.3993C141,-48.4664 141,-38.458 141,-29.8583"/>
<polygon fill="midnightblue" stroke="midnightblue" points="144.5,-29.6577 141,-19.6578 137.5,-29.6578 144.5,-29.6577"/>
</g>
<!-- Node3 -->
<g id="node4" class="node"><title>Node3</title>
<polygon fill="white" stroke="#bfbfbf" points="186,-0.5 186,-19.5 238,-19.5 238,-0.5 186,-0.5"/>
<text text-anchor="middle" x="212" y="-7.5" font-family="Helvetica,sans-Serif" font-size="10.00">memory</text>
</g>
<!-- Node0&#45;&gt;Node3 -->
<g id="edge3" class="edge"><title>Node0&#45;&gt;Node3</title>
<path fill="none" stroke="midnightblue" d="M157.826,-56.3993C168.675,-47.3076 182.777,-35.4899 193.873,-26.1909"/>
<polygon fill="midnightblue" stroke="midnightblue" points="196.252,-28.7634 201.669,-19.6578 191.756,-23.3983 196.252,-28.7634"/>
</g>
</g>
</svg>
