<?xml version="1.0" encoding="UTF-8" standalone="no"?>
<!DOCTYPE svg PUBLIC "-//W3C//DTD SVG 1.1//EN"
 "http://www.w3.org/Graphics/SVG/1.1/DTD/svg11.dtd">
<!-- Generated by graphviz version 2.38.0 (20140413.2041)
 -->
<!-- Title: src/exception/InvalidArgument.hpp Pages: 1 -->
<!--zoomable 162 -->
<svg id="main" version="1.1" xmlns="http://www.w3.org/2000/svg" xmlns:xlink="http://www.w3.org/1999/xlink" xml:space="preserve" onload="init(evt)">
<style type="text/css"><![CDATA[
.edge:hover path { stroke: red; }
.edge:hover polygon { stroke: red; fill: red; }
]]></style>
<script type="text/javascript"><![CDATA[
var edges = document.getElementsByTagName('g');
if (edges && edges.length) {
  for (var i=0;i<edges.length;i++) {
    if (edges[i].id.substr(0,4)=='edge') {
      edges[i].setAttribute('class','edge');
    }
  }
}
]]></script>
        <defs>
                <circle id="rim" cx="0" cy="0" r="7"/>
                <circle id="rim2" cx="0" cy="0" r="3.5"/>
                <g id="zoomPlus">
                        <use xlink:href="#rim" fill="#404040">
                                <set attributeName="fill" to="#808080" begin="zoomplus.mouseover" end="zoomplus.mouseout"/>
                        </use>
                        <path d="M-4,0h8M0,-4v8" fill="none" stroke="white" stroke-width="1.5" pointer-events="none"/>
                </g>
                <g id="zoomMin">
                        <use xlink:href="#rim" fill="#404040">
                                <set attributeName="fill" to="#808080" begin="zoomminus.mouseover" end="zoomminus.mouseout"/>
                        </use>
                        <path d="M-4,0h8" fill="none" stroke="white" stroke-width="1.5" pointer-events="none"/>
                </g>
                <g id="dirArrow">
                        <path fill="none" stroke="white" stroke-width="1.5" d="M0,-3.0v7 M-2.5,-0.5L0,-3.0L2.5,-0.5"/>
                </g>
               <g id="resetDef">
                       <use xlink:href="#rim2" fill="#404040">
                               <set attributeName="fill" to="#808080" begin="reset.mouseover" end="reset.mouseout"/>
                       </use>
               </g>
        </defs>

<script type="text/javascript">
var viewWidth = 1022;
var viewHeight = 162;
var sectionId = 'dynsection-1';
</script>
<script xlink:href="../../svgpan.js"/>
<svg id="graph" class="graph">
<g id="viewport">
<title>src/exception/InvalidArgument.hpp</title>
<polygon fill="white" stroke="none" points="-4,4 -4,-158 1018,-158 1018,4 -4,4"/>
<!-- Node19 -->
<g id="node1" class="node"><title>Node19</title>
<polygon fill="#bfbfbf" stroke="black" points="112.5,-134.5 112.5,-153.5 279.5,-153.5 279.5,-134.5 112.5,-134.5"/>
<text text-anchor="middle" x="196" y="-141.5" font-family="Helvetica,sans-Serif" font-size="10.00">src/exception/InvalidArgument.hpp</text>
</g>
<!-- Node20 -->
<g id="node2" class="node"><title>Node20</title>
<g id="a_node2"><a xlink:href="../../da/d62/AuditGet_8cpp.html" target="_top" xlink:title="src/modules/websock\l&#45;api/api/AuditGet.cpp">
<polygon fill="white" stroke="black" points="0,-0.5 0,-30.5 112,-30.5 112,-0.5 0,-0.5"/>
<text text-anchor="start" x="8" y="-18.5" font-family="Helvetica,sans-Serif" font-size="10.00">src/modules/websock</text>
<text text-anchor="middle" x="56" y="-7.5" font-family="Helvetica,sans-Serif" font-size="10.00">&#45;api/api/AuditGet.cpp</text>
</a>
</g>
</g>
<!-- Node19&#45;&gt;Node20 -->
<g id="edge1" class="edge"><title>Node19&#45;&gt;Node20</title>
<path fill="none" stroke="midnightblue" d="M166.751,-129.973C150.99,-122.098 131.799,-111.06 117,-98 94.207,-77.8865 74.5057,-48.0101 64.0308,-30.5693"/>
<polygon fill="midnightblue" stroke="midnightblue" points="165.523,-133.267 176.051,-134.458 168.564,-126.962 165.523,-133.267"/>
</g>
<!-- Node21 -->
<g id="node3" class="node"><title>Node21</title>
<g id="a_node3"><a xlink:href="../../d7/d0b/ExceptionConverter_8cpp.html" target="_top" xlink:title="src/modules/websock\l&#45;api/ExceptionConverter.cpp">
<polygon fill="white" stroke="black" points="126,-67.5 126,-97.5 266,-97.5 266,-67.5 126,-67.5"/>
<text text-anchor="start" x="134" y="-85.5" font-family="Helvetica,sans-Serif" font-size="10.00">src/modules/websock</text>
<text text-anchor="middle" x="196" y="-74.5" font-family="Helvetica,sans-Serif" font-size="10.00">&#45;api/ExceptionConverter.cpp</text>
</a>
</g>
</g>
<!-- Node19&#45;&gt;Node21 -->
<g id="edge2" class="edge"><title>Node19&#45;&gt;Node21</title>
<path fill="none" stroke="midnightblue" d="M196,-124.235C196,-115.586 196,-105.497 196,-97.523"/>
<polygon fill="midnightblue" stroke="midnightblue" points="192.5,-124.475 196,-134.475 199.5,-124.475 192.5,-124.475"/>
</g>
<!-- Node22 -->
<g id="node4" class="node"><title>Node22</title>
<g id="a_node4"><a xlink:href="../../dc/da6/enforce_8hpp.html" target="_top" xlink:title="src/tools/enforce.hpp">
<polygon fill="white" stroke="black" points="377,-73 377,-92 485,-92 485,-73 377,-73"/>
<text text-anchor="middle" x="431" y="-80" font-family="Helvetica,sans-Serif" font-size="10.00">src/tools/enforce.hpp</text>
</a>
</g>
</g>
<!-- Node19&#45;&gt;Node22 -->
<g id="edge3" class="edge"><title>Node19&#45;&gt;Node22</title>
<path fill="none" stroke="midnightblue" d="M239.57,-131.968C285.202,-120.415 355.89,-102.517 397.393,-92.0091"/>
<polygon fill="midnightblue" stroke="midnightblue" points="238.505,-128.628 229.67,-134.475 240.223,-135.413 238.505,-128.628"/>
</g>
<!-- Node22&#45;&gt;Node20 -->
<g id="edge7" class="edge"><title>Node22&#45;&gt;Node20</title>
<path fill="none" stroke="midnightblue" d="M366.635,-72.1281C303.801,-62.717 205.574,-47.3077 121,-31 118.162,-30.4527 115.258,-29.8741 112.329,-29.2753"/>
<polygon fill="midnightblue" stroke="midnightblue" points="366.384,-75.6293 376.791,-73.6432 367.417,-68.7059 366.384,-75.6293"/>
</g>
<!-- Node23 -->
<g id="node5" class="node"><title>Node23</title>
<g id="a_node5"><a xlink:href="../../d0/dc0/src_2core_2auth_2AuthSourceBuilder_8cpp.html" target="_top" xlink:title="src/core/auth/AuthSource\lBuilder.cpp">
<polygon fill="white" stroke="black" points="130,-0.5 130,-30.5 258,-30.5 258,-0.5 130,-0.5"/>
<text text-anchor="start" x="138" y="-18.5" font-family="Helvetica,sans-Serif" font-size="10.00">src/core/auth/AuthSource</text>
<text text-anchor="middle" x="194" y="-7.5" font-family="Helvetica,sans-Serif" font-size="10.00">Builder.cpp</text>
</a>
</g>
</g>
<!-- Node22&#45;&gt;Node23 -->
<g id="edge4" class="edge"><title>Node22&#45;&gt;Node23</title>
<path fill="none" stroke="midnightblue" d="M389.791,-70.1979C349.615,-59.1792 288.415,-42.3944 245.148,-30.5281"/>
<polygon fill="midnightblue" stroke="midnightblue" points="388.959,-73.5988 399.528,-72.8685 390.81,-66.8481 388.959,-73.5988"/>
</g>
<!-- Node24 -->
<g id="node6" class="node"><title>Node24</title>
<g id="a_node6"><a xlink:href="../../d3/dc5/FileAuthSourceMapper_8cpp.html" target="_top" xlink:title="src/modules/auth/auth\l&#45;file/FileAuthSourceMapper.cpp">
<polygon fill="white" stroke="black" points="276.5,-0.5 276.5,-30.5 429.5,-30.5 429.5,-0.5 276.5,-0.5"/>
<text text-anchor="start" x="284.5" y="-18.5" font-family="Helvetica,sans-Serif" font-size="10.00">src/modules/auth/auth</text>
<text text-anchor="middle" x="353" y="-7.5" font-family="Helvetica,sans-Serif" font-size="10.00">&#45;file/FileAuthSourceMapper.cpp</text>
</a>
</g>
</g>
<!-- Node22&#45;&gt;Node24 -->
<g id="edge5" class="edge"><title>Node22&#45;&gt;Node24</title>
<path fill="none" stroke="midnightblue" d="M412.685,-66.2371C399.742,-55.4518 382.523,-41.1025 369.907,-30.589"/>
<polygon fill="midnightblue" stroke="midnightblue" points="410.558,-69.0207 420.481,-72.7338 415.039,-63.6431 410.558,-69.0207"/>
</g>
<!-- Node25 -->
<g id="node7" class="node"><title>Node25</title>
<g id="a_node7"><a xlink:href="../../d6/d95/PFDigitalModule_8cpp.html" target="_top" xlink:title="src/modules/pifacedigital\l/PFDigitalModule.cpp">
<polygon fill="white" stroke="black" points="447.5,-0.5 447.5,-30.5 572.5,-30.5 572.5,-0.5 447.5,-0.5"/>
<text text-anchor="start" x="455.5" y="-18.5" font-family="Helvetica,sans-Serif" font-size="10.00">src/modules/pifacedigital</text>
<text text-anchor="middle" x="510" y="-7.5" font-family="Helvetica,sans-Serif" font-size="10.00">/PFDigitalModule.cpp</text>
</a>
</g>
</g>
<!-- Node22&#45;&gt;Node25 -->
<g id="edge6" class="edge"><title>Node22&#45;&gt;Node25</title>
<path fill="none" stroke="midnightblue" d="M449.55,-66.2371C462.659,-55.4518 480.099,-41.1025 492.876,-30.589"/>
<polygon fill="midnightblue" stroke="midnightblue" points="447.153,-63.6774 441.654,-72.7338 451.6,-69.0829 447.153,-63.6774"/>
</g>
<!-- Node26 -->
<g id="node8" class="node"><title>Node26</title>
<g id="a_node8"><a xlink:href="../../d7/dde/DoorCRUD_8cpp.html" target="_top" xlink:title="src/modules/websock\l&#45;api/api/DoorCRUD.cpp">
<polygon fill="white" stroke="black" points="590.5,-0.5 590.5,-30.5 711.5,-30.5 711.5,-0.5 590.5,-0.5"/>
<text text-anchor="start" x="598.5" y="-18.5" font-family="Helvetica,sans-Serif" font-size="10.00">src/modules/websock</text>
<text text-anchor="middle" x="651" y="-7.5" font-family="Helvetica,sans-Serif" font-size="10.00">&#45;api/api/DoorCRUD.cpp</text>
</a>
</g>
</g>
<!-- Node22&#45;&gt;Node26 -->
<g id="edge8" class="edge"><title>Node22&#45;&gt;Node26</title>
<path fill="none" stroke="midnightblue" d="M470.206,-69.9165C507.509,-58.8951 563.698,-42.2938 603.52,-30.5281"/>
<polygon fill="midnightblue" stroke="midnightblue" points="468.813,-66.6784 460.214,-72.8685 470.796,-73.3915 468.813,-66.6784"/>
</g>
<!-- Node27 -->
<g id="node9" class="node"><title>Node27</title>
<g id="a_node9"><a xlink:href="../../df/dfa/ScheduleCRUD_8cpp.html" target="_top" xlink:title="src/modules/websock\l&#45;api/api/ScheduleCRUD.cpp">
<polygon fill="white" stroke="black" points="730,-0.5 730,-30.5 870,-30.5 870,-0.5 730,-0.5"/>
<text text-anchor="start" x="738" y="-18.5" font-family="Helvetica,sans-Serif" font-size="10.00">src/modules/websock</text>
<text text-anchor="middle" x="800" y="-7.5" font-family="Helvetica,sans-Serif" font-size="10.00">&#45;api/api/ScheduleCRUD.cpp</text>
</a>
</g>
</g>
<!-- Node22&#45;&gt;Node27 -->
<g id="edge9" class="edge"><title>Node22&#45;&gt;Node27</title>
<path fill="none" stroke="midnightblue" d="M490.998,-71.2162C549.663,-61.1223 641.509,-45.216 721,-31 723.883,-30.4845 726.824,-29.956 729.795,-29.4201"/>
<polygon fill="midnightblue" stroke="midnightblue" points="490.062,-67.8257 480.8,-72.9699 491.249,-74.7244 490.062,-67.8257"/>
</g>
<!-- Node28 -->
<g id="node10" class="node"><title>Node28</title>
<g id="a_node10"><a xlink:href="../../d3/d3e/ThreadUtils_8cpp.html" target="_top" xlink:title="src/tools/ThreadUtils.cpp">
<polygon fill="white" stroke="black" points="888,-6 888,-25 1014,-25 1014,-6 888,-6"/>
<text text-anchor="middle" x="951" y="-13" font-family="Helvetica,sans-Serif" font-size="10.00">src/tools/ThreadUtils.cpp</text>
</a>
</g>
</g>
<!-- Node22&#45;&gt;Node28 -->
<g id="edge10" class="edge"><title>Node22&#45;&gt;Node28</title>
<path fill="none" stroke="midnightblue" d="M495.348,-76.0093C582.575,-68.1646 743.069,-52.308 879,-31 889.708,-29.3215 901.242,-27.1591 911.874,-25.0192"/>
<polygon fill="midnightblue" stroke="midnightblue" points="494.986,-72.5275 485.337,-76.9032 495.609,-79.4998 494.986,-72.5275"/>
</g>
</g>
</svg>
        <g id="navigator" transform="translate(0 0)" fill="#404254">
                <rect fill="#f2f5e9" fill-opacity="0.5" stroke="#606060" stroke-width=".5" x="0" y="0" width="60" height="60"/>
                <use id="zoomplus" xlink:href="#zoomPlus" x="17" y="9" onmousedown="handleZoom(evt,'in')"/>
                <use id="zoomminus" xlink:href="#zoomMin" x="42" y="9" onmousedown="handleZoom(evt,'out')"/>
                <use id="reset" xlink:href="#resetDef" x="30" y="36" onmousedown="handleReset()"/>
                <g id="arrowUp" xlink:href="#dirArrow" transform="translate(30 24)" onmousedown="handlePan(0,-1)">
                  <use xlink:href="#rim" fill="#404040">
                        <set attributeName="fill" to="#808080" begin="arrowUp.mouseover" end="arrowUp.mouseout"/>
                  </use>
                  <path fill="none" stroke="white" stroke-width="1.5" d="M0,-3.0v7 M-2.5,-0.5L0,-3.0L2.5,-0.5"/>
                </g>
                <g id="arrowRight" xlink:href="#dirArrow" transform="rotate(90) translate(36 -43)" onmousedown="handlePan(1,0)">
                  <use xlink:href="#rim" fill="#404040">
                        <set attributeName="fill" to="#808080" begin="arrowRight.mouseover" end="arrowRight.mouseout"/>
                  </use>
                  <path fill="none" stroke="white" stroke-width="1.5" d="M0,-3.0v7 M-2.5,-0.5L0,-3.0L2.5,-0.5"/>
                </g>
                <g id="arrowDown" xlink:href="#dirArrow" transform="rotate(180) translate(-30 -48)" onmousedown="handlePan(0,1)">
                  <use xlink:href="#rim" fill="#404040">
                        <set attributeName="fill" to="#808080" begin="arrowDown.mouseover" end="arrowDown.mouseout"/>
                  </use>
                  <path fill="none" stroke="white" stroke-width="1.5" d="M0,-3.0v7 M-2.5,-0.5L0,-3.0L2.5,-0.5"/>
                </g>
                <g id="arrowLeft" xlink:href="#dirArrow" transform="rotate(270) translate(-36 17)" onmousedown="handlePan(-1,0)">
                  <use xlink:href="#rim" fill="#404040">
                        <set attributeName="fill" to="#808080" begin="arrowLeft.mouseover" end="arrowLeft.mouseout"/>
                  </use>
                  <path fill="none" stroke="white" stroke-width="1.5" d="M0,-3.0v7 M-2.5,-0.5L0,-3.0L2.5,-0.5"/>
                </g>
        </g>
        <svg viewBox="0 0 15 15" width="100%" height="30px" preserveAspectRatio="xMaxYMin meet">
         <g id="arrow_out" transform="scale(0.3 0.3)">
          <a xlink:href="InvalidArgument_8hpp__dep__incl_org.svg" target="_base">
           <rect id="button" ry="5" rx="5" y="6" x="6" height="38" width="38"
                fill="#f2f5e9" fill-opacity="0.5" stroke="#606060" stroke-width="1.0"/>
           <path id="arrow"
             d="M 11.500037,31.436501 C 11.940474,20.09759 22.043105,11.32322 32.158766,21.979434 L 37.068811,17.246167 C 37.068811,17.246167 37.088388,32 37.088388,32 L 22.160133,31.978069 C 22.160133,31.978069 26.997745,27.140456 26.997745,27.140456 C 18.528582,18.264221 13.291696,25.230495 11.500037,31.436501 z"
             style="fill:#404040;"/>
          </a>
         </g>
        </svg>
</svg>
